<?xml version="1.0" encoding="utf-8"?>
<svg xmlns="http://www.w3.org/2000/svg" xmlns:xlink="http://www.w3.org/1999/xlink" width="600" height="400" viewBox="0 0 2400 1600">
<defs>
  <clipPath id="clip920">
    <rect x="0" y="0" width="2400" height="1600"/>
  </clipPath>
</defs>
<path clip-path="url(#clip920)" d="M0 1600 L2400 1600 L2400 0 L0 0  Z" fill="#ffffff" fill-rule="evenodd" fill-opacity="1"/>
<defs>
  <clipPath id="clip921">
    <rect x="480" y="0" width="1681" height="1600"/>
  </clipPath>
</defs>
<path clip-path="url(#clip920)" d="M280.19 1423.18 L2352.76 1423.18 L2352.76 47.2441 L280.19 47.2441  Z" fill="#ffffff" fill-rule="evenodd" fill-opacity="1"/>
<defs>
  <clipPath id="clip922">
    <rect x="280" y="47" width="2074" height="1377"/>
  </clipPath>
</defs>
<polyline clip-path="url(#clip922)" style="stroke:#000000; stroke-linecap:round; stroke-linejoin:round; stroke-width:2; stroke-opacity:0.1; fill:none" points="338.848,1423.18 338.848,47.2441 "/>
<polyline clip-path="url(#clip922)" style="stroke:#000000; stroke-linecap:round; stroke-linejoin:round; stroke-width:2; stroke-opacity:0.1; fill:none" points="827.66,1423.18 827.66,47.2441 "/>
<polyline clip-path="url(#clip922)" style="stroke:#000000; stroke-linecap:round; stroke-linejoin:round; stroke-width:2; stroke-opacity:0.1; fill:none" points="1316.47,1423.18 1316.47,47.2441 "/>
<polyline clip-path="url(#clip922)" style="stroke:#000000; stroke-linecap:round; stroke-linejoin:round; stroke-width:2; stroke-opacity:0.1; fill:none" points="1805.29,1423.18 1805.29,47.2441 "/>
<polyline clip-path="url(#clip922)" style="stroke:#000000; stroke-linecap:round; stroke-linejoin:round; stroke-width:2; stroke-opacity:0.1; fill:none" points="2294.1,1423.18 2294.1,47.2441 "/>
<polyline clip-path="url(#clip920)" style="stroke:#000000; stroke-linecap:round; stroke-linejoin:round; stroke-width:4; stroke-opacity:1; fill:none" points="280.19,1423.18 2352.76,1423.18 "/>
<polyline clip-path="url(#clip920)" style="stroke:#000000; stroke-linecap:round; stroke-linejoin:round; stroke-width:4; stroke-opacity:1; fill:none" points="338.848,1423.18 338.848,1404.28 "/>
<polyline clip-path="url(#clip920)" style="stroke:#000000; stroke-linecap:round; stroke-linejoin:round; stroke-width:4; stroke-opacity:1; fill:none" points="827.66,1423.18 827.66,1404.28 "/>
<polyline clip-path="url(#clip920)" style="stroke:#000000; stroke-linecap:round; stroke-linejoin:round; stroke-width:4; stroke-opacity:1; fill:none" points="1316.47,1423.18 1316.47,1404.28 "/>
<polyline clip-path="url(#clip920)" style="stroke:#000000; stroke-linecap:round; stroke-linejoin:round; stroke-width:4; stroke-opacity:1; fill:none" points="1805.29,1423.18 1805.29,1404.28 "/>
<polyline clip-path="url(#clip920)" style="stroke:#000000; stroke-linecap:round; stroke-linejoin:round; stroke-width:4; stroke-opacity:1; fill:none" points="2294.1,1423.18 2294.1,1404.28 "/>
<path clip-path="url(#clip920)" d="M301.151 1454.1 Q297.54 1454.1 295.711 1457.66 Q293.906 1461.2 293.906 1468.33 Q293.906 1475.44 295.711 1479.01 Q297.54 1482.55 301.151 1482.55 Q304.785 1482.55 306.591 1479.01 Q308.419 1475.44 308.419 1468.33 Q308.419 1461.2 306.591 1457.66 Q304.785 1454.1 301.151 1454.1 M301.151 1450.39 Q306.961 1450.39 310.017 1455 Q313.095 1459.58 313.095 1468.33 Q313.095 1477.06 310.017 1481.67 Q306.961 1486.25 301.151 1486.25 Q295.341 1486.25 292.262 1481.67 Q289.207 1477.06 289.207 1468.33 Q289.207 1459.58 292.262 1455 Q295.341 1450.39 301.151 1450.39 Z" fill="#000000" fill-rule="nonzero" fill-opacity="1" /><path clip-path="url(#clip920)" d="M321.313 1479.7 L326.197 1479.7 L326.197 1485.58 L321.313 1485.58 L321.313 1479.7 Z" fill="#000000" fill-rule="nonzero" fill-opacity="1" /><path clip-path="url(#clip920)" d="M346.382 1454.1 Q342.771 1454.1 340.942 1457.66 Q339.137 1461.2 339.137 1468.33 Q339.137 1475.44 340.942 1479.01 Q342.771 1482.55 346.382 1482.55 Q350.016 1482.55 351.822 1479.01 Q353.651 1475.44 353.651 1468.33 Q353.651 1461.2 351.822 1457.66 Q350.016 1454.1 346.382 1454.1 M346.382 1450.39 Q352.192 1450.39 355.248 1455 Q358.327 1459.58 358.327 1468.33 Q358.327 1477.06 355.248 1481.67 Q352.192 1486.25 346.382 1486.25 Q340.572 1486.25 337.493 1481.67 Q334.438 1477.06 334.438 1468.33 Q334.438 1459.58 337.493 1455 Q340.572 1450.39 346.382 1450.39 Z" fill="#000000" fill-rule="nonzero" fill-opacity="1" /><path clip-path="url(#clip920)" d="M376.544 1454.1 Q372.933 1454.1 371.104 1457.66 Q369.299 1461.2 369.299 1468.33 Q369.299 1475.44 371.104 1479.01 Q372.933 1482.55 376.544 1482.55 Q380.178 1482.55 381.984 1479.01 Q383.813 1475.44 383.813 1468.33 Q383.813 1461.2 381.984 1457.66 Q380.178 1454.1 376.544 1454.1 M376.544 1450.39 Q382.354 1450.39 385.41 1455 Q388.488 1459.58 388.488 1468.33 Q388.488 1477.06 385.41 1481.67 Q382.354 1486.25 376.544 1486.25 Q370.734 1486.25 367.655 1481.67 Q364.6 1477.06 364.6 1468.33 Q364.6 1459.58 367.655 1455 Q370.734 1450.39 376.544 1450.39 Z" fill="#000000" fill-rule="nonzero" fill-opacity="1" /><path clip-path="url(#clip920)" d="M790.461 1454.1 Q786.85 1454.1 785.022 1457.66 Q783.216 1461.2 783.216 1468.33 Q783.216 1475.44 785.022 1479.01 Q786.85 1482.55 790.461 1482.55 Q794.096 1482.55 795.901 1479.01 Q797.73 1475.44 797.73 1468.33 Q797.73 1461.2 795.901 1457.66 Q794.096 1454.1 790.461 1454.1 M790.461 1450.39 Q796.272 1450.39 799.327 1455 Q802.406 1459.58 802.406 1468.33 Q802.406 1477.06 799.327 1481.67 Q796.272 1486.25 790.461 1486.25 Q784.651 1486.25 781.573 1481.67 Q778.517 1477.06 778.517 1468.33 Q778.517 1459.58 781.573 1455 Q784.651 1450.39 790.461 1450.39 Z" fill="#000000" fill-rule="nonzero" fill-opacity="1" /><path clip-path="url(#clip920)" d="M810.623 1479.7 L815.508 1479.7 L815.508 1485.58 L810.623 1485.58 L810.623 1479.7 Z" fill="#000000" fill-rule="nonzero" fill-opacity="1" /><path clip-path="url(#clip920)" d="M829.72 1481.64 L846.04 1481.64 L846.04 1485.58 L824.095 1485.58 L824.095 1481.64 Q826.757 1478.89 831.341 1474.26 Q835.947 1469.61 837.128 1468.27 Q839.373 1465.74 840.253 1464.01 Q841.156 1462.25 841.156 1460.56 Q841.156 1457.8 839.211 1456.07 Q837.29 1454.33 834.188 1454.33 Q831.989 1454.33 829.535 1455.09 Q827.105 1455.86 824.327 1457.41 L824.327 1452.69 Q827.151 1451.55 829.605 1450.97 Q832.058 1450.39 834.095 1450.39 Q839.466 1450.39 842.66 1453.08 Q845.855 1455.77 845.855 1460.26 Q845.855 1462.39 845.044 1464.31 Q844.257 1466.2 842.151 1468.8 Q841.572 1469.47 838.47 1472.69 Q835.369 1475.88 829.72 1481.64 Z" fill="#000000" fill-rule="nonzero" fill-opacity="1" /><path clip-path="url(#clip920)" d="M855.901 1451.02 L874.257 1451.02 L874.257 1454.96 L860.183 1454.96 L860.183 1463.43 Q861.202 1463.08 862.22 1462.92 Q863.239 1462.73 864.257 1462.73 Q870.044 1462.73 873.424 1465.9 Q876.804 1469.08 876.804 1474.49 Q876.804 1480.07 873.331 1483.17 Q869.859 1486.25 863.54 1486.25 Q861.364 1486.25 859.095 1485.88 Q856.85 1485.51 854.443 1484.77 L854.443 1480.07 Q856.526 1481.2 858.748 1481.76 Q860.97 1482.32 863.447 1482.32 Q867.452 1482.32 869.79 1480.21 Q872.128 1478.1 872.128 1474.49 Q872.128 1470.88 869.79 1468.77 Q867.452 1466.67 863.447 1466.67 Q861.572 1466.67 859.697 1467.08 Q857.845 1467.5 855.901 1468.38 L855.901 1451.02 Z" fill="#000000" fill-rule="nonzero" fill-opacity="1" /><path clip-path="url(#clip920)" d="M1278.78 1454.1 Q1275.17 1454.1 1273.34 1457.66 Q1271.53 1461.2 1271.53 1468.33 Q1271.53 1475.44 1273.34 1479.01 Q1275.17 1482.55 1278.78 1482.55 Q1282.41 1482.55 1284.22 1479.01 Q1286.04 1475.44 1286.04 1468.33 Q1286.04 1461.2 1284.22 1457.66 Q1282.41 1454.1 1278.78 1454.1 M1278.78 1450.39 Q1284.59 1450.39 1287.64 1455 Q1290.72 1459.58 1290.72 1468.33 Q1290.72 1477.06 1287.64 1481.67 Q1284.59 1486.25 1278.78 1486.25 Q1272.97 1486.25 1269.89 1481.67 Q1266.83 1477.06 1266.83 1468.33 Q1266.83 1459.58 1269.89 1455 Q1272.97 1450.39 1278.78 1450.39 Z" fill="#000000" fill-rule="nonzero" fill-opacity="1" /><path clip-path="url(#clip920)" d="M1298.94 1479.7 L1303.82 1479.7 L1303.82 1485.58 L1298.94 1485.58 L1298.94 1479.7 Z" fill="#000000" fill-rule="nonzero" fill-opacity="1" /><path clip-path="url(#clip920)" d="M1314.05 1451.02 L1332.41 1451.02 L1332.41 1454.96 L1318.34 1454.96 L1318.34 1463.43 Q1319.35 1463.08 1320.37 1462.92 Q1321.39 1462.73 1322.41 1462.73 Q1328.2 1462.73 1331.58 1465.9 Q1334.96 1469.08 1334.96 1474.49 Q1334.96 1480.07 1331.48 1483.17 Q1328.01 1486.25 1321.69 1486.25 Q1319.52 1486.25 1317.25 1485.88 Q1315 1485.51 1312.6 1484.77 L1312.6 1480.07 Q1314.68 1481.2 1316.9 1481.76 Q1319.12 1482.32 1321.6 1482.32 Q1325.6 1482.32 1327.94 1480.21 Q1330.28 1478.1 1330.28 1474.49 Q1330.28 1470.88 1327.94 1468.77 Q1325.6 1466.67 1321.6 1466.67 Q1319.73 1466.67 1317.85 1467.08 Q1316 1467.5 1314.05 1468.38 L1314.05 1451.02 Z" fill="#000000" fill-rule="nonzero" fill-opacity="1" /><path clip-path="url(#clip920)" d="M1354.17 1454.1 Q1350.56 1454.1 1348.73 1457.66 Q1346.92 1461.2 1346.92 1468.33 Q1346.92 1475.44 1348.73 1479.01 Q1350.56 1482.55 1354.17 1482.55 Q1357.8 1482.55 1359.61 1479.01 Q1361.44 1475.44 1361.44 1468.33 Q1361.44 1461.2 1359.61 1457.66 Q1357.8 1454.1 1354.17 1454.1 M1354.17 1450.39 Q1359.98 1450.39 1363.04 1455 Q1366.11 1459.58 1366.11 1468.33 Q1366.11 1477.06 1363.04 1481.67 Q1359.98 1486.25 1354.17 1486.25 Q1348.36 1486.25 1345.28 1481.67 Q1342.23 1477.06 1342.23 1468.33 Q1342.23 1459.58 1345.28 1455 Q1348.36 1450.39 1354.17 1450.39 Z" fill="#000000" fill-rule="nonzero" fill-opacity="1" /><path clip-path="url(#clip920)" d="M1768.09 1454.1 Q1764.48 1454.1 1762.65 1457.66 Q1760.84 1461.2 1760.84 1468.33 Q1760.84 1475.44 1762.65 1479.01 Q1764.48 1482.55 1768.09 1482.55 Q1771.72 1482.55 1773.53 1479.01 Q1775.36 1475.44 1775.36 1468.33 Q1775.36 1461.2 1773.53 1457.66 Q1771.72 1454.1 1768.09 1454.1 M1768.09 1450.39 Q1773.9 1450.39 1776.95 1455 Q1780.03 1459.58 1780.03 1468.33 Q1780.03 1477.06 1776.95 1481.67 Q1773.9 1486.25 1768.09 1486.25 Q1762.28 1486.25 1759.2 1481.67 Q1756.14 1477.06 1756.14 1468.33 Q1756.14 1459.58 1759.2 1455 Q1762.28 1450.39 1768.09 1450.39 Z" fill="#000000" fill-rule="nonzero" fill-opacity="1" /><path clip-path="url(#clip920)" d="M1788.25 1479.7 L1793.13 1479.7 L1793.13 1485.58 L1788.25 1485.58 L1788.25 1479.7 Z" fill="#000000" fill-rule="nonzero" fill-opacity="1" /><path clip-path="url(#clip920)" d="M1802.14 1451.02 L1824.36 1451.02 L1824.36 1453.01 L1811.81 1485.58 L1806.93 1485.58 L1818.73 1454.96 L1802.14 1454.96 L1802.14 1451.02 Z" fill="#000000" fill-rule="nonzero" fill-opacity="1" /><path clip-path="url(#clip920)" d="M1833.53 1451.02 L1851.88 1451.02 L1851.88 1454.96 L1837.81 1454.96 L1837.81 1463.43 Q1838.83 1463.08 1839.85 1462.92 Q1840.86 1462.73 1841.88 1462.73 Q1847.67 1462.73 1851.05 1465.9 Q1854.43 1469.08 1854.43 1474.49 Q1854.43 1480.07 1850.96 1483.17 Q1847.48 1486.25 1841.17 1486.25 Q1838.99 1486.25 1836.72 1485.88 Q1834.48 1485.51 1832.07 1484.77 L1832.07 1480.07 Q1834.15 1481.2 1836.37 1481.76 Q1838.6 1482.32 1841.07 1482.32 Q1845.08 1482.32 1847.42 1480.21 Q1849.75 1478.1 1849.75 1474.49 Q1849.75 1470.88 1847.42 1468.77 Q1845.08 1466.67 1841.07 1466.67 Q1839.2 1466.67 1837.32 1467.08 Q1835.47 1467.5 1833.53 1468.38 L1833.53 1451.02 Z" fill="#000000" fill-rule="nonzero" fill-opacity="1" /><path clip-path="url(#clip920)" d="M2246.17 1481.64 L2253.81 1481.64 L2253.81 1455.28 L2245.5 1456.95 L2245.5 1452.69 L2253.76 1451.02 L2258.44 1451.02 L2258.44 1481.64 L2266.08 1481.64 L2266.08 1485.58 L2246.17 1485.58 L2246.17 1481.64 Z" fill="#000000" fill-rule="nonzero" fill-opacity="1" /><path clip-path="url(#clip920)" d="M2275.52 1479.7 L2280.41 1479.7 L2280.41 1485.58 L2275.52 1485.58 L2275.52 1479.7 Z" fill="#000000" fill-rule="nonzero" fill-opacity="1" /><path clip-path="url(#clip920)" d="M2300.59 1454.1 Q2296.98 1454.1 2295.15 1457.66 Q2293.35 1461.2 2293.35 1468.33 Q2293.35 1475.44 2295.15 1479.01 Q2296.98 1482.55 2300.59 1482.55 Q2304.23 1482.55 2306.03 1479.01 Q2307.86 1475.44 2307.86 1468.33 Q2307.86 1461.2 2306.03 1457.66 Q2304.23 1454.1 2300.59 1454.1 M2300.59 1450.39 Q2306.4 1450.39 2309.46 1455 Q2312.54 1459.58 2312.54 1468.33 Q2312.54 1477.06 2309.46 1481.67 Q2306.4 1486.25 2300.59 1486.25 Q2294.78 1486.25 2291.7 1481.67 Q2288.65 1477.06 2288.65 1468.33 Q2288.65 1459.58 2291.7 1455 Q2294.78 1450.39 2300.59 1450.39 Z" fill="#000000" fill-rule="nonzero" fill-opacity="1" /><path clip-path="url(#clip920)" d="M2330.75 1454.1 Q2327.14 1454.1 2325.31 1457.66 Q2323.51 1461.2 2323.51 1468.33 Q2323.51 1475.44 2325.31 1479.01 Q2327.14 1482.55 2330.75 1482.55 Q2334.39 1482.55 2336.19 1479.01 Q2338.02 1475.44 2338.02 1468.33 Q2338.02 1461.2 2336.19 1457.66 Q2334.39 1454.1 2330.75 1454.1 M2330.75 1450.39 Q2336.56 1450.39 2339.62 1455 Q2342.7 1459.58 2342.7 1468.33 Q2342.7 1477.06 2339.62 1481.67 Q2336.56 1486.25 2330.75 1486.25 Q2324.94 1486.25 2321.86 1481.67 Q2318.81 1477.06 2318.81 1468.33 Q2318.81 1459.58 2321.86 1455 Q2324.94 1450.39 2330.75 1450.39 Z" fill="#000000" fill-rule="nonzero" fill-opacity="1" /><path clip-path="url(#clip920)" d="M1230.92 1518.52 L1236.81 1518.52 L1236.81 1547.77 L1254.28 1532.4 L1261.76 1532.4 L1242.85 1549.07 L1262.56 1568.04 L1254.92 1568.04 L1236.81 1550.63 L1236.81 1568.04 L1230.92 1568.04 L1230.92 1518.52 Z" fill="#000000" fill-rule="nonzero" fill-opacity="1" /><path clip-path="url(#clip920)" d="M1292.35 1537.81 L1292.35 1518.52 L1298.2 1518.52 L1298.2 1568.04 L1292.35 1568.04 L1292.35 1562.7 Q1290.5 1565.88 1287.67 1567.44 Q1284.87 1568.97 1280.92 1568.97 Q1274.46 1568.97 1270.39 1563.81 Q1266.34 1558.65 1266.34 1550.25 Q1266.34 1541.85 1270.39 1536.69 Q1274.46 1531.54 1280.92 1531.54 Q1284.87 1531.54 1287.67 1533.1 Q1290.5 1534.62 1292.35 1537.81 M1272.39 1550.25 Q1272.39 1556.71 1275.03 1560.4 Q1277.71 1564.07 1282.35 1564.07 Q1287 1564.07 1289.67 1560.4 Q1292.35 1556.71 1292.35 1550.25 Q1292.35 1543.79 1289.67 1540.13 Q1287 1536.44 1282.35 1536.44 Q1277.71 1536.44 1275.03 1540.13 Q1272.39 1543.79 1272.39 1550.25 Z" fill="#000000" fill-rule="nonzero" fill-opacity="1" /><path clip-path="url(#clip920)" d="M1326.47 1550.12 Q1319.37 1550.12 1316.63 1551.75 Q1313.89 1553.37 1313.89 1557.29 Q1313.89 1560.4 1315.93 1562.25 Q1318 1564.07 1321.53 1564.07 Q1326.4 1564.07 1329.33 1560.63 Q1332.29 1557.16 1332.29 1551.43 L1332.29 1550.12 L1326.47 1550.12 M1338.15 1547.71 L1338.15 1568.04 L1332.29 1568.04 L1332.29 1562.63 Q1330.29 1565.88 1327.29 1567.44 Q1324.3 1568.97 1319.97 1568.97 Q1314.5 1568.97 1311.25 1565.91 Q1308.04 1562.82 1308.04 1557.67 Q1308.04 1551.65 1312.05 1548.6 Q1316.09 1545.54 1324.08 1545.54 L1332.29 1545.54 L1332.29 1544.97 Q1332.29 1540.93 1329.62 1538.73 Q1326.98 1536.5 1322.17 1536.5 Q1319.11 1536.5 1316.22 1537.23 Q1313.32 1537.97 1310.65 1539.43 L1310.65 1534.02 Q1313.86 1532.78 1316.89 1532.17 Q1319.91 1531.54 1322.78 1531.54 Q1330.51 1531.54 1334.33 1535.55 Q1338.15 1539.56 1338.15 1547.71 Z" fill="#000000" fill-rule="nonzero" fill-opacity="1" /><path clip-path="url(#clip920)" d="M1377.97 1539.24 Q1380.16 1535.29 1383.22 1533.41 Q1386.27 1531.54 1390.41 1531.54 Q1395.98 1531.54 1399 1535.45 Q1402.03 1539.33 1402.03 1546.53 L1402.03 1568.04 L1396.14 1568.04 L1396.14 1546.72 Q1396.14 1541.59 1394.33 1539.11 Q1392.51 1536.63 1388.79 1536.63 Q1384.24 1536.63 1381.59 1539.65 Q1378.95 1542.68 1378.95 1547.9 L1378.95 1568.04 L1373.06 1568.04 L1373.06 1546.72 Q1373.06 1541.56 1371.25 1539.11 Q1369.44 1536.63 1365.65 1536.63 Q1361.16 1536.63 1358.52 1539.68 Q1355.88 1542.71 1355.88 1547.9 L1355.88 1568.04 L1349.99 1568.04 L1349.99 1532.4 L1355.88 1532.4 L1355.88 1537.93 Q1357.88 1534.66 1360.68 1533.1 Q1363.48 1531.54 1367.33 1531.54 Q1371.22 1531.54 1373.92 1533.51 Q1376.66 1535.48 1377.97 1539.24 Z" fill="#000000" fill-rule="nonzero" fill-opacity="1" /><polyline clip-path="url(#clip922)" style="stroke:#000000; stroke-linecap:round; stroke-linejoin:round; stroke-width:2; stroke-opacity:0.1; fill:none" points="280.19,1404.54 2352.76,1404.54 "/>
<polyline clip-path="url(#clip922)" style="stroke:#000000; stroke-linecap:round; stroke-linejoin:round; stroke-width:2; stroke-opacity:0.1; fill:none" points="280.19,1114.2 2352.76,1114.2 "/>
<polyline clip-path="url(#clip922)" style="stroke:#000000; stroke-linecap:round; stroke-linejoin:round; stroke-width:2; stroke-opacity:0.1; fill:none" points="280.19,823.864 2352.76,823.864 "/>
<polyline clip-path="url(#clip922)" style="stroke:#000000; stroke-linecap:round; stroke-linejoin:round; stroke-width:2; stroke-opacity:0.1; fill:none" points="280.19,533.526 2352.76,533.526 "/>
<polyline clip-path="url(#clip922)" style="stroke:#000000; stroke-linecap:round; stroke-linejoin:round; stroke-width:2; stroke-opacity:0.1; fill:none" points="280.19,243.187 2352.76,243.187 "/>
<polyline clip-path="url(#clip920)" style="stroke:#000000; stroke-linecap:round; stroke-linejoin:round; stroke-width:4; stroke-opacity:1; fill:none" points="280.19,1423.18 280.19,47.2441 "/>
<polyline clip-path="url(#clip920)" style="stroke:#000000; stroke-linecap:round; stroke-linejoin:round; stroke-width:4; stroke-opacity:1; fill:none" points="280.19,1404.54 299.088,1404.54 "/>
<polyline clip-path="url(#clip920)" style="stroke:#000000; stroke-linecap:round; stroke-linejoin:round; stroke-width:4; stroke-opacity:1; fill:none" points="280.19,1114.2 299.088,1114.2 "/>
<polyline clip-path="url(#clip920)" style="stroke:#000000; stroke-linecap:round; stroke-linejoin:round; stroke-width:4; stroke-opacity:1; fill:none" points="280.19,823.864 299.088,823.864 "/>
<polyline clip-path="url(#clip920)" style="stroke:#000000; stroke-linecap:round; stroke-linejoin:round; stroke-width:4; stroke-opacity:1; fill:none" points="280.19,533.526 299.088,533.526 "/>
<polyline clip-path="url(#clip920)" style="stroke:#000000; stroke-linecap:round; stroke-linejoin:round; stroke-width:4; stroke-opacity:1; fill:none" points="280.19,243.187 299.088,243.187 "/>
<path clip-path="url(#clip920)" d="M126.691 1390.34 Q123.08 1390.34 121.251 1393.9 Q119.445 1397.45 119.445 1404.58 Q119.445 1411.68 121.251 1415.25 Q123.08 1418.79 126.691 1418.79 Q130.325 1418.79 132.13 1415.25 Q133.959 1411.68 133.959 1404.58 Q133.959 1397.45 132.13 1393.9 Q130.325 1390.34 126.691 1390.34 M126.691 1386.64 Q132.501 1386.64 135.556 1391.24 Q138.635 1395.83 138.635 1404.58 Q138.635 1413.3 135.556 1417.91 Q132.501 1422.49 126.691 1422.49 Q120.88 1422.49 117.802 1417.91 Q114.746 1413.3 114.746 1404.58 Q114.746 1395.83 117.802 1391.24 Q120.88 1386.64 126.691 1386.64 Z" fill="#000000" fill-rule="nonzero" fill-opacity="1" /><path clip-path="url(#clip920)" d="M146.853 1415.94 L151.737 1415.94 L151.737 1421.82 L146.853 1421.82 L146.853 1415.94 Z" fill="#000000" fill-rule="nonzero" fill-opacity="1" /><path clip-path="url(#clip920)" d="M171.922 1390.34 Q168.311 1390.34 166.482 1393.9 Q164.677 1397.45 164.677 1404.58 Q164.677 1411.68 166.482 1415.25 Q168.311 1418.79 171.922 1418.79 Q175.556 1418.79 177.362 1415.25 Q179.19 1411.68 179.19 1404.58 Q179.19 1397.45 177.362 1393.9 Q175.556 1390.34 171.922 1390.34 M171.922 1386.64 Q177.732 1386.64 180.788 1391.24 Q183.866 1395.83 183.866 1404.58 Q183.866 1413.3 180.788 1417.91 Q177.732 1422.49 171.922 1422.49 Q166.112 1422.49 163.033 1417.91 Q159.978 1413.3 159.978 1404.58 Q159.978 1395.83 163.033 1391.24 Q166.112 1386.64 171.922 1386.64 Z" fill="#000000" fill-rule="nonzero" fill-opacity="1" /><path clip-path="url(#clip920)" d="M202.084 1390.34 Q198.473 1390.34 196.644 1393.9 Q194.838 1397.45 194.838 1404.58 Q194.838 1411.68 196.644 1415.25 Q198.473 1418.79 202.084 1418.79 Q205.718 1418.79 207.524 1415.25 Q209.352 1411.68 209.352 1404.58 Q209.352 1397.45 207.524 1393.9 Q205.718 1390.34 202.084 1390.34 M202.084 1386.64 Q207.894 1386.64 210.949 1391.24 Q214.028 1395.83 214.028 1404.58 Q214.028 1413.3 210.949 1417.91 Q207.894 1422.49 202.084 1422.49 Q196.274 1422.49 193.195 1417.91 Q190.139 1413.3 190.139 1404.58 Q190.139 1395.83 193.195 1391.24 Q196.274 1386.64 202.084 1386.64 Z" fill="#000000" fill-rule="nonzero" fill-opacity="1" /><path clip-path="url(#clip920)" d="M232.246 1390.34 Q228.635 1390.34 226.806 1393.9 Q225 1397.45 225 1404.58 Q225 1411.68 226.806 1415.25 Q228.635 1418.79 232.246 1418.79 Q235.88 1418.79 237.685 1415.25 Q239.514 1411.68 239.514 1404.58 Q239.514 1397.45 237.685 1393.9 Q235.88 1390.34 232.246 1390.34 M232.246 1386.64 Q238.056 1386.64 241.111 1391.24 Q244.19 1395.83 244.19 1404.58 Q244.19 1413.3 241.111 1417.91 Q238.056 1422.49 232.246 1422.49 Q226.435 1422.49 223.357 1417.91 Q220.301 1413.3 220.301 1404.58 Q220.301 1395.83 223.357 1391.24 Q226.435 1386.64 232.246 1386.64 Z" fill="#000000" fill-rule="nonzero" fill-opacity="1" /><path clip-path="url(#clip920)" d="M128.288 1100 Q124.677 1100 122.848 1103.57 Q121.043 1107.11 121.043 1114.24 Q121.043 1121.34 122.848 1124.91 Q124.677 1128.45 128.288 1128.45 Q131.922 1128.45 133.728 1124.91 Q135.556 1121.34 135.556 1114.24 Q135.556 1107.11 133.728 1103.57 Q131.922 1100 128.288 1100 M128.288 1096.3 Q134.098 1096.3 137.154 1100.9 Q140.232 1105.49 140.232 1114.24 Q140.232 1122.96 137.154 1127.57 Q134.098 1132.15 128.288 1132.15 Q122.478 1132.15 119.399 1127.57 Q116.343 1122.96 116.343 1114.24 Q116.343 1105.49 119.399 1100.9 Q122.478 1096.3 128.288 1096.3 Z" fill="#000000" fill-rule="nonzero" fill-opacity="1" /><path clip-path="url(#clip920)" d="M148.45 1125.6 L153.334 1125.6 L153.334 1131.48 L148.45 1131.48 L148.45 1125.6 Z" fill="#000000" fill-rule="nonzero" fill-opacity="1" /><path clip-path="url(#clip920)" d="M173.519 1100 Q169.908 1100 168.079 1103.57 Q166.274 1107.11 166.274 1114.24 Q166.274 1121.34 168.079 1124.91 Q169.908 1128.45 173.519 1128.45 Q177.153 1128.45 178.959 1124.91 Q180.788 1121.34 180.788 1114.24 Q180.788 1107.11 178.959 1103.57 Q177.153 1100 173.519 1100 M173.519 1096.3 Q179.329 1096.3 182.385 1100.9 Q185.463 1105.49 185.463 1114.24 Q185.463 1122.96 182.385 1127.57 Q179.329 1132.15 173.519 1132.15 Q167.709 1132.15 164.63 1127.57 Q161.575 1122.96 161.575 1114.24 Q161.575 1105.49 164.63 1100.9 Q167.709 1096.3 173.519 1096.3 Z" fill="#000000" fill-rule="nonzero" fill-opacity="1" /><path clip-path="url(#clip920)" d="M203.681 1100 Q200.07 1100 198.241 1103.57 Q196.436 1107.11 196.436 1114.24 Q196.436 1121.34 198.241 1124.91 Q200.07 1128.45 203.681 1128.45 Q207.315 1128.45 209.121 1124.91 Q210.949 1121.34 210.949 1114.24 Q210.949 1107.11 209.121 1103.57 Q207.315 1100 203.681 1100 M203.681 1096.3 Q209.491 1096.3 212.547 1100.9 Q215.625 1105.49 215.625 1114.24 Q215.625 1122.96 212.547 1127.57 Q209.491 1132.15 203.681 1132.15 Q197.871 1132.15 194.792 1127.57 Q191.737 1122.96 191.737 1114.24 Q191.737 1105.49 194.792 1100.9 Q197.871 1096.3 203.681 1096.3 Z" fill="#000000" fill-rule="nonzero" fill-opacity="1" /><path clip-path="url(#clip920)" d="M227.871 1127.55 L244.19 1127.55 L244.19 1131.48 L222.246 1131.48 L222.246 1127.55 Q224.908 1124.79 229.491 1120.16 Q234.097 1115.51 235.278 1114.17 Q237.523 1111.64 238.403 1109.91 Q239.306 1108.15 239.306 1106.46 Q239.306 1103.7 237.361 1101.97 Q235.44 1100.23 232.338 1100.23 Q230.139 1100.23 227.685 1101 Q225.255 1101.76 222.477 1103.31 L222.477 1098.59 Q225.301 1097.45 227.755 1096.88 Q230.209 1096.3 232.246 1096.3 Q237.616 1096.3 240.81 1098.98 Q244.005 1101.67 244.005 1106.16 Q244.005 1108.29 243.195 1110.21 Q242.408 1112.11 240.301 1114.7 Q239.722 1115.37 236.621 1118.59 Q233.519 1121.78 227.871 1127.55 Z" fill="#000000" fill-rule="nonzero" fill-opacity="1" /><path clip-path="url(#clip920)" d="M126.205 809.663 Q122.593 809.663 120.765 813.227 Q118.959 816.769 118.959 823.899 Q118.959 831.005 120.765 834.57 Q122.593 838.112 126.205 838.112 Q129.839 838.112 131.644 834.57 Q133.473 831.005 133.473 823.899 Q133.473 816.769 131.644 813.227 Q129.839 809.663 126.205 809.663 M126.205 805.959 Q132.015 805.959 135.07 810.565 Q138.149 815.149 138.149 823.899 Q138.149 832.625 135.07 837.232 Q132.015 841.815 126.205 841.815 Q120.394 841.815 117.316 837.232 Q114.26 832.625 114.26 823.899 Q114.26 815.149 117.316 810.565 Q120.394 805.959 126.205 805.959 Z" fill="#000000" fill-rule="nonzero" fill-opacity="1" /><path clip-path="url(#clip920)" d="M146.366 835.264 L151.251 835.264 L151.251 841.144 L146.366 841.144 L146.366 835.264 Z" fill="#000000" fill-rule="nonzero" fill-opacity="1" /><path clip-path="url(#clip920)" d="M171.436 809.663 Q167.825 809.663 165.996 813.227 Q164.19 816.769 164.19 823.899 Q164.19 831.005 165.996 834.57 Q167.825 838.112 171.436 838.112 Q175.07 838.112 176.876 834.57 Q178.704 831.005 178.704 823.899 Q178.704 816.769 176.876 813.227 Q175.07 809.663 171.436 809.663 M171.436 805.959 Q177.246 805.959 180.301 810.565 Q183.38 815.149 183.38 823.899 Q183.38 832.625 180.301 837.232 Q177.246 841.815 171.436 841.815 Q165.626 841.815 162.547 837.232 Q159.491 832.625 159.491 823.899 Q159.491 815.149 162.547 810.565 Q165.626 805.959 171.436 805.959 Z" fill="#000000" fill-rule="nonzero" fill-opacity="1" /><path clip-path="url(#clip920)" d="M201.598 809.663 Q197.987 809.663 196.158 813.227 Q194.352 816.769 194.352 823.899 Q194.352 831.005 196.158 834.57 Q197.987 838.112 201.598 838.112 Q205.232 838.112 207.037 834.57 Q208.866 831.005 208.866 823.899 Q208.866 816.769 207.037 813.227 Q205.232 809.663 201.598 809.663 M201.598 805.959 Q207.408 805.959 210.463 810.565 Q213.542 815.149 213.542 823.899 Q213.542 832.625 210.463 837.232 Q207.408 841.815 201.598 841.815 Q195.787 841.815 192.709 837.232 Q189.653 832.625 189.653 823.899 Q189.653 815.149 192.709 810.565 Q195.787 805.959 201.598 805.959 Z" fill="#000000" fill-rule="nonzero" fill-opacity="1" /><path clip-path="url(#clip920)" d="M234.607 810.658 L222.801 829.107 L234.607 829.107 L234.607 810.658 M233.38 806.584 L239.259 806.584 L239.259 829.107 L244.19 829.107 L244.19 832.996 L239.259 832.996 L239.259 841.144 L234.607 841.144 L234.607 832.996 L219.005 832.996 L219.005 828.482 L233.38 806.584 Z" fill="#000000" fill-rule="nonzero" fill-opacity="1" /><path clip-path="url(#clip920)" d="M126.529 519.324 Q122.918 519.324 121.089 522.889 Q119.283 526.431 119.283 533.56 Q119.283 540.667 121.089 544.232 Q122.918 547.773 126.529 547.773 Q130.163 547.773 131.968 544.232 Q133.797 540.667 133.797 533.56 Q133.797 526.431 131.968 522.889 Q130.163 519.324 126.529 519.324 M126.529 515.621 Q132.339 515.621 135.394 520.227 Q138.473 524.81 138.473 533.56 Q138.473 542.287 135.394 546.894 Q132.339 551.477 126.529 551.477 Q120.718 551.477 117.64 546.894 Q114.584 542.287 114.584 533.56 Q114.584 524.81 117.64 520.227 Q120.718 515.621 126.529 515.621 Z" fill="#000000" fill-rule="nonzero" fill-opacity="1" /><path clip-path="url(#clip920)" d="M146.691 544.926 L151.575 544.926 L151.575 550.806 L146.691 550.806 L146.691 544.926 Z" fill="#000000" fill-rule="nonzero" fill-opacity="1" /><path clip-path="url(#clip920)" d="M171.76 519.324 Q168.149 519.324 166.32 522.889 Q164.515 526.431 164.515 533.56 Q164.515 540.667 166.32 544.232 Q168.149 547.773 171.76 547.773 Q175.394 547.773 177.2 544.232 Q179.028 540.667 179.028 533.56 Q179.028 526.431 177.2 522.889 Q175.394 519.324 171.76 519.324 M171.76 515.621 Q177.57 515.621 180.626 520.227 Q183.704 524.81 183.704 533.56 Q183.704 542.287 180.626 546.894 Q177.57 551.477 171.76 551.477 Q165.95 551.477 162.871 546.894 Q159.815 542.287 159.815 533.56 Q159.815 524.81 162.871 520.227 Q165.95 515.621 171.76 515.621 Z" fill="#000000" fill-rule="nonzero" fill-opacity="1" /><path clip-path="url(#clip920)" d="M201.922 519.324 Q198.311 519.324 196.482 522.889 Q194.676 526.431 194.676 533.56 Q194.676 540.667 196.482 544.232 Q198.311 547.773 201.922 547.773 Q205.556 547.773 207.362 544.232 Q209.19 540.667 209.19 533.56 Q209.19 526.431 207.362 522.889 Q205.556 519.324 201.922 519.324 M201.922 515.621 Q207.732 515.621 210.787 520.227 Q213.866 524.81 213.866 533.56 Q213.866 542.287 210.787 546.894 Q207.732 551.477 201.922 551.477 Q196.112 551.477 193.033 546.894 Q189.977 542.287 189.977 533.56 Q189.977 524.81 193.033 520.227 Q196.112 515.621 201.922 515.621 Z" fill="#000000" fill-rule="nonzero" fill-opacity="1" /><path clip-path="url(#clip920)" d="M232.662 531.662 Q229.514 531.662 227.662 533.815 Q225.834 535.968 225.834 539.718 Q225.834 543.445 227.662 545.62 Q229.514 547.773 232.662 547.773 Q235.81 547.773 237.639 545.62 Q239.491 543.445 239.491 539.718 Q239.491 535.968 237.639 533.815 Q235.81 531.662 232.662 531.662 M241.945 517.009 L241.945 521.269 Q240.185 520.435 238.38 519.996 Q236.597 519.556 234.838 519.556 Q230.209 519.556 227.755 522.681 Q225.324 525.806 224.977 532.125 Q226.343 530.111 228.403 529.046 Q230.463 527.958 232.94 527.958 Q238.148 527.958 241.158 531.13 Q244.19 534.278 244.19 539.718 Q244.19 545.042 241.042 548.259 Q237.894 551.477 232.662 551.477 Q226.667 551.477 223.496 546.894 Q220.324 542.287 220.324 533.56 Q220.324 525.366 224.213 520.505 Q228.102 515.621 234.653 515.621 Q236.412 515.621 238.195 515.968 Q240 516.315 241.945 517.009 Z" fill="#000000" fill-rule="nonzero" fill-opacity="1" /><path clip-path="url(#clip920)" d="M126.783 228.986 Q123.172 228.986 121.343 232.551 Q119.538 236.092 119.538 243.222 Q119.538 250.328 121.343 253.893 Q123.172 257.435 126.783 257.435 Q130.417 257.435 132.223 253.893 Q134.052 250.328 134.052 243.222 Q134.052 236.092 132.223 232.551 Q130.417 228.986 126.783 228.986 M126.783 225.282 Q132.593 225.282 135.649 229.889 Q138.728 234.472 138.728 243.222 Q138.728 251.949 135.649 256.555 Q132.593 261.139 126.783 261.139 Q120.973 261.139 117.894 256.555 Q114.839 251.949 114.839 243.222 Q114.839 234.472 117.894 229.889 Q120.973 225.282 126.783 225.282 Z" fill="#000000" fill-rule="nonzero" fill-opacity="1" /><path clip-path="url(#clip920)" d="M146.945 254.588 L151.829 254.588 L151.829 260.467 L146.945 260.467 L146.945 254.588 Z" fill="#000000" fill-rule="nonzero" fill-opacity="1" /><path clip-path="url(#clip920)" d="M172.014 228.986 Q168.403 228.986 166.575 232.551 Q164.769 236.092 164.769 243.222 Q164.769 250.328 166.575 253.893 Q168.403 257.435 172.014 257.435 Q175.649 257.435 177.454 253.893 Q179.283 250.328 179.283 243.222 Q179.283 236.092 177.454 232.551 Q175.649 228.986 172.014 228.986 M172.014 225.282 Q177.825 225.282 180.88 229.889 Q183.959 234.472 183.959 243.222 Q183.959 251.949 180.88 256.555 Q177.825 261.139 172.014 261.139 Q166.204 261.139 163.126 256.555 Q160.07 251.949 160.07 243.222 Q160.07 234.472 163.126 229.889 Q166.204 225.282 172.014 225.282 Z" fill="#000000" fill-rule="nonzero" fill-opacity="1" /><path clip-path="url(#clip920)" d="M202.176 228.986 Q198.565 228.986 196.737 232.551 Q194.931 236.092 194.931 243.222 Q194.931 250.328 196.737 253.893 Q198.565 257.435 202.176 257.435 Q205.811 257.435 207.616 253.893 Q209.445 250.328 209.445 243.222 Q209.445 236.092 207.616 232.551 Q205.811 228.986 202.176 228.986 M202.176 225.282 Q207.987 225.282 211.042 229.889 Q214.121 234.472 214.121 243.222 Q214.121 251.949 211.042 256.555 Q207.987 261.139 202.176 261.139 Q196.366 261.139 193.288 256.555 Q190.232 251.949 190.232 243.222 Q190.232 234.472 193.288 229.889 Q196.366 225.282 202.176 225.282 Z" fill="#000000" fill-rule="nonzero" fill-opacity="1" /><path clip-path="url(#clip920)" d="M232.338 244.055 Q229.005 244.055 227.084 245.838 Q225.185 247.62 225.185 250.745 Q225.185 253.87 227.084 255.652 Q229.005 257.435 232.338 257.435 Q235.672 257.435 237.593 255.652 Q239.514 253.847 239.514 250.745 Q239.514 247.62 237.593 245.838 Q235.695 244.055 232.338 244.055 M227.662 242.065 Q224.653 241.324 222.963 239.264 Q221.297 237.203 221.297 234.241 Q221.297 230.097 224.236 227.69 Q227.199 225.282 232.338 225.282 Q237.5 225.282 240.44 227.69 Q243.38 230.097 243.38 234.241 Q243.38 237.203 241.69 239.264 Q240.023 241.324 237.037 242.065 Q240.417 242.852 242.292 245.143 Q244.19 247.435 244.19 250.745 Q244.19 255.768 241.111 258.453 Q238.056 261.139 232.338 261.139 Q226.621 261.139 223.542 258.453 Q220.486 255.768 220.486 250.745 Q220.486 247.435 222.385 245.143 Q224.283 242.852 227.662 242.065 M225.949 234.68 Q225.949 237.365 227.616 238.87 Q229.306 240.375 232.338 240.375 Q235.347 240.375 237.037 238.87 Q238.75 237.365 238.75 234.68 Q238.75 231.995 237.037 230.491 Q235.347 228.986 232.338 228.986 Q229.306 228.986 227.616 230.491 Q225.949 231.995 225.949 234.68 Z" fill="#000000" fill-rule="nonzero" fill-opacity="1" /><path clip-path="url(#clip920)" d="M33.8307 789.257 Q33.2578 790.244 33.0032 791.421 Q32.7167 792.567 32.7167 793.967 Q32.7167 798.933 35.9632 801.606 Q39.1779 804.248 45.2253 804.248 L64.0042 804.248 L64.0042 810.136 L28.3562 810.136 L28.3562 804.248 L33.8944 804.248 Q30.6479 802.402 29.0883 799.442 Q27.4968 796.482 27.4968 792.249 Q27.4968 791.644 27.5923 790.912 Q27.656 790.18 27.8151 789.289 L33.8307 789.257 Z" fill="#000000" fill-rule="nonzero" fill-opacity="1" /><path clip-path="url(#clip920)" d="M35.1993 756.505 Q31.2526 754.309 29.3747 751.254 Q27.4968 748.198 27.4968 744.06 Q27.4968 738.49 31.4117 735.467 Q35.2948 732.443 42.4881 732.443 L64.0042 732.443 L64.0042 738.331 L42.679 738.331 Q37.5546 738.331 35.072 740.145 Q32.5894 741.96 32.5894 745.684 Q32.5894 750.235 35.6131 752.877 Q38.6368 755.519 43.8567 755.519 L64.0042 755.519 L64.0042 761.407 L42.679 761.407 Q37.5228 761.407 35.072 763.221 Q32.5894 765.035 32.5894 768.823 Q32.5894 773.311 35.6449 775.952 Q38.6686 778.594 43.8567 778.594 L64.0042 778.594 L64.0042 784.483 L28.3562 784.483 L28.3562 778.594 L33.8944 778.594 Q30.616 776.589 29.0564 773.788 Q27.4968 770.987 27.4968 767.136 Q27.4968 763.253 29.4702 760.547 Q31.4436 757.81 35.1993 756.505 Z" fill="#000000" fill-rule="nonzero" fill-opacity="1" /><path clip-path="url(#clip920)" d="M74.8259 693.676 L79.3773 693.676 L79.3773 727.541 L74.8259 727.541 L74.8259 693.676 Z" fill="#000000" fill-rule="nonzero" fill-opacity="1" /><path clip-path="url(#clip920)" d="M46.0847 671.969 Q46.0847 679.066 47.7079 681.804 Q49.3312 684.541 53.2461 684.541 Q56.3653 684.541 58.2114 682.504 Q60.0256 680.435 60.0256 676.902 Q60.0256 672.032 56.5881 669.104 Q53.1188 666.144 47.3897 666.144 L46.0847 666.144 L46.0847 671.969 M43.6657 660.288 L64.0042 660.288 L64.0042 666.144 L58.5933 666.144 Q61.8398 668.149 63.3994 671.141 Q64.9272 674.133 64.9272 678.462 Q64.9272 683.936 61.8716 687.183 Q58.7843 690.397 53.6281 690.397 Q47.6125 690.397 44.5569 686.387 Q41.5014 682.345 41.5014 674.356 L41.5014 666.144 L40.9285 666.144 Q36.8862 666.144 34.6901 668.818 Q32.4621 671.459 32.4621 676.266 Q32.4621 679.321 33.1941 682.217 Q33.9262 685.114 35.3903 687.787 L29.9795 687.787 Q28.7381 684.573 28.1334 681.549 Q27.4968 678.525 27.4968 675.661 Q27.4968 667.926 31.5072 664.107 Q35.5176 660.288 43.6657 660.288 Z" fill="#000000" fill-rule="nonzero" fill-opacity="1" /><polyline clip-path="url(#clip922)" style="stroke:#009af9; stroke-linecap:round; stroke-linejoin:round; stroke-width:8; stroke-opacity:1; fill:none" points="338.848,1272.47 338.848,1272.47 "/>
<polyline clip-path="url(#clip922)" style="stroke:#009af9; stroke-linecap:round; stroke-linejoin:round; stroke-width:8; stroke-opacity:1; fill:none" points="338.848,1272.47 338.848,1272.47 "/>
<polyline clip-path="url(#clip922)" style="stroke:#009af9; stroke-linecap:round; stroke-linejoin:round; stroke-width:8; stroke-opacity:1; fill:none" points="338.848,1272.47 339.153,1254.8 "/>
<polyline clip-path="url(#clip922)" style="stroke:#009af9; stroke-linecap:round; stroke-linejoin:round; stroke-width:8; stroke-opacity:1; fill:none" points="339.153,1254.8 339.712,1227.05 "/>
<polyline clip-path="url(#clip922)" style="stroke:#009af9; stroke-linecap:round; stroke-linejoin:round; stroke-width:8; stroke-opacity:1; fill:none" points="339.712,1227.05 340.795,1182.41 "/>
<polyline clip-path="url(#clip922)" style="stroke:#009af9; stroke-linecap:round; stroke-linejoin:round; stroke-width:8; stroke-opacity:1; fill:none" points="340.795,1182.41 342.938,1111.6 "/>
<polyline clip-path="url(#clip922)" style="stroke:#009af9; stroke-linecap:round; stroke-linejoin:round; stroke-width:8; stroke-opacity:1; fill:none" points="342.938,1111.6 347.217,1001.75 "/>
<polyline clip-path="url(#clip922)" style="stroke:#009af9; stroke-linecap:round; stroke-linejoin:round; stroke-width:8; stroke-opacity:1; fill:none" points="347.217,1001.75 355.332,844.576 "/>
<polyline clip-path="url(#clip922)" style="stroke:#009af9; stroke-linecap:round; stroke-linejoin:round; stroke-width:8; stroke-opacity:1; fill:none" points="355.332,844.576 369.161,648.803 "/>
<polyline clip-path="url(#clip922)" style="stroke:#009af9; stroke-linecap:round; stroke-linejoin:round; stroke-width:8; stroke-opacity:1; fill:none" points="369.161,648.803 389.524,447.464 "/>
<polyline clip-path="url(#clip922)" style="stroke:#009af9; stroke-linecap:round; stroke-linejoin:round; stroke-width:8; stroke-opacity:1; fill:none" points="389.524,447.464 410.491,306.716 "/>
<polyline clip-path="url(#clip922)" style="stroke:#009af9; stroke-linecap:round; stroke-linejoin:round; stroke-width:8; stroke-opacity:1; fill:none" points="410.491,306.716 431.389,212.636 "/>
<polyline clip-path="url(#clip922)" style="stroke:#009af9; stroke-linecap:round; stroke-linejoin:round; stroke-width:8; stroke-opacity:1; fill:none" points="431.389,212.636 451.923,152.806 "/>
<polyline clip-path="url(#clip922)" style="stroke:#009af9; stroke-linecap:round; stroke-linejoin:round; stroke-width:8; stroke-opacity:1; fill:none" points="451.923,152.806 471.98,116.992 "/>
<polyline clip-path="url(#clip922)" style="stroke:#009af9; stroke-linecap:round; stroke-linejoin:round; stroke-width:8; stroke-opacity:1; fill:none" points="471.98,116.992 491.549,97.361 "/>
<polyline clip-path="url(#clip922)" style="stroke:#009af9; stroke-linecap:round; stroke-linejoin:round; stroke-width:8; stroke-opacity:1; fill:none" points="491.549,97.361 510.67,88.3402 "/>
<polyline clip-path="url(#clip922)" style="stroke:#009af9; stroke-linecap:round; stroke-linejoin:round; stroke-width:8; stroke-opacity:1; fill:none" points="510.67,88.3402 529.392,86.1857 "/>
<polyline clip-path="url(#clip922)" style="stroke:#009af9; stroke-linecap:round; stroke-linejoin:round; stroke-width:8; stroke-opacity:1; fill:none" points="529.392,86.1857 547.763,88.4689 "/>
<polyline clip-path="url(#clip922)" style="stroke:#009af9; stroke-linecap:round; stroke-linejoin:round; stroke-width:8; stroke-opacity:1; fill:none" points="547.763,88.4689 565.821,93.6426 "/>
<polyline clip-path="url(#clip922)" style="stroke:#009af9; stroke-linecap:round; stroke-linejoin:round; stroke-width:8; stroke-opacity:1; fill:none" points="565.821,93.6426 583.595,100.726 "/>
<polyline clip-path="url(#clip922)" style="stroke:#009af9; stroke-linecap:round; stroke-linejoin:round; stroke-width:8; stroke-opacity:1; fill:none" points="583.595,100.726 601.104,109.095 "/>
<polyline clip-path="url(#clip922)" style="stroke:#009af9; stroke-linecap:round; stroke-linejoin:round; stroke-width:8; stroke-opacity:1; fill:none" points="601.104,109.095 618.36,118.351 "/>
<polyline clip-path="url(#clip922)" style="stroke:#009af9; stroke-linecap:round; stroke-linejoin:round; stroke-width:8; stroke-opacity:1; fill:none" points="618.36,118.351 635.371,128.233 "/>
<polyline clip-path="url(#clip922)" style="stroke:#009af9; stroke-linecap:round; stroke-linejoin:round; stroke-width:8; stroke-opacity:1; fill:none" points="635.371,128.233 652.141,138.572 "/>
<polyline clip-path="url(#clip922)" style="stroke:#009af9; stroke-linecap:round; stroke-linejoin:round; stroke-width:8; stroke-opacity:1; fill:none" points="652.141,138.572 668.672,149.254 "/>
<polyline clip-path="url(#clip922)" style="stroke:#009af9; stroke-linecap:round; stroke-linejoin:round; stroke-width:8; stroke-opacity:1; fill:none" points="668.672,149.254 684.961,160.204 "/>
<polyline clip-path="url(#clip922)" style="stroke:#009af9; stroke-linecap:round; stroke-linejoin:round; stroke-width:8; stroke-opacity:1; fill:none" points="684.961,160.204 701.006,171.369 "/>
<polyline clip-path="url(#clip922)" style="stroke:#009af9; stroke-linecap:round; stroke-linejoin:round; stroke-width:8; stroke-opacity:1; fill:none" points="701.006,171.369 716.804,182.713 "/>
<polyline clip-path="url(#clip922)" style="stroke:#009af9; stroke-linecap:round; stroke-linejoin:round; stroke-width:8; stroke-opacity:1; fill:none" points="716.804,182.713 732.35,194.212 "/>
<polyline clip-path="url(#clip922)" style="stroke:#009af9; stroke-linecap:round; stroke-linejoin:round; stroke-width:8; stroke-opacity:1; fill:none" points="732.35,194.212 747.639,205.847 "/>
<polyline clip-path="url(#clip922)" style="stroke:#009af9; stroke-linecap:round; stroke-linejoin:round; stroke-width:8; stroke-opacity:1; fill:none" points="747.639,205.847 762.665,217.607 "/>
<polyline clip-path="url(#clip922)" style="stroke:#009af9; stroke-linecap:round; stroke-linejoin:round; stroke-width:8; stroke-opacity:1; fill:none" points="762.665,217.607 777.421,229.482 "/>
<polyline clip-path="url(#clip922)" style="stroke:#009af9; stroke-linecap:round; stroke-linejoin:round; stroke-width:8; stroke-opacity:1; fill:none" points="777.421,229.482 791.9,241.465 "/>
<polyline clip-path="url(#clip922)" style="stroke:#009af9; stroke-linecap:round; stroke-linejoin:round; stroke-width:8; stroke-opacity:1; fill:none" points="791.9,241.465 806.096,253.552 "/>
<polyline clip-path="url(#clip922)" style="stroke:#009af9; stroke-linecap:round; stroke-linejoin:round; stroke-width:8; stroke-opacity:1; fill:none" points="806.096,253.552 820,265.739 "/>
<polyline clip-path="url(#clip922)" style="stroke:#009af9; stroke-linecap:round; stroke-linejoin:round; stroke-width:8; stroke-opacity:1; fill:none" points="820,265.739 833.606,278.022 "/>
<polyline clip-path="url(#clip922)" style="stroke:#009af9; stroke-linecap:round; stroke-linejoin:round; stroke-width:8; stroke-opacity:1; fill:none" points="833.606,278.022 846.906,290.4 "/>
<polyline clip-path="url(#clip922)" style="stroke:#009af9; stroke-linecap:round; stroke-linejoin:round; stroke-width:8; stroke-opacity:1; fill:none" points="846.906,290.4 859.89,302.871 "/>
<polyline clip-path="url(#clip922)" style="stroke:#009af9; stroke-linecap:round; stroke-linejoin:round; stroke-width:8; stroke-opacity:1; fill:none" points="859.89,302.871 872.552,315.432 "/>
<polyline clip-path="url(#clip922)" style="stroke:#009af9; stroke-linecap:round; stroke-linejoin:round; stroke-width:8; stroke-opacity:1; fill:none" points="872.552,315.432 884.882,328.083 "/>
<polyline clip-path="url(#clip922)" style="stroke:#009af9; stroke-linecap:round; stroke-linejoin:round; stroke-width:8; stroke-opacity:1; fill:none" points="884.882,328.083 896.873,340.822 "/>
<polyline clip-path="url(#clip922)" style="stroke:#009af9; stroke-linecap:round; stroke-linejoin:round; stroke-width:8; stroke-opacity:1; fill:none" points="896.873,340.822 908.515,353.648 "/>
<polyline clip-path="url(#clip922)" style="stroke:#009af9; stroke-linecap:round; stroke-linejoin:round; stroke-width:8; stroke-opacity:1; fill:none" points="908.515,353.648 919.8,366.558 "/>
<polyline clip-path="url(#clip922)" style="stroke:#009af9; stroke-linecap:round; stroke-linejoin:round; stroke-width:8; stroke-opacity:1; fill:none" points="919.8,366.558 930.719,379.553 "/>
<polyline clip-path="url(#clip922)" style="stroke:#009af9; stroke-linecap:round; stroke-linejoin:round; stroke-width:8; stroke-opacity:1; fill:none" points="930.719,379.553 941.264,392.629 "/>
<polyline clip-path="url(#clip922)" style="stroke:#009af9; stroke-linecap:round; stroke-linejoin:round; stroke-width:8; stroke-opacity:1; fill:none" points="941.264,392.629 951.426,405.786 "/>
<polyline clip-path="url(#clip922)" style="stroke:#009af9; stroke-linecap:round; stroke-linejoin:round; stroke-width:8; stroke-opacity:1; fill:none" points="951.426,405.786 961.197,419.02 "/>
<polyline clip-path="url(#clip922)" style="stroke:#009af9; stroke-linecap:round; stroke-linejoin:round; stroke-width:8; stroke-opacity:1; fill:none" points="961.197,419.02 970.567,432.332 "/>
<polyline clip-path="url(#clip922)" style="stroke:#009af9; stroke-linecap:round; stroke-linejoin:round; stroke-width:8; stroke-opacity:1; fill:none" points="970.567,432.332 979.529,445.717 "/>
<polyline clip-path="url(#clip922)" style="stroke:#009af9; stroke-linecap:round; stroke-linejoin:round; stroke-width:8; stroke-opacity:1; fill:none" points="979.529,445.717 988.074,459.174 "/>
<polyline clip-path="url(#clip922)" style="stroke:#009af9; stroke-linecap:round; stroke-linejoin:round; stroke-width:8; stroke-opacity:1; fill:none" points="988.074,459.174 996.195,472.7 "/>
<polyline clip-path="url(#clip922)" style="stroke:#009af9; stroke-linecap:round; stroke-linejoin:round; stroke-width:8; stroke-opacity:1; fill:none" points="996.195,472.7 1003.88,486.293 "/>
<polyline clip-path="url(#clip922)" style="stroke:#009af9; stroke-linecap:round; stroke-linejoin:round; stroke-width:8; stroke-opacity:1; fill:none" points="1003.88,486.293 1011.13,499.95 "/>
<polyline clip-path="url(#clip922)" style="stroke:#009af9; stroke-linecap:round; stroke-linejoin:round; stroke-width:8; stroke-opacity:1; fill:none" points="1011.13,499.95 1017.94,513.667 "/>
<polyline clip-path="url(#clip922)" style="stroke:#009af9; stroke-linecap:round; stroke-linejoin:round; stroke-width:8; stroke-opacity:1; fill:none" points="1017.94,513.667 1024.29,527.441 "/>
<polyline clip-path="url(#clip922)" style="stroke:#009af9; stroke-linecap:round; stroke-linejoin:round; stroke-width:8; stroke-opacity:1; fill:none" points="1024.29,527.441 1030.18,541.269 "/>
<polyline clip-path="url(#clip922)" style="stroke:#009af9; stroke-linecap:round; stroke-linejoin:round; stroke-width:8; stroke-opacity:1; fill:none" points="1030.18,541.269 1035.6,555.147 "/>
<polyline clip-path="url(#clip922)" style="stroke:#009af9; stroke-linecap:round; stroke-linejoin:round; stroke-width:8; stroke-opacity:1; fill:none" points="1035.6,555.147 1040.56,569.071 "/>
<polyline clip-path="url(#clip922)" style="stroke:#009af9; stroke-linecap:round; stroke-linejoin:round; stroke-width:8; stroke-opacity:1; fill:none" points="1040.56,569.071 1045.04,583.038 "/>
<polyline clip-path="url(#clip922)" style="stroke:#009af9; stroke-linecap:round; stroke-linejoin:round; stroke-width:8; stroke-opacity:1; fill:none" points="1045.04,583.038 1049.04,597.044 "/>
<polyline clip-path="url(#clip922)" style="stroke:#009af9; stroke-linecap:round; stroke-linejoin:round; stroke-width:8; stroke-opacity:1; fill:none" points="1049.04,597.044 1052.56,611.084 "/>
<polyline clip-path="url(#clip922)" style="stroke:#009af9; stroke-linecap:round; stroke-linejoin:round; stroke-width:8; stroke-opacity:1; fill:none" points="1052.56,611.084 1055.6,625.153 "/>
<polyline clip-path="url(#clip922)" style="stroke:#009af9; stroke-linecap:round; stroke-linejoin:round; stroke-width:8; stroke-opacity:1; fill:none" points="1055.6,625.153 1058.14,639.249 "/>
<polyline clip-path="url(#clip922)" style="stroke:#009af9; stroke-linecap:round; stroke-linejoin:round; stroke-width:8; stroke-opacity:1; fill:none" points="1058.14,639.249 1060.21,653.366 "/>
<polyline clip-path="url(#clip922)" style="stroke:#009af9; stroke-linecap:round; stroke-linejoin:round; stroke-width:8; stroke-opacity:1; fill:none" points="1060.21,653.366 1061.78,667.5 "/>
<polyline clip-path="url(#clip922)" style="stroke:#009af9; stroke-linecap:round; stroke-linejoin:round; stroke-width:8; stroke-opacity:1; fill:none" points="1061.78,667.5 1062.87,681.647 "/>
<polyline clip-path="url(#clip922)" style="stroke:#009af9; stroke-linecap:round; stroke-linejoin:round; stroke-width:8; stroke-opacity:1; fill:none" points="1062.87,681.647 1063.46,695.802 "/>
<polyline clip-path="url(#clip922)" style="stroke:#009af9; stroke-linecap:round; stroke-linejoin:round; stroke-width:8; stroke-opacity:1; fill:none" points="1063.46,695.802 1063.6,706.227 "/>
<polyline clip-path="url(#clip922)" style="stroke:#009af9; stroke-linecap:round; stroke-linejoin:round; stroke-width:4; stroke-opacity:1; fill:none" points="1063.6,706.227 1063.35,720.384 "/>
<polyline clip-path="url(#clip922)" style="stroke:#009af9; stroke-linecap:round; stroke-linejoin:round; stroke-width:4; stroke-opacity:1; fill:none" points="1063.35,720.384 1062.63,734.54 "/>
<polyline clip-path="url(#clip922)" style="stroke:#009af9; stroke-linecap:round; stroke-linejoin:round; stroke-width:4; stroke-opacity:1; fill:none" points="1062.63,734.54 1061.44,748.688 "/>
<polyline clip-path="url(#clip922)" style="stroke:#009af9; stroke-linecap:round; stroke-linejoin:round; stroke-width:4; stroke-opacity:1; fill:none" points="1061.44,748.688 1059.77,762.824 "/>
<polyline clip-path="url(#clip922)" style="stroke:#009af9; stroke-linecap:round; stroke-linejoin:round; stroke-width:4; stroke-opacity:1; fill:none" points="1059.77,762.824 1057.64,776.945 "/>
<polyline clip-path="url(#clip922)" style="stroke:#009af9; stroke-linecap:round; stroke-linejoin:round; stroke-width:4; stroke-opacity:1; fill:none" points="1057.64,776.945 1055.06,791.047 "/>
<polyline clip-path="url(#clip922)" style="stroke:#009af9; stroke-linecap:round; stroke-linejoin:round; stroke-width:4; stroke-opacity:1; fill:none" points="1055.06,791.047 1052.02,805.127 "/>
<polyline clip-path="url(#clip922)" style="stroke:#009af9; stroke-linecap:round; stroke-linejoin:round; stroke-width:4; stroke-opacity:1; fill:none" points="1052.02,805.127 1048.54,819.181 "/>
<polyline clip-path="url(#clip922)" style="stroke:#009af9; stroke-linecap:round; stroke-linejoin:round; stroke-width:4; stroke-opacity:1; fill:none" points="1048.54,819.181 1044.62,833.206 "/>
<polyline clip-path="url(#clip922)" style="stroke:#009af9; stroke-linecap:round; stroke-linejoin:round; stroke-width:4; stroke-opacity:1; fill:none" points="1044.62,833.206 1040.28,847.201 "/>
<polyline clip-path="url(#clip922)" style="stroke:#009af9; stroke-linecap:round; stroke-linejoin:round; stroke-width:4; stroke-opacity:1; fill:none" points="1040.28,847.201 1035.53,861.161 "/>
<polyline clip-path="url(#clip922)" style="stroke:#009af9; stroke-linecap:round; stroke-linejoin:round; stroke-width:4; stroke-opacity:1; fill:none" points="1035.53,861.161 1030.37,875.087 "/>
<polyline clip-path="url(#clip922)" style="stroke:#009af9; stroke-linecap:round; stroke-linejoin:round; stroke-width:4; stroke-opacity:1; fill:none" points="1030.37,875.087 1024.83,888.975 "/>
<polyline clip-path="url(#clip922)" style="stroke:#009af9; stroke-linecap:round; stroke-linejoin:round; stroke-width:4; stroke-opacity:1; fill:none" points="1024.83,888.975 1018.9,902.824 "/>
<polyline clip-path="url(#clip922)" style="stroke:#009af9; stroke-linecap:round; stroke-linejoin:round; stroke-width:4; stroke-opacity:1; fill:none" points="1018.9,902.824 1012.61,916.633 "/>
<polyline clip-path="url(#clip922)" style="stroke:#009af9; stroke-linecap:round; stroke-linejoin:round; stroke-width:4; stroke-opacity:1; fill:none" points="1012.61,916.633 1005.97,930.402 "/>
<polyline clip-path="url(#clip922)" style="stroke:#009af9; stroke-linecap:round; stroke-linejoin:round; stroke-width:4; stroke-opacity:1; fill:none" points="1005.97,930.402 998.991,944.131 "/>
<polyline clip-path="url(#clip922)" style="stroke:#009af9; stroke-linecap:round; stroke-linejoin:round; stroke-width:4; stroke-opacity:1; fill:none" points="998.991,944.131 991.693,957.82 "/>
<polyline clip-path="url(#clip922)" style="stroke:#009af9; stroke-linecap:round; stroke-linejoin:round; stroke-width:4; stroke-opacity:1; fill:none" points="991.693,957.82 984.092,971.469 "/>
<polyline clip-path="url(#clip922)" style="stroke:#009af9; stroke-linecap:round; stroke-linejoin:round; stroke-width:4; stroke-opacity:1; fill:none" points="984.092,971.469 976.205,985.081 "/>
<polyline clip-path="url(#clip922)" style="stroke:#009af9; stroke-linecap:round; stroke-linejoin:round; stroke-width:4; stroke-opacity:1; fill:none" points="976.205,985.081 968.052,998.657 "/>
<polyline clip-path="url(#clip922)" style="stroke:#009af9; stroke-linecap:round; stroke-linejoin:round; stroke-width:4; stroke-opacity:1; fill:none" points="968.052,998.657 959.655,1012.2 "/>
<polyline clip-path="url(#clip922)" style="stroke:#009af9; stroke-linecap:round; stroke-linejoin:round; stroke-width:4; stroke-opacity:1; fill:none" points="959.655,1012.2 951.036,1025.71 "/>
<polyline clip-path="url(#clip922)" style="stroke:#009af9; stroke-linecap:round; stroke-linejoin:round; stroke-width:4; stroke-opacity:1; fill:none" points="951.036,1025.71 942.221,1039.2 "/>
<polyline clip-path="url(#clip922)" style="stroke:#009af9; stroke-linecap:round; stroke-linejoin:round; stroke-width:4; stroke-opacity:1; fill:none" points="942.221,1039.2 933.237,1052.67 "/>
<polyline clip-path="url(#clip922)" style="stroke:#009af9; stroke-linecap:round; stroke-linejoin:round; stroke-width:4; stroke-opacity:1; fill:none" points="933.237,1052.67 924.115,1066.12 "/>
<polyline clip-path="url(#clip922)" style="stroke:#009af9; stroke-linecap:round; stroke-linejoin:round; stroke-width:4; stroke-opacity:1; fill:none" points="924.115,1066.12 914.892,1079.57 "/>
<polyline clip-path="url(#clip922)" style="stroke:#009af9; stroke-linecap:round; stroke-linejoin:round; stroke-width:4; stroke-opacity:1; fill:none" points="914.892,1079.57 905.609,1093.03 "/>
<polyline clip-path="url(#clip922)" style="stroke:#009af9; stroke-linecap:round; stroke-linejoin:round; stroke-width:4; stroke-opacity:1; fill:none" points="905.609,1093.03 896.314,1106.5 "/>
<polyline clip-path="url(#clip922)" style="stroke:#009af9; stroke-linecap:round; stroke-linejoin:round; stroke-width:4; stroke-opacity:1; fill:none" points="896.314,1106.5 887.063,1120 "/>
<polyline clip-path="url(#clip922)" style="stroke:#009af9; stroke-linecap:round; stroke-linejoin:round; stroke-width:4; stroke-opacity:1; fill:none" points="887.063,1120 877.929,1133.55 "/>
<polyline clip-path="url(#clip922)" style="stroke:#009af9; stroke-linecap:round; stroke-linejoin:round; stroke-width:4; stroke-opacity:1; fill:none" points="877.929,1133.55 868.998,1147.17 "/>
<polyline clip-path="url(#clip922)" style="stroke:#009af9; stroke-linecap:round; stroke-linejoin:round; stroke-width:4; stroke-opacity:1; fill:none" points="868.998,1147.17 860.383,1160.88 "/>
<polyline clip-path="url(#clip922)" style="stroke:#009af9; stroke-linecap:round; stroke-linejoin:round; stroke-width:4; stroke-opacity:1; fill:none" points="860.383,1160.88 852.229,1174.73 "/>
<polyline clip-path="url(#clip922)" style="stroke:#009af9; stroke-linecap:round; stroke-linejoin:round; stroke-width:4; stroke-opacity:1; fill:none" points="852.229,1174.73 844.737,1188.74 "/>
<polyline clip-path="url(#clip922)" style="stroke:#009af9; stroke-linecap:round; stroke-linejoin:round; stroke-width:4; stroke-opacity:1; fill:none" points="844.737,1188.74 838.185,1202.98 "/>
<polyline clip-path="url(#clip922)" style="stroke:#009af9; stroke-linecap:round; stroke-linejoin:round; stroke-width:4; stroke-opacity:1; fill:none" points="838.185,1202.98 832.978,1217.5 "/>
<polyline clip-path="url(#clip922)" style="stroke:#009af9; stroke-linecap:round; stroke-linejoin:round; stroke-width:4; stroke-opacity:1; fill:none" points="832.978,1217.5 829.723,1232.35 "/>
<polyline clip-path="url(#clip922)" style="stroke:#009af9; stroke-linecap:round; stroke-linejoin:round; stroke-width:4; stroke-opacity:1; fill:none" points="829.723,1232.35 829.078,1241.74 "/>
<polyline clip-path="url(#clip922)" style="stroke:#009af9; stroke-linecap:round; stroke-linejoin:round; stroke-width:8; stroke-opacity:1; fill:none" points="829.078,1241.74 831.135,1257.06 "/>
<polyline clip-path="url(#clip922)" style="stroke:#009af9; stroke-linecap:round; stroke-linejoin:round; stroke-width:8; stroke-opacity:1; fill:none" points="831.135,1257.06 838.486,1272.51 "/>
<polyline clip-path="url(#clip922)" style="stroke:#009af9; stroke-linecap:round; stroke-linejoin:round; stroke-width:8; stroke-opacity:1; fill:none" points="838.486,1272.51 852.385,1287.09 "/>
<polyline clip-path="url(#clip922)" style="stroke:#009af9; stroke-linecap:round; stroke-linejoin:round; stroke-width:8; stroke-opacity:1; fill:none" points="852.385,1287.09 871.978,1299.55 "/>
<polyline clip-path="url(#clip922)" style="stroke:#009af9; stroke-linecap:round; stroke-linejoin:round; stroke-width:8; stroke-opacity:1; fill:none" points="871.978,1299.55 894.744,1309.48 "/>
<polyline clip-path="url(#clip922)" style="stroke:#009af9; stroke-linecap:round; stroke-linejoin:round; stroke-width:8; stroke-opacity:1; fill:none" points="894.744,1309.48 918.889,1317.33 "/>
<polyline clip-path="url(#clip922)" style="stroke:#009af9; stroke-linecap:round; stroke-linejoin:round; stroke-width:8; stroke-opacity:1; fill:none" points="918.889,1317.33 943.612,1323.68 "/>
<polyline clip-path="url(#clip922)" style="stroke:#009af9; stroke-linecap:round; stroke-linejoin:round; stroke-width:8; stroke-opacity:1; fill:none" points="943.612,1323.68 968.553,1328.95 "/>
<polyline clip-path="url(#clip922)" style="stroke:#009af9; stroke-linecap:round; stroke-linejoin:round; stroke-width:8; stroke-opacity:1; fill:none" points="968.553,1328.95 993.532,1333.41 "/>
<polyline clip-path="url(#clip922)" style="stroke:#009af9; stroke-linecap:round; stroke-linejoin:round; stroke-width:8; stroke-opacity:1; fill:none" points="993.532,1333.41 1018.46,1337.24 "/>
<polyline clip-path="url(#clip922)" style="stroke:#009af9; stroke-linecap:round; stroke-linejoin:round; stroke-width:8; stroke-opacity:1; fill:none" points="1018.46,1337.24 1043.28,1340.59 "/>
<polyline clip-path="url(#clip922)" style="stroke:#009af9; stroke-linecap:round; stroke-linejoin:round; stroke-width:8; stroke-opacity:1; fill:none" points="1043.28,1340.59 1067.98,1343.55 "/>
<polyline clip-path="url(#clip922)" style="stroke:#009af9; stroke-linecap:round; stroke-linejoin:round; stroke-width:8; stroke-opacity:1; fill:none" points="1067.98,1343.55 1092.54,1346.19 "/>
<polyline clip-path="url(#clip922)" style="stroke:#009af9; stroke-linecap:round; stroke-linejoin:round; stroke-width:8; stroke-opacity:1; fill:none" points="1092.54,1346.19 1116.97,1348.56 "/>
<polyline clip-path="url(#clip922)" style="stroke:#009af9; stroke-linecap:round; stroke-linejoin:round; stroke-width:8; stroke-opacity:1; fill:none" points="1116.97,1348.56 1141.25,1350.7 "/>
<polyline clip-path="url(#clip922)" style="stroke:#009af9; stroke-linecap:round; stroke-linejoin:round; stroke-width:8; stroke-opacity:1; fill:none" points="1141.25,1350.7 1165.39,1352.66 "/>
<polyline clip-path="url(#clip922)" style="stroke:#009af9; stroke-linecap:round; stroke-linejoin:round; stroke-width:8; stroke-opacity:1; fill:none" points="1165.39,1352.66 1189.4,1354.45 "/>
<polyline clip-path="url(#clip922)" style="stroke:#009af9; stroke-linecap:round; stroke-linejoin:round; stroke-width:8; stroke-opacity:1; fill:none" points="1189.4,1354.45 1213.29,1356.11 "/>
<polyline clip-path="url(#clip922)" style="stroke:#009af9; stroke-linecap:round; stroke-linejoin:round; stroke-width:8; stroke-opacity:1; fill:none" points="1213.29,1356.11 1237.05,1357.63 "/>
<polyline clip-path="url(#clip922)" style="stroke:#009af9; stroke-linecap:round; stroke-linejoin:round; stroke-width:8; stroke-opacity:1; fill:none" points="1237.05,1357.63 1260.71,1359.05 "/>
<polyline clip-path="url(#clip922)" style="stroke:#009af9; stroke-linecap:round; stroke-linejoin:round; stroke-width:8; stroke-opacity:1; fill:none" points="1260.71,1359.05 1284.25,1360.37 "/>
<polyline clip-path="url(#clip922)" style="stroke:#009af9; stroke-linecap:round; stroke-linejoin:round; stroke-width:8; stroke-opacity:1; fill:none" points="1284.25,1360.37 1307.69,1361.6 "/>
<polyline clip-path="url(#clip922)" style="stroke:#009af9; stroke-linecap:round; stroke-linejoin:round; stroke-width:8; stroke-opacity:1; fill:none" points="1307.69,1361.6 1331.03,1362.76 "/>
<polyline clip-path="url(#clip922)" style="stroke:#009af9; stroke-linecap:round; stroke-linejoin:round; stroke-width:8; stroke-opacity:1; fill:none" points="1331.03,1362.76 1354.29,1363.84 "/>
<polyline clip-path="url(#clip922)" style="stroke:#009af9; stroke-linecap:round; stroke-linejoin:round; stroke-width:8; stroke-opacity:1; fill:none" points="1354.29,1363.84 1377.46,1364.87 "/>
<polyline clip-path="url(#clip922)" style="stroke:#009af9; stroke-linecap:round; stroke-linejoin:round; stroke-width:8; stroke-opacity:1; fill:none" points="1377.46,1364.87 1400.56,1365.83 "/>
<polyline clip-path="url(#clip922)" style="stroke:#009af9; stroke-linecap:round; stroke-linejoin:round; stroke-width:8; stroke-opacity:1; fill:none" points="1400.56,1365.83 1423.58,1366.75 "/>
<polyline clip-path="url(#clip922)" style="stroke:#009af9; stroke-linecap:round; stroke-linejoin:round; stroke-width:8; stroke-opacity:1; fill:none" points="1423.58,1366.75 1446.54,1367.62 "/>
<polyline clip-path="url(#clip922)" style="stroke:#009af9; stroke-linecap:round; stroke-linejoin:round; stroke-width:8; stroke-opacity:1; fill:none" points="1446.54,1367.62 1469.43,1368.44 "/>
<polyline clip-path="url(#clip922)" style="stroke:#009af9; stroke-linecap:round; stroke-linejoin:round; stroke-width:8; stroke-opacity:1; fill:none" points="1469.43,1368.44 1492.27,1369.22 "/>
<polyline clip-path="url(#clip922)" style="stroke:#009af9; stroke-linecap:round; stroke-linejoin:round; stroke-width:8; stroke-opacity:1; fill:none" points="1492.27,1369.22 1515.06,1369.97 "/>
<polyline clip-path="url(#clip922)" style="stroke:#009af9; stroke-linecap:round; stroke-linejoin:round; stroke-width:8; stroke-opacity:1; fill:none" points="1515.06,1369.97 1537.81,1370.68 "/>
<polyline clip-path="url(#clip922)" style="stroke:#009af9; stroke-linecap:round; stroke-linejoin:round; stroke-width:8; stroke-opacity:1; fill:none" points="1537.81,1370.68 1560.51,1371.36 "/>
<polyline clip-path="url(#clip922)" style="stroke:#009af9; stroke-linecap:round; stroke-linejoin:round; stroke-width:8; stroke-opacity:1; fill:none" points="1560.51,1371.36 1583.17,1372.01 "/>
<polyline clip-path="url(#clip922)" style="stroke:#009af9; stroke-linecap:round; stroke-linejoin:round; stroke-width:8; stroke-opacity:1; fill:none" points="1583.17,1372.01 1605.8,1372.64 "/>
<polyline clip-path="url(#clip922)" style="stroke:#009af9; stroke-linecap:round; stroke-linejoin:round; stroke-width:8; stroke-opacity:1; fill:none" points="1605.8,1372.64 1628.41,1373.23 "/>
<polyline clip-path="url(#clip922)" style="stroke:#009af9; stroke-linecap:round; stroke-linejoin:round; stroke-width:8; stroke-opacity:1; fill:none" points="1628.41,1373.23 1650.98,1373.81 "/>
<polyline clip-path="url(#clip922)" style="stroke:#009af9; stroke-linecap:round; stroke-linejoin:round; stroke-width:8; stroke-opacity:1; fill:none" points="1650.98,1373.81 1673.54,1374.36 "/>
<polyline clip-path="url(#clip922)" style="stroke:#009af9; stroke-linecap:round; stroke-linejoin:round; stroke-width:8; stroke-opacity:1; fill:none" points="1673.54,1374.36 1696.08,1374.89 "/>
<polyline clip-path="url(#clip922)" style="stroke:#009af9; stroke-linecap:round; stroke-linejoin:round; stroke-width:8; stroke-opacity:1; fill:none" points="1696.08,1374.89 1718.61,1375.41 "/>
<polyline clip-path="url(#clip922)" style="stroke:#009af9; stroke-linecap:round; stroke-linejoin:round; stroke-width:8; stroke-opacity:1; fill:none" points="1718.61,1375.41 1741.13,1375.9 "/>
<polyline clip-path="url(#clip922)" style="stroke:#009af9; stroke-linecap:round; stroke-linejoin:round; stroke-width:8; stroke-opacity:1; fill:none" points="1741.13,1375.9 1763.63,1376.38 "/>
<polyline clip-path="url(#clip922)" style="stroke:#009af9; stroke-linecap:round; stroke-linejoin:round; stroke-width:8; stroke-opacity:1; fill:none" points="1763.63,1376.38 1786.14,1376.84 "/>
<polyline clip-path="url(#clip922)" style="stroke:#009af9; stroke-linecap:round; stroke-linejoin:round; stroke-width:8; stroke-opacity:1; fill:none" points="1786.14,1376.84 1808.65,1377.28 "/>
<polyline clip-path="url(#clip922)" style="stroke:#009af9; stroke-linecap:round; stroke-linejoin:round; stroke-width:8; stroke-opacity:1; fill:none" points="1808.65,1377.28 1831.15,1377.71 "/>
<polyline clip-path="url(#clip922)" style="stroke:#009af9; stroke-linecap:round; stroke-linejoin:round; stroke-width:8; stroke-opacity:1; fill:none" points="1831.15,1377.71 1853.67,1378.13 "/>
<polyline clip-path="url(#clip922)" style="stroke:#009af9; stroke-linecap:round; stroke-linejoin:round; stroke-width:8; stroke-opacity:1; fill:none" points="1853.67,1378.13 1876.19,1378.53 "/>
<polyline clip-path="url(#clip922)" style="stroke:#009af9; stroke-linecap:round; stroke-linejoin:round; stroke-width:8; stroke-opacity:1; fill:none" points="1876.19,1378.53 1898.72,1378.92 "/>
<polyline clip-path="url(#clip922)" style="stroke:#009af9; stroke-linecap:round; stroke-linejoin:round; stroke-width:8; stroke-opacity:1; fill:none" points="1898.72,1378.92 1921.27,1379.3 "/>
<polyline clip-path="url(#clip922)" style="stroke:#009af9; stroke-linecap:round; stroke-linejoin:round; stroke-width:8; stroke-opacity:1; fill:none" points="1921.27,1379.3 1943.83,1379.67 "/>
<polyline clip-path="url(#clip922)" style="stroke:#009af9; stroke-linecap:round; stroke-linejoin:round; stroke-width:8; stroke-opacity:1; fill:none" points="1943.83,1379.67 1966.41,1380.03 "/>
<polyline clip-path="url(#clip922)" style="stroke:#009af9; stroke-linecap:round; stroke-linejoin:round; stroke-width:8; stroke-opacity:1; fill:none" points="1966.41,1380.03 1989.01,1380.38 "/>
<polyline clip-path="url(#clip922)" style="stroke:#009af9; stroke-linecap:round; stroke-linejoin:round; stroke-width:8; stroke-opacity:1; fill:none" points="1989.01,1380.38 2011.63,1380.71 "/>
<polyline clip-path="url(#clip922)" style="stroke:#009af9; stroke-linecap:round; stroke-linejoin:round; stroke-width:8; stroke-opacity:1; fill:none" points="2011.63,1380.71 2034.28,1381.04 "/>
<polyline clip-path="url(#clip922)" style="stroke:#009af9; stroke-linecap:round; stroke-linejoin:round; stroke-width:8; stroke-opacity:1; fill:none" points="2034.28,1381.04 2056.95,1381.36 "/>
<polyline clip-path="url(#clip922)" style="stroke:#009af9; stroke-linecap:round; stroke-linejoin:round; stroke-width:8; stroke-opacity:1; fill:none" points="2056.95,1381.36 2079.66,1381.67 "/>
<polyline clip-path="url(#clip922)" style="stroke:#009af9; stroke-linecap:round; stroke-linejoin:round; stroke-width:8; stroke-opacity:1; fill:none" points="2079.66,1381.67 2102.39,1381.98 "/>
<polyline clip-path="url(#clip922)" style="stroke:#009af9; stroke-linecap:round; stroke-linejoin:round; stroke-width:8; stroke-opacity:1; fill:none" points="2102.39,1381.98 2125.16,1382.27 "/>
<polyline clip-path="url(#clip922)" style="stroke:#009af9; stroke-linecap:round; stroke-linejoin:round; stroke-width:8; stroke-opacity:1; fill:none" points="2125.16,1382.27 2147.96,1382.56 "/>
<polyline clip-path="url(#clip922)" style="stroke:#009af9; stroke-linecap:round; stroke-linejoin:round; stroke-width:8; stroke-opacity:1; fill:none" points="2147.96,1382.56 2170.79,1382.84 "/>
<polyline clip-path="url(#clip922)" style="stroke:#009af9; stroke-linecap:round; stroke-linejoin:round; stroke-width:8; stroke-opacity:1; fill:none" points="2170.79,1382.84 2193.67,1383.11 "/>
<polyline clip-path="url(#clip922)" style="stroke:#009af9; stroke-linecap:round; stroke-linejoin:round; stroke-width:8; stroke-opacity:1; fill:none" points="2193.67,1383.11 2216.58,1383.38 "/>
<polyline clip-path="url(#clip922)" style="stroke:#009af9; stroke-linecap:round; stroke-linejoin:round; stroke-width:8; stroke-opacity:1; fill:none" points="2216.58,1383.38 2239.53,1383.64 "/>
<polyline clip-path="url(#clip922)" style="stroke:#009af9; stroke-linecap:round; stroke-linejoin:round; stroke-width:8; stroke-opacity:1; fill:none" points="2239.53,1383.64 2262.52,1383.9 "/>
<polyline clip-path="url(#clip922)" style="stroke:#009af9; stroke-linecap:round; stroke-linejoin:round; stroke-width:8; stroke-opacity:1; fill:none" points="2262.52,1383.9 2285.56,1384.15 "/>
<polyline clip-path="url(#clip922)" style="stroke:#009af9; stroke-linecap:round; stroke-linejoin:round; stroke-width:8; stroke-opacity:1; fill:none" points="2285.56,1384.15 2294.1,1384.24 "/>
<circle clip-path="url(#clip922)" cx="1063.6" cy="706.227" r="10.8" fill="#0000ff" fill-rule="evenodd" fill-opacity="1" stroke="none"/>
<circle clip-path="url(#clip922)" cx="829.078" cy="1241.74" r="10.8" fill="#0000ff" fill-rule="evenodd" fill-opacity="1" stroke="none"/>
<circle clip-path="url(#clip922)" cx="1063.6" cy="706.227" r="10.8" fill="#0000ff" fill-rule="evenodd" fill-opacity="1" stroke="none"/>
<path clip-path="url(#clip920)" d="M2023.13 196.789 L2283.67 196.789 L2283.67 93.1086 L2023.13 93.1086  Z" fill="#ffffff" fill-rule="evenodd" fill-opacity="1"/>
<polyline clip-path="url(#clip920)" style="stroke:#000000; stroke-linecap:round; stroke-linejoin:round; stroke-width:4; stroke-opacity:1; fill:none" points="2023.13,196.789 2283.67,196.789 2283.67,93.1086 2023.13,93.1086 2023.13,196.789 "/>
<circle clip-path="url(#clip920)" cx="2115.24" cy="144.949" r="23.04" fill="#0000ff" fill-rule="evenodd" fill-opacity="1" stroke="none"/>
<path clip-path="url(#clip920)" d="M2226.13 149.289 Q2226.13 144.59 2224.18 141.928 Q2222.26 139.243 2218.88 139.243 Q2215.5 139.243 2213.56 141.928 Q2211.64 144.59 2211.64 149.289 Q2211.64 153.988 2213.56 156.673 Q2215.5 159.335 2218.88 159.335 Q2222.26 159.335 2224.18 156.673 Q2226.13 153.988 2226.13 149.289 M2211.64 140.238 Q2212.98 137.923 2215.02 136.812 Q2217.08 135.678 2219.92 135.678 Q2224.65 135.678 2227.59 139.428 Q2230.55 143.178 2230.55 149.289 Q2230.55 155.4 2227.59 159.15 Q2224.65 162.9 2219.92 162.9 Q2217.08 162.9 2215.02 161.789 Q2212.98 160.655 2211.64 158.34 L2211.64 162.229 L2207.36 162.229 L2207.36 126.21 L2211.64 126.21 L2211.64 140.238 Z" fill="#000000" fill-rule="nonzero" fill-opacity="1" /><path clip-path="url(#clip920)" d="M2241.73 158.34 L2241.73 172.09 L2237.45 172.09 L2237.45 136.303 L2241.73 136.303 L2241.73 140.238 Q2243.07 137.923 2245.11 136.812 Q2247.17 135.678 2250.02 135.678 Q2254.74 135.678 2257.68 139.428 Q2260.64 143.178 2260.64 149.289 Q2260.64 155.4 2257.68 159.15 Q2254.74 162.9 2250.02 162.9 Q2247.17 162.9 2245.11 161.789 Q2243.07 160.655 2241.73 158.34 M2256.22 149.289 Q2256.22 144.59 2254.28 141.928 Q2252.35 139.243 2248.98 139.243 Q2245.6 139.243 2243.65 141.928 Q2241.73 144.59 2241.73 149.289 Q2241.73 153.988 2243.65 156.673 Q2245.6 159.335 2248.98 159.335 Q2252.35 159.335 2254.28 156.673 Q2256.22 153.988 2256.22 149.289 Z" fill="#000000" fill-rule="nonzero" fill-opacity="1" /></svg>
