<svg class="main-svg" xmlns="http://www.w3.org/2000/svg" xmlns:xlink="http://www.w3.org/1999/xlink" width="700" height="500" style="" viewBox="0 0 700 500"><rect x="0" y="0" width="700" height="500" style="fill: rgb(255, 255, 255); fill-opacity: 1;"/><defs id="defs-253acf"><g class="clips"><clipPath id="clip253acfxyplot" class="plotclip"><rect width="557" height="355"/></clipPath><clipPath class="axesclip" id="clip253acfx"><rect x="93" y="0" width="557" height="500"/></clipPath><clipPath class="axesclip" id="clip253acfy"><rect x="0" y="60" width="700" height="355"/></clipPath><clipPath class="axesclip" id="clip253acfxy"><rect x="93" y="60" width="557" height="355"/></clipPath></g><g class="gradients"/></defs><g class="bglayer"/><g class="layer-below"><g class="imagelayer"/><g class="shapelayer"/></g><g class="cartesianlayer"><g class="subplot xy"><g class="layer-subplot"><g class="shapelayer"/><g class="imagelayer"/></g><g class="gridlayer"><g class="x"/><g class="y"/></g><g class="zerolinelayer"><path class="yzl zl crisp" transform="translate(0,397.26)" d="M93,0h557" style="stroke: rgb(255, 255, 255); stroke-opacity: 1; stroke-width: 2px;"/></g><path class="xlines-below"/><path class="ylines-below"/><g class="overlines-below"/><g class="xaxislayer-below"/><g class="yaxislayer-below"/><g class="overaxes-below"/><g class="plot" transform="translate(93,60)" clip-path="url('#clip253acfxyplot')"><g class="scatterlayer mlayer"><g class="trace scatter trace79f99d" style="stroke-miterlimit: 2; opacity: 1;"><g class="fills"/><g class="errorbars"/><g class="lines"><path class="js-line" d="M0,308.16L1.43,103.27L1.9,75.73L4.57,22.6L5.18,20.4L7.88,17.87L8.36,17.8L19.45,18.71L19.66,18.74L34.82,22.91L34.98,22.97L59.54,33.4L59.85,33.55L108.9,56.74L109.78,57.17L185.41,95.95L187.17,96.9L245.23,130.07L247.3,131.33L292.17,160.6L294.35,162.15L325.14,185.89L327.35,187.78L349.41,209.07L351.6,211.55L364.55,229.08L366.63,232.76L372.34,247.49L373.45,256L373.46,256.96" style="vector-effect: non-scaling-stroke; fill: none; stroke: rgb(221, 160, 221); stroke-opacity: 1; stroke-width: 6.5px; opacity: 1;"/></g><g class="points"/><g class="text"/></g><g class="trace scatter trace64a743" style="stroke-miterlimit: 2; opacity: 1;"><g class="fills"/><g class="errorbars"/><g class="lines"><path class="js-line" d="M373.46,256.96L370.97,270.05L368.79,274.59L359.7,285.93L357.39,288L343.38,297.62L341.03,298.91L319.87,308.22L317.51,309.07L289.22,317.41L286.86,317.99L246.74,325.89L244.38,326.27L190.06,333.21L187.7,333.47L170.77,335.79" style="vector-effect: non-scaling-stroke; fill: none; stroke: rgb(221, 160, 221); stroke-opacity: 1; stroke-width: 6.5px; opacity: 1; stroke-dasharray: 19.5px, 19.5px;"/></g><g class="points"/><g class="text"/></g><g class="trace scatter trace790b7f" style="stroke-miterlimit: 2; opacity: 1;"><g class="fills"/><g class="errorbars"/><g class="lines"><path class="js-line" d="M170.77,335.79L174.75,336.31L176.34,336.39L246.92,337.03L249.28,337.03L557,337.22" style="vector-effect: non-scaling-stroke; fill: none; stroke: rgb(221, 160, 221); stroke-opacity: 1; stroke-width: 6.5px; opacity: 1;"/></g><g class="points"/><g class="text"/></g><g class="trace scatter tracee87a7f" style="stroke-miterlimit: 2; opacity: 1;"><g class="fills"/><g class="errorbars"/><g class="lines"><path class="js-line" d="M0,325.16L1.49,220.36L2,212.05L4.37,204.69L4.7,204.62L12.43,205.51L12.59,205.55L25.72,210.08L25.9,210.15L63.96,228.79L64.73,229.19L108.02,254.23L109.57,255.24L134.93,273.87L136.7,275.42L148.99,288.3L150.65,290.6L154.94,299.02L155.79,302.72L155.92,306.04" style="vector-effect: non-scaling-stroke; fill: none; stroke: rgb(186, 85, 211); stroke-opacity: 1; stroke-width: 6.5px; opacity: 1;"/></g><g class="points"/><g class="text"/></g><g class="trace scatter tracebb38e9" style="stroke-miterlimit: 2; opacity: 1;"><g class="fills"/><g class="errorbars"/><g class="lines"><path class="js-line" d="M155.92,306.04L153.31,313.74L151.29,316.34L142.46,323L140.17,324.2L123.93,330.23L121.59,330.88L104.59,335.57" style="vector-effect: non-scaling-stroke; fill: none; stroke: rgb(186, 85, 211); stroke-opacity: 1; stroke-width: 6.5px; opacity: 1; stroke-dasharray: 19.5px, 19.5px;"/></g><g class="points"/><g class="text"/></g><g class="trace scatter trace7122ef" style="stroke-miterlimit: 2; opacity: 1;"><g class="fills"/><g class="errorbars"/><g class="lines"><path class="js-line" d="M104.59,335.57L107.26,336.21L108.39,336.3L147.42,336.98L149.77,336.99L557,337.24" style="vector-effect: non-scaling-stroke; fill: none; stroke: rgb(186, 85, 211); stroke-opacity: 1; stroke-width: 6.5px; opacity: 1;"/></g><g class="points"/><g class="text"/></g><g class="trace scatter traceaf609d" style="stroke-miterlimit: 2; opacity: 1;"><g class="fills"/><g class="errorbars"/><g class="lines"><path class="js-line" d="M0,330.88L1.39,271.5L1.72,269.38L3.81,267.47L4.03,267.48L13.88,269.99L14.02,270.05L31.62,278.44L32.03,278.65L61.53,296.17L62.65,296.96L76.18,308.06L77.44,309.38L82.9,317.51L83.52,319.59L83.74,321.73" style="vector-effect: non-scaling-stroke; fill: none; stroke: rgb(128, 0, 128); stroke-opacity: 1; stroke-width: 6.5px; opacity: 1;"/></g><g class="points"/><g class="text"/></g><g class="trace scatter tracec1821d" style="stroke-miterlimit: 2; opacity: 1;"><g class="fills"/><g class="errorbars"/><g class="lines"><path class="js-line" d="M83.74,321.73L82.36,326.44L80.79,328.44L71.45,335.25" style="vector-effect: non-scaling-stroke; fill: none; stroke: rgb(128, 0, 128); stroke-opacity: 1; stroke-width: 6.5px; opacity: 1; stroke-dasharray: 19.5px, 19.5px;"/></g><g class="points"/><g class="text"/></g><g class="trace scatter tracee3b96b" style="stroke-miterlimit: 2; opacity: 1;"><g class="fills"/><g class="errorbars"/><g class="lines"><path class="js-line" d="M71.45,335.25L73.84,336.11L75.07,336.25L104.93,336.98L107.27,336.99L326.63,337.24L328.42,337.24L557,337.25" style="vector-effect: non-scaling-stroke; fill: none; stroke: rgb(128, 0, 128); stroke-opacity: 1; stroke-width: 6.5px; opacity: 1;"/></g><g class="points"/><g class="text"/></g></g></g><g class="overplot"/><path class="xlines-above crisp" d="M90,416.5H650" style="fill: none; stroke-width: 3px; stroke: rgb(0, 0, 0); stroke-opacity: 1;"/><path class="ylines-above crisp" d="M91.5,60V415" style="fill: none; stroke-width: 3px; stroke: rgb(0, 0, 0); stroke-opacity: 1;"/><g class="overlines-above"/><g class="xaxislayer-above"><g class="xtick"><text text-anchor="middle" x="0" y="446.8" transform="translate(93,0)" style="font-family: sans-serif; font-size: 24px; fill: rgb(0, 0, 0); fill-opacity: 1; white-space: pre;">0</text></g><g class="xtick"><text text-anchor="middle" x="0" y="446.8" transform="translate(204.4,0)" style="font-family: sans-serif; font-size: 24px; fill: rgb(0, 0, 0); fill-opacity: 1; white-space: pre;">10</text></g><g class="xtick"><text text-anchor="middle" x="0" y="446.8" transform="translate(315.8,0)" style="font-family: sans-serif; font-size: 24px; fill: rgb(0, 0, 0); fill-opacity: 1; white-space: pre;">20</text></g><g class="xtick"><text text-anchor="middle" x="0" y="446.8" transform="translate(427.2,0)" style="font-family: sans-serif; font-size: 24px; fill: rgb(0, 0, 0); fill-opacity: 1; white-space: pre;">30</text></g><g class="xtick"><text text-anchor="middle" x="0" y="446.8" transform="translate(538.6,0)" style="font-family: sans-serif; font-size: 24px; fill: rgb(0, 0, 0); fill-opacity: 1; white-space: pre;">40</text></g><g class="xtick"><text text-anchor="middle" x="0" y="446.8" transform="translate(650,0)" style="font-family: sans-serif; font-size: 24px; fill: rgb(0, 0, 0); fill-opacity: 1; white-space: pre;">50</text></g></g><g class="yaxislayer-above"><g class="ytick"><text text-anchor="end" x="85.2" y="8.399999999999999" transform="translate(0,397.26)" style="font-family: sans-serif; font-size: 24px; fill: rgb(0, 0, 0); fill-opacity: 1; white-space: pre;">0</text></g><g class="ytick"><text text-anchor="end" x="85.2" y="8.399999999999999" transform="translate(0,357.32)" style="font-family: sans-serif; font-size: 24px; fill: rgb(0, 0, 0); fill-opacity: 1; white-space: pre;">0.5</text></g><g class="ytick"><text text-anchor="end" x="85.2" y="8.399999999999999" transform="translate(0,317.38)" style="font-family: sans-serif; font-size: 24px; fill: rgb(0, 0, 0); fill-opacity: 1; white-space: pre;">1</text></g><g class="ytick"><text text-anchor="end" x="85.2" y="8.399999999999999" transform="translate(0,277.44)" style="font-family: sans-serif; font-size: 24px; fill: rgb(0, 0, 0); fill-opacity: 1; white-space: pre;">1.5</text></g><g class="ytick"><text text-anchor="end" x="85.2" y="8.399999999999999" transform="translate(0,237.5)" style="font-family: sans-serif; font-size: 24px; fill: rgb(0, 0, 0); fill-opacity: 1; white-space: pre;">2</text></g><g class="ytick"><text text-anchor="end" x="85.2" y="8.399999999999999" transform="translate(0,197.56)" style="font-family: sans-serif; font-size: 24px; fill: rgb(0, 0, 0); fill-opacity: 1; white-space: pre;">2.5</text></g><g class="ytick"><text text-anchor="end" x="85.2" y="8.399999999999999" transform="translate(0,157.62)" style="font-family: sans-serif; font-size: 24px; fill: rgb(0, 0, 0); fill-opacity: 1; white-space: pre;">3</text></g><g class="ytick"><text text-anchor="end" x="85.2" y="8.399999999999999" transform="translate(0,117.69)" style="font-family: sans-serif; font-size: 24px; fill: rgb(0, 0, 0); fill-opacity: 1; white-space: pre;">3.5</text></g><g class="ytick"><text text-anchor="end" x="85.2" y="8.399999999999999" transform="translate(0,77.75)" style="font-family: sans-serif; font-size: 24px; fill: rgb(0, 0, 0); fill-opacity: 1; white-space: pre;">4</text></g></g><g class="overaxes-above"/></g></g><g class="polarlayer"/><g class="ternarylayer"/><g class="geolayer"/><g class="funnelarealayer"/><g class="pielayer"/><g class="treemaplayer"/><g class="sunburstlayer"/><g class="glimages"/><defs id="topdefs-253acf"><g class="clips"/></defs><g class="layer-above"><g class="imagelayer"/><g class="shapelayer"/></g><g class="infolayer"><g class="g-gtitle"/><g class="g-xtitle"><text class="xtitle" x="371.5" y="488.1125" text-anchor="middle" style="font-family: sans-serif; font-size: 29px; fill: rgb(0, 0, 0); opacity: 1; font-weight: normal; white-space: pre;">Damage rate (min​<tspan style="font-size:70%" dy="-0.6em">-1</tspan><tspan dy="0.42em">​</tspan>)</text></g><g class="g-ytitle" transform="translate(15.2685546875,0)"><text class="ytitle" transform="rotate(-90,11.731250000000003,237.5)" x="11.731250000000003" y="237.5" text-anchor="middle" style="font-family: sans-serif; font-size: 29px; fill: rgb(0, 0, 0); opacity: 1; font-weight: normal; white-space: pre;">RtcB (μM)</text></g></g></svg>