<svg class="main-svg" xmlns="http://www.w3.org/2000/svg" xmlns:xlink="http://www.w3.org/1999/xlink" width="700" height="500" style="" viewBox="0 0 700 500"><rect x="0" y="0" width="700" height="500" style="fill: rgb(255, 255, 255); fill-opacity: 1;"/><defs id="defs-496a97"><g class="clips"><clipPath id="clip496a97xyplot" class="plotclip"><rect width="580" height="355"/></clipPath><clipPath class="axesclip" id="clip496a97x"><rect x="70" y="0" width="580" height="500"/></clipPath><clipPath class="axesclip" id="clip496a97y"><rect x="0" y="60" width="700" height="355"/></clipPath><clipPath class="axesclip" id="clip496a97xy"><rect x="70" y="60" width="580" height="355"/></clipPath></g><g class="gradients"/></defs><g class="bglayer"/><g class="layer-below"><g class="imagelayer"/><g class="shapelayer"/></g><g class="cartesianlayer"><g class="subplot xy"><g class="layer-subplot"><g class="shapelayer"/><g class="imagelayer"/></g><g class="gridlayer"><g class="x"/><g class="y"/></g><g class="zerolinelayer"><path class="yzl zl crisp" transform="translate(0,397.25)" d="M70,0h580" style="stroke: rgb(255, 255, 255); stroke-opacity: 1; stroke-width: 2px;"/></g><path class="xlines-below"/><path class="ylines-below"/><g class="overlines-below"/><g class="xaxislayer-below"/><g class="yaxislayer-below"/><g class="overaxes-below"/><g class="plot" transform="translate(70,60)" clip-path="url('#clip496a97xyplot')"><g class="scatterlayer mlayer"><g class="trace scatter trace5f81c9" style="stroke-miterlimit: 2; opacity: 1;"><g class="fills"/><g class="errorbars"/><g class="lines"><path class="js-line" d="M0,336.09L0.61,324.47L1.62,324.56L1.64,324.56L13.2,328.23L13.44,328.32L36.32,336.71L38.72,336.81L99.12,337.21L101.07,337.21L580,337.25" style="vector-effect: non-scaling-stroke; fill: none; stroke: rgb(193, 193, 193); stroke-opacity: 1; stroke-width: 6.5px; opacity: 1;"/></g><g class="points"/><g class="text"/></g><g class="trace scatter trace9c6c1b" style="stroke-miterlimit: 2; opacity: 1;"><g class="fills"/><g class="errorbars"/><g class="lines"><path class="js-line" d="M0,326.76L1.46,240.21L2.04,230.91L4.37,222.53L4.77,222.38L11.49,222.61L11.7,222.64L25.98,225.65L26.15,225.7L64.41,238.62L65.07,238.86L122.58,261.7L124.23,262.43L156.98,278.61L158.92,279.72L176.51,291.48L178.42,293.08L185.58,300.82L187.06,303.33L188.54,309.07" style="vector-effect: non-scaling-stroke; fill: none; stroke: rgb(186, 85, 211); stroke-opacity: 1; stroke-width: 6.5px; opacity: 1;"/></g><g class="points"/><g class="text"/></g><g class="trace scatter trace0afdb1" style="stroke-miterlimit: 2; opacity: 1;"><g class="fills"/><g class="errorbars"/><g class="lines"><path class="js-line" d="M188.54,309.07L185.95,315.84L183.82,318.02L174.57,323.53L172.18,324.52L152.81,330.05L150.37,330.56L119.83,335.61L241.26,337.17" style="vector-effect: non-scaling-stroke; fill: none; stroke: rgb(186, 85, 211); stroke-opacity: 1; stroke-width: 6.5px; opacity: 1; stroke-dasharray: 19.5px, 19.5px;"/></g><g class="points"/><g class="text"/></g><g class="trace scatter trace7aac8d" style="stroke-miterlimit: 2; opacity: 1;"><g class="fills"/><g class="errorbars"/><g class="lines"><path class="js-line" d="M241.26,337.17L125.81,336.18L128.33,335.57" style="vector-effect: non-scaling-stroke; fill: none; stroke: rgb(186, 85, 211); stroke-opacity: 1; stroke-width: 6.5px; opacity: 1;"/></g><g class="points"/><g class="text"/></g><g class="trace scatter trace8e0f57" style="stroke-miterlimit: 2; opacity: 1;"><g class="fills"/><g class="errorbars"/><g class="lines"><path class="js-line" d="M0,308.12L1.32,172.27L1.73,149.2L5.34,45.69L6.54,33.52L10.07,20.38L11.16,19.21L16.09,17.77L17,17.75L36.18,19.33L36.69,19.4L61.92,24.48L62.33,24.58L101.58,36.52L102.27,36.74L178.25,63.36L179.75,63.91L261.28,95.06L263.35,95.89L344.69,130.4L346.98,131.44L407.41,160.92L409.76,162.17L449.87,185.35L452.24,186.86L480.56,207.24L482.91,209.2L499.22,225.15L501.51,227.93L508.19,238L510.28,242.41L512.15,248.16L512.91,257.16" style="vector-effect: non-scaling-stroke; fill: none; stroke: rgb(128, 0, 128); stroke-opacity: 1; stroke-width: 6.5px; opacity: 1;"/></g><g class="points"/><g class="text"/></g><g class="trace scatter traceabbb29" style="stroke-miterlimit: 2; opacity: 1;"><g class="fills"/><g class="errorbars"/><g class="lines"><path class="js-line" d="M512.91,257.16L508.54,270.15L506.21,273.46L496.64,282.64L494.21,284.4L479.59,292.78L477.15,293.93L452.64,303.18L450.19,303.94L415.8,312.69L413.35,313.21L366.64,321.3L364.18,321.65L300.23,328.94L297.77,329.17L206.63,336.14" style="vector-effect: non-scaling-stroke; fill: none; stroke: rgb(128, 0, 128); stroke-opacity: 1; stroke-width: 6.5px; opacity: 1; stroke-dasharray: 19.5px, 19.5px;"/></g><g class="points"/><g class="text"/></g><g class="trace scatter trace797989" style="stroke-miterlimit: 2; opacity: 1;"><g class="fills"/><g class="errorbars"/><g class="lines"><path class="js-line" d="M206.63,336.14L212.06,336.56L214.19,336.62L317.35,337.1L319.81,337.11L580,337.21" style="vector-effect: non-scaling-stroke; fill: none; stroke: rgb(128, 0, 128); stroke-opacity: 1; stroke-width: 6.5px; opacity: 1;"/></g><g class="points"/><g class="text"/></g></g></g><g class="overplot"/><path class="xlines-above crisp" d="M67,416.5H650" style="fill: none; stroke-width: 3px; stroke: rgb(0, 0, 0); stroke-opacity: 1;"/><path class="ylines-above crisp" d="M68.5,60V415" style="fill: none; stroke-width: 3px; stroke: rgb(0, 0, 0); stroke-opacity: 1;"/><g class="overlines-above"/><g class="xaxislayer-above"><g class="xtick"><text text-anchor="middle" x="0" y="446.8" transform="translate(70,0)" style="font-family: sans-serif; font-size: 24px; fill: rgb(0, 0, 0); fill-opacity: 1; white-space: pre;">0</text></g><g class="xtick"><text text-anchor="middle" x="0" y="446.8" transform="translate(186,0)" style="font-family: sans-serif; font-size: 24px; fill: rgb(0, 0, 0); fill-opacity: 1; white-space: pre;">10</text></g><g class="xtick"><text text-anchor="middle" x="0" y="446.8" transform="translate(302,0)" style="font-family: sans-serif; font-size: 24px; fill: rgb(0, 0, 0); fill-opacity: 1; white-space: pre;">20</text></g><g class="xtick"><text text-anchor="middle" x="0" y="446.8" transform="translate(418,0)" style="font-family: sans-serif; font-size: 24px; fill: rgb(0, 0, 0); fill-opacity: 1; white-space: pre;">30</text></g><g class="xtick"><text text-anchor="middle" x="0" y="446.8" transform="translate(534,0)" style="font-family: sans-serif; font-size: 24px; fill: rgb(0, 0, 0); fill-opacity: 1; white-space: pre;">40</text></g><g class="xtick"><text text-anchor="middle" x="0" y="446.8" transform="translate(650,0)" style="font-family: sans-serif; font-size: 24px; fill: rgb(0, 0, 0); fill-opacity: 1; white-space: pre;">50</text></g></g><g class="yaxislayer-above"><g class="ytick"><text text-anchor="end" x="62.2" y="8.399999999999999" transform="translate(0,397.25)" style="font-family: sans-serif; font-size: 24px; fill: rgb(0, 0, 0); fill-opacity: 1; white-space: pre;">0</text></g><g class="ytick"><text text-anchor="end" x="62.2" y="8.399999999999999" transform="translate(0,337.74)" style="font-family: sans-serif; font-size: 24px; fill: rgb(0, 0, 0); fill-opacity: 1; white-space: pre;">1</text></g><g class="ytick"><text text-anchor="end" x="62.2" y="8.399999999999999" transform="translate(0,278.23)" style="font-family: sans-serif; font-size: 24px; fill: rgb(0, 0, 0); fill-opacity: 1; white-space: pre;">2</text></g><g class="ytick"><text text-anchor="end" x="62.2" y="8.399999999999999" transform="translate(0,218.72)" style="font-family: sans-serif; font-size: 24px; fill: rgb(0, 0, 0); fill-opacity: 1; white-space: pre;">3</text></g><g class="ytick"><text text-anchor="end" x="62.2" y="8.399999999999999" transform="translate(0,159.2)" style="font-family: sans-serif; font-size: 24px; fill: rgb(0, 0, 0); fill-opacity: 1; white-space: pre;">4</text></g><g class="ytick"><text text-anchor="end" x="62.2" y="8.399999999999999" transform="translate(0,99.69)" style="font-family: sans-serif; font-size: 24px; fill: rgb(0, 0, 0); fill-opacity: 1; white-space: pre;">5</text></g></g><g class="overaxes-above"/></g></g><g class="polarlayer"/><g class="ternarylayer"/><g class="geolayer"/><g class="funnelarealayer"/><g class="pielayer"/><g class="treemaplayer"/><g class="sunburstlayer"/><g class="glimages"/><defs id="topdefs-496a97"><g class="clips"/></defs><g class="layer-above"><g class="imagelayer"/><g class="shapelayer"/></g><g class="infolayer"><g class="g-gtitle"/><g class="g-xtitle"><text class="xtitle" x="360" y="488.1125" text-anchor="middle" style="font-family: sans-serif; font-size: 29px; fill: rgb(0, 0, 0); opacity: 1; font-weight: normal; white-space: pre;">Damage rate (min​<tspan style="font-size:70%" dy="-0.6em">-1</tspan><tspan dy="0.42em">​</tspan>)</text></g><g class="g-ytitle" transform="translate(15.3779296875,0)"><text class="ytitle" transform="rotate(-90,11.621875000000003,237.5)" x="11.621875000000003" y="237.5" text-anchor="middle" style="font-family: sans-serif; font-size: 29px; fill: rgb(0, 0, 0); opacity: 1; font-weight: normal; white-space: pre;">RtcB (μM)</text></g></g></svg>