<svg class="main-svg" xmlns="http://www.w3.org/2000/svg" xmlns:xlink="http://www.w3.org/1999/xlink" width="700" height="500" style="" viewBox="0 0 700 500"><rect x="0" y="0" width="700" height="500" style="fill: rgb(255, 255, 255); fill-opacity: 1;"/><defs id="defs-5ffb1d"><g class="clips"><clipPath id="clip5ffb1dxyplot" class="plotclip"><rect width="549" height="355"/></clipPath><clipPath class="axesclip" id="clip5ffb1dx"><rect x="101" y="0" width="549" height="500"/></clipPath><clipPath class="axesclip" id="clip5ffb1dy"><rect x="0" y="60" width="700" height="355"/></clipPath><clipPath class="axesclip" id="clip5ffb1dxy"><rect x="101" y="60" width="549" height="355"/></clipPath></g><g class="gradients"/></defs><g class="bglayer"/><g class="layer-below"><g class="imagelayer"/><g class="shapelayer"/></g><g class="cartesianlayer"><g class="subplot xy"><g class="layer-subplot"><g class="shapelayer"/><g class="imagelayer"/></g><g class="gridlayer"><g class="x"/><g class="y"/></g><g class="zerolinelayer"><path class="yzl zl crisp" transform="translate(0,397.49)" d="M101,0h549" style="stroke: rgb(255, 255, 255); stroke-opacity: 1; stroke-width: 2px;"/></g><path class="xlines-below"/><path class="ylines-below"/><g class="overlines-below"/><g class="xaxislayer-below"/><g class="yaxislayer-below"/><g class="overaxes-below"/><g class="plot" transform="translate(101,60)" clip-path="url('#clip5ffb1dxyplot')"><g class="scatterlayer mlayer"><g class="trace scatter tracedd3a88" style="stroke-miterlimit: 2; opacity: 1;"><g class="fills"/><g class="errorbars"/><g class="lines"><path class="js-line" d="M0,17.75L1.29,19.49L2.24,20.12L11.29,27.71L12.19,28.7L22.29,42.51L22.88,43.5L33.12,64.29L33.54,65.28L48.63,105.88L48.98,106.87L68.13,156.36L68.57,157.34L83.05,186L83.62,186.98L97.88,208.66L98.62,209.65L115.56,229.27L116.54,230.24L135.53,246.79L136.82,247.75L157.21,261.19L158.87,262.14L183.33,274.34L185.46,275.26L217.15,286.96L219.91,287.83L260.59,298.68L264.09,299.48L318.43,309.8L322.66,310.48L408.5,322.32L413.11,322.92L445.33,328.54L446.16,329.33" style="vector-effect: non-scaling-stroke; fill: none; stroke: rgb(150, 150, 150); stroke-opacity: 1; stroke-width: 6.5px; opacity: 1;"/></g><g class="points"/><g class="text"/></g><g class="trace scatter trace37a0b5" style="stroke-miterlimit: 2; opacity: 1;"><g class="fills"/><g class="errorbars"/><g class="lines"><path class="js-line" d="M446.16,329.33L440.03,331.13L434.99,331.68L390.35,333.89L384.62,334.06L281.01,336.51L281.01,336.51" style="vector-effect: non-scaling-stroke; fill: none; stroke: rgb(150, 150, 150); stroke-opacity: 1; stroke-width: 6.5px; opacity: 1; stroke-dasharray: 19.5px, 19.5px;"/></g><g class="points"/><g class="text"/></g><g class="trace scatter trace902390" style="stroke-miterlimit: 2; opacity: 1;"><g class="fills"/><g class="errorbars"/><g class="lines"><path class="js-line" d="M281.01,336.51L290.31,336.76L294.07,336.8L549,337.25" style="vector-effect: non-scaling-stroke; fill: none; stroke: rgb(150, 150, 150); stroke-opacity: 1; stroke-width: 6.5px; opacity: 1;"/></g><g class="points"/><g class="text"/></g><g class="trace scatter tracec63fef" style="stroke-miterlimit: 2; opacity: 1;"><g class="fills"/><g class="errorbars"/><g class="lines"><path class="js-line" d="M0,17.75L1.68,19.79L2.92,20.59L11.25,27.79L12.19,28.83L22.08,42.39L22.71,43.43L33.04,64.33L33.48,65.38L46.79,100.9L47.16,101.94L67.56,155.17L68.02,156.21L82.64,185.37L83.24,186.41L99.06,210.29L99.86,211.32L116.16,229.91L117.2,230.94L136.19,247.31L137.55,248.33L159.33,262.43L161.1,263.42L185.25,275.19L187.53,276.15L218.47,287.39L221.37,288.3L260.5,298.68L264.12,299.49L315.88,309.39L320.19,310.09L398.2,321L402.93,321.61L445.4,328.61L446.04,329.48" style="vector-effect: non-scaling-stroke; fill: none; stroke: rgb(161, 64, 63); stroke-opacity: 1; stroke-width: 6.5px; opacity: 1;"/></g><g class="points"/><g class="text"/></g><g class="trace scatter trace5cd990" style="stroke-miterlimit: 2; opacity: 1;"><g class="fills"/><g class="errorbars"/><g class="lines"><path class="js-line" d="M446.04,329.48L438.78,331.28L433.58,331.8L382.86,334.11L377.1,334.27L280.96,336.51" style="vector-effect: non-scaling-stroke; fill: none; stroke: rgb(161, 64, 63); stroke-opacity: 1; stroke-width: 6.5px; opacity: 1; stroke-dasharray: 19.5px, 19.5px;"/></g><g class="points"/><g class="text"/></g><g class="trace scatter tracee89a14" style="stroke-miterlimit: 2; opacity: 1;"><g class="fills"/><g class="errorbars"/><g class="lines"><path class="js-line" d="M280.96,336.51L294.69,336.81L300.31,336.85L549,337.25" style="vector-effect: non-scaling-stroke; fill: none; stroke: rgb(161, 64, 63); stroke-opacity: 1; stroke-width: 6.5px; opacity: 1;"/></g><g class="points"/><g class="text"/></g><g class="trace scatter trace4a11dd" style="stroke-miterlimit: 2; opacity: 1;"><g class="fills"/><g class="errorbars"/><g class="lines"><path class="js-line" d="M0,17.75L1.65,19.79L2.87,20.58L11.18,27.79L12.13,28.84L22.03,42.43L22.66,43.48L32.56,63.36L33,64.4L46.04,98.91L46.41,99.95L67.58,155.29L68.04,156.33L82.69,185.49L83.29,186.53L97.58,208.34L98.35,209.38L115.25,229.01L116.27,230.04L134.99,246.42L136.33,247.44L157.78,261.56L159.53,262.56L185.52,275.32L187.8,276.28L218.82,287.51L221.73,288.42L260.95,298.79L264.57,299.6L316.42,309.48L320.73,310.19L403.53,321.69L408.25,322.3L445.6,328.76L446.04,329.33" style="vector-effect: non-scaling-stroke; fill: none; stroke: rgb(226, 90, 88); stroke-opacity: 1; stroke-width: 6.5px; opacity: 1;"/></g><g class="points"/><g class="text"/></g><g class="trace scatter trace31bc3f" style="stroke-miterlimit: 2; opacity: 1;"><g class="fills"/><g class="errorbars"/><g class="lines"><path class="js-line" d="M446.04,329.33L439.42,331.19L434.25,331.74L383.59,334.09L377.83,334.25L280.93,336.51" style="vector-effect: non-scaling-stroke; fill: none; stroke: rgb(226, 90, 88); stroke-opacity: 1; stroke-width: 6.5px; opacity: 1; stroke-dasharray: 19.5px, 19.5px;"/></g><g class="points"/><g class="text"/></g><g class="trace scatter trace1c02f6" style="stroke-miterlimit: 2; opacity: 1;"><g class="fills"/><g class="errorbars"/><g class="lines"><path class="js-line" d="M280.93,336.51L293.98,336.8L299.57,336.84L549,337.25" style="vector-effect: non-scaling-stroke; fill: none; stroke: rgb(226, 90, 88); stroke-opacity: 1; stroke-width: 6.5px; opacity: 1;"/></g><g class="points"/><g class="text"/></g><g class="trace scatter traced9b224" style="stroke-miterlimit: 2; opacity: 1;"><g class="fills"/><g class="errorbars"/><g class="lines"><path class="js-line" d="M0,17.75L1.59,19.77L2.76,20.56L11.06,27.79L12.01,28.84L21.92,42.49L22.55,43.54L32.49,63.47L32.94,64.51L47.88,104.29L48.25,105.34L68.54,157.56L69,158.6L84.58,188.81L85.2,189.86L100.85,212.69L101.67,213.73L118.53,232.31L119.6,233.33L137.94,248.67L139.33,249.68L161.64,263.76L163.46,264.75L190.57,277.44L192.95,278.39L225.28,289.51L228.31,290.4L268.99,300.59L272.74,301.39L325.97,311.03L330.38,311.71L445.94,329.36" style="vector-effect: non-scaling-stroke; fill: none; stroke: rgb(255, 156, 155); stroke-opacity: 1; stroke-width: 6.5px; opacity: 1;"/></g><g class="points"/><g class="text"/></g><g class="trace scatter traceb1ad56" style="stroke-miterlimit: 2; opacity: 1;"><g class="fills"/><g class="errorbars"/><g class="lines"><path class="js-line" d="M445.94,329.36L439.19,331.21L434.01,331.75L383.32,334.09L377.56,334.26L280.87,336.51" style="vector-effect: non-scaling-stroke; fill: none; stroke: rgb(255, 156, 155); stroke-opacity: 1; stroke-width: 6.5px; opacity: 1; stroke-dasharray: 19.5px, 19.5px;"/></g><g class="points"/><g class="text"/></g><g class="trace scatter trace4398c5" style="stroke-miterlimit: 2; opacity: 1;"><g class="fills"/><g class="errorbars"/><g class="lines"><path class="js-line" d="M280.87,336.51L296.81,336.83L302.18,336.86L549,337.25" style="vector-effect: non-scaling-stroke; fill: none; stroke: rgb(255, 156, 155); stroke-opacity: 1; stroke-width: 6.5px; opacity: 1;"/></g><g class="points"/><g class="text"/></g></g></g><g class="overplot"/><path class="xlines-above crisp" d="M98,416.5H650" style="fill: none; stroke-width: 3px; stroke: rgb(0, 0, 0); stroke-opacity: 1;"/><path class="ylines-above crisp" d="M99.5,60V415" style="fill: none; stroke-width: 3px; stroke: rgb(0, 0, 0); stroke-opacity: 1;"/><g class="overlines-above"/><g class="xaxislayer-above"><g class="xtick"><text text-anchor="middle" x="0" y="446.8" transform="translate(101,0)" style="font-family: sans-serif; font-size: 24px; fill: rgb(0, 0, 0); fill-opacity: 1; white-space: pre;">0</text></g><g class="xtick"><text text-anchor="middle" x="0" y="446.8" transform="translate(238.25,0)" style="font-family: sans-serif; font-size: 24px; fill: rgb(0, 0, 0); fill-opacity: 1; white-space: pre;">5</text></g><g class="xtick"><text text-anchor="middle" x="0" y="446.8" transform="translate(375.5,0)" style="font-family: sans-serif; font-size: 24px; fill: rgb(0, 0, 0); fill-opacity: 1; white-space: pre;">10</text></g><g class="xtick"><text text-anchor="middle" x="0" y="446.8" transform="translate(512.75,0)" style="font-family: sans-serif; font-size: 24px; fill: rgb(0, 0, 0); fill-opacity: 1; white-space: pre;">15</text></g><g class="xtick"><text text-anchor="middle" x="0" y="446.8" transform="translate(650,0)" style="font-family: sans-serif; font-size: 24px; fill: rgb(0, 0, 0); fill-opacity: 1; white-space: pre;">20</text></g></g><g class="yaxislayer-above"><g class="ytick"><text text-anchor="end" x="93.2" y="8.399999999999999" transform="translate(0,397.49)" style="font-family: sans-serif; font-size: 24px; fill: rgb(0, 0, 0); fill-opacity: 1; white-space: pre;">0</text></g><g class="ytick"><text text-anchor="end" x="93.2" y="8.399999999999999" transform="translate(0,353.43)" style="font-family: sans-serif; font-size: 24px; fill: rgb(0, 0, 0); fill-opacity: 1; white-space: pre;">20</text></g><g class="ytick"><text text-anchor="end" x="93.2" y="8.399999999999999" transform="translate(0,309.37)" style="font-family: sans-serif; font-size: 24px; fill: rgb(0, 0, 0); fill-opacity: 1; white-space: pre;">40</text></g><g class="ytick"><text text-anchor="end" x="93.2" y="8.399999999999999" transform="translate(0,265.3)" style="font-family: sans-serif; font-size: 24px; fill: rgb(0, 0, 0); fill-opacity: 1; white-space: pre;">60</text></g><g class="ytick"><text text-anchor="end" x="93.2" y="8.399999999999999" transform="translate(0,221.24)" style="font-family: sans-serif; font-size: 24px; fill: rgb(0, 0, 0); fill-opacity: 1; white-space: pre;">80</text></g><g class="ytick"><text text-anchor="end" x="93.2" y="8.399999999999999" transform="translate(0,177.18)" style="font-family: sans-serif; font-size: 24px; fill: rgb(0, 0, 0); fill-opacity: 1; white-space: pre;">100</text></g><g class="ytick"><text text-anchor="end" x="93.2" y="8.399999999999999" transform="translate(0,133.11)" style="font-family: sans-serif; font-size: 24px; fill: rgb(0, 0, 0); fill-opacity: 1; white-space: pre;">120</text></g><g class="ytick"><text text-anchor="end" x="93.2" y="8.399999999999999" transform="translate(0,89.05)" style="font-family: sans-serif; font-size: 24px; fill: rgb(0, 0, 0); fill-opacity: 1; white-space: pre;">140</text></g></g><g class="overaxes-above"/></g></g><g class="polarlayer"/><g class="ternarylayer"/><g class="geolayer"/><g class="funnelarealayer"/><g class="pielayer"/><g class="treemaplayer"/><g class="sunburstlayer"/><g class="glimages"/><defs id="topdefs-5ffb1d"><g class="clips"/></defs><g class="layer-above"><g class="imagelayer"/><g class="shapelayer"/></g><g class="infolayer"><g class="g-gtitle"/><g class="g-xtitle"><text class="xtitle" x="375.5" y="488.1125" text-anchor="middle" style="font-family: sans-serif; font-size: 29px; fill: rgb(0, 0, 0); opacity: 1; font-weight: normal; white-space: pre;">Damage rate (min​<tspan style="font-size:70%" dy="-0.6em">-1</tspan><tspan dy="0.42em">​</tspan>)</text></g><g class="g-ytitle" transform="translate(14.9091796875,0)"><text class="ytitle" transform="rotate(-90,12.090625000000003,237.5)" x="12.090625000000003" y="237.5" text-anchor="middle" style="font-family: sans-serif; font-size: 29px; fill: rgb(0, 0, 0); opacity: 1; font-weight: normal; white-space: pre;">Healthy tRNA (μM)</text></g></g></svg>