<svg class="main-svg" xmlns="http://www.w3.org/2000/svg" xmlns:xlink="http://www.w3.org/1999/xlink" width="700" height="500" style="" viewBox="0 0 700 500"><rect x="0" y="0" width="700" height="500" style="fill: rgb(255, 255, 255); fill-opacity: 1;"/><defs id="defs-ba18e5"><g class="clips"><clipPath id="clipba18e5xyplot" class="plotclip"><rect width="549" height="355"/></clipPath><clipPath class="axesclip" id="clipba18e5x"><rect x="101" y="0" width="549" height="500"/></clipPath><clipPath class="axesclip" id="clipba18e5y"><rect x="0" y="60" width="700" height="355"/></clipPath><clipPath class="axesclip" id="clipba18e5xy"><rect x="101" y="60" width="549" height="355"/></clipPath></g><g class="gradients"/></defs><g class="bglayer"/><g class="layer-below"><g class="imagelayer"/><g class="shapelayer"/></g><g class="cartesianlayer"><g class="subplot xy"><g class="layer-subplot"><g class="shapelayer"/><g class="imagelayer"/></g><g class="gridlayer"><g class="x"/><g class="y"/></g><g class="zerolinelayer"><path class="yzl zl crisp" transform="translate(0,397.48)" d="M101,0h549" style="stroke: rgb(255, 255, 255); stroke-opacity: 1; stroke-width: 2px;"/></g><path class="xlines-below"/><path class="ylines-below"/><g class="overlines-below"/><g class="xaxislayer-below"/><g class="yaxislayer-below"/><g class="overaxes-below"/><g class="plot" transform="translate(101,60)" clip-path="url('#clipba18e5xyplot')"><g class="scatterlayer mlayer"><g class="trace scatter trace326b11" style="stroke-miterlimit: 2; opacity: 1;"><g class="fills"/><g class="errorbars"/><g class="lines"><path class="js-line" d="M0,17.75L1.29,19.49L2.24,20.12L11.29,27.71L12.19,28.7L22.29,42.51L22.88,43.5L33.54,65.27L33.95,66.27L48.63,105.88L48.98,106.87L68.13,156.35L68.57,157.34L83.05,185.99L83.62,186.98L98.62,209.64L99.37,210.62L115.56,229.26L116.54,230.23L135.53,246.77L136.82,247.74L157.21,261.18L158.87,262.13L183.33,274.32L185.46,275.25L217.15,286.94L219.91,287.82L260.59,298.67L264.09,299.46L314.24,309.09L318.43,309.78L394.6,320.51L399.24,321.11L445.33,328.52L446.16,329.31" style="vector-effect: non-scaling-stroke; fill: none; stroke: rgb(150, 150, 150); stroke-opacity: 1; stroke-width: 6.5px; opacity: 1;"/></g><g class="points"/><g class="text"/></g><g class="trace scatter trace2fe52c" style="stroke-miterlimit: 2; opacity: 1;"><g class="fills"/><g class="errorbars"/><g class="lines"><path class="js-line" d="M446.16,329.31L440.03,331.12L434.99,331.67L390.35,333.87L384.62,334.05L281.01,336.5" style="vector-effect: non-scaling-stroke; fill: none; stroke: rgb(150, 150, 150); stroke-opacity: 1; stroke-width: 6.5px; opacity: 1; stroke-dasharray: 19.5px, 19.5px;"/></g><g class="points"/><g class="text"/></g><g class="trace scatter trace6936e5" style="stroke-miterlimit: 2; opacity: 1;"><g class="fills"/><g class="errorbars"/><g class="lines"><path class="js-line" d="M281.01,336.5L294.07,336.79L299.29,336.83L549,337.23" style="vector-effect: non-scaling-stroke; fill: none; stroke: rgb(150, 150, 150); stroke-opacity: 1; stroke-width: 6.5px; opacity: 1;"/></g><g class="points"/><g class="text"/></g><g class="trace scatter trace76e507" style="stroke-miterlimit: 2; opacity: 1;"><g class="fills"/><g class="errorbars"/><g class="lines"><path class="js-line" d="M0,17.75L1.48,20.47L2.25,21.44L7.84,31.87L8.27,32.92L14.65,52.76L14.92,53.81L23.44,94.56L23.64,95.61L37.82,164.54L38.08,165.59L48.32,200.03L48.7,201.07L59.28,226.08L59.8,227.12L71.53,246.87L72.26,247.9L86.02,264.44L87.03,265.47L102.47,278.77L103.86,279.78L123.4,291.81L125.31,292.8L149.74,303.42L152.3,304.36L184.59,314.27L187.87,315.13L240.18,328.86L240.96,329.89" style="vector-effect: non-scaling-stroke; fill: none; stroke: rgb(126, 92, 148); stroke-opacity: 1; stroke-width: 6.5px; opacity: 1;"/></g><g class="points"/><g class="text"/></g><g class="trace scatter trace89b046" style="stroke-miterlimit: 2; opacity: 1;"><g class="fills"/><g class="errorbars"/><g class="lines"><path class="js-line" d="M240.96,329.89L236.83,331.88L232.47,332.63L194.3,335.95" style="vector-effect: non-scaling-stroke; fill: none; stroke: rgb(126, 92, 148); stroke-opacity: 1; stroke-width: 6.5px; opacity: 1; stroke-dasharray: 19.5px, 19.5px;"/></g><g class="points"/><g class="text"/></g><g class="trace scatter traced4ae95" style="stroke-miterlimit: 2; opacity: 1;"><g class="fills"/><g class="errorbars"/><g class="lines"><path class="js-line" d="M194.3,335.95L201.14,336.39L204.26,336.45L324.84,337.05L330.65,337.06L549,337.24" style="vector-effect: non-scaling-stroke; fill: none; stroke: rgb(126, 92, 148); stroke-opacity: 1; stroke-width: 6.5px; opacity: 1;"/></g><g class="points"/><g class="text"/></g><g class="trace scatter tracee08500" style="stroke-miterlimit: 2; opacity: 1;"><g class="fills"/><g class="errorbars"/><g class="lines"><path class="js-line" d="M0,17.75L1.71,21.43L2.28,22.48L7.22,36.06L7.52,37.1L13.4,65.32L13.58,66.37L34.4,190.69L34.66,191.74L44.42,224.09L44.81,225.13L54.6,247L55.16,248.04L66.55,265.69L67.36,266.72L79.62,280.13L80.73,281.15L96.54,293.37L98.09,294.37L118.38,305.27L120.54,306.24L148.27,316.58L151.13,317.49L186.35,329.42L186.82,330.34" style="vector-effect: non-scaling-stroke; fill: none; stroke: rgb(196, 143, 231); stroke-opacity: 1; stroke-width: 6.5px; opacity: 1;"/></g><g class="points"/><g class="text"/></g><g class="trace scatter trace7b8ea4" style="stroke-miterlimit: 2; opacity: 1;"><g class="fills"/><g class="errorbars"/><g class="lines"><path class="js-line" d="M186.82,330.34L183.52,332.36L179.75,333.2L164.77,335.59" style="vector-effect: non-scaling-stroke; fill: none; stroke: rgb(196, 143, 231); stroke-opacity: 1; stroke-width: 6.5px; opacity: 1; stroke-dasharray: 19.5px, 19.5px;"/></g><g class="points"/><g class="text"/></g><g class="trace scatter trace79ebca" style="stroke-miterlimit: 2; opacity: 1;"><g class="fills"/><g class="errorbars"/><g class="lines"><path class="js-line" d="M164.77,335.59L168.05,336.04L170.35,336.14L235.89,336.84L241.71,336.86L549,337.25" style="vector-effect: non-scaling-stroke; fill: none; stroke: rgb(196, 143, 231); stroke-opacity: 1; stroke-width: 6.5px; opacity: 1;"/></g><g class="points"/><g class="text"/></g><g class="trace scatter trace7b674f" style="stroke-miterlimit: 2; opacity: 1;"><g class="fills"/><g class="errorbars"/><g class="lines"><path class="js-line" d="M0,17.75L2.05,24.59L2.32,25.64L6.44,48.63L6.58,49.68L12.68,111.34L12.77,112.38L21.98,192.84L22.14,193.88L29.82,231.48L30.09,232.52L38.39,257.56L38.82,258.6L48.51,277.33L49.18,278.37L59.67,291.82L60.65,292.85L73.55,304.1L74.95,305.12L91.66,315.11L93.61,316.1L123.23,330.75L123.55,331.76" style="vector-effect: non-scaling-stroke; fill: none; stroke: rgb(228, 187, 255); stroke-opacity: 1; stroke-width: 6.5px; opacity: 1;"/></g><g class="points"/><g class="text"/></g><g class="trace scatter trace3111cb" style="stroke-miterlimit: 2; opacity: 1;"><g class="fills"/><g class="errorbars"/><g class="lines"><path class="js-line" d="M123.55,331.76L122.07,334.63" style="vector-effect: non-scaling-stroke; fill: none; stroke: rgb(228, 187, 255); stroke-opacity: 1; stroke-width: 6.5px; opacity: 1; stroke-dasharray: 19.5px, 19.5px;"/></g><g class="points"/><g class="text"/></g><g class="trace scatter trace25fc9b" style="stroke-miterlimit: 2; opacity: 1;"><g class="fills"/><g class="errorbars"/><g class="lines"><path class="js-line" d="M122.07,334.63L134.09,335.95L139.88,336.12L244.55,336.92L250.36,336.94L549,337.25" style="vector-effect: non-scaling-stroke; fill: none; stroke: rgb(228, 187, 255); stroke-opacity: 1; stroke-width: 6.5px; opacity: 1;"/></g><g class="points"/><g class="text"/></g><g class="trace scatter trace632709" style="stroke-miterlimit: 2;"><g class="fills"><g><path class="js-fill" d="M446.16,337.48L0,337.48L0,17.75L0,17.75L0,17.76L0.01,17.79L0.01,17.84L0.03,17.95L0.09,18.14L0.24,18.47L0.73,19.04L2.24,20.12L4.82,21.83L7.26,23.79L9.37,25.75L11.29,27.71L13.06,29.68L14.72,31.65L16.27,33.62L17.73,35.6L19.12,37.57L20.43,39.55L21.68,41.52L22.88,43.5L24.02,45.48L25.12,47.46L26.18,49.44L27.2,51.42L28.18,53.39L29.14,55.37L30.06,57.35L30.96,59.33L31.84,61.31L32.7,63.29L33.54,65.27L34.36,67.26L35.17,69.24L35.96,71.22L36.74,73.2L37.5,75.18L38.26,77.16L39.01,79.14L39.75,81.12L40.48,83.1L41.21,85.08L41.93,87.06L42.64,89.04L43.35,91.02L44.06,93L44.77,94.98L45.47,96.96L46.17,98.95L46.87,100.93L47.57,102.91L48.27,104.89L48.98,106.87L49.68,108.85L50.38,110.83L51.09,112.81L51.8,114.79L52.51,116.77L53.23,118.75L53.95,120.73L54.68,122.71L55.41,124.69L56.14,126.67L56.89,128.65L57.63,130.63L58.39,132.61L59.15,134.58L59.92,136.56L60.7,138.54L61.48,140.52L62.28,142.5L63.08,144.48L63.89,146.46L64.72,148.44L65.55,150.42L66.4,152.39L67.26,154.37L68.13,156.35L69.01,158.33L69.91,160.3L70.82,162.28L71.74,164.26L72.68,166.24L73.64,168.21L74.61,170.19L75.6,172.16L76.6,174.14L77.63,176.12L78.67,178.09L79.73,180.07L80.82,182.04L81.92,184.02L83.05,185.99L84.19,187.96L85.37,189.94L86.56,191.91L87.79,193.88L89.04,195.85L90.31,197.82L91.62,199.79L92.95,201.76L94.32,203.73L95.72,205.7L97.15,207.67L98.62,209.64L100.12,211.6L101.66,213.57L103.25,215.53L104.87,217.5L106.53,219.46L108.24,221.42L110,223.38L111.8,225.34L113.66,227.3L115.56,229.26L117.53,231.21L119.55,233.16L121.63,235.12L123.77,237.06L125.98,239.01L128.26,240.96L130.61,242.9L133.03,244.84L135.53,246.77L138.12,248.71L140.79,250.64L143.55,252.56L146.41,254.49L149.36,256.41L152.42,258.32L155.59,260.23L158.87,262.13L162.26,264.03L165.79,265.92L169.44,267.8L173.23,269.67L177.15,271.54L181.23,273.4L185.46,275.25L189.85,277.08L194.41,278.91L199.14,280.72L204.05,282.52L209.14,284.3L214.43,286.07L219.91,287.82L225.59,289.55L231.48,291.26L237.58,292.95L243.89,294.61L250.41,296.25L257.14,297.87L264.09,299.46L271.25,301.03L278.62,302.56L286.2,304.06L293.98,305.54L301.95,306.98L310.1,308.4L318.43,309.78L326.93,311.14L335.58,312.46L344.38,313.76L353.3,315.03L362.34,316.28L371.48,317.51L380.69,318.72L389.95,319.91L399.24,321.11L408.5,322.3L417.68,323.52L426.66,324.78L435.2,326.12L442.66,327.63L446.16,329.31" style="fill: rgb(150, 150, 150); fill-opacity: 0.3; stroke-width: 0;"/></g></g><g class="errorbars"/><g class="lines"/><g class="points"/><g class="text"/></g><g class="trace scatter trace585b1a" style="stroke-miterlimit: 2;"><g class="fills"><g><path class="js-fill" d="M186.35,337.48L0,337.48L0,17.75L0,17.75L0,17.76L0,17.79L0.01,17.85L0.02,17.96L0.04,18.17L0.12,18.54L0.36,19.17L1.12,20.46L2.28,22.48L3.26,24.57L4.12,26.66L4.9,28.75L5.62,30.84L6.29,32.93L6.92,35.01L7.52,37.1L8.08,39.19L8.61,41.29L9.11,43.38L9.6,45.47L10.06,47.56L10.5,49.65L10.93,51.74L11.34,53.83L11.74,55.92L12.13,58.01L12.5,60.1L12.87,62.19L13.23,64.28L13.58,66.37L13.92,68.46L14.26,70.55L14.59,72.64L14.91,74.73L15.23,76.82L15.55,78.91L15.86,81L16.17,83.09L16.48,85.18L16.78,87.27L17.08,89.36L17.38,91.45L17.68,93.54L17.98,95.63L18.28,97.72L18.57,99.81L18.87,101.9L19.17,103.99L19.46,106.08L19.76,108.17L20.06,110.26L20.36,112.35L20.66,114.44L20.96,116.53L21.26,118.62L21.57,120.71L21.88,122.8L22.19,124.89L22.5,126.98L22.81,129.06L23.13,131.15L23.45,133.24L23.78,135.33L24.11,137.42L24.44,139.51L24.77,141.6L25.11,143.69L25.46,145.78L25.81,147.87L26.16,149.96L26.52,152.05L26.88,154.14L27.25,156.23L27.63,158.32L28.01,160.41L28.4,162.49L28.79,164.58L29.19,166.67L29.6,168.76L30.02,170.85L30.44,172.94L30.87,175.03L31.31,177.12L31.76,179.21L32.22,181.29L32.69,183.38L33.16,185.47L33.65,187.56L34.15,189.65L34.66,191.74L35.18,193.82L35.71,195.91L36.26,198L36.82,200.09L37.39,202.18L37.98,204.26L38.58,206.35L39.2,208.44L39.84,210.52L40.49,212.61L41.16,214.7L41.85,216.78L42.56,218.87L43.28,220.96L44.03,223.04L44.81,225.13L45.6,227.21L46.42,229.3L47.27,231.38L48.15,233.47L49.05,235.55L49.98,237.63L50.95,239.72L51.95,241.8L52.98,243.88L54.05,245.96L55.16,248.04L56.31,250.12L57.51,252.2L58.75,254.28L60.04,256.36L61.39,258.43L62.79,260.51L64.25,262.58L65.77,264.65L67.36,266.72L69.01,268.79L70.75,270.86L72.56,272.92L74.46,274.99L76.45,277.05L78.54,279.1L80.73,281.15L83.04,283.2L85.46,285.25L88.02,287.29L90.71,289.32L93.54,291.35L96.54,293.37L99.7,295.38L103.03,297.38L106.56,299.37L110.28,301.35L114.22,303.32L118.38,305.27L122.76,307.2L127.39,309.12L132.25,311.02L137.36,312.89L142.7,314.75L148.27,316.58L154.03,318.39L159.95,320.19L165.96,321.97L171.95,323.76L177.71,325.57L182.83,327.43L186.35,329.42" style="fill: rgb(228, 187, 255); fill-opacity: 0.3; stroke-width: 0;"/></g></g><g class="errorbars"/><g class="lines"/><g class="points"/><g class="text"/></g><g class="trace scatter traced388fa" style="stroke-miterlimit: 2;"><g class="fills"><g><path class="js-fill" d="M123.55,337.48L0,337.48L0,17.75L0,17.75L0,17.76L0,17.79L0,17.85L0.01,17.97L0.03,18.18L0.07,18.55L0.23,19.18L0.71,20.48L1.43,22.5L2.05,24.59L2.58,26.68L3.07,28.77L3.52,30.86L3.94,32.95L4.34,35.04L4.71,37.13L5.06,39.23L5.39,41.32L5.71,43.41L6.01,45.5L6.3,47.59L6.58,49.68L6.85,51.77L7.1,53.86L7.35,55.95L7.6,58.04L7.83,60.13L8.06,62.22L8.29,64.31L8.51,66.4L8.72,68.49L8.93,70.58L9.14,72.67L9.34,74.76L9.54,76.85L9.74,78.94L9.94,81.03L10.13,83.12L10.33,85.21L10.52,87.3L10.71,89.39L10.9,91.48L11.08,93.57L11.27,95.66L11.46,97.75L11.65,99.84L11.83,101.93L12.02,104.02L12.21,106.11L12.39,108.2L12.58,110.29L12.77,112.38L12.96,114.47L13.15,116.56L13.34,118.65L13.54,120.74L13.73,122.83L13.92,124.92L14.12,127.01L14.32,129.1L14.52,131.19L14.72,133.28L14.93,135.37L15.14,137.46L15.35,139.55L15.56,141.64L15.77,143.73L15.99,145.82L16.21,147.91L16.43,150L16.66,152.09L16.89,154.18L17.12,156.27L17.36,158.36L17.6,160.45L17.85,162.54L18.1,164.63L18.35,166.72L18.61,168.81L18.87,170.9L19.14,172.99L19.41,175.08L19.69,177.17L19.98,179.26L20.27,181.35L20.56,183.44L20.87,185.53L21.17,187.62L21.49,189.71L21.81,191.79L22.14,193.88L22.48,195.97L22.83,198.06L23.18,200.15L23.55,202.24L23.92,204.33L24.3,206.42L24.69,208.51L25.1,210.6L25.51,212.69L25.93,214.77L26.37,216.86L26.82,218.95L27.28,221.04L27.76,223.13L28.25,225.22L28.76,227.3L29.28,229.39L29.82,231.48L30.37,233.57L30.95,235.66L31.54,237.74L32.16,239.83L32.79,241.92L33.45,244L34.14,246.09L34.84,248.18L35.58,250.26L36.34,252.35L37.14,254.43L37.96,256.52L38.82,258.6L39.72,260.69L40.65,262.77L41.63,264.85L42.65,266.93L43.71,269.01L44.83,271.09L46,273.17L47.22,275.25L48.51,277.33L49.86,279.41L51.29,281.48L52.79,283.55L54.37,285.62L56.04,287.69L57.81,289.76L59.67,291.82L61.65,293.88L63.75,295.93L65.98,297.98L68.35,300.03L70.87,302.07L73.55,304.1L76.4,306.13L79.44,308.14L82.67,310.15L86.11,312.14L89.75,314.13L93.61,316.1L97.67,318.05L101.91,319.99L106.29,321.92L110.73,323.85L115.09,325.77L119.11,327.72L122.27,329.72L123.55,331.76" style="fill: rgb(196, 143, 231); fill-opacity: 0.3; stroke-width: 0;"/></g></g><g class="errorbars"/><g class="lines"/><g class="points"/><g class="text"/></g><g class="trace scatter trace3e9431" style="stroke-miterlimit: 2;"><g class="fills"><g><path class="js-fill" d="M240.18,337.48L0,337.48L0,17.75L0,17.75L0,17.76L0,17.79L0.01,17.85L0.02,17.96L0.05,18.17L0.15,18.54L0.47,19.18L1.48,20.47L3,22.48L4.28,24.57L5.41,26.65L6.44,28.74L7.39,30.83L8.27,32.92L9.1,35.01L9.88,37.09L10.62,39.18L11.32,41.27L11.98,43.36L12.62,45.45L13.23,47.54L13.81,49.63L14.37,51.72L14.92,53.81L15.44,55.9L15.95,57.99L16.45,60.08L16.93,62.17L17.4,64.26L17.86,66.35L18.31,68.44L18.75,70.53L19.18,72.62L19.61,74.71L20.03,76.8L20.45,78.89L20.86,80.98L21.26,83.07L21.67,85.16L22.06,87.25L22.46,89.34L22.86,91.43L23.25,93.52L23.64,95.61L24.03,97.69L24.42,99.78L24.81,101.87L25.2,103.96L25.59,106.05L25.98,108.14L26.37,110.23L26.76,112.32L27.16,114.41L27.55,116.5L27.95,118.59L28.35,120.68L28.75,122.77L29.16,124.86L29.57,126.95L29.98,129.04L30.4,131.13L30.82,133.21L31.25,135.3L31.68,137.39L32.11,139.48L32.55,141.57L33,143.66L33.45,145.75L33.91,147.84L34.37,149.93L34.84,152.01L35.32,154.1L35.8,156.19L36.29,158.28L36.79,160.37L37.3,162.46L37.82,164.54L38.34,166.63L38.88,168.72L39.42,170.81L39.97,172.9L40.54,174.98L41.12,177.07L41.7,179.16L42.3,181.25L42.92,183.33L43.54,185.42L44.18,187.51L44.83,189.6L45.5,191.68L46.18,193.77L46.88,195.86L47.59,197.94L48.32,200.03L49.07,202.11L49.84,204.2L50.63,206.29L51.44,208.37L52.27,210.46L53.12,212.54L54,214.62L54.9,216.71L55.82,218.79L56.77,220.88L57.75,222.96L58.76,225.04L59.8,227.12L60.87,229.2L61.98,231.28L63.12,233.36L64.3,235.44L65.51,237.52L66.77,239.6L68.07,241.68L69.42,243.75L70.81,245.83L72.26,247.9L73.76,249.98L75.31,252.05L76.93,254.12L78.6,256.19L80.35,258.25L82.16,260.32L84.05,262.38L86.02,264.44L88.07,266.5L90.21,268.55L92.45,270.6L94.79,272.65L97.23,274.69L99.79,276.73L102.47,278.77L105.28,280.79L108.22,282.82L111.31,284.83L114.55,286.84L117.96,288.84L121.54,290.82L125.31,292.8L129.26,294.77L133.43,296.72L137.8,298.66L142.4,300.57L147.23,302.48L152.3,304.36L157.62,306.22L163.18,308.05L168.99,309.86L175.05,311.64L181.35,313.4L187.87,315.13L194.6,316.83L201.5,318.51L208.53,320.17L215.62,321.83L222.67,323.49L229.48,325.17L235.66,326.94L240.18,328.86" style="fill: rgb(126, 92, 148); fill-opacity: 0.3; stroke-width: 0;"/></g></g><g class="errorbars"/><g class="lines"/><g class="points"/><g class="text"/></g></g></g><g class="overplot"/><path class="xlines-above crisp" d="M98,416.5H650" style="fill: none; stroke-width: 3px; stroke: rgb(0, 0, 0); stroke-opacity: 1;"/><path class="ylines-above crisp" d="M99.5,60V415" style="fill: none; stroke-width: 3px; stroke: rgb(0, 0, 0); stroke-opacity: 1;"/><g class="overlines-above"/><g class="xaxislayer-above"><g class="xtick"><text text-anchor="middle" x="0" y="446.8" transform="translate(101,0)" style="font-family: sans-serif; font-size: 24px; fill: rgb(0, 0, 0); fill-opacity: 1; white-space: pre;">0</text></g><g class="xtick"><text text-anchor="middle" x="0" y="446.8" transform="translate(238.25,0)" style="font-family: sans-serif; font-size: 24px; fill: rgb(0, 0, 0); fill-opacity: 1; white-space: pre;">5</text></g><g class="xtick"><text text-anchor="middle" x="0" y="446.8" transform="translate(375.5,0)" style="font-family: sans-serif; font-size: 24px; fill: rgb(0, 0, 0); fill-opacity: 1; white-space: pre;">10</text></g><g class="xtick"><text text-anchor="middle" x="0" y="446.8" transform="translate(512.75,0)" style="font-family: sans-serif; font-size: 24px; fill: rgb(0, 0, 0); fill-opacity: 1; white-space: pre;">15</text></g><g class="xtick"><text text-anchor="middle" x="0" y="446.8" transform="translate(650,0)" style="font-family: sans-serif; font-size: 24px; fill: rgb(0, 0, 0); fill-opacity: 1; white-space: pre;">20</text></g></g><g class="yaxislayer-above"><g class="ytick"><text text-anchor="end" x="93.2" y="8.399999999999999" transform="translate(0,397.48)" style="font-family: sans-serif; font-size: 24px; fill: rgb(0, 0, 0); fill-opacity: 1; white-space: pre;">0</text></g><g class="ytick"><text text-anchor="end" x="93.2" y="8.399999999999999" transform="translate(0,353.42)" style="font-family: sans-serif; font-size: 24px; fill: rgb(0, 0, 0); fill-opacity: 1; white-space: pre;">20</text></g><g class="ytick"><text text-anchor="end" x="93.2" y="8.399999999999999" transform="translate(0,309.36)" style="font-family: sans-serif; font-size: 24px; fill: rgb(0, 0, 0); fill-opacity: 1; white-space: pre;">40</text></g><g class="ytick"><text text-anchor="end" x="93.2" y="8.399999999999999" transform="translate(0,265.28999999999996)" style="font-family: sans-serif; font-size: 24px; fill: rgb(0, 0, 0); fill-opacity: 1; white-space: pre;">60</text></g><g class="ytick"><text text-anchor="end" x="93.2" y="8.399999999999999" transform="translate(0,221.23)" style="font-family: sans-serif; font-size: 24px; fill: rgb(0, 0, 0); fill-opacity: 1; white-space: pre;">80</text></g><g class="ytick"><text text-anchor="end" x="93.2" y="8.399999999999999" transform="translate(0,177.17000000000002)" style="font-family: sans-serif; font-size: 24px; fill: rgb(0, 0, 0); fill-opacity: 1; white-space: pre;">100</text></g><g class="ytick"><text text-anchor="end" x="93.2" y="8.399999999999999" transform="translate(0,133.11)" style="font-family: sans-serif; font-size: 24px; fill: rgb(0, 0, 0); fill-opacity: 1; white-space: pre;">120</text></g><g class="ytick"><text text-anchor="end" x="93.2" y="8.399999999999999" transform="translate(0,89.05)" style="font-family: sans-serif; font-size: 24px; fill: rgb(0, 0, 0); fill-opacity: 1; white-space: pre;">140</text></g></g><g class="overaxes-above"/></g></g><g class="polarlayer"/><g class="ternarylayer"/><g class="geolayer"/><g class="funnelarealayer"/><g class="pielayer"/><g class="treemaplayer"/><g class="sunburstlayer"/><g class="glimages"/><defs id="topdefs-ba18e5"><g class="clips"/></defs><g class="layer-above"><g class="imagelayer"/><g class="shapelayer"/></g><g class="infolayer"><g class="g-gtitle"/><g class="g-xtitle"><text class="xtitle" x="375.5" y="488.1125" text-anchor="middle" style="font-family: sans-serif; font-size: 29px; fill: rgb(0, 0, 0); opacity: 1; font-weight: normal; white-space: pre;">Damage rate (min​<tspan style="font-size:70%" dy="-0.6em">-1</tspan><tspan dy="0.42em">​</tspan>)</text></g><g class="g-ytitle" transform="translate(14.9091796875,0)"><text class="ytitle" transform="rotate(-90,12.090625000000003,237.5)" x="12.090625000000003" y="237.5" text-anchor="middle" style="font-family: sans-serif; font-size: 29px; fill: rgb(0, 0, 0); opacity: 1; font-weight: normal; white-space: pre;">Healthy tRNA (μM)</text></g></g></svg>