<svg class="main-svg" xmlns="http://www.w3.org/2000/svg" xmlns:xlink="http://www.w3.org/1999/xlink" width="700" height="500" style="" viewBox="0 0 700 500"><rect x="0" y="0" width="700" height="500" style="fill: rgb(255, 255, 255); fill-opacity: 1;"/><defs id="defs-a10d65"><g class="clips"><clipPath id="clipa10d65xyplot" class="plotclip"><rect width="549" height="355"/></clipPath><clipPath class="axesclip" id="clipa10d65x"><rect x="101" y="0" width="549" height="500"/></clipPath><clipPath class="axesclip" id="clipa10d65y"><rect x="0" y="60" width="700" height="355"/></clipPath><clipPath class="axesclip" id="clipa10d65xy"><rect x="101" y="60" width="549" height="355"/></clipPath></g><g class="gradients"/></defs><g class="bglayer"/><g class="layer-below"><g class="imagelayer"/><g class="shapelayer"/></g><g class="cartesianlayer"><g class="subplot xy"><g class="layer-subplot"><g class="shapelayer"/><g class="imagelayer"/></g><g class="gridlayer"><g class="x"/><g class="y"/></g><g class="zerolinelayer"><path class="yzl zl crisp" transform="translate(0,397.48)" d="M101,0h549" style="stroke: rgb(255, 255, 255); stroke-opacity: 1; stroke-width: 2px;"/></g><path class="xlines-below"/><path class="ylines-below"/><g class="overlines-below"/><g class="xaxislayer-below"/><g class="yaxislayer-below"/><g class="overaxes-below"/><g class="plot" transform="translate(101,60)" clip-path="url('#clipa10d65xyplot')"><g class="scatterlayer mlayer"><g class="trace scatter tracece6c9e" style="stroke-miterlimit: 2; opacity: 1;"><g class="fills"/><g class="errorbars"/><g class="lines"><path class="js-line" d="M0,17.75L1.29,19.49L2.24,20.12L11.29,27.71L12.19,28.7L22.29,42.51L22.88,43.5L33.54,65.27L33.95,66.27L48.63,105.88L48.98,106.87L68.13,156.35L68.57,157.34L83.05,185.99L83.62,186.98L98.62,209.64L99.37,210.62L115.56,229.26L116.54,230.23L135.53,246.77L136.82,247.74L157.21,261.18L158.87,262.13L183.33,274.32L185.46,275.25L217.15,286.94L219.91,287.82L260.59,298.67L264.09,299.46L314.24,309.09L318.43,309.78L394.6,320.51L399.24,321.11L445.33,328.52L446.16,329.31" style="vector-effect: non-scaling-stroke; fill: none; stroke: rgb(150, 150, 150); stroke-opacity: 1; stroke-width: 6.5px; opacity: 1;"/></g><g class="points"/><g class="text"/></g><g class="trace scatter traceab2d77" style="stroke-miterlimit: 2; opacity: 1;"><g class="fills"/><g class="errorbars"/><g class="lines"><path class="js-line" d="M446.16,329.31L440.03,331.12L434.99,331.67L390.35,333.87L384.62,334.05L281.01,336.5" style="vector-effect: non-scaling-stroke; fill: none; stroke: rgb(150, 150, 150); stroke-opacity: 1; stroke-width: 6.5px; opacity: 1; stroke-dasharray: 19.5px, 19.5px;"/></g><g class="points"/><g class="text"/></g><g class="trace scatter tracef63f54" style="stroke-miterlimit: 2; opacity: 1;"><g class="fills"/><g class="errorbars"/><g class="lines"><path class="js-line" d="M281.01,336.5L294.07,336.79L299.29,336.83L549,337.23" style="vector-effect: non-scaling-stroke; fill: none; stroke: rgb(150, 150, 150); stroke-opacity: 1; stroke-width: 6.5px; opacity: 1;"/></g><g class="points"/><g class="text"/></g><g class="trace scatter tracea8133f" style="stroke-miterlimit: 2; opacity: 1;"><g class="fills"/><g class="errorbars"/><g class="lines"><path class="js-line" d="M0,17.75L2.06,21.44L2.74,22.49L8.32,35.01L8.68,36.06L14.8,59.05L15.03,60.09L24.99,115.47L25.18,116.52L36.54,172.92L36.79,173.96L46.66,207.36L47.03,208.4L57.72,233.41L58.26,234.45L69.63,253.15L70.38,254.19L83.61,269.68L84.65,270.71L100.6,283.98L102.04,285L120.61,295.99L122.57,296.98L147.84,307.53L150.5,308.46L186.92,319.13L190.26,319.99L220.48,328.84L221.38,329.88" style="vector-effect: non-scaling-stroke; fill: none; stroke: rgb(126, 92, 148); stroke-opacity: 1; stroke-width: 6.5px; opacity: 1;"/></g><g class="points"/><g class="text"/></g><g class="trace scatter tracefddfce" style="stroke-miterlimit: 2; opacity: 1;"><g class="fills"/><g class="errorbars"/><g class="lines"><path class="js-line" d="M221.39,330.02L217.54,332.03L213.35,332.8L184.13,335.85" style="vector-effect: non-scaling-stroke; fill: none; stroke: rgb(126, 92, 148); stroke-opacity: 1; stroke-width: 6.5px; opacity: 1; stroke-dasharray: 19.5px, 19.5px;"/></g><g class="points"/><g class="text"/></g><g class="trace scatter trace4806fb" style="stroke-miterlimit: 2; opacity: 1;"><g class="fills"/><g class="errorbars"/><g class="lines"><path class="js-line" d="M184.13,335.85L187.95,336.22L190.12,336.3L272.96,336.94L278.77,336.96L549,337.25" style="vector-effect: non-scaling-stroke; fill: none; stroke: rgb(126, 92, 148); stroke-opacity: 1; stroke-width: 6.5px; opacity: 1;"/></g><g class="points"/><g class="text"/></g><g class="trace scatter trace39e875" style="stroke-miterlimit: 2; opacity: 1;"><g class="fills"/><g class="errorbars"/><g class="lines"><path class="js-line" d="M0,17.75L2.03,22.47L2.49,23.51L7.45,40.23L7.68,41.28L13.03,72.63L13.17,73.68L30.98,191.74L31.22,192.78L39.72,224.1L40.07,225.14L49.35,248.07L49.86,249.11L60.3,266.78L61.03,267.81L73.36,282.27L74.42,283.3L89.49,295.54L90.98,296.55L110.56,307.49L112.66,308.46L139.54,318.87L142.28,319.79L167.58,329.14L168.49,330.17L168.56,330.58" style="vector-effect: non-scaling-stroke; fill: none; stroke: rgb(196, 143, 231); stroke-opacity: 1; stroke-width: 6.5px; opacity: 1;"/></g><g class="points"/><g class="text"/></g><g class="trace scatter trace26cd3c" style="stroke-miterlimit: 2; opacity: 1;"><g class="fills"/><g class="errorbars"/><g class="lines"><path class="js-line" d="M168.56,330.58L165.6,332.61L162.18,333.49L153.67,335.45" style="vector-effect: non-scaling-stroke; fill: none; stroke: rgb(196, 143, 231); stroke-opacity: 1; stroke-width: 6.5px; opacity: 1; stroke-dasharray: 19.5px, 19.5px;"/></g><g class="points"/><g class="text"/></g><g class="trace scatter tracecee333" style="stroke-miterlimit: 2; opacity: 1;"><g class="fills"/><g class="errorbars"/><g class="lines"><path class="js-line" d="M153.67,335.45L158.76,336.02L162.1,336.15L248.05,336.9L253.86,336.92L549,337.25" style="vector-effect: non-scaling-stroke; fill: none; stroke: rgb(196, 143, 231); stroke-opacity: 1; stroke-width: 6.5px; opacity: 1;"/></g><g class="points"/><g class="text"/></g><g class="trace scatter trace4a9b2c" style="stroke-miterlimit: 2; opacity: 1;"><g class="fills"/><g class="errorbars"/><g class="lines"><path class="js-line" d="M0,17.75L2.05,24.59L2.32,25.64L6.44,48.63L6.58,49.68L12.68,111.34L12.77,112.38L21.98,192.84L22.14,193.88L29.82,231.48L30.09,232.52L38.39,257.56L38.82,258.6L48.51,277.33L49.18,278.37L59.67,291.82L60.65,292.85L73.55,304.1L74.95,305.12L91.66,315.11L93.61,316.1L123.23,330.75L123.55,331.76" style="vector-effect: non-scaling-stroke; fill: none; stroke: rgb(228, 187, 255); stroke-opacity: 1; stroke-width: 6.5px; opacity: 1;"/></g><g class="points"/><g class="text"/></g><g class="trace scatter tracefdfab1" style="stroke-miterlimit: 2; opacity: 1;"><g class="fills"/><g class="errorbars"/><g class="lines"><path class="js-line" d="M123.55,331.76L122.07,334.63" style="vector-effect: non-scaling-stroke; fill: none; stroke: rgb(228, 187, 255); stroke-opacity: 1; stroke-width: 6.5px; opacity: 1; stroke-dasharray: 19.5px, 19.5px;"/></g><g class="points"/><g class="text"/></g><g class="trace scatter tracedc15a2" style="stroke-miterlimit: 2; opacity: 1;"><g class="fills"/><g class="errorbars"/><g class="lines"><path class="js-line" d="M122.07,334.63L134.09,335.95L139.88,336.12L244.55,336.92L250.36,336.94L549,337.25" style="vector-effect: non-scaling-stroke; fill: none; stroke: rgb(228, 187, 255); stroke-opacity: 1; stroke-width: 6.5px; opacity: 1;"/></g><g class="points"/><g class="text"/></g></g></g><g class="overplot"/><path class="xlines-above crisp" d="M98,416.5H650" style="fill: none; stroke-width: 3px; stroke: rgb(0, 0, 0); stroke-opacity: 1;"/><path class="ylines-above crisp" d="M99.5,60V415" style="fill: none; stroke-width: 3px; stroke: rgb(0, 0, 0); stroke-opacity: 1;"/><g class="overlines-above"/><g class="xaxislayer-above"><g class="xtick"><text text-anchor="middle" x="0" y="446.8" transform="translate(101,0)" style="font-family: sans-serif; font-size: 24px; fill: rgb(0, 0, 0); fill-opacity: 1; white-space: pre;">0</text></g><g class="xtick"><text text-anchor="middle" x="0" y="446.8" transform="translate(238.25,0)" style="font-family: sans-serif; font-size: 24px; fill: rgb(0, 0, 0); fill-opacity: 1; white-space: pre;">5</text></g><g class="xtick"><text text-anchor="middle" x="0" y="446.8" transform="translate(375.5,0)" style="font-family: sans-serif; font-size: 24px; fill: rgb(0, 0, 0); fill-opacity: 1; white-space: pre;">10</text></g><g class="xtick"><text text-anchor="middle" x="0" y="446.8" transform="translate(512.75,0)" style="font-family: sans-serif; font-size: 24px; fill: rgb(0, 0, 0); fill-opacity: 1; white-space: pre;">15</text></g><g class="xtick"><text text-anchor="middle" x="0" y="446.8" transform="translate(650,0)" style="font-family: sans-serif; font-size: 24px; fill: rgb(0, 0, 0); fill-opacity: 1; white-space: pre;">20</text></g></g><g class="yaxislayer-above"><g class="ytick"><text text-anchor="end" x="93.2" y="8.399999999999999" transform="translate(0,397.48)" style="font-family: sans-serif; font-size: 24px; fill: rgb(0, 0, 0); fill-opacity: 1; white-space: pre;">0</text></g><g class="ytick"><text text-anchor="end" x="93.2" y="8.399999999999999" transform="translate(0,353.42)" style="font-family: sans-serif; font-size: 24px; fill: rgb(0, 0, 0); fill-opacity: 1; white-space: pre;">20</text></g><g class="ytick"><text text-anchor="end" x="93.2" y="8.399999999999999" transform="translate(0,309.36)" style="font-family: sans-serif; font-size: 24px; fill: rgb(0, 0, 0); fill-opacity: 1; white-space: pre;">40</text></g><g class="ytick"><text text-anchor="end" x="93.2" y="8.399999999999999" transform="translate(0,265.28999999999996)" style="font-family: sans-serif; font-size: 24px; fill: rgb(0, 0, 0); fill-opacity: 1; white-space: pre;">60</text></g><g class="ytick"><text text-anchor="end" x="93.2" y="8.399999999999999" transform="translate(0,221.23)" style="font-family: sans-serif; font-size: 24px; fill: rgb(0, 0, 0); fill-opacity: 1; white-space: pre;">80</text></g><g class="ytick"><text text-anchor="end" x="93.2" y="8.399999999999999" transform="translate(0,177.17000000000002)" style="font-family: sans-serif; font-size: 24px; fill: rgb(0, 0, 0); fill-opacity: 1; white-space: pre;">100</text></g><g class="ytick"><text text-anchor="end" x="93.2" y="8.399999999999999" transform="translate(0,133.11)" style="font-family: sans-serif; font-size: 24px; fill: rgb(0, 0, 0); fill-opacity: 1; white-space: pre;">120</text></g><g class="ytick"><text text-anchor="end" x="93.2" y="8.399999999999999" transform="translate(0,89.05)" style="font-family: sans-serif; font-size: 24px; fill: rgb(0, 0, 0); fill-opacity: 1; white-space: pre;">140</text></g></g><g class="overaxes-above"/></g></g><g class="polarlayer"/><g class="ternarylayer"/><g class="geolayer"/><g class="funnelarealayer"/><g class="pielayer"/><g class="treemaplayer"/><g class="sunburstlayer"/><g class="glimages"/><defs id="topdefs-a10d65"><g class="clips"/></defs><g class="layer-above"><g class="imagelayer"/><g class="shapelayer"/></g><g class="infolayer"><g class="g-gtitle"/><g class="g-xtitle"><text class="xtitle" x="375.5" y="488.1125" text-anchor="middle" style="font-family: sans-serif; font-size: 29px; fill: rgb(0, 0, 0); opacity: 1; font-weight: normal; white-space: pre;">Damage rate (min​<tspan style="font-size:70%" dy="-0.6em">-1</tspan><tspan dy="0.42em">​</tspan>)</text></g><g class="g-ytitle" transform="translate(14.9091796875,0)"><text class="ytitle" transform="rotate(-90,12.090625000000003,237.5)" x="12.090625000000003" y="237.5" text-anchor="middle" style="font-family: sans-serif; font-size: 29px; fill: rgb(0, 0, 0); opacity: 1; font-weight: normal; white-space: pre;">Healthy tRNA (μM)</text></g></g></svg>