<svg class="main-svg" xmlns="http://www.w3.org/2000/svg" xmlns:xlink="http://www.w3.org/1999/xlink" width="700" height="500" style="" viewBox="0 0 700 500"><rect x="0" y="0" width="700" height="500" style="fill: rgb(255, 255, 255); fill-opacity: 1;"/><defs id="defs-0b24e1"><g class="clips"><clipPath id="clip0b24e1xyplot" class="plotclip"><rect width="557" height="355"/></clipPath><clipPath class="axesclip" id="clip0b24e1x"><rect x="93" y="0" width="557" height="500"/></clipPath><clipPath class="axesclip" id="clip0b24e1y"><rect x="0" y="60" width="700" height="355"/></clipPath><clipPath class="axesclip" id="clip0b24e1xy"><rect x="93" y="60" width="557" height="355"/></clipPath></g><g class="gradients"/></defs><g class="bglayer"/><g class="layer-below"><g class="imagelayer"/><g class="shapelayer"/></g><g class="cartesianlayer"><g class="subplot xy"><g class="layer-subplot"><g class="shapelayer"/><g class="imagelayer"/></g><g class="gridlayer"><g class="x"/><g class="y"/></g><g class="zerolinelayer"><path class="yzl zl crisp" transform="translate(0,397.3)" d="M93,0h557" style="stroke: rgb(255, 255, 255); stroke-opacity: 1; stroke-width: 2px;"/></g><path class="xlines-below"/><path class="ylines-below"/><g class="overlines-below"/><g class="xaxislayer-below"/><g class="yaxislayer-below"/><g class="overaxes-below"/><g class="plot" transform="translate(93,60)" clip-path="url('#clip0b24e1xyplot')"><g class="scatterlayer mlayer"><g class="trace scatter trace30d6d9" style="stroke-miterlimit: 2; opacity: 1;"><g class="fills"/><g class="errorbars"/><g class="lines"><path class="js-line" d="M0,308.17L1.31,160.85L2.27,109.45L6.18,29.44L7.36,23.64L10.5,18.58L11.45,18.17L18.7,17.91L19.39,17.96L41.07,21.17L41.44,21.25L63.59,27.66L64,27.8L97.11,39.98L97.84,40.26L192.62,79.58L194.91,80.59L267.94,114.27L271.55,116.03L331.69,147.29L336.06,149.74L376.89,174.38L381.56,177.46L409.76,198.01L414.46,201.87L432.88,219.34L437.29,224.42L445.55,236.09L449.11,243.07L452.66,259.02" style="vector-effect: non-scaling-stroke; fill: none; stroke: rgb(150, 150, 150); stroke-opacity: 1; stroke-width: 6.5px; opacity: 1;"/></g><g class="points"/><g class="text"/></g><g class="trace scatter trace54ffa6" style="stroke-miterlimit: 2; opacity: 1;"><g class="fills"/><g class="errorbars"/><g class="lines"><path class="js-line" d="M452.66,259.02L450.92,269.23L446.44,277.83L435.96,288.66L430.43,292.66L413.39,301.93L407.63,304.41L378.56,314.22L372.72,315.81L331.69,324.84L325.81,325.91L285.1,333.9" style="vector-effect: non-scaling-stroke; fill: none; stroke: rgb(150, 150, 150); stroke-opacity: 1; stroke-width: 6.5px; opacity: 1; stroke-dasharray: 19.5px, 19.5px;"/></g><g class="points"/><g class="text"/></g><g class="trace scatter tracec679d0" style="stroke-miterlimit: 2; opacity: 1;"><g class="fills"/><g class="errorbars"/><g class="lines"><path class="js-line" d="M285.1,333.9L288.39,334.84L289.81,334.99L321.31,336.1L327.2,336.19L503.41,336.99L509.27,337L557,337.06" style="vector-effect: non-scaling-stroke; fill: none; stroke: rgb(150, 150, 150); stroke-opacity: 1; stroke-width: 6.5px; opacity: 1;"/></g><g class="points"/><g class="text"/></g><g class="trace scatter tracead526b" style="stroke-miterlimit: 2; opacity: 1;"><g class="fills"/><g class="errorbars"/><g class="lines"><path class="js-line" d="M0,322.04L1.5,206.1L2.28,186.8L4.93,170.81L5.49,170.36L10.03,170.01L10.4,170.04L26.55,172.97L26.75,173.03L49.79,181.04L50.18,181.19L109.8,205.84L111.35,206.52L168.48,233.85L171.46,235.42L204.44,254.67L207.99,257.02L225.91,270.57L229.42,273.74L239.09,284.72L241.72,289.08L244.47,299.36" style="vector-effect: non-scaling-stroke; fill: none; stroke: rgb(126, 92, 148); stroke-opacity: 1; stroke-width: 6.5px; opacity: 1;"/></g><g class="points"/><g class="text"/></g><g class="trace scatter trace627012" style="stroke-miterlimit: 2; opacity: 1;"><g class="fills"/><g class="errorbars"/><g class="lines"><path class="js-line" d="M244.47,299.36L243.45,305.08L240.28,310.57L230.9,318.51L225.65,321.43L203.66,330.14L198.26,332.34L197.13,333.44" style="vector-effect: non-scaling-stroke; fill: none; stroke: rgb(126, 92, 148); stroke-opacity: 1; stroke-width: 6.5px; opacity: 1; stroke-dasharray: 19.5px, 19.5px;"/></g><g class="points"/><g class="text"/></g><g class="trace scatter trace3e93fe" style="stroke-miterlimit: 2; opacity: 1;"><g class="fills"/><g class="errorbars"/><g class="lines"><path class="js-line" d="M197.13,333.44L200.17,334.69L201.8,334.92L229.33,336.15L235.23,336.26L388.45,337.04L394.34,337.05L557,337.19" style="vector-effect: non-scaling-stroke; fill: none; stroke: rgb(126, 92, 148); stroke-opacity: 1; stroke-width: 6.5px; opacity: 1;"/></g><g class="points"/><g class="text"/></g><g class="trace scatter tracea62d9d" style="stroke-miterlimit: 2; opacity: 1;"><g class="fills"/><g class="errorbars"/><g class="lines"><path class="js-line" d="M0,325.72L1.14,237.8L1.73,223.08L4.18,210.58L4.58,210.41L10.65,210.63L10.87,210.66L24.46,213.87L24.63,213.92L58.97,227.03L59.61,227.29L115.88,252.28L117.96,253.29L153.33,272.49L156.28,274.33L174.45,287.42L177.42,290.05L185.5,299.13L187.59,302.69L189.54,310.35" style="vector-effect: non-scaling-stroke; fill: none; stroke: rgb(196, 143, 231); stroke-opacity: 1; stroke-width: 6.5px; opacity: 1;"/></g><g class="points"/><g class="text"/></g><g class="trace scatter trace0acc07" style="stroke-miterlimit: 2; opacity: 1;"><g class="fills"/><g class="errorbars"/><g class="lines"><path class="js-line" d="M189.54,310.35L188.73,314.78L186.19,319.14L177.9,326.07L173.14,328.83L167.17,333.1" style="vector-effect: non-scaling-stroke; fill: none; stroke: rgb(196, 143, 231); stroke-opacity: 1; stroke-width: 6.5px; opacity: 1; stroke-dasharray: 19.5px, 19.5px;"/></g><g class="points"/><g class="text"/></g><g class="trace scatter tracec5ee55" style="stroke-miterlimit: 2; opacity: 1;"><g class="fills"/><g class="errorbars"/><g class="lines"><path class="js-line" d="M167.17,333.1L168.8,334.26L170.5,334.64L186.23,335.83L192.12,336.03L298.31,336.96L304.21,336.97L557,337.22" style="vector-effect: non-scaling-stroke; fill: none; stroke: rgb(196, 143, 231); stroke-opacity: 1; stroke-width: 6.5px; opacity: 1;"/></g><g class="points"/><g class="text"/></g><g class="trace scatter trace0b12ba" style="stroke-miterlimit: 2; opacity: 1;"><g class="fills"/><g class="errorbars"/><g class="lines"><path class="js-line" d="M0,330.07L1.45,261.54L1.78,259.68L4,258.02L4.2,258.03L15.15,260.21L15.25,260.24L40.3,269.73L40.77,269.92L85.59,290.17L87.36,291.08L110.09,304.66L112.35,306.33L122.61,316.43L124.05,318.9L125.35,324.29" style="vector-effect: non-scaling-stroke; fill: none; stroke: rgb(228, 187, 255); stroke-opacity: 1; stroke-width: 6.5px; opacity: 1;"/></g><g class="points"/><g class="text"/></g><g class="trace scatter trace0dc638" style="stroke-miterlimit: 2; opacity: 1;"><g class="fills"/><g class="errorbars"/><g class="lines"><path class="js-line" d="M125.35,324.29L123.85,332.3" style="vector-effect: non-scaling-stroke; fill: none; stroke: rgb(228, 187, 255); stroke-opacity: 1; stroke-width: 6.5px; opacity: 1; stroke-dasharray: 19.5px, 19.5px;"/></g><g class="points"/><g class="text"/></g><g class="trace scatter trace9dd811" style="stroke-miterlimit: 2; opacity: 1;"><g class="fills"/><g class="errorbars"/><g class="lines"><path class="js-line" d="M123.85,332.3L129.46,334.77L136.05,335.46L183.19,336.67L189.09,336.72L436.56,337.22L442.43,337.22L557,337.25" style="vector-effect: non-scaling-stroke; fill: none; stroke: rgb(228, 187, 255); stroke-opacity: 1; stroke-width: 6.5px; opacity: 1;"/></g><g class="points"/><g class="text"/></g></g></g><g class="overplot"/><path class="xlines-above crisp" d="M90,416.5H650" style="fill: none; stroke-width: 3px; stroke: rgb(0, 0, 0); stroke-opacity: 1;"/><path class="ylines-above crisp" d="M91.5,60V415" style="fill: none; stroke-width: 3px; stroke: rgb(0, 0, 0); stroke-opacity: 1;"/><g class="overlines-above"/><g class="xaxislayer-above"><g class="xtick"><text text-anchor="middle" x="0" y="446.8" transform="translate(93,0)" style="font-family: sans-serif; font-size: 24px; fill: rgb(0, 0, 0); fill-opacity: 1; white-space: pre;">0</text></g><g class="xtick"><text text-anchor="middle" x="0" y="446.8" transform="translate(232.25,0)" style="font-family: sans-serif; font-size: 24px; fill: rgb(0, 0, 0); fill-opacity: 1; white-space: pre;">5</text></g><g class="xtick"><text text-anchor="middle" x="0" y="446.8" transform="translate(371.5,0)" style="font-family: sans-serif; font-size: 24px; fill: rgb(0, 0, 0); fill-opacity: 1; white-space: pre;">10</text></g><g class="xtick"><text text-anchor="middle" x="0" y="446.8" transform="translate(510.75,0)" style="font-family: sans-serif; font-size: 24px; fill: rgb(0, 0, 0); fill-opacity: 1; white-space: pre;">15</text></g><g class="xtick"><text text-anchor="middle" x="0" y="446.8" transform="translate(650,0)" style="font-family: sans-serif; font-size: 24px; fill: rgb(0, 0, 0); fill-opacity: 1; white-space: pre;">20</text></g></g><g class="yaxislayer-above"><g class="ytick"><text text-anchor="end" x="85.2" y="8.399999999999999" transform="translate(0,397.3)" style="font-family: sans-serif; font-size: 24px; fill: rgb(0, 0, 0); fill-opacity: 1; white-space: pre;">0</text></g><g class="ytick"><text text-anchor="end" x="85.2" y="8.399999999999999" transform="translate(0,314.64)" style="font-family: sans-serif; font-size: 24px; fill: rgb(0, 0, 0); fill-opacity: 1; white-space: pre;">0.5</text></g><g class="ytick"><text text-anchor="end" x="85.2" y="8.399999999999999" transform="translate(0,231.97)" style="font-family: sans-serif; font-size: 24px; fill: rgb(0, 0, 0); fill-opacity: 1; white-space: pre;">1</text></g><g class="ytick"><text text-anchor="end" x="85.2" y="8.399999999999999" transform="translate(0,149.3)" style="font-family: sans-serif; font-size: 24px; fill: rgb(0, 0, 0); fill-opacity: 1; white-space: pre;">1.5</text></g><g class="ytick"><text text-anchor="end" x="85.2" y="8.399999999999999" transform="translate(0,66.63)" style="font-family: sans-serif; font-size: 24px; fill: rgb(0, 0, 0); fill-opacity: 1; white-space: pre;">2</text></g></g><g class="overaxes-above"/></g></g><g class="polarlayer"/><g class="ternarylayer"/><g class="geolayer"/><g class="funnelarealayer"/><g class="pielayer"/><g class="treemaplayer"/><g class="sunburstlayer"/><g class="glimages"/><defs id="topdefs-0b24e1"><g class="clips"/></defs><g class="layer-above"><g class="imagelayer"/><g class="shapelayer"/></g><g class="infolayer"><g class="g-gtitle"/><g class="g-xtitle"><text class="xtitle" x="371.5" y="488.1125" text-anchor="middle" style="font-family: sans-serif; font-size: 29px; fill: rgb(0, 0, 0); opacity: 1; font-weight: normal; white-space: pre;">Damage rate (min​<tspan style="font-size:70%" dy="-0.6em">-1</tspan><tspan dy="0.42em">​</tspan>)</text></g><g class="g-ytitle" transform="translate(15.2685546875,0)"><text class="ytitle" transform="rotate(-90,11.731250000000003,237.5)" x="11.731250000000003" y="237.5" text-anchor="middle" style="font-family: sans-serif; font-size: 29px; fill: rgb(0, 0, 0); opacity: 1; font-weight: normal; white-space: pre;">RtcB (μM)</text></g></g></svg>