<svg class="main-svg" xmlns="http://www.w3.org/2000/svg" xmlns:xlink="http://www.w3.org/1999/xlink" width="700" height="500" style="" viewBox="0 0 700 500"><rect x="0" y="0" width="700" height="500" style="fill: rgb(255, 255, 255); fill-opacity: 1;"/><defs id="defs-40936d"><g class="clips"><clipPath id="clip40936dxyplot" class="plotclip"><rect width="549" height="355"/></clipPath><clipPath class="axesclip" id="clip40936dx"><rect x="101" y="0" width="549" height="500"/></clipPath><clipPath class="axesclip" id="clip40936dy"><rect x="0" y="60" width="700" height="355"/></clipPath><clipPath class="axesclip" id="clip40936dxy"><rect x="101" y="60" width="549" height="355"/></clipPath></g><g class="gradients"/></defs><g class="bglayer"/><g class="layer-below"><g class="imagelayer"/><g class="shapelayer"/></g><g class="cartesianlayer"><g class="subplot xy"><g class="layer-subplot"><g class="shapelayer"/><g class="imagelayer"/></g><g class="gridlayer"><g class="x"/><g class="y"/></g><g class="zerolinelayer"><path class="yzl zl crisp" transform="translate(0,397.48)" d="M101,0h549" style="stroke: rgb(255, 255, 255); stroke-opacity: 1; stroke-width: 2px;"/></g><path class="xlines-below"/><path class="ylines-below"/><g class="overlines-below"/><g class="xaxislayer-below"/><g class="yaxislayer-below"/><g class="overaxes-below"/><g class="plot" transform="translate(101,60)" clip-path="url('#clip40936dxyplot')"><g class="scatterlayer mlayer"><g class="trace scatter trace593cfd" style="stroke-miterlimit: 2; opacity: 1;"><g class="fills"/><g class="errorbars"/><g class="lines"><path class="js-line" d="M0,17.75L1.29,19.49L2.24,20.12L11.29,27.71L12.19,28.7L22.29,42.51L22.88,43.5L33.54,65.27L33.95,66.27L48.63,105.88L48.98,106.87L68.13,156.35L68.57,157.34L83.05,185.99L83.62,186.98L98.62,209.64L99.37,210.62L115.56,229.26L116.54,230.23L135.53,246.77L136.82,247.74L157.21,261.18L158.87,262.13L183.33,274.32L185.46,275.25L217.15,286.94L219.91,287.82L260.59,298.67L264.09,299.46L314.24,309.09L318.43,309.78L394.6,320.51L399.24,321.11L445.33,328.52L446.16,329.31" style="vector-effect: non-scaling-stroke; fill: none; stroke: rgb(150, 150, 150); stroke-opacity: 1; stroke-width: 6.5px; opacity: 1;"/></g><g class="points"/><g class="text"/></g><g class="trace scatter trace3274d3" style="stroke-miterlimit: 2; opacity: 1;"><g class="fills"/><g class="errorbars"/><g class="lines"><path class="js-line" d="M446.16,329.31L440.03,331.12L434.99,331.67L390.35,333.87L384.62,334.05L281.01,336.49L281.01,336.49" style="vector-effect: non-scaling-stroke; fill: none; stroke: rgb(150, 150, 150); stroke-opacity: 1; stroke-width: 6.5px; opacity: 1; stroke-dasharray: 19.5px, 19.5px;"/></g><g class="points"/><g class="text"/></g><g class="trace scatter trace2d79d0" style="stroke-miterlimit: 2; opacity: 1;"><g class="fills"/><g class="errorbars"/><g class="lines"><path class="js-line" d="M281.01,336.49L290.31,336.75L294.07,336.79L549,337.23" style="vector-effect: non-scaling-stroke; fill: none; stroke: rgb(150, 150, 150); stroke-opacity: 1; stroke-width: 6.5px; opacity: 1;"/></g><g class="points"/><g class="text"/></g><g class="trace scatter trace93f505" style="stroke-miterlimit: 2; opacity: 1;"><g class="fills"/><g class="errorbars"/><g class="lines"><path class="js-line" d="M0,17.75L1.29,20.25L2.1,21.26L7.74,31.71L8.18,32.76L14.86,53.68L15.12,54.72L23.6,95.5L23.8,96.54L37.52,163.41L37.78,164.45L47.92,198.9L48.28,199.94L59.75,227.04L60.28,228.08L72.19,247.82L72.93,248.86L86.94,265.39L87.98,266.41L103.74,279.7L105.16,280.72L125.15,292.73L127.1,293.71L152.1,304.29L154.73,305.22L187.65,315.07L190.99,315.93L240.11,328.83L240.94,329.88" style="vector-effect: non-scaling-stroke; fill: none; stroke: rgb(40, 114, 109); stroke-opacity: 1; stroke-width: 6.5px; opacity: 1;"/></g><g class="points"/><g class="text"/></g><g class="trace scatter traceb9e1ad" style="stroke-miterlimit: 2; opacity: 1;"><g class="fills"/><g class="errorbars"/><g class="lines"><path class="js-line" d="M240.94,329.94L236.59,331.93L232.16,332.67L194.3,335.98" style="vector-effect: non-scaling-stroke; fill: none; stroke: rgb(40, 114, 109); stroke-opacity: 1; stroke-width: 6.5px; opacity: 1; stroke-dasharray: 19.5px, 19.5px;"/></g><g class="points"/><g class="text"/></g><g class="trace scatter trace9dc430" style="stroke-miterlimit: 2; opacity: 1;"><g class="fills"/><g class="errorbars"/><g class="lines"><path class="js-line" d="M194.3,335.98L203.76,336.44L208.04,336.52L392.39,337.14L398.09,337.14L549,337.24" style="vector-effect: non-scaling-stroke; fill: none; stroke: rgb(40, 114, 109); stroke-opacity: 1; stroke-width: 6.5px; opacity: 1;"/></g><g class="points"/><g class="text"/></g><g class="trace scatter trace91d1e1" style="stroke-miterlimit: 2; opacity: 1;"><g class="fills"/><g class="errorbars"/><g class="lines"><path class="js-line" d="M0,17.75L1.71,21.45L2.27,22.5L7.21,36.12L7.5,37.16L13.04,63.32L13.22,64.37L24.12,137.55L24.28,138.59L34.17,189.78L34.43,190.83L43.33,221.1L43.7,222.14L54.12,246.1L54.67,247.14L65.87,264.8L66.65,265.83L79.77,280.27L80.88,281.3L96.75,293.51L98.31,294.52L118.68,305.41L120.86,306.38L145.89,315.81L148.71,316.72L186.53,329.63L186.79,330.44" style="vector-effect: non-scaling-stroke; fill: none; stroke: rgb(70, 198, 190); stroke-opacity: 1; stroke-width: 6.5px; opacity: 1;"/></g><g class="points"/><g class="text"/></g><g class="trace scatter tracee0b6d9" style="stroke-miterlimit: 2; opacity: 1;"><g class="fills"/><g class="errorbars"/><g class="lines"><path class="js-line" d="M186.79,330.44L183.11,332.47L179.19,333.29L164.75,335.59" style="vector-effect: non-scaling-stroke; fill: none; stroke: rgb(70, 198, 190); stroke-opacity: 1; stroke-width: 6.5px; opacity: 1; stroke-dasharray: 19.5px, 19.5px;"/></g><g class="points"/><g class="text"/></g><g class="trace scatter trace666fca" style="stroke-miterlimit: 2; opacity: 1;"><g class="fills"/><g class="errorbars"/><g class="lines"><path class="js-line" d="M164.75,335.59L178.58,336.37L184.36,336.46L345.06,337.09L350.72,337.1L549,337.25" style="vector-effect: non-scaling-stroke; fill: none; stroke: rgb(70, 198, 190); stroke-opacity: 1; stroke-width: 6.5px; opacity: 1;"/></g><g class="points"/><g class="text"/></g><g class="trace scatter trace978c27" style="stroke-miterlimit: 2; opacity: 1;"><g class="fills"/><g class="errorbars"/><g class="lines"><path class="js-line" d="M0,17.75L1.81,23.81L2.1,24.86L6.18,46.87L6.32,47.91L11.67,100.22L11.76,101.26L22.03,193.24L22.2,194.29L29.92,231.89L30.2,232.93L38.55,257.97L38.99,259.01L48.77,277.74L49.44,278.78L61.04,293.26L62.06,294.29L75.53,305.53L77,306.54L94.45,316.51L96.48,317.49L123.47,331.28L123.54,331.75" style="vector-effect: non-scaling-stroke; fill: none; stroke: rgb(142, 248, 241); stroke-opacity: 1; stroke-width: 6.5px; opacity: 1;"/></g><g class="points"/><g class="text"/></g><g class="trace scatter trace05bbc5" style="stroke-miterlimit: 2; opacity: 1;"><g class="fills"/><g class="errorbars"/><g class="lines"><path class="js-line" d="M123.54,331.75L121.95,334.38" style="vector-effect: non-scaling-stroke; fill: none; stroke: rgb(142, 248, 241); stroke-opacity: 1; stroke-width: 6.5px; opacity: 1; stroke-dasharray: 19.5px, 19.5px;"/></g><g class="points"/><g class="text"/></g><g class="trace scatter tracedffa06" style="stroke-miterlimit: 2; opacity: 1;"><g class="fills"/><g class="errorbars"/><g class="lines"><path class="js-line" d="M121.95,334.38L133.78,335.94L139.57,336.11L242.52,336.92L248.15,336.93L549,337.25" style="vector-effect: non-scaling-stroke; fill: none; stroke: rgb(142, 248, 241); stroke-opacity: 1; stroke-width: 6.5px; opacity: 1;"/></g><g class="points"/><g class="text"/></g><g class="trace scatter tracecd1713" style="stroke-miterlimit: 2;"><g class="fills"><g><path class="js-fill" d="M446.16,337.48L0,337.48L0,17.75L0,17.75L0,17.76L0.01,17.79L0.01,17.84L0.03,17.95L0.09,18.14L0.24,18.47L0.73,19.04L2.24,20.12L4.82,21.83L7.26,23.79L9.37,25.75L11.29,27.71L13.06,29.68L14.72,31.65L16.27,33.62L17.73,35.6L19.12,37.57L20.43,39.55L21.68,41.52L22.88,43.5L24.02,45.48L25.12,47.46L26.18,49.44L27.2,51.42L28.18,53.39L29.14,55.37L30.06,57.35L30.96,59.33L31.84,61.31L32.7,63.29L33.54,65.27L34.36,67.26L35.17,69.24L35.96,71.22L36.74,73.2L37.5,75.18L38.26,77.16L39.01,79.14L39.75,81.12L40.48,83.1L41.21,85.08L41.93,87.06L42.64,89.04L43.35,91.02L44.06,93L44.77,94.98L45.47,96.96L46.17,98.95L46.87,100.93L47.57,102.91L48.27,104.89L48.98,106.87L49.68,108.85L50.38,110.83L51.09,112.81L51.8,114.79L52.51,116.77L53.23,118.75L53.95,120.73L54.68,122.71L55.41,124.69L56.14,126.67L56.89,128.65L57.63,130.63L58.39,132.61L59.15,134.58L59.92,136.56L60.7,138.54L61.48,140.52L62.28,142.5L63.08,144.48L63.89,146.46L64.72,148.44L65.55,150.42L66.4,152.39L67.26,154.37L68.13,156.35L69.01,158.33L69.91,160.3L70.82,162.28L71.74,164.26L72.68,166.24L73.64,168.21L74.61,170.19L75.6,172.16L76.6,174.14L77.63,176.12L78.67,178.09L79.73,180.07L80.82,182.04L81.92,184.02L83.05,185.99L84.19,187.96L85.37,189.94L86.56,191.91L87.79,193.88L89.04,195.85L90.31,197.82L91.62,199.79L92.95,201.76L94.32,203.73L95.72,205.7L97.15,207.67L98.62,209.64L100.12,211.6L101.66,213.57L103.25,215.53L104.87,217.5L106.53,219.46L108.24,221.42L110,223.38L111.8,225.34L113.66,227.3L115.56,229.26L117.53,231.21L119.55,233.16L121.63,235.12L123.77,237.06L125.98,239.01L128.26,240.96L130.61,242.9L133.03,244.84L135.53,246.77L138.12,248.71L140.79,250.64L143.55,252.56L146.41,254.49L149.36,256.41L152.42,258.32L155.59,260.23L158.87,262.13L162.26,264.03L165.79,265.92L169.44,267.8L173.23,269.67L177.15,271.54L181.23,273.4L185.46,275.25L189.85,277.08L194.41,278.91L199.14,280.72L204.05,282.52L209.14,284.3L214.43,286.07L219.91,287.82L225.59,289.55L231.48,291.26L237.58,292.95L243.89,294.61L250.41,296.25L257.14,297.87L264.09,299.46L271.25,301.03L278.62,302.56L286.2,304.06L293.98,305.54L301.95,306.98L310.1,308.4L318.43,309.78L326.93,311.14L335.58,312.46L344.38,313.76L353.3,315.03L362.34,316.28L371.48,317.51L380.69,318.72L389.95,319.91L399.24,321.11L408.5,322.3L417.68,323.52L426.66,324.78L435.2,326.12L442.66,327.63L446.16,329.31" style="fill: rgb(150, 150, 150); fill-opacity: 0.3; stroke-width: 0;"/></g></g><g class="errorbars"/><g class="lines"/><g class="points"/><g class="text"/></g><g class="trace scatter trace48566c" style="stroke-miterlimit: 2;"><g class="fills"><g><path class="js-fill" d="M186.79,337.48L0,337.48L0,17.75L0,17.75L0,17.77L0,17.8L0.01,17.87L0.02,18L0.05,18.26L0.18,18.74L0.6,19.65L1.71,21.45L2.78,23.55L3.69,25.64L4.51,27.74L5.25,29.83L5.95,31.93L6.6,34.02L7.21,36.12L7.79,38.21L8.33,40.3L8.85,42.4L9.35,44.49L9.82,46.58L10.27,48.68L10.71,50.77L11.13,52.86L11.53,54.95L11.93,57.05L12.31,59.14L12.68,61.23L13.04,63.32L13.4,65.42L13.74,67.51L14.08,69.6L14.42,71.69L14.75,73.78L15.07,75.87L15.39,77.97L15.7,80.06L16.01,82.15L16.32,84.24L16.63,86.33L16.93,88.42L17.23,90.51L17.53,92.6L17.83,94.69L18.13,96.79L18.43,98.88L18.72,100.97L19.02,103.06L19.32,105.15L19.61,107.24L19.91,109.33L20.21,111.42L20.51,113.51L20.81,115.6L21.12,117.69L21.42,119.78L21.73,121.87L22.04,123.96L22.35,126.05L22.66,128.14L22.98,130.23L23.3,132.32L23.62,134.41L23.95,136.5L24.28,138.59L24.61,140.68L24.95,142.77L25.3,144.86L25.64,146.95L25.99,149.04L26.35,151.13L26.71,153.22L27.08,155.31L27.45,157.4L27.83,159.49L28.22,161.58L28.61,163.67L29.01,165.76L29.41,167.85L29.82,169.94L30.24,172.03L30.67,174.12L31.11,176.21L31.55,178.29L32.01,180.38L32.47,182.47L32.95,184.56L33.43,186.65L33.92,188.74L34.43,190.83L34.94,192.92L35.47,195L36.01,197.09L36.57,199.18L37.13,201.27L37.72,203.36L38.31,205.44L38.92,207.53L39.55,209.62L40.2,211.71L40.86,213.79L41.54,215.88L42.24,217.97L42.96,220.05L43.7,222.14L44.46,224.22L45.25,226.31L46.06,228.4L46.89,230.48L47.76,232.56L48.65,234.65L49.57,236.73L50.52,238.82L51.5,240.9L52.52,242.98L53.58,245.06L54.67,247.14L55.8,249.22L56.98,251.3L58.2,253.38L59.47,255.46L60.79,257.54L62.17,259.61L63.6,261.69L65.1,263.76L66.65,265.83L68.28,267.9L69.98,269.97L71.76,272.04L73.62,274.1L75.57,276.16L77.62,278.22L79.77,280.27L82.02,282.32L84.4,284.37L86.89,286.41L89.53,288.45L92.3,290.48L95.22,292.5L98.31,294.52L101.57,296.52L105.02,298.52L108.66,300.51L112.5,302.48L116.57,304.44L120.86,306.38L125.38,308.31L130.15,310.21L135.16,312.1L140.41,313.97L145.89,315.81L151.58,317.63L157.45,319.44L163.44,321.23L169.47,323.02L175.37,324.82L180.85,326.67L185.23,328.61L186.79,330.44" style="fill: rgb(142, 248, 241); fill-opacity: 0.3; stroke-width: 0;"/></g></g><g class="errorbars"/><g class="lines"/><g class="points"/><g class="text"/></g><g class="trace scatter trace70eab3" style="stroke-miterlimit: 2;"><g class="fills"><g><path class="js-fill" d="M123.47,337.48L0,337.48L0,17.75L0,17.75L0,17.77L0,17.8L0,17.87L0.01,18.01L0.04,18.28L0.12,18.81L0.44,19.82L1.16,21.71L1.81,23.81L2.37,25.91L2.88,28.01L3.34,30.1L3.77,32.2L4.18,34.3L4.56,36.39L4.92,38.49L5.26,40.58L5.58,42.68L5.89,44.77L6.18,46.87L6.46,48.96L6.74,51.05L7,53.15L7.25,55.24L7.5,57.33L7.74,59.43L7.97,61.52L8.2,63.61L8.42,65.7L8.63,67.8L8.85,69.89L9.06,71.98L9.26,74.07L9.46,76.17L9.66,78.26L9.86,80.35L10.06,82.44L10.25,84.53L10.44,86.62L10.63,88.72L10.82,90.81L11.01,92.9L11.2,94.99L11.39,97.08L11.57,99.17L11.76,101.26L11.95,103.35L12.14,105.45L12.32,107.54L12.51,109.63L12.7,111.72L12.89,113.81L13.08,115.9L13.27,117.99L13.46,120.08L13.66,122.17L13.85,124.26L14.05,126.35L14.25,128.45L14.45,130.54L14.65,132.63L14.86,134.72L15.06,136.81L15.27,138.9L15.48,140.99L15.7,143.08L15.91,145.17L16.13,147.26L16.36,149.35L16.58,151.44L16.81,153.53L17.04,155.62L17.28,157.71L17.52,159.8L17.76,161.89L18.01,163.98L18.26,166.07L18.52,168.16L18.78,170.25L19.05,172.34L19.32,174.43L19.6,176.52L19.88,178.61L20.17,180.7L20.46,182.79L20.76,184.88L21.07,186.97L21.39,189.06L21.71,191.15L22.03,193.24L22.37,195.33L22.71,197.42L23.07,199.51L23.43,201.6L23.8,203.69L24.18,205.78L24.57,207.87L24.96,209.96L25.38,212.05L25.8,214.14L26.23,216.22L26.68,218.31L27.13,220.4L27.61,222.49L28.09,224.58L28.59,226.67L29.11,228.76L29.65,230.84L30.2,232.93L30.77,235.02L31.35,237.11L31.96,239.2L32.59,241.28L33.24,243.37L33.92,245.46L34.62,247.54L35.35,249.63L36.1,251.72L36.89,253.8L37.7,255.89L38.55,257.97L39.44,260.06L40.36,262.14L41.32,264.22L42.33,266.31L43.38,268.39L44.48,270.47L45.63,272.55L46.84,274.63L48.11,276.71L49.44,278.78L50.85,280.86L52.32,282.93L53.88,285L55.52,287.07L57.26,289.14L59.1,291.2L61.04,293.26L63.1,295.32L65.29,297.37L67.62,299.42L70.09,301.47L72.73,303.5L75.53,305.53L78.52,307.55L81.69,309.56L85.07,311.56L88.66,313.55L92.47,315.53L96.48,317.49L100.68,319.44L105.04,321.38L109.49,323.31L113.91,325.25L118.09,327.2L121.57,329.2L123.47,331.28" style="fill: rgb(70, 198, 190); fill-opacity: 0.3; stroke-width: 0;"/></g></g><g class="errorbars"/><g class="lines"/><g class="points"/><g class="text"/></g><g class="trace scatter tracebc97ce" style="stroke-miterlimit: 2;"><g class="fills"><g><path class="js-fill" d="M240.94,337.48L0,337.48L0,17.75L0,17.75L0,17.77L0,17.8L0.01,17.86L0.02,17.99L0.07,18.24L0.21,18.69L0.7,19.52L2.1,21.26L3.54,23.35L4.75,25.44L5.83,27.53L6.82,29.62L7.74,31.71L8.6,33.81L9.41,35.9L10.17,37.99L10.9,40.08L11.58,42.17L12.23,44.27L12.86,46.36L13.46,48.45L14.03,50.54L14.59,52.63L15.12,54.72L15.64,56.82L16.15,58.91L16.64,61L17.11,63.09L17.58,65.18L18.04,67.27L18.48,69.36L18.92,71.45L19.35,73.55L19.78,75.64L20.2,77.73L20.61,79.82L21.02,81.91L21.42,84L21.83,86.09L22.22,88.18L22.62,90.27L23.02,92.36L23.41,94.45L23.8,96.54L24.19,98.63L24.58,100.72L24.97,102.81L25.36,104.9L25.75,106.99L26.14,109.08L26.53,111.17L26.93,113.26L27.32,115.35L27.72,117.44L28.12,119.53L28.52,121.62L28.93,123.71L29.33,125.8L29.74,127.89L30.16,129.98L30.58,132.07L31,134.16L31.43,136.25L31.86,138.34L32.3,140.43L32.74,142.52L33.19,144.61L33.64,146.7L34.1,148.79L34.57,150.87L35.04,152.96L35.52,155.05L36.01,157.14L36.51,159.23L37.01,161.32L37.52,163.41L38.04,165.5L38.57,167.58L39.11,169.67L39.66,171.76L40.22,173.85L40.79,175.94L41.37,178.03L41.97,180.11L42.57,182.2L43.19,184.29L43.82,186.38L44.47,188.46L45.12,190.55L45.8,192.64L46.49,194.72L47.19,196.81L47.92,198.9L48.66,200.98L49.41,203.07L50.19,205.16L50.99,207.24L51.81,209.33L52.65,211.41L53.51,213.5L54.4,215.58L55.31,217.66L56.25,219.75L57.21,221.83L58.2,223.91L59.23,226L60.28,228.08L61.37,230.16L62.49,232.24L63.65,234.32L64.84,236.4L66.08,238.48L67.35,240.55L68.68,242.63L70.04,244.71L71.46,246.78L72.93,248.86L74.46,250.93L76.04,253L77.68,255.07L79.39,257.14L81.16,259.2L83.01,261.27L84.94,263.33L86.94,265.39L89.04,267.44L91.22,269.5L93.5,271.55L95.89,273.59L98.39,275.63L101,277.67L103.74,279.7L106.61,281.73L109.62,283.75L112.78,285.76L116.1,287.76L119.58,289.76L123.25,291.74L127.1,293.71L131.15,295.67L135.41,297.62L139.89,299.55L144.6,301.46L149.54,303.35L154.73,305.22L160.16,307.07L165.84,308.9L171.77,310.69L177.95,312.47L184.36,314.21L190.99,315.93L197.81,317.62L204.78,319.3L211.86,320.95L218.96,322.61L225.94,324.28L232.53,326L238.14,327.84L240.94,329.88" style="fill: rgb(40, 114, 109); fill-opacity: 0.3; stroke-width: 0;"/></g></g><g class="errorbars"/><g class="lines"/><g class="points"/><g class="text"/></g></g></g><g class="overplot"/><path class="xlines-above crisp" d="M98,416.5H650" style="fill: none; stroke-width: 3px; stroke: rgb(0, 0, 0); stroke-opacity: 1;"/><path class="ylines-above crisp" d="M99.5,60V415" style="fill: none; stroke-width: 3px; stroke: rgb(0, 0, 0); stroke-opacity: 1;"/><g class="overlines-above"/><g class="xaxislayer-above"><g class="xtick"><text text-anchor="middle" x="0" y="446.8" transform="translate(101,0)" style="font-family: sans-serif; font-size: 24px; fill: rgb(0, 0, 0); fill-opacity: 1; white-space: pre;">0</text></g><g class="xtick"><text text-anchor="middle" x="0" y="446.8" transform="translate(238.25,0)" style="font-family: sans-serif; font-size: 24px; fill: rgb(0, 0, 0); fill-opacity: 1; white-space: pre;">5</text></g><g class="xtick"><text text-anchor="middle" x="0" y="446.8" transform="translate(375.5,0)" style="font-family: sans-serif; font-size: 24px; fill: rgb(0, 0, 0); fill-opacity: 1; white-space: pre;">10</text></g><g class="xtick"><text text-anchor="middle" x="0" y="446.8" transform="translate(512.75,0)" style="font-family: sans-serif; font-size: 24px; fill: rgb(0, 0, 0); fill-opacity: 1; white-space: pre;">15</text></g><g class="xtick"><text text-anchor="middle" x="0" y="446.8" transform="translate(650,0)" style="font-family: sans-serif; font-size: 24px; fill: rgb(0, 0, 0); fill-opacity: 1; white-space: pre;">20</text></g></g><g class="yaxislayer-above"><g class="ytick"><text text-anchor="end" x="93.2" y="8.399999999999999" transform="translate(0,397.48)" style="font-family: sans-serif; font-size: 24px; fill: rgb(0, 0, 0); fill-opacity: 1; white-space: pre;">0</text></g><g class="ytick"><text text-anchor="end" x="93.2" y="8.399999999999999" transform="translate(0,353.42)" style="font-family: sans-serif; font-size: 24px; fill: rgb(0, 0, 0); fill-opacity: 1; white-space: pre;">20</text></g><g class="ytick"><text text-anchor="end" x="93.2" y="8.399999999999999" transform="translate(0,309.36)" style="font-family: sans-serif; font-size: 24px; fill: rgb(0, 0, 0); fill-opacity: 1; white-space: pre;">40</text></g><g class="ytick"><text text-anchor="end" x="93.2" y="8.399999999999999" transform="translate(0,265.28999999999996)" style="font-family: sans-serif; font-size: 24px; fill: rgb(0, 0, 0); fill-opacity: 1; white-space: pre;">60</text></g><g class="ytick"><text text-anchor="end" x="93.2" y="8.399999999999999" transform="translate(0,221.23)" style="font-family: sans-serif; font-size: 24px; fill: rgb(0, 0, 0); fill-opacity: 1; white-space: pre;">80</text></g><g class="ytick"><text text-anchor="end" x="93.2" y="8.399999999999999" transform="translate(0,177.17000000000002)" style="font-family: sans-serif; font-size: 24px; fill: rgb(0, 0, 0); fill-opacity: 1; white-space: pre;">100</text></g><g class="ytick"><text text-anchor="end" x="93.2" y="8.399999999999999" transform="translate(0,133.11)" style="font-family: sans-serif; font-size: 24px; fill: rgb(0, 0, 0); fill-opacity: 1; white-space: pre;">120</text></g><g class="ytick"><text text-anchor="end" x="93.2" y="8.399999999999999" transform="translate(0,89.05)" style="font-family: sans-serif; font-size: 24px; fill: rgb(0, 0, 0); fill-opacity: 1; white-space: pre;">140</text></g></g><g class="overaxes-above"/></g></g><g class="polarlayer"/><g class="ternarylayer"/><g class="geolayer"/><g class="funnelarealayer"/><g class="pielayer"/><g class="treemaplayer"/><g class="sunburstlayer"/><g class="glimages"/><defs id="topdefs-40936d"><g class="clips"/></defs><g class="layer-above"><g class="imagelayer"/><g class="shapelayer"/></g><g class="infolayer"><g class="g-gtitle"/><g class="g-xtitle"><text class="xtitle" x="375.5" y="488.1125" text-anchor="middle" style="font-family: sans-serif; font-size: 29px; fill: rgb(0, 0, 0); opacity: 1; font-weight: normal; white-space: pre;">Damage rate (min​<tspan style="font-size:70%" dy="-0.6em">-1</tspan><tspan dy="0.42em">​</tspan>)</text></g><g class="g-ytitle" transform="translate(14.9091796875,0)"><text class="ytitle" transform="rotate(-90,12.090625000000003,237.5)" x="12.090625000000003" y="237.5" text-anchor="middle" style="font-family: sans-serif; font-size: 29px; fill: rgb(0, 0, 0); opacity: 1; font-weight: normal; white-space: pre;">Healthy tRNA (μM)</text></g></g></svg>