<svg class="main-svg" xmlns="http://www.w3.org/2000/svg" xmlns:xlink="http://www.w3.org/1999/xlink" width="700" height="500" style="" viewBox="0 0 700 500"><rect x="0" y="0" width="700" height="500" style="fill: rgb(255, 255, 255); fill-opacity: 1;"/><defs id="defs-378518"><g class="clips"><clipPath id="clip378518xyplot" class="plotclip"><rect width="420" height="284"/></clipPath><clipPath class="axesclip" id="clip378518x"><rect x="180" y="0" width="420" height="500"/></clipPath><clipPath class="axesclip" id="clip378518y"><rect x="0" y="100" width="700" height="284"/></clipPath><clipPath class="axesclip" id="clip378518xy"><rect x="180" y="100" width="420" height="284"/></clipPath></g><g class="gradients"/></defs><g class="bglayer"/><g class="layer-below"><g class="imagelayer"/><g class="shapelayer"/></g><g class="cartesianlayer"><g class="subplot xy"><g class="layer-subplot"><g class="shapelayer"/><g class="imagelayer"/></g><g class="gridlayer"><g class="x"/><g class="y"/></g><g class="zerolinelayer"/><path class="xlines-below"/><path class="ylines-below"/><g class="overlines-below"/><g class="xaxislayer-below"/><g class="yaxislayer-below"/><g class="overaxes-below"/><g class="plot" transform="translate(180,100)" clip-path="url('#clip378518xyplot')"><g class="scatterlayer mlayer"><g class="trace scatter trace84111f" style="stroke-miterlimit: 2; opacity: 1;"><g class="fills"/><g class="errorbars"/><g class="lines"><path class="js-line" d="M0,262.04L3.25,156.91L3.79,147.14L9.14,86.07L11.52,71.99L15.16,59.17L20.32,51.2L31.31,47.9L37.16,48.18L81.59,54.68L90.79,56.24L170.57,72.23L178.21,74.07L230.35,89.1L235.77,91.02L267.03,104.59L270.58,106.55L287.34,118.37L289.4,120.35L297.73,132.27L298.48,134.26L299.73,141.96" style="vector-effect: non-scaling-stroke; fill: none; stroke: rgb(228, 128, 128); stroke-opacity: 1; stroke-width: 9px; opacity: 1;"/></g><g class="points"/><g class="text"/></g><g class="trace scatter trace18e852" style="stroke-miterlimit: 2; opacity: 1;"><g class="fills"/><g class="errorbars"/><g class="lines"><path class="js-line" d="M299.73,141.96L297.76,151.91L296.91,153.9L288.9,165.81L287.11,167.8L271.23,181.64L268.52,183.61L239.83,201.3L236.21,203.26L187.49,226.66L183.09,228.6L115.22,260L112.42,262.04L109.02,266.99" style="vector-effect: non-scaling-stroke; fill: none; stroke: rgb(228, 128, 128); stroke-opacity: 1; stroke-width: 9px; opacity: 1; stroke-dasharray: 27px, 27px;"/></g><g class="points"/><g class="text"/></g><g class="trace scatter tracef01a99" style="stroke-miterlimit: 2; opacity: 1;"><g class="fills"/><g class="errorbars"/><g class="lines"><path class="js-line" d="M109.02,266.99L110.06,269.18L114.12,271.47L135.84,275.45L148.41,276.55L227.41,279.64L235.74,279.81L420,281.73" style="vector-effect: non-scaling-stroke; fill: none; stroke: rgb(228, 128, 128); stroke-opacity: 1; stroke-width: 9px; opacity: 1;"/></g><g class="points"/><g class="text"/></g><g class="trace scatter traceeb7c1f" style="stroke-miterlimit: 2; opacity: 1;"><g class="fills"/><g class="errorbars"/><g class="lines"><path class="js-line" d="M0,262.04L3.25,156.91L3.79,147.14L9.14,86.07L11.52,71.99L15.16,59.17L20.32,51.2L31.31,47.9L37.16,48.18L81.59,54.68L90.79,56.24L170.57,72.23L178.21,74.07L230.35,89.1L235.77,91.02L267.03,104.59L270.58,106.55L287.34,118.37L289.4,120.35L297.73,132.27L298.48,134.26L299.73,141.96" style="vector-effect: non-scaling-stroke; fill: none; stroke: rgb(182, 147, 204); stroke-opacity: 1; stroke-width: 9px; opacity: 1;"/></g><g class="points"/><g class="text"/></g><g class="trace scatter trace7b82b0" style="stroke-miterlimit: 2; opacity: 1;"><g class="fills"/><g class="errorbars"/><g class="lines"><path class="js-line" d="M299.73,141.96L297.76,151.91L296.91,153.9L288.9,165.81L287.11,167.8L271.23,181.64L268.52,183.61L239.83,201.3L236.21,203.26L187.49,226.66L183.09,228.6L115.22,260L112.42,262.04L109.02,266.99" style="vector-effect: non-scaling-stroke; fill: none; stroke: rgb(182, 147, 204); stroke-opacity: 1; stroke-width: 9px; opacity: 1; stroke-dasharray: 27px, 27px;"/></g><g class="points"/><g class="text"/></g><g class="trace scatter trace0124a4" style="stroke-miterlimit: 2; opacity: 1;"><g class="fills"/><g class="errorbars"/><g class="lines"><path class="js-line" d="M109.02,266.99L110.06,269.18L114.12,271.47L135.84,275.45L148.41,276.55L227.41,279.64L235.74,279.81L420,281.73" style="vector-effect: non-scaling-stroke; fill: none; stroke: rgb(182, 147, 204); stroke-opacity: 1; stroke-width: 9px; opacity: 1;"/></g><g class="points"/><g class="text"/></g></g></g><g class="overplot"/><path class="xlines-above crisp" d="M174.5,386.75H600" style="fill: none; stroke-width: 5.5px; stroke: rgb(0, 0, 0); stroke-opacity: 1;"/><path class="ylines-above crisp" d="M177.25,100V384" style="fill: none; stroke-width: 5.5px; stroke: rgb(0, 0, 0); stroke-opacity: 1;"/><g class="overlines-above"/><g class="xaxislayer-above"><g class="xtick"><text text-anchor="middle" x="0" y="435.1" transform="translate(180,0)" style="font-family: sans-serif; font-size: 38px; fill: rgb(0, 0, 0); fill-opacity: 1; white-space: pre;">0</text></g><g class="xtick"><text text-anchor="middle" x="0" y="435.1" transform="translate(320,0)" style="font-family: sans-serif; font-size: 38px; fill: rgb(0, 0, 0); fill-opacity: 1; white-space: pre;">0.5</text></g><g class="xtick"><text text-anchor="middle" x="0" y="435.1" transform="translate(460,0)" style="font-family: sans-serif; font-size: 38px; fill: rgb(0, 0, 0); fill-opacity: 1; white-space: pre;">1</text></g><g class="xtick"><text text-anchor="middle" x="0" y="435.1" transform="translate(600,0)" style="font-family: sans-serif; font-size: 38px; fill: rgb(0, 0, 0); fill-opacity: 1; white-space: pre;">1.5</text></g></g><g class="yaxislayer-above"><g class="ytick"><text text-anchor="end" x="166.9" y="13.299999999999999" transform="translate(0,384)" style="font-family: sans-serif; font-size: 38px; fill: rgb(0, 0, 0); fill-opacity: 1; white-space: pre;">0</text></g><g class="ytick"><text text-anchor="end" x="166.9" y="13.299999999999999" transform="translate(0,242)" style="font-family: sans-serif; font-size: 38px; fill: rgb(0, 0, 0); fill-opacity: 1; white-space: pre;">200μ</text></g><g class="ytick"><text text-anchor="end" x="166.9" y="13.299999999999999" transform="translate(0,100)" style="font-family: sans-serif; font-size: 38px; fill: rgb(0, 0, 0); fill-opacity: 1; white-space: pre;">400μ</text></g></g><g class="overaxes-above"/></g></g><g class="polarlayer"/><g class="ternarylayer"/><g class="geolayer"/><g class="funnelarealayer"/><g class="pielayer"/><g class="treemaplayer"/><g class="sunburstlayer"/><g class="glimages"/><defs id="topdefs-378518"><g class="clips"/></defs><g class="layer-above"><g class="imagelayer"/><g class="shapelayer"/></g><g class="infolayer"><g class="g-gtitle"/><g class="g-xtitle" transform="translate(0,0.5343750000000114)"><text class="xtitle" x="390" y="487.809375" text-anchor="middle" style="font-family: sans-serif; font-size: 41px; fill: rgb(0, 0, 0); opacity: 1; font-weight: normal; white-space: pre;">Damage rate (min​<tspan style="font-size:70%" dy="-0.6em">-1</tspan><tspan dy="0.42em">​</tspan>)</text></g><g class="g-ytitle" transform="translate(11.5126953125,0)"><text class="ytitle" transform="rotate(-90,26.48750000000001,242)" x="26.48750000000001" y="242" text-anchor="middle" style="font-family: sans-serif; font-size: 41px; fill: rgb(0, 0, 0); opacity: 1; font-weight: normal; white-space: pre;">mA mB (μM)</text></g></g></svg>