<?xml version="1.0" encoding="utf-8"?>
<svg xmlns="http://www.w3.org/2000/svg" xmlns:xlink="http://www.w3.org/1999/xlink" width="600" height="400" viewBox="0 0 2400 1600">
<defs>
  <clipPath id="clip730">
    <rect x="0" y="0" width="2400" height="1600"/>
  </clipPath>
</defs>
<path clip-path="url(#clip730)" d="M0 1600 L2400 1600 L2400 0 L0 0  Z" fill="#ffffff" fill-rule="evenodd" fill-opacity="1"/>
<defs>
  <clipPath id="clip731">
    <rect x="480" y="0" width="1681" height="1600"/>
  </clipPath>
</defs>
<path clip-path="url(#clip730)" d="M367.565 1362.7 L2352.76 1362.7 L2352.76 123.472 L367.565 123.472  Z" fill="#ffffff" fill-rule="evenodd" fill-opacity="1"/>
<defs>
  <clipPath id="clip732">
    <rect x="367" y="123" width="1986" height="1240"/>
  </clipPath>
</defs>
<polyline clip-path="url(#clip732)" style="stroke:#000000; stroke-linecap:round; stroke-linejoin:round; stroke-width:2; stroke-opacity:0.1; fill:none" points="601.117,1362.7 601.117,123.472 "/>
<polyline clip-path="url(#clip732)" style="stroke:#000000; stroke-linecap:round; stroke-linejoin:round; stroke-width:2; stroke-opacity:0.1; fill:none" points="990.37,1362.7 990.37,123.472 "/>
<polyline clip-path="url(#clip732)" style="stroke:#000000; stroke-linecap:round; stroke-linejoin:round; stroke-width:2; stroke-opacity:0.1; fill:none" points="1379.62,1362.7 1379.62,123.472 "/>
<polyline clip-path="url(#clip732)" style="stroke:#000000; stroke-linecap:round; stroke-linejoin:round; stroke-width:2; stroke-opacity:0.1; fill:none" points="1768.88,1362.7 1768.88,123.472 "/>
<polyline clip-path="url(#clip732)" style="stroke:#000000; stroke-linecap:round; stroke-linejoin:round; stroke-width:2; stroke-opacity:0.1; fill:none" points="2158.13,1362.7 2158.13,123.472 "/>
<polyline clip-path="url(#clip730)" style="stroke:#000000; stroke-linecap:round; stroke-linejoin:round; stroke-width:4; stroke-opacity:1; fill:none" points="367.565,1362.7 2352.76,1362.7 "/>
<polyline clip-path="url(#clip730)" style="stroke:#000000; stroke-linecap:round; stroke-linejoin:round; stroke-width:4; stroke-opacity:1; fill:none" points="601.117,1362.7 601.117,1343.8 "/>
<polyline clip-path="url(#clip730)" style="stroke:#000000; stroke-linecap:round; stroke-linejoin:round; stroke-width:4; stroke-opacity:1; fill:none" points="990.37,1362.7 990.37,1343.8 "/>
<polyline clip-path="url(#clip730)" style="stroke:#000000; stroke-linecap:round; stroke-linejoin:round; stroke-width:4; stroke-opacity:1; fill:none" points="1379.62,1362.7 1379.62,1343.8 "/>
<polyline clip-path="url(#clip730)" style="stroke:#000000; stroke-linecap:round; stroke-linejoin:round; stroke-width:4; stroke-opacity:1; fill:none" points="1768.88,1362.7 1768.88,1343.8 "/>
<polyline clip-path="url(#clip730)" style="stroke:#000000; stroke-linecap:round; stroke-linejoin:round; stroke-width:4; stroke-opacity:1; fill:none" points="2158.13,1362.7 2158.13,1343.8 "/>
<path clip-path="url(#clip730)" d="M497.103 1455.52 L511.426 1455.52 L511.426 1406.09 L495.844 1409.21 L495.844 1401.22 L511.339 1398.1 L520.106 1398.1 L520.106 1455.52 L534.429 1455.52 L534.429 1462.9 L497.103 1462.9 L497.103 1455.52 Z" fill="#000000" fill-rule="nonzero" fill-opacity="1" /><path clip-path="url(#clip730)" d="M570.887 1403.87 Q564.116 1403.87 560.688 1410.56 Q557.302 1417.2 557.302 1430.56 Q557.302 1443.89 560.688 1450.57 Q564.116 1457.21 570.887 1457.21 Q577.701 1457.21 581.087 1450.57 Q584.516 1443.89 584.516 1430.56 Q584.516 1417.2 581.087 1410.56 Q577.701 1403.87 570.887 1403.87 M570.887 1396.93 Q581.781 1396.93 587.51 1405.57 Q593.283 1414.16 593.283 1430.56 Q593.283 1446.93 587.51 1455.56 Q581.781 1464.16 570.887 1464.16 Q559.993 1464.16 554.221 1455.56 Q548.491 1446.93 548.491 1430.56 Q548.491 1414.16 554.221 1405.57 Q559.993 1396.93 570.887 1396.93 Z" fill="#000000" fill-rule="nonzero" fill-opacity="1" /><path clip-path="url(#clip730)" d="M627.441 1403.87 Q620.67 1403.87 617.241 1410.56 Q613.856 1417.2 613.856 1430.56 Q613.856 1443.89 617.241 1450.57 Q620.67 1457.21 627.441 1457.21 Q634.255 1457.21 637.64 1450.57 Q641.069 1443.89 641.069 1430.56 Q641.069 1417.2 637.64 1410.56 Q634.255 1403.87 627.441 1403.87 M627.441 1396.93 Q638.335 1396.93 644.064 1405.57 Q649.836 1414.16 649.836 1430.56 Q649.836 1446.93 644.064 1455.56 Q638.335 1464.16 627.441 1464.16 Q616.547 1464.16 610.774 1455.56 Q605.045 1446.93 605.045 1430.56 Q605.045 1414.16 610.774 1405.57 Q616.547 1396.93 627.441 1396.93 Z" fill="#000000" fill-rule="nonzero" fill-opacity="1" /><path clip-path="url(#clip730)" d="M683.994 1403.87 Q677.223 1403.87 673.795 1410.56 Q670.409 1417.2 670.409 1430.56 Q670.409 1443.89 673.795 1450.57 Q677.223 1457.21 683.994 1457.21 Q690.808 1457.21 694.194 1450.57 Q697.623 1443.89 697.623 1430.56 Q697.623 1417.2 694.194 1410.56 Q690.808 1403.87 683.994 1403.87 M683.994 1396.93 Q694.888 1396.93 700.617 1405.57 Q706.39 1414.16 706.39 1430.56 Q706.39 1446.93 700.617 1455.56 Q694.888 1464.16 683.994 1464.16 Q673.1 1464.16 667.328 1455.56 Q661.598 1446.93 661.598 1430.56 Q661.598 1414.16 667.328 1405.57 Q673.1 1396.93 683.994 1396.93 Z" fill="#000000" fill-rule="nonzero" fill-opacity="1" /><path clip-path="url(#clip730)" d="M894.016 1455.52 L924.615 1455.52 L924.615 1462.9 L883.47 1462.9 L883.47 1455.52 Q888.461 1450.36 897.055 1441.68 Q905.692 1432.95 907.905 1430.43 Q912.115 1425.7 913.765 1422.45 Q915.457 1419.15 915.457 1415.98 Q915.457 1410.82 911.811 1407.56 Q908.209 1404.31 902.393 1404.31 Q898.27 1404.31 893.669 1405.74 Q889.112 1407.17 883.904 1410.08 L883.904 1401.22 Q889.199 1399.1 893.799 1398.01 Q898.4 1396.93 902.22 1396.93 Q912.289 1396.93 918.278 1401.96 Q924.268 1407 924.268 1415.42 Q924.268 1419.41 922.749 1423.01 Q921.273 1426.57 917.324 1431.43 Q916.239 1432.69 910.423 1438.72 Q904.607 1444.71 894.016 1455.52 Z" fill="#000000" fill-rule="nonzero" fill-opacity="1" /><path clip-path="url(#clip730)" d="M961.768 1403.87 Q954.997 1403.87 951.568 1410.56 Q948.183 1417.2 948.183 1430.56 Q948.183 1443.89 951.568 1450.57 Q954.997 1457.21 961.768 1457.21 Q968.582 1457.21 971.967 1450.57 Q975.396 1443.89 975.396 1430.56 Q975.396 1417.2 971.967 1410.56 Q968.582 1403.87 961.768 1403.87 M961.768 1396.93 Q972.662 1396.93 978.391 1405.57 Q984.164 1414.16 984.164 1430.56 Q984.164 1446.93 978.391 1455.56 Q972.662 1464.16 961.768 1464.16 Q950.874 1464.16 945.101 1455.56 Q939.372 1446.93 939.372 1430.56 Q939.372 1414.16 945.101 1405.57 Q950.874 1396.93 961.768 1396.93 Z" fill="#000000" fill-rule="nonzero" fill-opacity="1" /><path clip-path="url(#clip730)" d="M1018.32 1403.87 Q1011.55 1403.87 1008.12 1410.56 Q1004.74 1417.2 1004.74 1430.56 Q1004.74 1443.89 1008.12 1450.57 Q1011.55 1457.21 1018.32 1457.21 Q1025.14 1457.21 1028.52 1450.57 Q1031.95 1443.89 1031.95 1430.56 Q1031.95 1417.2 1028.52 1410.56 Q1025.14 1403.87 1018.32 1403.87 M1018.32 1396.93 Q1029.22 1396.93 1034.94 1405.57 Q1040.72 1414.16 1040.72 1430.56 Q1040.72 1446.93 1034.94 1455.56 Q1029.22 1464.16 1018.32 1464.16 Q1007.43 1464.16 1001.65 1455.56 Q995.926 1446.93 995.926 1430.56 Q995.926 1414.16 1001.65 1405.57 Q1007.43 1396.93 1018.32 1396.93 Z" fill="#000000" fill-rule="nonzero" fill-opacity="1" /><path clip-path="url(#clip730)" d="M1074.87 1403.87 Q1068.1 1403.87 1064.68 1410.56 Q1061.29 1417.2 1061.29 1430.56 Q1061.29 1443.89 1064.68 1450.57 Q1068.1 1457.21 1074.87 1457.21 Q1081.69 1457.21 1085.07 1450.57 Q1088.5 1443.89 1088.5 1430.56 Q1088.5 1417.2 1085.07 1410.56 Q1081.69 1403.87 1074.87 1403.87 M1074.87 1396.93 Q1085.77 1396.93 1091.5 1405.57 Q1097.27 1414.16 1097.27 1430.56 Q1097.27 1446.93 1091.5 1455.56 Q1085.77 1464.16 1074.87 1464.16 Q1063.98 1464.16 1058.21 1455.56 Q1052.48 1446.93 1052.48 1430.56 Q1052.48 1414.16 1058.21 1405.57 Q1063.98 1396.93 1074.87 1396.93 Z" fill="#000000" fill-rule="nonzero" fill-opacity="1" /><path clip-path="url(#clip730)" d="M1302.15 1427.96 Q1308.44 1429.31 1311.96 1433.56 Q1315.52 1437.81 1315.52 1444.06 Q1315.52 1453.66 1308.92 1458.91 Q1302.32 1464.16 1290.17 1464.16 Q1286.09 1464.16 1281.75 1463.33 Q1277.45 1462.55 1272.85 1460.95 L1272.85 1452.48 Q1276.5 1454.61 1280.84 1455.7 Q1285.18 1456.78 1289.91 1456.78 Q1298.16 1456.78 1302.45 1453.52 Q1306.79 1450.27 1306.79 1444.06 Q1306.79 1438.33 1302.76 1435.12 Q1298.76 1431.87 1291.6 1431.87 L1284.05 1431.87 L1284.05 1424.66 L1291.95 1424.66 Q1298.42 1424.66 1301.85 1422.1 Q1305.27 1419.5 1305.27 1414.64 Q1305.27 1409.64 1301.72 1407 Q1298.2 1404.31 1291.6 1404.31 Q1288 1404.31 1283.88 1405.09 Q1279.75 1405.87 1274.81 1407.52 L1274.81 1399.71 Q1279.8 1398.32 1284.14 1397.62 Q1288.52 1396.93 1292.38 1396.93 Q1302.37 1396.93 1308.18 1401.49 Q1314 1406 1314 1413.72 Q1314 1419.11 1310.92 1422.84 Q1307.84 1426.53 1302.15 1427.96 Z" fill="#000000" fill-rule="nonzero" fill-opacity="1" /><path clip-path="url(#clip730)" d="M1350.89 1403.87 Q1344.12 1403.87 1340.69 1410.56 Q1337.31 1417.2 1337.31 1430.56 Q1337.31 1443.89 1340.69 1450.57 Q1344.12 1457.21 1350.89 1457.21 Q1357.7 1457.21 1361.09 1450.57 Q1364.52 1443.89 1364.52 1430.56 Q1364.52 1417.2 1361.09 1410.56 Q1357.7 1403.87 1350.89 1403.87 M1350.89 1396.93 Q1361.78 1396.93 1367.51 1405.57 Q1373.29 1414.16 1373.29 1430.56 Q1373.29 1446.93 1367.51 1455.56 Q1361.78 1464.16 1350.89 1464.16 Q1340 1464.16 1334.22 1455.56 Q1328.49 1446.93 1328.49 1430.56 Q1328.49 1414.16 1334.22 1405.57 Q1340 1396.93 1350.89 1396.93 Z" fill="#000000" fill-rule="nonzero" fill-opacity="1" /><path clip-path="url(#clip730)" d="M1407.44 1403.87 Q1400.67 1403.87 1397.24 1410.56 Q1393.86 1417.2 1393.86 1430.56 Q1393.86 1443.89 1397.24 1450.57 Q1400.67 1457.21 1407.44 1457.21 Q1414.26 1457.21 1417.64 1450.57 Q1421.07 1443.89 1421.07 1430.56 Q1421.07 1417.2 1417.64 1410.56 Q1414.26 1403.87 1407.44 1403.87 M1407.44 1396.93 Q1418.34 1396.93 1424.07 1405.57 Q1429.84 1414.16 1429.84 1430.56 Q1429.84 1446.93 1424.07 1455.56 Q1418.34 1464.16 1407.44 1464.16 Q1396.55 1464.16 1390.78 1455.56 Q1385.05 1446.93 1385.05 1430.56 Q1385.05 1414.16 1390.78 1405.57 Q1396.55 1396.93 1407.44 1396.93 Z" fill="#000000" fill-rule="nonzero" fill-opacity="1" /><path clip-path="url(#clip730)" d="M1464 1403.87 Q1457.23 1403.87 1453.8 1410.56 Q1450.41 1417.2 1450.41 1430.56 Q1450.41 1443.89 1453.8 1450.57 Q1457.23 1457.21 1464 1457.21 Q1470.81 1457.21 1474.2 1450.57 Q1477.63 1443.89 1477.63 1430.56 Q1477.63 1417.2 1474.2 1410.56 Q1470.81 1403.87 1464 1403.87 M1464 1396.93 Q1474.89 1396.93 1480.62 1405.57 Q1486.39 1414.16 1486.39 1430.56 Q1486.39 1446.93 1480.62 1455.56 Q1474.89 1464.16 1464 1464.16 Q1453.1 1464.16 1447.33 1455.56 Q1441.6 1446.93 1441.6 1430.56 Q1441.6 1414.16 1447.33 1405.57 Q1453.1 1396.93 1464 1396.93 Z" fill="#000000" fill-rule="nonzero" fill-opacity="1" /><path clip-path="url(#clip730)" d="M1690.14 1405.74 L1668.01 1440.33 L1690.14 1440.33 L1690.14 1405.74 M1687.84 1398.1 L1698.87 1398.1 L1698.87 1440.33 L1708.11 1440.33 L1708.11 1447.62 L1698.87 1447.62 L1698.87 1462.9 L1690.14 1462.9 L1690.14 1447.62 L1660.89 1447.62 L1660.89 1439.16 L1687.84 1398.1 Z" fill="#000000" fill-rule="nonzero" fill-opacity="1" /><path clip-path="url(#clip730)" d="M1741.36 1403.87 Q1734.59 1403.87 1731.16 1410.56 Q1727.77 1417.2 1727.77 1430.56 Q1727.77 1443.89 1731.16 1450.57 Q1734.59 1457.21 1741.36 1457.21 Q1748.17 1457.21 1751.56 1450.57 Q1754.99 1443.89 1754.99 1430.56 Q1754.99 1417.2 1751.56 1410.56 Q1748.17 1403.87 1741.36 1403.87 M1741.36 1396.93 Q1752.25 1396.93 1757.98 1405.57 Q1763.75 1414.16 1763.75 1430.56 Q1763.75 1446.93 1757.98 1455.56 Q1752.25 1464.16 1741.36 1464.16 Q1730.47 1464.16 1724.69 1455.56 Q1718.96 1446.93 1718.96 1430.56 Q1718.96 1414.16 1724.69 1405.57 Q1730.47 1396.93 1741.36 1396.93 Z" fill="#000000" fill-rule="nonzero" fill-opacity="1" /><path clip-path="url(#clip730)" d="M1797.91 1403.87 Q1791.14 1403.87 1787.71 1410.56 Q1784.33 1417.2 1784.33 1430.56 Q1784.33 1443.89 1787.71 1450.57 Q1791.14 1457.21 1797.91 1457.21 Q1804.73 1457.21 1808.11 1450.57 Q1811.54 1443.89 1811.54 1430.56 Q1811.54 1417.2 1808.11 1410.56 Q1804.73 1403.87 1797.91 1403.87 M1797.91 1396.93 Q1808.81 1396.93 1814.54 1405.57 Q1820.31 1414.16 1820.31 1430.56 Q1820.31 1446.93 1814.54 1455.56 Q1808.81 1464.16 1797.91 1464.16 Q1787.02 1464.16 1781.25 1455.56 Q1775.52 1446.93 1775.52 1430.56 Q1775.52 1414.16 1781.25 1405.57 Q1787.02 1396.93 1797.91 1396.93 Z" fill="#000000" fill-rule="nonzero" fill-opacity="1" /><path clip-path="url(#clip730)" d="M1854.47 1403.87 Q1847.7 1403.87 1844.27 1410.56 Q1840.88 1417.2 1840.88 1430.56 Q1840.88 1443.89 1844.27 1450.57 Q1847.7 1457.21 1854.47 1457.21 Q1861.28 1457.21 1864.67 1450.57 Q1868.09 1443.89 1868.09 1430.56 Q1868.09 1417.2 1864.67 1410.56 Q1861.28 1403.87 1854.47 1403.87 M1854.47 1396.93 Q1865.36 1396.93 1871.09 1405.57 Q1876.86 1414.16 1876.86 1430.56 Q1876.86 1446.93 1871.09 1455.56 Q1865.36 1464.16 1854.47 1464.16 Q1843.57 1464.16 1837.8 1455.56 Q1832.07 1446.93 1832.07 1430.56 Q1832.07 1414.16 1837.8 1405.57 Q1843.57 1396.93 1854.47 1396.93 Z" fill="#000000" fill-rule="nonzero" fill-opacity="1" /><path clip-path="url(#clip730)" d="M2054.14 1398.1 L2088.56 1398.1 L2088.56 1405.48 L2062.17 1405.48 L2062.17 1421.36 Q2064.08 1420.71 2065.99 1420.41 Q2067.9 1420.06 2069.81 1420.06 Q2080.66 1420.06 2086.99 1426.01 Q2093.33 1431.95 2093.33 1442.11 Q2093.33 1452.57 2086.82 1458.39 Q2080.31 1464.16 2068.46 1464.16 Q2064.38 1464.16 2060.13 1463.46 Q2055.92 1462.77 2051.4 1461.38 L2051.4 1452.57 Q2055.31 1454.7 2059.48 1455.74 Q2063.64 1456.78 2068.29 1456.78 Q2075.79 1456.78 2080.18 1452.83 Q2084.56 1448.88 2084.56 1442.11 Q2084.56 1435.34 2080.18 1431.39 Q2075.79 1427.44 2068.29 1427.44 Q2064.77 1427.44 2061.25 1428.22 Q2057.78 1429 2054.14 1430.65 L2054.14 1398.1 Z" fill="#000000" fill-rule="nonzero" fill-opacity="1" /><path clip-path="url(#clip730)" d="M2129.35 1403.87 Q2122.58 1403.87 2119.15 1410.56 Q2115.77 1417.2 2115.77 1430.56 Q2115.77 1443.89 2119.15 1450.57 Q2122.58 1457.21 2129.35 1457.21 Q2136.17 1457.21 2139.55 1450.57 Q2142.98 1443.89 2142.98 1430.56 Q2142.98 1417.2 2139.55 1410.56 Q2136.17 1403.87 2129.35 1403.87 M2129.35 1396.93 Q2140.25 1396.93 2145.98 1405.57 Q2151.75 1414.16 2151.75 1430.56 Q2151.75 1446.93 2145.98 1455.56 Q2140.25 1464.16 2129.35 1464.16 Q2118.46 1464.16 2112.69 1455.56 Q2106.96 1446.93 2106.96 1430.56 Q2106.96 1414.16 2112.69 1405.57 Q2118.46 1396.93 2129.35 1396.93 Z" fill="#000000" fill-rule="nonzero" fill-opacity="1" /><path clip-path="url(#clip730)" d="M2185.91 1403.87 Q2179.14 1403.87 2175.71 1410.56 Q2172.32 1417.2 2172.32 1430.56 Q2172.32 1443.89 2175.71 1450.57 Q2179.14 1457.21 2185.91 1457.21 Q2192.72 1457.21 2196.11 1450.57 Q2199.54 1443.89 2199.54 1430.56 Q2199.54 1417.2 2196.11 1410.56 Q2192.72 1403.87 2185.91 1403.87 M2185.91 1396.93 Q2196.8 1396.93 2202.53 1405.57 Q2208.3 1414.16 2208.3 1430.56 Q2208.3 1446.93 2202.53 1455.56 Q2196.8 1464.16 2185.91 1464.16 Q2175.01 1464.16 2169.24 1455.56 Q2163.51 1446.93 2163.51 1430.56 Q2163.51 1414.16 2169.24 1405.57 Q2175.01 1396.93 2185.91 1396.93 Z" fill="#000000" fill-rule="nonzero" fill-opacity="1" /><path clip-path="url(#clip730)" d="M2242.46 1403.87 Q2235.69 1403.87 2232.26 1410.56 Q2228.88 1417.2 2228.88 1430.56 Q2228.88 1443.89 2232.26 1450.57 Q2235.69 1457.21 2242.46 1457.21 Q2249.27 1457.21 2252.66 1450.57 Q2256.09 1443.89 2256.09 1430.56 Q2256.09 1417.2 2252.66 1410.56 Q2249.27 1403.87 2242.46 1403.87 M2242.46 1396.93 Q2253.35 1396.93 2259.08 1405.57 Q2264.86 1414.16 2264.86 1430.56 Q2264.86 1446.93 2259.08 1455.56 Q2253.35 1464.16 2242.46 1464.16 Q2231.57 1464.16 2225.79 1455.56 Q2220.06 1446.93 2220.06 1430.56 Q2220.06 1414.16 2225.79 1405.57 Q2231.57 1396.93 2242.46 1396.93 Z" fill="#000000" fill-rule="nonzero" fill-opacity="1" /><path clip-path="url(#clip730)" d="M1300.94 1521.82 L1286.67 1560.51 L1315.26 1560.51 L1300.94 1521.82 M1295 1511.45 L1306.93 1511.45 L1336.57 1589.21 L1325.63 1589.21 L1318.55 1569.26 L1283.49 1569.26 L1276.41 1589.21 L1265.32 1589.21 L1295 1511.45 Z" fill="#000000" fill-rule="nonzero" fill-opacity="1" /><path clip-path="url(#clip730)" d="M1328.86 1511.45 L1394.64 1511.45 L1394.64 1520.31 L1367.04 1520.31 L1367.04 1589.21 L1356.46 1589.21 L1356.46 1520.31 L1328.86 1520.31 L1328.86 1511.45 Z" fill="#000000" fill-rule="nonzero" fill-opacity="1" /><path clip-path="url(#clip730)" d="M1415.32 1520.1 L1415.32 1549.32 L1428.55 1549.32 Q1435.89 1549.32 1439.9 1545.51 Q1443.91 1541.71 1443.91 1534.68 Q1443.91 1527.7 1439.9 1523.9 Q1435.89 1520.1 1428.55 1520.1 L1415.32 1520.1 M1404.8 1511.45 L1428.55 1511.45 Q1441.62 1511.45 1448.29 1517.39 Q1455 1523.27 1455 1534.68 Q1455 1546.19 1448.29 1552.08 Q1441.62 1557.96 1428.55 1557.96 L1415.32 1557.96 L1415.32 1589.21 L1404.8 1589.21 L1404.8 1511.45 Z" fill="#000000" fill-rule="nonzero" fill-opacity="1" /><polyline clip-path="url(#clip732)" style="stroke:#000000; stroke-linecap:round; stroke-linejoin:round; stroke-width:2; stroke-opacity:0.1; fill:none" points="367.565,1076.72 2352.76,1076.72 "/>
<polyline clip-path="url(#clip732)" style="stroke:#000000; stroke-linecap:round; stroke-linejoin:round; stroke-width:2; stroke-opacity:0.1; fill:none" points="367.565,758.974 2352.76,758.974 "/>
<polyline clip-path="url(#clip732)" style="stroke:#000000; stroke-linecap:round; stroke-linejoin:round; stroke-width:2; stroke-opacity:0.1; fill:none" points="367.565,441.223 2352.76,441.223 "/>
<polyline clip-path="url(#clip732)" style="stroke:#000000; stroke-linecap:round; stroke-linejoin:round; stroke-width:2; stroke-opacity:0.1; fill:none" points="367.565,123.472 2352.76,123.472 "/>
<polyline clip-path="url(#clip730)" style="stroke:#000000; stroke-linecap:round; stroke-linejoin:round; stroke-width:4; stroke-opacity:1; fill:none" points="367.565,1362.7 367.565,123.472 "/>
<polyline clip-path="url(#clip730)" style="stroke:#000000; stroke-linecap:round; stroke-linejoin:round; stroke-width:4; stroke-opacity:1; fill:none" points="367.565,1076.72 386.463,1076.72 "/>
<polyline clip-path="url(#clip730)" style="stroke:#000000; stroke-linecap:round; stroke-linejoin:round; stroke-width:4; stroke-opacity:1; fill:none" points="367.565,758.974 386.463,758.974 "/>
<polyline clip-path="url(#clip730)" style="stroke:#000000; stroke-linecap:round; stroke-linejoin:round; stroke-width:4; stroke-opacity:1; fill:none" points="367.565,441.223 386.463,441.223 "/>
<polyline clip-path="url(#clip730)" style="stroke:#000000; stroke-linecap:round; stroke-linejoin:round; stroke-width:4; stroke-opacity:1; fill:none" points="367.565,123.472 386.463,123.472 "/>
<path clip-path="url(#clip730)" d="M170.108 1050.1 Q163.337 1050.1 159.908 1056.78 Q156.523 1063.42 156.523 1076.79 Q156.523 1090.11 159.908 1096.8 Q163.337 1103.44 170.108 1103.44 Q176.922 1103.44 180.307 1096.8 Q183.736 1090.11 183.736 1076.79 Q183.736 1063.42 180.307 1056.78 Q176.922 1050.1 170.108 1050.1 M170.108 1043.15 Q181.002 1043.15 186.731 1051.79 Q192.503 1060.38 192.503 1076.79 Q192.503 1093.15 186.731 1101.79 Q181.002 1110.38 170.108 1110.38 Q159.214 1110.38 153.441 1101.79 Q147.712 1093.15 147.712 1076.79 Q147.712 1060.38 153.441 1051.79 Q159.214 1043.15 170.108 1043.15 Z" fill="#000000" fill-rule="nonzero" fill-opacity="1" /><path clip-path="url(#clip730)" d="M207.911 1098.1 L217.069 1098.1 L217.069 1109.12 L207.911 1109.12 L207.911 1098.1 Z" fill="#000000" fill-rule="nonzero" fill-opacity="1" /><path clip-path="url(#clip730)" d="M254.916 1050.1 Q248.145 1050.1 244.717 1056.78 Q241.331 1063.42 241.331 1076.79 Q241.331 1090.11 244.717 1096.8 Q248.145 1103.44 254.916 1103.44 Q261.73 1103.44 265.116 1096.8 Q268.545 1090.11 268.545 1076.79 Q268.545 1063.42 265.116 1056.78 Q261.73 1050.1 254.916 1050.1 M254.916 1043.15 Q265.81 1043.15 271.539 1051.79 Q277.312 1060.38 277.312 1076.79 Q277.312 1093.15 271.539 1101.79 Q265.81 1110.38 254.916 1110.38 Q244.022 1110.38 238.25 1101.79 Q232.521 1093.15 232.521 1076.79 Q232.521 1060.38 238.25 1051.79 Q244.022 1043.15 254.916 1043.15 Z" fill="#000000" fill-rule="nonzero" fill-opacity="1" /><path clip-path="url(#clip730)" d="M294.239 1101.75 L308.562 1101.75 L308.562 1052.31 L292.98 1055.44 L292.98 1047.45 L308.475 1044.32 L317.242 1044.32 L317.242 1101.75 L331.565 1101.75 L331.565 1109.12 L294.239 1109.12 L294.239 1101.75 Z" fill="#000000" fill-rule="nonzero" fill-opacity="1" /><path clip-path="url(#clip730)" d="M170.802 732.346 Q164.031 732.346 160.603 739.03 Q157.217 745.671 157.217 759.039 Q157.217 772.363 160.603 779.047 Q164.031 785.688 170.802 785.688 Q177.616 785.688 181.002 779.047 Q184.43 772.363 184.43 759.039 Q184.43 745.671 181.002 739.03 Q177.616 732.346 170.802 732.346 M170.802 725.402 Q181.696 725.402 187.425 734.039 Q193.198 742.632 193.198 759.039 Q193.198 775.401 187.425 784.038 Q181.696 792.632 170.802 792.632 Q159.908 792.632 154.136 784.038 Q148.406 775.401 148.406 759.039 Q148.406 742.632 154.136 734.039 Q159.908 725.402 170.802 725.402 Z" fill="#000000" fill-rule="nonzero" fill-opacity="1" /><path clip-path="url(#clip730)" d="M208.606 780.349 L217.764 780.349 L217.764 791.374 L208.606 791.374 L208.606 780.349 Z" fill="#000000" fill-rule="nonzero" fill-opacity="1" /><path clip-path="url(#clip730)" d="M255.611 732.346 Q248.84 732.346 245.411 739.03 Q242.026 745.671 242.026 759.039 Q242.026 772.363 245.411 779.047 Q248.84 785.688 255.611 785.688 Q262.425 785.688 265.81 779.047 Q269.239 772.363 269.239 759.039 Q269.239 745.671 265.81 739.03 Q262.425 732.346 255.611 732.346 M255.611 725.402 Q266.505 725.402 272.234 734.039 Q278.006 742.632 278.006 759.039 Q278.006 775.401 272.234 784.038 Q266.505 792.632 255.611 792.632 Q244.717 792.632 238.944 784.038 Q233.215 775.401 233.215 759.039 Q233.215 742.632 238.944 734.039 Q244.717 725.402 255.611 725.402 Z" fill="#000000" fill-rule="nonzero" fill-opacity="1" /><path clip-path="url(#clip730)" d="M300.966 783.995 L331.565 783.995 L331.565 791.374 L290.42 791.374 L290.42 783.995 Q295.411 778.83 304.005 770.15 Q312.642 761.426 314.855 758.908 Q319.065 754.178 320.714 750.922 Q322.407 747.624 322.407 744.455 Q322.407 739.29 318.761 736.035 Q315.159 732.78 309.343 732.78 Q305.22 732.78 300.619 734.212 Q296.062 735.645 290.854 738.553 L290.854 729.699 Q296.149 727.572 300.749 726.487 Q305.35 725.402 309.169 725.402 Q319.239 725.402 325.228 730.436 Q331.218 735.471 331.218 743.891 Q331.218 747.884 329.699 751.487 Q328.223 755.046 324.273 759.907 Q323.188 761.165 317.372 767.198 Q311.557 773.188 300.966 783.995 Z" fill="#000000" fill-rule="nonzero" fill-opacity="1" /><path clip-path="url(#clip730)" d="M169.023 414.595 Q162.252 414.595 158.823 421.279 Q155.438 427.92 155.438 441.288 Q155.438 454.613 158.823 461.296 Q162.252 467.937 169.023 467.937 Q175.837 467.937 179.222 461.296 Q182.651 454.613 182.651 441.288 Q182.651 427.92 179.222 421.279 Q175.837 414.595 169.023 414.595 M169.023 407.651 Q179.917 407.651 185.646 416.288 Q191.418 424.882 191.418 441.288 Q191.418 457.651 185.646 466.288 Q179.917 474.881 169.023 474.881 Q158.129 474.881 152.356 466.288 Q146.627 457.651 146.627 441.288 Q146.627 424.882 152.356 416.288 Q158.129 407.651 169.023 407.651 Z" fill="#000000" fill-rule="nonzero" fill-opacity="1" /><path clip-path="url(#clip730)" d="M206.826 462.599 L215.984 462.599 L215.984 473.623 L206.826 473.623 L206.826 462.599 Z" fill="#000000" fill-rule="nonzero" fill-opacity="1" /><path clip-path="url(#clip730)" d="M253.831 414.595 Q247.06 414.595 243.632 421.279 Q240.246 427.92 240.246 441.288 Q240.246 454.613 243.632 461.296 Q247.06 467.937 253.831 467.937 Q260.645 467.937 264.031 461.296 Q267.46 454.613 267.46 441.288 Q267.46 427.92 264.031 421.279 Q260.645 414.595 253.831 414.595 M253.831 407.651 Q264.725 407.651 270.454 416.288 Q276.227 424.882 276.227 441.288 Q276.227 457.651 270.454 466.288 Q264.725 474.881 253.831 474.881 Q242.937 474.881 237.165 466.288 Q231.435 457.651 231.435 441.288 Q231.435 424.882 237.165 416.288 Q242.937 407.651 253.831 407.651 Z" fill="#000000" fill-rule="nonzero" fill-opacity="1" /><path clip-path="url(#clip730)" d="M318.197 438.684 Q324.491 440.029 328.006 444.283 Q331.565 448.536 331.565 454.786 Q331.565 464.378 324.968 469.63 Q318.371 474.881 306.218 474.881 Q302.138 474.881 297.798 474.057 Q293.501 473.276 288.9 471.67 L288.9 463.206 Q292.546 465.333 296.886 466.418 Q301.227 467.503 305.958 467.503 Q314.204 467.503 318.501 464.248 Q322.841 460.993 322.841 454.786 Q322.841 449.057 318.805 445.845 Q314.812 442.59 307.65 442.59 L300.098 442.59 L300.098 435.385 L307.998 435.385 Q314.465 435.385 317.893 432.824 Q321.322 430.22 321.322 425.359 Q321.322 420.368 317.763 417.72 Q314.248 415.029 307.65 415.029 Q304.048 415.029 299.925 415.811 Q295.801 416.592 290.854 418.241 L290.854 410.429 Q295.845 409.04 300.185 408.345 Q304.569 407.651 308.432 407.651 Q318.414 407.651 324.23 412.208 Q330.046 416.722 330.046 424.448 Q330.046 429.83 326.964 433.562 Q323.883 437.251 318.197 438.684 Z" fill="#000000" fill-rule="nonzero" fill-opacity="1" /><path clip-path="url(#clip730)" d="M166.896 96.8447 Q160.125 96.8447 156.696 103.529 Q153.311 110.169 153.311 123.537 Q153.311 136.862 156.696 143.546 Q160.125 150.186 166.896 150.186 Q173.71 150.186 177.095 143.546 Q180.524 136.862 180.524 123.537 Q180.524 110.169 177.095 103.529 Q173.71 96.8447 166.896 96.8447 M166.896 89.9003 Q177.79 89.9003 183.519 98.5374 Q189.292 107.131 189.292 123.537 Q189.292 139.9 183.519 148.537 Q177.79 157.131 166.896 157.131 Q156.002 157.131 150.229 148.537 Q144.5 139.9 144.5 123.537 Q144.5 107.131 150.229 98.5374 Q156.002 89.9003 166.896 89.9003 Z" fill="#000000" fill-rule="nonzero" fill-opacity="1" /><path clip-path="url(#clip730)" d="M204.699 144.848 L213.857 144.848 L213.857 155.872 L204.699 155.872 L204.699 144.848 Z" fill="#000000" fill-rule="nonzero" fill-opacity="1" /><path clip-path="url(#clip730)" d="M251.704 96.8447 Q244.934 96.8447 241.505 103.529 Q238.119 110.169 238.119 123.537 Q238.119 136.862 241.505 143.546 Q244.934 150.186 251.704 150.186 Q258.519 150.186 261.904 143.546 Q265.333 136.862 265.333 123.537 Q265.333 110.169 261.904 103.529 Q258.519 96.8447 251.704 96.8447 M251.704 89.9003 Q262.598 89.9003 268.328 98.5374 Q274.1 107.131 274.1 123.537 Q274.1 139.9 268.328 148.537 Q262.598 157.131 251.704 157.131 Q240.81 157.131 235.038 148.537 Q229.309 139.9 229.309 123.537 Q229.309 107.131 235.038 98.5374 Q240.81 89.9003 251.704 89.9003 Z" fill="#000000" fill-rule="nonzero" fill-opacity="1" /><path clip-path="url(#clip730)" d="M313.596 98.711 L291.461 133.303 L313.596 133.303 L313.596 98.711 M311.296 91.0721 L322.32 91.0721 L322.32 133.303 L331.565 133.303 L331.565 140.594 L322.32 140.594 L322.32 155.872 L313.596 155.872 L313.596 140.594 L284.343 140.594 L284.343 132.131 L311.296 91.0721 Z" fill="#000000" fill-rule="nonzero" fill-opacity="1" /><path clip-path="url(#clip730)" d="M13.2455 741.628 L85.1722 714.701 L85.1722 724.857 L42.0474 741.211 L85.1722 761.315 L85.1722 771.471 L29.235 745.898 L18.9225 749.753 Q12.36 752.201 12.36 757.773 L12.36 762.773 L4.13093 762.773 L4.23509 756.68 Q4.39134 744.909 13.2455 741.628 Z" fill="#000000" fill-rule="nonzero" fill-opacity="1" /><path clip-path="url(#clip730)" d="M698.445 28.9478 L698.445 35.9153 Q695.286 34.1734 692.085 33.3227 Q688.926 32.4315 685.685 32.4315 Q678.434 32.4315 674.423 37.0496 Q670.413 41.6271 670.413 49.9314 Q670.413 58.2358 674.423 62.8538 Q678.434 67.4314 685.685 67.4314 Q688.926 67.4314 692.085 66.5807 Q695.286 65.6895 698.445 63.9476 L698.445 70.8341 Q695.326 72.2924 691.964 73.0216 Q688.642 73.7508 684.875 73.7508 Q674.626 73.7508 668.59 67.3098 Q662.554 60.8689 662.554 49.9314 Q662.554 38.832 668.631 32.472 Q674.748 26.1121 685.361 26.1121 Q688.804 26.1121 692.085 26.8413 Q695.367 27.5299 698.445 28.9478 Z" fill="#000000" fill-rule="nonzero" fill-opacity="1" /><path clip-path="url(#clip730)" d="M749.122 45.1919 L749.122 72.576 L741.668 72.576 L741.668 45.4349 Q741.668 38.994 739.157 35.7938 Q736.645 32.5936 731.622 32.5936 Q725.586 32.5936 722.103 36.4419 Q718.619 40.2903 718.619 46.9338 L718.619 72.576 L711.125 72.576 L711.125 9.54393 L718.619 9.54393 L718.619 34.2544 Q721.292 30.163 724.898 28.1376 Q728.544 26.1121 733.283 26.1121 Q741.101 26.1121 745.112 30.9732 Q749.122 35.7938 749.122 45.1919 Z" fill="#000000" fill-rule="nonzero" fill-opacity="1" /><path clip-path="url(#clip730)" d="M784.608 49.7694 Q775.575 49.7694 772.091 51.8354 Q768.607 53.9013 768.607 58.8839 Q768.607 62.8538 771.2 65.2034 Q773.833 67.5124 778.329 67.5124 Q784.527 67.5124 788.254 63.1374 Q792.021 58.7219 792.021 51.4303 L792.021 49.7694 L784.608 49.7694 M799.475 46.6907 L799.475 72.576 L792.021 72.576 L792.021 65.6895 Q789.469 69.8214 785.661 71.8063 Q781.853 73.7508 776.344 73.7508 Q769.377 73.7508 765.245 69.8619 Q761.153 65.9325 761.153 59.3701 Q761.153 51.7138 766.257 47.825 Q771.402 43.9361 781.57 43.9361 L792.021 43.9361 L792.021 43.2069 Q792.021 38.0623 788.618 35.2672 Q785.256 32.4315 779.139 32.4315 Q775.25 32.4315 771.564 33.3632 Q767.878 34.295 764.475 36.1584 L764.475 29.2718 Q768.566 27.692 772.415 26.9223 Q776.263 26.1121 779.909 26.1121 Q789.753 26.1121 794.614 31.2163 Q799.475 36.3204 799.475 46.6907 Z" fill="#000000" fill-rule="nonzero" fill-opacity="1" /><path clip-path="url(#clip730)" d="M852.542 45.1919 L852.542 72.576 L845.088 72.576 L845.088 45.4349 Q845.088 38.994 842.576 35.7938 Q840.065 32.5936 835.042 32.5936 Q829.006 32.5936 825.522 36.4419 Q822.038 40.2903 822.038 46.9338 L822.038 72.576 L814.544 72.576 L814.544 27.2059 L822.038 27.2059 L822.038 34.2544 Q824.712 30.163 828.317 28.1376 Q831.963 26.1121 836.703 26.1121 Q844.521 26.1121 848.531 30.9732 Q852.542 35.7938 852.542 45.1919 Z" fill="#000000" fill-rule="nonzero" fill-opacity="1" /><path clip-path="url(#clip730)" d="M897.264 49.3643 Q897.264 41.2625 893.901 36.8065 Q890.58 32.3505 884.544 32.3505 Q878.549 32.3505 875.186 36.8065 Q871.865 41.2625 871.865 49.3643 Q871.865 57.4256 875.186 61.8816 Q878.549 66.3376 884.544 66.3376 Q890.58 66.3376 893.901 61.8816 Q897.264 57.4256 897.264 49.3643 M904.717 66.9452 Q904.717 78.5308 899.573 84.1616 Q894.428 89.8329 883.815 89.8329 Q879.885 89.8329 876.402 89.2252 Q872.918 88.6581 869.637 87.4428 L869.637 80.1917 Q872.918 81.9741 876.118 82.8248 Q879.318 83.6755 882.64 83.6755 Q889.972 83.6755 893.618 79.8271 Q897.264 76.0193 897.264 68.282 L897.264 64.5957 Q894.955 68.6061 891.349 70.5911 Q887.744 72.576 882.721 72.576 Q874.376 72.576 869.272 66.2161 Q864.168 59.8562 864.168 49.3643 Q864.168 38.832 869.272 32.472 Q874.376 26.1121 882.721 26.1121 Q887.744 26.1121 891.349 28.0971 Q894.955 30.082 897.264 34.0924 L897.264 27.2059 L904.717 27.2059 L904.717 66.9452 Z" fill="#000000" fill-rule="nonzero" fill-opacity="1" /><path clip-path="url(#clip730)" d="M920.07 27.2059 L927.524 27.2059 L927.524 72.576 L920.07 72.576 L920.07 27.2059 M920.07 9.54393 L927.524 9.54393 L927.524 18.9825 L920.07 18.9825 L920.07 9.54393 Z" fill="#000000" fill-rule="nonzero" fill-opacity="1" /><path clip-path="url(#clip730)" d="M980.834 45.1919 L980.834 72.576 L973.38 72.576 L973.38 45.4349 Q973.38 38.994 970.869 35.7938 Q968.357 32.5936 963.334 32.5936 Q957.298 32.5936 953.814 36.4419 Q950.331 40.2903 950.331 46.9338 L950.331 72.576 L942.836 72.576 L942.836 27.2059 L950.331 27.2059 L950.331 34.2544 Q953.004 30.163 956.609 28.1376 Q960.255 26.1121 964.995 26.1121 Q972.813 26.1121 976.823 30.9732 Q980.834 35.7938 980.834 45.1919 Z" fill="#000000" fill-rule="nonzero" fill-opacity="1" /><path clip-path="url(#clip730)" d="M1025.56 49.3643 Q1025.56 41.2625 1022.19 36.8065 Q1018.87 32.3505 1012.84 32.3505 Q1006.84 32.3505 1003.48 36.8065 Q1000.16 41.2625 1000.16 49.3643 Q1000.16 57.4256 1003.48 61.8816 Q1006.84 66.3376 1012.84 66.3376 Q1018.87 66.3376 1022.19 61.8816 Q1025.56 57.4256 1025.56 49.3643 M1033.01 66.9452 Q1033.01 78.5308 1027.86 84.1616 Q1022.72 89.8329 1012.11 89.8329 Q1008.18 89.8329 1004.69 89.2252 Q1001.21 88.6581 997.929 87.4428 L997.929 80.1917 Q1001.21 81.9741 1004.41 82.8248 Q1007.61 83.6755 1010.93 83.6755 Q1018.26 83.6755 1021.91 79.8271 Q1025.56 76.0193 1025.56 68.282 L1025.56 64.5957 Q1023.25 68.6061 1019.64 70.5911 Q1016.04 72.576 1011.01 72.576 Q1002.67 72.576 997.564 66.2161 Q992.46 59.8562 992.46 49.3643 Q992.46 38.832 997.564 32.472 Q1002.67 26.1121 1011.01 26.1121 Q1016.04 26.1121 1019.64 28.0971 Q1023.25 30.082 1025.56 34.0924 L1025.56 27.2059 L1033.01 27.2059 L1033.01 66.9452 Z" fill="#000000" fill-rule="nonzero" fill-opacity="1" /><path clip-path="url(#clip730)" d="M1089.2 73.7508 Q1072.38 73.7508 1072.38 49.6884 Q1072.38 40.1688 1078.66 27.2059 L1086.68 27.2059 Q1080.89 40.1688 1080.89 49.8909 Q1080.89 67.4314 1089.88 67.4314 Q1098.11 67.4314 1098.11 45.6375 L1104.99 45.6375 Q1104.99 67.4314 1113.22 67.4314 Q1122.21 67.4314 1122.21 49.8909 Q1122.21 40.1688 1116.42 27.2059 L1124.44 27.2059 Q1130.72 40.1688 1130.72 49.6884 Q1130.72 73.7508 1113.91 73.7508 Q1102.89 73.7508 1101.55 61.6386 Q1099.89 73.7508 1089.2 73.7508 Z" fill="#000000" fill-rule="nonzero" fill-opacity="1" /><path clip-path="url(#clip730)" d="M1178.68 86.3491 L1178.68 92.1419 L1135.58 92.1419 L1135.58 86.3491 L1178.68 86.3491 Z" fill="#000000" fill-rule="nonzero" fill-opacity="1" /><path clip-path="url(#clip730)" d="M1211.98 34.1734 Q1210.72 33.4443 1209.22 33.1202 Q1207.77 32.7556 1205.98 32.7556 Q1199.66 32.7556 1196.26 36.8875 Q1192.9 40.9789 1192.9 48.6757 L1192.9 72.576 L1185.4 72.576 L1185.4 27.2059 L1192.9 27.2059 L1192.9 34.2544 Q1195.25 30.1225 1199.02 28.1376 Q1202.78 26.1121 1208.17 26.1121 Q1208.94 26.1121 1209.87 26.2337 Q1210.8 26.3147 1211.94 26.5172 L1211.98 34.1734 Z" fill="#000000" fill-rule="nonzero" fill-opacity="1" /><path clip-path="url(#clip730)" d="M1241.83 27.2059 L1249.29 27.2059 L1258.6 62.6108 L1267.88 27.2059 L1276.67 27.2059 L1285.99 62.6108 L1295.27 27.2059 L1302.72 27.2059 L1290.85 72.576 L1282.06 72.576 L1272.3 35.3887 L1262.49 72.576 L1253.7 72.576 L1241.83 27.2059 Z" fill="#000000" fill-rule="nonzero" fill-opacity="1" /><path clip-path="url(#clip730)" d="M1351.73 45.1919 L1351.73 72.576 L1344.28 72.576 L1344.28 45.4349 Q1344.28 38.994 1341.77 35.7938 Q1339.26 32.5936 1334.23 32.5936 Q1328.2 32.5936 1324.72 36.4419 Q1321.23 40.2903 1321.23 46.9338 L1321.23 72.576 L1313.74 72.576 L1313.74 9.54393 L1321.23 9.54393 L1321.23 34.2544 Q1323.9 30.163 1327.51 28.1376 Q1331.16 26.1121 1335.9 26.1121 Q1343.71 26.1121 1347.72 30.9732 Q1351.73 35.7938 1351.73 45.1919 Z" fill="#000000" fill-rule="nonzero" fill-opacity="1" /><path clip-path="url(#clip730)" d="M1405.41 48.0275 L1405.41 51.6733 L1371.14 51.6733 Q1371.62 59.3701 1375.76 63.421 Q1379.93 67.4314 1387.34 67.4314 Q1391.64 67.4314 1395.65 66.3781 Q1399.7 65.3249 1403.67 63.2184 L1403.67 70.267 Q1399.66 71.9684 1395.44 72.8596 Q1391.23 73.7508 1386.9 73.7508 Q1376.04 73.7508 1369.68 67.4314 Q1363.36 61.1119 1363.36 50.3365 Q1363.36 39.1965 1369.36 32.6746 Q1375.39 26.1121 1385.6 26.1121 Q1394.76 26.1121 1400.06 32.0264 Q1405.41 37.9003 1405.41 48.0275 M1397.96 45.84 Q1397.87 39.7232 1394.51 36.0774 Q1391.19 32.4315 1385.68 32.4315 Q1379.44 32.4315 1375.68 35.9558 Q1371.95 39.4801 1371.38 45.8805 L1397.96 45.84 Z" fill="#000000" fill-rule="nonzero" fill-opacity="1" /><path clip-path="url(#clip730)" d="M1455.36 45.1919 L1455.36 72.576 L1447.9 72.576 L1447.9 45.4349 Q1447.9 38.994 1445.39 35.7938 Q1442.88 32.5936 1437.86 32.5936 Q1431.82 32.5936 1428.34 36.4419 Q1424.85 40.2903 1424.85 46.9338 L1424.85 72.576 L1417.36 72.576 L1417.36 27.2059 L1424.85 27.2059 L1424.85 34.2544 Q1427.53 30.163 1431.13 28.1376 Q1434.78 26.1121 1439.52 26.1121 Q1447.34 26.1121 1451.35 30.9732 Q1455.36 35.7938 1455.36 45.1919 Z" fill="#000000" fill-rule="nonzero" fill-opacity="1" /><path clip-path="url(#clip730)" d="M1511.06 73.7508 Q1494.25 73.7508 1494.25 49.6884 Q1494.25 40.1688 1500.52 27.2059 L1508.55 27.2059 Q1502.75 40.1688 1502.75 49.8909 Q1502.75 67.4314 1511.75 67.4314 Q1519.97 67.4314 1519.97 45.6375 L1526.86 45.6375 Q1526.86 67.4314 1535.08 67.4314 Q1544.07 67.4314 1544.07 49.8909 Q1544.07 40.1688 1538.28 27.2059 L1546.3 27.2059 Q1552.58 40.1688 1552.58 49.6884 Q1552.58 73.7508 1535.77 73.7508 Q1524.75 73.7508 1523.41 61.6386 Q1521.75 73.7508 1511.06 73.7508 Z" fill="#000000" fill-rule="nonzero" fill-opacity="1" /><path clip-path="url(#clip730)" d="M1600.54 86.3491 L1600.54 92.1419 L1557.44 92.1419 L1557.44 86.3491 L1600.54 86.3491 Z" fill="#000000" fill-rule="nonzero" fill-opacity="1" /><path clip-path="url(#clip730)" d="M1628.17 49.7694 Q1619.13 49.7694 1615.65 51.8354 Q1612.17 53.9013 1612.17 58.8839 Q1612.17 62.8538 1614.76 65.2034 Q1617.39 67.5124 1621.89 67.5124 Q1628.09 67.5124 1631.81 63.1374 Q1635.58 58.7219 1635.58 51.4303 L1635.58 49.7694 L1628.17 49.7694 M1643.04 46.6907 L1643.04 72.576 L1635.58 72.576 L1635.58 65.6895 Q1633.03 69.8214 1629.22 71.8063 Q1625.41 73.7508 1619.9 73.7508 Q1612.94 73.7508 1608.81 69.8619 Q1604.71 65.9325 1604.71 59.3701 Q1604.71 51.7138 1609.82 47.825 Q1614.96 43.9361 1625.13 43.9361 L1635.58 43.9361 L1635.58 43.2069 Q1635.58 38.0623 1632.18 35.2672 Q1628.82 32.4315 1622.7 32.4315 Q1618.81 32.4315 1615.12 33.3632 Q1611.44 34.295 1608.04 36.1584 L1608.04 29.2718 Q1612.13 27.692 1615.98 26.9223 Q1619.82 26.1121 1623.47 26.1121 Q1633.31 26.1121 1638.17 31.2163 Q1643.04 36.3204 1643.04 46.6907 Z" fill="#000000" fill-rule="nonzero" fill-opacity="1" /><path clip-path="url(#clip730)" d="M1690.96 49.9314 Q1690.96 41.7081 1687.55 37.0496 Q1684.19 32.3505 1678.28 32.3505 Q1672.36 32.3505 1668.96 37.0496 Q1665.6 41.7081 1665.6 49.9314 Q1665.6 58.1548 1668.96 62.8538 Q1672.36 67.5124 1678.28 67.5124 Q1684.19 67.5124 1687.55 62.8538 Q1690.96 58.1548 1690.96 49.9314 M1665.6 34.0924 Q1667.95 30.0415 1671.51 28.0971 Q1675.12 26.1121 1680.1 26.1121 Q1688.36 26.1121 1693.51 32.6746 Q1698.69 39.2371 1698.69 49.9314 Q1698.69 60.6258 1693.51 67.1883 Q1688.36 73.7508 1680.1 73.7508 Q1675.12 73.7508 1671.51 71.8063 Q1667.95 69.8214 1665.6 65.7705 L1665.6 72.576 L1658.1 72.576 L1658.1 9.54393 L1665.6 9.54393 L1665.6 34.0924 Z" fill="#000000" fill-rule="nonzero" fill-opacity="1" /><path clip-path="url(#clip730)" d="M1738.39 34.9026 L1790.33 34.9026 L1790.33 41.7081 L1738.39 41.7081 L1738.39 34.9026 M1738.39 51.4303 L1790.33 51.4303 L1790.33 58.3168 L1738.39 58.3168 L1738.39 51.4303 Z" fill="#000000" fill-rule="nonzero" fill-opacity="1" /><path clip-path="url(#clip730)" d="M1851.86 17.4837 Q1845.54 17.4837 1842.34 23.7221 Q1839.18 29.92 1839.18 42.3968 Q1839.18 54.833 1842.34 61.0714 Q1845.54 67.2693 1851.86 67.2693 Q1858.22 67.2693 1861.38 61.0714 Q1864.58 54.833 1864.58 42.3968 Q1864.58 29.92 1861.38 23.7221 Q1858.22 17.4837 1851.86 17.4837 M1851.86 11.0023 Q1862.03 11.0023 1867.37 19.0636 Q1872.76 27.0843 1872.76 42.3968 Q1872.76 57.6687 1867.37 65.73 Q1862.03 73.7508 1851.86 73.7508 Q1841.69 73.7508 1836.3 65.73 Q1830.96 57.6687 1830.96 42.3968 Q1830.96 27.0843 1836.3 19.0636 Q1841.69 11.0023 1851.86 11.0023 Z" fill="#000000" fill-rule="nonzero" fill-opacity="1" /><path clip-path="url(#clip730)" d="M1887.14 62.2867 L1895.69 62.2867 L1895.69 72.576 L1887.14 72.576 L1887.14 62.2867 Z" fill="#000000" fill-rule="nonzero" fill-opacity="1" /><path clip-path="url(#clip730)" d="M1931.01 17.4837 Q1924.69 17.4837 1921.49 23.7221 Q1918.33 29.92 1918.33 42.3968 Q1918.33 54.833 1921.49 61.0714 Q1924.69 67.2693 1931.01 67.2693 Q1937.37 67.2693 1940.53 61.0714 Q1943.73 54.833 1943.73 42.3968 Q1943.73 29.92 1940.53 23.7221 Q1937.37 17.4837 1931.01 17.4837 M1931.01 11.0023 Q1941.18 11.0023 1946.53 19.0636 Q1951.92 27.0843 1951.92 42.3968 Q1951.92 57.6687 1946.53 65.73 Q1941.18 73.7508 1931.01 73.7508 Q1920.85 73.7508 1915.46 65.73 Q1910.11 57.6687 1910.11 42.3968 Q1910.11 27.0843 1915.46 19.0636 Q1920.85 11.0023 1931.01 11.0023 Z" fill="#000000" fill-rule="nonzero" fill-opacity="1" /><path clip-path="url(#clip730)" d="M1966.38 12.096 L1998.5 12.096 L1998.5 18.9825 L1973.87 18.9825 L1973.87 33.8088 Q1975.65 33.2012 1977.44 32.9176 Q1979.22 32.5936 1981 32.5936 Q1991.13 32.5936 1997.04 38.1433 Q2002.96 43.6931 2002.96 53.1722 Q2002.96 62.9348 1996.88 68.3631 Q1990.81 73.7508 1979.75 73.7508 Q1975.94 73.7508 1971.97 73.1026 Q1968.04 72.4545 1963.83 71.1582 L1963.83 62.9348 Q1967.47 64.9198 1971.36 65.892 Q1975.25 66.8642 1979.58 66.8642 Q1986.59 66.8642 1990.68 63.1779 Q1994.78 59.4916 1994.78 53.1722 Q1994.78 46.8528 1990.68 43.1664 Q1986.59 39.4801 1979.58 39.4801 Q1976.3 39.4801 1973.02 40.2093 Q1969.78 40.9384 1966.38 42.4778 L1966.38 12.096 Z" fill="#000000" fill-rule="nonzero" fill-opacity="1" /><path clip-path="url(#clip730)" d="M2037.59 39.075 Q2032.08 39.075 2028.84 42.8424 Q2025.64 46.6097 2025.64 53.1722 Q2025.64 59.6941 2028.84 63.502 Q2032.08 67.2693 2037.59 67.2693 Q2043.1 67.2693 2046.3 63.502 Q2049.54 59.6941 2049.54 53.1722 Q2049.54 46.6097 2046.3 42.8424 Q2043.1 39.075 2037.59 39.075 M2053.84 13.4328 L2053.84 20.8865 Q2050.76 19.4281 2047.6 18.6585 Q2044.48 17.8888 2041.4 17.8888 Q2033.3 17.8888 2029.01 23.3575 Q2024.75 28.8262 2024.14 39.8852 Q2026.53 36.3609 2030.14 34.4975 Q2033.74 32.5936 2038.08 32.5936 Q2047.19 32.5936 2052.46 38.1433 Q2057.77 43.6525 2057.77 53.1722 Q2057.77 62.4892 2052.26 68.12 Q2046.75 73.7508 2037.59 73.7508 Q2027.1 73.7508 2021.55 65.73 Q2016 57.6687 2016 42.3968 Q2016 28.0566 2022.81 19.5497 Q2029.61 11.0023 2041.08 11.0023 Q2044.16 11.0023 2047.27 11.6099 Q2050.43 12.2175 2053.84 13.4328 Z" fill="#000000" fill-rule="nonzero" fill-opacity="1" /><path clip-path="url(#clip732)" d="M367.565 1087.32 L588.142 949.624 L808.719 811.932 L1029.3 811.932 L1249.87 811.932 L1470.45 811.932 L1691.03 811.932 L1911.6 811.932 L2132.18 811.932 L2352.76 811.932 L2352.76 1087.32 L2132.18 1087.32 L1911.6 1087.32 L1691.03 1087.32 L1470.45 1087.32 L1249.87 1087.32 L1029.3 1087.32 L808.719 1087.32 L588.142 1087.32 L367.565 1225.01  Z" fill="#1f77b4" fill-rule="evenodd" fill-opacity="0.45"/>
<polyline clip-path="url(#clip732)" style="stroke:#1f77b4; stroke-linecap:round; stroke-linejoin:round; stroke-width:4; stroke-opacity:1; fill:none" points="367.565,1087.32 588.142,949.624 808.719,811.932 1029.3,811.932 1249.87,811.932 1470.45,811.932 1691.03,811.932 1911.6,811.932 2132.18,811.932 2352.76,811.932 "/>
<path clip-path="url(#clip732)" d="M367.565 949.624 L588.142 811.932 L808.719 811.932 L1029.3 674.24 L1249.87 674.24 L1470.45 674.24 L1691.03 674.24 L1911.6 674.24 L2132.18 674.24 L2352.76 674.24 L2352.76 1087.32 L2132.18 1087.32 L1911.6 1087.32 L1691.03 1087.32 L1470.45 1087.32 L1249.87 1087.32 L1029.3 1087.32 L808.719 1087.32 L588.142 1087.32 L367.565 1225.01  Z" fill="#ff7e0d" fill-rule="evenodd" fill-opacity="0.45"/>
<polyline clip-path="url(#clip732)" style="stroke:#ff7e0d; stroke-linecap:round; stroke-linejoin:round; stroke-width:4; stroke-opacity:1; fill:none" points="367.565,949.624 588.142,811.932 808.719,811.932 1029.3,674.24 1249.87,674.24 1470.45,674.24 1691.03,674.24 1911.6,674.24 2132.18,674.24 2352.76,674.24 "/>
<path clip-path="url(#clip732)" d="M367.565 949.624 L588.142 811.932 L808.719 674.24 L1029.3 674.24 L1249.87 674.24 L1470.45 674.24 L1691.03 674.24 L1911.6 536.548 L2132.18 536.548 L2352.76 536.548 L2352.76 949.624 L2132.18 949.624 L1911.6 949.624 L1691.03 949.624 L1470.45 949.624 L1249.87 949.624 L1029.3 1087.32 L808.719 1087.32 L588.142 1087.32 L367.565 1225.01  Z" fill="#2ba02b" fill-rule="evenodd" fill-opacity="0.45"/>
<polyline clip-path="url(#clip732)" style="stroke:#2ba02b; stroke-linecap:round; stroke-linejoin:round; stroke-width:4; stroke-opacity:1; fill:none" points="367.565,949.624 588.142,811.932 808.719,674.24 1029.3,674.24 1249.87,674.24 1470.45,674.24 1691.03,674.24 1911.6,536.548 2132.18,536.548 2352.76,536.548 "/>
<path clip-path="url(#clip732)" d="M367.565 949.624 L588.142 674.24 L808.719 536.548 L1029.3 536.548 L1249.87 536.548 L1470.45 536.548 L1691.03 536.548 L1911.6 536.548 L2132.18 536.548 L2352.76 536.548 L2352.76 949.624 L2132.18 949.624 L1911.6 949.624 L1691.03 949.624 L1470.45 949.624 L1249.87 949.624 L1029.3 949.624 L808.719 949.624 L588.142 1087.32 L367.565 1087.32  Z" fill="#d52628" fill-rule="evenodd" fill-opacity="0.45"/>
<polyline clip-path="url(#clip732)" style="stroke:#d52628; stroke-linecap:round; stroke-linejoin:round; stroke-width:4; stroke-opacity:1; fill:none" points="367.565,949.624 588.142,674.24 808.719,536.548 1029.3,536.548 1249.87,536.548 1470.45,536.548 1691.03,536.548 1911.6,536.548 2132.18,536.548 2352.76,536.548 "/>
<path clip-path="url(#clip732)" d="M367.565 811.932 L588.142 536.548 L808.719 536.548 L1029.3 398.856 L1249.87 398.856 L1470.45 398.856 L1691.03 398.856 L1911.6 398.856 L2132.18 398.856 L2352.76 398.856 L2352.76 949.624 L2132.18 949.624 L1911.6 949.624 L1691.03 949.624 L1470.45 949.624 L1249.87 949.624 L1029.3 949.624 L808.719 949.624 L588.142 949.624 L367.565 1087.32  Z" fill="#9466bd" fill-rule="evenodd" fill-opacity="0.45"/>
<polyline clip-path="url(#clip732)" style="stroke:#9466bd; stroke-linecap:round; stroke-linejoin:round; stroke-width:4; stroke-opacity:1; fill:none" points="367.565,811.932 588.142,536.548 808.719,536.548 1029.3,398.856 1249.87,398.856 1470.45,398.856 1691.03,398.856 1911.6,398.856 2132.18,398.856 2352.76,398.856 "/>
<path clip-path="url(#clip730)" d="M433.738 475.82 L928.043 475.82 L928.043 164.78 L433.738 164.78  Z" fill="#ffffff" fill-rule="evenodd" fill-opacity="1"/>
<polyline clip-path="url(#clip730)" style="stroke:#000000; stroke-linecap:round; stroke-linejoin:round; stroke-width:4; stroke-opacity:1; fill:none" points="433.738,475.82 928.043,475.82 928.043,164.78 433.738,164.78 433.738,475.82 "/>
<path clip-path="url(#clip730)" d="M455.796 237.356 L588.142 237.356 L588.142 195.884 L455.796 195.884 L455.796 237.356  Z" fill="#1f77b4" fill-rule="evenodd" fill-opacity="0.45"/>
<polyline clip-path="url(#clip730)" style="stroke:#1f77b4; stroke-linecap:round; stroke-linejoin:round; stroke-width:4; stroke-opacity:1; fill:none" points="455.796,195.884 588.142,195.884 "/>
<path clip-path="url(#clip730)" d="M625.824 215.266 Q629.181 215.983 631.056 218.252 Q632.954 220.52 632.954 223.853 Q632.954 228.969 629.436 231.77 Q625.917 234.571 619.436 234.571 Q617.26 234.571 614.945 234.131 Q612.653 233.715 610.2 232.858 L610.2 228.344 Q612.144 229.478 614.459 230.057 Q616.774 230.636 619.297 230.636 Q623.695 230.636 625.987 228.9 Q628.301 227.164 628.301 223.853 Q628.301 220.798 626.149 219.085 Q624.019 217.349 620.2 217.349 L616.172 217.349 L616.172 213.506 L620.385 213.506 Q623.834 213.506 625.662 212.141 Q627.491 210.752 627.491 208.159 Q627.491 205.497 625.593 204.085 Q623.718 202.65 620.2 202.65 Q618.278 202.65 616.079 203.067 Q613.88 203.483 611.241 204.363 L611.241 200.196 Q613.903 199.455 616.218 199.085 Q618.556 198.715 620.616 198.715 Q625.94 198.715 629.042 201.145 Q632.144 203.553 632.144 207.673 Q632.144 210.543 630.5 212.534 Q628.857 214.502 625.824 215.266 Z" fill="#000000" fill-rule="nonzero" fill-opacity="1" /><path clip-path="url(#clip730)" d="M641.82 228.02 L646.704 228.02 L646.704 233.9 L641.82 233.9 L641.82 228.02 Z" fill="#000000" fill-rule="nonzero" fill-opacity="1" /><path clip-path="url(#clip730)" d="M671.056 215.266 Q674.412 215.983 676.287 218.252 Q678.185 220.52 678.185 223.853 Q678.185 228.969 674.667 231.77 Q671.148 234.571 664.667 234.571 Q662.491 234.571 660.176 234.131 Q657.884 233.715 655.431 232.858 L655.431 228.344 Q657.375 229.478 659.69 230.057 Q662.005 230.636 664.528 230.636 Q668.926 230.636 671.218 228.9 Q673.533 227.164 673.533 223.853 Q673.533 220.798 671.38 219.085 Q669.25 217.349 665.431 217.349 L661.403 217.349 L661.403 213.506 L665.616 213.506 Q669.065 213.506 670.894 212.141 Q672.722 210.752 672.722 208.159 Q672.722 205.497 670.824 204.085 Q668.949 202.65 665.431 202.65 Q663.509 202.65 661.31 203.067 Q659.111 203.483 656.472 204.363 L656.472 200.196 Q659.134 199.455 661.449 199.085 Q663.787 198.715 665.847 198.715 Q671.171 198.715 674.273 201.145 Q677.375 203.553 677.375 207.673 Q677.375 210.543 675.732 212.534 Q674.088 214.502 671.056 215.266 Z" fill="#000000" fill-rule="nonzero" fill-opacity="1" /><path clip-path="url(#clip730)" d="M701.218 215.266 Q704.574 215.983 706.449 218.252 Q708.347 220.52 708.347 223.853 Q708.347 228.969 704.829 231.77 Q701.31 234.571 694.829 234.571 Q692.653 234.571 690.338 234.131 Q688.046 233.715 685.593 232.858 L685.593 228.344 Q687.537 229.478 689.852 230.057 Q692.167 230.636 694.69 230.636 Q699.088 230.636 701.38 228.9 Q703.694 227.164 703.694 223.853 Q703.694 220.798 701.542 219.085 Q699.412 217.349 695.593 217.349 L691.565 217.349 L691.565 213.506 L695.778 213.506 Q699.227 213.506 701.056 212.141 Q702.884 210.752 702.884 208.159 Q702.884 205.497 700.986 204.085 Q699.111 202.65 695.593 202.65 Q693.671 202.65 691.472 203.067 Q689.273 203.483 686.634 204.363 L686.634 200.196 Q689.296 199.455 691.611 199.085 Q693.949 198.715 696.009 198.715 Q701.333 198.715 704.435 201.145 Q707.537 203.553 707.537 207.673 Q707.537 210.543 705.893 212.534 Q704.25 214.502 701.218 215.266 Z" fill="#000000" fill-rule="nonzero" fill-opacity="1" /><path clip-path="url(#clip730)" d="M731.379 215.266 Q734.736 215.983 736.611 218.252 Q738.509 220.52 738.509 223.853 Q738.509 228.969 734.991 231.77 Q731.472 234.571 724.991 234.571 Q722.815 234.571 720.5 234.131 Q718.208 233.715 715.755 232.858 L715.755 228.344 Q717.699 229.478 720.014 230.057 Q722.329 230.636 724.852 230.636 Q729.25 230.636 731.541 228.9 Q733.856 227.164 733.856 223.853 Q733.856 220.798 731.704 219.085 Q729.574 217.349 725.754 217.349 L721.727 217.349 L721.727 213.506 L725.94 213.506 Q729.389 213.506 731.217 212.141 Q733.046 210.752 733.046 208.159 Q733.046 205.497 731.148 204.085 Q729.273 202.65 725.754 202.65 Q723.833 202.65 721.634 203.067 Q719.435 203.483 716.796 204.363 L716.796 200.196 Q719.458 199.455 721.773 199.085 Q724.111 198.715 726.171 198.715 Q731.495 198.715 734.597 201.145 Q737.699 203.553 737.699 207.673 Q737.699 210.543 736.055 212.534 Q734.412 214.502 731.379 215.266 Z" fill="#000000" fill-rule="nonzero" fill-opacity="1" /><path clip-path="url(#clip730)" d="M761.541 215.266 Q764.898 215.983 766.773 218.252 Q768.671 220.52 768.671 223.853 Q768.671 228.969 765.152 231.77 Q761.634 234.571 755.152 234.571 Q752.977 234.571 750.662 234.131 Q748.37 233.715 745.916 232.858 L745.916 228.344 Q747.861 229.478 750.176 230.057 Q752.49 230.636 755.014 230.636 Q759.412 230.636 761.703 228.9 Q764.018 227.164 764.018 223.853 Q764.018 220.798 761.865 219.085 Q759.736 217.349 755.916 217.349 L751.889 217.349 L751.889 213.506 L756.102 213.506 Q759.551 213.506 761.379 212.141 Q763.208 210.752 763.208 208.159 Q763.208 205.497 761.31 204.085 Q759.435 202.65 755.916 202.65 Q753.995 202.65 751.796 203.067 Q749.597 203.483 746.958 204.363 L746.958 200.196 Q749.62 199.455 751.935 199.085 Q754.273 198.715 756.333 198.715 Q761.657 198.715 764.759 201.145 Q767.861 203.553 767.861 207.673 Q767.861 210.543 766.217 212.534 Q764.574 214.502 761.541 215.266 Z" fill="#000000" fill-rule="nonzero" fill-opacity="1" /><path clip-path="url(#clip730)" d="M791.703 215.266 Q795.06 215.983 796.935 218.252 Q798.833 220.52 798.833 223.853 Q798.833 228.969 795.314 231.77 Q791.796 234.571 785.314 234.571 Q783.138 234.571 780.824 234.131 Q778.532 233.715 776.078 232.858 L776.078 228.344 Q778.023 229.478 780.338 230.057 Q782.652 230.636 785.175 230.636 Q789.574 230.636 791.865 228.9 Q794.18 227.164 794.18 223.853 Q794.18 220.798 792.027 219.085 Q789.898 217.349 786.078 217.349 L782.05 217.349 L782.05 213.506 L786.263 213.506 Q789.712 213.506 791.541 212.141 Q793.37 210.752 793.37 208.159 Q793.37 205.497 791.472 204.085 Q789.597 202.65 786.078 202.65 Q784.157 202.65 781.958 203.067 Q779.759 203.483 777.12 204.363 L777.12 200.196 Q779.782 199.455 782.097 199.085 Q784.435 198.715 786.495 198.715 Q791.819 198.715 794.921 201.145 Q798.023 203.553 798.023 207.673 Q798.023 210.543 796.379 212.534 Q794.736 214.502 791.703 215.266 Z" fill="#000000" fill-rule="nonzero" fill-opacity="1" /><path clip-path="url(#clip730)" d="M829.272 219.872 L829.272 221.955 L809.689 221.955 Q809.967 226.353 812.328 228.668 Q814.712 230.96 818.948 230.96 Q821.402 230.96 823.694 230.358 Q826.009 229.756 828.277 228.553 L828.277 232.58 Q825.985 233.552 823.578 234.062 Q821.171 234.571 818.694 234.571 Q812.49 234.571 808.856 230.96 Q805.245 227.349 805.245 221.191 Q805.245 214.826 808.671 211.099 Q812.12 207.349 817.953 207.349 Q823.185 207.349 826.217 210.729 Q829.272 214.085 829.272 219.872 M825.013 218.622 Q824.967 215.127 823.046 213.043 Q821.147 210.96 817.999 210.96 Q814.435 210.96 812.282 212.974 Q810.152 214.988 809.828 218.645 L825.013 218.622 Z" fill="#000000" fill-rule="nonzero" fill-opacity="1" /><path clip-path="url(#clip730)" d="M834.11 219.016 L846.587 219.016 L846.587 222.812 L834.11 222.812 L834.11 219.016 Z" fill="#000000" fill-rule="nonzero" fill-opacity="1" /><path clip-path="url(#clip730)" d="M863.971 202.418 Q860.36 202.418 858.532 205.983 Q856.726 209.525 856.726 216.654 Q856.726 223.761 858.532 227.326 Q860.36 230.867 863.971 230.867 Q867.606 230.867 869.411 227.326 Q871.24 223.761 871.24 216.654 Q871.24 209.525 869.411 205.983 Q867.606 202.418 863.971 202.418 M863.971 198.715 Q869.781 198.715 872.837 203.321 Q875.916 207.904 875.916 216.654 Q875.916 225.381 872.837 229.988 Q869.781 234.571 863.971 234.571 Q858.161 234.571 855.083 229.988 Q852.027 225.381 852.027 216.654 Q852.027 207.904 855.083 203.321 Q858.161 198.715 863.971 198.715 Z" fill="#000000" fill-rule="nonzero" fill-opacity="1" /><path clip-path="url(#clip730)" d="M894.133 217.488 Q890.8 217.488 888.879 219.27 Q886.98 221.053 886.98 224.178 Q886.98 227.303 888.879 229.085 Q890.8 230.867 894.133 230.867 Q897.467 230.867 899.388 229.085 Q901.309 227.279 901.309 224.178 Q901.309 221.053 899.388 219.27 Q897.49 217.488 894.133 217.488 M889.457 215.497 Q886.448 214.756 884.758 212.696 Q883.092 210.636 883.092 207.673 Q883.092 203.53 886.031 201.122 Q888.994 198.715 894.133 198.715 Q899.295 198.715 902.235 201.122 Q905.175 203.53 905.175 207.673 Q905.175 210.636 903.485 212.696 Q901.818 214.756 898.832 215.497 Q902.212 216.284 904.087 218.576 Q905.985 220.867 905.985 224.178 Q905.985 229.201 902.906 231.886 Q899.851 234.571 894.133 234.571 Q888.416 234.571 885.337 231.886 Q882.281 229.201 882.281 224.178 Q882.281 220.867 884.18 218.576 Q886.078 216.284 889.457 215.497 M887.744 208.113 Q887.744 210.798 889.411 212.303 Q891.101 213.807 894.133 213.807 Q897.142 213.807 898.832 212.303 Q900.545 210.798 900.545 208.113 Q900.545 205.428 898.832 203.923 Q897.142 202.418 894.133 202.418 Q891.101 202.418 889.411 203.923 Q887.744 205.428 887.744 208.113 Z" fill="#000000" fill-rule="nonzero" fill-opacity="1" /><path clip-path="url(#clip730)" d="M455.796 289.196 L588.142 289.196 L588.142 247.724 L455.796 247.724 L455.796 289.196  Z" fill="#ff7e0d" fill-rule="evenodd" fill-opacity="0.45"/>
<polyline clip-path="url(#clip730)" style="stroke:#ff7e0d; stroke-linecap:round; stroke-linejoin:round; stroke-width:4; stroke-opacity:1; fill:none" points="455.796,247.724 588.142,247.724 "/>
<path clip-path="url(#clip730)" d="M611.658 251.18 L630.014 251.18 L630.014 255.115 L615.94 255.115 L615.94 263.587 Q616.959 263.24 617.977 263.078 Q618.996 262.893 620.014 262.893 Q625.801 262.893 629.181 266.064 Q632.561 269.235 632.561 274.652 Q632.561 280.23 629.088 283.332 Q625.616 286.411 619.297 286.411 Q617.121 286.411 614.852 286.041 Q612.607 285.67 610.2 284.93 L610.2 280.23 Q612.283 281.365 614.505 281.92 Q616.727 282.476 619.204 282.476 Q623.209 282.476 625.547 280.369 Q627.885 278.263 627.885 274.652 Q627.885 271.041 625.547 268.934 Q623.209 266.828 619.204 266.828 Q617.329 266.828 615.454 267.244 Q613.602 267.661 611.658 268.541 L611.658 251.18 Z" fill="#000000" fill-rule="nonzero" fill-opacity="1" /><path clip-path="url(#clip730)" d="M641.773 279.86 L646.658 279.86 L646.658 285.74 L641.773 285.74 L641.773 279.86 Z" fill="#000000" fill-rule="nonzero" fill-opacity="1" /><path clip-path="url(#clip730)" d="M656.982 285.022 L656.982 280.763 Q658.741 281.596 660.547 282.036 Q662.352 282.476 664.088 282.476 Q668.718 282.476 671.148 279.374 Q673.602 276.249 673.949 269.906 Q672.607 271.897 670.546 272.962 Q668.486 274.027 665.986 274.027 Q660.801 274.027 657.769 270.902 Q654.76 267.754 654.76 262.314 Q654.76 256.99 657.908 253.772 Q661.056 250.555 666.287 250.555 Q672.283 250.555 675.431 255.161 Q678.602 259.744 678.602 268.494 Q678.602 276.666 674.713 281.55 Q670.847 286.411 664.296 286.411 Q662.537 286.411 660.732 286.064 Q658.926 285.717 656.982 285.022 M666.287 270.369 Q669.435 270.369 671.264 268.217 Q673.116 266.064 673.116 262.314 Q673.116 258.587 671.264 256.434 Q669.435 254.258 666.287 254.258 Q663.139 254.258 661.287 256.434 Q659.459 258.587 659.459 262.314 Q659.459 266.064 661.287 268.217 Q663.139 270.369 666.287 270.369 Z" fill="#000000" fill-rule="nonzero" fill-opacity="1" /><path clip-path="url(#clip730)" d="M691.032 281.805 L707.352 281.805 L707.352 285.74 L685.407 285.74 L685.407 281.805 Q688.07 279.05 692.653 274.42 Q697.259 269.768 698.44 268.425 Q700.685 265.902 701.565 264.166 Q702.468 262.407 702.468 260.717 Q702.468 257.962 700.523 256.226 Q698.602 254.49 695.5 254.49 Q693.301 254.49 690.847 255.254 Q688.417 256.018 685.639 257.569 L685.639 252.846 Q688.463 251.712 690.917 251.133 Q693.37 250.555 695.407 250.555 Q700.778 250.555 703.972 253.24 Q707.167 255.925 707.167 260.416 Q707.167 262.545 706.356 264.467 Q705.569 266.365 703.463 268.957 Q702.884 269.629 699.782 272.846 Q696.681 276.041 691.032 281.805 Z" fill="#000000" fill-rule="nonzero" fill-opacity="1" /><path clip-path="url(#clip730)" d="M715.986 251.18 L738.208 251.18 L738.208 253.17 L725.662 285.74 L720.778 285.74 L732.583 255.115 L715.986 255.115 L715.986 251.18 Z" fill="#000000" fill-rule="nonzero" fill-opacity="1" /><path clip-path="url(#clip730)" d="M757.907 266.596 Q754.759 266.596 752.907 268.749 Q751.078 270.902 751.078 274.652 Q751.078 278.379 752.907 280.555 Q754.759 282.707 757.907 282.707 Q761.055 282.707 762.884 280.555 Q764.736 278.379 764.736 274.652 Q764.736 270.902 762.884 268.749 Q761.055 266.596 757.907 266.596 M767.189 251.944 L767.189 256.203 Q765.43 255.37 763.625 254.93 Q761.842 254.49 760.083 254.49 Q755.453 254.49 753 257.615 Q750.569 260.74 750.222 267.059 Q751.588 265.045 753.648 263.981 Q755.708 262.893 758.185 262.893 Q763.393 262.893 766.402 266.064 Q769.435 269.212 769.435 274.652 Q769.435 279.976 766.287 283.193 Q763.139 286.411 757.907 286.411 Q751.912 286.411 748.74 281.828 Q745.569 277.221 745.569 268.494 Q745.569 260.3 749.458 255.439 Q753.347 250.555 759.898 250.555 Q761.657 250.555 763.439 250.902 Q765.245 251.249 767.189 251.944 Z" fill="#000000" fill-rule="nonzero" fill-opacity="1" /><path clip-path="url(#clip730)" d="M799.064 271.712 L799.064 273.795 L779.481 273.795 Q779.759 278.193 782.12 280.508 Q784.504 282.8 788.74 282.8 Q791.194 282.8 793.486 282.198 Q795.8 281.596 798.069 280.393 L798.069 284.42 Q795.777 285.392 793.37 285.902 Q790.962 286.411 788.486 286.411 Q782.282 286.411 778.648 282.8 Q775.037 279.189 775.037 273.031 Q775.037 266.666 778.463 262.939 Q781.912 259.189 787.745 259.189 Q792.976 259.189 796.009 262.569 Q799.064 265.925 799.064 271.712 M794.805 270.462 Q794.759 266.967 792.837 264.883 Q790.939 262.8 787.791 262.8 Q784.226 262.8 782.074 264.814 Q779.944 266.828 779.62 270.485 L794.805 270.462 Z" fill="#000000" fill-rule="nonzero" fill-opacity="1" /><path clip-path="url(#clip730)" d="M803.902 270.856 L816.379 270.856 L816.379 274.652 L803.902 274.652 L803.902 270.856 Z" fill="#000000" fill-rule="nonzero" fill-opacity="1" /><path clip-path="url(#clip730)" d="M833.763 254.258 Q830.152 254.258 828.323 257.823 Q826.518 261.365 826.518 268.494 Q826.518 275.601 828.323 279.166 Q830.152 282.707 833.763 282.707 Q837.397 282.707 839.203 279.166 Q841.032 275.601 841.032 268.494 Q841.032 261.365 839.203 257.823 Q837.397 254.258 833.763 254.258 M833.763 250.555 Q839.573 250.555 842.629 255.161 Q845.708 259.744 845.708 268.494 Q845.708 277.221 842.629 281.828 Q839.573 286.411 833.763 286.411 Q827.953 286.411 824.874 281.828 Q821.819 277.221 821.819 268.494 Q821.819 259.744 824.874 255.161 Q827.953 250.555 833.763 250.555 Z" fill="#000000" fill-rule="nonzero" fill-opacity="1" /><path clip-path="url(#clip730)" d="M863.925 269.328 Q860.592 269.328 858.67 271.11 Q856.772 272.893 856.772 276.018 Q856.772 279.143 858.67 280.925 Q860.592 282.707 863.925 282.707 Q867.258 282.707 869.18 280.925 Q871.101 279.119 871.101 276.018 Q871.101 272.893 869.18 271.11 Q867.282 269.328 863.925 269.328 M859.249 267.337 Q856.24 266.596 854.55 264.536 Q852.883 262.476 852.883 259.513 Q852.883 255.37 855.823 252.962 Q858.786 250.555 863.925 250.555 Q869.087 250.555 872.027 252.962 Q874.967 255.37 874.967 259.513 Q874.967 262.476 873.277 264.536 Q871.61 266.596 868.624 267.337 Q872.004 268.124 873.879 270.416 Q875.777 272.707 875.777 276.018 Q875.777 281.041 872.698 283.726 Q869.643 286.411 863.925 286.411 Q858.207 286.411 855.129 283.726 Q852.073 281.041 852.073 276.018 Q852.073 272.707 853.971 270.416 Q855.87 268.124 859.249 267.337 M857.536 259.953 Q857.536 262.638 859.203 264.143 Q860.893 265.647 863.925 265.647 Q866.934 265.647 868.624 264.143 Q870.337 262.638 870.337 259.953 Q870.337 257.268 868.624 255.763 Q866.934 254.258 863.925 254.258 Q860.893 254.258 859.203 255.763 Q857.536 257.268 857.536 259.953 Z" fill="#000000" fill-rule="nonzero" fill-opacity="1" /><path clip-path="url(#clip730)" d="M455.796 341.036 L588.142 341.036 L588.142 299.564 L455.796 299.564 L455.796 341.036  Z" fill="#2ba02b" fill-rule="evenodd" fill-opacity="0.45"/>
<polyline clip-path="url(#clip730)" style="stroke:#2ba02b; stroke-linecap:round; stroke-linejoin:round; stroke-width:4; stroke-opacity:1; fill:none" points="455.796,299.564 588.142,299.564 "/>
<path clip-path="url(#clip730)" d="M610.871 333.645 L618.51 333.645 L618.51 307.279 L610.2 308.946 L610.2 304.686 L618.463 303.02 L623.139 303.02 L623.139 333.645 L630.778 333.645 L630.778 337.58 L610.871 337.58 L610.871 333.645 Z" fill="#000000" fill-rule="nonzero" fill-opacity="1" /><path clip-path="url(#clip730)" d="M640.223 331.7 L645.107 331.7 L645.107 337.58 L640.223 337.58 L640.223 331.7 Z" fill="#000000" fill-rule="nonzero" fill-opacity="1" /><path clip-path="url(#clip730)" d="M665.292 306.098 Q661.681 306.098 659.852 309.663 Q658.047 313.205 658.047 320.334 Q658.047 327.441 659.852 331.006 Q661.681 334.547 665.292 334.547 Q668.926 334.547 670.732 331.006 Q672.56 327.441 672.56 320.334 Q672.56 313.205 670.732 309.663 Q668.926 306.098 665.292 306.098 M665.292 302.395 Q671.102 302.395 674.158 307.001 Q677.236 311.584 677.236 320.334 Q677.236 329.061 674.158 333.668 Q671.102 338.251 665.292 338.251 Q659.482 338.251 656.403 333.668 Q653.347 329.061 653.347 320.334 Q653.347 311.584 656.403 307.001 Q659.482 302.395 665.292 302.395 Z" fill="#000000" fill-rule="nonzero" fill-opacity="1" /><path clip-path="url(#clip730)" d="M685.5 303.02 L703.856 303.02 L703.856 306.955 L689.782 306.955 L689.782 315.427 Q690.801 315.08 691.819 314.918 Q692.838 314.733 693.857 314.733 Q699.644 314.733 703.023 317.904 Q706.403 321.075 706.403 326.492 Q706.403 332.07 702.931 335.172 Q699.458 338.251 693.139 338.251 Q690.963 338.251 688.695 337.881 Q686.449 337.51 684.042 336.77 L684.042 332.07 Q686.125 333.205 688.347 333.76 Q690.569 334.316 693.046 334.316 Q697.051 334.316 699.389 332.209 Q701.727 330.103 701.727 326.492 Q701.727 322.881 699.389 320.774 Q697.051 318.668 693.046 318.668 Q691.171 318.668 689.296 319.084 Q687.445 319.501 685.5 320.381 L685.5 303.02 Z" fill="#000000" fill-rule="nonzero" fill-opacity="1" /><path clip-path="url(#clip730)" d="M728.463 307.094 L716.657 325.543 L728.463 325.543 L728.463 307.094 M727.236 303.02 L733.116 303.02 L733.116 325.543 L738.046 325.543 L738.046 329.432 L733.116 329.432 L733.116 337.58 L728.463 337.58 L728.463 329.432 L712.861 329.432 L712.861 324.918 L727.236 303.02 Z" fill="#000000" fill-rule="nonzero" fill-opacity="1" /><path clip-path="url(#clip730)" d="M755.777 306.098 Q752.166 306.098 750.338 309.663 Q748.532 313.205 748.532 320.334 Q748.532 327.441 750.338 331.006 Q752.166 334.547 755.777 334.547 Q759.412 334.547 761.217 331.006 Q763.046 327.441 763.046 320.334 Q763.046 313.205 761.217 309.663 Q759.412 306.098 755.777 306.098 M755.777 302.395 Q761.588 302.395 764.643 307.001 Q767.722 311.584 767.722 320.334 Q767.722 329.061 764.643 333.668 Q761.588 338.251 755.777 338.251 Q749.967 338.251 746.889 333.668 Q743.833 329.061 743.833 320.334 Q743.833 311.584 746.889 307.001 Q749.967 302.395 755.777 302.395 Z" fill="#000000" fill-rule="nonzero" fill-opacity="1" /><path clip-path="url(#clip730)" d="M776.078 336.862 L776.078 332.603 Q777.838 333.436 779.643 333.876 Q781.449 334.316 783.185 334.316 Q787.814 334.316 790.245 331.214 Q792.699 328.089 793.046 321.746 Q791.703 323.737 789.643 324.802 Q787.583 325.867 785.083 325.867 Q779.898 325.867 776.865 322.742 Q773.856 319.594 773.856 314.154 Q773.856 308.83 777.004 305.612 Q780.152 302.395 785.384 302.395 Q791.379 302.395 794.527 307.001 Q797.699 311.584 797.699 320.334 Q797.699 328.506 793.81 333.39 Q789.944 338.251 783.393 338.251 Q781.634 338.251 779.828 337.904 Q778.023 337.557 776.078 336.862 M785.384 322.209 Q788.532 322.209 790.361 320.057 Q792.212 317.904 792.212 314.154 Q792.212 310.427 790.361 308.274 Q788.532 306.098 785.384 306.098 Q782.236 306.098 780.384 308.274 Q778.555 310.427 778.555 314.154 Q778.555 317.904 780.384 320.057 Q782.236 322.209 785.384 322.209 Z" fill="#000000" fill-rule="nonzero" fill-opacity="1" /><path clip-path="url(#clip730)" d="M827.675 323.552 L827.675 325.635 L808.092 325.635 Q808.37 330.033 810.731 332.348 Q813.115 334.64 817.351 334.64 Q819.805 334.64 822.097 334.038 Q824.411 333.436 826.68 332.233 L826.68 336.26 Q824.388 337.232 821.981 337.742 Q819.573 338.251 817.097 338.251 Q810.893 338.251 807.259 334.64 Q803.648 331.029 803.648 324.871 Q803.648 318.506 807.074 314.779 Q810.523 311.029 816.356 311.029 Q821.587 311.029 824.62 314.409 Q827.675 317.765 827.675 323.552 M823.416 322.302 Q823.37 318.807 821.448 316.723 Q819.55 314.64 816.402 314.64 Q812.837 314.64 810.685 316.654 Q808.555 318.668 808.231 322.325 L823.416 322.302 Z" fill="#000000" fill-rule="nonzero" fill-opacity="1" /><path clip-path="url(#clip730)" d="M832.513 322.696 L844.99 322.696 L844.99 326.492 L832.513 326.492 L832.513 322.696 Z" fill="#000000" fill-rule="nonzero" fill-opacity="1" /><path clip-path="url(#clip730)" d="M862.374 306.098 Q858.763 306.098 856.934 309.663 Q855.129 313.205 855.129 320.334 Q855.129 327.441 856.934 331.006 Q858.763 334.547 862.374 334.547 Q866.008 334.547 867.814 331.006 Q869.643 327.441 869.643 320.334 Q869.643 313.205 867.814 309.663 Q866.008 306.098 862.374 306.098 M862.374 302.395 Q868.184 302.395 871.24 307.001 Q874.319 311.584 874.319 320.334 Q874.319 329.061 871.24 333.668 Q868.184 338.251 862.374 338.251 Q856.564 338.251 853.485 333.668 Q850.43 329.061 850.43 320.334 Q850.43 311.584 853.485 307.001 Q856.564 302.395 862.374 302.395 Z" fill="#000000" fill-rule="nonzero" fill-opacity="1" /><path clip-path="url(#clip730)" d="M881.356 303.02 L903.578 303.02 L903.578 305.01 L891.031 337.58 L886.147 337.58 L897.953 306.955 L881.356 306.955 L881.356 303.02 Z" fill="#000000" fill-rule="nonzero" fill-opacity="1" /><path clip-path="url(#clip730)" d="M455.796 392.876 L588.142 392.876 L588.142 351.404 L455.796 351.404 L455.796 392.876  Z" fill="#d52628" fill-rule="evenodd" fill-opacity="0.45"/>
<polyline clip-path="url(#clip730)" style="stroke:#d52628; stroke-linecap:round; stroke-linejoin:round; stroke-width:4; stroke-opacity:1; fill:none" points="455.796,351.404 588.142,351.404 "/>
<path clip-path="url(#clip730)" d="M610.871 385.485 L618.51 385.485 L618.51 359.119 L610.2 360.786 L610.2 356.526 L618.463 354.86 L623.139 354.86 L623.139 385.485 L630.778 385.485 L630.778 389.42 L610.871 389.42 L610.871 385.485 Z" fill="#000000" fill-rule="nonzero" fill-opacity="1" /><path clip-path="url(#clip730)" d="M640.223 383.54 L645.107 383.54 L645.107 389.42 L640.223 389.42 L640.223 383.54 Z" fill="#000000" fill-rule="nonzero" fill-opacity="1" /><path clip-path="url(#clip730)" d="M665.292 373.008 Q661.959 373.008 660.037 374.79 Q658.139 376.573 658.139 379.698 Q658.139 382.823 660.037 384.605 Q661.959 386.387 665.292 386.387 Q668.625 386.387 670.546 384.605 Q672.468 382.799 672.468 379.698 Q672.468 376.573 670.546 374.79 Q668.648 373.008 665.292 373.008 M660.616 371.017 Q657.607 370.276 655.917 368.216 Q654.25 366.156 654.25 363.193 Q654.25 359.05 657.19 356.642 Q660.153 354.235 665.292 354.235 Q670.454 354.235 673.394 356.642 Q676.333 359.05 676.333 363.193 Q676.333 366.156 674.644 368.216 Q672.977 370.276 669.991 371.017 Q673.371 371.804 675.246 374.096 Q677.144 376.387 677.144 379.698 Q677.144 384.721 674.065 387.406 Q671.009 390.091 665.292 390.091 Q659.574 390.091 656.496 387.406 Q653.44 384.721 653.44 379.698 Q653.44 376.387 655.338 374.096 Q657.236 371.804 660.616 371.017 M658.903 363.633 Q658.903 366.318 660.57 367.823 Q662.259 369.327 665.292 369.327 Q668.301 369.327 669.991 367.823 Q671.704 366.318 671.704 363.633 Q671.704 360.948 669.991 359.443 Q668.301 357.938 665.292 357.938 Q662.259 357.938 660.57 359.443 Q658.903 360.948 658.903 363.633 Z" fill="#000000" fill-rule="nonzero" fill-opacity="1" /><path clip-path="url(#clip730)" d="M684.273 354.86 L706.495 354.86 L706.495 356.85 L693.949 389.42 L689.065 389.42 L700.87 358.795 L684.273 358.795 L684.273 354.86 Z" fill="#000000" fill-rule="nonzero" fill-opacity="1" /><path clip-path="url(#clip730)" d="M728.463 358.934 L716.657 377.383 L728.463 377.383 L728.463 358.934 M727.236 354.86 L733.116 354.86 L733.116 377.383 L738.046 377.383 L738.046 381.272 L733.116 381.272 L733.116 389.42 L728.463 389.42 L728.463 381.272 L712.861 381.272 L712.861 376.758 L727.236 354.86 Z" fill="#000000" fill-rule="nonzero" fill-opacity="1" /><path clip-path="url(#clip730)" d="M758.625 358.934 L746.819 377.383 L758.625 377.383 L758.625 358.934 M757.398 354.86 L763.277 354.86 L763.277 377.383 L768.208 377.383 L768.208 381.272 L763.277 381.272 L763.277 389.42 L758.625 389.42 L758.625 381.272 L743.023 381.272 L743.023 376.758 L757.398 354.86 Z" fill="#000000" fill-rule="nonzero" fill-opacity="1" /><path clip-path="url(#clip730)" d="M774.759 354.86 L796.981 354.86 L796.981 356.85 L784.435 389.42 L779.551 389.42 L791.356 358.795 L774.759 358.795 L774.759 354.86 Z" fill="#000000" fill-rule="nonzero" fill-opacity="1" /><path clip-path="url(#clip730)" d="M827.675 375.392 L827.675 377.475 L808.092 377.475 Q808.37 381.873 810.731 384.188 Q813.115 386.48 817.351 386.48 Q819.805 386.48 822.097 385.878 Q824.411 385.276 826.68 384.073 L826.68 388.1 Q824.388 389.072 821.981 389.582 Q819.573 390.091 817.097 390.091 Q810.893 390.091 807.259 386.48 Q803.648 382.869 803.648 376.711 Q803.648 370.346 807.074 366.619 Q810.523 362.869 816.356 362.869 Q821.587 362.869 824.62 366.249 Q827.675 369.605 827.675 375.392 M823.416 374.142 Q823.37 370.647 821.448 368.563 Q819.55 366.48 816.402 366.48 Q812.837 366.48 810.685 368.494 Q808.555 370.508 808.231 374.165 L823.416 374.142 Z" fill="#000000" fill-rule="nonzero" fill-opacity="1" /><path clip-path="url(#clip730)" d="M832.513 374.536 L844.99 374.536 L844.99 378.332 L832.513 378.332 L832.513 374.536 Z" fill="#000000" fill-rule="nonzero" fill-opacity="1" /><path clip-path="url(#clip730)" d="M862.374 357.938 Q858.763 357.938 856.934 361.503 Q855.129 365.045 855.129 372.174 Q855.129 379.281 856.934 382.846 Q858.763 386.387 862.374 386.387 Q866.008 386.387 867.814 382.846 Q869.643 379.281 869.643 372.174 Q869.643 365.045 867.814 361.503 Q866.008 357.938 862.374 357.938 M862.374 354.235 Q868.184 354.235 871.24 358.841 Q874.319 363.424 874.319 372.174 Q874.319 380.901 871.24 385.508 Q868.184 390.091 862.374 390.091 Q856.564 390.091 853.485 385.508 Q850.43 380.901 850.43 372.174 Q850.43 363.424 853.485 358.841 Q856.564 354.235 862.374 354.235 Z" fill="#000000" fill-rule="nonzero" fill-opacity="1" /><path clip-path="url(#clip730)" d="M881.356 354.86 L903.578 354.86 L903.578 356.85 L891.031 389.42 L886.147 389.42 L897.953 358.795 L881.356 358.795 L881.356 354.86 Z" fill="#000000" fill-rule="nonzero" fill-opacity="1" /><path clip-path="url(#clip730)" d="M455.796 444.716 L588.142 444.716 L588.142 403.244 L455.796 403.244 L455.796 444.716  Z" fill="#9466bd" fill-rule="evenodd" fill-opacity="0.45"/>
<polyline clip-path="url(#clip730)" style="stroke:#9466bd; stroke-linecap:round; stroke-linejoin:round; stroke-width:4; stroke-opacity:1; fill:none" points="455.796,403.244 588.142,403.244 "/>
<path clip-path="url(#clip730)" d="M625.824 422.626 Q629.181 423.343 631.056 425.612 Q632.954 427.88 632.954 431.213 Q632.954 436.329 629.436 439.13 Q625.917 441.931 619.436 441.931 Q617.26 441.931 614.945 441.491 Q612.653 441.075 610.2 440.218 L610.2 435.704 Q612.144 436.838 614.459 437.417 Q616.774 437.996 619.297 437.996 Q623.695 437.996 625.987 436.26 Q628.301 434.524 628.301 431.213 Q628.301 428.158 626.149 426.445 Q624.019 424.709 620.2 424.709 L616.172 424.709 L616.172 420.866 L620.385 420.866 Q623.834 420.866 625.662 419.501 Q627.491 418.112 627.491 415.519 Q627.491 412.857 625.593 411.445 Q623.718 410.01 620.2 410.01 Q618.278 410.01 616.079 410.427 Q613.88 410.843 611.241 411.723 L611.241 407.556 Q613.903 406.815 616.218 406.445 Q618.556 406.075 620.616 406.075 Q625.94 406.075 629.042 408.505 Q632.144 410.913 632.144 415.033 Q632.144 417.903 630.5 419.894 Q628.857 421.862 625.824 422.626 Z" fill="#000000" fill-rule="nonzero" fill-opacity="1" /><path clip-path="url(#clip730)" d="M641.82 435.38 L646.704 435.38 L646.704 441.26 L641.82 441.26 L641.82 435.38 Z" fill="#000000" fill-rule="nonzero" fill-opacity="1" /><path clip-path="url(#clip730)" d="M671.056 422.626 Q674.412 423.343 676.287 425.612 Q678.185 427.88 678.185 431.213 Q678.185 436.329 674.667 439.13 Q671.148 441.931 664.667 441.931 Q662.491 441.931 660.176 441.491 Q657.884 441.075 655.431 440.218 L655.431 435.704 Q657.375 436.838 659.69 437.417 Q662.005 437.996 664.528 437.996 Q668.926 437.996 671.218 436.26 Q673.533 434.524 673.533 431.213 Q673.533 428.158 671.38 426.445 Q669.25 424.709 665.431 424.709 L661.403 424.709 L661.403 420.866 L665.616 420.866 Q669.065 420.866 670.894 419.501 Q672.722 418.112 672.722 415.519 Q672.722 412.857 670.824 411.445 Q668.949 410.01 665.431 410.01 Q663.509 410.01 661.31 410.427 Q659.111 410.843 656.472 411.723 L656.472 407.556 Q659.134 406.815 661.449 406.445 Q663.787 406.075 665.847 406.075 Q671.171 406.075 674.273 408.505 Q677.375 410.913 677.375 415.033 Q677.375 417.903 675.732 419.894 Q674.088 421.862 671.056 422.626 Z" fill="#000000" fill-rule="nonzero" fill-opacity="1" /><path clip-path="url(#clip730)" d="M701.218 422.626 Q704.574 423.343 706.449 425.612 Q708.347 427.88 708.347 431.213 Q708.347 436.329 704.829 439.13 Q701.31 441.931 694.829 441.931 Q692.653 441.931 690.338 441.491 Q688.046 441.075 685.593 440.218 L685.593 435.704 Q687.537 436.838 689.852 437.417 Q692.167 437.996 694.69 437.996 Q699.088 437.996 701.38 436.26 Q703.694 434.524 703.694 431.213 Q703.694 428.158 701.542 426.445 Q699.412 424.709 695.593 424.709 L691.565 424.709 L691.565 420.866 L695.778 420.866 Q699.227 420.866 701.056 419.501 Q702.884 418.112 702.884 415.519 Q702.884 412.857 700.986 411.445 Q699.111 410.01 695.593 410.01 Q693.671 410.01 691.472 410.427 Q689.273 410.843 686.634 411.723 L686.634 407.556 Q689.296 406.815 691.611 406.445 Q693.949 406.075 696.009 406.075 Q701.333 406.075 704.435 408.505 Q707.537 410.913 707.537 415.033 Q707.537 417.903 705.893 419.894 Q704.25 421.862 701.218 422.626 Z" fill="#000000" fill-rule="nonzero" fill-opacity="1" /><path clip-path="url(#clip730)" d="M731.379 422.626 Q734.736 423.343 736.611 425.612 Q738.509 427.88 738.509 431.213 Q738.509 436.329 734.991 439.13 Q731.472 441.931 724.991 441.931 Q722.815 441.931 720.5 441.491 Q718.208 441.075 715.755 440.218 L715.755 435.704 Q717.699 436.838 720.014 437.417 Q722.329 437.996 724.852 437.996 Q729.25 437.996 731.541 436.26 Q733.856 434.524 733.856 431.213 Q733.856 428.158 731.704 426.445 Q729.574 424.709 725.754 424.709 L721.727 424.709 L721.727 420.866 L725.94 420.866 Q729.389 420.866 731.217 419.501 Q733.046 418.112 733.046 415.519 Q733.046 412.857 731.148 411.445 Q729.273 410.01 725.754 410.01 Q723.833 410.01 721.634 410.427 Q719.435 410.843 716.796 411.723 L716.796 407.556 Q719.458 406.815 721.773 406.445 Q724.111 406.075 726.171 406.075 Q731.495 406.075 734.597 408.505 Q737.699 410.913 737.699 415.033 Q737.699 417.903 736.055 419.894 Q734.412 421.862 731.379 422.626 Z" fill="#000000" fill-rule="nonzero" fill-opacity="1" /><path clip-path="url(#clip730)" d="M761.541 422.626 Q764.898 423.343 766.773 425.612 Q768.671 427.88 768.671 431.213 Q768.671 436.329 765.152 439.13 Q761.634 441.931 755.152 441.931 Q752.977 441.931 750.662 441.491 Q748.37 441.075 745.916 440.218 L745.916 435.704 Q747.861 436.838 750.176 437.417 Q752.49 437.996 755.014 437.996 Q759.412 437.996 761.703 436.26 Q764.018 434.524 764.018 431.213 Q764.018 428.158 761.865 426.445 Q759.736 424.709 755.916 424.709 L751.889 424.709 L751.889 420.866 L756.102 420.866 Q759.551 420.866 761.379 419.501 Q763.208 418.112 763.208 415.519 Q763.208 412.857 761.31 411.445 Q759.435 410.01 755.916 410.01 Q753.995 410.01 751.796 410.427 Q749.597 410.843 746.958 411.723 L746.958 407.556 Q749.62 406.815 751.935 406.445 Q754.273 406.075 756.333 406.075 Q761.657 406.075 764.759 408.505 Q767.861 410.913 767.861 415.033 Q767.861 417.903 766.217 419.894 Q764.574 421.862 761.541 422.626 Z" fill="#000000" fill-rule="nonzero" fill-opacity="1" /><path clip-path="url(#clip730)" d="M791.703 422.626 Q795.06 423.343 796.935 425.612 Q798.833 427.88 798.833 431.213 Q798.833 436.329 795.314 439.13 Q791.796 441.931 785.314 441.931 Q783.138 441.931 780.824 441.491 Q778.532 441.075 776.078 440.218 L776.078 435.704 Q778.023 436.838 780.338 437.417 Q782.652 437.996 785.175 437.996 Q789.574 437.996 791.865 436.26 Q794.18 434.524 794.18 431.213 Q794.18 428.158 792.027 426.445 Q789.898 424.709 786.078 424.709 L782.05 424.709 L782.05 420.866 L786.263 420.866 Q789.712 420.866 791.541 419.501 Q793.37 418.112 793.37 415.519 Q793.37 412.857 791.472 411.445 Q789.597 410.01 786.078 410.01 Q784.157 410.01 781.958 410.427 Q779.759 410.843 777.12 411.723 L777.12 407.556 Q779.782 406.815 782.097 406.445 Q784.435 406.075 786.495 406.075 Q791.819 406.075 794.921 408.505 Q798.023 410.913 798.023 415.033 Q798.023 417.903 796.379 419.894 Q794.736 421.862 791.703 422.626 Z" fill="#000000" fill-rule="nonzero" fill-opacity="1" /><path clip-path="url(#clip730)" d="M829.272 427.232 L829.272 429.315 L809.689 429.315 Q809.967 433.713 812.328 436.028 Q814.712 438.32 818.948 438.32 Q821.402 438.32 823.694 437.718 Q826.009 437.116 828.277 435.913 L828.277 439.94 Q825.985 440.912 823.578 441.422 Q821.171 441.931 818.694 441.931 Q812.49 441.931 808.856 438.32 Q805.245 434.709 805.245 428.551 Q805.245 422.186 808.671 418.459 Q812.12 414.709 817.953 414.709 Q823.185 414.709 826.217 418.089 Q829.272 421.445 829.272 427.232 M825.013 425.982 Q824.967 422.487 823.046 420.403 Q821.147 418.32 817.999 418.32 Q814.435 418.32 812.282 420.334 Q810.152 422.348 809.828 426.005 L825.013 425.982 Z" fill="#000000" fill-rule="nonzero" fill-opacity="1" /><path clip-path="url(#clip730)" d="M834.11 426.376 L846.587 426.376 L846.587 430.172 L834.11 430.172 L834.11 426.376 Z" fill="#000000" fill-rule="nonzero" fill-opacity="1" /><path clip-path="url(#clip730)" d="M863.971 409.778 Q860.36 409.778 858.532 413.343 Q856.726 416.885 856.726 424.014 Q856.726 431.121 858.532 434.686 Q860.36 438.227 863.971 438.227 Q867.606 438.227 869.411 434.686 Q871.24 431.121 871.24 424.014 Q871.24 416.885 869.411 413.343 Q867.606 409.778 863.971 409.778 M863.971 406.075 Q869.781 406.075 872.837 410.681 Q875.916 415.264 875.916 424.014 Q875.916 432.741 872.837 437.348 Q869.781 441.931 863.971 441.931 Q858.161 441.931 855.083 437.348 Q852.027 432.741 852.027 424.014 Q852.027 415.264 855.083 410.681 Q858.161 406.075 863.971 406.075 Z" fill="#000000" fill-rule="nonzero" fill-opacity="1" /><path clip-path="url(#clip730)" d="M882.953 406.7 L905.175 406.7 L905.175 408.69 L892.629 441.26 L887.744 441.26 L899.55 410.635 L882.953 410.635 L882.953 406.7 Z" fill="#000000" fill-rule="nonzero" fill-opacity="1" /></svg>
