<svg class="main-svg" xmlns="http://www.w3.org/2000/svg" xmlns:xlink="http://www.w3.org/1999/xlink" width="700" height="500" style="" viewBox="0 0 700 500"><rect x="0" y="0" width="700" height="500" style="fill: rgb(255, 255, 255); fill-opacity: 1;"/><defs id="defs-623e62"><g class="clips"><clipPath id="clip623e62xyplot" class="plotclip"><rect width="420" height="292"/></clipPath><clipPath class="axesclip" id="clip623e62x"><rect x="180" y="0" width="420" height="500"/></clipPath><clipPath class="axesclip" id="clip623e62y"><rect x="0" y="100" width="700" height="292"/></clipPath><clipPath class="axesclip" id="clip623e62xy"><rect x="180" y="100" width="420" height="292"/></clipPath></g><g class="gradients"/></defs><g class="bglayer"/><g class="layer-below"><g class="imagelayer"/><g class="shapelayer"/></g><g class="cartesianlayer"><g class="subplot xy"><g class="layer-subplot"><g class="shapelayer"/><g class="imagelayer"/></g><g class="gridlayer"><g class="x"/><g class="y"/></g><g class="zerolinelayer"/><path class="xlines-below"/><path class="ylines-below"/><g class="overlines-below"/><g class="xaxislayer-below"/><g class="yaxislayer-below"/><g class="overaxes-below"/><g class="plot" transform="translate(180,100)" clip-path="url('#clip623e62xyplot')"><g class="scatterlayer mlayer"><g class="trace scatter trace32fccb" style="stroke-miterlimit: 2; opacity: 1;"><g class="fills"/><g class="errorbars"/><g class="lines"><path class="js-line" d="M0,271.9L3.25,176.1L3.79,167.23L9.14,112.01L11.52,99.42L15.16,88.15L20.32,81.51L31.31,79.89L37.16,80.89L90.79,95.49L100.54,98.43L170.57,122.12L178.21,125.05L230.35,148.11L235.77,150.92L267.03,170.07L270.58,172.72L287.34,188.08L289.4,190.55L297.73,204.78L298.48,207.05L299.73,215.57" style="vector-effect: non-scaling-stroke; fill: none; stroke: rgb(182, 147, 204); stroke-opacity: 1; stroke-width: 9px; opacity: 1;"/></g><g class="points"/><g class="text"/></g><g class="trace scatter tracedadc3e" style="stroke-miterlimit: 2; opacity: 1;"><g class="fills"/><g class="errorbars"/><g class="lines"><path class="js-line" d="M299.73,215.57L297.76,225.9L296.91,227.88L288.9,239.09L287.11,240.85L271.23,252.31L268.52,253.82L243.37,264.85L239.83,266.09L204.66,275.93L200.44,276.88L151.72,285.39L147.25,285.99L109.02,290.9" style="vector-effect: non-scaling-stroke; fill: none; stroke: rgb(182, 147, 204); stroke-opacity: 1; stroke-width: 9px; opacity: 1; stroke-dasharray: 27px, 27px;"/></g><g class="points"/><g class="text"/></g><g class="trace scatter trace7602d1" style="stroke-miterlimit: 2; opacity: 1;"><g class="fills"/><g class="errorbars"/><g class="lines"><path class="js-line" d="M109.02,290.9L114.12,291.4L123.03,291.6L402.96,291.98L409.45,291.98L420,291.98" style="vector-effect: non-scaling-stroke; fill: none; stroke: rgb(182, 147, 204); stroke-opacity: 1; stroke-width: 9px; opacity: 1;"/></g><g class="points"/><g class="text"/></g><g class="trace scatter trace8ca5c9" style="stroke-miterlimit: 2; opacity: 1;"><g class="fills"/><g class="errorbars"/><g class="lines"><path class="js-line" d="M0,267.74L3.25,152.1L3.79,141.39L9.14,74.73L11.52,59.54L15.16,45.93L20.32,37.91L25.76,35.74L31.31,35.96L57.19,43.23L64.81,45.75L137.53,72.67L146.16,76.25L199.62,101.03L206.26,104.52L245.87,128.43L250.57,131.76L273.91,151.18L277.02,154.32L291.27,172.49L292.94,175.4L299.04,192.17L299.44,194.84L299.73,199.74" style="vector-effect: non-scaling-stroke; fill: none; stroke: rgb(228, 128, 128); stroke-opacity: 1; stroke-width: 9px; opacity: 1;"/></g><g class="points"/><g class="text"/></g><g class="trace scatter traceb4b45a" style="stroke-miterlimit: 2; opacity: 1;"><g class="fills"/><g class="errorbars"/><g class="lines"><path class="js-line" d="M299.73,199.74L297.76,212.22L296.91,214.6L288.9,228.13L287.11,230.25L273.84,242.22L271.23,244.09L250.2,256.12L246.83,257.69L216.98,268.97L212.94,270.21L169.72,280.77L165.22,281.63L109.02,290.68" style="vector-effect: non-scaling-stroke; fill: none; stroke: rgb(228, 128, 128); stroke-opacity: 1; stroke-width: 9px; opacity: 1; stroke-dasharray: 27px, 27px;"/></g><g class="points"/><g class="text"/></g><g class="trace scatter traced7f49d" style="stroke-miterlimit: 2; opacity: 1;"><g class="fills"/><g class="errorbars"/><g class="lines"><path class="js-line" d="M109.02,290.68L114.12,291.28L123.03,291.52L350.81,291.97L357.4,291.97L420,291.98" style="vector-effect: non-scaling-stroke; fill: none; stroke: rgb(228, 128, 128); stroke-opacity: 1; stroke-width: 9px; opacity: 1;"/></g><g class="points"/><g class="text"/></g></g></g><g class="overplot"/><path class="xlines-above crisp" d="M174.5,394.75H600" style="fill: none; stroke-width: 5.5px; stroke: rgb(0, 0, 0); stroke-opacity: 1;"/><path class="ylines-above crisp" d="M177.25,100V392" style="fill: none; stroke-width: 5.5px; stroke: rgb(0, 0, 0); stroke-opacity: 1;"/><g class="overlines-above"/><g class="xaxislayer-above"><g class="xtick"><text text-anchor="middle" x="0" y="435.9" transform="translate(180,0)" style="font-family: sans-serif; font-size: 32px; fill: rgb(0, 0, 0); fill-opacity: 1; white-space: pre;">0</text></g><g class="xtick"><text text-anchor="middle" x="0" y="435.9" transform="translate(320,0)" style="font-family: sans-serif; font-size: 32px; fill: rgb(0, 0, 0); fill-opacity: 1; white-space: pre;">0.5</text></g><g class="xtick"><text text-anchor="middle" x="0" y="435.9" transform="translate(460,0)" style="font-family: sans-serif; font-size: 32px; fill: rgb(0, 0, 0); fill-opacity: 1; white-space: pre;">1</text></g><g class="xtick"><text text-anchor="middle" x="0" y="435.9" transform="translate(600,0)" style="font-family: sans-serif; font-size: 32px; fill: rgb(0, 0, 0); fill-opacity: 1; white-space: pre;">1.5</text></g></g><g class="yaxislayer-above"><g class="ytick"><text text-anchor="end" x="168.1" y="11.2" transform="translate(0,392)" style="font-family: sans-serif; font-size: 32px; fill: rgb(0, 0, 0); fill-opacity: 1; white-space: pre;">0</text></g><g class="ytick"><text text-anchor="end" x="168.1" y="11.2" transform="translate(0,246)" style="font-family: sans-serif; font-size: 32px; fill: rgb(0, 0, 0); fill-opacity: 1; white-space: pre;">0.5</text></g><g class="ytick"><text text-anchor="end" x="168.1" y="11.2" transform="translate(0,100)" style="font-family: sans-serif; font-size: 32px; fill: rgb(0, 0, 0); fill-opacity: 1; white-space: pre;">1</text></g></g><g class="overaxes-above"/></g></g><g class="polarlayer"/><g class="ternarylayer"/><g class="geolayer"/><g class="funnelarealayer"/><g class="pielayer"/><g class="treemaplayer"/><g class="sunburstlayer"/><g class="glimages"/><defs id="topdefs-623e62"><g class="clips"/></defs><g class="layer-above"><g class="imagelayer"/><g class="shapelayer"/></g><g class="infolayer"><g class="g-gtitle"/><g class="g-xtitle" transform="translate(0,0.5343750000000114)"><text class="xtitle" x="390" y="487.60625" text-anchor="middle" style="font-family: sans-serif; font-size: 41px; fill: rgb(0, 0, 0); opacity: 1; font-weight: normal; white-space: pre;">Damage rate (min​<tspan style="font-size:70%" dy="-0.6em">-1</tspan><tspan dy="0.42em">​</tspan>)</text></g><g class="g-ytitle"><text class="ytitle" transform="rotate(-90,73.503125,246)" x="73.503125" y="246" text-anchor="middle" style="font-family: sans-serif; font-size: 41px; fill: rgb(0, 0, 0); opacity: 1; font-weight: normal; white-space: pre;">Rtc protein (μM)</text></g></g></svg>