<svg class="main-svg" xmlns="http://www.w3.org/2000/svg" xmlns:xlink="http://www.w3.org/1999/xlink" width="700" height="500" style="" viewBox="0 0 700 500"><rect x="0" y="0" width="700" height="500" style="fill: rgb(255, 255, 255); fill-opacity: 1;"/><defs id="defs-d994f6"><g class="clips"><clipPath id="clipd994f6xyplot" class="plotclip"><rect width="564" height="355"/></clipPath><clipPath class="axesclip" id="clipd994f6x"><rect x="86" y="0" width="564" height="500"/></clipPath><clipPath class="axesclip" id="clipd994f6y"><rect x="0" y="60" width="700" height="355"/></clipPath><clipPath class="axesclip" id="clipd994f6xy"><rect x="86" y="60" width="564" height="355"/></clipPath></g><g class="gradients"/></defs><g class="bglayer"/><g class="layer-below"><g class="imagelayer"/><g class="shapelayer"/></g><g class="cartesianlayer"><g class="subplot xy"><g class="layer-subplot"><g class="shapelayer"/><g class="imagelayer"/></g><g class="gridlayer"><g class="x"/><g class="y"/></g><g class="zerolinelayer"><path class="yzl zl crisp" transform="translate(0,400.25)" d="M86,0h564" style="stroke: rgb(255, 255, 255); stroke-opacity: 1; stroke-width: 2px;"/></g><path class="xlines-below"/><path class="ylines-below"/><g class="overlines-below"/><g class="xaxislayer-below"/><g class="yaxislayer-below"/><g class="overaxes-below"/><g class="plot" transform="translate(86,60)" clip-path="url('#clipd994f6xyplot')"><g class="scatterlayer mlayer"><g class="trace scatter trace32b821" style="stroke-miterlimit: 2; opacity: 1;"><g class="fills"/><g class="errorbars"/><g class="lines"><path class="js-line" d="M0,17.75L3.23,18.7L3.75,18.78L97.94,32.17L109.56,34.09L196.27,50.26L207.53,52.67L268.06,67.42L276.98,69.93L323.55,85.18L330.17,87.75L358.58,100.73L363.35,103.35L382.8,116.49L385.85,119.13L395.36,129.72L397.09,132.37L401.57,142.99L402.1,145.65L402.49,150.62" style="vector-effect: non-scaling-stroke; fill: none; stroke: rgb(150, 150, 150); stroke-opacity: 1; stroke-width: 6.5px; opacity: 1;"/></g><g class="points"/><g class="text"/></g><g class="trace scatter trace26f58a" style="stroke-miterlimit: 2; opacity: 1;"><g class="fills"/><g class="errorbars"/><g class="lines"><path class="js-line" d="M402.49,150.62L400.78,161.25L399.84,163.9L394.14,174.52L392.26,177.17L380.23,190.4L377.33,193.04L356.81,208.86L352.9,211.49L322.05,229.84L317.19,232.45L269.16,255.9L263.43,258.5L159.1,305.51L154.72,308.21L148.09,313.7L146.52,316.54L146.4,317.54" style="vector-effect: non-scaling-stroke; fill: none; stroke: rgb(150, 150, 150); stroke-opacity: 1; stroke-width: 6.5px; opacity: 1; stroke-dasharray: 19.5px, 19.5px;"/></g><g class="points"/><g class="text"/></g><g class="trace scatter tracec677df" style="stroke-miterlimit: 2; opacity: 1;"><g class="fills"/><g class="errorbars"/><g class="lines"><path class="js-line" d="M146.4,317.54L147.8,320.47L153.24,323.52L165.21,326.51L182.42,328.83L243.63,332.64L256.94,333.12L388.38,335.77L397.96,335.89L564,337.22" style="vector-effect: non-scaling-stroke; fill: none; stroke: rgb(150, 150, 150); stroke-opacity: 1; stroke-width: 6.5px; opacity: 1;"/></g><g class="points"/><g class="text"/></g><g class="trace scatter trace3dd448" style="stroke-miterlimit: 2; opacity: 1;"><g class="fills"/><g class="errorbars"/><g class="lines"><path class="js-line" d="M0,17.75L3.35,18.75L3.9,18.83L110.6,34.72L122.29,36.76L197.47,51.45L209,54.01L270.66,69.68L279.68,72.35L319.41,85.85L326.29,88.58L355.59,102.37L360.45,105.15L376.67,116.32L379.94,119.12L390.08,130.37L391.9,133.18L396.45,144.46L396.94,147.29L397.2,151.41" style="vector-effect: non-scaling-stroke; fill: none; stroke: rgb(161, 64, 63); stroke-opacity: 1; stroke-width: 6.5px; opacity: 1;"/></g><g class="points"/><g class="text"/></g><g class="trace scatter trace0c981a" style="stroke-miterlimit: 2; opacity: 1;"><g class="fills"/><g class="errorbars"/><g class="lines"><path class="js-line" d="M397.2,151.41L395.31,162.69L394.27,165.51L387.96,176.77L385.87,179.58L372.59,193.6L369.4,196.4L346.85,213.15L342.56,215.93L308.83,235.34L303.52,238.1L251.45,262.91L245.28,265.66L159.2,304.8L154.3,307.77L146.87,313.94L145.4,317.21" style="vector-effect: non-scaling-stroke; fill: none; stroke: rgb(161, 64, 63); stroke-opacity: 1; stroke-width: 6.5px; opacity: 1; stroke-dasharray: 19.5px, 19.5px;"/></g><g class="points"/><g class="text"/></g><g class="trace scatter trace32a7f4" style="stroke-miterlimit: 2; opacity: 1;"><g class="fills"/><g class="errorbars"/><g class="lines"><path class="js-line" d="M145.39,317.5L147.11,320.77L152.89,323.76L168.39,327.22L176,328.25L217.53,331.53L223.89,331.85L316.3,334.69L321.84,334.8L533.62,337.06L541.96,337.11L564,337.24" style="vector-effect: non-scaling-stroke; fill: none; stroke: rgb(161, 64, 63); stroke-opacity: 1; stroke-width: 6.5px; opacity: 1;"/></g><g class="points"/><g class="text"/></g><g class="trace scatter tracef7eb09" style="stroke-miterlimit: 2; opacity: 1;"><g class="fills"/><g class="errorbars"/><g class="lines"><path class="js-line" d="M0,17.75L3.18,18.74L3.69,18.82L120.81,36.84L133.23,39.1L207.15,54.27L218.25,56.87L277.35,72.75L285.95,75.44L323.63,89.09L330.12,91.85L357.5,105.76L361.99,108.56L376.79,119.8L379.73,122.62L388.58,133.93L390.09,136.77L393.47,148.1L393.68,150.94L393.69,151.95" style="vector-effect: non-scaling-stroke; fill: none; stroke: rgb(226, 90, 88); stroke-opacity: 1; stroke-width: 6.5px; opacity: 1;"/></g><g class="points"/><g class="text"/></g><g class="trace scatter trace76f6ee" style="stroke-miterlimit: 2; opacity: 1;"><g class="fills"/><g class="errorbars"/><g class="lines"><path class="js-line" d="M393.69,151.95L391.79,163.29L390.75,166.12L384.43,177.42L382.34,180.25L369.05,194.33L365.85,197.14L343.28,213.95L338.99,216.74L305.22,236.23L299.91,239L247.77,263.93L241.58,266.7L160.94,303.39L155.71,306.4L147.28,312.68L144.99,315.99L144.7,317.52" style="vector-effect: non-scaling-stroke; fill: none; stroke: rgb(226, 90, 88); stroke-opacity: 1; stroke-width: 6.5px; opacity: 1; stroke-dasharray: 19.5px, 19.5px;"/></g><g class="points"/><g class="text"/></g><g class="trace scatter trace858c2a" style="stroke-miterlimit: 2; opacity: 1;"><g class="fills"/><g class="errorbars"/><g class="lines"><path class="js-line" d="M144.7,317.52L146.17,320.55L150.25,323.02L166.14,326.99L171.54,327.79L212.14,331.29L216.94,331.55L300.41,334.39L305.13,334.49L489.63,336.77L497.87,336.83L564,337.24" style="vector-effect: non-scaling-stroke; fill: none; stroke: rgb(226, 90, 88); stroke-opacity: 1; stroke-width: 6.5px; opacity: 1;"/></g><g class="points"/><g class="text"/></g><g class="trace scatter tracee87298" style="stroke-miterlimit: 2; opacity: 1;"><g class="fills"/><g class="errorbars"/><g class="lines"><path class="js-line" d="M0,17.75L3.42,18.82L3.98,18.91L116.23,36.85L128.4,39.15L201.29,54.6L212.24,57.24L270.58,73.4L279.06,76.13L316.24,89.99L322.64,92.79L349.63,106.89L354.05,109.73L368.61,121.12L371.49,123.98L380.13,135.43L381.59,138.29L384.81,149.76L384.98,152.63L384.98,153.17" style="vector-effect: non-scaling-stroke; fill: none; stroke: rgb(255, 156, 155); stroke-opacity: 1; stroke-width: 6.5px; opacity: 1;"/></g><g class="points"/><g class="text"/></g><g class="trace scatter trace8d9051" style="stroke-miterlimit: 2; opacity: 1;"><g class="fills"/><g class="errorbars"/><g class="lines"><path class="js-line" d="M384.98,153.17L383.09,164.63L382.05,167.49L375.74,178.92L373.65,181.77L360.36,196L357.17,198.84L334.57,215.82L330.27,218.64L296.45,238.33L291.13,241.14L238.84,266.37L232.64,269.19L157.74,304.04L152.47,307.21L144.55,313.72L143,316.75L142.93,317.48" style="vector-effect: non-scaling-stroke; fill: none; stroke: rgb(255, 156, 155); stroke-opacity: 1; stroke-width: 6.5px; opacity: 1; stroke-dasharray: 19.5px, 19.5px;"/></g><g class="points"/><g class="text"/></g><g class="trace scatter tracee46d7b" style="stroke-miterlimit: 2; opacity: 1;"><g class="fills"/><g class="errorbars"/><g class="lines"><path class="js-line" d="M142.93,317.48L145.51,321.45L147.94,322.8L159.83,326.22L163,326.8L195.36,330.35L198.63,330.58L261.15,333.44L264.99,333.55L391.69,335.89L398.81,335.97L564,337.25" style="vector-effect: non-scaling-stroke; fill: none; stroke: rgb(255, 156, 155); stroke-opacity: 1; stroke-width: 6.5px; opacity: 1;"/></g><g class="points"/><g class="text"/></g></g></g><g class="overplot"/><path class="xlines-above crisp" d="M83,416.5H650" style="fill: none; stroke-width: 3px; stroke: rgb(0, 0, 0); stroke-opacity: 1;"/><path class="ylines-above crisp" d="M84.5,60V415" style="fill: none; stroke-width: 3px; stroke: rgb(0, 0, 0); stroke-opacity: 1;"/><g class="overlines-above"/><g class="xaxislayer-above"><g class="xtick"><text text-anchor="middle" x="0" y="446.8" transform="translate(86,0)" style="font-family: sans-serif; font-size: 24px; fill: rgb(0, 0, 0); fill-opacity: 1; white-space: pre;">0</text></g><g class="xtick"><text text-anchor="middle" x="0" y="446.8" transform="translate(161.2,0)" style="font-family: sans-serif; font-size: 24px; fill: rgb(0, 0, 0); fill-opacity: 1; white-space: pre;">0.2</text></g><g class="xtick"><text text-anchor="middle" x="0" y="446.8" transform="translate(236.4,0)" style="font-family: sans-serif; font-size: 24px; fill: rgb(0, 0, 0); fill-opacity: 1; white-space: pre;">0.4</text></g><g class="xtick"><text text-anchor="middle" x="0" y="446.8" transform="translate(311.6,0)" style="font-family: sans-serif; font-size: 24px; fill: rgb(0, 0, 0); fill-opacity: 1; white-space: pre;">0.6</text></g><g class="xtick"><text text-anchor="middle" x="0" y="446.8" transform="translate(386.8,0)" style="font-family: sans-serif; font-size: 24px; fill: rgb(0, 0, 0); fill-opacity: 1; white-space: pre;">0.8</text></g><g class="xtick"><text text-anchor="middle" x="0" y="446.8" transform="translate(462,0)" style="font-family: sans-serif; font-size: 24px; fill: rgb(0, 0, 0); fill-opacity: 1; white-space: pre;">1</text></g><g class="xtick"><text text-anchor="middle" x="0" y="446.8" transform="translate(537.2,0)" style="font-family: sans-serif; font-size: 24px; fill: rgb(0, 0, 0); fill-opacity: 1; white-space: pre;">1.2</text></g><g class="xtick"><text text-anchor="middle" x="0" y="446.8" transform="translate(612.4,0)" style="font-family: sans-serif; font-size: 24px; fill: rgb(0, 0, 0); fill-opacity: 1; white-space: pre;">1.4</text></g></g><g class="yaxislayer-above"><g class="ytick"><text text-anchor="end" x="78.2" y="8.399999999999999" transform="translate(0,400.25)" style="font-family: sans-serif; font-size: 24px; fill: rgb(0, 0, 0); fill-opacity: 1; white-space: pre;">0</text></g><g class="ytick"><text text-anchor="end" x="78.2" y="8.399999999999999" transform="translate(0,311.87)" style="font-family: sans-serif; font-size: 24px; fill: rgb(0, 0, 0); fill-opacity: 1; white-space: pre;">5</text></g><g class="ytick"><text text-anchor="end" x="78.2" y="8.399999999999999" transform="translate(0,223.49)" style="font-family: sans-serif; font-size: 24px; fill: rgb(0, 0, 0); fill-opacity: 1; white-space: pre;">10</text></g><g class="ytick"><text text-anchor="end" x="78.2" y="8.399999999999999" transform="translate(0,135.11)" style="font-family: sans-serif; font-size: 24px; fill: rgb(0, 0, 0); fill-opacity: 1; white-space: pre;">15</text></g></g><g class="overaxes-above"/></g></g><g class="polarlayer"/><g class="ternarylayer"/><g class="geolayer"/><g class="funnelarealayer"/><g class="pielayer"/><g class="treemaplayer"/><g class="sunburstlayer"/><g class="glimages"/><defs id="topdefs-d994f6"><g class="clips"/></defs><g class="layer-above"><g class="imagelayer"/><g class="shapelayer"/></g><g class="infolayer"><g class="g-gtitle"/><g class="g-xtitle"><text class="xtitle" x="368" y="488.1125" text-anchor="middle" style="font-family: sans-serif; font-size: 29px; fill: rgb(0, 0, 0); opacity: 1; font-weight: normal; white-space: pre;">Damage rate (min​<tspan style="font-size:70%" dy="-0.6em">-1</tspan><tspan dy="0.42em">​</tspan>)</text></g><g class="g-ytitle" transform="translate(14.6435546875,0)"><text class="ytitle" transform="rotate(-90,12.356250000000003,237.5)" x="12.356250000000003" y="237.5" text-anchor="middle" style="font-family: sans-serif; font-size: 29px; fill: rgb(0, 0, 0); opacity: 1; font-weight: normal; white-space: pre;">Rh (μM)</text></g></g></svg>