<svg class="main-svg" xmlns="http://www.w3.org/2000/svg" xmlns:xlink="http://www.w3.org/1999/xlink" width="700" height="500" style="" viewBox="0 0 700 500"><rect x="0" y="0" width="700" height="500" style="fill: rgb(255, 255, 255); fill-opacity: 1;"/><defs id="defs-92d919"><g class="clips"><clipPath id="clip92d919xyplot" class="plotclip"><rect width="558" height="348"/></clipPath><clipPath class="axesclip" id="clip92d919x"><rect x="92" y="0" width="558" height="500"/></clipPath><clipPath class="axesclip" id="clip92d919y"><rect x="0" y="67" width="700" height="348"/></clipPath><clipPath class="axesclip" id="clip92d919xy"><rect x="92" y="67" width="558" height="348"/></clipPath></g><g class="gradients"/></defs><g class="bglayer"/><g class="layer-below"><g class="imagelayer"/><g class="shapelayer"/></g><g class="cartesianlayer"><g class="subplot xy"><g class="layer-subplot"><g class="shapelayer"/><g class="imagelayer"/></g><g class="gridlayer"><g class="x"/><g class="y"/></g><g class="zerolinelayer"><path class="yzl zl crisp" transform="translate(0,398.01)" d="M92,0h558" style="stroke: rgb(255, 255, 255); stroke-opacity: 1; stroke-width: 2px;"/></g><path class="xlines-below"/><path class="ylines-below"/><g class="overlines-below"/><g class="xaxislayer-below"/><g class="yaxislayer-below"/><g class="overaxes-below"/><g class="plot" transform="translate(92,67)" clip-path="url('#clip92d919xyplot')"><g class="scatterlayer mlayer"><g class="trace scatter tracebcf22d" style="stroke-miterlimit: 2; opacity: 1;"><g class="fills"/><g class="errorbars"/><g class="lines"><path class="js-line" d="M0,17.4L3.2,18.33L3.71,18.4L108.4,33.29L120.62,35.32L205.32,51.35L216.13,53.71L274.03,68.14L282.53,70.58L326.66,85.47L332.9,87.98L359.48,100.64L363.9,103.19L381.75,115.99L384.49,118.56L392.87,128.86L394.34,131.44L397.83,141.77L398.13,144.36L398.21,146.61" style="vector-effect: non-scaling-stroke; fill: none; stroke: rgb(150, 150, 150); stroke-opacity: 1; stroke-width: 6.5px; opacity: 1;"/></g><g class="points"/><g class="text"/></g><g class="trace scatter traceaef73f" style="stroke-miterlimit: 2; opacity: 1;"><g class="fills"/><g class="errorbars"/><g class="lines"><path class="js-line" d="M398.21,146.61L396.52,156.94L395.59,159.52L389.95,169.85L388.08,172.42L376.18,185.29L373.32,187.86L353.02,203.24L349.15,205.8L318.63,223.64L313.82,226.18L266.3,248.99L260.63,251.52L157.41,297.23L153.07,299.85L146.52,305.2L144.96,307.95L144.84,308.92" style="vector-effect: non-scaling-stroke; fill: none; stroke: rgb(150, 150, 150); stroke-opacity: 1; stroke-width: 6.5px; opacity: 1; stroke-dasharray: 19.5px, 19.5px;"/></g><g class="points"/><g class="text"/></g><g class="trace scatter trace8e448b" style="stroke-miterlimit: 2; opacity: 1;"><g class="fills"/><g class="errorbars"/><g class="lines"><path class="js-line" d="M144.84,308.92L146.22,311.78L151.61,314.74L163.45,317.65L180.48,319.91L241.04,323.62L254.21,324.08L393.72,326.77L403.08,326.88L558,328.07" style="vector-effect: non-scaling-stroke; fill: none; stroke: rgb(150, 150, 150); stroke-opacity: 1; stroke-width: 6.5px; opacity: 1;"/></g><g class="points"/><g class="text"/></g><g class="trace scatter trace589e93" style="stroke-miterlimit: 2; opacity: 1;"><g class="fills"/><g class="errorbars"/><g class="lines"><path class="js-line" d="M0,219.73L4.35,220.43L5.32,220.54L44.32,226.31L48.07,226.95L90.86,235.86L94.54,236.82L120.82,245.49L123.04,246.46L136.35,254.19L137.5,255.16L142.72,261.93L143.08,262.9L143.68,266.58" style="vector-effect: non-scaling-stroke; fill: none; stroke: rgb(40, 114, 109); stroke-opacity: 1; stroke-width: 6.5px; opacity: 1;"/></g><g class="points"/><g class="text"/></g><g class="trace scatter trace9843a2" style="stroke-miterlimit: 2; opacity: 1;"><g class="fills"/><g class="errorbars"/><g class="lines"><path class="js-line" d="M143.68,266.58L141.79,273.35L141.23,274.32L134.5,282.06L133.4,283.02L119.84,292.69L118.26,293.66L83.93,315.07L83.3,316.07L82.95,317.42" style="vector-effect: non-scaling-stroke; fill: none; stroke: rgb(40, 114, 109); stroke-opacity: 1; stroke-width: 6.5px; opacity: 1; stroke-dasharray: 19.5px, 19.5px;"/></g><g class="points"/><g class="text"/></g><g class="trace scatter trace15cb74" style="stroke-miterlimit: 2; opacity: 1;"><g class="fills"/><g class="errorbars"/><g class="lines"><path class="js-line" d="M82.95,317.42L84.02,319.47L85.65,320.52L92.9,322.69L99.91,323.8L142.47,326.65L151.79,326.97L273.98,328.89L279.76,328.93L558,329.98" style="vector-effect: non-scaling-stroke; fill: none; stroke: rgb(40, 114, 109); stroke-opacity: 1; stroke-width: 6.5px; opacity: 1;"/></g><g class="points"/><g class="text"/></g><g class="trace scatter trace4e3369" style="stroke-miterlimit: 2; opacity: 1;"><g class="fills"/><g class="errorbars"/><g class="lines"><path class="js-line" d="M0,253.2L5.67,253.99L6.5,254.09L53.84,262.14L56.86,262.82L82.53,270.24L84.24,270.92L96.53,277.69L97.32,278.36L101.18,283.78L101.37,284.46L101.61,286.45" style="vector-effect: non-scaling-stroke; fill: none; stroke: rgb(70, 198, 190); stroke-opacity: 1; stroke-width: 6.5px; opacity: 1;"/></g><g class="points"/><g class="text"/></g><g class="trace scatter trace7eb6a1" style="stroke-miterlimit: 2; opacity: 1;"><g class="fills"/><g class="errorbars"/><g class="lines"><path class="js-line" d="M101.61,286.45L99.98,291.86L99.56,292.54L93.26,299.31L92.44,299.98L74.83,312.19L73.86,312.87L68,319.06L67.97,319.43" style="vector-effect: non-scaling-stroke; fill: none; stroke: rgb(70, 198, 190); stroke-opacity: 1; stroke-width: 6.5px; opacity: 1; stroke-dasharray: 19.5px, 19.5px;"/></g><g class="points"/><g class="text"/></g><g class="trace scatter trace7df9ec" style="stroke-miterlimit: 2; opacity: 1;"><g class="fills"/><g class="errorbars"/><g class="lines"><path class="js-line" d="M67.97,319.43L69.3,321.56L70.57,322.29L79.52,324.56L85.56,325.34L129.04,327.72L136.46,327.92L265.73,329.49L270.51,329.52L558,330.29" style="vector-effect: non-scaling-stroke; fill: none; stroke: rgb(70, 198, 190); stroke-opacity: 1; stroke-width: 6.5px; opacity: 1;"/></g><g class="points"/><g class="text"/></g><g class="trace scatter traceb8d454" style="stroke-miterlimit: 2; opacity: 1;"><g class="fills"/><g class="errorbars"/><g class="lines"><path class="js-line" d="M0,286.59L9.01,287.84L9.82,287.96L38.56,293.49L40,293.87L54.81,299.67L55.4,300.06L59.45,304.7L59.56,305.08L59.72,306.38" style="vector-effect: non-scaling-stroke; fill: none; stroke: rgb(142, 248, 241); stroke-opacity: 1; stroke-width: 6.5px; opacity: 1;"/></g><g class="points"/><g class="text"/></g><g class="trace scatter trace3fa3c1" style="stroke-miterlimit: 2; opacity: 1;"><g class="fills"/><g class="errorbars"/><g class="lines"><path class="js-line" d="M59.72,306.38L58.23,310.63L57.97,311.02L49.18,321.86" style="vector-effect: non-scaling-stroke; fill: none; stroke: rgb(142, 248, 241); stroke-opacity: 1; stroke-width: 6.5px; opacity: 1; stroke-dasharray: 19.5px, 19.5px;"/></g><g class="points"/><g class="text"/></g><g class="trace scatter trace0598c6" style="stroke-miterlimit: 2; opacity: 1;"><g class="fills"/><g class="errorbars"/><g class="lines"><path class="js-line" d="M49.18,321.86L50.5,323.86L51.23,324.26L60.29,326.38L64.18,326.83L101.74,328.68L107.3,328.81L242.97,330.07L246.86,330.08L558,330.6" style="vector-effect: non-scaling-stroke; fill: none; stroke: rgb(142, 248, 241); stroke-opacity: 1; stroke-width: 6.5px; opacity: 1;"/></g><g class="points"/><g class="text"/></g></g></g><g class="overplot"/><path class="xlines-above crisp" d="M89,416.5H650" style="fill: none; stroke-width: 3px; stroke: rgb(0, 0, 0); stroke-opacity: 1;"/><path class="ylines-above crisp" d="M90.5,67V415" style="fill: none; stroke-width: 3px; stroke: rgb(0, 0, 0); stroke-opacity: 1;"/><g class="overlines-above"/><g class="xaxislayer-above"><g class="xtick"><text text-anchor="middle" x="0" y="446.8" transform="translate(92,0)" style="font-family: sans-serif; font-size: 24px; fill: rgb(0, 0, 0); fill-opacity: 1; white-space: pre;">0</text></g><g class="xtick"><text text-anchor="middle" x="0" y="446.8" transform="translate(166.4,0)" style="font-family: sans-serif; font-size: 24px; fill: rgb(0, 0, 0); fill-opacity: 1; white-space: pre;">0.2</text></g><g class="xtick"><text text-anchor="middle" x="0" y="446.8" transform="translate(240.8,0)" style="font-family: sans-serif; font-size: 24px; fill: rgb(0, 0, 0); fill-opacity: 1; white-space: pre;">0.4</text></g><g class="xtick"><text text-anchor="middle" x="0" y="446.8" transform="translate(315.2,0)" style="font-family: sans-serif; font-size: 24px; fill: rgb(0, 0, 0); fill-opacity: 1; white-space: pre;">0.6</text></g><g class="xtick"><text text-anchor="middle" x="0" y="446.8" transform="translate(389.6,0)" style="font-family: sans-serif; font-size: 24px; fill: rgb(0, 0, 0); fill-opacity: 1; white-space: pre;">0.8</text></g><g class="xtick"><text text-anchor="middle" x="0" y="446.8" transform="translate(464,0)" style="font-family: sans-serif; font-size: 24px; fill: rgb(0, 0, 0); fill-opacity: 1; white-space: pre;">1</text></g><g class="xtick"><text text-anchor="middle" x="0" y="446.8" transform="translate(538.4,0)" style="font-family: sans-serif; font-size: 24px; fill: rgb(0, 0, 0); fill-opacity: 1; white-space: pre;">1.2</text></g><g class="xtick"><text text-anchor="middle" x="0" y="446.8" transform="translate(612.8,0)" style="font-family: sans-serif; font-size: 24px; fill: rgb(0, 0, 0); fill-opacity: 1; white-space: pre;">1.4</text></g></g><g class="yaxislayer-above"><g class="ytick"><text text-anchor="end" x="84.2" y="8.399999999999999" transform="translate(0,398.01) rotate(77,84.2,-3.6000000000000014)" style="font-family: sans-serif; font-size: 24px; fill: rgb(0, 0, 0); fill-opacity: 1; white-space: pre;">0</text></g><g class="ytick"><text text-anchor="end" x="84.2" y="8.399999999999999" transform="translate(0,348.3) rotate(77,84.2,-3.6000000000000014)" style="font-family: sans-serif; font-size: 24px; fill: rgb(0, 0, 0); fill-opacity: 1; white-space: pre;">0.0002</text></g><g class="ytick"><text text-anchor="end" x="84.2" y="8.399999999999999" transform="translate(0,298.59000000000003) rotate(77,84.2,-3.6000000000000014)" style="font-family: sans-serif; font-size: 24px; fill: rgb(0, 0, 0); fill-opacity: 1; white-space: pre;">0.0004</text></g><g class="ytick"><text text-anchor="end" x="84.2" y="8.399999999999999" transform="translate(0,248.88) rotate(77,84.2,-3.6000000000000014)" style="font-family: sans-serif; font-size: 24px; fill: rgb(0, 0, 0); fill-opacity: 1; white-space: pre;">0.0006</text></g><g class="ytick"><text text-anchor="end" x="84.2" y="8.399999999999999" transform="translate(0,199.16) rotate(77,84.2,-3.6000000000000014)" style="font-family: sans-serif; font-size: 24px; fill: rgb(0, 0, 0); fill-opacity: 1; white-space: pre;">0.0008</text></g><g class="ytick"><text text-anchor="end" x="84.2" y="8.399999999999999" transform="translate(0,149.45) rotate(77,84.2,-3.6000000000000014)" style="font-family: sans-serif; font-size: 24px; fill: rgb(0, 0, 0); fill-opacity: 1; white-space: pre;">0.001</text></g><g class="ytick"><text text-anchor="end" x="84.2" y="8.399999999999999" transform="translate(0,99.74000000000001) rotate(77,84.2,-3.6000000000000014)" style="font-family: sans-serif; font-size: 24px; fill: rgb(0, 0, 0); fill-opacity: 1; white-space: pre;">0.0012</text></g></g><g class="overaxes-above"/></g></g><g class="polarlayer"/><g class="ternarylayer"/><g class="geolayer"/><g class="funnelarealayer"/><g class="pielayer"/><g class="treemaplayer"/><g class="sunburstlayer"/><g class="glimages"/><defs id="topdefs-92d919"><g class="clips"/></defs><g class="layer-above"><g class="imagelayer"/><g class="shapelayer"/></g><g class="infolayer"><g class="g-gtitle"/><g class="g-xtitle"><text class="xtitle" x="371" y="488.1125" text-anchor="middle" style="font-family: sans-serif; font-size: 29px; fill: rgb(0, 0, 0); opacity: 1; font-weight: normal; white-space: pre;">Damage rate (min​<tspan style="font-size:70%" dy="-0.6em">-1</tspan><tspan dy="0.42em">​</tspan>)</text></g><g class="g-ytitle" transform="translate(14.5361328125,0)"><text class="ytitle" transform="rotate(-90,12.463671875000003,241)" x="12.463671875000003" y="241" text-anchor="middle" style="font-family: sans-serif; font-size: 29px; fill: rgb(0, 0, 0); opacity: 1; font-weight: normal; white-space: pre;">RtcR (μM)</text></g></g></svg>