<svg class="main-svg" xmlns="http://www.w3.org/2000/svg" xmlns:xlink="http://www.w3.org/1999/xlink" width="700" height="500" style="" viewBox="0 0 700 500"><rect x="0" y="0" width="700" height="500" style="fill: rgb(255, 255, 255); fill-opacity: 1;"/><defs id="defs-5cc3f6"><g class="clips"><clipPath id="clip5cc3f6xyplot" class="plotclip"><rect width="526" height="355"/></clipPath><clipPath class="axesclip" id="clip5cc3f6x"><rect x="124" y="0" width="526" height="500"/></clipPath><clipPath class="axesclip" id="clip5cc3f6y"><rect x="0" y="60" width="700" height="355"/></clipPath><clipPath class="axesclip" id="clip5cc3f6xy"><rect x="124" y="60" width="526" height="355"/></clipPath></g><g class="gradients"/></defs><g class="bglayer"/><g class="layer-below"><g class="imagelayer"/><g class="shapelayer"/></g><g class="cartesianlayer"><g class="subplot xy"><g class="layer-subplot"><g class="shapelayer"/><g class="imagelayer"/></g><g class="gridlayer"><g class="x"/><g class="y"/></g><g class="zerolinelayer"/><path class="xlines-below"/><path class="ylines-below"/><g class="overlines-below"/><g class="xaxislayer-below"/><g class="yaxislayer-below"/><g class="overaxes-below"/><g class="plot" transform="translate(124,60)" clip-path="url('#clip5cc3f6xyplot')"><g class="scatterlayer mlayer"><g class="trace scatter traced015c5" style="stroke-miterlimit: 2;"><g class="fills"><g><path class="js-fill" d="M53.13,337.25L58.44,337.25L63.76,334.03L74.38,334.03L79.7,330.81L95.64,330.81L100.95,327.58L122.2,327.58L127.52,324.36L154.08,324.36L159.39,321.14L201.9,321.14L207.21,317.92L270.97,317.92L276.28,314.7L382.55,314.7L387.86,311.47L526,311.47L526,337.25L53.13,337.25Z" style="fill: rgb(244, 229, 255); fill-opacity: 0.5; stroke-width: 0;"/></g></g><g class="errorbars"/><g class="lines"><path class="js-line" d="M53.13,337.25L526,337.25" style="vector-effect: non-scaling-stroke; fill: none; stroke: rgb(244, 229, 255); stroke-opacity: 1; stroke-width: 2px; opacity: 1;"/></g><g class="points"/><g class="text"/></g><g class="trace scatter traceeeddfa" style="stroke-miterlimit: 2;"><g class="fills"/><g class="errorbars"/><g class="lines"><path class="js-line" d="M53.13,337.25L58.44,337.25L63.76,334.03L74.38,334.03L79.7,330.81L95.64,330.81L100.95,327.58L122.2,327.58L127.52,324.36L154.08,324.36L159.39,321.14L201.9,321.14L207.21,317.92L270.97,317.92L276.28,314.7L382.55,314.7L387.86,311.47L526,311.47" style="vector-effect: non-scaling-stroke; fill: none; stroke: rgb(244, 229, 255); stroke-opacity: 1; stroke-width: 2px; opacity: 1;"/></g><g class="points"/><g class="text"/></g><g class="trace scatter trace9534d1" style="stroke-miterlimit: 2;"><g class="fills"><g><path class="js-fill" d="M0,292.14L5.31,285.7L10.63,282.48L15.94,276.03L21.25,272.81L26.57,269.59L31.88,263.15L42.51,256.7L47.82,256.7L63.76,247.04L69.07,247.04L74.38,243.81L79.7,243.81L85.01,240.59L90.32,240.59L95.64,237.37L100.95,237.37L106.26,237.37L111.58,234.15L116.89,234.15L122.2,230.93L138.14,230.93L143.45,227.7L159.39,227.7L164.71,224.48L180.65,224.48L185.96,221.26L212.53,221.26L217.84,218.04L255.03,218.04L260.34,214.82L302.85,214.82L308.16,211.59L377.23,211.59L382.55,208.37L478.18,208.37L483.49,205.15L526,205.15L526,317.92L446.3,317.92L440.99,321.14L324.1,321.14L318.79,324.36L244.4,324.36L239.09,327.58L191.27,327.58L185.96,330.81L154.08,330.81L148.77,334.03L127.52,334.03L122.2,337.25L0,337.25Z" style="fill: rgb(230, 197, 255); fill-opacity: 0.5; stroke-width: 0;"/></g></g><g class="errorbars"/><g class="lines"><path class="js-line" d="M0,337.25L122.2,337.25L127.52,334.03L148.77,334.03L154.08,330.81L185.96,330.81L191.27,327.58L239.09,327.58L244.4,324.36L318.79,324.36L324.1,321.14L440.99,321.14L446.3,317.92L526,317.92" style="vector-effect: non-scaling-stroke; fill: none; stroke: rgb(230, 197, 255); stroke-opacity: 1; stroke-width: 2px; opacity: 1;"/></g><g class="points"/><g class="text"/></g><g class="trace scatter trace1a72fa" style="stroke-miterlimit: 2;"><g class="fills"/><g class="errorbars"/><g class="lines"><path class="js-line" d="M0,292.14L5.31,285.7L10.63,282.48L15.94,276.03L21.25,272.81L26.57,269.59L31.88,263.15L42.51,256.7L47.82,256.7L63.76,247.04L69.07,247.04L74.38,243.81L79.7,243.81L85.01,240.59L90.32,240.59L95.64,237.37L100.95,237.37L106.26,237.37L111.58,234.15L116.89,234.15L122.2,230.93L138.14,230.93L143.45,227.7L159.39,227.7L164.71,224.48L180.65,224.48L185.96,221.26L212.53,221.26L217.84,218.04L255.03,218.04L260.34,214.82L302.85,214.82L308.16,211.59L377.23,211.59L382.55,208.37L478.18,208.37L483.49,205.15L526,205.15" style="vector-effect: non-scaling-stroke; fill: none; stroke: rgb(230, 197, 255); stroke-opacity: 1; stroke-width: 2px; opacity: 1;"/></g><g class="points"/><g class="text"/></g><g class="trace scatter trace8cd3ff" style="stroke-miterlimit: 2;"><g class="fills"><g><path class="js-fill" d="M0,176.15L5.31,163.27L10.63,153.6L21.25,140.71L26.57,131.05L31.88,127.82L37.19,121.38L42.51,114.94L47.82,111.71L53.13,105.27L58.44,102.05L90.32,82.72L95.64,82.72L106.26,76.27L111.58,76.27L122.2,69.83L127.52,69.83L132.83,66.61L138.14,66.61L143.45,63.39L148.77,63.39L154.08,60.16L159.39,60.16L164.71,60.16L170.02,56.94L180.65,56.94L185.96,53.72L196.59,53.72L201.9,50.5L212.53,50.5L217.84,47.28L239.09,47.28L244.4,44.05L260.34,44.05L265.66,40.83L292.22,40.83L297.54,37.61L329.41,37.61L334.73,34.39L371.92,34.39L377.23,31.17L425.05,31.17L430.36,27.94L494.12,27.94L499.43,24.72L526,24.72L526,176.15L510.06,176.15L504.75,179.38L425.05,179.38L419.74,182.6L361.29,182.6L355.98,185.82L313.47,185.82L308.16,189.04L276.28,189.04L270.97,192.26L239.09,192.26L233.78,195.48L212.53,195.48L207.21,198.71L191.27,198.71L185.96,201.93L170.02,201.93L164.71,205.15L154.08,205.15L148.77,208.37L143.45,208.37L138.14,208.37L132.83,211.59L127.52,211.59L122.2,214.82L116.89,214.82L111.58,218.04L106.26,218.04L100.95,221.26L95.64,221.26L90.32,224.48L85.01,224.48L69.07,234.15L63.76,234.15L42.51,247.04L37.19,253.48L31.88,256.7L26.57,259.92L0,292.14Z" style="fill: rgb(215, 161, 255); fill-opacity: 0.5; stroke-width: 0;"/></g></g><g class="errorbars"/><g class="lines"><path class="js-line" d="M0,292.14L26.57,259.92L31.88,256.7L37.19,253.48L42.51,247.04L63.76,234.15L69.07,234.15L85.01,224.48L90.32,224.48L95.64,221.26L100.95,221.26L106.26,218.04L111.58,218.04L116.89,214.82L122.2,214.82L127.52,211.59L132.83,211.59L138.14,208.37L143.45,208.37L148.77,208.37L154.08,205.15L164.71,205.15L170.02,201.93L185.96,201.93L191.27,198.71L207.21,198.71L212.53,195.48L233.78,195.48L239.09,192.26L270.97,192.26L276.28,189.04L308.16,189.04L313.47,185.82L355.98,185.82L361.29,182.6L419.74,182.6L425.05,179.38L504.75,179.38L510.06,176.15L526,176.15" style="vector-effect: non-scaling-stroke; fill: none; stroke: rgb(215, 161, 255); stroke-opacity: 1; stroke-width: 2px; opacity: 1;"/></g><g class="points"/><g class="text"/></g><g class="trace scatter trace77a992" style="stroke-miterlimit: 2;"><g class="fills"/><g class="errorbars"/><g class="lines"><path class="js-line" d="M0,176.15L5.31,163.27L10.63,153.6L21.25,140.71L26.57,131.05L31.88,127.82L37.19,121.38L42.51,114.94L47.82,111.71L53.13,105.27L58.44,102.05L90.32,82.72L95.64,82.72L106.26,76.27L111.58,76.27L122.2,69.83L127.52,69.83L132.83,66.61L138.14,66.61L143.45,63.39L148.77,63.39L154.08,60.16L159.39,60.16L164.71,60.16L170.02,56.94L180.65,56.94L185.96,53.72L196.59,53.72L201.9,50.5L212.53,50.5L217.84,47.28L239.09,47.28L244.4,44.05L260.34,44.05L265.66,40.83L292.22,40.83L297.54,37.61L329.41,37.61L334.73,34.39L371.92,34.39L377.23,31.17L425.05,31.17L430.36,27.94L494.12,27.94L499.43,24.72L526,24.72" style="vector-effect: non-scaling-stroke; fill: none; stroke: rgb(215, 161, 255); stroke-opacity: 1; stroke-width: 2px; opacity: 1;"/></g><g class="points"/><g class="text"/></g><g class="trace scatter trace6248ce" style="stroke-miterlimit: 2;"><g class="fills"><g><path class="js-fill" d="M0,18.28L58.44,18.28L58.44,21.5L42.51,40.83L37.19,47.28L21.25,76.27L15.94,85.94L10.63,98.83L5.31,114.94L0,127.82Z" style="fill: rgb(192, 106, 255); fill-opacity: 0.5; stroke-width: 0;"/></g></g><g class="errorbars"/><g class="lines"><path class="js-line" d="M0,127.82L5.31,114.94L10.63,98.83L15.94,85.94L21.25,76.27L37.19,47.28L42.51,40.83L58.44,21.5" style="vector-effect: non-scaling-stroke; fill: none; stroke: rgb(192, 106, 255); stroke-opacity: 1; stroke-width: 2px; opacity: 1;"/></g><g class="points"><path class="point" transform="translate(0,127.82)" d="M3,0A3,3 0 1,1 0,-3A3,3 0 0,1 3,0Z" style="opacity: 1; stroke-width: 0px; fill: rgb(192, 106, 255); fill-opacity: 1;"/><path class="point" transform="translate(5.31,114.94)" d="M3,0A3,3 0 1,1 0,-3A3,3 0 0,1 3,0Z" style="opacity: 1; stroke-width: 0px; fill: rgb(192, 106, 255); fill-opacity: 1;"/><path class="point" transform="translate(10.63,98.83)" d="M3,0A3,3 0 1,1 0,-3A3,3 0 0,1 3,0Z" style="opacity: 1; stroke-width: 0px; fill: rgb(192, 106, 255); fill-opacity: 1;"/><path class="point" transform="translate(15.94,85.94)" d="M3,0A3,3 0 1,1 0,-3A3,3 0 0,1 3,0Z" style="opacity: 1; stroke-width: 0px; fill: rgb(192, 106, 255); fill-opacity: 1;"/><path class="point" transform="translate(21.25,76.27)" d="M3,0A3,3 0 1,1 0,-3A3,3 0 0,1 3,0Z" style="opacity: 1; stroke-width: 0px; fill: rgb(192, 106, 255); fill-opacity: 1;"/><path class="point" transform="translate(26.57,66.61)" d="M3,0A3,3 0 1,1 0,-3A3,3 0 0,1 3,0Z" style="opacity: 1; stroke-width: 0px; fill: rgb(192, 106, 255); fill-opacity: 1;"/><path class="point" transform="translate(31.88,56.94)" d="M3,0A3,3 0 1,1 0,-3A3,3 0 0,1 3,0Z" style="opacity: 1; stroke-width: 0px; fill: rgb(192, 106, 255); fill-opacity: 1;"/><path class="point" transform="translate(37.19,47.28)" d="M3,0A3,3 0 1,1 0,-3A3,3 0 0,1 3,0Z" style="opacity: 1; stroke-width: 0px; fill: rgb(192, 106, 255); fill-opacity: 1;"/><path class="point" transform="translate(42.51,40.83)" d="M3,0A3,3 0 1,1 0,-3A3,3 0 0,1 3,0Z" style="opacity: 1; stroke-width: 0px; fill: rgb(192, 106, 255); fill-opacity: 1;"/><path class="point" transform="translate(47.82,34.39)" d="M3,0A3,3 0 1,1 0,-3A3,3 0 0,1 3,0Z" style="opacity: 1; stroke-width: 0px; fill: rgb(192, 106, 255); fill-opacity: 1;"/><path class="point" transform="translate(53.13,27.94)" d="M3,0A3,3 0 1,1 0,-3A3,3 0 0,1 3,0Z" style="opacity: 1; stroke-width: 0px; fill: rgb(192, 106, 255); fill-opacity: 1;"/><path class="point" transform="translate(58.44,21.5)" d="M3,0A3,3 0 1,1 0,-3A3,3 0 0,1 3,0Z" style="opacity: 1; stroke-width: 0px; fill: rgb(192, 106, 255); fill-opacity: 1;"/></g><g class="text"/></g><g class="trace scatter tracebe108d" style="stroke-miterlimit: 2;"><g class="fills"/><g class="errorbars"/><g class="lines"><path class="js-line" d="M0,18.28L58.44,18.28" style="vector-effect: non-scaling-stroke; fill: none; stroke: rgb(192, 106, 255); stroke-opacity: 1; stroke-width: 2px; opacity: 1;"/></g><g class="points"/><g class="text"/></g></g></g><g class="overplot"/><path class="xlines-above crisp" d="M121,416.5H650" style="fill: none; stroke-width: 3px; stroke: rgb(0, 0, 0); stroke-opacity: 1;"/><path class="ylines-above crisp" d="M122.5,60V415" style="fill: none; stroke-width: 3px; stroke: rgb(0, 0, 0); stroke-opacity: 1;"/><g class="overlines-above"/><g class="xaxislayer-above"><g class="xtick"><text text-anchor="middle" x="0" y="446.8" transform="translate(176.6,0)" style="font-family: sans-serif; font-size: 24px; fill: rgb(0, 0, 0); fill-opacity: 1; white-space: pre;">1000</text></g><g class="xtick"><text text-anchor="middle" x="0" y="446.8" transform="translate(281.8,0)" style="font-family: sans-serif; font-size: 24px; fill: rgb(0, 0, 0); fill-opacity: 1; white-space: pre;">2000</text></g><g class="xtick"><text text-anchor="middle" x="0" y="446.8" transform="translate(387,0)" style="font-family: sans-serif; font-size: 24px; fill: rgb(0, 0, 0); fill-opacity: 1; white-space: pre;">3000</text></g><g class="xtick"><text text-anchor="middle" x="0" y="446.8" transform="translate(492.2,0)" style="font-family: sans-serif; font-size: 24px; fill: rgb(0, 0, 0); fill-opacity: 1; white-space: pre;">4000</text></g><g class="xtick"><text text-anchor="middle" x="0" y="446.8" transform="translate(597.4,0)" style="font-family: sans-serif; font-size: 24px; fill: rgb(0, 0, 0); fill-opacity: 1; white-space: pre;">5000</text></g></g><g class="yaxislayer-above"><g class="ytick"><text text-anchor="end" x="116.2" y="8.399999999999999" transform="translate(0,397.25)" style="font-family: sans-serif; font-size: 24px; fill: rgb(0, 0, 0); fill-opacity: 1; white-space: pre;">0.01</text></g><g class="ytick"><text text-anchor="end" x="116.2" y="8.399999999999999" transform="translate(0,344.09)" style="font-family: sans-serif; font-size: 24px; fill: rgb(0, 0, 0); fill-opacity: 1; white-space: pre;">0.015</text></g><g class="ytick"><text text-anchor="end" x="116.2" y="8.399999999999999" transform="translate(0,290.93)" style="font-family: sans-serif; font-size: 24px; fill: rgb(0, 0, 0); fill-opacity: 1; white-space: pre;">0.02</text></g><g class="ytick"><text text-anchor="end" x="116.2" y="8.399999999999999" transform="translate(0,237.76)" style="font-family: sans-serif; font-size: 24px; fill: rgb(0, 0, 0); fill-opacity: 1; white-space: pre;">0.025</text></g><g class="ytick"><text text-anchor="end" x="116.2" y="8.399999999999999" transform="translate(0,184.6)" style="font-family: sans-serif; font-size: 24px; fill: rgb(0, 0, 0); fill-opacity: 1; white-space: pre;">0.03</text></g><g class="ytick"><text text-anchor="end" x="116.2" y="8.399999999999999" transform="translate(0,131.44)" style="font-family: sans-serif; font-size: 24px; fill: rgb(0, 0, 0); fill-opacity: 1; white-space: pre;">0.035</text></g><g class="ytick"><text text-anchor="end" x="116.2" y="8.399999999999999" transform="translate(0,78.28)" style="font-family: sans-serif; font-size: 24px; fill: rgb(0, 0, 0); fill-opacity: 1; white-space: pre;">0.04</text></g></g><g class="overaxes-above"/></g></g><g class="polarlayer"/><g class="ternarylayer"/><g class="geolayer"/><g class="funnelarealayer"/><g class="pielayer"/><g class="treemaplayer"/><g class="sunburstlayer"/><g class="glimages"/><defs id="topdefs-5cc3f6"><g class="clips"/></defs><g class="layer-above"><g class="imagelayer"/><g class="shapelayer"/></g><g class="infolayer"><g class="g-gtitle"/><g class="g-xtitle"><text class="xtitle" x="387" y="488.1125" text-anchor="middle" style="font-family: sans-serif; font-size: 29px; fill: rgb(0, 0, 0); opacity: 1; font-weight: normal; white-space: pre;">ATP (μM)</text></g><g class="g-ytitle" transform="translate(19.0029296875,0)"><text class="ytitle" transform="rotate(-90,12.184375000000003,237.5)" x="12.184375000000003" y="237.5" text-anchor="middle" style="font-family: sans-serif; font-size: 29px; fill: rgb(0, 0, 0); opacity: 1; font-weight: normal; white-space: pre;">λ (min​<tspan style="font-size:70%" dy="-0.6em">-1</tspan><tspan dy="0.42em">​</tspan>)</text></g></g></svg>