<svg class="main-svg" xmlns="http://www.w3.org/2000/svg" xmlns:xlink="http://www.w3.org/1999/xlink" width="700" height="500" style="" viewBox="0 0 700 500"><rect x="0" y="0" width="700" height="500" style="fill: rgb(255, 255, 255); fill-opacity: 1;"/><defs id="defs-fca378"><g class="clips"><clipPath id="clipfca378xyplot" class="plotclip"><rect width="526" height="355"/></clipPath><clipPath class="axesclip" id="clipfca378x"><rect x="124" y="0" width="526" height="500"/></clipPath><clipPath class="axesclip" id="clipfca378y"><rect x="0" y="60" width="700" height="355"/></clipPath><clipPath class="axesclip" id="clipfca378xy"><rect x="124" y="60" width="526" height="355"/></clipPath></g><g class="gradients"/></defs><g class="bglayer"/><g class="layer-below"><g class="imagelayer"/><g class="shapelayer"/></g><g class="cartesianlayer"><g class="subplot xy"><g class="layer-subplot"><g class="shapelayer"/><g class="imagelayer"/></g><g class="gridlayer"><g class="x"/><g class="y"/></g><g class="zerolinelayer"/><path class="xlines-below"/><path class="ylines-below"/><g class="overlines-below"/><g class="xaxislayer-below"/><g class="yaxislayer-below"/><g class="overaxes-below"/><g class="plot" transform="translate(124,60)" clip-path="url('#clipfca378xyplot')"><g class="scatterlayer mlayer"><g class="trace scatter trace567431" style="stroke-miterlimit: 2;"><g class="fills"><g><path class="js-fill" d="M53.13,355L58.44,355L63.76,351.41L74.38,351.41L79.7,347.83L95.64,347.83L100.95,344.24L122.2,344.24L127.52,340.66L154.08,340.66L159.39,337.07L201.9,337.07L207.21,333.48L270.97,333.48L276.28,329.9L382.55,329.9L387.86,326.31L526,326.31L526,355L53.13,355Z" style="fill: rgb(244, 229, 255); fill-opacity: 0.5; stroke-width: 0;"/></g></g><g class="errorbars"/><g class="lines"><path class="js-line" d="M53.13,355L526,355" style="vector-effect: non-scaling-stroke; fill: none; stroke: rgb(244, 229, 255); stroke-opacity: 1; stroke-width: 2px; opacity: 1;"/></g><g class="points"/><g class="text"/></g><g class="trace scatter trace9b52e6" style="stroke-miterlimit: 2;"><g class="fills"/><g class="errorbars"/><g class="lines"><path class="js-line" d="M53.13,355L58.44,355L63.76,351.41L74.38,351.41L79.7,347.83L95.64,347.83L100.95,344.24L122.2,344.24L127.52,340.66L154.08,340.66L159.39,337.07L201.9,337.07L207.21,333.48L270.97,333.48L276.28,329.9L382.55,329.9L387.86,326.31L526,326.31" style="vector-effect: non-scaling-stroke; fill: none; stroke: rgb(244, 229, 255); stroke-opacity: 1; stroke-width: 2px; opacity: 1;"/></g><g class="points"/><g class="text"/></g><g class="trace scatter trace021ee3" style="stroke-miterlimit: 2;"><g class="fills"><g><path class="js-fill" d="M0,329.9L10.63,315.56L15.94,311.97L42.51,294.04L47.82,294.04L58.44,286.87L63.76,286.87L69.07,283.28L74.38,283.28L79.7,279.7L85.01,279.7L90.32,276.11L95.64,276.11L100.95,276.11L106.26,272.53L116.89,272.53L122.2,268.94L132.83,268.94L138.14,265.35L159.39,265.35L164.71,261.77L191.27,261.77L196.59,258.18L228.46,258.18L233.78,254.6L281.6,254.6L286.91,251.01L350.67,251.01L355.98,247.42L456.93,247.42L462.24,243.84L526,243.84L526,355L0,355Z" style="fill: rgb(230, 197, 255); fill-opacity: 0.5; stroke-width: 0;"/></g></g><g class="errorbars"/><g class="lines"><path class="js-line" d="M0,355L526,355" style="vector-effect: non-scaling-stroke; fill: none; stroke: rgb(230, 197, 255); stroke-opacity: 1; stroke-width: 2px; opacity: 1;"/></g><g class="points"/><g class="text"/></g><g class="trace scatter trace9bd9c7" style="stroke-miterlimit: 2;"><g class="fills"/><g class="errorbars"/><g class="lines"><path class="js-line" d="M0,329.9L10.63,315.56L15.94,311.97L42.51,294.04L47.82,294.04L58.44,286.87L63.76,286.87L69.07,283.28L74.38,283.28L79.7,279.7L85.01,279.7L90.32,276.11L95.64,276.11L100.95,276.11L106.26,272.53L116.89,272.53L122.2,268.94L132.83,268.94L138.14,265.35L159.39,265.35L164.71,261.77L191.27,261.77L196.59,258.18L228.46,258.18L233.78,254.6L281.6,254.6L286.91,251.01L350.67,251.01L355.98,247.42L456.93,247.42L462.24,243.84L526,243.84" style="vector-effect: non-scaling-stroke; fill: none; stroke: rgb(230, 197, 255); stroke-opacity: 1; stroke-width: 2px; opacity: 1;"/></g><g class="points"/><g class="text"/></g><g class="trace scatter trace3cc880" style="stroke-miterlimit: 2;"><g class="fills"><g><path class="js-fill" d="M0,247.42L26.57,211.57L31.88,207.98L37.19,204.39L42.51,197.22L63.76,182.88L69.07,182.88L85.01,172.12L90.32,172.12L95.64,168.54L100.95,168.54L106.26,164.95L111.58,164.95L116.89,161.36L122.2,161.36L127.52,157.78L132.83,157.78L138.14,157.78L143.45,154.19L154.08,154.19L159.39,150.61L170.02,150.61L175.33,147.02L191.27,147.02L196.59,143.43L212.53,143.43L217.84,139.85L244.4,139.85L249.72,136.26L281.6,136.26L286.91,132.68L324.1,132.68L329.41,129.09L382.55,129.09L387.86,125.51L456.93,125.51L462.24,121.92L526,121.92L526,268.94L462.24,268.94L456.93,272.53L361.29,272.53L355.98,276.11L297.54,276.11L292.22,279.7L244.4,279.7L239.09,283.28L207.21,283.28L201.9,286.87L175.33,286.87L170.02,290.45L154.08,290.45L148.77,294.04L132.83,294.04L127.52,297.63L116.89,297.63L111.58,301.21L106.26,301.21L100.95,301.21L95.64,304.8L90.32,304.8L85.01,308.38L79.7,308.38L74.38,311.97L69.07,311.97L63.76,315.56L58.44,315.56L47.82,322.73L42.51,322.73L15.94,340.66L10.63,347.83L0,355Z" style="fill: rgb(215, 161, 255); fill-opacity: 0.5; stroke-width: 0;"/></g></g><g class="errorbars"/><g class="lines"><path class="js-line" d="M0,355L10.63,347.83L15.94,340.66L42.51,322.73L47.82,322.73L58.44,315.56L63.76,315.56L69.07,311.97L74.38,311.97L79.7,308.38L85.01,308.38L90.32,304.8L95.64,304.8L100.95,301.21L106.26,301.21L111.58,301.21L116.89,297.63L127.52,297.63L132.83,294.04L148.77,294.04L154.08,290.45L170.02,290.45L175.33,286.87L201.9,286.87L207.21,283.28L239.09,283.28L244.4,279.7L292.22,279.7L297.54,276.11L355.98,276.11L361.29,272.53L456.93,272.53L462.24,268.94L526,268.94" style="vector-effect: non-scaling-stroke; fill: none; stroke: rgb(215, 161, 255); stroke-opacity: 1; stroke-width: 2px; opacity: 1;"/></g><g class="points"/><g class="text"/></g><g class="trace scatter trace6f520c" style="stroke-miterlimit: 2;"><g class="fills"/><g class="errorbars"/><g class="lines"><path class="js-line" d="M0,247.42L26.57,211.57L31.88,207.98L37.19,204.39L42.51,197.22L63.76,182.88L69.07,182.88L85.01,172.12L90.32,172.12L95.64,168.54L100.95,168.54L106.26,164.95L111.58,164.95L116.89,161.36L122.2,161.36L127.52,157.78L132.83,157.78L138.14,157.78L143.45,154.19L154.08,154.19L159.39,150.61L170.02,150.61L175.33,147.02L191.27,147.02L196.59,143.43L212.53,143.43L217.84,139.85L244.4,139.85L249.72,136.26L281.6,136.26L286.91,132.68L324.1,132.68L329.41,129.09L382.55,129.09L387.86,125.51L456.93,125.51L462.24,121.92L526,121.92" style="vector-effect: non-scaling-stroke; fill: none; stroke: rgb(215, 161, 255); stroke-opacity: 1; stroke-width: 2px; opacity: 1;"/></g><g class="points"/><g class="text"/></g><g class="trace scatter trace7324c1" style="stroke-miterlimit: 2;"><g class="fills"><g><path class="js-fill" d="M0,129.09L5.31,114.75L10.63,103.99L21.25,82.47L26.57,75.3L47.82,46.62L53.13,43.03L58.44,35.86L63.76,32.27L111.58,0L116.89,0L526,0L526,118.33L472.87,118.33L467.56,121.92L409.11,121.92L403.8,125.51L361.29,125.51L355.98,129.09L318.79,129.09L313.47,132.68L281.6,132.68L276.28,136.26L255.03,136.26L249.72,139.85L228.46,139.85L223.15,143.43L207.21,143.43L201.9,147.02L191.27,147.02L185.96,150.61L175.33,150.61L170.02,154.19L159.39,154.19L154.08,157.78L148.77,157.78L143.45,157.78L138.14,161.36L132.83,161.36L127.52,164.95L122.2,164.95L116.89,168.54L111.58,168.54L100.95,175.71L95.64,175.71L79.7,186.46L74.38,186.46L58.44,197.22L53.13,204.39L47.82,207.98L42.51,211.57L37.19,218.74L31.88,222.32L10.63,251.01L5.31,261.77L0,268.94Z" style="fill: rgb(192, 106, 255); fill-opacity: 0.5; stroke-width: 0;"/></g></g><g class="errorbars"/><g class="lines"><path class="js-line" d="M0,268.94L5.31,261.77L10.63,251.01L31.88,222.32L37.19,218.74L42.51,211.57L47.82,207.98L53.13,204.39L58.44,197.22L74.38,186.46L79.7,186.46L95.64,175.71L100.95,175.71L111.58,168.54L116.89,168.54L122.2,164.95L127.52,164.95L132.83,161.36L138.14,161.36L143.45,157.78L148.77,157.78L154.08,157.78L159.39,154.19L170.02,154.19L175.33,150.61L185.96,150.61L191.27,147.02L201.9,147.02L207.21,143.43L223.15,143.43L228.46,139.85L249.72,139.85L255.03,136.26L276.28,136.26L281.6,132.68L313.47,132.68L318.79,129.09L355.98,129.09L361.29,125.51L403.8,125.51L409.11,121.92L467.56,121.92L472.87,118.33L526,118.33" style="vector-effect: non-scaling-stroke; fill: none; stroke: rgb(192, 106, 255); stroke-opacity: 1; stroke-width: 2px; opacity: 1;"/></g><g class="points"/><g class="text"/></g><g class="trace scatter trace780ab6" style="stroke-miterlimit: 2;"><g class="fills"/><g class="errorbars"/><g class="lines"><path class="js-line" d="M0,129.09L5.31,114.75L10.63,103.99L21.25,82.47L26.57,75.3L47.82,46.62L53.13,43.03L58.44,35.86L63.76,32.27L111.58,0L116.89,0L526,0" style="vector-effect: non-scaling-stroke; fill: none; stroke: rgb(192, 106, 255); stroke-opacity: 1; stroke-width: 2px; opacity: 1;"/></g><g class="points"/><g class="text"/></g><g class="trace scatter trace1a4e8f" style="stroke-miterlimit: 2;"><g class="fills"><g><path class="js-fill" d="M0,0L58.44,0L58.44,3.59L42.51,25.1L37.19,32.27L21.25,64.55L15.94,75.3L10.63,89.65L5.31,107.58L0,121.92Z" style="fill: rgb(167, 48, 255); fill-opacity: 0.5; stroke-width: 0;"/></g></g><g class="errorbars"/><g class="lines"><path class="js-line" d="M0,121.92L5.31,107.58L10.63,89.65L15.94,75.3L21.25,64.55L37.19,32.27L42.51,25.1L58.44,3.59" style="vector-effect: non-scaling-stroke; fill: none; stroke: rgb(167, 48, 255); stroke-opacity: 1; stroke-width: 2px; opacity: 1;"/></g><g class="points"><path class="point" transform="translate(0,121.92)" d="M3,0A3,3 0 1,1 0,-3A3,3 0 0,1 3,0Z" style="opacity: 1; stroke-width: 0px; fill: rgb(167, 48, 255); fill-opacity: 1;"/><path class="point" transform="translate(5.31,107.58)" d="M3,0A3,3 0 1,1 0,-3A3,3 0 0,1 3,0Z" style="opacity: 1; stroke-width: 0px; fill: rgb(167, 48, 255); fill-opacity: 1;"/><path class="point" transform="translate(10.63,89.65)" d="M3,0A3,3 0 1,1 0,-3A3,3 0 0,1 3,0Z" style="opacity: 1; stroke-width: 0px; fill: rgb(167, 48, 255); fill-opacity: 1;"/><path class="point" transform="translate(15.94,75.3)" d="M3,0A3,3 0 1,1 0,-3A3,3 0 0,1 3,0Z" style="opacity: 1; stroke-width: 0px; fill: rgb(167, 48, 255); fill-opacity: 1;"/><path class="point" transform="translate(21.25,64.55)" d="M3,0A3,3 0 1,1 0,-3A3,3 0 0,1 3,0Z" style="opacity: 1; stroke-width: 0px; fill: rgb(167, 48, 255); fill-opacity: 1;"/><path class="point" transform="translate(26.57,53.79)" d="M3,0A3,3 0 1,1 0,-3A3,3 0 0,1 3,0Z" style="opacity: 1; stroke-width: 0px; fill: rgb(167, 48, 255); fill-opacity: 1;"/><path class="point" transform="translate(31.88,43.03)" d="M3,0A3,3 0 1,1 0,-3A3,3 0 0,1 3,0Z" style="opacity: 1; stroke-width: 0px; fill: rgb(167, 48, 255); fill-opacity: 1;"/><path class="point" transform="translate(37.19,32.27)" d="M3,0A3,3 0 1,1 0,-3A3,3 0 0,1 3,0Z" style="opacity: 1; stroke-width: 0px; fill: rgb(167, 48, 255); fill-opacity: 1;"/><path class="point" transform="translate(42.51,25.1)" d="M3,0A3,3 0 1,1 0,-3A3,3 0 0,1 3,0Z" style="opacity: 1; stroke-width: 0px; fill: rgb(167, 48, 255); fill-opacity: 1;"/><path class="point" transform="translate(47.82,17.93)" d="M3,0A3,3 0 1,1 0,-3A3,3 0 0,1 3,0Z" style="opacity: 1; stroke-width: 0px; fill: rgb(167, 48, 255); fill-opacity: 1;"/><path class="point" transform="translate(53.13,10.76)" d="M3,0A3,3 0 1,1 0,-3A3,3 0 0,1 3,0Z" style="opacity: 1; stroke-width: 0px; fill: rgb(167, 48, 255); fill-opacity: 1;"/><path class="point" transform="translate(58.44,3.59)" d="M3,0A3,3 0 1,1 0,-3A3,3 0 0,1 3,0Z" style="opacity: 1; stroke-width: 0px; fill: rgb(167, 48, 255); fill-opacity: 1;"/></g><g class="text"/></g><g class="trace scatter trace334c1e" style="stroke-miterlimit: 2;"><g class="fills"/><g class="errorbars"/><g class="lines"><path class="js-line" d="M0,0L58.44,0" style="vector-effect: non-scaling-stroke; fill: none; stroke: rgb(167, 48, 255); stroke-opacity: 1; stroke-width: 2px; opacity: 1;"/></g><g class="points"/><g class="text"/></g></g></g><g class="overplot"/><path class="xlines-above crisp" d="M121,416.5H650" style="fill: none; stroke-width: 3px; stroke: rgb(0, 0, 0); stroke-opacity: 1;"/><path class="ylines-above crisp" d="M122.5,60V415" style="fill: none; stroke-width: 3px; stroke: rgb(0, 0, 0); stroke-opacity: 1;"/><g class="overlines-above"/><g class="xaxislayer-above"><g class="xtick"><text text-anchor="middle" x="0" y="446.8" transform="translate(176.6,0)" style="font-family: sans-serif; font-size: 24px; fill: rgb(0, 0, 0); fill-opacity: 1; white-space: pre;">1000</text></g><g class="xtick"><text text-anchor="middle" x="0" y="446.8" transform="translate(281.8,0)" style="font-family: sans-serif; font-size: 24px; fill: rgb(0, 0, 0); fill-opacity: 1; white-space: pre;">2000</text></g><g class="xtick"><text text-anchor="middle" x="0" y="446.8" transform="translate(387,0)" style="font-family: sans-serif; font-size: 24px; fill: rgb(0, 0, 0); fill-opacity: 1; white-space: pre;">3000</text></g><g class="xtick"><text text-anchor="middle" x="0" y="446.8" transform="translate(492.2,0)" style="font-family: sans-serif; font-size: 24px; fill: rgb(0, 0, 0); fill-opacity: 1; white-space: pre;">4000</text></g><g class="xtick"><text text-anchor="middle" x="0" y="446.8" transform="translate(597.4,0)" style="font-family: sans-serif; font-size: 24px; fill: rgb(0, 0, 0); fill-opacity: 1; white-space: pre;">5000</text></g></g><g class="yaxislayer-above"><g class="ytick"><text text-anchor="end" x="116.2" y="8.399999999999999" transform="translate(0,415)" style="font-family: sans-serif; font-size: 24px; fill: rgb(0, 0, 0); fill-opacity: 1; white-space: pre;">0.01</text></g><g class="ytick"><text text-anchor="end" x="116.2" y="8.399999999999999" transform="translate(0,355.83)" style="font-family: sans-serif; font-size: 24px; fill: rgb(0, 0, 0); fill-opacity: 1; white-space: pre;">0.015</text></g><g class="ytick"><text text-anchor="end" x="116.2" y="8.399999999999999" transform="translate(0,296.66999999999996)" style="font-family: sans-serif; font-size: 24px; fill: rgb(0, 0, 0); fill-opacity: 1; white-space: pre;">0.02</text></g><g class="ytick"><text text-anchor="end" x="116.2" y="8.399999999999999" transform="translate(0,237.5)" style="font-family: sans-serif; font-size: 24px; fill: rgb(0, 0, 0); fill-opacity: 1; white-space: pre;">0.025</text></g><g class="ytick"><text text-anchor="end" x="116.2" y="8.399999999999999" transform="translate(0,178.32999999999998)" style="font-family: sans-serif; font-size: 24px; fill: rgb(0, 0, 0); fill-opacity: 1; white-space: pre;">0.03</text></g><g class="ytick"><text text-anchor="end" x="116.2" y="8.399999999999999" transform="translate(0,119.17)" style="font-family: sans-serif; font-size: 24px; fill: rgb(0, 0, 0); fill-opacity: 1; white-space: pre;">0.035</text></g><g class="ytick"><text text-anchor="end" x="116.2" y="8.399999999999999" transform="translate(0,60)" style="font-family: sans-serif; font-size: 24px; fill: rgb(0, 0, 0); fill-opacity: 1; white-space: pre;">0.04</text></g></g><g class="overaxes-above"/></g></g><g class="polarlayer"/><g class="ternarylayer"/><g class="geolayer"/><g class="funnelarealayer"/><g class="pielayer"/><g class="treemaplayer"/><g class="sunburstlayer"/><g class="glimages"/><defs id="topdefs-fca378"><g class="clips"/></defs><g class="layer-above"><g class="imagelayer"/><g class="shapelayer"/></g><g class="infolayer"><g class="g-gtitle"/><g class="g-xtitle"><text class="xtitle" x="387" y="488.1125" text-anchor="middle" style="font-family: sans-serif; font-size: 29px; fill: rgb(0, 0, 0); opacity: 1; font-weight: normal; white-space: pre;">ATP (μM)</text></g><g class="g-ytitle" transform="translate(19.0029296875,0)"><text class="ytitle" transform="rotate(-90,12.184375000000003,237.5)" x="12.184375000000003" y="237.5" text-anchor="middle" style="font-family: sans-serif; font-size: 29px; fill: rgb(0, 0, 0); opacity: 1; font-weight: normal; white-space: pre;">λ (min​<tspan style="font-size:70%" dy="-0.6em">-1</tspan><tspan dy="0.42em">​</tspan>)</text></g></g></svg>