<svg class="main-svg" xmlns="http://www.w3.org/2000/svg" xmlns:xlink="http://www.w3.org/1999/xlink" width="700" height="500" style="" viewBox="0 0 700 500"><rect x="0" y="0" width="700" height="500" style="fill: rgb(255, 255, 255); fill-opacity: 1;"/><defs id="defs-fc02e6"><g class="clips"><clipPath id="clipfc02e6xyplot" class="plotclip"><rect width="576" height="385"/></clipPath><clipPath id="clipfc02e6xy2plot" class="plotclip"><rect width="576" height="385"/></clipPath><clipPath class="axesclip" id="clipfc02e6x"><rect x="67" y="0" width="576" height="500"/></clipPath><clipPath class="axesclip" id="clipfc02e6y"><rect x="0" y="60" width="700" height="385"/></clipPath><clipPath class="axesclip" id="clipfc02e6xy"><rect x="67" y="60" width="576" height="385"/></clipPath><clipPath class="axesclip" id="clipfc02e6y2"><rect x="0" y="60" width="700" height="385"/></clipPath><clipPath class="axesclip" id="clipfc02e6xy2"><rect x="67" y="60" width="576" height="385"/></clipPath></g><g class="gradients"/></defs><g class="bglayer"/><g class="layer-below"><g class="imagelayer"/><g class="shapelayer"/></g><g class="cartesianlayer"><g class="subplot xy"><g class="layer-subplot"><g class="shapelayer"/><g class="imagelayer"/></g><g class="gridlayer"><g class="x"/><g class="y"/><g class="y2"/></g><g class="zerolinelayer"><path class="yzl zl crisp" transform="translate(0,422.64)" d="M67,0h576" style="stroke: rgb(255, 255, 255); stroke-opacity: 1; stroke-width: 2px;"/><path class="y2zl zl crisp" transform="translate(0,423.98)" d="M67,0h576" style="stroke: rgb(255, 255, 255); stroke-opacity: 1; stroke-width: 2px;"/></g><path class="xlines-below"/><path class="ylines-below"/><g class="overlines-below"><path class="xy2-x"/><path class="xy2-y"/></g><g class="xaxislayer-below"/><g class="yaxislayer-below"/><g class="overaxes-below"><g class="xy2-x"/><g class="xy2-y"/></g><g class="plot" transform="translate(67,60)" clip-path="url('#clipfc02e6xyplot')"><g class="scatterlayer mlayer"><g class="trace scatter trace90e122" style="stroke-miterlimit: 2; opacity: 1;"><g class="fills"/><g class="errorbars"/><g class="lines"><path class="js-line" d="M0,333.81L2.11,299.49L3.37,285.45L7.79,248.23L10.4,230.79L15.68,201.54L18.34,189.06L26.34,157.97L29.02,149.35L37.05,127.67L39.73,121.67L47.78,106.7L50.46,102.61L58.5,92.63L61.17,89.97L69.21,83.67L71.88,82.06L79.9,78.41L82.57,77.53L93.25,75.37L95.92,75.1L109.23,74.97L111.9,75.13L127.84,76.99L130.5,77.42L154.35,82.19L157,82.8L191.31,91.59L193.95,92.32L233.28,104.15L235.89,104.99L272.21,117.65L274.79,118.63L302.9,130.08L305.43,131.2L327.92,142.04L330.38,143.35L347.29,153.2L349.65,154.73L363.34,164.77L365.52,166.61L373.78,174.62L375.7,176.81L380.92,183.92L382.44,186.49L385.96,194.84L386.71,197.83L387.41,204.62" style="vector-effect: non-scaling-stroke; fill: none; stroke: rgb(128, 0, 128); stroke-opacity: 1; stroke-width: 3px; opacity: 1;"/></g><g class="points"/><g class="text"/></g><g class="trace scatter trace87ee8b" style="stroke-miterlimit: 2; opacity: 1;"><g class="fills"/><g class="errorbars"/><g class="lines"><path class="js-line" d="M387.41,204.62L386.84,210.78L386.14,213.78L382.75,222.21L381.28,224.81L376.14,232.01L374.25,234.23L366.07,242.35L363.9,244.22L352.64,252.84L350.31,254.43L333.59,264.7L331.15,266.05L311.33,276.17L308.82,277.36L283.48,288.45L280.93,289.5L244.87,303.21L242.28,304.13L198.02,319.12L195.41,319.97L135.44,340.22L132.88,341.28L125.34,345.08L123.01,346.91L122.06,348.81" style="vector-effect: non-scaling-stroke; fill: none; stroke: rgb(128, 0, 128); stroke-opacity: 1; stroke-width: 3px; opacity: 1; stroke-dasharray: 9px, 9px;"/></g><g class="points"/><g class="text"/></g><g class="trace scatter trace952490" style="stroke-miterlimit: 2; opacity: 1;"><g class="fills"/><g class="errorbars"/><g class="lines"><path class="js-line" d="M122.06,348.81L123.03,350.48L124.14,351.18L130.58,353.16L133.24,353.66L149.19,355.51L151.84,355.72L183.6,357.42L186.24,357.52L254.36,359.13L256.96,359.17L384.27,360.39L386.87,360.41L576,361.16" style="vector-effect: non-scaling-stroke; fill: none; stroke: rgb(128, 0, 128); stroke-opacity: 1; stroke-width: 3px; opacity: 1;"/></g><g class="points"/><g class="text"/></g><g class="trace scatter trace6099b2" style="stroke-miterlimit: 2; opacity: 1;"><g class="fills"/><g class="errorbars"/><g class="lines"/><g class="points"><path class="point" transform="translate(387.41,204.62)" d="M3,0A3,3 0 1,1 0,-3A3,3 0 0,1 3,0Z" style="opacity: 1; stroke-width: 0px; fill: rgb(0, 0, 139); fill-opacity: 1;"/><path class="point" transform="translate(122.06,348.81)" d="M3,0A3,3 0 1,1 0,-3A3,3 0 0,1 3,0Z" style="opacity: 1; stroke-width: 0px; fill: rgb(0, 0, 139); fill-opacity: 1;"/></g><g class="text"/></g><g class="trace scatter tracefcb07b" style="stroke-miterlimit: 2; opacity: 1;"><g class="fills"/><g class="errorbars"/><g class="lines"><path class="js-line" d="M0,325.76L2.11,282.41L3.37,264.78L7.79,218.33L10.4,196.7L15.68,160.67L18.34,145.39L26.34,107.72L29.02,97.39L37.05,71.77L39.73,64.79L47.78,47.75L50.46,43.22L55.82,35.66L58.5,32.56L63.85,27.53L66.53,25.56L74.56,21.44L77.23,20.59L85.24,19.31L87.91,19.25L95.92,19.93L98.58,20.4L109.23,23.24L111.9,24.14L127.84,30.7L130.5,31.94L151.71,42.84L154.35,44.3L183.41,61.18L186.04,62.78L220.2,84.38L222.82,86.1L256.7,109.29L259.29,111.14L287.62,132.28L290.18,134.28L315.49,155.18L318,157.37L337.71,175.81L340.12,178.24L354.31,193.6L356.61,196.3L367.66,210.66L369.75,213.72L377.54,226.76L379.29,230.24L383.8,241.28L384.98,245.15L387.2,257.11L387.4,261.11L387.41,261.94" style="vector-effect: non-scaling-stroke; fill: none; stroke: rgb(147, 112, 219); stroke-opacity: 1; stroke-width: 3px; opacity: 1;"/></g><g class="points"/><g class="text"/></g><g class="trace scatter trace7d46be" style="stroke-miterlimit: 2; opacity: 1;"><g class="fills"/><g class="errorbars"/><g class="lines"><path class="js-line" d="M387.41,261.94L386.84,269.63L386.14,273.27L382.75,283.11L381.28,286.03L376.14,293.82L374.25,296.14L366.07,304.29L363.9,306.09L352.64,314.02L350.31,315.42L336.02,322.85L333.59,323.95L316.33,330.78L313.83,331.64L293.67,337.8L291.13,338.49L265.53,344.5L262.96,345.02L234.49,350.1L231.9,350.5L195.41,355.3L192.8,355.58L153.61,359.24L151,359.45L122.06,361.87" style="vector-effect: non-scaling-stroke; fill: none; stroke: rgb(147, 112, 219); stroke-opacity: 1; stroke-width: 3px; opacity: 1; stroke-dasharray: 9px, 9px;"/></g><g class="points"/><g class="text"/></g><g class="trace scatter trace649ba8" style="stroke-miterlimit: 2; opacity: 1;"><g class="fills"/><g class="errorbars"/><g class="lines"><path class="js-line" d="M122.06,361.87L124.14,362.11L125.72,362.17L165.1,362.49L167.75,362.5L576,362.63" style="vector-effect: non-scaling-stroke; fill: none; stroke: rgb(147, 112, 219); stroke-opacity: 1; stroke-width: 3px; opacity: 1;"/></g><g class="points"/><g class="text"/></g><g class="trace scatter trace8cd365" style="stroke-miterlimit: 2; opacity: 1;"><g class="fills"/><g class="errorbars"/><g class="lines"/><g class="points"><path class="point" transform="translate(387.41,261.94)" d="M3,0A3,3 0 1,1 0,-3A3,3 0 0,1 3,0Z" style="opacity: 1; stroke-width: 0px; fill: rgb(0, 0, 139); fill-opacity: 1;"/><path class="point" transform="translate(122.06,361.87)" d="M3,0A3,3 0 1,1 0,-3A3,3 0 0,1 3,0Z" style="opacity: 1; stroke-width: 0px; fill: rgb(0, 0, 139); fill-opacity: 1;"/></g><g class="text"/></g><g class="trace scatter trace78e53e" style="stroke-miterlimit: 2; opacity: 1;"><g class="fills"/><g class="errorbars"/><g class="lines"><path class="js-line" d="M0,332.08L2.11,296.17L3.37,281.57L7.79,243.09L10.4,225.17L15.68,195.32L18.34,182.67L26.34,151.46L29.02,142.9L37.05,121.68L39.73,115.89L47.78,101.77L50.46,98.02L58.5,89.19L61.17,86.95L69.21,82.02L71.88,80.89L79.9,78.76L82.57,78.41L90.58,78.24L93.25,78.43L103.91,80.15L106.57,80.78L122.53,85.69L125.19,86.66L146.41,95.34L149.06,96.52L180.77,111.58L183.41,112.9L225.44,134.98L228.05,136.42L264.47,157.38L267.05,158.95L297.83,178.5L300.37,180.21L325.45,198.16L327.92,200.05L347.29,216.09L349.65,218.22L363.34,231.83L365.52,234.26L373.78,244.53L375.7,247.27L380.92,255.92L382.44,258.97L385.96,268.57L386.71,271.89L387.41,279.22" style="vector-effect: non-scaling-stroke; fill: none; stroke: rgb(221, 160, 221); stroke-opacity: 1; stroke-width: 3px; opacity: 1;"/></g><g class="points"/><g class="text"/></g><g class="trace scatter trace6117b1" style="stroke-miterlimit: 2; opacity: 1;"><g class="fills"/><g class="errorbars"/><g class="lines"><path class="js-line" d="M387.41,279.22L386.84,285.59L386.14,288.6L382.75,296.76L381.28,299.18L376.14,305.63L374.25,307.55L366.07,314.3L363.9,315.79L352.64,322.36L350.31,323.52L336.02,329.68L333.59,330.59L313.83,336.96L311.33,337.66L288.58,343.19L286.03,343.73L255.22,349.3L252.63,349.7L216.28,354.44L213.68,354.72L169.27,358.73L166.66,358.92L122.06,362" style="vector-effect: non-scaling-stroke; fill: none; stroke: rgb(221, 160, 221); stroke-opacity: 1; stroke-width: 3px; opacity: 1; stroke-dasharray: 9px, 9px;"/></g><g class="points"/><g class="text"/></g><g class="trace scatter trace71ed3b" style="stroke-miterlimit: 2; opacity: 1;"><g class="fills"/><g class="errorbars"/><g class="lines"><path class="js-line" d="M122.06,362L124.14,362.2L125.72,362.25L170.4,362.53L173.04,362.53L394.67,362.62L397.27,362.62L576,362.63" style="vector-effect: non-scaling-stroke; fill: none; stroke: rgb(221, 160, 221); stroke-opacity: 1; stroke-width: 3px; opacity: 1;"/></g><g class="points"/><g class="text"/></g><g class="trace scatter trace202da9" style="stroke-miterlimit: 2; opacity: 1;"><g class="fills"/><g class="errorbars"/><g class="lines"/><g class="points"><path class="point" transform="translate(387.41,279.22)" d="M3,0A3,3 0 1,1 0,-3A3,3 0 0,1 3,0Z" style="opacity: 1; stroke-width: 0px; fill: rgb(0, 0, 139); fill-opacity: 1;"/><path class="point" transform="translate(122.06,362)" d="M3,0A3,3 0 1,1 0,-3A3,3 0 0,1 3,0Z" style="opacity: 1; stroke-width: 0px; fill: rgb(0, 0, 139); fill-opacity: 1;"/></g><g class="text"/></g><g class="trace scatter trace7b18f6" style="stroke-miterlimit: 2; opacity: 1;"><g class="fills"/><g class="errorbars"/><g class="lines"><path class="js-line" d="M0,328.49L5.21,328.88L7.79,328.97L269.63,336.16L272.21,336.26L349.65,340.26L351.99,340.43L379.29,343.13L380.92,343.4L387.2,345.23L387.4,345.56" style="vector-effect: non-scaling-stroke; fill: none; stroke: rgb(0, 128, 0); stroke-opacity: 1; stroke-width: 3px; opacity: 1;"/></g><g class="points"/><g class="text"/></g><g class="trace scatter traced6b7f6" style="stroke-miterlimit: 2; opacity: 1;"><g class="fills"/><g class="errorbars"/><g class="lines"><path class="js-line" d="M387.41,345.63L386.84,346.29L386.14,346.61L379.67,348.07L377.95,348.33L357.22,350.46L354.94,350.64L311.33,353.33L308.82,353.46L203.24,357.77L200.63,357.86L122.06,361.15" style="vector-effect: non-scaling-stroke; fill: none; stroke: rgb(0, 128, 0); stroke-opacity: 1; stroke-width: 3px; opacity: 1; stroke-dasharray: 9px, 9px;"/></g><g class="points"/><g class="text"/></g><g class="trace scatter trace259422" style="stroke-miterlimit: 2; opacity: 1;"><g class="fills"/><g class="errorbars"/><g class="lines"><path class="js-line" d="M122.06,361.15L124.14,361.41L125.72,361.48L165.1,361.99L167.75,362L311.57,362.34L314.16,362.34L576,362.48" style="vector-effect: non-scaling-stroke; fill: none; stroke: rgb(0, 128, 0); stroke-opacity: 1; stroke-width: 3px; opacity: 1;"/></g><g class="points"/><g class="text"/></g><g class="trace scatter trace44c63e" style="stroke-miterlimit: 2; opacity: 1;"><g class="fills"/><g class="errorbars"/><g class="lines"/><g class="points"><path class="point" transform="translate(387.41,345.63)" d="M3,0A3,3 0 1,1 0,-3A3,3 0 0,1 3,0Z" style="opacity: 1; stroke-width: 0px; fill: rgb(0, 0, 139); fill-opacity: 1;"/><path class="point" transform="translate(122.06,361.15)" d="M3,0A3,3 0 1,1 0,-3A3,3 0 0,1 3,0Z" style="opacity: 1; stroke-width: 0px; fill: rgb(0, 0, 139); fill-opacity: 1;"/></g><g class="text"/></g></g></g><g class="overplot"><g class="xy2" transform="translate(67,60)" clip-path="url('#clipfc02e6xy2plot')"><g class="scatterlayer mlayer"><g class="trace scatter trace21c554" style="stroke-miterlimit: 2; opacity: 1;"><g class="fills"/><g class="errorbars"/><g class="lines"><path class="js-line" d="M0,19.25L1.25,20.93L2.11,21.58L7.79,24.03L10.4,24.79L29.02,28.83L31.69,29.34L85.24,40.27L87.91,40.88L130.5,51.51L133.15,52.22L178.13,65.01L180.77,65.8L222.82,79.3L225.44,80.2L261.88,93.55L264.47,94.56L295.28,107.64L297.83,108.81L320.49,120.1L322.97,121.45L340.12,131.57L342.53,133.13L356.61,143.25L358.88,145.09L369.75,155.13L371.8,157.34L379.29,167.05L380.92,169.73L384.98,178.47L385.96,181.61L387.2,188.17L387.4,191.53L387.41,192.24" style="vector-effect: non-scaling-stroke; fill: none; stroke: rgb(255, 215, 0); stroke-opacity: 1; stroke-width: 3px; opacity: 1;"/></g><g class="points"/><g class="text"/></g><g class="trace scatter trace1d8418" style="stroke-miterlimit: 2; opacity: 1;"><g class="fills"/><g class="errorbars"/><g class="lines"><path class="js-line" d="M387.41,192.24L386.84,198.93L386.14,202.19L382.75,211.36L381.28,214.18L376.14,222.01L374.25,224.42L366.07,233.25L363.9,235.28L352.64,244.64L350.31,246.37L336.02,256.03L333.59,257.53L313.83,268.7L311.33,270L286.03,282.21L283.48,283.35L252.63,296.33L250.05,297.36L208.46,312.95L205.85,313.89L135.44,339.61L132.88,340.77L125.34,344.89L123.01,346.89L122.06,348.95" style="vector-effect: non-scaling-stroke; fill: none; stroke: rgb(255, 215, 0); stroke-opacity: 1; stroke-width: 3px; opacity: 1; stroke-dasharray: 9px, 9px;"/></g><g class="points"/><g class="text"/></g><g class="trace scatter trace32bafc" style="stroke-miterlimit: 2; opacity: 1;"><g class="fills"/><g class="errorbars"/><g class="lines"><path class="js-line" d="M122.06,348.95L123.03,350.77L124.14,351.53L130.58,353.68L133.24,354.22L149.19,356.24L151.84,356.47L183.6,358.31L186.24,358.42L249.14,360.07L251.75,360.12L350.5,361.29L353.1,361.31L576,362.37" style="vector-effect: non-scaling-stroke; fill: none; stroke: rgb(255, 215, 0); stroke-opacity: 1; stroke-width: 3px; opacity: 1;"/></g><g class="points"/><g class="text"/></g><g class="trace scatter trace9ceab7" style="stroke-miterlimit: 2; opacity: 1;"><g class="fills"/><g class="errorbars"/><g class="lines"/><g class="points"><path class="point" transform="translate(387.41,192.24)" d="M3,0A3,3 0 1,1 0,-3A3,3 0 0,1 3,0Z" style="opacity: 1; stroke-width: 0px; fill: rgb(0, 0, 139); fill-opacity: 1;"/><path class="point" transform="translate(122.06,348.95)" d="M3,0A3,3 0 1,1 0,-3A3,3 0 0,1 3,0Z" style="opacity: 1; stroke-width: 0px; fill: rgb(0, 0, 139); fill-opacity: 1;"/></g><g class="text"/></g><g class="trace scatter tracedc154e" style="stroke-miterlimit: 2; opacity: 1;"><g class="fills"/><g class="errorbars"/><g class="lines"><path class="js-line" d="M0,363.98L238.49,363.23L241.1,363.22L387.41,362" style="vector-effect: non-scaling-stroke; fill: none; stroke: rgb(255, 140, 0); stroke-opacity: 1; stroke-width: 3px; opacity: 1;"/></g><g class="points"/><g class="text"/></g><g class="trace scatter trace3e6457" style="stroke-miterlimit: 2; opacity: 1;"><g class="fills"/><g class="errorbars"/><g class="lines"><path class="js-line" d="M387.41,362L384.07,361.81L382.75,361.78L313.83,361.09L311.33,361.07L135.44,359.12L132.88,358.97L123.01,357.71L122.11,357.12L122.06,356.92" style="vector-effect: non-scaling-stroke; fill: none; stroke: rgb(255, 140, 0); stroke-opacity: 1; stroke-width: 3px; opacity: 1; stroke-dasharray: 9px, 9px;"/></g><g class="points"/><g class="text"/></g><g class="trace scatter tracefc8b48" style="stroke-miterlimit: 2; opacity: 1;"><g class="fills"/><g class="errorbars"/><g class="lines"><path class="js-line" d="M122.06,356.92L123.03,355.91L124.14,355.36L133.24,352.29L135.89,351.51L199.4,332.61L202.03,331.76L249.14,315.81L251.75,314.89L321.95,289.38L324.55,288.43L420.7,253.56L423.31,252.65L486.01,231.48L488.63,230.63L551.73,211.19L554.36,210.42L576,204.23" style="vector-effect: non-scaling-stroke; fill: none; stroke: rgb(255, 140, 0); stroke-opacity: 1; stroke-width: 3px; opacity: 1;"/></g><g class="points"/><g class="text"/></g><g class="trace scatter trace7c76b6" style="stroke-miterlimit: 2; opacity: 1;"><g class="fills"/><g class="errorbars"/><g class="lines"/><g class="points"><path class="point" transform="translate(387.41,362)" d="M3,0A3,3 0 1,1 0,-3A3,3 0 0,1 3,0Z" style="opacity: 1; stroke-width: 0px; fill: rgb(0, 0, 139); fill-opacity: 1;"/><path class="point" transform="translate(122.06,356.92)" d="M3,0A3,3 0 1,1 0,-3A3,3 0 0,1 3,0Z" style="opacity: 1; stroke-width: 0px; fill: rgb(0, 0, 139); fill-opacity: 1;"/></g><g class="text"/></g><g class="trace scatter trace79f1c8" style="stroke-miterlimit: 2; opacity: 1;"><g class="fills"/><g class="errorbars"/><g class="lines"><path class="js-line" d="M0,363.98L1.25,362.32L2.11,361.68L7.79,359.26L10.4,358.51L29.02,354.52L31.69,354.02L87.91,342.61L90.58,342L133.15,331.42L135.8,330.71L180.77,318L183.41,317.21L228.05,302.89L230.66,301.99L264.47,289.59L267.05,288.58L297.83,275.52L300.37,274.35L322.97,263.04L325.45,261.69L342.53,251.5L344.92,249.93L358.88,239.69L361.12,237.83L371.8,227.59L373.78,225.33L379.29,218L380.92,215.35L384.98,206.72L385.96,203.62L387.2,197.14L387.4,193.82L387.41,193.12" style="vector-effect: non-scaling-stroke; fill: none; stroke: rgb(255, 0, 0); stroke-opacity: 1; stroke-width: 3px; opacity: 1;"/></g><g class="points"/><g class="text"/></g><g class="trace scatter trace60abe4" style="stroke-miterlimit: 2; opacity: 1;"><g class="fills"/><g class="errorbars"/><g class="lines"><path class="js-line" d="M387.41,193.12L386.84,186.52L386.14,183.29L382.75,174.24L381.28,171.45L376.14,163.72L374.25,161.34L366.07,152.63L363.9,150.62L352.64,141.38L350.31,139.67L336.02,130.14L333.59,128.65L313.83,117.64L311.33,116.35L286.03,104.32L283.48,103.19L252.63,90.42L250.05,89.41L208.46,74.12L205.85,73.21L127.81,45.68L125.34,44.48L122.06,41.85" style="vector-effect: non-scaling-stroke; fill: none; stroke: rgb(255, 0, 0); stroke-opacity: 1; stroke-width: 3px; opacity: 1; stroke-dasharray: 9px, 9px;"/></g><g class="points"/><g class="text"/></g><g class="trace scatter traceb383fe" style="stroke-miterlimit: 2; opacity: 1;"><g class="fills"/><g class="errorbars"/><g class="lines"><path class="js-line" d="M122.06,41.85L123.03,41.11L124.14,40.95L130.58,41.22L133.24,41.54L151.84,44.99L154.5,45.59L180.97,52.46L183.6,53.22L215.16,63.03L217.78,63.89L264.78,80.46L267.38,81.42L347.91,112.14L350.5,113.14L444.17,148.37L446.78,149.31L507,170.23L509.62,171.11L567.56,189.49L570.2,190.29L576,192.03" style="vector-effect: non-scaling-stroke; fill: none; stroke: rgb(255, 0, 0); stroke-opacity: 1; stroke-width: 3px; opacity: 1;"/></g><g class="points"/><g class="text"/></g><g class="trace scatter traceccc979" style="stroke-miterlimit: 2; opacity: 1;"><g class="fills"/><g class="errorbars"/><g class="lines"/><g class="points"><path class="point" transform="translate(387.41,193.12)" d="M3,0A3,3 0 1,1 0,-3A3,3 0 0,1 3,0Z" style="opacity: 1; stroke-width: 0px; fill: rgb(0, 0, 139); fill-opacity: 1;"/><path class="point" transform="translate(122.06,41.85)" d="M3,0A3,3 0 1,1 0,-3A3,3 0 0,1 3,0Z" style="opacity: 1; stroke-width: 0px; fill: rgb(0, 0, 139); fill-opacity: 1;"/></g><g class="text"/></g></g></g></g><path class="xlines-above crisp" d="M66,445.5H644" style="fill: none; stroke-width: 1px; stroke: rgb(0, 0, 0); stroke-opacity: 1;"/><path class="ylines-above crisp" d="M66.5,60V445M643.5,60V445" style="fill: none; stroke-width: 1px; stroke: rgb(0, 0, 0); stroke-opacity: 1;"/><g class="overlines-above"><path class="xy2-x crisp" d="M0,0" style="fill: none;"/><path class="xy2-y crisp" d="M0,0" style="fill: none;"/></g><g class="xaxislayer-above"><g class="xtick"><text text-anchor="middle" x="0" y="460.4" transform="translate(67,0)" style="font-family: 'Open Sans', verdana, arial, sans-serif; font-size: 12px; fill: rgb(42, 63, 95); fill-opacity: 1; white-space: pre;">0</text></g><g class="xtick"><text text-anchor="middle" x="0" y="460.4" transform="translate(163,0)" style="font-family: 'Open Sans', verdana, arial, sans-serif; font-size: 12px; fill: rgb(42, 63, 95); fill-opacity: 1; white-space: pre;">0.5</text></g><g class="xtick"><text text-anchor="middle" x="0" y="460.4" transform="translate(259,0)" style="font-family: 'Open Sans', verdana, arial, sans-serif; font-size: 12px; fill: rgb(42, 63, 95); fill-opacity: 1; white-space: pre;">1</text></g><g class="xtick"><text text-anchor="middle" x="0" y="460.4" transform="translate(355,0)" style="font-family: 'Open Sans', verdana, arial, sans-serif; font-size: 12px; fill: rgb(42, 63, 95); fill-opacity: 1; white-space: pre;">1.5</text></g><g class="xtick"><text text-anchor="middle" x="0" y="460.4" transform="translate(451,0)" style="font-family: 'Open Sans', verdana, arial, sans-serif; font-size: 12px; fill: rgb(42, 63, 95); fill-opacity: 1; white-space: pre;">2</text></g><g class="xtick"><text text-anchor="middle" x="0" y="460.4" transform="translate(547,0)" style="font-family: 'Open Sans', verdana, arial, sans-serif; font-size: 12px; fill: rgb(42, 63, 95); fill-opacity: 1; white-space: pre;">2.5</text></g><g class="xtick"><text text-anchor="middle" x="0" y="460.4" transform="translate(643,0)" style="font-family: 'Open Sans', verdana, arial, sans-serif; font-size: 12px; fill: rgb(42, 63, 95); fill-opacity: 1; white-space: pre;">3</text></g></g><g class="yaxislayer-above"><g class="ytick"><text text-anchor="end" x="63.6" y="4.199999999999999" transform="translate(0,422.64)" style="font-family: 'Open Sans', verdana, arial, sans-serif; font-size: 12px; fill: rgb(42, 63, 95); fill-opacity: 1; white-space: pre;">0</text></g><g class="ytick"><text text-anchor="end" x="63.6" y="4.199999999999999" transform="translate(0,366.28)" style="font-family: 'Open Sans', verdana, arial, sans-serif; font-size: 12px; fill: rgb(42, 63, 95); fill-opacity: 1; white-space: pre;">0.01</text></g><g class="ytick"><text text-anchor="end" x="63.6" y="4.199999999999999" transform="translate(0,309.91999999999996)" style="font-family: 'Open Sans', verdana, arial, sans-serif; font-size: 12px; fill: rgb(42, 63, 95); fill-opacity: 1; white-space: pre;">0.02</text></g><g class="ytick"><text text-anchor="end" x="63.6" y="4.199999999999999" transform="translate(0,253.56)" style="font-family: 'Open Sans', verdana, arial, sans-serif; font-size: 12px; fill: rgb(42, 63, 95); fill-opacity: 1; white-space: pre;">0.03</text></g><g class="ytick"><text text-anchor="end" x="63.6" y="4.199999999999999" transform="translate(0,197.2)" style="font-family: 'Open Sans', verdana, arial, sans-serif; font-size: 12px; fill: rgb(42, 63, 95); fill-opacity: 1; white-space: pre;">0.04</text></g><g class="ytick"><text text-anchor="end" x="63.6" y="4.199999999999999" transform="translate(0,140.84)" style="font-family: 'Open Sans', verdana, arial, sans-serif; font-size: 12px; fill: rgb(42, 63, 95); fill-opacity: 1; white-space: pre;">0.05</text></g><g class="ytick"><text text-anchor="end" x="63.6" y="4.199999999999999" transform="translate(0,84.48)" style="font-family: 'Open Sans', verdana, arial, sans-serif; font-size: 12px; fill: rgb(42, 63, 95); fill-opacity: 1; white-space: pre;">0.06</text></g></g><g class="overaxes-above"><g class="xy2-x"/><g class="xy2-y"><g class="y2tick"><text text-anchor="start" x="644" y="4.199999999999999" transform="translate(0,423.98)" style="font-family: 'Open Sans', verdana, arial, sans-serif; font-size: 12px; fill: rgb(42, 63, 95); fill-opacity: 1; white-space: pre;">0</text></g><g class="y2tick"><text text-anchor="start" x="644" y="4.199999999999999" transform="translate(0,368.37)" style="font-family: 'Open Sans', verdana, arial, sans-serif; font-size: 12px; fill: rgb(42, 63, 95); fill-opacity: 1; white-space: pre;">0.5</text></g><g class="y2tick"><text text-anchor="start" x="644" y="4.199999999999999" transform="translate(0,312.77)" style="font-family: 'Open Sans', verdana, arial, sans-serif; font-size: 12px; fill: rgb(42, 63, 95); fill-opacity: 1; white-space: pre;">1</text></g><g class="y2tick"><text text-anchor="start" x="644" y="4.199999999999999" transform="translate(0,257.15999999999997)" style="font-family: 'Open Sans', verdana, arial, sans-serif; font-size: 12px; fill: rgb(42, 63, 95); fill-opacity: 1; white-space: pre;">1.5</text></g><g class="y2tick"><text text-anchor="start" x="644" y="4.199999999999999" transform="translate(0,201.55)" style="font-family: 'Open Sans', verdana, arial, sans-serif; font-size: 12px; fill: rgb(42, 63, 95); fill-opacity: 1; white-space: pre;">2</text></g><g class="y2tick"><text text-anchor="start" x="644" y="4.199999999999999" transform="translate(0,145.94)" style="font-family: 'Open Sans', verdana, arial, sans-serif; font-size: 12px; fill: rgb(42, 63, 95); fill-opacity: 1; white-space: pre;">2.5</text></g><g class="y2tick"><text text-anchor="start" x="644" y="4.199999999999999" transform="translate(0,90.33)" style="font-family: 'Open Sans', verdana, arial, sans-serif; font-size: 12px; fill: rgb(42, 63, 95); fill-opacity: 1; white-space: pre;">3</text></g></g></g></g><g class="subplot xy2"/></g><g class="polarlayer"/><g class="ternarylayer"/><g class="geolayer"/><g class="funnelarealayer"/><g class="pielayer"/><g class="treemaplayer"/><g class="sunburstlayer"/><g class="glimages"/><defs id="topdefs-fc02e6"><g class="clips"/><clipPath id="legendfc02e6"><rect width="170" height="162" x="0" y="0"/></clipPath></defs><g class="layer-above"><g class="imagelayer"/><g class="shapelayer"/></g><g class="infolayer"><g class="legend" pointer-events="all" transform="translate(499,60)"><rect class="bg" shape-rendering="crispEdges" width="170" height="162" x="0" y="0" style="stroke: rgb(68, 68, 68); stroke-opacity: 1; fill: rgb(255, 255, 255); fill-opacity: 1; stroke-width: 0px;"/><g class="scrollbox" transform="" clip-path="url('#legendfc02e6')"><g class="groups"><g class="traces" transform="translate(0,14.5)" style="opacity: 1;"><text class="legendtext" text-anchor="start" x="40" y="4.680000000000001" style="font-family: 'Open Sans', verdana, arial, sans-serif; font-size: 12px; fill: rgb(42, 63, 95); fill-opacity: 1; white-space: pre;">RtcBA mRNA</text><g class="layers" style="opacity: 1;"><g class="legendfill"/><g class="legendlines"><path class="js-line" d="M5,0h30" style="fill: none; stroke: rgb(128, 0, 128); stroke-opacity: 1; stroke-width: 3px;"/></g><g class="legendsymbols"><g class="legendpoints"/></g></g><rect class="legendtoggle" x="0" y="-9.5" width="164.21875" height="19" style="fill: rgb(0, 0, 0); fill-opacity: 0;"/></g><g class="traces" transform="translate(0,33.5)" style="opacity: 1;"><text class="legendtext" text-anchor="start" x="40" y="4.680000000000001" style="font-family: 'Open Sans', verdana, arial, sans-serif; font-size: 12px; fill: rgb(42, 63, 95); fill-opacity: 1; white-space: pre;">RtcA</text><g class="layers" style="opacity: 1;"><g class="legendfill"/><g class="legendlines"><path class="js-line" d="M5,0h30" style="fill: none; stroke: rgb(147, 112, 219); stroke-opacity: 1; stroke-width: 3px;"/></g><g class="legendsymbols"><g class="legendpoints"/></g></g><rect class="legendtoggle" x="0" y="-9.5" width="164.21875" height="19" style="fill: rgb(0, 0, 0); fill-opacity: 0;"/></g><g class="traces" transform="translate(0,52.5)" style="opacity: 1;"><text class="legendtext" text-anchor="start" x="40" y="4.680000000000001" style="font-family: 'Open Sans', verdana, arial, sans-serif; font-size: 12px; fill: rgb(42, 63, 95); fill-opacity: 1; white-space: pre;">RtcB</text><g class="layers" style="opacity: 1;"><g class="legendfill"/><g class="legendlines"><path class="js-line" d="M5,0h30" style="fill: none; stroke: rgb(221, 160, 221); stroke-opacity: 1; stroke-width: 3px;"/></g><g class="legendsymbols"><g class="legendpoints"/></g></g><rect class="legendtoggle" x="0" y="-9.5" width="164.21875" height="19" style="fill: rgb(0, 0, 0); fill-opacity: 0;"/></g><g class="traces" transform="translate(0,71.5)" style="opacity: 1;"><text class="legendtext" text-anchor="start" x="40" y="4.680000000000001" style="font-family: 'Open Sans', verdana, arial, sans-serif; font-size: 12px; fill: rgb(42, 63, 95); fill-opacity: 1; white-space: pre;">RtcR</text><g class="layers" style="opacity: 1;"><g class="legendfill"/><g class="legendlines"><path class="js-line" d="M5,0h30" style="fill: none; stroke: rgb(0, 128, 0); stroke-opacity: 1; stroke-width: 3px;"/></g><g class="legendsymbols"><g class="legendpoints"/></g></g><rect class="legendtoggle" x="0" y="-9.5" width="164.21875" height="19" style="fill: rgb(0, 0, 0); fill-opacity: 0;"/></g><g class="traces" transform="translate(0,90.5)" style="opacity: 1;"><text class="legendtext" text-anchor="start" x="40" y="4.680000000000001" style="font-family: 'Open Sans', verdana, arial, sans-serif; font-size: 12px; fill: rgb(42, 63, 95); fill-opacity: 1; white-space: pre;">Healthy ribosomes</text><g class="layers" style="opacity: 1;"><g class="legendfill"/><g class="legendlines"><path class="js-line" d="M5,0h30" style="fill: none; stroke: rgb(255, 215, 0); stroke-opacity: 1; stroke-width: 3px;"/></g><g class="legendsymbols"><g class="legendpoints"/></g></g><rect class="legendtoggle" x="0" y="-9.5" width="164.21875" height="19" style="fill: rgb(0, 0, 0); fill-opacity: 0;"/></g><g class="traces" transform="translate(0,109.5)" style="opacity: 1;"><text class="legendtext" text-anchor="start" x="40" y="4.680000000000001" style="font-family: 'Open Sans', verdana, arial, sans-serif; font-size: 12px; fill: rgb(42, 63, 95); fill-opacity: 1; white-space: pre;">Damaged ribosomes</text><g class="layers" style="opacity: 1;"><g class="legendfill"/><g class="legendlines"><path class="js-line" d="M5,0h30" style="fill: none; stroke: rgb(255, 140, 0); stroke-opacity: 1; stroke-width: 3px;"/></g><g class="legendsymbols"><g class="legendpoints"/></g></g><rect class="legendtoggle" x="0" y="-9.5" width="164.21875" height="19" style="fill: rgb(0, 0, 0); fill-opacity: 0;"/></g><g class="traces" transform="translate(0,128.5)" style="opacity: 1;"><text class="legendtext" text-anchor="start" x="40" y="4.680000000000001" style="font-family: 'Open Sans', verdana, arial, sans-serif; font-size: 12px; fill: rgb(42, 63, 95); fill-opacity: 1; white-space: pre;">Tagged ribosomes</text><g class="layers" style="opacity: 1;"><g class="legendfill"/><g class="legendlines"><path class="js-line" d="M5,0h30" style="fill: none; stroke: rgb(255, 0, 0); stroke-opacity: 1; stroke-width: 3px;"/></g><g class="legendsymbols"><g class="legendpoints"/></g></g><rect class="legendtoggle" x="0" y="-9.5" width="164.21875" height="19" style="fill: rgb(0, 0, 0); fill-opacity: 0;"/></g><g class="traces" transform="translate(0,147.5)" style="opacity: 1;"><text class="legendtext" text-anchor="start" x="40" y="4.680000000000001" style="font-family: 'Open Sans', verdana, arial, sans-serif; font-size: 12px; fill: rgb(42, 63, 95); fill-opacity: 1; white-space: pre;">Bifurcation point</text><g class="layers" style="opacity: 1;"><g class="legendfill"/><g class="legendlines"/><g class="legendsymbols"><g class="legendpoints"><path class="scatterpts" transform="translate(20,0)" d="M3,0A3,3 0 1,1 0,-3A3,3 0 0,1 3,0Z" style="opacity: 1; stroke-width: 0px; fill: rgb(0, 0, 139); fill-opacity: 1;"/></g></g></g><rect class="legendtoggle" x="0" y="-9.5" width="164.21875" height="19" style="fill: rgb(0, 0, 0); fill-opacity: 0;"/></g></g></g><rect class="scrollbar" rx="20" ry="3" width="0" height="0" x="0" y="0" style="fill: rgb(128, 139, 164); fill-opacity: 1;"/></g><g class="g-gtitle"/><g class="g-xtitle"><text class="xtitle" x="355" y="488.20625" text-anchor="middle" style="font-family: 'Open Sans', verdana, arial, sans-serif; font-size: 14px; fill: rgb(42, 63, 95); opacity: 1; font-weight: normal; white-space: pre;">Damage rate (min​<tspan style="font-size:70%" dy="-0.6em">-1</tspan><tspan dy="0.42em">​</tspan>)</text></g><g class="g-ytitle" transform="translate(0.9248046875,0)"><text class="ytitle" transform="rotate(-90,12.075000000000003,252.5)" x="12.075000000000003" y="252.5" text-anchor="middle" style="font-family: 'Open Sans', verdana, arial, sans-serif; font-size: 14px; fill: rgb(42, 63, 95); opacity: 1; font-weight: normal; white-space: pre;">Proteins and mRNAs (μM)</text></g><g class="g-y2title"><text class="y2title" transform="rotate(-90,687.89375,252.5)" x="687.89375" y="252.5" text-anchor="middle" style="font-family: 'Open Sans', verdana, arial, sans-serif; font-size: 14px; fill: rgb(42, 63, 95); opacity: 1; font-weight: normal; white-space: pre;">Ribosomal species (μM)</text></g></g></svg>