<?xml version="1.0" encoding="utf-8"?>
<svg xmlns="http://www.w3.org/2000/svg" xmlns:xlink="http://www.w3.org/1999/xlink" width="600" height="400" viewBox="0 0 2400 1600">
<defs>
  <clipPath id="clip870">
    <rect x="0" y="0" width="2400" height="1600"/>
  </clipPath>
</defs>
<path clip-path="url(#clip870)" d="M0 1600 L2400 1600 L2400 0 L0 0  Z" fill="#ffffff" fill-rule="evenodd" fill-opacity="1"/>
<defs>
  <clipPath id="clip871">
    <rect x="480" y="0" width="1681" height="1600"/>
  </clipPath>
</defs>
<path clip-path="url(#clip870)" d="M219.866 1457.74 L2352.76 1457.74 L2352.76 106.192 L219.866 106.192  Z" fill="#ffffff" fill-rule="evenodd" fill-opacity="1"/>
<defs>
  <clipPath id="clip872">
    <rect x="219" y="106" width="2134" height="1353"/>
  </clipPath>
</defs>
<polyline clip-path="url(#clip872)" style="stroke:#000000; stroke-linecap:round; stroke-linejoin:round; stroke-width:2; stroke-opacity:0.1; fill:none" points="259.906,1457.74 259.906,106.192 "/>
<polyline clip-path="url(#clip872)" style="stroke:#000000; stroke-linecap:round; stroke-linejoin:round; stroke-width:2; stroke-opacity:0.1; fill:none" points="768.027,1457.74 768.027,106.192 "/>
<polyline clip-path="url(#clip872)" style="stroke:#000000; stroke-linecap:round; stroke-linejoin:round; stroke-width:2; stroke-opacity:0.1; fill:none" points="1276.15,1457.74 1276.15,106.192 "/>
<polyline clip-path="url(#clip872)" style="stroke:#000000; stroke-linecap:round; stroke-linejoin:round; stroke-width:2; stroke-opacity:0.1; fill:none" points="1784.27,1457.74 1784.27,106.192 "/>
<polyline clip-path="url(#clip872)" style="stroke:#000000; stroke-linecap:round; stroke-linejoin:round; stroke-width:2; stroke-opacity:0.1; fill:none" points="2292.39,1457.74 2292.39,106.192 "/>
<polyline clip-path="url(#clip870)" style="stroke:#000000; stroke-linecap:round; stroke-linejoin:round; stroke-width:4; stroke-opacity:1; fill:none" points="219.866,1457.74 2352.76,1457.74 "/>
<polyline clip-path="url(#clip870)" style="stroke:#000000; stroke-linecap:round; stroke-linejoin:round; stroke-width:4; stroke-opacity:1; fill:none" points="259.906,1457.74 259.906,1438.84 "/>
<polyline clip-path="url(#clip870)" style="stroke:#000000; stroke-linecap:round; stroke-linejoin:round; stroke-width:4; stroke-opacity:1; fill:none" points="768.027,1457.74 768.027,1438.84 "/>
<polyline clip-path="url(#clip870)" style="stroke:#000000; stroke-linecap:round; stroke-linejoin:round; stroke-width:4; stroke-opacity:1; fill:none" points="1276.15,1457.74 1276.15,1438.84 "/>
<polyline clip-path="url(#clip870)" style="stroke:#000000; stroke-linecap:round; stroke-linejoin:round; stroke-width:4; stroke-opacity:1; fill:none" points="1784.27,1457.74 1784.27,1438.84 "/>
<polyline clip-path="url(#clip870)" style="stroke:#000000; stroke-linecap:round; stroke-linejoin:round; stroke-width:4; stroke-opacity:1; fill:none" points="2292.39,1457.74 2292.39,1438.84 "/>
<path clip-path="url(#clip870)" d="M1085.98 1545.42 L1085.98 1564.32 L1080.09 1564.32 L1080.09 1515.12 L1085.98 1515.12 L1085.98 1520.53 Q1087.83 1517.34 1090.63 1515.82 Q1093.46 1514.26 1097.38 1514.26 Q1103.87 1514.26 1107.91 1519.41 Q1111.99 1524.57 1111.99 1532.97 Q1111.99 1541.37 1107.91 1546.53 Q1103.87 1551.69 1097.38 1551.69 Q1093.46 1551.69 1090.63 1550.16 Q1087.83 1548.6 1085.98 1545.42 M1105.91 1532.97 Q1105.91 1526.51 1103.23 1522.85 Q1100.59 1519.16 1095.94 1519.16 Q1091.3 1519.16 1088.62 1522.85 Q1085.98 1526.51 1085.98 1532.97 Q1085.98 1539.43 1088.62 1543.12 Q1091.3 1546.79 1095.94 1546.79 Q1100.59 1546.79 1103.23 1543.12 Q1105.91 1539.43 1105.91 1532.97 Z" fill="#000000" fill-rule="nonzero" fill-opacity="1" /><path clip-path="url(#clip870)" d="M1137.89 1532.84 Q1130.8 1532.84 1128.06 1534.47 Q1125.32 1536.09 1125.32 1540.01 Q1125.32 1543.12 1127.36 1544.97 Q1129.43 1546.79 1132.96 1546.79 Q1137.83 1546.79 1140.76 1543.35 Q1143.72 1539.88 1143.72 1534.15 L1143.72 1532.84 L1137.89 1532.84 M1149.58 1530.43 L1149.58 1550.76 L1143.72 1550.76 L1143.72 1545.35 Q1141.71 1548.6 1138.72 1550.16 Q1135.73 1551.69 1131.4 1551.69 Q1125.93 1551.69 1122.68 1548.63 Q1119.47 1545.54 1119.47 1540.39 Q1119.47 1534.37 1123.48 1531.32 Q1127.52 1528.26 1135.51 1528.26 L1143.72 1528.26 L1143.72 1527.69 Q1143.72 1523.65 1141.05 1521.45 Q1138.4 1519.22 1133.6 1519.22 Q1130.54 1519.22 1127.65 1519.95 Q1124.75 1520.69 1122.08 1522.15 L1122.08 1516.74 Q1125.29 1515.5 1128.31 1514.89 Q1131.34 1514.26 1134.2 1514.26 Q1141.94 1514.26 1145.76 1518.27 Q1149.58 1522.28 1149.58 1530.43 Z" fill="#000000" fill-rule="nonzero" fill-opacity="1" /><path clip-path="url(#clip870)" d="M1182.3 1520.59 Q1181.31 1520.02 1180.13 1519.76 Q1178.99 1519.48 1177.58 1519.48 Q1172.62 1519.48 1169.95 1522.72 Q1167.3 1525.94 1167.3 1531.99 L1167.3 1550.76 L1161.42 1550.76 L1161.42 1515.12 L1167.3 1515.12 L1167.3 1520.65 Q1169.15 1517.41 1172.11 1515.85 Q1175.07 1514.26 1179.3 1514.26 Q1179.91 1514.26 1180.64 1514.35 Q1181.37 1514.42 1182.26 1514.57 L1182.3 1520.59 Z" fill="#000000" fill-rule="nonzero" fill-opacity="1" /><path clip-path="url(#clip870)" d="M1204.64 1532.84 Q1197.54 1532.84 1194.8 1534.47 Q1192.07 1536.09 1192.07 1540.01 Q1192.07 1543.12 1194.1 1544.97 Q1196.17 1546.79 1199.71 1546.79 Q1204.58 1546.79 1207.5 1543.35 Q1210.46 1539.88 1210.46 1534.15 L1210.46 1532.84 L1204.64 1532.84 M1216.32 1530.43 L1216.32 1550.76 L1210.46 1550.76 L1210.46 1545.35 Q1208.46 1548.6 1205.47 1550.16 Q1202.47 1551.69 1198.15 1551.69 Q1192.67 1551.69 1189.43 1548.63 Q1186.21 1545.54 1186.21 1540.39 Q1186.21 1534.37 1190.22 1531.32 Q1194.26 1528.26 1202.25 1528.26 L1210.46 1528.26 L1210.46 1527.69 Q1210.46 1523.65 1207.79 1521.45 Q1205.15 1519.22 1200.34 1519.22 Q1197.29 1519.22 1194.39 1519.95 Q1191.49 1520.69 1188.82 1522.15 L1188.82 1516.74 Q1192.03 1515.5 1195.06 1514.89 Q1198.08 1514.26 1200.95 1514.26 Q1208.68 1514.26 1212.5 1518.27 Q1216.32 1522.28 1216.32 1530.43 Z" fill="#000000" fill-rule="nonzero" fill-opacity="1" /><path clip-path="url(#clip870)" d="M1256.14 1521.96 Q1258.33 1518.01 1261.39 1516.13 Q1264.44 1514.26 1268.58 1514.26 Q1274.15 1514.26 1277.18 1518.17 Q1280.2 1522.05 1280.2 1529.25 L1280.2 1550.76 L1274.31 1550.76 L1274.31 1529.44 Q1274.31 1524.31 1272.5 1521.83 Q1270.68 1519.35 1266.96 1519.35 Q1262.41 1519.35 1259.77 1522.37 Q1257.12 1525.4 1257.12 1530.62 L1257.12 1550.76 L1251.24 1550.76 L1251.24 1529.44 Q1251.24 1524.28 1249.42 1521.83 Q1247.61 1519.35 1243.82 1519.35 Q1239.33 1519.35 1236.69 1522.4 Q1234.05 1525.43 1234.05 1530.62 L1234.05 1550.76 L1228.16 1550.76 L1228.16 1515.12 L1234.05 1515.12 L1234.05 1520.65 Q1236.05 1517.38 1238.85 1515.82 Q1241.66 1514.26 1245.51 1514.26 Q1249.39 1514.26 1252.1 1516.23 Q1254.83 1518.2 1256.14 1521.96 Z" fill="#000000" fill-rule="nonzero" fill-opacity="1" /><path clip-path="url(#clip870)" d="M1333.26 1520.59 Q1332.27 1520.02 1331.09 1519.76 Q1329.95 1519.48 1328.55 1519.48 Q1323.58 1519.48 1320.91 1522.72 Q1318.27 1525.94 1318.27 1531.99 L1318.27 1550.76 L1312.38 1550.76 L1312.38 1515.12 L1318.27 1515.12 L1318.27 1520.65 Q1320.11 1517.41 1323.07 1515.85 Q1326.03 1514.26 1330.27 1514.26 Q1330.87 1514.26 1331.6 1514.35 Q1332.34 1514.42 1333.23 1514.57 L1333.26 1520.59 Z" fill="#000000" fill-rule="nonzero" fill-opacity="1" /><path clip-path="url(#clip870)" d="M1355.6 1532.84 Q1348.5 1532.84 1345.77 1534.47 Q1343.03 1536.09 1343.03 1540.01 Q1343.03 1543.12 1345.07 1544.97 Q1347.14 1546.79 1350.67 1546.79 Q1355.54 1546.79 1358.47 1543.35 Q1361.43 1539.88 1361.43 1534.15 L1361.43 1532.84 L1355.6 1532.84 M1367.28 1530.43 L1367.28 1550.76 L1361.43 1550.76 L1361.43 1545.35 Q1359.42 1548.6 1356.43 1550.16 Q1353.44 1551.69 1349.11 1551.69 Q1343.63 1551.69 1340.39 1548.63 Q1337.17 1545.54 1337.17 1540.39 Q1337.17 1534.37 1341.18 1531.32 Q1345.23 1528.26 1353.21 1528.26 L1361.43 1528.26 L1361.43 1527.69 Q1361.43 1523.65 1358.75 1521.45 Q1356.11 1519.22 1351.3 1519.22 Q1348.25 1519.22 1345.35 1519.95 Q1342.46 1520.69 1339.78 1522.15 L1339.78 1516.74 Q1343 1515.5 1346.02 1514.89 Q1349.05 1514.26 1351.91 1514.26 Q1359.64 1514.26 1363.46 1518.27 Q1367.28 1522.28 1367.28 1530.43 Z" fill="#000000" fill-rule="nonzero" fill-opacity="1" /><path clip-path="url(#clip870)" d="M1408.98 1529.25 L1408.98 1550.76 L1403.12 1550.76 L1403.12 1529.44 Q1403.12 1524.38 1401.15 1521.86 Q1399.18 1519.35 1395.23 1519.35 Q1390.49 1519.35 1387.75 1522.37 Q1385.01 1525.4 1385.01 1530.62 L1385.01 1550.76 L1379.12 1550.76 L1379.12 1515.12 L1385.01 1515.12 L1385.01 1520.65 Q1387.11 1517.44 1389.94 1515.85 Q1392.81 1514.26 1396.53 1514.26 Q1402.68 1514.26 1405.83 1518.08 Q1408.98 1521.86 1408.98 1529.25 Z" fill="#000000" fill-rule="nonzero" fill-opacity="1" /><path clip-path="url(#clip870)" d="M1444.12 1532.53 Q1444.12 1526.16 1441.48 1522.66 Q1438.87 1519.16 1434.12 1519.16 Q1429.41 1519.16 1426.77 1522.66 Q1424.16 1526.16 1424.16 1532.53 Q1424.16 1538.86 1426.77 1542.36 Q1429.41 1545.86 1434.12 1545.86 Q1438.87 1545.86 1441.48 1542.36 Q1444.12 1538.86 1444.12 1532.53 M1449.97 1546.34 Q1449.97 1555.44 1445.93 1559.87 Q1441.89 1564.32 1433.55 1564.32 Q1430.46 1564.32 1427.73 1563.85 Q1424.99 1563.4 1422.41 1562.44 L1422.41 1556.75 Q1424.99 1558.15 1427.5 1558.82 Q1430.02 1559.48 1432.63 1559.48 Q1438.39 1559.48 1441.25 1556.46 Q1444.12 1553.47 1444.12 1547.39 L1444.12 1544.49 Q1442.3 1547.64 1439.47 1549.2 Q1436.64 1550.76 1432.69 1550.76 Q1426.13 1550.76 1422.12 1545.77 Q1418.11 1540.77 1418.11 1532.53 Q1418.11 1524.25 1422.12 1519.25 Q1426.13 1514.26 1432.69 1514.26 Q1436.64 1514.26 1439.47 1515.82 Q1442.3 1517.38 1444.12 1520.53 L1444.12 1515.12 L1449.97 1515.12 L1449.97 1546.34 Z" fill="#000000" fill-rule="nonzero" fill-opacity="1" /><path clip-path="url(#clip870)" d="M1492.53 1531.48 L1492.53 1534.34 L1465.6 1534.34 Q1465.98 1540.39 1469.23 1543.57 Q1472.51 1546.72 1478.33 1546.72 Q1481.71 1546.72 1484.86 1545.89 Q1488.04 1545.07 1491.16 1543.41 L1491.16 1548.95 Q1488.01 1550.29 1484.7 1550.99 Q1481.39 1551.69 1477.98 1551.69 Q1469.45 1551.69 1464.46 1546.72 Q1459.49 1541.76 1459.49 1533.29 Q1459.49 1524.54 1464.2 1519.41 Q1468.94 1514.26 1476.96 1514.26 Q1484.16 1514.26 1488.33 1518.9 Q1492.53 1523.52 1492.53 1531.48 M1486.67 1529.76 Q1486.61 1524.95 1483.97 1522.09 Q1481.36 1519.22 1477.03 1519.22 Q1472.13 1519.22 1469.17 1521.99 Q1466.24 1524.76 1465.79 1529.79 L1486.67 1529.76 Z" fill="#000000" fill-rule="nonzero" fill-opacity="1" /><polyline clip-path="url(#clip872)" style="stroke:#000000; stroke-linecap:round; stroke-linejoin:round; stroke-width:2; stroke-opacity:0.1; fill:none" points="219.866,1420.32 2352.76,1420.32 "/>
<polyline clip-path="url(#clip872)" style="stroke:#000000; stroke-linecap:round; stroke-linejoin:round; stroke-width:2; stroke-opacity:0.1; fill:none" points="219.866,1192.56 2352.76,1192.56 "/>
<polyline clip-path="url(#clip872)" style="stroke:#000000; stroke-linecap:round; stroke-linejoin:round; stroke-width:2; stroke-opacity:0.1; fill:none" points="219.866,964.804 2352.76,964.804 "/>
<polyline clip-path="url(#clip872)" style="stroke:#000000; stroke-linecap:round; stroke-linejoin:round; stroke-width:2; stroke-opacity:0.1; fill:none" points="219.866,737.046 2352.76,737.046 "/>
<polyline clip-path="url(#clip872)" style="stroke:#000000; stroke-linecap:round; stroke-linejoin:round; stroke-width:2; stroke-opacity:0.1; fill:none" points="219.866,509.288 2352.76,509.288 "/>
<polyline clip-path="url(#clip872)" style="stroke:#000000; stroke-linecap:round; stroke-linejoin:round; stroke-width:2; stroke-opacity:0.1; fill:none" points="219.866,281.53 2352.76,281.53 "/>
<polyline clip-path="url(#clip870)" style="stroke:#000000; stroke-linecap:round; stroke-linejoin:round; stroke-width:4; stroke-opacity:1; fill:none" points="219.866,1457.74 219.866,106.192 "/>
<polyline clip-path="url(#clip870)" style="stroke:#000000; stroke-linecap:round; stroke-linejoin:round; stroke-width:4; stroke-opacity:1; fill:none" points="219.866,1420.32 238.764,1420.32 "/>
<polyline clip-path="url(#clip870)" style="stroke:#000000; stroke-linecap:round; stroke-linejoin:round; stroke-width:4; stroke-opacity:1; fill:none" points="219.866,1192.56 238.764,1192.56 "/>
<polyline clip-path="url(#clip870)" style="stroke:#000000; stroke-linecap:round; stroke-linejoin:round; stroke-width:4; stroke-opacity:1; fill:none" points="219.866,964.804 238.764,964.804 "/>
<polyline clip-path="url(#clip870)" style="stroke:#000000; stroke-linecap:round; stroke-linejoin:round; stroke-width:4; stroke-opacity:1; fill:none" points="219.866,737.046 238.764,737.046 "/>
<polyline clip-path="url(#clip870)" style="stroke:#000000; stroke-linecap:round; stroke-linejoin:round; stroke-width:4; stroke-opacity:1; fill:none" points="219.866,509.288 238.764,509.288 "/>
<polyline clip-path="url(#clip870)" style="stroke:#000000; stroke-linecap:round; stroke-linejoin:round; stroke-width:4; stroke-opacity:1; fill:none" points="219.866,281.53 238.764,281.53 "/>
<path clip-path="url(#clip870)" d="M126.691 1406.12 Q123.08 1406.12 121.251 1409.68 Q119.445 1413.22 119.445 1420.35 Q119.445 1427.46 121.251 1431.03 Q123.08 1434.57 126.691 1434.57 Q130.325 1434.57 132.13 1431.03 Q133.959 1427.46 133.959 1420.35 Q133.959 1413.22 132.13 1409.68 Q130.325 1406.12 126.691 1406.12 M126.691 1402.41 Q132.501 1402.41 135.556 1407.02 Q138.635 1411.6 138.635 1420.35 Q138.635 1429.08 135.556 1433.69 Q132.501 1438.27 126.691 1438.27 Q120.88 1438.27 117.802 1433.69 Q114.746 1429.08 114.746 1420.35 Q114.746 1411.6 117.802 1407.02 Q120.88 1402.41 126.691 1402.41 Z" fill="#000000" fill-rule="nonzero" fill-opacity="1" /><path clip-path="url(#clip870)" d="M146.853 1431.72 L151.737 1431.72 L151.737 1437.6 L146.853 1437.6 L146.853 1431.72 Z" fill="#000000" fill-rule="nonzero" fill-opacity="1" /><path clip-path="url(#clip870)" d="M171.922 1406.12 Q168.311 1406.12 166.482 1409.68 Q164.677 1413.22 164.677 1420.35 Q164.677 1427.46 166.482 1431.03 Q168.311 1434.57 171.922 1434.57 Q175.556 1434.57 177.362 1431.03 Q179.19 1427.46 179.19 1420.35 Q179.19 1413.22 177.362 1409.68 Q175.556 1406.12 171.922 1406.12 M171.922 1402.41 Q177.732 1402.41 180.788 1407.02 Q183.866 1411.6 183.866 1420.35 Q183.866 1429.08 180.788 1433.69 Q177.732 1438.27 171.922 1438.27 Q166.112 1438.27 163.033 1433.69 Q159.978 1429.08 159.978 1420.35 Q159.978 1411.6 163.033 1407.02 Q166.112 1402.41 171.922 1402.41 Z" fill="#000000" fill-rule="nonzero" fill-opacity="1" /><path clip-path="url(#clip870)" d="M127.917 1178.36 Q124.306 1178.36 122.478 1181.93 Q120.672 1185.47 120.672 1192.6 Q120.672 1199.7 122.478 1203.27 Q124.306 1206.81 127.917 1206.81 Q131.552 1206.81 133.357 1203.27 Q135.186 1199.7 135.186 1192.6 Q135.186 1185.47 133.357 1181.93 Q131.552 1178.36 127.917 1178.36 M127.917 1174.66 Q133.728 1174.66 136.783 1179.26 Q139.862 1183.85 139.862 1192.6 Q139.862 1201.32 136.783 1205.93 Q133.728 1210.51 127.917 1210.51 Q122.107 1210.51 119.029 1205.93 Q115.973 1201.32 115.973 1192.6 Q115.973 1183.85 119.029 1179.26 Q122.107 1174.66 127.917 1174.66 Z" fill="#000000" fill-rule="nonzero" fill-opacity="1" /><path clip-path="url(#clip870)" d="M148.079 1203.96 L152.964 1203.96 L152.964 1209.84 L148.079 1209.84 L148.079 1203.96 Z" fill="#000000" fill-rule="nonzero" fill-opacity="1" /><path clip-path="url(#clip870)" d="M163.959 1205.91 L171.598 1205.91 L171.598 1179.54 L163.288 1181.21 L163.288 1176.95 L171.552 1175.28 L176.227 1175.28 L176.227 1205.91 L183.866 1205.91 L183.866 1209.84 L163.959 1209.84 L163.959 1205.91 Z" fill="#000000" fill-rule="nonzero" fill-opacity="1" /><path clip-path="url(#clip870)" d="M128.288 950.603 Q124.677 950.603 122.848 954.167 Q121.043 957.709 121.043 964.839 Q121.043 971.945 122.848 975.51 Q124.677 979.052 128.288 979.052 Q131.922 979.052 133.728 975.51 Q135.556 971.945 135.556 964.839 Q135.556 957.709 133.728 954.167 Q131.922 950.603 128.288 950.603 M128.288 946.899 Q134.098 946.899 137.154 951.505 Q140.232 956.089 140.232 964.839 Q140.232 973.565 137.154 978.172 Q134.098 982.755 128.288 982.755 Q122.478 982.755 119.399 978.172 Q116.343 973.565 116.343 964.839 Q116.343 956.089 119.399 951.505 Q122.478 946.899 128.288 946.899 Z" fill="#000000" fill-rule="nonzero" fill-opacity="1" /><path clip-path="url(#clip870)" d="M148.45 976.204 L153.334 976.204 L153.334 982.084 L148.45 982.084 L148.45 976.204 Z" fill="#000000" fill-rule="nonzero" fill-opacity="1" /><path clip-path="url(#clip870)" d="M167.547 978.149 L183.866 978.149 L183.866 982.084 L161.922 982.084 L161.922 978.149 Q164.584 975.394 169.167 970.765 Q173.774 966.112 174.954 964.769 Q177.2 962.246 178.079 960.51 Q178.982 958.751 178.982 957.061 Q178.982 954.306 177.038 952.57 Q175.116 950.834 172.014 950.834 Q169.815 950.834 167.362 951.598 Q164.931 952.362 162.153 953.913 L162.153 949.191 Q164.977 948.056 167.431 947.478 Q169.885 946.899 171.922 946.899 Q177.292 946.899 180.487 949.584 Q183.681 952.269 183.681 956.76 Q183.681 958.89 182.871 960.811 Q182.084 962.709 179.977 965.302 Q179.399 965.973 176.297 969.19 Q173.195 972.385 167.547 978.149 Z" fill="#000000" fill-rule="nonzero" fill-opacity="1" /><path clip-path="url(#clip870)" d="M127.339 722.845 Q123.728 722.845 121.899 726.409 Q120.093 729.951 120.093 737.081 Q120.093 744.187 121.899 747.752 Q123.728 751.294 127.339 751.294 Q130.973 751.294 132.779 747.752 Q134.607 744.187 134.607 737.081 Q134.607 729.951 132.779 726.409 Q130.973 722.845 127.339 722.845 M127.339 719.141 Q133.149 719.141 136.204 723.747 Q139.283 728.331 139.283 737.081 Q139.283 745.808 136.204 750.414 Q133.149 754.997 127.339 754.997 Q121.529 754.997 118.45 750.414 Q115.394 745.808 115.394 737.081 Q115.394 728.331 118.45 723.747 Q121.529 719.141 127.339 719.141 Z" fill="#000000" fill-rule="nonzero" fill-opacity="1" /><path clip-path="url(#clip870)" d="M147.501 748.446 L152.385 748.446 L152.385 754.326 L147.501 754.326 L147.501 748.446 Z" fill="#000000" fill-rule="nonzero" fill-opacity="1" /><path clip-path="url(#clip870)" d="M176.737 735.692 Q180.093 736.409 181.968 738.678 Q183.866 740.946 183.866 744.28 Q183.866 749.395 180.348 752.196 Q176.829 754.997 170.348 754.997 Q168.172 754.997 165.857 754.557 Q163.565 754.141 161.112 753.284 L161.112 748.77 Q163.056 749.905 165.371 750.483 Q167.686 751.062 170.209 751.062 Q174.607 751.062 176.899 749.326 Q179.214 747.59 179.214 744.28 Q179.214 741.224 177.061 739.511 Q174.931 737.775 171.112 737.775 L167.084 737.775 L167.084 733.933 L171.297 733.933 Q174.746 733.933 176.575 732.567 Q178.403 731.178 178.403 728.585 Q178.403 725.923 176.505 724.511 Q174.63 723.076 171.112 723.076 Q169.19 723.076 166.991 723.493 Q164.792 723.909 162.153 724.789 L162.153 720.622 Q164.815 719.882 167.13 719.511 Q169.468 719.141 171.528 719.141 Q176.852 719.141 179.954 721.572 Q183.056 723.979 183.056 728.099 Q183.056 730.97 181.413 732.96 Q179.769 734.928 176.737 735.692 Z" fill="#000000" fill-rule="nonzero" fill-opacity="1" /><path clip-path="url(#clip870)" d="M126.205 495.087 Q122.593 495.087 120.765 498.652 Q118.959 502.193 118.959 509.323 Q118.959 516.429 120.765 519.994 Q122.593 523.536 126.205 523.536 Q129.839 523.536 131.644 519.994 Q133.473 516.429 133.473 509.323 Q133.473 502.193 131.644 498.652 Q129.839 495.087 126.205 495.087 M126.205 491.383 Q132.015 491.383 135.07 495.99 Q138.149 500.573 138.149 509.323 Q138.149 518.05 135.07 522.656 Q132.015 527.239 126.205 527.239 Q120.394 527.239 117.316 522.656 Q114.26 518.05 114.26 509.323 Q114.26 500.573 117.316 495.99 Q120.394 491.383 126.205 491.383 Z" fill="#000000" fill-rule="nonzero" fill-opacity="1" /><path clip-path="url(#clip870)" d="M146.366 520.688 L151.251 520.688 L151.251 526.568 L146.366 526.568 L146.366 520.688 Z" fill="#000000" fill-rule="nonzero" fill-opacity="1" /><path clip-path="url(#clip870)" d="M174.283 496.082 L162.477 514.531 L174.283 514.531 L174.283 496.082 M173.056 492.008 L178.936 492.008 L178.936 514.531 L183.866 514.531 L183.866 518.42 L178.936 518.42 L178.936 526.568 L174.283 526.568 L174.283 518.42 L158.681 518.42 L158.681 513.906 L173.056 492.008 Z" fill="#000000" fill-rule="nonzero" fill-opacity="1" /><path clip-path="url(#clip870)" d="M127.686 267.329 Q124.075 267.329 122.246 270.894 Q120.441 274.435 120.441 281.565 Q120.441 288.671 122.246 292.236 Q124.075 295.778 127.686 295.778 Q131.32 295.778 133.126 292.236 Q134.954 288.671 134.954 281.565 Q134.954 274.435 133.126 270.894 Q131.32 267.329 127.686 267.329 M127.686 263.625 Q133.496 263.625 136.552 268.232 Q139.63 272.815 139.63 281.565 Q139.63 290.292 136.552 294.898 Q133.496 299.481 127.686 299.481 Q121.876 299.481 118.797 294.898 Q115.742 290.292 115.742 281.565 Q115.742 272.815 118.797 268.232 Q121.876 263.625 127.686 263.625 Z" fill="#000000" fill-rule="nonzero" fill-opacity="1" /><path clip-path="url(#clip870)" d="M147.848 292.931 L152.732 292.931 L152.732 298.81 L147.848 298.81 L147.848 292.931 Z" fill="#000000" fill-rule="nonzero" fill-opacity="1" /><path clip-path="url(#clip870)" d="M162.964 264.25 L181.32 264.25 L181.32 268.185 L167.246 268.185 L167.246 276.657 Q168.264 276.31 169.283 276.148 Q170.302 275.963 171.32 275.963 Q177.107 275.963 180.487 279.134 Q183.866 282.306 183.866 287.722 Q183.866 293.301 180.394 296.403 Q176.922 299.481 170.602 299.481 Q168.427 299.481 166.158 299.111 Q163.913 298.741 161.505 298 L161.505 293.301 Q163.589 294.435 165.811 294.991 Q168.033 295.546 170.51 295.546 Q174.514 295.546 176.852 293.44 Q179.19 291.333 179.19 287.722 Q179.19 284.111 176.852 282.005 Q174.514 279.898 170.51 279.898 Q168.635 279.898 166.76 280.315 Q164.908 280.732 162.964 281.611 L162.964 264.25 Z" fill="#000000" fill-rule="nonzero" fill-opacity="1" /><path clip-path="url(#clip870)" d="M29.4065 1140.26 L34.9447 1140.26 Q33.6716 1142.74 33.035 1145.42 Q32.3984 1148.09 32.3984 1150.95 Q32.3984 1155.31 33.7352 1157.51 Q35.072 1159.68 37.7456 1159.68 Q39.7826 1159.68 40.9603 1158.12 Q42.1061 1156.56 43.1565 1151.85 L43.6021 1149.84 Q44.9389 1143.6 47.3897 1140.99 Q49.8086 1138.35 54.1691 1138.35 Q59.1344 1138.35 62.0308 1142.3 Q64.9272 1146.21 64.9272 1153.09 Q64.9272 1155.95 64.3543 1159.07 Q63.8132 1162.16 62.6992 1165.6 L56.6518 1165.6 Q58.3387 1162.35 59.198 1159.2 Q60.0256 1156.05 60.0256 1152.96 Q60.0256 1148.82 58.6251 1146.59 Q57.1929 1144.37 54.6147 1144.37 Q52.2276 1144.37 50.9545 1145.99 Q49.6813 1147.58 48.5037 1153.02 L48.0262 1155.06 Q46.8804 1160.5 44.5251 1162.92 Q42.138 1165.34 38.0002 1165.34 Q32.9713 1165.34 30.2341 1161.78 Q27.4968 1158.21 27.4968 1151.65 Q27.4968 1148.41 27.9743 1145.54 Q28.4517 1142.68 29.4065 1140.26 Z" fill="#000000" fill-rule="nonzero" fill-opacity="1" /><path clip-path="url(#clip870)" d="M28.3562 1129.02 L28.3562 1123.17 L64.0042 1123.17 L64.0042 1129.02 L28.3562 1129.02 M14.479 1129.02 L14.479 1123.17 L21.895 1123.17 L21.895 1129.02 L14.479 1129.02 Z" fill="#000000" fill-rule="nonzero" fill-opacity="1" /><path clip-path="url(#clip870)" d="M28.3562 1113.46 L28.3562 1085.64 L33.7034 1085.64 L59.3254 1107.67 L59.3254 1085.64 L64.0042 1085.64 L64.0042 1114.26 L58.657 1114.26 L33.035 1092.23 L33.035 1113.46 L28.3562 1113.46 Z" fill="#000000" fill-rule="nonzero" fill-opacity="1" /><path clip-path="url(#clip870)" d="M44.7161 1046.21 L47.5806 1046.21 L47.5806 1073.13 Q53.6281 1072.75 56.8109 1069.5 Q59.9619 1066.23 59.9619 1060.4 Q59.9619 1057.03 59.1344 1053.88 Q58.3069 1050.69 56.6518 1047.58 L62.1899 1047.58 Q63.5267 1050.73 64.227 1054.04 Q64.9272 1057.35 64.9272 1060.75 Q64.9272 1069.28 59.9619 1074.28 Q54.9967 1079.24 46.5303 1079.24 Q37.7774 1079.24 32.6531 1074.53 Q27.4968 1069.79 27.4968 1061.77 Q27.4968 1054.58 32.1438 1050.41 Q36.7589 1046.21 44.7161 1046.21 M42.9973 1052.06 Q38.1912 1052.13 35.3266 1054.77 Q32.4621 1057.38 32.4621 1061.71 Q32.4621 1066.61 35.2312 1069.57 Q38.0002 1072.5 43.0292 1072.94 L42.9973 1052.06 Z" fill="#000000" fill-rule="nonzero" fill-opacity="1" /><path clip-path="url(#clip870)" d="M32.4621 1002.06 Q32.4621 1006.77 36.1542 1009.51 Q39.8145 1012.25 46.212 1012.25 Q52.6095 1012.25 56.3017 1009.54 Q59.9619 1006.8 59.9619 1002.06 Q59.9619 997.381 56.2698 994.644 Q52.5777 991.907 46.212 991.907 Q39.8781 991.907 36.186 994.644 Q32.4621 997.381 32.4621 1002.06 M27.4968 1002.06 Q27.4968 994.421 32.4621 990.061 Q37.4273 985.7 46.212 985.7 Q54.9649 985.7 59.9619 990.061 Q64.9272 994.421 64.9272 1002.06 Q64.9272 1009.73 59.9619 1014.09 Q54.9649 1018.42 46.212 1018.42 Q37.4273 1018.42 32.4621 1014.09 Q27.4968 1009.73 27.4968 1002.06 Z" fill="#000000" fill-rule="nonzero" fill-opacity="1" /><path clip-path="url(#clip870)" d="M14.479 957.946 L19.3487 957.946 L19.3487 963.548 Q19.3487 966.699 20.6219 967.94 Q21.895 969.15 25.2052 969.15 L28.3562 969.15 L28.3562 959.506 L32.9077 959.506 L32.9077 969.15 L64.0042 969.15 L64.0042 975.038 L32.9077 975.038 L32.9077 980.64 L28.3562 980.64 L28.3562 975.038 L25.8736 975.038 Q19.9216 975.038 17.2162 972.269 Q14.479 969.5 14.479 963.484 L14.479 957.946 Z" fill="#000000" fill-rule="nonzero" fill-opacity="1" /><path clip-path="url(#clip870)" d="M46.212 906.734 Q39.7508 906.734 36.0905 909.407 Q32.3984 912.049 32.3984 916.696 Q32.3984 921.343 36.0905 924.017 Q39.7508 926.658 46.212 926.658 Q52.6732 926.658 56.3653 924.017 Q60.0256 921.343 60.0256 916.696 Q60.0256 912.049 56.3653 909.407 Q52.6732 906.734 46.212 906.734 M33.7671 926.658 Q30.5842 924.812 29.0564 922.012 Q27.4968 919.179 27.4968 915.264 Q27.4968 908.771 32.6531 904.729 Q37.8093 900.655 46.212 900.655 Q54.6147 900.655 59.771 904.729 Q64.9272 908.771 64.9272 915.264 Q64.9272 919.179 63.3994 922.012 Q61.8398 924.812 58.657 926.658 L64.0042 926.658 L64.0042 932.547 L14.479 932.547 L14.479 926.658 L33.7671 926.658 Z" fill="#000000" fill-rule="nonzero" fill-opacity="1" /><path clip-path="url(#clip870)" d="M28.3562 890.947 L28.3562 885.09 L64.0042 885.09 L64.0042 890.947 L28.3562 890.947 M14.479 890.947 L14.479 885.09 L21.895 885.09 L21.895 890.947 L14.479 890.947 Z" fill="#000000" fill-rule="nonzero" fill-opacity="1" /><path clip-path="url(#clip870)" d="M29.4065 850.111 L34.9447 850.111 Q33.6716 852.593 33.035 855.267 Q32.3984 857.941 32.3984 860.805 Q32.3984 865.166 33.7352 867.362 Q35.072 869.526 37.7456 869.526 Q39.7826 869.526 40.9603 867.967 Q42.1061 866.407 43.1565 861.696 L43.6021 859.691 Q44.9389 853.453 47.3897 850.843 Q49.8086 848.201 54.1691 848.201 Q59.1344 848.201 62.0308 852.148 Q64.9272 856.063 64.9272 862.938 Q64.9272 865.802 64.3543 868.922 Q63.8132 872.009 62.6992 875.446 L56.6518 875.446 Q58.3387 872.2 59.198 869.049 Q60.0256 865.898 60.0256 862.81 Q60.0256 858.673 58.6251 856.445 Q57.1929 854.217 54.6147 854.217 Q52.2276 854.217 50.9545 855.84 Q49.6813 857.431 48.5037 862.874 L48.0262 864.911 Q46.8804 870.354 44.5251 872.773 Q42.138 875.192 38.0002 875.192 Q32.9713 875.192 30.2341 871.627 Q27.4968 868.062 27.4968 861.505 Q27.4968 858.259 27.9743 855.394 Q28.4517 852.53 29.4065 850.111 Z" fill="#000000" fill-rule="nonzero" fill-opacity="1" /><path clip-path="url(#clip870)" d="M18.2347 833.083 L28.3562 833.083 L28.3562 821.02 L32.9077 821.02 L32.9077 833.083 L52.2594 833.083 Q56.6199 833.083 57.8613 831.905 Q59.1026 830.695 59.1026 827.035 L59.1026 821.02 L64.0042 821.02 L64.0042 827.035 Q64.0042 833.815 61.4897 836.393 Q58.9434 838.971 52.2594 838.971 L32.9077 838.971 L32.9077 843.268 L28.3562 843.268 L28.3562 838.971 L18.2347 838.971 L18.2347 833.083 Z" fill="#000000" fill-rule="nonzero" fill-opacity="1" /><path clip-path="url(#clip870)" d="M46.0847 797.116 Q46.0847 804.214 47.7079 806.951 Q49.3312 809.689 53.2461 809.689 Q56.3653 809.689 58.2114 807.652 Q60.0256 805.583 60.0256 802.05 Q60.0256 797.18 56.5881 794.252 Q53.1188 791.292 47.3897 791.292 L46.0847 791.292 L46.0847 797.116 M43.6657 785.435 L64.0042 785.435 L64.0042 791.292 L58.5933 791.292 Q61.8398 793.297 63.3994 796.289 Q64.9272 799.281 64.9272 803.609 Q64.9272 809.084 61.8716 812.33 Q58.7843 815.545 53.6281 815.545 Q47.6125 815.545 44.5569 811.535 Q41.5014 807.492 41.5014 799.504 L41.5014 791.292 L40.9285 791.292 Q36.8862 791.292 34.6901 793.965 Q32.4621 796.607 32.4621 801.413 Q32.4621 804.469 33.1941 807.365 Q33.9262 810.262 35.3903 812.935 L29.9795 812.935 Q28.7381 809.72 28.1334 806.697 Q27.4968 803.673 27.4968 800.808 Q27.4968 793.074 31.5072 789.255 Q35.5176 785.435 43.6657 785.435 Z" fill="#000000" fill-rule="nonzero" fill-opacity="1" /><path clip-path="url(#clip870)" d="M46.212 747.782 Q39.7508 747.782 36.0905 750.456 Q32.3984 753.098 32.3984 757.744 Q32.3984 762.391 36.0905 765.065 Q39.7508 767.707 46.212 767.707 Q52.6732 767.707 56.3653 765.065 Q60.0256 762.391 60.0256 757.744 Q60.0256 753.098 56.3653 750.456 Q52.6732 747.782 46.212 747.782 M33.7671 767.707 Q30.5842 765.861 29.0564 763.06 Q27.4968 760.227 27.4968 756.312 Q27.4968 749.819 32.6531 745.777 Q37.8093 741.703 46.212 741.703 Q54.6147 741.703 59.771 745.777 Q64.9272 749.819 64.9272 756.312 Q64.9272 760.227 63.3994 763.06 Q61.8398 765.861 58.657 767.707 L64.0042 767.707 L64.0042 773.595 L14.479 773.595 L14.479 767.707 L33.7671 767.707 Z" fill="#000000" fill-rule="nonzero" fill-opacity="1" /><path clip-path="url(#clip870)" d="M28.3562 731.995 L28.3562 726.139 L64.0042 726.139 L64.0042 731.995 L28.3562 731.995 M14.479 731.995 L14.479 726.139 L21.895 726.139 L21.895 731.995 L14.479 731.995 Z" fill="#000000" fill-rule="nonzero" fill-opacity="1" /><path clip-path="url(#clip870)" d="M14.479 713.885 L14.479 708.028 L64.0042 708.028 L64.0042 713.885 L14.479 713.885 Z" fill="#000000" fill-rule="nonzero" fill-opacity="1" /><path clip-path="url(#clip870)" d="M28.3562 695.774 L28.3562 689.918 L64.0042 689.918 L64.0042 695.774 L28.3562 695.774 M14.479 695.774 L14.479 689.918 L21.895 689.918 L21.895 695.774 L14.479 695.774 Z" fill="#000000" fill-rule="nonzero" fill-opacity="1" /><path clip-path="url(#clip870)" d="M18.2347 671.871 L28.3562 671.871 L28.3562 659.808 L32.9077 659.808 L32.9077 671.871 L52.2594 671.871 Q56.6199 671.871 57.8613 670.693 Q59.1026 669.484 59.1026 665.824 L59.1026 659.808 L64.0042 659.808 L64.0042 665.824 Q64.0042 672.603 61.4897 675.181 Q58.9434 677.759 52.2594 677.759 L32.9077 677.759 L32.9077 682.056 L28.3562 682.056 L28.3562 677.759 L18.2347 677.759 L18.2347 671.871 Z" fill="#000000" fill-rule="nonzero" fill-opacity="1" /><path clip-path="url(#clip870)" d="M67.3143 637.273 Q73.68 639.756 75.6216 642.111 Q77.5631 644.467 77.5631 648.413 L77.5631 653.092 L72.6615 653.092 L72.6615 649.655 Q72.6615 647.236 71.5157 645.899 Q70.3699 644.562 66.1048 642.939 L63.4312 641.889 L28.3562 656.307 L28.3562 650.1 L56.238 638.96 L28.3562 627.82 L28.3562 621.614 L67.3143 637.273 Z" fill="#000000" fill-rule="nonzero" fill-opacity="1" /><path clip-path="url(#clip870)" d="M33.8307 572.152 Q33.2578 573.139 33.0032 574.317 Q32.7167 575.462 32.7167 576.863 Q32.7167 581.828 35.9632 584.502 Q39.1779 587.144 45.2253 587.144 L64.0042 587.144 L64.0042 593.032 L28.3562 593.032 L28.3562 587.144 L33.8944 587.144 Q30.6479 585.297 29.0883 582.337 Q27.4968 579.377 27.4968 575.144 Q27.4968 574.539 27.5923 573.807 Q27.656 573.075 27.8151 572.184 L33.8307 572.152 Z" fill="#000000" fill-rule="nonzero" fill-opacity="1" /><path clip-path="url(#clip870)" d="M44.7161 536.95 L47.5806 536.95 L47.5806 563.877 Q53.6281 563.495 56.8109 560.248 Q59.9619 556.97 59.9619 551.145 Q59.9619 547.772 59.1344 544.621 Q58.3069 541.438 56.6518 538.319 L62.1899 538.319 Q63.5267 541.47 64.227 544.78 Q64.9272 548.09 64.9272 551.496 Q64.9272 560.026 59.9619 565.023 Q54.9967 569.988 46.5303 569.988 Q37.7774 569.988 32.6531 565.277 Q27.4968 560.535 27.4968 552.514 Q27.4968 545.321 32.1438 541.151 Q36.7589 536.95 44.7161 536.95 M42.9973 542.806 Q38.1912 542.87 35.3266 545.512 Q32.4621 548.122 32.4621 552.45 Q32.4621 557.352 35.2312 560.312 Q38.0002 563.24 43.0292 563.686 L42.9973 542.806 Z" fill="#000000" fill-rule="nonzero" fill-opacity="1" /><path clip-path="url(#clip870)" d="M45.7664 503.88 Q39.4007 503.88 35.8996 506.522 Q32.3984 509.132 32.3984 513.874 Q32.3984 518.585 35.8996 521.227 Q39.4007 523.837 45.7664 523.837 Q52.1003 523.837 55.6014 521.227 Q59.1026 518.585 59.1026 513.874 Q59.1026 509.132 55.6014 506.522 Q52.1003 503.88 45.7664 503.88 M59.58 498.024 Q68.683 498.024 73.1071 502.066 Q77.5631 506.108 77.5631 514.447 Q77.5631 517.535 77.0857 520.272 Q76.6401 523.009 75.6852 525.587 L69.9879 525.587 Q71.3884 523.009 72.0568 520.495 Q72.7252 517.98 72.7252 515.37 Q72.7252 509.609 69.7015 506.745 Q66.7096 503.88 60.6303 503.88 L57.7339 503.88 Q60.885 505.694 62.4446 508.527 Q64.0042 511.36 64.0042 515.307 Q64.0042 521.863 59.0071 525.874 Q54.01 529.884 45.7664 529.884 Q37.491 529.884 32.4939 525.874 Q27.4968 521.863 27.4968 515.307 Q27.4968 511.36 29.0564 508.527 Q30.616 505.694 33.7671 503.88 L28.3562 503.88 L28.3562 498.024 L59.58 498.024 Z" fill="#000000" fill-rule="nonzero" fill-opacity="1" /><path clip-path="url(#clip870)" d="M28.3562 485.961 L28.3562 480.104 L64.0042 480.104 L64.0042 485.961 L28.3562 485.961 M14.479 485.961 L14.479 480.104 L21.895 480.104 L21.895 485.961 L14.479 485.961 Z" fill="#000000" fill-rule="nonzero" fill-opacity="1" /><path clip-path="url(#clip870)" d="M32.4621 454.037 Q32.4621 458.747 36.1542 461.484 Q39.8145 464.222 46.212 464.222 Q52.6095 464.222 56.3017 461.516 Q59.9619 458.779 59.9619 454.037 Q59.9619 449.358 56.2698 446.621 Q52.5777 443.883 46.212 443.883 Q39.8781 443.883 36.186 446.621 Q32.4621 449.358 32.4621 454.037 M27.4968 454.037 Q27.4968 446.398 32.4621 442.037 Q37.4273 437.677 46.212 437.677 Q54.9649 437.677 59.9619 442.037 Q64.9272 446.398 64.9272 454.037 Q64.9272 461.707 59.9619 466.068 Q54.9649 470.396 46.212 470.396 Q37.4273 470.396 32.4621 466.068 Q27.4968 461.707 27.4968 454.037 Z" fill="#000000" fill-rule="nonzero" fill-opacity="1" /><path clip-path="url(#clip870)" d="M42.4881 398.337 L64.0042 398.337 L64.0042 404.193 L42.679 404.193 Q37.6183 404.193 35.1038 406.166 Q32.5894 408.14 32.5894 412.087 Q32.5894 416.829 35.6131 419.566 Q38.6368 422.304 43.8567 422.304 L64.0042 422.304 L64.0042 428.192 L28.3562 428.192 L28.3562 422.304 L33.8944 422.304 Q30.6797 420.203 29.0883 417.37 Q27.4968 414.506 27.4968 410.782 Q27.4968 404.639 31.3163 401.488 Q35.1038 398.337 42.4881 398.337 Z" fill="#000000" fill-rule="nonzero" fill-opacity="1" /><path clip-path="url(#clip870)" d="M306.426 20.3876 L306.426 25.4223 Q304.169 24.2649 301.739 23.6862 Q299.308 23.1075 296.704 23.1075 Q292.74 23.1075 290.744 24.3228 Q288.776 25.5381 288.776 27.9686 Q288.776 29.8204 290.194 30.891 Q291.612 31.9327 295.894 32.8876 L297.717 33.2926 Q303.388 34.5079 305.761 36.7359 Q308.162 38.935 308.162 42.8991 Q308.162 47.4129 304.574 50.046 Q301.015 52.6791 294.765 52.6791 Q292.161 52.6791 289.326 52.1583 Q286.519 51.6664 283.394 50.6537 L283.394 45.156 Q286.345 46.6896 289.21 47.4708 Q292.075 48.2231 294.881 48.2231 Q298.643 48.2231 300.668 46.95 Q302.694 45.6479 302.694 43.3042 Q302.694 41.134 301.218 39.9766 Q299.771 38.8192 294.823 37.7486 L292.972 37.3146 Q288.024 36.273 285.825 34.1318 Q283.625 31.9616 283.625 28.2001 Q283.625 23.6283 286.866 21.1399 Q290.107 18.6515 296.068 18.6515 Q299.019 18.6515 301.623 19.0855 Q304.227 19.5196 306.426 20.3876 Z" fill="#000000" fill-rule="nonzero" fill-opacity="1" /><path clip-path="url(#clip870)" d="M316.64 19.4328 L321.964 19.4328 L321.964 51.84 L316.64 51.84 L316.64 19.4328 M316.64 6.81709 L321.964 6.81709 L321.964 13.559 L316.64 13.559 L316.64 6.81709 Z" fill="#000000" fill-rule="nonzero" fill-opacity="1" /><path clip-path="url(#clip870)" d="M330.79 19.4328 L356.079 19.4328 L356.079 24.2939 L336.056 47.5866 L356.079 47.5866 L356.079 51.84 L330.066 51.84 L330.066 46.9789 L350.089 23.6862 L330.79 23.6862 L330.79 19.4328 Z" fill="#000000" fill-rule="nonzero" fill-opacity="1" /><path clip-path="url(#clip870)" d="M391.929 34.3054 L391.929 36.9095 L367.45 36.9095 Q367.797 42.4072 370.749 45.3007 Q373.729 48.1653 379.024 48.1653 Q382.091 48.1653 384.956 47.4129 Q387.849 46.6606 390.685 45.156 L390.685 50.1907 Q387.821 51.406 384.811 52.0425 Q381.802 52.6791 378.706 52.6791 Q370.951 52.6791 366.409 48.1653 Q361.895 43.6514 361.895 35.9547 Q361.895 27.9975 366.177 23.339 Q370.488 18.6515 377.78 18.6515 Q384.319 18.6515 388.11 22.876 Q391.929 27.0716 391.929 34.3054 M386.605 32.7429 Q386.547 28.3737 384.146 25.7695 Q381.773 23.1654 377.838 23.1654 Q373.382 23.1654 370.691 25.6827 Q368.029 28.2001 367.624 32.7718 L386.605 32.7429 Z" fill="#000000" fill-rule="nonzero" fill-opacity="1" /><path clip-path="url(#clip870)" d="M432.062 23.1654 Q427.78 23.1654 425.291 26.5218 Q422.803 29.8494 422.803 35.6653 Q422.803 41.4813 425.262 44.8377 Q427.751 48.1653 432.062 48.1653 Q436.316 48.1653 438.804 44.8088 Q441.292 41.4523 441.292 35.6653 Q441.292 29.9072 438.804 26.5508 Q436.316 23.1654 432.062 23.1654 M432.062 18.6515 Q439.007 18.6515 442.971 23.1654 Q446.935 27.6792 446.935 35.6653 Q446.935 43.6225 442.971 48.1653 Q439.007 52.6791 432.062 52.6791 Q425.089 52.6791 421.125 48.1653 Q417.19 43.6225 417.19 35.6653 Q417.19 27.6792 421.125 23.1654 Q425.089 18.6515 432.062 18.6515 Z" fill="#000000" fill-rule="nonzero" fill-opacity="1" /><path clip-path="url(#clip870)" d="M472.166 6.81709 L472.166 11.2442 L467.074 11.2442 Q464.209 11.2442 463.081 12.4016 Q461.981 13.559 461.981 16.5682 L461.981 19.4328 L470.748 19.4328 L470.748 23.5705 L461.981 23.5705 L461.981 51.84 L456.628 51.84 L456.628 23.5705 L451.535 23.5705 L451.535 19.4328 L456.628 19.4328 L456.628 17.1758 Q456.628 11.765 459.145 9.30551 Q461.663 6.81709 467.131 6.81709 L472.166 6.81709 Z" fill="#000000" fill-rule="nonzero" fill-opacity="1" /><path clip-path="url(#clip870)" d="M518.723 35.6653 Q518.723 29.7915 516.292 26.464 Q513.89 23.1075 509.666 23.1075 Q505.441 23.1075 503.011 26.464 Q500.609 29.7915 500.609 35.6653 Q500.609 41.5391 503.011 44.8956 Q505.441 48.2231 509.666 48.2231 Q513.89 48.2231 516.292 44.8956 Q518.723 41.5391 518.723 35.6653 M500.609 24.3517 Q502.288 21.4582 504.834 20.0693 Q507.409 18.6515 510.968 18.6515 Q516.871 18.6515 520.546 23.339 Q524.249 28.0265 524.249 35.6653 Q524.249 43.3042 520.546 47.9916 Q516.871 52.6791 510.968 52.6791 Q507.409 52.6791 504.834 51.2902 Q502.288 49.8724 500.609 46.9789 L500.609 51.84 L495.256 51.84 L495.256 6.81709 L500.609 6.81709 L500.609 24.3517 Z" fill="#000000" fill-rule="nonzero" fill-opacity="1" /><path clip-path="url(#clip870)" d="M533.074 19.4328 L538.398 19.4328 L538.398 51.84 L533.074 51.84 L533.074 19.4328 M533.074 6.81709 L538.398 6.81709 L538.398 13.559 L533.074 13.559 L533.074 6.81709 Z" fill="#000000" fill-rule="nonzero" fill-opacity="1" /><path clip-path="url(#clip870)" d="M570.198 20.3876 L570.198 25.4223 Q567.941 24.2649 565.511 23.6862 Q563.08 23.1075 560.476 23.1075 Q556.512 23.1075 554.515 24.3228 Q552.548 25.5381 552.548 27.9686 Q552.548 29.8204 553.965 30.891 Q555.383 31.9327 559.666 32.8876 L561.489 33.2926 Q567.16 34.5079 569.533 36.7359 Q571.934 38.935 571.934 42.8991 Q571.934 47.4129 568.346 50.046 Q564.787 52.6791 558.537 52.6791 Q555.933 52.6791 553.097 52.1583 Q550.291 51.6664 547.166 50.6537 L547.166 45.156 Q550.117 46.6896 552.982 47.4708 Q555.846 48.2231 558.653 48.2231 Q562.415 48.2231 564.44 46.95 Q566.465 45.6479 566.465 43.3042 Q566.465 41.134 564.99 39.9766 Q563.543 38.8192 558.595 37.7486 L556.743 37.3146 Q551.795 36.273 549.596 34.1318 Q547.397 31.9616 547.397 28.2001 Q547.397 23.6283 550.638 21.1399 Q553.879 18.6515 559.839 18.6515 Q562.791 18.6515 565.395 19.0855 Q567.999 19.5196 570.198 20.3876 Z" fill="#000000" fill-rule="nonzero" fill-opacity="1" /><path clip-path="url(#clip870)" d="M585.678 10.2314 L585.678 19.4328 L596.645 19.4328 L596.645 23.5705 L585.678 23.5705 L585.678 41.163 Q585.678 45.1271 586.749 46.2555 Q587.848 47.384 591.176 47.384 L596.645 47.384 L596.645 51.84 L591.176 51.84 Q585.013 51.84 582.669 49.5541 Q580.325 47.2393 580.325 41.163 L580.325 23.5705 L576.419 23.5705 L576.419 19.4328 L580.325 19.4328 L580.325 10.2314 L585.678 10.2314 Z" fill="#000000" fill-rule="nonzero" fill-opacity="1" /><path clip-path="url(#clip870)" d="M618.375 35.5496 Q611.922 35.5496 609.434 37.0253 Q606.946 38.501 606.946 42.06 Q606.946 44.8956 608.797 46.5738 Q610.678 48.2231 613.89 48.2231 Q618.317 48.2231 620.979 45.0981 Q623.67 41.9442 623.67 36.7359 L623.67 35.5496 L618.375 35.5496 M628.994 33.3505 L628.994 51.84 L623.67 51.84 L623.67 46.921 Q621.847 49.8724 619.127 51.2902 Q616.407 52.6791 612.472 52.6791 Q607.495 52.6791 604.544 49.9014 Q601.621 47.0947 601.621 42.4072 Q601.621 36.9385 605.267 34.1607 Q608.942 31.3829 616.205 31.3829 L623.67 31.3829 L623.67 30.8621 Q623.67 27.1874 621.239 25.1908 Q618.838 23.1654 614.469 23.1654 Q611.691 23.1654 609.058 23.8309 Q606.425 24.4964 603.994 25.8274 L603.994 20.9085 Q606.917 19.78 609.665 19.2302 Q612.414 18.6515 615.018 18.6515 Q622.05 18.6515 625.522 22.2973 Q628.994 25.9431 628.994 33.3505 Z" fill="#000000" fill-rule="nonzero" fill-opacity="1" /><path clip-path="url(#clip870)" d="M663.224 35.6653 Q663.224 29.7915 660.794 26.464 Q658.392 23.1075 654.167 23.1075 Q649.943 23.1075 647.512 26.464 Q645.111 29.7915 645.111 35.6653 Q645.111 41.5391 647.512 44.8956 Q649.943 48.2231 654.167 48.2231 Q658.392 48.2231 660.794 44.8956 Q663.224 41.5391 663.224 35.6653 M645.111 24.3517 Q646.789 21.4582 649.335 20.0693 Q651.911 18.6515 655.47 18.6515 Q661.372 18.6515 665.047 23.339 Q668.751 28.0265 668.751 35.6653 Q668.751 43.3042 665.047 47.9916 Q661.372 52.6791 655.47 52.6791 Q651.911 52.6791 649.335 51.2902 Q646.789 49.8724 645.111 46.9789 L645.111 51.84 L639.758 51.84 L639.758 6.81709 L645.111 6.81709 L645.111 24.3517 Z" fill="#000000" fill-rule="nonzero" fill-opacity="1" /><path clip-path="url(#clip870)" d="M677.576 19.4328 L682.9 19.4328 L682.9 51.84 L677.576 51.84 L677.576 19.4328 M677.576 6.81709 L682.9 6.81709 L682.9 13.559 L677.576 13.559 L677.576 6.81709 Z" fill="#000000" fill-rule="nonzero" fill-opacity="1" /><path clip-path="url(#clip870)" d="M694.04 6.81709 L699.364 6.81709 L699.364 51.84 L694.04 51.84 L694.04 6.81709 Z" fill="#000000" fill-rule="nonzero" fill-opacity="1" /><path clip-path="url(#clip870)" d="M710.504 19.4328 L715.828 19.4328 L715.828 51.84 L710.504 51.84 L710.504 19.4328 M710.504 6.81709 L715.828 6.81709 L715.828 13.559 L710.504 13.559 L710.504 6.81709 Z" fill="#000000" fill-rule="nonzero" fill-opacity="1" /><path clip-path="url(#clip870)" d="M732.234 10.2314 L732.234 19.4328 L743.201 19.4328 L743.201 23.5705 L732.234 23.5705 L732.234 41.163 Q732.234 45.1271 733.305 46.2555 Q734.404 47.384 737.732 47.384 L743.201 47.384 L743.201 51.84 L737.732 51.84 Q731.569 51.84 729.225 49.5541 Q726.881 47.2393 726.881 41.163 L726.881 23.5705 L722.975 23.5705 L722.975 19.4328 L726.881 19.4328 L726.881 10.2314 L732.234 10.2314 Z" fill="#000000" fill-rule="nonzero" fill-opacity="1" /><path clip-path="url(#clip870)" d="M763.687 54.8492 Q761.43 60.6362 759.288 62.4013 Q757.147 64.1663 753.559 64.1663 L749.306 64.1663 L749.306 59.7103 L752.431 59.7103 Q754.63 59.7103 755.845 58.6687 Q757.06 57.627 758.536 53.7497 L759.491 51.3192 L746.383 19.4328 L752.026 19.4328 L762.153 44.7799 L772.28 19.4328 L777.923 19.4328 L763.687 54.8492 Z" fill="#000000" fill-rule="nonzero" fill-opacity="1" /><path clip-path="url(#clip870)" d="M822.888 24.4096 Q821.991 23.8888 820.92 23.6573 Q819.878 23.3969 818.605 23.3969 Q814.091 23.3969 811.661 26.3482 Q809.259 29.2707 809.259 34.7683 L809.259 51.84 L803.906 51.84 L803.906 19.4328 L809.259 19.4328 L809.259 24.4675 Q810.937 21.5161 813.628 20.0983 Q816.319 18.6515 820.168 18.6515 Q820.718 18.6515 821.383 18.7383 Q822.049 18.7962 822.859 18.9409 L822.888 24.4096 Z" fill="#000000" fill-rule="nonzero" fill-opacity="1" /><path clip-path="url(#clip870)" d="M854.89 34.3054 L854.89 36.9095 L830.411 36.9095 Q830.758 42.4072 833.709 45.3007 Q836.69 48.1653 841.985 48.1653 Q845.052 48.1653 847.916 47.4129 Q850.81 46.6606 853.646 45.156 L853.646 50.1907 Q850.781 51.406 847.772 52.0425 Q844.763 52.6791 841.666 52.6791 Q833.912 52.6791 829.369 48.1653 Q824.855 43.6514 824.855 35.9547 Q824.855 27.9975 829.138 23.339 Q833.449 18.6515 840.741 18.6515 Q847.28 18.6515 851.07 22.876 Q854.89 27.0716 854.89 34.3054 M849.566 32.7429 Q849.508 28.3737 847.106 25.7695 Q844.734 23.1654 840.798 23.1654 Q836.342 23.1654 833.651 25.6827 Q830.989 28.2001 830.584 32.7718 L849.566 32.7429 Z" fill="#000000" fill-rule="nonzero" fill-opacity="1" /><path clip-path="url(#clip870)" d="M884.953 35.2602 Q884.953 29.4732 882.552 26.2904 Q880.179 23.1075 875.868 23.1075 Q871.585 23.1075 869.184 26.2904 Q866.811 29.4732 866.811 35.2602 Q866.811 41.0183 869.184 44.2012 Q871.585 47.384 875.868 47.384 Q880.179 47.384 882.552 44.2012 Q884.953 41.0183 884.953 35.2602 M890.277 47.818 Q890.277 56.0934 886.603 60.1154 Q882.928 64.1663 875.347 64.1663 Q872.54 64.1663 870.052 63.7323 Q867.563 63.3272 865.22 62.4592 L865.22 57.2798 Q867.563 58.5529 869.849 59.1606 Q872.135 59.7682 874.508 59.7682 Q879.745 59.7682 882.349 57.0194 Q884.953 54.2995 884.953 48.7729 L884.953 46.1398 Q883.304 49.0044 880.729 50.4222 Q878.154 51.84 874.566 51.84 Q868.605 51.84 864.959 47.2972 Q861.313 42.7544 861.313 35.2602 Q861.313 27.7371 864.959 23.1943 Q868.605 18.6515 874.566 18.6515 Q878.154 18.6515 880.729 20.0693 Q883.304 21.4872 884.953 24.3517 L884.953 19.4328 L890.277 19.4328 L890.277 47.818 Z" fill="#000000" fill-rule="nonzero" fill-opacity="1" /><path clip-path="url(#clip870)" d="M901.244 19.4328 L906.568 19.4328 L906.568 51.84 L901.244 51.84 L901.244 19.4328 M901.244 6.81709 L906.568 6.81709 L906.568 13.559 L901.244 13.559 L901.244 6.81709 Z" fill="#000000" fill-rule="nonzero" fill-opacity="1" /><path clip-path="url(#clip870)" d="M930.266 23.1654 Q925.983 23.1654 923.495 26.5218 Q921.006 29.8494 921.006 35.6653 Q921.006 41.4813 923.466 44.8377 Q925.954 48.1653 930.266 48.1653 Q934.519 48.1653 937.007 44.8088 Q939.496 41.4523 939.496 35.6653 Q939.496 29.9072 937.007 26.5508 Q934.519 23.1654 930.266 23.1654 M930.266 18.6515 Q937.21 18.6515 941.174 23.1654 Q945.138 27.6792 945.138 35.6653 Q945.138 43.6225 941.174 48.1653 Q937.21 52.6791 930.266 52.6791 Q923.292 52.6791 919.328 48.1653 Q915.393 43.6225 915.393 35.6653 Q915.393 27.6792 919.328 23.1654 Q923.292 18.6515 930.266 18.6515 Z" fill="#000000" fill-rule="nonzero" fill-opacity="1" /><path clip-path="url(#clip870)" d="M980.902 32.2799 L980.902 51.84 L975.578 51.84 L975.578 32.4535 Q975.578 27.8529 973.784 25.567 Q971.99 23.2811 968.402 23.2811 Q964.091 23.2811 961.602 26.03 Q959.114 28.7788 959.114 33.5241 L959.114 51.84 L953.761 51.84 L953.761 19.4328 L959.114 19.4328 L959.114 24.4675 Q961.023 21.545 963.599 20.0983 Q966.203 18.6515 969.588 18.6515 Q975.173 18.6515 978.037 22.1237 Q980.902 25.567 980.902 32.2799 Z" fill="#000000" fill-rule="nonzero" fill-opacity="1" /><path clip-path="url(#clip870)" d="M1022.92 23.1654 Q1018.63 23.1654 1016.14 26.5218 Q1013.66 29.8494 1013.66 35.6653 Q1013.66 41.4813 1016.12 44.8377 Q1018.6 48.1653 1022.92 48.1653 Q1027.17 48.1653 1029.66 44.8088 Q1032.15 41.4523 1032.15 35.6653 Q1032.15 29.9072 1029.66 26.5508 Q1027.17 23.1654 1022.92 23.1654 M1022.92 18.6515 Q1029.86 18.6515 1033.82 23.1654 Q1037.79 27.6792 1037.79 35.6653 Q1037.79 43.6225 1033.82 48.1653 Q1029.86 52.6791 1022.92 52.6791 Q1015.94 52.6791 1011.98 48.1653 Q1008.04 43.6225 1008.04 35.6653 Q1008.04 27.6792 1011.98 23.1654 Q1015.94 18.6515 1022.92 18.6515 Z" fill="#000000" fill-rule="nonzero" fill-opacity="1" /><path clip-path="url(#clip870)" d="M1073.55 32.2799 L1073.55 51.84 L1068.23 51.84 L1068.23 32.4535 Q1068.23 27.8529 1066.43 25.567 Q1064.64 23.2811 1061.05 23.2811 Q1056.74 23.2811 1054.25 26.03 Q1051.76 28.7788 1051.76 33.5241 L1051.76 51.84 L1046.41 51.84 L1046.41 19.4328 L1051.76 19.4328 L1051.76 24.4675 Q1053.67 21.545 1056.25 20.0983 Q1058.85 18.6515 1062.24 18.6515 Q1067.82 18.6515 1070.69 22.1237 Q1073.55 25.567 1073.55 32.2799 Z" fill="#000000" fill-rule="nonzero" fill-opacity="1" /><path clip-path="url(#clip870)" d="M1103.01 19.4328 L1108.33 19.4328 L1108.33 51.84 L1103.01 51.84 L1103.01 19.4328 M1103.01 6.81709 L1108.33 6.81709 L1108.33 13.559 L1103.01 13.559 L1103.01 6.81709 Z" fill="#000000" fill-rule="nonzero" fill-opacity="1" /><path clip-path="url(#clip870)" d="M1146.41 32.2799 L1146.41 51.84 L1141.09 51.84 L1141.09 32.4535 Q1141.09 27.8529 1139.29 25.567 Q1137.5 23.2811 1133.91 23.2811 Q1129.6 23.2811 1127.11 26.03 Q1124.62 28.7788 1124.62 33.5241 L1124.62 51.84 L1119.27 51.84 L1119.27 19.4328 L1124.62 19.4328 L1124.62 24.4675 Q1126.53 21.545 1129.11 20.0983 Q1131.71 18.6515 1135.1 18.6515 Q1140.68 18.6515 1143.55 22.1237 Q1146.41 25.567 1146.41 32.2799 Z" fill="#000000" fill-rule="nonzero" fill-opacity="1" /><path clip-path="url(#clip870)" d="M1180.35 20.677 L1180.35 25.6538 Q1178.09 24.4096 1175.81 23.802 Q1173.55 23.1654 1171.24 23.1654 Q1166.06 23.1654 1163.19 26.464 Q1160.33 29.7336 1160.33 35.6653 Q1160.33 41.597 1163.19 44.8956 Q1166.06 48.1653 1171.24 48.1653 Q1173.55 48.1653 1175.81 47.5576 Q1178.09 46.921 1180.35 45.6768 L1180.35 50.5958 Q1178.12 51.6375 1175.72 52.1583 Q1173.35 52.6791 1170.66 52.6791 Q1163.34 52.6791 1159.03 48.0784 Q1154.71 43.4778 1154.71 35.6653 Q1154.71 27.7371 1159.05 23.1943 Q1163.42 18.6515 1171 18.6515 Q1173.46 18.6515 1175.81 19.1724 Q1178.15 19.6642 1180.35 20.677 Z" fill="#000000" fill-rule="nonzero" fill-opacity="1" /><path clip-path="url(#clip870)" d="M1208.39 24.4096 Q1207.49 23.8888 1206.42 23.6573 Q1205.38 23.3969 1204.11 23.3969 Q1199.59 23.3969 1197.16 26.3482 Q1194.76 29.2707 1194.76 34.7683 L1194.76 51.84 L1189.41 51.84 L1189.41 19.4328 L1194.76 19.4328 L1194.76 24.4675 Q1196.44 21.5161 1199.13 20.0983 Q1201.82 18.6515 1205.67 18.6515 Q1206.22 18.6515 1206.88 18.7383 Q1207.55 18.7962 1208.36 18.9409 L1208.39 24.4096 Z" fill="#000000" fill-rule="nonzero" fill-opacity="1" /><path clip-path="url(#clip870)" d="M1240.39 34.3054 L1240.39 36.9095 L1215.91 36.9095 Q1216.26 42.4072 1219.21 45.3007 Q1222.19 48.1653 1227.49 48.1653 Q1230.55 48.1653 1233.42 47.4129 Q1236.31 46.6606 1239.15 45.156 L1239.15 50.1907 Q1236.28 51.406 1233.27 52.0425 Q1230.26 52.6791 1227.17 52.6791 Q1219.41 52.6791 1214.87 48.1653 Q1210.36 43.6514 1210.36 35.9547 Q1210.36 27.9975 1214.64 23.339 Q1218.95 18.6515 1226.24 18.6515 Q1232.78 18.6515 1236.57 22.876 Q1240.39 27.0716 1240.39 34.3054 M1235.07 32.7429 Q1235.01 28.3737 1232.61 25.7695 Q1230.23 23.1654 1226.3 23.1654 Q1221.84 23.1654 1219.15 25.6827 Q1216.49 28.2001 1216.09 32.7718 L1235.07 32.7429 Z" fill="#000000" fill-rule="nonzero" fill-opacity="1" /><path clip-path="url(#clip870)" d="M1263.86 35.5496 Q1257.4 35.5496 1254.92 37.0253 Q1252.43 38.501 1252.43 42.06 Q1252.43 44.8956 1254.28 46.5738 Q1256.16 48.2231 1259.37 48.2231 Q1263.8 48.2231 1266.46 45.0981 Q1269.15 41.9442 1269.15 36.7359 L1269.15 35.5496 L1263.86 35.5496 M1274.48 33.3505 L1274.48 51.84 L1269.15 51.84 L1269.15 46.921 Q1267.33 49.8724 1264.61 51.2902 Q1261.89 52.6791 1257.95 52.6791 Q1252.98 52.6791 1250.03 49.9014 Q1247.1 47.0947 1247.1 42.4072 Q1247.1 36.9385 1250.75 34.1607 Q1254.42 31.3829 1261.69 31.3829 L1269.15 31.3829 L1269.15 30.8621 Q1269.15 27.1874 1266.72 25.1908 Q1264.32 23.1654 1259.95 23.1654 Q1257.17 23.1654 1254.54 23.8309 Q1251.91 24.4964 1249.48 25.8274 L1249.48 20.9085 Q1252.4 19.78 1255.15 19.2302 Q1257.9 18.6515 1260.5 18.6515 Q1267.53 18.6515 1271 22.2973 Q1274.48 25.9431 1274.48 33.3505 Z" fill="#000000" fill-rule="nonzero" fill-opacity="1" /><path clip-path="url(#clip870)" d="M1306.1 20.3876 L1306.1 25.4223 Q1303.85 24.2649 1301.42 23.6862 Q1298.98 23.1075 1296.38 23.1075 Q1292.42 23.1075 1290.42 24.3228 Q1288.45 25.5381 1288.45 27.9686 Q1288.45 29.8204 1289.87 30.891 Q1291.29 31.9327 1295.57 32.8876 L1297.39 33.2926 Q1303.06 34.5079 1305.44 36.7359 Q1307.84 38.935 1307.84 42.8991 Q1307.84 47.4129 1304.25 50.046 Q1300.69 52.6791 1294.44 52.6791 Q1291.84 52.6791 1289 52.1583 Q1286.2 51.6664 1283.07 50.6537 L1283.07 45.156 Q1286.02 46.6896 1288.89 47.4708 Q1291.75 48.2231 1294.56 48.2231 Q1298.32 48.2231 1300.34 46.95 Q1302.37 45.6479 1302.37 43.3042 Q1302.37 41.134 1300.89 39.9766 Q1299.45 38.8192 1294.5 37.7486 L1292.65 37.3146 Q1287.7 36.273 1285.5 34.1318 Q1283.3 31.9616 1283.3 28.2001 Q1283.3 23.6283 1286.54 21.1399 Q1289.78 18.6515 1295.74 18.6515 Q1298.7 18.6515 1301.3 19.0855 Q1303.9 19.5196 1306.1 20.3876 Z" fill="#000000" fill-rule="nonzero" fill-opacity="1" /><path clip-path="url(#clip870)" d="M1316.32 19.4328 L1321.64 19.4328 L1321.64 51.84 L1316.32 51.84 L1316.32 19.4328 M1316.32 6.81709 L1321.64 6.81709 L1321.64 13.559 L1316.32 13.559 L1316.32 6.81709 Z" fill="#000000" fill-rule="nonzero" fill-opacity="1" /><path clip-path="url(#clip870)" d="M1359.72 32.2799 L1359.72 51.84 L1354.4 51.84 L1354.4 32.4535 Q1354.4 27.8529 1352.6 25.567 Q1350.81 23.2811 1347.22 23.2811 Q1342.91 23.2811 1340.42 26.03 Q1337.93 28.7788 1337.93 33.5241 L1337.93 51.84 L1332.58 51.84 L1332.58 19.4328 L1337.93 19.4328 L1337.93 24.4675 Q1339.84 21.545 1342.42 20.0983 Q1345.02 18.6515 1348.41 18.6515 Q1353.99 18.6515 1356.85 22.1237 Q1359.72 25.567 1359.72 32.2799 Z" fill="#000000" fill-rule="nonzero" fill-opacity="1" /><path clip-path="url(#clip870)" d="M1391.66 35.2602 Q1391.66 29.4732 1389.26 26.2904 Q1386.89 23.1075 1382.58 23.1075 Q1378.3 23.1075 1375.89 26.2904 Q1373.52 29.4732 1373.52 35.2602 Q1373.52 41.0183 1375.89 44.2012 Q1378.3 47.384 1382.58 47.384 Q1386.89 47.384 1389.26 44.2012 Q1391.66 41.0183 1391.66 35.2602 M1396.99 47.818 Q1396.99 56.0934 1393.31 60.1154 Q1389.64 64.1663 1382.06 64.1663 Q1379.25 64.1663 1376.76 63.7323 Q1374.27 63.3272 1371.93 62.4592 L1371.93 57.2798 Q1374.27 58.5529 1376.56 59.1606 Q1378.85 59.7682 1381.22 59.7682 Q1386.46 59.7682 1389.06 57.0194 Q1391.66 54.2995 1391.66 48.7729 L1391.66 46.1398 Q1390.01 49.0044 1387.44 50.4222 Q1384.86 51.84 1381.28 51.84 Q1375.32 51.84 1371.67 47.2972 Q1368.02 42.7544 1368.02 35.2602 Q1368.02 27.7371 1371.67 23.1943 Q1375.32 18.6515 1381.28 18.6515 Q1384.86 18.6515 1387.44 20.0693 Q1390.01 21.4872 1391.66 24.3517 L1391.66 19.4328 L1396.99 19.4328 L1396.99 47.818 Z" fill="#000000" fill-rule="nonzero" fill-opacity="1" /><path clip-path="url(#clip870)" d="M1431.94 46.9789 L1431.94 64.1663 L1426.59 64.1663 L1426.59 19.4328 L1431.94 19.4328 L1431.94 24.3517 Q1433.62 21.4582 1436.17 20.0693 Q1438.74 18.6515 1442.3 18.6515 Q1448.2 18.6515 1451.88 23.339 Q1455.58 28.0265 1455.58 35.6653 Q1455.58 43.3042 1451.88 47.9916 Q1448.2 52.6791 1442.3 52.6791 Q1438.74 52.6791 1436.17 51.2902 Q1433.62 49.8724 1431.94 46.9789 M1450.05 35.6653 Q1450.05 29.7915 1447.62 26.464 Q1445.22 23.1075 1441 23.1075 Q1436.77 23.1075 1434.34 26.464 Q1431.94 29.7915 1431.94 35.6653 Q1431.94 41.5391 1434.34 44.8956 Q1436.77 48.2231 1441 48.2231 Q1445.22 48.2231 1447.62 44.8956 Q1450.05 41.5391 1450.05 35.6653 Z" fill="#000000" fill-rule="nonzero" fill-opacity="1" /><path clip-path="url(#clip870)" d="M1479.13 35.5496 Q1472.68 35.5496 1470.19 37.0253 Q1467.7 38.501 1467.7 42.06 Q1467.7 44.8956 1469.56 46.5738 Q1471.44 48.2231 1474.65 48.2231 Q1479.08 48.2231 1481.74 45.0981 Q1484.43 41.9442 1484.43 36.7359 L1484.43 35.5496 L1479.13 35.5496 M1489.75 33.3505 L1489.75 51.84 L1484.43 51.84 L1484.43 46.921 Q1482.61 49.8724 1479.89 51.2902 Q1477.17 52.6791 1473.23 52.6791 Q1468.25 52.6791 1465.3 49.9014 Q1462.38 47.0947 1462.38 42.4072 Q1462.38 36.9385 1466.03 34.1607 Q1469.7 31.3829 1476.96 31.3829 L1484.43 31.3829 L1484.43 30.8621 Q1484.43 27.1874 1482 25.1908 Q1479.6 23.1654 1475.23 23.1654 Q1472.45 23.1654 1469.82 23.8309 Q1467.18 24.4964 1464.75 25.8274 L1464.75 20.9085 Q1467.68 19.78 1470.42 19.2302 Q1473.17 18.6515 1475.78 18.6515 Q1482.81 18.6515 1486.28 22.2973 Q1489.75 25.9431 1489.75 33.3505 Z" fill="#000000" fill-rule="nonzero" fill-opacity="1" /><path clip-path="url(#clip870)" d="M1519.5 24.4096 Q1518.6 23.8888 1517.53 23.6573 Q1516.49 23.3969 1515.22 23.3969 Q1510.7 23.3969 1508.27 26.3482 Q1505.87 29.2707 1505.87 34.7683 L1505.87 51.84 L1500.52 51.84 L1500.52 19.4328 L1505.87 19.4328 L1505.87 24.4675 Q1507.55 21.5161 1510.24 20.0983 Q1512.93 18.6515 1516.78 18.6515 Q1517.33 18.6515 1517.99 18.7383 Q1518.66 18.7962 1519.47 18.9409 L1519.5 24.4096 Z" fill="#000000" fill-rule="nonzero" fill-opacity="1" /><path clip-path="url(#clip870)" d="M1539.81 35.5496 Q1533.36 35.5496 1530.87 37.0253 Q1528.38 38.501 1528.38 42.06 Q1528.38 44.8956 1530.23 46.5738 Q1532.11 48.2231 1535.33 48.2231 Q1539.75 48.2231 1542.42 45.0981 Q1545.11 41.9442 1545.11 36.7359 L1545.11 35.5496 L1539.81 35.5496 M1550.43 33.3505 L1550.43 51.84 L1545.11 51.84 L1545.11 46.921 Q1543.28 49.8724 1540.56 51.2902 Q1537.84 52.6791 1533.91 52.6791 Q1528.93 52.6791 1525.98 49.9014 Q1523.06 47.0947 1523.06 42.4072 Q1523.06 36.9385 1526.7 34.1607 Q1530.38 31.3829 1537.64 31.3829 L1545.11 31.3829 L1545.11 30.8621 Q1545.11 27.1874 1542.68 25.1908 Q1540.27 23.1654 1535.9 23.1654 Q1533.13 23.1654 1530.49 23.8309 Q1527.86 24.4964 1525.43 25.8274 L1525.43 20.9085 Q1528.35 19.78 1531.1 19.2302 Q1533.85 18.6515 1536.45 18.6515 Q1543.49 18.6515 1546.96 22.2973 Q1550.43 25.9431 1550.43 33.3505 Z" fill="#000000" fill-rule="nonzero" fill-opacity="1" /><path clip-path="url(#clip870)" d="M1586.63 25.6538 Q1588.62 22.0659 1591.4 20.3587 Q1594.18 18.6515 1597.94 18.6515 Q1603 18.6515 1605.75 22.2105 Q1608.5 25.7406 1608.5 32.2799 L1608.5 51.84 L1603.15 51.84 L1603.15 32.4535 Q1603.15 27.795 1601.5 25.5381 Q1599.85 23.2811 1596.47 23.2811 Q1592.33 23.2811 1589.93 26.03 Q1587.52 28.7788 1587.52 33.5241 L1587.52 51.84 L1582.17 51.84 L1582.17 32.4535 Q1582.17 27.7661 1580.52 25.5381 Q1578.87 23.2811 1575.43 23.2811 Q1571.35 23.2811 1568.95 26.0589 Q1566.55 28.8077 1566.55 33.5241 L1566.55 51.84 L1561.19 51.84 L1561.19 19.4328 L1566.55 19.4328 L1566.55 24.4675 Q1568.37 21.4872 1570.92 20.0693 Q1573.46 18.6515 1576.96 18.6515 Q1580.49 18.6515 1582.95 20.4455 Q1585.44 22.2395 1586.63 25.6538 Z" fill="#000000" fill-rule="nonzero" fill-opacity="1" /><path clip-path="url(#clip870)" d="M1646.84 34.3054 L1646.84 36.9095 L1622.36 36.9095 Q1622.71 42.4072 1625.66 45.3007 Q1628.64 48.1653 1633.94 48.1653 Q1637 48.1653 1639.87 47.4129 Q1642.76 46.6606 1645.6 45.156 L1645.6 50.1907 Q1642.73 51.406 1639.72 52.0425 Q1636.71 52.6791 1633.62 52.6791 Q1625.86 52.6791 1621.32 48.1653 Q1616.81 43.6514 1616.81 35.9547 Q1616.81 27.9975 1621.09 23.339 Q1625.4 18.6515 1632.69 18.6515 Q1639.23 18.6515 1643.02 22.876 Q1646.84 27.0716 1646.84 34.3054 M1641.52 32.7429 Q1641.46 28.3737 1639.06 25.7695 Q1636.69 23.1654 1632.75 23.1654 Q1628.29 23.1654 1625.6 25.6827 Q1622.94 28.2001 1622.54 32.7718 L1641.52 32.7429 Z" fill="#000000" fill-rule="nonzero" fill-opacity="1" /><path clip-path="url(#clip870)" d="M1660.85 10.2314 L1660.85 19.4328 L1671.81 19.4328 L1671.81 23.5705 L1660.85 23.5705 L1660.85 41.163 Q1660.85 45.1271 1661.92 46.2555 Q1663.02 47.384 1666.34 47.384 L1671.81 47.384 L1671.81 51.84 L1666.34 51.84 Q1660.18 51.84 1657.84 49.5541 Q1655.49 47.2393 1655.49 41.163 L1655.49 23.5705 L1651.59 23.5705 L1651.59 19.4328 L1655.49 19.4328 L1655.49 10.2314 L1660.85 10.2314 Z" fill="#000000" fill-rule="nonzero" fill-opacity="1" /><path clip-path="url(#clip870)" d="M1706.53 34.3054 L1706.53 36.9095 L1682.06 36.9095 Q1682.4 42.4072 1685.35 45.3007 Q1688.33 48.1653 1693.63 48.1653 Q1696.7 48.1653 1699.56 47.4129 Q1702.45 46.6606 1705.29 45.156 L1705.29 50.1907 Q1702.43 51.406 1699.42 52.0425 Q1696.41 52.6791 1693.31 52.6791 Q1685.56 52.6791 1681.01 48.1653 Q1676.5 43.6514 1676.5 35.9547 Q1676.5 27.9975 1680.78 23.339 Q1685.09 18.6515 1692.39 18.6515 Q1698.92 18.6515 1702.72 22.876 Q1706.53 27.0716 1706.53 34.3054 M1701.21 32.7429 Q1701.15 28.3737 1698.75 25.7695 Q1696.38 23.1654 1692.44 23.1654 Q1687.99 23.1654 1685.3 25.6827 Q1682.63 28.2001 1682.23 32.7718 L1701.21 32.7429 Z" fill="#000000" fill-rule="nonzero" fill-opacity="1" /><path clip-path="url(#clip870)" d="M1734.05 24.4096 Q1733.15 23.8888 1732.08 23.6573 Q1731.04 23.3969 1729.77 23.3969 Q1725.26 23.3969 1722.82 26.3482 Q1720.42 29.2707 1720.42 34.7683 L1720.42 51.84 L1715.07 51.84 L1715.07 19.4328 L1720.42 19.4328 L1720.42 24.4675 Q1722.1 21.5161 1724.79 20.0983 Q1727.48 18.6515 1731.33 18.6515 Q1731.88 18.6515 1732.55 18.7383 Q1733.21 18.7962 1734.02 18.9409 L1734.05 24.4096 Z" fill="#000000" fill-rule="nonzero" fill-opacity="1" /><path clip-path="url(#clip870)" d="M1754.65 19.4328 L1760.3 19.4328 L1770.42 46.6317 L1780.55 19.4328 L1786.19 19.4328 L1774.04 51.84 L1766.81 51.84 L1754.65 19.4328 Z" fill="#000000" fill-rule="nonzero" fill-opacity="1" /><path clip-path="url(#clip870)" d="M1808.27 35.5496 Q1801.82 35.5496 1799.33 37.0253 Q1796.84 38.501 1796.84 42.06 Q1796.84 44.8956 1798.69 46.5738 Q1800.57 48.2231 1803.79 48.2231 Q1808.21 48.2231 1810.87 45.0981 Q1813.57 41.9442 1813.57 36.7359 L1813.57 35.5496 L1808.27 35.5496 M1818.89 33.3505 L1818.89 51.84 L1813.57 51.84 L1813.57 46.921 Q1811.74 49.8724 1809.02 51.2902 Q1806.3 52.6791 1802.37 52.6791 Q1797.39 52.6791 1794.44 49.9014 Q1791.52 47.0947 1791.52 42.4072 Q1791.52 36.9385 1795.16 34.1607 Q1798.84 31.3829 1806.1 31.3829 L1813.57 31.3829 L1813.57 30.8621 Q1813.57 27.1874 1811.13 25.1908 Q1808.73 23.1654 1804.36 23.1654 Q1801.59 23.1654 1798.95 23.8309 Q1796.32 24.4964 1793.89 25.8274 L1793.89 20.9085 Q1796.81 19.78 1799.56 19.2302 Q1802.31 18.6515 1804.91 18.6515 Q1811.94 18.6515 1815.42 22.2973 Q1818.89 25.9431 1818.89 33.3505 Z" fill="#000000" fill-rule="nonzero" fill-opacity="1" /><path clip-path="url(#clip870)" d="M1829.86 6.81709 L1835.18 6.81709 L1835.18 51.84 L1829.86 51.84 L1829.86 6.81709 Z" fill="#000000" fill-rule="nonzero" fill-opacity="1" /><path clip-path="url(#clip870)" d="M1845.77 39.0507 L1845.77 19.4328 L1851.09 19.4328 L1851.09 38.8482 Q1851.09 43.4488 1852.89 45.7636 Q1854.68 48.0495 1858.27 48.0495 Q1862.58 48.0495 1865.07 45.3007 Q1867.59 42.5519 1867.59 37.8065 L1867.59 19.4328 L1872.91 19.4328 L1872.91 51.84 L1867.59 51.84 L1867.59 46.8632 Q1865.65 49.8145 1863.07 51.2613 Q1860.53 52.6791 1857.14 52.6791 Q1851.56 52.6791 1848.66 49.2069 Q1845.77 45.7347 1845.77 39.0507 M1859.17 18.6515 L1859.17 18.6515 Z" fill="#000000" fill-rule="nonzero" fill-opacity="1" /><path clip-path="url(#clip870)" d="M1911.6 34.3054 L1911.6 36.9095 L1887.12 36.9095 Q1887.47 42.4072 1890.42 45.3007 Q1893.4 48.1653 1898.69 48.1653 Q1901.76 48.1653 1904.62 47.4129 Q1907.52 46.6606 1910.35 45.156 L1910.35 50.1907 Q1907.49 51.406 1904.48 52.0425 Q1901.47 52.6791 1898.37 52.6791 Q1890.62 52.6791 1886.08 48.1653 Q1881.56 43.6514 1881.56 35.9547 Q1881.56 27.9975 1885.84 23.339 Q1890.16 18.6515 1897.45 18.6515 Q1903.99 18.6515 1907.78 22.876 Q1911.6 27.0716 1911.6 34.3054 M1906.27 32.7429 Q1906.22 28.3737 1903.81 25.7695 Q1901.44 23.1654 1897.51 23.1654 Q1893.05 23.1654 1890.36 25.6827 Q1887.7 28.2001 1887.29 32.7718 L1906.27 32.7429 Z" fill="#000000" fill-rule="nonzero" fill-opacity="1" /><path clip-path="url(#clip870)" d="M1941 20.3876 L1941 25.4223 Q1938.74 24.2649 1936.31 23.6862 Q1933.88 23.1075 1931.27 23.1075 Q1927.31 23.1075 1925.31 24.3228 Q1923.34 25.5381 1923.34 27.9686 Q1923.34 29.8204 1924.76 30.891 Q1926.18 31.9327 1930.46 32.8876 L1932.29 33.2926 Q1937.96 34.5079 1940.33 36.7359 Q1942.73 38.935 1942.73 42.8991 Q1942.73 47.4129 1939.14 50.046 Q1935.58 52.6791 1929.33 52.6791 Q1926.73 52.6791 1923.89 52.1583 Q1921.09 51.6664 1917.96 50.6537 L1917.96 45.156 Q1920.91 46.6896 1923.78 47.4708 Q1926.64 48.2231 1929.45 48.2231 Q1933.21 48.2231 1935.24 46.95 Q1937.26 45.6479 1937.26 43.3042 Q1937.26 41.134 1935.79 39.9766 Q1934.34 38.8192 1929.39 37.7486 L1927.54 37.3146 Q1922.59 36.273 1920.39 34.1318 Q1918.19 31.9616 1918.19 28.2001 Q1918.19 23.6283 1921.43 21.1399 Q1924.68 18.6515 1930.64 18.6515 Q1933.59 18.6515 1936.19 19.0855 Q1938.8 19.5196 1941 20.3876 Z" fill="#000000" fill-rule="nonzero" fill-opacity="1" /><path clip-path="url(#clip870)" d="M1952.57 44.4905 L1958.67 44.4905 L1958.67 49.4673 L1953.93 58.7265 L1950.2 58.7265 L1952.57 49.4673 L1952.57 44.4905 Z" fill="#000000" fill-rule="nonzero" fill-opacity="1" /><path clip-path="url(#clip870)" d="M1988.68 6.81709 L1994.03 6.81709 L1994.03 33.4084 L2009.92 19.4328 L2016.72 19.4328 L1999.53 34.5947 L2017.44 51.84 L2010.5 51.84 L1994.03 36.0125 L1994.03 51.84 L1988.68 51.84 L1988.68 6.81709 Z" fill="#000000" fill-rule="nonzero" fill-opacity="1" /><path clip-path="url(#clip870)" d="M2044.52 24.3517 L2044.52 6.81709 L2049.85 6.81709 L2049.85 51.84 L2044.52 51.84 L2044.52 46.9789 Q2042.85 49.8724 2040.27 51.2902 Q2037.72 52.6791 2034.14 52.6791 Q2028.26 52.6791 2024.56 47.9916 Q2020.88 43.3042 2020.88 35.6653 Q2020.88 28.0265 2024.56 23.339 Q2028.26 18.6515 2034.14 18.6515 Q2037.72 18.6515 2040.27 20.0693 Q2042.85 21.4582 2044.52 24.3517 M2026.38 35.6653 Q2026.38 41.5391 2028.78 44.8956 Q2031.21 48.2231 2035.44 48.2231 Q2039.66 48.2231 2042.09 44.8956 Q2044.52 41.5391 2044.52 35.6653 Q2044.52 29.7915 2042.09 26.464 Q2039.66 23.1075 2035.44 23.1075 Q2031.21 23.1075 2028.78 26.464 Q2026.38 29.7915 2026.38 35.6653 Z" fill="#000000" fill-rule="nonzero" fill-opacity="1" /><path clip-path="url(#clip870)" d="M2075.54 35.5496 Q2069.09 35.5496 2066.6 37.0253 Q2064.11 38.501 2064.11 42.06 Q2064.11 44.8956 2065.97 46.5738 Q2067.85 48.2231 2071.06 48.2231 Q2075.49 48.2231 2078.15 45.0981 Q2080.84 41.9442 2080.84 36.7359 L2080.84 35.5496 L2075.54 35.5496 M2086.16 33.3505 L2086.16 51.84 L2080.84 51.84 L2080.84 46.921 Q2079.02 49.8724 2076.3 51.2902 Q2073.58 52.6791 2069.64 52.6791 Q2064.66 52.6791 2061.71 49.9014 Q2058.79 47.0947 2058.79 42.4072 Q2058.79 36.9385 2062.44 34.1607 Q2066.11 31.3829 2073.37 31.3829 L2080.84 31.3829 L2080.84 30.8621 Q2080.84 27.1874 2078.41 25.1908 Q2076.01 23.1654 2071.64 23.1654 Q2068.86 23.1654 2066.23 23.8309 Q2063.59 24.4964 2061.16 25.8274 L2061.16 20.9085 Q2064.08 19.78 2066.83 19.2302 Q2069.58 18.6515 2072.19 18.6515 Q2079.22 18.6515 2082.69 22.2973 Q2086.16 25.9431 2086.16 33.3505 Z" fill="#000000" fill-rule="nonzero" fill-opacity="1" /><path clip-path="url(#clip870)" d="M2122.36 25.6538 Q2124.36 22.0659 2127.13 20.3587 Q2129.91 18.6515 2133.67 18.6515 Q2138.74 18.6515 2141.49 22.2105 Q2144.23 25.7406 2144.23 32.2799 L2144.23 51.84 L2138.88 51.84 L2138.88 32.4535 Q2138.88 27.795 2137.23 25.5381 Q2135.58 23.2811 2132.2 23.2811 Q2128.06 23.2811 2125.66 26.03 Q2123.26 28.7788 2123.26 33.5241 L2123.26 51.84 L2117.9 51.84 L2117.9 32.4535 Q2117.9 27.7661 2116.25 25.5381 Q2114.61 23.2811 2111.16 23.2811 Q2107.08 23.2811 2104.68 26.0589 Q2102.28 28.8077 2102.28 33.5241 L2102.28 51.84 L2096.93 51.84 L2096.93 19.4328 L2102.28 19.4328 L2102.28 24.4675 Q2104.1 21.4872 2106.65 20.0693 Q2109.19 18.6515 2112.7 18.6515 Q2116.23 18.6515 2118.69 20.4455 Q2121.17 22.2395 2122.36 25.6538 Z" fill="#000000" fill-rule="nonzero" fill-opacity="1" /><path clip-path="url(#clip870)" d="M2155.55 24.9304 L2192.64 24.9304 L2192.64 29.7915 L2155.55 29.7915 L2155.55 24.9304 M2155.55 36.7359 L2192.64 36.7359 L2192.64 41.6549 L2155.55 41.6549 L2155.55 36.7359 Z" fill="#000000" fill-rule="nonzero" fill-opacity="1" /><path clip-path="url(#clip870)" d="M2206.27 46.921 L2215.82 46.921 L2215.82 13.964 L2205.43 16.0474 L2205.43 10.7233 L2215.76 8.64 L2221.61 8.64 L2221.61 46.921 L2231.16 46.921 L2231.16 51.84 L2206.27 51.84 L2206.27 46.921 Z" fill="#000000" fill-rule="nonzero" fill-opacity="1" /><path clip-path="url(#clip870)" d="M2242.96 44.4905 L2249.07 44.4905 L2249.07 51.84 L2242.96 51.84 L2242.96 44.4905 Z" fill="#000000" fill-rule="nonzero" fill-opacity="1" /><path clip-path="url(#clip870)" d="M2274.3 12.4884 Q2269.78 12.4884 2267.5 16.9444 Q2265.24 21.3714 2265.24 30.2834 Q2265.24 39.1665 2267.5 43.6225 Q2269.78 48.0495 2274.3 48.0495 Q2278.84 48.0495 2281.1 43.6225 Q2283.38 39.1665 2283.38 30.2834 Q2283.38 21.3714 2281.1 16.9444 Q2278.84 12.4884 2274.3 12.4884 M2274.3 7.85875 Q2281.56 7.85875 2285.38 13.6168 Q2289.23 19.346 2289.23 30.2834 Q2289.23 41.1919 2285.38 46.95 Q2281.56 52.6791 2274.3 52.6791 Q2267.03 52.6791 2263.19 46.95 Q2259.37 41.1919 2259.37 30.2834 Q2259.37 19.346 2263.19 13.6168 Q2267.03 7.85875 2274.3 7.85875 Z" fill="#000000" fill-rule="nonzero" fill-opacity="1" /><polyline clip-path="url(#clip872)" style="stroke:#1f77b4; stroke-linecap:round; stroke-linejoin:round; stroke-width:6; stroke-opacity:1; fill:none" points="280.231,1418.72 302.84,1414.87 325.448,1409.91 348.057,1404.22 370.665,1398.01 393.274,1391.44 415.882,1384.62 438.491,1377.64 461.099,1370.55 483.708,1363.42 506.316,1356.28 528.925,1349.17 551.534,1342.11 574.142,1335.12 596.751,1328.21 619.359,1321.41 641.968,1314.72 664.576,1308.14 687.185,1301.68 709.793,1295.35 732.402,1289.14 755.01,1283.06 777.619,1277.11 800.227,1271.29 822.836,1265.59 845.445,1260.02 868.053,1254.58 890.662,1249.25 913.27,1244.05 935.879,1238.96 958.487,1233.98 981.096,1229.12 1003.7,1224.37 1026.31,1219.73 1048.92,1215.19 1071.53,1210.75 1094.14,1206.41 1116.75,1202.16 1139.36,1198.01 1161.96,1193.96 1184.57,1189.99 1207.18,1186.1 1229.79,1182.3 1252.4,1178.59 1275.01,1174.95 1297.62,1171.38 1320.22,1167.9 1342.83,1164.48 1365.44,1161.14 1388.05,1157.87 1410.66,1154.66 1433.27,1151.52 1455.88,1148.44 1478.48,1145.42 1501.09,1142.46 1523.7,1139.56 1546.31,1136.72 1568.92,1133.93 1591.53,1131.19 1614.13,1128.51 1636.74,1125.88 1659.35,1123.29 1681.96,1120.76 1704.57,1118.27 1727.18,1115.83 1749.79,1113.43 1772.39,1111.08 1795,1108.77 1817.61,1106.49 1840.22,1104.26 1862.83,1102.07 1885.44,1099.92 1908.05,1097.8 1930.65,1095.72 1953.26,1093.67 1975.87,1091.66 1998.48,1089.68 2021.09,1087.74 2043.7,1085.83 2066.31,1083.94 2088.91,1082.09 2111.52,1080.27 2134.13,1078.48 2156.74,1076.72 2179.35,1074.98 2201.96,1073.27 2224.57,1071.59 2247.17,1069.93 2269.78,1068.3 2292.39,1066.7 "/>
<polyline clip-path="url(#clip872)" style="stroke:#ff7e0d; stroke-linecap:round; stroke-linejoin:round; stroke-width:6; stroke-opacity:1; fill:none" points="280.231,239.828 398.593,453.548 516.956,629.55 635.318,774.9 753.68,895.263 872.043,995.141 990.405,1078.14 1108.77,1147.14 1227.13,1204.5 1345.49,1252.11 1463.85,1291.53 1582.22,1324.01 1700.58,1350.59 1818.94,1372.11 1937.3,1389.24 2055.67,1402.5 2174.03,1412.24 2292.39,1418.53 "/>
<polyline clip-path="url(#clip872)" style="stroke:#2ba02b; stroke-linecap:round; stroke-linejoin:round; stroke-width:6; stroke-opacity:1; fill:none" points="280.231,1416.46 364.071,1406.39 447.911,1392.02 531.751,1373.78 615.591,1351.87 699.431,1326.39 783.271,1297.4 867.111,1264.96 950.951,1229.09 1034.79,1189.81 1118.63,1147.14 1202.47,1101.1 1286.31,1051.7 1370.15,998.939 1453.99,942.836 1537.83,883.395 1621.67,820.623 1705.51,754.524 1789.35,685.106 1873.19,612.371 1957.03,536.326 2040.87,456.975 2124.71,374.32 2208.55,288.368 2292.39,199.121 "/>
<polyline clip-path="url(#clip872)" style="stroke:#d52628; stroke-linecap:round; stroke-linejoin:round; stroke-width:6; stroke-opacity:1; fill:none" points="280.231,1419.49 304.77,1415.45 329.308,1409.72 353.847,1402.79 378.385,1394.91 402.924,1386.25 427.462,1376.93 452.001,1367.02 476.539,1356.6 501.078,1345.72 525.616,1334.42 550.155,1322.74 574.694,1310.72 599.232,1298.38 623.771,1285.74 648.309,1272.83 672.848,1259.67 697.386,1246.26 721.925,1232.63 746.463,1218.79 771.002,1204.76 795.54,1190.53 820.079,1176.12 844.617,1161.55 869.156,1146.82 893.694,1131.93 918.233,1116.89 942.772,1101.72 967.31,1086.41 991.849,1070.98 1016.39,1055.42 1040.93,1039.74 1065.46,1023.95 1090,1008.05 1114.54,992.046 1139.08,975.94 1163.62,959.736 1188.16,943.437 1212.7,927.047 1237.23,910.568 1261.77,894.004 1286.31,877.357 1310.85,860.638 1335.39,843.824 1359.93,826.942 1384.47,809.987 1409,792.961 1433.54,775.865 1458.08,758.702 1482.62,741.472 1507.16,724.179 1531.7,706.823 1556.23,689.407 1580.77,672.02 1605.31,654.397 1629.85,636.807 1654.39,619.162 1678.93,601.463 1703.47,583.711 1728,565.908 1752.54,548.054 1777.08,530.186 1801.62,512.201 1826.16,494.203 1850.7,476.159 1875.24,458.07 1899.77,440.024 1924.31,421.761 1948.85,403.542 1973.39,385.281 1997.93,366.98 2022.47,348.647 2047.01,330.258 2071.54,313.581 2096.08,293.382 2120.62,274.888 2145.16,256.357 2169.7,237.791 2194.24,219.531 2218.78,200.553 2243.31,181.883 2267.85,163.18 2292.39,144.443 "/>
<polyline clip-path="url(#clip872)" style="stroke:#9466bd; stroke-linecap:round; stroke-linejoin:round; stroke-width:6; stroke-opacity:1; fill:none" points="280.231,1141.71 2292.39,589.251 "/>
<path clip-path="url(#clip870)" d="M290.963 462.284 L885.129 462.284 L885.129 151.244 L290.963 151.244  Z" fill="#ffffff" fill-rule="evenodd" fill-opacity="1"/>
<polyline clip-path="url(#clip870)" style="stroke:#000000; stroke-linecap:round; stroke-linejoin:round; stroke-width:4; stroke-opacity:1; fill:none" points="290.963,462.284 885.129,462.284 885.129,151.244 290.963,151.244 290.963,462.284 "/>
<polyline clip-path="url(#clip870)" style="stroke:#1f77b4; stroke-linecap:round; stroke-linejoin:round; stroke-width:6; stroke-opacity:1; fill:none" points="314.661,203.084 456.854,203.084 "/>
<path clip-path="url(#clip870)" d="M496.386 190.41 L490.043 207.609 L502.752 207.609 L496.386 190.41 M493.747 185.804 L499.048 185.804 L512.219 220.364 L507.358 220.364 L504.21 211.498 L488.631 211.498 L485.483 220.364 L480.553 220.364 L493.747 185.804 Z" fill="#000000" fill-rule="nonzero" fill-opacity="1" /><path clip-path="url(#clip870)" d="M508.793 185.804 L538.029 185.804 L538.029 189.739 L525.761 189.739 L525.761 220.364 L521.062 220.364 L521.062 189.739 L508.793 189.739 L508.793 185.804 Z" fill="#000000" fill-rule="nonzero" fill-opacity="1" /><path clip-path="url(#clip870)" d="M547.219 189.646 L547.219 202.632 L553.099 202.632 Q556.363 202.632 558.145 200.943 Q559.927 199.253 559.927 196.128 Q559.927 193.026 558.145 191.336 Q556.363 189.646 553.099 189.646 L547.219 189.646 M542.543 185.804 L553.099 185.804 Q558.909 185.804 561.872 188.443 Q564.858 191.058 564.858 196.128 Q564.858 201.243 561.872 203.859 Q558.909 206.475 553.099 206.475 L547.219 206.475 L547.219 220.364 L542.543 220.364 L542.543 185.804 Z" fill="#000000" fill-rule="nonzero" fill-opacity="1" /><path clip-path="url(#clip870)" d="M586.571 198.836 L616.246 198.836 L616.246 202.725 L586.571 202.725 L586.571 198.836 M586.571 208.28 L616.246 208.28 L616.246 212.216 L586.571 212.216 L586.571 208.28 Z" fill="#000000" fill-rule="nonzero" fill-opacity="1" /><path clip-path="url(#clip870)" d="M655.575 201.73 Q658.931 202.447 660.806 204.716 Q662.705 206.984 662.705 210.317 Q662.705 215.433 659.186 218.234 Q655.668 221.035 649.186 221.035 Q647.01 221.035 644.695 220.595 Q642.404 220.179 639.95 219.322 L639.95 214.808 Q641.895 215.942 644.209 216.521 Q646.524 217.1 649.047 217.1 Q653.445 217.1 655.737 215.364 Q658.052 213.628 658.052 210.317 Q658.052 207.262 655.899 205.549 Q653.769 203.813 649.95 203.813 L645.922 203.813 L645.922 199.97 L650.135 199.97 Q653.584 199.97 655.413 198.605 Q657.242 197.216 657.242 194.623 Q657.242 191.961 655.344 190.549 Q653.469 189.114 649.95 189.114 Q648.029 189.114 645.83 189.531 Q643.631 189.947 640.992 190.827 L640.992 186.66 Q643.654 185.919 645.969 185.549 Q648.307 185.179 650.367 185.179 Q655.691 185.179 658.793 187.609 Q661.894 190.017 661.894 194.137 Q661.894 197.007 660.251 198.998 Q658.607 200.966 655.575 201.73 Z" fill="#000000" fill-rule="nonzero" fill-opacity="1" /><path clip-path="url(#clip870)" d="M681.57 188.882 Q677.959 188.882 676.13 192.447 Q674.325 195.989 674.325 203.118 Q674.325 210.225 676.13 213.79 Q677.959 217.331 681.57 217.331 Q685.204 217.331 687.01 213.79 Q688.839 210.225 688.839 203.118 Q688.839 195.989 687.01 192.447 Q685.204 188.882 681.57 188.882 M681.57 185.179 Q687.38 185.179 690.436 189.785 Q693.515 194.368 693.515 203.118 Q693.515 211.845 690.436 216.452 Q687.38 221.035 681.57 221.035 Q675.76 221.035 672.681 216.452 Q669.626 211.845 669.626 203.118 Q669.626 194.368 672.681 189.785 Q675.76 185.179 681.57 185.179 Z" fill="#000000" fill-rule="nonzero" fill-opacity="1" /><path clip-path="url(#clip870)" d="M711.732 188.882 Q708.121 188.882 706.292 192.447 Q704.487 195.989 704.487 203.118 Q704.487 210.225 706.292 213.79 Q708.121 217.331 711.732 217.331 Q715.366 217.331 717.172 213.79 Q719.001 210.225 719.001 203.118 Q719.001 195.989 717.172 192.447 Q715.366 188.882 711.732 188.882 M711.732 185.179 Q717.542 185.179 720.598 189.785 Q723.676 194.368 723.676 203.118 Q723.676 211.845 720.598 216.452 Q717.542 221.035 711.732 221.035 Q705.922 221.035 702.843 216.452 Q699.788 211.845 699.788 203.118 Q699.788 194.368 702.843 189.785 Q705.922 185.179 711.732 185.179 Z" fill="#000000" fill-rule="nonzero" fill-opacity="1" /><path clip-path="url(#clip870)" d="M729.139 205.48 L741.616 205.48 L741.616 209.276 L729.139 209.276 L729.139 205.48 Z" fill="#000000" fill-rule="nonzero" fill-opacity="1" /><path clip-path="url(#clip870)" d="M749.047 185.804 L767.403 185.804 L767.403 189.739 L753.329 189.739 L753.329 198.211 Q754.348 197.864 755.366 197.702 Q756.385 197.517 757.403 197.517 Q763.19 197.517 766.57 200.688 Q769.949 203.859 769.949 209.276 Q769.949 214.854 766.477 217.956 Q763.005 221.035 756.686 221.035 Q754.51 221.035 752.241 220.665 Q749.996 220.294 747.588 219.554 L747.588 214.854 Q749.672 215.989 751.894 216.544 Q754.116 217.1 756.593 217.1 Q760.598 217.1 762.936 214.993 Q765.273 212.887 765.273 209.276 Q765.273 205.665 762.936 203.558 Q760.598 201.452 756.593 201.452 Q754.718 201.452 752.843 201.868 Q750.991 202.285 749.047 203.165 L749.047 185.804 Z" fill="#000000" fill-rule="nonzero" fill-opacity="1" /><path clip-path="url(#clip870)" d="M779.209 185.804 L797.565 185.804 L797.565 189.739 L783.491 189.739 L783.491 198.211 Q784.509 197.864 785.528 197.702 Q786.547 197.517 787.565 197.517 Q793.352 197.517 796.732 200.688 Q800.111 203.859 800.111 209.276 Q800.111 214.854 796.639 217.956 Q793.167 221.035 786.847 221.035 Q784.672 221.035 782.403 220.665 Q780.158 220.294 777.75 219.554 L777.75 214.854 Q779.834 215.989 782.056 216.544 Q784.278 217.1 786.755 217.1 Q790.759 217.1 793.097 214.993 Q795.435 212.887 795.435 209.276 Q795.435 205.665 793.097 203.558 Q790.759 201.452 786.755 201.452 Q784.88 201.452 783.005 201.868 Q781.153 202.285 779.209 203.165 L779.209 185.804 Z" fill="#000000" fill-rule="nonzero" fill-opacity="1" /><path clip-path="url(#clip870)" d="M819.324 188.882 Q815.713 188.882 813.884 192.447 Q812.079 195.989 812.079 203.118 Q812.079 210.225 813.884 213.79 Q815.713 217.331 819.324 217.331 Q822.958 217.331 824.764 213.79 Q826.593 210.225 826.593 203.118 Q826.593 195.989 824.764 192.447 Q822.958 188.882 819.324 188.882 M819.324 185.179 Q825.134 185.179 828.19 189.785 Q831.268 194.368 831.268 203.118 Q831.268 211.845 828.19 216.452 Q825.134 221.035 819.324 221.035 Q813.514 221.035 810.435 216.452 Q807.38 211.845 807.38 203.118 Q807.38 194.368 810.435 189.785 Q813.514 185.179 819.324 185.179 Z" fill="#000000" fill-rule="nonzero" fill-opacity="1" /><path clip-path="url(#clip870)" d="M849.486 188.882 Q845.875 188.882 844.046 192.447 Q842.241 195.989 842.241 203.118 Q842.241 210.225 844.046 213.79 Q845.875 217.331 849.486 217.331 Q853.12 217.331 854.926 213.79 Q856.754 210.225 856.754 203.118 Q856.754 195.989 854.926 192.447 Q853.12 188.882 849.486 188.882 M849.486 185.179 Q855.296 185.179 858.352 189.785 Q861.43 194.368 861.43 203.118 Q861.43 211.845 858.352 216.452 Q855.296 221.035 849.486 221.035 Q843.676 221.035 840.597 216.452 Q837.542 211.845 837.542 203.118 Q837.542 194.368 840.597 189.785 Q843.676 185.179 849.486 185.179 Z" fill="#000000" fill-rule="nonzero" fill-opacity="1" /><polyline clip-path="url(#clip870)" style="stroke:#ff7e0d; stroke-linecap:round; stroke-linejoin:round; stroke-width:6; stroke-opacity:1; fill:none" points="314.661,254.924 456.854,254.924 "/>
<path clip-path="url(#clip870)" d="M493.817 240.236 L505.784 272.204 L501.27 272.204 L494.002 253.037 L485.067 272.204 L480.553 272.204 L491.918 247.343 L490.206 242.759 Q489.118 239.843 486.641 239.843 L484.418 239.843 L484.418 236.185 L487.127 236.232 Q492.358 236.301 493.817 240.236 Z" fill="#000000" fill-rule="nonzero" fill-opacity="1" /><path clip-path="url(#clip870)" d="M527.289 250.676 L556.964 250.676 L556.964 254.565 L527.289 254.565 L527.289 250.676 M527.289 260.12 L556.964 260.12 L556.964 264.056 L527.289 264.056 L527.289 260.12 Z" fill="#000000" fill-rule="nonzero" fill-opacity="1" /><path clip-path="url(#clip870)" d="M592.126 240.722 Q588.515 240.722 586.686 244.287 Q584.881 247.829 584.881 254.958 Q584.881 262.065 586.686 265.63 Q588.515 269.171 592.126 269.171 Q595.76 269.171 597.566 265.63 Q599.395 262.065 599.395 254.958 Q599.395 247.829 597.566 244.287 Q595.76 240.722 592.126 240.722 M592.126 237.019 Q597.936 237.019 600.992 241.625 Q604.071 246.208 604.071 254.958 Q604.071 263.685 600.992 268.292 Q597.936 272.875 592.126 272.875 Q586.316 272.875 583.237 268.292 Q580.182 263.685 580.182 254.958 Q580.182 246.208 583.237 241.625 Q586.316 237.019 592.126 237.019 Z" fill="#000000" fill-rule="nonzero" fill-opacity="1" /><path clip-path="url(#clip870)" d="M612.288 266.324 L617.172 266.324 L617.172 272.204 L612.288 272.204 L612.288 266.324 Z" fill="#000000" fill-rule="nonzero" fill-opacity="1" /><path clip-path="url(#clip870)" d="M637.357 240.722 Q633.746 240.722 631.918 244.287 Q630.112 247.829 630.112 254.958 Q630.112 262.065 631.918 265.63 Q633.746 269.171 637.357 269.171 Q640.992 269.171 642.797 265.63 Q644.626 262.065 644.626 254.958 Q644.626 247.829 642.797 244.287 Q640.992 240.722 637.357 240.722 M637.357 237.019 Q643.168 237.019 646.223 241.625 Q649.302 246.208 649.302 254.958 Q649.302 263.685 646.223 268.292 Q643.168 272.875 637.357 272.875 Q631.547 272.875 628.469 268.292 Q625.413 263.685 625.413 254.958 Q625.413 246.208 628.469 241.625 Q631.547 237.019 637.357 237.019 Z" fill="#000000" fill-rule="nonzero" fill-opacity="1" /><path clip-path="url(#clip870)" d="M667.519 240.722 Q663.908 240.722 662.08 244.287 Q660.274 247.829 660.274 254.958 Q660.274 262.065 662.08 265.63 Q663.908 269.171 667.519 269.171 Q671.154 269.171 672.959 265.63 Q674.788 262.065 674.788 254.958 Q674.788 247.829 672.959 244.287 Q671.154 240.722 667.519 240.722 M667.519 237.019 Q673.33 237.019 676.385 241.625 Q679.464 246.208 679.464 254.958 Q679.464 263.685 676.385 268.292 Q673.33 272.875 667.519 272.875 Q661.709 272.875 658.631 268.292 Q655.575 263.685 655.575 254.958 Q655.575 246.208 658.631 241.625 Q661.709 237.019 667.519 237.019 Z" fill="#000000" fill-rule="nonzero" fill-opacity="1" /><path clip-path="url(#clip870)" d="M688.491 268.269 L696.13 268.269 L696.13 241.903 L687.82 243.57 L687.82 239.31 L696.084 237.644 L700.76 237.644 L700.76 268.269 L708.399 268.269 L708.399 272.204 L688.491 272.204 L688.491 268.269 Z" fill="#000000" fill-rule="nonzero" fill-opacity="1" /><path clip-path="url(#clip870)" d="M715.089 257.32 L727.565 257.32 L727.565 261.116 L715.089 261.116 L715.089 257.32 Z" fill="#000000" fill-rule="nonzero" fill-opacity="1" /><path clip-path="url(#clip870)" d="M744.95 240.722 Q741.338 240.722 739.51 244.287 Q737.704 247.829 737.704 254.958 Q737.704 262.065 739.51 265.63 Q741.338 269.171 744.95 269.171 Q748.584 269.171 750.389 265.63 Q752.218 262.065 752.218 254.958 Q752.218 247.829 750.389 244.287 Q748.584 240.722 744.95 240.722 M744.95 237.019 Q750.76 237.019 753.815 241.625 Q756.894 246.208 756.894 254.958 Q756.894 263.685 753.815 268.292 Q750.76 272.875 744.95 272.875 Q739.139 272.875 736.061 268.292 Q733.005 263.685 733.005 254.958 Q733.005 246.208 736.061 241.625 Q739.139 237.019 744.95 237.019 Z" fill="#000000" fill-rule="nonzero" fill-opacity="1" /><path clip-path="url(#clip870)" d="M765.111 266.324 L769.996 266.324 L769.996 272.204 L765.111 272.204 L765.111 266.324 Z" fill="#000000" fill-rule="nonzero" fill-opacity="1" /><path clip-path="url(#clip870)" d="M790.181 240.722 Q786.57 240.722 784.741 244.287 Q782.935 247.829 782.935 254.958 Q782.935 262.065 784.741 265.63 Q786.57 269.171 790.181 269.171 Q793.815 269.171 795.621 265.63 Q797.449 262.065 797.449 254.958 Q797.449 247.829 795.621 244.287 Q793.815 240.722 790.181 240.722 M790.181 237.019 Q795.991 237.019 799.046 241.625 Q802.125 246.208 802.125 254.958 Q802.125 263.685 799.046 268.292 Q795.991 272.875 790.181 272.875 Q784.371 272.875 781.292 268.292 Q778.236 263.685 778.236 254.958 Q778.236 246.208 781.292 241.625 Q784.371 237.019 790.181 237.019 Z" fill="#000000" fill-rule="nonzero" fill-opacity="1" /><path clip-path="url(#clip870)" d="M823.19 241.718 L811.384 260.167 L823.19 260.167 L823.19 241.718 M821.963 237.644 L827.843 237.644 L827.843 260.167 L832.773 260.167 L832.773 264.056 L827.843 264.056 L827.843 272.204 L823.19 272.204 L823.19 264.056 L807.588 264.056 L807.588 259.542 L821.963 237.644 Z" fill="#000000" fill-rule="nonzero" fill-opacity="1" /><polyline clip-path="url(#clip870)" style="stroke:#2ba02b; stroke-linecap:round; stroke-linejoin:round; stroke-width:6; stroke-opacity:1; fill:none" points="314.661,306.764 456.854,306.764 "/>
<path clip-path="url(#clip870)" d="M480.553 288.025 L484.835 288.025 L484.835 309.298 L497.543 298.118 L502.983 298.118 L489.233 310.247 L503.562 324.044 L498.006 324.044 L484.835 311.382 L484.835 324.044 L480.553 324.044 L480.553 288.025 Z" fill="#000000" fill-rule="nonzero" fill-opacity="1" /><path clip-path="url(#clip870)" d="M508.168 298.118 L512.428 298.118 L512.428 324.044 L508.168 324.044 L508.168 298.118 M508.168 288.025 L512.428 288.025 L512.428 293.419 L508.168 293.419 L508.168 288.025 Z" fill="#000000" fill-rule="nonzero" fill-opacity="1" /><path clip-path="url(#clip870)" d="M542.89 308.396 L542.89 324.044 L538.631 324.044 L538.631 308.535 Q538.631 304.854 537.196 303.025 Q535.761 301.197 532.89 301.197 Q529.441 301.197 527.451 303.396 Q525.46 305.595 525.46 309.391 L525.46 324.044 L521.178 324.044 L521.178 298.118 L525.46 298.118 L525.46 302.146 Q526.988 299.808 529.048 298.65 Q531.131 297.493 533.84 297.493 Q538.307 297.493 540.599 300.271 Q542.89 303.025 542.89 308.396 Z" fill="#000000" fill-rule="nonzero" fill-opacity="1" /><path clip-path="url(#clip870)" d="M567.011 302.516 L596.686 302.516 L596.686 306.405 L567.011 306.405 L567.011 302.516 M567.011 311.96 L596.686 311.96 L596.686 315.896 L567.011 315.896 L567.011 311.96 Z" fill="#000000" fill-rule="nonzero" fill-opacity="1" /><path clip-path="url(#clip870)" d="M631.848 292.562 Q628.237 292.562 626.408 296.127 Q624.603 299.669 624.603 306.798 Q624.603 313.905 626.408 317.47 Q628.237 321.011 631.848 321.011 Q635.483 321.011 637.288 317.47 Q639.117 313.905 639.117 306.798 Q639.117 299.669 637.288 296.127 Q635.483 292.562 631.848 292.562 M631.848 288.859 Q637.658 288.859 640.714 293.465 Q643.793 298.048 643.793 306.798 Q643.793 315.525 640.714 320.132 Q637.658 324.715 631.848 324.715 Q626.038 324.715 622.959 320.132 Q619.904 315.525 619.904 306.798 Q619.904 298.048 622.959 293.465 Q626.038 288.859 631.848 288.859 Z" fill="#000000" fill-rule="nonzero" fill-opacity="1" /><path clip-path="url(#clip870)" d="M649.256 309.16 L661.732 309.16 L661.732 312.956 L649.256 312.956 L649.256 309.16 Z" fill="#000000" fill-rule="nonzero" fill-opacity="1" /><path clip-path="url(#clip870)" d="M679.117 292.562 Q675.505 292.562 673.677 296.127 Q671.871 299.669 671.871 306.798 Q671.871 313.905 673.677 317.47 Q675.505 321.011 679.117 321.011 Q682.751 321.011 684.556 317.47 Q686.385 313.905 686.385 306.798 Q686.385 299.669 684.556 296.127 Q682.751 292.562 679.117 292.562 M679.117 288.859 Q684.927 288.859 687.982 293.465 Q691.061 298.048 691.061 306.798 Q691.061 315.525 687.982 320.132 Q684.927 324.715 679.117 324.715 Q673.306 324.715 670.228 320.132 Q667.172 315.525 667.172 306.798 Q667.172 298.048 670.228 293.465 Q673.306 288.859 679.117 288.859 Z" fill="#000000" fill-rule="nonzero" fill-opacity="1" /><path clip-path="url(#clip870)" d="M699.278 318.164 L704.163 318.164 L704.163 324.044 L699.278 324.044 L699.278 318.164 Z" fill="#000000" fill-rule="nonzero" fill-opacity="1" /><path clip-path="url(#clip870)" d="M715.158 320.109 L722.797 320.109 L722.797 293.743 L714.487 295.41 L714.487 291.15 L722.751 289.484 L727.426 289.484 L727.426 320.109 L735.065 320.109 L735.065 324.044 L715.158 324.044 L715.158 320.109 Z" fill="#000000" fill-rule="nonzero" fill-opacity="1" /><polyline clip-path="url(#clip870)" style="stroke:#d52628; stroke-linecap:round; stroke-linejoin:round; stroke-width:6; stroke-opacity:1; fill:none" points="314.661,358.604 456.854,358.604 "/>
<path clip-path="url(#clip870)" d="M490.159 376.555 Q480.553 376.555 480.553 362.805 Q480.553 357.365 484.141 349.958 L488.724 349.958 Q485.414 357.365 485.414 362.921 Q485.414 372.944 490.553 372.944 Q495.252 372.944 495.252 360.49 L499.187 360.49 Q499.187 372.944 503.886 372.944 Q509.025 372.944 509.025 362.921 Q509.025 357.365 505.715 349.958 L510.298 349.958 Q513.886 357.365 513.886 362.805 Q513.886 376.555 504.28 376.555 Q497.983 376.555 497.219 369.634 Q496.27 376.555 490.159 376.555 Z" fill="#000000" fill-rule="nonzero" fill-opacity="1" /><path clip-path="url(#clip870)" d="M541.293 383.754 L541.293 387.064 L516.664 387.064 L516.664 383.754 L541.293 383.754 Z" fill="#000000" fill-rule="nonzero" fill-opacity="1" /><path clip-path="url(#clip870)" d="M557.08 362.851 Q551.918 362.851 549.927 364.032 Q547.937 365.212 547.937 368.06 Q547.937 370.328 549.418 371.671 Q550.923 372.99 553.492 372.99 Q557.034 372.99 559.163 370.49 Q561.316 367.967 561.316 363.8 L561.316 362.851 L557.08 362.851 M565.575 361.092 L565.575 375.884 L561.316 375.884 L561.316 371.949 Q559.858 374.31 557.682 375.444 Q555.506 376.555 552.358 376.555 Q548.376 376.555 546.015 374.333 Q543.677 372.087 543.677 368.337 Q543.677 363.962 546.594 361.74 Q549.534 359.518 555.344 359.518 L561.316 359.518 L561.316 359.101 Q561.316 356.162 559.372 354.564 Q557.451 352.944 553.955 352.944 Q551.733 352.944 549.626 353.476 Q547.52 354.009 545.576 355.074 L545.576 351.138 Q547.914 350.236 550.113 349.796 Q552.312 349.333 554.395 349.333 Q560.02 349.333 562.798 352.25 Q565.575 355.166 565.575 361.092 Z" fill="#000000" fill-rule="nonzero" fill-opacity="1" /><path clip-path="url(#clip870)" d="M592.96 362.944 Q592.96 358.245 591.015 355.583 Q589.094 352.898 585.714 352.898 Q582.335 352.898 580.39 355.583 Q578.469 358.245 578.469 362.944 Q578.469 367.643 580.39 370.328 Q582.335 372.99 585.714 372.99 Q589.094 372.99 591.015 370.328 Q592.96 367.643 592.96 362.944 M578.469 353.893 Q579.812 351.578 581.849 350.467 Q583.909 349.333 586.756 349.333 Q591.478 349.333 594.418 353.083 Q597.381 356.833 597.381 362.944 Q597.381 369.055 594.418 372.805 Q591.478 376.555 586.756 376.555 Q583.909 376.555 581.849 375.444 Q579.812 374.31 578.469 371.995 L578.469 375.884 L574.187 375.884 L574.187 339.865 L578.469 339.865 L578.469 353.893 Z" fill="#000000" fill-rule="nonzero" fill-opacity="1" /><path clip-path="url(#clip870)" d="M620.066 354.356 L649.742 354.356 L649.742 358.245 L620.066 358.245 L620.066 354.356 M620.066 363.8 L649.742 363.8 L649.742 367.736 L620.066 367.736 L620.066 363.8 Z" fill="#000000" fill-rule="nonzero" fill-opacity="1" /><path clip-path="url(#clip870)" d="M684.904 344.402 Q681.292 344.402 679.464 347.967 Q677.658 351.509 677.658 358.638 Q677.658 365.745 679.464 369.31 Q681.292 372.851 684.904 372.851 Q688.538 372.851 690.343 369.31 Q692.172 365.745 692.172 358.638 Q692.172 351.509 690.343 347.967 Q688.538 344.402 684.904 344.402 M684.904 340.699 Q690.714 340.699 693.769 345.305 Q696.848 349.888 696.848 358.638 Q696.848 367.365 693.769 371.972 Q690.714 376.555 684.904 376.555 Q679.093 376.555 676.015 371.972 Q672.959 367.365 672.959 358.638 Q672.959 349.888 676.015 345.305 Q679.093 340.699 684.904 340.699 Z" fill="#000000" fill-rule="nonzero" fill-opacity="1" /><path clip-path="url(#clip870)" d="M705.065 370.004 L709.95 370.004 L709.95 375.884 L705.065 375.884 L705.065 370.004 Z" fill="#000000" fill-rule="nonzero" fill-opacity="1" /><path clip-path="url(#clip870)" d="M730.135 344.402 Q726.524 344.402 724.695 347.967 Q722.889 351.509 722.889 358.638 Q722.889 365.745 724.695 369.31 Q726.524 372.851 730.135 372.851 Q733.769 372.851 735.575 369.31 Q737.403 365.745 737.403 358.638 Q737.403 351.509 735.575 347.967 Q733.769 344.402 730.135 344.402 M730.135 340.699 Q735.945 340.699 739 345.305 Q742.079 349.888 742.079 358.638 Q742.079 367.365 739 371.972 Q735.945 376.555 730.135 376.555 Q724.325 376.555 721.246 371.972 Q718.19 367.365 718.19 358.638 Q718.19 349.888 721.246 345.305 Q724.325 340.699 730.135 340.699 Z" fill="#000000" fill-rule="nonzero" fill-opacity="1" /><path clip-path="url(#clip870)" d="M760.297 344.402 Q756.686 344.402 754.857 347.967 Q753.051 351.509 753.051 358.638 Q753.051 365.745 754.857 369.31 Q756.686 372.851 760.297 372.851 Q763.931 372.851 765.736 369.31 Q767.565 365.745 767.565 358.638 Q767.565 351.509 765.736 347.967 Q763.931 344.402 760.297 344.402 M760.297 340.699 Q766.107 340.699 769.162 345.305 Q772.241 349.888 772.241 358.638 Q772.241 367.365 769.162 371.972 Q766.107 376.555 760.297 376.555 Q754.486 376.555 751.408 371.972 Q748.352 367.365 748.352 358.638 Q748.352 349.888 751.408 345.305 Q754.486 340.699 760.297 340.699 Z" fill="#000000" fill-rule="nonzero" fill-opacity="1" /><path clip-path="url(#clip870)" d="M781.269 371.949 L788.908 371.949 L788.908 345.583 L780.597 347.25 L780.597 342.99 L788.861 341.324 L793.537 341.324 L793.537 371.949 L801.176 371.949 L801.176 375.884 L781.269 375.884 L781.269 371.949 Z" fill="#000000" fill-rule="nonzero" fill-opacity="1" /><path clip-path="url(#clip870)" d="M807.866 361 L820.343 361 L820.343 364.796 L807.866 364.796 L807.866 361 Z" fill="#000000" fill-rule="nonzero" fill-opacity="1" /><path clip-path="url(#clip870)" d="M841.893 357.25 Q845.25 357.967 847.125 360.236 Q849.023 362.504 849.023 365.837 Q849.023 370.953 845.505 373.754 Q841.986 376.555 835.505 376.555 Q833.329 376.555 831.014 376.115 Q828.722 375.699 826.269 374.842 L826.269 370.328 Q828.213 371.462 830.528 372.041 Q832.843 372.62 835.366 372.62 Q839.764 372.62 842.055 370.884 Q844.37 369.148 844.37 365.837 Q844.37 362.782 842.218 361.069 Q840.088 359.333 836.268 359.333 L832.241 359.333 L832.241 355.49 L836.454 355.49 Q839.903 355.49 841.731 354.125 Q843.56 352.736 843.56 350.143 Q843.56 347.481 841.662 346.069 Q839.787 344.634 836.268 344.634 Q834.347 344.634 832.148 345.051 Q829.949 345.467 827.31 346.347 L827.31 342.18 Q829.972 341.439 832.287 341.069 Q834.625 340.699 836.685 340.699 Q842.009 340.699 845.111 343.129 Q848.213 345.537 848.213 349.657 Q848.213 352.527 846.569 354.518 Q844.926 356.486 841.893 357.25 Z" fill="#000000" fill-rule="nonzero" fill-opacity="1" /><polyline clip-path="url(#clip870)" style="stroke:#9466bd; stroke-linecap:round; stroke-linejoin:round; stroke-width:6; stroke-opacity:1; fill:none" points="314.661,410.444 456.854,410.444 "/>
<path clip-path="url(#clip870)" d="M490.159 428.395 Q480.553 428.395 480.553 414.645 Q480.553 409.205 484.141 401.798 L488.724 401.798 Q485.414 409.205 485.414 414.761 Q485.414 424.784 490.553 424.784 Q495.252 424.784 495.252 412.33 L499.187 412.33 Q499.187 424.784 503.886 424.784 Q509.025 424.784 509.025 414.761 Q509.025 409.205 505.715 401.798 L510.298 401.798 Q513.886 409.205 513.886 414.645 Q513.886 428.395 504.28 428.395 Q497.983 428.395 497.219 421.474 Q496.27 428.395 490.159 428.395 Z" fill="#000000" fill-rule="nonzero" fill-opacity="1" /><path clip-path="url(#clip870)" d="M541.293 435.594 L541.293 438.904 L516.664 438.904 L516.664 435.594 L541.293 435.594 Z" fill="#000000" fill-rule="nonzero" fill-opacity="1" /><path clip-path="url(#clip870)" d="M560.321 405.779 Q559.603 405.363 558.747 405.178 Q557.913 404.969 556.895 404.969 Q553.284 404.969 551.339 407.33 Q549.418 409.668 549.418 414.066 L549.418 427.724 L545.136 427.724 L545.136 401.798 L549.418 401.798 L549.418 405.826 Q550.761 403.465 552.914 402.33 Q555.066 401.173 558.145 401.173 Q558.585 401.173 559.117 401.242 Q559.65 401.289 560.298 401.404 L560.321 405.779 Z" fill="#000000" fill-rule="nonzero" fill-opacity="1" /><path clip-path="url(#clip870)" d="M580.413 406.196 L610.089 406.196 L610.089 410.085 L580.413 410.085 L580.413 406.196 M580.413 415.64 L610.089 415.64 L610.089 419.576 L580.413 419.576 L580.413 415.64 Z" fill="#000000" fill-rule="nonzero" fill-opacity="1" /><path clip-path="url(#clip870)" d="M636.061 423.789 L643.7 423.789 L643.7 397.423 L635.39 399.09 L635.39 394.83 L643.654 393.164 L648.33 393.164 L648.33 423.789 L655.969 423.789 L655.969 427.724 L636.061 427.724 L636.061 423.789 Z" fill="#000000" fill-rule="nonzero" fill-opacity="1" /><path clip-path="url(#clip870)" d="M686.987 413.696 L686.987 415.779 L667.404 415.779 Q667.681 420.177 670.043 422.492 Q672.427 424.784 676.663 424.784 Q679.117 424.784 681.408 424.182 Q683.723 423.58 685.991 422.377 L685.991 426.404 Q683.7 427.376 681.292 427.886 Q678.885 428.395 676.408 428.395 Q670.205 428.395 666.57 424.784 Q662.959 421.173 662.959 415.015 Q662.959 408.65 666.385 404.923 Q669.834 401.173 675.667 401.173 Q680.899 401.173 683.931 404.553 Q686.987 407.909 686.987 413.696 M682.728 412.446 Q682.681 408.951 680.76 406.867 Q678.862 404.784 675.714 404.784 Q672.149 404.784 669.996 406.798 Q667.867 408.812 667.543 412.469 L682.728 412.446 Z" fill="#000000" fill-rule="nonzero" fill-opacity="1" /><path clip-path="url(#clip870)" d="M691.825 412.84 L704.302 412.84 L704.302 416.636 L691.825 416.636 L691.825 412.84 Z" fill="#000000" fill-rule="nonzero" fill-opacity="1" /><path clip-path="url(#clip870)" d="M710.505 393.164 L732.727 393.164 L732.727 395.154 L720.181 427.724 L715.297 427.724 L727.102 397.099 L710.505 397.099 L710.505 393.164 Z" fill="#000000" fill-rule="nonzero" fill-opacity="1" /><path clip-path="url(#clip870)" d="M739.093 412.84 L751.57 412.84 L751.57 416.636 L739.093 416.636 L739.093 412.84 Z" fill="#000000" fill-rule="nonzero" fill-opacity="1" /><path clip-path="url(#clip870)" d="M768.954 396.242 Q765.343 396.242 763.514 399.807 Q761.709 403.349 761.709 410.478 Q761.709 417.585 763.514 421.15 Q765.343 424.691 768.954 424.691 Q772.588 424.691 774.394 421.15 Q776.222 417.585 776.222 410.478 Q776.222 403.349 774.394 399.807 Q772.588 396.242 768.954 396.242 M768.954 392.539 Q774.764 392.539 777.82 397.145 Q780.898 401.728 780.898 410.478 Q780.898 419.205 777.82 423.812 Q774.764 428.395 768.954 428.395 Q763.144 428.395 760.065 423.812 Q757.01 419.205 757.01 410.478 Q757.01 401.728 760.065 397.145 Q763.144 392.539 768.954 392.539 Z" fill="#000000" fill-rule="nonzero" fill-opacity="1" /><path clip-path="url(#clip870)" d="M789.116 421.844 L794 421.844 L794 427.724 L789.116 427.724 L789.116 421.844 Z" fill="#000000" fill-rule="nonzero" fill-opacity="1" /><path clip-path="url(#clip870)" d="M814.185 396.242 Q810.574 396.242 808.745 399.807 Q806.94 403.349 806.94 410.478 Q806.94 417.585 808.745 421.15 Q810.574 424.691 814.185 424.691 Q817.819 424.691 819.625 421.15 Q821.454 417.585 821.454 410.478 Q821.454 403.349 819.625 399.807 Q817.819 396.242 814.185 396.242 M814.185 392.539 Q819.995 392.539 823.051 397.145 Q826.13 401.728 826.13 410.478 Q826.13 419.205 823.051 423.812 Q819.995 428.395 814.185 428.395 Q808.375 428.395 805.296 423.812 Q802.241 419.205 802.241 410.478 Q802.241 401.728 805.296 397.145 Q808.375 392.539 814.185 392.539 Z" fill="#000000" fill-rule="nonzero" fill-opacity="1" /><path clip-path="url(#clip870)" d="M835.157 423.789 L842.796 423.789 L842.796 397.423 L834.486 399.09 L834.486 394.83 L842.75 393.164 L847.426 393.164 L847.426 423.789 L855.065 423.789 L855.065 427.724 L835.157 427.724 L835.157 423.789 Z" fill="#000000" fill-rule="nonzero" fill-opacity="1" /></svg>
