<?xml version="1.0" encoding="utf-8"?>
<svg xmlns="http://www.w3.org/2000/svg" xmlns:xlink="http://www.w3.org/1999/xlink" width="600" height="400" viewBox="0 0 2400 1600">
<defs>
  <clipPath id="clip050">
    <rect x="0" y="0" width="2400" height="1600"/>
  </clipPath>
</defs>
<path clip-path="url(#clip050)" d="M0 1600 L2400 1600 L2400 0 L0 0  Z" fill="#ffffff" fill-rule="evenodd" fill-opacity="1"/>
<defs>
  <clipPath id="clip051">
    <rect x="480" y="0" width="1681" height="1600"/>
  </clipPath>
</defs>
<path clip-path="url(#clip050)" d="M249.542 1423.18 L2352.76 1423.18 L2352.76 123.472 L249.542 123.472  Z" fill="#ffffff" fill-rule="evenodd" fill-opacity="1"/>
<defs>
  <clipPath id="clip052">
    <rect x="249" y="123" width="2104" height="1301"/>
  </clipPath>
</defs>
<polyline clip-path="url(#clip052)" style="stroke:#000000; stroke-linecap:round; stroke-linejoin:round; stroke-width:2; stroke-opacity:0.1; fill:none" points="514.996,1423.18 514.996,123.472 "/>
<polyline clip-path="url(#clip052)" style="stroke:#000000; stroke-linecap:round; stroke-linejoin:round; stroke-width:2; stroke-opacity:0.1; fill:none" points="923.387,1423.18 923.387,123.472 "/>
<polyline clip-path="url(#clip052)" style="stroke:#000000; stroke-linecap:round; stroke-linejoin:round; stroke-width:2; stroke-opacity:0.1; fill:none" points="1331.78,1423.18 1331.78,123.472 "/>
<polyline clip-path="url(#clip052)" style="stroke:#000000; stroke-linecap:round; stroke-linejoin:round; stroke-width:2; stroke-opacity:0.1; fill:none" points="1740.17,1423.18 1740.17,123.472 "/>
<polyline clip-path="url(#clip052)" style="stroke:#000000; stroke-linecap:round; stroke-linejoin:round; stroke-width:2; stroke-opacity:0.1; fill:none" points="2148.56,1423.18 2148.56,123.472 "/>
<polyline clip-path="url(#clip050)" style="stroke:#000000; stroke-linecap:round; stroke-linejoin:round; stroke-width:4; stroke-opacity:1; fill:none" points="249.542,1423.18 2352.76,1423.18 "/>
<polyline clip-path="url(#clip050)" style="stroke:#000000; stroke-linecap:round; stroke-linejoin:round; stroke-width:4; stroke-opacity:1; fill:none" points="514.996,1423.18 514.996,1404.28 "/>
<polyline clip-path="url(#clip050)" style="stroke:#000000; stroke-linecap:round; stroke-linejoin:round; stroke-width:4; stroke-opacity:1; fill:none" points="923.387,1423.18 923.387,1404.28 "/>
<polyline clip-path="url(#clip050)" style="stroke:#000000; stroke-linecap:round; stroke-linejoin:round; stroke-width:4; stroke-opacity:1; fill:none" points="1331.78,1423.18 1331.78,1404.28 "/>
<polyline clip-path="url(#clip050)" style="stroke:#000000; stroke-linecap:round; stroke-linejoin:round; stroke-width:4; stroke-opacity:1; fill:none" points="1740.17,1423.18 1740.17,1404.28 "/>
<polyline clip-path="url(#clip050)" style="stroke:#000000; stroke-linecap:round; stroke-linejoin:round; stroke-width:4; stroke-opacity:1; fill:none" points="2148.56,1423.18 2148.56,1404.28 "/>
<path clip-path="url(#clip050)" d="M459.522 1481.64 L467.161 1481.64 L467.161 1455.28 L458.851 1456.95 L458.851 1452.69 L467.115 1451.02 L471.79 1451.02 L471.79 1481.64 L479.429 1481.64 L479.429 1485.58 L459.522 1485.58 L459.522 1481.64 Z" fill="#000000" fill-rule="nonzero" fill-opacity="1" /><path clip-path="url(#clip050)" d="M498.874 1454.1 Q495.263 1454.1 493.434 1457.66 Q491.628 1461.2 491.628 1468.33 Q491.628 1475.44 493.434 1479.01 Q495.263 1482.55 498.874 1482.55 Q502.508 1482.55 504.313 1479.01 Q506.142 1475.44 506.142 1468.33 Q506.142 1461.2 504.313 1457.66 Q502.508 1454.1 498.874 1454.1 M498.874 1450.39 Q504.684 1450.39 507.739 1455 Q510.818 1459.58 510.818 1468.33 Q510.818 1477.06 507.739 1481.67 Q504.684 1486.25 498.874 1486.25 Q493.063 1486.25 489.985 1481.67 Q486.929 1477.06 486.929 1468.33 Q486.929 1459.58 489.985 1455 Q493.063 1450.39 498.874 1450.39 Z" fill="#000000" fill-rule="nonzero" fill-opacity="1" /><path clip-path="url(#clip050)" d="M529.035 1454.1 Q525.424 1454.1 523.596 1457.66 Q521.79 1461.2 521.79 1468.33 Q521.79 1475.44 523.596 1479.01 Q525.424 1482.55 529.035 1482.55 Q532.67 1482.55 534.475 1479.01 Q536.304 1475.44 536.304 1468.33 Q536.304 1461.2 534.475 1457.66 Q532.67 1454.1 529.035 1454.1 M529.035 1450.39 Q534.846 1450.39 537.901 1455 Q540.98 1459.58 540.98 1468.33 Q540.98 1477.06 537.901 1481.67 Q534.846 1486.25 529.035 1486.25 Q523.225 1486.25 520.147 1481.67 Q517.091 1477.06 517.091 1468.33 Q517.091 1459.58 520.147 1455 Q523.225 1450.39 529.035 1450.39 Z" fill="#000000" fill-rule="nonzero" fill-opacity="1" /><path clip-path="url(#clip050)" d="M559.197 1454.1 Q555.586 1454.1 553.758 1457.66 Q551.952 1461.2 551.952 1468.33 Q551.952 1475.44 553.758 1479.01 Q555.586 1482.55 559.197 1482.55 Q562.832 1482.55 564.637 1479.01 Q566.466 1475.44 566.466 1468.33 Q566.466 1461.2 564.637 1457.66 Q562.832 1454.1 559.197 1454.1 M559.197 1450.39 Q565.008 1450.39 568.063 1455 Q571.142 1459.58 571.142 1468.33 Q571.142 1477.06 568.063 1481.67 Q565.008 1486.25 559.197 1486.25 Q553.387 1486.25 550.309 1481.67 Q547.253 1477.06 547.253 1468.33 Q547.253 1459.58 550.309 1455 Q553.387 1450.39 559.197 1450.39 Z" fill="#000000" fill-rule="nonzero" fill-opacity="1" /><path clip-path="url(#clip050)" d="M871.999 1481.64 L888.318 1481.64 L888.318 1485.58 L866.374 1485.58 L866.374 1481.64 Q869.036 1478.89 873.619 1474.26 Q878.225 1469.61 879.406 1468.27 Q881.651 1465.74 882.531 1464.01 Q883.434 1462.25 883.434 1460.56 Q883.434 1457.8 881.489 1456.07 Q879.568 1454.33 876.466 1454.33 Q874.267 1454.33 871.813 1455.09 Q869.383 1455.86 866.605 1457.41 L866.605 1452.69 Q869.429 1451.55 871.883 1450.97 Q874.337 1450.39 876.374 1450.39 Q881.744 1450.39 884.938 1453.08 Q888.133 1455.77 888.133 1460.26 Q888.133 1462.39 887.323 1464.31 Q886.536 1466.2 884.429 1468.8 Q883.85 1469.47 880.749 1472.69 Q877.647 1475.88 871.999 1481.64 Z" fill="#000000" fill-rule="nonzero" fill-opacity="1" /><path clip-path="url(#clip050)" d="M908.133 1454.1 Q904.522 1454.1 902.693 1457.66 Q900.887 1461.2 900.887 1468.33 Q900.887 1475.44 902.693 1479.01 Q904.522 1482.55 908.133 1482.55 Q911.767 1482.55 913.572 1479.01 Q915.401 1475.44 915.401 1468.33 Q915.401 1461.2 913.572 1457.66 Q911.767 1454.1 908.133 1454.1 M908.133 1450.39 Q913.943 1450.39 916.998 1455 Q920.077 1459.58 920.077 1468.33 Q920.077 1477.06 916.998 1481.67 Q913.943 1486.25 908.133 1486.25 Q902.323 1486.25 899.244 1481.67 Q896.188 1477.06 896.188 1468.33 Q896.188 1459.58 899.244 1455 Q902.323 1450.39 908.133 1450.39 Z" fill="#000000" fill-rule="nonzero" fill-opacity="1" /><path clip-path="url(#clip050)" d="M938.295 1454.1 Q934.683 1454.1 932.855 1457.66 Q931.049 1461.2 931.049 1468.33 Q931.049 1475.44 932.855 1479.01 Q934.683 1482.55 938.295 1482.55 Q941.929 1482.55 943.734 1479.01 Q945.563 1475.44 945.563 1468.33 Q945.563 1461.2 943.734 1457.66 Q941.929 1454.1 938.295 1454.1 M938.295 1450.39 Q944.105 1450.39 947.16 1455 Q950.239 1459.58 950.239 1468.33 Q950.239 1477.06 947.16 1481.67 Q944.105 1486.25 938.295 1486.25 Q932.484 1486.25 929.406 1481.67 Q926.35 1477.06 926.35 1468.33 Q926.35 1459.58 929.406 1455 Q932.484 1450.39 938.295 1450.39 Z" fill="#000000" fill-rule="nonzero" fill-opacity="1" /><path clip-path="url(#clip050)" d="M968.456 1454.1 Q964.845 1454.1 963.017 1457.66 Q961.211 1461.2 961.211 1468.33 Q961.211 1475.44 963.017 1479.01 Q964.845 1482.55 968.456 1482.55 Q972.091 1482.55 973.896 1479.01 Q975.725 1475.44 975.725 1468.33 Q975.725 1461.2 973.896 1457.66 Q972.091 1454.1 968.456 1454.1 M968.456 1450.39 Q974.267 1450.39 977.322 1455 Q980.401 1459.58 980.401 1468.33 Q980.401 1477.06 977.322 1481.67 Q974.267 1486.25 968.456 1486.25 Q962.646 1486.25 959.568 1481.67 Q956.512 1477.06 956.512 1468.33 Q956.512 1459.58 959.568 1455 Q962.646 1450.39 968.456 1450.39 Z" fill="#000000" fill-rule="nonzero" fill-opacity="1" /><path clip-path="url(#clip050)" d="M1290.46 1466.95 Q1293.82 1467.66 1295.69 1469.93 Q1297.59 1472.2 1297.59 1475.53 Q1297.59 1480.65 1294.07 1483.45 Q1290.55 1486.25 1284.07 1486.25 Q1281.89 1486.25 1279.58 1485.81 Q1277.29 1485.39 1274.83 1484.54 L1274.83 1480.02 Q1276.78 1481.16 1279.09 1481.74 Q1281.41 1482.32 1283.93 1482.32 Q1288.33 1482.32 1290.62 1480.58 Q1292.94 1478.84 1292.94 1475.53 Q1292.94 1472.48 1290.78 1470.77 Q1288.65 1469.03 1284.83 1469.03 L1280.81 1469.03 L1280.81 1465.19 L1285.02 1465.19 Q1288.47 1465.19 1290.3 1463.82 Q1292.13 1462.43 1292.13 1459.84 Q1292.13 1457.18 1290.23 1455.77 Q1288.35 1454.33 1284.83 1454.33 Q1282.91 1454.33 1280.71 1454.75 Q1278.51 1455.16 1275.88 1456.04 L1275.88 1451.88 Q1278.54 1451.14 1280.85 1450.77 Q1283.19 1450.39 1285.25 1450.39 Q1290.57 1450.39 1293.68 1452.83 Q1296.78 1455.23 1296.78 1459.35 Q1296.78 1462.22 1295.13 1464.21 Q1293.49 1466.18 1290.46 1466.95 Z" fill="#000000" fill-rule="nonzero" fill-opacity="1" /><path clip-path="url(#clip050)" d="M1316.45 1454.1 Q1312.84 1454.1 1311.01 1457.66 Q1309.21 1461.2 1309.21 1468.33 Q1309.21 1475.44 1311.01 1479.01 Q1312.84 1482.55 1316.45 1482.55 Q1320.09 1482.55 1321.89 1479.01 Q1323.72 1475.44 1323.72 1468.33 Q1323.72 1461.2 1321.89 1457.66 Q1320.09 1454.1 1316.45 1454.1 M1316.45 1450.39 Q1322.26 1450.39 1325.32 1455 Q1328.4 1459.58 1328.4 1468.33 Q1328.4 1477.06 1325.32 1481.67 Q1322.26 1486.25 1316.45 1486.25 Q1310.64 1486.25 1307.57 1481.67 Q1304.51 1477.06 1304.51 1468.33 Q1304.51 1459.58 1307.57 1455 Q1310.64 1450.39 1316.45 1450.39 Z" fill="#000000" fill-rule="nonzero" fill-opacity="1" /><path clip-path="url(#clip050)" d="M1346.62 1454.1 Q1343.01 1454.1 1341.18 1457.66 Q1339.37 1461.2 1339.37 1468.33 Q1339.37 1475.44 1341.18 1479.01 Q1343.01 1482.55 1346.62 1482.55 Q1350.25 1482.55 1352.06 1479.01 Q1353.88 1475.44 1353.88 1468.33 Q1353.88 1461.2 1352.06 1457.66 Q1350.25 1454.1 1346.62 1454.1 M1346.62 1450.39 Q1352.43 1450.39 1355.48 1455 Q1358.56 1459.58 1358.56 1468.33 Q1358.56 1477.06 1355.48 1481.67 Q1352.43 1486.25 1346.62 1486.25 Q1340.81 1486.25 1337.73 1481.67 Q1334.67 1477.06 1334.67 1468.33 Q1334.67 1459.58 1337.73 1455 Q1340.81 1450.39 1346.62 1450.39 Z" fill="#000000" fill-rule="nonzero" fill-opacity="1" /><path clip-path="url(#clip050)" d="M1376.78 1454.1 Q1373.17 1454.1 1371.34 1457.66 Q1369.53 1461.2 1369.53 1468.33 Q1369.53 1475.44 1371.34 1479.01 Q1373.17 1482.55 1376.78 1482.55 Q1380.41 1482.55 1382.22 1479.01 Q1384.05 1475.44 1384.05 1468.33 Q1384.05 1461.2 1382.22 1457.66 Q1380.41 1454.1 1376.78 1454.1 M1376.78 1450.39 Q1382.59 1450.39 1385.64 1455 Q1388.72 1459.58 1388.72 1468.33 Q1388.72 1477.06 1385.64 1481.67 Q1382.59 1486.25 1376.78 1486.25 Q1370.97 1486.25 1367.89 1481.67 Q1364.83 1477.06 1364.83 1468.33 Q1364.83 1459.58 1367.89 1455 Q1370.97 1450.39 1376.78 1450.39 Z" fill="#000000" fill-rule="nonzero" fill-opacity="1" /><path clip-path="url(#clip050)" d="M1698.18 1455.09 L1686.37 1473.54 L1698.18 1473.54 L1698.18 1455.09 M1696.95 1451.02 L1702.83 1451.02 L1702.83 1473.54 L1707.76 1473.54 L1707.76 1477.43 L1702.83 1477.43 L1702.83 1485.58 L1698.18 1485.58 L1698.18 1477.43 L1682.58 1477.43 L1682.58 1472.92 L1696.95 1451.02 Z" fill="#000000" fill-rule="nonzero" fill-opacity="1" /><path clip-path="url(#clip050)" d="M1725.49 1454.1 Q1721.88 1454.1 1720.05 1457.66 Q1718.25 1461.2 1718.25 1468.33 Q1718.25 1475.44 1720.05 1479.01 Q1721.88 1482.55 1725.49 1482.55 Q1729.13 1482.55 1730.93 1479.01 Q1732.76 1475.44 1732.76 1468.33 Q1732.76 1461.2 1730.93 1457.66 Q1729.13 1454.1 1725.49 1454.1 M1725.49 1450.39 Q1731.3 1450.39 1734.36 1455 Q1737.44 1459.58 1737.44 1468.33 Q1737.44 1477.06 1734.36 1481.67 Q1731.3 1486.25 1725.49 1486.25 Q1719.68 1486.25 1716.6 1481.67 Q1713.55 1477.06 1713.55 1468.33 Q1713.55 1459.58 1716.6 1455 Q1719.68 1450.39 1725.49 1450.39 Z" fill="#000000" fill-rule="nonzero" fill-opacity="1" /><path clip-path="url(#clip050)" d="M1755.66 1454.1 Q1752.04 1454.1 1750.22 1457.66 Q1748.41 1461.2 1748.41 1468.33 Q1748.41 1475.44 1750.22 1479.01 Q1752.04 1482.55 1755.66 1482.55 Q1759.29 1482.55 1761.1 1479.01 Q1762.92 1475.44 1762.92 1468.33 Q1762.92 1461.2 1761.1 1457.66 Q1759.29 1454.1 1755.66 1454.1 M1755.66 1450.39 Q1761.47 1450.39 1764.52 1455 Q1767.6 1459.58 1767.6 1468.33 Q1767.6 1477.06 1764.52 1481.67 Q1761.47 1486.25 1755.66 1486.25 Q1749.85 1486.25 1746.77 1481.67 Q1743.71 1477.06 1743.71 1468.33 Q1743.71 1459.58 1746.77 1455 Q1749.85 1450.39 1755.66 1450.39 Z" fill="#000000" fill-rule="nonzero" fill-opacity="1" /><path clip-path="url(#clip050)" d="M1785.82 1454.1 Q1782.21 1454.1 1780.38 1457.66 Q1778.57 1461.2 1778.57 1468.33 Q1778.57 1475.44 1780.38 1479.01 Q1782.21 1482.55 1785.82 1482.55 Q1789.45 1482.55 1791.26 1479.01 Q1793.09 1475.44 1793.09 1468.33 Q1793.09 1461.2 1791.26 1457.66 Q1789.45 1454.1 1785.82 1454.1 M1785.82 1450.39 Q1791.63 1450.39 1794.68 1455 Q1797.76 1459.58 1797.76 1468.33 Q1797.76 1477.06 1794.68 1481.67 Q1791.63 1486.25 1785.82 1486.25 Q1780.01 1486.25 1776.93 1481.67 Q1773.87 1477.06 1773.87 1468.33 Q1773.87 1459.58 1776.93 1455 Q1780.01 1450.39 1785.82 1450.39 Z" fill="#000000" fill-rule="nonzero" fill-opacity="1" /><path clip-path="url(#clip050)" d="M2093.1 1451.02 L2111.45 1451.02 L2111.45 1454.96 L2097.38 1454.96 L2097.38 1463.43 Q2098.4 1463.08 2099.42 1462.92 Q2100.44 1462.73 2101.45 1462.73 Q2107.24 1462.73 2110.62 1465.9 Q2114 1469.08 2114 1474.49 Q2114 1480.07 2110.53 1483.17 Q2107.06 1486.25 2100.74 1486.25 Q2098.56 1486.25 2096.29 1485.88 Q2094.05 1485.51 2091.64 1484.77 L2091.64 1480.07 Q2093.72 1481.2 2095.94 1481.76 Q2098.17 1482.32 2100.64 1482.32 Q2104.65 1482.32 2106.99 1480.21 Q2109.32 1478.1 2109.32 1474.49 Q2109.32 1470.88 2106.99 1468.77 Q2104.65 1466.67 2100.64 1466.67 Q2098.77 1466.67 2096.89 1467.08 Q2095.04 1467.5 2093.1 1468.38 L2093.1 1451.02 Z" fill="#000000" fill-rule="nonzero" fill-opacity="1" /><path clip-path="url(#clip050)" d="M2133.21 1454.1 Q2129.6 1454.1 2127.77 1457.66 Q2125.97 1461.2 2125.97 1468.33 Q2125.97 1475.44 2127.77 1479.01 Q2129.6 1482.55 2133.21 1482.55 Q2136.85 1482.55 2138.65 1479.01 Q2140.48 1475.44 2140.48 1468.33 Q2140.48 1461.2 2138.65 1457.66 Q2136.85 1454.1 2133.21 1454.1 M2133.21 1450.39 Q2139.02 1450.39 2142.08 1455 Q2145.16 1459.58 2145.16 1468.33 Q2145.16 1477.06 2142.08 1481.67 Q2139.02 1486.25 2133.21 1486.25 Q2127.4 1486.25 2124.32 1481.67 Q2121.27 1477.06 2121.27 1468.33 Q2121.27 1459.58 2124.32 1455 Q2127.4 1450.39 2133.21 1450.39 Z" fill="#000000" fill-rule="nonzero" fill-opacity="1" /><path clip-path="url(#clip050)" d="M2163.38 1454.1 Q2159.76 1454.1 2157.94 1457.66 Q2156.13 1461.2 2156.13 1468.33 Q2156.13 1475.44 2157.94 1479.01 Q2159.76 1482.55 2163.38 1482.55 Q2167.01 1482.55 2168.81 1479.01 Q2170.64 1475.44 2170.64 1468.33 Q2170.64 1461.2 2168.81 1457.66 Q2167.01 1454.1 2163.38 1454.1 M2163.38 1450.39 Q2169.19 1450.39 2172.24 1455 Q2175.32 1459.58 2175.32 1468.33 Q2175.32 1477.06 2172.24 1481.67 Q2169.19 1486.25 2163.38 1486.25 Q2157.56 1486.25 2154.49 1481.67 Q2151.43 1477.06 2151.43 1468.33 Q2151.43 1459.58 2154.49 1455 Q2157.56 1450.39 2163.38 1450.39 Z" fill="#000000" fill-rule="nonzero" fill-opacity="1" /><path clip-path="url(#clip050)" d="M2193.54 1454.1 Q2189.93 1454.1 2188.1 1457.66 Q2186.29 1461.2 2186.29 1468.33 Q2186.29 1475.44 2188.1 1479.01 Q2189.93 1482.55 2193.54 1482.55 Q2197.17 1482.55 2198.98 1479.01 Q2200.81 1475.44 2200.81 1468.33 Q2200.81 1461.2 2198.98 1457.66 Q2197.17 1454.1 2193.54 1454.1 M2193.54 1450.39 Q2199.35 1450.39 2202.4 1455 Q2205.48 1459.58 2205.48 1468.33 Q2205.48 1477.06 2202.4 1481.67 Q2199.35 1486.25 2193.54 1486.25 Q2187.73 1486.25 2184.65 1481.67 Q2181.59 1477.06 2181.59 1468.33 Q2181.59 1459.58 2184.65 1455 Q2187.73 1450.39 2193.54 1450.39 Z" fill="#000000" fill-rule="nonzero" fill-opacity="1" /><path clip-path="url(#clip050)" d="M1264.96 1526.86 L1256.24 1550.51 L1273.71 1550.51 L1264.96 1526.86 M1261.33 1520.52 L1268.62 1520.52 L1286.73 1568.04 L1280.05 1568.04 L1275.72 1555.85 L1254.3 1555.85 L1249.97 1568.04 L1243.19 1568.04 L1261.33 1520.52 Z" fill="#000000" fill-rule="nonzero" fill-opacity="1" /><path clip-path="url(#clip050)" d="M1282.02 1520.52 L1322.22 1520.52 L1322.22 1525.93 L1305.35 1525.93 L1305.35 1568.04 L1298.89 1568.04 L1298.89 1525.93 L1282.02 1525.93 L1282.02 1520.52 Z" fill="#000000" fill-rule="nonzero" fill-opacity="1" /><path clip-path="url(#clip050)" d="M1334.86 1525.81 L1334.86 1543.66 L1342.94 1543.66 Q1347.43 1543.66 1349.88 1541.34 Q1352.33 1539.02 1352.33 1534.72 Q1352.33 1530.45 1349.88 1528.13 Q1347.43 1525.81 1342.94 1525.81 L1334.86 1525.81 M1328.43 1520.52 L1342.94 1520.52 Q1350.93 1520.52 1355 1524.15 Q1359.11 1527.75 1359.11 1534.72 Q1359.11 1541.75 1355 1545.35 Q1350.93 1548.95 1342.94 1548.95 L1334.86 1548.95 L1334.86 1568.04 L1328.43 1568.04 L1328.43 1520.52 Z" fill="#000000" fill-rule="nonzero" fill-opacity="1" /><polyline clip-path="url(#clip052)" style="stroke:#000000; stroke-linecap:round; stroke-linejoin:round; stroke-width:2; stroke-opacity:0.1; fill:none" points="249.542,1423.18 2352.76,1423.18 "/>
<polyline clip-path="url(#clip052)" style="stroke:#000000; stroke-linecap:round; stroke-linejoin:round; stroke-width:2; stroke-opacity:0.1; fill:none" points="249.542,1098.25 2352.76,1098.25 "/>
<polyline clip-path="url(#clip052)" style="stroke:#000000; stroke-linecap:round; stroke-linejoin:round; stroke-width:2; stroke-opacity:0.1; fill:none" points="249.542,773.326 2352.76,773.326 "/>
<polyline clip-path="url(#clip052)" style="stroke:#000000; stroke-linecap:round; stroke-linejoin:round; stroke-width:2; stroke-opacity:0.1; fill:none" points="249.542,448.399 2352.76,448.399 "/>
<polyline clip-path="url(#clip050)" style="stroke:#000000; stroke-linecap:round; stroke-linejoin:round; stroke-width:4; stroke-opacity:1; fill:none" points="249.542,1423.18 249.542,123.472 "/>
<polyline clip-path="url(#clip050)" style="stroke:#000000; stroke-linecap:round; stroke-linejoin:round; stroke-width:4; stroke-opacity:1; fill:none" points="249.542,1423.18 268.44,1423.18 "/>
<polyline clip-path="url(#clip050)" style="stroke:#000000; stroke-linecap:round; stroke-linejoin:round; stroke-width:4; stroke-opacity:1; fill:none" points="249.542,1098.25 268.44,1098.25 "/>
<polyline clip-path="url(#clip050)" style="stroke:#000000; stroke-linecap:round; stroke-linejoin:round; stroke-width:4; stroke-opacity:1; fill:none" points="249.542,773.326 268.44,773.326 "/>
<polyline clip-path="url(#clip050)" style="stroke:#000000; stroke-linecap:round; stroke-linejoin:round; stroke-width:4; stroke-opacity:1; fill:none" points="249.542,448.399 268.44,448.399 "/>
<path clip-path="url(#clip050)" d="M126.205 1408.98 Q122.593 1408.98 120.765 1412.54 Q118.959 1416.08 118.959 1423.21 Q118.959 1430.32 120.765 1433.89 Q122.593 1437.43 126.205 1437.43 Q129.839 1437.43 131.644 1433.89 Q133.473 1430.32 133.473 1423.21 Q133.473 1416.08 131.644 1412.54 Q129.839 1408.98 126.205 1408.98 M126.205 1405.27 Q132.015 1405.27 135.07 1409.88 Q138.149 1414.46 138.149 1423.21 Q138.149 1431.94 135.07 1436.55 Q132.015 1441.13 126.205 1441.13 Q120.394 1441.13 117.316 1436.55 Q114.26 1431.94 114.26 1423.21 Q114.26 1414.46 117.316 1409.88 Q120.394 1405.27 126.205 1405.27 Z" fill="#000000" fill-rule="nonzero" fill-opacity="1" /><path clip-path="url(#clip050)" d="M146.366 1434.58 L151.251 1434.58 L151.251 1440.46 L146.366 1440.46 L146.366 1434.58 Z" fill="#000000" fill-rule="nonzero" fill-opacity="1" /><path clip-path="url(#clip050)" d="M171.436 1408.98 Q167.825 1408.98 165.996 1412.54 Q164.19 1416.08 164.19 1423.21 Q164.19 1430.32 165.996 1433.89 Q167.825 1437.43 171.436 1437.43 Q175.07 1437.43 176.876 1433.89 Q178.704 1430.32 178.704 1423.21 Q178.704 1416.08 176.876 1412.54 Q175.07 1408.98 171.436 1408.98 M171.436 1405.27 Q177.246 1405.27 180.301 1409.88 Q183.38 1414.46 183.38 1423.21 Q183.38 1431.94 180.301 1436.55 Q177.246 1441.13 171.436 1441.13 Q165.626 1441.13 162.547 1436.55 Q159.491 1431.94 159.491 1423.21 Q159.491 1414.46 162.547 1409.88 Q165.626 1405.27 171.436 1405.27 Z" fill="#000000" fill-rule="nonzero" fill-opacity="1" /><path clip-path="url(#clip050)" d="M201.598 1408.98 Q197.987 1408.98 196.158 1412.54 Q194.352 1416.08 194.352 1423.21 Q194.352 1430.32 196.158 1433.89 Q197.987 1437.43 201.598 1437.43 Q205.232 1437.43 207.037 1433.89 Q208.866 1430.32 208.866 1423.21 Q208.866 1416.08 207.037 1412.54 Q205.232 1408.98 201.598 1408.98 M201.598 1405.27 Q207.408 1405.27 210.463 1409.88 Q213.542 1414.46 213.542 1423.21 Q213.542 1431.94 210.463 1436.55 Q207.408 1441.13 201.598 1441.13 Q195.787 1441.13 192.709 1436.55 Q189.653 1431.94 189.653 1423.21 Q189.653 1414.46 192.709 1409.88 Q195.787 1405.27 201.598 1405.27 Z" fill="#000000" fill-rule="nonzero" fill-opacity="1" /><path clip-path="url(#clip050)" d="M127.2 1084.05 Q123.589 1084.05 121.76 1087.62 Q119.955 1091.16 119.955 1098.29 Q119.955 1105.39 121.76 1108.96 Q123.589 1112.5 127.2 1112.5 Q130.834 1112.5 132.64 1108.96 Q134.468 1105.39 134.468 1098.29 Q134.468 1091.16 132.64 1087.62 Q130.834 1084.05 127.2 1084.05 M127.2 1080.35 Q133.01 1080.35 136.066 1084.95 Q139.144 1089.54 139.144 1098.29 Q139.144 1107.01 136.066 1111.62 Q133.01 1116.2 127.2 1116.2 Q121.39 1116.2 118.311 1111.62 Q115.256 1107.01 115.256 1098.29 Q115.256 1089.54 118.311 1084.95 Q121.39 1080.35 127.2 1080.35 Z" fill="#000000" fill-rule="nonzero" fill-opacity="1" /><path clip-path="url(#clip050)" d="M147.362 1109.65 L152.246 1109.65 L152.246 1115.53 L147.362 1115.53 L147.362 1109.65 Z" fill="#000000" fill-rule="nonzero" fill-opacity="1" /><path clip-path="url(#clip050)" d="M172.431 1084.05 Q168.82 1084.05 166.991 1087.62 Q165.186 1091.16 165.186 1098.29 Q165.186 1105.39 166.991 1108.96 Q168.82 1112.5 172.431 1112.5 Q176.065 1112.5 177.871 1108.96 Q179.7 1105.39 179.7 1098.29 Q179.7 1091.16 177.871 1087.62 Q176.065 1084.05 172.431 1084.05 M172.431 1080.35 Q178.241 1080.35 181.297 1084.95 Q184.376 1089.54 184.376 1098.29 Q184.376 1107.01 181.297 1111.62 Q178.241 1116.2 172.431 1116.2 Q166.621 1116.2 163.542 1111.62 Q160.487 1107.01 160.487 1098.29 Q160.487 1089.54 163.542 1084.95 Q166.621 1080.35 172.431 1080.35 Z" fill="#000000" fill-rule="nonzero" fill-opacity="1" /><path clip-path="url(#clip050)" d="M192.639 1080.97 L210.996 1080.97 L210.996 1084.91 L196.922 1084.91 L196.922 1093.38 Q197.94 1093.03 198.959 1092.87 Q199.977 1092.69 200.996 1092.69 Q206.783 1092.69 210.162 1095.86 Q213.542 1099.03 213.542 1104.45 Q213.542 1110.02 210.07 1113.13 Q206.598 1116.2 200.278 1116.2 Q198.102 1116.2 195.834 1115.83 Q193.588 1115.46 191.181 1114.72 L191.181 1110.02 Q193.264 1111.16 195.487 1111.71 Q197.709 1112.27 200.186 1112.27 Q204.19 1112.27 206.528 1110.16 Q208.866 1108.06 208.866 1104.45 Q208.866 1100.83 206.528 1098.73 Q204.19 1096.62 200.186 1096.62 Q198.311 1096.62 196.436 1097.04 Q194.584 1097.45 192.639 1098.33 L192.639 1080.97 Z" fill="#000000" fill-rule="nonzero" fill-opacity="1" /><path clip-path="url(#clip050)" d="M126.205 759.125 Q122.593 759.125 120.765 762.689 Q118.959 766.231 118.959 773.361 Q118.959 780.467 120.765 784.032 Q122.593 787.574 126.205 787.574 Q129.839 787.574 131.644 784.032 Q133.473 780.467 133.473 773.361 Q133.473 766.231 131.644 762.689 Q129.839 759.125 126.205 759.125 M126.205 755.421 Q132.015 755.421 135.07 760.027 Q138.149 764.611 138.149 773.361 Q138.149 782.088 135.07 786.694 Q132.015 791.277 126.205 791.277 Q120.394 791.277 117.316 786.694 Q114.26 782.088 114.26 773.361 Q114.26 764.611 117.316 760.027 Q120.394 755.421 126.205 755.421 Z" fill="#000000" fill-rule="nonzero" fill-opacity="1" /><path clip-path="url(#clip050)" d="M146.366 784.726 L151.251 784.726 L151.251 790.606 L146.366 790.606 L146.366 784.726 Z" fill="#000000" fill-rule="nonzero" fill-opacity="1" /><path clip-path="url(#clip050)" d="M162.246 786.671 L169.885 786.671 L169.885 760.305 L161.575 761.972 L161.575 757.713 L169.839 756.046 L174.514 756.046 L174.514 786.671 L182.153 786.671 L182.153 790.606 L162.246 790.606 L162.246 786.671 Z" fill="#000000" fill-rule="nonzero" fill-opacity="1" /><path clip-path="url(#clip050)" d="M201.598 759.125 Q197.987 759.125 196.158 762.689 Q194.352 766.231 194.352 773.361 Q194.352 780.467 196.158 784.032 Q197.987 787.574 201.598 787.574 Q205.232 787.574 207.037 784.032 Q208.866 780.467 208.866 773.361 Q208.866 766.231 207.037 762.689 Q205.232 759.125 201.598 759.125 M201.598 755.421 Q207.408 755.421 210.463 760.027 Q213.542 764.611 213.542 773.361 Q213.542 782.088 210.463 786.694 Q207.408 791.277 201.598 791.277 Q195.787 791.277 192.709 786.694 Q189.653 782.088 189.653 773.361 Q189.653 764.611 192.709 760.027 Q195.787 755.421 201.598 755.421 Z" fill="#000000" fill-rule="nonzero" fill-opacity="1" /><path clip-path="url(#clip050)" d="M127.2 434.198 Q123.589 434.198 121.76 437.763 Q119.955 441.304 119.955 448.434 Q119.955 455.54 121.76 459.105 Q123.589 462.647 127.2 462.647 Q130.834 462.647 132.64 459.105 Q134.468 455.54 134.468 448.434 Q134.468 441.304 132.64 437.763 Q130.834 434.198 127.2 434.198 M127.2 430.494 Q133.01 430.494 136.066 435.101 Q139.144 439.684 139.144 448.434 Q139.144 457.161 136.066 461.767 Q133.01 466.35 127.2 466.35 Q121.39 466.35 118.311 461.767 Q115.256 457.161 115.256 448.434 Q115.256 439.684 118.311 435.101 Q121.39 430.494 127.2 430.494 Z" fill="#000000" fill-rule="nonzero" fill-opacity="1" /><path clip-path="url(#clip050)" d="M147.362 459.799 L152.246 459.799 L152.246 465.679 L147.362 465.679 L147.362 459.799 Z" fill="#000000" fill-rule="nonzero" fill-opacity="1" /><path clip-path="url(#clip050)" d="M163.241 461.744 L170.88 461.744 L170.88 435.378 L162.57 437.045 L162.57 432.786 L170.834 431.119 L175.51 431.119 L175.51 461.744 L183.149 461.744 L183.149 465.679 L163.241 465.679 L163.241 461.744 Z" fill="#000000" fill-rule="nonzero" fill-opacity="1" /><path clip-path="url(#clip050)" d="M192.639 431.119 L210.996 431.119 L210.996 435.054 L196.922 435.054 L196.922 443.526 Q197.94 443.179 198.959 443.017 Q199.977 442.832 200.996 442.832 Q206.783 442.832 210.162 446.003 Q213.542 449.175 213.542 454.591 Q213.542 460.17 210.07 463.272 Q206.598 466.35 200.278 466.35 Q198.102 466.35 195.834 465.98 Q193.588 465.61 191.181 464.869 L191.181 460.17 Q193.264 461.304 195.487 461.86 Q197.709 462.415 200.186 462.415 Q204.19 462.415 206.528 460.309 Q208.866 458.202 208.866 454.591 Q208.866 450.98 206.528 448.874 Q204.19 446.767 200.186 446.767 Q198.311 446.767 196.436 447.184 Q194.584 447.6 192.639 448.48 L192.639 431.119 Z" fill="#000000" fill-rule="nonzero" fill-opacity="1" /><path clip-path="url(#clip050)" d="M14.479 816.183 L14.479 810.295 L43.7294 810.295 L28.3562 792.821 L28.3562 785.341 L45.0344 804.247 L64.0042 784.546 L64.0042 792.184 L46.5939 810.295 L64.0042 810.295 L64.0042 816.183 L14.479 816.183 Z" fill="#000000" fill-rule="nonzero" fill-opacity="1" /><path clip-path="url(#clip050)" d="M28.3562 778.212 L28.3562 772.355 L64.0042 772.355 L64.0042 778.212 L28.3562 778.212 M14.479 778.212 L14.479 772.355 L21.895 772.355 L21.895 778.212 L14.479 778.212 Z" fill="#000000" fill-rule="nonzero" fill-opacity="1" /><path clip-path="url(#clip050)" d="M42.4881 730.469 L64.0042 730.469 L64.0042 736.325 L42.679 736.325 Q37.6183 736.325 35.1038 738.299 Q32.5894 740.272 32.5894 744.219 Q32.5894 748.961 35.6131 751.698 Q38.6368 754.436 43.8567 754.436 L64.0042 754.436 L64.0042 760.324 L28.3562 760.324 L28.3562 754.436 L33.8944 754.436 Q30.6797 752.335 29.0883 749.502 Q27.4968 746.638 27.4968 742.914 Q27.4968 736.771 31.3163 733.62 Q35.1038 730.469 42.4881 730.469 Z" fill="#000000" fill-rule="nonzero" fill-opacity="1" /><path clip-path="url(#clip050)" d="M733.01 28.9478 L733.01 35.9153 Q729.85 34.1734 726.65 33.3227 Q723.49 32.4315 720.249 32.4315 Q712.998 32.4315 708.988 37.0496 Q704.977 41.6271 704.977 49.9314 Q704.977 58.2358 708.988 62.8538 Q712.998 67.4314 720.249 67.4314 Q723.49 67.4314 726.65 66.5807 Q729.85 65.6895 733.01 63.9476 L733.01 70.8341 Q729.89 72.2924 726.528 73.0216 Q723.206 73.7508 719.439 73.7508 Q709.19 73.7508 703.154 67.3098 Q697.119 60.8689 697.119 49.9314 Q697.119 38.832 703.195 32.472 Q709.312 26.1121 719.925 26.1121 Q723.369 26.1121 726.65 26.8413 Q729.931 27.5299 733.01 28.9478 Z" fill="#000000" fill-rule="nonzero" fill-opacity="1" /><path clip-path="url(#clip050)" d="M783.686 45.1919 L783.686 72.576 L776.233 72.576 L776.233 45.4349 Q776.233 38.994 773.721 35.7938 Q771.21 32.5936 766.187 32.5936 Q760.151 32.5936 756.667 36.4419 Q753.183 40.2903 753.183 46.9338 L753.183 72.576 L745.689 72.576 L745.689 9.54393 L753.183 9.54393 L753.183 34.2544 Q755.857 30.163 759.462 28.1376 Q763.108 26.1121 767.847 26.1121 Q775.666 26.1121 779.676 30.9732 Q783.686 35.7938 783.686 45.1919 Z" fill="#000000" fill-rule="nonzero" fill-opacity="1" /><path clip-path="url(#clip050)" d="M819.172 49.7694 Q810.139 49.7694 806.655 51.8354 Q803.171 53.9013 803.171 58.8839 Q803.171 62.8538 805.764 65.2034 Q808.397 67.5124 812.893 67.5124 Q819.091 67.5124 822.818 63.1374 Q826.586 58.7219 826.586 51.4303 L826.586 49.7694 L819.172 49.7694 M834.039 46.6907 L834.039 72.576 L826.586 72.576 L826.586 65.6895 Q824.033 69.8214 820.226 71.8063 Q816.418 73.7508 810.909 73.7508 Q803.941 73.7508 799.809 69.8619 Q795.718 65.9325 795.718 59.3701 Q795.718 51.7138 800.822 47.825 Q805.966 43.9361 816.134 43.9361 L826.586 43.9361 L826.586 43.2069 Q826.586 38.0623 823.183 35.2672 Q819.821 32.4315 813.704 32.4315 Q809.815 32.4315 806.128 33.3632 Q802.442 34.295 799.039 36.1584 L799.039 29.2718 Q803.131 27.692 806.979 26.9223 Q810.828 26.1121 814.473 26.1121 Q824.317 26.1121 829.178 31.2163 Q834.039 36.3204 834.039 46.6907 Z" fill="#000000" fill-rule="nonzero" fill-opacity="1" /><path clip-path="url(#clip050)" d="M887.106 45.1919 L887.106 72.576 L879.652 72.576 L879.652 45.4349 Q879.652 38.994 877.141 35.7938 Q874.629 32.5936 869.606 32.5936 Q863.57 32.5936 860.087 36.4419 Q856.603 40.2903 856.603 46.9338 L856.603 72.576 L849.109 72.576 L849.109 27.2059 L856.603 27.2059 L856.603 34.2544 Q859.276 30.163 862.882 28.1376 Q866.527 26.1121 871.267 26.1121 Q879.085 26.1121 883.096 30.9732 Q887.106 35.7938 887.106 45.1919 Z" fill="#000000" fill-rule="nonzero" fill-opacity="1" /><path clip-path="url(#clip050)" d="M931.828 49.3643 Q931.828 41.2625 928.466 36.8065 Q925.144 32.3505 919.108 32.3505 Q913.113 32.3505 909.751 36.8065 Q906.429 41.2625 906.429 49.3643 Q906.429 57.4256 909.751 61.8816 Q913.113 66.3376 919.108 66.3376 Q925.144 66.3376 928.466 61.8816 Q931.828 57.4256 931.828 49.3643 M939.282 66.9452 Q939.282 78.5308 934.137 84.1616 Q928.992 89.8329 918.379 89.8329 Q914.45 89.8329 910.966 89.2252 Q907.482 88.6581 904.201 87.4428 L904.201 80.1917 Q907.482 81.9741 910.682 82.8248 Q913.883 83.6755 917.204 83.6755 Q924.536 83.6755 928.182 79.8271 Q931.828 76.0193 931.828 68.282 L931.828 64.5957 Q929.519 68.6061 925.914 70.5911 Q922.308 72.576 917.285 72.576 Q908.94 72.576 903.836 66.2161 Q898.732 59.8562 898.732 49.3643 Q898.732 38.832 903.836 32.472 Q908.94 26.1121 917.285 26.1121 Q922.308 26.1121 925.914 28.0971 Q929.519 30.082 931.828 34.0924 L931.828 27.2059 L939.282 27.2059 L939.282 66.9452 Z" fill="#000000" fill-rule="nonzero" fill-opacity="1" /><path clip-path="url(#clip050)" d="M954.635 27.2059 L962.088 27.2059 L962.088 72.576 L954.635 72.576 L954.635 27.2059 M954.635 9.54393 L962.088 9.54393 L962.088 18.9825 L954.635 18.9825 L954.635 9.54393 Z" fill="#000000" fill-rule="nonzero" fill-opacity="1" /><path clip-path="url(#clip050)" d="M1015.4 45.1919 L1015.4 72.576 L1007.94 72.576 L1007.94 45.4349 Q1007.94 38.994 1005.43 35.7938 Q1002.92 32.5936 997.898 32.5936 Q991.862 32.5936 988.379 36.4419 Q984.895 40.2903 984.895 46.9338 L984.895 72.576 L977.401 72.576 L977.401 27.2059 L984.895 27.2059 L984.895 34.2544 Q987.568 30.163 991.174 28.1376 Q994.82 26.1121 999.559 26.1121 Q1007.38 26.1121 1011.39 30.9732 Q1015.4 35.7938 1015.4 45.1919 Z" fill="#000000" fill-rule="nonzero" fill-opacity="1" /><path clip-path="url(#clip050)" d="M1060.12 49.3643 Q1060.12 41.2625 1056.76 36.8065 Q1053.44 32.3505 1047.4 32.3505 Q1041.4 32.3505 1038.04 36.8065 Q1034.72 41.2625 1034.72 49.3643 Q1034.72 57.4256 1038.04 61.8816 Q1041.4 66.3376 1047.4 66.3376 Q1053.44 66.3376 1056.76 61.8816 Q1060.12 57.4256 1060.12 49.3643 M1067.57 66.9452 Q1067.57 78.5308 1062.43 84.1616 Q1057.28 89.8329 1046.67 89.8329 Q1042.74 89.8329 1039.26 89.2252 Q1035.77 88.6581 1032.49 87.4428 L1032.49 80.1917 Q1035.77 81.9741 1038.97 82.8248 Q1042.17 83.6755 1045.5 83.6755 Q1052.83 83.6755 1056.47 79.8271 Q1060.12 76.0193 1060.12 68.282 L1060.12 64.5957 Q1057.81 68.6061 1054.21 70.5911 Q1050.6 72.576 1045.58 72.576 Q1037.23 72.576 1032.13 66.2161 Q1027.02 59.8562 1027.02 49.3643 Q1027.02 38.832 1032.13 32.472 Q1037.23 26.1121 1045.58 26.1121 Q1050.6 26.1121 1054.21 28.0971 Q1057.81 30.082 1060.12 34.0924 L1060.12 27.2059 L1067.57 27.2059 L1067.57 66.9452 Z" fill="#000000" fill-rule="nonzero" fill-opacity="1" /><path clip-path="url(#clip050)" d="M1123.76 73.7508 Q1106.95 73.7508 1106.95 49.6884 Q1106.95 40.1688 1113.23 27.2059 L1121.25 27.2059 Q1115.46 40.1688 1115.46 49.8909 Q1115.46 67.4314 1124.45 67.4314 Q1132.67 67.4314 1132.67 45.6375 L1139.56 45.6375 Q1139.56 67.4314 1147.78 67.4314 Q1156.77 67.4314 1156.77 49.8909 Q1156.77 40.1688 1150.98 27.2059 L1159 27.2059 Q1165.28 40.1688 1165.28 49.6884 Q1165.28 73.7508 1148.47 73.7508 Q1137.45 73.7508 1136.12 61.6386 Q1134.45 73.7508 1123.76 73.7508 Z" fill="#000000" fill-rule="nonzero" fill-opacity="1" /><path clip-path="url(#clip050)" d="M1213.24 86.3491 L1213.24 92.1419 L1170.14 92.1419 L1170.14 86.3491 L1213.24 86.3491 Z" fill="#000000" fill-rule="nonzero" fill-opacity="1" /><path clip-path="url(#clip050)" d="M1246.54 34.1734 Q1245.29 33.4443 1243.79 33.1202 Q1242.33 32.7556 1240.55 32.7556 Q1234.23 32.7556 1230.83 36.8875 Q1227.46 40.9789 1227.46 48.6757 L1227.46 72.576 L1219.97 72.576 L1219.97 27.2059 L1227.46 27.2059 L1227.46 34.2544 Q1229.81 30.1225 1233.58 28.1376 Q1237.35 26.1121 1242.73 26.1121 Q1243.5 26.1121 1244.44 26.2337 Q1245.37 26.3147 1246.5 26.5172 L1246.54 34.1734 Z" fill="#000000" fill-rule="nonzero" fill-opacity="1" /><path clip-path="url(#clip050)" d="M1276.4 27.2059 L1283.85 27.2059 L1293.17 62.6108 L1302.45 27.2059 L1311.24 27.2059 L1320.55 62.6108 L1329.83 27.2059 L1337.28 27.2059 L1325.41 72.576 L1316.62 72.576 L1306.86 35.3887 L1297.06 72.576 L1288.27 72.576 L1276.4 27.2059 Z" fill="#000000" fill-rule="nonzero" fill-opacity="1" /><path clip-path="url(#clip050)" d="M1386.3 45.1919 L1386.3 72.576 L1378.85 72.576 L1378.85 45.4349 Q1378.85 38.994 1376.33 35.7938 Q1373.82 32.5936 1368.8 32.5936 Q1362.76 32.5936 1359.28 36.4419 Q1355.8 40.2903 1355.8 46.9338 L1355.8 72.576 L1348.3 72.576 L1348.3 9.54393 L1355.8 9.54393 L1355.8 34.2544 Q1358.47 30.163 1362.07 28.1376 Q1365.72 26.1121 1370.46 26.1121 Q1378.28 26.1121 1382.29 30.9732 Q1386.3 35.7938 1386.3 45.1919 Z" fill="#000000" fill-rule="nonzero" fill-opacity="1" /><path clip-path="url(#clip050)" d="M1439.97 48.0275 L1439.97 51.6733 L1405.7 51.6733 Q1406.19 59.3701 1410.32 63.421 Q1414.49 67.4314 1421.91 67.4314 Q1426.2 67.4314 1430.21 66.3781 Q1434.26 65.3249 1438.23 63.2184 L1438.23 70.267 Q1434.22 71.9684 1430.01 72.8596 Q1425.8 73.7508 1421.46 73.7508 Q1410.6 73.7508 1404.24 67.4314 Q1397.93 61.1119 1397.93 50.3365 Q1397.93 39.1965 1403.92 32.6746 Q1409.96 26.1121 1420.16 26.1121 Q1429.32 26.1121 1434.63 32.0264 Q1439.97 37.9003 1439.97 48.0275 M1432.52 45.84 Q1432.44 39.7232 1429.08 36.0774 Q1425.75 32.4315 1420.25 32.4315 Q1414.01 32.4315 1410.24 35.9558 Q1406.51 39.4801 1405.95 45.8805 L1432.52 45.84 Z" fill="#000000" fill-rule="nonzero" fill-opacity="1" /><path clip-path="url(#clip050)" d="M1489.92 45.1919 L1489.92 72.576 L1482.47 72.576 L1482.47 45.4349 Q1482.47 38.994 1479.96 35.7938 Q1477.44 32.5936 1472.42 32.5936 Q1466.39 32.5936 1462.9 36.4419 Q1459.42 40.2903 1459.42 46.9338 L1459.42 72.576 L1451.92 72.576 L1451.92 27.2059 L1459.42 27.2059 L1459.42 34.2544 Q1462.09 30.163 1465.7 28.1376 Q1469.34 26.1121 1474.08 26.1121 Q1481.9 26.1121 1485.91 30.9732 Q1489.92 35.7938 1489.92 45.1919 Z" fill="#000000" fill-rule="nonzero" fill-opacity="1" /><path clip-path="url(#clip050)" d="M1545.62 73.7508 Q1528.81 73.7508 1528.81 49.6884 Q1528.81 40.1688 1535.09 27.2059 L1543.11 27.2059 Q1537.32 40.1688 1537.32 49.8909 Q1537.32 67.4314 1546.31 67.4314 Q1554.53 67.4314 1554.53 45.6375 L1561.42 45.6375 Q1561.42 67.4314 1569.64 67.4314 Q1578.64 67.4314 1578.64 49.8909 Q1578.64 40.1688 1572.84 27.2059 L1580.86 27.2059 Q1587.14 40.1688 1587.14 49.6884 Q1587.14 73.7508 1570.33 73.7508 Q1559.31 73.7508 1557.98 61.6386 Q1556.32 73.7508 1545.62 73.7508 Z" fill="#000000" fill-rule="nonzero" fill-opacity="1" /><path clip-path="url(#clip050)" d="M1635.11 86.3491 L1635.11 92.1419 L1592 92.1419 L1592 86.3491 L1635.11 86.3491 Z" fill="#000000" fill-rule="nonzero" fill-opacity="1" /><path clip-path="url(#clip050)" d="M1662.73 49.7694 Q1653.7 49.7694 1650.22 51.8354 Q1646.73 53.9013 1646.73 58.8839 Q1646.73 62.8538 1649.32 65.2034 Q1651.96 67.5124 1656.45 67.5124 Q1662.65 67.5124 1666.38 63.1374 Q1670.15 58.7219 1670.15 51.4303 L1670.15 49.7694 L1662.73 49.7694 M1677.6 46.6907 L1677.6 72.576 L1670.15 72.576 L1670.15 65.6895 Q1667.59 69.8214 1663.79 71.8063 Q1659.98 73.7508 1654.47 73.7508 Q1647.5 73.7508 1643.37 69.8619 Q1639.28 65.9325 1639.28 59.3701 Q1639.28 51.7138 1644.38 47.825 Q1649.53 43.9361 1659.69 43.9361 L1670.15 43.9361 L1670.15 43.2069 Q1670.15 38.0623 1666.74 35.2672 Q1663.38 32.4315 1657.26 32.4315 Q1653.38 32.4315 1649.69 33.3632 Q1646 34.295 1642.6 36.1584 L1642.6 29.2718 Q1646.69 27.692 1650.54 26.9223 Q1654.39 26.1121 1658.03 26.1121 Q1667.88 26.1121 1672.74 31.2163 Q1677.6 36.3204 1677.6 46.6907 Z" fill="#000000" fill-rule="nonzero" fill-opacity="1" /><path clip-path="url(#clip050)" d="M1725.52 49.9314 Q1725.52 41.7081 1722.12 37.0496 Q1718.76 32.3505 1712.84 32.3505 Q1706.93 32.3505 1703.53 37.0496 Q1700.16 41.7081 1700.16 49.9314 Q1700.16 58.1548 1703.53 62.8538 Q1706.93 67.5124 1712.84 67.5124 Q1718.76 67.5124 1722.12 62.8538 Q1725.52 58.1548 1725.52 49.9314 M1700.16 34.0924 Q1702.51 30.0415 1706.08 28.0971 Q1709.68 26.1121 1714.67 26.1121 Q1722.93 26.1121 1728.07 32.6746 Q1733.26 39.2371 1733.26 49.9314 Q1733.26 60.6258 1728.07 67.1883 Q1722.93 73.7508 1714.67 73.7508 Q1709.68 73.7508 1706.08 71.8063 Q1702.51 69.8214 1700.16 65.7705 L1700.16 72.576 L1692.67 72.576 L1692.67 9.54393 L1700.16 9.54393 L1700.16 34.0924 Z" fill="#000000" fill-rule="nonzero" fill-opacity="1" /><path clip-path="url(#clip050)" d="M1772.96 34.9026 L1824.89 34.9026 L1824.89 41.7081 L1772.96 41.7081 L1772.96 34.9026 M1772.96 51.4303 L1824.89 51.4303 L1824.89 58.3168 L1772.96 58.3168 L1772.96 51.4303 Z" fill="#000000" fill-rule="nonzero" fill-opacity="1" /><path clip-path="url(#clip050)" d="M1870.34 65.6895 L1883.71 65.6895 L1883.71 19.5497 L1869.17 22.4663 L1869.17 15.0127 L1883.63 12.096 L1891.81 12.096 L1891.81 65.6895 L1905.18 65.6895 L1905.18 72.576 L1870.34 72.576 L1870.34 65.6895 Z" fill="#000000" fill-rule="nonzero" fill-opacity="1" /><path clip-path="url(#clip052)" d="M249.542 123.472 L270.787 123.472 L292.031 123.472 L313.276 123.472 L334.52 123.472 L355.765 123.472 L377.01 123.472 L398.254 123.472 L419.499 123.472 L440.743 123.472 L461.988 123.472 L483.232 123.472 L504.477 123.472 L525.722 123.472 L546.966 136.6 L568.211 189.114 L589.455 215.371 L610.7 254.756 L631.945 281.012 L653.189 307.269 L674.434 333.526 L695.678 359.783 L716.923 372.911 L738.167 399.168 L759.412 412.296 L780.657 425.424 L801.901 438.553 L823.146 451.681 L844.39 464.81 L865.635 477.938 L886.88 491.066 L908.124 504.195 L929.369 517.323 L950.613 517.323 L971.858 530.451 L993.102 543.58 L1014.35 543.58 L1035.59 556.708 L1056.84 556.708 L1078.08 569.836 L1099.33 569.836 L1120.57 582.965 L1141.81 582.965 L1163.06 582.965 L1184.3 596.093 L1205.55 596.093 L1226.79 609.221 L1248.04 609.221 L1269.28 609.221 L1290.53 622.35 L1311.77 622.35 L1333.02 622.35 L1354.26 622.35 L1375.51 635.478 L1396.75 635.478 L1417.99 635.478 L1439.24 635.478 L1460.48 648.607 L1481.73 648.607 L1502.97 648.607 L1524.22 648.607 L1545.46 661.735 L1566.71 661.735 L1587.95 661.735 L1609.2 661.735 L1630.44 661.735 L1651.68 674.863 L1672.93 674.863 L1694.17 674.863 L1715.42 674.863 L1736.66 674.863 L1757.91 674.863 L1779.15 674.863 L1800.4 687.992 L1821.64 687.992 L1842.89 687.992 L1864.13 687.992 L1885.38 687.992 L1906.62 687.992 L1927.86 687.992 L1949.11 701.12 L1970.35 701.12 L1991.6 701.12 L2012.84 701.12 L2034.09 701.12 L2055.33 701.12 L2076.58 701.12 L2097.82 701.12 L2119.07 701.12 L2140.31 701.12 L2161.55 714.248 L2182.8 714.248 L2204.04 714.248 L2225.29 714.248 L2246.53 714.248 L2267.78 714.248 L2289.02 714.248 L2310.27 714.248 L2331.51 714.248 L2352.76 714.248 L2352.76 1200 L2331.51 1200 L2310.27 1200 L2289.02 1200 L2267.78 1200 L2246.53 1200 L2225.29 1200 L2204.04 1200 L2182.8 1200 L2161.55 1200 L2140.31 1200 L2119.07 1200 L2097.82 1200 L2076.58 1200 L2055.33 1200 L2034.09 1200 L2012.84 1200 L1991.6 1200 L1970.35 1200 L1949.11 1200 L1927.86 1186.87 L1906.62 1186.87 L1885.38 1186.87 L1864.13 1186.87 L1842.89 1186.87 L1821.64 1186.87 L1800.4 1186.87 L1779.15 1186.87 L1757.91 1186.87 L1736.66 1186.87 L1715.42 1186.87 L1694.17 1186.87 L1672.93 1186.87 L1651.68 1186.87 L1630.44 1186.87 L1609.2 1186.87 L1587.95 1186.87 L1566.71 1186.87 L1545.46 1186.87 L1524.22 1186.87 L1502.97 1186.87 L1481.73 1186.87 L1460.48 1173.74 L1439.24 1173.74 L1417.99 1173.74 L1396.75 1173.74 L1375.51 1173.74 L1354.26 1173.74 L1333.02 1173.74 L1311.77 1173.74 L1290.53 1173.74 L1269.28 1173.74 L1248.04 1173.74 L1226.79 1173.74 L1205.55 1160.61 L1184.3 1160.61 L1163.06 1160.61 L1141.81 1160.61 L1120.57 1160.61 L1099.33 1160.61 L1078.08 1160.61 L1056.84 1160.61 L1035.59 1160.61 L1014.35 1147.48 L993.102 1147.48 L971.858 1147.48 L950.613 1147.48 L929.369 1147.48 L908.124 1147.48 L886.88 1134.36 L865.635 1134.36 L844.39 1134.36 L823.146 1134.36 L801.901 1121.23 L780.657 1121.23 L759.412 1121.23 L738.167 1108.1 L716.923 1108.1 L695.678 1108.1 L674.434 1094.97 L653.189 1094.97 L631.945 1081.84 L610.7 1081.84 L589.455 1068.71 L568.211 1055.59 L546.966 1055.59 L525.722 1042.46 L504.477 1029.33 L483.232 1016.2 L461.988 989.944 L440.743 976.816 L419.499 950.559 L398.254 924.302 L377.01 884.917 L355.765 845.532 L334.52 793.019 L313.276 727.377 L292.031 635.478 L270.787 517.323 L249.542 320.398  Z" fill="#1f77b4" fill-rule="evenodd" fill-opacity="0.45"/>
<polyline clip-path="url(#clip052)" style="stroke:#1f77b4; stroke-linecap:round; stroke-linejoin:round; stroke-width:4; stroke-opacity:1; fill:none" points="249.542,123.472 270.787,123.472 292.031,123.472 313.276,123.472 334.52,123.472 355.765,123.472 377.01,123.472 398.254,123.472 419.499,123.472 440.743,123.472 461.988,123.472 483.232,123.472 504.477,123.472 525.722,123.472 546.966,136.6 568.211,189.114 589.455,215.371 610.7,254.756 631.945,281.012 653.189,307.269 674.434,333.526 695.678,359.783 716.923,372.911 738.167,399.168 759.412,412.296 780.657,425.424 801.901,438.553 823.146,451.681 844.39,464.81 865.635,477.938 886.88,491.066 908.124,504.195 929.369,517.323 950.613,517.323 971.858,530.451 993.102,543.58 1014.35,543.58 1035.59,556.708 1056.84,556.708 1078.08,569.836 1099.33,569.836 1120.57,582.965 1141.81,582.965 1163.06,582.965 1184.3,596.093 1205.55,596.093 1226.79,609.221 1248.04,609.221 1269.28,609.221 1290.53,622.35 1311.77,622.35 1333.02,622.35 1354.26,622.35 1375.51,635.478 1396.75,635.478 1417.99,635.478 1439.24,635.478 1460.48,648.607 1481.73,648.607 1502.97,648.607 1524.22,648.607 1545.46,661.735 1566.71,661.735 1587.95,661.735 1609.2,661.735 1630.44,661.735 1651.68,674.863 1672.93,674.863 1694.17,674.863 1715.42,674.863 1736.66,674.863 1757.91,674.863 1779.15,674.863 1800.4,687.992 1821.64,687.992 1842.89,687.992 1864.13,687.992 1885.38,687.992 1906.62,687.992 1927.86,687.992 1949.11,701.12 1970.35,701.12 1991.6,701.12 2012.84,701.12 2034.09,701.12 2055.33,701.12 2076.58,701.12 2097.82,701.12 2119.07,701.12 2140.31,701.12 2161.55,714.248 2182.8,714.248 2204.04,714.248 2225.29,714.248 2246.53,714.248 2267.78,714.248 2289.02,714.248 2310.27,714.248 2331.51,714.248 2352.76,714.248 "/>
<path clip-path="url(#clip052)" d="M249.542 123.472 L270.787 123.472 L292.031 123.472 L313.276 123.472 L334.52 162.857 L355.765 281.012 L377.01 372.911 L398.254 451.681 L419.499 517.323 L440.743 569.836 L461.988 609.221 L483.232 648.607 L504.477 674.863 L525.722 701.12 L546.966 727.377 L568.211 753.633 L589.455 766.762 L610.7 793.019 L631.945 806.147 L653.189 819.275 L674.434 832.404 L695.678 845.532 L716.923 845.532 L738.167 858.66 L759.412 871.789 L780.657 871.789 L801.901 884.917 L823.146 898.045 L844.39 898.045 L865.635 911.174 L886.88 911.174 L908.124 911.174 L929.369 924.302 L950.613 924.302 L971.858 924.302 L993.102 937.43 L1014.35 937.43 L1035.59 937.43 L1056.84 950.559 L1078.08 950.559 L1099.33 950.559 L1120.57 950.559 L1141.81 963.687 L1163.06 963.687 L1184.3 963.687 L1205.55 963.687 L1226.79 963.687 L1248.04 976.816 L1269.28 976.816 L1290.53 976.816 L1311.77 976.816 L1333.02 976.816 L1354.26 976.816 L1375.51 989.944 L1396.75 989.944 L1417.99 989.944 L1439.24 989.944 L1460.48 989.944 L1481.73 989.944 L1502.97 989.944 L1524.22 1003.07 L1545.46 1003.07 L1566.71 1003.07 L1587.95 1003.07 L1609.2 1003.07 L1630.44 1003.07 L1651.68 1003.07 L1672.93 1003.07 L1694.17 1003.07 L1715.42 1003.07 L1736.66 1003.07 L1757.91 1016.2 L1779.15 1016.2 L1800.4 1016.2 L1821.64 1016.2 L1842.89 1016.2 L1864.13 1016.2 L1885.38 1016.2 L1906.62 1016.2 L1927.86 1016.2 L1949.11 1016.2 L1970.35 1016.2 L1991.6 1016.2 L2012.84 1016.2 L2034.09 1016.2 L2055.33 1029.33 L2076.58 1029.33 L2097.82 1029.33 L2119.07 1029.33 L2140.31 1029.33 L2161.55 1029.33 L2182.8 1029.33 L2204.04 1029.33 L2225.29 1029.33 L2246.53 1029.33 L2267.78 1029.33 L2289.02 1029.33 L2310.27 1029.33 L2331.51 1029.33 L2352.76 1029.33 L2352.76 1291.9 L2331.51 1291.9 L2310.27 1291.9 L2289.02 1291.9 L2267.78 1291.9 L2246.53 1291.9 L2225.29 1291.9 L2204.04 1291.9 L2182.8 1291.9 L2161.55 1291.9 L2140.31 1291.9 L2119.07 1291.9 L2097.82 1291.9 L2076.58 1291.9 L2055.33 1291.9 L2034.09 1291.9 L2012.84 1291.9 L1991.6 1291.9 L1970.35 1291.9 L1949.11 1291.9 L1927.86 1291.9 L1906.62 1291.9 L1885.38 1291.9 L1864.13 1291.9 L1842.89 1291.9 L1821.64 1291.9 L1800.4 1291.9 L1779.15 1291.9 L1757.91 1291.9 L1736.66 1291.9 L1715.42 1291.9 L1694.17 1291.9 L1672.93 1291.9 L1651.68 1291.9 L1630.44 1291.9 L1609.2 1291.9 L1587.95 1291.9 L1566.71 1291.9 L1545.46 1278.77 L1524.22 1278.77 L1502.97 1278.77 L1481.73 1278.77 L1460.48 1278.77 L1439.24 1278.77 L1417.99 1278.77 L1396.75 1278.77 L1375.51 1278.77 L1354.26 1278.77 L1333.02 1278.77 L1311.77 1278.77 L1290.53 1278.77 L1269.28 1278.77 L1248.04 1278.77 L1226.79 1278.77 L1205.55 1278.77 L1184.3 1278.77 L1163.06 1278.77 L1141.81 1278.77 L1120.57 1278.77 L1099.33 1265.64 L1078.08 1265.64 L1056.84 1265.64 L1035.59 1265.64 L1014.35 1265.64 L993.102 1265.64 L971.858 1265.64 L950.613 1265.64 L929.369 1265.64 L908.124 1265.64 L886.88 1265.64 L865.635 1252.51 L844.39 1252.51 L823.146 1252.51 L801.901 1252.51 L780.657 1252.51 L759.412 1252.51 L738.167 1252.51 L716.923 1239.38 L695.678 1239.38 L674.434 1239.38 L653.189 1239.38 L631.945 1226.25 L610.7 1226.25 L589.455 1226.25 L568.211 1213.13 L546.966 1213.13 L525.722 1200 L504.477 1200 L483.232 1186.87 L461.988 1173.74 L440.743 1173.74 L419.499 1160.61 L398.254 1134.36 L377.01 1121.23 L355.765 1094.97 L334.52 1068.71 L313.276 1029.33 L292.031 976.816 L270.787 911.174 L249.542 806.147  Z" fill="#ff7e0d" fill-rule="evenodd" fill-opacity="0.45"/>
<polyline clip-path="url(#clip052)" style="stroke:#ff7e0d; stroke-linecap:round; stroke-linejoin:round; stroke-width:4; stroke-opacity:1; fill:none" points="249.542,123.472 270.787,123.472 292.031,123.472 313.276,123.472 334.52,162.857 355.765,281.012 377.01,372.911 398.254,451.681 419.499,517.323 440.743,569.836 461.988,609.221 483.232,648.607 504.477,674.863 525.722,701.12 546.966,727.377 568.211,753.633 589.455,766.762 610.7,793.019 631.945,806.147 653.189,819.275 674.434,832.404 695.678,845.532 716.923,845.532 738.167,858.66 759.412,871.789 780.657,871.789 801.901,884.917 823.146,898.045 844.39,898.045 865.635,911.174 886.88,911.174 908.124,911.174 929.369,924.302 950.613,924.302 971.858,924.302 993.102,937.43 1014.35,937.43 1035.59,937.43 1056.84,950.559 1078.08,950.559 1099.33,950.559 1120.57,950.559 1141.81,963.687 1163.06,963.687 1184.3,963.687 1205.55,963.687 1226.79,963.687 1248.04,976.816 1269.28,976.816 1290.53,976.816 1311.77,976.816 1333.02,976.816 1354.26,976.816 1375.51,989.944 1396.75,989.944 1417.99,989.944 1439.24,989.944 1460.48,989.944 1481.73,989.944 1502.97,989.944 1524.22,1003.07 1545.46,1003.07 1566.71,1003.07 1587.95,1003.07 1609.2,1003.07 1630.44,1003.07 1651.68,1003.07 1672.93,1003.07 1694.17,1003.07 1715.42,1003.07 1736.66,1003.07 1757.91,1016.2 1779.15,1016.2 1800.4,1016.2 1821.64,1016.2 1842.89,1016.2 1864.13,1016.2 1885.38,1016.2 1906.62,1016.2 1927.86,1016.2 1949.11,1016.2 1970.35,1016.2 1991.6,1016.2 2012.84,1016.2 2034.09,1016.2 2055.33,1029.33 2076.58,1029.33 2097.82,1029.33 2119.07,1029.33 2140.31,1029.33 2161.55,1029.33 2182.8,1029.33 2204.04,1029.33 2225.29,1029.33 2246.53,1029.33 2267.78,1029.33 2289.02,1029.33 2310.27,1029.33 2331.51,1029.33 2352.76,1029.33 "/>
<path clip-path="url(#clip052)" d="M249.542 149.729 L270.787 399.168 L292.031 556.708 L313.276 661.735 L334.52 753.633 L355.765 806.147 L377.01 858.66 L398.254 898.045 L419.499 937.43 L440.743 963.687 L461.988 976.816 L483.232 1003.07 L504.477 1016.2 L525.722 1029.33 L546.966 1042.46 L568.211 1055.59 L589.455 1068.71 L610.7 1068.71 L631.945 1081.84 L653.189 1094.97 L674.434 1094.97 L695.678 1108.1 L716.923 1108.1 L738.167 1108.1 L759.412 1121.23 L780.657 1121.23 L801.901 1121.23 L823.146 1134.36 L844.39 1134.36 L865.635 1134.36 L886.88 1134.36 L908.124 1147.48 L929.369 1147.48 L950.613 1147.48 L971.858 1147.48 L993.102 1147.48 L1014.35 1160.61 L1035.59 1160.61 L1056.84 1160.61 L1078.08 1160.61 L1099.33 1160.61 L1120.57 1160.61 L1141.81 1160.61 L1163.06 1173.74 L1184.3 1173.74 L1205.55 1173.74 L1226.79 1173.74 L1248.04 1173.74 L1269.28 1173.74 L1290.53 1173.74 L1311.77 1173.74 L1333.02 1173.74 L1354.26 1173.74 L1375.51 1186.87 L1396.75 1186.87 L1417.99 1186.87 L1439.24 1186.87 L1460.48 1186.87 L1481.73 1186.87 L1502.97 1186.87 L1524.22 1186.87 L1545.46 1186.87 L1566.71 1186.87 L1587.95 1186.87 L1609.2 1186.87 L1630.44 1186.87 L1651.68 1186.87 L1672.93 1186.87 L1694.17 1186.87 L1715.42 1200 L1736.66 1200 L1757.91 1200 L1779.15 1200 L1800.4 1200 L1821.64 1200 L1842.89 1200 L1864.13 1200 L1885.38 1200 L1906.62 1200 L1927.86 1200 L1949.11 1200 L1970.35 1200 L1991.6 1200 L2012.84 1200 L2034.09 1200 L2055.33 1200 L2076.58 1200 L2097.82 1200 L2119.07 1200 L2140.31 1200 L2161.55 1200 L2182.8 1200 L2204.04 1200 L2225.29 1200 L2246.53 1200 L2267.78 1200 L2289.02 1200 L2310.27 1200 L2331.51 1200 L2352.76 1213.13 L2352.76 1344.41 L2331.51 1344.41 L2310.27 1344.41 L2289.02 1344.41 L2267.78 1344.41 L2246.53 1344.41 L2225.29 1344.41 L2204.04 1344.41 L2182.8 1344.41 L2161.55 1344.41 L2140.31 1344.41 L2119.07 1344.41 L2097.82 1344.41 L2076.58 1344.41 L2055.33 1344.41 L2034.09 1344.41 L2012.84 1344.41 L1991.6 1344.41 L1970.35 1344.41 L1949.11 1344.41 L1927.86 1344.41 L1906.62 1344.41 L1885.38 1344.41 L1864.13 1344.41 L1842.89 1344.41 L1821.64 1344.41 L1800.4 1344.41 L1779.15 1344.41 L1757.91 1344.41 L1736.66 1344.41 L1715.42 1344.41 L1694.17 1344.41 L1672.93 1344.41 L1651.68 1344.41 L1630.44 1344.41 L1609.2 1344.41 L1587.95 1344.41 L1566.71 1344.41 L1545.46 1344.41 L1524.22 1344.41 L1502.97 1344.41 L1481.73 1344.41 L1460.48 1344.41 L1439.24 1344.41 L1417.99 1344.41 L1396.75 1344.41 L1375.51 1344.41 L1354.26 1344.41 L1333.02 1344.41 L1311.77 1344.41 L1290.53 1344.41 L1269.28 1344.41 L1248.04 1344.41 L1226.79 1344.41 L1205.55 1331.28 L1184.3 1331.28 L1163.06 1331.28 L1141.81 1331.28 L1120.57 1331.28 L1099.33 1331.28 L1078.08 1331.28 L1056.84 1331.28 L1035.59 1331.28 L1014.35 1331.28 L993.102 1331.28 L971.858 1331.28 L950.613 1331.28 L929.369 1331.28 L908.124 1331.28 L886.88 1331.28 L865.635 1331.28 L844.39 1331.28 L823.146 1331.28 L801.901 1318.15 L780.657 1318.15 L759.412 1318.15 L738.167 1318.15 L716.923 1318.15 L695.678 1318.15 L674.434 1318.15 L653.189 1318.15 L631.945 1318.15 L610.7 1305.02 L589.455 1305.02 L568.211 1305.02 L546.966 1305.02 L525.722 1291.9 L504.477 1291.9 L483.232 1291.9 L461.988 1278.77 L440.743 1278.77 L419.499 1265.64 L398.254 1265.64 L377.01 1252.51 L355.765 1239.38 L334.52 1226.25 L313.276 1200 L292.031 1173.74 L270.787 1134.36 L249.542 1081.84  Z" fill="#2ba02b" fill-rule="evenodd" fill-opacity="0.45"/>
<polyline clip-path="url(#clip052)" style="stroke:#2ba02b; stroke-linecap:round; stroke-linejoin:round; stroke-width:4; stroke-opacity:1; fill:none" points="249.542,149.729 270.787,399.168 292.031,556.708 313.276,661.735 334.52,753.633 355.765,806.147 377.01,858.66 398.254,898.045 419.499,937.43 440.743,963.687 461.988,976.816 483.232,1003.07 504.477,1016.2 525.722,1029.33 546.966,1042.46 568.211,1055.59 589.455,1068.71 610.7,1068.71 631.945,1081.84 653.189,1094.97 674.434,1094.97 695.678,1108.1 716.923,1108.1 738.167,1108.1 759.412,1121.23 780.657,1121.23 801.901,1121.23 823.146,1134.36 844.39,1134.36 865.635,1134.36 886.88,1134.36 908.124,1147.48 929.369,1147.48 950.613,1147.48 971.858,1147.48 993.102,1147.48 1014.35,1160.61 1035.59,1160.61 1056.84,1160.61 1078.08,1160.61 1099.33,1160.61 1120.57,1160.61 1141.81,1160.61 1163.06,1173.74 1184.3,1173.74 1205.55,1173.74 1226.79,1173.74 1248.04,1173.74 1269.28,1173.74 1290.53,1173.74 1311.77,1173.74 1333.02,1173.74 1354.26,1173.74 1375.51,1186.87 1396.75,1186.87 1417.99,1186.87 1439.24,1186.87 1460.48,1186.87 1481.73,1186.87 1502.97,1186.87 1524.22,1186.87 1545.46,1186.87 1566.71,1186.87 1587.95,1186.87 1609.2,1186.87 1630.44,1186.87 1651.68,1186.87 1672.93,1186.87 1694.17,1186.87 1715.42,1200 1736.66,1200 1757.91,1200 1779.15,1200 1800.4,1200 1821.64,1200 1842.89,1200 1864.13,1200 1885.38,1200 1906.62,1200 1927.86,1200 1949.11,1200 1970.35,1200 1991.6,1200 2012.84,1200 2034.09,1200 2055.33,1200 2076.58,1200 2097.82,1200 2119.07,1200 2140.31,1200 2161.55,1200 2182.8,1200 2204.04,1200 2225.29,1200 2246.53,1200 2267.78,1200 2289.02,1200 2310.27,1200 2331.51,1200 2352.76,1213.13 "/>
<path clip-path="url(#clip052)" d="M249.542 753.633 L270.787 871.789 L292.031 963.687 L313.276 1016.2 L334.52 1055.59 L355.765 1094.97 L377.01 1121.23 L398.254 1134.36 L419.499 1160.61 L440.743 1173.74 L461.988 1186.87 L483.232 1186.87 L504.477 1200 L525.722 1213.13 L546.966 1213.13 L568.211 1226.25 L589.455 1226.25 L610.7 1226.25 L631.945 1239.38 L653.189 1239.38 L674.434 1239.38 L695.678 1252.51 L716.923 1252.51 L738.167 1252.51 L759.412 1252.51 L780.657 1252.51 L801.901 1265.64 L823.146 1265.64 L844.39 1265.64 L865.635 1265.64 L886.88 1265.64 L908.124 1265.64 L929.369 1265.64 L950.613 1278.77 L971.858 1278.77 L993.102 1278.77 L1014.35 1278.77 L1035.59 1278.77 L1056.84 1278.77 L1078.08 1278.77 L1099.33 1278.77 L1120.57 1278.77 L1141.81 1278.77 L1163.06 1278.77 L1184.3 1278.77 L1205.55 1278.77 L1226.79 1291.9 L1248.04 1291.9 L1269.28 1291.9 L1290.53 1291.9 L1311.77 1291.9 L1333.02 1291.9 L1354.26 1291.9 L1375.51 1291.9 L1396.75 1291.9 L1417.99 1291.9 L1439.24 1291.9 L1460.48 1291.9 L1481.73 1291.9 L1502.97 1291.9 L1524.22 1291.9 L1545.46 1291.9 L1566.71 1291.9 L1587.95 1291.9 L1609.2 1291.9 L1630.44 1291.9 L1651.68 1291.9 L1672.93 1291.9 L1694.17 1291.9 L1715.42 1291.9 L1736.66 1291.9 L1757.91 1291.9 L1779.15 1291.9 L1800.4 1305.02 L1821.64 1305.02 L1842.89 1305.02 L1864.13 1305.02 L1885.38 1305.02 L1906.62 1305.02 L1927.86 1305.02 L1949.11 1305.02 L1970.35 1305.02 L1991.6 1305.02 L2012.84 1305.02 L2034.09 1305.02 L2055.33 1305.02 L2076.58 1305.02 L2097.82 1305.02 L2119.07 1305.02 L2140.31 1305.02 L2161.55 1305.02 L2182.8 1305.02 L2204.04 1305.02 L2225.29 1305.02 L2246.53 1305.02 L2267.78 1305.02 L2289.02 1305.02 L2310.27 1305.02 L2331.51 1305.02 L2352.76 1305.02 L2352.76 1383.79 L2331.51 1383.79 L2310.27 1383.79 L2289.02 1383.79 L2267.78 1383.79 L2246.53 1383.79 L2225.29 1383.79 L2204.04 1383.79 L2182.8 1383.79 L2161.55 1383.79 L2140.31 1383.79 L2119.07 1383.79 L2097.82 1383.79 L2076.58 1383.79 L2055.33 1370.67 L2034.09 1370.67 L2012.84 1370.67 L1991.6 1370.67 L1970.35 1370.67 L1949.11 1370.67 L1927.86 1370.67 L1906.62 1370.67 L1885.38 1370.67 L1864.13 1370.67 L1842.89 1370.67 L1821.64 1370.67 L1800.4 1370.67 L1779.15 1370.67 L1757.91 1370.67 L1736.66 1370.67 L1715.42 1370.67 L1694.17 1370.67 L1672.93 1370.67 L1651.68 1370.67 L1630.44 1370.67 L1609.2 1370.67 L1587.95 1370.67 L1566.71 1370.67 L1545.46 1370.67 L1524.22 1370.67 L1502.97 1370.67 L1481.73 1370.67 L1460.48 1370.67 L1439.24 1370.67 L1417.99 1370.67 L1396.75 1370.67 L1375.51 1370.67 L1354.26 1370.67 L1333.02 1370.67 L1311.77 1370.67 L1290.53 1370.67 L1269.28 1370.67 L1248.04 1370.67 L1226.79 1370.67 L1205.55 1370.67 L1184.3 1370.67 L1163.06 1370.67 L1141.81 1370.67 L1120.57 1370.67 L1099.33 1370.67 L1078.08 1370.67 L1056.84 1370.67 L1035.59 1370.67 L1014.35 1370.67 L993.102 1370.67 L971.858 1370.67 L950.613 1370.67 L929.369 1370.67 L908.124 1370.67 L886.88 1370.67 L865.635 1370.67 L844.39 1370.67 L823.146 1370.67 L801.901 1370.67 L780.657 1357.54 L759.412 1357.54 L738.167 1357.54 L716.923 1357.54 L695.678 1357.54 L674.434 1357.54 L653.189 1357.54 L631.945 1357.54 L610.7 1357.54 L589.455 1357.54 L568.211 1357.54 L546.966 1357.54 L525.722 1344.41 L504.477 1344.41 L483.232 1344.41 L461.988 1344.41 L440.743 1344.41 L419.499 1331.28 L398.254 1331.28 L377.01 1318.15 L355.765 1318.15 L334.52 1305.02 L313.276 1291.9 L292.031 1278.77 L270.787 1252.51 L249.542 1226.25  Z" fill="#d52628" fill-rule="evenodd" fill-opacity="0.45"/>
<polyline clip-path="url(#clip052)" style="stroke:#d52628; stroke-linecap:round; stroke-linejoin:round; stroke-width:4; stroke-opacity:1; fill:none" points="249.542,753.633 270.787,871.789 292.031,963.687 313.276,1016.2 334.52,1055.59 355.765,1094.97 377.01,1121.23 398.254,1134.36 419.499,1160.61 440.743,1173.74 461.988,1186.87 483.232,1186.87 504.477,1200 525.722,1213.13 546.966,1213.13 568.211,1226.25 589.455,1226.25 610.7,1226.25 631.945,1239.38 653.189,1239.38 674.434,1239.38 695.678,1252.51 716.923,1252.51 738.167,1252.51 759.412,1252.51 780.657,1252.51 801.901,1265.64 823.146,1265.64 844.39,1265.64 865.635,1265.64 886.88,1265.64 908.124,1265.64 929.369,1265.64 950.613,1278.77 971.858,1278.77 993.102,1278.77 1014.35,1278.77 1035.59,1278.77 1056.84,1278.77 1078.08,1278.77 1099.33,1278.77 1120.57,1278.77 1141.81,1278.77 1163.06,1278.77 1184.3,1278.77 1205.55,1278.77 1226.79,1291.9 1248.04,1291.9 1269.28,1291.9 1290.53,1291.9 1311.77,1291.9 1333.02,1291.9 1354.26,1291.9 1375.51,1291.9 1396.75,1291.9 1417.99,1291.9 1439.24,1291.9 1460.48,1291.9 1481.73,1291.9 1502.97,1291.9 1524.22,1291.9 1545.46,1291.9 1566.71,1291.9 1587.95,1291.9 1609.2,1291.9 1630.44,1291.9 1651.68,1291.9 1672.93,1291.9 1694.17,1291.9 1715.42,1291.9 1736.66,1291.9 1757.91,1291.9 1779.15,1291.9 1800.4,1305.02 1821.64,1305.02 1842.89,1305.02 1864.13,1305.02 1885.38,1305.02 1906.62,1305.02 1927.86,1305.02 1949.11,1305.02 1970.35,1305.02 1991.6,1305.02 2012.84,1305.02 2034.09,1305.02 2055.33,1305.02 2076.58,1305.02 2097.82,1305.02 2119.07,1305.02 2140.31,1305.02 2161.55,1305.02 2182.8,1305.02 2204.04,1305.02 2225.29,1305.02 2246.53,1305.02 2267.78,1305.02 2289.02,1305.02 2310.27,1305.02 2331.51,1305.02 2352.76,1305.02 "/>
<path clip-path="url(#clip052)" d="M249.542 1068.71 L270.787 1121.23 L292.031 1173.74 L313.276 1200 L334.52 1226.25 L355.765 1239.38 L377.01 1252.51 L398.254 1265.64 L419.499 1278.77 L440.743 1278.77 L461.988 1291.9 L483.232 1291.9 L504.477 1305.02 L525.722 1305.02 L546.966 1305.02 L568.211 1318.15 L589.455 1318.15 L610.7 1318.15 L631.945 1318.15 L653.189 1318.15 L674.434 1331.28 L695.678 1331.28 L716.923 1331.28 L738.167 1331.28 L759.412 1331.28 L780.657 1331.28 L801.901 1331.28 L823.146 1331.28 L844.39 1331.28 L865.635 1344.41 L886.88 1344.41 L908.124 1344.41 L929.369 1344.41 L950.613 1344.41 L971.858 1344.41 L993.102 1344.41 L1014.35 1344.41 L1035.59 1344.41 L1056.84 1344.41 L1078.08 1344.41 L1099.33 1344.41 L1120.57 1344.41 L1141.81 1344.41 L1163.06 1344.41 L1184.3 1344.41 L1205.55 1344.41 L1226.79 1344.41 L1248.04 1344.41 L1269.28 1344.41 L1290.53 1344.41 L1311.77 1344.41 L1333.02 1344.41 L1354.26 1357.54 L1375.51 1357.54 L1396.75 1357.54 L1417.99 1357.54 L1439.24 1357.54 L1460.48 1357.54 L1481.73 1357.54 L1502.97 1357.54 L1524.22 1357.54 L1545.46 1357.54 L1566.71 1357.54 L1587.95 1357.54 L1609.2 1357.54 L1630.44 1357.54 L1651.68 1357.54 L1672.93 1357.54 L1694.17 1357.54 L1715.42 1357.54 L1736.66 1357.54 L1757.91 1357.54 L1779.15 1357.54 L1800.4 1357.54 L1821.64 1357.54 L1842.89 1357.54 L1864.13 1357.54 L1885.38 1357.54 L1906.62 1357.54 L1927.86 1357.54 L1949.11 1357.54 L1970.35 1357.54 L1991.6 1357.54 L2012.84 1357.54 L2034.09 1357.54 L2055.33 1357.54 L2076.58 1357.54 L2097.82 1357.54 L2119.07 1357.54 L2140.31 1357.54 L2161.55 1357.54 L2182.8 1357.54 L2204.04 1357.54 L2225.29 1357.54 L2246.53 1357.54 L2267.78 1357.54 L2289.02 1357.54 L2310.27 1357.54 L2331.51 1357.54 L2352.76 1357.54 L2352.76 1396.92 L2331.51 1396.92 L2310.27 1396.92 L2289.02 1396.92 L2267.78 1396.92 L2246.53 1396.92 L2225.29 1396.92 L2204.04 1396.92 L2182.8 1396.92 L2161.55 1396.92 L2140.31 1396.92 L2119.07 1396.92 L2097.82 1396.92 L2076.58 1396.92 L2055.33 1396.92 L2034.09 1396.92 L2012.84 1396.92 L1991.6 1396.92 L1970.35 1396.92 L1949.11 1396.92 L1927.86 1396.92 L1906.62 1396.92 L1885.38 1396.92 L1864.13 1396.92 L1842.89 1396.92 L1821.64 1396.92 L1800.4 1396.92 L1779.15 1396.92 L1757.91 1396.92 L1736.66 1396.92 L1715.42 1396.92 L1694.17 1396.92 L1672.93 1396.92 L1651.68 1396.92 L1630.44 1396.92 L1609.2 1396.92 L1587.95 1396.92 L1566.71 1396.92 L1545.46 1396.92 L1524.22 1396.92 L1502.97 1396.92 L1481.73 1396.92 L1460.48 1396.92 L1439.24 1396.92 L1417.99 1396.92 L1396.75 1396.92 L1375.51 1396.92 L1354.26 1396.92 L1333.02 1396.92 L1311.77 1396.92 L1290.53 1396.92 L1269.28 1396.92 L1248.04 1396.92 L1226.79 1396.92 L1205.55 1396.92 L1184.3 1396.92 L1163.06 1396.92 L1141.81 1396.92 L1120.57 1396.92 L1099.33 1396.92 L1078.08 1396.92 L1056.84 1383.79 L1035.59 1383.79 L1014.35 1383.79 L993.102 1383.79 L971.858 1383.79 L950.613 1383.79 L929.369 1383.79 L908.124 1383.79 L886.88 1383.79 L865.635 1383.79 L844.39 1383.79 L823.146 1383.79 L801.901 1383.79 L780.657 1383.79 L759.412 1383.79 L738.167 1383.79 L716.923 1383.79 L695.678 1383.79 L674.434 1383.79 L653.189 1383.79 L631.945 1383.79 L610.7 1383.79 L589.455 1383.79 L568.211 1383.79 L546.966 1383.79 L525.722 1383.79 L504.477 1383.79 L483.232 1370.67 L461.988 1370.67 L440.743 1370.67 L419.499 1370.67 L398.254 1370.67 L377.01 1357.54 L355.765 1357.54 L334.52 1357.54 L313.276 1344.41 L292.031 1344.41 L270.787 1331.28 L249.542 1305.02  Z" fill="#9466bd" fill-rule="evenodd" fill-opacity="0.45"/>
<polyline clip-path="url(#clip052)" style="stroke:#9466bd; stroke-linecap:round; stroke-linejoin:round; stroke-width:4; stroke-opacity:1; fill:none" points="249.542,1068.71 270.787,1121.23 292.031,1173.74 313.276,1200 334.52,1226.25 355.765,1239.38 377.01,1252.51 398.254,1265.64 419.499,1278.77 440.743,1278.77 461.988,1291.9 483.232,1291.9 504.477,1305.02 525.722,1305.02 546.966,1305.02 568.211,1318.15 589.455,1318.15 610.7,1318.15 631.945,1318.15 653.189,1318.15 674.434,1331.28 695.678,1331.28 716.923,1331.28 738.167,1331.28 759.412,1331.28 780.657,1331.28 801.901,1331.28 823.146,1331.28 844.39,1331.28 865.635,1344.41 886.88,1344.41 908.124,1344.41 929.369,1344.41 950.613,1344.41 971.858,1344.41 993.102,1344.41 1014.35,1344.41 1035.59,1344.41 1056.84,1344.41 1078.08,1344.41 1099.33,1344.41 1120.57,1344.41 1141.81,1344.41 1163.06,1344.41 1184.3,1344.41 1205.55,1344.41 1226.79,1344.41 1248.04,1344.41 1269.28,1344.41 1290.53,1344.41 1311.77,1344.41 1333.02,1344.41 1354.26,1357.54 1375.51,1357.54 1396.75,1357.54 1417.99,1357.54 1439.24,1357.54 1460.48,1357.54 1481.73,1357.54 1502.97,1357.54 1524.22,1357.54 1545.46,1357.54 1566.71,1357.54 1587.95,1357.54 1609.2,1357.54 1630.44,1357.54 1651.68,1357.54 1672.93,1357.54 1694.17,1357.54 1715.42,1357.54 1736.66,1357.54 1757.91,1357.54 1779.15,1357.54 1800.4,1357.54 1821.64,1357.54 1842.89,1357.54 1864.13,1357.54 1885.38,1357.54 1906.62,1357.54 1927.86,1357.54 1949.11,1357.54 1970.35,1357.54 1991.6,1357.54 2012.84,1357.54 2034.09,1357.54 2055.33,1357.54 2076.58,1357.54 2097.82,1357.54 2119.07,1357.54 2140.31,1357.54 2161.55,1357.54 2182.8,1357.54 2204.04,1357.54 2225.29,1357.54 2246.53,1357.54 2267.78,1357.54 2289.02,1357.54 2310.27,1357.54 2331.51,1357.54 2352.76,1357.54 "/>
<polyline clip-path="url(#clip052)" style="stroke:#000000; stroke-linecap:round; stroke-linejoin:round; stroke-width:4; stroke-opacity:1; fill:none" points="424.735,1327.34 983.086,1208.82 1501.01,1094.25 1896.75,991.558 2146.87,908.039 2259.88,849.353 2277.91,819.178 2277.98,819.073 1847.05,840.667 1391.54,882.469 1119.72,944.317 904.468,1017.35 739.674,1081.75 566.299,1153.85 423.535,1217.03 313.294,1267.49 237.193,1304.26 189.278,1327.02 165.706,1338.79 158.645,1342.36 160.805,1341.27 165.53,1338.88 167.649,1337.81 164.114,1339.6 154.201,1344.59 139.258,1352.04 122.278,1360.63 106.706,1368.5 107.76,1367.97 125.524,1359 146.602,1348.4 167.728,1337.77 185.831,1328.74 198.534,1322.56 204.324,1319.86 202.798,1320.57 194.967,1324.22 183.054,1330.12 169.156,1337.04 155.506,1343.94 143.774,1349.81 135.086,1354.14 129.759,1356.86 127.322,1358.09 126.834,1358.34 127.1,1358.21 126.964,1358.28 125.57,1358.98 122.532,1360.5 118.008,1362.8 112.608,1365.56 107.245,1368.23 106.706,1368.5 107.276,1368.21 112.671,1365.53 117.75,1362.93 121.019,1361.25 121.034,1361.25 116.613,1363.52 107.019,1368.34 106.706,1368.5 "/>
<path clip-path="url(#clip050)" d="M1762 477.836 L2282.65 477.836 L2282.65 166.796 L1762 166.796  Z" fill="#ffffff" fill-rule="evenodd" fill-opacity="1"/>
<polyline clip-path="url(#clip050)" style="stroke:#000000; stroke-linecap:round; stroke-linejoin:round; stroke-width:4; stroke-opacity:1; fill:none" points="1762,477.836 2282.65,477.836 2282.65,166.796 1762,166.796 1762,477.836 "/>
<path clip-path="url(#clip050)" d="M1785.37 239.372 L1925.59 239.372 L1925.59 197.9 L1785.37 197.9 L1785.37 239.372  Z" fill="#1f77b4" fill-rule="evenodd" fill-opacity="0.45"/>
<polyline clip-path="url(#clip050)" style="stroke:#1f77b4; stroke-linecap:round; stroke-linejoin:round; stroke-width:4; stroke-opacity:1; fill:none" points="1785.37,197.9 1925.59,197.9 "/>
<path clip-path="url(#clip050)" d="M1949.63 231.981 L1957.27 231.981 L1957.27 205.615 L1948.96 207.282 L1948.96 203.022 L1957.22 201.356 L1961.9 201.356 L1961.9 231.981 L1969.54 231.981 L1969.54 235.916 L1949.63 235.916 L1949.63 231.981 Z" fill="#000000" fill-rule="nonzero" fill-opacity="1" /><path clip-path="url(#clip050)" d="M2000.55 221.888 L2000.55 223.971 L1980.97 223.971 Q1981.25 228.369 1983.61 230.684 Q1985.99 232.976 1990.23 232.976 Q1992.68 232.976 1994.98 232.374 Q1997.29 231.772 1999.56 230.569 L1999.56 234.596 Q1997.27 235.568 1994.86 236.078 Q1992.45 236.587 1989.98 236.587 Q1983.77 236.587 1980.14 232.976 Q1976.53 229.365 1976.53 223.207 Q1976.53 216.842 1979.95 213.115 Q1983.4 209.365 1989.23 209.365 Q1994.47 209.365 1997.5 212.745 Q2000.55 216.101 2000.55 221.888 M1996.3 220.638 Q1996.25 217.143 1994.33 215.059 Q1992.43 212.976 1989.28 212.976 Q1985.72 212.976 1983.56 214.99 Q1981.43 217.004 1981.11 220.661 L1996.3 220.638 Z" fill="#000000" fill-rule="nonzero" fill-opacity="1" /><path clip-path="url(#clip050)" d="M2005.39 221.032 L2017.87 221.032 L2017.87 224.828 L2005.39 224.828 L2005.39 221.032 Z" fill="#000000" fill-rule="nonzero" fill-opacity="1" /><path clip-path="url(#clip050)" d="M2035.25 204.434 Q2031.64 204.434 2029.81 207.999 Q2028.01 211.541 2028.01 218.67 Q2028.01 225.777 2029.81 229.342 Q2031.64 232.883 2035.25 232.883 Q2038.89 232.883 2040.69 229.342 Q2042.52 225.777 2042.52 218.67 Q2042.52 211.541 2040.69 207.999 Q2038.89 204.434 2035.25 204.434 M2035.25 200.731 Q2041.06 200.731 2044.12 205.337 Q2047.2 209.92 2047.2 218.67 Q2047.2 227.397 2044.12 232.004 Q2041.06 236.587 2035.25 236.587 Q2029.44 236.587 2026.36 232.004 Q2023.31 227.397 2023.31 218.67 Q2023.31 209.92 2026.36 205.337 Q2029.44 200.731 2035.25 200.731 Z" fill="#000000" fill-rule="nonzero" fill-opacity="1" /><path clip-path="url(#clip050)" d="M2055.46 201.356 L2073.82 201.356 L2073.82 205.291 L2059.74 205.291 L2059.74 213.763 Q2060.76 213.416 2061.78 213.254 Q2062.8 213.069 2063.82 213.069 Q2069.6 213.069 2072.98 216.24 Q2076.36 219.411 2076.36 224.828 Q2076.36 230.406 2072.89 233.508 Q2069.42 236.587 2063.1 236.587 Q2060.92 236.587 2058.66 236.217 Q2056.41 235.846 2054 235.106 L2054 230.406 Q2056.09 231.541 2058.31 232.096 Q2060.53 232.652 2063.01 232.652 Q2067.01 232.652 2069.35 230.545 Q2071.69 228.439 2071.69 224.828 Q2071.69 221.217 2069.35 219.11 Q2067.01 217.004 2063.01 217.004 Q2061.13 217.004 2059.26 217.42 Q2057.41 217.837 2055.46 218.717 L2055.46 201.356 Z" fill="#000000" fill-rule="nonzero" fill-opacity="1" /><path clip-path="url(#clip050)" d="M1785.37 291.212 L1925.59 291.212 L1925.59 249.74 L1785.37 249.74 L1785.37 291.212  Z" fill="#ff7e0d" fill-rule="evenodd" fill-opacity="0.45"/>
<polyline clip-path="url(#clip050)" style="stroke:#ff7e0d; stroke-linecap:round; stroke-linejoin:round; stroke-width:4; stroke-opacity:1; fill:none" points="1785.37,249.74 1925.59,249.74 "/>
<path clip-path="url(#clip050)" d="M1964.58 269.122 Q1967.94 269.839 1969.81 272.108 Q1971.71 274.376 1971.71 277.709 Q1971.71 282.825 1968.19 285.626 Q1964.67 288.427 1958.19 288.427 Q1956.02 288.427 1953.7 287.987 Q1951.41 287.571 1948.96 286.714 L1948.96 282.2 Q1950.9 283.334 1953.22 283.913 Q1955.53 284.492 1958.05 284.492 Q1962.45 284.492 1964.74 282.756 Q1967.06 281.02 1967.06 277.709 Q1967.06 274.654 1964.91 272.941 Q1962.78 271.205 1958.96 271.205 L1954.93 271.205 L1954.93 267.362 L1959.14 267.362 Q1962.59 267.362 1964.42 265.997 Q1966.25 264.608 1966.25 262.015 Q1966.25 259.353 1964.35 257.941 Q1962.48 256.506 1958.96 256.506 Q1957.04 256.506 1954.84 256.923 Q1952.64 257.339 1950 258.219 L1950 254.052 Q1952.66 253.311 1954.98 252.941 Q1957.31 252.571 1959.37 252.571 Q1964.7 252.571 1967.8 255.001 Q1970.9 257.409 1970.9 261.529 Q1970.9 264.399 1969.26 266.39 Q1967.61 268.358 1964.58 269.122 Z" fill="#000000" fill-rule="nonzero" fill-opacity="1" /><path clip-path="url(#clip050)" d="M1980.58 281.876 L1985.46 281.876 L1985.46 287.756 L1980.58 287.756 L1980.58 281.876 Z" fill="#000000" fill-rule="nonzero" fill-opacity="1" /><path clip-path="url(#clip050)" d="M1996.46 283.821 L2004.1 283.821 L2004.1 257.455 L1995.79 259.122 L1995.79 254.862 L2004.05 253.196 L2008.73 253.196 L2008.73 283.821 L2016.36 283.821 L2016.36 287.756 L1996.46 287.756 L1996.46 283.821 Z" fill="#000000" fill-rule="nonzero" fill-opacity="1" /><path clip-path="url(#clip050)" d="M2036.39 268.612 Q2033.24 268.612 2031.39 270.765 Q2029.56 272.918 2029.56 276.668 Q2029.56 280.395 2031.39 282.571 Q2033.24 284.723 2036.39 284.723 Q2039.54 284.723 2041.36 282.571 Q2043.22 280.395 2043.22 276.668 Q2043.22 272.918 2041.36 270.765 Q2039.54 268.612 2036.39 268.612 M2045.67 253.96 L2045.67 258.219 Q2043.91 257.386 2042.1 256.946 Q2040.32 256.506 2038.56 256.506 Q2033.93 256.506 2031.48 259.631 Q2029.05 262.756 2028.7 269.075 Q2030.07 267.061 2032.13 265.997 Q2034.19 264.909 2036.67 264.909 Q2041.87 264.909 2044.88 268.08 Q2047.92 271.228 2047.92 276.668 Q2047.92 281.992 2044.77 285.209 Q2041.62 288.427 2036.39 288.427 Q2030.39 288.427 2027.22 283.844 Q2024.05 279.237 2024.05 270.51 Q2024.05 262.316 2027.94 257.455 Q2031.83 252.571 2038.38 252.571 Q2040.14 252.571 2041.92 252.918 Q2043.73 253.265 2045.67 253.96 Z" fill="#000000" fill-rule="nonzero" fill-opacity="1" /><path clip-path="url(#clip050)" d="M2060 283.821 L2076.32 283.821 L2076.32 287.756 L2054.37 287.756 L2054.37 283.821 Q2057.04 281.066 2061.62 276.436 Q2066.23 271.784 2067.41 270.441 Q2069.65 267.918 2070.53 266.182 Q2071.43 264.423 2071.43 262.733 Q2071.43 259.978 2069.49 258.242 Q2067.57 256.506 2064.47 256.506 Q2062.27 256.506 2059.81 257.27 Q2057.38 258.034 2054.6 259.585 L2054.6 254.862 Q2057.43 253.728 2059.88 253.149 Q2062.34 252.571 2064.37 252.571 Q2069.74 252.571 2072.94 255.256 Q2076.13 257.941 2076.13 262.432 Q2076.13 264.561 2075.32 266.483 Q2074.54 268.381 2072.43 270.973 Q2071.85 271.645 2068.75 274.862 Q2065.65 278.057 2060 283.821 Z" fill="#000000" fill-rule="nonzero" fill-opacity="1" /><path clip-path="url(#clip050)" d="M2090.16 283.821 L2106.48 283.821 L2106.48 287.756 L2084.54 287.756 L2084.54 283.821 Q2087.2 281.066 2091.78 276.436 Q2096.39 271.784 2097.57 270.441 Q2099.81 267.918 2100.69 266.182 Q2101.6 264.423 2101.6 262.733 Q2101.6 259.978 2099.65 258.242 Q2097.73 256.506 2094.63 256.506 Q2092.43 256.506 2089.98 257.27 Q2087.54 258.034 2084.77 259.585 L2084.77 254.862 Q2087.59 253.728 2090.04 253.149 Q2092.5 252.571 2094.54 252.571 Q2099.91 252.571 2103.1 255.256 Q2106.29 257.941 2106.29 262.432 Q2106.29 264.561 2105.48 266.483 Q2104.7 268.381 2102.59 270.973 Q2102.01 271.645 2098.91 274.862 Q2095.81 278.057 2090.16 283.821 Z" fill="#000000" fill-rule="nonzero" fill-opacity="1" /><path clip-path="url(#clip050)" d="M2126.29 271.344 Q2122.96 271.344 2121.04 273.126 Q2119.14 274.909 2119.14 278.034 Q2119.14 281.159 2121.04 282.941 Q2122.96 284.723 2126.29 284.723 Q2129.63 284.723 2131.55 282.941 Q2133.47 281.135 2133.47 278.034 Q2133.47 274.909 2131.55 273.126 Q2129.65 271.344 2126.29 271.344 M2121.62 269.353 Q2118.61 268.612 2116.92 266.552 Q2115.25 264.492 2115.25 261.529 Q2115.25 257.386 2118.19 254.978 Q2121.16 252.571 2126.29 252.571 Q2131.46 252.571 2134.4 254.978 Q2137.34 257.386 2137.34 261.529 Q2137.34 264.492 2135.65 266.552 Q2133.98 268.612 2130.99 269.353 Q2134.37 270.14 2136.25 272.432 Q2138.15 274.723 2138.15 278.034 Q2138.15 283.057 2135.07 285.742 Q2132.01 288.427 2126.29 288.427 Q2120.58 288.427 2117.5 285.742 Q2114.44 283.057 2114.44 278.034 Q2114.44 274.723 2116.34 272.432 Q2118.24 270.14 2121.62 269.353 M2119.91 261.969 Q2119.91 264.654 2121.57 266.159 Q2123.26 267.663 2126.29 267.663 Q2129.3 267.663 2130.99 266.159 Q2132.71 264.654 2132.71 261.969 Q2132.71 259.284 2130.99 257.779 Q2129.3 256.274 2126.29 256.274 Q2123.26 256.274 2121.57 257.779 Q2119.91 259.284 2119.91 261.969 Z" fill="#000000" fill-rule="nonzero" fill-opacity="1" /><path clip-path="url(#clip050)" d="M2168.03 273.728 L2168.03 275.811 L2148.45 275.811 Q2148.72 280.209 2151.09 282.524 Q2153.47 284.816 2157.71 284.816 Q2160.16 284.816 2162.45 284.214 Q2164.77 283.612 2167.03 282.409 L2167.03 286.436 Q2164.74 287.408 2162.34 287.918 Q2159.93 288.427 2157.45 288.427 Q2151.25 288.427 2147.61 284.816 Q2144 281.205 2144 275.047 Q2144 268.682 2147.43 264.955 Q2150.88 261.205 2156.71 261.205 Q2161.94 261.205 2164.97 264.585 Q2168.03 267.941 2168.03 273.728 M2163.77 272.478 Q2163.72 268.983 2161.8 266.899 Q2159.91 264.816 2156.76 264.816 Q2153.19 264.816 2151.04 266.83 Q2148.91 268.844 2148.59 272.501 L2163.77 272.478 Z" fill="#000000" fill-rule="nonzero" fill-opacity="1" /><path clip-path="url(#clip050)" d="M2172.87 272.872 L2185.34 272.872 L2185.34 276.668 L2172.87 276.668 L2172.87 272.872 Z" fill="#000000" fill-rule="nonzero" fill-opacity="1" /><path clip-path="url(#clip050)" d="M2202.73 256.274 Q2199.12 256.274 2197.29 259.839 Q2195.48 263.381 2195.48 270.51 Q2195.48 277.617 2197.29 281.182 Q2199.12 284.723 2202.73 284.723 Q2206.36 284.723 2208.17 281.182 Q2210 277.617 2210 270.51 Q2210 263.381 2208.17 259.839 Q2206.36 256.274 2202.73 256.274 M2202.73 252.571 Q2208.54 252.571 2211.59 257.177 Q2214.67 261.76 2214.67 270.51 Q2214.67 279.237 2211.59 283.844 Q2208.54 288.427 2202.73 288.427 Q2196.92 288.427 2193.84 283.844 Q2190.78 279.237 2190.78 270.51 Q2190.78 261.76 2193.84 257.177 Q2196.92 252.571 2202.73 252.571 Z" fill="#000000" fill-rule="nonzero" fill-opacity="1" /><path clip-path="url(#clip050)" d="M2222.94 253.196 L2241.29 253.196 L2241.29 257.131 L2227.22 257.131 L2227.22 265.603 Q2228.24 265.256 2229.26 265.094 Q2230.28 264.909 2231.29 264.909 Q2237.08 264.909 2240.46 268.08 Q2243.84 271.251 2243.84 276.668 Q2243.84 282.246 2240.37 285.348 Q2236.9 288.427 2230.58 288.427 Q2228.4 288.427 2226.13 288.057 Q2223.89 287.686 2221.48 286.946 L2221.48 282.246 Q2223.56 283.381 2225.78 283.936 Q2228.01 284.492 2230.48 284.492 Q2234.49 284.492 2236.83 282.385 Q2239.16 280.279 2239.16 276.668 Q2239.16 273.057 2236.83 270.95 Q2234.49 268.844 2230.48 268.844 Q2228.61 268.844 2226.73 269.26 Q2224.88 269.677 2222.94 270.557 L2222.94 253.196 Z" fill="#000000" fill-rule="nonzero" fill-opacity="1" /><path clip-path="url(#clip050)" d="M1785.37 343.052 L1925.59 343.052 L1925.59 301.58 L1785.37 301.58 L1785.37 343.052  Z" fill="#2ba02b" fill-rule="evenodd" fill-opacity="0.45"/>
<polyline clip-path="url(#clip050)" style="stroke:#2ba02b; stroke-linecap:round; stroke-linejoin:round; stroke-width:4; stroke-opacity:1; fill:none" points="1785.37,301.58 1925.59,301.58 "/>
<path clip-path="url(#clip050)" d="M1960.9 308.114 Q1957.29 308.114 1955.46 311.679 Q1953.66 315.221 1953.66 322.35 Q1953.66 329.457 1955.46 333.022 Q1957.29 336.563 1960.9 336.563 Q1964.54 336.563 1966.34 333.022 Q1968.17 329.457 1968.17 322.35 Q1968.17 315.221 1966.34 311.679 Q1964.54 308.114 1960.9 308.114 M1960.9 304.411 Q1966.71 304.411 1969.77 309.017 Q1972.85 313.6 1972.85 322.35 Q1972.85 331.077 1969.77 335.684 Q1966.71 340.267 1960.9 340.267 Q1955.09 340.267 1952.01 335.684 Q1948.96 331.077 1948.96 322.35 Q1948.96 313.6 1952.01 309.017 Q1955.09 304.411 1960.9 304.411 Z" fill="#000000" fill-rule="nonzero" fill-opacity="1" /><path clip-path="url(#clip050)" d="M1981.06 333.716 L1985.95 333.716 L1985.95 339.596 L1981.06 339.596 L1981.06 333.716 Z" fill="#000000" fill-rule="nonzero" fill-opacity="1" /><path clip-path="url(#clip050)" d="M2006.13 308.114 Q2002.52 308.114 2000.69 311.679 Q1998.89 315.221 1998.89 322.35 Q1998.89 329.457 2000.69 333.022 Q2002.52 336.563 2006.13 336.563 Q2009.77 336.563 2011.57 333.022 Q2013.4 329.457 2013.4 322.35 Q2013.4 315.221 2011.57 311.679 Q2009.77 308.114 2006.13 308.114 M2006.13 304.411 Q2011.94 304.411 2015 309.017 Q2018.08 313.6 2018.08 322.35 Q2018.08 331.077 2015 335.684 Q2011.94 340.267 2006.13 340.267 Q2000.32 340.267 1997.24 335.684 Q1994.19 331.077 1994.19 322.35 Q1994.19 313.6 1997.24 309.017 Q2000.32 304.411 2006.13 304.411 Z" fill="#000000" fill-rule="nonzero" fill-opacity="1" /><path clip-path="url(#clip050)" d="M2036.29 308.114 Q2032.68 308.114 2030.86 311.679 Q2029.05 315.221 2029.05 322.35 Q2029.05 329.457 2030.86 333.022 Q2032.68 336.563 2036.29 336.563 Q2039.93 336.563 2041.73 333.022 Q2043.56 329.457 2043.56 322.35 Q2043.56 315.221 2041.73 311.679 Q2039.93 308.114 2036.29 308.114 M2036.29 304.411 Q2042.1 304.411 2045.16 309.017 Q2048.24 313.6 2048.24 322.35 Q2048.24 331.077 2045.16 335.684 Q2042.1 340.267 2036.29 340.267 Q2030.48 340.267 2027.41 335.684 Q2024.35 331.077 2024.35 322.35 Q2024.35 313.6 2027.41 309.017 Q2030.48 304.411 2036.29 304.411 Z" fill="#000000" fill-rule="nonzero" fill-opacity="1" /><path clip-path="url(#clip050)" d="M2066.46 308.114 Q2062.85 308.114 2061.02 311.679 Q2059.21 315.221 2059.21 322.35 Q2059.21 329.457 2061.02 333.022 Q2062.85 336.563 2066.46 336.563 Q2070.09 336.563 2071.9 333.022 Q2073.73 329.457 2073.73 322.35 Q2073.73 315.221 2071.9 311.679 Q2070.09 308.114 2066.46 308.114 M2066.46 304.411 Q2072.27 304.411 2075.32 309.017 Q2078.4 313.6 2078.4 322.35 Q2078.4 331.077 2075.32 335.684 Q2072.27 340.267 2066.46 340.267 Q2060.65 340.267 2057.57 335.684 Q2054.51 331.077 2054.51 322.35 Q2054.51 313.6 2057.57 309.017 Q2060.65 304.411 2066.46 304.411 Z" fill="#000000" fill-rule="nonzero" fill-opacity="1" /><path clip-path="url(#clip050)" d="M2087.43 335.661 L2095.07 335.661 L2095.07 309.295 L2086.76 310.962 L2086.76 306.702 L2095.02 305.036 L2099.7 305.036 L2099.7 335.661 L2107.34 335.661 L2107.34 339.596 L2087.43 339.596 L2087.43 335.661 Z" fill="#000000" fill-rule="nonzero" fill-opacity="1" /><path clip-path="url(#clip050)" d="M1785.37 394.892 L1925.59 394.892 L1925.59 353.42 L1785.37 353.42 L1785.37 394.892  Z" fill="#d52628" fill-rule="evenodd" fill-opacity="0.45"/>
<polyline clip-path="url(#clip050)" style="stroke:#d52628; stroke-linecap:round; stroke-linejoin:round; stroke-width:4; stroke-opacity:1; fill:none" points="1785.37,353.42 1925.59,353.42 "/>
<path clip-path="url(#clip050)" d="M1960.9 359.954 Q1957.29 359.954 1955.46 363.519 Q1953.66 367.061 1953.66 374.19 Q1953.66 381.297 1955.46 384.862 Q1957.29 388.403 1960.9 388.403 Q1964.54 388.403 1966.34 384.862 Q1968.17 381.297 1968.17 374.19 Q1968.17 367.061 1966.34 363.519 Q1964.54 359.954 1960.9 359.954 M1960.9 356.251 Q1966.71 356.251 1969.77 360.857 Q1972.85 365.44 1972.85 374.19 Q1972.85 382.917 1969.77 387.524 Q1966.71 392.107 1960.9 392.107 Q1955.09 392.107 1952.01 387.524 Q1948.96 382.917 1948.96 374.19 Q1948.96 365.44 1952.01 360.857 Q1955.09 356.251 1960.9 356.251 Z" fill="#000000" fill-rule="nonzero" fill-opacity="1" /><path clip-path="url(#clip050)" d="M1981.06 385.556 L1985.95 385.556 L1985.95 391.436 L1981.06 391.436 L1981.06 385.556 Z" fill="#000000" fill-rule="nonzero" fill-opacity="1" /><path clip-path="url(#clip050)" d="M2006.13 359.954 Q2002.52 359.954 2000.69 363.519 Q1998.89 367.061 1998.89 374.19 Q1998.89 381.297 2000.69 384.862 Q2002.52 388.403 2006.13 388.403 Q2009.77 388.403 2011.57 384.862 Q2013.4 381.297 2013.4 374.19 Q2013.4 367.061 2011.57 363.519 Q2009.77 359.954 2006.13 359.954 M2006.13 356.251 Q2011.94 356.251 2015 360.857 Q2018.08 365.44 2018.08 374.19 Q2018.08 382.917 2015 387.524 Q2011.94 392.107 2006.13 392.107 Q2000.32 392.107 1997.24 387.524 Q1994.19 382.917 1994.19 374.19 Q1994.19 365.44 1997.24 360.857 Q2000.32 356.251 2006.13 356.251 Z" fill="#000000" fill-rule="nonzero" fill-opacity="1" /><path clip-path="url(#clip050)" d="M2036.29 359.954 Q2032.68 359.954 2030.86 363.519 Q2029.05 367.061 2029.05 374.19 Q2029.05 381.297 2030.86 384.862 Q2032.68 388.403 2036.29 388.403 Q2039.93 388.403 2041.73 384.862 Q2043.56 381.297 2043.56 374.19 Q2043.56 367.061 2041.73 363.519 Q2039.93 359.954 2036.29 359.954 M2036.29 356.251 Q2042.1 356.251 2045.16 360.857 Q2048.24 365.44 2048.24 374.19 Q2048.24 382.917 2045.16 387.524 Q2042.1 392.107 2036.29 392.107 Q2030.48 392.107 2027.41 387.524 Q2024.35 382.917 2024.35 374.19 Q2024.35 365.44 2027.41 360.857 Q2030.48 356.251 2036.29 356.251 Z" fill="#000000" fill-rule="nonzero" fill-opacity="1" /><path clip-path="url(#clip050)" d="M2066.46 359.954 Q2062.85 359.954 2061.02 363.519 Q2059.21 367.061 2059.21 374.19 Q2059.21 381.297 2061.02 384.862 Q2062.85 388.403 2066.46 388.403 Q2070.09 388.403 2071.9 384.862 Q2073.73 381.297 2073.73 374.19 Q2073.73 367.061 2071.9 363.519 Q2070.09 359.954 2066.46 359.954 M2066.46 356.251 Q2072.27 356.251 2075.32 360.857 Q2078.4 365.44 2078.4 374.19 Q2078.4 382.917 2075.32 387.524 Q2072.27 392.107 2066.46 392.107 Q2060.65 392.107 2057.57 387.524 Q2054.51 382.917 2054.51 374.19 Q2054.51 365.44 2057.57 360.857 Q2060.65 356.251 2066.46 356.251 Z" fill="#000000" fill-rule="nonzero" fill-opacity="1" /><path clip-path="url(#clip050)" d="M2100.79 372.802 Q2104.14 373.519 2106.02 375.788 Q2107.91 378.056 2107.91 381.389 Q2107.91 386.505 2104.4 389.306 Q2100.88 392.107 2094.4 392.107 Q2092.22 392.107 2089.91 391.667 Q2087.61 391.251 2085.16 390.394 L2085.16 385.88 Q2087.1 387.014 2089.42 387.593 Q2091.73 388.172 2094.26 388.172 Q2098.66 388.172 2100.95 386.436 Q2103.26 384.7 2103.26 381.389 Q2103.26 378.334 2101.11 376.621 Q2098.98 374.885 2095.16 374.885 L2091.13 374.885 L2091.13 371.042 L2095.35 371.042 Q2098.79 371.042 2100.62 369.677 Q2102.45 368.288 2102.45 365.695 Q2102.45 363.033 2100.55 361.621 Q2098.68 360.186 2095.16 360.186 Q2093.24 360.186 2091.04 360.603 Q2088.84 361.019 2086.2 361.899 L2086.2 357.732 Q2088.86 356.991 2091.18 356.621 Q2093.52 356.251 2095.58 356.251 Q2100.9 356.251 2104 358.681 Q2107.1 361.089 2107.1 365.209 Q2107.1 368.079 2105.46 370.07 Q2103.82 372.038 2100.79 372.802 Z" fill="#000000" fill-rule="nonzero" fill-opacity="1" /><path clip-path="url(#clip050)" d="M2117.59 387.501 L2125.23 387.501 L2125.23 361.135 L2116.92 362.802 L2116.92 358.542 L2125.18 356.876 L2129.86 356.876 L2129.86 387.501 L2137.5 387.501 L2137.5 391.436 L2117.59 391.436 L2117.59 387.501 Z" fill="#000000" fill-rule="nonzero" fill-opacity="1" /><path clip-path="url(#clip050)" d="M2157.52 372.292 Q2154.37 372.292 2152.52 374.445 Q2150.69 376.598 2150.69 380.348 Q2150.69 384.075 2152.52 386.251 Q2154.37 388.403 2157.52 388.403 Q2160.67 388.403 2162.5 386.251 Q2164.35 384.075 2164.35 380.348 Q2164.35 376.598 2162.5 374.445 Q2160.67 372.292 2157.52 372.292 M2166.8 357.64 L2166.8 361.899 Q2165.04 361.066 2163.24 360.626 Q2161.46 360.186 2159.7 360.186 Q2155.07 360.186 2152.61 363.311 Q2150.18 366.436 2149.84 372.755 Q2151.2 370.741 2153.26 369.677 Q2155.32 368.589 2157.8 368.589 Q2163.01 368.589 2166.02 371.76 Q2169.05 374.908 2169.05 380.348 Q2169.05 385.672 2165.9 388.889 Q2162.75 392.107 2157.52 392.107 Q2151.53 392.107 2148.35 387.524 Q2145.18 382.917 2145.18 374.19 Q2145.18 365.996 2149.07 361.135 Q2152.96 356.251 2159.51 356.251 Q2161.27 356.251 2163.05 356.598 Q2164.86 356.945 2166.8 357.64 Z" fill="#000000" fill-rule="nonzero" fill-opacity="1" /><path clip-path="url(#clip050)" d="M2181.13 387.501 L2197.45 387.501 L2197.45 391.436 L2175.51 391.436 L2175.51 387.501 Q2178.17 384.746 2182.75 380.116 Q2187.36 375.464 2188.54 374.121 Q2190.78 371.598 2191.66 369.862 Q2192.57 368.103 2192.57 366.413 Q2192.57 363.658 2190.62 361.922 Q2188.7 360.186 2185.6 360.186 Q2183.4 360.186 2180.95 360.95 Q2178.52 361.714 2175.74 363.265 L2175.74 358.542 Q2178.56 357.408 2181.02 356.829 Q2183.47 356.251 2185.51 356.251 Q2190.88 356.251 2194.07 358.936 Q2197.27 361.621 2197.27 366.112 Q2197.27 368.241 2196.46 370.163 Q2195.67 372.061 2193.56 374.653 Q2192.98 375.325 2189.88 378.542 Q2186.78 381.737 2181.13 387.501 Z" fill="#000000" fill-rule="nonzero" fill-opacity="1" /><path clip-path="url(#clip050)" d="M2211.29 387.501 L2227.61 387.501 L2227.61 391.436 L2205.67 391.436 L2205.67 387.501 Q2208.33 384.746 2212.91 380.116 Q2217.52 375.464 2218.7 374.121 Q2220.95 371.598 2221.83 369.862 Q2222.73 368.103 2222.73 366.413 Q2222.73 363.658 2220.78 361.922 Q2218.86 360.186 2215.76 360.186 Q2213.56 360.186 2211.11 360.95 Q2208.68 361.714 2205.9 363.265 L2205.9 358.542 Q2208.72 357.408 2211.18 356.829 Q2213.63 356.251 2215.67 356.251 Q2221.04 356.251 2224.23 358.936 Q2227.43 361.621 2227.43 366.112 Q2227.43 368.241 2226.62 370.163 Q2225.83 372.061 2223.72 374.653 Q2223.15 375.325 2220.04 378.542 Q2216.94 381.737 2211.29 387.501 Z" fill="#000000" fill-rule="nonzero" fill-opacity="1" /><path clip-path="url(#clip050)" d="M2247.43 375.024 Q2244.09 375.024 2242.17 376.806 Q2240.28 378.589 2240.28 381.714 Q2240.28 384.839 2242.17 386.621 Q2244.09 388.403 2247.43 388.403 Q2250.76 388.403 2252.68 386.621 Q2254.6 384.815 2254.6 381.714 Q2254.6 378.589 2252.68 376.806 Q2250.78 375.024 2247.43 375.024 M2242.75 373.033 Q2239.74 372.292 2238.05 370.232 Q2236.39 368.172 2236.39 365.209 Q2236.39 361.066 2239.33 358.658 Q2242.29 356.251 2247.43 356.251 Q2252.59 356.251 2255.53 358.658 Q2258.47 361.066 2258.47 365.209 Q2258.47 368.172 2256.78 370.232 Q2255.11 372.292 2252.13 373.033 Q2255.51 373.82 2257.38 376.112 Q2259.28 378.403 2259.28 381.714 Q2259.28 386.737 2256.2 389.422 Q2253.15 392.107 2247.43 392.107 Q2241.71 392.107 2238.63 389.422 Q2235.58 386.737 2235.58 381.714 Q2235.58 378.403 2237.47 376.112 Q2239.37 373.82 2242.75 373.033 M2241.04 365.649 Q2241.04 368.334 2242.71 369.839 Q2244.4 371.343 2247.43 371.343 Q2250.44 371.343 2252.13 369.839 Q2253.84 368.334 2253.84 365.649 Q2253.84 362.964 2252.13 361.459 Q2250.44 359.954 2247.43 359.954 Q2244.4 359.954 2242.71 361.459 Q2241.04 362.964 2241.04 365.649 Z" fill="#000000" fill-rule="nonzero" fill-opacity="1" /><path clip-path="url(#clip050)" d="M1785.37 446.732 L1925.59 446.732 L1925.59 405.26 L1785.37 405.26 L1785.37 446.732  Z" fill="#9466bd" fill-rule="evenodd" fill-opacity="0.45"/>
<polyline clip-path="url(#clip050)" style="stroke:#9466bd; stroke-linecap:round; stroke-linejoin:round; stroke-width:4; stroke-opacity:1; fill:none" points="1785.37,405.26 1925.59,405.26 "/>
<path clip-path="url(#clip050)" d="M1960.9 411.794 Q1957.29 411.794 1955.46 415.359 Q1953.66 418.901 1953.66 426.03 Q1953.66 433.137 1955.46 436.702 Q1957.29 440.243 1960.9 440.243 Q1964.54 440.243 1966.34 436.702 Q1968.17 433.137 1968.17 426.03 Q1968.17 418.901 1966.34 415.359 Q1964.54 411.794 1960.9 411.794 M1960.9 408.091 Q1966.71 408.091 1969.77 412.697 Q1972.85 417.28 1972.85 426.03 Q1972.85 434.757 1969.77 439.364 Q1966.71 443.947 1960.9 443.947 Q1955.09 443.947 1952.01 439.364 Q1948.96 434.757 1948.96 426.03 Q1948.96 417.28 1952.01 412.697 Q1955.09 408.091 1960.9 408.091 Z" fill="#000000" fill-rule="nonzero" fill-opacity="1" /><path clip-path="url(#clip050)" d="M1981.06 437.396 L1985.95 437.396 L1985.95 443.276 L1981.06 443.276 L1981.06 437.396 Z" fill="#000000" fill-rule="nonzero" fill-opacity="1" /><path clip-path="url(#clip050)" d="M2006.13 411.794 Q2002.52 411.794 2000.69 415.359 Q1998.89 418.901 1998.89 426.03 Q1998.89 433.137 2000.69 436.702 Q2002.52 440.243 2006.13 440.243 Q2009.77 440.243 2011.57 436.702 Q2013.4 433.137 2013.4 426.03 Q2013.4 418.901 2011.57 415.359 Q2009.77 411.794 2006.13 411.794 M2006.13 408.091 Q2011.94 408.091 2015 412.697 Q2018.08 417.28 2018.08 426.03 Q2018.08 434.757 2015 439.364 Q2011.94 443.947 2006.13 443.947 Q2000.32 443.947 1997.24 439.364 Q1994.19 434.757 1994.19 426.03 Q1994.19 417.28 1997.24 412.697 Q2000.32 408.091 2006.13 408.091 Z" fill="#000000" fill-rule="nonzero" fill-opacity="1" /><path clip-path="url(#clip050)" d="M2036.29 411.794 Q2032.68 411.794 2030.86 415.359 Q2029.05 418.901 2029.05 426.03 Q2029.05 433.137 2030.86 436.702 Q2032.68 440.243 2036.29 440.243 Q2039.93 440.243 2041.73 436.702 Q2043.56 433.137 2043.56 426.03 Q2043.56 418.901 2041.73 415.359 Q2039.93 411.794 2036.29 411.794 M2036.29 408.091 Q2042.1 408.091 2045.16 412.697 Q2048.24 417.28 2048.24 426.03 Q2048.24 434.757 2045.16 439.364 Q2042.1 443.947 2036.29 443.947 Q2030.48 443.947 2027.41 439.364 Q2024.35 434.757 2024.35 426.03 Q2024.35 417.28 2027.41 412.697 Q2030.48 408.091 2036.29 408.091 Z" fill="#000000" fill-rule="nonzero" fill-opacity="1" /><path clip-path="url(#clip050)" d="M2057.27 439.341 L2064.91 439.341 L2064.91 412.975 L2056.6 414.642 L2056.6 410.382 L2064.86 408.716 L2069.54 408.716 L2069.54 439.341 L2077.17 439.341 L2077.17 443.276 L2057.27 443.276 L2057.27 439.341 Z" fill="#000000" fill-rule="nonzero" fill-opacity="1" /></svg>
