<?xml version="1.0" encoding="utf-8"?>
<svg xmlns="http://www.w3.org/2000/svg" xmlns:xlink="http://www.w3.org/1999/xlink" width="600" height="400" viewBox="0 0 2400 1600">
<defs>
  <clipPath id="clip670">
    <rect x="0" y="0" width="2400" height="1600"/>
  </clipPath>
</defs>
<path clip-path="url(#clip670)" d="M0 1600 L2400 1600 L2400 0 L0 0  Z" fill="#ffffff" fill-rule="evenodd" fill-opacity="1"/>
<defs>
  <clipPath id="clip671">
    <rect x="480" y="0" width="1681" height="1600"/>
  </clipPath>
</defs>
<path clip-path="url(#clip670)" d="M250.028 1423.18 L2352.76 1423.18 L2352.76 123.472 L250.028 123.472  Z" fill="#ffffff" fill-rule="evenodd" fill-opacity="1"/>
<defs>
  <clipPath id="clip672">
    <rect x="250" y="123" width="2104" height="1301"/>
  </clipPath>
</defs>
<polyline clip-path="url(#clip672)" style="stroke:#000000; stroke-linecap:round; stroke-linejoin:round; stroke-width:2; stroke-opacity:0.1; fill:none" points="618.547,1423.18 618.547,123.472 "/>
<polyline clip-path="url(#clip672)" style="stroke:#000000; stroke-linecap:round; stroke-linejoin:round; stroke-width:2; stroke-opacity:0.1; fill:none" points="1052.1,1423.18 1052.1,123.472 "/>
<polyline clip-path="url(#clip672)" style="stroke:#000000; stroke-linecap:round; stroke-linejoin:round; stroke-width:2; stroke-opacity:0.1; fill:none" points="1485.65,1423.18 1485.65,123.472 "/>
<polyline clip-path="url(#clip672)" style="stroke:#000000; stroke-linecap:round; stroke-linejoin:round; stroke-width:2; stroke-opacity:0.1; fill:none" points="1919.2,1423.18 1919.2,123.472 "/>
<polyline clip-path="url(#clip670)" style="stroke:#000000; stroke-linecap:round; stroke-linejoin:round; stroke-width:4; stroke-opacity:1; fill:none" points="250.028,1423.18 2352.76,1423.18 "/>
<polyline clip-path="url(#clip670)" style="stroke:#000000; stroke-linecap:round; stroke-linejoin:round; stroke-width:4; stroke-opacity:1; fill:none" points="618.547,1423.18 618.547,1404.28 "/>
<polyline clip-path="url(#clip670)" style="stroke:#000000; stroke-linecap:round; stroke-linejoin:round; stroke-width:4; stroke-opacity:1; fill:none" points="1052.1,1423.18 1052.1,1404.28 "/>
<polyline clip-path="url(#clip670)" style="stroke:#000000; stroke-linecap:round; stroke-linejoin:round; stroke-width:4; stroke-opacity:1; fill:none" points="1485.65,1423.18 1485.65,1404.28 "/>
<polyline clip-path="url(#clip670)" style="stroke:#000000; stroke-linecap:round; stroke-linejoin:round; stroke-width:4; stroke-opacity:1; fill:none" points="1919.2,1423.18 1919.2,1404.28 "/>
<path clip-path="url(#clip670)" d="M581.649 1454.1 Q578.038 1454.1 576.21 1457.66 Q574.404 1461.2 574.404 1468.33 Q574.404 1475.44 576.21 1479.01 Q578.038 1482.55 581.649 1482.55 Q585.284 1482.55 587.089 1479.01 Q588.918 1475.44 588.918 1468.33 Q588.918 1461.2 587.089 1457.66 Q585.284 1454.1 581.649 1454.1 M581.649 1450.39 Q587.46 1450.39 590.515 1455 Q593.594 1459.58 593.594 1468.33 Q593.594 1477.06 590.515 1481.67 Q587.46 1486.25 581.649 1486.25 Q575.839 1486.25 572.761 1481.67 Q569.705 1477.06 569.705 1468.33 Q569.705 1459.58 572.761 1455 Q575.839 1450.39 581.649 1450.39 Z" fill="#000000" fill-rule="nonzero" fill-opacity="1" /><path clip-path="url(#clip670)" d="M601.811 1479.7 L606.696 1479.7 L606.696 1485.58 L601.811 1485.58 L601.811 1479.7 Z" fill="#000000" fill-rule="nonzero" fill-opacity="1" /><path clip-path="url(#clip670)" d="M626.881 1454.1 Q623.27 1454.1 621.441 1457.66 Q619.635 1461.2 619.635 1468.33 Q619.635 1475.44 621.441 1479.01 Q623.27 1482.55 626.881 1482.55 Q630.515 1482.55 632.321 1479.01 Q634.149 1475.44 634.149 1468.33 Q634.149 1461.2 632.321 1457.66 Q630.515 1454.1 626.881 1454.1 M626.881 1450.39 Q632.691 1450.39 635.746 1455 Q638.825 1459.58 638.825 1468.33 Q638.825 1477.06 635.746 1481.67 Q632.691 1486.25 626.881 1486.25 Q621.071 1486.25 617.992 1481.67 Q614.936 1477.06 614.936 1468.33 Q614.936 1459.58 617.992 1455 Q621.071 1450.39 626.881 1450.39 Z" fill="#000000" fill-rule="nonzero" fill-opacity="1" /><path clip-path="url(#clip670)" d="M651.07 1481.64 L667.39 1481.64 L667.39 1485.58 L645.445 1485.58 L645.445 1481.64 Q648.107 1478.89 652.691 1474.26 Q657.297 1469.61 658.478 1468.27 Q660.723 1465.74 661.603 1464.01 Q662.506 1462.25 662.506 1460.56 Q662.506 1457.8 660.561 1456.07 Q658.64 1454.33 655.538 1454.33 Q653.339 1454.33 650.885 1455.09 Q648.455 1455.86 645.677 1457.41 L645.677 1452.69 Q648.501 1451.55 650.955 1450.97 Q653.408 1450.39 655.445 1450.39 Q660.816 1450.39 664.01 1453.08 Q667.205 1455.77 667.205 1460.26 Q667.205 1462.39 666.394 1464.31 Q665.607 1466.2 663.501 1468.8 Q662.922 1469.47 659.82 1472.69 Q656.719 1475.88 651.07 1481.64 Z" fill="#000000" fill-rule="nonzero" fill-opacity="1" /><path clip-path="url(#clip670)" d="M1014.16 1454.1 Q1010.55 1454.1 1008.72 1457.66 Q1006.91 1461.2 1006.91 1468.33 Q1006.91 1475.44 1008.72 1479.01 Q1010.55 1482.55 1014.16 1482.55 Q1017.79 1482.55 1019.6 1479.01 Q1021.43 1475.44 1021.43 1468.33 Q1021.43 1461.2 1019.6 1457.66 Q1017.79 1454.1 1014.16 1454.1 M1014.16 1450.39 Q1019.97 1450.39 1023.03 1455 Q1026.1 1459.58 1026.1 1468.33 Q1026.1 1477.06 1023.03 1481.67 Q1019.97 1486.25 1014.16 1486.25 Q1008.35 1486.25 1005.27 1481.67 Q1002.22 1477.06 1002.22 1468.33 Q1002.22 1459.58 1005.27 1455 Q1008.35 1450.39 1014.16 1450.39 Z" fill="#000000" fill-rule="nonzero" fill-opacity="1" /><path clip-path="url(#clip670)" d="M1034.32 1479.7 L1039.21 1479.7 L1039.21 1485.58 L1034.32 1485.58 L1034.32 1479.7 Z" fill="#000000" fill-rule="nonzero" fill-opacity="1" /><path clip-path="url(#clip670)" d="M1059.39 1454.1 Q1055.78 1454.1 1053.95 1457.66 Q1052.15 1461.2 1052.15 1468.33 Q1052.15 1475.44 1053.95 1479.01 Q1055.78 1482.55 1059.39 1482.55 Q1063.03 1482.55 1064.83 1479.01 Q1066.66 1475.44 1066.66 1468.33 Q1066.66 1461.2 1064.83 1457.66 Q1063.03 1454.1 1059.39 1454.1 M1059.39 1450.39 Q1065.2 1450.39 1068.26 1455 Q1071.34 1459.58 1071.34 1468.33 Q1071.34 1477.06 1068.26 1481.67 Q1065.2 1486.25 1059.39 1486.25 Q1053.58 1486.25 1050.5 1481.67 Q1047.45 1477.06 1047.45 1468.33 Q1047.45 1459.58 1050.5 1455 Q1053.58 1450.39 1059.39 1450.39 Z" fill="#000000" fill-rule="nonzero" fill-opacity="1" /><path clip-path="url(#clip670)" d="M1092.4 1455.09 L1080.59 1473.54 L1092.4 1473.54 L1092.4 1455.09 M1091.17 1451.02 L1097.05 1451.02 L1097.05 1473.54 L1101.98 1473.54 L1101.98 1477.43 L1097.05 1477.43 L1097.05 1485.58 L1092.4 1485.58 L1092.4 1477.43 L1076.8 1477.43 L1076.8 1472.92 L1091.17 1451.02 Z" fill="#000000" fill-rule="nonzero" fill-opacity="1" /><path clip-path="url(#clip670)" d="M1447.87 1454.1 Q1444.26 1454.1 1442.43 1457.66 Q1440.63 1461.2 1440.63 1468.33 Q1440.63 1475.44 1442.43 1479.01 Q1444.26 1482.55 1447.87 1482.55 Q1451.51 1482.55 1453.31 1479.01 Q1455.14 1475.44 1455.14 1468.33 Q1455.14 1461.2 1453.31 1457.66 Q1451.51 1454.1 1447.87 1454.1 M1447.87 1450.39 Q1453.68 1450.39 1456.74 1455 Q1459.82 1459.58 1459.82 1468.33 Q1459.82 1477.06 1456.74 1481.67 Q1453.68 1486.25 1447.87 1486.25 Q1442.06 1486.25 1438.99 1481.67 Q1435.93 1477.06 1435.93 1468.33 Q1435.93 1459.58 1438.99 1455 Q1442.06 1450.39 1447.87 1450.39 Z" fill="#000000" fill-rule="nonzero" fill-opacity="1" /><path clip-path="url(#clip670)" d="M1468.04 1479.7 L1472.92 1479.7 L1472.92 1485.58 L1468.04 1485.58 L1468.04 1479.7 Z" fill="#000000" fill-rule="nonzero" fill-opacity="1" /><path clip-path="url(#clip670)" d="M1493.11 1454.1 Q1489.49 1454.1 1487.67 1457.66 Q1485.86 1461.2 1485.86 1468.33 Q1485.86 1475.44 1487.67 1479.01 Q1489.49 1482.55 1493.11 1482.55 Q1496.74 1482.55 1498.55 1479.01 Q1500.37 1475.44 1500.37 1468.33 Q1500.37 1461.2 1498.55 1457.66 Q1496.74 1454.1 1493.11 1454.1 M1493.11 1450.39 Q1498.92 1450.39 1501.97 1455 Q1505.05 1459.58 1505.05 1468.33 Q1505.05 1477.06 1501.97 1481.67 Q1498.92 1486.25 1493.11 1486.25 Q1487.3 1486.25 1484.22 1481.67 Q1481.16 1477.06 1481.16 1468.33 Q1481.16 1459.58 1484.22 1455 Q1487.3 1450.39 1493.11 1450.39 Z" fill="#000000" fill-rule="nonzero" fill-opacity="1" /><path clip-path="url(#clip670)" d="M1523.85 1466.44 Q1520.7 1466.44 1518.85 1468.59 Q1517.02 1470.74 1517.02 1474.49 Q1517.02 1478.22 1518.85 1480.39 Q1520.7 1482.55 1523.85 1482.55 Q1526.99 1482.55 1528.82 1480.39 Q1530.67 1478.22 1530.67 1474.49 Q1530.67 1470.74 1528.82 1468.59 Q1526.99 1466.44 1523.85 1466.44 M1533.13 1451.78 L1533.13 1456.04 Q1531.37 1455.21 1529.56 1454.77 Q1527.78 1454.33 1526.02 1454.33 Q1521.39 1454.33 1518.94 1457.45 Q1516.51 1460.58 1516.16 1466.9 Q1517.53 1464.89 1519.59 1463.82 Q1521.65 1462.73 1524.12 1462.73 Q1529.33 1462.73 1532.34 1465.9 Q1535.37 1469.05 1535.37 1474.49 Q1535.37 1479.82 1532.23 1483.03 Q1529.08 1486.25 1523.85 1486.25 Q1517.85 1486.25 1514.68 1481.67 Q1511.51 1477.06 1511.51 1468.33 Q1511.51 1460.14 1515.4 1455.28 Q1519.29 1450.39 1525.84 1450.39 Q1527.6 1450.39 1529.38 1450.74 Q1531.18 1451.09 1533.13 1451.78 Z" fill="#000000" fill-rule="nonzero" fill-opacity="1" /><path clip-path="url(#clip670)" d="M1881.55 1454.1 Q1877.94 1454.1 1876.11 1457.66 Q1874.31 1461.2 1874.31 1468.33 Q1874.31 1475.44 1876.11 1479.01 Q1877.94 1482.55 1881.55 1482.55 Q1885.19 1482.55 1886.99 1479.01 Q1888.82 1475.44 1888.82 1468.33 Q1888.82 1461.2 1886.99 1457.66 Q1885.19 1454.1 1881.55 1454.1 M1881.55 1450.39 Q1887.36 1450.39 1890.42 1455 Q1893.5 1459.58 1893.5 1468.33 Q1893.5 1477.06 1890.42 1481.67 Q1887.36 1486.25 1881.55 1486.25 Q1875.74 1486.25 1872.66 1481.67 Q1869.61 1477.06 1869.61 1468.33 Q1869.61 1459.58 1872.66 1455 Q1875.74 1450.39 1881.55 1450.39 Z" fill="#000000" fill-rule="nonzero" fill-opacity="1" /><path clip-path="url(#clip670)" d="M1901.72 1479.7 L1906.6 1479.7 L1906.6 1485.58 L1901.72 1485.58 L1901.72 1479.7 Z" fill="#000000" fill-rule="nonzero" fill-opacity="1" /><path clip-path="url(#clip670)" d="M1926.78 1454.1 Q1923.17 1454.1 1921.34 1457.66 Q1919.54 1461.2 1919.54 1468.33 Q1919.54 1475.44 1921.34 1479.01 Q1923.17 1482.55 1926.78 1482.55 Q1930.42 1482.55 1932.22 1479.01 Q1934.05 1475.44 1934.05 1468.33 Q1934.05 1461.2 1932.22 1457.66 Q1930.42 1454.1 1926.78 1454.1 M1926.78 1450.39 Q1932.59 1450.39 1935.65 1455 Q1938.73 1459.58 1938.73 1468.33 Q1938.73 1477.06 1935.65 1481.67 Q1932.59 1486.25 1926.78 1486.25 Q1920.97 1486.25 1917.9 1481.67 Q1914.84 1477.06 1914.84 1468.33 Q1914.84 1459.58 1917.9 1455 Q1920.97 1450.39 1926.78 1450.39 Z" fill="#000000" fill-rule="nonzero" fill-opacity="1" /><path clip-path="url(#clip670)" d="M1956.95 1469.17 Q1953.61 1469.17 1951.69 1470.95 Q1949.79 1472.73 1949.79 1475.86 Q1949.79 1478.98 1951.69 1480.77 Q1953.61 1482.55 1956.95 1482.55 Q1960.28 1482.55 1962.2 1480.77 Q1964.12 1478.96 1964.12 1475.86 Q1964.12 1472.73 1962.2 1470.95 Q1960.3 1469.17 1956.95 1469.17 M1952.27 1467.18 Q1949.26 1466.44 1947.57 1464.38 Q1945.91 1462.32 1945.91 1459.35 Q1945.91 1455.21 1948.84 1452.8 Q1951.81 1450.39 1956.95 1450.39 Q1962.11 1450.39 1965.05 1452.8 Q1967.99 1455.21 1967.99 1459.35 Q1967.99 1462.32 1966.3 1464.38 Q1964.63 1466.44 1961.65 1467.18 Q1965.03 1467.96 1966.9 1470.26 Q1968.8 1472.55 1968.8 1475.86 Q1968.8 1480.88 1965.72 1483.57 Q1962.66 1486.25 1956.95 1486.25 Q1951.23 1486.25 1948.15 1483.57 Q1945.09 1480.88 1945.09 1475.86 Q1945.09 1472.55 1946.99 1470.26 Q1948.89 1467.96 1952.27 1467.18 M1950.56 1459.79 Q1950.56 1462.48 1952.22 1463.98 Q1953.91 1465.49 1956.95 1465.49 Q1959.96 1465.49 1961.65 1463.98 Q1963.36 1462.48 1963.36 1459.79 Q1963.36 1457.11 1961.65 1455.6 Q1959.96 1454.1 1956.95 1454.1 Q1953.91 1454.1 1952.22 1455.6 Q1950.56 1457.11 1950.56 1459.79 Z" fill="#000000" fill-rule="nonzero" fill-opacity="1" /><path clip-path="url(#clip670)" d="M1258.53 1518.52 L1264.42 1518.52 L1264.42 1547.77 L1281.9 1532.4 L1289.38 1532.4 L1270.47 1549.07 L1290.17 1568.04 L1282.53 1568.04 L1264.42 1550.63 L1264.42 1568.04 L1258.53 1568.04 L1258.53 1518.52 Z" fill="#000000" fill-rule="nonzero" fill-opacity="1" /><path clip-path="url(#clip670)" d="M1296.51 1532.4 L1302.36 1532.4 L1302.36 1568.04 L1296.51 1568.04 L1296.51 1532.4 M1296.51 1518.52 L1302.36 1518.52 L1302.36 1525.93 L1296.51 1525.93 L1296.51 1518.52 Z" fill="#000000" fill-rule="nonzero" fill-opacity="1" /><path clip-path="url(#clip670)" d="M1344.25 1546.53 L1344.25 1568.04 L1338.39 1568.04 L1338.39 1546.72 Q1338.39 1541.66 1336.42 1539.14 Q1334.45 1536.63 1330.5 1536.63 Q1325.76 1536.63 1323.02 1539.65 Q1320.28 1542.68 1320.28 1547.9 L1320.28 1568.04 L1314.39 1568.04 L1314.39 1532.4 L1320.28 1532.4 L1320.28 1537.93 Q1322.38 1534.72 1325.22 1533.13 Q1328.08 1531.54 1331.8 1531.54 Q1337.95 1531.54 1341.1 1535.36 Q1344.25 1539.14 1344.25 1546.53 Z" fill="#000000" fill-rule="nonzero" fill-opacity="1" /><polyline clip-path="url(#clip672)" style="stroke:#000000; stroke-linecap:round; stroke-linejoin:round; stroke-width:2; stroke-opacity:0.1; fill:none" points="250.028,1123.25 2352.76,1123.25 "/>
<polyline clip-path="url(#clip672)" style="stroke:#000000; stroke-linecap:round; stroke-linejoin:round; stroke-width:2; stroke-opacity:0.1; fill:none" points="250.028,789.989 2352.76,789.989 "/>
<polyline clip-path="url(#clip672)" style="stroke:#000000; stroke-linecap:round; stroke-linejoin:round; stroke-width:2; stroke-opacity:0.1; fill:none" points="250.028,456.731 2352.76,456.731 "/>
<polyline clip-path="url(#clip672)" style="stroke:#000000; stroke-linecap:round; stroke-linejoin:round; stroke-width:2; stroke-opacity:0.1; fill:none" points="250.028,123.472 2352.76,123.472 "/>
<polyline clip-path="url(#clip670)" style="stroke:#000000; stroke-linecap:round; stroke-linejoin:round; stroke-width:4; stroke-opacity:1; fill:none" points="250.028,1423.18 250.028,123.472 "/>
<polyline clip-path="url(#clip670)" style="stroke:#000000; stroke-linecap:round; stroke-linejoin:round; stroke-width:4; stroke-opacity:1; fill:none" points="250.028,1123.25 268.926,1123.25 "/>
<polyline clip-path="url(#clip670)" style="stroke:#000000; stroke-linecap:round; stroke-linejoin:round; stroke-width:4; stroke-opacity:1; fill:none" points="250.028,789.989 268.926,789.989 "/>
<polyline clip-path="url(#clip670)" style="stroke:#000000; stroke-linecap:round; stroke-linejoin:round; stroke-width:4; stroke-opacity:1; fill:none" points="250.028,456.731 268.926,456.731 "/>
<polyline clip-path="url(#clip670)" style="stroke:#000000; stroke-linecap:round; stroke-linejoin:round; stroke-width:4; stroke-opacity:1; fill:none" points="250.028,123.472 268.926,123.472 "/>
<path clip-path="url(#clip670)" d="M127.917 1109.05 Q124.306 1109.05 122.478 1112.61 Q120.672 1116.15 120.672 1123.28 Q120.672 1130.39 122.478 1133.95 Q124.306 1137.49 127.917 1137.49 Q131.552 1137.49 133.357 1133.95 Q135.186 1130.39 135.186 1123.28 Q135.186 1116.15 133.357 1112.61 Q131.552 1109.05 127.917 1109.05 M127.917 1105.34 Q133.728 1105.34 136.783 1109.95 Q139.862 1114.53 139.862 1123.28 Q139.862 1132.01 136.783 1136.62 Q133.728 1141.2 127.917 1141.2 Q122.107 1141.2 119.029 1136.62 Q115.973 1132.01 115.973 1123.28 Q115.973 1114.53 119.029 1109.95 Q122.107 1105.34 127.917 1105.34 Z" fill="#000000" fill-rule="nonzero" fill-opacity="1" /><path clip-path="url(#clip670)" d="M148.079 1134.65 L152.964 1134.65 L152.964 1140.53 L148.079 1140.53 L148.079 1134.65 Z" fill="#000000" fill-rule="nonzero" fill-opacity="1" /><path clip-path="url(#clip670)" d="M173.149 1109.05 Q169.538 1109.05 167.709 1112.61 Q165.903 1116.15 165.903 1123.28 Q165.903 1130.39 167.709 1133.95 Q169.538 1137.49 173.149 1137.49 Q176.783 1137.49 178.589 1133.95 Q180.417 1130.39 180.417 1123.28 Q180.417 1116.15 178.589 1112.61 Q176.783 1109.05 173.149 1109.05 M173.149 1105.34 Q178.959 1105.34 182.014 1109.95 Q185.093 1114.53 185.093 1123.28 Q185.093 1132.01 182.014 1136.62 Q178.959 1141.2 173.149 1141.2 Q167.339 1141.2 164.26 1136.62 Q161.204 1132.01 161.204 1123.28 Q161.204 1114.53 164.26 1109.95 Q167.339 1105.34 173.149 1105.34 Z" fill="#000000" fill-rule="nonzero" fill-opacity="1" /><path clip-path="url(#clip670)" d="M194.121 1136.59 L201.76 1136.59 L201.76 1110.23 L193.45 1111.89 L193.45 1107.63 L201.713 1105.97 L206.389 1105.97 L206.389 1136.59 L214.028 1136.59 L214.028 1140.53 L194.121 1140.53 L194.121 1136.59 Z" fill="#000000" fill-rule="nonzero" fill-opacity="1" /><path clip-path="url(#clip670)" d="M128.288 775.788 Q124.677 775.788 122.848 779.352 Q121.043 782.894 121.043 790.024 Q121.043 797.13 122.848 800.695 Q124.677 804.237 128.288 804.237 Q131.922 804.237 133.728 800.695 Q135.556 797.13 135.556 790.024 Q135.556 782.894 133.728 779.352 Q131.922 775.788 128.288 775.788 M128.288 772.084 Q134.098 772.084 137.154 776.69 Q140.232 781.274 140.232 790.024 Q140.232 798.75 137.154 803.357 Q134.098 807.94 128.288 807.94 Q122.478 807.94 119.399 803.357 Q116.343 798.75 116.343 790.024 Q116.343 781.274 119.399 776.69 Q122.478 772.084 128.288 772.084 Z" fill="#000000" fill-rule="nonzero" fill-opacity="1" /><path clip-path="url(#clip670)" d="M148.45 801.389 L153.334 801.389 L153.334 807.269 L148.45 807.269 L148.45 801.389 Z" fill="#000000" fill-rule="nonzero" fill-opacity="1" /><path clip-path="url(#clip670)" d="M173.519 775.788 Q169.908 775.788 168.079 779.352 Q166.274 782.894 166.274 790.024 Q166.274 797.13 168.079 800.695 Q169.908 804.237 173.519 804.237 Q177.153 804.237 178.959 800.695 Q180.788 797.13 180.788 790.024 Q180.788 782.894 178.959 779.352 Q177.153 775.788 173.519 775.788 M173.519 772.084 Q179.329 772.084 182.385 776.69 Q185.463 781.274 185.463 790.024 Q185.463 798.75 182.385 803.357 Q179.329 807.94 173.519 807.94 Q167.709 807.94 164.63 803.357 Q161.575 798.75 161.575 790.024 Q161.575 781.274 164.63 776.69 Q167.709 772.084 173.519 772.084 Z" fill="#000000" fill-rule="nonzero" fill-opacity="1" /><path clip-path="url(#clip670)" d="M197.709 803.334 L214.028 803.334 L214.028 807.269 L192.084 807.269 L192.084 803.334 Q194.746 800.579 199.329 795.95 Q203.936 791.297 205.116 789.954 Q207.362 787.431 208.241 785.695 Q209.144 783.936 209.144 782.246 Q209.144 779.491 207.199 777.755 Q205.278 776.019 202.176 776.019 Q199.977 776.019 197.524 776.783 Q195.093 777.547 192.315 779.098 L192.315 774.376 Q195.139 773.241 197.593 772.663 Q200.047 772.084 202.084 772.084 Q207.454 772.084 210.649 774.769 Q213.843 777.454 213.843 781.945 Q213.843 784.075 213.033 785.996 Q212.246 787.894 210.139 790.487 Q209.561 791.158 206.459 794.375 Q203.357 797.57 197.709 803.334 Z" fill="#000000" fill-rule="nonzero" fill-opacity="1" /><path clip-path="url(#clip670)" d="M127.339 442.529 Q123.728 442.529 121.899 446.094 Q120.093 449.636 120.093 456.765 Q120.093 463.872 121.899 467.436 Q123.728 470.978 127.339 470.978 Q130.973 470.978 132.779 467.436 Q134.607 463.872 134.607 456.765 Q134.607 449.636 132.779 446.094 Q130.973 442.529 127.339 442.529 M127.339 438.826 Q133.149 438.826 136.204 443.432 Q139.283 448.015 139.283 456.765 Q139.283 465.492 136.204 470.098 Q133.149 474.682 127.339 474.682 Q121.529 474.682 118.45 470.098 Q115.394 465.492 115.394 456.765 Q115.394 448.015 118.45 443.432 Q121.529 438.826 127.339 438.826 Z" fill="#000000" fill-rule="nonzero" fill-opacity="1" /><path clip-path="url(#clip670)" d="M147.501 468.131 L152.385 468.131 L152.385 474.011 L147.501 474.011 L147.501 468.131 Z" fill="#000000" fill-rule="nonzero" fill-opacity="1" /><path clip-path="url(#clip670)" d="M172.57 442.529 Q168.959 442.529 167.13 446.094 Q165.325 449.636 165.325 456.765 Q165.325 463.872 167.13 467.436 Q168.959 470.978 172.57 470.978 Q176.204 470.978 178.01 467.436 Q179.839 463.872 179.839 456.765 Q179.839 449.636 178.01 446.094 Q176.204 442.529 172.57 442.529 M172.57 438.826 Q178.38 438.826 181.436 443.432 Q184.514 448.015 184.514 456.765 Q184.514 465.492 181.436 470.098 Q178.38 474.682 172.57 474.682 Q166.76 474.682 163.681 470.098 Q160.626 465.492 160.626 456.765 Q160.626 448.015 163.681 443.432 Q166.76 438.826 172.57 438.826 Z" fill="#000000" fill-rule="nonzero" fill-opacity="1" /><path clip-path="url(#clip670)" d="M206.899 455.376 Q210.255 456.094 212.13 458.362 Q214.028 460.631 214.028 463.964 Q214.028 469.08 210.51 471.881 Q206.991 474.682 200.51 474.682 Q198.334 474.682 196.019 474.242 Q193.727 473.825 191.274 472.969 L191.274 468.455 Q193.218 469.589 195.533 470.168 Q197.848 470.747 200.371 470.747 Q204.769 470.747 207.061 469.011 Q209.375 467.274 209.375 463.964 Q209.375 460.909 207.223 459.196 Q205.093 457.46 201.274 457.46 L197.246 457.46 L197.246 453.617 L201.459 453.617 Q204.908 453.617 206.737 452.251 Q208.565 450.862 208.565 448.27 Q208.565 445.608 206.667 444.196 Q204.792 442.761 201.274 442.761 Q199.352 442.761 197.153 443.177 Q194.954 443.594 192.315 444.474 L192.315 440.307 Q194.977 439.566 197.292 439.196 Q199.63 438.826 201.69 438.826 Q207.014 438.826 210.116 441.256 Q213.218 443.663 213.218 447.784 Q213.218 450.654 211.574 452.645 Q209.931 454.612 206.899 455.376 Z" fill="#000000" fill-rule="nonzero" fill-opacity="1" /><path clip-path="url(#clip670)" d="M126.205 109.271 Q122.593 109.271 120.765 112.836 Q118.959 116.377 118.959 123.507 Q118.959 130.613 120.765 134.178 Q122.593 137.72 126.205 137.72 Q129.839 137.72 131.644 134.178 Q133.473 130.613 133.473 123.507 Q133.473 116.377 131.644 112.836 Q129.839 109.271 126.205 109.271 M126.205 105.567 Q132.015 105.567 135.07 110.174 Q138.149 114.757 138.149 123.507 Q138.149 132.234 135.07 136.84 Q132.015 141.423 126.205 141.423 Q120.394 141.423 117.316 136.84 Q114.26 132.234 114.26 123.507 Q114.26 114.757 117.316 110.174 Q120.394 105.567 126.205 105.567 Z" fill="#000000" fill-rule="nonzero" fill-opacity="1" /><path clip-path="url(#clip670)" d="M146.366 134.873 L151.251 134.873 L151.251 140.752 L146.366 140.752 L146.366 134.873 Z" fill="#000000" fill-rule="nonzero" fill-opacity="1" /><path clip-path="url(#clip670)" d="M171.436 109.271 Q167.825 109.271 165.996 112.836 Q164.19 116.377 164.19 123.507 Q164.19 130.613 165.996 134.178 Q167.825 137.72 171.436 137.72 Q175.07 137.72 176.876 134.178 Q178.704 130.613 178.704 123.507 Q178.704 116.377 176.876 112.836 Q175.07 109.271 171.436 109.271 M171.436 105.567 Q177.246 105.567 180.301 110.174 Q183.38 114.757 183.38 123.507 Q183.38 132.234 180.301 136.84 Q177.246 141.423 171.436 141.423 Q165.626 141.423 162.547 136.84 Q159.491 132.234 159.491 123.507 Q159.491 114.757 162.547 110.174 Q165.626 105.567 171.436 105.567 Z" fill="#000000" fill-rule="nonzero" fill-opacity="1" /><path clip-path="url(#clip670)" d="M204.445 110.266 L192.639 128.715 L204.445 128.715 L204.445 110.266 M203.218 106.192 L209.098 106.192 L209.098 128.715 L214.028 128.715 L214.028 132.604 L209.098 132.604 L209.098 140.752 L204.445 140.752 L204.445 132.604 L188.843 132.604 L188.843 128.09 L203.218 106.192 Z" fill="#000000" fill-rule="nonzero" fill-opacity="1" /><path clip-path="url(#clip670)" d="M20.049 772.435 L64.0042 755.979 L64.0042 762.186 L37.6501 772.18 L64.0042 784.466 L64.0042 790.673 L29.8203 775.045 L23.5183 777.4 Q19.5079 778.896 19.5079 782.302 L19.5079 785.357 L14.479 785.357 L14.5426 781.633 Q14.6381 774.44 20.049 772.435 Z" fill="#000000" fill-rule="nonzero" fill-opacity="1" /><path clip-path="url(#clip670)" d="M588.109 28.9478 L588.109 35.9153 Q584.949 34.1734 581.749 33.3227 Q578.589 32.4315 575.348 32.4315 Q568.097 32.4315 564.087 37.0496 Q560.077 41.6271 560.077 49.9314 Q560.077 58.2358 564.087 62.8538 Q568.097 67.4314 575.348 67.4314 Q578.589 67.4314 581.749 66.5807 Q584.949 65.6895 588.109 63.9476 L588.109 70.8341 Q584.99 72.2924 581.627 73.0216 Q578.306 73.7508 574.538 73.7508 Q564.289 73.7508 558.254 67.3098 Q552.218 60.8689 552.218 49.9314 Q552.218 38.832 558.294 32.472 Q564.411 26.1121 575.024 26.1121 Q578.468 26.1121 581.749 26.8413 Q585.03 27.5299 588.109 28.9478 Z" fill="#000000" fill-rule="nonzero" fill-opacity="1" /><path clip-path="url(#clip670)" d="M638.786 45.1919 L638.786 72.576 L631.332 72.576 L631.332 45.4349 Q631.332 38.994 628.82 35.7938 Q626.309 32.5936 621.286 32.5936 Q615.25 32.5936 611.766 36.4419 Q608.282 40.2903 608.282 46.9338 L608.282 72.576 L600.788 72.576 L600.788 9.54393 L608.282 9.54393 L608.282 34.2544 Q610.956 30.163 614.561 28.1376 Q618.207 26.1121 622.947 26.1121 Q630.765 26.1121 634.775 30.9732 Q638.786 35.7938 638.786 45.1919 Z" fill="#000000" fill-rule="nonzero" fill-opacity="1" /><path clip-path="url(#clip670)" d="M674.272 49.7694 Q665.238 49.7694 661.754 51.8354 Q658.27 53.9013 658.27 58.8839 Q658.27 62.8538 660.863 65.2034 Q663.496 67.5124 667.993 67.5124 Q674.191 67.5124 677.917 63.1374 Q681.685 58.7219 681.685 51.4303 L681.685 49.7694 L674.272 49.7694 M689.138 46.6907 L689.138 72.576 L681.685 72.576 L681.685 65.6895 Q679.133 69.8214 675.325 71.8063 Q671.517 73.7508 666.008 73.7508 Q659.04 73.7508 654.908 69.8619 Q650.817 65.9325 650.817 59.3701 Q650.817 51.7138 655.921 47.825 Q661.066 43.9361 671.233 43.9361 L681.685 43.9361 L681.685 43.2069 Q681.685 38.0623 678.282 35.2672 Q674.92 32.4315 668.803 32.4315 Q664.914 32.4315 661.228 33.3632 Q657.541 34.295 654.139 36.1584 L654.139 29.2718 Q658.23 27.692 662.078 26.9223 Q665.927 26.1121 669.572 26.1121 Q679.416 26.1121 684.277 31.2163 Q689.138 36.3204 689.138 46.6907 Z" fill="#000000" fill-rule="nonzero" fill-opacity="1" /><path clip-path="url(#clip670)" d="M742.205 45.1919 L742.205 72.576 L734.752 72.576 L734.752 45.4349 Q734.752 38.994 732.24 35.7938 Q729.728 32.5936 724.705 32.5936 Q718.669 32.5936 715.186 36.4419 Q711.702 40.2903 711.702 46.9338 L711.702 72.576 L704.208 72.576 L704.208 27.2059 L711.702 27.2059 L711.702 34.2544 Q714.375 30.163 717.981 28.1376 Q721.627 26.1121 726.366 26.1121 Q734.184 26.1121 738.195 30.9732 Q742.205 35.7938 742.205 45.1919 Z" fill="#000000" fill-rule="nonzero" fill-opacity="1" /><path clip-path="url(#clip670)" d="M786.927 49.3643 Q786.927 41.2625 783.565 36.8065 Q780.243 32.3505 774.207 32.3505 Q768.212 32.3505 764.85 36.8065 Q761.528 41.2625 761.528 49.3643 Q761.528 57.4256 764.85 61.8816 Q768.212 66.3376 774.207 66.3376 Q780.243 66.3376 783.565 61.8816 Q786.927 57.4256 786.927 49.3643 M794.381 66.9452 Q794.381 78.5308 789.236 84.1616 Q784.092 89.8329 773.478 89.8329 Q769.549 89.8329 766.065 89.2252 Q762.581 88.6581 759.3 87.4428 L759.3 80.1917 Q762.581 81.9741 765.781 82.8248 Q768.982 83.6755 772.303 83.6755 Q779.636 83.6755 783.281 79.8271 Q786.927 76.0193 786.927 68.282 L786.927 64.5957 Q784.618 68.6061 781.013 70.5911 Q777.408 72.576 772.384 72.576 Q764.04 72.576 758.935 66.2161 Q753.831 59.8562 753.831 49.3643 Q753.831 38.832 758.935 32.472 Q764.04 26.1121 772.384 26.1121 Q777.408 26.1121 781.013 28.0971 Q784.618 30.082 786.927 34.0924 L786.927 27.2059 L794.381 27.2059 L794.381 66.9452 Z" fill="#000000" fill-rule="nonzero" fill-opacity="1" /><path clip-path="url(#clip670)" d="M809.734 27.2059 L817.187 27.2059 L817.187 72.576 L809.734 72.576 L809.734 27.2059 M809.734 9.54393 L817.187 9.54393 L817.187 18.9825 L809.734 18.9825 L809.734 9.54393 Z" fill="#000000" fill-rule="nonzero" fill-opacity="1" /><path clip-path="url(#clip670)" d="M870.497 45.1919 L870.497 72.576 L863.044 72.576 L863.044 45.4349 Q863.044 38.994 860.532 35.7938 Q858.021 32.5936 852.997 32.5936 Q846.962 32.5936 843.478 36.4419 Q839.994 40.2903 839.994 46.9338 L839.994 72.576 L832.5 72.576 L832.5 27.2059 L839.994 27.2059 L839.994 34.2544 Q842.668 30.163 846.273 28.1376 Q849.919 26.1121 854.658 26.1121 Q862.477 26.1121 866.487 30.9732 Q870.497 35.7938 870.497 45.1919 Z" fill="#000000" fill-rule="nonzero" fill-opacity="1" /><path clip-path="url(#clip670)" d="M915.219 49.3643 Q915.219 41.2625 911.857 36.8065 Q908.535 32.3505 902.499 32.3505 Q896.504 32.3505 893.142 36.8065 Q889.82 41.2625 889.82 49.3643 Q889.82 57.4256 893.142 61.8816 Q896.504 66.3376 902.499 66.3376 Q908.535 66.3376 911.857 61.8816 Q915.219 57.4256 915.219 49.3643 M922.673 66.9452 Q922.673 78.5308 917.528 84.1616 Q912.384 89.8329 901.77 89.8329 Q897.841 89.8329 894.357 89.2252 Q890.873 88.6581 887.592 87.4428 L887.592 80.1917 Q890.873 81.9741 894.074 82.8248 Q897.274 83.6755 900.596 83.6755 Q907.928 83.6755 911.574 79.8271 Q915.219 76.0193 915.219 68.282 L915.219 64.5957 Q912.91 68.6061 909.305 70.5911 Q905.7 72.576 900.677 72.576 Q892.332 72.576 887.228 66.2161 Q882.123 59.8562 882.123 49.3643 Q882.123 38.832 887.228 32.472 Q892.332 26.1121 900.677 26.1121 Q905.7 26.1121 909.305 28.0971 Q912.91 30.082 915.219 34.0924 L915.219 27.2059 L922.673 27.2059 L922.673 66.9452 Z" fill="#000000" fill-rule="nonzero" fill-opacity="1" /><path clip-path="url(#clip670)" d="M978.859 73.7508 Q962.048 73.7508 962.048 49.6884 Q962.048 40.1688 968.327 27.2059 L976.347 27.2059 Q970.555 40.1688 970.555 49.8909 Q970.555 67.4314 979.548 67.4314 Q987.771 67.4314 987.771 45.6375 L994.658 45.6375 Q994.658 67.4314 1002.88 67.4314 Q1011.87 67.4314 1011.87 49.8909 Q1011.87 40.1688 1006.08 27.2059 L1014.1 27.2059 Q1020.38 40.1688 1020.38 49.6884 Q1020.38 73.7508 1003.57 73.7508 Q992.551 73.7508 991.214 61.6386 Q989.553 73.7508 978.859 73.7508 Z" fill="#000000" fill-rule="nonzero" fill-opacity="1" /><path clip-path="url(#clip670)" d="M1068.34 86.3491 L1068.34 92.1419 L1025.24 92.1419 L1025.24 86.3491 L1068.34 86.3491 Z" fill="#000000" fill-rule="nonzero" fill-opacity="1" /><path clip-path="url(#clip670)" d="M1095.97 49.7694 Q1086.94 49.7694 1083.45 51.8354 Q1079.97 53.9013 1079.97 58.8839 Q1079.97 62.8538 1082.56 65.2034 Q1085.2 67.5124 1089.69 67.5124 Q1095.89 67.5124 1099.62 63.1374 Q1103.38 58.7219 1103.38 51.4303 L1103.38 49.7694 L1095.97 49.7694 M1110.84 46.6907 L1110.84 72.576 L1103.38 72.576 L1103.38 65.6895 Q1100.83 69.8214 1097.02 71.8063 Q1093.22 73.7508 1087.71 73.7508 Q1080.74 73.7508 1076.61 69.8619 Q1072.52 65.9325 1072.52 59.3701 Q1072.52 51.7138 1077.62 47.825 Q1082.76 43.9361 1092.93 43.9361 L1103.38 43.9361 L1103.38 43.2069 Q1103.38 38.0623 1099.98 35.2672 Q1096.62 32.4315 1090.5 32.4315 Q1086.61 32.4315 1082.93 33.3632 Q1079.24 34.295 1075.84 36.1584 L1075.84 29.2718 Q1079.93 27.692 1083.78 26.9223 Q1087.63 26.1121 1091.27 26.1121 Q1101.12 26.1121 1105.98 31.2163 Q1110.84 36.3204 1110.84 46.6907 Z" fill="#000000" fill-rule="nonzero" fill-opacity="1" /><path clip-path="url(#clip670)" d="M1158.76 49.9314 Q1158.76 41.7081 1155.36 37.0496 Q1151.99 32.3505 1146.08 32.3505 Q1140.17 32.3505 1136.76 37.0496 Q1133.4 41.7081 1133.4 49.9314 Q1133.4 58.1548 1136.76 62.8538 Q1140.17 67.5124 1146.08 67.5124 Q1151.99 67.5124 1155.36 62.8538 Q1158.76 58.1548 1158.76 49.9314 M1133.4 34.0924 Q1135.75 30.0415 1139.32 28.0971 Q1142.92 26.1121 1147.9 26.1121 Q1156.17 26.1121 1161.31 32.6746 Q1166.5 39.2371 1166.5 49.9314 Q1166.5 60.6258 1161.31 67.1883 Q1156.17 73.7508 1147.9 73.7508 Q1142.92 73.7508 1139.32 71.8063 Q1135.75 69.8214 1133.4 65.7705 L1133.4 72.576 L1125.91 72.576 L1125.91 9.54393 L1133.4 9.54393 L1133.4 34.0924 Z" fill="#000000" fill-rule="nonzero" fill-opacity="1" /><path clip-path="url(#clip670)" d="M1200.89 27.2059 L1208.34 27.2059 L1217.66 62.6108 L1226.94 27.2059 L1235.73 27.2059 L1245.04 62.6108 L1254.32 27.2059 L1261.77 27.2059 L1249.91 72.576 L1241.11 72.576 L1231.35 35.3887 L1221.55 72.576 L1212.76 72.576 L1200.89 27.2059 Z" fill="#000000" fill-rule="nonzero" fill-opacity="1" /><path clip-path="url(#clip670)" d="M1310.79 45.1919 L1310.79 72.576 L1303.34 72.576 L1303.34 45.4349 Q1303.34 38.994 1300.82 35.7938 Q1298.31 32.5936 1293.29 32.5936 Q1287.25 32.5936 1283.77 36.4419 Q1280.29 40.2903 1280.29 46.9338 L1280.29 72.576 L1272.79 72.576 L1272.79 9.54393 L1280.29 9.54393 L1280.29 34.2544 Q1282.96 30.163 1286.57 28.1376 Q1290.21 26.1121 1294.95 26.1121 Q1302.77 26.1121 1306.78 30.9732 Q1310.79 35.7938 1310.79 45.1919 Z" fill="#000000" fill-rule="nonzero" fill-opacity="1" /><path clip-path="url(#clip670)" d="M1364.46 48.0275 L1364.46 51.6733 L1330.19 51.6733 Q1330.68 59.3701 1334.81 63.421 Q1338.98 67.4314 1346.4 67.4314 Q1350.69 67.4314 1354.7 66.3781 Q1358.75 65.3249 1362.72 63.2184 L1362.72 70.267 Q1358.71 71.9684 1354.5 72.8596 Q1350.29 73.7508 1345.95 73.7508 Q1335.1 73.7508 1328.74 67.4314 Q1322.42 61.1119 1322.42 50.3365 Q1322.42 39.1965 1328.41 32.6746 Q1334.45 26.1121 1344.66 26.1121 Q1353.81 26.1121 1359.12 32.0264 Q1364.46 37.9003 1364.46 48.0275 M1357.01 45.84 Q1356.93 39.7232 1353.57 36.0774 Q1350.25 32.4315 1344.74 32.4315 Q1338.5 32.4315 1334.73 35.9558 Q1331 39.4801 1330.44 45.8805 L1357.01 45.84 Z" fill="#000000" fill-rule="nonzero" fill-opacity="1" /><path clip-path="url(#clip670)" d="M1414.41 45.1919 L1414.41 72.576 L1406.96 72.576 L1406.96 45.4349 Q1406.96 38.994 1404.45 35.7938 Q1401.94 32.5936 1396.91 32.5936 Q1390.88 32.5936 1387.39 36.4419 Q1383.91 40.2903 1383.91 46.9338 L1383.91 72.576 L1376.41 72.576 L1376.41 27.2059 L1383.91 27.2059 L1383.91 34.2544 Q1386.58 30.163 1390.19 28.1376 Q1393.83 26.1121 1398.57 26.1121 Q1406.39 26.1121 1410.4 30.9732 Q1414.41 35.7938 1414.41 45.1919 Z" fill="#000000" fill-rule="nonzero" fill-opacity="1" /><path clip-path="url(#clip670)" d="M1470.11 73.7508 Q1453.3 73.7508 1453.3 49.6884 Q1453.3 40.1688 1459.58 27.2059 L1467.6 27.2059 Q1461.81 40.1688 1461.81 49.8909 Q1461.81 67.4314 1470.8 67.4314 Q1479.02 67.4314 1479.02 45.6375 L1485.91 45.6375 Q1485.91 67.4314 1494.13 67.4314 Q1503.13 67.4314 1503.13 49.8909 Q1503.13 40.1688 1497.33 27.2059 L1505.36 27.2059 Q1511.63 40.1688 1511.63 49.6884 Q1511.63 73.7508 1494.82 73.7508 Q1483.8 73.7508 1482.47 61.6386 Q1480.81 73.7508 1470.11 73.7508 Z" fill="#000000" fill-rule="nonzero" fill-opacity="1" /><path clip-path="url(#clip670)" d="M1559.6 86.3491 L1559.6 92.1419 L1516.5 92.1419 L1516.5 86.3491 L1559.6 86.3491 Z" fill="#000000" fill-rule="nonzero" fill-opacity="1" /><path clip-path="url(#clip670)" d="M1592.9 34.1734 Q1591.64 33.4443 1590.14 33.1202 Q1588.68 32.7556 1586.9 32.7556 Q1580.58 32.7556 1577.18 36.8875 Q1573.82 40.9789 1573.82 48.6757 L1573.82 72.576 L1566.32 72.576 L1566.32 27.2059 L1573.82 27.2059 L1573.82 34.2544 Q1576.16 30.1225 1579.93 28.1376 Q1583.7 26.1121 1589.09 26.1121 Q1589.86 26.1121 1590.79 26.2337 Q1591.72 26.3147 1592.85 26.5172 L1592.9 34.1734 Z" fill="#000000" fill-rule="nonzero" fill-opacity="1" /><path clip-path="url(#clip670)" d="M1628.06 34.9026 L1679.99 34.9026 L1679.99 41.7081 L1628.06 41.7081 L1628.06 34.9026 M1628.06 51.4303 L1679.99 51.4303 L1679.99 58.3168 L1628.06 58.3168 L1628.06 51.4303 Z" fill="#000000" fill-rule="nonzero" fill-opacity="1" /><path clip-path="url(#clip670)" d="M1741.52 17.4837 Q1735.2 17.4837 1732 23.7221 Q1728.84 29.92 1728.84 42.3968 Q1728.84 54.833 1732 61.0714 Q1735.2 67.2693 1741.52 67.2693 Q1747.88 67.2693 1751.04 61.0714 Q1754.24 54.833 1754.24 42.3968 Q1754.24 29.92 1751.04 23.7221 Q1747.88 17.4837 1741.52 17.4837 M1741.52 11.0023 Q1751.69 11.0023 1757.04 19.0636 Q1762.43 27.0843 1762.43 42.3968 Q1762.43 57.6687 1757.04 65.73 Q1751.69 73.7508 1741.52 73.7508 Q1731.35 73.7508 1725.97 65.73 Q1720.62 57.6687 1720.62 42.3968 Q1720.62 27.0843 1725.97 19.0636 Q1731.35 11.0023 1741.52 11.0023 Z" fill="#000000" fill-rule="nonzero" fill-opacity="1" /><path clip-path="url(#clip670)" d="M1776.81 62.2867 L1785.35 62.2867 L1785.35 72.576 L1776.81 72.576 L1776.81 62.2867 Z" fill="#000000" fill-rule="nonzero" fill-opacity="1" /><path clip-path="url(#clip670)" d="M1820.68 17.4837 Q1814.36 17.4837 1811.16 23.7221 Q1808 29.92 1808 42.3968 Q1808 54.833 1811.16 61.0714 Q1814.36 67.2693 1820.68 67.2693 Q1827.04 67.2693 1830.2 61.0714 Q1833.4 54.833 1833.4 42.3968 Q1833.4 29.92 1830.2 23.7221 Q1827.04 17.4837 1820.68 17.4837 M1820.68 11.0023 Q1830.85 11.0023 1836.19 19.0636 Q1841.58 27.0843 1841.58 42.3968 Q1841.58 57.6687 1836.19 65.73 Q1830.85 73.7508 1820.68 73.7508 Q1810.51 73.7508 1805.12 65.73 Q1799.77 57.6687 1799.77 42.3968 Q1799.77 27.0843 1805.12 19.0636 Q1810.51 11.0023 1820.68 11.0023 Z" fill="#000000" fill-rule="nonzero" fill-opacity="1" /><path clip-path="url(#clip670)" d="M1873.46 17.4837 Q1867.14 17.4837 1863.94 23.7221 Q1860.78 29.92 1860.78 42.3968 Q1860.78 54.833 1863.94 61.0714 Q1867.14 67.2693 1873.46 67.2693 Q1879.82 67.2693 1882.98 61.0714 Q1886.18 54.833 1886.18 42.3968 Q1886.18 29.92 1882.98 23.7221 Q1879.82 17.4837 1873.46 17.4837 M1873.46 11.0023 Q1883.63 11.0023 1888.98 19.0636 Q1894.36 27.0843 1894.36 42.3968 Q1894.36 57.6687 1888.98 65.73 Q1883.63 73.7508 1873.46 73.7508 Q1863.29 73.7508 1857.91 65.73 Q1852.56 57.6687 1852.56 42.3968 Q1852.56 27.0843 1857.91 19.0636 Q1863.29 11.0023 1873.46 11.0023 Z" fill="#000000" fill-rule="nonzero" fill-opacity="1" /><path clip-path="url(#clip670)" d="M1926.24 17.4837 Q1919.92 17.4837 1916.72 23.7221 Q1913.56 29.92 1913.56 42.3968 Q1913.56 54.833 1916.72 61.0714 Q1919.92 67.2693 1926.24 67.2693 Q1932.6 67.2693 1935.76 61.0714 Q1938.96 54.833 1938.96 42.3968 Q1938.96 29.92 1935.76 23.7221 Q1932.6 17.4837 1926.24 17.4837 M1926.24 11.0023 Q1936.41 11.0023 1941.76 19.0636 Q1947.15 27.0843 1947.15 42.3968 Q1947.15 57.6687 1941.76 65.73 Q1936.41 73.7508 1926.24 73.7508 Q1916.08 73.7508 1910.69 65.73 Q1905.34 57.6687 1905.34 42.3968 Q1905.34 27.0843 1910.69 19.0636 Q1916.08 11.0023 1926.24 11.0023 Z" fill="#000000" fill-rule="nonzero" fill-opacity="1" /><path clip-path="url(#clip670)" d="M1979.03 17.4837 Q1972.71 17.4837 1969.51 23.7221 Q1966.35 29.92 1966.35 42.3968 Q1966.35 54.833 1969.51 61.0714 Q1972.71 67.2693 1979.03 67.2693 Q1985.39 67.2693 1988.55 61.0714 Q1991.75 54.833 1991.75 42.3968 Q1991.75 29.92 1988.55 23.7221 Q1985.39 17.4837 1979.03 17.4837 M1979.03 11.0023 Q1989.2 11.0023 1994.54 19.0636 Q1999.93 27.0843 1999.93 42.3968 Q1999.93 57.6687 1994.54 65.73 Q1989.2 73.7508 1979.03 73.7508 Q1968.86 73.7508 1963.47 65.73 Q1958.12 57.6687 1958.12 42.3968 Q1958.12 27.0843 1963.47 19.0636 Q1968.86 11.0023 1979.03 11.0023 Z" fill="#000000" fill-rule="nonzero" fill-opacity="1" /><path clip-path="url(#clip670)" d="M2015.73 65.6895 L2029.1 65.6895 L2029.1 19.5497 L2014.55 22.4663 L2014.55 15.0127 L2029.02 12.096 L2037.2 12.096 L2037.2 65.6895 L2050.57 65.6895 L2050.57 72.576 L2015.73 72.576 L2015.73 65.6895 Z" fill="#000000" fill-rule="nonzero" fill-opacity="1" /><path clip-path="url(#clip672)" d="M250.028 1396.92 L271.268 1383.79 L292.507 1383.79 L313.747 1370.67 L334.987 1370.67 L356.227 1357.54 L377.466 1357.54 L398.706 1357.54 L419.946 1344.41 L441.185 1344.41 L462.425 1344.41 L483.665 1331.28 L504.904 1331.28 L526.144 1331.28 L547.384 1331.28 L568.623 1318.15 L589.863 1318.15 L611.103 1318.15 L632.342 1318.15 L653.582 1318.15 L674.822 1305.02 L696.061 1305.02 L717.301 1305.02 L738.541 1305.02 L759.78 1305.02 L781.02 1291.9 L802.26 1291.9 L823.499 1291.9 L844.739 1291.9 L865.979 1291.9 L887.218 1291.9 L908.458 1278.77 L929.698 1278.77 L950.937 1278.77 L972.177 1278.77 L993.417 1278.77 L1014.66 1278.77 L1035.9 1265.64 L1057.14 1265.64 L1078.38 1265.64 L1099.62 1265.64 L1120.85 1265.64 L1142.09 1265.64 L1163.33 1265.64 L1184.57 1265.64 L1205.81 1252.51 L1227.05 1252.51 L1248.29 1252.51 L1269.53 1252.51 L1290.77 1252.51 L1312.01 1252.51 L1333.25 1252.51 L1354.49 1252.51 L1375.73 1239.38 L1396.97 1239.38 L1418.21 1239.38 L1439.45 1239.38 L1460.69 1239.38 L1481.93 1239.38 L1503.17 1239.38 L1524.41 1239.38 L1545.65 1239.38 L1566.89 1226.25 L1588.13 1226.25 L1609.37 1226.25 L1630.61 1226.25 L1651.85 1226.25 L1673.09 1226.25 L1694.33 1226.25 L1715.57 1226.25 L1736.81 1226.25 L1758.05 1213.13 L1779.28 1213.13 L1800.52 1213.13 L1821.76 1213.13 L1843 1213.13 L1864.24 1213.13 L1885.48 1213.13 L1906.72 1213.13 L1927.96 1213.13 L1949.2 1213.13 L1970.44 1213.13 L1991.68 1200 L2012.92 1200 L2034.16 1200 L2055.4 1200 L2076.64 1200 L2097.88 1200 L2119.12 1200 L2140.36 1200 L2161.6 1200 L2182.84 1200 L2204.08 1200 L2225.32 1186.87 L2246.56 1186.87 L2267.8 1186.87 L2289.04 1186.87 L2310.28 1186.87 L2331.52 1186.87 L2352.76 1186.87 L2352.76 1318.15 L2331.52 1318.15 L2310.28 1318.15 L2289.04 1318.15 L2267.8 1318.15 L2246.56 1318.15 L2225.32 1318.15 L2204.08 1318.15 L2182.84 1318.15 L2161.6 1318.15 L2140.36 1318.15 L2119.12 1331.28 L2097.88 1331.28 L2076.64 1331.28 L2055.4 1331.28 L2034.16 1331.28 L2012.92 1331.28 L1991.68 1331.28 L1970.44 1331.28 L1949.2 1331.28 L1927.96 1331.28 L1906.72 1331.28 L1885.48 1331.28 L1864.24 1331.28 L1843 1331.28 L1821.76 1331.28 L1800.52 1331.28 L1779.28 1331.28 L1758.05 1331.28 L1736.81 1331.28 L1715.57 1344.41 L1694.33 1344.41 L1673.09 1344.41 L1651.85 1344.41 L1630.61 1344.41 L1609.37 1344.41 L1588.13 1344.41 L1566.89 1344.41 L1545.65 1344.41 L1524.41 1344.41 L1503.17 1344.41 L1481.93 1344.41 L1460.69 1344.41 L1439.45 1344.41 L1418.21 1344.41 L1396.97 1344.41 L1375.73 1357.54 L1354.49 1357.54 L1333.25 1357.54 L1312.01 1357.54 L1290.77 1357.54 L1269.53 1357.54 L1248.29 1357.54 L1227.05 1357.54 L1205.81 1357.54 L1184.57 1357.54 L1163.33 1357.54 L1142.09 1357.54 L1120.85 1357.54 L1099.62 1357.54 L1078.38 1357.54 L1057.14 1370.67 L1035.9 1370.67 L1014.66 1370.67 L993.417 1370.67 L972.177 1370.67 L950.937 1370.67 L929.698 1370.67 L908.458 1370.67 L887.218 1370.67 L865.979 1370.67 L844.739 1370.67 L823.499 1370.67 L802.26 1383.79 L781.02 1383.79 L759.78 1383.79 L738.541 1383.79 L717.301 1383.79 L696.061 1383.79 L674.822 1383.79 L653.582 1383.79 L632.342 1383.79 L611.103 1383.79 L589.863 1396.92 L568.623 1396.92 L547.384 1396.92 L526.144 1396.92 L504.904 1396.92 L483.665 1396.92 L462.425 1396.92 L441.185 1410.05 L419.946 1410.05 L398.706 1410.05 L377.466 1410.05 L356.227 1410.05 L334.987 1410.05 L313.747 1423.18 L292.507 1423.18 L271.268 1423.18 L250.028 1423.18  Z" fill="#1f77b4" fill-rule="evenodd" fill-opacity="0.45"/>
<polyline clip-path="url(#clip672)" style="stroke:#1f77b4; stroke-linecap:round; stroke-linejoin:round; stroke-width:4; stroke-opacity:1; fill:none" points="250.028,1396.92 271.268,1383.79 292.507,1383.79 313.747,1370.67 334.987,1370.67 356.227,1357.54 377.466,1357.54 398.706,1357.54 419.946,1344.41 441.185,1344.41 462.425,1344.41 483.665,1331.28 504.904,1331.28 526.144,1331.28 547.384,1331.28 568.623,1318.15 589.863,1318.15 611.103,1318.15 632.342,1318.15 653.582,1318.15 674.822,1305.02 696.061,1305.02 717.301,1305.02 738.541,1305.02 759.78,1305.02 781.02,1291.9 802.26,1291.9 823.499,1291.9 844.739,1291.9 865.979,1291.9 887.218,1291.9 908.458,1278.77 929.698,1278.77 950.937,1278.77 972.177,1278.77 993.417,1278.77 1014.66,1278.77 1035.9,1265.64 1057.14,1265.64 1078.38,1265.64 1099.62,1265.64 1120.85,1265.64 1142.09,1265.64 1163.33,1265.64 1184.57,1265.64 1205.81,1252.51 1227.05,1252.51 1248.29,1252.51 1269.53,1252.51 1290.77,1252.51 1312.01,1252.51 1333.25,1252.51 1354.49,1252.51 1375.73,1239.38 1396.97,1239.38 1418.21,1239.38 1439.45,1239.38 1460.69,1239.38 1481.93,1239.38 1503.17,1239.38 1524.41,1239.38 1545.65,1239.38 1566.89,1226.25 1588.13,1226.25 1609.37,1226.25 1630.61,1226.25 1651.85,1226.25 1673.09,1226.25 1694.33,1226.25 1715.57,1226.25 1736.81,1226.25 1758.05,1213.13 1779.28,1213.13 1800.52,1213.13 1821.76,1213.13 1843,1213.13 1864.24,1213.13 1885.48,1213.13 1906.72,1213.13 1927.96,1213.13 1949.2,1213.13 1970.44,1213.13 1991.68,1200 2012.92,1200 2034.16,1200 2055.4,1200 2076.64,1200 2097.88,1200 2119.12,1200 2140.36,1200 2161.6,1200 2182.84,1200 2204.08,1200 2225.32,1186.87 2246.56,1186.87 2267.8,1186.87 2289.04,1186.87 2310.28,1186.87 2331.52,1186.87 2352.76,1186.87 "/>
<path clip-path="url(#clip672)" d="M250.028 1370.67 L271.268 1370.67 L292.507 1357.54 L313.747 1344.41 L334.987 1344.41 L356.227 1331.28 L377.466 1331.28 L398.706 1318.15 L419.946 1318.15 L441.185 1318.15 L462.425 1305.02 L483.665 1305.02 L504.904 1305.02 L526.144 1291.9 L547.384 1291.9 L568.623 1291.9 L589.863 1278.77 L611.103 1278.77 L632.342 1278.77 L653.582 1278.77 L674.822 1265.64 L696.061 1265.64 L717.301 1265.64 L738.541 1265.64 L759.78 1252.51 L781.02 1252.51 L802.26 1252.51 L823.499 1252.51 L844.739 1239.38 L865.979 1239.38 L887.218 1239.38 L908.458 1239.38 L929.698 1239.38 L950.937 1226.25 L972.177 1226.25 L993.417 1226.25 L1014.66 1226.25 L1035.9 1226.25 L1057.14 1213.13 L1078.38 1213.13 L1099.62 1213.13 L1120.85 1213.13 L1142.09 1213.13 L1163.33 1213.13 L1184.57 1200 L1205.81 1200 L1227.05 1200 L1248.29 1200 L1269.53 1200 L1290.77 1200 L1312.01 1200 L1333.25 1186.87 L1354.49 1186.87 L1375.73 1186.87 L1396.97 1186.87 L1418.21 1186.87 L1439.45 1186.87 L1460.69 1173.74 L1481.93 1173.74 L1503.17 1173.74 L1524.41 1173.74 L1545.65 1173.74 L1566.89 1173.74 L1588.13 1173.74 L1609.37 1173.74 L1630.61 1160.61 L1651.85 1160.61 L1673.09 1160.61 L1694.33 1160.61 L1715.57 1160.61 L1736.81 1160.61 L1758.05 1160.61 L1779.28 1160.61 L1800.52 1147.48 L1821.76 1147.48 L1843 1147.48 L1864.24 1147.48 L1885.48 1147.48 L1906.72 1147.48 L1927.96 1147.48 L1949.2 1147.48 L1970.44 1134.36 L1991.68 1134.36 L2012.92 1134.36 L2034.16 1134.36 L2055.4 1134.36 L2076.64 1134.36 L2097.88 1134.36 L2119.12 1134.36 L2140.36 1134.36 L2161.6 1121.23 L2182.84 1121.23 L2204.08 1121.23 L2225.32 1121.23 L2246.56 1121.23 L2267.8 1121.23 L2289.04 1121.23 L2310.28 1121.23 L2331.52 1121.23 L2352.76 1108.1 L2352.76 1265.64 L2331.52 1278.77 L2310.28 1278.77 L2289.04 1278.77 L2267.8 1278.77 L2246.56 1278.77 L2225.32 1278.77 L2204.08 1278.77 L2182.84 1278.77 L2161.6 1278.77 L2140.36 1278.77 L2119.12 1278.77 L2097.88 1278.77 L2076.64 1278.77 L2055.4 1278.77 L2034.16 1278.77 L2012.92 1291.9 L1991.68 1291.9 L1970.44 1291.9 L1949.2 1291.9 L1927.96 1291.9 L1906.72 1291.9 L1885.48 1291.9 L1864.24 1291.9 L1843 1291.9 L1821.76 1291.9 L1800.52 1291.9 L1779.28 1291.9 L1758.05 1291.9 L1736.81 1291.9 L1715.57 1305.02 L1694.33 1305.02 L1673.09 1305.02 L1651.85 1305.02 L1630.61 1305.02 L1609.37 1305.02 L1588.13 1305.02 L1566.89 1305.02 L1545.65 1305.02 L1524.41 1305.02 L1503.17 1305.02 L1481.93 1305.02 L1460.69 1318.15 L1439.45 1318.15 L1418.21 1318.15 L1396.97 1318.15 L1375.73 1318.15 L1354.49 1318.15 L1333.25 1318.15 L1312.01 1318.15 L1290.77 1318.15 L1269.53 1318.15 L1248.29 1318.15 L1227.05 1331.28 L1205.81 1331.28 L1184.57 1331.28 L1163.33 1331.28 L1142.09 1331.28 L1120.85 1331.28 L1099.62 1331.28 L1078.38 1331.28 L1057.14 1331.28 L1035.9 1331.28 L1014.66 1344.41 L993.417 1344.41 L972.177 1344.41 L950.937 1344.41 L929.698 1344.41 L908.458 1344.41 L887.218 1344.41 L865.979 1344.41 L844.739 1344.41 L823.499 1357.54 L802.26 1357.54 L781.02 1357.54 L759.78 1357.54 L738.541 1357.54 L717.301 1357.54 L696.061 1357.54 L674.822 1357.54 L653.582 1370.67 L632.342 1370.67 L611.103 1370.67 L589.863 1370.67 L568.623 1370.67 L547.384 1370.67 L526.144 1383.79 L504.904 1383.79 L483.665 1383.79 L462.425 1383.79 L441.185 1383.79 L419.946 1383.79 L398.706 1396.92 L377.466 1396.92 L356.227 1396.92 L334.987 1396.92 L313.747 1410.05 L292.507 1410.05 L271.268 1410.05 L250.028 1423.18  Z" fill="#ff7e0d" fill-rule="evenodd" fill-opacity="0.45"/>
<polyline clip-path="url(#clip672)" style="stroke:#ff7e0d; stroke-linecap:round; stroke-linejoin:round; stroke-width:4; stroke-opacity:1; fill:none" points="250.028,1370.67 271.268,1370.67 292.507,1357.54 313.747,1344.41 334.987,1344.41 356.227,1331.28 377.466,1331.28 398.706,1318.15 419.946,1318.15 441.185,1318.15 462.425,1305.02 483.665,1305.02 504.904,1305.02 526.144,1291.9 547.384,1291.9 568.623,1291.9 589.863,1278.77 611.103,1278.77 632.342,1278.77 653.582,1278.77 674.822,1265.64 696.061,1265.64 717.301,1265.64 738.541,1265.64 759.78,1252.51 781.02,1252.51 802.26,1252.51 823.499,1252.51 844.739,1239.38 865.979,1239.38 887.218,1239.38 908.458,1239.38 929.698,1239.38 950.937,1226.25 972.177,1226.25 993.417,1226.25 1014.66,1226.25 1035.9,1226.25 1057.14,1213.13 1078.38,1213.13 1099.62,1213.13 1120.85,1213.13 1142.09,1213.13 1163.33,1213.13 1184.57,1200 1205.81,1200 1227.05,1200 1248.29,1200 1269.53,1200 1290.77,1200 1312.01,1200 1333.25,1186.87 1354.49,1186.87 1375.73,1186.87 1396.97,1186.87 1418.21,1186.87 1439.45,1186.87 1460.69,1173.74 1481.93,1173.74 1503.17,1173.74 1524.41,1173.74 1545.65,1173.74 1566.89,1173.74 1588.13,1173.74 1609.37,1173.74 1630.61,1160.61 1651.85,1160.61 1673.09,1160.61 1694.33,1160.61 1715.57,1160.61 1736.81,1160.61 1758.05,1160.61 1779.28,1160.61 1800.52,1147.48 1821.76,1147.48 1843,1147.48 1864.24,1147.48 1885.48,1147.48 1906.72,1147.48 1927.96,1147.48 1949.2,1147.48 1970.44,1134.36 1991.68,1134.36 2012.92,1134.36 2034.16,1134.36 2055.4,1134.36 2076.64,1134.36 2097.88,1134.36 2119.12,1134.36 2140.36,1134.36 2161.6,1121.23 2182.84,1121.23 2204.08,1121.23 2225.32,1121.23 2246.56,1121.23 2267.8,1121.23 2289.04,1121.23 2310.28,1121.23 2331.52,1121.23 2352.76,1108.1 "/>
<path clip-path="url(#clip672)" d="M250.028 1357.54 L271.268 1344.41 L292.507 1331.28 L313.747 1318.15 L334.987 1305.02 L356.227 1305.02 L377.466 1291.9 L398.706 1291.9 L419.946 1278.77 L441.185 1278.77 L462.425 1265.64 L483.665 1265.64 L504.904 1252.51 L526.144 1252.51 L547.384 1239.38 L568.623 1239.38 L589.863 1239.38 L611.103 1226.25 L632.342 1226.25 L653.582 1226.25 L674.822 1213.13 L696.061 1213.13 L717.301 1213.13 L738.541 1200 L759.78 1200 L781.02 1200 L802.26 1200 L823.499 1186.87 L844.739 1186.87 L865.979 1186.87 L887.218 1186.87 L908.458 1173.74 L929.698 1173.74 L950.937 1173.74 L972.177 1173.74 L993.417 1160.61 L1014.66 1160.61 L1035.9 1160.61 L1057.14 1160.61 L1078.38 1147.48 L1099.62 1147.48 L1120.85 1147.48 L1142.09 1147.48 L1163.33 1147.48 L1184.57 1134.36 L1205.81 1134.36 L1227.05 1134.36 L1248.29 1134.36 L1269.53 1134.36 L1290.77 1121.23 L1312.01 1121.23 L1333.25 1121.23 L1354.49 1121.23 L1375.73 1121.23 L1396.97 1108.1 L1418.21 1108.1 L1439.45 1108.1 L1460.69 1108.1 L1481.93 1108.1 L1503.17 1094.97 L1524.41 1094.97 L1545.65 1094.97 L1566.89 1094.97 L1588.13 1094.97 L1609.37 1094.97 L1630.61 1081.84 L1651.85 1081.84 L1673.09 1081.84 L1694.33 1081.84 L1715.57 1081.84 L1736.81 1081.84 L1758.05 1081.84 L1779.28 1068.71 L1800.52 1068.71 L1821.76 1068.71 L1843 1068.71 L1864.24 1068.71 L1885.48 1068.71 L1906.72 1055.59 L1927.96 1055.59 L1949.2 1055.59 L1970.44 1055.59 L1991.68 1055.59 L2012.92 1055.59 L2034.16 1055.59 L2055.4 1042.46 L2076.64 1042.46 L2097.88 1042.46 L2119.12 1042.46 L2140.36 1042.46 L2161.6 1042.46 L2182.84 1042.46 L2204.08 1042.46 L2225.32 1029.33 L2246.56 1029.33 L2267.8 1029.33 L2289.04 1029.33 L2310.28 1029.33 L2331.52 1029.33 L2352.76 1029.33 L2352.76 1213.13 L2331.52 1213.13 L2310.28 1213.13 L2289.04 1213.13 L2267.8 1213.13 L2246.56 1213.13 L2225.32 1213.13 L2204.08 1213.13 L2182.84 1213.13 L2161.6 1226.25 L2140.36 1226.25 L2119.12 1226.25 L2097.88 1226.25 L2076.64 1226.25 L2055.4 1226.25 L2034.16 1226.25 L2012.92 1226.25 L1991.68 1226.25 L1970.44 1226.25 L1949.2 1239.38 L1927.96 1239.38 L1906.72 1239.38 L1885.48 1239.38 L1864.24 1239.38 L1843 1239.38 L1821.76 1239.38 L1800.52 1239.38 L1779.28 1239.38 L1758.05 1239.38 L1736.81 1252.51 L1715.57 1252.51 L1694.33 1252.51 L1673.09 1252.51 L1651.85 1252.51 L1630.61 1252.51 L1609.37 1252.51 L1588.13 1252.51 L1566.89 1252.51 L1545.65 1252.51 L1524.41 1265.64 L1503.17 1265.64 L1481.93 1265.64 L1460.69 1265.64 L1439.45 1265.64 L1418.21 1265.64 L1396.97 1265.64 L1375.73 1265.64 L1354.49 1278.77 L1333.25 1278.77 L1312.01 1278.77 L1290.77 1278.77 L1269.53 1278.77 L1248.29 1278.77 L1227.05 1278.77 L1205.81 1278.77 L1184.57 1291.9 L1163.33 1291.9 L1142.09 1291.9 L1120.85 1291.9 L1099.62 1291.9 L1078.38 1291.9 L1057.14 1291.9 L1035.9 1291.9 L1014.66 1305.02 L993.417 1305.02 L972.177 1305.02 L950.937 1305.02 L929.698 1305.02 L908.458 1305.02 L887.218 1318.15 L865.979 1318.15 L844.739 1318.15 L823.499 1318.15 L802.26 1318.15 L781.02 1318.15 L759.78 1331.28 L738.541 1331.28 L717.301 1331.28 L696.061 1331.28 L674.822 1331.28 L653.582 1331.28 L632.342 1344.41 L611.103 1344.41 L589.863 1344.41 L568.623 1344.41 L547.384 1344.41 L526.144 1357.54 L504.904 1357.54 L483.665 1357.54 L462.425 1357.54 L441.185 1370.67 L419.946 1370.67 L398.706 1370.67 L377.466 1370.67 L356.227 1383.79 L334.987 1383.79 L313.747 1383.79 L292.507 1396.92 L271.268 1396.92 L250.028 1410.05  Z" fill="#2ba02b" fill-rule="evenodd" fill-opacity="0.45"/>
<polyline clip-path="url(#clip672)" style="stroke:#2ba02b; stroke-linecap:round; stroke-linejoin:round; stroke-width:4; stroke-opacity:1; fill:none" points="250.028,1357.54 271.268,1344.41 292.507,1331.28 313.747,1318.15 334.987,1305.02 356.227,1305.02 377.466,1291.9 398.706,1291.9 419.946,1278.77 441.185,1278.77 462.425,1265.64 483.665,1265.64 504.904,1252.51 526.144,1252.51 547.384,1239.38 568.623,1239.38 589.863,1239.38 611.103,1226.25 632.342,1226.25 653.582,1226.25 674.822,1213.13 696.061,1213.13 717.301,1213.13 738.541,1200 759.78,1200 781.02,1200 802.26,1200 823.499,1186.87 844.739,1186.87 865.979,1186.87 887.218,1186.87 908.458,1173.74 929.698,1173.74 950.937,1173.74 972.177,1173.74 993.417,1160.61 1014.66,1160.61 1035.9,1160.61 1057.14,1160.61 1078.38,1147.48 1099.62,1147.48 1120.85,1147.48 1142.09,1147.48 1163.33,1147.48 1184.57,1134.36 1205.81,1134.36 1227.05,1134.36 1248.29,1134.36 1269.53,1134.36 1290.77,1121.23 1312.01,1121.23 1333.25,1121.23 1354.49,1121.23 1375.73,1121.23 1396.97,1108.1 1418.21,1108.1 1439.45,1108.1 1460.69,1108.1 1481.93,1108.1 1503.17,1094.97 1524.41,1094.97 1545.65,1094.97 1566.89,1094.97 1588.13,1094.97 1609.37,1094.97 1630.61,1081.84 1651.85,1081.84 1673.09,1081.84 1694.33,1081.84 1715.57,1081.84 1736.81,1081.84 1758.05,1081.84 1779.28,1068.71 1800.52,1068.71 1821.76,1068.71 1843,1068.71 1864.24,1068.71 1885.48,1068.71 1906.72,1055.59 1927.96,1055.59 1949.2,1055.59 1970.44,1055.59 1991.68,1055.59 2012.92,1055.59 2034.16,1055.59 2055.4,1042.46 2076.64,1042.46 2097.88,1042.46 2119.12,1042.46 2140.36,1042.46 2161.6,1042.46 2182.84,1042.46 2204.08,1042.46 2225.32,1029.33 2246.56,1029.33 2267.8,1029.33 2289.04,1029.33 2310.28,1029.33 2331.52,1029.33 2352.76,1029.33 "/>
<path clip-path="url(#clip672)" d="M250.028 1318.15 L271.268 1305.02 L292.507 1291.9 L313.747 1278.77 L334.987 1265.64 L356.227 1252.51 L377.466 1252.51 L398.706 1239.38 L419.946 1226.25 L441.185 1226.25 L462.425 1213.13 L483.665 1213.13 L504.904 1200 L526.144 1200 L547.384 1186.87 L568.623 1186.87 L589.863 1173.74 L611.103 1173.74 L632.342 1160.61 L653.582 1160.61 L674.822 1147.48 L696.061 1147.48 L717.301 1147.48 L738.541 1134.36 L759.78 1134.36 L781.02 1134.36 L802.26 1121.23 L823.499 1121.23 L844.739 1121.23 L865.979 1108.1 L887.218 1108.1 L908.458 1108.1 L929.698 1094.97 L950.937 1094.97 L972.177 1094.97 L993.417 1081.84 L1014.66 1081.84 L1035.9 1081.84 L1057.14 1081.84 L1078.38 1068.71 L1099.62 1068.71 L1120.85 1068.71 L1142.09 1055.59 L1163.33 1055.59 L1184.57 1055.59 L1205.81 1055.59 L1227.05 1042.46 L1248.29 1042.46 L1269.53 1042.46 L1290.77 1042.46 L1312.01 1029.33 L1333.25 1029.33 L1354.49 1029.33 L1375.73 1029.33 L1396.97 1016.2 L1418.21 1016.2 L1439.45 1016.2 L1460.69 1016.2 L1481.93 1016.2 L1503.17 1003.07 L1524.41 1003.07 L1545.65 1003.07 L1566.89 1003.07 L1588.13 989.944 L1609.37 989.944 L1630.61 989.944 L1651.85 989.944 L1673.09 989.944 L1694.33 976.816 L1715.57 976.816 L1736.81 976.816 L1758.05 976.816 L1779.28 976.816 L1800.52 963.687 L1821.76 963.687 L1843 963.687 L1864.24 963.687 L1885.48 963.687 L1906.72 963.687 L1927.96 950.559 L1949.2 950.559 L1970.44 950.559 L1991.68 950.559 L2012.92 950.559 L2034.16 937.43 L2055.4 937.43 L2076.64 937.43 L2097.88 937.43 L2119.12 937.43 L2140.36 937.43 L2161.6 924.302 L2182.84 924.302 L2204.08 924.302 L2225.32 924.302 L2246.56 924.302 L2267.8 924.302 L2289.04 911.174 L2310.28 911.174 L2331.52 911.174 L2352.76 911.174 L2352.76 1134.36 L2331.52 1134.36 L2310.28 1134.36 L2289.04 1134.36 L2267.8 1134.36 L2246.56 1134.36 L2225.32 1134.36 L2204.08 1134.36 L2182.84 1147.48 L2161.6 1147.48 L2140.36 1147.48 L2119.12 1147.48 L2097.88 1147.48 L2076.64 1147.48 L2055.4 1147.48 L2034.16 1147.48 L2012.92 1160.61 L1991.68 1160.61 L1970.44 1160.61 L1949.2 1160.61 L1927.96 1160.61 L1906.72 1160.61 L1885.48 1160.61 L1864.24 1160.61 L1843 1173.74 L1821.76 1173.74 L1800.52 1173.74 L1779.28 1173.74 L1758.05 1173.74 L1736.81 1173.74 L1715.57 1173.74 L1694.33 1186.87 L1673.09 1186.87 L1651.85 1186.87 L1630.61 1186.87 L1609.37 1186.87 L1588.13 1186.87 L1566.89 1186.87 L1545.65 1200 L1524.41 1200 L1503.17 1200 L1481.93 1200 L1460.69 1200 L1439.45 1200 L1418.21 1200 L1396.97 1213.13 L1375.73 1213.13 L1354.49 1213.13 L1333.25 1213.13 L1312.01 1213.13 L1290.77 1213.13 L1269.53 1226.25 L1248.29 1226.25 L1227.05 1226.25 L1205.81 1226.25 L1184.57 1226.25 L1163.33 1226.25 L1142.09 1239.38 L1120.85 1239.38 L1099.62 1239.38 L1078.38 1239.38 L1057.14 1239.38 L1035.9 1252.51 L1014.66 1252.51 L993.417 1252.51 L972.177 1252.51 L950.937 1252.51 L929.698 1265.64 L908.458 1265.64 L887.218 1265.64 L865.979 1265.64 L844.739 1265.64 L823.499 1278.77 L802.26 1278.77 L781.02 1278.77 L759.78 1278.77 L738.541 1278.77 L717.301 1291.9 L696.061 1291.9 L674.822 1291.9 L653.582 1291.9 L632.342 1305.02 L611.103 1305.02 L589.863 1305.02 L568.623 1318.15 L547.384 1318.15 L526.144 1318.15 L504.904 1318.15 L483.665 1331.28 L462.425 1331.28 L441.185 1331.28 L419.946 1344.41 L398.706 1344.41 L377.466 1357.54 L356.227 1357.54 L334.987 1357.54 L313.747 1370.67 L292.507 1370.67 L271.268 1383.79 L250.028 1396.92  Z" fill="#d52628" fill-rule="evenodd" fill-opacity="0.45"/>
<polyline clip-path="url(#clip672)" style="stroke:#d52628; stroke-linecap:round; stroke-linejoin:round; stroke-width:4; stroke-opacity:1; fill:none" points="250.028,1318.15 271.268,1305.02 292.507,1291.9 313.747,1278.77 334.987,1265.64 356.227,1252.51 377.466,1252.51 398.706,1239.38 419.946,1226.25 441.185,1226.25 462.425,1213.13 483.665,1213.13 504.904,1200 526.144,1200 547.384,1186.87 568.623,1186.87 589.863,1173.74 611.103,1173.74 632.342,1160.61 653.582,1160.61 674.822,1147.48 696.061,1147.48 717.301,1147.48 738.541,1134.36 759.78,1134.36 781.02,1134.36 802.26,1121.23 823.499,1121.23 844.739,1121.23 865.979,1108.1 887.218,1108.1 908.458,1108.1 929.698,1094.97 950.937,1094.97 972.177,1094.97 993.417,1081.84 1014.66,1081.84 1035.9,1081.84 1057.14,1081.84 1078.38,1068.71 1099.62,1068.71 1120.85,1068.71 1142.09,1055.59 1163.33,1055.59 1184.57,1055.59 1205.81,1055.59 1227.05,1042.46 1248.29,1042.46 1269.53,1042.46 1290.77,1042.46 1312.01,1029.33 1333.25,1029.33 1354.49,1029.33 1375.73,1029.33 1396.97,1016.2 1418.21,1016.2 1439.45,1016.2 1460.69,1016.2 1481.93,1016.2 1503.17,1003.07 1524.41,1003.07 1545.65,1003.07 1566.89,1003.07 1588.13,989.944 1609.37,989.944 1630.61,989.944 1651.85,989.944 1673.09,989.944 1694.33,976.816 1715.57,976.816 1736.81,976.816 1758.05,976.816 1779.28,976.816 1800.52,963.687 1821.76,963.687 1843,963.687 1864.24,963.687 1885.48,963.687 1906.72,963.687 1927.96,950.559 1949.2,950.559 1970.44,950.559 1991.68,950.559 2012.92,950.559 2034.16,937.43 2055.4,937.43 2076.64,937.43 2097.88,937.43 2119.12,937.43 2140.36,937.43 2161.6,924.302 2182.84,924.302 2204.08,924.302 2225.32,924.302 2246.56,924.302 2267.8,924.302 2289.04,911.174 2310.28,911.174 2331.52,911.174 2352.76,911.174 "/>
<path clip-path="url(#clip672)" d="M250.028 1291.9 L271.268 1265.64 L292.507 1252.51 L313.747 1226.25 L334.987 1213.13 L356.227 1200 L377.466 1186.87 L398.706 1186.87 L419.946 1173.74 L441.185 1160.61 L462.425 1147.48 L483.665 1147.48 L504.904 1134.36 L526.144 1121.23 L547.384 1121.23 L568.623 1108.1 L589.863 1094.97 L611.103 1094.97 L632.342 1081.84 L653.582 1081.84 L674.822 1068.71 L696.061 1068.71 L717.301 1055.59 L738.541 1055.59 L759.78 1042.46 L781.02 1042.46 L802.26 1042.46 L823.499 1029.33 L844.739 1029.33 L865.979 1016.2 L887.218 1016.2 L908.458 1003.07 L929.698 1003.07 L950.937 1003.07 L972.177 989.944 L993.417 989.944 L1014.66 989.944 L1035.9 976.816 L1057.14 976.816 L1078.38 976.816 L1099.62 963.687 L1120.85 963.687 L1142.09 963.687 L1163.33 950.559 L1184.57 950.559 L1205.81 950.559 L1227.05 937.43 L1248.29 937.43 L1269.53 937.43 L1290.77 924.302 L1312.01 924.302 L1333.25 924.302 L1354.49 911.174 L1375.73 911.174 L1396.97 911.174 L1418.21 911.174 L1439.45 898.045 L1460.69 898.045 L1481.93 898.045 L1503.17 884.917 L1524.41 884.917 L1545.65 884.917 L1566.89 884.917 L1588.13 871.789 L1609.37 871.789 L1630.61 871.789 L1651.85 871.789 L1673.09 858.66 L1694.33 858.66 L1715.57 858.66 L1736.81 858.66 L1758.05 845.532 L1779.28 845.532 L1800.52 845.532 L1821.76 845.532 L1843 832.404 L1864.24 832.404 L1885.48 832.404 L1906.72 832.404 L1927.96 819.275 L1949.2 819.275 L1970.44 819.275 L1991.68 819.275 L2012.92 819.275 L2034.16 806.147 L2055.4 806.147 L2076.64 806.147 L2097.88 806.147 L2119.12 793.019 L2140.36 793.019 L2161.6 793.019 L2182.84 793.019 L2204.08 793.019 L2225.32 779.89 L2246.56 779.89 L2267.8 779.89 L2289.04 779.89 L2310.28 779.89 L2331.52 766.762 L2352.76 766.762 L2352.76 1016.2 L2331.52 1016.2 L2310.28 1029.33 L2289.04 1029.33 L2267.8 1029.33 L2246.56 1029.33 L2225.32 1029.33 L2204.08 1029.33 L2182.84 1042.46 L2161.6 1042.46 L2140.36 1042.46 L2119.12 1042.46 L2097.88 1042.46 L2076.64 1042.46 L2055.4 1055.59 L2034.16 1055.59 L2012.92 1055.59 L1991.68 1055.59 L1970.44 1055.59 L1949.2 1055.59 L1927.96 1068.71 L1906.72 1068.71 L1885.48 1068.71 L1864.24 1068.71 L1843 1068.71 L1821.76 1068.71 L1800.52 1081.84 L1779.28 1081.84 L1758.05 1081.84 L1736.81 1081.84 L1715.57 1081.84 L1694.33 1094.97 L1673.09 1094.97 L1651.85 1094.97 L1630.61 1094.97 L1609.37 1094.97 L1588.13 1108.1 L1566.89 1108.1 L1545.65 1108.1 L1524.41 1108.1 L1503.17 1108.1 L1481.93 1121.23 L1460.69 1121.23 L1439.45 1121.23 L1418.21 1121.23 L1396.97 1121.23 L1375.73 1134.36 L1354.49 1134.36 L1333.25 1134.36 L1312.01 1134.36 L1290.77 1134.36 L1269.53 1147.48 L1248.29 1147.48 L1227.05 1147.48 L1205.81 1147.48 L1184.57 1160.61 L1163.33 1160.61 L1142.09 1160.61 L1120.85 1160.61 L1099.62 1173.74 L1078.38 1173.74 L1057.14 1173.74 L1035.9 1173.74 L1014.66 1186.87 L993.417 1186.87 L972.177 1186.87 L950.937 1186.87 L929.698 1200 L908.458 1200 L887.218 1200 L865.979 1200 L844.739 1213.13 L823.499 1213.13 L802.26 1213.13 L781.02 1226.25 L759.78 1226.25 L738.541 1226.25 L717.301 1239.38 L696.061 1239.38 L674.822 1239.38 L653.582 1252.51 L632.342 1252.51 L611.103 1252.51 L589.863 1265.64 L568.623 1265.64 L547.384 1265.64 L526.144 1278.77 L504.904 1278.77 L483.665 1291.9 L462.425 1291.9 L441.185 1305.02 L419.946 1305.02 L398.706 1318.15 L377.466 1318.15 L356.227 1331.28 L334.987 1331.28 L313.747 1344.41 L292.507 1357.54 L271.268 1357.54 L250.028 1370.67  Z" fill="#9466bd" fill-rule="evenodd" fill-opacity="0.45"/>
<polyline clip-path="url(#clip672)" style="stroke:#9466bd; stroke-linecap:round; stroke-linejoin:round; stroke-width:4; stroke-opacity:1; fill:none" points="250.028,1291.9 271.268,1265.64 292.507,1252.51 313.747,1226.25 334.987,1213.13 356.227,1200 377.466,1186.87 398.706,1186.87 419.946,1173.74 441.185,1160.61 462.425,1147.48 483.665,1147.48 504.904,1134.36 526.144,1121.23 547.384,1121.23 568.623,1108.1 589.863,1094.97 611.103,1094.97 632.342,1081.84 653.582,1081.84 674.822,1068.71 696.061,1068.71 717.301,1055.59 738.541,1055.59 759.78,1042.46 781.02,1042.46 802.26,1042.46 823.499,1029.33 844.739,1029.33 865.979,1016.2 887.218,1016.2 908.458,1003.07 929.698,1003.07 950.937,1003.07 972.177,989.944 993.417,989.944 1014.66,989.944 1035.9,976.816 1057.14,976.816 1078.38,976.816 1099.62,963.687 1120.85,963.687 1142.09,963.687 1163.33,950.559 1184.57,950.559 1205.81,950.559 1227.05,937.43 1248.29,937.43 1269.53,937.43 1290.77,924.302 1312.01,924.302 1333.25,924.302 1354.49,911.174 1375.73,911.174 1396.97,911.174 1418.21,911.174 1439.45,898.045 1460.69,898.045 1481.93,898.045 1503.17,884.917 1524.41,884.917 1545.65,884.917 1566.89,884.917 1588.13,871.789 1609.37,871.789 1630.61,871.789 1651.85,871.789 1673.09,858.66 1694.33,858.66 1715.57,858.66 1736.81,858.66 1758.05,845.532 1779.28,845.532 1800.52,845.532 1821.76,845.532 1843,832.404 1864.24,832.404 1885.48,832.404 1906.72,832.404 1927.96,819.275 1949.2,819.275 1970.44,819.275 1991.68,819.275 2012.92,819.275 2034.16,806.147 2055.4,806.147 2076.64,806.147 2097.88,806.147 2119.12,793.019 2140.36,793.019 2161.6,793.019 2182.84,793.019 2204.08,793.019 2225.32,779.89 2246.56,779.89 2267.8,779.89 2289.04,779.89 2310.28,779.89 2331.52,766.762 2352.76,766.762 "/>
<polyline clip-path="url(#clip672)" style="stroke:#000000; stroke-linecap:round; stroke-linejoin:round; stroke-width:4; stroke-opacity:1; fill:none" points="504.684,1387.94 900.048,1274.47 1282.21,1165.68 1624.79,1068.91 1903.38,990.769 2099.15,936.382 2199.81,908.82 2200.15,908.724 2128.12,934.239 1988.68,981.255 1782.37,1043.94 1538.76,1115.46 1323.92,1177.97 1083.41,1247.93 872.668,1309.14 704.341,1358.21 581.693,1393.71 505.753,1416.13 466.5,1427.52 454.6,1430.96 458.235,1429.91 466.203,1427.61 469.78,1426.58 463.813,1428.3 447.137,1433.12 422.311,1440.4 393.649,1448.75 367.407,1456.46 369.174,1455.93 399.076,1447.15 434.445,1436.83 469.913,1426.54 500.033,1417.79 520.625,1411.74 529.659,1409.04 527.272,1409.75 515.088,1413.4 495.434,1419.13 472.326,1425.84 449.327,1432.49 429.753,1438.2 415.298,1442.45 406.231,1445.07 402.105,1446.27 401.281,1446.51 401.73,1446.38 401.5,1446.44 399.152,1447.13 394.071,1448.62 386.416,1450.86 377.19,1453.53 368.309,1456.19 367.407,1456.46 368.362,1456.17 377.296,1453.5 385.972,1450.98 391.566,1449.37 391.59,1449.36 384.017,1451.55 367.931,1456.3 367.407,1456.46 "/>
<path clip-path="url(#clip670)" d="M1793.37 477.836 L2282.66 477.836 L2282.66 166.796 L1793.37 166.796  Z" fill="#ffffff" fill-rule="evenodd" fill-opacity="1"/>
<polyline clip-path="url(#clip670)" style="stroke:#000000; stroke-linecap:round; stroke-linejoin:round; stroke-width:4; stroke-opacity:1; fill:none" points="1793.37,477.836 2282.66,477.836 2282.66,166.796 1793.37,166.796 1793.37,477.836 "/>
<path clip-path="url(#clip670)" d="M1816.73 239.372 L1956.91 239.372 L1956.91 197.9 L1816.73 197.9 L1816.73 239.372  Z" fill="#1f77b4" fill-rule="evenodd" fill-opacity="0.45"/>
<polyline clip-path="url(#clip670)" style="stroke:#1f77b4; stroke-linecap:round; stroke-linejoin:round; stroke-width:4; stroke-opacity:1; fill:none" points="1816.73,197.9 1956.91,197.9 "/>
<path clip-path="url(#clip670)" d="M1992.22 204.434 Q1988.61 204.434 1986.78 207.999 Q1984.97 211.541 1984.97 218.67 Q1984.97 225.777 1986.78 229.342 Q1988.61 232.883 1992.22 232.883 Q1995.85 232.883 1997.66 229.342 Q1999.49 225.777 1999.49 218.67 Q1999.49 211.541 1997.66 207.999 Q1995.85 204.434 1992.22 204.434 M1992.22 200.731 Q1998.03 200.731 2001.09 205.337 Q2004.16 209.92 2004.16 218.67 Q2004.16 227.397 2001.09 232.004 Q1998.03 236.587 1992.22 236.587 Q1986.41 236.587 1983.33 232.004 Q1980.28 227.397 1980.28 218.67 Q1980.28 209.92 1983.33 205.337 Q1986.41 200.731 1992.22 200.731 Z" fill="#000000" fill-rule="nonzero" fill-opacity="1" /><path clip-path="url(#clip670)" d="M2012.38 230.036 L2017.27 230.036 L2017.27 235.916 L2012.38 235.916 L2012.38 230.036 Z" fill="#000000" fill-rule="nonzero" fill-opacity="1" /><path clip-path="url(#clip670)" d="M2037.45 204.434 Q2033.84 204.434 2032.01 207.999 Q2030.21 211.541 2030.21 218.67 Q2030.21 225.777 2032.01 229.342 Q2033.84 232.883 2037.45 232.883 Q2041.08 232.883 2042.89 229.342 Q2044.72 225.777 2044.72 218.67 Q2044.72 211.541 2042.89 207.999 Q2041.08 204.434 2037.45 204.434 M2037.45 200.731 Q2043.26 200.731 2046.32 205.337 Q2049.4 209.92 2049.4 218.67 Q2049.4 227.397 2046.32 232.004 Q2043.26 236.587 2037.45 236.587 Q2031.64 236.587 2028.56 232.004 Q2025.51 227.397 2025.51 218.67 Q2025.51 209.92 2028.56 205.337 Q2031.64 200.731 2037.45 200.731 Z" fill="#000000" fill-rule="nonzero" fill-opacity="1" /><path clip-path="url(#clip670)" d="M2067.61 204.434 Q2064 204.434 2062.17 207.999 Q2060.37 211.541 2060.37 218.67 Q2060.37 225.777 2062.17 229.342 Q2064 232.883 2067.61 232.883 Q2071.25 232.883 2073.05 229.342 Q2074.88 225.777 2074.88 218.67 Q2074.88 211.541 2073.05 207.999 Q2071.25 204.434 2067.61 204.434 M2067.61 200.731 Q2073.42 200.731 2076.48 205.337 Q2079.56 209.92 2079.56 218.67 Q2079.56 227.397 2076.48 232.004 Q2073.42 236.587 2067.61 236.587 Q2061.8 236.587 2058.72 232.004 Q2055.67 227.397 2055.67 218.67 Q2055.67 209.92 2058.72 205.337 Q2061.8 200.731 2067.61 200.731 Z" fill="#000000" fill-rule="nonzero" fill-opacity="1" /><path clip-path="url(#clip670)" d="M2097.77 219.504 Q2094.44 219.504 2092.52 221.286 Q2090.62 223.069 2090.62 226.194 Q2090.62 229.319 2092.52 231.101 Q2094.44 232.883 2097.77 232.883 Q2101.11 232.883 2103.03 231.101 Q2104.95 229.295 2104.95 226.194 Q2104.95 223.069 2103.03 221.286 Q2101.13 219.504 2097.77 219.504 M2093.1 217.513 Q2090.09 216.772 2088.4 214.712 Q2086.73 212.652 2086.73 209.689 Q2086.73 205.546 2089.67 203.138 Q2092.64 200.731 2097.77 200.731 Q2102.94 200.731 2105.88 203.138 Q2108.82 205.546 2108.82 209.689 Q2108.82 212.652 2107.13 214.712 Q2105.46 216.772 2102.47 217.513 Q2105.85 218.3 2107.73 220.592 Q2109.63 222.883 2109.63 226.194 Q2109.63 231.217 2106.55 233.902 Q2103.49 236.587 2097.77 236.587 Q2092.06 236.587 2088.98 233.902 Q2085.92 231.217 2085.92 226.194 Q2085.92 222.883 2087.82 220.592 Q2089.72 218.3 2093.1 217.513 M2091.39 210.129 Q2091.39 212.814 2093.05 214.319 Q2094.74 215.823 2097.77 215.823 Q2100.78 215.823 2102.47 214.319 Q2104.19 212.814 2104.19 210.129 Q2104.19 207.444 2102.47 205.939 Q2100.78 204.434 2097.77 204.434 Q2094.74 204.434 2093.05 205.939 Q2091.39 207.444 2091.39 210.129 Z" fill="#000000" fill-rule="nonzero" fill-opacity="1" /><path clip-path="url(#clip670)" d="M2118.08 235.198 L2118.08 230.939 Q2119.83 231.772 2121.64 232.212 Q2123.45 232.652 2125.18 232.652 Q2129.81 232.652 2132.24 229.55 Q2134.7 226.425 2135.04 220.082 Q2133.7 222.073 2131.64 223.138 Q2129.58 224.203 2127.08 224.203 Q2121.89 224.203 2118.86 221.078 Q2115.85 217.93 2115.85 212.49 Q2115.85 207.166 2119 203.948 Q2122.15 200.731 2127.38 200.731 Q2133.38 200.731 2136.52 205.337 Q2139.7 209.92 2139.7 218.67 Q2139.7 226.842 2135.81 231.726 Q2131.94 236.587 2125.39 236.587 Q2123.63 236.587 2121.83 236.24 Q2120.02 235.893 2118.08 235.198 M2127.38 220.545 Q2130.53 220.545 2132.36 218.393 Q2134.21 216.24 2134.21 212.49 Q2134.21 208.763 2132.36 206.61 Q2130.53 204.434 2127.38 204.434 Q2124.23 204.434 2122.38 206.61 Q2120.55 208.763 2120.55 212.49 Q2120.55 216.24 2122.38 218.393 Q2124.23 220.545 2127.38 220.545 Z" fill="#000000" fill-rule="nonzero" fill-opacity="1" /><path clip-path="url(#clip670)" d="M2148.91 231.981 L2156.55 231.981 L2156.55 205.615 L2148.24 207.282 L2148.24 203.022 L2156.5 201.356 L2161.18 201.356 L2161.18 231.981 L2168.82 231.981 L2168.82 235.916 L2148.91 235.916 L2148.91 231.981 Z" fill="#000000" fill-rule="nonzero" fill-opacity="1" /><path clip-path="url(#clip670)" d="M2182.29 231.981 L2198.61 231.981 L2198.61 235.916 L2176.66 235.916 L2176.66 231.981 Q2179.32 229.226 2183.91 224.596 Q2188.51 219.944 2189.7 218.601 Q2191.94 216.078 2192.82 214.342 Q2193.72 212.583 2193.72 210.893 Q2193.72 208.138 2191.78 206.402 Q2189.86 204.666 2186.76 204.666 Q2184.56 204.666 2182.1 205.43 Q2179.67 206.194 2176.89 207.745 L2176.89 203.022 Q2179.72 201.888 2182.17 201.309 Q2184.63 200.731 2186.66 200.731 Q2192.03 200.731 2195.23 203.416 Q2198.42 206.101 2198.42 210.592 Q2198.42 212.721 2197.61 214.643 Q2196.82 216.541 2194.72 219.133 Q2194.14 219.805 2191.04 223.022 Q2187.94 226.217 2182.29 231.981 Z" fill="#000000" fill-rule="nonzero" fill-opacity="1" /><path clip-path="url(#clip670)" d="M2208.47 201.356 L2226.82 201.356 L2226.82 205.291 L2212.75 205.291 L2212.75 213.763 Q2213.77 213.416 2214.79 213.254 Q2215.81 213.069 2216.82 213.069 Q2222.61 213.069 2225.99 216.24 Q2229.37 219.411 2229.37 224.828 Q2229.37 230.406 2225.9 233.508 Q2222.43 236.587 2216.11 236.587 Q2213.93 236.587 2211.66 236.217 Q2209.42 235.846 2207.01 235.106 L2207.01 230.406 Q2209.09 231.541 2211.32 232.096 Q2213.54 232.652 2216.01 232.652 Q2220.02 232.652 2222.36 230.545 Q2224.7 228.439 2224.7 224.828 Q2224.7 221.217 2222.36 219.11 Q2220.02 217.004 2216.01 217.004 Q2214.14 217.004 2212.26 217.42 Q2210.41 217.837 2208.47 218.717 L2208.47 201.356 Z" fill="#000000" fill-rule="nonzero" fill-opacity="1" /><path clip-path="url(#clip670)" d="M2239.39 231.981 L2247.03 231.981 L2247.03 205.615 L2238.72 207.282 L2238.72 203.022 L2246.99 201.356 L2251.66 201.356 L2251.66 231.981 L2259.3 231.981 L2259.3 235.916 L2239.39 235.916 L2239.39 231.981 Z" fill="#000000" fill-rule="nonzero" fill-opacity="1" /><path clip-path="url(#clip670)" d="M1816.73 291.212 L1956.91 291.212 L1956.91 249.74 L1816.73 249.74 L1816.73 291.212  Z" fill="#ff7e0d" fill-rule="evenodd" fill-opacity="0.45"/>
<polyline clip-path="url(#clip670)" style="stroke:#ff7e0d; stroke-linecap:round; stroke-linejoin:round; stroke-width:4; stroke-opacity:1; fill:none" points="1816.73,249.74 1956.91,249.74 "/>
<path clip-path="url(#clip670)" d="M1992.22 256.274 Q1988.61 256.274 1986.78 259.839 Q1984.97 263.381 1984.97 270.51 Q1984.97 277.617 1986.78 281.182 Q1988.61 284.723 1992.22 284.723 Q1995.85 284.723 1997.66 281.182 Q1999.49 277.617 1999.49 270.51 Q1999.49 263.381 1997.66 259.839 Q1995.85 256.274 1992.22 256.274 M1992.22 252.571 Q1998.03 252.571 2001.09 257.177 Q2004.16 261.76 2004.16 270.51 Q2004.16 279.237 2001.09 283.844 Q1998.03 288.427 1992.22 288.427 Q1986.41 288.427 1983.33 283.844 Q1980.28 279.237 1980.28 270.51 Q1980.28 261.76 1983.33 257.177 Q1986.41 252.571 1992.22 252.571 Z" fill="#000000" fill-rule="nonzero" fill-opacity="1" /><path clip-path="url(#clip670)" d="M2012.38 281.876 L2017.27 281.876 L2017.27 287.756 L2012.38 287.756 L2012.38 281.876 Z" fill="#000000" fill-rule="nonzero" fill-opacity="1" /><path clip-path="url(#clip670)" d="M2037.45 256.274 Q2033.84 256.274 2032.01 259.839 Q2030.21 263.381 2030.21 270.51 Q2030.21 277.617 2032.01 281.182 Q2033.84 284.723 2037.45 284.723 Q2041.08 284.723 2042.89 281.182 Q2044.72 277.617 2044.72 270.51 Q2044.72 263.381 2042.89 259.839 Q2041.08 256.274 2037.45 256.274 M2037.45 252.571 Q2043.26 252.571 2046.32 257.177 Q2049.4 261.76 2049.4 270.51 Q2049.4 279.237 2046.32 283.844 Q2043.26 288.427 2037.45 288.427 Q2031.64 288.427 2028.56 283.844 Q2025.51 279.237 2025.51 270.51 Q2025.51 261.76 2028.56 257.177 Q2031.64 252.571 2037.45 252.571 Z" fill="#000000" fill-rule="nonzero" fill-opacity="1" /><path clip-path="url(#clip670)" d="M2061.64 283.821 L2077.96 283.821 L2077.96 287.756 L2056.02 287.756 L2056.02 283.821 Q2058.68 281.066 2063.26 276.436 Q2067.87 271.784 2069.05 270.441 Q2071.29 267.918 2072.17 266.182 Q2073.08 264.423 2073.08 262.733 Q2073.08 259.978 2071.13 258.242 Q2069.21 256.506 2066.11 256.506 Q2063.91 256.506 2061.46 257.27 Q2059.02 258.034 2056.25 259.585 L2056.25 254.862 Q2059.07 253.728 2061.52 253.149 Q2063.98 252.571 2066.02 252.571 Q2071.39 252.571 2074.58 255.256 Q2077.77 257.941 2077.77 262.432 Q2077.77 264.561 2076.96 266.483 Q2076.18 268.381 2074.07 270.973 Q2073.49 271.645 2070.39 274.862 Q2067.29 278.057 2061.64 283.821 Z" fill="#000000" fill-rule="nonzero" fill-opacity="1" /><path clip-path="url(#clip670)" d="M2087.91 287.038 L2087.91 282.779 Q2089.67 283.612 2091.48 284.052 Q2093.28 284.492 2095.02 284.492 Q2099.65 284.492 2102.08 281.39 Q2104.53 278.265 2104.88 271.922 Q2103.54 273.913 2101.48 274.978 Q2099.42 276.043 2096.92 276.043 Q2091.73 276.043 2088.7 272.918 Q2085.69 269.77 2085.69 264.33 Q2085.69 259.006 2088.84 255.788 Q2091.99 252.571 2097.22 252.571 Q2103.21 252.571 2106.36 257.177 Q2109.53 261.76 2109.53 270.51 Q2109.53 278.682 2105.64 283.566 Q2101.78 288.427 2095.23 288.427 Q2093.47 288.427 2091.66 288.08 Q2089.86 287.733 2087.91 287.038 M2097.22 272.385 Q2100.37 272.385 2102.2 270.233 Q2104.05 268.08 2104.05 264.33 Q2104.05 260.603 2102.2 258.45 Q2100.37 256.274 2097.22 256.274 Q2094.07 256.274 2092.22 258.45 Q2090.39 260.603 2090.39 264.33 Q2090.39 268.08 2092.22 270.233 Q2094.07 272.385 2097.22 272.385 Z" fill="#000000" fill-rule="nonzero" fill-opacity="1" /><path clip-path="url(#clip670)" d="M2127.94 256.274 Q2124.33 256.274 2122.5 259.839 Q2120.69 263.381 2120.69 270.51 Q2120.69 277.617 2122.5 281.182 Q2124.33 284.723 2127.94 284.723 Q2131.57 284.723 2133.38 281.182 Q2135.2 277.617 2135.2 270.51 Q2135.2 263.381 2133.38 259.839 Q2131.57 256.274 2127.94 256.274 M2127.94 252.571 Q2133.75 252.571 2136.8 257.177 Q2139.88 261.76 2139.88 270.51 Q2139.88 279.237 2136.8 283.844 Q2133.75 288.427 2127.94 288.427 Q2122.13 288.427 2119.05 283.844 Q2115.99 279.237 2115.99 270.51 Q2115.99 261.76 2119.05 257.177 Q2122.13 252.571 2127.94 252.571 Z" fill="#000000" fill-rule="nonzero" fill-opacity="1" /><path clip-path="url(#clip670)" d="M2158.1 256.274 Q2154.49 256.274 2152.66 259.839 Q2150.85 263.381 2150.85 270.51 Q2150.85 277.617 2152.66 281.182 Q2154.49 284.723 2158.1 284.723 Q2161.73 284.723 2163.54 281.182 Q2165.37 277.617 2165.37 270.51 Q2165.37 263.381 2163.54 259.839 Q2161.73 256.274 2158.1 256.274 M2158.1 252.571 Q2163.91 252.571 2166.96 257.177 Q2170.04 261.76 2170.04 270.51 Q2170.04 279.237 2166.96 283.844 Q2163.91 288.427 2158.1 288.427 Q2152.29 288.427 2149.21 283.844 Q2146.15 279.237 2146.15 270.51 Q2146.15 261.76 2149.21 257.177 Q2152.29 252.571 2158.1 252.571 Z" fill="#000000" fill-rule="nonzero" fill-opacity="1" /><path clip-path="url(#clip670)" d="M2188.84 268.612 Q2185.69 268.612 2183.84 270.765 Q2182.01 272.918 2182.01 276.668 Q2182.01 280.395 2183.84 282.571 Q2185.69 284.723 2188.84 284.723 Q2191.99 284.723 2193.82 282.571 Q2195.67 280.395 2195.67 276.668 Q2195.67 272.918 2193.82 270.765 Q2191.99 268.612 2188.84 268.612 M2198.12 253.96 L2198.12 258.219 Q2196.36 257.386 2194.56 256.946 Q2192.77 256.506 2191.01 256.506 Q2186.39 256.506 2183.93 259.631 Q2181.5 262.756 2181.15 269.075 Q2182.52 267.061 2184.58 265.997 Q2186.64 264.909 2189.12 264.909 Q2194.32 264.909 2197.33 268.08 Q2200.37 271.228 2200.37 276.668 Q2200.37 281.992 2197.22 285.209 Q2194.07 288.427 2188.84 288.427 Q2182.84 288.427 2179.67 283.844 Q2176.5 279.237 2176.5 270.51 Q2176.5 262.316 2180.39 257.455 Q2184.28 252.571 2190.83 252.571 Q2192.59 252.571 2194.37 252.918 Q2196.18 253.265 2198.12 253.96 Z" fill="#000000" fill-rule="nonzero" fill-opacity="1" /><path clip-path="url(#clip670)" d="M2218.42 271.344 Q2215.09 271.344 2213.17 273.126 Q2211.27 274.909 2211.27 278.034 Q2211.27 281.159 2213.17 282.941 Q2215.09 284.723 2218.42 284.723 Q2221.76 284.723 2223.68 282.941 Q2225.6 281.135 2225.6 278.034 Q2225.6 274.909 2223.68 273.126 Q2221.78 271.344 2218.42 271.344 M2213.75 269.353 Q2210.74 268.612 2209.05 266.552 Q2207.38 264.492 2207.38 261.529 Q2207.38 257.386 2210.32 254.978 Q2213.28 252.571 2218.42 252.571 Q2223.58 252.571 2226.52 254.978 Q2229.46 257.386 2229.46 261.529 Q2229.46 264.492 2227.77 266.552 Q2226.11 268.612 2223.12 269.353 Q2226.5 270.14 2228.38 272.432 Q2230.27 274.723 2230.27 278.034 Q2230.27 283.057 2227.2 285.742 Q2224.14 288.427 2218.42 288.427 Q2212.7 288.427 2209.63 285.742 Q2206.57 283.057 2206.57 278.034 Q2206.57 274.723 2208.47 272.432 Q2210.37 270.14 2213.75 269.353 M2212.03 261.969 Q2212.03 264.654 2213.7 266.159 Q2215.39 267.663 2218.42 267.663 Q2221.43 267.663 2223.12 266.159 Q2224.83 264.654 2224.83 261.969 Q2224.83 259.284 2223.12 257.779 Q2221.43 256.274 2218.42 256.274 Q2215.39 256.274 2213.7 257.779 Q2212.03 259.284 2212.03 261.969 Z" fill="#000000" fill-rule="nonzero" fill-opacity="1" /><path clip-path="url(#clip670)" d="M1816.73 343.052 L1956.91 343.052 L1956.91 301.58 L1816.73 301.58 L1816.73 343.052  Z" fill="#2ba02b" fill-rule="evenodd" fill-opacity="0.45"/>
<polyline clip-path="url(#clip670)" style="stroke:#2ba02b; stroke-linecap:round; stroke-linejoin:round; stroke-width:4; stroke-opacity:1; fill:none" points="1816.73,301.58 1956.91,301.58 "/>
<path clip-path="url(#clip670)" d="M1992.22 308.114 Q1988.61 308.114 1986.78 311.679 Q1984.97 315.221 1984.97 322.35 Q1984.97 329.457 1986.78 333.022 Q1988.61 336.563 1992.22 336.563 Q1995.85 336.563 1997.66 333.022 Q1999.49 329.457 1999.49 322.35 Q1999.49 315.221 1997.66 311.679 Q1995.85 308.114 1992.22 308.114 M1992.22 304.411 Q1998.03 304.411 2001.09 309.017 Q2004.16 313.6 2004.16 322.35 Q2004.16 331.077 2001.09 335.684 Q1998.03 340.267 1992.22 340.267 Q1986.41 340.267 1983.33 335.684 Q1980.28 331.077 1980.28 322.35 Q1980.28 313.6 1983.33 309.017 Q1986.41 304.411 1992.22 304.411 Z" fill="#000000" fill-rule="nonzero" fill-opacity="1" /><path clip-path="url(#clip670)" d="M2012.38 333.716 L2017.27 333.716 L2017.27 339.596 L2012.38 339.596 L2012.38 333.716 Z" fill="#000000" fill-rule="nonzero" fill-opacity="1" /><path clip-path="url(#clip670)" d="M2037.45 308.114 Q2033.84 308.114 2032.01 311.679 Q2030.21 315.221 2030.21 322.35 Q2030.21 329.457 2032.01 333.022 Q2033.84 336.563 2037.45 336.563 Q2041.08 336.563 2042.89 333.022 Q2044.72 329.457 2044.72 322.35 Q2044.72 315.221 2042.89 311.679 Q2041.08 308.114 2037.45 308.114 M2037.45 304.411 Q2043.26 304.411 2046.32 309.017 Q2049.4 313.6 2049.4 322.35 Q2049.4 331.077 2046.32 335.684 Q2043.26 340.267 2037.45 340.267 Q2031.64 340.267 2028.56 335.684 Q2025.51 331.077 2025.51 322.35 Q2025.51 313.6 2028.56 309.017 Q2031.64 304.411 2037.45 304.411 Z" fill="#000000" fill-rule="nonzero" fill-opacity="1" /><path clip-path="url(#clip670)" d="M2057.75 338.878 L2057.75 334.619 Q2059.51 335.452 2061.32 335.892 Q2063.12 336.332 2064.86 336.332 Q2069.49 336.332 2071.92 333.23 Q2074.37 330.105 2074.72 323.762 Q2073.38 325.753 2071.32 326.818 Q2069.26 327.883 2066.76 327.883 Q2061.57 327.883 2058.54 324.758 Q2055.53 321.61 2055.53 316.17 Q2055.53 310.846 2058.68 307.628 Q2061.83 304.411 2067.06 304.411 Q2073.05 304.411 2076.2 309.017 Q2079.37 313.6 2079.37 322.35 Q2079.37 330.522 2075.48 335.406 Q2071.62 340.267 2065.07 340.267 Q2063.31 340.267 2061.5 339.92 Q2059.7 339.573 2057.75 338.878 M2067.06 324.225 Q2070.21 324.225 2072.03 322.073 Q2073.89 319.92 2073.89 316.17 Q2073.89 312.443 2072.03 310.29 Q2070.21 308.114 2067.06 308.114 Q2063.91 308.114 2062.06 310.29 Q2060.23 312.443 2060.23 316.17 Q2060.23 319.92 2062.06 322.073 Q2063.91 324.225 2067.06 324.225 Z" fill="#000000" fill-rule="nonzero" fill-opacity="1" /><path clip-path="url(#clip670)" d="M2100.62 309.11 L2088.82 327.559 L2100.62 327.559 L2100.62 309.11 M2099.39 305.036 L2105.27 305.036 L2105.27 327.559 L2110.2 327.559 L2110.2 331.448 L2105.27 331.448 L2105.27 339.596 L2100.62 339.596 L2100.62 331.448 L2085.02 331.448 L2085.02 326.934 L2099.39 305.036 Z" fill="#000000" fill-rule="nonzero" fill-opacity="1" /><path clip-path="url(#clip670)" d="M2130.78 309.11 L2118.98 327.559 L2130.78 327.559 L2130.78 309.11 M2129.56 305.036 L2135.44 305.036 L2135.44 327.559 L2140.37 327.559 L2140.37 331.448 L2135.44 331.448 L2135.44 339.596 L2130.78 339.596 L2130.78 331.448 L2115.18 331.448 L2115.18 326.934 L2129.56 305.036 Z" fill="#000000" fill-rule="nonzero" fill-opacity="1" /><path clip-path="url(#clip670)" d="M2158.1 308.114 Q2154.49 308.114 2152.66 311.679 Q2150.85 315.221 2150.85 322.35 Q2150.85 329.457 2152.66 333.022 Q2154.49 336.563 2158.1 336.563 Q2161.73 336.563 2163.54 333.022 Q2165.37 329.457 2165.37 322.35 Q2165.37 315.221 2163.54 311.679 Q2161.73 308.114 2158.1 308.114 M2158.1 304.411 Q2163.91 304.411 2166.96 309.017 Q2170.04 313.6 2170.04 322.35 Q2170.04 331.077 2166.96 335.684 Q2163.91 340.267 2158.1 340.267 Q2152.29 340.267 2149.21 335.684 Q2146.15 331.077 2146.15 322.35 Q2146.15 313.6 2149.21 309.017 Q2152.29 304.411 2158.1 304.411 Z" fill="#000000" fill-rule="nonzero" fill-opacity="1" /><path clip-path="url(#clip670)" d="M2188.84 320.452 Q2185.69 320.452 2183.84 322.605 Q2182.01 324.758 2182.01 328.508 Q2182.01 332.235 2183.84 334.411 Q2185.69 336.563 2188.84 336.563 Q2191.99 336.563 2193.82 334.411 Q2195.67 332.235 2195.67 328.508 Q2195.67 324.758 2193.82 322.605 Q2191.99 320.452 2188.84 320.452 M2198.12 305.8 L2198.12 310.059 Q2196.36 309.226 2194.56 308.786 Q2192.77 308.346 2191.01 308.346 Q2186.39 308.346 2183.93 311.471 Q2181.5 314.596 2181.15 320.915 Q2182.52 318.901 2184.58 317.837 Q2186.64 316.749 2189.12 316.749 Q2194.32 316.749 2197.33 319.92 Q2200.37 323.068 2200.37 328.508 Q2200.37 333.832 2197.22 337.049 Q2194.07 340.267 2188.84 340.267 Q2182.84 340.267 2179.67 335.684 Q2176.5 331.077 2176.5 322.35 Q2176.5 314.156 2180.39 309.295 Q2184.28 304.411 2190.83 304.411 Q2192.59 304.411 2194.37 304.758 Q2196.18 305.105 2198.12 305.8 Z" fill="#000000" fill-rule="nonzero" fill-opacity="1" /><path clip-path="url(#clip670)" d="M2209.23 335.661 L2216.87 335.661 L2216.87 309.295 L2208.56 310.962 L2208.56 306.702 L2216.82 305.036 L2221.5 305.036 L2221.5 335.661 L2229.14 335.661 L2229.14 339.596 L2209.23 339.596 L2209.23 335.661 Z" fill="#000000" fill-rule="nonzero" fill-opacity="1" /><path clip-path="url(#clip670)" d="M1816.73 394.892 L1956.91 394.892 L1956.91 353.42 L1816.73 353.42 L1816.73 394.892  Z" fill="#d52628" fill-rule="evenodd" fill-opacity="0.45"/>
<polyline clip-path="url(#clip670)" style="stroke:#d52628; stroke-linecap:round; stroke-linejoin:round; stroke-width:4; stroke-opacity:1; fill:none" points="1816.73,353.42 1956.91,353.42 "/>
<path clip-path="url(#clip670)" d="M1992.22 359.954 Q1988.61 359.954 1986.78 363.519 Q1984.97 367.061 1984.97 374.19 Q1984.97 381.297 1986.78 384.862 Q1988.61 388.403 1992.22 388.403 Q1995.85 388.403 1997.66 384.862 Q1999.49 381.297 1999.49 374.19 Q1999.49 367.061 1997.66 363.519 Q1995.85 359.954 1992.22 359.954 M1992.22 356.251 Q1998.03 356.251 2001.09 360.857 Q2004.16 365.44 2004.16 374.19 Q2004.16 382.917 2001.09 387.524 Q1998.03 392.107 1992.22 392.107 Q1986.41 392.107 1983.33 387.524 Q1980.28 382.917 1980.28 374.19 Q1980.28 365.44 1983.33 360.857 Q1986.41 356.251 1992.22 356.251 Z" fill="#000000" fill-rule="nonzero" fill-opacity="1" /><path clip-path="url(#clip670)" d="M2012.38 385.556 L2017.27 385.556 L2017.27 391.436 L2012.38 391.436 L2012.38 385.556 Z" fill="#000000" fill-rule="nonzero" fill-opacity="1" /><path clip-path="url(#clip670)" d="M2041.62 372.802 Q2044.97 373.519 2046.85 375.788 Q2048.75 378.056 2048.75 381.389 Q2048.75 386.505 2045.23 389.306 Q2041.71 392.107 2035.23 392.107 Q2033.05 392.107 2030.74 391.667 Q2028.45 391.251 2025.99 390.394 L2025.99 385.88 Q2027.94 387.014 2030.25 387.593 Q2032.57 388.172 2035.09 388.172 Q2039.49 388.172 2041.78 386.436 Q2044.09 384.7 2044.09 381.389 Q2044.09 378.334 2041.94 376.621 Q2039.81 374.885 2035.99 374.885 L2031.96 374.885 L2031.96 371.042 L2036.18 371.042 Q2039.63 371.042 2041.46 369.677 Q2043.28 368.288 2043.28 365.695 Q2043.28 363.033 2041.39 361.621 Q2039.51 360.186 2035.99 360.186 Q2034.07 360.186 2031.87 360.603 Q2029.67 361.019 2027.03 361.899 L2027.03 357.732 Q2029.7 356.991 2032.01 356.621 Q2034.35 356.251 2036.41 356.251 Q2041.73 356.251 2044.83 358.681 Q2047.94 361.089 2047.94 365.209 Q2047.94 368.079 2046.29 370.07 Q2044.65 372.038 2041.62 372.802 Z" fill="#000000" fill-rule="nonzero" fill-opacity="1" /><path clip-path="url(#clip670)" d="M2067.61 359.954 Q2064 359.954 2062.17 363.519 Q2060.37 367.061 2060.37 374.19 Q2060.37 381.297 2062.17 384.862 Q2064 388.403 2067.61 388.403 Q2071.25 388.403 2073.05 384.862 Q2074.88 381.297 2074.88 374.19 Q2074.88 367.061 2073.05 363.519 Q2071.25 359.954 2067.61 359.954 M2067.61 356.251 Q2073.42 356.251 2076.48 360.857 Q2079.56 365.44 2079.56 374.19 Q2079.56 382.917 2076.48 387.524 Q2073.42 392.107 2067.61 392.107 Q2061.8 392.107 2058.72 387.524 Q2055.67 382.917 2055.67 374.19 Q2055.67 365.44 2058.72 360.857 Q2061.8 356.251 2067.61 356.251 Z" fill="#000000" fill-rule="nonzero" fill-opacity="1" /><path clip-path="url(#clip670)" d="M2086.59 356.876 L2108.82 356.876 L2108.82 358.866 L2096.27 391.436 L2091.39 391.436 L2103.19 360.811 L2086.59 360.811 L2086.59 356.876 Z" fill="#000000" fill-rule="nonzero" fill-opacity="1" /><path clip-path="url(#clip670)" d="M2121.96 387.501 L2138.28 387.501 L2138.28 391.436 L2116.34 391.436 L2116.34 387.501 Q2119 384.746 2123.58 380.116 Q2128.19 375.464 2129.37 374.121 Q2131.62 371.598 2132.5 369.862 Q2133.4 368.103 2133.4 366.413 Q2133.4 363.658 2131.45 361.922 Q2129.53 360.186 2126.43 360.186 Q2124.23 360.186 2121.78 360.95 Q2119.35 361.714 2116.57 363.265 L2116.57 358.542 Q2119.39 357.408 2121.85 356.829 Q2124.3 356.251 2126.34 356.251 Q2131.71 356.251 2134.9 358.936 Q2138.1 361.621 2138.1 366.112 Q2138.1 368.241 2137.29 370.163 Q2136.5 372.061 2134.39 374.653 Q2133.82 375.325 2130.71 378.542 Q2127.61 381.737 2121.96 387.501 Z" fill="#000000" fill-rule="nonzero" fill-opacity="1" /><path clip-path="url(#clip670)" d="M2148.14 356.876 L2166.5 356.876 L2166.5 360.811 L2152.43 360.811 L2152.43 369.283 Q2153.45 368.936 2154.46 368.774 Q2155.48 368.589 2156.5 368.589 Q2162.29 368.589 2165.67 371.76 Q2169.05 374.931 2169.05 380.348 Q2169.05 385.926 2165.57 389.028 Q2162.1 392.107 2155.78 392.107 Q2153.61 392.107 2151.34 391.737 Q2149.09 391.366 2146.69 390.626 L2146.69 385.926 Q2148.77 387.061 2150.99 387.616 Q2153.21 388.172 2155.69 388.172 Q2159.7 388.172 2162.03 386.065 Q2164.37 383.959 2164.37 380.348 Q2164.37 376.737 2162.03 374.63 Q2159.7 372.524 2155.69 372.524 Q2153.82 372.524 2151.94 372.94 Q2150.09 373.357 2148.14 374.237 L2148.14 356.876 Z" fill="#000000" fill-rule="nonzero" fill-opacity="1" /><path clip-path="url(#clip670)" d="M2188.84 372.292 Q2185.69 372.292 2183.84 374.445 Q2182.01 376.598 2182.01 380.348 Q2182.01 384.075 2183.84 386.251 Q2185.69 388.403 2188.84 388.403 Q2191.99 388.403 2193.82 386.251 Q2195.67 384.075 2195.67 380.348 Q2195.67 376.598 2193.82 374.445 Q2191.99 372.292 2188.84 372.292 M2198.12 357.64 L2198.12 361.899 Q2196.36 361.066 2194.56 360.626 Q2192.77 360.186 2191.01 360.186 Q2186.39 360.186 2183.93 363.311 Q2181.5 366.436 2181.15 372.755 Q2182.52 370.741 2184.58 369.677 Q2186.64 368.589 2189.12 368.589 Q2194.32 368.589 2197.33 371.76 Q2200.37 374.908 2200.37 380.348 Q2200.37 385.672 2197.22 388.889 Q2194.07 392.107 2188.84 392.107 Q2182.84 392.107 2179.67 387.524 Q2176.5 382.917 2176.5 374.19 Q2176.5 365.996 2180.39 361.135 Q2184.28 356.251 2190.83 356.251 Q2192.59 356.251 2194.37 356.598 Q2196.18 356.945 2198.12 357.64 Z" fill="#000000" fill-rule="nonzero" fill-opacity="1" /><path clip-path="url(#clip670)" d="M1816.73 446.732 L1956.91 446.732 L1956.91 405.26 L1816.73 405.26 L1816.73 446.732  Z" fill="#9466bd" fill-rule="evenodd" fill-opacity="0.45"/>
<polyline clip-path="url(#clip670)" style="stroke:#9466bd; stroke-linecap:round; stroke-linejoin:round; stroke-width:4; stroke-opacity:1; fill:none" points="1816.73,405.26 1956.91,405.26 "/>
<path clip-path="url(#clip670)" d="M1980.95 439.341 L1988.59 439.341 L1988.59 412.975 L1980.28 414.642 L1980.28 410.382 L1988.54 408.716 L1993.21 408.716 L1993.21 439.341 L2000.85 439.341 L2000.85 443.276 L1980.95 443.276 L1980.95 439.341 Z" fill="#000000" fill-rule="nonzero" fill-opacity="1" /></svg>
