<?xml version="1.0" encoding="utf-8"?>
<svg xmlns="http://www.w3.org/2000/svg" xmlns:xlink="http://www.w3.org/1999/xlink" width="600" height="400" viewBox="0 0 2400 1600">
<defs>
  <clipPath id="clip090">
    <rect x="0" y="0" width="2400" height="1600"/>
  </clipPath>
</defs>
<path clip-path="url(#clip090)" d="M0 1600 L2400 1600 L2400 0 L0 0  Z" fill="#ffffff" fill-rule="evenodd" fill-opacity="1"/>
<defs>
  <clipPath id="clip091">
    <rect x="480" y="0" width="1681" height="1600"/>
  </clipPath>
</defs>
<path clip-path="url(#clip090)" d="M219.38 1457.74 L2352.76 1457.74 L2352.76 106.192 L219.38 106.192  Z" fill="#ffffff" fill-rule="evenodd" fill-opacity="1"/>
<defs>
  <clipPath id="clip092">
    <rect x="219" y="106" width="2134" height="1353"/>
  </clipPath>
</defs>
<polyline clip-path="url(#clip092)" style="stroke:#000000; stroke-linecap:round; stroke-linejoin:round; stroke-width:2; stroke-opacity:0.1; fill:none" points="259.429,1457.74 259.429,106.192 "/>
<polyline clip-path="url(#clip092)" style="stroke:#000000; stroke-linecap:round; stroke-linejoin:round; stroke-width:2; stroke-opacity:0.1; fill:none" points="767.666,1457.74 767.666,106.192 "/>
<polyline clip-path="url(#clip092)" style="stroke:#000000; stroke-linecap:round; stroke-linejoin:round; stroke-width:2; stroke-opacity:0.1; fill:none" points="1275.9,1457.74 1275.9,106.192 "/>
<polyline clip-path="url(#clip092)" style="stroke:#000000; stroke-linecap:round; stroke-linejoin:round; stroke-width:2; stroke-opacity:0.1; fill:none" points="1784.14,1457.74 1784.14,106.192 "/>
<polyline clip-path="url(#clip092)" style="stroke:#000000; stroke-linecap:round; stroke-linejoin:round; stroke-width:2; stroke-opacity:0.1; fill:none" points="2292.38,1457.74 2292.38,106.192 "/>
<polyline clip-path="url(#clip090)" style="stroke:#000000; stroke-linecap:round; stroke-linejoin:round; stroke-width:4; stroke-opacity:1; fill:none" points="219.38,1457.74 2352.76,1457.74 "/>
<polyline clip-path="url(#clip090)" style="stroke:#000000; stroke-linecap:round; stroke-linejoin:round; stroke-width:4; stroke-opacity:1; fill:none" points="259.429,1457.74 259.429,1438.84 "/>
<polyline clip-path="url(#clip090)" style="stroke:#000000; stroke-linecap:round; stroke-linejoin:round; stroke-width:4; stroke-opacity:1; fill:none" points="767.666,1457.74 767.666,1438.84 "/>
<polyline clip-path="url(#clip090)" style="stroke:#000000; stroke-linecap:round; stroke-linejoin:round; stroke-width:4; stroke-opacity:1; fill:none" points="1275.9,1457.74 1275.9,1438.84 "/>
<polyline clip-path="url(#clip090)" style="stroke:#000000; stroke-linecap:round; stroke-linejoin:round; stroke-width:4; stroke-opacity:1; fill:none" points="1784.14,1457.74 1784.14,1438.84 "/>
<polyline clip-path="url(#clip090)" style="stroke:#000000; stroke-linecap:round; stroke-linejoin:round; stroke-width:4; stroke-opacity:1; fill:none" points="2292.38,1457.74 2292.38,1438.84 "/>
<path clip-path="url(#clip090)" d="M1085.74 1545.42 L1085.74 1564.32 L1079.85 1564.32 L1079.85 1515.12 L1085.74 1515.12 L1085.74 1520.53 Q1087.59 1517.34 1090.39 1515.82 Q1093.22 1514.26 1097.13 1514.26 Q1103.63 1514.26 1107.67 1519.41 Q1111.74 1524.57 1111.74 1532.97 Q1111.74 1541.37 1107.67 1546.53 Q1103.63 1551.69 1097.13 1551.69 Q1093.22 1551.69 1090.39 1550.16 Q1087.59 1548.6 1085.74 1545.42 M1105.66 1532.97 Q1105.66 1526.51 1102.99 1522.85 Q1100.35 1519.16 1095.7 1519.16 Q1091.05 1519.16 1088.38 1522.85 Q1085.74 1526.51 1085.74 1532.97 Q1085.74 1539.43 1088.38 1543.12 Q1091.05 1546.79 1095.7 1546.79 Q1100.35 1546.79 1102.99 1543.12 Q1105.66 1539.43 1105.66 1532.97 Z" fill="#000000" fill-rule="nonzero" fill-opacity="1" /><path clip-path="url(#clip090)" d="M1137.65 1532.84 Q1130.55 1532.84 1127.82 1534.47 Q1125.08 1536.09 1125.08 1540.01 Q1125.08 1543.12 1127.12 1544.97 Q1129.19 1546.79 1132.72 1546.79 Q1137.59 1546.79 1140.52 1543.35 Q1143.48 1539.88 1143.48 1534.15 L1143.48 1532.84 L1137.65 1532.84 M1149.33 1530.43 L1149.33 1550.76 L1143.48 1550.76 L1143.48 1545.35 Q1141.47 1548.6 1138.48 1550.16 Q1135.49 1551.69 1131.16 1551.69 Q1125.68 1551.69 1122.44 1548.63 Q1119.22 1545.54 1119.22 1540.39 Q1119.22 1534.37 1123.23 1531.32 Q1127.28 1528.26 1135.26 1528.26 L1143.48 1528.26 L1143.48 1527.69 Q1143.48 1523.65 1140.8 1521.45 Q1138.16 1519.22 1133.35 1519.22 Q1130.3 1519.22 1127.4 1519.95 Q1124.51 1520.69 1121.83 1522.15 L1121.83 1516.74 Q1125.05 1515.5 1128.07 1514.89 Q1131.09 1514.26 1133.96 1514.26 Q1141.69 1514.26 1145.51 1518.27 Q1149.33 1522.28 1149.33 1530.43 Z" fill="#000000" fill-rule="nonzero" fill-opacity="1" /><path clip-path="url(#clip090)" d="M1182.05 1520.59 Q1181.07 1520.02 1179.89 1519.76 Q1178.74 1519.48 1177.34 1519.48 Q1172.38 1519.48 1169.7 1522.72 Q1167.06 1525.94 1167.06 1531.99 L1167.06 1550.76 L1161.17 1550.76 L1161.17 1515.12 L1167.06 1515.12 L1167.06 1520.65 Q1168.91 1517.41 1171.87 1515.85 Q1174.83 1514.26 1179.06 1514.26 Q1179.67 1514.26 1180.4 1514.35 Q1181.13 1514.42 1182.02 1514.57 L1182.05 1520.59 Z" fill="#000000" fill-rule="nonzero" fill-opacity="1" /><path clip-path="url(#clip090)" d="M1204.4 1532.84 Q1197.3 1532.84 1194.56 1534.47 Q1191.82 1536.09 1191.82 1540.01 Q1191.82 1543.12 1193.86 1544.97 Q1195.93 1546.79 1199.46 1546.79 Q1204.33 1546.79 1207.26 1543.35 Q1210.22 1539.88 1210.22 1534.15 L1210.22 1532.84 L1204.4 1532.84 M1216.08 1530.43 L1216.08 1550.76 L1210.22 1550.76 L1210.22 1545.35 Q1208.22 1548.6 1205.22 1550.16 Q1202.23 1551.69 1197.9 1551.69 Q1192.43 1551.69 1189.18 1548.63 Q1185.97 1545.54 1185.97 1540.39 Q1185.97 1534.37 1189.98 1531.32 Q1194.02 1528.26 1202.01 1528.26 L1210.22 1528.26 L1210.22 1527.69 Q1210.22 1523.65 1207.55 1521.45 Q1204.91 1519.22 1200.1 1519.22 Q1197.04 1519.22 1194.15 1519.95 Q1191.25 1520.69 1188.58 1522.15 L1188.58 1516.74 Q1191.79 1515.5 1194.82 1514.89 Q1197.84 1514.26 1200.7 1514.26 Q1208.44 1514.26 1212.26 1518.27 Q1216.08 1522.28 1216.08 1530.43 Z" fill="#000000" fill-rule="nonzero" fill-opacity="1" /><path clip-path="url(#clip090)" d="M1255.89 1521.96 Q1258.09 1518.01 1261.15 1516.13 Q1264.2 1514.26 1268.34 1514.26 Q1273.91 1514.26 1276.93 1518.17 Q1279.96 1522.05 1279.96 1529.25 L1279.96 1550.76 L1274.07 1550.76 L1274.07 1529.44 Q1274.07 1524.31 1272.25 1521.83 Q1270.44 1519.35 1266.72 1519.35 Q1262.16 1519.35 1259.52 1522.37 Q1256.88 1525.4 1256.88 1530.62 L1256.88 1550.76 L1250.99 1550.76 L1250.99 1529.44 Q1250.99 1524.28 1249.18 1521.83 Q1247.36 1519.35 1243.58 1519.35 Q1239.09 1519.35 1236.45 1522.4 Q1233.81 1525.43 1233.81 1530.62 L1233.81 1550.76 L1227.92 1550.76 L1227.92 1515.12 L1233.81 1515.12 L1233.81 1520.65 Q1235.81 1517.38 1238.61 1515.82 Q1241.41 1514.26 1245.26 1514.26 Q1249.15 1514.26 1251.85 1516.23 Q1254.59 1518.2 1255.89 1521.96 Z" fill="#000000" fill-rule="nonzero" fill-opacity="1" /><path clip-path="url(#clip090)" d="M1333.02 1520.59 Q1332.03 1520.02 1330.85 1519.76 Q1329.7 1519.48 1328.3 1519.48 Q1323.34 1519.48 1320.67 1522.72 Q1318.02 1525.94 1318.02 1531.99 L1318.02 1550.76 L1312.14 1550.76 L1312.14 1515.12 L1318.02 1515.12 L1318.02 1520.65 Q1319.87 1517.41 1322.83 1515.85 Q1325.79 1514.26 1330.02 1514.26 Q1330.63 1514.26 1331.36 1514.35 Q1332.09 1514.42 1332.98 1514.57 L1333.02 1520.59 Z" fill="#000000" fill-rule="nonzero" fill-opacity="1" /><path clip-path="url(#clip090)" d="M1355.36 1532.84 Q1348.26 1532.84 1345.52 1534.47 Q1342.79 1536.09 1342.79 1540.01 Q1342.79 1543.12 1344.82 1544.97 Q1346.89 1546.79 1350.43 1546.79 Q1355.3 1546.79 1358.22 1543.35 Q1361.18 1539.88 1361.18 1534.15 L1361.18 1532.84 L1355.36 1532.84 M1367.04 1530.43 L1367.04 1550.76 L1361.18 1550.76 L1361.18 1545.35 Q1359.18 1548.6 1356.19 1550.16 Q1353.19 1551.69 1348.87 1551.69 Q1343.39 1551.69 1340.14 1548.63 Q1336.93 1545.54 1336.93 1540.39 Q1336.93 1534.37 1340.94 1531.32 Q1344.98 1528.26 1352.97 1528.26 L1361.18 1528.26 L1361.18 1527.69 Q1361.18 1523.65 1358.51 1521.45 Q1355.87 1519.22 1351.06 1519.22 Q1348.01 1519.22 1345.11 1519.95 Q1342.21 1520.69 1339.54 1522.15 L1339.54 1516.74 Q1342.75 1515.5 1345.78 1514.89 Q1348.8 1514.26 1351.67 1514.26 Q1359.4 1514.26 1363.22 1518.27 Q1367.04 1522.28 1367.04 1530.43 Z" fill="#000000" fill-rule="nonzero" fill-opacity="1" /><path clip-path="url(#clip090)" d="M1408.74 1529.25 L1408.74 1550.76 L1402.88 1550.76 L1402.88 1529.44 Q1402.88 1524.38 1400.91 1521.86 Q1398.93 1519.35 1394.99 1519.35 Q1390.24 1519.35 1387.51 1522.37 Q1384.77 1525.4 1384.77 1530.62 L1384.77 1550.76 L1378.88 1550.76 L1378.88 1515.12 L1384.77 1515.12 L1384.77 1520.65 Q1386.87 1517.44 1389.7 1515.85 Q1392.57 1514.26 1396.29 1514.26 Q1402.43 1514.26 1405.58 1518.08 Q1408.74 1521.86 1408.74 1529.25 Z" fill="#000000" fill-rule="nonzero" fill-opacity="1" /><path clip-path="url(#clip090)" d="M1443.87 1532.53 Q1443.87 1526.16 1441.23 1522.66 Q1438.62 1519.16 1433.88 1519.16 Q1429.17 1519.16 1426.53 1522.66 Q1423.92 1526.16 1423.92 1532.53 Q1423.92 1538.86 1426.53 1542.36 Q1429.17 1545.86 1433.88 1545.86 Q1438.62 1545.86 1441.23 1542.36 Q1443.87 1538.86 1443.87 1532.53 M1449.73 1546.34 Q1449.73 1555.44 1445.69 1559.87 Q1441.65 1564.32 1433.31 1564.32 Q1430.22 1564.32 1427.48 1563.85 Q1424.74 1563.4 1422.17 1562.44 L1422.17 1556.75 Q1424.74 1558.15 1427.26 1558.82 Q1429.77 1559.48 1432.38 1559.48 Q1438.14 1559.48 1441.01 1556.46 Q1443.87 1553.47 1443.87 1547.39 L1443.87 1544.49 Q1442.06 1547.64 1439.23 1549.2 Q1436.39 1550.76 1432.45 1550.76 Q1425.89 1550.76 1421.88 1545.77 Q1417.87 1540.77 1417.87 1532.53 Q1417.87 1524.25 1421.88 1519.25 Q1425.89 1514.26 1432.45 1514.26 Q1436.39 1514.26 1439.23 1515.82 Q1442.06 1517.38 1443.87 1520.53 L1443.87 1515.12 L1449.73 1515.12 L1449.73 1546.34 Z" fill="#000000" fill-rule="nonzero" fill-opacity="1" /><path clip-path="url(#clip090)" d="M1492.29 1531.48 L1492.29 1534.34 L1465.36 1534.34 Q1465.74 1540.39 1468.99 1543.57 Q1472.26 1546.72 1478.09 1546.72 Q1481.46 1546.72 1484.61 1545.89 Q1487.8 1545.07 1490.92 1543.41 L1490.92 1548.95 Q1487.77 1550.29 1484.46 1550.99 Q1481.15 1551.69 1477.74 1551.69 Q1469.21 1551.69 1464.21 1546.72 Q1459.25 1541.76 1459.25 1533.29 Q1459.25 1524.54 1463.96 1519.41 Q1468.7 1514.26 1476.72 1514.26 Q1483.91 1514.26 1488.08 1518.9 Q1492.29 1523.52 1492.29 1531.48 M1486.43 1529.76 Q1486.36 1524.95 1483.72 1522.09 Q1481.11 1519.22 1476.78 1519.22 Q1471.88 1519.22 1468.92 1521.99 Q1465.99 1524.76 1465.55 1529.79 L1486.43 1529.76 Z" fill="#000000" fill-rule="nonzero" fill-opacity="1" /><polyline clip-path="url(#clip092)" style="stroke:#000000; stroke-linecap:round; stroke-linejoin:round; stroke-width:2; stroke-opacity:0.1; fill:none" points="219.38,1419.7 2352.76,1419.7 "/>
<polyline clip-path="url(#clip092)" style="stroke:#000000; stroke-linecap:round; stroke-linejoin:round; stroke-width:2; stroke-opacity:0.1; fill:none" points="219.38,1131.79 2352.76,1131.79 "/>
<polyline clip-path="url(#clip092)" style="stroke:#000000; stroke-linecap:round; stroke-linejoin:round; stroke-width:2; stroke-opacity:0.1; fill:none" points="219.38,843.886 2352.76,843.886 "/>
<polyline clip-path="url(#clip092)" style="stroke:#000000; stroke-linecap:round; stroke-linejoin:round; stroke-width:2; stroke-opacity:0.1; fill:none" points="219.38,555.98 2352.76,555.98 "/>
<polyline clip-path="url(#clip092)" style="stroke:#000000; stroke-linecap:round; stroke-linejoin:round; stroke-width:2; stroke-opacity:0.1; fill:none" points="219.38,268.073 2352.76,268.073 "/>
<polyline clip-path="url(#clip090)" style="stroke:#000000; stroke-linecap:round; stroke-linejoin:round; stroke-width:4; stroke-opacity:1; fill:none" points="219.38,1457.74 219.38,106.192 "/>
<polyline clip-path="url(#clip090)" style="stroke:#000000; stroke-linecap:round; stroke-linejoin:round; stroke-width:4; stroke-opacity:1; fill:none" points="219.38,1419.7 238.278,1419.7 "/>
<polyline clip-path="url(#clip090)" style="stroke:#000000; stroke-linecap:round; stroke-linejoin:round; stroke-width:4; stroke-opacity:1; fill:none" points="219.38,1131.79 238.278,1131.79 "/>
<polyline clip-path="url(#clip090)" style="stroke:#000000; stroke-linecap:round; stroke-linejoin:round; stroke-width:4; stroke-opacity:1; fill:none" points="219.38,843.886 238.278,843.886 "/>
<polyline clip-path="url(#clip090)" style="stroke:#000000; stroke-linecap:round; stroke-linejoin:round; stroke-width:4; stroke-opacity:1; fill:none" points="219.38,555.98 238.278,555.98 "/>
<polyline clip-path="url(#clip090)" style="stroke:#000000; stroke-linecap:round; stroke-linejoin:round; stroke-width:4; stroke-opacity:1; fill:none" points="219.38,268.073 238.278,268.073 "/>
<path clip-path="url(#clip090)" d="M126.205 1405.5 Q122.593 1405.5 120.765 1409.06 Q118.959 1412.6 118.959 1419.73 Q118.959 1426.84 120.765 1430.4 Q122.593 1433.95 126.205 1433.95 Q129.839 1433.95 131.644 1430.4 Q133.473 1426.84 133.473 1419.73 Q133.473 1412.6 131.644 1409.06 Q129.839 1405.5 126.205 1405.5 M126.205 1401.79 Q132.015 1401.79 135.07 1406.4 Q138.149 1410.98 138.149 1419.73 Q138.149 1428.46 135.07 1433.07 Q132.015 1437.65 126.205 1437.65 Q120.394 1437.65 117.316 1433.07 Q114.26 1428.46 114.26 1419.73 Q114.26 1410.98 117.316 1406.4 Q120.394 1401.79 126.205 1401.79 Z" fill="#000000" fill-rule="nonzero" fill-opacity="1" /><path clip-path="url(#clip090)" d="M146.366 1431.1 L151.251 1431.1 L151.251 1436.98 L146.366 1436.98 L146.366 1431.1 Z" fill="#000000" fill-rule="nonzero" fill-opacity="1" /><path clip-path="url(#clip090)" d="M171.436 1405.5 Q167.825 1405.5 165.996 1409.06 Q164.19 1412.6 164.19 1419.73 Q164.19 1426.84 165.996 1430.4 Q167.825 1433.95 171.436 1433.95 Q175.07 1433.95 176.876 1430.4 Q178.704 1426.84 178.704 1419.73 Q178.704 1412.6 176.876 1409.06 Q175.07 1405.5 171.436 1405.5 M171.436 1401.79 Q177.246 1401.79 180.301 1406.4 Q183.38 1410.98 183.38 1419.73 Q183.38 1428.46 180.301 1433.07 Q177.246 1437.65 171.436 1437.65 Q165.626 1437.65 162.547 1433.07 Q159.491 1428.46 159.491 1419.73 Q159.491 1410.98 162.547 1406.4 Q165.626 1401.79 171.436 1401.79 Z" fill="#000000" fill-rule="nonzero" fill-opacity="1" /><path clip-path="url(#clip090)" d="M127.2 1117.59 Q123.589 1117.59 121.76 1121.16 Q119.955 1124.7 119.955 1131.83 Q119.955 1138.93 121.76 1142.5 Q123.589 1146.04 127.2 1146.04 Q130.834 1146.04 132.64 1142.5 Q134.468 1138.93 134.468 1131.83 Q134.468 1124.7 132.64 1121.16 Q130.834 1117.59 127.2 1117.59 M127.2 1113.89 Q133.01 1113.89 136.066 1118.49 Q139.144 1123.08 139.144 1131.83 Q139.144 1140.55 136.066 1145.16 Q133.01 1149.74 127.2 1149.74 Q121.39 1149.74 118.311 1145.16 Q115.256 1140.55 115.256 1131.83 Q115.256 1123.08 118.311 1118.49 Q121.39 1113.89 127.2 1113.89 Z" fill="#000000" fill-rule="nonzero" fill-opacity="1" /><path clip-path="url(#clip090)" d="M147.362 1143.19 L152.246 1143.19 L152.246 1149.07 L147.362 1149.07 L147.362 1143.19 Z" fill="#000000" fill-rule="nonzero" fill-opacity="1" /><path clip-path="url(#clip090)" d="M162.477 1114.51 L180.834 1114.51 L180.834 1118.45 L166.76 1118.45 L166.76 1126.92 Q167.778 1126.57 168.797 1126.41 Q169.815 1126.23 170.834 1126.23 Q176.621 1126.23 180.001 1129.4 Q183.38 1132.57 183.38 1137.98 Q183.38 1143.56 179.908 1146.66 Q176.436 1149.74 170.116 1149.74 Q167.94 1149.74 165.672 1149.37 Q163.427 1149 161.019 1148.26 L161.019 1143.56 Q163.102 1144.7 165.325 1145.25 Q167.547 1145.81 170.024 1145.81 Q174.028 1145.81 176.366 1143.7 Q178.704 1141.6 178.704 1137.98 Q178.704 1134.37 176.366 1132.27 Q174.028 1130.16 170.024 1130.16 Q168.149 1130.16 166.274 1130.58 Q164.422 1130.99 162.477 1131.87 L162.477 1114.51 Z" fill="#000000" fill-rule="nonzero" fill-opacity="1" /><path clip-path="url(#clip090)" d="M117.015 857.231 L124.654 857.231 L124.654 830.865 L116.343 832.532 L116.343 828.273 L124.607 826.606 L129.283 826.606 L129.283 857.231 L136.922 857.231 L136.922 861.166 L117.015 861.166 L117.015 857.231 Z" fill="#000000" fill-rule="nonzero" fill-opacity="1" /><path clip-path="url(#clip090)" d="M146.366 855.286 L151.251 855.286 L151.251 861.166 L146.366 861.166 L146.366 855.286 Z" fill="#000000" fill-rule="nonzero" fill-opacity="1" /><path clip-path="url(#clip090)" d="M171.436 829.685 Q167.825 829.685 165.996 833.249 Q164.19 836.791 164.19 843.921 Q164.19 851.027 165.996 854.592 Q167.825 858.134 171.436 858.134 Q175.07 858.134 176.876 854.592 Q178.704 851.027 178.704 843.921 Q178.704 836.791 176.876 833.249 Q175.07 829.685 171.436 829.685 M171.436 825.981 Q177.246 825.981 180.301 830.587 Q183.38 835.171 183.38 843.921 Q183.38 852.647 180.301 857.254 Q177.246 861.837 171.436 861.837 Q165.626 861.837 162.547 857.254 Q159.491 852.647 159.491 843.921 Q159.491 835.171 162.547 830.587 Q165.626 825.981 171.436 825.981 Z" fill="#000000" fill-rule="nonzero" fill-opacity="1" /><path clip-path="url(#clip090)" d="M118.01 569.324 L125.649 569.324 L125.649 542.959 L117.339 544.625 L117.339 540.366 L125.603 538.7 L130.279 538.7 L130.279 569.324 L137.917 569.324 L137.917 573.26 L118.01 573.26 L118.01 569.324 Z" fill="#000000" fill-rule="nonzero" fill-opacity="1" /><path clip-path="url(#clip090)" d="M147.362 567.38 L152.246 567.38 L152.246 573.26 L147.362 573.26 L147.362 567.38 Z" fill="#000000" fill-rule="nonzero" fill-opacity="1" /><path clip-path="url(#clip090)" d="M162.477 538.7 L180.834 538.7 L180.834 542.635 L166.76 542.635 L166.76 551.107 Q167.778 550.76 168.797 550.598 Q169.815 550.412 170.834 550.412 Q176.621 550.412 180.001 553.584 Q183.38 556.755 183.38 562.172 Q183.38 567.75 179.908 570.852 Q176.436 573.931 170.116 573.931 Q167.94 573.931 165.672 573.56 Q163.427 573.19 161.019 572.449 L161.019 567.75 Q163.102 568.885 165.325 569.44 Q167.547 569.996 170.024 569.996 Q174.028 569.996 176.366 567.889 Q178.704 565.783 178.704 562.172 Q178.704 558.561 176.366 556.454 Q174.028 554.348 170.024 554.348 Q168.149 554.348 166.274 554.764 Q164.422 555.181 162.477 556.061 L162.477 538.7 Z" fill="#000000" fill-rule="nonzero" fill-opacity="1" /><path clip-path="url(#clip090)" d="M120.232 281.418 L136.552 281.418 L136.552 285.353 L114.607 285.353 L114.607 281.418 Q117.269 278.663 121.853 274.034 Q126.459 269.381 127.64 268.038 Q129.885 265.515 130.765 263.779 Q131.667 262.02 131.667 260.33 Q131.667 257.576 129.723 255.839 Q127.802 254.103 124.7 254.103 Q122.501 254.103 120.047 254.867 Q117.617 255.631 114.839 257.182 L114.839 252.46 Q117.663 251.326 120.117 250.747 Q122.57 250.168 124.607 250.168 Q129.978 250.168 133.172 252.853 Q136.367 255.538 136.367 260.029 Q136.367 262.159 135.556 264.08 Q134.769 265.978 132.663 268.571 Q132.084 269.242 128.982 272.46 Q125.88 275.654 120.232 281.418 Z" fill="#000000" fill-rule="nonzero" fill-opacity="1" /><path clip-path="url(#clip090)" d="M146.366 279.474 L151.251 279.474 L151.251 285.353 L146.366 285.353 L146.366 279.474 Z" fill="#000000" fill-rule="nonzero" fill-opacity="1" /><path clip-path="url(#clip090)" d="M171.436 253.872 Q167.825 253.872 165.996 257.437 Q164.19 260.978 164.19 268.108 Q164.19 275.214 165.996 278.779 Q167.825 282.321 171.436 282.321 Q175.07 282.321 176.876 278.779 Q178.704 275.214 178.704 268.108 Q178.704 260.978 176.876 257.437 Q175.07 253.872 171.436 253.872 M171.436 250.168 Q177.246 250.168 180.301 254.775 Q183.38 259.358 183.38 268.108 Q183.38 276.835 180.301 281.441 Q177.246 286.024 171.436 286.024 Q165.626 286.024 162.547 281.441 Q159.491 276.835 159.491 268.108 Q159.491 259.358 162.547 254.775 Q165.626 250.168 171.436 250.168 Z" fill="#000000" fill-rule="nonzero" fill-opacity="1" /><path clip-path="url(#clip090)" d="M29.4065 1140.26 L34.9447 1140.26 Q33.6716 1142.74 33.035 1145.42 Q32.3984 1148.09 32.3984 1150.95 Q32.3984 1155.31 33.7352 1157.51 Q35.072 1159.68 37.7456 1159.68 Q39.7826 1159.68 40.9603 1158.12 Q42.1061 1156.56 43.1565 1151.85 L43.6021 1149.84 Q44.9389 1143.6 47.3897 1140.99 Q49.8086 1138.35 54.1691 1138.35 Q59.1344 1138.35 62.0308 1142.3 Q64.9272 1146.21 64.9272 1153.09 Q64.9272 1155.95 64.3543 1159.07 Q63.8132 1162.16 62.6992 1165.6 L56.6518 1165.6 Q58.3387 1162.35 59.198 1159.2 Q60.0256 1156.05 60.0256 1152.96 Q60.0256 1148.82 58.6251 1146.59 Q57.1929 1144.37 54.6147 1144.37 Q52.2276 1144.37 50.9545 1145.99 Q49.6813 1147.58 48.5037 1153.02 L48.0262 1155.06 Q46.8804 1160.5 44.5251 1162.92 Q42.138 1165.34 38.0002 1165.34 Q32.9713 1165.34 30.2341 1161.78 Q27.4968 1158.21 27.4968 1151.65 Q27.4968 1148.41 27.9743 1145.54 Q28.4517 1142.68 29.4065 1140.26 Z" fill="#000000" fill-rule="nonzero" fill-opacity="1" /><path clip-path="url(#clip090)" d="M28.3562 1129.02 L28.3562 1123.17 L64.0042 1123.17 L64.0042 1129.02 L28.3562 1129.02 M14.479 1129.02 L14.479 1123.17 L21.895 1123.17 L21.895 1129.02 L14.479 1129.02 Z" fill="#000000" fill-rule="nonzero" fill-opacity="1" /><path clip-path="url(#clip090)" d="M28.3562 1113.46 L28.3562 1085.64 L33.7034 1085.64 L59.3254 1107.67 L59.3254 1085.64 L64.0042 1085.64 L64.0042 1114.26 L58.657 1114.26 L33.035 1092.23 L33.035 1113.46 L28.3562 1113.46 Z" fill="#000000" fill-rule="nonzero" fill-opacity="1" /><path clip-path="url(#clip090)" d="M44.7161 1046.21 L47.5806 1046.21 L47.5806 1073.13 Q53.6281 1072.75 56.8109 1069.5 Q59.9619 1066.23 59.9619 1060.4 Q59.9619 1057.03 59.1344 1053.88 Q58.3069 1050.69 56.6518 1047.58 L62.1899 1047.58 Q63.5267 1050.73 64.227 1054.04 Q64.9272 1057.35 64.9272 1060.75 Q64.9272 1069.28 59.9619 1074.28 Q54.9967 1079.24 46.5303 1079.24 Q37.7774 1079.24 32.6531 1074.53 Q27.4968 1069.79 27.4968 1061.77 Q27.4968 1054.58 32.1438 1050.41 Q36.7589 1046.21 44.7161 1046.21 M42.9973 1052.06 Q38.1912 1052.13 35.3266 1054.77 Q32.4621 1057.38 32.4621 1061.71 Q32.4621 1066.61 35.2312 1069.57 Q38.0002 1072.5 43.0292 1072.94 L42.9973 1052.06 Z" fill="#000000" fill-rule="nonzero" fill-opacity="1" /><path clip-path="url(#clip090)" d="M32.4621 1002.06 Q32.4621 1006.77 36.1542 1009.51 Q39.8145 1012.25 46.212 1012.25 Q52.6095 1012.25 56.3017 1009.54 Q59.9619 1006.8 59.9619 1002.06 Q59.9619 997.381 56.2698 994.644 Q52.5777 991.907 46.212 991.907 Q39.8781 991.907 36.186 994.644 Q32.4621 997.381 32.4621 1002.06 M27.4968 1002.06 Q27.4968 994.421 32.4621 990.061 Q37.4273 985.7 46.212 985.7 Q54.9649 985.7 59.9619 990.061 Q64.9272 994.421 64.9272 1002.06 Q64.9272 1009.73 59.9619 1014.09 Q54.9649 1018.42 46.212 1018.42 Q37.4273 1018.42 32.4621 1014.09 Q27.4968 1009.73 27.4968 1002.06 Z" fill="#000000" fill-rule="nonzero" fill-opacity="1" /><path clip-path="url(#clip090)" d="M14.479 957.946 L19.3487 957.946 L19.3487 963.548 Q19.3487 966.699 20.6219 967.94 Q21.895 969.15 25.2052 969.15 L28.3562 969.15 L28.3562 959.506 L32.9077 959.506 L32.9077 969.15 L64.0042 969.15 L64.0042 975.038 L32.9077 975.038 L32.9077 980.64 L28.3562 980.64 L28.3562 975.038 L25.8736 975.038 Q19.9216 975.038 17.2162 972.269 Q14.479 969.5 14.479 963.484 L14.479 957.946 Z" fill="#000000" fill-rule="nonzero" fill-opacity="1" /><path clip-path="url(#clip090)" d="M46.212 906.734 Q39.7508 906.734 36.0905 909.407 Q32.3984 912.049 32.3984 916.696 Q32.3984 921.343 36.0905 924.017 Q39.7508 926.658 46.212 926.658 Q52.6732 926.658 56.3653 924.017 Q60.0256 921.343 60.0256 916.696 Q60.0256 912.049 56.3653 909.407 Q52.6732 906.734 46.212 906.734 M33.7671 926.658 Q30.5842 924.812 29.0564 922.012 Q27.4968 919.179 27.4968 915.264 Q27.4968 908.771 32.6531 904.729 Q37.8093 900.655 46.212 900.655 Q54.6147 900.655 59.771 904.729 Q64.9272 908.771 64.9272 915.264 Q64.9272 919.179 63.3994 922.012 Q61.8398 924.812 58.657 926.658 L64.0042 926.658 L64.0042 932.547 L14.479 932.547 L14.479 926.658 L33.7671 926.658 Z" fill="#000000" fill-rule="nonzero" fill-opacity="1" /><path clip-path="url(#clip090)" d="M28.3562 890.947 L28.3562 885.09 L64.0042 885.09 L64.0042 890.947 L28.3562 890.947 M14.479 890.947 L14.479 885.09 L21.895 885.09 L21.895 890.947 L14.479 890.947 Z" fill="#000000" fill-rule="nonzero" fill-opacity="1" /><path clip-path="url(#clip090)" d="M29.4065 850.111 L34.9447 850.111 Q33.6716 852.593 33.035 855.267 Q32.3984 857.941 32.3984 860.805 Q32.3984 865.166 33.7352 867.362 Q35.072 869.526 37.7456 869.526 Q39.7826 869.526 40.9603 867.967 Q42.1061 866.407 43.1565 861.696 L43.6021 859.691 Q44.9389 853.453 47.3897 850.843 Q49.8086 848.201 54.1691 848.201 Q59.1344 848.201 62.0308 852.148 Q64.9272 856.063 64.9272 862.938 Q64.9272 865.802 64.3543 868.922 Q63.8132 872.009 62.6992 875.446 L56.6518 875.446 Q58.3387 872.2 59.198 869.049 Q60.0256 865.898 60.0256 862.81 Q60.0256 858.673 58.6251 856.445 Q57.1929 854.217 54.6147 854.217 Q52.2276 854.217 50.9545 855.84 Q49.6813 857.431 48.5037 862.874 L48.0262 864.911 Q46.8804 870.354 44.5251 872.773 Q42.138 875.192 38.0002 875.192 Q32.9713 875.192 30.2341 871.627 Q27.4968 868.062 27.4968 861.505 Q27.4968 858.259 27.9743 855.394 Q28.4517 852.53 29.4065 850.111 Z" fill="#000000" fill-rule="nonzero" fill-opacity="1" /><path clip-path="url(#clip090)" d="M18.2347 833.083 L28.3562 833.083 L28.3562 821.02 L32.9077 821.02 L32.9077 833.083 L52.2594 833.083 Q56.6199 833.083 57.8613 831.905 Q59.1026 830.695 59.1026 827.035 L59.1026 821.02 L64.0042 821.02 L64.0042 827.035 Q64.0042 833.815 61.4897 836.393 Q58.9434 838.971 52.2594 838.971 L32.9077 838.971 L32.9077 843.268 L28.3562 843.268 L28.3562 838.971 L18.2347 838.971 L18.2347 833.083 Z" fill="#000000" fill-rule="nonzero" fill-opacity="1" /><path clip-path="url(#clip090)" d="M46.0847 797.116 Q46.0847 804.214 47.7079 806.951 Q49.3312 809.689 53.2461 809.689 Q56.3653 809.689 58.2114 807.652 Q60.0256 805.583 60.0256 802.05 Q60.0256 797.18 56.5881 794.252 Q53.1188 791.292 47.3897 791.292 L46.0847 791.292 L46.0847 797.116 M43.6657 785.435 L64.0042 785.435 L64.0042 791.292 L58.5933 791.292 Q61.8398 793.297 63.3994 796.289 Q64.9272 799.281 64.9272 803.609 Q64.9272 809.084 61.8716 812.33 Q58.7843 815.545 53.6281 815.545 Q47.6125 815.545 44.5569 811.535 Q41.5014 807.492 41.5014 799.504 L41.5014 791.292 L40.9285 791.292 Q36.8862 791.292 34.6901 793.965 Q32.4621 796.607 32.4621 801.413 Q32.4621 804.469 33.1941 807.365 Q33.9262 810.262 35.3903 812.935 L29.9795 812.935 Q28.7381 809.72 28.1334 806.697 Q27.4968 803.673 27.4968 800.808 Q27.4968 793.074 31.5072 789.255 Q35.5176 785.435 43.6657 785.435 Z" fill="#000000" fill-rule="nonzero" fill-opacity="1" /><path clip-path="url(#clip090)" d="M46.212 747.782 Q39.7508 747.782 36.0905 750.456 Q32.3984 753.098 32.3984 757.744 Q32.3984 762.391 36.0905 765.065 Q39.7508 767.707 46.212 767.707 Q52.6732 767.707 56.3653 765.065 Q60.0256 762.391 60.0256 757.744 Q60.0256 753.098 56.3653 750.456 Q52.6732 747.782 46.212 747.782 M33.7671 767.707 Q30.5842 765.861 29.0564 763.06 Q27.4968 760.227 27.4968 756.312 Q27.4968 749.819 32.6531 745.777 Q37.8093 741.703 46.212 741.703 Q54.6147 741.703 59.771 745.777 Q64.9272 749.819 64.9272 756.312 Q64.9272 760.227 63.3994 763.06 Q61.8398 765.861 58.657 767.707 L64.0042 767.707 L64.0042 773.595 L14.479 773.595 L14.479 767.707 L33.7671 767.707 Z" fill="#000000" fill-rule="nonzero" fill-opacity="1" /><path clip-path="url(#clip090)" d="M28.3562 731.995 L28.3562 726.139 L64.0042 726.139 L64.0042 731.995 L28.3562 731.995 M14.479 731.995 L14.479 726.139 L21.895 726.139 L21.895 731.995 L14.479 731.995 Z" fill="#000000" fill-rule="nonzero" fill-opacity="1" /><path clip-path="url(#clip090)" d="M14.479 713.885 L14.479 708.028 L64.0042 708.028 L64.0042 713.885 L14.479 713.885 Z" fill="#000000" fill-rule="nonzero" fill-opacity="1" /><path clip-path="url(#clip090)" d="M28.3562 695.774 L28.3562 689.918 L64.0042 689.918 L64.0042 695.774 L28.3562 695.774 M14.479 695.774 L14.479 689.918 L21.895 689.918 L21.895 695.774 L14.479 695.774 Z" fill="#000000" fill-rule="nonzero" fill-opacity="1" /><path clip-path="url(#clip090)" d="M18.2347 671.871 L28.3562 671.871 L28.3562 659.808 L32.9077 659.808 L32.9077 671.871 L52.2594 671.871 Q56.6199 671.871 57.8613 670.693 Q59.1026 669.484 59.1026 665.824 L59.1026 659.808 L64.0042 659.808 L64.0042 665.824 Q64.0042 672.603 61.4897 675.181 Q58.9434 677.759 52.2594 677.759 L32.9077 677.759 L32.9077 682.056 L28.3562 682.056 L28.3562 677.759 L18.2347 677.759 L18.2347 671.871 Z" fill="#000000" fill-rule="nonzero" fill-opacity="1" /><path clip-path="url(#clip090)" d="M67.3143 637.273 Q73.68 639.756 75.6216 642.111 Q77.5631 644.467 77.5631 648.413 L77.5631 653.092 L72.6615 653.092 L72.6615 649.655 Q72.6615 647.236 71.5157 645.899 Q70.3699 644.562 66.1048 642.939 L63.4312 641.889 L28.3562 656.307 L28.3562 650.1 L56.238 638.96 L28.3562 627.82 L28.3562 621.614 L67.3143 637.273 Z" fill="#000000" fill-rule="nonzero" fill-opacity="1" /><path clip-path="url(#clip090)" d="M33.8307 572.152 Q33.2578 573.139 33.0032 574.317 Q32.7167 575.462 32.7167 576.863 Q32.7167 581.828 35.9632 584.502 Q39.1779 587.144 45.2253 587.144 L64.0042 587.144 L64.0042 593.032 L28.3562 593.032 L28.3562 587.144 L33.8944 587.144 Q30.6479 585.297 29.0883 582.337 Q27.4968 579.377 27.4968 575.144 Q27.4968 574.539 27.5923 573.807 Q27.656 573.075 27.8151 572.184 L33.8307 572.152 Z" fill="#000000" fill-rule="nonzero" fill-opacity="1" /><path clip-path="url(#clip090)" d="M44.7161 536.95 L47.5806 536.95 L47.5806 563.877 Q53.6281 563.495 56.8109 560.248 Q59.9619 556.97 59.9619 551.145 Q59.9619 547.772 59.1344 544.621 Q58.3069 541.438 56.6518 538.319 L62.1899 538.319 Q63.5267 541.47 64.227 544.78 Q64.9272 548.09 64.9272 551.496 Q64.9272 560.026 59.9619 565.023 Q54.9967 569.988 46.5303 569.988 Q37.7774 569.988 32.6531 565.277 Q27.4968 560.535 27.4968 552.514 Q27.4968 545.321 32.1438 541.151 Q36.7589 536.95 44.7161 536.95 M42.9973 542.806 Q38.1912 542.87 35.3266 545.512 Q32.4621 548.122 32.4621 552.45 Q32.4621 557.352 35.2312 560.312 Q38.0002 563.24 43.0292 563.686 L42.9973 542.806 Z" fill="#000000" fill-rule="nonzero" fill-opacity="1" /><path clip-path="url(#clip090)" d="M45.7664 503.88 Q39.4007 503.88 35.8996 506.522 Q32.3984 509.132 32.3984 513.874 Q32.3984 518.585 35.8996 521.227 Q39.4007 523.837 45.7664 523.837 Q52.1003 523.837 55.6014 521.227 Q59.1026 518.585 59.1026 513.874 Q59.1026 509.132 55.6014 506.522 Q52.1003 503.88 45.7664 503.88 M59.58 498.024 Q68.683 498.024 73.1071 502.066 Q77.5631 506.108 77.5631 514.447 Q77.5631 517.535 77.0857 520.272 Q76.6401 523.009 75.6852 525.587 L69.9879 525.587 Q71.3884 523.009 72.0568 520.495 Q72.7252 517.98 72.7252 515.37 Q72.7252 509.609 69.7015 506.745 Q66.7096 503.88 60.6303 503.88 L57.7339 503.88 Q60.885 505.694 62.4446 508.527 Q64.0042 511.36 64.0042 515.307 Q64.0042 521.863 59.0071 525.874 Q54.01 529.884 45.7664 529.884 Q37.491 529.884 32.4939 525.874 Q27.4968 521.863 27.4968 515.307 Q27.4968 511.36 29.0564 508.527 Q30.616 505.694 33.7671 503.88 L28.3562 503.88 L28.3562 498.024 L59.58 498.024 Z" fill="#000000" fill-rule="nonzero" fill-opacity="1" /><path clip-path="url(#clip090)" d="M28.3562 485.961 L28.3562 480.104 L64.0042 480.104 L64.0042 485.961 L28.3562 485.961 M14.479 485.961 L14.479 480.104 L21.895 480.104 L21.895 485.961 L14.479 485.961 Z" fill="#000000" fill-rule="nonzero" fill-opacity="1" /><path clip-path="url(#clip090)" d="M32.4621 454.037 Q32.4621 458.747 36.1542 461.484 Q39.8145 464.222 46.212 464.222 Q52.6095 464.222 56.3017 461.516 Q59.9619 458.779 59.9619 454.037 Q59.9619 449.358 56.2698 446.621 Q52.5777 443.883 46.212 443.883 Q39.8781 443.883 36.186 446.621 Q32.4621 449.358 32.4621 454.037 M27.4968 454.037 Q27.4968 446.398 32.4621 442.037 Q37.4273 437.677 46.212 437.677 Q54.9649 437.677 59.9619 442.037 Q64.9272 446.398 64.9272 454.037 Q64.9272 461.707 59.9619 466.068 Q54.9649 470.396 46.212 470.396 Q37.4273 470.396 32.4621 466.068 Q27.4968 461.707 27.4968 454.037 Z" fill="#000000" fill-rule="nonzero" fill-opacity="1" /><path clip-path="url(#clip090)" d="M42.4881 398.337 L64.0042 398.337 L64.0042 404.193 L42.679 404.193 Q37.6183 404.193 35.1038 406.166 Q32.5894 408.14 32.5894 412.087 Q32.5894 416.829 35.6131 419.566 Q38.6368 422.304 43.8567 422.304 L64.0042 422.304 L64.0042 428.192 L28.3562 428.192 L28.3562 422.304 L33.8944 422.304 Q30.6797 420.203 29.0883 417.37 Q27.4968 414.506 27.4968 410.782 Q27.4968 404.639 31.3163 401.488 Q35.1038 398.337 42.4881 398.337 Z" fill="#000000" fill-rule="nonzero" fill-opacity="1" /><path clip-path="url(#clip090)" d="M788.386 24.3517 L788.386 6.81709 L793.71 6.81709 L793.71 51.84 L788.386 51.84 L788.386 46.9789 Q786.707 49.8724 784.132 51.2902 Q781.586 52.6791 777.998 52.6791 Q772.124 52.6791 768.42 47.9916 Q764.746 43.3042 764.746 35.6653 Q764.746 28.0265 768.42 23.339 Q772.124 18.6515 777.998 18.6515 Q781.586 18.6515 784.132 20.0693 Q786.707 21.4582 788.386 24.3517 M770.243 35.6653 Q770.243 41.5391 772.645 44.8956 Q775.075 48.2231 779.3 48.2231 Q783.524 48.2231 785.955 44.8956 Q788.386 41.5391 788.386 35.6653 Q788.386 29.7915 785.955 26.464 Q783.524 23.1075 779.3 23.1075 Q775.075 23.1075 772.645 26.464 Q770.243 29.7915 770.243 35.6653 Z" fill="#000000" fill-rule="nonzero" fill-opacity="1" /><path clip-path="url(#clip090)" d="M819.404 35.5496 Q812.951 35.5496 810.463 37.0253 Q807.975 38.501 807.975 42.06 Q807.975 44.8956 809.826 46.5738 Q811.707 48.2231 814.919 48.2231 Q819.346 48.2231 822.008 45.0981 Q824.699 41.9442 824.699 36.7359 L824.699 35.5496 L819.404 35.5496 M830.023 33.3505 L830.023 51.84 L824.699 51.84 L824.699 46.921 Q822.876 49.8724 820.156 51.2902 Q817.436 52.6791 813.501 52.6791 Q808.524 52.6791 805.573 49.9014 Q802.65 47.0947 802.65 42.4072 Q802.65 36.9385 806.296 34.1607 Q809.971 31.3829 817.234 31.3829 L824.699 31.3829 L824.699 30.8621 Q824.699 27.1874 822.268 25.1908 Q819.867 23.1654 815.498 23.1654 Q812.72 23.1654 810.087 23.8309 Q807.454 24.4964 805.023 25.8274 L805.023 20.9085 Q807.946 19.78 810.694 19.2302 Q813.443 18.6515 816.047 18.6515 Q823.079 18.6515 826.551 22.2973 Q830.023 25.9431 830.023 33.3505 Z" fill="#000000" fill-rule="nonzero" fill-opacity="1" /><path clip-path="url(#clip090)" d="M861.649 20.3876 L861.649 25.4223 Q859.392 24.2649 856.962 23.6862 Q854.531 23.1075 851.927 23.1075 Q847.963 23.1075 845.966 24.3228 Q843.999 25.5381 843.999 27.9686 Q843.999 29.8204 845.416 30.891 Q846.834 31.9327 851.117 32.8876 L852.94 33.2926 Q858.611 34.5079 860.984 36.7359 Q863.385 38.935 863.385 42.8991 Q863.385 47.4129 859.797 50.046 Q856.238 52.6791 849.988 52.6791 Q847.384 52.6791 844.548 52.1583 Q841.742 51.6664 838.617 50.6537 L838.617 45.156 Q841.568 46.6896 844.433 47.4708 Q847.297 48.2231 850.104 48.2231 Q853.865 48.2231 855.891 46.95 Q857.916 45.6479 857.916 43.3042 Q857.916 41.134 856.441 39.9766 Q854.994 38.8192 850.046 37.7486 L848.194 37.3146 Q843.246 36.273 841.047 34.1318 Q838.848 31.9616 838.848 28.2001 Q838.848 23.6283 842.089 21.1399 Q845.33 18.6515 851.29 18.6515 Q854.242 18.6515 856.846 19.0855 Q859.45 19.5196 861.649 20.3876 Z" fill="#000000" fill-rule="nonzero" fill-opacity="1" /><path clip-path="url(#clip090)" d="M898.802 32.2799 L898.802 51.84 L893.478 51.84 L893.478 32.4535 Q893.478 27.8529 891.684 25.567 Q889.89 23.2811 886.302 23.2811 Q881.99 23.2811 879.502 26.03 Q877.014 28.7788 877.014 33.5241 L877.014 51.84 L871.661 51.84 L871.661 6.81709 L877.014 6.81709 L877.014 24.4675 Q878.923 21.545 881.498 20.0983 Q884.103 18.6515 887.488 18.6515 Q893.072 18.6515 895.937 22.1237 Q898.802 25.567 898.802 32.2799 Z" fill="#000000" fill-rule="nonzero" fill-opacity="1" /><path clip-path="url(#clip090)" d="M937.141 34.3054 L937.141 36.9095 L912.661 36.9095 Q913.009 42.4072 915.96 45.3007 Q918.94 48.1653 924.235 48.1653 Q927.303 48.1653 930.167 47.4129 Q933.061 46.6606 935.896 45.156 L935.896 50.1907 Q933.032 51.406 930.022 52.0425 Q927.013 52.6791 923.917 52.6791 Q916.163 52.6791 911.62 48.1653 Q907.106 43.6514 907.106 35.9547 Q907.106 27.9975 911.388 23.339 Q915.7 18.6515 922.991 18.6515 Q929.531 18.6515 933.321 22.876 Q937.141 27.0716 937.141 34.3054 M931.816 32.7429 Q931.759 28.3737 929.357 25.7695 Q926.984 23.1654 923.049 23.1654 Q918.593 23.1654 915.902 25.6827 Q913.24 28.2001 912.835 32.7718 L931.816 32.7429 Z" fill="#000000" fill-rule="nonzero" fill-opacity="1" /><path clip-path="url(#clip090)" d="M967.204 24.3517 L967.204 6.81709 L972.528 6.81709 L972.528 51.84 L967.204 51.84 L967.204 46.9789 Q965.526 49.8724 962.951 51.2902 Q960.404 52.6791 956.816 52.6791 Q950.943 52.6791 947.239 47.9916 Q943.564 43.3042 943.564 35.6653 Q943.564 28.0265 947.239 23.339 Q950.943 18.6515 956.816 18.6515 Q960.404 18.6515 962.951 20.0693 Q965.526 21.4582 967.204 24.3517 M949.062 35.6653 Q949.062 41.5391 951.463 44.8956 Q953.894 48.2231 958.118 48.2231 Q962.343 48.2231 964.773 44.8956 Q967.204 41.5391 967.204 35.6653 Q967.204 29.7915 964.773 26.464 Q962.343 23.1075 958.118 23.1075 Q953.894 23.1075 951.463 26.464 Q949.062 29.7915 949.062 35.6653 Z" fill="#000000" fill-rule="nonzero" fill-opacity="1" /><path clip-path="url(#clip090)" d="M984.854 44.4905 L990.96 44.4905 L990.96 51.84 L984.854 51.84 L984.854 44.4905 M984.854 21.1978 L990.96 21.1978 L990.96 28.5473 L984.854 28.5473 L984.854 21.1978 Z" fill="#000000" fill-rule="nonzero" fill-opacity="1" /><path clip-path="url(#clip090)" d="M1022.09 6.81709 L1027.45 6.81709 L1027.45 33.4084 L1043.33 19.4328 L1050.13 19.4328 L1032.94 34.5947 L1050.86 51.84 L1043.91 51.84 L1027.45 36.0125 L1027.45 51.84 L1022.09 51.84 L1022.09 6.81709 Z" fill="#000000" fill-rule="nonzero" fill-opacity="1" /><path clip-path="url(#clip090)" d="M1077.94 24.3517 L1077.94 6.81709 L1083.26 6.81709 L1083.26 51.84 L1077.94 51.84 L1077.94 46.9789 Q1076.26 49.8724 1073.68 51.2902 Q1071.14 52.6791 1067.55 52.6791 Q1061.68 52.6791 1057.97 47.9916 Q1054.3 43.3042 1054.3 35.6653 Q1054.3 28.0265 1057.97 23.339 Q1061.68 18.6515 1067.55 18.6515 Q1071.14 18.6515 1073.68 20.0693 Q1076.26 21.4582 1077.94 24.3517 M1059.8 35.6653 Q1059.8 41.5391 1062.2 44.8956 Q1064.63 48.2231 1068.85 48.2231 Q1073.08 48.2231 1075.51 44.8956 Q1077.94 41.5391 1077.94 35.6653 Q1077.94 29.7915 1075.51 26.464 Q1073.08 23.1075 1068.85 23.1075 Q1064.63 23.1075 1062.2 26.464 Q1059.8 29.7915 1059.8 35.6653 Z" fill="#000000" fill-rule="nonzero" fill-opacity="1" /><path clip-path="url(#clip090)" d="M1108.96 35.5496 Q1102.5 35.5496 1100.02 37.0253 Q1097.53 38.501 1097.53 42.06 Q1097.53 44.8956 1099.38 46.5738 Q1101.26 48.2231 1104.47 48.2231 Q1108.9 48.2231 1111.56 45.0981 Q1114.25 41.9442 1114.25 36.7359 L1114.25 35.5496 L1108.96 35.5496 M1119.58 33.3505 L1119.58 51.84 L1114.25 51.84 L1114.25 46.921 Q1112.43 49.8724 1109.71 51.2902 Q1106.99 52.6791 1103.05 52.6791 Q1098.08 52.6791 1095.13 49.9014 Q1092.2 47.0947 1092.2 42.4072 Q1092.2 36.9385 1095.85 34.1607 Q1099.52 31.3829 1106.79 31.3829 L1114.25 31.3829 L1114.25 30.8621 Q1114.25 27.1874 1111.82 25.1908 Q1109.42 23.1654 1105.05 23.1654 Q1102.27 23.1654 1099.64 23.8309 Q1097.01 24.4964 1094.58 25.8274 L1094.58 20.9085 Q1097.5 19.78 1100.25 19.2302 Q1103 18.6515 1105.6 18.6515 Q1112.63 18.6515 1116.1 22.2973 Q1119.58 25.9431 1119.58 33.3505 Z" fill="#000000" fill-rule="nonzero" fill-opacity="1" /><path clip-path="url(#clip090)" d="M1155.77 25.6538 Q1157.77 22.0659 1160.55 20.3587 Q1163.33 18.6515 1167.09 18.6515 Q1172.15 18.6515 1174.9 22.2105 Q1177.65 25.7406 1177.65 32.2799 L1177.65 51.84 L1172.3 51.84 L1172.3 32.4535 Q1172.3 27.795 1170.65 25.5381 Q1169 23.2811 1165.61 23.2811 Q1161.47 23.2811 1159.07 26.03 Q1156.67 28.7788 1156.67 33.5241 L1156.67 51.84 L1151.32 51.84 L1151.32 32.4535 Q1151.32 27.7661 1149.67 25.5381 Q1148.02 23.2811 1144.58 23.2811 Q1140.5 23.2811 1138.09 26.0589 Q1135.69 28.8077 1135.69 33.5241 L1135.69 51.84 L1130.34 51.84 L1130.34 19.4328 L1135.69 19.4328 L1135.69 24.4675 Q1137.52 21.4872 1140.06 20.0693 Q1142.61 18.6515 1146.11 18.6515 Q1149.64 18.6515 1152.1 20.4455 Q1154.59 22.2395 1155.77 25.6538 Z" fill="#000000" fill-rule="nonzero" fill-opacity="1" /><path clip-path="url(#clip090)" d="M1207.8 24.9304 L1244.89 24.9304 L1244.89 29.7915 L1207.8 29.7915 L1207.8 24.9304 M1207.8 36.7359 L1244.89 36.7359 L1244.89 41.6549 L1207.8 41.6549 L1207.8 36.7359 Z" fill="#000000" fill-rule="nonzero" fill-opacity="1" /><path clip-path="url(#clip090)" d="M1294.05 28.5473 Q1298.25 29.4443 1300.59 32.2799 Q1302.97 35.1156 1302.97 39.2822 Q1302.97 45.6768 1298.57 49.178 Q1294.17 52.6791 1286.07 52.6791 Q1283.35 52.6791 1280.45 52.1294 Q1277.59 51.6085 1274.52 50.5379 L1274.52 44.8956 Q1276.95 46.3134 1279.85 47.0368 Q1282.74 47.7602 1285.89 47.7602 Q1291.39 47.7602 1294.26 45.59 Q1297.15 43.4199 1297.15 39.2822 Q1297.15 35.4628 1294.46 33.3216 Q1291.8 31.1515 1287.02 31.1515 L1281.99 31.1515 L1281.99 26.3482 L1287.25 26.3482 Q1291.57 26.3482 1293.85 24.6411 Q1296.14 22.905 1296.14 19.6642 Q1296.14 16.3367 1293.76 14.5717 Q1291.42 12.7777 1287.02 12.7777 Q1284.62 12.7777 1281.87 13.2985 Q1279.12 13.8194 1275.83 14.9189 L1275.83 9.7106 Q1279.15 8.78468 1282.05 8.32171 Q1284.97 7.85875 1287.54 7.85875 Q1294.2 7.85875 1298.08 10.8969 Q1301.95 13.9062 1301.95 19.0566 Q1301.95 22.6446 1299.9 25.133 Q1297.84 27.5924 1294.05 28.5473 Z" fill="#000000" fill-rule="nonzero" fill-opacity="1" /><path clip-path="url(#clip090)" d="M1314.66 44.4905 L1320.76 44.4905 L1320.76 49.4673 L1316.02 58.7265 L1312.28 58.7265 L1314.66 49.4673 L1314.66 44.4905 Z" fill="#000000" fill-rule="nonzero" fill-opacity="1" /><path clip-path="url(#clip090)" d="M1371.63 20.3876 L1371.63 25.4223 Q1369.37 24.2649 1366.94 23.6862 Q1364.51 23.1075 1361.91 23.1075 Q1357.94 23.1075 1355.95 24.3228 Q1353.98 25.5381 1353.98 27.9686 Q1353.98 29.8204 1355.4 30.891 Q1356.81 31.9327 1361.1 32.8876 L1362.92 33.2926 Q1368.59 34.5079 1370.96 36.7359 Q1373.37 38.935 1373.37 42.8991 Q1373.37 47.4129 1369.78 50.046 Q1366.22 52.6791 1359.97 52.6791 Q1357.36 52.6791 1354.53 52.1583 Q1351.72 51.6664 1348.6 50.6537 L1348.6 45.156 Q1351.55 46.6896 1354.41 47.4708 Q1357.28 48.2231 1360.08 48.2231 Q1363.85 48.2231 1365.87 46.95 Q1367.9 45.6479 1367.9 43.3042 Q1367.9 41.134 1366.42 39.9766 Q1364.97 38.8192 1360.03 37.7486 L1358.17 37.3146 Q1353.23 36.273 1351.03 34.1318 Q1348.83 31.9616 1348.83 28.2001 Q1348.83 23.6283 1352.07 21.1399 Q1355.31 18.6515 1361.27 18.6515 Q1364.22 18.6515 1366.83 19.0855 Q1369.43 19.5196 1371.63 20.3876 Z" fill="#000000" fill-rule="nonzero" fill-opacity="1" /><path clip-path="url(#clip090)" d="M1394.4 23.1654 Q1390.12 23.1654 1387.63 26.5218 Q1385.14 29.8494 1385.14 35.6653 Q1385.14 41.4813 1387.6 44.8377 Q1390.09 48.1653 1394.4 48.1653 Q1398.65 48.1653 1401.14 44.8088 Q1403.63 41.4523 1403.63 35.6653 Q1403.63 29.9072 1401.14 26.5508 Q1398.65 23.1654 1394.4 23.1654 M1394.4 18.6515 Q1401.35 18.6515 1405.31 23.1654 Q1409.27 27.6792 1409.27 35.6653 Q1409.27 43.6225 1405.31 48.1653 Q1401.35 52.6791 1394.4 52.6791 Q1387.43 52.6791 1383.46 48.1653 Q1379.53 43.6225 1379.53 35.6653 Q1379.53 27.6792 1383.46 23.1654 Q1387.43 18.6515 1394.4 18.6515 Z" fill="#000000" fill-rule="nonzero" fill-opacity="1" /><path clip-path="url(#clip090)" d="M1418.1 6.81709 L1423.42 6.81709 L1423.42 51.84 L1418.1 51.84 L1418.1 6.81709 Z" fill="#000000" fill-rule="nonzero" fill-opacity="1" /><path clip-path="url(#clip090)" d="M1434.56 19.4328 L1439.89 19.4328 L1439.89 51.84 L1434.56 51.84 L1434.56 19.4328 M1434.56 6.81709 L1439.89 6.81709 L1439.89 13.559 L1434.56 13.559 L1434.56 6.81709 Z" fill="#000000" fill-rule="nonzero" fill-opacity="1" /><path clip-path="url(#clip090)" d="M1472.35 24.3517 L1472.35 6.81709 L1477.68 6.81709 L1477.68 51.84 L1472.35 51.84 L1472.35 46.9789 Q1470.67 49.8724 1468.1 51.2902 Q1465.55 52.6791 1461.96 52.6791 Q1456.09 52.6791 1452.39 47.9916 Q1448.71 43.3042 1448.71 35.6653 Q1448.71 28.0265 1452.39 23.339 Q1456.09 18.6515 1461.96 18.6515 Q1465.55 18.6515 1468.1 20.0693 Q1470.67 21.4582 1472.35 24.3517 M1454.21 35.6653 Q1454.21 41.5391 1456.61 44.8956 Q1459.04 48.2231 1463.27 48.2231 Q1467.49 48.2231 1469.92 44.8956 Q1472.35 41.5391 1472.35 35.6653 Q1472.35 29.7915 1469.92 26.464 Q1467.49 23.1075 1463.27 23.1075 Q1459.04 23.1075 1456.61 26.464 Q1454.21 29.7915 1454.21 35.6653 Z" fill="#000000" fill-rule="nonzero" fill-opacity="1" /><path clip-path="url(#clip090)" d="M1490 44.4905 L1496.11 44.4905 L1496.11 51.84 L1490 51.84 L1490 44.4905 M1490 21.1978 L1496.11 21.1978 L1496.11 28.5473 L1490 28.5473 L1490 21.1978 Z" fill="#000000" fill-rule="nonzero" fill-opacity="1" /><path clip-path="url(#clip090)" d="M1527.24 6.81709 L1532.59 6.81709 L1532.59 33.4084 L1548.48 19.4328 L1555.28 19.4328 L1538.09 34.5947 L1556 51.84 L1549.06 51.84 L1532.59 36.0125 L1532.59 51.84 L1527.24 51.84 L1527.24 6.81709 Z" fill="#000000" fill-rule="nonzero" fill-opacity="1" /><path clip-path="url(#clip090)" d="M1583.09 24.3517 L1583.09 6.81709 L1588.41 6.81709 L1588.41 51.84 L1583.09 51.84 L1583.09 46.9789 Q1581.41 49.8724 1578.83 51.2902 Q1576.29 52.6791 1572.7 52.6791 Q1566.82 52.6791 1563.12 47.9916 Q1559.45 43.3042 1559.45 35.6653 Q1559.45 28.0265 1563.12 23.339 Q1566.82 18.6515 1572.7 18.6515 Q1576.29 18.6515 1578.83 20.0693 Q1581.41 21.4582 1583.09 24.3517 M1564.94 35.6653 Q1564.94 41.5391 1567.35 44.8956 Q1569.78 48.2231 1574 48.2231 Q1578.23 48.2231 1580.66 44.8956 Q1583.09 41.5391 1583.09 35.6653 Q1583.09 29.7915 1580.66 26.464 Q1578.23 23.1075 1574 23.1075 Q1569.78 23.1075 1567.35 26.464 Q1564.94 29.7915 1564.94 35.6653 Z" fill="#000000" fill-rule="nonzero" fill-opacity="1" /><path clip-path="url(#clip090)" d="M1614.1 35.5496 Q1607.65 35.5496 1605.16 37.0253 Q1602.68 38.501 1602.68 42.06 Q1602.68 44.8956 1604.53 46.5738 Q1606.41 48.2231 1609.62 48.2231 Q1614.05 48.2231 1616.71 45.0981 Q1619.4 41.9442 1619.4 36.7359 L1619.4 35.5496 L1614.1 35.5496 M1624.72 33.3505 L1624.72 51.84 L1619.4 51.84 L1619.4 46.921 Q1617.58 49.8724 1614.86 51.2902 Q1612.14 52.6791 1608.2 52.6791 Q1603.22 52.6791 1600.27 49.9014 Q1597.35 47.0947 1597.35 42.4072 Q1597.35 36.9385 1601 34.1607 Q1604.67 31.3829 1611.93 31.3829 L1619.4 31.3829 L1619.4 30.8621 Q1619.4 27.1874 1616.97 25.1908 Q1614.57 23.1654 1610.2 23.1654 Q1607.42 23.1654 1604.79 23.8309 Q1602.15 24.4964 1599.72 25.8274 L1599.72 20.9085 Q1602.65 19.78 1605.4 19.2302 Q1608.14 18.6515 1610.75 18.6515 Q1617.78 18.6515 1621.25 22.2973 Q1624.72 25.9431 1624.72 33.3505 Z" fill="#000000" fill-rule="nonzero" fill-opacity="1" /><path clip-path="url(#clip090)" d="M1660.92 25.6538 Q1662.92 22.0659 1665.7 20.3587 Q1668.47 18.6515 1672.23 18.6515 Q1677.3 18.6515 1680.05 22.2105 Q1682.8 25.7406 1682.8 32.2799 L1682.8 51.84 L1677.44 51.84 L1677.44 32.4535 Q1677.44 27.795 1675.79 25.5381 Q1674.14 23.2811 1670.76 23.2811 Q1666.62 23.2811 1664.22 26.03 Q1661.82 28.7788 1661.82 33.5241 L1661.82 51.84 L1656.47 51.84 L1656.47 32.4535 Q1656.47 27.7661 1654.82 25.5381 Q1653.17 23.2811 1649.72 23.2811 Q1645.64 23.2811 1643.24 26.0589 Q1640.84 28.8077 1640.84 33.5241 L1640.84 51.84 L1635.49 51.84 L1635.49 19.4328 L1640.84 19.4328 L1640.84 24.4675 Q1642.66 21.4872 1645.21 20.0693 Q1647.76 18.6515 1651.26 18.6515 Q1654.79 18.6515 1657.25 20.4455 Q1659.74 22.2395 1660.92 25.6538 Z" fill="#000000" fill-rule="nonzero" fill-opacity="1" /><path clip-path="url(#clip090)" d="M1712.95 24.9304 L1750.04 24.9304 L1750.04 29.7915 L1712.95 29.7915 L1712.95 24.9304 M1712.95 36.7359 L1750.04 36.7359 L1750.04 41.6549 L1712.95 41.6549 L1712.95 36.7359 Z" fill="#000000" fill-rule="nonzero" fill-opacity="1" /><path clip-path="url(#clip090)" d="M1782.51 46.921 L1792.05 46.921 L1792.05 13.964 L1781.67 16.0474 L1781.67 10.7233 L1792 8.64 L1797.84 8.64 L1797.84 46.921 L1807.39 46.921 L1807.39 51.84 L1782.51 51.84 L1782.51 46.921 Z" fill="#000000" fill-rule="nonzero" fill-opacity="1" /><polyline clip-path="url(#clip092)" style="stroke:#1f77b4; stroke-linecap:round; stroke-linejoin:round; stroke-width:6; stroke-opacity:1; fill:none" points="279.759,1419.29 302.372,1418.32 324.986,1417.07 347.6,1415.63 370.213,1414.06 392.827,1412.4 415.441,1410.67 438.055,1408.91 460.668,1407.12 483.282,1405.31 505.896,1403.51 528.509,1401.71 551.123,1399.92 573.737,1398.16 596.35,1396.41 618.964,1394.69 641.578,1393 664.191,1391.34 686.805,1389.7 709.419,1388.1 732.033,1386.53 754.646,1385 777.26,1383.49 799.874,1382.02 822.487,1380.58 845.101,1379.17 867.715,1377.8 890.328,1376.45 912.942,1375.13 935.556,1373.85 958.169,1372.59 980.783,1371.36 1003.4,1370.16 1026.01,1368.99 1048.62,1367.84 1071.24,1366.72 1093.85,1365.62 1116.47,1364.55 1139.08,1363.5 1161.69,1362.47 1184.31,1361.47 1206.92,1360.48 1229.53,1359.52 1252.15,1358.58 1274.76,1357.66 1297.37,1356.76 1319.99,1355.88 1342.6,1355.02 1365.22,1354.17 1387.83,1353.35 1410.44,1352.53 1433.06,1351.74 1455.67,1350.96 1478.28,1350.2 1500.9,1349.45 1523.51,1348.72 1546.13,1348 1568.74,1347.29 1591.35,1346.6 1613.97,1345.92 1636.58,1345.26 1659.19,1344.61 1681.81,1343.96 1704.42,1343.34 1727.04,1342.72 1749.65,1342.11 1772.26,1341.52 1794.88,1340.93 1817.49,1340.36 1840.1,1339.79 1862.72,1339.24 1885.33,1338.69 1907.94,1338.16 1930.56,1337.63 1953.17,1337.12 1975.79,1336.61 1998.4,1336.11 2021.01,1335.62 2043.63,1335.13 2066.24,1334.66 2088.85,1334.19 2111.47,1333.73 2134.08,1333.28 2156.7,1332.83 2179.31,1332.39 2201.92,1331.96 2224.54,1331.53 2247.15,1331.11 2269.76,1330.7 2292.38,1330.3 "/>
<polyline clip-path="url(#clip092)" style="stroke:#ff7e0d; stroke-linecap:round; stroke-linejoin:round; stroke-width:6; stroke-opacity:1; fill:none" points="279.759,1121.25 398.148,1175.28 516.537,1219.78 634.927,1256.53 753.316,1286.95 871.705,1312.21 990.095,1333.19 1108.48,1350.63 1226.87,1365.14 1345.26,1377.17 1463.65,1387.14 1582.04,1395.35 1700.43,1402.07 1818.82,1407.51 1937.21,1411.84 2055.6,1415.19 2173.99,1417.66 2292.38,1419.25 "/>
<polyline clip-path="url(#clip092)" style="stroke:#2ba02b; stroke-linecap:round; stroke-linejoin:round; stroke-width:6; stroke-opacity:1; fill:none" points="279.759,1418.72 363.618,1416.18 447.477,1412.54 531.336,1407.93 615.195,1402.39 699.054,1395.95 782.913,1388.62 866.772,1380.42 950.632,1371.35 1034.49,1361.42 1118.35,1350.63 1202.21,1338.99 1286.07,1326.5 1369.93,1313.17 1453.79,1298.98 1537.65,1283.95 1621.5,1268.08 1705.36,1251.37 1789.22,1233.82 1873.08,1215.43 1956.94,1196.21 2040.8,1176.15 2124.66,1155.25 2208.52,1133.52 2292.38,1110.96 "/>
<polyline clip-path="url(#clip092)" style="stroke:#d52628; stroke-linecap:round; stroke-linejoin:round; stroke-width:6; stroke-opacity:1; fill:none" points="279.759,1419.49 304.303,1418.47 328.847,1417.02 353.391,1415.27 377.935,1413.27 402.479,1411.09 427.023,1408.73 451.568,1406.22 476.112,1403.59 500.656,1400.84 525.2,1397.98 549.744,1395.03 574.288,1391.99 598.832,1388.87 623.377,1385.67 647.921,1382.41 672.465,1379.08 697.009,1375.69 721.553,1372.25 746.097,1368.75 770.641,1365.2 795.185,1361.6 819.73,1357.96 844.274,1354.28 868.818,1350.55 893.362,1346.79 917.906,1342.99 942.45,1339.15 966.994,1335.28 991.538,1331.38 1016.08,1327.44 1040.63,1323.48 1065.17,1319.49 1089.71,1315.47 1114.26,1311.42 1138.8,1307.35 1163.35,1303.25 1187.89,1299.13 1212.44,1294.99 1236.98,1290.82 1261.52,1286.64 1286.07,1282.43 1310.61,1278.2 1335.16,1273.95 1359.7,1269.68 1384.24,1265.4 1408.79,1261.09 1433.33,1256.77 1457.88,1252.43 1482.42,1248.07 1506.97,1243.7 1531.51,1239.31 1556.05,1234.91 1580.6,1230.52 1605.14,1226.06 1629.69,1221.61 1654.23,1217.15 1678.77,1212.68 1703.32,1208.19 1727.86,1203.69 1752.41,1199.17 1776.95,1194.66 1801.49,1190.11 1826.04,1185.56 1850.58,1181 1875.13,1176.42 1899.67,1171.86 1924.22,1167.25 1948.76,1162.64 1973.3,1158.02 1997.85,1153.4 2022.39,1148.76 2046.94,1144.11 2071.48,1139.9 2096.02,1134.79 2120.57,1130.11 2145.11,1125.43 2169.66,1120.73 2194.2,1116.12 2218.74,1111.32 2243.29,1106.6 2267.83,1101.87 2292.38,1097.13 "/>
<polyline clip-path="url(#clip092)" style="stroke:#9466bd; stroke-linecap:round; stroke-linejoin:round; stroke-width:6; stroke-opacity:1; fill:none" points="279.759,1350.63 2292.38,1212.73 "/>
<polyline clip-path="url(#clip092)" style="stroke:#1f77b4; stroke-linecap:round; stroke-linejoin:round; stroke-width:6; stroke-opacity:1; fill:none" stroke-dasharray="24, 15" points="279.759,1419.29 302.372,1418.32 324.986,1417.07 347.6,1415.63 370.213,1414.06 392.827,1412.4 415.441,1410.67 438.055,1408.91 460.668,1407.12 483.282,1405.31 505.896,1403.51 528.509,1401.71 551.123,1399.92 573.737,1398.16 596.35,1396.41 618.964,1394.69 641.578,1393 664.191,1391.34 686.805,1389.7 709.419,1388.1 732.033,1386.53 754.646,1385 777.26,1383.49 799.874,1382.02 822.487,1380.58 845.101,1379.17 867.715,1377.8 890.328,1376.45 912.942,1375.13 935.556,1373.85 958.169,1372.59 980.783,1371.36 1003.4,1370.16 1026.01,1368.99 1048.62,1367.84 1071.24,1366.72 1093.85,1365.62 1116.47,1364.55 1139.08,1363.5 1161.69,1362.47 1184.31,1361.47 1206.92,1360.48 1229.53,1359.52 1252.15,1358.58 1274.76,1357.66 1297.37,1356.76 1319.99,1355.88 1342.6,1355.02 1365.22,1354.17 1387.83,1353.35 1410.44,1352.53 1433.06,1351.74 1455.67,1350.96 1478.28,1350.2 1500.9,1349.45 1523.51,1348.72 1546.13,1348 1568.74,1347.29 1591.35,1346.6 1613.97,1345.92 1636.58,1345.26 1659.19,1344.61 1681.81,1343.96 1704.42,1343.34 1727.04,1342.72 1749.65,1342.11 1772.26,1341.52 1794.88,1340.93 1817.49,1340.36 1840.1,1339.79 1862.72,1339.24 1885.33,1338.69 1907.94,1338.16 1930.56,1337.63 1953.17,1337.12 1975.79,1336.61 1998.4,1336.11 2021.01,1335.62 2043.63,1335.13 2066.24,1334.66 2088.85,1334.19 2111.47,1333.73 2134.08,1333.28 2156.7,1332.83 2179.31,1332.39 2201.92,1331.96 2224.54,1331.53 2247.15,1331.11 2269.76,1330.7 2292.38,1330.3 "/>
<polyline clip-path="url(#clip092)" style="stroke:#ff7e0d; stroke-linecap:round; stroke-linejoin:round; stroke-width:6; stroke-opacity:1; fill:none" stroke-dasharray="24, 15" points="279.759,159.596 363.618,404.495 447.477,597.788 531.336,751.621 615.195,874.943 699.054,974.475 782.913,1055.28 866.772,1121.25 950.632,1175.28 1034.49,1219.78 1118.35,1256.53 1202.21,1286.95 1286.07,1312.21 1369.93,1333.19 1453.79,1350.63 1537.65,1365.14 1621.5,1377.17 1705.36,1387.14 1789.22,1395.35 1873.08,1402.07 1956.94,1407.51 2040.8,1411.84 2124.66,1415.19 2208.52,1417.66 2292.38,1419.25 "/>
<polyline clip-path="url(#clip092)" style="stroke:#2ba02b; stroke-linecap:round; stroke-linejoin:round; stroke-width:6; stroke-opacity:1; fill:none" stroke-dasharray="24, 15" points="279.759,1418.72 318.463,1416.18 357.167,1412.54 395.871,1407.93 434.576,1402.39 473.28,1395.95 511.984,1388.62 550.688,1380.42 589.392,1371.35 628.097,1361.42 666.801,1350.63 705.505,1338.99 744.209,1326.5 782.913,1313.17 821.618,1298.98 860.322,1283.95 899.026,1268.08 937.73,1251.37 976.434,1233.82 1015.14,1215.43 1053.84,1196.21 1092.55,1176.15 1131.25,1155.25 1169.96,1133.52 1208.66,1110.96 1247.36,1087.56 1286.07,1063.34 1324.77,1038.28 1363.48,1012.39 1402.18,985.679 1440.88,958.138 1479.59,929.769 1518.29,900.574 1557,870.555 1595.7,839.736 1634.41,808.043 1673.11,775.564 1711.81,742.241 1750.52,708.107 1789.22,673.153 1827.93,637.38 1866.63,600.788 1905.34,563.377 1944.04,525.15 1982.74,486.105 2021.45,446.245 2060.15,405.57 2098.86,364.08 2137.56,321.777 2176.26,278.661 2214.97,234.733 2253.67,189.994 2292.38,144.443 "/>
<polyline clip-path="url(#clip092)" style="stroke:#d52628; stroke-linecap:round; stroke-linejoin:round; stroke-width:6; stroke-opacity:1; fill:none" stroke-dasharray="24, 15" points="279.759,1419.49 302.121,1418.47 324.484,1417.02 346.846,1415.27 369.208,1413.27 391.571,1411.09 413.933,1408.73 436.296,1406.22 458.658,1403.59 481.021,1400.84 503.383,1397.98 525.745,1395.03 548.108,1391.99 570.47,1388.87 592.833,1385.67 615.195,1382.41 637.558,1379.08 659.92,1375.69 682.282,1372.25 704.645,1368.75 727.007,1365.2 749.37,1361.6 771.732,1357.96 794.095,1354.28 816.457,1350.55 838.819,1346.79 861.182,1342.99 883.544,1339.15 905.907,1335.28 928.269,1331.38 950.632,1327.44 972.994,1323.48 995.356,1319.49 1017.72,1315.47 1040.08,1311.42 1062.44,1307.35 1084.81,1303.25 1107.17,1299.13 1129.53,1294.99 1151.89,1290.82 1174.26,1286.64 1196.62,1282.43 1218.98,1278.2 1241.34,1273.95 1263.71,1269.68 1286.07,1265.4 1308.43,1261.09 1330.79,1256.77 1353.16,1252.43 1375.52,1248.07 1397.88,1243.7 1420.24,1239.31 1442.61,1234.91 1464.97,1230.52 1487.33,1226.06 1509.69,1221.61 1532.05,1217.15 1554.42,1212.68 1576.78,1208.19 1599.14,1203.69 1621.5,1199.17 1643.87,1194.66 1666.23,1190.11 1688.59,1185.56 1710.95,1181 1733.32,1176.42 1755.68,1171.86 1778.04,1167.25 1800.4,1162.64 1822.77,1158.02 1845.13,1153.4 1867.49,1148.76 1889.85,1144.11 1912.22,1139.9 1934.58,1134.79 1956.94,1130.11 1979.3,1125.43 2001.67,1120.73 2024.03,1116.12 2046.39,1111.32 2068.75,1106.6 2091.12,1101.87 2113.48,1097.13 2135.84,1092.39 2158.2,1087.64 2180.57,1082.88 2202.93,1078.11 2225.29,1073.33 2247.65,1068.55 2270.01,1063.75 2292.38,1058.96 "/>
<polyline clip-path="url(#clip092)" style="stroke:#9466bd; stroke-linecap:round; stroke-linejoin:round; stroke-width:6; stroke-opacity:1; fill:none" stroke-dasharray="24, 15" points="279.759,1350.63 567.276,1212.73 854.793,1058.96 1142.31,897.058 1429.83,729.985 1717.34,559.241 2004.86,385.721 2292.38,210.002 "/>
<path clip-path="url(#clip090)" d="M290.493 462.284 L884.708 462.284 L884.708 151.244 L290.493 151.244  Z" fill="#ffffff" fill-rule="evenodd" fill-opacity="1"/>
<polyline clip-path="url(#clip090)" style="stroke:#000000; stroke-linecap:round; stroke-linejoin:round; stroke-width:4; stroke-opacity:1; fill:none" points="290.493,462.284 884.708,462.284 884.708,151.244 290.493,151.244 290.493,462.284 "/>
<polyline clip-path="url(#clip090)" style="stroke:#1f77b4; stroke-linecap:round; stroke-linejoin:round; stroke-width:6; stroke-opacity:1; fill:none" points="314.197,203.084 456.422,203.084 "/>
<path clip-path="url(#clip090)" d="M495.959 190.41 L489.617 207.609 L502.325 207.609 L495.959 190.41 M493.32 185.804 L498.621 185.804 L511.793 220.364 L506.931 220.364 L503.783 211.498 L488.205 211.498 L485.057 220.364 L480.126 220.364 L493.32 185.804 Z" fill="#000000" fill-rule="nonzero" fill-opacity="1" /><path clip-path="url(#clip090)" d="M508.367 185.804 L537.603 185.804 L537.603 189.739 L525.334 189.739 L525.334 220.364 L520.635 220.364 L520.635 189.739 L508.367 189.739 L508.367 185.804 Z" fill="#000000" fill-rule="nonzero" fill-opacity="1" /><path clip-path="url(#clip090)" d="M546.792 189.646 L546.792 202.632 L552.672 202.632 Q555.936 202.632 557.718 200.943 Q559.501 199.253 559.501 196.128 Q559.501 193.026 557.718 191.336 Q555.936 189.646 552.672 189.646 L546.792 189.646 M542.116 185.804 L552.672 185.804 Q558.482 185.804 561.445 188.443 Q564.431 191.058 564.431 196.128 Q564.431 201.243 561.445 203.859 Q558.482 206.475 552.672 206.475 L546.792 206.475 L546.792 220.364 L542.116 220.364 L542.116 185.804 Z" fill="#000000" fill-rule="nonzero" fill-opacity="1" /><path clip-path="url(#clip090)" d="M586.144 198.836 L615.82 198.836 L615.82 202.725 L586.144 202.725 L586.144 198.836 M586.144 208.28 L615.82 208.28 L615.82 212.216 L586.144 212.216 L586.144 208.28 Z" fill="#000000" fill-rule="nonzero" fill-opacity="1" /><path clip-path="url(#clip090)" d="M655.148 201.73 Q658.505 202.447 660.38 204.716 Q662.278 206.984 662.278 210.317 Q662.278 215.433 658.759 218.234 Q655.241 221.035 648.759 221.035 Q646.584 221.035 644.269 220.595 Q641.977 220.179 639.523 219.322 L639.523 214.808 Q641.468 215.942 643.783 216.521 Q646.097 217.1 648.621 217.1 Q653.019 217.1 655.31 215.364 Q657.625 213.628 657.625 210.317 Q657.625 207.262 655.472 205.549 Q653.343 203.813 649.523 203.813 L645.496 203.813 L645.496 199.97 L649.709 199.97 Q653.158 199.97 654.986 198.605 Q656.815 197.216 656.815 194.623 Q656.815 191.961 654.917 190.549 Q653.042 189.114 649.523 189.114 Q647.602 189.114 645.403 189.531 Q643.204 189.947 640.565 190.827 L640.565 186.66 Q643.227 185.919 645.542 185.549 Q647.88 185.179 649.94 185.179 Q655.264 185.179 658.366 187.609 Q661.468 190.017 661.468 194.137 Q661.468 197.007 659.824 198.998 Q658.181 200.966 655.148 201.73 Z" fill="#000000" fill-rule="nonzero" fill-opacity="1" /><path clip-path="url(#clip090)" d="M681.144 188.882 Q677.532 188.882 675.704 192.447 Q673.898 195.989 673.898 203.118 Q673.898 210.225 675.704 213.79 Q677.532 217.331 681.144 217.331 Q684.778 217.331 686.583 213.79 Q688.412 210.225 688.412 203.118 Q688.412 195.989 686.583 192.447 Q684.778 188.882 681.144 188.882 M681.144 185.179 Q686.954 185.179 690.009 189.785 Q693.088 194.368 693.088 203.118 Q693.088 211.845 690.009 216.452 Q686.954 221.035 681.144 221.035 Q675.333 221.035 672.255 216.452 Q669.199 211.845 669.199 203.118 Q669.199 194.368 672.255 189.785 Q675.333 185.179 681.144 185.179 Z" fill="#000000" fill-rule="nonzero" fill-opacity="1" /><path clip-path="url(#clip090)" d="M711.305 188.882 Q707.694 188.882 705.866 192.447 Q704.06 195.989 704.06 203.118 Q704.06 210.225 705.866 213.79 Q707.694 217.331 711.305 217.331 Q714.94 217.331 716.745 213.79 Q718.574 210.225 718.574 203.118 Q718.574 195.989 716.745 192.447 Q714.94 188.882 711.305 188.882 M711.305 185.179 Q717.116 185.179 720.171 189.785 Q723.25 194.368 723.25 203.118 Q723.25 211.845 720.171 216.452 Q717.116 221.035 711.305 221.035 Q705.495 221.035 702.417 216.452 Q699.361 211.845 699.361 203.118 Q699.361 194.368 702.417 189.785 Q705.495 185.179 711.305 185.179 Z" fill="#000000" fill-rule="nonzero" fill-opacity="1" /><path clip-path="url(#clip090)" d="M728.713 205.48 L741.189 205.48 L741.189 209.276 L728.713 209.276 L728.713 205.48 Z" fill="#000000" fill-rule="nonzero" fill-opacity="1" /><path clip-path="url(#clip090)" d="M748.62 185.804 L766.976 185.804 L766.976 189.739 L752.902 189.739 L752.902 198.211 Q753.921 197.864 754.939 197.702 Q755.958 197.517 756.976 197.517 Q762.763 197.517 766.143 200.688 Q769.523 203.859 769.523 209.276 Q769.523 214.854 766.05 217.956 Q762.578 221.035 756.259 221.035 Q754.083 221.035 751.814 220.665 Q749.569 220.294 747.162 219.554 L747.162 214.854 Q749.245 215.989 751.467 216.544 Q753.689 217.1 756.166 217.1 Q760.171 217.1 762.509 214.993 Q764.847 212.887 764.847 209.276 Q764.847 205.665 762.509 203.558 Q760.171 201.452 756.166 201.452 Q754.291 201.452 752.416 201.868 Q750.564 202.285 748.62 203.165 L748.62 185.804 Z" fill="#000000" fill-rule="nonzero" fill-opacity="1" /><path clip-path="url(#clip090)" d="M778.782 185.804 L797.138 185.804 L797.138 189.739 L783.064 189.739 L783.064 198.211 Q784.083 197.864 785.101 197.702 Q786.12 197.517 787.138 197.517 Q792.925 197.517 796.305 200.688 Q799.685 203.859 799.685 209.276 Q799.685 214.854 796.212 217.956 Q792.74 221.035 786.421 221.035 Q784.245 221.035 781.976 220.665 Q779.731 220.294 777.324 219.554 L777.324 214.854 Q779.407 215.989 781.629 216.544 Q783.851 217.1 786.328 217.1 Q790.333 217.1 792.671 214.993 Q795.009 212.887 795.009 209.276 Q795.009 205.665 792.671 203.558 Q790.333 201.452 786.328 201.452 Q784.453 201.452 782.578 201.868 Q780.726 202.285 778.782 203.165 L778.782 185.804 Z" fill="#000000" fill-rule="nonzero" fill-opacity="1" /><path clip-path="url(#clip090)" d="M818.897 188.882 Q815.286 188.882 813.458 192.447 Q811.652 195.989 811.652 203.118 Q811.652 210.225 813.458 213.79 Q815.286 217.331 818.897 217.331 Q822.532 217.331 824.337 213.79 Q826.166 210.225 826.166 203.118 Q826.166 195.989 824.337 192.447 Q822.532 188.882 818.897 188.882 M818.897 185.179 Q824.708 185.179 827.763 189.785 Q830.842 194.368 830.842 203.118 Q830.842 211.845 827.763 216.452 Q824.708 221.035 818.897 221.035 Q813.087 221.035 810.009 216.452 Q806.953 211.845 806.953 203.118 Q806.953 194.368 810.009 189.785 Q813.087 185.179 818.897 185.179 Z" fill="#000000" fill-rule="nonzero" fill-opacity="1" /><path clip-path="url(#clip090)" d="M849.059 188.882 Q845.448 188.882 843.62 192.447 Q841.814 195.989 841.814 203.118 Q841.814 210.225 843.62 213.79 Q845.448 217.331 849.059 217.331 Q852.694 217.331 854.499 213.79 Q856.328 210.225 856.328 203.118 Q856.328 195.989 854.499 192.447 Q852.694 188.882 849.059 188.882 M849.059 185.179 Q854.869 185.179 857.925 189.785 Q861.004 194.368 861.004 203.118 Q861.004 211.845 857.925 216.452 Q854.869 221.035 849.059 221.035 Q843.249 221.035 840.17 216.452 Q837.115 211.845 837.115 203.118 Q837.115 194.368 840.17 189.785 Q843.249 185.179 849.059 185.179 Z" fill="#000000" fill-rule="nonzero" fill-opacity="1" /><polyline clip-path="url(#clip090)" style="stroke:#ff7e0d; stroke-linecap:round; stroke-linejoin:round; stroke-width:6; stroke-opacity:1; fill:none" points="314.197,254.924 456.422,254.924 "/>
<path clip-path="url(#clip090)" d="M493.39 240.236 L505.357 272.204 L500.844 272.204 L493.575 253.037 L484.64 272.204 L480.126 272.204 L491.492 247.343 L489.779 242.759 Q488.691 239.843 486.214 239.843 L483.992 239.843 L483.992 236.185 L486.7 236.232 Q491.932 236.301 493.39 240.236 Z" fill="#000000" fill-rule="nonzero" fill-opacity="1" /><path clip-path="url(#clip090)" d="M526.862 250.676 L556.538 250.676 L556.538 254.565 L526.862 254.565 L526.862 250.676 M526.862 260.12 L556.538 260.12 L556.538 264.056 L526.862 264.056 L526.862 260.12 Z" fill="#000000" fill-rule="nonzero" fill-opacity="1" /><path clip-path="url(#clip090)" d="M591.7 240.722 Q588.088 240.722 586.26 244.287 Q584.454 247.829 584.454 254.958 Q584.454 262.065 586.26 265.63 Q588.088 269.171 591.7 269.171 Q595.334 269.171 597.139 265.63 Q598.968 262.065 598.968 254.958 Q598.968 247.829 597.139 244.287 Q595.334 240.722 591.7 240.722 M591.7 237.019 Q597.51 237.019 600.565 241.625 Q603.644 246.208 603.644 254.958 Q603.644 263.685 600.565 268.292 Q597.51 272.875 591.7 272.875 Q585.889 272.875 582.811 268.292 Q579.755 263.685 579.755 254.958 Q579.755 246.208 582.811 241.625 Q585.889 237.019 591.7 237.019 Z" fill="#000000" fill-rule="nonzero" fill-opacity="1" /><path clip-path="url(#clip090)" d="M611.861 266.324 L616.746 266.324 L616.746 272.204 L611.861 272.204 L611.861 266.324 Z" fill="#000000" fill-rule="nonzero" fill-opacity="1" /><path clip-path="url(#clip090)" d="M636.931 240.722 Q633.32 240.722 631.491 244.287 Q629.685 247.829 629.685 254.958 Q629.685 262.065 631.491 265.63 Q633.32 269.171 636.931 269.171 Q640.565 269.171 642.371 265.63 Q644.199 262.065 644.199 254.958 Q644.199 247.829 642.371 244.287 Q640.565 240.722 636.931 240.722 M636.931 237.019 Q642.741 237.019 645.796 241.625 Q648.875 246.208 648.875 254.958 Q648.875 263.685 645.796 268.292 Q642.741 272.875 636.931 272.875 Q631.121 272.875 628.042 268.292 Q624.986 263.685 624.986 254.958 Q624.986 246.208 628.042 241.625 Q631.121 237.019 636.931 237.019 Z" fill="#000000" fill-rule="nonzero" fill-opacity="1" /><path clip-path="url(#clip090)" d="M667.093 240.722 Q663.482 240.722 661.653 244.287 Q659.847 247.829 659.847 254.958 Q659.847 262.065 661.653 265.63 Q663.482 269.171 667.093 269.171 Q670.727 269.171 672.532 265.63 Q674.361 262.065 674.361 254.958 Q674.361 247.829 672.532 244.287 Q670.727 240.722 667.093 240.722 M667.093 237.019 Q672.903 237.019 675.958 241.625 Q679.037 246.208 679.037 254.958 Q679.037 263.685 675.958 268.292 Q672.903 272.875 667.093 272.875 Q661.283 272.875 658.204 268.292 Q655.148 263.685 655.148 254.958 Q655.148 246.208 658.204 241.625 Q661.283 237.019 667.093 237.019 Z" fill="#000000" fill-rule="nonzero" fill-opacity="1" /><path clip-path="url(#clip090)" d="M688.065 268.269 L695.704 268.269 L695.704 241.903 L687.393 243.57 L687.393 239.31 L695.657 237.644 L700.333 237.644 L700.333 268.269 L707.972 268.269 L707.972 272.204 L688.065 272.204 L688.065 268.269 Z" fill="#000000" fill-rule="nonzero" fill-opacity="1" /><path clip-path="url(#clip090)" d="M714.662 257.32 L727.139 257.32 L727.139 261.116 L714.662 261.116 L714.662 257.32 Z" fill="#000000" fill-rule="nonzero" fill-opacity="1" /><path clip-path="url(#clip090)" d="M744.523 240.722 Q740.912 240.722 739.083 244.287 Q737.277 247.829 737.277 254.958 Q737.277 262.065 739.083 265.63 Q740.912 269.171 744.523 269.171 Q748.157 269.171 749.963 265.63 Q751.791 262.065 751.791 254.958 Q751.791 247.829 749.963 244.287 Q748.157 240.722 744.523 240.722 M744.523 237.019 Q750.333 237.019 753.389 241.625 Q756.467 246.208 756.467 254.958 Q756.467 263.685 753.389 268.292 Q750.333 272.875 744.523 272.875 Q738.713 272.875 735.634 268.292 Q732.578 263.685 732.578 254.958 Q732.578 246.208 735.634 241.625 Q738.713 237.019 744.523 237.019 Z" fill="#000000" fill-rule="nonzero" fill-opacity="1" /><path clip-path="url(#clip090)" d="M764.685 266.324 L769.569 266.324 L769.569 272.204 L764.685 272.204 L764.685 266.324 Z" fill="#000000" fill-rule="nonzero" fill-opacity="1" /><path clip-path="url(#clip090)" d="M789.754 240.722 Q786.143 240.722 784.314 244.287 Q782.509 247.829 782.509 254.958 Q782.509 262.065 784.314 265.63 Q786.143 269.171 789.754 269.171 Q793.388 269.171 795.194 265.63 Q797.023 262.065 797.023 254.958 Q797.023 247.829 795.194 244.287 Q793.388 240.722 789.754 240.722 M789.754 237.019 Q795.564 237.019 798.62 241.625 Q801.698 246.208 801.698 254.958 Q801.698 263.685 798.62 268.292 Q795.564 272.875 789.754 272.875 Q783.944 272.875 780.865 268.292 Q777.81 263.685 777.81 254.958 Q777.81 246.208 780.865 241.625 Q783.944 237.019 789.754 237.019 Z" fill="#000000" fill-rule="nonzero" fill-opacity="1" /><path clip-path="url(#clip090)" d="M822.763 241.718 L810.958 260.167 L822.763 260.167 L822.763 241.718 M821.536 237.644 L827.416 237.644 L827.416 260.167 L832.346 260.167 L832.346 264.056 L827.416 264.056 L827.416 272.204 L822.763 272.204 L822.763 264.056 L807.161 264.056 L807.161 259.542 L821.536 237.644 Z" fill="#000000" fill-rule="nonzero" fill-opacity="1" /><polyline clip-path="url(#clip090)" style="stroke:#2ba02b; stroke-linecap:round; stroke-linejoin:round; stroke-width:6; stroke-opacity:1; fill:none" points="314.197,306.764 456.422,306.764 "/>
<path clip-path="url(#clip090)" d="M480.126 288.025 L484.408 288.025 L484.408 309.298 L497.117 298.118 L502.557 298.118 L488.807 310.247 L503.135 324.044 L497.58 324.044 L484.408 311.382 L484.408 324.044 L480.126 324.044 L480.126 288.025 Z" fill="#000000" fill-rule="nonzero" fill-opacity="1" /><path clip-path="url(#clip090)" d="M507.742 298.118 L512.001 298.118 L512.001 324.044 L507.742 324.044 L507.742 298.118 M507.742 288.025 L512.001 288.025 L512.001 293.419 L507.742 293.419 L507.742 288.025 Z" fill="#000000" fill-rule="nonzero" fill-opacity="1" /><path clip-path="url(#clip090)" d="M542.464 308.396 L542.464 324.044 L538.204 324.044 L538.204 308.535 Q538.204 304.854 536.769 303.025 Q535.334 301.197 532.464 301.197 Q529.015 301.197 527.024 303.396 Q525.033 305.595 525.033 309.391 L525.033 324.044 L520.751 324.044 L520.751 298.118 L525.033 298.118 L525.033 302.146 Q526.561 299.808 528.621 298.65 Q530.705 297.493 533.413 297.493 Q537.88 297.493 540.172 300.271 Q542.464 303.025 542.464 308.396 Z" fill="#000000" fill-rule="nonzero" fill-opacity="1" /><path clip-path="url(#clip090)" d="M566.584 302.516 L596.26 302.516 L596.26 306.405 L566.584 306.405 L566.584 302.516 M566.584 311.96 L596.26 311.96 L596.26 315.896 L566.584 315.896 L566.584 311.96 Z" fill="#000000" fill-rule="nonzero" fill-opacity="1" /><path clip-path="url(#clip090)" d="M631.422 292.562 Q627.81 292.562 625.982 296.127 Q624.176 299.669 624.176 306.798 Q624.176 313.905 625.982 317.47 Q627.81 321.011 631.422 321.011 Q635.056 321.011 636.861 317.47 Q638.69 313.905 638.69 306.798 Q638.69 299.669 636.861 296.127 Q635.056 292.562 631.422 292.562 M631.422 288.859 Q637.232 288.859 640.287 293.465 Q643.366 298.048 643.366 306.798 Q643.366 315.525 640.287 320.132 Q637.232 324.715 631.422 324.715 Q625.611 324.715 622.533 320.132 Q619.477 315.525 619.477 306.798 Q619.477 298.048 622.533 293.465 Q625.611 288.859 631.422 288.859 Z" fill="#000000" fill-rule="nonzero" fill-opacity="1" /><path clip-path="url(#clip090)" d="M648.829 309.16 L661.306 309.16 L661.306 312.956 L648.829 312.956 L648.829 309.16 Z" fill="#000000" fill-rule="nonzero" fill-opacity="1" /><path clip-path="url(#clip090)" d="M678.69 292.562 Q675.079 292.562 673.25 296.127 Q671.445 299.669 671.445 306.798 Q671.445 313.905 673.25 317.47 Q675.079 321.011 678.69 321.011 Q682.324 321.011 684.13 317.47 Q685.958 313.905 685.958 306.798 Q685.958 299.669 684.13 296.127 Q682.324 292.562 678.69 292.562 M678.69 288.859 Q684.5 288.859 687.556 293.465 Q690.634 298.048 690.634 306.798 Q690.634 315.525 687.556 320.132 Q684.5 324.715 678.69 324.715 Q672.88 324.715 669.801 320.132 Q666.745 315.525 666.745 306.798 Q666.745 298.048 669.801 293.465 Q672.88 288.859 678.69 288.859 Z" fill="#000000" fill-rule="nonzero" fill-opacity="1" /><path clip-path="url(#clip090)" d="M698.852 318.164 L703.736 318.164 L703.736 324.044 L698.852 324.044 L698.852 318.164 Z" fill="#000000" fill-rule="nonzero" fill-opacity="1" /><path clip-path="url(#clip090)" d="M714.731 320.109 L722.37 320.109 L722.37 293.743 L714.06 295.41 L714.06 291.15 L722.324 289.484 L727 289.484 L727 320.109 L734.639 320.109 L734.639 324.044 L714.731 324.044 L714.731 320.109 Z" fill="#000000" fill-rule="nonzero" fill-opacity="1" /><polyline clip-path="url(#clip090)" style="stroke:#d52628; stroke-linecap:round; stroke-linejoin:round; stroke-width:6; stroke-opacity:1; fill:none" points="314.197,358.604 456.422,358.604 "/>
<path clip-path="url(#clip090)" d="M489.733 376.555 Q480.126 376.555 480.126 362.805 Q480.126 357.365 483.714 349.958 L488.297 349.958 Q484.987 357.365 484.987 362.921 Q484.987 372.944 490.126 372.944 Q494.825 372.944 494.825 360.49 L498.76 360.49 Q498.76 372.944 503.459 372.944 Q508.598 372.944 508.598 362.921 Q508.598 357.365 505.288 349.958 L509.871 349.958 Q513.459 357.365 513.459 362.805 Q513.459 376.555 503.853 376.555 Q497.557 376.555 496.793 369.634 Q495.844 376.555 489.733 376.555 Z" fill="#000000" fill-rule="nonzero" fill-opacity="1" /><path clip-path="url(#clip090)" d="M540.866 383.754 L540.866 387.064 L516.237 387.064 L516.237 383.754 L540.866 383.754 Z" fill="#000000" fill-rule="nonzero" fill-opacity="1" /><path clip-path="url(#clip090)" d="M556.653 362.851 Q551.491 362.851 549.501 364.032 Q547.51 365.212 547.51 368.06 Q547.51 370.328 548.991 371.671 Q550.496 372.99 553.066 372.99 Q556.607 372.99 558.737 370.49 Q560.89 367.967 560.89 363.8 L560.89 362.851 L556.653 362.851 M565.149 361.092 L565.149 375.884 L560.89 375.884 L560.89 371.949 Q559.431 374.31 557.255 375.444 Q555.079 376.555 551.931 376.555 Q547.95 376.555 545.589 374.333 Q543.251 372.087 543.251 368.337 Q543.251 363.962 546.167 361.74 Q549.107 359.518 554.917 359.518 L560.89 359.518 L560.89 359.101 Q560.89 356.162 558.945 354.564 Q557.024 352.944 553.528 352.944 Q551.306 352.944 549.2 353.476 Q547.093 354.009 545.149 355.074 L545.149 351.138 Q547.487 350.236 549.686 349.796 Q551.885 349.333 553.968 349.333 Q559.593 349.333 562.371 352.25 Q565.149 355.166 565.149 361.092 Z" fill="#000000" fill-rule="nonzero" fill-opacity="1" /><path clip-path="url(#clip090)" d="M592.533 362.944 Q592.533 358.245 590.588 355.583 Q588.667 352.898 585.288 352.898 Q581.908 352.898 579.964 355.583 Q578.042 358.245 578.042 362.944 Q578.042 367.643 579.964 370.328 Q581.908 372.99 585.288 372.99 Q588.667 372.99 590.588 370.328 Q592.533 367.643 592.533 362.944 M578.042 353.893 Q579.385 351.578 581.422 350.467 Q583.482 349.333 586.329 349.333 Q591.051 349.333 593.991 353.083 Q596.954 356.833 596.954 362.944 Q596.954 369.055 593.991 372.805 Q591.051 376.555 586.329 376.555 Q583.482 376.555 581.422 375.444 Q579.385 374.31 578.042 371.995 L578.042 375.884 L573.76 375.884 L573.76 339.865 L578.042 339.865 L578.042 353.893 Z" fill="#000000" fill-rule="nonzero" fill-opacity="1" /><path clip-path="url(#clip090)" d="M619.639 354.356 L649.315 354.356 L649.315 358.245 L619.639 358.245 L619.639 354.356 M619.639 363.8 L649.315 363.8 L649.315 367.736 L619.639 367.736 L619.639 363.8 Z" fill="#000000" fill-rule="nonzero" fill-opacity="1" /><path clip-path="url(#clip090)" d="M684.477 344.402 Q680.866 344.402 679.037 347.967 Q677.232 351.509 677.232 358.638 Q677.232 365.745 679.037 369.31 Q680.866 372.851 684.477 372.851 Q688.111 372.851 689.917 369.31 Q691.745 365.745 691.745 358.638 Q691.745 351.509 689.917 347.967 Q688.111 344.402 684.477 344.402 M684.477 340.699 Q690.287 340.699 693.343 345.305 Q696.421 349.888 696.421 358.638 Q696.421 367.365 693.343 371.972 Q690.287 376.555 684.477 376.555 Q678.667 376.555 675.588 371.972 Q672.532 367.365 672.532 358.638 Q672.532 349.888 675.588 345.305 Q678.667 340.699 684.477 340.699 Z" fill="#000000" fill-rule="nonzero" fill-opacity="1" /><path clip-path="url(#clip090)" d="M704.639 370.004 L709.523 370.004 L709.523 375.884 L704.639 375.884 L704.639 370.004 Z" fill="#000000" fill-rule="nonzero" fill-opacity="1" /><path clip-path="url(#clip090)" d="M729.708 344.402 Q726.097 344.402 724.268 347.967 Q722.463 351.509 722.463 358.638 Q722.463 365.745 724.268 369.31 Q726.097 372.851 729.708 372.851 Q733.342 372.851 735.148 369.31 Q736.977 365.745 736.977 358.638 Q736.977 351.509 735.148 347.967 Q733.342 344.402 729.708 344.402 M729.708 340.699 Q735.518 340.699 738.574 345.305 Q741.652 349.888 741.652 358.638 Q741.652 367.365 738.574 371.972 Q735.518 376.555 729.708 376.555 Q723.898 376.555 720.819 371.972 Q717.764 367.365 717.764 358.638 Q717.764 349.888 720.819 345.305 Q723.898 340.699 729.708 340.699 Z" fill="#000000" fill-rule="nonzero" fill-opacity="1" /><path clip-path="url(#clip090)" d="M759.87 344.402 Q756.259 344.402 754.43 347.967 Q752.625 351.509 752.625 358.638 Q752.625 365.745 754.43 369.31 Q756.259 372.851 759.87 372.851 Q763.504 372.851 765.31 369.31 Q767.138 365.745 767.138 358.638 Q767.138 351.509 765.31 347.967 Q763.504 344.402 759.87 344.402 M759.87 340.699 Q765.68 340.699 768.736 345.305 Q771.814 349.888 771.814 358.638 Q771.814 367.365 768.736 371.972 Q765.68 376.555 759.87 376.555 Q754.06 376.555 750.981 371.972 Q747.926 367.365 747.926 358.638 Q747.926 349.888 750.981 345.305 Q754.06 340.699 759.87 340.699 Z" fill="#000000" fill-rule="nonzero" fill-opacity="1" /><path clip-path="url(#clip090)" d="M780.842 371.949 L788.481 371.949 L788.481 345.583 L780.171 347.25 L780.171 342.99 L788.435 341.324 L793.111 341.324 L793.111 371.949 L800.749 371.949 L800.749 375.884 L780.842 375.884 L780.842 371.949 Z" fill="#000000" fill-rule="nonzero" fill-opacity="1" /><path clip-path="url(#clip090)" d="M807.439 361 L819.916 361 L819.916 364.796 L807.439 364.796 L807.439 361 Z" fill="#000000" fill-rule="nonzero" fill-opacity="1" /><path clip-path="url(#clip090)" d="M841.467 357.25 Q844.823 357.967 846.698 360.236 Q848.596 362.504 848.596 365.837 Q848.596 370.953 845.078 373.754 Q841.559 376.555 835.078 376.555 Q832.902 376.555 830.587 376.115 Q828.296 375.699 825.842 374.842 L825.842 370.328 Q827.786 371.462 830.101 372.041 Q832.416 372.62 834.939 372.62 Q839.337 372.62 841.629 370.884 Q843.944 369.148 843.944 365.837 Q843.944 362.782 841.791 361.069 Q839.661 359.333 835.842 359.333 L831.814 359.333 L831.814 355.49 L836.027 355.49 Q839.476 355.49 841.305 354.125 Q843.133 352.736 843.133 350.143 Q843.133 347.481 841.235 346.069 Q839.36 344.634 835.842 344.634 Q833.92 344.634 831.721 345.051 Q829.522 345.467 826.883 346.347 L826.883 342.18 Q829.546 341.439 831.86 341.069 Q834.198 340.699 836.258 340.699 Q841.582 340.699 844.684 343.129 Q847.786 345.537 847.786 349.657 Q847.786 352.527 846.143 354.518 Q844.499 356.486 841.467 357.25 Z" fill="#000000" fill-rule="nonzero" fill-opacity="1" /><polyline clip-path="url(#clip090)" style="stroke:#9466bd; stroke-linecap:round; stroke-linejoin:round; stroke-width:6; stroke-opacity:1; fill:none" points="314.197,410.444 456.422,410.444 "/>
<path clip-path="url(#clip090)" d="M489.733 428.395 Q480.126 428.395 480.126 414.645 Q480.126 409.205 483.714 401.798 L488.297 401.798 Q484.987 409.205 484.987 414.761 Q484.987 424.784 490.126 424.784 Q494.825 424.784 494.825 412.33 L498.76 412.33 Q498.76 424.784 503.459 424.784 Q508.598 424.784 508.598 414.761 Q508.598 409.205 505.288 401.798 L509.871 401.798 Q513.459 409.205 513.459 414.645 Q513.459 428.395 503.853 428.395 Q497.557 428.395 496.793 421.474 Q495.844 428.395 489.733 428.395 Z" fill="#000000" fill-rule="nonzero" fill-opacity="1" /><path clip-path="url(#clip090)" d="M540.866 435.594 L540.866 438.904 L516.237 438.904 L516.237 435.594 L540.866 435.594 Z" fill="#000000" fill-rule="nonzero" fill-opacity="1" /><path clip-path="url(#clip090)" d="M559.894 405.779 Q559.177 405.363 558.32 405.178 Q557.487 404.969 556.468 404.969 Q552.857 404.969 550.913 407.33 Q548.991 409.668 548.991 414.066 L548.991 427.724 L544.709 427.724 L544.709 401.798 L548.991 401.798 L548.991 405.826 Q550.334 403.465 552.487 402.33 Q554.64 401.173 557.718 401.173 Q558.158 401.173 558.69 401.242 Q559.223 401.289 559.871 401.404 L559.894 405.779 Z" fill="#000000" fill-rule="nonzero" fill-opacity="1" /><path clip-path="url(#clip090)" d="M579.987 406.196 L609.662 406.196 L609.662 410.085 L579.987 410.085 L579.987 406.196 M579.987 415.64 L609.662 415.64 L609.662 419.576 L579.987 419.576 L579.987 415.64 Z" fill="#000000" fill-rule="nonzero" fill-opacity="1" /><path clip-path="url(#clip090)" d="M635.635 423.789 L643.273 423.789 L643.273 397.423 L634.963 399.09 L634.963 394.83 L643.227 393.164 L647.903 393.164 L647.903 423.789 L655.542 423.789 L655.542 427.724 L635.635 427.724 L635.635 423.789 Z" fill="#000000" fill-rule="nonzero" fill-opacity="1" /><path clip-path="url(#clip090)" d="M686.56 413.696 L686.56 415.779 L666.977 415.779 Q667.255 420.177 669.616 422.492 Q672 424.784 676.236 424.784 Q678.69 424.784 680.981 424.182 Q683.296 423.58 685.565 422.377 L685.565 426.404 Q683.273 427.376 680.866 427.886 Q678.458 428.395 675.982 428.395 Q669.778 428.395 666.144 424.784 Q662.533 421.173 662.533 415.015 Q662.533 408.65 665.958 404.923 Q669.407 401.173 675.241 401.173 Q680.472 401.173 683.505 404.553 Q686.56 407.909 686.56 413.696 M682.301 412.446 Q682.255 408.951 680.333 406.867 Q678.435 404.784 675.287 404.784 Q671.722 404.784 669.57 406.798 Q667.44 408.812 667.116 412.469 L682.301 412.446 Z" fill="#000000" fill-rule="nonzero" fill-opacity="1" /><path clip-path="url(#clip090)" d="M691.398 412.84 L703.875 412.84 L703.875 416.636 L691.398 416.636 L691.398 412.84 Z" fill="#000000" fill-rule="nonzero" fill-opacity="1" /><path clip-path="url(#clip090)" d="M710.079 393.164 L732.301 393.164 L732.301 395.154 L719.754 427.724 L714.87 427.724 L726.676 397.099 L710.079 397.099 L710.079 393.164 Z" fill="#000000" fill-rule="nonzero" fill-opacity="1" /><path clip-path="url(#clip090)" d="M738.666 412.84 L751.143 412.84 L751.143 416.636 L738.666 416.636 L738.666 412.84 Z" fill="#000000" fill-rule="nonzero" fill-opacity="1" /><path clip-path="url(#clip090)" d="M768.527 396.242 Q764.916 396.242 763.088 399.807 Q761.282 403.349 761.282 410.478 Q761.282 417.585 763.088 421.15 Q764.916 424.691 768.527 424.691 Q772.162 424.691 773.967 421.15 Q775.796 417.585 775.796 410.478 Q775.796 403.349 773.967 399.807 Q772.162 396.242 768.527 396.242 M768.527 392.539 Q774.337 392.539 777.393 397.145 Q780.472 401.728 780.472 410.478 Q780.472 419.205 777.393 423.812 Q774.337 428.395 768.527 428.395 Q762.717 428.395 759.638 423.812 Q756.583 419.205 756.583 410.478 Q756.583 401.728 759.638 397.145 Q762.717 392.539 768.527 392.539 Z" fill="#000000" fill-rule="nonzero" fill-opacity="1" /><path clip-path="url(#clip090)" d="M788.689 421.844 L793.573 421.844 L793.573 427.724 L788.689 427.724 L788.689 421.844 Z" fill="#000000" fill-rule="nonzero" fill-opacity="1" /><path clip-path="url(#clip090)" d="M813.759 396.242 Q810.147 396.242 808.319 399.807 Q806.513 403.349 806.513 410.478 Q806.513 417.585 808.319 421.15 Q810.147 424.691 813.759 424.691 Q817.393 424.691 819.198 421.15 Q821.027 417.585 821.027 410.478 Q821.027 403.349 819.198 399.807 Q817.393 396.242 813.759 396.242 M813.759 392.539 Q819.569 392.539 822.624 397.145 Q825.703 401.728 825.703 410.478 Q825.703 419.205 822.624 423.812 Q819.569 428.395 813.759 428.395 Q807.948 428.395 804.87 423.812 Q801.814 419.205 801.814 410.478 Q801.814 401.728 804.87 397.145 Q807.948 392.539 813.759 392.539 Z" fill="#000000" fill-rule="nonzero" fill-opacity="1" /><path clip-path="url(#clip090)" d="M834.731 423.789 L842.37 423.789 L842.37 397.423 L834.059 399.09 L834.059 394.83 L842.323 393.164 L846.999 393.164 L846.999 423.789 L854.638 423.789 L854.638 427.724 L834.731 427.724 L834.731 423.789 Z" fill="#000000" fill-rule="nonzero" fill-opacity="1" /></svg>
