<?xml version="1.0" encoding="utf-8"?>
<svg xmlns="http://www.w3.org/2000/svg" xmlns:xlink="http://www.w3.org/1999/xlink" width="600" height="400" viewBox="0 0 2400 1600">
<defs>
  <clipPath id="clip760">
    <rect x="0" y="0" width="2400" height="1600"/>
  </clipPath>
</defs>
<path clip-path="url(#clip760)" d="M0 1600 L2400 1600 L2400 0 L0 0  Z" fill="#ffffff" fill-rule="evenodd" fill-opacity="1"/>
<defs>
  <clipPath id="clip761">
    <rect x="480" y="0" width="1681" height="1600"/>
  </clipPath>
</defs>
<path clip-path="url(#clip760)" d="M203.964 1423.18 L2352.76 1423.18 L2352.76 47.2441 L203.964 47.2441  Z" fill="#ffffff" fill-rule="evenodd" fill-opacity="1"/>
<defs>
  <clipPath id="clip762">
    <rect x="203" y="47" width="2150" height="1377"/>
  </clipPath>
</defs>
<polyline clip-path="url(#clip762)" style="stroke:#000000; stroke-linecap:round; stroke-linejoin:round; stroke-width:2; stroke-opacity:0.1; fill:none" points="712.334,1423.18 712.334,47.2441 "/>
<polyline clip-path="url(#clip762)" style="stroke:#000000; stroke-linecap:round; stroke-linejoin:round; stroke-width:2; stroke-opacity:0.1; fill:none" points="1238.87,1423.18 1238.87,47.2441 "/>
<polyline clip-path="url(#clip762)" style="stroke:#000000; stroke-linecap:round; stroke-linejoin:round; stroke-width:2; stroke-opacity:0.1; fill:none" points="1765.41,1423.18 1765.41,47.2441 "/>
<polyline clip-path="url(#clip762)" style="stroke:#000000; stroke-linecap:round; stroke-linejoin:round; stroke-width:2; stroke-opacity:0.1; fill:none" points="2291.94,1423.18 2291.94,47.2441 "/>
<polyline clip-path="url(#clip760)" style="stroke:#000000; stroke-linecap:round; stroke-linejoin:round; stroke-width:4; stroke-opacity:1; fill:none" points="203.964,1423.18 2352.76,1423.18 "/>
<polyline clip-path="url(#clip760)" style="stroke:#000000; stroke-linecap:round; stroke-linejoin:round; stroke-width:4; stroke-opacity:1; fill:none" points="712.334,1423.18 712.334,1404.28 "/>
<polyline clip-path="url(#clip760)" style="stroke:#000000; stroke-linecap:round; stroke-linejoin:round; stroke-width:4; stroke-opacity:1; fill:none" points="1238.87,1423.18 1238.87,1404.28 "/>
<polyline clip-path="url(#clip760)" style="stroke:#000000; stroke-linecap:round; stroke-linejoin:round; stroke-width:4; stroke-opacity:1; fill:none" points="1765.41,1423.18 1765.41,1404.28 "/>
<polyline clip-path="url(#clip760)" style="stroke:#000000; stroke-linecap:round; stroke-linejoin:round; stroke-width:4; stroke-opacity:1; fill:none" points="2291.94,1423.18 2291.94,1404.28 "/>
<path clip-path="url(#clip760)" d="M660.945 1481.64 L677.265 1481.64 L677.265 1485.58 L655.32 1485.58 L655.32 1481.64 Q657.982 1478.89 662.566 1474.26 Q667.172 1469.61 668.353 1468.27 Q670.598 1465.74 671.478 1464.01 Q672.38 1462.25 672.38 1460.56 Q672.38 1457.8 670.436 1456.07 Q668.515 1454.33 665.413 1454.33 Q663.214 1454.33 660.76 1455.09 Q658.329 1455.86 655.552 1457.41 L655.552 1452.69 Q658.376 1451.55 660.829 1450.97 Q663.283 1450.39 665.32 1450.39 Q670.691 1450.39 673.885 1453.08 Q677.079 1455.77 677.079 1460.26 Q677.079 1462.39 676.269 1464.31 Q675.482 1466.2 673.376 1468.8 Q672.797 1469.47 669.695 1472.69 Q666.593 1475.88 660.945 1481.64 Z" fill="#000000" fill-rule="nonzero" fill-opacity="1" /><path clip-path="url(#clip760)" d="M697.079 1454.1 Q693.468 1454.1 691.639 1457.66 Q689.834 1461.2 689.834 1468.33 Q689.834 1475.44 691.639 1479.01 Q693.468 1482.55 697.079 1482.55 Q700.714 1482.55 702.519 1479.01 Q704.348 1475.44 704.348 1468.33 Q704.348 1461.2 702.519 1457.66 Q700.714 1454.1 697.079 1454.1 M697.079 1450.39 Q702.889 1450.39 705.945 1455 Q709.024 1459.58 709.024 1468.33 Q709.024 1477.06 705.945 1481.67 Q702.889 1486.25 697.079 1486.25 Q691.269 1486.25 688.19 1481.67 Q685.135 1477.06 685.135 1468.33 Q685.135 1459.58 688.19 1455 Q691.269 1450.39 697.079 1450.39 Z" fill="#000000" fill-rule="nonzero" fill-opacity="1" /><path clip-path="url(#clip760)" d="M727.241 1454.1 Q723.63 1454.1 721.801 1457.66 Q719.996 1461.2 719.996 1468.33 Q719.996 1475.44 721.801 1479.01 Q723.63 1482.55 727.241 1482.55 Q730.875 1482.55 732.681 1479.01 Q734.51 1475.44 734.51 1468.33 Q734.51 1461.2 732.681 1457.66 Q730.875 1454.1 727.241 1454.1 M727.241 1450.39 Q733.051 1450.39 736.107 1455 Q739.186 1459.58 739.186 1468.33 Q739.186 1477.06 736.107 1481.67 Q733.051 1486.25 727.241 1486.25 Q721.431 1486.25 718.352 1481.67 Q715.297 1477.06 715.297 1468.33 Q715.297 1459.58 718.352 1455 Q721.431 1450.39 727.241 1450.39 Z" fill="#000000" fill-rule="nonzero" fill-opacity="1" /><path clip-path="url(#clip760)" d="M757.403 1454.1 Q753.792 1454.1 751.963 1457.66 Q750.158 1461.2 750.158 1468.33 Q750.158 1475.44 751.963 1479.01 Q753.792 1482.55 757.403 1482.55 Q761.037 1482.55 762.843 1479.01 Q764.672 1475.44 764.672 1468.33 Q764.672 1461.2 762.843 1457.66 Q761.037 1454.1 757.403 1454.1 M757.403 1450.39 Q763.213 1450.39 766.269 1455 Q769.347 1459.58 769.347 1468.33 Q769.347 1477.06 766.269 1481.67 Q763.213 1486.25 757.403 1486.25 Q751.593 1486.25 748.514 1481.67 Q745.459 1477.06 745.459 1468.33 Q745.459 1459.58 748.514 1455 Q751.593 1450.39 757.403 1450.39 Z" fill="#000000" fill-rule="nonzero" fill-opacity="1" /><path clip-path="url(#clip760)" d="M1196.88 1455.09 L1185.07 1473.54 L1196.88 1473.54 L1196.88 1455.09 M1195.65 1451.02 L1201.53 1451.02 L1201.53 1473.54 L1206.46 1473.54 L1206.46 1477.43 L1201.53 1477.43 L1201.53 1485.58 L1196.88 1485.58 L1196.88 1477.43 L1181.28 1477.43 L1181.28 1472.92 L1195.65 1451.02 Z" fill="#000000" fill-rule="nonzero" fill-opacity="1" /><path clip-path="url(#clip760)" d="M1224.19 1454.1 Q1220.58 1454.1 1218.75 1457.66 Q1216.95 1461.2 1216.95 1468.33 Q1216.95 1475.44 1218.75 1479.01 Q1220.58 1482.55 1224.19 1482.55 Q1227.83 1482.55 1229.63 1479.01 Q1231.46 1475.44 1231.46 1468.33 Q1231.46 1461.2 1229.63 1457.66 Q1227.83 1454.1 1224.19 1454.1 M1224.19 1450.39 Q1230 1450.39 1233.06 1455 Q1236.14 1459.58 1236.14 1468.33 Q1236.14 1477.06 1233.06 1481.67 Q1230 1486.25 1224.19 1486.25 Q1218.38 1486.25 1215.3 1481.67 Q1212.25 1477.06 1212.25 1468.33 Q1212.25 1459.58 1215.3 1455 Q1218.38 1450.39 1224.19 1450.39 Z" fill="#000000" fill-rule="nonzero" fill-opacity="1" /><path clip-path="url(#clip760)" d="M1254.36 1454.1 Q1250.74 1454.1 1248.92 1457.66 Q1247.11 1461.2 1247.11 1468.33 Q1247.11 1475.44 1248.92 1479.01 Q1250.74 1482.55 1254.36 1482.55 Q1257.99 1482.55 1259.8 1479.01 Q1261.62 1475.44 1261.62 1468.33 Q1261.62 1461.2 1259.8 1457.66 Q1257.99 1454.1 1254.36 1454.1 M1254.36 1450.39 Q1260.17 1450.39 1263.22 1455 Q1266.3 1459.58 1266.3 1468.33 Q1266.3 1477.06 1263.22 1481.67 Q1260.17 1486.25 1254.36 1486.25 Q1248.55 1486.25 1245.47 1481.67 Q1242.41 1477.06 1242.41 1468.33 Q1242.41 1459.58 1245.47 1455 Q1248.55 1450.39 1254.36 1450.39 Z" fill="#000000" fill-rule="nonzero" fill-opacity="1" /><path clip-path="url(#clip760)" d="M1284.52 1454.1 Q1280.91 1454.1 1279.08 1457.66 Q1277.27 1461.2 1277.27 1468.33 Q1277.27 1475.44 1279.08 1479.01 Q1280.91 1482.55 1284.52 1482.55 Q1288.15 1482.55 1289.96 1479.01 Q1291.79 1475.44 1291.79 1468.33 Q1291.79 1461.2 1289.96 1457.66 Q1288.15 1454.1 1284.52 1454.1 M1284.52 1450.39 Q1290.33 1450.39 1293.38 1455 Q1296.46 1459.58 1296.46 1468.33 Q1296.46 1477.06 1293.38 1481.67 Q1290.33 1486.25 1284.52 1486.25 Q1278.71 1486.25 1275.63 1481.67 Q1272.57 1477.06 1272.57 1468.33 Q1272.57 1459.58 1275.63 1455 Q1278.71 1450.39 1284.52 1450.39 Z" fill="#000000" fill-rule="nonzero" fill-opacity="1" /><path clip-path="url(#clip760)" d="M1720.65 1466.44 Q1717.5 1466.44 1715.65 1468.59 Q1713.82 1470.74 1713.82 1474.49 Q1713.82 1478.22 1715.65 1480.39 Q1717.5 1482.55 1720.65 1482.55 Q1723.8 1482.55 1725.63 1480.39 Q1727.48 1478.22 1727.48 1474.49 Q1727.48 1470.74 1725.63 1468.59 Q1723.8 1466.44 1720.65 1466.44 M1729.93 1451.78 L1729.93 1456.04 Q1728.17 1455.21 1726.37 1454.77 Q1724.58 1454.33 1722.82 1454.33 Q1718.19 1454.33 1715.74 1457.45 Q1713.31 1460.58 1712.96 1466.9 Q1714.33 1464.89 1716.39 1463.82 Q1718.45 1462.73 1720.93 1462.73 Q1726.13 1462.73 1729.14 1465.9 Q1732.18 1469.05 1732.18 1474.49 Q1732.18 1479.82 1729.03 1483.03 Q1725.88 1486.25 1720.65 1486.25 Q1714.65 1486.25 1711.48 1481.67 Q1708.31 1477.06 1708.31 1468.33 Q1708.31 1460.14 1712.2 1455.28 Q1716.09 1450.39 1722.64 1450.39 Q1724.4 1450.39 1726.18 1450.74 Q1727.99 1451.09 1729.93 1451.78 Z" fill="#000000" fill-rule="nonzero" fill-opacity="1" /><path clip-path="url(#clip760)" d="M1750.23 1454.1 Q1746.62 1454.1 1744.79 1457.66 Q1742.99 1461.2 1742.99 1468.33 Q1742.99 1475.44 1744.79 1479.01 Q1746.62 1482.55 1750.23 1482.55 Q1753.87 1482.55 1755.67 1479.01 Q1757.5 1475.44 1757.5 1468.33 Q1757.5 1461.2 1755.67 1457.66 Q1753.87 1454.1 1750.23 1454.1 M1750.23 1450.39 Q1756.04 1450.39 1759.1 1455 Q1762.18 1459.58 1762.18 1468.33 Q1762.18 1477.06 1759.1 1481.67 Q1756.04 1486.25 1750.23 1486.25 Q1744.42 1486.25 1741.34 1481.67 Q1738.29 1477.06 1738.29 1468.33 Q1738.29 1459.58 1741.34 1455 Q1744.42 1450.39 1750.23 1450.39 Z" fill="#000000" fill-rule="nonzero" fill-opacity="1" /><path clip-path="url(#clip760)" d="M1780.39 1454.1 Q1776.78 1454.1 1774.95 1457.66 Q1773.15 1461.2 1773.15 1468.33 Q1773.15 1475.44 1774.95 1479.01 Q1776.78 1482.55 1780.39 1482.55 Q1784.03 1482.55 1785.83 1479.01 Q1787.66 1475.44 1787.66 1468.33 Q1787.66 1461.2 1785.83 1457.66 Q1784.03 1454.1 1780.39 1454.1 M1780.39 1450.39 Q1786.2 1450.39 1789.26 1455 Q1792.34 1459.58 1792.34 1468.33 Q1792.34 1477.06 1789.26 1481.67 Q1786.2 1486.25 1780.39 1486.25 Q1774.58 1486.25 1771.5 1481.67 Q1768.45 1477.06 1768.45 1468.33 Q1768.45 1459.58 1771.5 1455 Q1774.58 1450.39 1780.39 1450.39 Z" fill="#000000" fill-rule="nonzero" fill-opacity="1" /><path clip-path="url(#clip760)" d="M1810.56 1454.1 Q1806.94 1454.1 1805.12 1457.66 Q1803.31 1461.2 1803.31 1468.33 Q1803.31 1475.44 1805.12 1479.01 Q1806.94 1482.55 1810.56 1482.55 Q1814.19 1482.55 1816 1479.01 Q1817.82 1475.44 1817.82 1468.33 Q1817.82 1461.2 1816 1457.66 Q1814.19 1454.1 1810.56 1454.1 M1810.56 1450.39 Q1816.37 1450.39 1819.42 1455 Q1822.5 1459.58 1822.5 1468.33 Q1822.5 1477.06 1819.42 1481.67 Q1816.37 1486.25 1810.56 1486.25 Q1804.75 1486.25 1801.67 1481.67 Q1798.61 1477.06 1798.61 1468.33 Q1798.61 1459.58 1801.67 1455 Q1804.75 1450.39 1810.56 1450.39 Z" fill="#000000" fill-rule="nonzero" fill-opacity="1" /><path clip-path="url(#clip760)" d="M2246.65 1469.17 Q2243.32 1469.17 2241.4 1470.95 Q2239.5 1472.73 2239.5 1475.86 Q2239.5 1478.98 2241.4 1480.77 Q2243.32 1482.55 2246.65 1482.55 Q2249.99 1482.55 2251.91 1480.77 Q2253.83 1478.96 2253.83 1475.86 Q2253.83 1472.73 2251.91 1470.95 Q2250.01 1469.17 2246.65 1469.17 M2241.98 1467.18 Q2238.97 1466.44 2237.28 1464.38 Q2235.61 1462.32 2235.61 1459.35 Q2235.61 1455.21 2238.55 1452.8 Q2241.51 1450.39 2246.65 1450.39 Q2251.81 1450.39 2254.75 1452.8 Q2257.69 1455.21 2257.69 1459.35 Q2257.69 1462.32 2256 1464.38 Q2254.34 1466.44 2251.35 1467.18 Q2254.73 1467.96 2256.61 1470.26 Q2258.5 1472.55 2258.5 1475.86 Q2258.5 1480.88 2255.43 1483.57 Q2252.37 1486.25 2246.65 1486.25 Q2240.93 1486.25 2237.86 1483.57 Q2234.8 1480.88 2234.8 1475.86 Q2234.8 1472.55 2236.7 1470.26 Q2238.6 1467.96 2241.98 1467.18 M2240.26 1459.79 Q2240.26 1462.48 2241.93 1463.98 Q2243.62 1465.49 2246.65 1465.49 Q2249.66 1465.49 2251.35 1463.98 Q2253.06 1462.48 2253.06 1459.79 Q2253.06 1457.11 2251.35 1455.6 Q2249.66 1454.1 2246.65 1454.1 Q2243.62 1454.1 2241.93 1455.6 Q2240.26 1457.11 2240.26 1459.79 Z" fill="#000000" fill-rule="nonzero" fill-opacity="1" /><path clip-path="url(#clip760)" d="M2276.81 1454.1 Q2273.2 1454.1 2271.37 1457.66 Q2269.57 1461.2 2269.57 1468.33 Q2269.57 1475.44 2271.37 1479.01 Q2273.2 1482.55 2276.81 1482.55 Q2280.45 1482.55 2282.25 1479.01 Q2284.08 1475.44 2284.08 1468.33 Q2284.08 1461.2 2282.25 1457.66 Q2280.45 1454.1 2276.81 1454.1 M2276.81 1450.39 Q2282.62 1450.39 2285.68 1455 Q2288.76 1459.58 2288.76 1468.33 Q2288.76 1477.06 2285.68 1481.67 Q2282.62 1486.25 2276.81 1486.25 Q2271 1486.25 2267.92 1481.67 Q2264.87 1477.06 2264.87 1468.33 Q2264.87 1459.58 2267.92 1455 Q2271 1450.39 2276.81 1450.39 Z" fill="#000000" fill-rule="nonzero" fill-opacity="1" /><path clip-path="url(#clip760)" d="M2306.98 1454.1 Q2303.36 1454.1 2301.54 1457.66 Q2299.73 1461.2 2299.73 1468.33 Q2299.73 1475.44 2301.54 1479.01 Q2303.36 1482.55 2306.98 1482.55 Q2310.61 1482.55 2312.42 1479.01 Q2314.24 1475.44 2314.24 1468.33 Q2314.24 1461.2 2312.42 1457.66 Q2310.61 1454.1 2306.98 1454.1 M2306.98 1450.39 Q2312.79 1450.39 2315.84 1455 Q2318.92 1459.58 2318.92 1468.33 Q2318.92 1477.06 2315.84 1481.67 Q2312.79 1486.25 2306.98 1486.25 Q2301.17 1486.25 2298.09 1481.67 Q2295.03 1477.06 2295.03 1468.33 Q2295.03 1459.58 2298.09 1455 Q2301.17 1450.39 2306.98 1450.39 Z" fill="#000000" fill-rule="nonzero" fill-opacity="1" /><path clip-path="url(#clip760)" d="M2337.14 1454.1 Q2333.53 1454.1 2331.7 1457.66 Q2329.89 1461.2 2329.89 1468.33 Q2329.89 1475.44 2331.7 1479.01 Q2333.53 1482.55 2337.14 1482.55 Q2340.77 1482.55 2342.58 1479.01 Q2344.41 1475.44 2344.41 1468.33 Q2344.41 1461.2 2342.58 1457.66 Q2340.77 1454.1 2337.14 1454.1 M2337.14 1450.39 Q2342.95 1450.39 2346 1455 Q2349.08 1459.58 2349.08 1468.33 Q2349.08 1477.06 2346 1481.67 Q2342.95 1486.25 2337.14 1486.25 Q2331.33 1486.25 2328.25 1481.67 Q2325.19 1477.06 2325.19 1468.33 Q2325.19 1459.58 2328.25 1455 Q2331.33 1450.39 2337.14 1450.39 Z" fill="#000000" fill-rule="nonzero" fill-opacity="1" /><path clip-path="url(#clip760)" d="M1247.09 1550.12 Q1239.99 1550.12 1237.25 1551.75 Q1234.52 1553.37 1234.52 1557.29 Q1234.52 1560.4 1236.55 1562.25 Q1238.62 1564.07 1242.15 1564.07 Q1247.02 1564.07 1249.95 1560.63 Q1252.91 1557.16 1252.91 1551.43 L1252.91 1550.12 L1247.09 1550.12 M1258.77 1547.71 L1258.77 1568.04 L1252.91 1568.04 L1252.91 1562.63 Q1250.91 1565.88 1247.92 1567.44 Q1244.92 1568.97 1240.6 1568.97 Q1235.12 1568.97 1231.87 1565.91 Q1228.66 1562.82 1228.66 1557.67 Q1228.66 1551.65 1232.67 1548.6 Q1236.71 1545.54 1244.7 1545.54 L1252.91 1545.54 L1252.91 1544.97 Q1252.91 1540.93 1250.24 1538.73 Q1247.6 1536.5 1242.79 1536.5 Q1239.74 1536.5 1236.84 1537.23 Q1233.94 1537.97 1231.27 1539.43 L1231.27 1534.02 Q1234.48 1532.78 1237.51 1532.17 Q1240.53 1531.54 1243.4 1531.54 Q1251.13 1531.54 1254.95 1535.55 Q1258.77 1539.56 1258.77 1547.71 Z" fill="#000000" fill-rule="nonzero" fill-opacity="1" /><path clip-path="url(#clip760)" d="M1276.63 1522.27 L1276.63 1532.4 L1288.69 1532.4 L1288.69 1536.95 L1276.63 1536.95 L1276.63 1556.3 Q1276.63 1560.66 1277.8 1561.9 Q1279.01 1563.14 1282.67 1563.14 L1288.69 1563.14 L1288.69 1568.04 L1282.67 1568.04 Q1275.89 1568.04 1273.31 1565.53 Q1270.74 1562.98 1270.74 1556.3 L1270.74 1536.95 L1266.44 1536.95 L1266.44 1532.4 L1270.74 1532.4 L1270.74 1522.27 L1276.63 1522.27 Z" fill="#000000" fill-rule="nonzero" fill-opacity="1" /><path clip-path="url(#clip760)" d="M1302.06 1562.7 L1302.06 1581.6 L1296.17 1581.6 L1296.17 1532.4 L1302.06 1532.4 L1302.06 1537.81 Q1303.9 1534.62 1306.7 1533.1 Q1309.54 1531.54 1313.45 1531.54 Q1319.94 1531.54 1323.99 1536.69 Q1328.06 1541.85 1328.06 1550.25 Q1328.06 1558.65 1323.99 1563.81 Q1319.94 1568.97 1313.45 1568.97 Q1309.54 1568.97 1306.7 1567.44 Q1303.9 1565.88 1302.06 1562.7 M1321.98 1550.25 Q1321.98 1543.79 1319.31 1540.13 Q1316.67 1536.44 1312.02 1536.44 Q1307.37 1536.44 1304.7 1540.13 Q1302.06 1543.79 1302.06 1550.25 Q1302.06 1556.71 1304.7 1560.4 Q1307.37 1564.07 1312.02 1564.07 Q1316.67 1564.07 1319.31 1560.4 Q1321.98 1556.71 1321.98 1550.25 Z" fill="#000000" fill-rule="nonzero" fill-opacity="1" /><polyline clip-path="url(#clip762)" style="stroke:#000000; stroke-linecap:round; stroke-linejoin:round; stroke-width:2; stroke-opacity:0.1; fill:none" points="203.964,1384.89 2352.76,1384.89 "/>
<polyline clip-path="url(#clip762)" style="stroke:#000000; stroke-linecap:round; stroke-linejoin:round; stroke-width:2; stroke-opacity:0.1; fill:none" points="203.964,1060.21 2352.76,1060.21 "/>
<polyline clip-path="url(#clip762)" style="stroke:#000000; stroke-linecap:round; stroke-linejoin:round; stroke-width:2; stroke-opacity:0.1; fill:none" points="203.964,735.537 2352.76,735.537 "/>
<polyline clip-path="url(#clip762)" style="stroke:#000000; stroke-linecap:round; stroke-linejoin:round; stroke-width:2; stroke-opacity:0.1; fill:none" points="203.964,410.861 2352.76,410.861 "/>
<polyline clip-path="url(#clip762)" style="stroke:#000000; stroke-linecap:round; stroke-linejoin:round; stroke-width:2; stroke-opacity:0.1; fill:none" points="203.964,86.1857 2352.76,86.1857 "/>
<polyline clip-path="url(#clip760)" style="stroke:#000000; stroke-linecap:round; stroke-linejoin:round; stroke-width:4; stroke-opacity:1; fill:none" points="203.964,1423.18 203.964,47.2441 "/>
<polyline clip-path="url(#clip760)" style="stroke:#000000; stroke-linecap:round; stroke-linejoin:round; stroke-width:4; stroke-opacity:1; fill:none" points="203.964,1384.89 222.861,1384.89 "/>
<polyline clip-path="url(#clip760)" style="stroke:#000000; stroke-linecap:round; stroke-linejoin:round; stroke-width:4; stroke-opacity:1; fill:none" points="203.964,1060.21 222.861,1060.21 "/>
<polyline clip-path="url(#clip760)" style="stroke:#000000; stroke-linecap:round; stroke-linejoin:round; stroke-width:4; stroke-opacity:1; fill:none" points="203.964,735.537 222.861,735.537 "/>
<polyline clip-path="url(#clip760)" style="stroke:#000000; stroke-linecap:round; stroke-linejoin:round; stroke-width:4; stroke-opacity:1; fill:none" points="203.964,410.861 222.861,410.861 "/>
<polyline clip-path="url(#clip760)" style="stroke:#000000; stroke-linecap:round; stroke-linejoin:round; stroke-width:4; stroke-opacity:1; fill:none" points="203.964,86.1857 222.861,86.1857 "/>
<path clip-path="url(#clip760)" d="M156.019 1370.69 Q152.408 1370.69 150.579 1374.25 Q148.774 1377.79 148.774 1384.92 Q148.774 1392.03 150.579 1395.59 Q152.408 1399.14 156.019 1399.14 Q159.653 1399.14 161.459 1395.59 Q163.288 1392.03 163.288 1384.92 Q163.288 1377.79 161.459 1374.25 Q159.653 1370.69 156.019 1370.69 M156.019 1366.98 Q161.829 1366.98 164.885 1371.59 Q167.964 1376.17 167.964 1384.92 Q167.964 1393.65 164.885 1398.26 Q161.829 1402.84 156.019 1402.84 Q150.209 1402.84 147.13 1398.26 Q144.075 1393.65 144.075 1384.92 Q144.075 1376.17 147.13 1371.59 Q150.209 1366.98 156.019 1366.98 Z" fill="#000000" fill-rule="nonzero" fill-opacity="1" /><path clip-path="url(#clip760)" d="M147.061 1042.93 L165.417 1042.93 L165.417 1046.87 L151.343 1046.87 L151.343 1055.34 Q152.362 1054.99 153.38 1054.83 Q154.399 1054.65 155.417 1054.65 Q161.204 1054.65 164.584 1057.82 Q167.964 1060.99 167.964 1066.4 Q167.964 1071.98 164.491 1075.08 Q161.019 1078.16 154.7 1078.16 Q152.524 1078.16 150.255 1077.79 Q148.01 1077.42 145.603 1076.68 L145.603 1071.98 Q147.686 1073.12 149.908 1073.67 Q152.13 1074.23 154.607 1074.23 Q158.612 1074.23 160.95 1072.12 Q163.288 1070.02 163.288 1066.4 Q163.288 1062.79 160.95 1060.69 Q158.612 1058.58 154.607 1058.58 Q152.732 1058.58 150.857 1059 Q149.005 1059.41 147.061 1060.29 L147.061 1042.93 Z" fill="#000000" fill-rule="nonzero" fill-opacity="1" /><path clip-path="url(#clip760)" d="M116.668 748.881 L124.306 748.881 L124.306 722.516 L115.996 724.183 L115.996 719.923 L124.26 718.257 L128.936 718.257 L128.936 748.881 L136.575 748.881 L136.575 752.817 L116.668 752.817 L116.668 748.881 Z" fill="#000000" fill-rule="nonzero" fill-opacity="1" /><path clip-path="url(#clip760)" d="M156.019 721.335 Q152.408 721.335 150.579 724.9 Q148.774 728.442 148.774 735.571 Q148.774 742.678 150.579 746.243 Q152.408 749.784 156.019 749.784 Q159.653 749.784 161.459 746.243 Q163.288 742.678 163.288 735.571 Q163.288 728.442 161.459 724.9 Q159.653 721.335 156.019 721.335 M156.019 717.632 Q161.829 717.632 164.885 722.238 Q167.964 726.821 167.964 735.571 Q167.964 744.298 164.885 748.905 Q161.829 753.488 156.019 753.488 Q150.209 753.488 147.13 748.905 Q144.075 744.298 144.075 735.571 Q144.075 726.821 147.13 722.238 Q150.209 717.632 156.019 717.632 Z" fill="#000000" fill-rule="nonzero" fill-opacity="1" /><path clip-path="url(#clip760)" d="M117.663 424.206 L125.302 424.206 L125.302 397.84 L116.992 399.507 L116.992 395.248 L125.255 393.581 L129.931 393.581 L129.931 424.206 L137.57 424.206 L137.57 428.141 L117.663 428.141 L117.663 424.206 Z" fill="#000000" fill-rule="nonzero" fill-opacity="1" /><path clip-path="url(#clip760)" d="M147.061 393.581 L165.417 393.581 L165.417 397.516 L151.343 397.516 L151.343 405.988 Q152.362 405.641 153.38 405.479 Q154.399 405.294 155.417 405.294 Q161.204 405.294 164.584 408.465 Q167.964 411.637 167.964 417.053 Q167.964 422.632 164.491 425.734 Q161.019 428.812 154.7 428.812 Q152.524 428.812 150.255 428.442 Q148.01 428.072 145.603 427.331 L145.603 422.632 Q147.686 423.766 149.908 424.322 Q152.13 424.877 154.607 424.877 Q158.612 424.877 160.95 422.771 Q163.288 420.664 163.288 417.053 Q163.288 413.442 160.95 411.336 Q158.612 409.229 154.607 409.229 Q152.732 409.229 150.857 409.646 Q149.005 410.063 147.061 410.942 L147.061 393.581 Z" fill="#000000" fill-rule="nonzero" fill-opacity="1" /><path clip-path="url(#clip760)" d="M119.885 99.5305 L136.204 99.5305 L136.204 103.466 L114.26 103.466 L114.26 99.5305 Q116.922 96.7759 121.505 92.1463 Q126.112 87.4935 127.292 86.151 Q129.538 83.6278 130.417 81.8917 Q131.32 80.1325 131.32 78.4427 Q131.32 75.688 129.376 73.9519 Q127.455 72.2158 124.353 72.2158 Q122.154 72.2158 119.7 72.9797 Q117.269 73.7436 114.492 75.2945 L114.492 70.5723 Q117.316 69.4381 119.769 68.8594 Q122.223 68.2807 124.26 68.2807 Q129.63 68.2807 132.825 70.9658 Q136.019 73.651 136.019 78.1417 Q136.019 80.2714 135.209 82.1926 Q134.422 84.0908 132.316 86.6834 Q131.737 87.3546 128.635 90.5722 Q125.533 93.7667 119.885 99.5305 Z" fill="#000000" fill-rule="nonzero" fill-opacity="1" /><path clip-path="url(#clip760)" d="M156.019 71.9844 Q152.408 71.9844 150.579 75.5492 Q148.774 79.0908 148.774 86.2204 Q148.774 93.3268 150.579 96.8916 Q152.408 100.433 156.019 100.433 Q159.653 100.433 161.459 96.8916 Q163.288 93.3268 163.288 86.2204 Q163.288 79.0908 161.459 75.5492 Q159.653 71.9844 156.019 71.9844 M156.019 68.2807 Q161.829 68.2807 164.885 72.8871 Q167.964 77.4704 167.964 86.2204 Q167.964 94.9472 164.885 99.5537 Q161.829 104.137 156.019 104.137 Q150.209 104.137 147.13 99.5537 Q144.075 94.9472 144.075 86.2204 Q144.075 77.4704 147.13 72.8871 Q150.209 68.2807 156.019 68.2807 Z" fill="#000000" fill-rule="nonzero" fill-opacity="1" /><path clip-path="url(#clip760)" d="M64.9272 802.322 Q64.9272 815.531 46.021 815.531 Q38.5413 815.531 28.3562 810.598 L28.3562 804.296 Q38.5413 808.847 46.1802 808.847 Q59.9619 808.847 59.9619 801.781 Q59.9619 795.32 42.8382 795.32 L42.8382 789.909 Q59.9619 789.909 59.9619 783.448 Q59.9619 776.382 46.1802 776.382 Q38.5413 776.382 28.3562 780.934 L28.3562 774.632 Q38.5413 769.698 46.021 769.698 Q64.9272 769.698 64.9272 782.907 Q64.9272 791.564 55.4105 792.615 Q64.9272 793.92 64.9272 802.322 Z" fill="#000000" fill-rule="nonzero" fill-opacity="1" /><path clip-path="url(#clip760)" d="M74.8259 732.013 L79.3773 732.013 L79.3773 765.879 L74.8259 765.879 L74.8259 732.013 Z" fill="#000000" fill-rule="nonzero" fill-opacity="1" /><path clip-path="url(#clip760)" d="M46.0847 710.306 Q46.0847 717.404 47.7079 720.141 Q49.3312 722.878 53.2461 722.878 Q56.3653 722.878 58.2114 720.841 Q60.0256 718.773 60.0256 715.24 Q60.0256 710.37 56.5881 707.442 Q53.1188 704.482 47.3897 704.482 L46.0847 704.482 L46.0847 710.306 M43.6657 698.625 L64.0042 698.625 L64.0042 704.482 L58.5933 704.482 Q61.8398 706.487 63.3994 709.479 Q64.9272 712.47 64.9272 716.799 Q64.9272 722.274 61.8716 725.52 Q58.7843 728.735 53.6281 728.735 Q47.6125 728.735 44.5569 724.724 Q41.5014 720.682 41.5014 712.693 L41.5014 704.482 L40.9285 704.482 Q36.8862 704.482 34.6901 707.155 Q32.4621 709.797 32.4621 714.603 Q32.4621 717.659 33.1941 720.555 Q33.9262 723.451 35.3903 726.125 L29.9795 726.125 Q28.7381 722.91 28.1334 719.887 Q27.4968 716.863 27.4968 713.998 Q27.4968 706.264 31.5072 702.444 Q35.5176 698.625 43.6657 698.625 Z" fill="#000000" fill-rule="nonzero" fill-opacity="1" /><path clip-path="url(#clip760)" d="M46.212 660.972 Q39.7508 660.972 36.0905 663.646 Q32.3984 666.287 32.3984 670.934 Q32.3984 675.581 36.0905 678.255 Q39.7508 680.897 46.212 680.897 Q52.6732 680.897 56.3653 678.255 Q60.0256 675.581 60.0256 670.934 Q60.0256 666.287 56.3653 663.646 Q52.6732 660.972 46.212 660.972 M33.7671 680.897 Q30.5842 679.051 29.0564 676.25 Q27.4968 673.417 27.4968 669.502 Q27.4968 663.009 32.6531 658.967 Q37.8093 654.893 46.212 654.893 Q54.6147 654.893 59.771 658.967 Q64.9272 663.009 64.9272 669.502 Q64.9272 673.417 63.3994 676.25 Q61.8398 679.051 58.657 680.897 L64.0042 680.897 L64.0042 686.785 L14.479 686.785 L14.479 680.897 L33.7671 680.897 Z" fill="#000000" fill-rule="nonzero" fill-opacity="1" /><path clip-path="url(#clip762)" d="M264.778 86.1857 L285.255 86.1857 L305.731 86.1857 L326.208 86.1857 L346.684 86.1857 L367.16 86.1857 L387.637 86.1857 L408.113 86.1857 L428.59 86.1857 L449.066 86.1857 L469.542 86.1857 L490.019 86.1857 L510.495 86.1857 L530.972 86.1857 L551.448 86.1857 L571.924 86.1857 L592.401 86.1857 L612.877 86.1857 L633.353 86.1857 L653.83 86.1857 L674.306 86.1857 L694.783 86.1857 L715.259 86.1857 L735.735 86.1857 L756.212 86.1857 L776.688 86.1857 L797.165 86.1857 L817.641 86.1857 L838.117 86.1857 L858.594 86.1857 L879.07 86.1857 L899.547 86.1857 L920.023 86.1857 L940.499 86.1857 L960.976 86.1857 L981.452 86.1857 L1001.93 86.1857 L1022.4 86.1857 L1042.88 86.1857 L1063.36 86.1857 L1083.83 86.1857 L1104.31 86.1857 L1124.79 86.1857 L1145.26 86.1857 L1165.74 86.1857 L1186.22 86.1857 L1206.69 86.1857 L1227.17 86.1857 L1247.65 86.1857 L1268.12 86.1857 L1288.6 86.1857 L1309.07 86.1857 L1329.55 86.1857 L1350.03 86.1857 L1370.5 86.1857 L1390.98 86.1857 L1411.46 86.1857 L1431.93 86.1857 L1452.41 86.1857 L1472.89 86.1857 L1493.36 86.1857 L1513.84 86.1857 L1534.31 86.1857 L1554.79 86.1857 L1575.27 86.1857 L1595.74 86.1857 L1616.22 86.1857 L1636.7 86.1857 L1657.17 86.1857 L1677.65 86.1857 L1698.13 86.1857 L1718.6 86.1857 L1739.08 86.1857 L1759.55 86.1857 L1780.03 86.1857 L1800.51 86.1857 L1820.98 86.1857 L1841.46 86.1857 L1861.94 86.1857 L1882.41 86.1857 L1902.89 86.1857 L1923.37 86.1857 L1943.84 86.1857 L1964.32 86.1857 L1984.8 86.1857 L2005.27 86.1857 L2025.75 86.1857 L2046.22 86.1857 L2066.7 86.1857 L2087.18 86.1857 L2107.65 86.1857 L2128.13 86.1857 L2148.61 86.1857 L2169.08 86.1857 L2189.56 86.1857 L2210.04 86.1857 L2230.51 86.1857 L2250.99 86.1857 L2271.46 86.1857 L2291.94 86.1857 L2291.94 1384.24 L2271.46 1384.24 L2250.99 1384.24 L2230.51 1384.24 L2210.04 1384.24 L2189.56 1384.24 L2169.08 1384.24 L2148.61 1384.24 L2128.13 1384.24 L2107.65 1384.24 L2087.18 1384.24 L2066.7 1384.24 L2046.22 1384.24 L2025.75 1384.24 L2005.27 1384.24 L1984.8 1384.24 L1964.32 1384.24 L1943.84 1384.24 L1923.37 1384.24 L1902.89 1384.24 L1882.41 1384.24 L1861.94 1384.24 L1841.46 1384.24 L1820.98 1384.24 L1800.51 1384.24 L1780.03 1384.24 L1759.55 1384.24 L1739.08 1384.24 L1718.6 1384.24 L1698.13 1384.24 L1677.65 1384.24 L1657.17 1384.24 L1636.7 1384.24 L1616.22 1384.24 L1595.74 1384.24 L1575.27 1384.24 L1554.79 1384.24 L1534.31 1384.24 L1513.84 1384.24 L1493.36 1384.24 L1472.89 1384.24 L1452.41 1384.24 L1431.93 1384.24 L1411.46 1384.24 L1390.98 1384.24 L1370.5 1384.24 L1350.03 1384.24 L1329.55 1384.24 L1309.07 1384.24 L1288.6 1384.24 L1268.12 1384.24 L1247.65 1384.24 L1227.17 1384.24 L1206.69 1384.24 L1186.22 1384.24 L1165.74 1384.24 L1145.26 1384.24 L1124.79 1384.24 L1104.31 1384.24 L1083.83 1384.24 L1063.36 1384.24 L1042.88 1384.24 L1022.4 1384.24 L1001.93 1384.24 L981.452 1384.24 L960.976 1384.24 L940.499 1384.24 L920.023 1384.24 L899.547 1384.24 L879.07 1384.24 L858.594 1384.24 L838.117 1384.24 L817.641 1384.24 L797.165 1384.24 L776.688 1384.24 L756.212 1384.24 L735.735 1384.24 L715.259 1384.24 L694.783 1384.24 L674.306 1384.24 L653.83 1384.24 L633.353 1384.24 L612.877 1384.24 L592.401 1384.24 L571.924 1384.24 L551.448 1384.24 L530.972 1384.24 L510.495 1384.24 L490.019 1384.24 L469.542 1384.24 L449.066 1384.24 L428.59 1384.24 L408.113 1384.24 L387.637 1384.24 L367.16 1384.24 L346.684 1384.24 L326.208 1384.24 L305.731 1384.24 L285.255 1384.24 L264.778 1384.24  Z" fill="#b2dfee" fill-rule="evenodd" fill-opacity="1"/>
<polyline clip-path="url(#clip762)" style="stroke:#add8e6; stroke-linecap:round; stroke-linejoin:round; stroke-width:4; stroke-opacity:1; fill:none" points="264.778,86.1857 285.255,86.1857 305.731,86.1857 326.208,86.1857 346.684,86.1857 367.16,86.1857 387.637,86.1857 408.113,86.1857 428.59,86.1857 449.066,86.1857 469.542,86.1857 490.019,86.1857 510.495,86.1857 530.972,86.1857 551.448,86.1857 571.924,86.1857 592.401,86.1857 612.877,86.1857 633.353,86.1857 653.83,86.1857 674.306,86.1857 694.783,86.1857 715.259,86.1857 735.735,86.1857 756.212,86.1857 776.688,86.1857 797.165,86.1857 817.641,86.1857 838.117,86.1857 858.594,86.1857 879.07,86.1857 899.547,86.1857 920.023,86.1857 940.499,86.1857 960.976,86.1857 981.452,86.1857 1001.93,86.1857 1022.4,86.1857 1042.88,86.1857 1063.36,86.1857 1083.83,86.1857 1104.31,86.1857 1124.79,86.1857 1145.26,86.1857 1165.74,86.1857 1186.22,86.1857 1206.69,86.1857 1227.17,86.1857 1247.65,86.1857 1268.12,86.1857 1288.6,86.1857 1309.07,86.1857 1329.55,86.1857 1350.03,86.1857 1370.5,86.1857 1390.98,86.1857 1411.46,86.1857 1431.93,86.1857 1452.41,86.1857 1472.89,86.1857 1493.36,86.1857 1513.84,86.1857 1534.31,86.1857 1554.79,86.1857 1575.27,86.1857 1595.74,86.1857 1616.22,86.1857 1636.7,86.1857 1657.17,86.1857 1677.65,86.1857 1698.13,86.1857 1718.6,86.1857 1739.08,86.1857 1759.55,86.1857 1780.03,86.1857 1800.51,86.1857 1820.98,86.1857 1841.46,86.1857 1861.94,86.1857 1882.41,86.1857 1902.89,86.1857 1923.37,86.1857 1943.84,86.1857 1964.32,86.1857 1984.8,86.1857 2005.27,86.1857 2025.75,86.1857 2046.22,86.1857 2066.7,86.1857 2087.18,86.1857 2107.65,86.1857 2128.13,86.1857 2148.61,86.1857 2169.08,86.1857 2189.56,86.1857 2210.04,86.1857 2230.51,86.1857 2250.99,86.1857 2271.46,86.1857 2291.94,86.1857 "/>
<path clip-path="url(#clip762)" d="M264.778 86.1857 L285.255 86.1857 L305.731 86.1857 L326.208 86.1857 L346.684 309.084 L367.16 518.87 L387.637 663.098 L408.113 767.991 L428.59 833.549 L449.066 899.107 L469.542 938.442 L490.019 977.777 L510.495 1004 L530.972 1030.22 L551.448 1056.45 L571.924 1069.56 L592.401 1082.67 L612.877 1095.78 L633.353 1108.89 L653.83 1122.01 L674.306 1122.01 L694.783 1135.12 L715.259 1148.23 L735.735 1148.23 L756.212 1161.34 L776.688 1161.34 L797.165 1161.34 L817.641 1174.45 L838.117 1174.45 L858.594 1174.45 L879.07 1187.56 L899.547 1187.56 L920.023 1187.56 L940.499 1187.56 L960.976 1200.68 L981.452 1200.68 L1001.93 1200.68 L1022.4 1200.68 L1042.88 1200.68 L1063.36 1200.68 L1083.83 1213.79 L1104.31 1213.79 L1124.79 1213.79 L1145.26 1213.79 L1165.74 1213.79 L1186.22 1213.79 L1206.69 1213.79 L1227.17 1213.79 L1247.65 1213.79 L1268.12 1226.9 L1288.6 1226.9 L1309.07 1226.9 L1329.55 1226.9 L1350.03 1226.9 L1370.5 1226.9 L1390.98 1226.9 L1411.46 1226.9 L1431.93 1226.9 L1452.41 1226.9 L1472.89 1226.9 L1493.36 1226.9 L1513.84 1226.9 L1534.31 1240.01 L1554.79 1240.01 L1575.27 1240.01 L1595.74 1240.01 L1616.22 1240.01 L1636.7 1240.01 L1657.17 1240.01 L1677.65 1240.01 L1698.13 1240.01 L1718.6 1240.01 L1739.08 1240.01 L1759.55 1240.01 L1780.03 1240.01 L1800.51 1240.01 L1820.98 1240.01 L1841.46 1240.01 L1861.94 1240.01 L1882.41 1240.01 L1902.89 1240.01 L1923.37 1240.01 L1943.84 1240.01 L1964.32 1240.01 L1984.8 1240.01 L2005.27 1240.01 L2025.75 1240.01 L2046.22 1240.01 L2066.7 1253.12 L2087.18 1253.12 L2107.65 1253.12 L2128.13 1253.12 L2148.61 1253.12 L2169.08 1253.12 L2189.56 1253.12 L2210.04 1253.12 L2230.51 1253.12 L2250.99 1253.12 L2271.46 1253.12 L2291.94 1253.12 L2291.94 1384.24 L2271.46 1384.24 L2250.99 1384.24 L2230.51 1384.24 L2210.04 1384.24 L2189.56 1384.24 L2169.08 1384.24 L2148.61 1384.24 L2128.13 1384.24 L2107.65 1384.24 L2087.18 1384.24 L2066.7 1384.24 L2046.22 1384.24 L2025.75 1384.24 L2005.27 1384.24 L1984.8 1384.24 L1964.32 1384.24 L1943.84 1384.24 L1923.37 1384.24 L1902.89 1384.24 L1882.41 1384.24 L1861.94 1384.24 L1841.46 1384.24 L1820.98 1384.24 L1800.51 1384.24 L1780.03 1384.24 L1759.55 1384.24 L1739.08 1384.24 L1718.6 1384.24 L1698.13 1384.24 L1677.65 1384.24 L1657.17 1384.24 L1636.7 1384.24 L1616.22 1384.24 L1595.74 1384.24 L1575.27 1384.24 L1554.79 1384.24 L1534.31 1384.24 L1513.84 1384.24 L1493.36 1384.24 L1472.89 1384.24 L1452.41 1384.24 L1431.93 1384.24 L1411.46 1384.24 L1390.98 1384.24 L1370.5 1384.24 L1350.03 1384.24 L1329.55 1384.24 L1309.07 1384.24 L1288.6 1384.24 L1268.12 1384.24 L1247.65 1384.24 L1227.17 1384.24 L1206.69 1384.24 L1186.22 1384.24 L1165.74 1384.24 L1145.26 1384.24 L1124.79 1384.24 L1104.31 1384.24 L1083.83 1384.24 L1063.36 1384.24 L1042.88 1384.24 L1022.4 1384.24 L1001.93 1384.24 L981.452 1384.24 L960.976 1384.24 L940.499 1384.24 L920.023 1384.24 L899.547 1384.24 L879.07 1384.24 L858.594 1384.24 L838.117 1384.24 L817.641 1384.24 L797.165 1384.24 L776.688 1384.24 L756.212 1384.24 L735.735 1384.24 L715.259 1384.24 L694.783 1384.24 L674.306 1384.24 L653.83 1384.24 L633.353 1384.24 L612.877 1384.24 L592.401 1384.24 L571.924 1384.24 L551.448 1384.24 L530.972 1384.24 L510.495 1384.24 L490.019 1384.24 L469.542 1384.24 L449.066 1384.24 L428.59 1384.24 L408.113 1384.24 L387.637 1384.24 L367.16 1384.24 L346.684 1384.24 L326.208 1384.24 L305.731 1384.24 L285.255 1384.24 L264.778 1384.24  Z" fill="#008b8b" fill-rule="evenodd" fill-opacity="1"/>
<polyline clip-path="url(#clip762)" style="stroke:#add8e6; stroke-linecap:round; stroke-linejoin:round; stroke-width:4; stroke-opacity:1; fill:none" points="264.778,86.1857 285.255,86.1857 305.731,86.1857 326.208,86.1857 346.684,309.084 367.16,518.87 387.637,663.098 408.113,767.991 428.59,833.549 449.066,899.107 469.542,938.442 490.019,977.777 510.495,1004 530.972,1030.22 551.448,1056.45 571.924,1069.56 592.401,1082.67 612.877,1095.78 633.353,1108.89 653.83,1122.01 674.306,1122.01 694.783,1135.12 715.259,1148.23 735.735,1148.23 756.212,1161.34 776.688,1161.34 797.165,1161.34 817.641,1174.45 838.117,1174.45 858.594,1174.45 879.07,1187.56 899.547,1187.56 920.023,1187.56 940.499,1187.56 960.976,1200.68 981.452,1200.68 1001.93,1200.68 1022.4,1200.68 1042.88,1200.68 1063.36,1200.68 1083.83,1213.79 1104.31,1213.79 1124.79,1213.79 1145.26,1213.79 1165.74,1213.79 1186.22,1213.79 1206.69,1213.79 1227.17,1213.79 1247.65,1213.79 1268.12,1226.9 1288.6,1226.9 1309.07,1226.9 1329.55,1226.9 1350.03,1226.9 1370.5,1226.9 1390.98,1226.9 1411.46,1226.9 1431.93,1226.9 1452.41,1226.9 1472.89,1226.9 1493.36,1226.9 1513.84,1226.9 1534.31,1240.01 1554.79,1240.01 1575.27,1240.01 1595.74,1240.01 1616.22,1240.01 1636.7,1240.01 1657.17,1240.01 1677.65,1240.01 1698.13,1240.01 1718.6,1240.01 1739.08,1240.01 1759.55,1240.01 1780.03,1240.01 1800.51,1240.01 1820.98,1240.01 1841.46,1240.01 1861.94,1240.01 1882.41,1240.01 1902.89,1240.01 1923.37,1240.01 1943.84,1240.01 1964.32,1240.01 1984.8,1240.01 2005.27,1240.01 2025.75,1240.01 2046.22,1240.01 2066.7,1253.12 2087.18,1253.12 2107.65,1253.12 2128.13,1253.12 2148.61,1253.12 2169.08,1253.12 2189.56,1253.12 2210.04,1253.12 2230.51,1253.12 2250.99,1253.12 2271.46,1253.12 2291.94,1253.12 "/>
<path clip-path="url(#clip762)" d="M264.778 820.438 L285.255 1082.67 L305.731 1187.56 L326.208 1253.12 L346.684 1279.35 L367.16 1292.46 L387.637 1305.57 L408.113 1318.68 L428.59 1331.79 L449.066 1331.79 L469.542 1331.79 L490.019 1344.9 L510.495 1344.9 L530.972 1344.9 L551.448 1344.9 L571.924 1344.9 L592.401 1344.9 L612.877 1344.9 L633.353 1358.01 L653.83 1358.01 L674.306 1358.01 L694.783 1358.01 L715.259 1358.01 L735.735 1358.01 L756.212 1358.01 L776.688 1358.01 L797.165 1358.01 L817.641 1358.01 L838.117 1358.01 L858.594 1358.01 L879.07 1358.01 L899.547 1358.01 L920.023 1358.01 L940.499 1358.01 L960.976 1358.01 L981.452 1358.01 L1001.93 1358.01 L1022.4 1358.01 L1042.88 1358.01 L1063.36 1358.01 L1083.83 1358.01 L1104.31 1358.01 L1124.79 1358.01 L1145.26 1358.01 L1165.74 1358.01 L1186.22 1358.01 L1206.69 1358.01 L1227.17 1358.01 L1247.65 1358.01 L1268.12 1358.01 L1288.6 1358.01 L1309.07 1358.01 L1329.55 1358.01 L1350.03 1358.01 L1370.5 1358.01 L1390.98 1358.01 L1411.46 1358.01 L1431.93 1358.01 L1452.41 1358.01 L1472.89 1358.01 L1493.36 1358.01 L1513.84 1358.01 L1534.31 1358.01 L1554.79 1358.01 L1575.27 1358.01 L1595.74 1358.01 L1616.22 1358.01 L1636.7 1358.01 L1657.17 1358.01 L1677.65 1358.01 L1698.13 1358.01 L1718.6 1358.01 L1739.08 1358.01 L1759.55 1358.01 L1780.03 1358.01 L1800.51 1358.01 L1820.98 1358.01 L1841.46 1358.01 L1861.94 1358.01 L1882.41 1358.01 L1902.89 1358.01 L1923.37 1358.01 L1943.84 1358.01 L1964.32 1358.01 L1984.8 1358.01 L2005.27 1358.01 L2025.75 1371.13 L2046.22 1371.13 L2066.7 1371.13 L2087.18 1371.13 L2107.65 1371.13 L2128.13 1371.13 L2148.61 1371.13 L2169.08 1371.13 L2189.56 1371.13 L2210.04 1371.13 L2230.51 1371.13 L2250.99 1371.13 L2271.46 1371.13 L2291.94 1371.13 L2291.94 1384.24 L2271.46 1384.24 L2250.99 1384.24 L2230.51 1384.24 L2210.04 1384.24 L2189.56 1384.24 L2169.08 1384.24 L2148.61 1384.24 L2128.13 1384.24 L2107.65 1384.24 L2087.18 1384.24 L2066.7 1384.24 L2046.22 1384.24 L2025.75 1384.24 L2005.27 1384.24 L1984.8 1384.24 L1964.32 1384.24 L1943.84 1384.24 L1923.37 1384.24 L1902.89 1384.24 L1882.41 1384.24 L1861.94 1384.24 L1841.46 1384.24 L1820.98 1384.24 L1800.51 1384.24 L1780.03 1384.24 L1759.55 1384.24 L1739.08 1384.24 L1718.6 1384.24 L1698.13 1384.24 L1677.65 1384.24 L1657.17 1384.24 L1636.7 1384.24 L1616.22 1384.24 L1595.74 1384.24 L1575.27 1384.24 L1554.79 1384.24 L1534.31 1384.24 L1513.84 1384.24 L1493.36 1384.24 L1472.89 1384.24 L1452.41 1384.24 L1431.93 1384.24 L1411.46 1384.24 L1390.98 1384.24 L1370.5 1384.24 L1350.03 1384.24 L1329.55 1384.24 L1309.07 1384.24 L1288.6 1384.24 L1268.12 1384.24 L1247.65 1384.24 L1227.17 1384.24 L1206.69 1384.24 L1186.22 1384.24 L1165.74 1384.24 L1145.26 1384.24 L1124.79 1384.24 L1104.31 1384.24 L1083.83 1384.24 L1063.36 1384.24 L1042.88 1384.24 L1022.4 1384.24 L1001.93 1384.24 L981.452 1384.24 L960.976 1384.24 L940.499 1384.24 L920.023 1384.24 L899.547 1384.24 L879.07 1384.24 L858.594 1384.24 L838.117 1384.24 L817.641 1384.24 L797.165 1384.24 L776.688 1384.24 L756.212 1384.24 L735.735 1384.24 L715.259 1384.24 L694.783 1384.24 L674.306 1384.24 L653.83 1384.24 L633.353 1384.24 L612.877 1384.24 L592.401 1384.24 L571.924 1384.24 L551.448 1384.24 L530.972 1384.24 L510.495 1384.24 L490.019 1384.24 L469.542 1384.24 L449.066 1384.24 L428.59 1384.24 L408.113 1384.24 L387.637 1384.24 L367.16 1384.24 L346.684 1384.24 L326.208 1384.24 L305.731 1384.24 L285.255 1384.24 L264.778 1384.24  Z" fill="#b2dfee" fill-rule="evenodd" fill-opacity="1"/>
<polyline clip-path="url(#clip762)" style="stroke:#add8e6; stroke-linecap:round; stroke-linejoin:round; stroke-width:4; stroke-opacity:1; fill:none" points="264.778,820.438 285.255,1082.67 305.731,1187.56 326.208,1253.12 346.684,1279.35 367.16,1292.46 387.637,1305.57 408.113,1318.68 428.59,1331.79 449.066,1331.79 469.542,1331.79 490.019,1344.9 510.495,1344.9 530.972,1344.9 551.448,1344.9 571.924,1344.9 592.401,1344.9 612.877,1344.9 633.353,1358.01 653.83,1358.01 674.306,1358.01 694.783,1358.01 715.259,1358.01 735.735,1358.01 756.212,1358.01 776.688,1358.01 797.165,1358.01 817.641,1358.01 838.117,1358.01 858.594,1358.01 879.07,1358.01 899.547,1358.01 920.023,1358.01 940.499,1358.01 960.976,1358.01 981.452,1358.01 1001.93,1358.01 1022.4,1358.01 1042.88,1358.01 1063.36,1358.01 1083.83,1358.01 1104.31,1358.01 1124.79,1358.01 1145.26,1358.01 1165.74,1358.01 1186.22,1358.01 1206.69,1358.01 1227.17,1358.01 1247.65,1358.01 1268.12,1358.01 1288.6,1358.01 1309.07,1358.01 1329.55,1358.01 1350.03,1358.01 1370.5,1358.01 1390.98,1358.01 1411.46,1358.01 1431.93,1358.01 1452.41,1358.01 1472.89,1358.01 1493.36,1358.01 1513.84,1358.01 1534.31,1358.01 1554.79,1358.01 1575.27,1358.01 1595.74,1358.01 1616.22,1358.01 1636.7,1358.01 1657.17,1358.01 1677.65,1358.01 1698.13,1358.01 1718.6,1358.01 1739.08,1358.01 1759.55,1358.01 1780.03,1358.01 1800.51,1358.01 1820.98,1358.01 1841.46,1358.01 1861.94,1358.01 1882.41,1358.01 1902.89,1358.01 1923.37,1358.01 1943.84,1358.01 1964.32,1358.01 1984.8,1358.01 2005.27,1358.01 2025.75,1371.13 2046.22,1371.13 2066.7,1371.13 2087.18,1371.13 2107.65,1371.13 2128.13,1371.13 2148.61,1371.13 2169.08,1371.13 2189.56,1371.13 2210.04,1371.13 2230.51,1371.13 2250.99,1371.13 2271.46,1371.13 2291.94,1371.13 "/>
</svg>
