<svg class="main-svg" xmlns="http://www.w3.org/2000/svg" xmlns:xlink="http://www.w3.org/1999/xlink" width="700" height="500" style="" viewBox="0 0 700 500"><rect x="0" y="0" width="700" height="500" style="fill: rgb(255, 255, 255); fill-opacity: 1;"/><defs id="defs-cdbadc"><g class="clips"><clipPath id="clipcdbadcxyplot" class="plotclip"><rect width="586" height="79.95000000000003"/></clipPath><clipPath id="clipcdbadcx2y2plot" class="plotclip"><rect width="586" height="79.95000000000003"/></clipPath><clipPath id="clipcdbadcx3y3plot" class="plotclip"><rect width="586" height="79.95"/></clipPath><clipPath id="clipcdbadcx4y4plot" class="plotclip"><rect width="586" height="79.95"/></clipPath><clipPath class="axesclip" id="clipcdbadcx"><rect x="64" y="0" width="586" height="500"/></clipPath><clipPath class="axesclip" id="clipcdbadcy"><rect x="0" y="60" width="700" height="79.95000000000003"/></clipPath><clipPath class="axesclip" id="clipcdbadcxy"><rect x="64" y="60" width="586" height="79.95000000000003"/></clipPath><clipPath class="axesclip" id="clipcdbadcy2"><rect x="0" y="163.34999999999997" width="700" height="79.95000000000003"/></clipPath><clipPath class="axesclip" id="clipcdbadcxy2"><rect x="64" y="163.34999999999997" width="586" height="79.95000000000003"/></clipPath><clipPath class="axesclip" id="clipcdbadcy3"><rect x="0" y="266.70000000000005" width="700" height="79.95"/></clipPath><clipPath class="axesclip" id="clipcdbadcxy3"><rect x="64" y="266.70000000000005" width="586" height="79.95"/></clipPath><clipPath class="axesclip" id="clipcdbadcy4"><rect x="0" y="370.04999999999995" width="700" height="79.95"/></clipPath><clipPath class="axesclip" id="clipcdbadcxy4"><rect x="64" y="370.04999999999995" width="586" height="79.95"/></clipPath><clipPath class="axesclip" id="clipcdbadcx2"><rect x="64" y="0" width="586" height="500"/></clipPath><clipPath class="axesclip" id="clipcdbadcx2y"><rect x="64" y="60" width="586" height="79.95000000000003"/></clipPath><clipPath class="axesclip" id="clipcdbadcx2y2"><rect x="64" y="163.34999999999997" width="586" height="79.95000000000003"/></clipPath><clipPath class="axesclip" id="clipcdbadcx2y3"><rect x="64" y="266.70000000000005" width="586" height="79.95"/></clipPath><clipPath class="axesclip" id="clipcdbadcx2y4"><rect x="64" y="370.04999999999995" width="586" height="79.95"/></clipPath><clipPath class="axesclip" id="clipcdbadcx3"><rect x="64" y="0" width="586" height="500"/></clipPath><clipPath class="axesclip" id="clipcdbadcx3y"><rect x="64" y="60" width="586" height="79.95000000000003"/></clipPath><clipPath class="axesclip" id="clipcdbadcx3y2"><rect x="64" y="163.34999999999997" width="586" height="79.95000000000003"/></clipPath><clipPath class="axesclip" id="clipcdbadcx3y3"><rect x="64" y="266.70000000000005" width="586" height="79.95"/></clipPath><clipPath class="axesclip" id="clipcdbadcx3y4"><rect x="64" y="370.04999999999995" width="586" height="79.95"/></clipPath><clipPath class="axesclip" id="clipcdbadcx4"><rect x="64" y="0" width="586" height="500"/></clipPath><clipPath class="axesclip" id="clipcdbadcx4y"><rect x="64" y="60" width="586" height="79.95000000000003"/></clipPath><clipPath class="axesclip" id="clipcdbadcx4y2"><rect x="64" y="163.34999999999997" width="586" height="79.95000000000003"/></clipPath><clipPath class="axesclip" id="clipcdbadcx4y3"><rect x="64" y="266.70000000000005" width="586" height="79.95"/></clipPath><clipPath class="axesclip" id="clipcdbadcx4y4"><rect x="64" y="370.04999999999995" width="586" height="79.95"/></clipPath></g><g class="gradients"/></defs><g class="bglayer"><rect class="bg" x="64" y="60" width="586" height="79.95000000000003" style="fill: rgb(229, 236, 246); fill-opacity: 1; stroke-width: 0;"/><rect class="bg" x="64" y="163.34999999999997" width="586" height="79.95000000000003" style="fill: rgb(229, 236, 246); fill-opacity: 1; stroke-width: 0;"/><rect class="bg" x="64" y="266.70000000000005" width="586" height="79.95" style="fill: rgb(229, 236, 246); fill-opacity: 1; stroke-width: 0;"/><rect class="bg" x="64" y="370.04999999999995" width="586" height="79.95" style="fill: rgb(229, 236, 246); fill-opacity: 1; stroke-width: 0;"/></g><g class="layer-below"><g class="imagelayer"/><g class="shapelayer"/></g><g class="cartesianlayer"><g class="subplot xy"><g class="layer-subplot"><g class="shapelayer"/><g class="imagelayer"/></g><g class="gridlayer"><g class="x"><path class="xgrid crisp" transform="translate(123.05,0)" d="M0,60v79.95000000000003" style="stroke: rgb(255, 255, 255); stroke-opacity: 1; stroke-width: 1px;"/><path class="xgrid crisp" transform="translate(253.02,0)" d="M0,60v79.95000000000003" style="stroke: rgb(255, 255, 255); stroke-opacity: 1; stroke-width: 1px;"/><path class="xgrid crisp" transform="translate(382.99,0)" d="M0,60v79.95000000000003" style="stroke: rgb(255, 255, 255); stroke-opacity: 1; stroke-width: 1px;"/><path class="xgrid crisp" transform="translate(512.97,0)" d="M0,60v79.95000000000003" style="stroke: rgb(255, 255, 255); stroke-opacity: 1; stroke-width: 1px;"/><path class="xgrid crisp" transform="translate(642.94,0)" d="M0,60v79.95000000000003" style="stroke: rgb(255, 255, 255); stroke-opacity: 1; stroke-width: 1px;"/></g><g class="y"><path class="ygrid crisp" transform="translate(0,127.2)" d="M64,0h586" style="stroke: rgb(255, 255, 255); stroke-opacity: 1; stroke-width: 1px;"/><path class="ygrid crisp" transform="translate(0,110.37)" d="M64,0h586" style="stroke: rgb(255, 255, 255); stroke-opacity: 1; stroke-width: 1px;"/><path class="ygrid crisp" transform="translate(0,93.53)" d="M64,0h586" style="stroke: rgb(255, 255, 255); stroke-opacity: 1; stroke-width: 1px;"/><path class="ygrid crisp" transform="translate(0,76.7)" d="M64,0h586" style="stroke: rgb(255, 255, 255); stroke-opacity: 1; stroke-width: 1px;"/></g></g><g class="zerolinelayer"/><path class="xlines-below"/><path class="ylines-below"/><g class="overlines-below"/><g class="xaxislayer-below"/><g class="yaxislayer-below"/><g class="overaxes-below"/><g class="plot" transform="translate(64,60)" clip-path="url('#clipcdbadcxyplot')"><g class="scatterlayer mlayer"><g class="trace scatter trace80b22c" style="stroke-miterlimit: 2; opacity: 1;"><g class="fills"/><g class="errorbars"><g class="errorbar" style="opacity: 1;"><path class="yerror" d="M29.049999999999997,70.35h8m-4,0V74.06m-4,0h8" style="vector-effect: non-scaling-stroke; stroke-width: 2px; stroke: rgb(99, 110, 250); stroke-opacity: 1;"/></g><g class="errorbar" style="opacity: 1;"><path class="yerror" d="M81.04,52.84h8m-4,0V62.98m-4,0h8" style="vector-effect: non-scaling-stroke; stroke-width: 2px; stroke: rgb(99, 110, 250); stroke-opacity: 1;"/></g><g class="errorbar" style="opacity: 1;"><path class="yerror" d="M133.03,21.01h8m-4,0V46.2m-4,0h8" style="vector-effect: non-scaling-stroke; stroke-width: 2px; stroke: rgb(99, 110, 250); stroke-opacity: 1;"/></g><g class="errorbar" style="opacity: 1;"><path class="yerror" d="M185.02,64.13h8m-4,0V68.51m-4,0h8" style="vector-effect: non-scaling-stroke; stroke-width: 2px; stroke: rgb(99, 110, 250); stroke-opacity: 1;"/></g><g class="errorbar" style="opacity: 1;"><path class="yerror" d="M237.01,62.22h8m-4,0V66.23m-4,0h8" style="vector-effect: non-scaling-stroke; stroke-width: 2px; stroke: rgb(99, 110, 250); stroke-opacity: 1;"/></g><g class="errorbar" style="opacity: 1;"><path class="yerror" d="M548.95,4h8m-4,0V20.65m-4,0h8" style="vector-effect: non-scaling-stroke; stroke-width: 2px; stroke: rgb(99, 110, 250); stroke-opacity: 1;"/></g></g><g class="lines"><path class="js-line" d="M33.05,72.2L85.04,57.91L137.03,33.61L189.02,66.32L241.01,64.23L552.95,12.32" style="vector-effect: non-scaling-stroke; fill: none; stroke: rgb(99, 110, 250); stroke-opacity: 1; stroke-width: 2px; opacity: 1;"/></g><g class="points"><path class="point" transform="translate(33.05,72.2)" d="M3,0A3,3 0 1,1 0,-3A3,3 0 0,1 3,0Z" style="opacity: 1; stroke-width: 0px; fill: rgb(99, 110, 250); fill-opacity: 1;"/><path class="point" transform="translate(85.04,57.91)" d="M3,0A3,3 0 1,1 0,-3A3,3 0 0,1 3,0Z" style="opacity: 1; stroke-width: 0px; fill: rgb(99, 110, 250); fill-opacity: 1;"/><path class="point" transform="translate(137.03,33.61)" d="M3,0A3,3 0 1,1 0,-3A3,3 0 0,1 3,0Z" style="opacity: 1; stroke-width: 0px; fill: rgb(99, 110, 250); fill-opacity: 1;"/><path class="point" transform="translate(189.02,66.32)" d="M3,0A3,3 0 1,1 0,-3A3,3 0 0,1 3,0Z" style="opacity: 1; stroke-width: 0px; fill: rgb(99, 110, 250); fill-opacity: 1;"/><path class="point" transform="translate(241.01,64.23)" d="M3,0A3,3 0 1,1 0,-3A3,3 0 0,1 3,0Z" style="opacity: 1; stroke-width: 0px; fill: rgb(99, 110, 250); fill-opacity: 1;"/><path class="point" transform="translate(552.95,12.32)" d="M3,0A3,3 0 1,1 0,-3A3,3 0 0,1 3,0Z" style="opacity: 1; stroke-width: 0px; fill: rgb(99, 110, 250); fill-opacity: 1;"/></g><g class="text"/></g></g></g><g class="overplot"/><path class="xlines-above crisp" d="M0,0" style="fill: none;"/><path class="ylines-above crisp" d="M0,0" style="fill: none;"/><g class="overlines-above"/><g class="xaxislayer-above"/><g class="yaxislayer-above"><g class="ytick"><text text-anchor="end" x="63" y="4.199999999999999" transform="translate(0,127.2)" style="font-family: 'Open Sans', verdana, arial, sans-serif; font-size: 12px; fill: rgb(42, 63, 95); fill-opacity: 1; white-space: pre;">1×10​<tspan style="font-size:70%" dy="-0.6em">−16</tspan><tspan dy="0.42em">​</tspan></text></g><g class="ytick"><text text-anchor="end" x="63" y="4.199999999999999" transform="translate(0,110.37)" style="font-family: 'Open Sans', verdana, arial, sans-serif; font-size: 12px; fill: rgb(42, 63, 95); fill-opacity: 1; white-space: pre;">2×10​<tspan style="font-size:70%" dy="-0.6em">−16</tspan><tspan dy="0.42em">​</tspan></text></g><g class="ytick"><text text-anchor="end" x="63" y="4.199999999999999" transform="translate(0,93.53)" style="font-family: 'Open Sans', verdana, arial, sans-serif; font-size: 12px; fill: rgb(42, 63, 95); fill-opacity: 1; white-space: pre;">3×10​<tspan style="font-size:70%" dy="-0.6em">−16</tspan><tspan dy="0.42em">​</tspan></text></g><g class="ytick"><text text-anchor="end" x="63" y="4.199999999999999" transform="translate(0,76.7)" style="font-family: 'Open Sans', verdana, arial, sans-serif; font-size: 12px; fill: rgb(42, 63, 95); fill-opacity: 1; white-space: pre;">4×10​<tspan style="font-size:70%" dy="-0.6em">−16</tspan><tspan dy="0.42em">​</tspan></text></g></g><g class="overaxes-above"/></g><g class="subplot x2y2"><g class="layer-subplot"><g class="shapelayer"/><g class="imagelayer"/></g><g class="gridlayer"><g class="x2"><path class="x2grid crisp" transform="translate(123.05,0)" d="M0,163.34999999999997v79.95000000000003" style="stroke: rgb(255, 255, 255); stroke-opacity: 1; stroke-width: 1px;"/><path class="x2grid crisp" transform="translate(253.02,0)" d="M0,163.34999999999997v79.95000000000003" style="stroke: rgb(255, 255, 255); stroke-opacity: 1; stroke-width: 1px;"/><path class="x2grid crisp" transform="translate(382.99,0)" d="M0,163.34999999999997v79.95000000000003" style="stroke: rgb(255, 255, 255); stroke-opacity: 1; stroke-width: 1px;"/><path class="x2grid crisp" transform="translate(512.97,0)" d="M0,163.34999999999997v79.95000000000003" style="stroke: rgb(255, 255, 255); stroke-opacity: 1; stroke-width: 1px;"/><path class="x2grid crisp" transform="translate(642.94,0)" d="M0,163.34999999999997v79.95000000000003" style="stroke: rgb(255, 255, 255); stroke-opacity: 1; stroke-width: 1px;"/></g><g class="y2"><path class="y2grid crisp" transform="translate(0,231.69999999999996)" d="M64,0h586" style="stroke: rgb(255, 255, 255); stroke-opacity: 1; stroke-width: 1px;"/><path class="y2grid crisp" transform="translate(0,210.96999999999997)" d="M64,0h586" style="stroke: rgb(255, 255, 255); stroke-opacity: 1; stroke-width: 1px;"/><path class="y2grid crisp" transform="translate(0,190.23999999999995)" d="M64,0h586" style="stroke: rgb(255, 255, 255); stroke-opacity: 1; stroke-width: 1px;"/><path class="y2grid crisp" transform="translate(0,169.50999999999996)" d="M64,0h586" style="stroke: rgb(255, 255, 255); stroke-opacity: 1; stroke-width: 1px;"/></g></g><g class="zerolinelayer"/><path class="xlines-below"/><path class="ylines-below"/><g class="overlines-below"/><g class="xaxislayer-below"/><g class="yaxislayer-below"/><g class="overaxes-below"/><g class="plot" transform="translate(64,163.34999999999997)" clip-path="url('#clipcdbadcx2y2plot')"><g class="scatterlayer mlayer"><g class="trace scatter traceb1ca64" style="stroke-miterlimit: 2; opacity: 1;"><g class="fills"/><g class="errorbars"><g class="errorbar" style="opacity: 1;"><path class="yerror" d="M29.049999999999997,71.06h8m-4,0V73.35m-4,0h8" style="vector-effect: non-scaling-stroke; stroke-width: 2px; stroke: rgb(239, 85, 59); stroke-opacity: 1;"/></g><g class="errorbar" style="opacity: 1;"><path class="yerror" d="M81.04,63.45h8m-4,0V66.97m-4,0h8" style="vector-effect: non-scaling-stroke; stroke-width: 2px; stroke: rgb(239, 85, 59); stroke-opacity: 1;"/></g><g class="errorbar" style="opacity: 1;"><path class="yerror" d="M133.03,4h8m-4,0V19.78m-4,0h8" style="vector-effect: non-scaling-stroke; stroke-width: 2px; stroke: rgb(239, 85, 59); stroke-opacity: 1;"/></g><g class="errorbar" style="opacity: 1;"><path class="yerror" d="M185.02,56.2h8m-4,0V63.02m-4,0h8" style="vector-effect: non-scaling-stroke; stroke-width: 2px; stroke: rgb(239, 85, 59); stroke-opacity: 1;"/></g><g class="errorbar" style="opacity: 1;"><path class="yerror" d="M237.01,51.68h8m-4,0V55.61m-4,0h8" style="vector-effect: non-scaling-stroke; stroke-width: 2px; stroke: rgb(239, 85, 59); stroke-opacity: 1;"/></g><g class="errorbar" style="opacity: 1;"><path class="yerror" d="M548.95,15.61h8m-4,0V24.41m-4,0h8" style="vector-effect: non-scaling-stroke; stroke-width: 2px; stroke: rgb(239, 85, 59); stroke-opacity: 1;"/></g></g><g class="lines"><path class="js-line" d="M33.05,72.2L85.04,65.21L137.03,11.89L189.02,59.61L241.01,53.64L552.95,20.01" style="vector-effect: non-scaling-stroke; fill: none; stroke: rgb(239, 85, 59); stroke-opacity: 1; stroke-width: 2px; opacity: 1;"/></g><g class="points"><path class="point" transform="translate(33.05,72.2)" d="M3,0A3,3 0 1,1 0,-3A3,3 0 0,1 3,0Z" style="opacity: 1; stroke-width: 0px; fill: rgb(239, 85, 59); fill-opacity: 1;"/><path class="point" transform="translate(85.04,65.21)" d="M3,0A3,3 0 1,1 0,-3A3,3 0 0,1 3,0Z" style="opacity: 1; stroke-width: 0px; fill: rgb(239, 85, 59); fill-opacity: 1;"/><path class="point" transform="translate(137.03,11.89)" d="M3,0A3,3 0 1,1 0,-3A3,3 0 0,1 3,0Z" style="opacity: 1; stroke-width: 0px; fill: rgb(239, 85, 59); fill-opacity: 1;"/><path class="point" transform="translate(189.02,59.61)" d="M3,0A3,3 0 1,1 0,-3A3,3 0 0,1 3,0Z" style="opacity: 1; stroke-width: 0px; fill: rgb(239, 85, 59); fill-opacity: 1;"/><path class="point" transform="translate(241.01,53.64)" d="M3,0A3,3 0 1,1 0,-3A3,3 0 0,1 3,0Z" style="opacity: 1; stroke-width: 0px; fill: rgb(239, 85, 59); fill-opacity: 1;"/><path class="point" transform="translate(552.95,20.01)" d="M3,0A3,3 0 1,1 0,-3A3,3 0 0,1 3,0Z" style="opacity: 1; stroke-width: 0px; fill: rgb(239, 85, 59); fill-opacity: 1;"/></g><g class="text"/></g></g></g><g class="overplot"/><path class="xlines-above crisp" d="M0,0" style="fill: none;"/><path class="ylines-above crisp" d="M0,0" style="fill: none;"/><g class="overlines-above"/><g class="xaxislayer-above"/><g class="yaxislayer-above"><g class="y2tick"><text text-anchor="end" x="63" y="4.199999999999999" transform="translate(0,231.69999999999996)" style="font-family: 'Open Sans', verdana, arial, sans-serif; font-size: 12px; fill: rgb(42, 63, 95); fill-opacity: 1; white-space: pre;">50f</text></g><g class="y2tick"><text text-anchor="end" x="63" y="4.199999999999999" transform="translate(0,210.96999999999997)" style="font-family: 'Open Sans', verdana, arial, sans-serif; font-size: 12px; fill: rgb(42, 63, 95); fill-opacity: 1; white-space: pre;">100f</text></g><g class="y2tick"><text text-anchor="end" x="63" y="4.199999999999999" transform="translate(0,190.23999999999995)" style="font-family: 'Open Sans', verdana, arial, sans-serif; font-size: 12px; fill: rgb(42, 63, 95); fill-opacity: 1; white-space: pre;">150f</text></g><g class="y2tick"><text text-anchor="end" x="63" y="4.199999999999999" transform="translate(0,169.50999999999996)" style="font-family: 'Open Sans', verdana, arial, sans-serif; font-size: 12px; fill: rgb(42, 63, 95); fill-opacity: 1; white-space: pre;">200f</text></g></g><g class="overaxes-above"/></g><g class="subplot x3y3"><g class="layer-subplot"><g class="shapelayer"/><g class="imagelayer"/></g><g class="gridlayer"><g class="x3"><path class="x3grid crisp" transform="translate(123.05,0)" d="M0,266.70000000000005v79.95" style="stroke: rgb(255, 255, 255); stroke-opacity: 1; stroke-width: 1px;"/><path class="x3grid crisp" transform="translate(253.02,0)" d="M0,266.70000000000005v79.95" style="stroke: rgb(255, 255, 255); stroke-opacity: 1; stroke-width: 1px;"/><path class="x3grid crisp" transform="translate(382.99,0)" d="M0,266.70000000000005v79.95" style="stroke: rgb(255, 255, 255); stroke-opacity: 1; stroke-width: 1px;"/><path class="x3grid crisp" transform="translate(512.97,0)" d="M0,266.70000000000005v79.95" style="stroke: rgb(255, 255, 255); stroke-opacity: 1; stroke-width: 1px;"/><path class="x3grid crisp" transform="translate(642.94,0)" d="M0,266.70000000000005v79.95" style="stroke: rgb(255, 255, 255); stroke-opacity: 1; stroke-width: 1px;"/></g><g class="y3"><path class="y3grid crisp" transform="translate(0,329.9200000000001)" d="M64,0h586" style="stroke: rgb(255, 255, 255); stroke-opacity: 1; stroke-width: 1px;"/><path class="y3grid crisp" transform="translate(0,312.33000000000004)" d="M64,0h586" style="stroke: rgb(255, 255, 255); stroke-opacity: 1; stroke-width: 1px;"/><path class="y3grid crisp" transform="translate(0,294.75000000000006)" d="M64,0h586" style="stroke: rgb(255, 255, 255); stroke-opacity: 1; stroke-width: 1px;"/><path class="y3grid crisp" transform="translate(0,277.16)" d="M64,0h586" style="stroke: rgb(255, 255, 255); stroke-opacity: 1; stroke-width: 1px;"/></g></g><g class="zerolinelayer"/><path class="xlines-below"/><path class="ylines-below"/><g class="overlines-below"/><g class="xaxislayer-below"/><g class="yaxislayer-below"/><g class="overaxes-below"/><g class="plot" transform="translate(64,266.70000000000005)" clip-path="url('#clipcdbadcx3y3plot')"><g class="scatterlayer mlayer"><g class="trace scatter trace2deca9" style="stroke-miterlimit: 2; opacity: 1;"><g class="fills"/><g class="errorbars"><g class="errorbar" style="opacity: 1;"><path class="yerror" d="M29.049999999999997,51.59h8m-4,0V68.91m-4,0h8" style="vector-effect: non-scaling-stroke; stroke-width: 2px; stroke: rgb(0, 204, 150); stroke-opacity: 1;"/></g><g class="errorbar" style="opacity: 1;"><path class="yerror" d="M81.04,33.03h8m-4,0V66.04m-4,0h8" style="vector-effect: non-scaling-stroke; stroke-width: 2px; stroke: rgb(0, 204, 150); stroke-opacity: 1;"/></g><g class="errorbar" style="opacity: 1;"><path class="yerror" d="M133.03,4h8m-4,0V37.09m-4,0h8" style="vector-effect: non-scaling-stroke; stroke-width: 2px; stroke: rgb(0, 204, 150); stroke-opacity: 1;"/></g><g class="errorbar" style="opacity: 1;"><path class="yerror" d="M185.02,63.93h8m-4,0V73.9m-4,0h8" style="vector-effect: non-scaling-stroke; stroke-width: 2px; stroke: rgb(0, 204, 150); stroke-opacity: 1;"/></g><g class="errorbar" style="opacity: 1;"><path class="yerror" d="M237.01,63.45h8m-4,0V75.95m-4,0h8" style="vector-effect: non-scaling-stroke; stroke-width: 2px; stroke: rgb(0, 204, 150); stroke-opacity: 1;"/></g><g class="errorbar" style="opacity: 1;"><path class="yerror" d="M548.95,6.63h8m-4,0V36.19m-4,0h8" style="vector-effect: non-scaling-stroke; stroke-width: 2px; stroke: rgb(0, 204, 150); stroke-opacity: 1;"/></g></g><g class="lines"><path class="js-line" d="M33.05,60.25L85.04,49.53L137.03,20.54L189.02,68.91L241.01,69.7L552.95,21.41" style="vector-effect: non-scaling-stroke; fill: none; stroke: rgb(0, 204, 150); stroke-opacity: 1; stroke-width: 2px; opacity: 1;"/></g><g class="points"><path class="point" transform="translate(33.05,60.25)" d="M3,0A3,3 0 1,1 0,-3A3,3 0 0,1 3,0Z" style="opacity: 1; stroke-width: 0px; fill: rgb(0, 204, 150); fill-opacity: 1;"/><path class="point" transform="translate(85.04,49.53)" d="M3,0A3,3 0 1,1 0,-3A3,3 0 0,1 3,0Z" style="opacity: 1; stroke-width: 0px; fill: rgb(0, 204, 150); fill-opacity: 1;"/><path class="point" transform="translate(137.03,20.54)" d="M3,0A3,3 0 1,1 0,-3A3,3 0 0,1 3,0Z" style="opacity: 1; stroke-width: 0px; fill: rgb(0, 204, 150); fill-opacity: 1;"/><path class="point" transform="translate(189.02,68.91)" d="M3,0A3,3 0 1,1 0,-3A3,3 0 0,1 3,0Z" style="opacity: 1; stroke-width: 0px; fill: rgb(0, 204, 150); fill-opacity: 1;"/><path class="point" transform="translate(241.01,69.7)" d="M3,0A3,3 0 1,1 0,-3A3,3 0 0,1 3,0Z" style="opacity: 1; stroke-width: 0px; fill: rgb(0, 204, 150); fill-opacity: 1;"/><path class="point" transform="translate(552.95,21.41)" d="M3,0A3,3 0 1,1 0,-3A3,3 0 0,1 3,0Z" style="opacity: 1; stroke-width: 0px; fill: rgb(0, 204, 150); fill-opacity: 1;"/></g><g class="text"/></g></g></g><g class="overplot"/><path class="xlines-above crisp" d="M0,0" style="fill: none;"/><path class="ylines-above crisp" d="M0,0" style="fill: none;"/><g class="overlines-above"/><g class="xaxislayer-above"/><g class="yaxislayer-above"><g class="y3tick"><text text-anchor="end" x="63" y="4.199999999999999" transform="translate(0,329.9200000000001)" style="font-family: 'Open Sans', verdana, arial, sans-serif; font-size: 12px; fill: rgb(42, 63, 95); fill-opacity: 1; white-space: pre;">1f</text></g><g class="y3tick"><text text-anchor="end" x="63" y="4.199999999999999" transform="translate(0,312.33000000000004)" style="font-family: 'Open Sans', verdana, arial, sans-serif; font-size: 12px; fill: rgb(42, 63, 95); fill-opacity: 1; white-space: pre;">1.5f</text></g><g class="y3tick"><text text-anchor="end" x="63" y="4.199999999999999" transform="translate(0,294.75000000000006)" style="font-family: 'Open Sans', verdana, arial, sans-serif; font-size: 12px; fill: rgb(42, 63, 95); fill-opacity: 1; white-space: pre;">2f</text></g><g class="y3tick"><text text-anchor="end" x="63" y="4.199999999999999" transform="translate(0,277.16)" style="font-family: 'Open Sans', verdana, arial, sans-serif; font-size: 12px; fill: rgb(42, 63, 95); fill-opacity: 1; white-space: pre;">2.5f</text></g></g><g class="overaxes-above"/></g><g class="subplot x4y4"><g class="layer-subplot"><g class="shapelayer"/><g class="imagelayer"/></g><g class="gridlayer"><g class="x4"><path class="x4grid crisp" transform="translate(123.05,0)" d="M0,370.04999999999995v79.95" style="stroke: rgb(255, 255, 255); stroke-opacity: 1; stroke-width: 1px;"/><path class="x4grid crisp" transform="translate(253.02,0)" d="M0,370.04999999999995v79.95" style="stroke: rgb(255, 255, 255); stroke-opacity: 1; stroke-width: 1px;"/><path class="x4grid crisp" transform="translate(382.99,0)" d="M0,370.04999999999995v79.95" style="stroke: rgb(255, 255, 255); stroke-opacity: 1; stroke-width: 1px;"/><path class="x4grid crisp" transform="translate(512.97,0)" d="M0,370.04999999999995v79.95" style="stroke: rgb(255, 255, 255); stroke-opacity: 1; stroke-width: 1px;"/><path class="x4grid crisp" transform="translate(642.94,0)" d="M0,370.04999999999995v79.95" style="stroke: rgb(255, 255, 255); stroke-opacity: 1; stroke-width: 1px;"/></g><g class="y4"><path class="y4grid crisp" transform="translate(0,418.39)" d="M64,0h586" style="stroke: rgb(255, 255, 255); stroke-opacity: 1; stroke-width: 1px;"/><path class="y4grid crisp" transform="translate(0,380.37999999999994)" d="M64,0h586" style="stroke: rgb(255, 255, 255); stroke-opacity: 1; stroke-width: 1px;"/></g></g><g class="zerolinelayer"/><path class="xlines-below"/><path class="ylines-below"/><g class="overlines-below"/><g class="xaxislayer-below"/><g class="yaxislayer-below"/><g class="overaxes-below"/><g class="plot" transform="translate(64,370.04999999999995)" clip-path="url('#clipcdbadcx4y4plot')"><g class="scatterlayer mlayer"><g class="trace scatter trace598360" style="stroke-miterlimit: 2; opacity: 1;"><g class="fills"/><g class="errorbars"><g class="errorbar" style="opacity: 1;"><path class="yerror" d="M29.049999999999997,13.44h8m-4,0V75.95m-4,0h8" style="vector-effect: non-scaling-stroke; stroke-width: 2px; stroke: rgb(171, 99, 250); stroke-opacity: 1;"/></g><g class="errorbar" style="opacity: 1;"><path class="yerror" d="M81.04,42.85h8m-4,0V61.52m-4,0h8" style="vector-effect: non-scaling-stroke; stroke-width: 2px; stroke: rgb(171, 99, 250); stroke-opacity: 1;"/></g><g class="errorbar" style="opacity: 1;"><path class="yerror" d="M133.03,44.54h8m-4,0V64.83m-4,0h8" style="vector-effect: non-scaling-stroke; stroke-width: 2px; stroke: rgb(171, 99, 250); stroke-opacity: 1;"/></g><g class="errorbar" style="opacity: 1;"><path class="yerror" d="M185.02,43.4h8m-4,0V45.99m-4,0h8" style="vector-effect: non-scaling-stroke; stroke-width: 2px; stroke: rgb(171, 99, 250); stroke-opacity: 1;"/></g><g class="errorbar" style="opacity: 1;"><path class="yerror" d="M237.01,30.23h8m-4,0V59.16m-4,0h8" style="vector-effect: non-scaling-stroke; stroke-width: 2px; stroke: rgb(171, 99, 250); stroke-opacity: 1;"/></g><g class="errorbar" style="opacity: 1;"><path class="yerror" d="M548.95,4h8m-4,0V50.45m-4,0h8" style="vector-effect: non-scaling-stroke; stroke-width: 2px; stroke: rgb(171, 99, 250); stroke-opacity: 1;"/></g></g><g class="lines"><path class="js-line" d="M33.05,44.7L85.04,52.19L137.03,54.68L189.02,44.7L241.01,44.7L552.95,27.22" style="vector-effect: non-scaling-stroke; fill: none; stroke: rgb(171, 99, 250); stroke-opacity: 1; stroke-width: 2px; opacity: 1;"/></g><g class="points"><path class="point" transform="translate(33.05,44.7)" d="M3,0A3,3 0 1,1 0,-3A3,3 0 0,1 3,0Z" style="opacity: 1; stroke-width: 0px; fill: rgb(171, 99, 250); fill-opacity: 1;"/><path class="point" transform="translate(85.04,52.19)" d="M3,0A3,3 0 1,1 0,-3A3,3 0 0,1 3,0Z" style="opacity: 1; stroke-width: 0px; fill: rgb(171, 99, 250); fill-opacity: 1;"/><path class="point" transform="translate(137.03,54.68)" d="M3,0A3,3 0 1,1 0,-3A3,3 0 0,1 3,0Z" style="opacity: 1; stroke-width: 0px; fill: rgb(171, 99, 250); fill-opacity: 1;"/><path class="point" transform="translate(189.02,44.7)" d="M3,0A3,3 0 1,1 0,-3A3,3 0 0,1 3,0Z" style="opacity: 1; stroke-width: 0px; fill: rgb(171, 99, 250); fill-opacity: 1;"/><path class="point" transform="translate(241.01,44.7)" d="M3,0A3,3 0 1,1 0,-3A3,3 0 0,1 3,0Z" style="opacity: 1; stroke-width: 0px; fill: rgb(171, 99, 250); fill-opacity: 1;"/><path class="point" transform="translate(552.95,27.22)" d="M3,0A3,3 0 1,1 0,-3A3,3 0 0,1 3,0Z" style="opacity: 1; stroke-width: 0px; fill: rgb(171, 99, 250); fill-opacity: 1;"/></g><g class="text"/></g></g></g><g class="overplot"/><path class="xlines-above crisp" d="M0,0" style="fill: none;"/><path class="ylines-above crisp" d="M0,0" style="fill: none;"/><g class="overlines-above"/><g class="xaxislayer-above"><g class="x4tick"><text text-anchor="middle" x="0" y="462.99999999999994" transform="translate(123.05,0)" style="font-family: 'Open Sans', verdana, arial, sans-serif; font-size: 12px; fill: rgb(42, 63, 95); fill-opacity: 1; white-space: pre;">5</text></g><g class="x4tick"><text text-anchor="middle" x="0" y="462.99999999999994" transform="translate(253.02,0)" style="font-family: 'Open Sans', verdana, arial, sans-serif; font-size: 12px; fill: rgb(42, 63, 95); fill-opacity: 1; white-space: pre;">10</text></g><g class="x4tick"><text text-anchor="middle" x="0" y="462.99999999999994" transform="translate(382.99,0)" style="font-family: 'Open Sans', verdana, arial, sans-serif; font-size: 12px; fill: rgb(42, 63, 95); fill-opacity: 1; white-space: pre;">15</text></g><g class="x4tick"><text text-anchor="middle" x="0" y="462.99999999999994" transform="translate(512.97,0)" style="font-family: 'Open Sans', verdana, arial, sans-serif; font-size: 12px; fill: rgb(42, 63, 95); fill-opacity: 1; white-space: pre;">20</text></g><g class="x4tick"><text text-anchor="middle" x="0" y="462.99999999999994" transform="translate(642.94,0)" style="font-family: 'Open Sans', verdana, arial, sans-serif; font-size: 12px; fill: rgb(42, 63, 95); fill-opacity: 1; white-space: pre;">25</text></g></g><g class="yaxislayer-above"><g class="y4tick"><text text-anchor="end" x="63" y="4.199999999999999" transform="translate(0,418.39)" style="font-family: 'Open Sans', verdana, arial, sans-serif; font-size: 12px; fill: rgb(42, 63, 95); fill-opacity: 1; white-space: pre;">0.5n</text></g><g class="y4tick"><text text-anchor="end" x="63" y="4.199999999999999" transform="translate(0,380.37999999999994)" style="font-family: 'Open Sans', verdana, arial, sans-serif; font-size: 12px; fill: rgb(42, 63, 95); fill-opacity: 1; white-space: pre;">1n</text></g></g><g class="overaxes-above"/></g></g><g class="polarlayer"/><g class="ternarylayer"/><g class="geolayer"/><g class="funnelarealayer"/><g class="pielayer"/><g class="treemaplayer"/><g class="sunburstlayer"/><g class="glimages"/><defs id="topdefs-cdbadc"><g class="clips"/></defs><g class="layer-above"><g class="imagelayer"/><g class="shapelayer"/></g><g class="infolayer"><g class="g-gtitle"><text class="gtitle" x="35" y="30" text-anchor="start" dy="0em" style="font-family: 'Open Sans', verdana, arial, sans-serif; font-size: 17px; fill: rgb(42, 63, 95); opacity: 1; font-weight: normal; white-space: pre;">Dataset A</text></g><g class="g-xtitle"/><g class="g-x2title"/><g class="g-x3title"/><g class="g-x4title"/><g class="g-ytitle"/><g class="g-y2title"/><g class="g-y3title"/><g class="g-y4title"/><g class="annotation" data-index="0" style="opacity: 1;"><g class="annotation-text-g" transform="rotate(0,357,48.5)"><g class="cursor-pointer" transform="translate(337,37)"><rect class="bg" x="0.5" y="0.5" width="40" height="22" style="stroke-width: 1px; stroke: rgb(0, 0, 0); stroke-opacity: 0; fill: rgb(0, 0, 0); fill-opacity: 0;"/><text class="annotation-text" text-anchor="middle" x="20.578125" y="17" style="font-family: 'Open Sans', verdana, arial, sans-serif; font-size: 16px; fill: rgb(42, 63, 95); fill-opacity: 1; white-space: pre;">RtcA</text></g></g></g><g class="annotation" data-index="1" style="opacity: 1;"><g class="annotation-text-g" transform="rotate(0,357,151.84999999999997)"><g class="cursor-pointer" transform="translate(337,140)"><rect class="bg" x="0.5" y="0.5" width="40" height="22" style="stroke-width: 1px; stroke: rgb(0, 0, 0); stroke-opacity: 0; fill: rgb(0, 0, 0); fill-opacity: 0;"/><text class="annotation-text" text-anchor="middle" x="20.59375" y="17" style="font-family: 'Open Sans', verdana, arial, sans-serif; font-size: 16px; fill: rgb(42, 63, 95); fill-opacity: 1; white-space: pre;">RtcB</text></g></g></g><g class="annotation" data-index="2" style="opacity: 1;"><g class="annotation-text-g" transform="rotate(0,357,255.20000000000005)"><g class="cursor-pointer" transform="translate(337,244)"><rect class="bg" x="0.5" y="0.5" width="40" height="22" style="stroke-width: 1px; stroke: rgb(0, 0, 0); stroke-opacity: 0; fill: rgb(0, 0, 0); fill-opacity: 0;"/><text class="annotation-text" text-anchor="middle" x="20.65625" y="17" style="font-family: 'Open Sans', verdana, arial, sans-serif; font-size: 16px; fill: rgb(42, 63, 95); fill-opacity: 1; white-space: pre;">RtcR</text></g></g></g><g class="annotation" data-index="3" style="opacity: 1;"><g class="annotation-text-g" transform="rotate(0,357,358.54999999999995)"><g class="cursor-pointer" transform="translate(331,347)"><rect class="bg" x="0.5" y="0.5" width="52" height="22" style="stroke-width: 1px; stroke: rgb(0, 0, 0); stroke-opacity: 0; fill: rgb(0, 0, 0); fill-opacity: 0;"/><text class="annotation-text" text-anchor="middle" x="26.640625" y="17" style="font-family: 'Open Sans', verdana, arial, sans-serif; font-size: 16px; fill: rgb(42, 63, 95); fill-opacity: 1; white-space: pre;">OmpA</text></g></g></g><g class="annotation" data-index="4" style="opacity: 1;"><g class="annotation-text-g" transform="rotate(0,357,491.5)"><g class="cursor-pointer" transform="translate(304,480)"><rect class="bg" x="0.5" y="0.5" width="106" height="22" style="stroke-width: 1px; stroke: rgb(0, 0, 0); stroke-opacity: 0; fill: rgb(0, 0, 0); fill-opacity: 0;"/><text class="annotation-text" text-anchor="middle" x="53.859375" y="17" style="font-family: 'Open Sans', verdana, arial, sans-serif; font-size: 16px; fill: rgb(42, 63, 95); fill-opacity: 1; white-space: pre;">Time (hours)</text></g></g></g><g class="annotation" data-index="5" style="opacity: 1;"><g class="annotation-text-g" transform="rotate(-90,12.499999999999993,255)"><g class="cursor-pointer" transform="translate(-67,244)"><rect class="bg" x="0.5" y="0.5" width="158" height="22" style="stroke-width: 1px; stroke: rgb(0, 0, 0); stroke-opacity: 0; fill: rgb(0, 0, 0); fill-opacity: 0;"/><text class="annotation-text" text-anchor="middle" x="79.375" y="17" style="font-family: 'Open Sans', verdana, arial, sans-serif; font-size: 16px; fill: rgb(42, 63, 95); fill-opacity: 1; white-space: pre;">Concentration (μM)</text></g></g></g></g></svg>