<svg class="main-svg" xmlns="http://www.w3.org/2000/svg" xmlns:xlink="http://www.w3.org/1999/xlink" width="700" height="500" style="" viewBox="0 0 700 500"><rect x="0" y="0" width="700" height="500" style="fill: rgb(255, 255, 255); fill-opacity: 1;"/><defs id="defs-260f10"><g class="clips"><clipPath id="clip260f10xyplot" class="plotclip"><rect width="493" height="360"/></clipPath><clipPath class="axesclip" id="clip260f10x"><rect x="88" y="0" width="493" height="500"/></clipPath><clipPath class="axesclip" id="clip260f10y"><rect x="0" y="60" width="700" height="360"/></clipPath><clipPath class="axesclip" id="clip260f10xy"><rect x="88" y="60" width="493" height="360"/></clipPath></g><g class="gradients"/></defs><g class="bglayer"/><g class="layer-below"><g class="imagelayer"/><g class="shapelayer"/></g><g class="cartesianlayer"><g class="subplot xy"><g class="layer-subplot"><g class="shapelayer"/><g class="imagelayer"/></g><g class="gridlayer"><g class="x"/><g class="y"/></g><g class="zerolinelayer"><path class="yzl zl crisp" transform="translate(0,402)" d="M88,0h493" style="stroke: rgb(255, 255, 255); stroke-opacity: 1; stroke-width: 2px;"/></g><path class="xlines-below"/><path class="ylines-below"/><g class="overlines-below"/><g class="xaxislayer-below"/><g class="yaxislayer-below"/><g class="overaxes-below"/><g class="plot" transform="translate(88,60)" clip-path="url('#clip260f10xyplot')"><g class="scatterlayer mlayer"><g class="trace scatter trace056729" style="stroke-miterlimit: 2; opacity: 1;"><g class="fills"/><g class="errorbars"/><g class="lines"><path class="js-line" d="M0,312.48L1.97,52.66L2.47,38.4L4.44,20.6L4.93,19.58L7.4,18.09L7.9,18.04L18.75,18.58L19.25,18.62L116.96,27.79L117.45,27.85L201.35,37.66L201.84,37.72L332.61,54.99L333.11,55.06L493,78.95" style="vector-effect: non-scaling-stroke; fill: none; stroke: rgb(221, 160, 221); stroke-opacity: 1; stroke-width: 5px; opacity: 1;"/></g><g class="points"/><g class="text"/></g><g class="trace scatter tracedbe1cb" style="stroke-miterlimit: 2; opacity: 1;"><g class="fills"/><g class="errorbars"/><g class="lines"><path class="js-line" d="M493,342L0,342" style="vector-effect: non-scaling-stroke; fill: none; stroke: rgb(76, 167, 162); stroke-opacity: 1; stroke-width: 5px; opacity: 1;"/></g><g class="points"/><g class="text"/></g><g class="trace scatter traceb4d072" style="stroke-miterlimit: 2; opacity: 1;"><g class="fills"/><g class="errorbars"/><g class="lines"><path class="js-line" d="M0,329.81L1.17,224.53L1.35,220.27L3.11,209.06L3.28,208.91L6.41,208.6L6.58,208.62L39.04,212.65L39.23,212.68L90.99,220.74L91.19,220.78L159.73,233.74L159.86,233.77L227.61,250.14L227.82,250.2L259.97,260.68L260.18,260.76L279.57,269.47L279.77,269.58L290.14,276.67L290.35,276.86L294.78,282.58L294.97,283L295.7,286.54" style="vector-effect: non-scaling-stroke; fill: none; stroke: rgb(76, 167, 162); stroke-opacity: 1; stroke-width: 5px; opacity: 1;"/></g><g class="points"/><g class="text"/></g><g class="trace scatter trace0705c2" style="stroke-miterlimit: 2; opacity: 1;"><g class="fills"/><g class="errorbars"/><g class="lines"><path class="js-line" d="M295.7,286.54L294.28,291.35L294.09,291.67L289.45,296.5L289.25,296.66L280.38,301.9L280.17,302L264.8,307.94L264.59,308.01L244.4,313.6L244.19,313.65L208.75,320.81L208.54,320.85L152.83,328.89L152.62,328.91L84.6,335.96L84.39,335.98L0.47,342L1.19,342" style="vector-effect: non-scaling-stroke; fill: none; stroke: rgb(76, 167, 162); stroke-opacity: 1; stroke-width: 5px; opacity: 1; stroke-dasharray: 15px, 15px;"/></g><g class="points"/><g class="text"/></g><g class="trace scatter trace2ff791" style="stroke-miterlimit: 2; opacity: 1;"><g class="fills"/><g class="errorbars"/><g class="lines"><path class="js-line" d="M493,342L0,342" style="vector-effect: non-scaling-stroke; fill: none; stroke: rgb(228, 128, 128); stroke-opacity: 1; stroke-width: 5px; opacity: 1;"/></g><g class="points"/><g class="text"/></g><g class="trace scatter traced535fc" style="stroke-miterlimit: 2; opacity: 1;"><g class="fills"/><g class="errorbars"/><g class="lines"><path class="js-line" d="M0,335.62L1.2,275.65L1.36,274.59L3.04,272.41L3.2,272.41L14.11,274.02L14.28,274.05L58.46,283.09L58.66,283.14L85.74,290.51L85.94,290.57L107.09,298.4L107.3,298.5L118.45,305.04L118.66,305.21L122.59,310.12L122.76,310.57L123.04,312.36" style="vector-effect: non-scaling-stroke; fill: none; stroke: rgb(228, 128, 128); stroke-opacity: 1; stroke-width: 5px; opacity: 1;"/></g><g class="points"/><g class="text"/></g><g class="trace scatter trace686992" style="stroke-miterlimit: 2; opacity: 1;"><g class="fills"/><g class="errorbars"/><g class="lines"><path class="js-line" d="M123.04,312.36L121.69,316.16L121.5,316.41L116.5,320.54L116.3,320.66L104.99,325.58L104.78,325.65L82.61,331.41L82.41,331.45L42.75,337.78L42.54,337.81L0.46,342L1.41,342" style="vector-effect: non-scaling-stroke; fill: none; stroke: rgb(228, 128, 128); stroke-opacity: 1; stroke-width: 5px; opacity: 1; stroke-dasharray: 15px, 15px;"/></g><g class="points"/><g class="text"/></g></g></g><g class="overplot"/><path class="xlines-above crisp" d="M85,421.5H581" style="fill: none; stroke-width: 3px; stroke: rgb(0, 0, 0); stroke-opacity: 1;"/><path class="ylines-above crisp" d="M86.5,60V420" style="fill: none; stroke-width: 3px; stroke: rgb(0, 0, 0); stroke-opacity: 1;"/><g class="overlines-above"/><g class="xaxislayer-above"><g class="xtick"><text text-anchor="middle" x="0" y="449.4" transform="translate(88,0)" style="font-family: sans-serif; font-size: 22px; fill: rgb(0, 0, 0); fill-opacity: 1; white-space: pre;">0</text></g><g class="xtick"><text text-anchor="middle" x="0" y="449.4" transform="translate(211.25,0)" style="font-family: sans-serif; font-size: 22px; fill: rgb(0, 0, 0); fill-opacity: 1; white-space: pre;">100</text></g><g class="xtick"><text text-anchor="middle" x="0" y="449.4" transform="translate(334.5,0)" style="font-family: sans-serif; font-size: 22px; fill: rgb(0, 0, 0); fill-opacity: 1; white-space: pre;">200</text></g><g class="xtick"><text text-anchor="middle" x="0" y="449.4" transform="translate(457.75,0)" style="font-family: sans-serif; font-size: 22px; fill: rgb(0, 0, 0); fill-opacity: 1; white-space: pre;">300</text></g><g class="xtick"><text text-anchor="middle" x="0" y="449.4" transform="translate(581,0)" style="font-family: sans-serif; font-size: 22px; fill: rgb(0, 0, 0); fill-opacity: 1; white-space: pre;">400</text></g></g><g class="yaxislayer-above"><g class="ytick"><text text-anchor="end" x="80.6" y="7.699999999999999" transform="translate(0,402)" style="font-family: sans-serif; font-size: 22px; fill: rgb(0, 0, 0); fill-opacity: 1; white-space: pre;">0</text></g><g class="ytick"><text text-anchor="end" x="80.6" y="7.699999999999999" transform="translate(0,359.52)" style="font-family: sans-serif; font-size: 22px; fill: rgb(0, 0, 0); fill-opacity: 1; white-space: pre;">0.2</text></g><g class="ytick"><text text-anchor="end" x="80.6" y="7.699999999999999" transform="translate(0,317.04)" style="font-family: sans-serif; font-size: 22px; fill: rgb(0, 0, 0); fill-opacity: 1; white-space: pre;">0.4</text></g><g class="ytick"><text text-anchor="end" x="80.6" y="7.699999999999999" transform="translate(0,274.56)" style="font-family: sans-serif; font-size: 22px; fill: rgb(0, 0, 0); fill-opacity: 1; white-space: pre;">0.6</text></g><g class="ytick"><text text-anchor="end" x="80.6" y="7.699999999999999" transform="translate(0,232.08)" style="font-family: sans-serif; font-size: 22px; fill: rgb(0, 0, 0); fill-opacity: 1; white-space: pre;">0.8</text></g><g class="ytick"><text text-anchor="end" x="80.6" y="7.699999999999999" transform="translate(0,189.59)" style="font-family: sans-serif; font-size: 22px; fill: rgb(0, 0, 0); fill-opacity: 1; white-space: pre;">1</text></g><g class="ytick"><text text-anchor="end" x="80.6" y="7.699999999999999" transform="translate(0,147.11)" style="font-family: sans-serif; font-size: 22px; fill: rgb(0, 0, 0); fill-opacity: 1; white-space: pre;">1.2</text></g><g class="ytick"><text text-anchor="end" x="80.6" y="7.699999999999999" transform="translate(0,104.63)" style="font-family: sans-serif; font-size: 22px; fill: rgb(0, 0, 0); fill-opacity: 1; white-space: pre;">1.4</text></g><g class="ytick"><text text-anchor="end" x="80.6" y="7.699999999999999" transform="translate(0,62.15)" style="font-family: sans-serif; font-size: 22px; fill: rgb(0, 0, 0); fill-opacity: 1; white-space: pre;">1.6</text></g></g><g class="overaxes-above"/></g></g><g class="polarlayer"/><g class="ternarylayer"/><g class="geolayer"/><g class="funnelarealayer"/><g class="pielayer"/><g class="treemaplayer"/><g class="sunburstlayer"/><g class="glimages"/><defs id="topdefs-260f10"><g class="clips"/><clipPath id="legend260f10"><rect width="97" height="115" x="0" y="0"/></clipPath></defs><g class="layer-above"><g class="imagelayer"/><g class="shapelayer"/></g><g class="infolayer"><g class="legend" pointer-events="all" transform="translate(590.86,60)"><rect class="bg" shape-rendering="crispEdges" width="97" height="115" x="0" y="0" style="stroke: rgb(68, 68, 68); stroke-opacity: 1; fill: rgb(255, 255, 255); fill-opacity: 1; stroke-width: 0px;"/><g class="scrollbox" transform="" clip-path="url('#legend260f10')"><g class="groups" transform=""><g class="traces" transform="translate(0,20.8)" style="opacity: 1;"><text class="legendtext" text-anchor="start" x="40" y="8.58" style="font-family: sans-serif; font-size: 22px; fill: rgb(0, 0, 0); fill-opacity: 1; white-space: pre;">RtcB</text><g class="layers" style="opacity: 1;"><g class="legendfill"/><g class="legendlines"><path class="js-line" d="M5,0h30" style="fill: none; stroke: rgb(221, 160, 221); stroke-opacity: 1; stroke-width: 5px;"/></g><g class="legendsymbols"><g class="legendpoints"/></g></g><rect class="legendtoggle" x="0" y="-15.8" width="91.109375" height="31.6" style="fill: rgb(0, 0, 0); fill-opacity: 0;"/></g><g class="traces" transform="translate(0,52.400000000000006)" style="opacity: 1;"><text class="legendtext" text-anchor="start" x="40" y="8.58" style="font-family: sans-serif; font-size: 22px; fill: rgb(0, 0, 0); fill-opacity: 1; white-space: pre;">rtcb</text><g class="layers" style="opacity: 1;"><g class="legendfill"/><g class="legendlines"><path class="js-line" d="M5,0h30" style="fill: none; stroke: rgb(228, 128, 128); stroke-opacity: 1; stroke-width: 5px;"/></g><g class="legendsymbols"><g class="legendpoints"/></g></g><rect class="legendtoggle" x="0" y="-15.8" width="91.109375" height="31.6" style="fill: rgb(0, 0, 0); fill-opacity: 0;"/></g></g><g class="groups" transform="translate(0,10)"><g class="traces" transform="translate(0,84)" style="opacity: 1;"><text class="legendtext" text-anchor="start" x="40" y="8.58" style="font-family: sans-serif; font-size: 22px; fill: rgb(0, 0, 0); fill-opacity: 1; white-space: pre;">rtcb</text><g class="layers" style="opacity: 1;"><g class="legendfill"/><g class="legendlines"><path class="js-line" d="M5,0h30" style="fill: none; stroke: rgb(76, 167, 162); stroke-opacity: 1; stroke-width: 5px;"/></g><g class="legendsymbols"><g class="legendpoints"/></g></g><rect class="legendtoggle" x="0" y="-15.8" width="91.109375" height="31.6" style="fill: rgb(0, 0, 0); fill-opacity: 0;"/></g></g></g><rect class="scrollbar" rx="20" ry="3" width="0" height="0" x="0" y="0" style="fill: rgb(128, 139, 164); fill-opacity: 1;"/></g><g class="g-gtitle"/><g class="g-xtitle"><text class="xtitle" x="334.5" y="487.60625" text-anchor="middle" style="font-family: sans-serif; font-size: 26px; fill: rgb(0, 0, 0); opacity: 1; font-weight: normal; white-space: pre;">Damage rate (min​<tspan style="font-size:70%" dy="-0.6em">-1</tspan><tspan dy="0.42em">​</tspan>)</text></g><g class="g-ytitle" transform="translate(11.5908203125,0)"><text class="ytitle" transform="rotate(-90,12.409374999999997,240)" x="12.409374999999997" y="240" text-anchor="middle" style="font-family: sans-serif; font-size: 26px; fill: rgb(0, 0, 0); opacity: 1; font-weight: normal; white-space: pre;">RtcB (μM)</text></g></g></svg>