<?xml version="1.0" encoding="utf-8"?>
<svg xmlns="http://www.w3.org/2000/svg" xmlns:xlink="http://www.w3.org/1999/xlink" width="600" height="400" viewBox="0 0 2400 1600">
<defs>
  <clipPath id="clip610">
    <rect x="0" y="0" width="2400" height="1600"/>
  </clipPath>
</defs>
<path clip-path="url(#clip610)" d="M0 1600 L2400 1600 L2400 0 L0 0  Z" fill="#ffffff" fill-rule="evenodd" fill-opacity="1"/>
<defs>
  <clipPath id="clip611">
    <rect x="480" y="0" width="1681" height="1600"/>
  </clipPath>
</defs>
<path clip-path="url(#clip610)" d="M396.385 1349.74 L2352.76 1349.74 L2352.76 123.472 L396.385 123.472  Z" fill="#ffffff" fill-rule="evenodd" fill-opacity="1"/>
<defs>
  <clipPath id="clip612">
    <rect x="396" y="123" width="1957" height="1227"/>
  </clipPath>
</defs>
<polyline clip-path="url(#clip610)" style="stroke:#000000; stroke-linecap:round; stroke-linejoin:round; stroke-width:4; stroke-opacity:1; fill:none" points="396.385,1349.74 2352.76,1349.74 "/>
<polyline clip-path="url(#clip610)" style="stroke:#000000; stroke-linecap:round; stroke-linejoin:round; stroke-width:4; stroke-opacity:1; fill:none" points="592.022,1349.74 592.022,1330.84 "/>
<polyline clip-path="url(#clip610)" style="stroke:#000000; stroke-linecap:round; stroke-linejoin:round; stroke-width:4; stroke-opacity:1; fill:none" points="983.296,1349.74 983.296,1330.84 "/>
<polyline clip-path="url(#clip610)" style="stroke:#000000; stroke-linecap:round; stroke-linejoin:round; stroke-width:4; stroke-opacity:1; fill:none" points="1374.57,1349.74 1374.57,1330.84 "/>
<polyline clip-path="url(#clip610)" style="stroke:#000000; stroke-linecap:round; stroke-linejoin:round; stroke-width:4; stroke-opacity:1; fill:none" points="1765.84,1349.74 1765.84,1330.84 "/>
<polyline clip-path="url(#clip610)" style="stroke:#000000; stroke-linecap:round; stroke-linejoin:round; stroke-width:4; stroke-opacity:1; fill:none" points="2157.12,1349.74 2157.12,1330.84 "/>
<path clip-path="url(#clip610)" d="M481.074 1447.47 L496.351 1447.47 L496.351 1394.74 L479.731 1398.07 L479.731 1389.55 L496.259 1386.22 L505.611 1386.22 L505.611 1447.47 L520.888 1447.47 L520.888 1455.34 L481.074 1455.34 L481.074 1447.47 Z" fill="#000000" fill-rule="nonzero" fill-opacity="1" /><path clip-path="url(#clip610)" d="M559.777 1392.38 Q552.555 1392.38 548.897 1399.51 Q545.286 1406.59 545.286 1420.85 Q545.286 1435.06 548.897 1442.19 Q552.555 1449.28 559.777 1449.28 Q567.046 1449.28 570.657 1442.19 Q574.314 1435.06 574.314 1420.85 Q574.314 1406.59 570.657 1399.51 Q567.046 1392.38 559.777 1392.38 M559.777 1384.97 Q571.397 1384.97 577.508 1394.18 Q583.666 1403.35 583.666 1420.85 Q583.666 1438.3 577.508 1447.52 Q571.397 1456.68 559.777 1456.68 Q548.157 1456.68 541.999 1447.52 Q535.888 1438.3 535.888 1420.85 Q535.888 1403.35 541.999 1394.18 Q548.157 1384.97 559.777 1384.97 Z" fill="#000000" fill-rule="nonzero" fill-opacity="1" /><path clip-path="url(#clip610)" d="M620.101 1392.38 Q612.879 1392.38 609.221 1399.51 Q605.61 1406.59 605.61 1420.85 Q605.61 1435.06 609.221 1442.19 Q612.879 1449.28 620.101 1449.28 Q627.369 1449.28 630.98 1442.19 Q634.638 1435.06 634.638 1420.85 Q634.638 1406.59 630.98 1399.51 Q627.369 1392.38 620.101 1392.38 M620.101 1384.97 Q631.721 1384.97 637.832 1394.18 Q643.99 1403.35 643.99 1420.85 Q643.99 1438.3 637.832 1447.52 Q631.721 1456.68 620.101 1456.68 Q608.481 1456.68 602.323 1447.52 Q596.212 1438.3 596.212 1420.85 Q596.212 1403.35 602.323 1394.18 Q608.481 1384.97 620.101 1384.97 Z" fill="#000000" fill-rule="nonzero" fill-opacity="1" /><path clip-path="url(#clip610)" d="M680.425 1392.38 Q673.202 1392.38 669.545 1399.51 Q665.934 1406.59 665.934 1420.85 Q665.934 1435.06 669.545 1442.19 Q673.202 1449.28 680.425 1449.28 Q687.693 1449.28 691.304 1442.19 Q694.962 1435.06 694.962 1420.85 Q694.962 1406.59 691.304 1399.51 Q687.693 1392.38 680.425 1392.38 M680.425 1384.97 Q692.045 1384.97 698.156 1394.18 Q704.313 1403.35 704.313 1420.85 Q704.313 1438.3 698.156 1447.52 Q692.045 1456.68 680.425 1456.68 Q668.804 1456.68 662.647 1447.52 Q656.536 1438.3 656.536 1420.85 Q656.536 1403.35 662.647 1394.18 Q668.804 1384.97 680.425 1384.97 Z" fill="#000000" fill-rule="nonzero" fill-opacity="1" /><path clip-path="url(#clip610)" d="M880.519 1447.47 L913.158 1447.47 L913.158 1455.34 L869.269 1455.34 L869.269 1447.47 Q874.593 1441.96 883.76 1432.7 Q892.973 1423.4 895.334 1420.71 Q899.825 1415.66 901.584 1412.19 Q903.389 1408.67 903.389 1405.29 Q903.389 1399.78 899.501 1396.31 Q895.658 1392.84 889.454 1392.84 Q885.056 1392.84 880.149 1394.37 Q875.288 1395.9 869.732 1399 L869.732 1389.55 Q875.38 1387.28 880.288 1386.13 Q885.195 1384.97 889.269 1384.97 Q900.01 1384.97 906.399 1390.34 Q912.788 1395.71 912.788 1404.69 Q912.788 1408.95 911.167 1412.79 Q909.593 1416.59 905.38 1421.78 Q904.223 1423.12 898.019 1429.55 Q891.815 1435.94 880.519 1447.47 Z" fill="#000000" fill-rule="nonzero" fill-opacity="1" /><path clip-path="url(#clip610)" d="M952.787 1392.38 Q945.565 1392.38 941.908 1399.51 Q938.297 1406.59 938.297 1420.85 Q938.297 1435.06 941.908 1442.19 Q945.565 1449.28 952.787 1449.28 Q960.056 1449.28 963.667 1442.19 Q967.324 1435.06 967.324 1420.85 Q967.324 1406.59 963.667 1399.51 Q960.056 1392.38 952.787 1392.38 M952.787 1384.97 Q964.408 1384.97 970.519 1394.18 Q976.676 1403.35 976.676 1420.85 Q976.676 1438.3 970.519 1447.52 Q964.408 1456.68 952.787 1456.68 Q941.167 1456.68 935.01 1447.52 Q928.899 1438.3 928.899 1420.85 Q928.899 1403.35 935.01 1394.18 Q941.167 1384.97 952.787 1384.97 Z" fill="#000000" fill-rule="nonzero" fill-opacity="1" /><path clip-path="url(#clip610)" d="M1013.11 1392.38 Q1005.89 1392.38 1002.23 1399.51 Q998.62 1406.59 998.62 1420.85 Q998.62 1435.06 1002.23 1442.19 Q1005.89 1449.28 1013.11 1449.28 Q1020.38 1449.28 1023.99 1442.19 Q1027.65 1435.06 1027.65 1420.85 Q1027.65 1406.59 1023.99 1399.51 Q1020.38 1392.38 1013.11 1392.38 M1013.11 1384.97 Q1024.73 1384.97 1030.84 1394.18 Q1037 1403.35 1037 1420.85 Q1037 1438.3 1030.84 1447.52 Q1024.73 1456.68 1013.11 1456.68 Q1001.49 1456.68 995.333 1447.52 Q989.222 1438.3 989.222 1420.85 Q989.222 1403.35 995.333 1394.18 Q1001.49 1384.97 1013.11 1384.97 Z" fill="#000000" fill-rule="nonzero" fill-opacity="1" /><path clip-path="url(#clip610)" d="M1073.43 1392.38 Q1066.21 1392.38 1062.56 1399.51 Q1058.94 1406.59 1058.94 1420.85 Q1058.94 1435.06 1062.56 1442.19 Q1066.21 1449.28 1073.43 1449.28 Q1080.7 1449.28 1084.31 1442.19 Q1087.97 1435.06 1087.97 1420.85 Q1087.97 1406.59 1084.31 1399.51 Q1080.7 1392.38 1073.43 1392.38 M1073.43 1384.97 Q1085.06 1384.97 1091.17 1394.18 Q1097.32 1403.35 1097.32 1420.85 Q1097.32 1438.3 1091.17 1447.52 Q1085.06 1456.68 1073.43 1456.68 Q1061.81 1456.68 1055.66 1447.52 Q1049.55 1438.3 1049.55 1420.85 Q1049.55 1403.35 1055.66 1394.18 Q1061.81 1384.97 1073.43 1384.97 Z" fill="#000000" fill-rule="nonzero" fill-opacity="1" /><path clip-path="url(#clip610)" d="M1291.93 1418.07 Q1298.65 1419.51 1302.4 1424.04 Q1306.19 1428.58 1306.19 1435.25 Q1306.19 1445.48 1299.15 1451.08 Q1292.12 1456.68 1279.15 1456.68 Q1274.8 1456.68 1270.17 1455.8 Q1265.59 1454.97 1260.68 1453.26 L1260.68 1444.23 Q1264.57 1446.5 1269.2 1447.65 Q1273.83 1448.81 1278.88 1448.81 Q1287.67 1448.81 1292.26 1445.34 Q1296.89 1441.87 1296.89 1435.25 Q1296.89 1429.14 1292.58 1425.71 Q1288.32 1422.24 1280.68 1422.24 L1272.63 1422.24 L1272.63 1414.55 L1281.05 1414.55 Q1287.95 1414.55 1291.61 1411.82 Q1295.27 1409.04 1295.27 1403.86 Q1295.27 1398.53 1291.47 1395.71 Q1287.72 1392.84 1280.68 1392.84 Q1276.84 1392.84 1272.44 1393.67 Q1268.04 1394.51 1262.77 1396.27 L1262.77 1387.93 Q1268.09 1386.45 1272.72 1385.71 Q1277.4 1384.97 1281.52 1384.97 Q1292.16 1384.97 1298.37 1389.83 Q1304.57 1394.65 1304.57 1402.89 Q1304.57 1408.63 1301.28 1412.61 Q1298 1416.54 1291.93 1418.07 Z" fill="#000000" fill-rule="nonzero" fill-opacity="1" /><path clip-path="url(#clip610)" d="M1343.92 1392.38 Q1336.7 1392.38 1333.04 1399.51 Q1329.43 1406.59 1329.43 1420.85 Q1329.43 1435.06 1333.04 1442.19 Q1336.7 1449.28 1343.92 1449.28 Q1351.19 1449.28 1354.8 1442.19 Q1358.46 1435.06 1358.46 1420.85 Q1358.46 1406.59 1354.8 1399.51 Q1351.19 1392.38 1343.92 1392.38 M1343.92 1384.97 Q1355.54 1384.97 1361.65 1394.18 Q1367.81 1403.35 1367.81 1420.85 Q1367.81 1438.3 1361.65 1447.52 Q1355.54 1456.68 1343.92 1456.68 Q1332.3 1456.68 1326.14 1447.52 Q1320.03 1438.3 1320.03 1420.85 Q1320.03 1403.35 1326.14 1394.18 Q1332.3 1384.97 1343.92 1384.97 Z" fill="#000000" fill-rule="nonzero" fill-opacity="1" /><path clip-path="url(#clip610)" d="M1404.25 1392.38 Q1397.02 1392.38 1393.37 1399.51 Q1389.76 1406.59 1389.76 1420.85 Q1389.76 1435.06 1393.37 1442.19 Q1397.02 1449.28 1404.25 1449.28 Q1411.51 1449.28 1415.13 1442.19 Q1418.78 1435.06 1418.78 1420.85 Q1418.78 1406.59 1415.13 1399.51 Q1411.51 1392.38 1404.25 1392.38 M1404.25 1384.97 Q1415.87 1384.97 1421.98 1394.18 Q1428.14 1403.35 1428.14 1420.85 Q1428.14 1438.3 1421.98 1447.52 Q1415.87 1456.68 1404.25 1456.68 Q1392.63 1456.68 1386.47 1447.52 Q1380.36 1438.3 1380.36 1420.85 Q1380.36 1403.35 1386.47 1394.18 Q1392.63 1384.97 1404.25 1384.97 Z" fill="#000000" fill-rule="nonzero" fill-opacity="1" /><path clip-path="url(#clip610)" d="M1464.57 1392.38 Q1457.35 1392.38 1453.69 1399.51 Q1450.08 1406.59 1450.08 1420.85 Q1450.08 1435.06 1453.69 1442.19 Q1457.35 1449.28 1464.57 1449.28 Q1471.84 1449.28 1475.45 1442.19 Q1479.11 1435.06 1479.11 1420.85 Q1479.11 1406.59 1475.45 1399.51 Q1471.84 1392.38 1464.57 1392.38 M1464.57 1384.97 Q1476.19 1384.97 1482.3 1394.18 Q1488.46 1403.35 1488.46 1420.85 Q1488.46 1438.3 1482.3 1447.52 Q1476.19 1456.68 1464.57 1456.68 Q1452.95 1456.68 1446.79 1447.52 Q1440.68 1438.3 1440.68 1420.85 Q1440.68 1403.35 1446.79 1394.18 Q1452.95 1384.97 1464.57 1384.97 Z" fill="#000000" fill-rule="nonzero" fill-opacity="1" /><path clip-path="url(#clip610)" d="M1681.86 1394.37 L1658.25 1431.27 L1681.86 1431.27 L1681.86 1394.37 M1679.41 1386.22 L1691.17 1386.22 L1691.17 1431.27 L1701.03 1431.27 L1701.03 1439.04 L1691.17 1439.04 L1691.17 1455.34 L1681.86 1455.34 L1681.86 1439.04 L1650.66 1439.04 L1650.66 1430.02 L1679.41 1386.22 Z" fill="#000000" fill-rule="nonzero" fill-opacity="1" /><path clip-path="url(#clip610)" d="M1736.49 1392.38 Q1729.27 1392.38 1725.61 1399.51 Q1722 1406.59 1722 1420.85 Q1722 1435.06 1725.61 1442.19 Q1729.27 1449.28 1736.49 1449.28 Q1743.76 1449.28 1747.37 1442.19 Q1751.03 1435.06 1751.03 1420.85 Q1751.03 1406.59 1747.37 1399.51 Q1743.76 1392.38 1736.49 1392.38 M1736.49 1384.97 Q1748.11 1384.97 1754.22 1394.18 Q1760.38 1403.35 1760.38 1420.85 Q1760.38 1438.3 1754.22 1447.52 Q1748.11 1456.68 1736.49 1456.68 Q1724.87 1456.68 1718.72 1447.52 Q1712.6 1438.3 1712.6 1420.85 Q1712.6 1403.35 1718.72 1394.18 Q1724.87 1384.97 1736.49 1384.97 Z" fill="#000000" fill-rule="nonzero" fill-opacity="1" /><path clip-path="url(#clip610)" d="M1796.82 1392.38 Q1789.59 1392.38 1785.94 1399.51 Q1782.33 1406.59 1782.33 1420.85 Q1782.33 1435.06 1785.94 1442.19 Q1789.59 1449.28 1796.82 1449.28 Q1804.09 1449.28 1807.7 1442.19 Q1811.35 1435.06 1811.35 1420.85 Q1811.35 1406.59 1807.7 1399.51 Q1804.09 1392.38 1796.82 1392.38 M1796.82 1384.97 Q1808.44 1384.97 1814.55 1394.18 Q1820.71 1403.35 1820.71 1420.85 Q1820.71 1438.3 1814.55 1447.52 Q1808.44 1456.68 1796.82 1456.68 Q1785.2 1456.68 1779.04 1447.52 Q1772.93 1438.3 1772.93 1420.85 Q1772.93 1403.35 1779.04 1394.18 Q1785.2 1384.97 1796.82 1384.97 Z" fill="#000000" fill-rule="nonzero" fill-opacity="1" /><path clip-path="url(#clip610)" d="M1857.14 1392.38 Q1849.92 1392.38 1846.26 1399.51 Q1842.65 1406.59 1842.65 1420.85 Q1842.65 1435.06 1846.26 1442.19 Q1849.92 1449.28 1857.14 1449.28 Q1864.41 1449.28 1868.02 1442.19 Q1871.68 1435.06 1871.68 1420.85 Q1871.68 1406.59 1868.02 1399.51 Q1864.41 1392.38 1857.14 1392.38 M1857.14 1384.97 Q1868.76 1384.97 1874.87 1394.18 Q1881.03 1403.35 1881.03 1420.85 Q1881.03 1438.3 1874.87 1447.52 Q1868.76 1456.68 1857.14 1456.68 Q1845.52 1456.68 1839.36 1447.52 Q1833.25 1438.3 1833.25 1420.85 Q1833.25 1403.35 1839.36 1394.18 Q1845.52 1384.97 1857.14 1384.97 Z" fill="#000000" fill-rule="nonzero" fill-opacity="1" /><path clip-path="url(#clip610)" d="M2046.19 1386.22 L2082.91 1386.22 L2082.91 1394.09 L2054.76 1394.09 L2054.76 1411.03 Q2056.8 1410.34 2058.83 1410.02 Q2060.87 1409.65 2062.91 1409.65 Q2074.48 1409.65 2081.24 1415.99 Q2088 1422.33 2088 1433.16 Q2088 1444.32 2081.05 1450.53 Q2074.11 1456.68 2061.47 1456.68 Q2057.12 1456.68 2052.58 1455.94 Q2048.09 1455.2 2043.28 1453.72 L2043.28 1444.32 Q2047.44 1446.59 2051.89 1447.7 Q2056.33 1448.81 2061.29 1448.81 Q2069.3 1448.81 2073.97 1444.6 Q2078.65 1440.39 2078.65 1433.16 Q2078.65 1425.94 2073.97 1421.73 Q2069.3 1417.52 2061.29 1417.52 Q2057.54 1417.52 2053.79 1418.35 Q2050.08 1419.18 2046.19 1420.94 L2046.19 1386.22 Z" fill="#000000" fill-rule="nonzero" fill-opacity="1" /><path clip-path="url(#clip610)" d="M2126.42 1392.38 Q2119.2 1392.38 2115.54 1399.51 Q2111.93 1406.59 2111.93 1420.85 Q2111.93 1435.06 2115.54 1442.19 Q2119.2 1449.28 2126.42 1449.28 Q2133.69 1449.28 2137.3 1442.19 Q2140.96 1435.06 2140.96 1420.85 Q2140.96 1406.59 2137.3 1399.51 Q2133.69 1392.38 2126.42 1392.38 M2126.42 1384.97 Q2138.04 1384.97 2144.16 1394.18 Q2150.31 1403.35 2150.31 1420.85 Q2150.31 1438.3 2144.16 1447.52 Q2138.04 1456.68 2126.42 1456.68 Q2114.8 1456.68 2108.65 1447.52 Q2102.54 1438.3 2102.54 1420.85 Q2102.54 1403.35 2108.65 1394.18 Q2114.8 1384.97 2126.42 1384.97 Z" fill="#000000" fill-rule="nonzero" fill-opacity="1" /><path clip-path="url(#clip610)" d="M2186.75 1392.38 Q2179.53 1392.38 2175.87 1399.51 Q2172.26 1406.59 2172.26 1420.85 Q2172.26 1435.06 2175.87 1442.19 Q2179.53 1449.28 2186.75 1449.28 Q2194.02 1449.28 2197.63 1442.19 Q2201.29 1435.06 2201.29 1420.85 Q2201.29 1406.59 2197.63 1399.51 Q2194.02 1392.38 2186.75 1392.38 M2186.75 1384.97 Q2198.37 1384.97 2204.48 1394.18 Q2210.64 1403.35 2210.64 1420.85 Q2210.64 1438.3 2204.48 1447.52 Q2198.37 1456.68 2186.75 1456.68 Q2175.13 1456.68 2168.97 1447.52 Q2162.86 1438.3 2162.86 1420.85 Q2162.86 1403.35 2168.97 1394.18 Q2175.13 1384.97 2186.75 1384.97 Z" fill="#000000" fill-rule="nonzero" fill-opacity="1" /><path clip-path="url(#clip610)" d="M2247.07 1392.38 Q2239.85 1392.38 2236.19 1399.51 Q2232.58 1406.59 2232.58 1420.85 Q2232.58 1435.06 2236.19 1442.19 Q2239.85 1449.28 2247.07 1449.28 Q2254.34 1449.28 2257.95 1442.19 Q2261.61 1435.06 2261.61 1420.85 Q2261.61 1406.59 2257.95 1399.51 Q2254.34 1392.38 2247.07 1392.38 M2247.07 1384.97 Q2258.69 1384.97 2264.8 1394.18 Q2270.96 1403.35 2270.96 1420.85 Q2270.96 1438.3 2264.8 1447.52 Q2258.69 1456.68 2247.07 1456.68 Q2235.45 1456.68 2229.29 1447.52 Q2223.18 1438.3 2223.18 1420.85 Q2223.18 1403.35 2229.29 1394.18 Q2235.45 1384.97 2247.07 1384.97 Z" fill="#000000" fill-rule="nonzero" fill-opacity="1" /><path clip-path="url(#clip610)" d="M1157.93 1518.22 L1142.08 1561.21 L1173.85 1561.21 L1157.93 1518.22 M1151.34 1506.7 L1164.59 1506.7 L1197.52 1593.1 L1185.36 1593.1 L1177.49 1570.94 L1138.55 1570.94 L1130.68 1593.1 L1118.35 1593.1 L1151.34 1506.7 Z" fill="#000000" fill-rule="nonzero" fill-opacity="1" /><path clip-path="url(#clip610)" d="M1188.95 1506.7 L1262.04 1506.7 L1262.04 1516.54 L1231.37 1516.54 L1231.37 1593.1 L1219.62 1593.1 L1219.62 1516.54 L1188.95 1516.54 L1188.95 1506.7 Z" fill="#000000" fill-rule="nonzero" fill-opacity="1" /><path clip-path="url(#clip610)" d="M1285.02 1516.31 L1285.02 1548.77 L1299.72 1548.77 Q1307.88 1548.77 1312.33 1544.55 Q1316.79 1540.32 1316.79 1532.51 Q1316.79 1524.76 1312.33 1520.53 Q1307.88 1516.31 1299.72 1516.31 L1285.02 1516.31 M1273.33 1506.7 L1299.72 1506.7 Q1314.24 1506.7 1321.65 1513.3 Q1329.11 1519.84 1329.11 1532.51 Q1329.11 1545.3 1321.65 1551.84 Q1314.24 1558.38 1299.72 1558.38 L1285.02 1558.38 L1285.02 1593.1 L1273.33 1593.1 L1273.33 1506.7 Z" fill="#000000" fill-rule="nonzero" fill-opacity="1" /><path clip-path="url(#clip610)" d="M1407.59 1503.17 Q1399.83 1516.48 1396.07 1529.5 Q1392.31 1542.52 1392.31 1555.89 Q1392.31 1569.26 1396.07 1582.39 Q1399.89 1595.47 1407.59 1608.72 L1398.33 1608.72 Q1389.65 1595.13 1385.31 1581.99 Q1381.02 1568.85 1381.02 1555.89 Q1381.02 1542.98 1385.31 1529.91 Q1389.59 1516.83 1398.33 1503.17 L1407.59 1503.17 Z" fill="#000000" fill-rule="nonzero" fill-opacity="1" /><path clip-path="url(#clip610)" d="M1427.15 1617.75 L1427.15 1528.29 L1437.79 1528.29 L1437.79 1568.56 Q1437.79 1576.95 1441.79 1581.24 Q1445.78 1585.52 1453.59 1585.52 Q1462.16 1585.52 1466.44 1580.66 Q1470.78 1575.8 1470.78 1566.07 L1470.78 1528.29 L1481.43 1528.29 L1481.43 1578.17 Q1481.43 1581.64 1482.41 1583.32 Q1483.45 1584.94 1485.59 1584.94 Q1486.12 1584.94 1487.04 1584.65 Q1487.97 1584.3 1489.59 1583.61 L1489.59 1592.17 Q1487.21 1593.5 1485.07 1594.14 Q1482.99 1594.78 1480.96 1594.78 Q1476.97 1594.78 1474.6 1592.52 Q1472.23 1590.26 1471.36 1585.63 Q1468.46 1590.21 1464.24 1592.52 Q1460.07 1594.78 1454.4 1594.78 Q1448.5 1594.78 1444.33 1592.52 Q1440.22 1590.26 1437.79 1585.75 L1437.79 1617.75 L1427.15 1617.75 Z" fill="#000000" fill-rule="nonzero" fill-opacity="1" /><path clip-path="url(#clip610)" d="M1504.11 1506.7 L1521.53 1506.7 L1543.58 1565.5 L1565.74 1506.7 L1583.16 1506.7 L1583.16 1593.1 L1571.76 1593.1 L1571.76 1517.23 L1549.48 1576.49 L1537.74 1576.49 L1515.46 1517.23 L1515.46 1593.1 L1504.11 1593.1 L1504.11 1506.7 Z" fill="#000000" fill-rule="nonzero" fill-opacity="1" /><path clip-path="url(#clip610)" d="M1604.23 1503.17 L1613.49 1503.17 Q1622.17 1516.83 1626.45 1529.91 Q1630.79 1542.98 1630.79 1555.89 Q1630.79 1568.85 1626.45 1581.99 Q1622.17 1595.13 1613.49 1608.72 L1604.23 1608.72 Q1611.92 1595.47 1615.69 1582.39 Q1619.51 1569.26 1619.51 1555.89 Q1619.51 1542.52 1615.69 1529.5 Q1611.92 1516.48 1604.23 1503.17 Z" fill="#000000" fill-rule="nonzero" fill-opacity="1" /><polyline clip-path="url(#clip610)" style="stroke:#000000; stroke-linecap:round; stroke-linejoin:round; stroke-width:4; stroke-opacity:1; fill:none" points="396.385,1349.74 396.385,123.472 "/>
<polyline clip-path="url(#clip610)" style="stroke:#000000; stroke-linecap:round; stroke-linejoin:round; stroke-width:4; stroke-opacity:1; fill:none" points="396.385,1349.74 415.283,1349.74 "/>
<polyline clip-path="url(#clip610)" style="stroke:#000000; stroke-linecap:round; stroke-linejoin:round; stroke-width:4; stroke-opacity:1; fill:none" points="396.385,940.984 415.283,940.984 "/>
<polyline clip-path="url(#clip610)" style="stroke:#000000; stroke-linecap:round; stroke-linejoin:round; stroke-width:4; stroke-opacity:1; fill:none" points="396.385,532.228 415.283,532.228 "/>
<polyline clip-path="url(#clip610)" style="stroke:#000000; stroke-linecap:round; stroke-linejoin:round; stroke-width:4; stroke-opacity:1; fill:none" points="396.385,123.472 415.283,123.472 "/>
<path clip-path="url(#clip610)" d="M188.164 1321.34 Q180.942 1321.34 177.284 1328.47 Q173.673 1335.55 173.673 1349.81 Q173.673 1364.02 177.284 1371.15 Q180.942 1378.24 188.164 1378.24 Q195.432 1378.24 199.043 1371.15 Q202.701 1364.02 202.701 1349.81 Q202.701 1335.55 199.043 1328.47 Q195.432 1321.34 188.164 1321.34 M188.164 1313.93 Q199.784 1313.93 205.895 1323.14 Q212.053 1332.31 212.053 1349.81 Q212.053 1367.26 205.895 1376.48 Q199.784 1385.64 188.164 1385.64 Q176.544 1385.64 170.386 1376.48 Q164.275 1367.26 164.275 1349.81 Q164.275 1332.31 170.386 1323.14 Q176.544 1313.93 188.164 1313.93 Z" fill="#000000" fill-rule="nonzero" fill-opacity="1" /><path clip-path="url(#clip610)" d="M228.488 1372.54 L238.256 1372.54 L238.256 1384.3 L228.488 1384.3 L228.488 1372.54 Z" fill="#000000" fill-rule="nonzero" fill-opacity="1" /><path clip-path="url(#clip610)" d="M278.626 1321.34 Q271.404 1321.34 267.747 1328.47 Q264.136 1335.55 264.136 1349.81 Q264.136 1364.02 267.747 1371.15 Q271.404 1378.24 278.626 1378.24 Q285.895 1378.24 289.506 1371.15 Q293.163 1364.02 293.163 1349.81 Q293.163 1335.55 289.506 1328.47 Q285.895 1321.34 278.626 1321.34 M278.626 1313.93 Q290.247 1313.93 296.358 1323.14 Q302.515 1332.31 302.515 1349.81 Q302.515 1367.26 296.358 1376.48 Q290.247 1385.64 278.626 1385.64 Q267.006 1385.64 260.849 1376.48 Q254.738 1367.26 254.738 1349.81 Q254.738 1332.31 260.849 1323.14 Q267.006 1313.93 278.626 1313.93 Z" fill="#000000" fill-rule="nonzero" fill-opacity="1" /><path clip-path="url(#clip610)" d="M320.571 1376.43 L335.848 1376.43 L335.848 1323.7 L319.228 1327.03 L319.228 1318.51 L335.756 1315.18 L345.107 1315.18 L345.107 1376.43 L360.385 1376.43 L360.385 1384.3 L320.571 1384.3 L320.571 1376.43 Z" fill="#000000" fill-rule="nonzero" fill-opacity="1" /><path clip-path="url(#clip610)" d="M188.905 912.581 Q181.682 912.581 178.025 919.711 Q174.414 926.794 174.414 941.053 Q174.414 955.266 178.025 962.396 Q181.682 969.479 188.905 969.479 Q196.173 969.479 199.784 962.396 Q203.442 955.266 203.442 941.053 Q203.442 926.794 199.784 919.711 Q196.173 912.581 188.905 912.581 M188.905 905.174 Q200.525 905.174 206.636 914.387 Q212.793 923.553 212.793 941.053 Q212.793 958.507 206.636 967.72 Q200.525 976.887 188.905 976.887 Q177.284 976.887 171.127 967.72 Q165.016 958.507 165.016 941.053 Q165.016 923.553 171.127 914.387 Q177.284 905.174 188.905 905.174 Z" fill="#000000" fill-rule="nonzero" fill-opacity="1" /><path clip-path="url(#clip610)" d="M229.228 963.785 L238.997 963.785 L238.997 975.544 L229.228 975.544 L229.228 963.785 Z" fill="#000000" fill-rule="nonzero" fill-opacity="1" /><path clip-path="url(#clip610)" d="M279.367 912.581 Q272.145 912.581 268.488 919.711 Q264.876 926.794 264.876 941.053 Q264.876 955.266 268.488 962.396 Q272.145 969.479 279.367 969.479 Q286.636 969.479 290.247 962.396 Q293.904 955.266 293.904 941.053 Q293.904 926.794 290.247 919.711 Q286.636 912.581 279.367 912.581 M279.367 905.174 Q290.987 905.174 297.098 914.387 Q303.256 923.553 303.256 941.053 Q303.256 958.507 297.098 967.72 Q290.987 976.887 279.367 976.887 Q267.747 976.887 261.589 967.72 Q255.478 958.507 255.478 941.053 Q255.478 923.553 261.589 914.387 Q267.747 905.174 279.367 905.174 Z" fill="#000000" fill-rule="nonzero" fill-opacity="1" /><path clip-path="url(#clip610)" d="M327.746 967.674 L360.385 967.674 L360.385 975.544 L316.497 975.544 L316.497 967.674 Q321.821 962.164 330.987 952.905 Q340.2 943.6 342.561 940.914 Q347.052 935.868 348.811 932.396 Q350.617 928.878 350.617 925.498 Q350.617 919.989 346.728 916.516 Q342.885 913.044 336.682 913.044 Q332.283 913.044 327.376 914.572 Q322.515 916.1 316.959 919.202 L316.959 909.757 Q322.608 907.489 327.515 906.331 Q332.422 905.174 336.496 905.174 Q347.237 905.174 353.626 910.544 Q360.015 915.915 360.015 924.896 Q360.015 929.155 358.394 932.998 Q356.82 936.794 352.607 941.979 Q351.45 943.322 345.246 949.757 Q339.043 956.146 327.746 967.674 Z" fill="#000000" fill-rule="nonzero" fill-opacity="1" /><path clip-path="url(#clip610)" d="M187.006 503.825 Q179.784 503.825 176.127 510.955 Q172.516 518.038 172.516 532.297 Q172.516 546.51 176.127 553.64 Q179.784 560.723 187.006 560.723 Q194.275 560.723 197.886 553.64 Q201.543 546.51 201.543 532.297 Q201.543 518.038 197.886 510.955 Q194.275 503.825 187.006 503.825 M187.006 496.418 Q198.627 496.418 204.738 505.631 Q210.895 514.798 210.895 532.297 Q210.895 549.751 204.738 558.964 Q198.627 568.131 187.006 568.131 Q175.386 568.131 169.229 558.964 Q163.118 549.751 163.118 532.297 Q163.118 514.798 169.229 505.631 Q175.386 496.418 187.006 496.418 Z" fill="#000000" fill-rule="nonzero" fill-opacity="1" /><path clip-path="url(#clip610)" d="M227.33 555.029 L237.099 555.029 L237.099 566.788 L227.33 566.788 L227.33 555.029 Z" fill="#000000" fill-rule="nonzero" fill-opacity="1" /><path clip-path="url(#clip610)" d="M277.469 503.825 Q270.247 503.825 266.589 510.955 Q262.978 518.038 262.978 532.297 Q262.978 546.51 266.589 553.64 Q270.247 560.723 277.469 560.723 Q284.737 560.723 288.349 553.64 Q292.006 546.51 292.006 532.297 Q292.006 518.038 288.349 510.955 Q284.737 503.825 277.469 503.825 M277.469 496.418 Q289.089 496.418 295.2 505.631 Q301.358 514.798 301.358 532.297 Q301.358 549.751 295.2 558.964 Q289.089 568.131 277.469 568.131 Q265.849 568.131 259.691 558.964 Q253.58 549.751 253.58 532.297 Q253.58 514.798 259.691 505.631 Q265.849 496.418 277.469 496.418 Z" fill="#000000" fill-rule="nonzero" fill-opacity="1" /><path clip-path="url(#clip610)" d="M346.126 529.52 Q352.839 530.955 356.589 535.492 Q360.385 540.029 360.385 546.696 Q360.385 556.927 353.348 562.529 Q346.311 568.131 333.348 568.131 Q328.996 568.131 324.367 567.251 Q319.784 566.418 314.876 564.705 L314.876 555.677 Q318.765 557.945 323.395 559.103 Q328.024 560.26 333.071 560.26 Q341.867 560.26 346.45 556.788 Q351.08 553.316 351.08 546.696 Q351.08 540.584 346.774 537.159 Q342.515 533.686 334.876 533.686 L326.821 533.686 L326.821 526.001 L335.246 526.001 Q342.145 526.001 345.802 523.27 Q349.459 520.492 349.459 515.307 Q349.459 509.983 345.663 507.159 Q341.913 504.288 334.876 504.288 Q331.033 504.288 326.635 505.122 Q322.237 505.955 316.959 507.714 L316.959 499.381 Q322.284 497.9 326.913 497.159 Q331.589 496.418 335.709 496.418 Q346.357 496.418 352.561 501.279 Q358.765 506.094 358.765 514.335 Q358.765 520.075 355.478 524.057 Q352.191 527.992 346.126 529.52 Z" fill="#000000" fill-rule="nonzero" fill-opacity="1" /><path clip-path="url(#clip610)" d="M184.738 95.0695 Q177.516 95.0695 173.858 102.199 Q170.247 109.282 170.247 123.542 Q170.247 137.754 173.858 144.884 Q177.516 151.967 184.738 151.967 Q192.006 151.967 195.618 144.884 Q199.275 137.754 199.275 123.542 Q199.275 109.282 195.618 102.199 Q192.006 95.0695 184.738 95.0695 M184.738 87.6621 Q196.358 87.6621 202.469 96.875 Q208.627 106.042 208.627 123.542 Q208.627 140.995 202.469 150.208 Q196.358 159.375 184.738 159.375 Q173.118 159.375 166.96 150.208 Q160.849 140.995 160.849 123.542 Q160.849 106.042 166.96 96.875 Q173.118 87.6621 184.738 87.6621 Z" fill="#000000" fill-rule="nonzero" fill-opacity="1" /><path clip-path="url(#clip610)" d="M225.062 146.273 L234.83 146.273 L234.83 158.032 L225.062 158.032 L225.062 146.273 Z" fill="#000000" fill-rule="nonzero" fill-opacity="1" /><path clip-path="url(#clip610)" d="M275.2 95.0695 Q267.978 95.0695 264.321 102.199 Q260.71 109.282 260.71 123.542 Q260.71 137.754 264.321 144.884 Q267.978 151.967 275.2 151.967 Q282.469 151.967 286.08 144.884 Q289.737 137.754 289.737 123.542 Q289.737 109.282 286.08 102.199 Q282.469 95.0695 275.2 95.0695 M275.2 87.6621 Q286.821 87.6621 292.932 96.875 Q299.089 106.042 299.089 123.542 Q299.089 140.995 292.932 150.208 Q286.821 159.375 275.2 159.375 Q263.58 159.375 257.423 150.208 Q251.312 140.995 251.312 123.542 Q251.312 106.042 257.423 96.875 Q263.58 87.6621 275.2 87.6621 Z" fill="#000000" fill-rule="nonzero" fill-opacity="1" /><path clip-path="url(#clip610)" d="M341.219 97.0602 L317.608 133.958 L341.219 133.958 L341.219 97.0602 M338.765 88.9121 L350.524 88.9121 L350.524 133.958 L360.385 133.958 L360.385 141.736 L350.524 141.736 L350.524 158.032 L341.219 158.032 L341.219 141.736 L310.015 141.736 L310.015 132.708 L338.765 88.9121 Z" fill="#000000" fill-rule="nonzero" fill-opacity="1" /><path clip-path="url(#clip610)" d="M59.047 964.624 L138.966 934.705 L138.966 945.99 L91.0492 964.161 L138.966 986.499 L138.966 997.783 L76.8131 969.369 L65.3549 973.652 Q58.0632 976.372 58.0632 982.564 L58.0632 988.119 L48.9198 988.119 L49.0355 981.348 Q49.2091 968.27 59.047 964.624 Z" fill="#000000" fill-rule="nonzero" fill-opacity="1" /><path clip-path="url(#clip610)" d="M49.0355 856.754 Q62.3456 864.509 75.3664 868.27 Q88.3871 872.032 101.755 872.032 Q115.123 872.032 128.26 868.27 Q141.338 864.451 154.59 856.754 L154.59 866.013 Q140.991 874.694 127.855 879.034 Q114.718 883.316 101.755 883.316 Q88.8501 883.316 75.7715 879.034 Q62.6928 874.752 49.0355 866.013 L49.0355 856.754 Z" fill="#000000" fill-rule="nonzero" fill-opacity="1" /><path clip-path="url(#clip610)" d="M86.5932 785.632 Q79.4173 781.639 76.003 776.083 Q72.5886 770.528 72.5886 763.005 Q72.5886 752.877 79.7066 747.38 Q86.7668 741.882 99.8454 741.882 L138.966 741.882 L138.966 752.588 L100.193 752.588 Q90.8756 752.588 86.3617 755.887 Q81.8478 759.185 81.8478 765.956 Q81.8478 774.231 87.3455 779.035 Q92.8431 783.838 102.334 783.838 L138.966 783.838 L138.966 794.544 L100.193 794.544 Q90.8177 794.544 86.3617 797.842 Q81.8478 801.141 81.8478 808.028 Q81.8478 816.187 87.4034 820.99 Q92.901 825.794 102.334 825.794 L138.966 825.794 L138.966 836.5 L74.1511 836.5 L74.1511 825.794 L84.2205 825.794 Q78.2599 822.148 75.4243 817.055 Q72.5886 811.963 72.5886 804.96 Q72.5886 797.9 76.1766 792.981 Q79.7645 788.004 86.5932 785.632 Z" fill="#000000" fill-rule="nonzero" fill-opacity="1" /><path clip-path="url(#clip610)" d="M74.1511 720.644 L74.1511 709.996 L138.966 709.996 L138.966 720.644 L74.1511 720.644 M48.9198 720.644 L48.9198 709.996 L62.4035 709.996 L62.4035 720.644 L48.9198 720.644 Z" fill="#000000" fill-rule="nonzero" fill-opacity="1" /><path clip-path="url(#clip610)" d="M99.8454 633.839 L138.966 633.839 L138.966 644.487 L100.193 644.487 Q90.9913 644.487 86.4196 648.075 Q81.8478 651.663 81.8478 658.838 Q81.8478 667.461 87.3455 672.438 Q92.8431 677.415 102.334 677.415 L138.966 677.415 L138.966 688.121 L74.1511 688.121 L74.1511 677.415 L84.2205 677.415 Q78.3756 673.595 75.4821 668.445 Q72.5886 663.237 72.5886 656.466 Q72.5886 645.297 79.533 639.568 Q86.4196 633.839 99.8454 633.839 Z" fill="#000000" fill-rule="nonzero" fill-opacity="1" /><path clip-path="url(#clip610)" d="M31.0033 565.621 Q31.4952 565.129 32.192 565.129 Q32.8889 565.129 33.3807 565.621 Q33.8726 566.113 33.8726 566.81 L33.8726 619.358 Q33.8726 620.055 33.3807 620.547 Q32.8889 621.039 32.192 621.039 Q31.4952 621.039 31.0033 620.547 Q30.5115 620.055 30.5115 619.358 L30.5115 566.81 Q30.5115 566.113 31.0033 565.621 Z" fill="#000000" fill-rule="nonzero" fill-opacity="1" /><path clip-path="url(#clip610)" d="M5.26208 556.364 L2.63877 556.364 Q2.63877 546.281 -2.73083 541.075 Q-2.73083 539.641 -2.40291 539.395 Q-2.075 539.149 -0.558395 539.149 L46.5383 539.149 Q49.0386 539.149 49.8174 537.919 Q50.5962 536.689 50.5962 531.32 L50.5962 528.656 L53.1785 528.656 Q52.9326 531.607 52.9326 542.264 Q52.9326 552.921 53.1785 555.831 L50.5962 555.831 L50.5962 553.167 Q50.5962 547.88 49.8584 546.609 Q49.0796 545.338 46.5383 545.338 L3.04866 545.338 Q5.26208 549.724 5.26208 556.364 Z" fill="#000000" fill-rule="nonzero" fill-opacity="1" /><path clip-path="url(#clip610)" d="M49.0355 501.991 L49.0355 492.732 Q62.6928 484.051 75.7715 479.769 Q88.8501 475.429 101.755 475.429 Q114.718 475.429 127.855 479.769 Q140.991 484.051 154.59 492.732 L154.59 501.991 Q141.338 494.294 128.26 490.533 Q115.123 486.713 101.755 486.713 Q88.3871 486.713 75.3664 490.533 Q62.3456 494.294 49.0355 501.991 Z" fill="#000000" fill-rule="nonzero" fill-opacity="1" /><path clip-path="url(#clip610)" d="M698.758 28.9478 L698.758 35.9153 Q695.598 34.1734 692.398 33.3227 Q689.239 32.4315 685.998 32.4315 Q678.747 32.4315 674.736 37.0496 Q670.726 41.6271 670.726 49.9314 Q670.726 58.2358 674.736 62.8538 Q678.747 67.4314 685.998 67.4314 Q689.239 67.4314 692.398 66.5807 Q695.598 65.6895 698.758 63.9476 L698.758 70.8341 Q695.639 72.2924 692.277 73.0216 Q688.955 73.7508 685.188 73.7508 Q674.939 73.7508 668.903 67.3098 Q662.867 60.8689 662.867 49.9314 Q662.867 38.832 668.944 32.472 Q675.06 26.1121 685.674 26.1121 Q689.117 26.1121 692.398 26.8413 Q695.68 27.5299 698.758 28.9478 Z" fill="#000000" fill-rule="nonzero" fill-opacity="1" /><path clip-path="url(#clip610)" d="M749.435 45.1919 L749.435 72.576 L741.981 72.576 L741.981 45.4349 Q741.981 38.994 739.47 35.7938 Q736.958 32.5936 731.935 32.5936 Q725.899 32.5936 722.415 36.4419 Q718.932 40.2903 718.932 46.9338 L718.932 72.576 L711.438 72.576 L711.438 9.54393 L718.932 9.54393 L718.932 34.2544 Q721.605 30.163 725.211 28.1376 Q728.856 26.1121 733.596 26.1121 Q741.414 26.1121 745.425 30.9732 Q749.435 35.7938 749.435 45.1919 Z" fill="#000000" fill-rule="nonzero" fill-opacity="1" /><path clip-path="url(#clip610)" d="M784.921 49.7694 Q775.887 49.7694 772.404 51.8354 Q768.92 53.9013 768.92 58.8839 Q768.92 62.8538 771.512 65.2034 Q774.146 67.5124 778.642 67.5124 Q784.84 67.5124 788.567 63.1374 Q792.334 58.7219 792.334 51.4303 L792.334 49.7694 L784.921 49.7694 M799.788 46.6907 L799.788 72.576 L792.334 72.576 L792.334 65.6895 Q789.782 69.8214 785.974 71.8063 Q782.166 73.7508 776.657 73.7508 Q769.69 73.7508 765.558 69.8619 Q761.466 65.9325 761.466 59.3701 Q761.466 51.7138 766.57 47.825 Q771.715 43.9361 781.883 43.9361 L792.334 43.9361 L792.334 43.2069 Q792.334 38.0623 788.931 35.2672 Q785.569 32.4315 779.452 32.4315 Q775.563 32.4315 771.877 33.3632 Q768.191 34.295 764.788 36.1584 L764.788 29.2718 Q768.879 27.692 772.728 26.9223 Q776.576 26.1121 780.222 26.1121 Q790.066 26.1121 794.927 31.2163 Q799.788 36.3204 799.788 46.6907 Z" fill="#000000" fill-rule="nonzero" fill-opacity="1" /><path clip-path="url(#clip610)" d="M852.855 45.1919 L852.855 72.576 L845.401 72.576 L845.401 45.4349 Q845.401 38.994 842.889 35.7938 Q840.378 32.5936 835.355 32.5936 Q829.319 32.5936 825.835 36.4419 Q822.351 40.2903 822.351 46.9338 L822.351 72.576 L814.857 72.576 L814.857 27.2059 L822.351 27.2059 L822.351 34.2544 Q825.025 30.163 828.63 28.1376 Q832.276 26.1121 837.016 26.1121 Q844.834 26.1121 848.844 30.9732 Q852.855 35.7938 852.855 45.1919 Z" fill="#000000" fill-rule="nonzero" fill-opacity="1" /><path clip-path="url(#clip610)" d="M897.577 49.3643 Q897.577 41.2625 894.214 36.8065 Q890.893 32.3505 884.857 32.3505 Q878.861 32.3505 875.499 36.8065 Q872.177 41.2625 872.177 49.3643 Q872.177 57.4256 875.499 61.8816 Q878.861 66.3376 884.857 66.3376 Q890.893 66.3376 894.214 61.8816 Q897.577 57.4256 897.577 49.3643 M905.03 66.9452 Q905.03 78.5308 899.886 84.1616 Q894.741 89.8329 884.128 89.8329 Q880.198 89.8329 876.714 89.2252 Q873.231 88.6581 869.949 87.4428 L869.949 80.1917 Q873.231 81.9741 876.431 82.8248 Q879.631 83.6755 882.953 83.6755 Q890.285 83.6755 893.931 79.8271 Q897.577 76.0193 897.577 68.282 L897.577 64.5957 Q895.268 68.6061 891.662 70.5911 Q888.057 72.576 883.034 72.576 Q874.689 72.576 869.585 66.2161 Q864.481 59.8562 864.481 49.3643 Q864.481 38.832 869.585 32.472 Q874.689 26.1121 883.034 26.1121 Q888.057 26.1121 891.662 28.0971 Q895.268 30.082 897.577 34.0924 L897.577 27.2059 L905.03 27.2059 L905.03 66.9452 Z" fill="#000000" fill-rule="nonzero" fill-opacity="1" /><path clip-path="url(#clip610)" d="M920.383 27.2059 L927.837 27.2059 L927.837 72.576 L920.383 72.576 L920.383 27.2059 M920.383 9.54393 L927.837 9.54393 L927.837 18.9825 L920.383 18.9825 L920.383 9.54393 Z" fill="#000000" fill-rule="nonzero" fill-opacity="1" /><path clip-path="url(#clip610)" d="M981.147 45.1919 L981.147 72.576 L973.693 72.576 L973.693 45.4349 Q973.693 38.994 971.182 35.7938 Q968.67 32.5936 963.647 32.5936 Q957.611 32.5936 954.127 36.4419 Q950.643 40.2903 950.643 46.9338 L950.643 72.576 L943.149 72.576 L943.149 27.2059 L950.643 27.2059 L950.643 34.2544 Q953.317 30.163 956.922 28.1376 Q960.568 26.1121 965.308 26.1121 Q973.126 26.1121 977.136 30.9732 Q981.147 35.7938 981.147 45.1919 Z" fill="#000000" fill-rule="nonzero" fill-opacity="1" /><path clip-path="url(#clip610)" d="M1025.87 49.3643 Q1025.87 41.2625 1022.51 36.8065 Q1019.18 32.3505 1013.15 32.3505 Q1007.15 32.3505 1003.79 36.8065 Q1000.47 41.2625 1000.47 49.3643 Q1000.47 57.4256 1003.79 61.8816 Q1007.15 66.3376 1013.15 66.3376 Q1019.18 66.3376 1022.51 61.8816 Q1025.87 57.4256 1025.87 49.3643 M1033.32 66.9452 Q1033.32 78.5308 1028.18 84.1616 Q1023.03 89.8329 1012.42 89.8329 Q1008.49 89.8329 1005.01 89.2252 Q1001.52 88.6581 998.242 87.4428 L998.242 80.1917 Q1001.52 81.9741 1004.72 82.8248 Q1007.92 83.6755 1011.24 83.6755 Q1018.58 83.6755 1022.22 79.8271 Q1025.87 76.0193 1025.87 68.282 L1025.87 64.5957 Q1023.56 68.6061 1019.95 70.5911 Q1016.35 72.576 1011.33 72.576 Q1002.98 72.576 997.877 66.2161 Q992.773 59.8562 992.773 49.3643 Q992.773 38.832 997.877 32.472 Q1002.98 26.1121 1011.33 26.1121 Q1016.35 26.1121 1019.95 28.0971 Q1023.56 30.082 1025.87 34.0924 L1025.87 27.2059 L1033.32 27.2059 L1033.32 66.9452 Z" fill="#000000" fill-rule="nonzero" fill-opacity="1" /><path clip-path="url(#clip610)" d="M1089.51 73.7508 Q1072.7 73.7508 1072.7 49.6884 Q1072.7 40.1688 1078.98 27.2059 L1087 27.2059 Q1081.2 40.1688 1081.2 49.8909 Q1081.2 67.4314 1090.2 67.4314 Q1098.42 67.4314 1098.42 45.6375 L1105.31 45.6375 Q1105.31 67.4314 1113.53 67.4314 Q1122.52 67.4314 1122.52 49.8909 Q1122.52 40.1688 1116.73 27.2059 L1124.75 27.2059 Q1131.03 40.1688 1131.03 49.6884 Q1131.03 73.7508 1114.22 73.7508 Q1103.2 73.7508 1101.86 61.6386 Q1100.2 73.7508 1089.51 73.7508 Z" fill="#000000" fill-rule="nonzero" fill-opacity="1" /><path clip-path="url(#clip610)" d="M1178.99 86.3491 L1178.99 92.1419 L1135.89 92.1419 L1135.89 86.3491 L1178.99 86.3491 Z" fill="#000000" fill-rule="nonzero" fill-opacity="1" /><path clip-path="url(#clip610)" d="M1206.62 49.7694 Q1197.59 49.7694 1194.1 51.8354 Q1190.62 53.9013 1190.62 58.8839 Q1190.62 62.8538 1193.21 65.2034 Q1195.84 67.5124 1200.34 67.5124 Q1206.54 67.5124 1210.27 63.1374 Q1214.03 58.7219 1214.03 51.4303 L1214.03 49.7694 L1206.62 49.7694 M1221.49 46.6907 L1221.49 72.576 L1214.03 72.576 L1214.03 65.6895 Q1211.48 69.8214 1207.67 71.8063 Q1203.87 73.7508 1198.36 73.7508 Q1191.39 73.7508 1187.26 69.8619 Q1183.17 65.9325 1183.17 59.3701 Q1183.17 51.7138 1188.27 47.825 Q1193.41 43.9361 1203.58 43.9361 L1214.03 43.9361 L1214.03 43.2069 Q1214.03 38.0623 1210.63 35.2672 Q1207.27 32.4315 1201.15 32.4315 Q1197.26 32.4315 1193.58 33.3632 Q1189.89 34.295 1186.49 36.1584 L1186.49 29.2718 Q1190.58 27.692 1194.43 26.9223 Q1198.28 26.1121 1201.92 26.1121 Q1211.76 26.1121 1216.63 31.2163 Q1221.49 36.3204 1221.49 46.6907 Z" fill="#000000" fill-rule="nonzero" fill-opacity="1" /><path clip-path="url(#clip610)" d="M1269.41 49.9314 Q1269.41 41.7081 1266.01 37.0496 Q1262.64 32.3505 1256.73 32.3505 Q1250.82 32.3505 1247.41 37.0496 Q1244.05 41.7081 1244.05 49.9314 Q1244.05 58.1548 1247.41 62.8538 Q1250.82 67.5124 1256.73 67.5124 Q1262.64 67.5124 1266.01 62.8538 Q1269.41 58.1548 1269.41 49.9314 M1244.05 34.0924 Q1246.4 30.0415 1249.96 28.0971 Q1253.57 26.1121 1258.55 26.1121 Q1266.82 26.1121 1271.96 32.6746 Q1277.15 39.2371 1277.15 49.9314 Q1277.15 60.6258 1271.96 67.1883 Q1266.82 73.7508 1258.55 73.7508 Q1253.57 73.7508 1249.96 71.8063 Q1246.4 69.8214 1244.05 65.7705 L1244.05 72.576 L1236.56 72.576 L1236.56 9.54393 L1244.05 9.54393 L1244.05 34.0924 Z" fill="#000000" fill-rule="nonzero" fill-opacity="1" /><path clip-path="url(#clip610)" d="M1311.54 27.2059 L1318.99 27.2059 L1328.31 62.6108 L1337.59 27.2059 L1346.38 27.2059 L1355.69 62.6108 L1364.97 27.2059 L1372.42 27.2059 L1360.55 72.576 L1351.76 72.576 L1342 35.3887 L1332.2 72.576 L1323.41 72.576 L1311.54 27.2059 Z" fill="#000000" fill-rule="nonzero" fill-opacity="1" /><path clip-path="url(#clip610)" d="M1421.44 45.1919 L1421.44 72.576 L1413.99 72.576 L1413.99 45.4349 Q1413.99 38.994 1411.47 35.7938 Q1408.96 32.5936 1403.94 32.5936 Q1397.9 32.5936 1394.42 36.4419 Q1390.94 40.2903 1390.94 46.9338 L1390.94 72.576 L1383.44 72.576 L1383.44 9.54393 L1390.94 9.54393 L1390.94 34.2544 Q1393.61 30.163 1397.22 28.1376 Q1400.86 26.1121 1405.6 26.1121 Q1413.42 26.1121 1417.43 30.9732 Q1421.44 35.7938 1421.44 45.1919 Z" fill="#000000" fill-rule="nonzero" fill-opacity="1" /><path clip-path="url(#clip610)" d="M1475.11 48.0275 L1475.11 51.6733 L1440.84 51.6733 Q1441.33 59.3701 1445.46 63.421 Q1449.63 67.4314 1457.05 67.4314 Q1461.34 67.4314 1465.35 66.3781 Q1469.4 65.3249 1473.37 63.2184 L1473.37 70.267 Q1469.36 71.9684 1465.15 72.8596 Q1460.94 73.7508 1456.6 73.7508 Q1445.74 73.7508 1439.39 67.4314 Q1433.07 61.1119 1433.07 50.3365 Q1433.07 39.1965 1439.06 32.6746 Q1445.1 26.1121 1455.31 26.1121 Q1464.46 26.1121 1469.77 32.0264 Q1475.11 37.9003 1475.11 48.0275 M1467.66 45.84 Q1467.58 39.7232 1464.22 36.0774 Q1460.9 32.4315 1455.39 32.4315 Q1449.15 32.4315 1445.38 35.9558 Q1441.65 39.4801 1441.09 45.8805 L1467.66 45.84 Z" fill="#000000" fill-rule="nonzero" fill-opacity="1" /><path clip-path="url(#clip610)" d="M1525.06 45.1919 L1525.06 72.576 L1517.61 72.576 L1517.61 45.4349 Q1517.61 38.994 1515.1 35.7938 Q1512.58 32.5936 1507.56 32.5936 Q1501.53 32.5936 1498.04 36.4419 Q1494.56 40.2903 1494.56 46.9338 L1494.56 72.576 L1487.06 72.576 L1487.06 27.2059 L1494.56 27.2059 L1494.56 34.2544 Q1497.23 30.163 1500.84 28.1376 Q1504.48 26.1121 1509.22 26.1121 Q1517.04 26.1121 1521.05 30.9732 Q1525.06 35.7938 1525.06 45.1919 Z" fill="#000000" fill-rule="nonzero" fill-opacity="1" /><path clip-path="url(#clip610)" d="M1580.76 73.7508 Q1563.95 73.7508 1563.95 49.6884 Q1563.95 40.1688 1570.23 27.2059 L1578.25 27.2059 Q1572.46 40.1688 1572.46 49.8909 Q1572.46 67.4314 1581.45 67.4314 Q1589.67 67.4314 1589.67 45.6375 L1596.56 45.6375 Q1596.56 67.4314 1604.78 67.4314 Q1613.78 67.4314 1613.78 49.8909 Q1613.78 40.1688 1607.98 27.2059 L1616 27.2059 Q1622.28 40.1688 1622.28 49.6884 Q1622.28 73.7508 1605.47 73.7508 Q1594.45 73.7508 1593.12 61.6386 Q1591.46 73.7508 1580.76 73.7508 Z" fill="#000000" fill-rule="nonzero" fill-opacity="1" /><path clip-path="url(#clip610)" d="M1670.25 86.3491 L1670.25 92.1419 L1627.14 92.1419 L1627.14 86.3491 L1670.25 86.3491 Z" fill="#000000" fill-rule="nonzero" fill-opacity="1" /><path clip-path="url(#clip610)" d="M1703.54 34.1734 Q1702.29 33.4443 1700.79 33.1202 Q1699.33 32.7556 1697.55 32.7556 Q1691.23 32.7556 1687.83 36.8875 Q1684.46 40.9789 1684.46 48.6757 L1684.46 72.576 L1676.97 72.576 L1676.97 27.2059 L1684.46 27.2059 L1684.46 34.2544 Q1686.81 30.1225 1690.58 28.1376 Q1694.35 26.1121 1699.74 26.1121 Q1700.51 26.1121 1701.44 26.2337 Q1702.37 26.3147 1703.5 26.5172 L1703.54 34.1734 Z" fill="#000000" fill-rule="nonzero" fill-opacity="1" /><path clip-path="url(#clip610)" d="M1738.71 34.9026 L1790.64 34.9026 L1790.64 41.7081 L1738.71 41.7081 L1738.71 34.9026 M1738.71 51.4303 L1790.64 51.4303 L1790.64 58.3168 L1738.71 58.3168 L1738.71 51.4303 Z" fill="#000000" fill-rule="nonzero" fill-opacity="1" /><path clip-path="url(#clip610)" d="M1836.09 65.6895 L1849.46 65.6895 L1849.46 19.5497 L1834.92 22.4663 L1834.92 15.0127 L1849.38 12.096 L1857.56 12.096 L1857.56 65.6895 L1870.93 65.6895 L1870.93 72.576 L1836.09 72.576 L1836.09 65.6895 Z" fill="#000000" fill-rule="nonzero" fill-opacity="1" /><path clip-path="url(#clip610)" d="M1887.46 62.2867 L1896 62.2867 L1896 72.576 L1887.46 72.576 L1887.46 62.2867 Z" fill="#000000" fill-rule="nonzero" fill-opacity="1" /><path clip-path="url(#clip610)" d="M1931.33 17.4837 Q1925.01 17.4837 1921.81 23.7221 Q1918.65 29.92 1918.65 42.3968 Q1918.65 54.833 1921.81 61.0714 Q1925.01 67.2693 1931.33 67.2693 Q1937.69 67.2693 1940.85 61.0714 Q1944.05 54.833 1944.05 42.3968 Q1944.05 29.92 1940.85 23.7221 Q1937.69 17.4837 1931.33 17.4837 M1931.33 11.0023 Q1941.49 11.0023 1946.84 19.0636 Q1952.23 27.0843 1952.23 42.3968 Q1952.23 57.6687 1946.84 65.73 Q1941.49 73.7508 1931.33 73.7508 Q1921.16 73.7508 1915.77 65.73 Q1910.42 57.6687 1910.42 42.3968 Q1910.42 27.0843 1915.77 19.0636 Q1921.16 11.0023 1931.33 11.0023 Z" fill="#000000" fill-rule="nonzero" fill-opacity="1" /><path clip-path="url(#clip610)" d="M2004.36 48.0275 L2004.36 51.6733 L1970.09 51.6733 Q1970.58 59.3701 1974.71 63.421 Q1978.88 67.4314 1986.3 67.4314 Q1990.59 67.4314 1994.6 66.3781 Q1998.65 65.3249 2002.62 63.2184 L2002.62 70.267 Q1998.61 71.9684 1994.4 72.8596 Q1990.19 73.7508 1985.85 73.7508 Q1975 73.7508 1968.64 67.4314 Q1962.32 61.1119 1962.32 50.3365 Q1962.32 39.1965 1968.31 32.6746 Q1974.35 26.1121 1984.56 26.1121 Q1993.71 26.1121 1999.02 32.0264 Q2004.36 37.9003 2004.36 48.0275 M1996.91 45.84 Q1996.83 39.7232 1993.47 36.0774 Q1990.15 32.4315 1984.64 32.4315 Q1978.4 32.4315 1974.63 35.9558 Q1970.9 39.4801 1970.34 45.8805 L1996.91 45.84 Z" fill="#000000" fill-rule="nonzero" fill-opacity="1" /><path clip-path="url(#clip610)" d="M2012.83 46.5287 L2034.67 46.5287 L2034.67 53.1722 L2012.83 53.1722 L2012.83 46.5287 Z" fill="#000000" fill-rule="nonzero" fill-opacity="1" /><path clip-path="url(#clip610)" d="M2066.1 39.075 Q2060.59 39.075 2057.35 42.8424 Q2054.15 46.6097 2054.15 53.1722 Q2054.15 59.6941 2057.35 63.502 Q2060.59 67.2693 2066.1 67.2693 Q2071.61 67.2693 2074.81 63.502 Q2078.05 59.6941 2078.05 53.1722 Q2078.05 46.6097 2074.81 42.8424 Q2071.61 39.075 2066.1 39.075 M2082.34 13.4328 L2082.34 20.8865 Q2079.27 19.4281 2076.11 18.6585 Q2072.99 17.8888 2069.91 17.8888 Q2061.81 17.8888 2057.51 23.3575 Q2053.26 28.8262 2052.65 39.8852 Q2055.04 36.3609 2058.65 34.4975 Q2062.25 32.5936 2066.59 32.5936 Q2075.7 32.5936 2080.97 38.1433 Q2086.27 43.6525 2086.27 53.1722 Q2086.27 62.4892 2080.76 68.12 Q2075.26 73.7508 2066.1 73.7508 Q2055.61 73.7508 2050.06 65.73 Q2044.51 57.6687 2044.51 42.3968 Q2044.51 28.0566 2051.31 19.5497 Q2058.12 11.0023 2069.58 11.0023 Q2072.66 11.0023 2075.78 11.6099 Q2078.94 12.2175 2082.34 13.4328 Z" fill="#000000" fill-rule="nonzero" fill-opacity="1" /><path clip-path="url(#clip612)" d="M396.385 1349.74 L613.76 1213.49 L831.134 1213.49 L1048.51 1077.24 L1265.88 1077.24 L1483.26 1077.24 L1700.63 1077.24 L1918.01 1077.24 L2135.38 1077.24 L2352.76 1077.24 L2352.76 1349.74 L2135.38 1349.74 L1918.01 1349.74 L1700.63 1349.74 L1483.26 1349.74 L1265.88 1349.74 L1048.51 1349.74 L831.134 1349.74 L613.76 1349.74 L396.385 1349.74  Z" fill="#f4e5ff" fill-rule="evenodd" fill-opacity="0.45"/>
<polyline clip-path="url(#clip612)" style="stroke:#f4e5ff; stroke-linecap:round; stroke-linejoin:round; stroke-width:4; stroke-opacity:1; fill:none" points="396.385,1349.74 613.76,1213.49 831.134,1213.49 1048.51,1077.24 1265.88,1077.24 1483.26,1077.24 1700.63,1077.24 1918.01,1077.24 2135.38,1077.24 2352.76,1077.24 "/>
<path clip-path="url(#clip612)" d="M396.385 940.984 L613.76 668.48 L831.134 532.228 L1048.51 532.228 L1265.88 395.976 L1483.26 395.976 L1700.63 395.976 L1918.01 395.976 L2135.38 395.976 L2352.76 395.976 L2352.76 1077.24 L2135.38 1213.49 L1918.01 1213.49 L1700.63 1213.49 L1483.26 1213.49 L1265.88 1213.49 L1048.51 1213.49 L831.134 1213.49 L613.76 1213.49 L396.385 1349.74  Z" fill="#e6c5ff" fill-rule="evenodd" fill-opacity="0.45"/>
<polyline clip-path="url(#clip612)" style="stroke:#e6c5ff; stroke-linecap:round; stroke-linejoin:round; stroke-width:4; stroke-opacity:1; fill:none" points="396.385,940.984 613.76,668.48 831.134,532.228 1048.51,532.228 1265.88,395.976 1483.26,395.976 1700.63,395.976 1918.01,395.976 2135.38,395.976 2352.76,395.976 "/>
<path clip-path="url(#clip612)" d="M396.385 123.472 L613.76 123.472 L831.134 123.472 L1048.51 123.472 L1265.88 123.472 L1483.26 123.472 L1700.63 123.472 L1918.01 123.472 L2135.38 123.472 L2352.76 123.472 L2352.76 395.976 L2135.38 395.976 L1918.01 395.976 L1700.63 395.976 L1483.26 395.976 L1265.88 395.976 L1048.51 532.228 L831.134 532.228 L613.76 668.48 L396.385 940.984  Z" fill="#d7a1ff" fill-rule="evenodd" fill-opacity="0.45"/>
<polyline clip-path="url(#clip612)" style="stroke:#d7a1ff; stroke-linecap:round; stroke-linejoin:round; stroke-width:4; stroke-opacity:1; fill:none" points="396.385,123.472 613.76,123.472 831.134,123.472 1048.51,123.472 1265.88,123.472 1483.26,123.472 1700.63,123.472 1918.01,123.472 2135.38,123.472 2352.76,123.472 "/>
<path clip-path="url(#clip610)" d="M1796.72 1308.86 L2287.54 1308.86 L2287.54 1101.5 L1796.72 1101.5  Z" fill="#ffffff" fill-rule="evenodd" fill-opacity="1"/>
<polyline clip-path="url(#clip610)" style="stroke:#000000; stroke-linecap:round; stroke-linejoin:round; stroke-width:4; stroke-opacity:1; fill:none" points="1796.72,1308.86 2287.54,1308.86 2287.54,1101.5 1796.72,1101.5 1796.72,1308.86 "/>
<path clip-path="url(#clip610)" d="M1818.46 1174.08 L1948.89 1174.08 L1948.89 1132.61 L1818.46 1132.61 L1818.46 1174.08  Z" fill="#f4e5ff" fill-rule="evenodd" fill-opacity="0.45"/>
<polyline clip-path="url(#clip610)" style="stroke:#f4e5ff; stroke-linecap:round; stroke-linejoin:round; stroke-width:4; stroke-opacity:1; fill:none" points="1818.46,1132.61 1948.89,1132.61 "/>
<path clip-path="url(#clip610)" d="M1976.25 1166.69 L1992.57 1166.69 L1992.57 1170.62 L1970.62 1170.62 L1970.62 1166.69 Q1973.28 1163.93 1977.87 1159.3 Q1982.47 1154.65 1983.65 1153.31 Q1985.9 1150.79 1986.78 1149.05 Q1987.68 1147.29 1987.68 1145.6 Q1987.68 1142.85 1985.74 1141.11 Q1983.82 1139.37 1980.72 1139.37 Q1978.52 1139.37 1976.06 1140.14 Q1973.63 1140.9 1970.85 1142.45 L1970.85 1137.73 Q1973.68 1136.6 1976.13 1136.02 Q1978.59 1135.44 1980.62 1135.44 Q1985.99 1135.44 1989.19 1138.12 Q1992.38 1140.81 1992.38 1145.3 Q1992.38 1147.43 1991.57 1149.35 Q1990.78 1151.25 1988.68 1153.84 Q1988.1 1154.51 1985 1157.73 Q1981.9 1160.93 1976.25 1166.69 Z" fill="#000000" fill-rule="nonzero" fill-opacity="1" /><path clip-path="url(#clip610)" d="M2023.96 1156.6 L2023.96 1158.68 L2004.37 1158.68 Q2004.65 1163.08 2007.01 1165.39 Q2009.4 1167.68 2013.63 1167.68 Q2016.09 1167.68 2018.38 1167.08 Q2020.69 1166.48 2022.96 1165.28 L2022.96 1169.3 Q2020.67 1170.28 2018.26 1170.79 Q2015.85 1171.3 2013.38 1171.3 Q2007.17 1171.3 2003.54 1167.68 Q1999.93 1164.07 1999.93 1157.92 Q1999.93 1151.55 2003.35 1147.82 Q2006.8 1144.07 2012.64 1144.07 Q2017.87 1144.07 2020.9 1147.45 Q2023.96 1150.81 2023.96 1156.6 M2019.7 1155.35 Q2019.65 1151.85 2017.73 1149.77 Q2015.83 1147.68 2012.68 1147.68 Q2009.12 1147.68 2006.96 1149.7 Q2004.84 1151.71 2004.51 1155.37 L2019.7 1155.35 Z" fill="#000000" fill-rule="nonzero" fill-opacity="1" /><path clip-path="url(#clip610)" d="M2028.79 1155.74 L2041.27 1155.74 L2041.27 1159.54 L2028.79 1159.54 L2028.79 1155.74 Z" fill="#000000" fill-rule="nonzero" fill-opacity="1" /><path clip-path="url(#clip610)" d="M2058.65 1139.14 Q2055.04 1139.14 2053.21 1142.71 Q2051.41 1146.25 2051.41 1153.38 Q2051.41 1160.49 2053.21 1164.05 Q2055.04 1167.59 2058.65 1167.59 Q2062.29 1167.59 2064.09 1164.05 Q2065.92 1160.49 2065.92 1153.38 Q2065.92 1146.25 2064.09 1142.71 Q2062.29 1139.14 2058.65 1139.14 M2058.65 1135.44 Q2064.46 1135.44 2067.52 1140.05 Q2070.6 1144.63 2070.6 1153.38 Q2070.6 1162.11 2067.52 1166.71 Q2064.46 1171.3 2058.65 1171.3 Q2052.84 1171.3 2049.77 1166.71 Q2046.71 1162.11 2046.71 1153.38 Q2046.71 1144.63 2049.77 1140.05 Q2052.84 1135.44 2058.65 1135.44 Z" fill="#000000" fill-rule="nonzero" fill-opacity="1" /><path clip-path="url(#clip610)" d="M2089.4 1151.48 Q2086.25 1151.48 2084.4 1153.63 Q2082.57 1155.79 2082.57 1159.54 Q2082.57 1163.26 2084.4 1165.44 Q2086.25 1167.59 2089.4 1167.59 Q2092.54 1167.59 2094.37 1165.44 Q2096.22 1163.26 2096.22 1159.54 Q2096.22 1155.79 2094.37 1153.63 Q2092.54 1151.48 2089.4 1151.48 M2098.68 1136.83 L2098.68 1141.09 Q2096.92 1140.25 2095.11 1139.81 Q2093.33 1139.37 2091.57 1139.37 Q2086.94 1139.37 2084.49 1142.5 Q2082.06 1145.62 2081.71 1151.94 Q2083.08 1149.93 2085.14 1148.87 Q2087.2 1147.78 2089.67 1147.78 Q2094.88 1147.78 2097.89 1150.95 Q2100.92 1154.1 2100.92 1159.54 Q2100.92 1164.86 2097.77 1168.08 Q2094.63 1171.3 2089.4 1171.3 Q2083.4 1171.3 2080.23 1166.71 Q2077.06 1162.11 2077.06 1153.38 Q2077.06 1145.18 2080.95 1140.32 Q2084.83 1135.44 2091.39 1135.44 Q2093.14 1135.44 2094.93 1135.79 Q2096.73 1136.13 2098.68 1136.83 Z" fill="#000000" fill-rule="nonzero" fill-opacity="1" /><path clip-path="url(#clip610)" d="M1818.46 1225.92 L1948.89 1225.92 L1948.89 1184.45 L1818.46 1184.45 L1818.46 1225.92  Z" fill="#e6c5ff" fill-rule="evenodd" fill-opacity="0.45"/>
<polyline clip-path="url(#clip610)" style="stroke:#e6c5ff; stroke-linecap:round; stroke-linejoin:round; stroke-width:4; stroke-opacity:1; fill:none" points="1818.46,1184.45 1948.89,1184.45 "/>
<path clip-path="url(#clip610)" d="M1982.96 1203.32 Q1979.81 1203.32 1977.96 1205.47 Q1976.13 1207.63 1976.13 1211.38 Q1976.13 1215.1 1977.96 1217.28 Q1979.81 1219.43 1982.96 1219.43 Q1986.11 1219.43 1987.94 1217.28 Q1989.79 1215.1 1989.79 1211.38 Q1989.79 1207.63 1987.94 1205.47 Q1986.11 1203.32 1982.96 1203.32 M1992.24 1188.67 L1992.24 1192.93 Q1990.48 1192.09 1988.68 1191.65 Q1986.9 1191.21 1985.14 1191.21 Q1980.51 1191.21 1978.05 1194.34 Q1975.62 1197.46 1975.28 1203.78 Q1976.64 1201.77 1978.7 1200.71 Q1980.76 1199.62 1983.24 1199.62 Q1988.45 1199.62 1991.46 1202.79 Q1994.49 1205.94 1994.49 1211.38 Q1994.49 1216.7 1991.34 1219.92 Q1988.19 1223.14 1982.96 1223.14 Q1976.97 1223.14 1973.79 1218.55 Q1970.62 1213.95 1970.62 1205.22 Q1970.62 1197.02 1974.51 1192.16 Q1978.4 1187.28 1984.95 1187.28 Q1986.71 1187.28 1988.49 1187.63 Q1990.3 1187.97 1992.24 1188.67 Z" fill="#000000" fill-rule="nonzero" fill-opacity="1" /><path clip-path="url(#clip610)" d="M2002.54 1216.58 L2007.43 1216.58 L2007.43 1222.46 L2002.54 1222.46 L2002.54 1216.58 Z" fill="#000000" fill-rule="nonzero" fill-opacity="1" /><path clip-path="url(#clip610)" d="M2031.78 1203.83 Q2035.14 1204.55 2037.01 1206.82 Q2038.91 1209.08 2038.91 1212.42 Q2038.91 1217.53 2035.39 1220.33 Q2031.87 1223.14 2025.39 1223.14 Q2023.21 1223.14 2020.9 1222.7 Q2018.61 1222.28 2016.15 1221.42 L2016.15 1216.91 Q2018.1 1218.04 2020.41 1218.62 Q2022.73 1219.2 2025.25 1219.2 Q2029.65 1219.2 2031.94 1217.46 Q2034.26 1215.73 2034.26 1212.42 Q2034.26 1209.36 2032.1 1207.65 Q2029.97 1205.91 2026.15 1205.91 L2022.13 1205.91 L2022.13 1202.07 L2026.34 1202.07 Q2029.79 1202.07 2031.62 1200.71 Q2033.45 1199.32 2033.45 1196.72 Q2033.45 1194.06 2031.55 1192.65 Q2029.67 1191.21 2026.15 1191.21 Q2024.23 1191.21 2022.03 1191.63 Q2019.84 1192.05 2017.2 1192.93 L2017.2 1188.76 Q2019.86 1188.02 2022.17 1187.65 Q2024.51 1187.28 2026.57 1187.28 Q2031.9 1187.28 2035 1189.71 Q2038.1 1192.12 2038.1 1196.24 Q2038.1 1199.11 2036.46 1201.1 Q2034.81 1203.07 2031.78 1203.83 Z" fill="#000000" fill-rule="nonzero" fill-opacity="1" /><path clip-path="url(#clip610)" d="M2051.8 1218.53 L2068.12 1218.53 L2068.12 1222.46 L2046.18 1222.46 L2046.18 1218.53 Q2048.84 1215.77 2053.42 1211.14 Q2058.03 1206.49 2059.21 1205.15 Q2061.46 1202.63 2062.33 1200.89 Q2063.24 1199.13 2063.24 1197.44 Q2063.24 1194.69 2061.29 1192.95 Q2059.37 1191.21 2056.27 1191.21 Q2054.07 1191.21 2051.62 1191.98 Q2049.19 1192.74 2046.41 1194.29 L2046.41 1189.57 Q2049.23 1188.44 2051.69 1187.86 Q2054.14 1187.28 2056.18 1187.28 Q2061.55 1187.28 2064.74 1189.96 Q2067.94 1192.65 2067.94 1197.14 Q2067.94 1199.27 2067.13 1201.19 Q2066.34 1203.09 2064.23 1205.68 Q2063.65 1206.35 2060.55 1209.57 Q2057.45 1212.77 2051.8 1218.53 Z" fill="#000000" fill-rule="nonzero" fill-opacity="1" /><path clip-path="url(#clip610)" d="M2090.78 1191.98 L2078.98 1210.43 L2090.78 1210.43 L2090.78 1191.98 M2089.56 1187.9 L2095.44 1187.9 L2095.44 1210.43 L2100.37 1210.43 L2100.37 1214.32 L2095.44 1214.32 L2095.44 1222.46 L2090.78 1222.46 L2090.78 1214.32 L2075.18 1214.32 L2075.18 1209.8 L2089.56 1187.9 Z" fill="#000000" fill-rule="nonzero" fill-opacity="1" /><path clip-path="url(#clip610)" d="M2108.14 1187.9 L2126.5 1187.9 L2126.5 1191.84 L2112.43 1191.84 L2112.43 1200.31 Q2113.45 1199.96 2114.46 1199.8 Q2115.48 1199.62 2116.5 1199.62 Q2122.29 1199.62 2125.67 1202.79 Q2129.05 1205.96 2129.05 1211.38 Q2129.05 1216.96 2125.58 1220.06 Q2122.1 1223.14 2115.78 1223.14 Q2113.61 1223.14 2111.34 1222.77 Q2109.09 1222.39 2106.69 1221.65 L2106.69 1216.96 Q2108.77 1218.09 2110.99 1218.64 Q2113.21 1219.2 2115.69 1219.2 Q2119.7 1219.2 2122.03 1217.09 Q2124.37 1214.99 2124.37 1211.38 Q2124.37 1207.77 2122.03 1205.66 Q2119.7 1203.55 2115.69 1203.55 Q2113.82 1203.55 2111.94 1203.97 Q2110.09 1204.39 2108.14 1205.27 L2108.14 1187.9 Z" fill="#000000" fill-rule="nonzero" fill-opacity="1" /><path clip-path="url(#clip610)" d="M2148.84 1203.32 Q2145.69 1203.32 2143.84 1205.47 Q2142.01 1207.63 2142.01 1211.38 Q2142.01 1215.1 2143.84 1217.28 Q2145.69 1219.43 2148.84 1219.43 Q2151.99 1219.43 2153.82 1217.28 Q2155.67 1215.1 2155.67 1211.38 Q2155.67 1207.63 2153.82 1205.47 Q2151.99 1203.32 2148.84 1203.32 M2158.12 1188.67 L2158.12 1192.93 Q2156.36 1192.09 2154.56 1191.65 Q2152.77 1191.21 2151.02 1191.21 Q2146.39 1191.21 2143.93 1194.34 Q2141.5 1197.46 2141.15 1203.78 Q2142.52 1201.77 2144.58 1200.71 Q2146.64 1199.62 2149.12 1199.62 Q2154.33 1199.62 2157.33 1202.79 Q2160.37 1205.94 2160.37 1211.38 Q2160.37 1216.7 2157.22 1219.92 Q2154.07 1223.14 2148.84 1223.14 Q2142.84 1223.14 2139.67 1218.55 Q2136.5 1213.95 2136.5 1205.22 Q2136.5 1197.02 2140.39 1192.16 Q2144.28 1187.28 2150.83 1187.28 Q2152.59 1187.28 2154.37 1187.63 Q2156.18 1187.97 2158.12 1188.67 Z" fill="#000000" fill-rule="nonzero" fill-opacity="1" /><path clip-path="url(#clip610)" d="M2190 1208.44 L2190 1210.52 L2170.41 1210.52 Q2170.69 1214.92 2173.05 1217.23 Q2175.44 1219.52 2179.67 1219.52 Q2182.13 1219.52 2184.42 1218.92 Q2186.73 1218.32 2189 1217.12 L2189 1221.14 Q2186.71 1222.12 2184.3 1222.63 Q2181.89 1223.14 2179.42 1223.14 Q2173.21 1223.14 2169.58 1219.52 Q2165.97 1215.91 2165.97 1209.76 Q2165.97 1203.39 2169.39 1199.66 Q2172.84 1195.91 2178.68 1195.91 Q2183.91 1195.91 2186.94 1199.29 Q2190 1202.65 2190 1208.44 M2185.74 1207.19 Q2185.69 1203.69 2183.77 1201.61 Q2181.87 1199.52 2178.72 1199.52 Q2175.16 1199.52 2173.01 1201.54 Q2170.88 1203.55 2170.55 1207.21 L2185.74 1207.19 Z" fill="#000000" fill-rule="nonzero" fill-opacity="1" /><path clip-path="url(#clip610)" d="M2194.83 1207.58 L2207.31 1207.58 L2207.31 1211.38 L2194.83 1211.38 L2194.83 1207.58 Z" fill="#000000" fill-rule="nonzero" fill-opacity="1" /><path clip-path="url(#clip610)" d="M2224.7 1190.98 Q2221.08 1190.98 2219.26 1194.55 Q2217.45 1198.09 2217.45 1205.22 Q2217.45 1212.33 2219.26 1215.89 Q2221.08 1219.43 2224.7 1219.43 Q2228.33 1219.43 2230.13 1215.89 Q2231.96 1212.33 2231.96 1205.22 Q2231.96 1198.09 2230.13 1194.55 Q2228.33 1190.98 2224.7 1190.98 M2224.7 1187.28 Q2230.51 1187.28 2233.56 1191.89 Q2236.64 1196.47 2236.64 1205.22 Q2236.64 1213.95 2233.56 1218.55 Q2230.51 1223.14 2224.7 1223.14 Q2218.89 1223.14 2215.81 1218.55 Q2212.75 1213.95 2212.75 1205.22 Q2212.75 1196.47 2215.81 1191.89 Q2218.89 1187.28 2224.7 1187.28 Z" fill="#000000" fill-rule="nonzero" fill-opacity="1" /><path clip-path="url(#clip610)" d="M2244.9 1187.9 L2263.26 1187.9 L2263.26 1191.84 L2249.19 1191.84 L2249.19 1200.31 Q2250.2 1199.96 2251.22 1199.8 Q2252.24 1199.62 2253.26 1199.62 Q2259.05 1199.62 2262.43 1202.79 Q2265.81 1205.96 2265.81 1211.38 Q2265.81 1216.96 2262.33 1220.06 Q2258.86 1223.14 2252.54 1223.14 Q2250.37 1223.14 2248.1 1222.77 Q2245.85 1222.39 2243.45 1221.65 L2243.45 1216.96 Q2245.53 1218.09 2247.75 1218.64 Q2249.97 1219.2 2252.45 1219.2 Q2256.45 1219.2 2258.79 1217.09 Q2261.13 1214.99 2261.13 1211.38 Q2261.13 1207.77 2258.79 1205.66 Q2256.45 1203.55 2252.45 1203.55 Q2250.57 1203.55 2248.7 1203.97 Q2246.85 1204.39 2244.9 1205.27 L2244.9 1187.9 Z" fill="#000000" fill-rule="nonzero" fill-opacity="1" /><path clip-path="url(#clip610)" d="M1818.46 1277.76 L1948.89 1277.76 L1948.89 1236.29 L1818.46 1236.29 L1818.46 1277.76  Z" fill="#d7a1ff" fill-rule="evenodd" fill-opacity="0.45"/>
<polyline clip-path="url(#clip610)" style="stroke:#d7a1ff; stroke-linecap:round; stroke-linejoin:round; stroke-width:4; stroke-opacity:1; fill:none" points="1818.46,1236.29 1948.89,1236.29 "/>
<path clip-path="url(#clip610)" d="M1982.57 1242.82 Q1978.96 1242.82 1977.13 1246.39 Q1975.32 1249.93 1975.32 1257.06 Q1975.32 1264.17 1977.13 1267.73 Q1978.96 1271.27 1982.57 1271.27 Q1986.2 1271.27 1988.01 1267.73 Q1989.84 1264.17 1989.84 1257.06 Q1989.84 1249.93 1988.01 1246.39 Q1986.2 1242.82 1982.57 1242.82 M1982.57 1239.12 Q1988.38 1239.12 1991.43 1243.73 Q1994.51 1248.31 1994.51 1257.06 Q1994.51 1265.79 1991.43 1270.39 Q1988.38 1274.98 1982.57 1274.98 Q1976.76 1274.98 1973.68 1270.39 Q1970.62 1265.79 1970.62 1257.06 Q1970.62 1248.31 1973.68 1243.73 Q1976.76 1239.12 1982.57 1239.12 Z" fill="#000000" fill-rule="nonzero" fill-opacity="1" /><path clip-path="url(#clip610)" d="M2002.73 1268.42 L2007.61 1268.42 L2007.61 1274.3 L2002.73 1274.3 L2002.73 1268.42 Z" fill="#000000" fill-rule="nonzero" fill-opacity="1" /><path clip-path="url(#clip610)" d="M2027.8 1242.82 Q2024.19 1242.82 2022.36 1246.39 Q2020.55 1249.93 2020.55 1257.06 Q2020.55 1264.17 2022.36 1267.73 Q2024.19 1271.27 2027.8 1271.27 Q2031.43 1271.27 2033.24 1267.73 Q2035.07 1264.17 2035.07 1257.06 Q2035.07 1249.93 2033.24 1246.39 Q2031.43 1242.82 2027.8 1242.82 M2027.8 1239.12 Q2033.61 1239.12 2036.66 1243.73 Q2039.74 1248.31 2039.74 1257.06 Q2039.74 1265.79 2036.66 1270.39 Q2033.61 1274.98 2027.8 1274.98 Q2021.99 1274.98 2018.91 1270.39 Q2015.85 1265.79 2015.85 1257.06 Q2015.85 1248.31 2018.91 1243.73 Q2021.99 1239.12 2027.8 1239.12 Z" fill="#000000" fill-rule="nonzero" fill-opacity="1" /><path clip-path="url(#clip610)" d="M2057.96 1242.82 Q2054.35 1242.82 2052.52 1246.39 Q2050.71 1249.93 2050.71 1257.06 Q2050.71 1264.17 2052.52 1267.73 Q2054.35 1271.27 2057.96 1271.27 Q2061.59 1271.27 2063.4 1267.73 Q2065.23 1264.17 2065.23 1257.06 Q2065.23 1249.93 2063.4 1246.39 Q2061.59 1242.82 2057.96 1242.82 M2057.96 1239.12 Q2063.77 1239.12 2066.83 1243.73 Q2069.9 1248.31 2069.9 1257.06 Q2069.9 1265.79 2066.83 1270.39 Q2063.77 1274.98 2057.96 1274.98 Q2052.15 1274.98 2049.07 1270.39 Q2046.02 1265.79 2046.02 1257.06 Q2046.02 1248.31 2049.07 1243.73 Q2052.15 1239.12 2057.96 1239.12 Z" fill="#000000" fill-rule="nonzero" fill-opacity="1" /><path clip-path="url(#clip610)" d="M2082.15 1270.37 L2098.47 1270.37 L2098.47 1274.3 L2076.52 1274.3 L2076.52 1270.37 Q2079.19 1267.61 2083.77 1262.98 Q2088.38 1258.33 2089.56 1256.99 Q2091.8 1254.47 2092.68 1252.73 Q2093.58 1250.97 2093.58 1249.28 Q2093.58 1246.53 2091.64 1244.79 Q2089.72 1243.05 2086.62 1243.05 Q2084.42 1243.05 2081.96 1243.82 Q2079.53 1244.58 2076.76 1246.13 L2076.76 1241.41 Q2079.58 1240.28 2082.03 1239.7 Q2084.49 1239.12 2086.52 1239.12 Q2091.89 1239.12 2095.09 1241.8 Q2098.28 1244.49 2098.28 1248.98 Q2098.28 1251.11 2097.47 1253.03 Q2096.69 1254.93 2094.58 1257.52 Q2094 1258.19 2090.9 1261.41 Q2087.8 1264.61 2082.15 1270.37 Z" fill="#000000" fill-rule="nonzero" fill-opacity="1" /></svg>
