<svg class="main-svg" xmlns="http://www.w3.org/2000/svg" xmlns:xlink="http://www.w3.org/1999/xlink" width="700" height="500" style="" viewBox="0 0 700 500"><rect x="0" y="0" width="700" height="500" style="fill: rgb(255, 255, 255); fill-opacity: 1;"/><defs id="defs-0c2835"><g class="clips"><clipPath id="clip0c2835xyplot" class="plotclip"><rect width="501" height="360"/></clipPath><clipPath class="axesclip" id="clip0c2835x"><rect x="88" y="0" width="501" height="500"/></clipPath><clipPath class="axesclip" id="clip0c2835y"><rect x="0" y="60" width="700" height="360"/></clipPath><clipPath class="axesclip" id="clip0c2835xy"><rect x="88" y="60" width="501" height="360"/></clipPath></g><g class="gradients"/></defs><g class="bglayer"/><g class="layer-below"><g class="imagelayer"/><g class="shapelayer"/></g><g class="cartesianlayer"><g class="subplot xy"><g class="layer-subplot"><g class="shapelayer"/><g class="imagelayer"/></g><g class="gridlayer"><g class="x"/><g class="y"/></g><g class="zerolinelayer"><path class="yzl zl crisp" transform="translate(0,402)" d="M88,0h501" style="stroke: rgb(255, 255, 255); stroke-opacity: 1; stroke-width: 2px;"/></g><path class="xlines-below"/><path class="ylines-below"/><g class="overlines-below"/><g class="xaxislayer-below"/><g class="yaxislayer-below"/><g class="overaxes-below"/><g class="plot" transform="translate(88,60)" clip-path="url('#clip0c2835xyplot')"><g class="scatterlayer mlayer"><g class="trace scatter tracef08a5c" style="stroke-miterlimit: 2; opacity: 1;"><g class="fills"/><g class="errorbars"/><g class="lines"><path class="js-line" d="M501,342L0,342" style="vector-effect: non-scaling-stroke; fill: none; stroke: rgb(182, 147, 204); stroke-opacity: 1; stroke-width: 5px; opacity: 1;"/></g><g class="points"/><g class="text"/></g><g class="trace scatter tracec05bf3" style="stroke-miterlimit: 2; opacity: 1;"><g class="fills"/><g class="errorbars"/><g class="lines"><path class="js-line" d="M0,317.5L1.14,113.77L1.38,101.61L3.21,75.18L3.44,74.7L5.47,73.59L5.69,73.59L16.18,75.28L16.41,75.32L52.01,82.77L52.26,82.83L101.36,95.13L101.62,95.2L163.28,113.08L163.54,113.17L204.66,126.65L204.93,126.74L254.02,145.05L254.28,145.16L278.21,155.35L278.47,155.47L308.46,170.14L308.72,170.28L328.88,182.13L329.15,182.3L346.9,195.37L347.17,195.6L358,206.38L358.27,206.69L365.08,216.88L365.34,217.41L368.32,226.43L368.53,227.82L368.74,231.27" style="vector-effect: non-scaling-stroke; fill: none; stroke: rgb(182, 147, 204); stroke-opacity: 1; stroke-width: 5px; opacity: 1;"/></g><g class="points"/><g class="text"/></g><g class="trace scatter trace7e4c46" style="stroke-miterlimit: 2; opacity: 1;"><g class="fills"/><g class="errorbars"/><g class="lines"><path class="js-line" d="M368.74,231.27L367.31,239.9L367.06,240.61L362.7,248.86L362.44,249.22L354.85,257.65L354.58,257.89L343.77,266.2L343.51,266.37L327.91,275.3L327.65,275.43L308.59,283.93L308.32,284.04L286.33,292L286.06,292.09L258.23,300.42L257.97,300.49L203.87,313.29L203.6,313.35L127.76,326.78L127.49,326.82L50.62,336.96L50.36,336.99L0,342" style="vector-effect: non-scaling-stroke; fill: none; stroke: rgb(182, 147, 204); stroke-opacity: 1; stroke-width: 5px; opacity: 1; stroke-dasharray: 15px, 15px;"/></g><g class="points"/><g class="text"/></g><g class="trace scatter tracec5d8fe" style="stroke-miterlimit: 2; opacity: 1;"><g class="fills"/><g class="errorbars"/><g class="lines"><path class="js-line" d="M501,342L0,342" style="vector-effect: non-scaling-stroke; fill: none; stroke: rgb(76, 167, 162); stroke-opacity: 1; stroke-width: 5px; opacity: 1;"/></g><g class="points"/><g class="text"/></g><g class="trace scatter tracee6ed71" style="stroke-miterlimit: 2; opacity: 1;"><g class="fills"/><g class="errorbars"/><g class="lines"><path class="js-line" d="M0,334.2L270.73,335.45L270.99,335.46L365.59,336.71L365.85,336.72L368.74,337" style="vector-effect: non-scaling-stroke; fill: none; stroke: rgb(76, 167, 162); stroke-opacity: 1; stroke-width: 5px; opacity: 1;"/></g><g class="points"/><g class="text"/></g><g class="trace scatter traceb1b242" style="stroke-miterlimit: 2; opacity: 1;"><g class="fills"/><g class="errorbars"/><g class="lines"><path class="js-line" d="M368.74,337L363.74,337.38L363.48,337.39L303.82,338.44L303.55,338.44L258.23,338.94L257.97,338.94L122.72,340.19L122.45,340.2L15.2,341.45L14.94,341.46L0,342" style="vector-effect: non-scaling-stroke; fill: none; stroke: rgb(76, 167, 162); stroke-opacity: 1; stroke-width: 5px; opacity: 1; stroke-dasharray: 15px, 15px;"/></g><g class="points"/><g class="text"/></g><g class="trace scatter trace45a1ef" style="stroke-miterlimit: 2; opacity: 1;"><g class="fills"/><g class="errorbars"/><g class="lines"><path class="js-line" d="M501,342L0,342" style="vector-effect: non-scaling-stroke; fill: none; stroke: rgb(228, 128, 128); stroke-opacity: 1; stroke-width: 5px; opacity: 1;"/></g><g class="points"/><g class="text"/></g><g class="trace scatter trace68c111" style="stroke-miterlimit: 2; opacity: 1;"><g class="fills"/><g class="errorbars"/><g class="lines"><path class="js-line" d="M0,312.42L1.14,66.51L1.38,51.83L3.21,19.92L3.44,19.34L5.47,18L5.69,18L15.49,19.88L15.72,19.93L67.73,33.58L67.99,33.65L151.89,61.45L152.15,61.55L181.08,72.51L181.34,72.62L214.73,86.31L214.99,86.42L267.55,111.05L267.81,111.19L300.5,129.52L300.76,129.68L327.56,147.99L327.82,148.19L345.05,163.13L345.31,163.39L356.68,176.45L356.95,176.81L364.04,188.62L364.3,189.19L367.86,199.87L368.1,201.1L368.74,208.34" style="vector-effect: non-scaling-stroke; fill: none; stroke: rgb(228, 128, 128); stroke-opacity: 1; stroke-width: 5px; opacity: 1;"/></g><g class="points"/><g class="text"/></g><g class="trace scatter tracefc80bb" style="stroke-miterlimit: 2; opacity: 1;"><g class="fills"/><g class="errorbars"/><g class="lines"><path class="js-line" d="M368.74,208.34L367.31,218.75L367.06,219.61L362.7,229.56L362.44,230.01L354.85,240.18L354.58,240.47L344.3,250.07L344.04,250.29L326.85,262.12L326.59,262.28L305.41,273.42L305.14,273.54L285.53,281.96L285.27,282.07L241.53,297.06L241.26,297.14L203.87,307.35L203.6,307.41L169.13,315.4L168.86,315.45L128.29,323.53L128.02,323.58L14.41,340.49L14.15,340.52L0,342" style="vector-effect: non-scaling-stroke; fill: none; stroke: rgb(228, 128, 128); stroke-opacity: 1; stroke-width: 5px; opacity: 1; stroke-dasharray: 15px, 15px;"/></g><g class="points"/><g class="text"/></g></g></g><g class="overplot"/><path class="xlines-above crisp" d="M85,421.5H589" style="fill: none; stroke-width: 3px; stroke: rgb(0, 0, 0); stroke-opacity: 1;"/><path class="ylines-above crisp" d="M86.5,60V420" style="fill: none; stroke-width: 3px; stroke: rgb(0, 0, 0); stroke-opacity: 1;"/><g class="overlines-above"/><g class="xaxislayer-above"><g class="xtick"><text text-anchor="middle" x="0" y="449.4" transform="translate(88,0)" style="font-family: sans-serif; font-size: 22px; fill: rgb(0, 0, 0); fill-opacity: 1; white-space: pre;">0</text></g><g class="xtick"><text text-anchor="middle" x="0" y="449.4" transform="translate(213.25,0)" style="font-family: sans-serif; font-size: 22px; fill: rgb(0, 0, 0); fill-opacity: 1; white-space: pre;">100</text></g><g class="xtick"><text text-anchor="middle" x="0" y="449.4" transform="translate(338.5,0)" style="font-family: sans-serif; font-size: 22px; fill: rgb(0, 0, 0); fill-opacity: 1; white-space: pre;">200</text></g><g class="xtick"><text text-anchor="middle" x="0" y="449.4" transform="translate(463.75,0)" style="font-family: sans-serif; font-size: 22px; fill: rgb(0, 0, 0); fill-opacity: 1; white-space: pre;">300</text></g><g class="xtick"><text text-anchor="middle" x="0" y="449.4" transform="translate(589,0)" style="font-family: sans-serif; font-size: 22px; fill: rgb(0, 0, 0); fill-opacity: 1; white-space: pre;">400</text></g></g><g class="yaxislayer-above"><g class="ytick"><text text-anchor="end" x="80.6" y="7.699999999999999" transform="translate(0,402)" style="font-family: sans-serif; font-size: 22px; fill: rgb(0, 0, 0); fill-opacity: 1; white-space: pre;">0</text></g><g class="ytick"><text text-anchor="end" x="80.6" y="7.699999999999999" transform="translate(0,365.35)" style="font-family: sans-serif; font-size: 22px; fill: rgb(0, 0, 0); fill-opacity: 1; white-space: pre;">0.1</text></g><g class="ytick"><text text-anchor="end" x="80.6" y="7.699999999999999" transform="translate(0,328.7)" style="font-family: sans-serif; font-size: 22px; fill: rgb(0, 0, 0); fill-opacity: 1; white-space: pre;">0.2</text></g><g class="ytick"><text text-anchor="end" x="80.6" y="7.699999999999999" transform="translate(0,292.06)" style="font-family: sans-serif; font-size: 22px; fill: rgb(0, 0, 0); fill-opacity: 1; white-space: pre;">0.3</text></g><g class="ytick"><text text-anchor="end" x="80.6" y="7.699999999999999" transform="translate(0,255.41)" style="font-family: sans-serif; font-size: 22px; fill: rgb(0, 0, 0); fill-opacity: 1; white-space: pre;">0.4</text></g><g class="ytick"><text text-anchor="end" x="80.6" y="7.699999999999999" transform="translate(0,218.76)" style="font-family: sans-serif; font-size: 22px; fill: rgb(0, 0, 0); fill-opacity: 1; white-space: pre;">0.5</text></g><g class="ytick"><text text-anchor="end" x="80.6" y="7.699999999999999" transform="translate(0,182.11)" style="font-family: sans-serif; font-size: 22px; fill: rgb(0, 0, 0); fill-opacity: 1; white-space: pre;">0.6</text></g><g class="ytick"><text text-anchor="end" x="80.6" y="7.699999999999999" transform="translate(0,145.47)" style="font-family: sans-serif; font-size: 22px; fill: rgb(0, 0, 0); fill-opacity: 1; white-space: pre;">0.7</text></g><g class="ytick"><text text-anchor="end" x="80.6" y="7.699999999999999" transform="translate(0,108.82)" style="font-family: sans-serif; font-size: 22px; fill: rgb(0, 0, 0); fill-opacity: 1; white-space: pre;">0.8</text></g><g class="ytick"><text text-anchor="end" x="80.6" y="7.699999999999999" transform="translate(0,72.17)" style="font-family: sans-serif; font-size: 22px; fill: rgb(0, 0, 0); fill-opacity: 1; white-space: pre;">0.9</text></g></g><g class="overaxes-above"/></g></g><g class="polarlayer"/><g class="ternarylayer"/><g class="geolayer"/><g class="funnelarealayer"/><g class="pielayer"/><g class="treemaplayer"/><g class="sunburstlayer"/><g class="glimages"/><defs id="topdefs-0c2835"><g class="clips"/><clipPath id="legend0c2835"><rect width="89" height="125" x="0" y="0"/></clipPath></defs><g class="layer-above"><g class="imagelayer"/><g class="shapelayer"/></g><g class="infolayer"><g class="legend" pointer-events="all" transform="translate(599.02,60)"><rect class="bg" shape-rendering="crispEdges" style="stroke: rgb(68, 68, 68); stroke-opacity: 1; fill: rgb(255, 255, 255); fill-opacity: 1; stroke-width: 0px;" width="89" height="125" x="0" y="0"/><g class="scrollbox" transform="" clip-path="url('#legend0c2835')"><g class="groups" transform=""><g class="traces" transform="translate(0,20.8)" style="opacity: 1;"><text class="legendtext" text-anchor="start" x="40" y="8.58" style="font-family: sans-serif; font-size: 22px; fill: rgb(0, 0, 0); fill-opacity: 1; white-space: pre;">rtcb</text><g class="layers" style="opacity: 1;"><g class="legendfill"/><g class="legendlines"><path class="js-line" d="M5,0h30" style="fill: none; stroke: rgb(182, 147, 204); stroke-opacity: 1; stroke-width: 5px;"/></g><g class="legendsymbols"><g class="legendpoints"/></g></g><rect class="legendtoggle" x="0" y="-15.8" width="83.734375" height="31.6" style="fill: rgb(0, 0, 0); fill-opacity: 0;"/></g></g><g class="groups" transform="translate(0,10)"><g class="traces" transform="translate(0,52.400000000000006)" style="opacity: 1;"><text class="legendtext" text-anchor="start" x="40" y="8.58" style="font-family: sans-serif; font-size: 22px; fill: rgb(0, 0, 0); fill-opacity: 1; white-space: pre;">rtcr</text><g class="layers" style="opacity: 1;"><g class="legendfill"/><g class="legendlines"><path class="js-line" d="M5,0h30" style="fill: none; stroke: rgb(76, 167, 162); stroke-opacity: 1; stroke-width: 5px;"/></g><g class="legendsymbols"><g class="legendpoints"/></g></g><rect class="legendtoggle" x="0" y="-15.8" width="83.734375" height="31.6" style="fill: rgb(0, 0, 0); fill-opacity: 0;"/></g></g><g class="groups" transform="translate(0,20)"><g class="traces" transform="translate(0,84)" style="opacity: 1;"><text class="legendtext" text-anchor="start" x="40" y="8.58" style="font-family: sans-serif; font-size: 22px; fill: rgb(0, 0, 0); fill-opacity: 1; white-space: pre;">rtca</text><g class="layers" style="opacity: 1;"><g class="legendfill"/><g class="legendlines"><path class="js-line" d="M5,0h30" style="fill: none; stroke: rgb(228, 128, 128); stroke-opacity: 1; stroke-width: 5px;"/></g><g class="legendsymbols"><g class="legendpoints"/></g></g><rect class="legendtoggle" x="0" y="-15.8" width="83.734375" height="31.6" style="fill: rgb(0, 0, 0); fill-opacity: 0;"/></g></g></g><rect class="scrollbar" rx="20" ry="3" width="0" height="0" style="fill: rgb(128, 139, 164); fill-opacity: 1;" x="0" y="0"/></g><g class="g-gtitle"/><g class="g-xtitle"><text class="xtitle" x="338.5" y="487.60625" text-anchor="middle" style="font-family: sans-serif; font-size: 26px; fill: rgb(0, 0, 0); opacity: 1; font-weight: normal; white-space: pre;">Damage rate (min​<tspan style="font-size:70%" dy="-0.6em">-1</tspan><tspan dy="0.42em">​</tspan>)</text></g><g class="g-ytitle" transform="translate(11.5908203125,0)"><text class="ytitle" transform="rotate(-90,12.409374999999997,240)" x="12.409374999999997" y="240" text-anchor="middle" style="font-family: sans-serif; font-size: 26px; fill: rgb(0, 0, 0); opacity: 1; font-weight: normal; white-space: pre;">Rtc protein (μM)</text></g></g></svg>