<svg class="main-svg" xmlns="http://www.w3.org/2000/svg" xmlns:xlink="http://www.w3.org/1999/xlink" width="700" height="500" style="" viewBox="0 0 700 500"><rect x="0" y="0" width="700" height="500" style="fill: rgb(255, 255, 255); fill-opacity: 1;"/><defs id="defs-22dfc3"><g class="clips"><clipPath id="clip22dfc3xyplot" class="plotclip"><rect width="493" height="360"/></clipPath><clipPath class="axesclip" id="clip22dfc3x"><rect x="88" y="0" width="493" height="500"/></clipPath><clipPath class="axesclip" id="clip22dfc3y"><rect x="0" y="60" width="700" height="360"/></clipPath><clipPath class="axesclip" id="clip22dfc3xy"><rect x="88" y="60" width="493" height="360"/></clipPath></g><g class="gradients"/></defs><g class="bglayer"/><g class="layer-below"><g class="imagelayer"/><g class="shapelayer"/></g><g class="cartesianlayer"><g class="subplot xy"><g class="layer-subplot"><g class="shapelayer"/><g class="imagelayer"/></g><g class="gridlayer"><g class="x"/><g class="y"/></g><g class="zerolinelayer"><path class="yzl zl crisp" transform="translate(0,402)" d="M88,0h493" style="stroke: rgb(255, 255, 255); stroke-opacity: 1; stroke-width: 2px;"/></g><path class="xlines-below"/><path class="ylines-below"/><g class="overlines-below"/><g class="xaxislayer-below"/><g class="yaxislayer-below"/><g class="overaxes-below"/><g class="plot" transform="translate(88,60)" clip-path="url('#clip22dfc3xyplot')"><g class="scatterlayer mlayer"><g class="trace scatter trace6a43ca" style="stroke-miterlimit: 2; opacity: 1;"><g class="fills"/><g class="errorbars"/><g class="lines"><path class="js-line" d="M493,342L0,342" style="vector-effect: non-scaling-stroke; fill: none; stroke: rgb(182, 147, 204); stroke-opacity: 1; stroke-width: 5px; opacity: 1;"/></g><g class="points"/><g class="text"/></g><g class="trace scatter trace553097" style="stroke-miterlimit: 2; opacity: 1;"><g class="fills"/><g class="errorbars"/><g class="lines"><path class="js-line" d="M0,340.75L0.68,328.26L1.21,328.28L1.27,328.28L34.13,331.7L34.37,331.74L50.89,335.38L51.05,335.48L51.76,336.34" style="vector-effect: non-scaling-stroke; fill: none; stroke: rgb(182, 147, 204); stroke-opacity: 1; stroke-width: 5px; opacity: 1;"/></g><g class="points"/><g class="text"/></g><g class="trace scatter trace27239a" style="stroke-miterlimit: 2; opacity: 1;"><g class="fills"/><g class="errorbars"/><g class="lines"><path class="js-line" d="M51.76,336.34L50.24,337.54L50.06,337.61L40.97,339.36L40.74,339.39L7.01,341.76L6.78,341.77L0.46,342L44.87,338.8L45.1,338.76L51.75,336.44L51.76,336.34L50.21,335.05L50.01,334.96L40.04,332.62L39.79,332.57L9.88,328.95L9.77,328.94L0.22,329.3L0.15,330.45L0,340.75" style="vector-effect: non-scaling-stroke; fill: none; stroke: rgb(182, 147, 204); stroke-opacity: 1; stroke-width: 5px; opacity: 1; stroke-dasharray: 15px, 15px;"/></g><g class="points"/><g class="text"/></g><g class="trace scatter tracee2b9dc" style="stroke-miterlimit: 2; opacity: 1;"><g class="fills"/><g class="errorbars"/><g class="lines"><path class="js-line" d="M493,342L0,342" style="vector-effect: non-scaling-stroke; fill: none; stroke: rgb(76, 167, 162); stroke-opacity: 1; stroke-width: 5px; opacity: 1;"/></g><g class="points"/><g class="text"/></g><g class="trace scatter trace426742" style="stroke-miterlimit: 2; opacity: 1;"><g class="fills"/><g class="errorbars"/><g class="lines"><path class="js-line" d="M0,333.53L1.13,262.07L1.36,258.08L3.14,249.71L3.36,249.57L7.09,249.31L7.31,249.32L91.66,256.29L91.91,256.32L138.91,261.18L139.17,261.21L242.89,274.37L243.15,274.41L301.06,284.57L301.32,284.63L333.65,293.29L333.91,293.39L345.52,299.18L345.78,299.38L348.34,302.9L348.44,303.64" style="vector-effect: non-scaling-stroke; fill: none; stroke: rgb(76, 167, 162); stroke-opacity: 1; stroke-width: 5px; opacity: 1;"/></g><g class="points"/><g class="text"/></g><g class="trace scatter tracef096dc" style="stroke-miterlimit: 2; opacity: 1;"><g class="fills"/><g class="errorbars"/><g class="lines"><path class="js-line" d="M348.44,303.8L346.79,307.03L346.55,307.26L341.23,310.55L340.97,310.67L330.64,314.29L330.38,314.36L313.49,318.27L313.23,318.32L278.33,323.76L278.07,323.79L203.21,331.26L202.94,331.28L104.58,337.61L104.31,337.62L61.02,339.7L60.76,339.71L0,342" style="vector-effect: non-scaling-stroke; fill: none; stroke: rgb(76, 167, 162); stroke-opacity: 1; stroke-width: 5px; opacity: 1; stroke-dasharray: 15px, 15px;"/></g><g class="points"/><g class="text"/></g><g class="trace scatter traceed0bdd" style="stroke-miterlimit: 2; opacity: 1;"><g class="fills"/><g class="errorbars"/><g class="lines"><path class="js-line" d="M0,312.5L1.97,72.8L2.47,54.5L4.93,22.81L5.43,21.28L7.9,18.51L8.39,18.35L14.8,18.03L15.3,18.04L175.68,25.73L176.18,25.76L426.87,42.3L427.37,42.34L493,47.11" style="vector-effect: non-scaling-stroke; fill: none; stroke: rgb(221, 160, 221); stroke-opacity: 1; stroke-width: 5px; opacity: 1;"/></g><g class="points"/><g class="text"/></g></g></g><g class="overplot"/><path class="xlines-above crisp" d="M85,421.5H581" style="fill: none; stroke-width: 3px; stroke: rgb(0, 0, 0); stroke-opacity: 1;"/><path class="ylines-above crisp" d="M86.5,60V420" style="fill: none; stroke-width: 3px; stroke: rgb(0, 0, 0); stroke-opacity: 1;"/><g class="overlines-above"/><g class="xaxislayer-above"><g class="xtick"><text text-anchor="middle" x="0" y="449.4" transform="translate(88,0)" style="font-family: sans-serif; font-size: 22px; fill: rgb(0, 0, 0); fill-opacity: 1; white-space: pre;">0</text></g><g class="xtick"><text text-anchor="middle" x="0" y="449.4" transform="translate(211.25,0)" style="font-family: sans-serif; font-size: 22px; fill: rgb(0, 0, 0); fill-opacity: 1; white-space: pre;">100</text></g><g class="xtick"><text text-anchor="middle" x="0" y="449.4" transform="translate(334.5,0)" style="font-family: sans-serif; font-size: 22px; fill: rgb(0, 0, 0); fill-opacity: 1; white-space: pre;">200</text></g><g class="xtick"><text text-anchor="middle" x="0" y="449.4" transform="translate(457.75,0)" style="font-family: sans-serif; font-size: 22px; fill: rgb(0, 0, 0); fill-opacity: 1; white-space: pre;">300</text></g><g class="xtick"><text text-anchor="middle" x="0" y="449.4" transform="translate(581,0)" style="font-family: sans-serif; font-size: 22px; fill: rgb(0, 0, 0); fill-opacity: 1; white-space: pre;">400</text></g></g><g class="yaxislayer-above"><g class="ytick"><text text-anchor="end" x="80.6" y="7.699999999999999" transform="translate(0,402)" style="font-family: sans-serif; font-size: 22px; fill: rgb(0, 0, 0); fill-opacity: 1; white-space: pre;">0</text></g><g class="ytick"><text text-anchor="end" x="80.6" y="7.699999999999999" transform="translate(0,336.06)" style="font-family: sans-serif; font-size: 22px; fill: rgb(0, 0, 0); fill-opacity: 1; white-space: pre;">0.5</text></g><g class="ytick"><text text-anchor="end" x="80.6" y="7.699999999999999" transform="translate(0,270.13)" style="font-family: sans-serif; font-size: 22px; fill: rgb(0, 0, 0); fill-opacity: 1; white-space: pre;">1</text></g><g class="ytick"><text text-anchor="end" x="80.6" y="7.699999999999999" transform="translate(0,204.19)" style="font-family: sans-serif; font-size: 22px; fill: rgb(0, 0, 0); fill-opacity: 1; white-space: pre;">1.5</text></g><g class="ytick"><text text-anchor="end" x="80.6" y="7.699999999999999" transform="translate(0,138.25)" style="font-family: sans-serif; font-size: 22px; fill: rgb(0, 0, 0); fill-opacity: 1; white-space: pre;">2</text></g><g class="ytick"><text text-anchor="end" x="80.6" y="7.699999999999999" transform="translate(0,72.31)" style="font-family: sans-serif; font-size: 22px; fill: rgb(0, 0, 0); fill-opacity: 1; white-space: pre;">2.5</text></g></g><g class="overaxes-above"/></g></g><g class="polarlayer"/><g class="ternarylayer"/><g class="geolayer"/><g class="funnelarealayer"/><g class="pielayer"/><g class="treemaplayer"/><g class="sunburstlayer"/><g class="glimages"/><defs id="topdefs-22dfc3"><g class="clips"/><clipPath id="legend22dfc3"><rect width="97" height="125" x="0" y="0"/></clipPath></defs><g class="layer-above"><g class="imagelayer"/><g class="shapelayer"/></g><g class="infolayer"><g class="legend" pointer-events="all" transform="translate(590.86,60)"><rect class="bg" shape-rendering="crispEdges" width="97" height="125" x="0" y="0" style="stroke: rgb(68, 68, 68); stroke-opacity: 1; fill: rgb(255, 255, 255); fill-opacity: 1; stroke-width: 0px;"/><g class="scrollbox" transform="" clip-path="url('#legend22dfc3')"><g class="groups" transform=""><g class="traces" transform="translate(0,20.8)" style="opacity: 1;"><text class="legendtext" text-anchor="start" x="40" y="8.58" style="font-family: sans-serif; font-size: 22px; fill: rgb(0, 0, 0); fill-opacity: 1; white-space: pre;">rtcb</text><g class="layers" style="opacity: 1;"><g class="legendfill"/><g class="legendlines"><path class="js-line" d="M5,0h30" style="fill: none; stroke: rgb(182, 147, 204); stroke-opacity: 1; stroke-width: 5px;"/></g><g class="legendsymbols"><g class="legendpoints"/></g></g><rect class="legendtoggle" x="0" y="-15.8" width="91.109375" height="31.6" style="fill: rgb(0, 0, 0); fill-opacity: 0;"/></g></g><g class="groups" transform="translate(0,10)"><g class="traces" transform="translate(0,52.400000000000006)" style="opacity: 1;"><text class="legendtext" text-anchor="start" x="40" y="8.58" style="font-family: sans-serif; font-size: 22px; fill: rgb(0, 0, 0); fill-opacity: 1; white-space: pre;">rtcb</text><g class="layers" style="opacity: 1;"><g class="legendfill"/><g class="legendlines"><path class="js-line" d="M5,0h30" style="fill: none; stroke: rgb(76, 167, 162); stroke-opacity: 1; stroke-width: 5px;"/></g><g class="legendsymbols"><g class="legendpoints"/></g></g><rect class="legendtoggle" x="0" y="-15.8" width="91.109375" height="31.6" style="fill: rgb(0, 0, 0); fill-opacity: 0;"/></g></g><g class="groups" transform="translate(0,20)"><g class="traces" transform="translate(0,84)" style="opacity: 1;"><text class="legendtext" text-anchor="start" x="40" y="8.58" style="font-family: sans-serif; font-size: 22px; fill: rgb(0, 0, 0); fill-opacity: 1; white-space: pre;">RtcB</text><g class="layers" style="opacity: 1;"><g class="legendfill"/><g class="legendlines"><path class="js-line" d="M5,0h30" style="fill: none; stroke: rgb(221, 160, 221); stroke-opacity: 1; stroke-width: 5px;"/></g><g class="legendsymbols"><g class="legendpoints"/></g></g><rect class="legendtoggle" x="0" y="-15.8" width="91.109375" height="31.6" style="fill: rgb(0, 0, 0); fill-opacity: 0;"/></g></g></g><rect class="scrollbar" rx="20" ry="3" width="0" height="0" x="0" y="0" style="fill: rgb(128, 139, 164); fill-opacity: 1;"/></g><g class="g-gtitle"/><g class="g-xtitle"><text class="xtitle" x="334.5" y="487.60625" text-anchor="middle" style="font-family: sans-serif; font-size: 26px; fill: rgb(0, 0, 0); opacity: 1; font-weight: normal; white-space: pre;">Damage rate (min​<tspan style="font-size:70%" dy="-0.6em">-1</tspan><tspan dy="0.42em">​</tspan>)</text></g><g class="g-ytitle" transform="translate(11.5908203125,0)"><text class="ytitle" transform="rotate(-90,12.409374999999997,240)" x="12.409374999999997" y="240" text-anchor="middle" style="font-family: sans-serif; font-size: 26px; fill: rgb(0, 0, 0); opacity: 1; font-weight: normal; white-space: pre;">RtcB (μM)</text></g></g></svg>