<svg class="main-svg" xmlns="http://www.w3.org/2000/svg" xmlns:xlink="http://www.w3.org/1999/xlink" width="700" height="500" style="" viewBox="0 0 700 500"><rect x="0" y="0" width="700" height="500" style="fill: rgb(255, 255, 255); fill-opacity: 1;"/><defs id="defs-dc4cbe"><g class="clips"><clipPath id="clipdc4cbexyplot" class="plotclip"><rect width="501" height="360"/></clipPath><clipPath class="axesclip" id="clipdc4cbex"><rect x="88" y="0" width="501" height="500"/></clipPath><clipPath class="axesclip" id="clipdc4cbey"><rect x="0" y="60" width="700" height="360"/></clipPath><clipPath class="axesclip" id="clipdc4cbexy"><rect x="88" y="60" width="501" height="360"/></clipPath></g><g class="gradients"/></defs><g class="bglayer"/><g class="layer-below"><g class="imagelayer"/><g class="shapelayer"/></g><g class="cartesianlayer"><g class="subplot xy"><g class="layer-subplot"><g class="shapelayer"/><g class="imagelayer"/></g><g class="gridlayer"><g class="x"/><g class="y"/></g><g class="zerolinelayer"><path class="yzl zl crisp" transform="translate(0,402)" d="M88,0h501" style="stroke: rgb(255, 255, 255); stroke-opacity: 1; stroke-width: 2px;"/></g><path class="xlines-below"/><path class="ylines-below"/><g class="overlines-below"/><g class="xaxislayer-below"/><g class="yaxislayer-below"/><g class="overaxes-below"/><g class="plot" transform="translate(88,60)" clip-path="url('#clipdc4cbexyplot')"><g class="scatterlayer mlayer"><g class="trace scatter trace9a7884" style="stroke-miterlimit: 2; opacity: 1;"><g class="fills"/><g class="errorbars"/><g class="lines"><path class="js-line" d="M501,342L0,342" style="vector-effect: non-scaling-stroke; fill: none; stroke: rgb(182, 147, 204); stroke-opacity: 1; stroke-width: 5px; opacity: 1;"/></g><g class="points"/><g class="text"/></g><g class="trace scatter traceadbe8f" style="stroke-miterlimit: 2; opacity: 1;"><g class="fills"/><g class="errorbars"/><g class="lines"><path class="js-line" d="M0,339.04L0.5,309.6L1.25,309.72L1.28,309.73L16.18,314.3L16.29,314.34L30.82,321.19L30.98,321.29L36.27,326.17L36.36,326.33L37.03,328.67" style="vector-effect: non-scaling-stroke; fill: none; stroke: rgb(182, 147, 204); stroke-opacity: 1; stroke-width: 5px; opacity: 1;"/></g><g class="points"/><g class="text"/></g><g class="trace scatter traceb48d87" style="stroke-miterlimit: 2; opacity: 1;"><g class="fills"/><g class="errorbars"/><g class="lines"><path class="js-line" d="M37.03,328.67L35.63,331.86L35.53,331.97L30.88,335.09L30.74,335.16L20.42,338.6L20.27,338.63L4.77,341.48L4.64,341.5L0.47,342L20.25,338.64L20.4,338.6L31.28,334.9L31.42,334.83L36.35,330.91L36.43,330.78L36.85,327.47L36.8,327.3L34.13,323.66L33.99,323.53L26.69,318.84L26.53,318.76L12.85,313.1L12.76,313.07L0.32,309.78L0.27,310.05L0.24,310.31L0.02,328.97L0,339.04" style="vector-effect: non-scaling-stroke; fill: none; stroke: rgb(182, 147, 204); stroke-opacity: 1; stroke-width: 5px; opacity: 1; stroke-dasharray: 15px, 15px;"/></g><g class="points"/><g class="text"/></g><g class="trace scatter trace83c32f" style="stroke-miterlimit: 2; opacity: 1;"><g class="fills"/><g class="errorbars"/><g class="lines"><path class="js-line" d="M501,342L0,342" style="vector-effect: non-scaling-stroke; fill: none; stroke: rgb(76, 167, 162); stroke-opacity: 1; stroke-width: 5px; opacity: 1;"/></g><g class="points"/><g class="text"/></g><g class="trace scatter trace923a63" style="stroke-miterlimit: 2; opacity: 1;"><g class="fills"/><g class="errorbars"/><g class="lines"><path class="js-line" d="M0,325.73L1.22,168.82L1.34,167.37L2.99,163.8L3.1,163.8L11.45,165.5L11.58,165.53L46.81,175.26L46.96,175.31L73.21,183.99L73.38,184.05L115.3,200.17L115.47,200.24L149.25,216.06L149.43,216.15L170.24,228.25L170.41,228.37L184.86,239.06L185.03,239.21L195.01,249.35L195.18,249.57L200.32,257.71L200.49,258.08L202.72,265.78L202.8,266.61L202.88,268.47" style="vector-effect: non-scaling-stroke; fill: none; stroke: rgb(76, 167, 162); stroke-opacity: 1; stroke-width: 5px; opacity: 1;"/></g><g class="points"/><g class="text"/></g><g class="trace scatter traced70d26" style="stroke-miterlimit: 2; opacity: 1;"><g class="fills"/><g class="errorbars"/><g class="lines"><path class="js-line" d="M202.88,268.47L201.51,276.05L201.36,276.46L197.06,283.86L196.89,284.08L189.14,291.71L188.96,291.84L177.45,299.48L177.28,299.58L157.99,308.65L157.81,308.72L133.37,317.16L133.19,317.22L93.58,327.28L93.41,327.32L37.46,337.32L37.29,337.34L6.59,341.34L6.42,341.36L0.47,342L58.56,333.99L58.74,333.96L103.98,324.94L104.15,324.9L133.73,317.05L133.9,317L162.91,306.61L163.08,306.53L180.43,297.74L180.6,297.63L191.74,289.5L191.91,289.34L198.92,281.24L199.08,280.97L202.25,273.65L202.38,273.07L202.72,265.79L202.61,265.02L200.16,257.37L199.99,257.02L194.14,248.29L193.97,248.08L183.98,238.32L183.8,238.17L168.65,227.23L168.48,227.12L147.14,214.96L146.96,214.87L125.13,204.43L124.95,204.36L94.36,191.74L94.18,191.68L67.13,181.89L66.96,181.83L16.57,166.73L16.43,166.7L1.93,164.45L1.81,164.72L1.1,170.87L0.97,173.85L0.22,244L0.11,271.49L0,325.73" style="vector-effect: non-scaling-stroke; fill: none; stroke: rgb(76, 167, 162); stroke-opacity: 1; stroke-width: 5px; opacity: 1; stroke-dasharray: 15px, 15px;"/></g><g class="points"/><g class="text"/></g><g class="trace scatter trace35e413" style="stroke-miterlimit: 2; opacity: 1;"><g class="fills"/><g class="errorbars"/><g class="lines"><path class="js-line" d="M501,342L0,342" style="vector-effect: non-scaling-stroke; fill: none; stroke: rgb(228, 128, 128); stroke-opacity: 1; stroke-width: 5px; opacity: 1;"/></g><g class="points"/><g class="text"/></g><g class="trace scatter trace03c874" style="stroke-miterlimit: 2; opacity: 1;"><g class="fills"/><g class="errorbars"/><g class="lines"><path class="js-line" d="M0,312.42L1.19,62.9L1.35,53.3L3.18,20.01L3.33,19.58L5.29,18.01L5.44,18L12.55,19.24L12.71,19.27L63.21,32.26L63.38,32.31L95.41,42.08L95.58,42.14L156.41,63.11L156.59,63.18L210.81,84.64L210.98,84.71L249.98,102.3L250.16,102.39L288.08,122.18L288.26,122.28L315.7,139.38L315.87,139.5L333.56,152.77L333.73,152.92L347.33,165.45L347.51,165.63L358.43,178.91L358.61,179.17L365.41,191.79L365.58,192.23L368.24,201.95L368.38,202.95L368.74,208.27" style="vector-effect: non-scaling-stroke; fill: none; stroke: rgb(228, 128, 128); stroke-opacity: 1; stroke-width: 5px; opacity: 1;"/></g><g class="points"/><g class="text"/></g><g class="trace scatter trace2d893b" style="stroke-miterlimit: 2; opacity: 1;"><g class="fills"/><g class="errorbars"/><g class="lines"><path class="js-line" d="M368.74,208.27L367.26,218.93L367.09,219.51L363,229.05L362.82,229.36L356.02,238.85L355.84,239.06L346.18,248.51L346.01,248.66L331.03,259.55L330.86,259.66L308.09,272.15L307.91,272.23L283.01,282.95L282.83,283.02L254.38,293.06L254.2,293.12L208.77,306.11L208.59,306.16L160.85,317.15L160.67,317.19L90.14,330.07L89.96,330.1L0.47,342L126.47,323.86L126.65,323.83L204.26,307.25L204.44,307.2L253.76,293.26L253.94,293.2L282.22,283.26L282.4,283.19L313.66,269.39L313.83,269.3L332.71,258.47L332.89,258.35L347.86,247.06L348.04,246.9L358.04,236.4L358.21,236.18L364.47,226.24L364.64,225.88L367.99,215.89L368.14,215.08L368.61,205.03L368.48,203.75L365.88,193.01L365.71,192.55L359.78,180.96L359.61,180.69L350.63,169.01L350.46,168.81L333.86,153.02L333.68,152.88L317.42,140.57L317.24,140.44L285.74,120.85L285.56,120.75L243.07,99.02L242.89,98.94L209.11,83.92L208.93,83.84L164.04,65.96L163.86,65.89L101.62,44.08L101.45,44.03L38.15,25.37L37.99,25.33L9.29,18.55L9.14,18.52L3.86,18.65L3.71,18.85L2.66,22.58L2.5,23.8L1.58,42.51L1.43,49.24L0.5,144.02L0.35,174.26L0,312.42" style="vector-effect: non-scaling-stroke; fill: none; stroke: rgb(228, 128, 128); stroke-opacity: 1; stroke-width: 5px; opacity: 1; stroke-dasharray: 15px, 15px;"/></g><g class="points"/><g class="text"/></g></g></g><g class="overplot"/><path class="xlines-above crisp" d="M85,421.5H589" style="fill: none; stroke-width: 3px; stroke: rgb(0, 0, 0); stroke-opacity: 1;"/><path class="ylines-above crisp" d="M86.5,60V420" style="fill: none; stroke-width: 3px; stroke: rgb(0, 0, 0); stroke-opacity: 1;"/><g class="overlines-above"/><g class="xaxislayer-above"><g class="xtick"><text text-anchor="middle" x="0" y="449.4" transform="translate(88,0)" style="font-family: sans-serif; font-size: 22px; fill: rgb(0, 0, 0); fill-opacity: 1; white-space: pre;">0</text></g><g class="xtick"><text text-anchor="middle" x="0" y="449.4" transform="translate(213.25,0)" style="font-family: sans-serif; font-size: 22px; fill: rgb(0, 0, 0); fill-opacity: 1; white-space: pre;">100</text></g><g class="xtick"><text text-anchor="middle" x="0" y="449.4" transform="translate(338.5,0)" style="font-family: sans-serif; font-size: 22px; fill: rgb(0, 0, 0); fill-opacity: 1; white-space: pre;">200</text></g><g class="xtick"><text text-anchor="middle" x="0" y="449.4" transform="translate(463.75,0)" style="font-family: sans-serif; font-size: 22px; fill: rgb(0, 0, 0); fill-opacity: 1; white-space: pre;">300</text></g><g class="xtick"><text text-anchor="middle" x="0" y="449.4" transform="translate(589,0)" style="font-family: sans-serif; font-size: 22px; fill: rgb(0, 0, 0); fill-opacity: 1; white-space: pre;">400</text></g></g><g class="yaxislayer-above"><g class="ytick"><text text-anchor="end" x="80.6" y="7.699999999999999" transform="translate(0,402)" style="font-family: sans-serif; font-size: 22px; fill: rgb(0, 0, 0); fill-opacity: 1; white-space: pre;">0</text></g><g class="ytick"><text text-anchor="end" x="80.6" y="7.699999999999999" transform="translate(0,357.76)" style="font-family: sans-serif; font-size: 22px; fill: rgb(0, 0, 0); fill-opacity: 1; white-space: pre;">0.1</text></g><g class="ytick"><text text-anchor="end" x="80.6" y="7.699999999999999" transform="translate(0,313.53)" style="font-family: sans-serif; font-size: 22px; fill: rgb(0, 0, 0); fill-opacity: 1; white-space: pre;">0.2</text></g><g class="ytick"><text text-anchor="end" x="80.6" y="7.699999999999999" transform="translate(0,269.28999999999996)" style="font-family: sans-serif; font-size: 22px; fill: rgb(0, 0, 0); fill-opacity: 1; white-space: pre;">0.3</text></g><g class="ytick"><text text-anchor="end" x="80.6" y="7.699999999999999" transform="translate(0,225.05)" style="font-family: sans-serif; font-size: 22px; fill: rgb(0, 0, 0); fill-opacity: 1; white-space: pre;">0.4</text></g><g class="ytick"><text text-anchor="end" x="80.6" y="7.699999999999999" transform="translate(0,180.81)" style="font-family: sans-serif; font-size: 22px; fill: rgb(0, 0, 0); fill-opacity: 1; white-space: pre;">0.5</text></g><g class="ytick"><text text-anchor="end" x="80.6" y="7.699999999999999" transform="translate(0,136.57999999999998)" style="font-family: sans-serif; font-size: 22px; fill: rgb(0, 0, 0); fill-opacity: 1; white-space: pre;">0.6</text></g><g class="ytick"><text text-anchor="end" x="80.6" y="7.699999999999999" transform="translate(0,92.34)" style="font-family: sans-serif; font-size: 22px; fill: rgb(0, 0, 0); fill-opacity: 1; white-space: pre;">0.7</text></g></g><g class="overaxes-above"/></g></g><g class="polarlayer"/><g class="ternarylayer"/><g class="geolayer"/><g class="funnelarealayer"/><g class="pielayer"/><g class="treemaplayer"/><g class="sunburstlayer"/><g class="glimages"/><defs id="topdefs-dc4cbe"><g class="clips"/><clipPath id="legenddc4cbe"><rect width="89" height="125" x="0" y="0"/></clipPath></defs><g class="layer-above"><g class="imagelayer"/><g class="shapelayer"/></g><g class="infolayer"><g class="legend" pointer-events="all" transform="translate(599.02,60)"><rect class="bg" shape-rendering="crispEdges" width="89" height="125" x="0" y="0" style="stroke: rgb(68, 68, 68); stroke-opacity: 1; fill: rgb(255, 255, 255); fill-opacity: 1; stroke-width: 0px;"/><g class="scrollbox" transform="" clip-path="url('#legenddc4cbe')"><g class="groups" transform=""><g class="traces" transform="translate(0,20.8)" style="opacity: 1;"><text class="legendtext" text-anchor="start" x="40" y="8.58" style="font-family: sans-serif; font-size: 22px; fill: rgb(0, 0, 0); fill-opacity: 1; white-space: pre;">rtcb</text><g class="layers" style="opacity: 1;"><g class="legendfill"/><g class="legendlines"><path class="js-line" d="M5,0h30" style="fill: none; stroke: rgb(182, 147, 204); stroke-opacity: 1; stroke-width: 5px;"/></g><g class="legendsymbols"><g class="legendpoints"/></g></g><rect class="legendtoggle" x="0" y="-15.8" width="83.734375" height="31.6" style="fill: rgb(0, 0, 0); fill-opacity: 0;"/></g></g><g class="groups" transform="translate(0,10)"><g class="traces" transform="translate(0,52.400000000000006)" style="opacity: 1;"><text class="legendtext" text-anchor="start" x="40" y="8.58" style="font-family: sans-serif; font-size: 22px; fill: rgb(0, 0, 0); fill-opacity: 1; white-space: pre;">rtcb</text><g class="layers" style="opacity: 1;"><g class="legendfill"/><g class="legendlines"><path class="js-line" d="M5,0h30" style="fill: none; stroke: rgb(76, 167, 162); stroke-opacity: 1; stroke-width: 5px;"/></g><g class="legendsymbols"><g class="legendpoints"/></g></g><rect class="legendtoggle" x="0" y="-15.8" width="83.734375" height="31.6" style="fill: rgb(0, 0, 0); fill-opacity: 0;"/></g></g><g class="groups" transform="translate(0,20)"><g class="traces" transform="translate(0,84)" style="opacity: 1;"><text class="legendtext" text-anchor="start" x="40" y="8.58" style="font-family: sans-serif; font-size: 22px; fill: rgb(0, 0, 0); fill-opacity: 1; white-space: pre;">rtcb</text><g class="layers" style="opacity: 1;"><g class="legendfill"/><g class="legendlines"><path class="js-line" d="M5,0h30" style="fill: none; stroke: rgb(228, 128, 128); stroke-opacity: 1; stroke-width: 5px;"/></g><g class="legendsymbols"><g class="legendpoints"/></g></g><rect class="legendtoggle" x="0" y="-15.8" width="83.734375" height="31.6" style="fill: rgb(0, 0, 0); fill-opacity: 0;"/></g></g></g><rect class="scrollbar" rx="20" ry="3" width="0" height="0" x="0" y="0" style="fill: rgb(128, 139, 164); fill-opacity: 1;"/></g><g class="g-gtitle"/><g class="g-xtitle"><text class="xtitle" x="338.5" y="487.60625" text-anchor="middle" style="font-family: sans-serif; font-size: 26px; fill: rgb(0, 0, 0); opacity: 1; font-weight: normal; white-space: pre;">Damage rate (min​<tspan style="font-size:70%" dy="-0.6em">-1</tspan><tspan dy="0.42em">​</tspan>)</text></g><g class="g-ytitle" transform="translate(11.5908203125,0)"><text class="ytitle" transform="rotate(-90,12.409374999999997,240)" x="12.409374999999997" y="240" text-anchor="middle" style="font-family: sans-serif; font-size: 26px; fill: rgb(0, 0, 0); opacity: 1; font-weight: normal; white-space: pre;">RtcB (μM)</text></g></g></svg>