<svg class="main-svg" xmlns="http://www.w3.org/2000/svg" xmlns:xlink="http://www.w3.org/1999/xlink" width="700" height="500" style="" viewBox="0 0 700 500"><rect x="0" y="0" width="700" height="500" style="fill: rgb(255, 255, 255); fill-opacity: 1;"/><defs id="defs-43fc91"><g class="clips"><clipPath id="clip43fc91xyplot" class="plotclip"><rect width="420" height="284"/></clipPath><clipPath class="axesclip" id="clip43fc91x"><rect x="180" y="0" width="420" height="500"/></clipPath><clipPath class="axesclip" id="clip43fc91y"><rect x="0" y="100" width="700" height="284"/></clipPath><clipPath class="axesclip" id="clip43fc91xy"><rect x="180" y="100" width="420" height="284"/></clipPath></g><g class="gradients"/></defs><g class="bglayer"/><g class="layer-below"><g class="imagelayer"/><g class="shapelayer"/></g><g class="cartesianlayer"><g class="subplot xy"><g class="layer-subplot"><g class="shapelayer"/><g class="imagelayer"/></g><g class="gridlayer"><g class="x"/><g class="y"/></g><g class="zerolinelayer"/><path class="xlines-below"/><path class="ylines-below"/><g class="overlines-below"/><g class="xaxislayer-below"/><g class="yaxislayer-below"/><g class="overaxes-below"/><g class="plot" transform="translate(180,100)" clip-path="url('#clip43fc91xyplot')"><g class="scatterlayer mlayer"><g class="trace scatter trace5338d9" style="stroke-miterlimit: 2; opacity: 1;"><g class="fills"/><g class="errorbars"/><g class="lines"><path class="js-line" d="M0,273.54L3.88,234.42L4.13,232.95L10.74,207.64L11.02,206.99L17.57,197.21L17.84,197L24.08,195.31L24.35,195.35L32.08,198.91L32.35,199.1L44.06,210.68L44.32,210.99L56.13,229.36L56.36,229.84L61.65,246.53L61.75,247.3L62,251.52" style="vector-effect: non-scaling-stroke; fill: none; stroke: rgb(221, 160, 221); stroke-opacity: 1; stroke-width: 9px; opacity: 1;"/></g><g class="points"/><g class="text"/></g><g class="trace scatter trace4e926c" style="stroke-miterlimit: 2; opacity: 1;"><g class="fills"/><g class="errorbars"/><g class="lines"><path class="js-line" d="M62,251.52L59.74,262.72L59.51,263.23L52.86,271.85L52.57,272.09L41.35,278.61L41.06,278.72L22.89,283.39L22.6,283.46L22.03,283.66" style="vector-effect: non-scaling-stroke; fill: none; stroke: rgb(221, 160, 221); stroke-opacity: 1; stroke-width: 9px; opacity: 1; stroke-dasharray: 27px, 27px;"/></g><g class="points"/><g class="text"/></g><g class="trace scatter trace6000e2" style="stroke-miterlimit: 2; opacity: 1;"><g class="fills"/><g class="errorbars"/><g class="lines"><path class="js-line" d="M22.03,283.66L32.64,283.95L32.93,283.95L420,284" style="vector-effect: non-scaling-stroke; fill: none; stroke: rgb(221, 160, 221); stroke-opacity: 1; stroke-width: 9px; opacity: 1;"/></g><g class="points"/><g class="text"/></g><g class="trace scatter trace639c1d" style="stroke-miterlimit: 2; opacity: 1;"><g class="fills"/><g class="errorbars"/><g class="lines"><path class="js-line" d="M0,264.89L2.14,166.05L2.34,161L7.23,94.57L7.44,93.35L12.14,80.25L12.35,80.06L17.59,78.61L17.79,78.62L31.05,82.39L31.25,82.46L56.72,94.78L56.92,94.89L88.91,116.35L89.11,116.5L122.17,144.28L122.38,144.48L147.26,170.6L147.47,170.85L164.15,194.6L164.36,194.97L172.26,214.03L172.46,214.83L173.86,226.16" style="vector-effect: non-scaling-stroke; fill: none; stroke: rgb(186, 85, 211); stroke-opacity: 1; stroke-width: 9px; opacity: 1;"/></g><g class="points"/><g class="text"/></g><g class="trace scatter tracef009db" style="stroke-miterlimit: 2; opacity: 1;"><g class="fills"/><g class="errorbars"/><g class="lines"><path class="js-line" d="M173.86,226.16L171.18,239.89L170.97,240.39L163.92,251.13L163.71,251.36L151.67,261.04L151.45,261.17L132.51,270.04L132.29,270.12L103.22,277.9L103,277.94L71.34,283.18L71.34,283.18" style="vector-effect: non-scaling-stroke; fill: none; stroke: rgb(186, 85, 211); stroke-opacity: 1; stroke-width: 9px; opacity: 1; stroke-dasharray: 27px, 27px;"/></g><g class="points"/><g class="text"/></g><g class="trace scatter trace5de848" style="stroke-miterlimit: 2; opacity: 1;"><g class="fills"/><g class="errorbars"/><g class="lines"><path class="js-line" d="M71.34,283.18L78.85,283.68L79.07,283.68L241.78,283.98L241.99,283.98L420,283.99" style="vector-effect: non-scaling-stroke; fill: none; stroke: rgb(186, 85, 211); stroke-opacity: 1; stroke-width: 9px; opacity: 1;"/></g><g class="points"/><g class="text"/></g><g class="trace scatter trace92c1cb" style="stroke-miterlimit: 2; opacity: 1;"><g class="fills"/><g class="errorbars"/><g class="lines"><path class="js-line" d="M0,261.46L2.23,36.51L2.28,36.47L7.03,36.51L7.04,36.52L16.68,40.51L16.69,40.52L81.88,76.42L82.04,76.52L145.45,115.33L145.66,115.47L195.51,150.97L195.72,151.14L229.98,181.69L230.2,181.91L248.5,204.74L248.72,205.08L256.71,222.2L256.91,222.92L258.46,233.99" style="vector-effect: non-scaling-stroke; fill: none; stroke: rgb(128, 0, 128); stroke-opacity: 1; stroke-width: 9px; opacity: 1;"/></g><g class="points"/><g class="text"/></g><g class="trace scatter trace0a16e6" style="stroke-miterlimit: 2; opacity: 1;"><g class="fills"/><g class="errorbars"/><g class="lines"><path class="js-line" d="M258.46,233.99L255.71,247.13L255.49,247.61L248.01,258.75L247.8,258.99L231.78,275.38" style="vector-effect: non-scaling-stroke; fill: none; stroke: rgb(128, 0, 128); stroke-opacity: 1; stroke-width: 9px; opacity: 1; stroke-dasharray: 27px, 27px;"/></g><g class="points"/><g class="text"/></g><g class="trace scatter trace80fa29" style="stroke-miterlimit: 2; opacity: 1;"><g class="fills"/><g class="errorbars"/><g class="lines"><path class="js-line" d="M231.78,275.38L234.23,277.89L234.45,277.98L246.73,280.19L246.94,280.21L292.83,282.19L293.05,282.2L420,283.33" style="vector-effect: non-scaling-stroke; fill: none; stroke: rgb(128, 0, 128); stroke-opacity: 1; stroke-width: 9px; opacity: 1;"/></g><g class="points"/><g class="text"/></g><g class="trace scatter trace9e214d" style="stroke-miterlimit: 2; opacity: 1;"><g class="fills"/><g class="errorbars"/><g class="lines"><path class="js-line" d="M0,261.24L1.77,33.72L2.24,33.72L2.26,33.72L9.59,36.29L9.59,36.29L9.6,36.3L77.46,71.89L77.61,71.98L133.71,103.78L133.91,103.9L191.16,140.01L191.37,140.15L233.76,171.43L233.97,171.6L262.83,197.99L263.04,198.22L280.13,219.27L280.34,219.59L289.89,237.87L290.1,238.43L301.45,267.57L301.66,267.75L311.13,272.46L311.35,272.53L329.66,276.17L329.88,276.19L366.93,279.13L367.15,279.14L420,280.88" style="vector-effect: non-scaling-stroke; fill: none; stroke: rgb(193, 193, 193); stroke-opacity: 1; stroke-width: 9px; opacity: 1;"/></g><g class="points"/><g class="text"/></g></g></g><g class="overplot"/><path class="xlines-above crisp" d="M174.5,386.75H600" style="fill: none; stroke-width: 5.5px; stroke: rgb(0, 0, 0); stroke-opacity: 1;"/><path class="ylines-above crisp" d="M177.25,100V384" style="fill: none; stroke-width: 5.5px; stroke: rgb(0, 0, 0); stroke-opacity: 1;"/><g class="overlines-above"/><g class="xaxislayer-above"><g class="xtick"><text text-anchor="middle" x="0" y="435.1" transform="translate(180,0)" style="font-family: sans-serif; font-size: 38px; fill: rgb(0, 0, 0); fill-opacity: 1; white-space: pre;">0</text></g><g class="xtick"><text text-anchor="middle" x="0" y="435.1" transform="translate(320,0)" style="font-family: sans-serif; font-size: 38px; fill: rgb(0, 0, 0); fill-opacity: 1; white-space: pre;">10</text></g><g class="xtick"><text text-anchor="middle" x="0" y="435.1" transform="translate(460,0)" style="font-family: sans-serif; font-size: 38px; fill: rgb(0, 0, 0); fill-opacity: 1; white-space: pre;">20</text></g><g class="xtick"><text text-anchor="middle" x="0" y="435.1" transform="translate(600,0)" style="font-family: sans-serif; font-size: 38px; fill: rgb(0, 0, 0); fill-opacity: 1; white-space: pre;">30</text></g></g><g class="yaxislayer-above"><g class="ytick"><text text-anchor="end" x="166.9" y="13.299999999999999" transform="translate(0,384)" style="font-family: sans-serif; font-size: 38px; fill: rgb(0, 0, 0); fill-opacity: 1; white-space: pre;">0</text></g><g class="ytick"><text text-anchor="end" x="166.9" y="13.299999999999999" transform="translate(0,322.26)" style="font-family: sans-serif; font-size: 38px; fill: rgb(0, 0, 0); fill-opacity: 1; white-space: pre;">0.5</text></g><g class="ytick"><text text-anchor="end" x="166.9" y="13.299999999999999" transform="translate(0,260.52)" style="font-family: sans-serif; font-size: 38px; fill: rgb(0, 0, 0); fill-opacity: 1; white-space: pre;">1</text></g><g class="ytick"><text text-anchor="end" x="166.9" y="13.299999999999999" transform="translate(0,198.78)" style="font-family: sans-serif; font-size: 38px; fill: rgb(0, 0, 0); fill-opacity: 1; white-space: pre;">1.5</text></g><g class="ytick"><text text-anchor="end" x="166.9" y="13.299999999999999" transform="translate(0,137.04)" style="font-family: sans-serif; font-size: 38px; fill: rgb(0, 0, 0); fill-opacity: 1; white-space: pre;">2</text></g></g><g class="overaxes-above"/></g></g><g class="polarlayer"/><g class="ternarylayer"/><g class="geolayer"/><g class="funnelarealayer"/><g class="pielayer"/><g class="treemaplayer"/><g class="sunburstlayer"/><g class="glimages"/><defs id="topdefs-43fc91"><g class="clips"/></defs><g class="layer-above"><g class="imagelayer"/><g class="shapelayer"/></g><g class="infolayer"><g class="g-gtitle"/><g class="g-xtitle" transform="translate(0,0.5343750000000114)"><text class="xtitle" x="390" y="487.809375" text-anchor="middle" style="font-family: sans-serif; font-size: 41px; fill: rgb(0, 0, 0); opacity: 1; font-weight: normal; white-space: pre;">Damage rate (min​<tspan style="font-size:70%" dy="-0.6em">-1</tspan><tspan dy="0.42em">​</tspan>)</text></g><g class="g-ytitle"><text class="ytitle" transform="rotate(-90,62.753125,242)" x="62.753125" y="242" text-anchor="middle" style="font-family: sans-serif; font-size: 41px; fill: rgb(0, 0, 0); opacity: 1; font-weight: normal; white-space: pre;">RtcB (μM)</text></g></g></svg>