<?xml version="1.0" encoding="utf-8"?>
<svg xmlns="http://www.w3.org/2000/svg" xmlns:xlink="http://www.w3.org/1999/xlink" width="600" height="400" viewBox="0 0 2400 1600">
<defs>
  <clipPath id="clip460">
    <rect x="0" y="0" width="2400" height="1600"/>
  </clipPath>
</defs>
<path clip-path="url(#clip460)" d="M0 1600 L2400 1600 L2400 0 L0 0  Z" fill="#ffffff" fill-rule="evenodd" fill-opacity="1"/>
<defs>
  <clipPath id="clip461">
    <rect x="480" y="0" width="1681" height="1600"/>
  </clipPath>
</defs>
<path clip-path="url(#clip460)" d="M367.565 1362.7 L2352.76 1362.7 L2352.76 47.2441 L367.565 47.2441  Z" fill="#ffffff" fill-rule="evenodd" fill-opacity="1"/>
<defs>
  <clipPath id="clip462">
    <rect x="367" y="47" width="1986" height="1316"/>
  </clipPath>
</defs>
<polyline clip-path="url(#clip462)" style="stroke:#000000; stroke-linecap:round; stroke-linejoin:round; stroke-width:2; stroke-opacity:0.1; fill:none" points="601.117,1362.7 601.117,47.2441 "/>
<polyline clip-path="url(#clip462)" style="stroke:#000000; stroke-linecap:round; stroke-linejoin:round; stroke-width:2; stroke-opacity:0.1; fill:none" points="990.37,1362.7 990.37,47.2441 "/>
<polyline clip-path="url(#clip462)" style="stroke:#000000; stroke-linecap:round; stroke-linejoin:round; stroke-width:2; stroke-opacity:0.1; fill:none" points="1379.62,1362.7 1379.62,47.2441 "/>
<polyline clip-path="url(#clip462)" style="stroke:#000000; stroke-linecap:round; stroke-linejoin:round; stroke-width:2; stroke-opacity:0.1; fill:none" points="1768.88,1362.7 1768.88,47.2441 "/>
<polyline clip-path="url(#clip462)" style="stroke:#000000; stroke-linecap:round; stroke-linejoin:round; stroke-width:2; stroke-opacity:0.1; fill:none" points="2158.13,1362.7 2158.13,47.2441 "/>
<polyline clip-path="url(#clip460)" style="stroke:#000000; stroke-linecap:round; stroke-linejoin:round; stroke-width:4; stroke-opacity:1; fill:none" points="367.565,1362.7 2352.76,1362.7 "/>
<polyline clip-path="url(#clip460)" style="stroke:#000000; stroke-linecap:round; stroke-linejoin:round; stroke-width:4; stroke-opacity:1; fill:none" points="601.117,1362.7 601.117,1343.8 "/>
<polyline clip-path="url(#clip460)" style="stroke:#000000; stroke-linecap:round; stroke-linejoin:round; stroke-width:4; stroke-opacity:1; fill:none" points="990.37,1362.7 990.37,1343.8 "/>
<polyline clip-path="url(#clip460)" style="stroke:#000000; stroke-linecap:round; stroke-linejoin:round; stroke-width:4; stroke-opacity:1; fill:none" points="1379.62,1362.7 1379.62,1343.8 "/>
<polyline clip-path="url(#clip460)" style="stroke:#000000; stroke-linecap:round; stroke-linejoin:round; stroke-width:4; stroke-opacity:1; fill:none" points="1768.88,1362.7 1768.88,1343.8 "/>
<polyline clip-path="url(#clip460)" style="stroke:#000000; stroke-linecap:round; stroke-linejoin:round; stroke-width:4; stroke-opacity:1; fill:none" points="2158.13,1362.7 2158.13,1343.8 "/>
<path clip-path="url(#clip460)" d="M497.103 1455.52 L511.426 1455.52 L511.426 1406.09 L495.844 1409.21 L495.844 1401.22 L511.339 1398.1 L520.106 1398.1 L520.106 1455.52 L534.429 1455.52 L534.429 1462.9 L497.103 1462.9 L497.103 1455.52 Z" fill="#000000" fill-rule="nonzero" fill-opacity="1" /><path clip-path="url(#clip460)" d="M570.887 1403.87 Q564.116 1403.87 560.688 1410.56 Q557.302 1417.2 557.302 1430.56 Q557.302 1443.89 560.688 1450.57 Q564.116 1457.21 570.887 1457.21 Q577.701 1457.21 581.087 1450.57 Q584.516 1443.89 584.516 1430.56 Q584.516 1417.2 581.087 1410.56 Q577.701 1403.87 570.887 1403.87 M570.887 1396.93 Q581.781 1396.93 587.51 1405.57 Q593.283 1414.16 593.283 1430.56 Q593.283 1446.93 587.51 1455.56 Q581.781 1464.16 570.887 1464.16 Q559.993 1464.16 554.221 1455.56 Q548.491 1446.93 548.491 1430.56 Q548.491 1414.16 554.221 1405.57 Q559.993 1396.93 570.887 1396.93 Z" fill="#000000" fill-rule="nonzero" fill-opacity="1" /><path clip-path="url(#clip460)" d="M627.441 1403.87 Q620.67 1403.87 617.241 1410.56 Q613.856 1417.2 613.856 1430.56 Q613.856 1443.89 617.241 1450.57 Q620.67 1457.21 627.441 1457.21 Q634.255 1457.21 637.64 1450.57 Q641.069 1443.89 641.069 1430.56 Q641.069 1417.2 637.64 1410.56 Q634.255 1403.87 627.441 1403.87 M627.441 1396.93 Q638.335 1396.93 644.064 1405.57 Q649.836 1414.16 649.836 1430.56 Q649.836 1446.93 644.064 1455.56 Q638.335 1464.16 627.441 1464.16 Q616.547 1464.16 610.774 1455.56 Q605.045 1446.93 605.045 1430.56 Q605.045 1414.16 610.774 1405.57 Q616.547 1396.93 627.441 1396.93 Z" fill="#000000" fill-rule="nonzero" fill-opacity="1" /><path clip-path="url(#clip460)" d="M683.994 1403.87 Q677.223 1403.87 673.795 1410.56 Q670.409 1417.2 670.409 1430.56 Q670.409 1443.89 673.795 1450.57 Q677.223 1457.21 683.994 1457.21 Q690.808 1457.21 694.194 1450.57 Q697.623 1443.89 697.623 1430.56 Q697.623 1417.2 694.194 1410.56 Q690.808 1403.87 683.994 1403.87 M683.994 1396.93 Q694.888 1396.93 700.617 1405.57 Q706.39 1414.16 706.39 1430.56 Q706.39 1446.93 700.617 1455.56 Q694.888 1464.16 683.994 1464.16 Q673.1 1464.16 667.328 1455.56 Q661.598 1446.93 661.598 1430.56 Q661.598 1414.16 667.328 1405.57 Q673.1 1396.93 683.994 1396.93 Z" fill="#000000" fill-rule="nonzero" fill-opacity="1" /><path clip-path="url(#clip460)" d="M894.016 1455.52 L924.615 1455.52 L924.615 1462.9 L883.47 1462.9 L883.47 1455.52 Q888.461 1450.36 897.055 1441.68 Q905.692 1432.95 907.905 1430.43 Q912.115 1425.7 913.765 1422.45 Q915.457 1419.15 915.457 1415.98 Q915.457 1410.82 911.811 1407.56 Q908.209 1404.31 902.393 1404.31 Q898.27 1404.31 893.669 1405.74 Q889.112 1407.17 883.904 1410.08 L883.904 1401.22 Q889.199 1399.1 893.799 1398.01 Q898.4 1396.93 902.22 1396.93 Q912.289 1396.93 918.278 1401.96 Q924.268 1407 924.268 1415.42 Q924.268 1419.41 922.749 1423.01 Q921.273 1426.57 917.324 1431.43 Q916.239 1432.69 910.423 1438.72 Q904.607 1444.71 894.016 1455.52 Z" fill="#000000" fill-rule="nonzero" fill-opacity="1" /><path clip-path="url(#clip460)" d="M961.768 1403.87 Q954.997 1403.87 951.568 1410.56 Q948.183 1417.2 948.183 1430.56 Q948.183 1443.89 951.568 1450.57 Q954.997 1457.21 961.768 1457.21 Q968.582 1457.21 971.967 1450.57 Q975.396 1443.89 975.396 1430.56 Q975.396 1417.2 971.967 1410.56 Q968.582 1403.87 961.768 1403.87 M961.768 1396.93 Q972.662 1396.93 978.391 1405.57 Q984.164 1414.16 984.164 1430.56 Q984.164 1446.93 978.391 1455.56 Q972.662 1464.16 961.768 1464.16 Q950.874 1464.16 945.101 1455.56 Q939.372 1446.93 939.372 1430.56 Q939.372 1414.16 945.101 1405.57 Q950.874 1396.93 961.768 1396.93 Z" fill="#000000" fill-rule="nonzero" fill-opacity="1" /><path clip-path="url(#clip460)" d="M1018.32 1403.87 Q1011.55 1403.87 1008.12 1410.56 Q1004.74 1417.2 1004.74 1430.56 Q1004.74 1443.89 1008.12 1450.57 Q1011.55 1457.21 1018.32 1457.21 Q1025.14 1457.21 1028.52 1450.57 Q1031.95 1443.89 1031.95 1430.56 Q1031.95 1417.2 1028.52 1410.56 Q1025.14 1403.87 1018.32 1403.87 M1018.32 1396.93 Q1029.22 1396.93 1034.94 1405.57 Q1040.72 1414.16 1040.72 1430.56 Q1040.72 1446.93 1034.94 1455.56 Q1029.22 1464.16 1018.32 1464.16 Q1007.43 1464.16 1001.65 1455.56 Q995.926 1446.93 995.926 1430.56 Q995.926 1414.16 1001.65 1405.57 Q1007.43 1396.93 1018.32 1396.93 Z" fill="#000000" fill-rule="nonzero" fill-opacity="1" /><path clip-path="url(#clip460)" d="M1074.87 1403.87 Q1068.1 1403.87 1064.68 1410.56 Q1061.29 1417.2 1061.29 1430.56 Q1061.29 1443.89 1064.68 1450.57 Q1068.1 1457.21 1074.87 1457.21 Q1081.69 1457.21 1085.07 1450.57 Q1088.5 1443.89 1088.5 1430.56 Q1088.5 1417.2 1085.07 1410.56 Q1081.69 1403.87 1074.87 1403.87 M1074.87 1396.93 Q1085.77 1396.93 1091.5 1405.57 Q1097.27 1414.16 1097.27 1430.56 Q1097.27 1446.93 1091.5 1455.56 Q1085.77 1464.16 1074.87 1464.16 Q1063.98 1464.16 1058.21 1455.56 Q1052.48 1446.93 1052.48 1430.56 Q1052.48 1414.16 1058.21 1405.57 Q1063.98 1396.93 1074.87 1396.93 Z" fill="#000000" fill-rule="nonzero" fill-opacity="1" /><path clip-path="url(#clip460)" d="M1302.15 1427.96 Q1308.44 1429.31 1311.96 1433.56 Q1315.52 1437.81 1315.52 1444.06 Q1315.52 1453.66 1308.92 1458.91 Q1302.32 1464.16 1290.17 1464.16 Q1286.09 1464.16 1281.75 1463.33 Q1277.45 1462.55 1272.85 1460.95 L1272.85 1452.48 Q1276.5 1454.61 1280.84 1455.7 Q1285.18 1456.78 1289.91 1456.78 Q1298.16 1456.78 1302.45 1453.52 Q1306.79 1450.27 1306.79 1444.06 Q1306.79 1438.33 1302.76 1435.12 Q1298.76 1431.87 1291.6 1431.87 L1284.05 1431.87 L1284.05 1424.66 L1291.95 1424.66 Q1298.42 1424.66 1301.85 1422.1 Q1305.27 1419.5 1305.27 1414.64 Q1305.27 1409.64 1301.72 1407 Q1298.2 1404.31 1291.6 1404.31 Q1288 1404.31 1283.88 1405.09 Q1279.75 1405.87 1274.81 1407.52 L1274.81 1399.71 Q1279.8 1398.32 1284.14 1397.62 Q1288.52 1396.93 1292.38 1396.93 Q1302.37 1396.93 1308.18 1401.49 Q1314 1406 1314 1413.72 Q1314 1419.11 1310.92 1422.84 Q1307.84 1426.53 1302.15 1427.96 Z" fill="#000000" fill-rule="nonzero" fill-opacity="1" /><path clip-path="url(#clip460)" d="M1350.89 1403.87 Q1344.12 1403.87 1340.69 1410.56 Q1337.31 1417.2 1337.31 1430.56 Q1337.31 1443.89 1340.69 1450.57 Q1344.12 1457.21 1350.89 1457.21 Q1357.7 1457.21 1361.09 1450.57 Q1364.52 1443.89 1364.52 1430.56 Q1364.52 1417.2 1361.09 1410.56 Q1357.7 1403.87 1350.89 1403.87 M1350.89 1396.93 Q1361.78 1396.93 1367.51 1405.57 Q1373.29 1414.16 1373.29 1430.56 Q1373.29 1446.93 1367.51 1455.56 Q1361.78 1464.16 1350.89 1464.16 Q1340 1464.16 1334.22 1455.56 Q1328.49 1446.93 1328.49 1430.56 Q1328.49 1414.16 1334.22 1405.57 Q1340 1396.93 1350.89 1396.93 Z" fill="#000000" fill-rule="nonzero" fill-opacity="1" /><path clip-path="url(#clip460)" d="M1407.44 1403.87 Q1400.67 1403.87 1397.24 1410.56 Q1393.86 1417.2 1393.86 1430.56 Q1393.86 1443.89 1397.24 1450.57 Q1400.67 1457.21 1407.44 1457.21 Q1414.26 1457.21 1417.64 1450.57 Q1421.07 1443.89 1421.07 1430.56 Q1421.07 1417.2 1417.64 1410.56 Q1414.26 1403.87 1407.44 1403.87 M1407.44 1396.93 Q1418.34 1396.93 1424.07 1405.57 Q1429.84 1414.16 1429.84 1430.56 Q1429.84 1446.93 1424.07 1455.56 Q1418.34 1464.16 1407.44 1464.16 Q1396.55 1464.16 1390.78 1455.56 Q1385.05 1446.93 1385.05 1430.56 Q1385.05 1414.16 1390.78 1405.57 Q1396.55 1396.93 1407.44 1396.93 Z" fill="#000000" fill-rule="nonzero" fill-opacity="1" /><path clip-path="url(#clip460)" d="M1464 1403.87 Q1457.23 1403.87 1453.8 1410.56 Q1450.41 1417.2 1450.41 1430.56 Q1450.41 1443.89 1453.8 1450.57 Q1457.23 1457.21 1464 1457.21 Q1470.81 1457.21 1474.2 1450.57 Q1477.63 1443.89 1477.63 1430.56 Q1477.63 1417.2 1474.2 1410.56 Q1470.81 1403.87 1464 1403.87 M1464 1396.93 Q1474.89 1396.93 1480.62 1405.57 Q1486.39 1414.16 1486.39 1430.56 Q1486.39 1446.93 1480.62 1455.56 Q1474.89 1464.16 1464 1464.16 Q1453.1 1464.16 1447.33 1455.56 Q1441.6 1446.93 1441.6 1430.56 Q1441.6 1414.16 1447.33 1405.57 Q1453.1 1396.93 1464 1396.93 Z" fill="#000000" fill-rule="nonzero" fill-opacity="1" /><path clip-path="url(#clip460)" d="M1690.14 1405.74 L1668.01 1440.33 L1690.14 1440.33 L1690.14 1405.74 M1687.84 1398.1 L1698.87 1398.1 L1698.87 1440.33 L1708.11 1440.33 L1708.11 1447.62 L1698.87 1447.62 L1698.87 1462.9 L1690.14 1462.9 L1690.14 1447.62 L1660.89 1447.62 L1660.89 1439.16 L1687.84 1398.1 Z" fill="#000000" fill-rule="nonzero" fill-opacity="1" /><path clip-path="url(#clip460)" d="M1741.36 1403.87 Q1734.59 1403.87 1731.16 1410.56 Q1727.77 1417.2 1727.77 1430.56 Q1727.77 1443.89 1731.16 1450.57 Q1734.59 1457.21 1741.36 1457.21 Q1748.17 1457.21 1751.56 1450.57 Q1754.99 1443.89 1754.99 1430.56 Q1754.99 1417.2 1751.56 1410.56 Q1748.17 1403.87 1741.36 1403.87 M1741.36 1396.93 Q1752.25 1396.93 1757.98 1405.57 Q1763.75 1414.16 1763.75 1430.56 Q1763.75 1446.93 1757.98 1455.56 Q1752.25 1464.16 1741.36 1464.16 Q1730.47 1464.16 1724.69 1455.56 Q1718.96 1446.93 1718.96 1430.56 Q1718.96 1414.16 1724.69 1405.57 Q1730.47 1396.93 1741.36 1396.93 Z" fill="#000000" fill-rule="nonzero" fill-opacity="1" /><path clip-path="url(#clip460)" d="M1797.91 1403.87 Q1791.14 1403.87 1787.71 1410.56 Q1784.33 1417.2 1784.33 1430.56 Q1784.33 1443.89 1787.71 1450.57 Q1791.14 1457.21 1797.91 1457.21 Q1804.73 1457.21 1808.11 1450.57 Q1811.54 1443.89 1811.54 1430.56 Q1811.54 1417.2 1808.11 1410.56 Q1804.73 1403.87 1797.91 1403.87 M1797.91 1396.93 Q1808.81 1396.93 1814.54 1405.57 Q1820.31 1414.16 1820.31 1430.56 Q1820.31 1446.93 1814.54 1455.56 Q1808.81 1464.16 1797.91 1464.16 Q1787.02 1464.16 1781.25 1455.56 Q1775.52 1446.93 1775.52 1430.56 Q1775.52 1414.16 1781.25 1405.57 Q1787.02 1396.93 1797.91 1396.93 Z" fill="#000000" fill-rule="nonzero" fill-opacity="1" /><path clip-path="url(#clip460)" d="M1854.47 1403.87 Q1847.7 1403.87 1844.27 1410.56 Q1840.88 1417.2 1840.88 1430.56 Q1840.88 1443.89 1844.27 1450.57 Q1847.7 1457.21 1854.47 1457.21 Q1861.28 1457.21 1864.67 1450.57 Q1868.09 1443.89 1868.09 1430.56 Q1868.09 1417.2 1864.67 1410.56 Q1861.28 1403.87 1854.47 1403.87 M1854.47 1396.93 Q1865.36 1396.93 1871.09 1405.57 Q1876.86 1414.16 1876.86 1430.56 Q1876.86 1446.93 1871.09 1455.56 Q1865.36 1464.16 1854.47 1464.16 Q1843.57 1464.16 1837.8 1455.56 Q1832.07 1446.93 1832.07 1430.56 Q1832.07 1414.16 1837.8 1405.57 Q1843.57 1396.93 1854.47 1396.93 Z" fill="#000000" fill-rule="nonzero" fill-opacity="1" /><path clip-path="url(#clip460)" d="M2054.14 1398.1 L2088.56 1398.1 L2088.56 1405.48 L2062.17 1405.48 L2062.17 1421.36 Q2064.08 1420.71 2065.99 1420.41 Q2067.9 1420.06 2069.81 1420.06 Q2080.66 1420.06 2086.99 1426.01 Q2093.33 1431.95 2093.33 1442.11 Q2093.33 1452.57 2086.82 1458.39 Q2080.31 1464.16 2068.46 1464.16 Q2064.38 1464.16 2060.13 1463.46 Q2055.92 1462.77 2051.4 1461.38 L2051.4 1452.57 Q2055.31 1454.7 2059.48 1455.74 Q2063.64 1456.78 2068.29 1456.78 Q2075.79 1456.78 2080.18 1452.83 Q2084.56 1448.88 2084.56 1442.11 Q2084.56 1435.34 2080.18 1431.39 Q2075.79 1427.44 2068.29 1427.44 Q2064.77 1427.44 2061.25 1428.22 Q2057.78 1429 2054.14 1430.65 L2054.14 1398.1 Z" fill="#000000" fill-rule="nonzero" fill-opacity="1" /><path clip-path="url(#clip460)" d="M2129.35 1403.87 Q2122.58 1403.87 2119.15 1410.56 Q2115.77 1417.2 2115.77 1430.56 Q2115.77 1443.89 2119.15 1450.57 Q2122.58 1457.21 2129.35 1457.21 Q2136.17 1457.21 2139.55 1450.57 Q2142.98 1443.89 2142.98 1430.56 Q2142.98 1417.2 2139.55 1410.56 Q2136.17 1403.87 2129.35 1403.87 M2129.35 1396.93 Q2140.25 1396.93 2145.98 1405.57 Q2151.75 1414.16 2151.75 1430.56 Q2151.75 1446.93 2145.98 1455.56 Q2140.25 1464.16 2129.35 1464.16 Q2118.46 1464.16 2112.69 1455.56 Q2106.96 1446.93 2106.96 1430.56 Q2106.96 1414.16 2112.69 1405.57 Q2118.46 1396.93 2129.35 1396.93 Z" fill="#000000" fill-rule="nonzero" fill-opacity="1" /><path clip-path="url(#clip460)" d="M2185.91 1403.87 Q2179.14 1403.87 2175.71 1410.56 Q2172.32 1417.2 2172.32 1430.56 Q2172.32 1443.89 2175.71 1450.57 Q2179.14 1457.21 2185.91 1457.21 Q2192.72 1457.21 2196.11 1450.57 Q2199.54 1443.89 2199.54 1430.56 Q2199.54 1417.2 2196.11 1410.56 Q2192.72 1403.87 2185.91 1403.87 M2185.91 1396.93 Q2196.8 1396.93 2202.53 1405.57 Q2208.3 1414.16 2208.3 1430.56 Q2208.3 1446.93 2202.53 1455.56 Q2196.8 1464.16 2185.91 1464.16 Q2175.01 1464.16 2169.24 1455.56 Q2163.51 1446.93 2163.51 1430.56 Q2163.51 1414.16 2169.24 1405.57 Q2175.01 1396.93 2185.91 1396.93 Z" fill="#000000" fill-rule="nonzero" fill-opacity="1" /><path clip-path="url(#clip460)" d="M2242.46 1403.87 Q2235.69 1403.87 2232.26 1410.56 Q2228.88 1417.2 2228.88 1430.56 Q2228.88 1443.89 2232.26 1450.57 Q2235.69 1457.21 2242.46 1457.21 Q2249.27 1457.21 2252.66 1450.57 Q2256.09 1443.89 2256.09 1430.56 Q2256.09 1417.2 2252.66 1410.56 Q2249.27 1403.87 2242.46 1403.87 M2242.46 1396.93 Q2253.35 1396.93 2259.08 1405.57 Q2264.86 1414.16 2264.86 1430.56 Q2264.86 1446.93 2259.08 1455.56 Q2253.35 1464.16 2242.46 1464.16 Q2231.57 1464.16 2225.79 1455.56 Q2220.06 1446.93 2220.06 1430.56 Q2220.06 1414.16 2225.79 1405.57 Q2231.57 1396.93 2242.46 1396.93 Z" fill="#000000" fill-rule="nonzero" fill-opacity="1" /><path clip-path="url(#clip460)" d="M1308.99 1559.89 Q1297.37 1559.89 1292.9 1562.55 Q1288.42 1565.2 1288.42 1571.61 Q1288.42 1576.71 1291.75 1579.73 Q1295.13 1582.7 1300.92 1582.7 Q1308.88 1582.7 1313.68 1577.08 Q1318.52 1571.4 1318.52 1562.02 L1318.52 1559.89 L1308.99 1559.89 M1328.1 1555.93 L1328.1 1589.21 L1318.52 1589.21 L1318.52 1580.36 Q1315.24 1585.67 1310.34 1588.22 Q1305.45 1590.72 1298.36 1590.72 Q1289.41 1590.72 1284.09 1585.72 Q1278.83 1580.67 1278.83 1572.23 Q1278.83 1562.39 1285.4 1557.39 Q1292.01 1552.39 1305.08 1552.39 L1318.52 1552.39 L1318.52 1551.45 Q1318.52 1544.84 1314.15 1541.24 Q1309.82 1537.6 1301.96 1537.6 Q1296.96 1537.6 1292.22 1538.8 Q1287.48 1539.99 1283.1 1542.39 L1283.1 1533.54 Q1288.36 1531.5 1293.31 1530.51 Q1298.26 1529.47 1302.95 1529.47 Q1315.6 1529.47 1321.85 1536.04 Q1328.1 1542.6 1328.1 1555.93 Z" fill="#000000" fill-rule="nonzero" fill-opacity="1" /><path clip-path="url(#clip460)" d="M1357.32 1514.32 L1357.32 1530.88 L1377.06 1530.88 L1377.06 1538.33 L1357.32 1538.33 L1357.32 1569.99 Q1357.32 1577.13 1359.25 1579.16 Q1361.23 1581.19 1367.22 1581.19 L1377.06 1581.19 L1377.06 1589.21 L1367.22 1589.21 Q1356.12 1589.21 1351.91 1585.1 Q1347.69 1580.93 1347.69 1569.99 L1347.69 1538.33 L1340.66 1538.33 L1340.66 1530.88 L1347.69 1530.88 L1347.69 1514.32 L1357.32 1514.32 Z" fill="#000000" fill-rule="nonzero" fill-opacity="1" /><path clip-path="url(#clip460)" d="M1398.94 1580.46 L1398.94 1611.4 L1389.3 1611.4 L1389.3 1530.88 L1398.94 1530.88 L1398.94 1539.73 Q1401.96 1534.52 1406.54 1532.02 Q1411.18 1529.47 1417.58 1529.47 Q1428.21 1529.47 1434.82 1537.91 Q1441.49 1546.35 1441.49 1560.1 Q1441.49 1573.85 1434.82 1582.28 Q1428.21 1590.72 1417.58 1590.72 Q1411.18 1590.72 1406.54 1588.22 Q1401.96 1585.67 1398.94 1580.46 M1431.54 1560.1 Q1431.54 1549.52 1427.17 1543.54 Q1422.84 1537.49 1415.24 1537.49 Q1407.63 1537.49 1403.26 1543.54 Q1398.94 1549.52 1398.94 1560.1 Q1398.94 1570.67 1403.26 1576.71 Q1407.63 1582.7 1415.24 1582.7 Q1422.84 1582.7 1427.17 1576.71 Q1431.54 1570.67 1431.54 1560.1 Z" fill="#000000" fill-rule="nonzero" fill-opacity="1" /><polyline clip-path="url(#clip462)" style="stroke:#000000; stroke-linecap:round; stroke-linejoin:round; stroke-width:2; stroke-opacity:0.1; fill:none" points="367.565,1059.13 2352.76,1059.13 "/>
<polyline clip-path="url(#clip462)" style="stroke:#000000; stroke-linecap:round; stroke-linejoin:round; stroke-width:2; stroke-opacity:0.1; fill:none" points="367.565,721.837 2352.76,721.837 "/>
<polyline clip-path="url(#clip462)" style="stroke:#000000; stroke-linecap:round; stroke-linejoin:round; stroke-width:2; stroke-opacity:0.1; fill:none" points="367.565,384.54 2352.76,384.54 "/>
<polyline clip-path="url(#clip462)" style="stroke:#000000; stroke-linecap:round; stroke-linejoin:round; stroke-width:2; stroke-opacity:0.1; fill:none" points="367.565,47.2441 2352.76,47.2441 "/>
<polyline clip-path="url(#clip460)" style="stroke:#000000; stroke-linecap:round; stroke-linejoin:round; stroke-width:4; stroke-opacity:1; fill:none" points="367.565,1362.7 367.565,47.2441 "/>
<polyline clip-path="url(#clip460)" style="stroke:#000000; stroke-linecap:round; stroke-linejoin:round; stroke-width:4; stroke-opacity:1; fill:none" points="367.565,1059.13 386.463,1059.13 "/>
<polyline clip-path="url(#clip460)" style="stroke:#000000; stroke-linecap:round; stroke-linejoin:round; stroke-width:4; stroke-opacity:1; fill:none" points="367.565,721.837 386.463,721.837 "/>
<polyline clip-path="url(#clip460)" style="stroke:#000000; stroke-linecap:round; stroke-linejoin:round; stroke-width:4; stroke-opacity:1; fill:none" points="367.565,384.54 386.463,384.54 "/>
<polyline clip-path="url(#clip460)" style="stroke:#000000; stroke-linecap:round; stroke-linejoin:round; stroke-width:4; stroke-opacity:1; fill:none" points="367.565,47.2441 386.463,47.2441 "/>
<path clip-path="url(#clip460)" d="M170.108 1032.51 Q163.337 1032.51 159.908 1039.19 Q156.523 1045.83 156.523 1059.2 Q156.523 1072.52 159.908 1079.21 Q163.337 1085.85 170.108 1085.85 Q176.922 1085.85 180.307 1079.21 Q183.736 1072.52 183.736 1059.2 Q183.736 1045.83 180.307 1039.19 Q176.922 1032.51 170.108 1032.51 M170.108 1025.56 Q181.002 1025.56 186.731 1034.2 Q192.503 1042.79 192.503 1059.2 Q192.503 1075.56 186.731 1084.2 Q181.002 1092.79 170.108 1092.79 Q159.214 1092.79 153.441 1084.2 Q147.712 1075.56 147.712 1059.2 Q147.712 1042.79 153.441 1034.2 Q159.214 1025.56 170.108 1025.56 Z" fill="#000000" fill-rule="nonzero" fill-opacity="1" /><path clip-path="url(#clip460)" d="M207.911 1080.51 L217.069 1080.51 L217.069 1091.53 L207.911 1091.53 L207.911 1080.51 Z" fill="#000000" fill-rule="nonzero" fill-opacity="1" /><path clip-path="url(#clip460)" d="M254.916 1032.51 Q248.145 1032.51 244.717 1039.19 Q241.331 1045.83 241.331 1059.2 Q241.331 1072.52 244.717 1079.21 Q248.145 1085.85 254.916 1085.85 Q261.73 1085.85 265.116 1079.21 Q268.545 1072.52 268.545 1059.2 Q268.545 1045.83 265.116 1039.19 Q261.73 1032.51 254.916 1032.51 M254.916 1025.56 Q265.81 1025.56 271.539 1034.2 Q277.312 1042.79 277.312 1059.2 Q277.312 1075.56 271.539 1084.2 Q265.81 1092.79 254.916 1092.79 Q244.022 1092.79 238.25 1084.2 Q232.521 1075.56 232.521 1059.2 Q232.521 1042.79 238.25 1034.2 Q244.022 1025.56 254.916 1025.56 Z" fill="#000000" fill-rule="nonzero" fill-opacity="1" /><path clip-path="url(#clip460)" d="M294.239 1084.15 L308.562 1084.15 L308.562 1034.72 L292.98 1037.84 L292.98 1029.86 L308.475 1026.73 L317.242 1026.73 L317.242 1084.15 L331.565 1084.15 L331.565 1091.53 L294.239 1091.53 L294.239 1084.15 Z" fill="#000000" fill-rule="nonzero" fill-opacity="1" /><path clip-path="url(#clip460)" d="M170.802 695.209 Q164.031 695.209 160.603 701.893 Q157.217 708.534 157.217 721.902 Q157.217 735.226 160.603 741.91 Q164.031 748.551 170.802 748.551 Q177.616 748.551 181.002 741.91 Q184.43 735.226 184.43 721.902 Q184.43 708.534 181.002 701.893 Q177.616 695.209 170.802 695.209 M170.802 688.265 Q181.696 688.265 187.425 696.902 Q193.198 705.496 193.198 721.902 Q193.198 738.265 187.425 746.902 Q181.696 755.495 170.802 755.495 Q159.908 755.495 154.136 746.902 Q148.406 738.265 148.406 721.902 Q148.406 705.496 154.136 696.902 Q159.908 688.265 170.802 688.265 Z" fill="#000000" fill-rule="nonzero" fill-opacity="1" /><path clip-path="url(#clip460)" d="M208.606 743.213 L217.764 743.213 L217.764 754.237 L208.606 754.237 L208.606 743.213 Z" fill="#000000" fill-rule="nonzero" fill-opacity="1" /><path clip-path="url(#clip460)" d="M255.611 695.209 Q248.84 695.209 245.411 701.893 Q242.026 708.534 242.026 721.902 Q242.026 735.226 245.411 741.91 Q248.84 748.551 255.611 748.551 Q262.425 748.551 265.81 741.91 Q269.239 735.226 269.239 721.902 Q269.239 708.534 265.81 701.893 Q262.425 695.209 255.611 695.209 M255.611 688.265 Q266.505 688.265 272.234 696.902 Q278.006 705.496 278.006 721.902 Q278.006 738.265 272.234 746.902 Q266.505 755.495 255.611 755.495 Q244.717 755.495 238.944 746.902 Q233.215 738.265 233.215 721.902 Q233.215 705.496 238.944 696.902 Q244.717 688.265 255.611 688.265 Z" fill="#000000" fill-rule="nonzero" fill-opacity="1" /><path clip-path="url(#clip460)" d="M300.966 746.858 L331.565 746.858 L331.565 754.237 L290.42 754.237 L290.42 746.858 Q295.411 741.693 304.005 733.013 Q312.642 724.289 314.855 721.772 Q319.065 717.041 320.714 713.786 Q322.407 710.487 322.407 707.319 Q322.407 702.154 318.761 698.899 Q315.159 695.643 309.343 695.643 Q305.22 695.643 300.619 697.076 Q296.062 698.508 290.854 701.416 L290.854 692.562 Q296.149 690.435 300.749 689.35 Q305.35 688.265 309.169 688.265 Q319.239 688.265 325.228 693.3 Q331.218 698.334 331.218 706.754 Q331.218 710.747 329.699 714.35 Q328.223 717.909 324.273 722.77 Q323.188 724.029 317.372 730.062 Q311.557 736.051 300.966 746.858 Z" fill="#000000" fill-rule="nonzero" fill-opacity="1" /><path clip-path="url(#clip460)" d="M169.023 357.913 Q162.252 357.913 158.823 364.597 Q155.438 371.238 155.438 384.606 Q155.438 397.93 158.823 404.614 Q162.252 411.255 169.023 411.255 Q175.837 411.255 179.222 404.614 Q182.651 397.93 182.651 384.606 Q182.651 371.238 179.222 364.597 Q175.837 357.913 169.023 357.913 M169.023 350.969 Q179.917 350.969 185.646 359.606 Q191.418 368.199 191.418 384.606 Q191.418 400.968 185.646 409.605 Q179.917 418.199 169.023 418.199 Q158.129 418.199 152.356 409.605 Q146.627 400.968 146.627 384.606 Q146.627 368.199 152.356 359.606 Q158.129 350.969 169.023 350.969 Z" fill="#000000" fill-rule="nonzero" fill-opacity="1" /><path clip-path="url(#clip460)" d="M206.826 405.916 L215.984 405.916 L215.984 416.94 L206.826 416.94 L206.826 405.916 Z" fill="#000000" fill-rule="nonzero" fill-opacity="1" /><path clip-path="url(#clip460)" d="M253.831 357.913 Q247.06 357.913 243.632 364.597 Q240.246 371.238 240.246 384.606 Q240.246 397.93 243.632 404.614 Q247.06 411.255 253.831 411.255 Q260.645 411.255 264.031 404.614 Q267.46 397.93 267.46 384.606 Q267.46 371.238 264.031 364.597 Q260.645 357.913 253.831 357.913 M253.831 350.969 Q264.725 350.969 270.454 359.606 Q276.227 368.199 276.227 384.606 Q276.227 400.968 270.454 409.605 Q264.725 418.199 253.831 418.199 Q242.937 418.199 237.165 409.605 Q231.435 400.968 231.435 384.606 Q231.435 368.199 237.165 359.606 Q242.937 350.969 253.831 350.969 Z" fill="#000000" fill-rule="nonzero" fill-opacity="1" /><path clip-path="url(#clip460)" d="M318.197 382.001 Q324.491 383.347 328.006 387.6 Q331.565 391.854 331.565 398.104 Q331.565 407.696 324.968 412.947 Q318.371 418.199 306.218 418.199 Q302.138 418.199 297.798 417.374 Q293.501 416.593 288.9 414.987 L288.9 406.524 Q292.546 408.651 296.886 409.736 Q301.227 410.821 305.958 410.821 Q314.204 410.821 318.501 407.565 Q322.841 404.31 322.841 398.104 Q322.841 392.375 318.805 389.163 Q314.812 385.908 307.65 385.908 L300.098 385.908 L300.098 378.703 L307.998 378.703 Q314.465 378.703 317.893 376.142 Q321.322 373.538 321.322 368.677 Q321.322 363.686 317.763 361.038 Q314.248 358.347 307.65 358.347 Q304.048 358.347 299.925 359.128 Q295.801 359.909 290.854 361.559 L290.854 353.746 Q295.845 352.357 300.185 351.663 Q304.569 350.969 308.432 350.969 Q318.414 350.969 324.23 355.526 Q330.046 360.04 330.046 367.765 Q330.046 373.147 326.964 376.88 Q323.883 380.569 318.197 382.001 Z" fill="#000000" fill-rule="nonzero" fill-opacity="1" /><path clip-path="url(#clip460)" d="M166.896 20.6166 Q160.125 20.6166 156.696 27.3006 Q153.311 33.9412 153.311 47.3092 Q153.311 60.6338 156.696 67.3178 Q160.125 73.9584 166.896 73.9584 Q173.71 73.9584 177.095 67.3178 Q180.524 60.6338 180.524 47.3092 Q180.524 33.9412 177.095 27.3006 Q173.71 20.6166 166.896 20.6166 M166.896 13.6722 Q177.79 13.6722 183.519 22.3093 Q189.292 30.903 189.292 47.3092 Q189.292 63.672 183.519 72.3091 Q177.79 80.9028 166.896 80.9028 Q156.002 80.9028 150.229 72.3091 Q144.5 63.672 144.5 47.3092 Q144.5 30.903 150.229 22.3093 Q156.002 13.6722 166.896 13.6722 Z" fill="#000000" fill-rule="nonzero" fill-opacity="1" /><path clip-path="url(#clip460)" d="M204.699 68.6198 L213.857 68.6198 L213.857 79.6441 L204.699 79.6441 L204.699 68.6198 Z" fill="#000000" fill-rule="nonzero" fill-opacity="1" /><path clip-path="url(#clip460)" d="M251.704 20.6166 Q244.934 20.6166 241.505 27.3006 Q238.119 33.9412 238.119 47.3092 Q238.119 60.6338 241.505 67.3178 Q244.934 73.9584 251.704 73.9584 Q258.519 73.9584 261.904 67.3178 Q265.333 60.6338 265.333 47.3092 Q265.333 33.9412 261.904 27.3006 Q258.519 20.6166 251.704 20.6166 M251.704 13.6722 Q262.598 13.6722 268.328 22.3093 Q274.1 30.903 274.1 47.3092 Q274.1 63.672 268.328 72.3091 Q262.598 80.9028 251.704 80.9028 Q240.81 80.9028 235.038 72.3091 Q229.309 63.672 229.309 47.3092 Q229.309 30.903 235.038 22.3093 Q240.81 13.6722 251.704 13.6722 Z" fill="#000000" fill-rule="nonzero" fill-opacity="1" /><path clip-path="url(#clip460)" d="M313.596 22.4829 L291.461 57.0748 L313.596 57.0748 L313.596 22.4829 M311.296 14.8441 L322.32 14.8441 L322.32 57.0748 L331.565 57.0748 L331.565 64.3664 L322.32 64.3664 L322.32 79.6441 L313.596 79.6441 L313.596 64.3664 L284.343 64.3664 L284.343 55.9029 L311.296 14.8441 Z" fill="#000000" fill-rule="nonzero" fill-opacity="1" /><path clip-path="url(#clip460)" d="M4.13093 794.867 L4.13093 785.284 L85.1722 785.284 L85.1722 794.867 L4.13093 794.867 Z" fill="#000000" fill-rule="nonzero" fill-opacity="1" /><path clip-path="url(#clip460)" d="M55.8494 738.722 Q55.8494 750.336 58.5056 754.815 Q61.1619 759.295 67.5681 759.295 Q72.6722 759.295 75.693 755.961 Q78.6618 752.576 78.6618 746.795 Q78.6618 738.826 73.0368 734.034 Q67.3598 729.191 57.9848 729.191 L55.8494 729.191 L55.8494 738.722 M51.8911 719.607 L85.1722 719.607 L85.1722 729.191 L76.318 729.191 Q81.6305 732.472 84.1826 737.368 Q86.6826 742.263 86.6826 749.347 Q86.6826 758.305 81.6826 763.617 Q76.6305 768.878 68.1931 768.878 Q58.3494 768.878 53.3494 762.315 Q48.3494 755.701 48.3494 742.628 L48.3494 729.191 L47.4119 729.191 Q40.7974 729.191 37.2037 733.566 Q33.5579 737.888 33.5579 745.753 Q33.5579 750.753 34.7558 755.493 Q35.9537 760.232 38.3495 764.607 L29.4954 764.607 Q27.4641 759.347 26.4746 754.399 Q25.4329 749.451 25.4329 744.763 Q25.4329 732.107 31.9954 725.857 Q38.5578 719.607 51.8911 719.607 Z" fill="#000000" fill-rule="nonzero" fill-opacity="1" /><path clip-path="url(#clip460)" d="M38.037 654.451 Q31.5787 650.858 28.5058 645.858 Q25.4329 640.858 25.4329 634.087 Q25.4329 624.972 31.8391 620.025 Q38.1932 615.077 49.964 615.077 L85.1722 615.077 L85.1722 624.712 L50.2765 624.712 Q41.8911 624.712 37.8287 627.681 Q33.7662 630.649 33.7662 636.743 Q33.7662 644.191 38.7141 648.514 Q43.662 652.837 52.2036 652.837 L85.1722 652.837 L85.1722 662.472 L50.2765 662.472 Q41.8391 662.472 37.8287 665.441 Q33.7662 668.41 33.7662 674.608 Q33.7662 681.951 38.7662 686.274 Q43.714 690.597 52.2036 690.597 L85.1722 690.597 L85.1722 700.232 L26.8391 700.232 L26.8391 690.597 L35.9016 690.597 Q30.537 687.316 27.985 682.733 Q25.4329 678.149 25.4329 671.847 Q25.4329 665.493 28.662 661.066 Q31.8912 656.587 38.037 654.451 Z" fill="#000000" fill-rule="nonzero" fill-opacity="1" /><path clip-path="url(#clip462)" d="M367.565 47.2441 L387.618 47.2441 L407.67 47.2441 L427.722 47.2441 L447.775 47.2441 L467.827 47.2441 L487.88 47.2441 L507.932 47.2441 L527.985 47.2441 L548.037 47.2441 L568.089 47.2441 L588.142 47.2441 L608.194 47.2441 L628.247 47.2441 L648.299 47.2441 L668.352 47.2441 L688.404 47.2441 L708.456 47.2441 L728.509 47.2441 L748.561 47.2441 L768.614 47.2441 L788.666 47.2441 L808.719 47.2441 L828.771 47.2441 L848.823 47.2441 L868.876 47.2441 L888.928 47.2441 L908.981 47.2441 L929.033 47.2441 L949.086 47.2441 L969.138 47.2441 L989.191 47.2441 L1009.24 47.2441 L1029.3 47.2441 L1049.35 47.2441 L1069.4 47.2441 L1089.45 47.2441 L1109.51 47.2441 L1129.56 47.2441 L1149.61 47.2441 L1169.66 47.2441 L1189.71 47.2441 L1209.77 47.2441 L1229.82 47.2441 L1249.87 47.2441 L1269.92 47.2441 L1289.98 47.2441 L1310.03 47.2441 L1330.08 47.2441 L1350.13 47.2441 L1370.19 47.2441 L1390.24 47.2441 L1410.29 47.2441 L1430.34 47.2441 L1450.4 47.2441 L1470.45 47.2441 L1490.5 47.2441 L1510.55 47.2441 L1530.61 47.2441 L1550.66 47.2441 L1570.71 47.2441 L1590.76 47.2441 L1610.82 47.2441 L1630.87 47.2441 L1650.92 47.2441 L1670.97 47.2441 L1691.03 47.2441 L1711.08 47.2441 L1731.13 47.2441 L1751.18 47.2441 L1771.24 47.2441 L1791.29 47.2441 L1811.34 47.2441 L1831.39 47.2441 L1851.45 47.2441 L1871.5 47.2441 L1891.55 47.2441 L1911.6 47.2441 L1931.65 47.2441 L1951.71 47.2441 L1971.76 47.2441 L1991.81 47.2441 L2011.86 47.2441 L2031.92 47.2441 L2051.97 47.2441 L2072.02 47.2441 L2092.07 47.2441 L2112.13 47.2441 L2132.18 47.2441 L2152.23 47.2441 L2172.28 47.2441 L2192.34 47.2441 L2212.39 47.2441 L2232.44 47.2441 L2252.49 47.2441 L2272.55 47.2441 L2292.6 47.2441 L2312.65 47.2441 L2332.7 47.2441 L2352.76 47.2441 L2352.76 1362.7 L2332.7 1362.7 L2312.65 1362.7 L2292.6 1362.7 L2272.55 1362.7 L2252.49 1362.7 L2232.44 1362.7 L2212.39 1362.7 L2192.34 1362.7 L2172.28 1362.7 L2152.23 1362.7 L2132.18 1362.7 L2112.13 1362.7 L2092.07 1362.7 L2072.02 1362.7 L2051.97 1362.7 L2031.92 1362.7 L2011.86 1362.7 L1991.81 1362.7 L1971.76 1362.7 L1951.71 1362.7 L1931.65 1362.7 L1911.6 1362.7 L1891.55 1362.7 L1871.5 1362.7 L1851.45 1362.7 L1831.39 1362.7 L1811.34 1362.7 L1791.29 1362.7 L1771.24 1362.7 L1751.18 1362.7 L1731.13 1362.7 L1711.08 1362.7 L1691.03 1362.7 L1670.97 1362.7 L1650.92 1362.7 L1630.87 1362.7 L1610.82 1362.7 L1590.76 1362.7 L1570.71 1362.7 L1550.66 1362.7 L1530.61 1362.7 L1510.55 1362.7 L1490.5 1362.7 L1470.45 1362.7 L1450.4 1362.7 L1430.34 1362.7 L1410.29 1362.7 L1390.24 1362.7 L1370.19 1362.7 L1350.13 1362.7 L1330.08 1362.7 L1310.03 1362.7 L1289.98 1362.7 L1269.92 1362.7 L1249.87 1362.7 L1229.82 1362.7 L1209.77 1362.7 L1189.71 1362.7 L1169.66 1362.7 L1149.61 1362.7 L1129.56 1362.7 L1109.51 1362.7 L1089.45 1362.7 L1069.4 1362.7 L1049.35 1362.7 L1029.3 1362.7 L1009.24 1362.7 L989.191 1362.7 L969.138 1362.7 L949.086 1362.7 L929.033 1362.7 L908.981 1362.7 L888.928 1362.7 L868.876 1362.7 L848.823 1362.7 L828.771 1362.7 L808.719 1362.7 L788.666 1362.7 L768.614 1362.7 L748.561 1362.7 L728.509 1362.7 L708.456 1362.7 L688.404 1362.7 L668.352 1362.7 L648.299 1362.7 L628.247 1362.7 L608.194 1362.7 L588.142 1362.7 L568.089 1362.7 L548.037 1362.7 L527.985 1362.7 L507.932 1362.7 L487.88 1362.7 L467.827 1362.7 L447.775 1362.7 L427.722 1362.7 L407.67 1362.7 L387.618 1362.7 L367.565 1362.7  Z" fill="#009af9" fill-rule="evenodd" fill-opacity="0.45"/>
<polyline clip-path="url(#clip462)" style="stroke:#009af9; stroke-linecap:round; stroke-linejoin:round; stroke-width:4; stroke-opacity:1; fill:none" points="367.565,47.2441 387.618,47.2441 407.67,47.2441 427.722,47.2441 447.775,47.2441 467.827,47.2441 487.88,47.2441 507.932,47.2441 527.985,47.2441 548.037,47.2441 568.089,47.2441 588.142,47.2441 608.194,47.2441 628.247,47.2441 648.299,47.2441 668.352,47.2441 688.404,47.2441 708.456,47.2441 728.509,47.2441 748.561,47.2441 768.614,47.2441 788.666,47.2441 808.719,47.2441 828.771,47.2441 848.823,47.2441 868.876,47.2441 888.928,47.2441 908.981,47.2441 929.033,47.2441 949.086,47.2441 969.138,47.2441 989.191,47.2441 1009.24,47.2441 1029.3,47.2441 1049.35,47.2441 1069.4,47.2441 1089.45,47.2441 1109.51,47.2441 1129.56,47.2441 1149.61,47.2441 1169.66,47.2441 1189.71,47.2441 1209.77,47.2441 1229.82,47.2441 1249.87,47.2441 1269.92,47.2441 1289.98,47.2441 1310.03,47.2441 1330.08,47.2441 1350.13,47.2441 1370.19,47.2441 1390.24,47.2441 1410.29,47.2441 1430.34,47.2441 1450.4,47.2441 1470.45,47.2441 1490.5,47.2441 1510.55,47.2441 1530.61,47.2441 1550.66,47.2441 1570.71,47.2441 1590.76,47.2441 1610.82,47.2441 1630.87,47.2441 1650.92,47.2441 1670.97,47.2441 1691.03,47.2441 1711.08,47.2441 1731.13,47.2441 1751.18,47.2441 1771.24,47.2441 1791.29,47.2441 1811.34,47.2441 1831.39,47.2441 1851.45,47.2441 1871.5,47.2441 1891.55,47.2441 1911.6,47.2441 1931.65,47.2441 1951.71,47.2441 1971.76,47.2441 1991.81,47.2441 2011.86,47.2441 2031.92,47.2441 2051.97,47.2441 2072.02,47.2441 2092.07,47.2441 2112.13,47.2441 2132.18,47.2441 2152.23,47.2441 2172.28,47.2441 2192.34,47.2441 2212.39,47.2441 2232.44,47.2441 2252.49,47.2441 2272.55,47.2441 2292.6,47.2441 2312.65,47.2441 2332.7,47.2441 2352.76,47.2441 "/>
<path clip-path="url(#clip462)" d="M367.565 47.2441 L387.618 47.2441 L407.67 47.2441 L427.722 47.2441 L447.775 47.2441 L467.827 47.2441 L487.88 47.2441 L507.932 47.2441 L527.985 47.2441 L548.037 47.2441 L568.089 47.2441 L588.142 47.2441 L608.194 47.2441 L628.247 47.2441 L648.299 47.2441 L668.352 47.2441 L688.404 47.2441 L708.456 47.2441 L728.509 47.2441 L748.561 47.2441 L768.614 47.2441 L788.666 47.2441 L808.719 47.2441 L828.771 47.2441 L848.823 47.2441 L868.876 47.2441 L888.928 47.2441 L908.981 47.2441 L929.033 47.2441 L949.086 47.2441 L969.138 47.2441 L989.191 47.2441 L1009.24 47.2441 L1029.3 47.2441 L1049.35 47.2441 L1069.4 47.2441 L1089.45 47.2441 L1109.51 47.2441 L1129.56 47.2441 L1149.61 47.2441 L1169.66 47.2441 L1189.71 47.2441 L1209.77 47.2441 L1229.82 47.2441 L1249.87 47.2441 L1269.92 47.2441 L1289.98 47.2441 L1310.03 47.2441 L1330.08 47.2441 L1350.13 47.2441 L1370.19 47.2441 L1390.24 47.2441 L1410.29 47.2441 L1430.34 47.2441 L1450.4 47.2441 L1470.45 47.2441 L1490.5 47.2441 L1510.55 47.2441 L1530.61 47.2441 L1550.66 47.2441 L1570.71 47.2441 L1590.76 47.2441 L1610.82 47.2441 L1630.87 47.2441 L1650.92 47.2441 L1670.97 47.2441 L1691.03 47.2441 L1711.08 47.2441 L1731.13 47.2441 L1751.18 47.2441 L1771.24 47.2441 L1791.29 47.2441 L1811.34 47.2441 L1831.39 47.2441 L1851.45 47.2441 L1871.5 47.2441 L1891.55 47.2441 L1911.6 47.2441 L1931.65 47.2441 L1951.71 47.2441 L1971.76 47.2441 L1991.81 47.2441 L2011.86 47.2441 L2031.92 47.2441 L2051.97 47.2441 L2072.02 47.2441 L2092.07 47.2441 L2112.13 47.2441 L2132.18 47.2441 L2152.23 47.2441 L2172.28 47.2441 L2192.34 47.2441 L2212.39 47.2441 L2232.44 47.2441 L2252.49 47.2441 L2272.55 47.2441 L2292.6 47.2441 L2312.65 47.2441 L2332.7 47.2441 L2352.76 47.2441 L2352.76 1322.84 L2332.7 1322.84 L2312.65 1322.84 L2292.6 1322.84 L2272.55 1322.84 L2252.49 1322.84 L2232.44 1322.84 L2212.39 1322.84 L2192.34 1322.84 L2172.28 1322.84 L2152.23 1322.84 L2132.18 1322.84 L2112.13 1322.84 L2092.07 1322.84 L2072.02 1322.84 L2051.97 1322.84 L2031.92 1322.84 L2011.86 1322.84 L1991.81 1322.84 L1971.76 1322.84 L1951.71 1322.84 L1931.65 1322.84 L1911.6 1322.84 L1891.55 1322.84 L1871.5 1322.84 L1851.45 1336.12 L1831.39 1336.12 L1811.34 1336.12 L1791.29 1336.12 L1771.24 1336.12 L1751.18 1336.12 L1731.13 1336.12 L1711.08 1336.12 L1691.03 1336.12 L1670.97 1336.12 L1650.92 1336.12 L1630.87 1336.12 L1610.82 1336.12 L1590.76 1336.12 L1570.71 1336.12 L1550.66 1336.12 L1530.61 1336.12 L1510.55 1336.12 L1490.5 1336.12 L1470.45 1336.12 L1450.4 1336.12 L1430.34 1336.12 L1410.29 1336.12 L1390.24 1336.12 L1370.19 1336.12 L1350.13 1336.12 L1330.08 1336.12 L1310.03 1336.12 L1289.98 1336.12 L1269.92 1336.12 L1249.87 1336.12 L1229.82 1336.12 L1209.77 1336.12 L1189.71 1349.41 L1169.66 1349.41 L1149.61 1349.41 L1129.56 1349.41 L1109.51 1349.41 L1089.45 1349.41 L1069.4 1349.41 L1049.35 1349.41 L1029.3 1349.41 L1009.24 1349.41 L989.191 1349.41 L969.138 1349.41 L949.086 1349.41 L929.033 1349.41 L908.981 1349.41 L888.928 1349.41 L868.876 1349.41 L848.823 1349.41 L828.771 1349.41 L808.719 1349.41 L788.666 1362.7 L768.614 1362.7 L748.561 1362.7 L728.509 1362.7 L708.456 1362.7 L688.404 1362.7 L668.352 1362.7 L648.299 1362.7 L628.247 1362.7 L608.194 1362.7 L588.142 1362.7 L568.089 1362.7 L548.037 1362.7 L527.985 1362.7 L507.932 1362.7 L487.88 1362.7 L467.827 1362.7 L447.775 1362.7 L427.722 1362.7 L407.67 1362.7 L387.618 1362.7 L367.565 1362.7  Z" fill="#e26f46" fill-rule="evenodd" fill-opacity="0.45"/>
<polyline clip-path="url(#clip462)" style="stroke:#e26f46; stroke-linecap:round; stroke-linejoin:round; stroke-width:4; stroke-opacity:1; fill:none" points="367.565,47.2441 387.618,47.2441 407.67,47.2441 427.722,47.2441 447.775,47.2441 467.827,47.2441 487.88,47.2441 507.932,47.2441 527.985,47.2441 548.037,47.2441 568.089,47.2441 588.142,47.2441 608.194,47.2441 628.247,47.2441 648.299,47.2441 668.352,47.2441 688.404,47.2441 708.456,47.2441 728.509,47.2441 748.561,47.2441 768.614,47.2441 788.666,47.2441 808.719,47.2441 828.771,47.2441 848.823,47.2441 868.876,47.2441 888.928,47.2441 908.981,47.2441 929.033,47.2441 949.086,47.2441 969.138,47.2441 989.191,47.2441 1009.24,47.2441 1029.3,47.2441 1049.35,47.2441 1069.4,47.2441 1089.45,47.2441 1109.51,47.2441 1129.56,47.2441 1149.61,47.2441 1169.66,47.2441 1189.71,47.2441 1209.77,47.2441 1229.82,47.2441 1249.87,47.2441 1269.92,47.2441 1289.98,47.2441 1310.03,47.2441 1330.08,47.2441 1350.13,47.2441 1370.19,47.2441 1390.24,47.2441 1410.29,47.2441 1430.34,47.2441 1450.4,47.2441 1470.45,47.2441 1490.5,47.2441 1510.55,47.2441 1530.61,47.2441 1550.66,47.2441 1570.71,47.2441 1590.76,47.2441 1610.82,47.2441 1630.87,47.2441 1650.92,47.2441 1670.97,47.2441 1691.03,47.2441 1711.08,47.2441 1731.13,47.2441 1751.18,47.2441 1771.24,47.2441 1791.29,47.2441 1811.34,47.2441 1831.39,47.2441 1851.45,47.2441 1871.5,47.2441 1891.55,47.2441 1911.6,47.2441 1931.65,47.2441 1951.71,47.2441 1971.76,47.2441 1991.81,47.2441 2011.86,47.2441 2031.92,47.2441 2051.97,47.2441 2072.02,47.2441 2092.07,47.2441 2112.13,47.2441 2132.18,47.2441 2152.23,47.2441 2172.28,47.2441 2192.34,47.2441 2212.39,47.2441 2232.44,47.2441 2252.49,47.2441 2272.55,47.2441 2292.6,47.2441 2312.65,47.2441 2332.7,47.2441 2352.76,47.2441 "/>
<path clip-path="url(#clip462)" d="M367.565 47.2441 L387.618 47.2441 L407.67 47.2441 L427.722 47.2441 L447.775 47.2441 L467.827 47.2441 L487.88 47.2441 L507.932 47.2441 L527.985 47.2441 L548.037 47.2441 L568.089 47.2441 L588.142 47.2441 L608.194 47.2441 L628.247 47.2441 L648.299 47.2441 L668.352 47.2441 L688.404 47.2441 L708.456 47.2441 L728.509 47.2441 L748.561 47.2441 L768.614 47.2441 L788.666 47.2441 L808.719 47.2441 L828.771 47.2441 L848.823 47.2441 L868.876 47.2441 L888.928 47.2441 L908.981 47.2441 L929.033 47.2441 L949.086 47.2441 L969.138 47.2441 L989.191 47.2441 L1009.24 47.2441 L1029.3 47.2441 L1049.35 47.2441 L1069.4 47.2441 L1089.45 47.2441 L1109.51 47.2441 L1129.56 47.2441 L1149.61 47.2441 L1169.66 47.2441 L1189.71 47.2441 L1209.77 47.2441 L1229.82 47.2441 L1249.87 47.2441 L1269.92 47.2441 L1289.98 47.2441 L1310.03 47.2441 L1330.08 47.2441 L1350.13 47.2441 L1370.19 47.2441 L1390.24 47.2441 L1410.29 47.2441 L1430.34 47.2441 L1450.4 47.2441 L1470.45 47.2441 L1490.5 47.2441 L1510.55 47.2441 L1530.61 47.2441 L1550.66 47.2441 L1570.71 47.2441 L1590.76 47.2441 L1610.82 47.2441 L1630.87 47.2441 L1650.92 47.2441 L1670.97 47.2441 L1691.03 47.2441 L1711.08 47.2441 L1731.13 47.2441 L1751.18 47.2441 L1771.24 47.2441 L1791.29 47.2441 L1811.34 47.2441 L1831.39 47.2441 L1851.45 47.2441 L1871.5 47.2441 L1891.55 47.2441 L1911.6 47.2441 L1931.65 47.2441 L1951.71 47.2441 L1971.76 47.2441 L1991.81 47.2441 L2011.86 47.2441 L2031.92 47.2441 L2051.97 47.2441 L2072.02 47.2441 L2092.07 47.2441 L2112.13 47.2441 L2132.18 47.2441 L2152.23 47.2441 L2172.28 47.2441 L2192.34 47.2441 L2212.39 47.2441 L2232.44 47.2441 L2252.49 47.2441 L2272.55 47.2441 L2292.6 47.2441 L2312.65 47.2441 L2332.7 47.2441 L2352.76 47.2441 L2352.76 1256.4 L2332.7 1256.4 L2312.65 1256.4 L2292.6 1256.4 L2272.55 1256.4 L2252.49 1256.4 L2232.44 1256.4 L2212.39 1256.4 L2192.34 1256.4 L2172.28 1256.4 L2152.23 1256.4 L2132.18 1256.4 L2112.13 1256.4 L2092.07 1256.4 L2072.02 1256.4 L2051.97 1256.4 L2031.92 1256.4 L2011.86 1256.4 L1991.81 1269.69 L1971.76 1269.69 L1951.71 1269.69 L1931.65 1269.69 L1911.6 1269.69 L1891.55 1269.69 L1871.5 1269.69 L1851.45 1269.69 L1831.39 1269.69 L1811.34 1269.69 L1791.29 1269.69 L1771.24 1269.69 L1751.18 1269.69 L1731.13 1269.69 L1711.08 1269.69 L1691.03 1269.69 L1670.97 1269.69 L1650.92 1269.69 L1630.87 1269.69 L1610.82 1269.69 L1590.76 1269.69 L1570.71 1269.69 L1550.66 1269.69 L1530.61 1269.69 L1510.55 1282.98 L1490.5 1282.98 L1470.45 1282.98 L1450.4 1282.98 L1430.34 1282.98 L1410.29 1282.98 L1390.24 1282.98 L1370.19 1282.98 L1350.13 1282.98 L1330.08 1282.98 L1310.03 1282.98 L1289.98 1282.98 L1269.92 1282.98 L1249.87 1282.98 L1229.82 1282.98 L1209.77 1282.98 L1189.71 1282.98 L1169.66 1296.26 L1149.61 1296.26 L1129.56 1296.26 L1109.51 1296.26 L1089.45 1296.26 L1069.4 1296.26 L1049.35 1296.26 L1029.3 1296.26 L1009.24 1296.26 L989.191 1296.26 L969.138 1296.26 L949.086 1309.55 L929.033 1309.55 L908.981 1309.55 L888.928 1309.55 L868.876 1309.55 L848.823 1309.55 L828.771 1309.55 L808.719 1309.55 L788.666 1309.55 L768.614 1322.84 L748.561 1322.84 L728.509 1322.84 L708.456 1322.84 L688.404 1322.84 L668.352 1322.84 L648.299 1322.84 L628.247 1336.12 L608.194 1336.12 L588.142 1336.12 L568.089 1336.12 L548.037 1336.12 L527.985 1349.41 L507.932 1349.41 L487.88 1349.41 L467.827 1349.41 L447.775 1349.41 L427.722 1362.7 L407.67 1362.7 L387.618 1362.7 L367.565 1362.7  Z" fill="#3da44d" fill-rule="evenodd" fill-opacity="0.45"/>
<polyline clip-path="url(#clip462)" style="stroke:#3da44d; stroke-linecap:round; stroke-linejoin:round; stroke-width:4; stroke-opacity:1; fill:none" points="367.565,47.2441 387.618,47.2441 407.67,47.2441 427.722,47.2441 447.775,47.2441 467.827,47.2441 487.88,47.2441 507.932,47.2441 527.985,47.2441 548.037,47.2441 568.089,47.2441 588.142,47.2441 608.194,47.2441 628.247,47.2441 648.299,47.2441 668.352,47.2441 688.404,47.2441 708.456,47.2441 728.509,47.2441 748.561,47.2441 768.614,47.2441 788.666,47.2441 808.719,47.2441 828.771,47.2441 848.823,47.2441 868.876,47.2441 888.928,47.2441 908.981,47.2441 929.033,47.2441 949.086,47.2441 969.138,47.2441 989.191,47.2441 1009.24,47.2441 1029.3,47.2441 1049.35,47.2441 1069.4,47.2441 1089.45,47.2441 1109.51,47.2441 1129.56,47.2441 1149.61,47.2441 1169.66,47.2441 1189.71,47.2441 1209.77,47.2441 1229.82,47.2441 1249.87,47.2441 1269.92,47.2441 1289.98,47.2441 1310.03,47.2441 1330.08,47.2441 1350.13,47.2441 1370.19,47.2441 1390.24,47.2441 1410.29,47.2441 1430.34,47.2441 1450.4,47.2441 1470.45,47.2441 1490.5,47.2441 1510.55,47.2441 1530.61,47.2441 1550.66,47.2441 1570.71,47.2441 1590.76,47.2441 1610.82,47.2441 1630.87,47.2441 1650.92,47.2441 1670.97,47.2441 1691.03,47.2441 1711.08,47.2441 1731.13,47.2441 1751.18,47.2441 1771.24,47.2441 1791.29,47.2441 1811.34,47.2441 1831.39,47.2441 1851.45,47.2441 1871.5,47.2441 1891.55,47.2441 1911.6,47.2441 1931.65,47.2441 1951.71,47.2441 1971.76,47.2441 1991.81,47.2441 2011.86,47.2441 2031.92,47.2441 2051.97,47.2441 2072.02,47.2441 2092.07,47.2441 2112.13,47.2441 2132.18,47.2441 2152.23,47.2441 2172.28,47.2441 2192.34,47.2441 2212.39,47.2441 2232.44,47.2441 2252.49,47.2441 2272.55,47.2441 2292.6,47.2441 2312.65,47.2441 2332.7,47.2441 2352.76,47.2441 "/>
<path clip-path="url(#clip462)" d="M367.565 47.2441 L387.618 47.2441 L407.67 47.2441 L427.722 47.2441 L447.775 47.2441 L467.827 47.2441 L487.88 47.2441 L507.932 47.2441 L527.985 47.2441 L548.037 47.2441 L568.089 47.2441 L588.142 47.2441 L608.194 47.2441 L628.247 47.2441 L648.299 47.2441 L668.352 47.2441 L688.404 47.2441 L708.456 47.2441 L728.509 47.2441 L748.561 47.2441 L768.614 47.2441 L788.666 47.2441 L808.719 47.2441 L828.771 47.2441 L848.823 47.2441 L868.876 47.2441 L888.928 47.2441 L908.981 47.2441 L929.033 47.2441 L949.086 47.2441 L969.138 47.2441 L989.191 47.2441 L1009.24 47.2441 L1029.3 47.2441 L1049.35 47.2441 L1069.4 47.2441 L1089.45 47.2441 L1109.51 47.2441 L1129.56 47.2441 L1149.61 47.2441 L1169.66 47.2441 L1189.71 47.2441 L1209.77 47.2441 L1229.82 47.2441 L1249.87 47.2441 L1269.92 47.2441 L1289.98 47.2441 L1310.03 47.2441 L1330.08 47.2441 L1350.13 47.2441 L1370.19 47.2441 L1390.24 47.2441 L1410.29 47.2441 L1430.34 47.2441 L1450.4 47.2441 L1470.45 47.2441 L1490.5 47.2441 L1510.55 47.2441 L1530.61 47.2441 L1550.66 47.2441 L1570.71 47.2441 L1590.76 47.2441 L1610.82 47.2441 L1630.87 47.2441 L1650.92 47.2441 L1670.97 47.2441 L1691.03 47.2441 L1711.08 47.2441 L1731.13 47.2441 L1751.18 47.2441 L1771.24 47.2441 L1791.29 47.2441 L1811.34 47.2441 L1831.39 47.2441 L1851.45 47.2441 L1871.5 47.2441 L1891.55 47.2441 L1911.6 47.2441 L1931.65 47.2441 L1951.71 47.2441 L1971.76 47.2441 L1991.81 47.2441 L2011.86 47.2441 L2031.92 47.2441 L2051.97 47.2441 L2072.02 47.2441 L2092.07 47.2441 L2112.13 47.2441 L2132.18 47.2441 L2152.23 47.2441 L2172.28 47.2441 L2192.34 47.2441 L2212.39 47.2441 L2232.44 47.2441 L2252.49 47.2441 L2272.55 47.2441 L2292.6 47.2441 L2312.65 47.2441 L2332.7 47.2441 L2352.76 47.2441 L2352.76 1136.81 L2332.7 1136.81 L2312.65 1136.81 L2292.6 1136.81 L2272.55 1136.81 L2252.49 1136.81 L2232.44 1136.81 L2212.39 1136.81 L2192.34 1136.81 L2172.28 1136.81 L2152.23 1136.81 L2132.18 1136.81 L2112.13 1136.81 L2092.07 1150.1 L2072.02 1150.1 L2051.97 1150.1 L2031.92 1150.1 L2011.86 1150.1 L1991.81 1150.1 L1971.76 1150.1 L1951.71 1150.1 L1931.65 1150.1 L1911.6 1150.1 L1891.55 1150.1 L1871.5 1150.1 L1851.45 1150.1 L1831.39 1150.1 L1811.34 1150.1 L1791.29 1150.1 L1771.24 1150.1 L1751.18 1150.1 L1731.13 1150.1 L1711.08 1150.1 L1691.03 1163.39 L1670.97 1163.39 L1650.92 1163.39 L1630.87 1163.39 L1610.82 1163.39 L1590.76 1163.39 L1570.71 1163.39 L1550.66 1163.39 L1530.61 1163.39 L1510.55 1163.39 L1490.5 1163.39 L1470.45 1163.39 L1450.4 1163.39 L1430.34 1163.39 L1410.29 1176.68 L1390.24 1176.68 L1370.19 1176.68 L1350.13 1176.68 L1330.08 1176.68 L1310.03 1176.68 L1289.98 1176.68 L1269.92 1176.68 L1249.87 1176.68 L1229.82 1176.68 L1209.77 1189.96 L1189.71 1189.96 L1169.66 1189.96 L1149.61 1189.96 L1129.56 1189.96 L1109.51 1189.96 L1089.45 1189.96 L1069.4 1203.25 L1049.35 1203.25 L1029.3 1203.25 L1009.24 1203.25 L989.191 1203.25 L969.138 1203.25 L949.086 1203.25 L929.033 1216.54 L908.981 1216.54 L888.928 1216.54 L868.876 1216.54 L848.823 1216.54 L828.771 1229.83 L808.719 1229.83 L788.666 1229.83 L768.614 1229.83 L748.561 1243.11 L728.509 1243.11 L708.456 1243.11 L688.404 1243.11 L668.352 1256.4 L648.299 1256.4 L628.247 1256.4 L608.194 1269.69 L588.142 1269.69 L568.089 1269.69 L548.037 1282.98 L527.985 1282.98 L507.932 1296.26 L487.88 1296.26 L467.827 1309.55 L447.775 1309.55 L427.722 1322.84 L407.67 1322.84 L387.618 1336.12 L367.565 1336.12  Z" fill="#c271d2" fill-rule="evenodd" fill-opacity="0.45"/>
<polyline clip-path="url(#clip462)" style="stroke:#c271d2; stroke-linecap:round; stroke-linejoin:round; stroke-width:4; stroke-opacity:1; fill:none" points="367.565,47.2441 387.618,47.2441 407.67,47.2441 427.722,47.2441 447.775,47.2441 467.827,47.2441 487.88,47.2441 507.932,47.2441 527.985,47.2441 548.037,47.2441 568.089,47.2441 588.142,47.2441 608.194,47.2441 628.247,47.2441 648.299,47.2441 668.352,47.2441 688.404,47.2441 708.456,47.2441 728.509,47.2441 748.561,47.2441 768.614,47.2441 788.666,47.2441 808.719,47.2441 828.771,47.2441 848.823,47.2441 868.876,47.2441 888.928,47.2441 908.981,47.2441 929.033,47.2441 949.086,47.2441 969.138,47.2441 989.191,47.2441 1009.24,47.2441 1029.3,47.2441 1049.35,47.2441 1069.4,47.2441 1089.45,47.2441 1109.51,47.2441 1129.56,47.2441 1149.61,47.2441 1169.66,47.2441 1189.71,47.2441 1209.77,47.2441 1229.82,47.2441 1249.87,47.2441 1269.92,47.2441 1289.98,47.2441 1310.03,47.2441 1330.08,47.2441 1350.13,47.2441 1370.19,47.2441 1390.24,47.2441 1410.29,47.2441 1430.34,47.2441 1450.4,47.2441 1470.45,47.2441 1490.5,47.2441 1510.55,47.2441 1530.61,47.2441 1550.66,47.2441 1570.71,47.2441 1590.76,47.2441 1610.82,47.2441 1630.87,47.2441 1650.92,47.2441 1670.97,47.2441 1691.03,47.2441 1711.08,47.2441 1731.13,47.2441 1751.18,47.2441 1771.24,47.2441 1791.29,47.2441 1811.34,47.2441 1831.39,47.2441 1851.45,47.2441 1871.5,47.2441 1891.55,47.2441 1911.6,47.2441 1931.65,47.2441 1951.71,47.2441 1971.76,47.2441 1991.81,47.2441 2011.86,47.2441 2031.92,47.2441 2051.97,47.2441 2072.02,47.2441 2092.07,47.2441 2112.13,47.2441 2132.18,47.2441 2152.23,47.2441 2172.28,47.2441 2192.34,47.2441 2212.39,47.2441 2232.44,47.2441 2252.49,47.2441 2272.55,47.2441 2292.6,47.2441 2312.65,47.2441 2332.7,47.2441 2352.76,47.2441 "/>
<path clip-path="url(#clip462)" d="M367.565 47.2441 L387.618 47.2441 L407.67 47.2441 L427.722 47.2441 L447.775 47.2441 L467.827 47.2441 L487.88 47.2441 L507.932 47.2441 L527.985 47.2441 L548.037 47.2441 L568.089 47.2441 L588.142 47.2441 L608.194 47.2441 L628.247 47.2441 L648.299 47.2441 L668.352 47.2441 L688.404 47.2441 L708.456 47.2441 L728.509 47.2441 L748.561 47.2441 L768.614 47.2441 L788.666 47.2441 L808.719 47.2441 L828.771 47.2441 L848.823 47.2441 L868.876 47.2441 L888.928 47.2441 L908.981 47.2441 L929.033 47.2441 L949.086 47.2441 L969.138 47.2441 L989.191 47.2441 L1009.24 47.2441 L1029.3 47.2441 L1049.35 47.2441 L1069.4 47.2441 L1089.45 47.2441 L1109.51 47.2441 L1129.56 47.2441 L1149.61 47.2441 L1169.66 47.2441 L1189.71 47.2441 L1209.77 47.2441 L1229.82 47.2441 L1249.87 47.2441 L1269.92 47.2441 L1289.98 47.2441 L1310.03 47.2441 L1330.08 47.2441 L1350.13 47.2441 L1370.19 47.2441 L1390.24 47.2441 L1410.29 47.2441 L1430.34 47.2441 L1450.4 47.2441 L1470.45 47.2441 L1490.5 47.2441 L1510.55 47.2441 L1530.61 47.2441 L1550.66 47.2441 L1570.71 47.2441 L1590.76 47.2441 L1610.82 47.2441 L1630.87 47.2441 L1650.92 47.2441 L1670.97 47.2441 L1691.03 47.2441 L1711.08 47.2441 L1731.13 47.2441 L1751.18 47.2441 L1771.24 47.2441 L1791.29 47.2441 L1811.34 47.2441 L1831.39 47.2441 L1851.45 47.2441 L1871.5 47.2441 L1891.55 47.2441 L1911.6 47.2441 L1931.65 47.2441 L1951.71 47.2441 L1971.76 47.2441 L1991.81 47.2441 L2011.86 47.2441 L2031.92 47.2441 L2051.97 47.2441 L2072.02 47.2441 L2092.07 47.2441 L2112.13 47.2441 L2132.18 47.2441 L2152.23 47.2441 L2172.28 47.2441 L2192.34 47.2441 L2212.39 47.2441 L2232.44 47.2441 L2252.49 47.2441 L2272.55 47.2441 L2292.6 47.2441 L2312.65 47.2441 L2332.7 47.2441 L2352.76 47.2441 L2352.76 937.502 L2332.7 937.502 L2312.65 937.502 L2292.6 937.502 L2272.55 937.502 L2252.49 937.502 L2232.44 937.502 L2212.39 937.502 L2192.34 937.502 L2172.28 937.502 L2152.23 937.502 L2132.18 937.502 L2112.13 937.502 L2092.07 937.502 L2072.02 937.502 L2051.97 937.502 L2031.92 937.502 L2011.86 937.502 L1991.81 950.789 L1971.76 950.789 L1951.71 950.789 L1931.65 950.789 L1911.6 950.789 L1891.55 950.789 L1871.5 950.789 L1851.45 950.789 L1831.39 950.789 L1811.34 950.789 L1791.29 950.789 L1771.24 950.789 L1751.18 950.789 L1731.13 950.789 L1711.08 964.077 L1691.03 964.077 L1670.97 964.077 L1650.92 964.077 L1630.87 964.077 L1610.82 964.077 L1590.76 964.077 L1570.71 964.077 L1550.66 964.077 L1530.61 964.077 L1510.55 977.364 L1490.5 977.364 L1470.45 977.364 L1450.4 977.364 L1430.34 977.364 L1410.29 977.364 L1390.24 977.364 L1370.19 977.364 L1350.13 990.652 L1330.08 990.652 L1310.03 990.652 L1289.98 990.652 L1269.92 990.652 L1249.87 990.652 L1229.82 990.652 L1209.77 1003.94 L1189.71 1003.94 L1169.66 1003.94 L1149.61 1003.94 L1129.56 1003.94 L1109.51 1017.23 L1089.45 1017.23 L1069.4 1017.23 L1049.35 1017.23 L1029.3 1017.23 L1009.24 1030.51 L989.191 1030.51 L969.138 1030.51 L949.086 1030.51 L929.033 1043.8 L908.981 1043.8 L888.928 1043.8 L868.876 1057.09 L848.823 1057.09 L828.771 1057.09 L808.719 1070.38 L788.666 1070.38 L768.614 1070.38 L748.561 1083.66 L728.509 1083.66 L708.456 1096.95 L688.404 1096.95 L668.352 1110.24 L648.299 1110.24 L628.247 1123.53 L608.194 1136.81 L588.142 1136.81 L568.089 1150.1 L548.037 1163.39 L527.985 1163.39 L507.932 1176.68 L487.88 1189.96 L467.827 1203.25 L447.775 1216.54 L427.722 1229.83 L407.67 1243.11 L387.618 1269.69 L367.565 1282.98  Z" fill="#ac8d18" fill-rule="evenodd" fill-opacity="0.45"/>
<polyline clip-path="url(#clip462)" style="stroke:#ac8d18; stroke-linecap:round; stroke-linejoin:round; stroke-width:4; stroke-opacity:1; fill:none" points="367.565,47.2441 387.618,47.2441 407.67,47.2441 427.722,47.2441 447.775,47.2441 467.827,47.2441 487.88,47.2441 507.932,47.2441 527.985,47.2441 548.037,47.2441 568.089,47.2441 588.142,47.2441 608.194,47.2441 628.247,47.2441 648.299,47.2441 668.352,47.2441 688.404,47.2441 708.456,47.2441 728.509,47.2441 748.561,47.2441 768.614,47.2441 788.666,47.2441 808.719,47.2441 828.771,47.2441 848.823,47.2441 868.876,47.2441 888.928,47.2441 908.981,47.2441 929.033,47.2441 949.086,47.2441 969.138,47.2441 989.191,47.2441 1009.24,47.2441 1029.3,47.2441 1049.35,47.2441 1069.4,47.2441 1089.45,47.2441 1109.51,47.2441 1129.56,47.2441 1149.61,47.2441 1169.66,47.2441 1189.71,47.2441 1209.77,47.2441 1229.82,47.2441 1249.87,47.2441 1269.92,47.2441 1289.98,47.2441 1310.03,47.2441 1330.08,47.2441 1350.13,47.2441 1370.19,47.2441 1390.24,47.2441 1410.29,47.2441 1430.34,47.2441 1450.4,47.2441 1470.45,47.2441 1490.5,47.2441 1510.55,47.2441 1530.61,47.2441 1550.66,47.2441 1570.71,47.2441 1590.76,47.2441 1610.82,47.2441 1630.87,47.2441 1650.92,47.2441 1670.97,47.2441 1691.03,47.2441 1711.08,47.2441 1731.13,47.2441 1751.18,47.2441 1771.24,47.2441 1791.29,47.2441 1811.34,47.2441 1831.39,47.2441 1851.45,47.2441 1871.5,47.2441 1891.55,47.2441 1911.6,47.2441 1931.65,47.2441 1951.71,47.2441 1971.76,47.2441 1991.81,47.2441 2011.86,47.2441 2031.92,47.2441 2051.97,47.2441 2072.02,47.2441 2092.07,47.2441 2112.13,47.2441 2132.18,47.2441 2152.23,47.2441 2172.28,47.2441 2192.34,47.2441 2212.39,47.2441 2232.44,47.2441 2252.49,47.2441 2272.55,47.2441 2292.6,47.2441 2312.65,47.2441 2332.7,47.2441 2352.76,47.2441 "/>
<path clip-path="url(#clip460)" d="M1777.74 1318.85 L2286.58 1318.85 L2286.58 1007.81 L1777.74 1007.81  Z" fill="#ffffff" fill-rule="evenodd" fill-opacity="1"/>
<polyline clip-path="url(#clip460)" style="stroke:#000000; stroke-linecap:round; stroke-linejoin:round; stroke-width:4; stroke-opacity:1; fill:none" points="1777.74,1318.85 2286.58,1318.85 2286.58,1007.81 1777.74,1007.81 1777.74,1318.85 "/>
<path clip-path="url(#clip460)" d="M1799.8 1080.39 L1932.15 1080.39 L1932.15 1038.92 L1799.8 1038.92 L1799.8 1080.39  Z" fill="#009af9" fill-rule="evenodd" fill-opacity="0.45"/>
<polyline clip-path="url(#clip460)" style="stroke:#009af9; stroke-linecap:round; stroke-linejoin:round; stroke-width:4; stroke-opacity:1; fill:none" points="1799.8,1038.92 1932.15,1038.92 "/>
<path clip-path="url(#clip460)" d="M1954.87 1073 L1962.51 1073 L1962.51 1046.63 L1954.2 1048.3 L1954.2 1044.04 L1962.47 1042.37 L1967.14 1042.37 L1967.14 1073 L1974.78 1073 L1974.78 1076.93 L1954.87 1076.93 L1954.87 1073 Z" fill="#000000" fill-rule="nonzero" fill-opacity="1" /><path clip-path="url(#clip460)" d="M2005.8 1062.9 L2005.8 1064.99 L1986.22 1064.99 Q1986.49 1069.39 1988.86 1071.7 Q1991.24 1073.99 1995.48 1073.99 Q1997.93 1073.99 2000.22 1073.39 Q2002.54 1072.79 2004.8 1071.58 L2004.8 1075.61 Q2002.51 1076.58 2000.11 1077.09 Q1997.7 1077.6 1995.22 1077.6 Q1989.02 1077.6 1985.38 1073.99 Q1981.77 1070.38 1981.77 1064.22 Q1981.77 1057.86 1985.2 1054.13 Q1988.65 1050.38 1994.48 1050.38 Q1999.71 1050.38 2002.74 1053.76 Q2005.8 1057.12 2005.8 1062.9 M2001.54 1061.65 Q2001.49 1058.16 1999.57 1056.07 Q1997.67 1053.99 1994.53 1053.99 Q1990.96 1053.99 1988.81 1056.01 Q1986.68 1058.02 1986.36 1061.68 L2001.54 1061.65 Z" fill="#000000" fill-rule="nonzero" fill-opacity="1" /><path clip-path="url(#clip460)" d="M2010.64 1062.05 L2023.11 1062.05 L2023.11 1065.84 L2010.64 1065.84 L2010.64 1062.05 Z" fill="#000000" fill-rule="nonzero" fill-opacity="1" /><path clip-path="url(#clip460)" d="M2040.5 1045.45 Q2036.89 1045.45 2035.06 1049.01 Q2033.25 1052.56 2033.25 1059.69 Q2033.25 1066.79 2035.06 1070.36 Q2036.89 1073.9 2040.5 1073.9 Q2044.13 1073.9 2045.94 1070.36 Q2047.77 1066.79 2047.77 1059.69 Q2047.77 1052.56 2045.94 1049.01 Q2044.13 1045.45 2040.5 1045.45 M2040.5 1041.75 Q2046.31 1041.75 2049.36 1046.35 Q2052.44 1050.94 2052.44 1059.69 Q2052.44 1068.41 2049.36 1073.02 Q2046.31 1077.6 2040.5 1077.6 Q2034.69 1077.6 2031.61 1073.02 Q2028.55 1068.41 2028.55 1059.69 Q2028.55 1050.94 2031.61 1046.35 Q2034.69 1041.75 2040.5 1041.75 Z" fill="#000000" fill-rule="nonzero" fill-opacity="1" /><path clip-path="url(#clip460)" d="M2060.71 1042.37 L2079.06 1042.37 L2079.06 1046.31 L2064.99 1046.31 L2064.99 1054.78 Q2066.01 1054.43 2067.03 1054.27 Q2068.04 1054.08 2069.06 1054.08 Q2074.85 1054.08 2078.23 1057.26 Q2081.61 1060.43 2081.61 1065.84 Q2081.61 1071.42 2078.14 1074.52 Q2074.67 1077.6 2068.35 1077.6 Q2066.17 1077.6 2063.9 1077.23 Q2061.66 1076.86 2059.25 1076.12 L2059.25 1071.42 Q2061.33 1072.56 2063.55 1073.11 Q2065.78 1073.67 2068.25 1073.67 Q2072.26 1073.67 2074.6 1071.56 Q2076.93 1069.45 2076.93 1065.84 Q2076.93 1062.23 2074.6 1060.13 Q2072.26 1058.02 2068.25 1058.02 Q2066.38 1058.02 2064.5 1058.44 Q2062.65 1058.85 2060.71 1059.73 L2060.71 1042.37 Z" fill="#000000" fill-rule="nonzero" fill-opacity="1" /><path clip-path="url(#clip460)" d="M1799.8 1132.23 L1932.15 1132.23 L1932.15 1090.76 L1799.8 1090.76 L1799.8 1132.23  Z" fill="#e26f46" fill-rule="evenodd" fill-opacity="0.45"/>
<polyline clip-path="url(#clip460)" style="stroke:#e26f46; stroke-linecap:round; stroke-linejoin:round; stroke-width:4; stroke-opacity:1; fill:none" points="1799.8,1090.76 1932.15,1090.76 "/>
<path clip-path="url(#clip460)" d="M1955.66 1094.21 L1974.02 1094.21 L1974.02 1098.15 L1959.94 1098.15 L1959.94 1106.62 Q1960.96 1106.27 1961.98 1106.11 Q1963 1105.92 1964.02 1105.92 Q1969.8 1105.92 1973.18 1109.1 Q1976.56 1112.27 1976.56 1117.68 Q1976.56 1123.26 1973.09 1126.36 Q1969.62 1129.44 1963.3 1129.44 Q1961.12 1129.44 1958.86 1129.07 Q1956.61 1128.7 1954.2 1127.96 L1954.2 1123.26 Q1956.29 1124.4 1958.51 1124.95 Q1960.73 1125.51 1963.21 1125.51 Q1967.21 1125.51 1969.55 1123.4 Q1971.89 1121.29 1971.89 1117.68 Q1971.89 1114.07 1969.55 1111.97 Q1967.21 1109.86 1963.21 1109.86 Q1961.33 1109.86 1959.46 1110.28 Q1957.61 1110.69 1955.66 1111.57 L1955.66 1094.21 Z" fill="#000000" fill-rule="nonzero" fill-opacity="1" /><path clip-path="url(#clip460)" d="M1985.78 1122.89 L1990.66 1122.89 L1990.66 1128.77 L1985.78 1128.77 L1985.78 1122.89 Z" fill="#000000" fill-rule="nonzero" fill-opacity="1" /><path clip-path="url(#clip460)" d="M2011.42 1109.63 Q2008.28 1109.63 2006.42 1111.78 Q2004.6 1113.93 2004.6 1117.68 Q2004.6 1121.41 2006.42 1123.59 Q2008.28 1125.74 2011.42 1125.74 Q2014.57 1125.74 2016.4 1123.59 Q2018.25 1121.41 2018.25 1117.68 Q2018.25 1113.93 2016.4 1111.78 Q2014.57 1109.63 2011.42 1109.63 M2020.71 1094.98 L2020.71 1099.23 Q2018.95 1098.4 2017.14 1097.96 Q2015.36 1097.52 2013.6 1097.52 Q2008.97 1097.52 2006.52 1100.65 Q2004.09 1103.77 2003.74 1110.09 Q2005.11 1108.08 2007.17 1107.01 Q2009.23 1105.92 2011.7 1105.92 Q2016.91 1105.92 2019.92 1109.1 Q2022.95 1112.24 2022.95 1117.68 Q2022.95 1123.01 2019.8 1126.23 Q2016.66 1129.44 2011.42 1129.44 Q2005.43 1129.44 2002.26 1124.86 Q1999.09 1120.25 1999.09 1111.53 Q1999.09 1103.33 2002.98 1098.47 Q2006.86 1093.59 2013.42 1093.59 Q2015.17 1093.59 2016.96 1093.93 Q2018.76 1094.28 2020.71 1094.98 Z" fill="#000000" fill-rule="nonzero" fill-opacity="1" /><path clip-path="url(#clip460)" d="M2035.04 1124.84 L2051.36 1124.84 L2051.36 1128.77 L2029.41 1128.77 L2029.41 1124.84 Q2032.07 1122.08 2036.66 1117.45 Q2041.26 1112.8 2042.44 1111.46 Q2044.69 1108.93 2045.57 1107.2 Q2046.47 1105.44 2046.47 1103.75 Q2046.47 1100.99 2044.53 1099.26 Q2042.61 1097.52 2039.5 1097.52 Q2037.3 1097.52 2034.85 1098.29 Q2032.42 1099.05 2029.64 1100.6 L2029.64 1095.88 Q2032.47 1094.74 2034.92 1094.17 Q2037.37 1093.59 2039.41 1093.59 Q2044.78 1093.59 2047.98 1096.27 Q2051.17 1098.96 2051.17 1103.45 Q2051.17 1105.58 2050.36 1107.5 Q2049.57 1109.4 2047.47 1111.99 Q2046.89 1112.66 2043.79 1115.88 Q2040.68 1119.07 2035.04 1124.84 Z" fill="#000000" fill-rule="nonzero" fill-opacity="1" /><path clip-path="url(#clip460)" d="M2075.34 1110.14 Q2078.69 1110.85 2080.57 1113.12 Q2082.47 1115.39 2082.47 1118.73 Q2082.47 1123.84 2078.95 1126.64 Q2075.43 1129.44 2068.95 1129.44 Q2066.77 1129.44 2064.46 1129 Q2062.17 1128.59 2059.71 1127.73 L2059.71 1123.22 Q2061.66 1124.35 2063.97 1124.93 Q2066.29 1125.51 2068.81 1125.51 Q2073.21 1125.51 2075.5 1123.77 Q2077.81 1122.04 2077.81 1118.73 Q2077.81 1115.67 2075.66 1113.96 Q2073.53 1112.22 2069.71 1112.22 L2065.68 1112.22 L2065.68 1108.38 L2069.9 1108.38 Q2073.35 1108.38 2075.17 1107.01 Q2077 1105.62 2077 1103.03 Q2077 1100.37 2075.1 1098.96 Q2073.23 1097.52 2069.71 1097.52 Q2067.79 1097.52 2065.59 1097.94 Q2063.39 1098.35 2060.75 1099.23 L2060.75 1095.07 Q2063.42 1094.33 2065.73 1093.96 Q2068.07 1093.59 2070.13 1093.59 Q2075.45 1093.59 2078.55 1096.02 Q2081.66 1098.42 2081.66 1102.54 Q2081.66 1105.41 2080.01 1107.41 Q2078.37 1109.37 2075.34 1110.14 Z" fill="#000000" fill-rule="nonzero" fill-opacity="1" /><path clip-path="url(#clip460)" d="M2104.18 1098.29 L2092.37 1116.73 L2104.18 1116.73 L2104.18 1098.29 M2102.95 1094.21 L2108.83 1094.21 L2108.83 1116.73 L2113.76 1116.73 L2113.76 1120.62 L2108.83 1120.62 L2108.83 1128.77 L2104.18 1128.77 L2104.18 1120.62 L2088.58 1120.62 L2088.58 1116.11 L2102.95 1094.21 Z" fill="#000000" fill-rule="nonzero" fill-opacity="1" /><path clip-path="url(#clip460)" d="M2122.3 1124.84 L2129.94 1124.84 L2129.94 1098.47 L2121.63 1100.14 L2121.63 1095.88 L2129.9 1094.21 L2134.57 1094.21 L2134.57 1124.84 L2142.21 1124.84 L2142.21 1128.77 L2122.3 1128.77 L2122.3 1124.84 Z" fill="#000000" fill-rule="nonzero" fill-opacity="1" /><path clip-path="url(#clip460)" d="M2173.23 1114.74 L2173.23 1116.83 L2153.65 1116.83 Q2153.92 1121.23 2156.29 1123.54 Q2158.67 1125.83 2162.91 1125.83 Q2165.36 1125.83 2167.65 1125.23 Q2169.97 1124.63 2172.23 1123.42 L2172.23 1127.45 Q2169.94 1128.42 2167.53 1128.93 Q2165.13 1129.44 2162.65 1129.44 Q2156.45 1129.44 2152.81 1125.83 Q2149.2 1122.22 2149.2 1116.06 Q2149.2 1109.7 2152.63 1105.97 Q2156.08 1102.22 2161.91 1102.22 Q2167.14 1102.22 2170.17 1105.6 Q2173.23 1108.96 2173.23 1114.74 M2168.97 1113.49 Q2168.92 1110 2167 1107.91 Q2165.1 1105.83 2161.96 1105.83 Q2158.39 1105.83 2156.24 1107.85 Q2154.11 1109.86 2153.79 1113.52 L2168.97 1113.49 Z" fill="#000000" fill-rule="nonzero" fill-opacity="1" /><path clip-path="url(#clip460)" d="M2178.07 1113.89 L2190.54 1113.89 L2190.54 1117.68 L2178.07 1117.68 L2178.07 1113.89 Z" fill="#000000" fill-rule="nonzero" fill-opacity="1" /><path clip-path="url(#clip460)" d="M2207.93 1097.29 Q2204.32 1097.29 2202.49 1100.85 Q2200.68 1104.4 2200.68 1111.53 Q2200.68 1118.63 2202.49 1122.2 Q2204.32 1125.74 2207.93 1125.74 Q2211.56 1125.74 2213.37 1122.2 Q2215.2 1118.63 2215.2 1111.53 Q2215.2 1104.4 2213.37 1100.85 Q2211.56 1097.29 2207.93 1097.29 M2207.93 1093.59 Q2213.74 1093.59 2216.79 1098.19 Q2219.87 1102.78 2219.87 1111.53 Q2219.87 1120.25 2216.79 1124.86 Q2213.74 1129.44 2207.93 1129.44 Q2202.12 1129.44 2199.04 1124.86 Q2195.98 1120.25 2195.98 1111.53 Q2195.98 1102.78 2199.04 1098.19 Q2202.12 1093.59 2207.93 1093.59 Z" fill="#000000" fill-rule="nonzero" fill-opacity="1" /><path clip-path="url(#clip460)" d="M2228.14 1094.21 L2246.49 1094.21 L2246.49 1098.15 L2232.42 1098.15 L2232.42 1106.62 Q2233.44 1106.27 2234.46 1106.11 Q2235.47 1105.92 2236.49 1105.92 Q2242.28 1105.92 2245.66 1109.1 Q2249.04 1112.27 2249.04 1117.68 Q2249.04 1123.26 2245.57 1126.36 Q2242.09 1129.44 2235.78 1129.44 Q2233.6 1129.44 2231.33 1129.07 Q2229.09 1128.7 2226.68 1127.96 L2226.68 1123.26 Q2228.76 1124.4 2230.98 1124.95 Q2233.21 1125.51 2235.68 1125.51 Q2239.69 1125.51 2242.03 1123.4 Q2244.36 1121.29 2244.36 1117.68 Q2244.36 1114.07 2242.03 1111.97 Q2239.69 1109.86 2235.68 1109.86 Q2233.81 1109.86 2231.93 1110.28 Q2230.08 1110.69 2228.14 1111.57 L2228.14 1094.21 Z" fill="#000000" fill-rule="nonzero" fill-opacity="1" /><path clip-path="url(#clip460)" d="M1799.8 1184.07 L1932.15 1184.07 L1932.15 1142.6 L1799.8 1142.6 L1799.8 1184.07  Z" fill="#3da44d" fill-rule="evenodd" fill-opacity="0.45"/>
<polyline clip-path="url(#clip460)" style="stroke:#3da44d; stroke-linecap:round; stroke-linejoin:round; stroke-width:4; stroke-opacity:1; fill:none" points="1799.8,1142.6 1932.15,1142.6 "/>
<path clip-path="url(#clip460)" d="M1966.15 1149.13 Q1962.54 1149.13 1960.71 1152.69 Q1958.9 1156.24 1958.9 1163.37 Q1958.9 1170.47 1960.71 1174.04 Q1962.54 1177.58 1966.15 1177.58 Q1969.78 1177.58 1971.59 1174.04 Q1973.42 1170.47 1973.42 1163.37 Q1973.42 1156.24 1971.59 1152.69 Q1969.78 1149.13 1966.15 1149.13 M1966.15 1145.43 Q1971.96 1145.43 1975.01 1150.03 Q1978.09 1154.62 1978.09 1163.37 Q1978.09 1172.09 1975.01 1176.7 Q1971.96 1181.28 1966.15 1181.28 Q1960.34 1181.28 1957.26 1176.7 Q1954.2 1172.09 1954.2 1163.37 Q1954.2 1154.62 1957.26 1150.03 Q1960.34 1145.43 1966.15 1145.43 Z" fill="#000000" fill-rule="nonzero" fill-opacity="1" /><path clip-path="url(#clip460)" d="M1986.31 1174.73 L1991.19 1174.73 L1991.19 1180.61 L1986.31 1180.61 L1986.31 1174.73 Z" fill="#000000" fill-rule="nonzero" fill-opacity="1" /><path clip-path="url(#clip460)" d="M2011.38 1149.13 Q2007.77 1149.13 2005.94 1152.69 Q2004.13 1156.24 2004.13 1163.37 Q2004.13 1170.47 2005.94 1174.04 Q2007.77 1177.58 2011.38 1177.58 Q2015.01 1177.58 2016.82 1174.04 Q2018.65 1170.47 2018.65 1163.37 Q2018.65 1156.24 2016.82 1152.69 Q2015.01 1149.13 2011.38 1149.13 M2011.38 1145.43 Q2017.19 1145.43 2020.24 1150.03 Q2023.32 1154.62 2023.32 1163.37 Q2023.32 1172.09 2020.24 1176.7 Q2017.19 1181.28 2011.38 1181.28 Q2005.57 1181.28 2002.49 1176.7 Q1999.43 1172.09 1999.43 1163.37 Q1999.43 1154.62 2002.49 1150.03 Q2005.57 1145.43 2011.38 1145.43 Z" fill="#000000" fill-rule="nonzero" fill-opacity="1" /><path clip-path="url(#clip460)" d="M2041.54 1149.13 Q2037.93 1149.13 2036.1 1152.69 Q2034.29 1156.24 2034.29 1163.37 Q2034.29 1170.47 2036.1 1174.04 Q2037.93 1177.58 2041.54 1177.58 Q2045.17 1177.58 2046.98 1174.04 Q2048.81 1170.47 2048.81 1163.37 Q2048.81 1156.24 2046.98 1152.69 Q2045.17 1149.13 2041.54 1149.13 M2041.54 1145.43 Q2047.35 1145.43 2050.41 1150.03 Q2053.48 1154.62 2053.48 1163.37 Q2053.48 1172.09 2050.41 1176.7 Q2047.35 1181.28 2041.54 1181.28 Q2035.73 1181.28 2032.65 1176.7 Q2029.6 1172.09 2029.6 1163.37 Q2029.6 1154.62 2032.65 1150.03 Q2035.73 1145.43 2041.54 1145.43 Z" fill="#000000" fill-rule="nonzero" fill-opacity="1" /><path clip-path="url(#clip460)" d="M2071.7 1149.13 Q2068.09 1149.13 2066.26 1152.69 Q2064.46 1156.24 2064.46 1163.37 Q2064.46 1170.47 2066.26 1174.04 Q2068.09 1177.58 2071.7 1177.58 Q2075.34 1177.58 2077.14 1174.04 Q2078.97 1170.47 2078.97 1163.37 Q2078.97 1156.24 2077.14 1152.69 Q2075.34 1149.13 2071.7 1149.13 M2071.7 1145.43 Q2077.51 1145.43 2080.57 1150.03 Q2083.65 1154.62 2083.65 1163.37 Q2083.65 1172.09 2080.57 1176.7 Q2077.51 1181.28 2071.7 1181.28 Q2065.89 1181.28 2062.81 1176.7 Q2059.76 1172.09 2059.76 1163.37 Q2059.76 1154.62 2062.81 1150.03 Q2065.89 1145.43 2071.7 1145.43 Z" fill="#000000" fill-rule="nonzero" fill-opacity="1" /><path clip-path="url(#clip460)" d="M2106.03 1161.98 Q2109.39 1162.69 2111.26 1164.96 Q2113.16 1167.23 2113.16 1170.57 Q2113.16 1175.68 2109.64 1178.48 Q2106.12 1181.28 2099.64 1181.28 Q2097.47 1181.28 2095.15 1180.84 Q2092.86 1180.43 2090.41 1179.57 L2090.41 1175.06 Q2092.35 1176.19 2094.67 1176.77 Q2096.98 1177.35 2099.5 1177.35 Q2103.9 1177.35 2106.19 1175.61 Q2108.51 1173.88 2108.51 1170.57 Q2108.51 1167.51 2106.35 1165.8 Q2104.23 1164.06 2100.41 1164.06 L2096.38 1164.06 L2096.38 1160.22 L2100.59 1160.22 Q2104.04 1160.22 2105.87 1158.85 Q2107.7 1157.46 2107.7 1154.87 Q2107.7 1152.21 2105.8 1150.8 Q2103.92 1149.36 2100.41 1149.36 Q2098.48 1149.36 2096.29 1149.78 Q2094.09 1150.19 2091.45 1151.07 L2091.45 1146.91 Q2094.11 1146.17 2096.42 1145.8 Q2098.76 1145.43 2100.82 1145.43 Q2106.15 1145.43 2109.25 1147.86 Q2112.35 1150.26 2112.35 1154.38 Q2112.35 1157.25 2110.71 1159.25 Q2109.06 1161.21 2106.03 1161.98 Z" fill="#000000" fill-rule="nonzero" fill-opacity="1" /><path clip-path="url(#clip460)" d="M2122.84 1176.68 L2130.47 1176.68 L2130.47 1150.31 L2122.16 1151.98 L2122.16 1147.72 L2130.43 1146.05 L2135.1 1146.05 L2135.1 1176.68 L2142.74 1176.68 L2142.74 1180.61 L2122.84 1180.61 L2122.84 1176.68 Z" fill="#000000" fill-rule="nonzero" fill-opacity="1" /><path clip-path="url(#clip460)" d="M2162.77 1161.47 Q2159.62 1161.47 2157.77 1163.62 Q2155.94 1165.77 2155.94 1169.52 Q2155.94 1173.25 2157.77 1175.43 Q2159.62 1177.58 2162.77 1177.58 Q2165.91 1177.58 2167.74 1175.43 Q2169.6 1173.25 2169.6 1169.52 Q2169.6 1165.77 2167.74 1163.62 Q2165.91 1161.47 2162.77 1161.47 M2172.05 1146.82 L2172.05 1151.07 Q2170.29 1150.24 2168.48 1149.8 Q2166.7 1149.36 2164.94 1149.36 Q2160.31 1149.36 2157.86 1152.49 Q2155.43 1155.61 2155.08 1161.93 Q2156.45 1159.92 2158.51 1158.85 Q2160.57 1157.76 2163.04 1157.76 Q2168.25 1157.76 2171.26 1160.94 Q2174.29 1164.08 2174.29 1169.52 Q2174.29 1174.85 2171.15 1178.07 Q2168 1181.28 2162.77 1181.28 Q2156.77 1181.28 2153.6 1176.7 Q2150.43 1172.09 2150.43 1163.37 Q2150.43 1155.17 2154.32 1150.31 Q2158.21 1145.43 2164.76 1145.43 Q2166.52 1145.43 2168.3 1145.77 Q2170.1 1146.12 2172.05 1146.82 Z" fill="#000000" fill-rule="nonzero" fill-opacity="1" /><path clip-path="url(#clip460)" d="M2186.38 1176.68 L2202.7 1176.68 L2202.7 1180.61 L2180.75 1180.61 L2180.75 1176.68 Q2183.41 1173.92 2188 1169.29 Q2192.6 1164.64 2193.78 1163.3 Q2196.03 1160.77 2196.91 1159.04 Q2197.81 1157.28 2197.81 1155.59 Q2197.81 1152.83 2195.87 1151.1 Q2193.95 1149.36 2190.85 1149.36 Q2188.65 1149.36 2186.19 1150.13 Q2183.76 1150.89 2180.98 1152.44 L2180.98 1147.72 Q2183.81 1146.58 2186.26 1146.01 Q2188.72 1145.43 2190.75 1145.43 Q2196.12 1145.43 2199.32 1148.11 Q2202.51 1150.8 2202.51 1155.29 Q2202.51 1157.42 2201.7 1159.34 Q2200.91 1161.24 2198.81 1163.83 Q2198.23 1164.5 2195.13 1167.72 Q2192.03 1170.91 2186.38 1176.68 Z" fill="#000000" fill-rule="nonzero" fill-opacity="1" /><path clip-path="url(#clip460)" d="M2216.54 1176.68 L2232.86 1176.68 L2232.86 1180.61 L2210.91 1180.61 L2210.91 1176.68 Q2213.58 1173.92 2218.16 1169.29 Q2222.77 1164.64 2223.95 1163.3 Q2226.19 1160.77 2227.07 1159.04 Q2227.97 1157.28 2227.97 1155.59 Q2227.97 1152.83 2226.03 1151.1 Q2224.11 1149.36 2221.01 1149.36 Q2218.81 1149.36 2216.35 1150.13 Q2213.92 1150.89 2211.15 1152.44 L2211.15 1147.72 Q2213.97 1146.58 2216.42 1146.01 Q2218.88 1145.43 2220.91 1145.43 Q2226.28 1145.43 2229.48 1148.11 Q2232.67 1150.8 2232.67 1155.29 Q2232.67 1157.42 2231.86 1159.34 Q2231.08 1161.24 2228.97 1163.83 Q2228.39 1164.5 2225.29 1167.72 Q2222.19 1170.91 2216.54 1176.68 Z" fill="#000000" fill-rule="nonzero" fill-opacity="1" /><path clip-path="url(#clip460)" d="M2252.67 1164.2 Q2249.34 1164.2 2247.42 1165.98 Q2245.52 1167.76 2245.52 1170.89 Q2245.52 1174.01 2247.42 1175.8 Q2249.34 1177.58 2252.67 1177.58 Q2256.01 1177.58 2257.93 1175.8 Q2259.85 1173.99 2259.85 1170.89 Q2259.85 1167.76 2257.93 1165.98 Q2256.03 1164.2 2252.67 1164.2 M2248 1162.21 Q2244.99 1161.47 2243.3 1159.41 Q2241.63 1157.35 2241.63 1154.38 Q2241.63 1150.24 2244.57 1147.83 Q2247.53 1145.43 2252.67 1145.43 Q2257.84 1145.43 2260.78 1147.83 Q2263.72 1150.24 2263.72 1154.38 Q2263.72 1157.35 2262.03 1159.41 Q2260.36 1161.47 2257.37 1162.21 Q2260.75 1163 2262.63 1165.29 Q2264.53 1167.58 2264.53 1170.89 Q2264.53 1175.91 2261.45 1178.6 Q2258.39 1181.28 2252.67 1181.28 Q2246.96 1181.28 2243.88 1178.6 Q2240.82 1175.91 2240.82 1170.89 Q2240.82 1167.58 2242.72 1165.29 Q2244.62 1163 2248 1162.21 M2246.28 1154.82 Q2246.28 1157.51 2247.95 1159.01 Q2249.64 1160.52 2252.67 1160.52 Q2255.68 1160.52 2257.37 1159.01 Q2259.09 1157.51 2259.09 1154.82 Q2259.09 1152.14 2257.37 1150.63 Q2255.68 1149.13 2252.67 1149.13 Q2249.64 1149.13 2247.95 1150.63 Q2246.28 1152.14 2246.28 1154.82 Z" fill="#000000" fill-rule="nonzero" fill-opacity="1" /><path clip-path="url(#clip460)" d="M1799.8 1235.91 L1932.15 1235.91 L1932.15 1194.44 L1799.8 1194.44 L1799.8 1235.91  Z" fill="#c271d2" fill-rule="evenodd" fill-opacity="0.45"/>
<polyline clip-path="url(#clip460)" style="stroke:#c271d2; stroke-linecap:round; stroke-linejoin:round; stroke-width:4; stroke-opacity:1; fill:none" points="1799.8,1194.44 1932.15,1194.44 "/>
<path clip-path="url(#clip460)" d="M1966.15 1200.97 Q1962.54 1200.97 1960.71 1204.53 Q1958.9 1208.08 1958.9 1215.21 Q1958.9 1222.31 1960.71 1225.88 Q1962.54 1229.42 1966.15 1229.42 Q1969.78 1229.42 1971.59 1225.88 Q1973.42 1222.31 1973.42 1215.21 Q1973.42 1208.08 1971.59 1204.53 Q1969.78 1200.97 1966.15 1200.97 M1966.15 1197.27 Q1971.96 1197.27 1975.01 1201.87 Q1978.09 1206.46 1978.09 1215.21 Q1978.09 1223.93 1975.01 1228.54 Q1971.96 1233.12 1966.15 1233.12 Q1960.34 1233.12 1957.26 1228.54 Q1954.2 1223.93 1954.2 1215.21 Q1954.2 1206.46 1957.26 1201.87 Q1960.34 1197.27 1966.15 1197.27 Z" fill="#000000" fill-rule="nonzero" fill-opacity="1" /><path clip-path="url(#clip460)" d="M1986.31 1226.57 L1991.19 1226.57 L1991.19 1232.45 L1986.31 1232.45 L1986.31 1226.57 Z" fill="#000000" fill-rule="nonzero" fill-opacity="1" /><path clip-path="url(#clip460)" d="M2011.38 1200.97 Q2007.77 1200.97 2005.94 1204.53 Q2004.13 1208.08 2004.13 1215.21 Q2004.13 1222.31 2005.94 1225.88 Q2007.77 1229.42 2011.38 1229.42 Q2015.01 1229.42 2016.82 1225.88 Q2018.65 1222.31 2018.65 1215.21 Q2018.65 1208.08 2016.82 1204.53 Q2015.01 1200.97 2011.38 1200.97 M2011.38 1197.27 Q2017.19 1197.27 2020.24 1201.87 Q2023.32 1206.46 2023.32 1215.21 Q2023.32 1223.93 2020.24 1228.54 Q2017.19 1233.12 2011.38 1233.12 Q2005.57 1233.12 2002.49 1228.54 Q1999.43 1223.93 1999.43 1215.21 Q1999.43 1206.46 2002.49 1201.87 Q2005.57 1197.27 2011.38 1197.27 Z" fill="#000000" fill-rule="nonzero" fill-opacity="1" /><path clip-path="url(#clip460)" d="M2041.54 1200.97 Q2037.93 1200.97 2036.1 1204.53 Q2034.29 1208.08 2034.29 1215.21 Q2034.29 1222.31 2036.1 1225.88 Q2037.93 1229.42 2041.54 1229.42 Q2045.17 1229.42 2046.98 1225.88 Q2048.81 1222.31 2048.81 1215.21 Q2048.81 1208.08 2046.98 1204.53 Q2045.17 1200.97 2041.54 1200.97 M2041.54 1197.27 Q2047.35 1197.27 2050.41 1201.87 Q2053.48 1206.46 2053.48 1215.21 Q2053.48 1223.93 2050.41 1228.54 Q2047.35 1233.12 2041.54 1233.12 Q2035.73 1233.12 2032.65 1228.54 Q2029.6 1223.93 2029.6 1215.21 Q2029.6 1206.46 2032.65 1201.87 Q2035.73 1197.27 2041.54 1197.27 Z" fill="#000000" fill-rule="nonzero" fill-opacity="1" /><path clip-path="url(#clip460)" d="M2062.51 1228.52 L2070.15 1228.52 L2070.15 1202.15 L2061.84 1203.82 L2061.84 1199.56 L2070.1 1197.89 L2074.78 1197.89 L2074.78 1228.52 L2082.42 1228.52 L2082.42 1232.45 L2062.51 1232.45 L2062.51 1228.52 Z" fill="#000000" fill-rule="nonzero" fill-opacity="1" /><path clip-path="url(#clip460)" d="M2090.68 1197.89 L2112.91 1197.89 L2112.91 1199.88 L2100.36 1232.45 L2095.48 1232.45 L2107.28 1201.83 L2090.68 1201.83 L2090.68 1197.89 Z" fill="#000000" fill-rule="nonzero" fill-opacity="1" /><path clip-path="url(#clip460)" d="M2120.85 1197.89 L2143.07 1197.89 L2143.07 1199.88 L2130.52 1232.45 L2125.64 1232.45 L2137.44 1201.83 L2120.85 1201.83 L2120.85 1197.89 Z" fill="#000000" fill-rule="nonzero" fill-opacity="1" /><path clip-path="url(#clip460)" d="M2162.19 1216.04 Q2158.85 1216.04 2156.93 1217.82 Q2155.04 1219.6 2155.04 1222.73 Q2155.04 1225.85 2156.93 1227.64 Q2158.85 1229.42 2162.19 1229.42 Q2165.52 1229.42 2167.44 1227.64 Q2169.36 1225.83 2169.36 1222.73 Q2169.36 1219.6 2167.44 1217.82 Q2165.54 1216.04 2162.19 1216.04 M2157.51 1214.05 Q2154.5 1213.31 2152.81 1211.25 Q2151.15 1209.19 2151.15 1206.22 Q2151.15 1202.08 2154.09 1199.67 Q2157.05 1197.27 2162.19 1197.27 Q2167.35 1197.27 2170.29 1199.67 Q2173.23 1202.08 2173.23 1206.22 Q2173.23 1209.19 2171.54 1211.25 Q2169.87 1213.31 2166.89 1214.05 Q2170.27 1214.84 2172.14 1217.13 Q2174.04 1219.42 2174.04 1222.73 Q2174.04 1227.75 2170.96 1230.44 Q2167.91 1233.12 2162.19 1233.12 Q2156.47 1233.12 2153.39 1230.44 Q2150.34 1227.75 2150.34 1222.73 Q2150.34 1219.42 2152.23 1217.13 Q2154.13 1214.84 2157.51 1214.05 M2155.8 1206.66 Q2155.8 1209.35 2157.47 1210.85 Q2159.16 1212.36 2162.19 1212.36 Q2165.2 1212.36 2166.89 1210.85 Q2168.6 1209.35 2168.6 1206.66 Q2168.6 1203.98 2166.89 1202.47 Q2165.2 1200.97 2162.19 1200.97 Q2159.16 1200.97 2157.47 1202.47 Q2155.8 1203.98 2155.8 1206.66 Z" fill="#000000" fill-rule="nonzero" fill-opacity="1" /><path clip-path="url(#clip460)" d="M2186.38 1228.52 L2202.7 1228.52 L2202.7 1232.45 L2180.75 1232.45 L2180.75 1228.52 Q2183.41 1225.76 2188 1221.13 Q2192.6 1216.48 2193.78 1215.14 Q2196.03 1212.61 2196.91 1210.88 Q2197.81 1209.12 2197.81 1207.43 Q2197.81 1204.67 2195.87 1202.94 Q2193.95 1201.2 2190.85 1201.2 Q2188.65 1201.2 2186.19 1201.97 Q2183.76 1202.73 2180.98 1204.28 L2180.98 1199.56 Q2183.81 1198.42 2186.26 1197.85 Q2188.72 1197.27 2190.75 1197.27 Q2196.12 1197.27 2199.32 1199.95 Q2202.51 1202.64 2202.51 1207.13 Q2202.51 1209.26 2201.7 1211.18 Q2200.91 1213.08 2198.81 1215.67 Q2198.23 1216.34 2195.13 1219.56 Q2192.03 1222.75 2186.38 1228.52 Z" fill="#000000" fill-rule="nonzero" fill-opacity="1" /><path clip-path="url(#clip460)" d="M2222.51 1216.04 Q2219.18 1216.04 2217.26 1217.82 Q2215.36 1219.6 2215.36 1222.73 Q2215.36 1225.85 2217.26 1227.64 Q2219.18 1229.42 2222.51 1229.42 Q2225.84 1229.42 2227.77 1227.64 Q2229.69 1225.83 2229.69 1222.73 Q2229.69 1219.6 2227.77 1217.82 Q2225.87 1216.04 2222.51 1216.04 M2217.84 1214.05 Q2214.83 1213.31 2213.14 1211.25 Q2211.47 1209.19 2211.47 1206.22 Q2211.47 1202.08 2214.41 1199.67 Q2217.37 1197.27 2222.51 1197.27 Q2227.67 1197.27 2230.61 1199.67 Q2233.55 1202.08 2233.55 1206.22 Q2233.55 1209.19 2231.86 1211.25 Q2230.2 1213.31 2227.21 1214.05 Q2230.59 1214.84 2232.47 1217.13 Q2234.36 1219.42 2234.36 1222.73 Q2234.36 1227.75 2231.28 1230.44 Q2228.23 1233.12 2222.51 1233.12 Q2216.79 1233.12 2213.72 1230.44 Q2210.66 1227.75 2210.66 1222.73 Q2210.66 1219.42 2212.56 1217.13 Q2214.46 1214.84 2217.84 1214.05 M2216.12 1206.66 Q2216.12 1209.35 2217.79 1210.85 Q2219.48 1212.36 2222.51 1212.36 Q2225.52 1212.36 2227.21 1210.85 Q2228.92 1209.35 2228.92 1206.66 Q2228.92 1203.98 2227.21 1202.47 Q2225.52 1200.97 2222.51 1200.97 Q2219.48 1200.97 2217.79 1202.47 Q2216.12 1203.98 2216.12 1206.66 Z" fill="#000000" fill-rule="nonzero" fill-opacity="1" /><path clip-path="url(#clip460)" d="M1799.8 1287.75 L1932.15 1287.75 L1932.15 1246.28 L1799.8 1246.28 L1799.8 1287.75  Z" fill="#ac8d18" fill-rule="evenodd" fill-opacity="0.45"/>
<polyline clip-path="url(#clip460)" style="stroke:#ac8d18; stroke-linecap:round; stroke-linejoin:round; stroke-width:4; stroke-opacity:1; fill:none" points="1799.8,1246.28 1932.15,1246.28 "/>
<path clip-path="url(#clip460)" d="M1966.15 1252.81 Q1962.54 1252.81 1960.71 1256.37 Q1958.9 1259.92 1958.9 1267.05 Q1958.9 1274.15 1960.71 1277.72 Q1962.54 1281.26 1966.15 1281.26 Q1969.78 1281.26 1971.59 1277.72 Q1973.42 1274.15 1973.42 1267.05 Q1973.42 1259.92 1971.59 1256.37 Q1969.78 1252.81 1966.15 1252.81 M1966.15 1249.11 Q1971.96 1249.11 1975.01 1253.71 Q1978.09 1258.3 1978.09 1267.05 Q1978.09 1275.77 1975.01 1280.38 Q1971.96 1284.96 1966.15 1284.96 Q1960.34 1284.96 1957.26 1280.38 Q1954.2 1275.77 1954.2 1267.05 Q1954.2 1258.3 1957.26 1253.71 Q1960.34 1249.11 1966.15 1249.11 Z" fill="#000000" fill-rule="nonzero" fill-opacity="1" /><path clip-path="url(#clip460)" d="M1986.31 1278.41 L1991.19 1278.41 L1991.19 1284.29 L1986.31 1284.29 L1986.31 1278.41 Z" fill="#000000" fill-rule="nonzero" fill-opacity="1" /><path clip-path="url(#clip460)" d="M2011.38 1252.81 Q2007.77 1252.81 2005.94 1256.37 Q2004.13 1259.92 2004.13 1267.05 Q2004.13 1274.15 2005.94 1277.72 Q2007.77 1281.26 2011.38 1281.26 Q2015.01 1281.26 2016.82 1277.72 Q2018.65 1274.15 2018.65 1267.05 Q2018.65 1259.92 2016.82 1256.37 Q2015.01 1252.81 2011.38 1252.81 M2011.38 1249.11 Q2017.19 1249.11 2020.24 1253.71 Q2023.32 1258.3 2023.32 1267.05 Q2023.32 1275.77 2020.24 1280.38 Q2017.19 1284.96 2011.38 1284.96 Q2005.57 1284.96 2002.49 1280.38 Q1999.43 1275.77 1999.43 1267.05 Q1999.43 1258.3 2002.49 1253.71 Q2005.57 1249.11 2011.38 1249.11 Z" fill="#000000" fill-rule="nonzero" fill-opacity="1" /><path clip-path="url(#clip460)" d="M2032.35 1280.36 L2039.99 1280.36 L2039.99 1253.99 L2031.68 1255.66 L2031.68 1251.4 L2039.94 1249.73 L2044.62 1249.73 L2044.62 1280.36 L2052.26 1280.36 L2052.26 1284.29 L2032.35 1284.29 L2032.35 1280.36 Z" fill="#000000" fill-rule="nonzero" fill-opacity="1" /></svg>
