<svg class="main-svg" xmlns="http://www.w3.org/2000/svg" xmlns:xlink="http://www.w3.org/1999/xlink" width="700" height="500" style="" viewBox="0 0 700 500"><rect x="0" y="0" width="700" height="500" style="fill: rgb(255, 255, 255); fill-opacity: 1;"/><defs id="defs-3eb3b7"><g class="clips"><clipPath id="clip3eb3b7xyplot" class="plotclip"><rect width="420" height="284"/></clipPath><clipPath class="axesclip" id="clip3eb3b7x"><rect x="180" y="0" width="420" height="500"/></clipPath><clipPath class="axesclip" id="clip3eb3b7y"><rect x="0" y="100" width="700" height="284"/></clipPath><clipPath class="axesclip" id="clip3eb3b7xy"><rect x="180" y="100" width="420" height="284"/></clipPath></g><g class="gradients"/></defs><g class="bglayer"/><g class="layer-below"><g class="imagelayer"/><g class="shapelayer"/></g><g class="cartesianlayer"><g class="subplot xy"><g class="layer-subplot"><g class="shapelayer"/><g class="imagelayer"/></g><g class="gridlayer"><g class="x"/><g class="y"/></g><g class="zerolinelayer"/><path class="xlines-below"/><path class="ylines-below"/><g class="overlines-below"/><g class="xaxislayer-below"/><g class="yaxislayer-below"/><g class="overaxes-below"/><g class="plot" transform="translate(180,100)" clip-path="url('#clip3eb3b7xyplot')"><g class="scatterlayer mlayer"><g class="trace scatter traceafe39e" style="stroke-miterlimit: 2; opacity: 1;"><g class="fills"/><g class="errorbars"/><g class="lines"><path class="js-line" d="M0,279.96L2.22,239.81L2.44,239.73L12.5,240.67L12.59,240.68L53.02,250.84L53.8,251.06L93.83,264.75L95.41,265.51L104.94,272.42L105.46,273.78L105.5,274.34" style="vector-effect: non-scaling-stroke; fill: none; stroke: rgb(221, 160, 221); stroke-opacity: 1; stroke-width: 9px; opacity: 1;"/></g><g class="points"/><g class="text"/></g><g class="trace scatter trace8e0778" style="stroke-miterlimit: 2; opacity: 1;"><g class="fills"/><g class="errorbars"/><g class="lines"><path class="js-line" d="M105.5,274.34L103.75,277.26L101.78,278.5L89.88,282.73" style="vector-effect: non-scaling-stroke; fill: none; stroke: rgb(221, 160, 221); stroke-opacity: 1; stroke-width: 9px; opacity: 1; stroke-dasharray: 27px, 27px;"/></g><g class="points"/><g class="text"/></g><g class="trace scatter trace6d4068" style="stroke-miterlimit: 2; opacity: 1;"><g class="fills"/><g class="errorbars"/><g class="lines"><path class="js-line" d="M89.88,282.73L96.87,283.47L99.82,283.55L255.52,283.96L258.27,283.96L420,283.99" style="vector-effect: non-scaling-stroke; fill: none; stroke: rgb(221, 160, 221); stroke-opacity: 1; stroke-width: 9px; opacity: 1;"/></g><g class="points"/><g class="text"/></g><g class="trace scatter trace3a0ff0" style="stroke-miterlimit: 2; opacity: 1;"><g class="fills"/><g class="errorbars"/><g class="lines"><path class="js-line" d="M0,274.9L1.77,199.8L2.46,191.73L5.76,184.33L6.22,184.26L21.75,185.43L21.93,185.45L54.33,192.49L54.77,192.59L144.02,217.21L145.97,217.82L194.16,235.07L196.52,236.09L219.82,248.75L221.96,250.47L227.12,257.15L227.55,259.55" style="vector-effect: non-scaling-stroke; fill: none; stroke: rgb(186, 85, 211); stroke-opacity: 1; stroke-width: 9px; opacity: 1;"/></g><g class="points"/><g class="text"/></g><g class="trace scatter trace1244c7" style="stroke-miterlimit: 2; opacity: 1;"><g class="fills"/><g class="errorbars"/><g class="lines"><path class="js-line" d="M227.55,259.55L224.42,265.43L221.85,267.31L207.81,272.95L204.91,273.73L172.64,279.39L169.69,279.76L144.62,282.57L291.18,283.93" style="vector-effect: non-scaling-stroke; fill: none; stroke: rgb(186, 85, 211); stroke-opacity: 1; stroke-width: 9px; opacity: 1; stroke-dasharray: 27px, 27px;"/></g><g class="points"/><g class="text"/></g><g class="trace scatter tracec3174b" style="stroke-miterlimit: 2; opacity: 1;"><g class="fills"/><g class="errorbars"/><g class="lines"><path class="js-line" d="M291.18,283.93L151.84,283.07L154.88,282.54" style="vector-effect: non-scaling-stroke; fill: none; stroke: rgb(186, 85, 211); stroke-opacity: 1; stroke-width: 9px; opacity: 1;"/></g><g class="points"/><g class="text"/></g><g class="trace scatter traced35765" style="stroke-miterlimit: 2; opacity: 1;"><g class="fills"/><g class="errorbars"/><g class="lines"><path class="js-line" d="M0,267.82L2.03,157.59L2.78,140.43L6.87,109.28L7.8,108.02L13.39,106.58L14.09,106.58L44.52,109.71L44.84,109.77L90.37,119.84L91.05,120.01L214.87,153.17L217.09,153.82L301.08,180.75L303.73,181.7L354.97,202.56L357.69,203.87L384.59,219.54L387.2,221.57L396.86,232.19L398.53,236.49L398.82,239.07" style="vector-effect: non-scaling-stroke; fill: none; stroke: rgb(128, 0, 128); stroke-opacity: 1; stroke-width: 9px; opacity: 1;"/></g><g class="points"/><g class="text"/></g><g class="trace scatter traced73cba" style="stroke-miterlimit: 2; opacity: 1;"><g class="fills"/><g class="errorbars"/><g class="lines"><path class="js-line" d="M398.82,239.07L394.68,248.16L391.94,250.61L377.61,258.27L374.69,259.37L345.25,267.24L342.29,267.83L294.91,274.85L291.95,275.18L217.8,281.3L214.83,281.49L196.4,283.01" style="vector-effect: non-scaling-stroke; fill: none; stroke: rgb(128, 0, 128); stroke-opacity: 1; stroke-width: 9px; opacity: 1; stroke-dasharray: 27px, 27px;"/></g><g class="points"/><g class="text"/></g><g class="trace scatter trace84584e" style="stroke-miterlimit: 2; opacity: 1;"><g class="fills"/><g class="errorbars"/><g class="lines"><path class="js-line" d="M196.4,283.01L205.49,283.47L208.46,283.52L420,283.94" style="vector-effect: non-scaling-stroke; fill: none; stroke: rgb(128, 0, 128); stroke-opacity: 1; stroke-width: 9px; opacity: 1;"/></g><g class="points"/><g class="text"/></g><g class="trace scatter tracea58d55" style="stroke-miterlimit: 2; opacity: 1;"><g class="fills"/><g class="errorbars"/><g class="lines"><path class="js-line" d="M0,258.72L2.09,120.83L2.66,101.05L6.45,31.03L7.89,20.47L12.16,9.06L13.47,8.05L21.57,6.78L22.61,6.8L56.95,9.7L57.46,9.77L100.21,17.9L100.85,18.04L190,39.81L191.55,40.21L338.2,80.51L340.79,81.27L420,105.83" style="vector-effect: non-scaling-stroke; fill: none; stroke: rgb(193, 193, 193); stroke-opacity: 1; stroke-width: 9px; opacity: 1;"/></g><g class="points"/><g class="text"/></g></g></g><g class="overplot"/><path class="xlines-above crisp" d="M174.5,386.75H600" style="fill: none; stroke-width: 5.5px; stroke: rgb(0, 0, 0); stroke-opacity: 1;"/><path class="ylines-above crisp" d="M177.25,100V384" style="fill: none; stroke-width: 5.5px; stroke: rgb(0, 0, 0); stroke-opacity: 1;"/><g class="overlines-above"/><g class="xaxislayer-above"><g class="xtick"><text text-anchor="middle" x="0" y="435.1" transform="translate(180,0)" style="font-family: sans-serif; font-size: 38px; fill: rgb(0, 0, 0); fill-opacity: 1; white-space: pre;">0</text></g><g class="xtick"><text text-anchor="middle" x="0" y="435.1" transform="translate(320,0)" style="font-family: sans-serif; font-size: 38px; fill: rgb(0, 0, 0); fill-opacity: 1; white-space: pre;">10</text></g><g class="xtick"><text text-anchor="middle" x="0" y="435.1" transform="translate(460,0)" style="font-family: sans-serif; font-size: 38px; fill: rgb(0, 0, 0); fill-opacity: 1; white-space: pre;">20</text></g><g class="xtick"><text text-anchor="middle" x="0" y="435.1" transform="translate(600,0)" style="font-family: sans-serif; font-size: 38px; fill: rgb(0, 0, 0); fill-opacity: 1; white-space: pre;">30</text></g></g><g class="yaxislayer-above"><g class="ytick"><text text-anchor="end" x="166.9" y="13.299999999999999" transform="translate(0,384)" style="font-family: sans-serif; font-size: 38px; fill: rgb(0, 0, 0); fill-opacity: 1; white-space: pre;">0</text></g><g class="ytick"><text text-anchor="end" x="166.9" y="13.299999999999999" transform="translate(0,332.36)" style="font-family: sans-serif; font-size: 38px; fill: rgb(0, 0, 0); fill-opacity: 1; white-space: pre;">1</text></g><g class="ytick"><text text-anchor="end" x="166.9" y="13.299999999999999" transform="translate(0,280.73)" style="font-family: sans-serif; font-size: 38px; fill: rgb(0, 0, 0); fill-opacity: 1; white-space: pre;">2</text></g><g class="ytick"><text text-anchor="end" x="166.9" y="13.299999999999999" transform="translate(0,229.09)" style="font-family: sans-serif; font-size: 38px; fill: rgb(0, 0, 0); fill-opacity: 1; white-space: pre;">3</text></g><g class="ytick"><text text-anchor="end" x="166.9" y="13.299999999999999" transform="translate(0,177.45)" style="font-family: sans-serif; font-size: 38px; fill: rgb(0, 0, 0); fill-opacity: 1; white-space: pre;">4</text></g><g class="ytick"><text text-anchor="end" x="166.9" y="13.299999999999999" transform="translate(0,125.82)" style="font-family: sans-serif; font-size: 38px; fill: rgb(0, 0, 0); fill-opacity: 1; white-space: pre;">5</text></g></g><g class="overaxes-above"/></g></g><g class="polarlayer"/><g class="ternarylayer"/><g class="geolayer"/><g class="funnelarealayer"/><g class="pielayer"/><g class="treemaplayer"/><g class="sunburstlayer"/><g class="glimages"/><defs id="topdefs-3eb3b7"><g class="clips"/></defs><g class="layer-above"><g class="imagelayer"/><g class="shapelayer"/></g><g class="infolayer"><g class="g-gtitle"/><g class="g-xtitle" transform="translate(0,0.5343750000000114)"><text class="xtitle" x="390" y="487.809375" text-anchor="middle" style="font-family: sans-serif; font-size: 41px; fill: rgb(0, 0, 0); opacity: 1; font-weight: normal; white-space: pre;">Damage rate (min​<tspan style="font-size:70%" dy="-0.6em">-1</tspan><tspan dy="0.42em">​</tspan>)</text></g><g class="g-ytitle"><text class="ytitle" transform="rotate(-90,99.01875,242)" x="99.01875" y="242" text-anchor="middle" style="font-family: sans-serif; font-size: 41px; fill: rgb(0, 0, 0); opacity: 1; font-weight: normal; white-space: pre;">RtcB (μM)</text></g></g></svg>