<svg class="main-svg" xmlns="http://www.w3.org/2000/svg" xmlns:xlink="http://www.w3.org/1999/xlink" width="700" height="500" style="" viewBox="0 0 700 500"><rect x="0" y="0" width="700" height="500" style="fill: rgb(255, 255, 255); fill-opacity: 1;"/><defs id="defs-9072c0"><g class="clips"><clipPath id="clip9072c0xyplot" class="plotclip"><rect width="541" height="355"/></clipPath><clipPath id="clip9072c0xy2plot" class="plotclip"><rect width="541" height="355"/></clipPath><clipPath class="axesclip" id="clip9072c0x"><rect x="101" y="0" width="541" height="500"/></clipPath><clipPath class="axesclip" id="clip9072c0y"><rect x="0" y="60" width="700" height="355"/></clipPath><clipPath class="axesclip" id="clip9072c0xy"><rect x="101" y="60" width="541" height="355"/></clipPath><clipPath class="axesclip" id="clip9072c0y2"><rect x="0" y="60" width="700" height="355"/></clipPath><clipPath class="axesclip" id="clip9072c0xy2"><rect x="101" y="60" width="541" height="355"/></clipPath></g><g class="gradients"/></defs><g class="bglayer"/><g class="layer-below"><g class="imagelayer"/><g class="shapelayer"/></g><g class="cartesianlayer"><g class="subplot xy"><g class="layer-subplot"><g class="shapelayer"/><g class="imagelayer"/></g><g class="gridlayer"><g class="x"/><g class="y"/><g class="y2"/></g><g class="zerolinelayer"><path class="yzl zl crisp" transform="translate(0,397.25)" d="M101,0h541" style="stroke: rgb(255, 255, 255); stroke-opacity: 1; stroke-width: 2px;"/><path class="y2zl zl crisp" transform="translate(0,397.25)" d="M101,0h541" style="stroke: rgb(255, 255, 255); stroke-opacity: 1; stroke-width: 2px;"/></g><path class="xlines-below"/><path class="ylines-below"/><g class="overlines-below"><path class="xy2-x"/><path class="xy2-y"/></g><g class="xaxislayer-below"/><g class="yaxislayer-below"/><g class="overaxes-below"><g class="xy2-x"/><g class="xy2-y"/></g><g class="plot" transform="translate(101,60)" clip-path="url('#clip9072c0xyplot')"><g class="scatterlayer mlayer"><g class="trace scatter trace4e229a" style="stroke-miterlimit: 2; opacity: 1;"><g class="fills"/><g class="errorbars"/><g class="lines"><path class="js-line" d="M0,337.25L2.21,334.9L3.41,334.13L12.01,326.37L12.87,325.39L22.54,311.59L23.11,310.6L33.05,289.79L33.46,288.79L48.61,247.07L48.96,246.08L65.85,201.36L66.28,200.36L81.28,169.6L81.84,168.61L96.45,145.84L97.18,144.85L113.88,125.14L114.84,124.16L133.56,107.54L134.82,106.57L156.55,92.11L158.21,91.16L184.9,78.01L187.09,77.09L216.71,66.31L219.48,65.44L256.79,55.4L260.24,54.61L309.67,44.93L313.79,44.24L388.85,33.46L393.42,32.86L438.84,25.41L439.66,24.62" style="vector-effect: non-scaling-stroke; fill: none; stroke: rgb(233, 97, 0); stroke-opacity: 1; stroke-width: 6.5px; opacity: 1;"/></g><g class="points"/><g class="text"/></g><g class="trace scatter trace1d2337" style="stroke-miterlimit: 2; opacity: 1;"><g class="fills"/><g class="errorbars"/><g class="lines"><path class="js-line" d="M439.66,24.62L433.61,22.82L428.65,22.26L384.66,20.07L379.01,19.9L276.91,17.77L276.91,17.77" style="vector-effect: non-scaling-stroke; fill: none; stroke: rgb(233, 97, 0); stroke-opacity: 1; stroke-width: 6.5px; opacity: 1; stroke-dasharray: 19.5px, 19.5px;"/></g><g class="points"/><g class="text"/></g><g class="trace scatter trace6031a4" style="stroke-miterlimit: 2; opacity: 1;"><g class="fills"/><g class="errorbars"/><g class="lines"><path class="js-line" d="M276.91,17.77L317.8,18.12L323.52,18.19L541,22.46" style="vector-effect: non-scaling-stroke; fill: none; stroke: rgb(233, 97, 0); stroke-opacity: 1; stroke-width: 6.5px; opacity: 1;"/></g><g class="points"/><g class="text"/></g></g></g><g class="overplot"><g class="xy2" transform="translate(101,60)" clip-path="url('#clip9072c0xy2plot')"><g class="scatterlayer mlayer"><g class="trace scatter tracec5d65f" style="stroke-miterlimit: 2; opacity: 1;"><g class="fills"/><g class="errorbars"/><g class="lines"><path class="js-line" d="M0,337.25L2.21,335.62L3.41,335.13L42.37,319.51L42.72,319.43L62.96,316.45L63.37,316.42L96.45,314.82L97.18,314.81L196.24,313.74L198.64,313.72L439.66,312.69" style="vector-effect: non-scaling-stroke; fill: none; stroke: rgb(172, 6, 6); stroke-opacity: 1; stroke-width: 6.5px; opacity: 1;"/></g><g class="points"/><g class="text"/></g><g class="trace scatter traceacf459" style="stroke-miterlimit: 2; opacity: 1;"><g class="fills"/><g class="errorbars"/><g class="lines"><path class="js-line" d="M439.66,312.69L407.08,311.78L401.51,311.65L322.16,308.24L316.45,307.74L293.64,304.58L287.94,303.15L279.42,299.1L277.53,296.79L276.91,294.18" style="vector-effect: non-scaling-stroke; fill: none; stroke: rgb(172, 6, 6); stroke-opacity: 1; stroke-width: 6.5px; opacity: 1; stroke-dasharray: 19.5px, 19.5px;"/></g><g class="points"/><g class="text"/></g><g class="trace scatter tracee2c4cf" style="stroke-miterlimit: 2; opacity: 1;"><g class="fills"/><g class="errorbars"/><g class="lines"><path class="js-line" d="M276.91,294.18L278.4,289.37L279.11,288.18L286.08,280.1L289.78,276.61L323.52,248.81L329.24,244.19L374.96,205.41L380.67,200.26L420.62,161.96L426.32,156.15L466.2,112.82L471.89,106.25L511.68,57.3L517.36,49.88L541,17.75" style="vector-effect: non-scaling-stroke; fill: none; stroke: rgb(172, 6, 6); stroke-opacity: 1; stroke-width: 6.5px; opacity: 1;"/></g><g class="points"/><g class="text"/></g></g></g></g><path class="xlines-above crisp" d="M98,416.5H645" style="fill: none; stroke-width: 3px; stroke: rgb(0, 0, 0); stroke-opacity: 1;"/><path class="ylines-above crisp" d="M99.5,60V415" style="fill: none; stroke-width: 3px; stroke: rgb(0, 0, 0); stroke-opacity: 1;"/><g class="overlines-above"><path class="xy2-x crisp" d="M0,0" style="fill: none;"/><path class="xy2-y crisp" d="M643.5,60V415" style="fill: none; stroke-width: 3px; stroke: rgb(0, 0, 0); stroke-opacity: 1;"/></g><g class="xaxislayer-above"><g class="xtick"><text text-anchor="middle" x="0" y="446.8" transform="translate(101,0)" style="font-family: sans-serif; font-size: 24px; fill: rgb(0, 0, 0); fill-opacity: 1; white-space: pre;">0</text></g><g class="xtick"><text text-anchor="middle" x="0" y="446.8" transform="translate(236.25,0)" style="font-family: sans-serif; font-size: 24px; fill: rgb(0, 0, 0); fill-opacity: 1; white-space: pre;">5</text></g><g class="xtick"><text text-anchor="middle" x="0" y="446.8" transform="translate(371.5,0)" style="font-family: sans-serif; font-size: 24px; fill: rgb(0, 0, 0); fill-opacity: 1; white-space: pre;">10</text></g><g class="xtick"><text text-anchor="middle" x="0" y="446.8" transform="translate(506.75,0)" style="font-family: sans-serif; font-size: 24px; fill: rgb(0, 0, 0); fill-opacity: 1; white-space: pre;">15</text></g><g class="xtick"><text text-anchor="middle" x="0" y="446.8" transform="translate(642,0)" style="font-family: sans-serif; font-size: 24px; fill: rgb(0, 0, 0); fill-opacity: 1; white-space: pre;">20</text></g></g><g class="yaxislayer-above"><g class="ytick"><text text-anchor="end" x="93.2" y="8.399999999999999" transform="translate(0,397.25)" style="font-family: sans-serif; font-size: 24px; fill: rgb(0, 0, 0); fill-opacity: 1; white-space: pre;">0</text></g><g class="ytick"><text text-anchor="end" x="93.2" y="8.399999999999999" transform="translate(0,352.97)" style="font-family: sans-serif; font-size: 24px; fill: rgb(0, 0, 0); fill-opacity: 1; white-space: pre;">20</text></g><g class="ytick"><text text-anchor="end" x="93.2" y="8.399999999999999" transform="translate(0,308.69)" style="font-family: sans-serif; font-size: 24px; fill: rgb(0, 0, 0); fill-opacity: 1; white-space: pre;">40</text></g><g class="ytick"><text text-anchor="end" x="93.2" y="8.399999999999999" transform="translate(0,264.40999999999997)" style="font-family: sans-serif; font-size: 24px; fill: rgb(0, 0, 0); fill-opacity: 1; white-space: pre;">60</text></g><g class="ytick"><text text-anchor="end" x="93.2" y="8.399999999999999" transform="translate(0,220.13)" style="font-family: sans-serif; font-size: 24px; fill: rgb(0, 0, 0); fill-opacity: 1; white-space: pre;">80</text></g><g class="ytick"><text text-anchor="end" x="93.2" y="8.399999999999999" transform="translate(0,175.85)" style="font-family: sans-serif; font-size: 24px; fill: rgb(0, 0, 0); fill-opacity: 1; white-space: pre;">100</text></g><g class="ytick"><text text-anchor="end" x="93.2" y="8.399999999999999" transform="translate(0,131.57)" style="font-family: sans-serif; font-size: 24px; fill: rgb(0, 0, 0); fill-opacity: 1; white-space: pre;">120</text></g><g class="ytick"><text text-anchor="end" x="93.2" y="8.399999999999999" transform="translate(0,87.28999999999999)" style="font-family: sans-serif; font-size: 24px; fill: rgb(0, 0, 0); fill-opacity: 1; white-space: pre;">140</text></g></g><g class="overaxes-above"><g class="xy2-x"/><g class="xy2-y"><g class="y2tick"><text text-anchor="start" x="649.8" y="8.399999999999999" transform="translate(0,397.25)" style="font-family: sans-serif; font-size: 24px; fill: rgb(0, 0, 0); fill-opacity: 1; white-space: pre;">0</text></g><g class="y2tick"><text text-anchor="start" x="649.8" y="8.399999999999999" transform="translate(0,340.89)" style="font-family: sans-serif; font-size: 24px; fill: rgb(0, 0, 0); fill-opacity: 1; white-space: pre;">0.5</text></g><g class="y2tick"><text text-anchor="start" x="649.8" y="8.399999999999999" transform="translate(0,284.53)" style="font-family: sans-serif; font-size: 24px; fill: rgb(0, 0, 0); fill-opacity: 1; white-space: pre;">1</text></g><g class="y2tick"><text text-anchor="start" x="649.8" y="8.399999999999999" transform="translate(0,228.18)" style="font-family: sans-serif; font-size: 24px; fill: rgb(0, 0, 0); fill-opacity: 1; white-space: pre;">1.5</text></g><g class="y2tick"><text text-anchor="start" x="649.8" y="8.399999999999999" transform="translate(0,171.82)" style="font-family: sans-serif; font-size: 24px; fill: rgb(0, 0, 0); fill-opacity: 1; white-space: pre;">2</text></g><g class="y2tick"><text text-anchor="start" x="649.8" y="8.399999999999999" transform="translate(0,115.46000000000001)" style="font-family: sans-serif; font-size: 24px; fill: rgb(0, 0, 0); fill-opacity: 1; white-space: pre;">2.5</text></g></g></g></g><g class="subplot xy2"/></g><g class="polarlayer"/><g class="ternarylayer"/><g class="geolayer"/><g class="funnelarealayer"/><g class="pielayer"/><g class="treemaplayer"/><g class="sunburstlayer"/><g class="glimages"/><defs id="topdefs-9072c0"><g class="clips"/></defs><g class="layer-above"><g class="imagelayer"/><g class="shapelayer"/></g><g class="infolayer"><g class="g-gtitle"/><g class="g-xtitle"><text class="xtitle" x="371.5" y="488.1125" text-anchor="middle" style="font-family: sans-serif; font-size: 29px; fill: rgb(0, 0, 0); opacity: 1; font-weight: normal; white-space: pre;">Damage rate (min​<tspan style="font-size:70%" dy="-0.6em">-1</tspan><tspan dy="0.42em">​</tspan>)</text></g><g class="g-ytitle" transform="translate(14.9091796875,0)"><text class="ytitle" transform="rotate(-90,12.090625000000003,237.5)" x="12.090625000000003" y="237.5" text-anchor="middle" style="font-family: sans-serif; font-size: 29px; fill: rgb(0, 0, 0); opacity: 1; font-weight: normal; white-space: pre;">Ribosomes (μM)</text></g><g class="g-y2title"/></g></svg>