<svg class="main-svg" xmlns="http://www.w3.org/2000/svg" xmlns:xlink="http://www.w3.org/1999/xlink" width="700" height="500" style="" viewBox="0 0 700 500"><rect x="0" y="0" width="700" height="500" style="fill: rgb(255, 255, 255); fill-opacity: 1;"/><defs id="defs-2789b3"><g class="clips"><clipPath id="clip2789b3xyplot" class="plotclip"><rect width="557" height="355"/></clipPath><clipPath class="axesclip" id="clip2789b3x"><rect x="93" y="0" width="557" height="500"/></clipPath><clipPath class="axesclip" id="clip2789b3y"><rect x="0" y="60" width="700" height="355"/></clipPath><clipPath class="axesclip" id="clip2789b3xy"><rect x="93" y="60" width="557" height="355"/></clipPath></g><g class="gradients"/></defs><g class="bglayer"/><g class="layer-below"><g class="imagelayer"/><g class="shapelayer"/></g><g class="cartesianlayer"><g class="subplot xy"><g class="layer-subplot"><g class="shapelayer"/><g class="imagelayer"/></g><g class="gridlayer"><g class="x"/><g class="y"/></g><g class="zerolinelayer"><path class="yzl zl crisp" transform="translate(0,397.45)" d="M93,0h557" style="stroke: rgb(255, 255, 255); stroke-opacity: 1; stroke-width: 2px;"/></g><path class="xlines-below"/><path class="ylines-below"/><g class="overlines-below"/><g class="xaxislayer-below"/><g class="yaxislayer-below"/><g class="overaxes-below"/><g class="plot" transform="translate(93,60)" clip-path="url('#clip2789b3xyplot')"><g class="scatterlayer mlayer"><g class="trace scatter trace4bde26" style="stroke-miterlimit: 2; opacity: 1;"><g class="fills"/><g class="errorbars"/><g class="lines"><path class="js-line" d="M0,313.3L1.31,191.2L2.27,148.61L6.18,82.29L7.36,77.48L10.5,73.29L11.45,72.95L20.07,72.82L20.73,72.87L43.26,75.85L43.62,75.93L70.47,82.78L70.93,82.92L118.24,97.94L119.24,98.28L209.58,130.07L212.19,131.04L290.37,161.82L294.29,163.47L353.91,190.56L358.45,192.82L395.64,213.08L400.35,215.95L423.77,232.05L428.36,235.75L441.54,248.48L445.55,253.56L451.81,266.21L452.66,272.57" style="vector-effect: non-scaling-stroke; fill: none; stroke: rgb(182, 147, 204); stroke-opacity: 1; stroke-width: 6.5px; opacity: 1;"/></g><g class="points"/><g class="text"/></g><g class="trace scatter trace609448" style="stroke-miterlimit: 2; opacity: 1;"><g class="fills"/><g class="errorbars"/><g class="lines"><path class="js-line" d="M452.66,272.57L450.92,281.03L446.44,288.16L435.96,297.13L430.43,300.45L413.39,308.13L407.63,310.19L378.56,318.32L372.72,319.64L325.81,328.01L319.94,328.87L285.1,334.63" style="vector-effect: non-scaling-stroke; fill: none; stroke: rgb(182, 147, 204); stroke-opacity: 1; stroke-width: 6.5px; opacity: 1; stroke-dasharray: 19.5px, 19.5px;"/></g><g class="points"/><g class="text"/></g><g class="trace scatter trace946df2" style="stroke-miterlimit: 2; opacity: 1;"><g class="fills"/><g class="errorbars"/><g class="lines"><path class="js-line" d="M285.1,334.63L288.39,335.41L289.81,335.53L321.31,336.46L327.2,336.53L520.97,337.22L526.82,337.22L557,337.25" style="vector-effect: non-scaling-stroke; fill: none; stroke: rgb(182, 147, 204); stroke-opacity: 1; stroke-width: 6.5px; opacity: 1;"/></g><g class="points"/><g class="text"/></g><g class="trace scatter trace88b91d" style="stroke-miterlimit: 2; opacity: 1;"><g class="fills"/><g class="errorbars"/><g class="lines"><path class="js-line" d="M0,308.3L1.31,160.92L2.27,109.49L6.18,29.44L7.36,23.64L10.5,18.58L11.45,18.17L18.7,17.91L19.39,17.96L41.07,21.17L41.44,21.25L69.57,29.72L70.02,29.88L125.57,51.31L126.69,51.76L212.19,88.3L214.85,89.49L286.5,123.5L290.37,125.45L344.92,154.86L349.4,157.47L386.24,180.71L390.93,183.97L419.13,205.99L423.77,210.22L437.29,224.52L441.54,230.06L449.11,243.17L451.81,251.45L452.66,259.13" style="vector-effect: non-scaling-stroke; fill: none; stroke: rgb(228, 128, 128); stroke-opacity: 1; stroke-width: 6.5px; opacity: 1;"/></g><g class="points"/><g class="text"/></g><g class="trace scatter trace9a2d51" style="stroke-miterlimit: 2; opacity: 1;"><g class="fills"/><g class="errorbars"/><g class="lines"><path class="js-line" d="M452.66,259.13L450.92,269.35L446.44,277.95L435.96,288.78L430.43,292.79L413.39,302.06L407.63,304.55L378.56,314.36L372.72,315.95L331.69,324.98L325.81,326.05L285.1,334.04" style="vector-effect: non-scaling-stroke; fill: none; stroke: rgb(228, 128, 128); stroke-opacity: 1; stroke-width: 6.5px; opacity: 1; stroke-dasharray: 19.5px, 19.5px;"/></g><g class="points"/><g class="text"/></g><g class="trace scatter trace9e0b4a" style="stroke-miterlimit: 2; opacity: 1;"><g class="fills"/><g class="errorbars"/><g class="lines"><path class="js-line" d="M285.1,334.04L288.39,334.98L289.81,335.13L321.31,336.25L327.2,336.34L503.41,337.14L509.27,337.15L557,337.21" style="vector-effect: non-scaling-stroke; fill: none; stroke: rgb(228, 128, 128); stroke-opacity: 1; stroke-width: 6.5px; opacity: 1;"/></g><g class="points"/><g class="text"/></g></g></g><g class="overplot"/><path class="xlines-above crisp" d="M90,416.5H650" style="fill: none; stroke-width: 3px; stroke: rgb(0, 0, 0); stroke-opacity: 1;"/><path class="ylines-above crisp" d="M91.5,60V415" style="fill: none; stroke-width: 3px; stroke: rgb(0, 0, 0); stroke-opacity: 1;"/><g class="overlines-above"/><g class="xaxislayer-above"><g class="xtick"><text text-anchor="middle" x="0" y="446.8" transform="translate(93,0)" style="font-family: sans-serif; font-size: 24px; fill: rgb(0, 0, 0); fill-opacity: 1; white-space: pre;">0</text></g><g class="xtick"><text text-anchor="middle" x="0" y="446.8" transform="translate(232.25,0)" style="font-family: sans-serif; font-size: 24px; fill: rgb(0, 0, 0); fill-opacity: 1; white-space: pre;">5</text></g><g class="xtick"><text text-anchor="middle" x="0" y="446.8" transform="translate(371.5,0)" style="font-family: sans-serif; font-size: 24px; fill: rgb(0, 0, 0); fill-opacity: 1; white-space: pre;">10</text></g><g class="xtick"><text text-anchor="middle" x="0" y="446.8" transform="translate(510.75,0)" style="font-family: sans-serif; font-size: 24px; fill: rgb(0, 0, 0); fill-opacity: 1; white-space: pre;">15</text></g><g class="xtick"><text text-anchor="middle" x="0" y="446.8" transform="translate(650,0)" style="font-family: sans-serif; font-size: 24px; fill: rgb(0, 0, 0); fill-opacity: 1; white-space: pre;">20</text></g></g><g class="yaxislayer-above"><g class="ytick"><text text-anchor="end" x="85.2" y="8.399999999999999" transform="translate(0,397.45)" style="font-family: sans-serif; font-size: 24px; fill: rgb(0, 0, 0); fill-opacity: 1; white-space: pre;">0</text></g><g class="ytick"><text text-anchor="end" x="85.2" y="8.399999999999999" transform="translate(0,328.94)" style="font-family: sans-serif; font-size: 24px; fill: rgb(0, 0, 0); fill-opacity: 1; white-space: pre;">0.5</text></g><g class="ytick"><text text-anchor="end" x="85.2" y="8.399999999999999" transform="translate(0,260.41999999999996)" style="font-family: sans-serif; font-size: 24px; fill: rgb(0, 0, 0); fill-opacity: 1; white-space: pre;">1</text></g><g class="ytick"><text text-anchor="end" x="85.2" y="8.399999999999999" transform="translate(0,191.9)" style="font-family: sans-serif; font-size: 24px; fill: rgb(0, 0, 0); fill-opacity: 1; white-space: pre;">1.5</text></g><g class="ytick"><text text-anchor="end" x="85.2" y="8.399999999999999" transform="translate(0,123.39)" style="font-family: sans-serif; font-size: 24px; fill: rgb(0, 0, 0); fill-opacity: 1; white-space: pre;">2</text></g></g><g class="overaxes-above"/></g></g><g class="polarlayer"/><g class="ternarylayer"/><g class="geolayer"/><g class="funnelarealayer"/><g class="pielayer"/><g class="treemaplayer"/><g class="sunburstlayer"/><g class="glimages"/><defs id="topdefs-2789b3"><g class="clips"/></defs><g class="layer-above"><g class="imagelayer"/><g class="shapelayer"/></g><g class="infolayer"><g class="g-gtitle"/><g class="g-xtitle"><text class="xtitle" x="371.5" y="488.1125" text-anchor="middle" style="font-family: sans-serif; font-size: 29px; fill: rgb(0, 0, 0); opacity: 1; font-weight: normal; white-space: pre;">Damage rate (min​<tspan style="font-size:70%" dy="-0.6em">-1</tspan><tspan dy="0.42em">​</tspan>)</text></g><g class="g-ytitle" transform="translate(15.2685546875,0)"><text class="ytitle" transform="rotate(-90,11.731250000000003,237.5)" x="11.731250000000003" y="237.5" text-anchor="middle" style="font-family: sans-serif; font-size: 29px; fill: rgb(0, 0, 0); opacity: 1; font-weight: normal; white-space: pre;">Rtc protein (μM)</text></g></g></svg>