<svg class="main-svg" xmlns="http://www.w3.org/2000/svg" xmlns:xlink="http://www.w3.org/1999/xlink" width="700" height="500" style="" viewBox="0 0 700 500"><rect x="0" y="0" width="700" height="500" style="fill: rgb(255, 255, 255); fill-opacity: 1;"/><defs id="defs-205d99"><g class="clips"><clipPath id="clip205d99xyplot" class="plotclip"><rect width="510" height="364"/></clipPath><clipPath class="axesclip" id="clip205d99x"><rect x="83" y="0" width="510" height="500"/></clipPath><clipPath class="axesclip" id="clip205d99y"><rect x="0" y="60" width="700" height="364"/></clipPath><clipPath class="axesclip" id="clip205d99xy"><rect x="83" y="60" width="510" height="364"/></clipPath></g><g class="gradients"/></defs><g class="bglayer"/><g class="layer-below"><g class="imagelayer"/><g class="shapelayer"/></g><g class="cartesianlayer"><g class="subplot xy"><g class="layer-subplot"><g class="shapelayer"/><g class="imagelayer"/></g><g class="gridlayer"><g class="x"/><g class="y"/></g><g class="zerolinelayer"><path class="yzl zl crisp" transform="translate(0,405.8)" d="M83,0h510" style="stroke: rgb(255, 255, 255); stroke-opacity: 1; stroke-width: 2px;"/></g><path class="xlines-below"/><path class="ylines-below"/><g class="overlines-below"/><g class="xaxislayer-below"/><g class="yaxislayer-below"/><g class="overaxes-below"/><g class="plot" transform="translate(83,60)" clip-path="url('#clip205d99xyplot')"><g class="scatterlayer mlayer"><g class="trace scatter trace129905" style="stroke-miterlimit: 2; opacity: 1;"><g class="fills"/><g class="errorbars"/><g class="lines"><path class="js-line" d="M510,345.8L0,345.8" style="vector-effect: non-scaling-stroke; fill: none; stroke: rgb(0, 0, 255); stroke-opacity: 1; stroke-width: 5px; opacity: 1;"/></g><g class="points"/><g class="text"/></g><g class="trace scatter tracec325dc" style="stroke-miterlimit: 2; opacity: 1;"><g class="fills"/><g class="errorbars"/><g class="lines"><path class="js-line" d="M0,315.89L1.16,67.25L1.4,52.4L3.27,20.14L3.5,19.55L5.56,18.2L5.79,18.2L15.76,20.1L16,20.16L50.94,28.86L51.19,28.93L78.01,36.64L78.27,36.72L107.14,45.77L107.4,45.86L138.3,56.3L138.56,56.4L177.78,70.78L178.05,70.89L221.28,88.42L221.55,88.54L252.37,102.44L252.64,102.57L292.66,123.2L292.93,123.35L318.32,138.87L318.59,139.05L339.92,154.77L340.19,155L354.48,168.23L354.75,168.52L364.43,180.27L364.7,180.66L370.84,191.29L371.11,191.87L374.47,202.1L374.71,203.33L375.36,210.66" style="vector-effect: non-scaling-stroke; fill: none; stroke: rgb(0, 0, 255); stroke-opacity: 1; stroke-width: 5px; opacity: 1;"/></g><g class="points"/><g class="text"/></g><g class="trace scatter traced48604" style="stroke-miterlimit: 2; opacity: 1;"><g class="fills"/><g class="errorbars"/><g class="lines"><path class="js-line" d="M375.36,210.66L373.91,221.18L373.66,222.05L369.22,232.12L368.95,232.56L362.02,241.95L361.75,242.26L351.02,252.42L350.75,252.63L338.11,261.71L337.84,261.88L321.68,271.16L321.41,271.3L297.14,282.48L296.87,282.6L263.68,294.78L263.41,294.87L226.7,305.8L226.43,305.87L167.85,319.82L167.58,319.87L123.3,328.44L123.03,328.48L69.6,337.11L69.33,337.15L7.19,345.1L6.93,345.13L0,345.8" style="vector-effect: non-scaling-stroke; fill: none; stroke: rgb(0, 0, 255); stroke-opacity: 1; stroke-width: 5px; opacity: 1; stroke-dasharray: 15px, 15px;"/></g><g class="points"/><g class="text"/></g><g class="trace scatter traceb19051" style="stroke-miterlimit: 2; opacity: 1;"><g class="fills"/><g class="errorbars"/><g class="lines"><path class="js-line" d="M510,345.8L0,345.8" style="vector-effect: non-scaling-stroke; fill: none; stroke: rgb(128, 0, 128); stroke-opacity: 1; stroke-width: 5px; opacity: 1;"/></g><g class="points"/><g class="text"/></g><g class="trace scatter trace65d057" style="stroke-miterlimit: 2; opacity: 1;"><g class="fills"/><g class="errorbars"/><g class="lines"><path class="js-line" d="M0,335.19L1.25,244.84L1.41,241.54L3.3,230.22L3.45,230.08L6.39,229.58L6.55,229.59L32.32,231.66L32.48,231.68L114.52,240.37L114.69,240.4L183.45,249.29L183.63,249.32L257.85,260.89L258.03,260.93L302.76,269.65L302.94,269.69L339.33,279.04L339.51,279.1L358.02,286.05L358.19,286.13L367.81,292.25L367.98,292.42L370.59,296.74L370.67,297.34L370.68,297.72" style="vector-effect: non-scaling-stroke; fill: none; stroke: rgb(128, 0, 128); stroke-opacity: 1; stroke-width: 5px; opacity: 1;"/></g><g class="points"/><g class="text"/></g><g class="trace scatter trace176708" style="stroke-miterlimit: 2; opacity: 1;"><g class="fills"/><g class="errorbars"/><g class="lines"><path class="js-line" d="M370.68,297.72L369.3,301.41L369.13,301.62L364.42,305.48L364.24,305.58L354.44,310.03L354.26,310.09L337.41,315.03L337.23,315.07L309.92,320.61L309.74,320.64L260.27,327.63L260.09,327.65L221.21,331.8L221.03,331.81L170.62,336.16L170.44,336.17L93.76,341.31L93.58,341.32L0.48,345.8L185.4,334.98L185.58,334.96L264.24,327.16L264.42,327.13L306.34,321.22L306.52,321.19L340.3,314.31L340.48,314.26L358.92,308.26L359.1,308.18L367.95,302.89L368.12,302.72L370.55,298.89L370.64,298.35L369.78,294.67L369.62,294.4L365.25,290.15L365.07,290.03L356.13,285.18L355.95,285.1L335.46,277.87L335.28,277.82L308.46,270.93L308.28,270.89L273.88,263.8L273.7,263.77L221.76,254.94L221.58,254.92L172.67,247.8L172.58,247.79L112.1,240.09L111.93,240.07L65.86,234.93L65.69,234.91L14.82,230.18L14.67,230.17L3.28,230.23L3.13,230.42L2.04,234.14L1.88,235.41L0.92,254.61L0.76,261.16L0,335.19" style="vector-effect: non-scaling-stroke; fill: none; stroke: rgb(128, 0, 128); stroke-opacity: 1; stroke-width: 5px; opacity: 1; stroke-dasharray: 15px, 15px;"/></g><g class="points"/><g class="text"/></g><g class="trace scatter tracee0fdfa" style="stroke-miterlimit: 2; opacity: 1;"><g class="fills"/><g class="errorbars"/><g class="lines"><path class="js-line" d="M510,345.8L0,345.8" style="vector-effect: non-scaling-stroke; fill: none; stroke: rgb(255, 165, 0); stroke-opacity: 1; stroke-width: 5px; opacity: 1;"/></g><g class="points"/><g class="text"/></g><g class="trace scatter trace69173b" style="stroke-miterlimit: 2; opacity: 1;"><g class="fills"/><g class="errorbars"/><g class="lines"><path class="js-line" d="M0,338.38L1.25,275.3L1.41,272.98L3.29,264.99L3.44,264.89L7.15,264.56L7.31,264.57L50.25,267.2L50.42,267.22L122.15,272.81L122.33,272.83L227.28,283.07L227.46,283.09L298.05,292.19L298.23,292.22L332.47,298.23L332.65,298.27L354.4,303.77L354.58,303.83L365.25,308.69L365.43,308.82L367.58,312.13" style="vector-effect: non-scaling-stroke; fill: none; stroke: rgb(255, 165, 0); stroke-opacity: 1; stroke-width: 5px; opacity: 1;"/></g><g class="points"/><g class="text"/></g><g class="trace scatter trace3f4184" style="stroke-miterlimit: 2; opacity: 1;"><g class="fills"/><g class="errorbars"/><g class="lines"><path class="js-line" d="M367.58,312.13L366.02,314.88L365.85,315.02L360.07,318.08L359.89,318.15L347.03,321.81L346.85,321.85L320.64,326.4L320.47,326.43L273.34,331.72L273.16,331.74L175.79,338.67L175.61,338.68L56.65,344.04L56.47,344.04L3.97,345.71L3.79,345.71L0,345.8" style="vector-effect: non-scaling-stroke; fill: none; stroke: rgb(255, 165, 0); stroke-opacity: 1; stroke-width: 5px; opacity: 1; stroke-dasharray: 15px, 15px;"/></g><g class="points"/><g class="text"/></g><g class="trace scatter trace7686ef" style="stroke-miterlimit: 2; opacity: 1;"><g class="fills"/><g class="errorbars"/><g class="lines"><path class="js-line" d="M510,345.8L0,345.8" style="vector-effect: non-scaling-stroke; fill: none; stroke: rgb(255, 0, 0); stroke-opacity: 1; stroke-width: 5px; opacity: 1;"/></g><g class="points"/><g class="text"/></g><g class="trace scatter trace52d76d" style="stroke-miterlimit: 2; opacity: 1;"><g class="fills"/><g class="errorbars"/><g class="lines"><path class="js-line" d="M0,341.56L1.23,305.68L1.39,304.34L3.26,299.69L3.42,299.63L8.35,299.47L8.51,299.47L128.12,304.57L128.3,304.58L280.5,314.19L280.68,314.21L337.38,320.17L337.56,320.2L356.35,324.07L356.53,324.14L359.85,326.55" style="vector-effect: non-scaling-stroke; fill: none; stroke: rgb(255, 0, 0); stroke-opacity: 1; stroke-width: 5px; opacity: 1;"/></g><g class="points"/><g class="text"/></g><g class="trace scatter traceb1aa29" style="stroke-miterlimit: 2; opacity: 1;"><g class="fills"/><g class="errorbars"/><g class="lines"><path class="js-line" d="M359.85,326.55L358.44,328.03L358.27,328.11L351.42,330.15L351.25,330.19L328.69,333.32L328.51,333.33L289.15,336.45L288.97,336.46L245.61,338.82L245.43,338.83L0.36,345.8L1.18,345.8" style="vector-effect: non-scaling-stroke; fill: none; stroke: rgb(255, 0, 0); stroke-opacity: 1; stroke-width: 5px; opacity: 1; stroke-dasharray: 15px, 15px;"/></g><g class="points"/><g class="text"/></g></g></g><g class="overplot"/><path class="xlines-above crisp" d="M80,425.5H593" style="fill: none; stroke-width: 3px; stroke: rgb(0, 0, 0); stroke-opacity: 1;"/><path class="ylines-above crisp" d="M81.5,60V424" style="fill: none; stroke-width: 3px; stroke: rgb(0, 0, 0); stroke-opacity: 1;"/><g class="overlines-above"/><g class="xaxislayer-above"><g class="xtick"><text text-anchor="middle" x="0" y="451" transform="translate(83,0)" style="font-family: sans-serif; font-size: 20px; fill: rgb(0, 0, 0); fill-opacity: 1; white-space: pre;">0</text></g><g class="xtick"><text text-anchor="middle" x="0" y="451" transform="translate(210.5,0)" style="font-family: sans-serif; font-size: 20px; fill: rgb(0, 0, 0); fill-opacity: 1; white-space: pre;">100</text></g><g class="xtick"><text text-anchor="middle" x="0" y="451" transform="translate(338,0)" style="font-family: sans-serif; font-size: 20px; fill: rgb(0, 0, 0); fill-opacity: 1; white-space: pre;">200</text></g><g class="xtick"><text text-anchor="middle" x="0" y="451" transform="translate(465.5,0)" style="font-family: sans-serif; font-size: 20px; fill: rgb(0, 0, 0); fill-opacity: 1; white-space: pre;">300</text></g><g class="xtick"><text text-anchor="middle" x="0" y="451" transform="translate(593,0)" style="font-family: sans-serif; font-size: 20px; fill: rgb(0, 0, 0); fill-opacity: 1; white-space: pre;">400</text></g></g><g class="yaxislayer-above"><g class="ytick"><text text-anchor="end" x="76" y="7" transform="translate(0,405.8)" style="font-family: sans-serif; font-size: 20px; fill: rgb(0, 0, 0); fill-opacity: 1; white-space: pre;">0</text></g><g class="ytick"><text text-anchor="end" x="76" y="7" transform="translate(0,368.74)" style="font-family: sans-serif; font-size: 20px; fill: rgb(0, 0, 0); fill-opacity: 1; white-space: pre;">0.1</text></g><g class="ytick"><text text-anchor="end" x="76" y="7" transform="translate(0,331.69)" style="font-family: sans-serif; font-size: 20px; fill: rgb(0, 0, 0); fill-opacity: 1; white-space: pre;">0.2</text></g><g class="ytick"><text text-anchor="end" x="76" y="7" transform="translate(0,294.63)" style="font-family: sans-serif; font-size: 20px; fill: rgb(0, 0, 0); fill-opacity: 1; white-space: pre;">0.3</text></g><g class="ytick"><text text-anchor="end" x="76" y="7" transform="translate(0,257.58000000000004)" style="font-family: sans-serif; font-size: 20px; fill: rgb(0, 0, 0); fill-opacity: 1; white-space: pre;">0.4</text></g><g class="ytick"><text text-anchor="end" x="76" y="7" transform="translate(0,220.52)" style="font-family: sans-serif; font-size: 20px; fill: rgb(0, 0, 0); fill-opacity: 1; white-space: pre;">0.5</text></g><g class="ytick"><text text-anchor="end" x="76" y="7" transform="translate(0,183.47)" style="font-family: sans-serif; font-size: 20px; fill: rgb(0, 0, 0); fill-opacity: 1; white-space: pre;">0.6</text></g><g class="ytick"><text text-anchor="end" x="76" y="7" transform="translate(0,146.41)" style="font-family: sans-serif; font-size: 20px; fill: rgb(0, 0, 0); fill-opacity: 1; white-space: pre;">0.7</text></g><g class="ytick"><text text-anchor="end" x="76" y="7" transform="translate(0,109.36)" style="font-family: sans-serif; font-size: 20px; fill: rgb(0, 0, 0); fill-opacity: 1; white-space: pre;">0.8</text></g><g class="ytick"><text text-anchor="end" x="76" y="7" transform="translate(0,72.3)" style="font-family: sans-serif; font-size: 20px; fill: rgb(0, 0, 0); fill-opacity: 1; white-space: pre;">0.9</text></g></g><g class="overaxes-above"/></g></g><g class="polarlayer"/><g class="ternarylayer"/><g class="geolayer"/><g class="funnelarealayer"/><g class="pielayer"/><g class="treemaplayer"/><g class="sunburstlayer"/><g class="glimages"/><defs id="topdefs-205d99"><g class="clips"/><clipPath id="legend205d99"><rect width="85" height="156" x="0" y="0"/></clipPath></defs><g class="layer-above"><g class="imagelayer"/><g class="shapelayer"/></g><g class="infolayer"><g class="legend" pointer-events="all" transform="translate(603.2,60)"><rect class="bg" shape-rendering="crispEdges" style="stroke: rgb(68, 68, 68); stroke-opacity: 1; fill: rgb(255, 255, 255); fill-opacity: 1; stroke-width: 0px;" width="85" height="156" x="0" y="0"/><g class="scrollbox" transform="" clip-path="url('#legend205d99')"><g class="groups" transform=""><g class="traces" transform="translate(0,19.5)" style="opacity: 1;"><text class="legendtext" text-anchor="start" x="40" y="7.8" style="font-family: sans-serif; font-size: 20px; fill: rgb(0, 0, 0); fill-opacity: 1; white-space: pre;">rtca</text><g class="layers" style="opacity: 1;"><g class="legendfill"/><g class="legendlines"><path class="js-line" d="M5,0h30" style="fill: none; stroke: rgb(0, 0, 255); stroke-opacity: 1; stroke-width: 5px;"/></g><g class="legendsymbols"><g class="legendpoints"/></g></g><rect class="legendtoggle" x="0" y="-14.5" width="79.328125" height="29" style="fill: rgb(0, 0, 0); fill-opacity: 0;"/></g></g><g class="groups" transform="translate(0,10)"><g class="traces" transform="translate(0,48.5)" style="opacity: 1;"><text class="legendtext" text-anchor="start" x="40" y="7.8" style="font-family: sans-serif; font-size: 20px; fill: rgb(0, 0, 0); fill-opacity: 1; white-space: pre;">rtca</text><g class="layers" style="opacity: 1;"><g class="legendfill"/><g class="legendlines"><path class="js-line" d="M5,0h30" style="fill: none; stroke: rgb(128, 0, 128); stroke-opacity: 1; stroke-width: 5px;"/></g><g class="legendsymbols"><g class="legendpoints"/></g></g><rect class="legendtoggle" x="0" y="-14.5" width="79.328125" height="29" style="fill: rgb(0, 0, 0); fill-opacity: 0;"/></g></g><g class="groups" transform="translate(0,20)"><g class="traces" transform="translate(0,77.5)" style="opacity: 1;"><text class="legendtext" text-anchor="start" x="40" y="7.8" style="font-family: sans-serif; font-size: 20px; fill: rgb(0, 0, 0); fill-opacity: 1; white-space: pre;">rtca</text><g class="layers" style="opacity: 1;"><g class="legendfill"/><g class="legendlines"><path class="js-line" d="M5,0h30" style="fill: none; stroke: rgb(255, 165, 0); stroke-opacity: 1; stroke-width: 5px;"/></g><g class="legendsymbols"><g class="legendpoints"/></g></g><rect class="legendtoggle" x="0" y="-14.5" width="79.328125" height="29" style="fill: rgb(0, 0, 0); fill-opacity: 0;"/></g></g><g class="groups" transform="translate(0,30)"><g class="traces" transform="translate(0,106.5)" style="opacity: 1;"><text class="legendtext" text-anchor="start" x="40" y="7.8" style="font-family: sans-serif; font-size: 20px; fill: rgb(0, 0, 0); fill-opacity: 1; white-space: pre;">rtca</text><g class="layers" style="opacity: 1;"><g class="legendfill"/><g class="legendlines"><path class="js-line" d="M5,0h30" style="fill: none; stroke: rgb(255, 0, 0); stroke-opacity: 1; stroke-width: 5px;"/></g><g class="legendsymbols"><g class="legendpoints"/></g></g><rect class="legendtoggle" x="0" y="-14.5" width="79.328125" height="29" style="fill: rgb(0, 0, 0); fill-opacity: 0;"/></g></g></g><rect class="scrollbar" rx="20" ry="3" width="0" height="0" style="fill: rgb(128, 139, 164); fill-opacity: 1;" x="0" y="0"/></g><g class="g-gtitle"/><g class="g-xtitle"><text class="xtitle" x="338" y="487.8" text-anchor="middle" style="font-family: sans-serif; font-size: 24px; fill: rgb(0, 0, 0); opacity: 1; font-weight: normal; white-space: pre;">Damage rate (min​<tspan style="font-size:70%" dy="-0.6em">-1</tspan><tspan dy="0.42em">​</tspan>)</text></g><g class="g-ytitle" transform="translate(9.6123046875,0)"><text class="ytitle" transform="rotate(-90,12.387500000000003,242)" x="12.387500000000003" y="242" text-anchor="middle" style="font-family: sans-serif; font-size: 24px; fill: rgb(0, 0, 0); opacity: 1; font-weight: normal; white-space: pre;">RtcA (μM)</text></g></g></svg>