<svg class="main-svg" xmlns="http://www.w3.org/2000/svg" xmlns:xlink="http://www.w3.org/1999/xlink" width="700" height="500" style="" viewBox="0 0 700 500"><rect x="0" y="0" width="700" height="500" style="fill: rgb(255, 255, 255); fill-opacity: 1;"/><defs id="defs-5d0959"><g class="clips"><clipPath id="clip5d0959xyplot" class="plotclip"><rect width="523" height="364"/></clipPath><clipPath class="axesclip" id="clip5d0959x"><rect x="89" y="0" width="523" height="500"/></clipPath><clipPath class="axesclip" id="clip5d0959y"><rect x="0" y="60" width="700" height="364"/></clipPath><clipPath class="axesclip" id="clip5d0959xy"><rect x="89" y="60" width="523" height="364"/></clipPath></g><g class="gradients"/></defs><g class="bglayer"/><g class="layer-below"><g class="imagelayer"/><g class="shapelayer"/></g><g class="cartesianlayer"><g class="subplot xy"><g class="layer-subplot"><g class="shapelayer"/><g class="imagelayer"/></g><g class="gridlayer"><g class="x"/><g class="y"/></g><g class="zerolinelayer"><path class="yzl zl crisp" transform="translate(0,398.83)" d="M89,0h523" style="stroke: rgb(255, 255, 255); stroke-opacity: 1; stroke-width: 2px;"/></g><path class="xlines-below"/><path class="ylines-below"/><g class="overlines-below"/><g class="xaxislayer-below"/><g class="yaxislayer-below"/><g class="overaxes-below"/><g class="plot" transform="translate(89,60)" clip-path="url('#clip5d0959xyplot')"><g class="scatterlayer mlayer"><g class="trace scatter tracedcf9bf" style="stroke-miterlimit: 2; opacity: 1;"><g class="fills"/><g class="errorbars"/><g class="lines"><path class="js-line" d="M523,338.83L0,338.83" style="vector-effect: non-scaling-stroke; fill: none; stroke: rgb(0, 0, 255); stroke-opacity: 1; stroke-width: 5px; opacity: 1;"/></g><g class="points"/><g class="text"/></g><g class="trace scatter trace0ade8c" style="stroke-miterlimit: 2; opacity: 1;"><g class="fills"/><g class="errorbars"/><g class="lines"><path class="js-line" d="M0,18.2L1.19,21.79L1.44,22.3L39.02,105.25L39.27,105.73L56.1,134.74L56.36,135.14L73.64,160.13L73.91,160.48L89.87,179.9L90.14,180.2L106.08,196.73L106.35,196.99L125.97,214.15L126.24,214.37L151.42,232.42L151.69,232.59L176.8,247.25L177.08,247.39L198.97,258.13L199.24,258.25L227.2,269.87L227.47,269.97L258.53,280.84L258.8,280.93L304.55,294.34L304.83,294.41L341.66,304.02L341.94,304.09L376.2,313.92L376.47,314.02L384.5,318.42L384.71,318.75L384.93,319.55" style="vector-effect: non-scaling-stroke; fill: none; stroke: rgb(0, 0, 255); stroke-opacity: 1; stroke-width: 5px; opacity: 1;"/></g><g class="points"/><g class="text"/></g><g class="trace scatter tracee5a478" style="stroke-miterlimit: 2; opacity: 1;"><g class="fills"/><g class="errorbars"/><g class="lines"><path class="js-line" d="M384.93,319.55L383.44,321.43L383.18,321.58L376.72,323.7L376.45,323.76L359.14,326.33L358.87,326.36L319.65,329.32L319.37,329.33L271.51,331.5L271.23,331.51L126.17,335.45L125.89,335.45L35.16,337.44L34.89,337.44L0,338.83" style="vector-effect: non-scaling-stroke; fill: none; stroke: rgb(0, 0, 255); stroke-opacity: 1; stroke-width: 5px; opacity: 1; stroke-dasharray: 15px, 15px;"/></g><g class="points"/><g class="text"/></g><g class="trace scatter trace27fbf4" style="stroke-miterlimit: 2; opacity: 1;"><g class="fills"/><g class="errorbars"/><g class="lines"><path class="js-line" d="M523,338.83L0,338.83" style="vector-effect: non-scaling-stroke; fill: none; stroke: rgb(128, 0, 128); stroke-opacity: 1; stroke-width: 5px; opacity: 1;"/></g><g class="points"/><g class="text"/></g><g class="trace scatter traceb3eb54" style="stroke-miterlimit: 2; opacity: 1;"><g class="fills"/><g class="errorbars"/><g class="lines"><path class="js-line" d="M0,18.2L1.28,22.06L1.45,22.41L38.18,104.91L38.35,105.23L56.51,136.77L56.69,137.04L73.26,161.03L73.43,161.27L94.91,186.8L95.09,186.99L115.26,206.48L115.44,206.64L134.8,222.19L134.98,222.33L160.46,239.21L160.65,239.32L189.97,255L190.15,255.09L226.22,270.5L226.4,270.57L265.16,283.91L265.34,283.97L331.18,302.32L331.37,302.37L367.32,312.38L367.51,312.45L378.6,317.31L378.78,317.45L380.13,319.48" style="vector-effect: non-scaling-stroke; fill: none; stroke: rgb(128, 0, 128); stroke-opacity: 1; stroke-width: 5px; opacity: 1;"/></g><g class="points"/><g class="text"/></g><g class="trace scatter trace735b81" style="stroke-miterlimit: 2; opacity: 1;"><g class="fills"/><g class="errorbars"/><g class="lines"><path class="js-line" d="M380.13,319.48L378.72,321.35L378.54,321.45L372.62,323.52L372.44,323.56L357.05,326.02L356.87,326.04L330.35,328.37L330.17,328.38L284.98,330.79L284.8,330.8L220.02,333.06L219.83,333.06L0.5,338.78L0.53,339.59L0.53,339.63L1.21,345.8L1.67,338.61L1.84,338.59L27.76,337.61L27.95,337.61L319.49,329.06L319.68,329.05L361.29,325.49L361.47,325.47L377.15,322.13L377.33,322.06L380.13,319.48L380.09,319.14L378.17,317L377.99,316.88L369.44,313.1L369.25,313.04L348.81,306.97L348.62,306.92L247.9,278.3L247.71,278.23L214.29,265.78L214.1,265.71L185.07,252.61L184.89,252.51L160.84,239.43L160.66,239.32L137.14,223.9L136.96,223.77L114.78,206.06L114.6,205.9L97.13,189.14L96.97,188.97L77.97,167.13L77.79,166.91L60.01,142.19L59.84,141.93L44.96,117.39L44.79,117.09L26.15,80.58L25.98,80.22L5.91,33.38L5.75,32.98L0,18.2" style="vector-effect: non-scaling-stroke; fill: none; stroke: rgb(128, 0, 128); stroke-opacity: 1; stroke-width: 5px; opacity: 1; stroke-dasharray: 15px, 15px;"/></g><g class="points"/><g class="text"/></g><g class="trace scatter trace417920" style="stroke-miterlimit: 2; opacity: 1;"><g class="fills"/><g class="errorbars"/><g class="lines"><path class="js-line" d="M523,338.83L0,338.83" style="vector-effect: non-scaling-stroke; fill: none; stroke: rgb(255, 165, 0); stroke-opacity: 1; stroke-width: 5px; opacity: 1;"/></g><g class="points"/><g class="text"/></g><g class="trace scatter tracec7e772" style="stroke-miterlimit: 2; opacity: 1;"><g class="fills"/><g class="errorbars"/><g class="lines"><path class="js-line" d="M0,18.2L1.28,22.1L1.44,22.46L15.35,56.81L15.51,57.19L30.44,90.3L30.6,90.64L47.92,123.45L48.09,123.75L63.17,147.86L63.35,148.12L77.5,167.48L77.68,167.7L94.9,187.71L95.08,187.9L115.04,207.17L115.22,207.33L137.62,225.08L137.8,225.21L163.56,241.81L163.75,241.92L193.49,257.39L193.68,257.48L227.54,271.68L227.73,271.75L259.28,282.7L259.47,282.75L301.95,295.22L302.13,295.27L371.68,315.17L371.86,315.26L376.87,318.98L376.94,319.32" style="vector-effect: non-scaling-stroke; fill: none; stroke: rgb(255, 165, 0); stroke-opacity: 1; stroke-width: 5px; opacity: 1;"/></g><g class="points"/><g class="text"/></g><g class="trace scatter tracec4397f" style="stroke-miterlimit: 2; opacity: 1;"><g class="fills"/><g class="errorbars"/><g class="lines"><path class="js-line" d="M376.95,319.45L375.53,321.33L375.35,321.43L369.06,323.59L368.88,323.63L354.41,325.96L354.22,325.98L313.89,329.22L313.7,329.23L222.73,332.91L222.54,332.91L175.65,334.2L175.47,334.2L0,338.83" style="vector-effect: non-scaling-stroke; fill: none; stroke: rgb(255, 165, 0); stroke-opacity: 1; stroke-width: 5px; opacity: 1; stroke-dasharray: 15px, 15px;"/></g><g class="points"/><g class="text"/></g><g class="trace scatter trace5916fc" style="stroke-miterlimit: 2; opacity: 1;"><g class="fills"/><g class="errorbars"/><g class="lines"><path class="js-line" d="M523,338.83L0,338.83" style="vector-effect: non-scaling-stroke; fill: none; stroke: rgb(255, 0, 0); stroke-opacity: 1; stroke-width: 5px; opacity: 1;"/></g><g class="points"/><g class="text"/></g><g class="trace scatter trace8bcc24" style="stroke-miterlimit: 2; opacity: 1;"><g class="fills"/><g class="errorbars"/><g class="lines"><path class="js-line" d="M0,18.2L1.26,22.21L1.43,22.58L14.8,56.63L14.96,57.03L32.18,95.75L32.35,96.1L46.22,122.66L46.39,122.97L63.55,150.75L63.73,151L77.5,169.83L77.68,170.05L94.72,189.82L94.9,190.01L114.57,208.96L114.75,209.12L133.76,224.37L133.95,224.5L154.35,238.26L154.54,238.37L175.76,250.46L175.95,250.56L203.44,263.66L203.62,263.74L237.02,276.84L237.21,276.9L265.49,286.27L265.67,286.33L303.35,297.24L303.53,297.29L362.71,314.56L362.89,314.64L368.73,318.43L368.87,318.68L369.02,319.4" style="vector-effect: non-scaling-stroke; fill: none; stroke: rgb(255, 0, 0); stroke-opacity: 1; stroke-width: 5px; opacity: 1;"/></g><g class="points"/><g class="text"/></g><g class="trace scatter trace6e234b" style="stroke-miterlimit: 2; opacity: 1;"><g class="fills"/><g class="errorbars"/><g class="lines"><path class="js-line" d="M369.02,319.4L367.58,321.29L367.41,321.39L361.11,323.57L360.93,323.61L341.85,326.48L341.67,326.49L302.98,329.42L302.79,329.43L213.1,333.03L212.92,333.03L0.37,338.83L0.53,339.54L0.53,339.58L1.21,345.8L1.21,345.8" style="vector-effect: non-scaling-stroke; fill: none; stroke: rgb(255, 0, 0); stroke-opacity: 1; stroke-width: 5px; opacity: 1; stroke-dasharray: 15px, 15px;"/></g><g class="points"/><g class="text"/></g></g></g><g class="overplot"/><path class="xlines-above crisp" d="M86,425.5H612" style="fill: none; stroke-width: 3px; stroke: rgb(0, 0, 0); stroke-opacity: 1;"/><path class="ylines-above crisp" d="M87.5,60V424" style="fill: none; stroke-width: 3px; stroke: rgb(0, 0, 0); stroke-opacity: 1;"/><g class="overlines-above"/><g class="xaxislayer-above"><g class="xtick"><text text-anchor="middle" x="0" y="451" transform="translate(89,0)" style="font-family: sans-serif; font-size: 20px; fill: rgb(0, 0, 0); fill-opacity: 1; white-space: pre;">0</text></g><g class="xtick"><text text-anchor="middle" x="0" y="451" transform="translate(219.75,0)" style="font-family: sans-serif; font-size: 20px; fill: rgb(0, 0, 0); fill-opacity: 1; white-space: pre;">100</text></g><g class="xtick"><text text-anchor="middle" x="0" y="451" transform="translate(350.5,0)" style="font-family: sans-serif; font-size: 20px; fill: rgb(0, 0, 0); fill-opacity: 1; white-space: pre;">200</text></g><g class="xtick"><text text-anchor="middle" x="0" y="451" transform="translate(481.25,0)" style="font-family: sans-serif; font-size: 20px; fill: rgb(0, 0, 0); fill-opacity: 1; white-space: pre;">300</text></g><g class="xtick"><text text-anchor="middle" x="0" y="451" transform="translate(612,0)" style="font-family: sans-serif; font-size: 20px; fill: rgb(0, 0, 0); fill-opacity: 1; white-space: pre;">400</text></g></g><g class="yaxislayer-above"><g class="ytick"><text text-anchor="end" x="82" y="7" transform="translate(0,398.83)" style="font-family: sans-serif; font-size: 20px; fill: rgb(0, 0, 0); fill-opacity: 1; white-space: pre;">0</text></g><g class="ytick"><text text-anchor="end" x="82" y="7" transform="translate(0,351.15)" style="font-family: sans-serif; font-size: 20px; fill: rgb(0, 0, 0); fill-opacity: 1; white-space: pre;">20</text></g><g class="ytick"><text text-anchor="end" x="82" y="7" transform="translate(0,303.47)" style="font-family: sans-serif; font-size: 20px; fill: rgb(0, 0, 0); fill-opacity: 1; white-space: pre;">40</text></g><g class="ytick"><text text-anchor="end" x="82" y="7" transform="translate(0,255.78)" style="font-family: sans-serif; font-size: 20px; fill: rgb(0, 0, 0); fill-opacity: 1; white-space: pre;">60</text></g><g class="ytick"><text text-anchor="end" x="82" y="7" transform="translate(0,208.1)" style="font-family: sans-serif; font-size: 20px; fill: rgb(0, 0, 0); fill-opacity: 1; white-space: pre;">80</text></g><g class="ytick"><text text-anchor="end" x="82" y="7" transform="translate(0,160.41)" style="font-family: sans-serif; font-size: 20px; fill: rgb(0, 0, 0); fill-opacity: 1; white-space: pre;">100</text></g><g class="ytick"><text text-anchor="end" x="82" y="7" transform="translate(0,112.72999999999999)" style="font-family: sans-serif; font-size: 20px; fill: rgb(0, 0, 0); fill-opacity: 1; white-space: pre;">120</text></g><g class="ytick"><text text-anchor="end" x="82" y="7" transform="translate(0,65.05)" style="font-family: sans-serif; font-size: 20px; fill: rgb(0, 0, 0); fill-opacity: 1; white-space: pre;">140</text></g></g><g class="overaxes-above"/></g></g><g class="polarlayer"/><g class="ternarylayer"/><g class="geolayer"/><g class="funnelarealayer"/><g class="pielayer"/><g class="treemaplayer"/><g class="sunburstlayer"/><g class="glimages"/><defs id="topdefs-5d0959"><g class="clips"/><clipPath id="legend5d0959"><rect width="66" height="156" x="0" y="0"/></clipPath></defs><g class="layer-above"><g class="imagelayer"/><g class="shapelayer"/></g><g class="infolayer"><g class="legend" pointer-events="all" transform="translate(622.46,60)"><rect class="bg" shape-rendering="crispEdges" width="66" height="156" x="0" y="0" style="stroke: rgb(68, 68, 68); stroke-opacity: 1; fill: rgb(255, 255, 255); fill-opacity: 1; stroke-width: 0px;"/><g class="scrollbox" transform="" clip-path="url('#legend5d0959')"><g class="groups" transform=""><g class="traces" transform="translate(0,19.5)" style="opacity: 1;"><text class="legendtext" text-anchor="start" x="40" y="7.8" style="font-family: sans-serif; font-size: 20px; fill: rgb(0, 0, 0); fill-opacity: 1; white-space: pre;">rh</text><g class="layers" style="opacity: 1;"><g class="legendfill"/><g class="legendlines"><path class="js-line" d="M5,0h30" style="fill: none; stroke: rgb(0, 0, 255); stroke-opacity: 1; stroke-width: 5px;"/></g><g class="legendsymbols"><g class="legendpoints"/></g></g><rect class="legendtoggle" x="0" y="-14.5" width="60.546875" height="29" style="fill: rgb(0, 0, 0); fill-opacity: 0;"/></g></g><g class="groups" transform="translate(0,10)"><g class="traces" transform="translate(0,48.5)" style="opacity: 1;"><text class="legendtext" text-anchor="start" x="40" y="7.8" style="font-family: sans-serif; font-size: 20px; fill: rgb(0, 0, 0); fill-opacity: 1; white-space: pre;">rh</text><g class="layers" style="opacity: 1;"><g class="legendfill"/><g class="legendlines"><path class="js-line" d="M5,0h30" style="fill: none; stroke: rgb(128, 0, 128); stroke-opacity: 1; stroke-width: 5px;"/></g><g class="legendsymbols"><g class="legendpoints"/></g></g><rect class="legendtoggle" x="0" y="-14.5" width="60.546875" height="29" style="fill: rgb(0, 0, 0); fill-opacity: 0;"/></g></g><g class="groups" transform="translate(0,20)"><g class="traces" transform="translate(0,77.5)" style="opacity: 1;"><text class="legendtext" text-anchor="start" x="40" y="7.8" style="font-family: sans-serif; font-size: 20px; fill: rgb(0, 0, 0); fill-opacity: 1; white-space: pre;">rh</text><g class="layers" style="opacity: 1;"><g class="legendfill"/><g class="legendlines"><path class="js-line" d="M5,0h30" style="fill: none; stroke: rgb(255, 165, 0); stroke-opacity: 1; stroke-width: 5px;"/></g><g class="legendsymbols"><g class="legendpoints"/></g></g><rect class="legendtoggle" x="0" y="-14.5" width="60.546875" height="29" style="fill: rgb(0, 0, 0); fill-opacity: 0;"/></g></g><g class="groups" transform="translate(0,30)"><g class="traces" transform="translate(0,106.5)" style="opacity: 1;"><text class="legendtext" text-anchor="start" x="40" y="7.8" style="font-family: sans-serif; font-size: 20px; fill: rgb(0, 0, 0); fill-opacity: 1; white-space: pre;">rh</text><g class="layers" style="opacity: 1;"><g class="legendfill"/><g class="legendlines"><path class="js-line" d="M5,0h30" style="fill: none; stroke: rgb(255, 0, 0); stroke-opacity: 1; stroke-width: 5px;"/></g><g class="legendsymbols"><g class="legendpoints"/></g></g><rect class="legendtoggle" x="0" y="-14.5" width="60.546875" height="29" style="fill: rgb(0, 0, 0); fill-opacity: 0;"/></g></g></g><rect class="scrollbar" rx="20" ry="3" width="0" height="0" x="0" y="0" style="fill: rgb(128, 139, 164); fill-opacity: 1;"/></g><g class="g-gtitle"/><g class="g-xtitle"><text class="xtitle" x="350.5" y="487.8" text-anchor="middle" style="font-family: sans-serif; font-size: 24px; fill: rgb(0, 0, 0); opacity: 1; font-weight: normal; white-space: pre;">Damage rate (min​<tspan style="font-size:70%" dy="-0.6em">-1</tspan><tspan dy="0.42em">​</tspan>)</text></g><g class="g-ytitle" transform="translate(9.9873046875,0)"><text class="ytitle" transform="rotate(-90,12.012500000000003,242)" x="12.012500000000003" y="242" text-anchor="middle" style="font-family: sans-serif; font-size: 24px; fill: rgb(0, 0, 0); opacity: 1; font-weight: normal; white-space: pre;">Rh (μM)</text></g></g></svg>