<svg class="main-svg" xmlns="http://www.w3.org/2000/svg" xmlns:xlink="http://www.w3.org/1999/xlink" width="700" height="500" style="" viewBox="0 0 700 500"><rect x="0" y="0" width="700" height="500" style="fill: rgb(255, 255, 255); fill-opacity: 1;"/><defs id="defs-e58c23"><g class="clips"><clipPath id="clipe58c23xyplot" class="plotclip"><rect width="523" height="364"/></clipPath><clipPath class="axesclip" id="clipe58c23x"><rect x="89" y="0" width="523" height="500"/></clipPath><clipPath class="axesclip" id="clipe58c23y"><rect x="0" y="60" width="700" height="364"/></clipPath><clipPath class="axesclip" id="clipe58c23xy"><rect x="89" y="60" width="523" height="364"/></clipPath></g><g class="gradients"/></defs><g class="bglayer"/><g class="layer-below"><g class="imagelayer"/><g class="shapelayer"/></g><g class="cartesianlayer"><g class="subplot xy"><g class="layer-subplot"><g class="shapelayer"/><g class="imagelayer"/></g><g class="gridlayer"><g class="x"/><g class="y"/></g><g class="zerolinelayer"><path class="yzl zl crisp" transform="translate(0,398.83)" d="M89,0h523" style="stroke: rgb(255, 255, 255); stroke-opacity: 1; stroke-width: 2px;"/></g><path class="xlines-below"/><path class="ylines-below"/><g class="overlines-below"/><g class="xaxislayer-below"/><g class="yaxislayer-below"/><g class="overaxes-below"/><g class="plot" transform="translate(89,60)" clip-path="url('#clipe58c23xyplot')"><g class="scatterlayer mlayer"><g class="trace scatter traced4b5fb" style="stroke-miterlimit: 2; opacity: 1;"><g class="fills"/><g class="errorbars"/><g class="lines"><path class="js-line" d="M523,338.83L0,338.83" style="vector-effect: non-scaling-stroke; fill: none; stroke: rgb(0, 0, 255); stroke-opacity: 1; stroke-width: 5px; opacity: 1;"/></g><g class="points"/><g class="text"/></g><g class="trace scatter trace3522d2" style="stroke-miterlimit: 2; opacity: 1;"><g class="fills"/><g class="errorbars"/><g class="lines"><path class="js-line" d="M0,18.2L1.19,21.79L1.44,22.3L39.02,105.25L39.27,105.73L56.1,134.74L56.36,135.14L73.64,160.13L73.91,160.48L89.87,179.9L90.14,180.2L106.08,196.73L106.35,196.99L125.97,214.15L126.24,214.37L151.42,232.42L151.69,232.59L176.8,247.25L177.08,247.39L198.97,258.13L199.24,258.25L227.2,269.87L227.47,269.97L258.53,280.84L258.8,280.93L304.55,294.34L304.83,294.41L341.66,304.02L341.94,304.09L376.2,313.92L376.47,314.02L384.5,318.42L384.71,318.75L384.93,319.55" style="vector-effect: non-scaling-stroke; fill: none; stroke: rgb(0, 0, 255); stroke-opacity: 1; stroke-width: 5px; opacity: 1;"/></g><g class="points"/><g class="text"/></g><g class="trace scatter trace16bcb4" style="stroke-miterlimit: 2; opacity: 1;"><g class="fills"/><g class="errorbars"/><g class="lines"><path class="js-line" d="M384.93,319.55L383.44,321.43L383.18,321.58L376.72,323.7L376.45,323.76L359.14,326.33L358.87,326.36L319.65,329.32L319.37,329.33L271.51,331.5L271.23,331.51L126.17,335.45L125.89,335.45L35.99,337.42L35.71,337.42L0,338.83" style="vector-effect: non-scaling-stroke; fill: none; stroke: rgb(0, 0, 255); stroke-opacity: 1; stroke-width: 5px; opacity: 1; stroke-dasharray: 15px, 15px;"/></g><g class="points"/><g class="text"/></g><g class="trace scatter traceb68463" style="stroke-miterlimit: 2; opacity: 1;"><g class="fills"/><g class="errorbars"/><g class="lines"><path class="js-line" d="M523,338.83L0,338.83" style="vector-effect: non-scaling-stroke; fill: none; stroke: rgb(128, 0, 128); stroke-opacity: 1; stroke-width: 5px; opacity: 1;"/></g><g class="points"/><g class="text"/></g><g class="trace scatter tracec34866" style="stroke-miterlimit: 2; opacity: 1;"><g class="fills"/><g class="errorbars"/><g class="lines"><path class="js-line" d="M0,18.2L1.65,29.88L1.75,30.54L11.01,89.26L11.12,89.89L21.33,140.41L21.46,140.97L30.96,176.39L31.11,176.87L39.29,200.58L39.45,200.99L50.37,225.6L50.54,225.93L62.53,246.5L62.71,246.77L74.5,262.53L74.68,262.75L90.47,279.3L90.65,279.47L109.31,294.9L109.5,295.04L136.31,316.6L136.46,316.85L137.31,319.57" style="vector-effect: non-scaling-stroke; fill: none; stroke: rgb(128, 0, 128); stroke-opacity: 1; stroke-width: 5px; opacity: 1;"/></g><g class="points"/><g class="text"/></g><g class="trace scatter trace6666d1" style="stroke-miterlimit: 2; opacity: 1;"><g class="fills"/><g class="errorbars"/><g class="lines"><path class="js-line" d="M137.31,319.57L135.92,322.53L135.77,322.68L130.73,325.48L130.55,325.54L119.14,328.47L118.95,328.5L97,331.5L96.82,331.52L56.68,334.73L56.5,334.74L0.52,339.55L0.53,339.66L0.53,339.7L1.21,345.8L0,338.84L0,338.84" style="vector-effect: non-scaling-stroke; fill: none; stroke: rgb(128, 0, 128); stroke-opacity: 1; stroke-width: 5px; opacity: 1; stroke-dasharray: 15px, 15px;"/></g><g class="points"/><g class="text"/></g><g class="trace scatter tracef5737a" style="stroke-miterlimit: 2; opacity: 1;"><g class="fills"/><g class="errorbars"/><g class="lines"><path class="js-line" d="M523,338.83L0,338.83" style="vector-effect: non-scaling-stroke; fill: none; stroke: rgb(255, 165, 0); stroke-opacity: 1; stroke-width: 5px; opacity: 1;"/></g><g class="points"/><g class="text"/></g><g class="trace scatter trace00020c" style="stroke-miterlimit: 2; opacity: 1;"><g class="fills"/><g class="errorbars"/><g class="lines"><path class="js-line" d="M0,18.2L1.24,30.73L1.32,31.44L10.05,107.46L10.14,108.14L18.3,159.65L18.42,160.27L27.34,200L27.49,200.53L36.27,228.39L36.43,228.82L45.38,249.88L45.55,250.23L55.84,268.57L56.02,268.85L69.86,287.45L70.04,287.66L90.79,309.95L90.97,310.15L95.83,317.68L95.92,318.01L96.13,319.59" style="vector-effect: non-scaling-stroke; fill: none; stroke: rgb(255, 165, 0); stroke-opacity: 1; stroke-width: 5px; opacity: 1;"/></g><g class="points"/><g class="text"/></g><g class="trace scatter traceb3d0be" style="stroke-miterlimit: 2; opacity: 1;"><g class="fills"/><g class="errorbars"/><g class="lines"><path class="js-line" d="M96.13,319.59L94.85,322.96L94.71,323.12L90.06,326.21L89.89,326.28L79.96,329.32L79.78,329.36L59.02,332.71L58.84,332.73L0.52,339.55L0.53,339.62L0.53,339.66L1.21,345.8L0,338.84L0,338.84" style="vector-effect: non-scaling-stroke; fill: none; stroke: rgb(255, 165, 0); stroke-opacity: 1; stroke-width: 5px; opacity: 1; stroke-dasharray: 15px, 15px;"/></g><g class="points"/><g class="text"/></g><g class="trace scatter tracea9054f" style="stroke-miterlimit: 2; opacity: 1;"><g class="fills"/><g class="errorbars"/><g class="lines"><path class="js-line" d="M523,338.83L0,338.83" style="vector-effect: non-scaling-stroke; fill: none; stroke: rgb(255, 0, 0); stroke-opacity: 1; stroke-width: 5px; opacity: 1;"/></g><g class="points"/><g class="text"/></g><g class="trace scatter tracefa2d0d" style="stroke-miterlimit: 2; opacity: 1;"><g class="fills"/><g class="errorbars"/><g class="lines"><path class="js-line" d="M0,18.2L1.23,39.62L1.27,40.37L10.23,157.45L10.3,158.18L17.33,210.49L17.44,211.14L25.29,247.53L25.44,248.08L33.7,273.24L33.87,273.67L41.96,291.5L42.14,291.84L54.93,318.52L54.96,318.87L54.99,319.61" style="vector-effect: non-scaling-stroke; fill: none; stroke: rgb(255, 0, 0); stroke-opacity: 1; stroke-width: 5px; opacity: 1;"/></g><g class="points"/><g class="text"/></g><g class="trace scatter trace4b492d" style="stroke-miterlimit: 2; opacity: 1;"><g class="fills"/><g class="errorbars"/><g class="lines"><path class="js-line" d="M54.99,319.61L53.77,323.84L53.65,324.02L49.82,327.39L49.66,327.48L41.51,330.79L41.35,330.84L24.82,334.41L24.64,334.44L0.49,338.8L0.54,339.77L1.21,345.8L1.69,338.21L1.81,338.18L13.57,336.17L13.74,336.14L41.34,330.84L41.51,330.79L50.73,326.81L50.88,326.7L54.31,322.87L54.41,322.65L54.85,317.88L54.78,317.52L52.12,310.35L51.96,310.03L32.07,268.97L31.9,268.52L24.16,243.21L24.02,242.64L18.63,217.78L18.51,217.14L12.72,179.07L12.63,178.37L7.26,126.14L7.19,125.4L0.58,28.55L0.54,27.8L0,18.2" style="vector-effect: non-scaling-stroke; fill: none; stroke: rgb(255, 0, 0); stroke-opacity: 1; stroke-width: 5px; opacity: 1; stroke-dasharray: 15px, 15px;"/></g><g class="points"/><g class="text"/></g></g></g><g class="overplot"/><path class="xlines-above crisp" d="M86,425.5H612" style="fill: none; stroke-width: 3px; stroke: rgb(0, 0, 0); stroke-opacity: 1;"/><path class="ylines-above crisp" d="M87.5,60V424" style="fill: none; stroke-width: 3px; stroke: rgb(0, 0, 0); stroke-opacity: 1;"/><g class="overlines-above"/><g class="xaxislayer-above"><g class="xtick"><text text-anchor="middle" x="0" y="451" transform="translate(89,0)" style="font-family: sans-serif; font-size: 20px; fill: rgb(0, 0, 0); fill-opacity: 1; white-space: pre;">0</text></g><g class="xtick"><text text-anchor="middle" x="0" y="451" transform="translate(219.75,0)" style="font-family: sans-serif; font-size: 20px; fill: rgb(0, 0, 0); fill-opacity: 1; white-space: pre;">100</text></g><g class="xtick"><text text-anchor="middle" x="0" y="451" transform="translate(350.5,0)" style="font-family: sans-serif; font-size: 20px; fill: rgb(0, 0, 0); fill-opacity: 1; white-space: pre;">200</text></g><g class="xtick"><text text-anchor="middle" x="0" y="451" transform="translate(481.25,0)" style="font-family: sans-serif; font-size: 20px; fill: rgb(0, 0, 0); fill-opacity: 1; white-space: pre;">300</text></g><g class="xtick"><text text-anchor="middle" x="0" y="451" transform="translate(612,0)" style="font-family: sans-serif; font-size: 20px; fill: rgb(0, 0, 0); fill-opacity: 1; white-space: pre;">400</text></g></g><g class="yaxislayer-above"><g class="ytick"><text text-anchor="end" x="82" y="7" transform="translate(0,398.83)" style="font-family: sans-serif; font-size: 20px; fill: rgb(0, 0, 0); fill-opacity: 1; white-space: pre;">0</text></g><g class="ytick"><text text-anchor="end" x="82" y="7" transform="translate(0,351.15)" style="font-family: sans-serif; font-size: 20px; fill: rgb(0, 0, 0); fill-opacity: 1; white-space: pre;">20</text></g><g class="ytick"><text text-anchor="end" x="82" y="7" transform="translate(0,303.47)" style="font-family: sans-serif; font-size: 20px; fill: rgb(0, 0, 0); fill-opacity: 1; white-space: pre;">40</text></g><g class="ytick"><text text-anchor="end" x="82" y="7" transform="translate(0,255.78)" style="font-family: sans-serif; font-size: 20px; fill: rgb(0, 0, 0); fill-opacity: 1; white-space: pre;">60</text></g><g class="ytick"><text text-anchor="end" x="82" y="7" transform="translate(0,208.1)" style="font-family: sans-serif; font-size: 20px; fill: rgb(0, 0, 0); fill-opacity: 1; white-space: pre;">80</text></g><g class="ytick"><text text-anchor="end" x="82" y="7" transform="translate(0,160.41)" style="font-family: sans-serif; font-size: 20px; fill: rgb(0, 0, 0); fill-opacity: 1; white-space: pre;">100</text></g><g class="ytick"><text text-anchor="end" x="82" y="7" transform="translate(0,112.72999999999999)" style="font-family: sans-serif; font-size: 20px; fill: rgb(0, 0, 0); fill-opacity: 1; white-space: pre;">120</text></g><g class="ytick"><text text-anchor="end" x="82" y="7" transform="translate(0,65.05)" style="font-family: sans-serif; font-size: 20px; fill: rgb(0, 0, 0); fill-opacity: 1; white-space: pre;">140</text></g></g><g class="overaxes-above"/></g></g><g class="polarlayer"/><g class="ternarylayer"/><g class="geolayer"/><g class="funnelarealayer"/><g class="pielayer"/><g class="treemaplayer"/><g class="sunburstlayer"/><g class="glimages"/><defs id="topdefs-e58c23"><g class="clips"/><clipPath id="legende58c23"><rect width="66" height="156" x="0" y="0"/></clipPath></defs><g class="layer-above"><g class="imagelayer"/><g class="shapelayer"/></g><g class="infolayer"><g class="legend" pointer-events="all" transform="translate(622.46,60)"><rect class="bg" shape-rendering="crispEdges" style="stroke: rgb(68, 68, 68); stroke-opacity: 1; fill: rgb(255, 255, 255); fill-opacity: 1; stroke-width: 0px;" width="66" height="156" x="0" y="0"/><g class="scrollbox" transform="" clip-path="url('#legende58c23')"><g class="groups" transform=""><g class="traces" transform="translate(0,19.5)" style="opacity: 1;"><text class="legendtext" text-anchor="start" x="40" y="7.8" style="font-family: sans-serif; font-size: 20px; fill: rgb(0, 0, 0); fill-opacity: 1; white-space: pre;">rh</text><g class="layers" style="opacity: 1;"><g class="legendfill"/><g class="legendlines"><path class="js-line" d="M5,0h30" style="fill: none; stroke: rgb(0, 0, 255); stroke-opacity: 1; stroke-width: 5px;"/></g><g class="legendsymbols"><g class="legendpoints"/></g></g><rect class="legendtoggle" x="0" y="-14.5" width="60.546875" height="29" style="fill: rgb(0, 0, 0); fill-opacity: 0;"/></g></g><g class="groups" transform="translate(0,10)"><g class="traces" transform="translate(0,48.5)" style="opacity: 1;"><text class="legendtext" text-anchor="start" x="40" y="7.8" style="font-family: sans-serif; font-size: 20px; fill: rgb(0, 0, 0); fill-opacity: 1; white-space: pre;">rh</text><g class="layers" style="opacity: 1;"><g class="legendfill"/><g class="legendlines"><path class="js-line" d="M5,0h30" style="fill: none; stroke: rgb(128, 0, 128); stroke-opacity: 1; stroke-width: 5px;"/></g><g class="legendsymbols"><g class="legendpoints"/></g></g><rect class="legendtoggle" x="0" y="-14.5" width="60.546875" height="29" style="fill: rgb(0, 0, 0); fill-opacity: 0;"/></g></g><g class="groups" transform="translate(0,20)"><g class="traces" transform="translate(0,77.5)" style="opacity: 1;"><text class="legendtext" text-anchor="start" x="40" y="7.8" style="font-family: sans-serif; font-size: 20px; fill: rgb(0, 0, 0); fill-opacity: 1; white-space: pre;">rh</text><g class="layers" style="opacity: 1;"><g class="legendfill"/><g class="legendlines"><path class="js-line" d="M5,0h30" style="fill: none; stroke: rgb(255, 165, 0); stroke-opacity: 1; stroke-width: 5px;"/></g><g class="legendsymbols"><g class="legendpoints"/></g></g><rect class="legendtoggle" x="0" y="-14.5" width="60.546875" height="29" style="fill: rgb(0, 0, 0); fill-opacity: 0;"/></g></g><g class="groups" transform="translate(0,30)"><g class="traces" transform="translate(0,106.5)" style="opacity: 1;"><text class="legendtext" text-anchor="start" x="40" y="7.8" style="font-family: sans-serif; font-size: 20px; fill: rgb(0, 0, 0); fill-opacity: 1; white-space: pre;">rh</text><g class="layers" style="opacity: 1;"><g class="legendfill"/><g class="legendlines"><path class="js-line" d="M5,0h30" style="fill: none; stroke: rgb(255, 0, 0); stroke-opacity: 1; stroke-width: 5px;"/></g><g class="legendsymbols"><g class="legendpoints"/></g></g><rect class="legendtoggle" x="0" y="-14.5" width="60.546875" height="29" style="fill: rgb(0, 0, 0); fill-opacity: 0;"/></g></g></g><rect class="scrollbar" rx="20" ry="3" width="0" height="0" style="fill: rgb(128, 139, 164); fill-opacity: 1;" x="0" y="0"/></g><g class="g-gtitle"/><g class="g-xtitle"><text class="xtitle" x="350.5" y="487.8" text-anchor="middle" style="font-family: sans-serif; font-size: 24px; fill: rgb(0, 0, 0); opacity: 1; font-weight: normal; white-space: pre;">Damage rate (min​<tspan style="font-size:70%" dy="-0.6em">-1</tspan><tspan dy="0.42em">​</tspan>)</text></g><g class="g-ytitle" transform="translate(9.9873046875,0)"><text class="ytitle" transform="rotate(-90,12.012500000000003,242)" x="12.012500000000003" y="242" text-anchor="middle" style="font-family: sans-serif; font-size: 24px; fill: rgb(0, 0, 0); opacity: 1; font-weight: normal; white-space: pre;">Rh (μM)</text></g></g></svg>