<svg class="main-svg" xmlns="http://www.w3.org/2000/svg" xmlns:xlink="http://www.w3.org/1999/xlink" width="700" height="500" style="" viewBox="0 0 700 500"><rect x="0" y="0" width="700" height="500" style="fill: rgb(255, 255, 255); fill-opacity: 1;"/><defs id="defs-a0c414"><g class="clips"><clipPath id="clipa0c414xyplot" class="plotclip"><rect width="523" height="364"/></clipPath><clipPath class="axesclip" id="clipa0c414x"><rect x="89" y="0" width="523" height="500"/></clipPath><clipPath class="axesclip" id="clipa0c414y"><rect x="0" y="60" width="700" height="364"/></clipPath><clipPath class="axesclip" id="clipa0c414xy"><rect x="89" y="60" width="523" height="364"/></clipPath></g><g class="gradients"/></defs><g class="bglayer"/><g class="layer-below"><g class="imagelayer"/><g class="shapelayer"/></g><g class="cartesianlayer"><g class="subplot xy"><g class="layer-subplot"><g class="shapelayer"/><g class="imagelayer"/></g><g class="gridlayer"><g class="x"/><g class="y"/></g><g class="zerolinelayer"><path class="yzl zl crisp" transform="translate(0,398.83)" d="M89,0h523" style="stroke: rgb(255, 255, 255); stroke-opacity: 1; stroke-width: 2px;"/></g><path class="xlines-below"/><path class="ylines-below"/><g class="overlines-below"/><g class="xaxislayer-below"/><g class="yaxislayer-below"/><g class="overaxes-below"/><g class="plot" transform="translate(89,60)" clip-path="url('#clipa0c414xyplot')"><g class="scatterlayer mlayer"><g class="trace scatter trace911c16" style="stroke-miterlimit: 2; opacity: 1;"><g class="fills"/><g class="errorbars"/><g class="lines"><path class="js-line" d="M523,338.83L0,338.83" style="vector-effect: non-scaling-stroke; fill: none; stroke: rgb(0, 0, 255); stroke-opacity: 1; stroke-width: 5px; opacity: 1;"/></g><g class="points"/><g class="text"/></g><g class="trace scatter tracec620d7" style="stroke-miterlimit: 2; opacity: 1;"><g class="fills"/><g class="errorbars"/><g class="lines"><path class="js-line" d="M0,18.2L1.19,21.79L1.44,22.3L39.02,105.25L39.27,105.73L56.1,134.74L56.36,135.14L73.64,160.13L73.91,160.48L89.87,179.9L90.14,180.2L106.08,196.73L106.35,196.99L125.97,214.15L126.24,214.37L151.42,232.42L151.69,232.59L176.8,247.25L177.08,247.39L198.97,258.13L199.24,258.25L227.2,269.87L227.47,269.97L258.53,280.84L258.8,280.93L304.55,294.34L304.83,294.41L341.66,304.02L341.94,304.09L376.2,313.92L376.47,314.02L384.5,318.42L384.71,318.75L384.93,319.55" style="vector-effect: non-scaling-stroke; fill: none; stroke: rgb(0, 0, 255); stroke-opacity: 1; stroke-width: 5px; opacity: 1;"/></g><g class="points"/><g class="text"/></g><g class="trace scatter traceaa2592" style="stroke-miterlimit: 2; opacity: 1;"><g class="fills"/><g class="errorbars"/><g class="lines"><path class="js-line" d="M384.93,319.55L383.44,321.43L383.18,321.58L376.72,323.7L376.45,323.76L359.14,326.33L358.87,326.36L319.65,329.32L319.37,329.33L271.51,331.5L271.23,331.51L126.17,335.45L125.89,335.45L35.16,337.44L34.89,337.44L0,338.83" style="vector-effect: non-scaling-stroke; fill: none; stroke: rgb(0, 0, 255); stroke-opacity: 1; stroke-width: 5px; opacity: 1; stroke-dasharray: 15px, 15px;"/></g><g class="points"/><g class="text"/></g><g class="trace scatter trace0f75a4" style="stroke-miterlimit: 2; opacity: 1;"><g class="fills"/><g class="errorbars"/><g class="lines"><path class="js-line" d="M523,338.83L0,338.83" style="vector-effect: non-scaling-stroke; fill: none; stroke: rgb(128, 0, 128); stroke-opacity: 1; stroke-width: 5px; opacity: 1;"/></g><g class="points"/><g class="text"/></g><g class="trace scatter tracec4e585" style="stroke-miterlimit: 2; opacity: 1;"><g class="fills"/><g class="errorbars"/><g class="lines"><path class="js-line" d="M0,18.2L1.58,29.5L1.68,30.16L15.49,113.73L15.61,114.33L26.23,160.48L26.38,161L36.18,192.67L36.34,193.11L45.88,216.74L46.05,217.11L58.38,240.4L58.56,240.69L70.44,257.88L70.62,258.11L84.72,274.1L84.9,274.28L101.7,289.32L101.89,289.47L135.96,317.02L136.1,317.28L136.7,319.55" style="vector-effect: non-scaling-stroke; fill: none; stroke: rgb(128, 0, 128); stroke-opacity: 1; stroke-width: 5px; opacity: 1;"/></g><g class="points"/><g class="text"/></g><g class="trace scatter tracec76f4d" style="stroke-miterlimit: 2; opacity: 1;"><g class="fills"/><g class="errorbars"/><g class="lines"><path class="js-line" d="M136.7,319.55L135.46,322.37L135.31,322.53L130.64,325.27L130.46,325.34L120.14,328.15L119.96,328.19L96.39,331.51L96.2,331.53L55.88,334.76L55.7,334.77L0.49,338.79L0.53,339.74L1.21,345.8L0,338.84" style="vector-effect: non-scaling-stroke; fill: none; stroke: rgb(128, 0, 128); stroke-opacity: 1; stroke-width: 5px; opacity: 1; stroke-dasharray: 15px, 15px;"/></g><g class="points"/><g class="text"/></g><g class="trace scatter tracecdfddf" style="stroke-miterlimit: 2; opacity: 1;"><g class="fills"/><g class="errorbars"/><g class="lines"><path class="js-line" d="M523,338.83L0,338.83" style="vector-effect: non-scaling-stroke; fill: none; stroke: rgb(255, 165, 0); stroke-opacity: 1; stroke-width: 5px; opacity: 1;"/></g><g class="points"/><g class="text"/></g><g class="trace scatter traceb8fe2f" style="stroke-miterlimit: 2; opacity: 1;"><g class="fills"/><g class="errorbars"/><g class="lines"><path class="js-line" d="M0,18.2L1.2,30.36L1.27,31.08L10.25,109.46L10.34,110.14L17.99,158.55L18.1,159.17L26.98,199.18L27.12,199.72L35.71,227.37L35.87,227.81L46.16,251.92L46.33,252.26L56.84,270.52L57.02,270.79L69.79,287.75L69.97,287.96L83.93,303.06L84.11,303.25L94.05,314.86L94.2,315.12L95.64,319.56" style="vector-effect: non-scaling-stroke; fill: none; stroke: rgb(255, 165, 0); stroke-opacity: 1; stroke-width: 5px; opacity: 1;"/></g><g class="points"/><g class="text"/></g><g class="trace scatter trace98b63e" style="stroke-miterlimit: 2; opacity: 1;"><g class="fills"/><g class="errorbars"/><g class="lines"><path class="js-line" d="M95.64,319.56L94.35,322.95L94.21,323.11L89.73,326.13L89.56,326.21L79.45,329.33L79.27,329.37L59.59,332.59L59.41,332.61L27.19,335.83L27.01,335.84L0.52,339.54L0.53,339.58L0.53,339.62L1.21,345.8L0.57,339.12L1.71,339.25L1.87,339.27L18.47,340.16L18.66,340.17L107.56,341.39L107.74,341.39L168.31,341.78L168.5,341.78L523,342.84" style="vector-effect: non-scaling-stroke; fill: none; stroke: rgb(255, 165, 0); stroke-opacity: 1; stroke-width: 5px; opacity: 1; stroke-dasharray: 15px, 15px;"/></g><g class="points"/><g class="text"/></g><g class="trace scatter traced3fbe9" style="stroke-miterlimit: 2; opacity: 1;"><g class="fills"/><g class="errorbars"/><g class="lines"><path class="js-line" d="M523,338.83L0,338.83" style="vector-effect: non-scaling-stroke; fill: none; stroke: rgb(255, 0, 0); stroke-opacity: 1; stroke-width: 5px; opacity: 1;"/></g><g class="points"/><g class="text"/></g><g class="trace scatter tracea11e65" style="stroke-miterlimit: 2; opacity: 1;"><g class="fills"/><g class="errorbars"/><g class="lines"><path class="js-line" d="M0,18.2L1.25,40.15L1.29,40.9L10.11,156.98L10.18,157.7L17.18,210.22L17.29,210.88L25.27,247.97L25.42,248.52L33.68,273.67L33.85,274.1L43.88,295.6L44.05,295.93L54.27,316.62L54.36,316.99L54.67,319.59" style="vector-effect: non-scaling-stroke; fill: none; stroke: rgb(255, 0, 0); stroke-opacity: 1; stroke-width: 5px; opacity: 1;"/></g><g class="points"/><g class="text"/></g><g class="trace scatter trace50b4aa" style="stroke-miterlimit: 2; opacity: 1;"><g class="fills"/><g class="errorbars"/><g class="lines"><path class="js-line" d="M54.67,319.59L53.32,324.02L53.2,324.19L49.02,327.67L48.86,327.75L40.67,330.95L40.5,331L24.29,334.47L24.12,334.5L0.51,339.19L0.51,339.24L1.21,345.8L1.63,338.22L1.75,338.19L13.67,336.13L13.84,336.11L40.94,330.87L41.11,330.82L50.35,326.85L50.5,326.74L53.95,322.93L54.05,322.72L54.57,318.2L54.52,317.84L52.1,310.91L51.94,310.58L32.08,269.47L31.91,269.03L24.01,243.17L23.87,242.61L17.22,210.46L17.11,209.8L10.92,164.48L10.84,163.76L5.45,104.11L5.39,103.36L0.61,29.14L0.57,28.39L0,18.2" style="vector-effect: non-scaling-stroke; fill: none; stroke: rgb(255, 0, 0); stroke-opacity: 1; stroke-width: 5px; opacity: 1; stroke-dasharray: 15px, 15px;"/></g><g class="points"/><g class="text"/></g></g></g><g class="overplot"/><path class="xlines-above crisp" d="M86,425.5H612" style="fill: none; stroke-width: 3px; stroke: rgb(0, 0, 0); stroke-opacity: 1;"/><path class="ylines-above crisp" d="M87.5,60V424" style="fill: none; stroke-width: 3px; stroke: rgb(0, 0, 0); stroke-opacity: 1;"/><g class="overlines-above"/><g class="xaxislayer-above"><g class="xtick"><text text-anchor="middle" x="0" y="451" transform="translate(89,0)" style="font-family: sans-serif; font-size: 20px; fill: rgb(0, 0, 0); fill-opacity: 1; white-space: pre;">0</text></g><g class="xtick"><text text-anchor="middle" x="0" y="451" transform="translate(219.75,0)" style="font-family: sans-serif; font-size: 20px; fill: rgb(0, 0, 0); fill-opacity: 1; white-space: pre;">100</text></g><g class="xtick"><text text-anchor="middle" x="0" y="451" transform="translate(350.5,0)" style="font-family: sans-serif; font-size: 20px; fill: rgb(0, 0, 0); fill-opacity: 1; white-space: pre;">200</text></g><g class="xtick"><text text-anchor="middle" x="0" y="451" transform="translate(481.25,0)" style="font-family: sans-serif; font-size: 20px; fill: rgb(0, 0, 0); fill-opacity: 1; white-space: pre;">300</text></g><g class="xtick"><text text-anchor="middle" x="0" y="451" transform="translate(612,0)" style="font-family: sans-serif; font-size: 20px; fill: rgb(0, 0, 0); fill-opacity: 1; white-space: pre;">400</text></g></g><g class="yaxislayer-above"><g class="ytick"><text text-anchor="end" x="82" y="7" transform="translate(0,398.83)" style="font-family: sans-serif; font-size: 20px; fill: rgb(0, 0, 0); fill-opacity: 1; white-space: pre;">0</text></g><g class="ytick"><text text-anchor="end" x="82" y="7" transform="translate(0,351.15)" style="font-family: sans-serif; font-size: 20px; fill: rgb(0, 0, 0); fill-opacity: 1; white-space: pre;">20</text></g><g class="ytick"><text text-anchor="end" x="82" y="7" transform="translate(0,303.47)" style="font-family: sans-serif; font-size: 20px; fill: rgb(0, 0, 0); fill-opacity: 1; white-space: pre;">40</text></g><g class="ytick"><text text-anchor="end" x="82" y="7" transform="translate(0,255.78)" style="font-family: sans-serif; font-size: 20px; fill: rgb(0, 0, 0); fill-opacity: 1; white-space: pre;">60</text></g><g class="ytick"><text text-anchor="end" x="82" y="7" transform="translate(0,208.1)" style="font-family: sans-serif; font-size: 20px; fill: rgb(0, 0, 0); fill-opacity: 1; white-space: pre;">80</text></g><g class="ytick"><text text-anchor="end" x="82" y="7" transform="translate(0,160.41)" style="font-family: sans-serif; font-size: 20px; fill: rgb(0, 0, 0); fill-opacity: 1; white-space: pre;">100</text></g><g class="ytick"><text text-anchor="end" x="82" y="7" transform="translate(0,112.72999999999999)" style="font-family: sans-serif; font-size: 20px; fill: rgb(0, 0, 0); fill-opacity: 1; white-space: pre;">120</text></g><g class="ytick"><text text-anchor="end" x="82" y="7" transform="translate(0,65.05)" style="font-family: sans-serif; font-size: 20px; fill: rgb(0, 0, 0); fill-opacity: 1; white-space: pre;">140</text></g></g><g class="overaxes-above"/></g></g><g class="polarlayer"/><g class="ternarylayer"/><g class="geolayer"/><g class="funnelarealayer"/><g class="pielayer"/><g class="treemaplayer"/><g class="sunburstlayer"/><g class="glimages"/><defs id="topdefs-a0c414"><g class="clips"/><clipPath id="legenda0c414"><rect width="66" height="156" x="0" y="0"/></clipPath></defs><g class="layer-above"><g class="imagelayer"/><g class="shapelayer"/></g><g class="infolayer"><g class="legend" pointer-events="all" transform="translate(622.46,60)"><rect class="bg" shape-rendering="crispEdges" width="66" height="156" x="0" y="0" style="stroke: rgb(68, 68, 68); stroke-opacity: 1; fill: rgb(255, 255, 255); fill-opacity: 1; stroke-width: 0px;"/><g class="scrollbox" transform="" clip-path="url('#legenda0c414')"><g class="groups" transform=""><g class="traces" transform="translate(0,19.5)" style="opacity: 1;"><text class="legendtext" text-anchor="start" x="40" y="7.8" style="font-family: sans-serif; font-size: 20px; fill: rgb(0, 0, 0); fill-opacity: 1; white-space: pre;">rh</text><g class="layers" style="opacity: 1;"><g class="legendfill"/><g class="legendlines"><path class="js-line" d="M5,0h30" style="fill: none; stroke: rgb(0, 0, 255); stroke-opacity: 1; stroke-width: 5px;"/></g><g class="legendsymbols"><g class="legendpoints"/></g></g><rect class="legendtoggle" x="0" y="-14.5" width="60.546875" height="29" style="fill: rgb(0, 0, 0); fill-opacity: 0;"/></g></g><g class="groups" transform="translate(0,10)"><g class="traces" transform="translate(0,48.5)" style="opacity: 1;"><text class="legendtext" text-anchor="start" x="40" y="7.8" style="font-family: sans-serif; font-size: 20px; fill: rgb(0, 0, 0); fill-opacity: 1; white-space: pre;">rh</text><g class="layers" style="opacity: 1;"><g class="legendfill"/><g class="legendlines"><path class="js-line" d="M5,0h30" style="fill: none; stroke: rgb(128, 0, 128); stroke-opacity: 1; stroke-width: 5px;"/></g><g class="legendsymbols"><g class="legendpoints"/></g></g><rect class="legendtoggle" x="0" y="-14.5" width="60.546875" height="29" style="fill: rgb(0, 0, 0); fill-opacity: 0;"/></g></g><g class="groups" transform="translate(0,20)"><g class="traces" transform="translate(0,77.5)" style="opacity: 1;"><text class="legendtext" text-anchor="start" x="40" y="7.8" style="font-family: sans-serif; font-size: 20px; fill: rgb(0, 0, 0); fill-opacity: 1; white-space: pre;">rh</text><g class="layers" style="opacity: 1;"><g class="legendfill"/><g class="legendlines"><path class="js-line" d="M5,0h30" style="fill: none; stroke: rgb(255, 165, 0); stroke-opacity: 1; stroke-width: 5px;"/></g><g class="legendsymbols"><g class="legendpoints"/></g></g><rect class="legendtoggle" x="0" y="-14.5" width="60.546875" height="29" style="fill: rgb(0, 0, 0); fill-opacity: 0;"/></g></g><g class="groups" transform="translate(0,30)"><g class="traces" transform="translate(0,106.5)" style="opacity: 1;"><text class="legendtext" text-anchor="start" x="40" y="7.8" style="font-family: sans-serif; font-size: 20px; fill: rgb(0, 0, 0); fill-opacity: 1; white-space: pre;">rh</text><g class="layers" style="opacity: 1;"><g class="legendfill"/><g class="legendlines"><path class="js-line" d="M5,0h30" style="fill: none; stroke: rgb(255, 0, 0); stroke-opacity: 1; stroke-width: 5px;"/></g><g class="legendsymbols"><g class="legendpoints"/></g></g><rect class="legendtoggle" x="0" y="-14.5" width="60.546875" height="29" style="fill: rgb(0, 0, 0); fill-opacity: 0;"/></g></g></g><rect class="scrollbar" rx="20" ry="3" width="0" height="0" x="0" y="0" style="fill: rgb(128, 139, 164); fill-opacity: 1;"/></g><g class="g-gtitle"/><g class="g-xtitle"><text class="xtitle" x="350.5" y="487.8" text-anchor="middle" style="font-family: sans-serif; font-size: 24px; fill: rgb(0, 0, 0); opacity: 1; font-weight: normal; white-space: pre;">Damage rate (min​<tspan style="font-size:70%" dy="-0.6em">-1</tspan><tspan dy="0.42em">​</tspan>)</text></g><g class="g-ytitle" transform="translate(9.9873046875,0)"><text class="ytitle" transform="rotate(-90,12.012500000000003,242)" x="12.012500000000003" y="242" text-anchor="middle" style="font-family: sans-serif; font-size: 24px; fill: rgb(0, 0, 0); opacity: 1; font-weight: normal; white-space: pre;">Rh (μM)</text></g></g></svg>