<svg class="main-svg" xmlns="http://www.w3.org/2000/svg" xmlns:xlink="http://www.w3.org/1999/xlink" width="700" height="500" style="" viewBox="0 0 700 500"><rect x="0" y="0" width="700" height="500" style="fill: rgb(255, 255, 255); fill-opacity: 1;"/><defs id="defs-0733a6"><g class="clips"><clipPath id="clip0733a6xyplot" class="plotclip"><rect width="583" height="385"/></clipPath><clipPath class="axesclip" id="clip0733a6x"><rect x="67" y="0" width="583" height="500"/></clipPath><clipPath class="axesclip" id="clip0733a6y"><rect x="0" y="60" width="700" height="385"/></clipPath><clipPath class="axesclip" id="clip0733a6xy"><rect x="67" y="60" width="583" height="385"/></clipPath></g><g class="gradients"/></defs><g class="bglayer"/><g class="layer-below"><g class="imagelayer"/><g class="shapelayer"/></g><g class="cartesianlayer"><g class="subplot xy"><g class="layer-subplot"><g class="shapelayer"/><g class="imagelayer"/></g><g class="gridlayer"><g class="x"/><g class="y"/></g><g class="zerolinelayer"><path class="yzl zl crisp" transform="translate(0,422.11)" d="M67,0h583" style="stroke: rgb(255, 255, 255); stroke-opacity: 1; stroke-width: 2px;"/></g><path class="xlines-below"/><path class="ylines-below"/><g class="overlines-below"/><g class="xaxislayer-below"/><g class="yaxislayer-below"/><g class="overaxes-below"/><g class="plot" transform="translate(67,60)" clip-path="url('#clip0733a6xyplot')"><g class="scatterlayer mlayer"><g class="trace scatter tracefee7d8" style="stroke-miterlimit: 2; opacity: 1;"><g class="fills"/><g class="errorbars"/><g class="lines"><path class="js-line" d="M0,325.29L2.13,282L3.41,264.41L7.88,218.02L10.52,196.43L15.87,160.45L18.56,145.2L26.66,107.58L29.37,97.27L37.5,71.69L40.21,64.72L48.36,47.7L51.07,43.18L56.49,35.64L59.21,32.54L64.63,27.52L67.34,25.55L75.46,21.44L78.17,20.59L86.28,19.31L88.98,19.25L97.08,19.93L99.78,20.4L110.56,23.24L113.26,24.14L129.4,30.69L132.08,31.93L153.55,42.8L156.23,44.26L188.31,62.71L190.97,64.32L228.18,87.73L230.82,89.46L262.44,111L265.06,112.86L293.71,134.1L296.29,136.11L321.86,157.16L324.38,159.38L341.81,175.57L344.26,177.99L358.62,193.33L360.94,196.03L372.13,210.37L374.25,213.42L382.13,226.44L383.89,229.92L388.46,240.94L389.66,244.8L391.9,256.75L392.11,260.74L392.12,261.57" style="vector-effect: non-scaling-stroke; fill: none; stroke: rgb(0, 128, 0); stroke-opacity: 1; stroke-width: 3px; opacity: 1;"/></g><g class="points"/><g class="text"/></g><g class="trace scatter tracefade2f" style="stroke-miterlimit: 2; opacity: 1;"><g class="fills"/><g class="errorbars"/><g class="lines"><path class="js-line" d="M392.12,261.57L391.54,269.25L390.84,272.88L387.4,282.71L385.91,285.62L380.71,293.4L378.79,295.71L370.51,303.85L368.33,305.65L356.92,313.56L354.57,314.96L340.1,322.39L337.64,323.48L320.17,330.3L317.65,331.16L297.24,337.31L294.67,338L268.76,344L266.15,344.52L237.34,349.59L234.71,349.99L197.78,354.78L195.14,355.07L150.2,359.13L147.57,359.32L123.54,361.34" style="vector-effect: non-scaling-stroke; fill: none; stroke: rgb(0, 0, 0); stroke-opacity: 1; stroke-width: 3px; opacity: 1; stroke-dasharray: 9px, 9px;"/></g><g class="points"/><g class="text"/></g><g class="trace scatter trace3852f3" style="stroke-miterlimit: 2; opacity: 1;"><g class="fills"/><g class="errorbars"/><g class="lines"><path class="js-line" d="M123.54,361.34L125.65,361.58L127.25,361.64L167.11,361.96L169.79,361.97L402.1,362.09L404.73,362.09L583,362.1" style="vector-effect: non-scaling-stroke; fill: none; stroke: rgb(255, 0, 0); stroke-opacity: 1; stroke-width: 3px; opacity: 1;"/></g><g class="points"/><g class="text"/></g><g class="trace scatter traceef904a" style="stroke-miterlimit: 2; opacity: 1;"><g class="fills"/><g class="errorbars"/><g class="lines"/><g class="points"><path class="point" transform="translate(392.12,261.57)" d="M3,0A3,3 0 1,1 0,-3A3,3 0 0,1 3,0Z" style="opacity: 1; stroke-width: 0px; fill: rgb(0, 0, 0); fill-opacity: 1;"/><path class="point" transform="translate(123.54,361.34)" d="M3,0A3,3 0 1,1 0,-3A3,3 0 0,1 3,0Z" style="opacity: 1; stroke-width: 0px; fill: rgb(0, 0, 0); fill-opacity: 1;"/></g><g class="text"/></g><g class="trace scatter traceb7c44a" style="stroke-miterlimit: 2; opacity: 1;"><g class="fills"/><g class="errorbars"/><g class="lines"><path class="js-line" d="M0,356.9L1.29,352.72L2.16,350.71L5.33,345.19L7.95,341.66L15.96,333.55L18.65,331.4L26.76,326.13L29.47,324.68L40.32,320.14L43.04,319.27L53.89,316.61L56.61,316.13L70.16,314.56L72.87,314.39L91.8,314.07L94.5,314.12L124.13,315.57L126.82,315.76L183.05,320.45L185.71,320.69L264.88,328.82L267.48,329.12L318.36,335.7L320.82,336.07L348.61,341.06L350.69,341.54L361.34,344.73L362.62,345.32L365.05,347.16L365.27,347.77" style="vector-effect: non-scaling-stroke; fill: none; stroke: rgb(0, 128, 0); stroke-opacity: 1; stroke-width: 3px; opacity: 1;"/></g><g class="points"/><g class="text"/></g><g class="trace scatter trace23abe0" style="stroke-miterlimit: 2; opacity: 1;"><g class="fills"/><g class="errorbars"/><g class="lines"><path class="js-line" d="M365.28,347.89L364.64,349.07L363.87,349.62L358.58,351.53L356.86,351.94L342.57,354.19L340.32,354.45L314.07,356.68L311.59,356.84L265.72,359.04L263.12,359.13L186.86,361.03L184.21,361.08L115.8,362" style="vector-effect: non-scaling-stroke; fill: none; stroke: rgb(0, 0, 0); stroke-opacity: 1; stroke-width: 3px; opacity: 1; stroke-dasharray: 9px, 9px;"/></g><g class="points"/><g class="text"/></g><g class="trace scatter trace6231f9" style="stroke-miterlimit: 2; opacity: 1;"><g class="fills"/><g class="errorbars"/><g class="lines"><path class="js-line" d="M115.8,362L135.51,362.08L137.5,362.08L583,362.11" style="vector-effect: non-scaling-stroke; fill: none; stroke: rgb(255, 0, 0); stroke-opacity: 1; stroke-width: 3px; opacity: 1;"/></g><g class="points"/><g class="text"/></g><g class="trace scatter trace2bfdbd" style="stroke-miterlimit: 2; opacity: 1;"><g class="fills"/><g class="errorbars"/><g class="lines"/><g class="points"><path class="point" transform="translate(365.28,347.89)" d="M3,0A3,3 0 1,1 0,-3A3,3 0 0,1 3,0Z" style="opacity: 1; stroke-width: 0px; fill: rgb(0, 0, 0); fill-opacity: 1;"/><path class="point" transform="translate(115.8,362)" d="M3,0A3,3 0 1,1 0,-3A3,3 0 0,1 3,0Z" style="opacity: 1; stroke-width: 0px; fill: rgb(0, 0, 0); fill-opacity: 1;"/></g><g class="text"/></g><g class="trace scatter tracebf718c" style="stroke-miterlimit: 2; opacity: 1;"><g class="fills"/><g class="errorbars"/><g class="lines"><path class="js-line" d="M0,349.04L2.2,333.33L3.51,327.05L8.01,310.61L10.67,302.97L16.03,290.26L18.73,284.88L26.85,271.62L29.56,267.99L37.71,258.99L40.42,256.55L48.57,250.59L51.29,249.01L59.43,245.3L62.15,244.37L73,241.86L75.71,241.49L89.24,240.82L91.95,240.87L108.15,242.06L110.85,242.38L135.09,246.06L137.78,246.54L178.02,254.56L180.69,255.13L236.6,267.97L239.25,268.62L286.49,280.97L289.09,281.7L324.92,292.65L327.43,293.49L351.82,302.63L354.17,303.63L367.54,310.1L369.6,311.28L377.07,316.35L378.66,317.71L382.33,322.06L383.08,323.56L383.66,326.45" style="vector-effect: non-scaling-stroke; fill: none; stroke: rgb(0, 128, 0); stroke-opacity: 1; stroke-width: 3px; opacity: 1;"/></g><g class="points"/><g class="text"/></g><g class="trace scatter trace5e0c05" style="stroke-miterlimit: 2; opacity: 1;"><g class="fills"/><g class="errorbars"/><g class="lines"><path class="js-line" d="M383.66,326.45L383.02,329.34L382.25,330.7L378.53,334.33L376.94,335.39L369.47,339.03L367.4,339.82L354.07,343.76L351.73,344.32L332.39,348.08L329.91,348.48L302.08,352.15L299.52,352.43L257.95,356.05L255.32,356.23L202.54,359.14L199.88,359.25L121.01,361.84" style="vector-effect: non-scaling-stroke; fill: none; stroke: rgb(0, 0, 0); stroke-opacity: 1; stroke-width: 3px; opacity: 1; stroke-dasharray: 9px, 9px;"/></g><g class="points"/><g class="text"/></g><g class="trace scatter trace66e97b" style="stroke-miterlimit: 2; opacity: 1;"><g class="fills"/><g class="errorbars"/><g class="lines"><path class="js-line" d="M121.01,361.84L127.87,361.97L130.26,361.99L335.92,362.1L338.48,362.1L583,362.11" style="vector-effect: non-scaling-stroke; fill: none; stroke: rgb(255, 0, 0); stroke-opacity: 1; stroke-width: 3px; opacity: 1;"/></g><g class="points"/><g class="text"/></g><g class="trace scatter trace9cd7db" style="stroke-miterlimit: 2; opacity: 1;"><g class="fills"/><g class="errorbars"/><g class="lines"/><g class="points"><path class="point" transform="translate(383.66,326.45)" d="M3,0A3,3 0 1,1 0,-3A3,3 0 0,1 3,0Z" style="opacity: 1; stroke-width: 0px; fill: rgb(0, 0, 0); fill-opacity: 1;"/><path class="point" transform="translate(121.01,361.84)" d="M3,0A3,3 0 1,1 0,-3A3,3 0 0,1 3,0Z" style="opacity: 1; stroke-width: 0px; fill: rgb(0, 0, 0); fill-opacity: 1;"/></g><g class="text"/></g><g class="trace scatter trace996fab" style="stroke-miterlimit: 2; opacity: 1;"><g class="fills"/><g class="errorbars"/><g class="lines"><path class="js-line" d="M0,352.97L2.19,342.03L3.49,337.65L7.99,326.15L10.65,320.81L16.01,311.93L18.71,308.17L26.82,298.9L29.53,296.37L37.68,290.09L40.39,288.38L48.54,284.22L51.25,283.12L62.11,279.9L64.83,279.34L78.38,277.72L81.08,277.59L97.31,277.69L100.01,277.83L124.27,279.96L126.96,280.26L169.91,286.08L172.58,286.48L241.74,297.78L244.37,298.25L296.57,308.27L299.14,308.81L334.36,317.04L336.8,317.69L357.79,324.06L359.96,324.85L371.62,330.06L373.21,331.02L376.89,334.08L377.63,335.14L378.22,337.18" style="vector-effect: non-scaling-stroke; fill: none; stroke: rgb(0, 128, 0); stroke-opacity: 1; stroke-width: 3px; opacity: 1;"/></g><g class="points"/><g class="text"/></g><g class="trace scatter tracea5854b" style="stroke-miterlimit: 2; opacity: 1;"><g class="fills"/><g class="errorbars"/><g class="lines"><path class="js-line" d="M378.22,337.18L377.58,339.22L376.81,340.17L373.1,342.73L371.51,343.47L361.97,346.58L359.85,347.1L343.95,350.13L341.57,350.49L311.94,353.94L309.41,354.17L270.81,356.98L268.2,357.13L213,359.6L210.35,359.69L133.4,361.59L130.78,361.64L119.43,361.92" style="vector-effect: non-scaling-stroke; fill: none; stroke: rgb(0, 0, 0); stroke-opacity: 1; stroke-width: 3px; opacity: 1; stroke-dasharray: 9px, 9px;"/></g><g class="points"/><g class="text"/></g><g class="trace scatter trace4efb4a" style="stroke-miterlimit: 2; opacity: 1;"><g class="fills"/><g class="errorbars"/><g class="lines"><path class="js-line" d="M119.43,361.92L140.05,362.05L142.34,362.06L583,362.11" style="vector-effect: non-scaling-stroke; fill: none; stroke: rgb(255, 0, 0); stroke-opacity: 1; stroke-width: 3px; opacity: 1;"/></g><g class="points"/><g class="text"/></g><g class="trace scatter tracefc4431" style="stroke-miterlimit: 2; opacity: 1;"><g class="fills"/><g class="errorbars"/><g class="lines"/><g class="points"><path class="point" transform="translate(378.22,337.18)" d="M3,0A3,3 0 1,1 0,-3A3,3 0 0,1 3,0Z" style="opacity: 1; stroke-width: 0px; fill: rgb(0, 0, 0); fill-opacity: 1;"/><path class="point" transform="translate(119.43,361.92)" d="M3,0A3,3 0 1,1 0,-3A3,3 0 0,1 3,0Z" style="opacity: 1; stroke-width: 0px; fill: rgb(0, 0, 0); fill-opacity: 1;"/></g><g class="text"/></g></g></g><g class="overplot"/><path class="xlines-above crisp" d="M66,445.5H650" style="fill: none; stroke-width: 1px; stroke: rgb(0, 0, 0); stroke-opacity: 1;"/><path class="ylines-above crisp" d="M66.5,60V445" style="fill: none; stroke-width: 1px; stroke: rgb(0, 0, 0); stroke-opacity: 1;"/><g class="overlines-above"/><g class="xaxislayer-above"><g class="xtick"><text text-anchor="middle" x="0" y="460.4" transform="translate(67,0)" style="font-family: 'Open Sans', verdana, arial, sans-serif; font-size: 12px; fill: rgb(42, 63, 95); fill-opacity: 1; white-space: pre;">0</text></g><g class="xtick"><text text-anchor="middle" x="0" y="460.4" transform="translate(164.17000000000002,0)" style="font-family: 'Open Sans', verdana, arial, sans-serif; font-size: 12px; fill: rgb(42, 63, 95); fill-opacity: 1; white-space: pre;">0.5</text></g><g class="xtick"><text text-anchor="middle" x="0" y="460.4" transform="translate(261.33000000000004,0)" style="font-family: 'Open Sans', verdana, arial, sans-serif; font-size: 12px; fill: rgb(42, 63, 95); fill-opacity: 1; white-space: pre;">1</text></g><g class="xtick"><text text-anchor="middle" x="0" y="460.4" transform="translate(358.5,0)" style="font-family: 'Open Sans', verdana, arial, sans-serif; font-size: 12px; fill: rgb(42, 63, 95); fill-opacity: 1; white-space: pre;">1.5</text></g><g class="xtick"><text text-anchor="middle" x="0" y="460.4" transform="translate(455.67,0)" style="font-family: 'Open Sans', verdana, arial, sans-serif; font-size: 12px; fill: rgb(42, 63, 95); fill-opacity: 1; white-space: pre;">2</text></g><g class="xtick"><text text-anchor="middle" x="0" y="460.4" transform="translate(552.8299999999999,0)" style="font-family: 'Open Sans', verdana, arial, sans-serif; font-size: 12px; fill: rgb(42, 63, 95); fill-opacity: 1; white-space: pre;">2.5</text></g><g class="xtick"><text text-anchor="middle" x="0" y="460.4" transform="translate(650,0)" style="font-family: 'Open Sans', verdana, arial, sans-serif; font-size: 12px; fill: rgb(42, 63, 95); fill-opacity: 1; white-space: pre;">3</text></g></g><g class="yaxislayer-above"><g class="ytick"><text text-anchor="end" x="63.6" y="4.199999999999999" transform="translate(0,422.11)" style="font-family: 'Open Sans', verdana, arial, sans-serif; font-size: 12px; fill: rgb(42, 63, 95); fill-opacity: 1; white-space: pre;">0</text></g><g class="ytick"><text text-anchor="end" x="63.6" y="4.199999999999999" transform="translate(0,365.84)" style="font-family: 'Open Sans', verdana, arial, sans-serif; font-size: 12px; fill: rgb(42, 63, 95); fill-opacity: 1; white-space: pre;">0.01</text></g><g class="ytick"><text text-anchor="end" x="63.6" y="4.199999999999999" transform="translate(0,309.57)" style="font-family: 'Open Sans', verdana, arial, sans-serif; font-size: 12px; fill: rgb(42, 63, 95); fill-opacity: 1; white-space: pre;">0.02</text></g><g class="ytick"><text text-anchor="end" x="63.6" y="4.199999999999999" transform="translate(0,253.29)" style="font-family: 'Open Sans', verdana, arial, sans-serif; font-size: 12px; fill: rgb(42, 63, 95); fill-opacity: 1; white-space: pre;">0.03</text></g><g class="ytick"><text text-anchor="end" x="63.6" y="4.199999999999999" transform="translate(0,197.02)" style="font-family: 'Open Sans', verdana, arial, sans-serif; font-size: 12px; fill: rgb(42, 63, 95); fill-opacity: 1; white-space: pre;">0.04</text></g><g class="ytick"><text text-anchor="end" x="63.6" y="4.199999999999999" transform="translate(0,140.75)" style="font-family: 'Open Sans', verdana, arial, sans-serif; font-size: 12px; fill: rgb(42, 63, 95); fill-opacity: 1; white-space: pre;">0.05</text></g><g class="ytick"><text text-anchor="end" x="63.6" y="4.199999999999999" transform="translate(0,84.48)" style="font-family: 'Open Sans', verdana, arial, sans-serif; font-size: 12px; fill: rgb(42, 63, 95); fill-opacity: 1; white-space: pre;">0.06</text></g></g><g class="overaxes-above"/></g></g><g class="polarlayer"/><g class="ternarylayer"/><g class="geolayer"/><g class="funnelarealayer"/><g class="pielayer"/><g class="treemaplayer"/><g class="sunburstlayer"/><g class="glimages"/><defs id="topdefs-0733a6"><g class="clips"/></defs><g class="layer-above"><g class="imagelayer"/><g class="shapelayer"/></g><g class="infolayer"><g class="g-gtitle"/><g class="g-xtitle"><text class="xtitle" x="358.5" y="488.20625" text-anchor="middle" style="font-family: 'Open Sans', verdana, arial, sans-serif; font-size: 14px; fill: rgb(42, 63, 95); opacity: 1; font-weight: normal; white-space: pre;">Damage rate (min​<tspan style="font-size:70%" dy="-0.6em">-1</tspan><tspan dy="0.42em">​</tspan>)</text></g><g class="g-ytitle" transform="translate(0.9248046875,0)"><text class="ytitle" transform="rotate(-90,12.075000000000003,252.5)" x="12.075000000000003" y="252.5" text-anchor="middle" style="font-family: 'Open Sans', verdana, arial, sans-serif; font-size: 14px; fill: rgb(42, 63, 95); opacity: 1; font-weight: normal; white-space: pre;">RtcB (μM)</text></g></g></svg>