<svg class="main-svg" xmlns="http://www.w3.org/2000/svg" xmlns:xlink="http://www.w3.org/1999/xlink" width="700" height="500" style="" viewBox="0 0 700 500"><rect x="0" y="0" width="700" height="500" style="fill: rgb(255, 255, 255); fill-opacity: 1;"/><defs id="defs-7812f9"><g class="clips"><clipPath id="clip7812f9xyplot" class="plotclip"><rect width="586" height="385"/></clipPath><clipPath class="axesclip" id="clip7812f9x"><rect x="64" y="0" width="586" height="500"/></clipPath><clipPath class="axesclip" id="clip7812f9y"><rect x="0" y="60" width="700" height="385"/></clipPath><clipPath class="axesclip" id="clip7812f9xy"><rect x="64" y="60" width="586" height="385"/></clipPath></g><g class="gradients"/></defs><g class="bglayer"/><g class="layer-below"><g class="imagelayer"/><g class="shapelayer"/></g><g class="cartesianlayer"><g class="subplot xy"><g class="layer-subplot"><g class="shapelayer"/><g class="imagelayer"/></g><g class="gridlayer"><g class="x"/><g class="y"/></g><g class="zerolinelayer"><path class="yzl zl crisp" transform="translate(0,422.77)" d="M64,0h586" style="stroke: rgb(255, 255, 255); stroke-opacity: 1; stroke-width: 2px;"/></g><path class="xlines-below"/><path class="ylines-below"/><g class="overlines-below"/><g class="xaxislayer-below"/><g class="yaxislayer-below"/><g class="overaxes-below"/><g class="plot" transform="translate(64,60)" clip-path="url('#clip7812f9xyplot')"><g class="scatterlayer mlayer"><g class="trace scatter trace06e1c8" style="stroke-miterlimit: 2; opacity: 1;"><g class="fills"/><g class="errorbars"/><g class="lines"><path class="js-line" d="M290.05,362.54L296.55,361.86L297.63,361.64L303.05,360.99L304.13,360.78L308.47,360.15L309.55,359.95L330.14,355.58L331.23,355.22L336.65,353.67L337.73,353.33L347.48,349.58L348.57,349.11L357.24,344.62L358.32,344.06L368.08,336.99L369.16,335.94L376.75,327.78L377.83,326.41L382.16,319.65L383.25,317.76L387.58,307.73L388.67,304.53L391.92,290.94L393,283.41L394.09,268.24" style="vector-effect: non-scaling-stroke; fill: none; stroke: rgb(255, 0, 0); stroke-opacity: 1; stroke-width: 2px; opacity: 1; stroke-dasharray: 3px, 3px;"/></g><g class="points"/><g class="text"/></g><g class="trace scatter trace1b7a10" style="stroke-miterlimit: 2; opacity: 1;"><g class="fills"/><g class="errorbars"/><g class="lines"><path class="js-line" d="M0,325.88L1.27,296.68L2.14,282.51L5.3,243.5L7.92,218.41L13.26,177.71L15.95,160.72L24.08,119.12L26.8,107.75L34.97,79.52L37.69,71.79L45.88,52.84L48.6,47.76L54.06,39.21L56.79,35.67L62.24,29.86L64.96,27.54L70.41,23.9L73.13,22.54L81.29,19.97L84.01,19.55L92.15,19.34L94.87,19.57L105.71,21.65L108.42,22.41L121.95,27.21L124.66,28.34L143.56,37.21L146.25,38.59L173.17,53.34L175.86,54.89L210.68,75.93L213.35,77.6L250.58,102.02L253.23,103.83L284.79,126.4L287.4,128.36L313.3,148.77L315.86,150.9L336.12,168.75L338.61,171.1L355.72,188.38L358.1,191L369.65,204.81L371.86,207.74L380.27,220.15L382.22,223.45L387.54,233.91L389.08,237.59L392.66,249.18L393.42,253.18L394.13,262.04" style="vector-effect: non-scaling-stroke; fill: none; stroke: rgb(0, 128, 0); stroke-opacity: 1; stroke-width: 3px; opacity: 1;"/></g><g class="points"/><g class="text"/></g><g class="trace scatter trace461bd1" style="stroke-miterlimit: 2; opacity: 1;"><g class="fills"/><g class="errorbars"/><g class="lines"><path class="js-line" d="M394.13,262.04L393.55,269.73L392.85,273.37L389.4,283.22L387.9,286.13L382.67,293.93L380.74,296.25L372.42,304.4L370.22,306.2L358.76,314.13L356.39,315.53L341.85,322.97L339.38,324.07L321.82,330.9L319.28,331.77L298.77,337.93L296.18,338.61L270.14,344.62L267.52,345.15L238.57,350.23L235.92,350.63L198.8,355.43L196.14,355.71L156.27,359.37L153.62,359.58L124.18,362" style="vector-effect: non-scaling-stroke; fill: none; stroke: rgb(0, 0, 0); stroke-opacity: 1; stroke-width: 3px; opacity: 1; stroke-dasharray: 9px, 9px;"/></g><g class="points"/><g class="text"/></g><g class="trace scatter tracee5a201" style="stroke-miterlimit: 2; opacity: 1;"><g class="fills"/><g class="errorbars"/><g class="lines"><path class="js-line" d="M124.18,362L126.3,362.24L127.9,362.3L167.97,362.62L170.66,362.63L404.17,362.75L406.82,362.75L586,362.76" style="vector-effect: non-scaling-stroke; fill: none; stroke: rgb(255, 0, 0); stroke-opacity: 1; stroke-width: 3px; opacity: 1;"/></g><g class="points"/><g class="text"/></g><g class="trace scatter tracee13957" style="stroke-miterlimit: 2; opacity: 1;"><g class="fills"/><g class="errorbars"/><g class="lines"/><g class="points"><path class="point" transform="translate(394.13,262.04)" d="M3,0A3,3 0 1,1 0,-3A3,3 0 0,1 3,0Z" style="opacity: 1; stroke-width: 0px; fill: rgb(0, 0, 0); fill-opacity: 1;"/><path class="point" transform="translate(124.18,362)" d="M3,0A3,3 0 1,1 0,-3A3,3 0 0,1 3,0Z" style="opacity: 1; stroke-width: 0px; fill: rgb(0, 0, 0); fill-opacity: 1;"/></g><g class="text"/></g></g></g><g class="overplot"/><path class="xlines-above crisp" d="M63,445.5H650" style="fill: none; stroke-width: 1px; stroke: rgb(0, 0, 0); stroke-opacity: 1;"/><path class="ylines-above crisp" d="M63.5,60V445" style="fill: none; stroke-width: 1px; stroke: rgb(0, 0, 0); stroke-opacity: 1;"/><g class="overlines-above"/><g class="xaxislayer-above"><g class="xtick"><text text-anchor="middle" x="0" y="460.4" transform="translate(64,0)" style="font-family: 'Open Sans', verdana, arial, sans-serif; font-size: 12px; fill: rgb(42, 63, 95); fill-opacity: 1; white-space: pre;">0</text></g><g class="xtick"><text text-anchor="middle" x="0" y="460.4" transform="translate(161.67000000000002,0)" style="font-family: 'Open Sans', verdana, arial, sans-serif; font-size: 12px; fill: rgb(42, 63, 95); fill-opacity: 1; white-space: pre;">0.5</text></g><g class="xtick"><text text-anchor="middle" x="0" y="460.4" transform="translate(259.33000000000004,0)" style="font-family: 'Open Sans', verdana, arial, sans-serif; font-size: 12px; fill: rgb(42, 63, 95); fill-opacity: 1; white-space: pre;">1</text></g><g class="xtick"><text text-anchor="middle" x="0" y="460.4" transform="translate(357,0)" style="font-family: 'Open Sans', verdana, arial, sans-serif; font-size: 12px; fill: rgb(42, 63, 95); fill-opacity: 1; white-space: pre;">1.5</text></g><g class="xtick"><text text-anchor="middle" x="0" y="460.4" transform="translate(454.67,0)" style="font-family: 'Open Sans', verdana, arial, sans-serif; font-size: 12px; fill: rgb(42, 63, 95); fill-opacity: 1; white-space: pre;">2</text></g><g class="xtick"><text text-anchor="middle" x="0" y="460.4" transform="translate(552.3299999999999,0)" style="font-family: 'Open Sans', verdana, arial, sans-serif; font-size: 12px; fill: rgb(42, 63, 95); fill-opacity: 1; white-space: pre;">2.5</text></g><g class="xtick"><text text-anchor="middle" x="0" y="460.4" transform="translate(650,0)" style="font-family: 'Open Sans', verdana, arial, sans-serif; font-size: 12px; fill: rgb(42, 63, 95); fill-opacity: 1; white-space: pre;">3</text></g></g><g class="yaxislayer-above"><g class="ytick"><text text-anchor="end" x="60.6" y="4.199999999999999" transform="translate(0,422.77)" style="font-family: 'Open Sans', verdana, arial, sans-serif; font-size: 12px; fill: rgb(42, 63, 95); fill-opacity: 1; white-space: pre;">0</text></g><g class="ytick"><text text-anchor="end" x="60.6" y="4.199999999999999" transform="translate(0,354.71)" style="font-family: 'Open Sans', verdana, arial, sans-serif; font-size: 12px; fill: rgb(42, 63, 95); fill-opacity: 1; white-space: pre;">0.01</text></g><g class="ytick"><text text-anchor="end" x="60.6" y="4.199999999999999" transform="translate(0,286.65999999999997)" style="font-family: 'Open Sans', verdana, arial, sans-serif; font-size: 12px; fill: rgb(42, 63, 95); fill-opacity: 1; white-space: pre;">0.02</text></g><g class="ytick"><text text-anchor="end" x="60.6" y="4.199999999999999" transform="translate(0,218.6)" style="font-family: 'Open Sans', verdana, arial, sans-serif; font-size: 12px; fill: rgb(42, 63, 95); fill-opacity: 1; white-space: pre;">0.03</text></g><g class="ytick"><text text-anchor="end" x="60.6" y="4.199999999999999" transform="translate(0,150.54000000000002)" style="font-family: 'Open Sans', verdana, arial, sans-serif; font-size: 12px; fill: rgb(42, 63, 95); fill-opacity: 1; white-space: pre;">0.04</text></g><g class="ytick"><text text-anchor="end" x="60.6" y="4.199999999999999" transform="translate(0,82.48)" style="font-family: 'Open Sans', verdana, arial, sans-serif; font-size: 12px; fill: rgb(42, 63, 95); fill-opacity: 1; white-space: pre;">0.05</text></g></g><g class="overaxes-above"/></g></g><g class="polarlayer"/><g class="ternarylayer"/><g class="geolayer"/><g class="funnelarealayer"/><g class="pielayer"/><g class="treemaplayer"/><g class="sunburstlayer"/><g class="glimages"/><defs id="topdefs-7812f9"><g class="clips"/></defs><g class="layer-above"><g class="imagelayer"/><g class="shapelayer"/></g><g class="infolayer"><g class="g-gtitle"><text class="gtitle" x="35" y="30" text-anchor="start" dy="0em" style="font-family: 'Open Sans', verdana, arial, sans-serif; font-size: 17px; fill: rgb(42, 63, 95); opacity: 1; font-weight: normal; white-space: pre;">RtcB - on → off</text></g><g class="g-xtitle"><text class="xtitle" x="357" y="488.20625" text-anchor="middle" style="font-family: 'Open Sans', verdana, arial, sans-serif; font-size: 14px; fill: rgb(42, 63, 95); opacity: 1; font-weight: normal; white-space: pre;">Damage rate (min​<tspan style="font-size:70%" dy="-0.6em">-1</tspan><tspan dy="0.42em">​</tspan>)</text></g><g class="g-ytitle" transform="translate(0.5654296875,0)"><text class="ytitle" transform="rotate(-90,12.434375000000003,252.5)" x="12.434375000000003" y="252.5" text-anchor="middle" style="font-family: 'Open Sans', verdana, arial, sans-serif; font-size: 14px; fill: rgb(42, 63, 95); opacity: 1; font-weight: normal; white-space: pre;">Concentration (μM)</text></g></g></svg>