<?xml version="1.0" encoding="utf-8"?>
<svg xmlns="http://www.w3.org/2000/svg" xmlns:xlink="http://www.w3.org/1999/xlink" width="600" height="400" viewBox="0 0 2400 1600">
<defs>
  <clipPath id="clip810">
    <rect x="0" y="0" width="2400" height="1600"/>
  </clipPath>
</defs>
<path clip-path="url(#clip810)" d="M0 1600 L2400 1600 L2400 0 L0 0  Z" fill="#ffffff" fill-rule="evenodd" fill-opacity="1"/>
<defs>
  <clipPath id="clip811">
    <rect x="480" y="0" width="1681" height="1600"/>
  </clipPath>
</defs>
<path clip-path="url(#clip810)" d="M249.542 1423.18 L2352.76 1423.18 L2352.76 123.472 L249.542 123.472  Z" fill="#ffffff" fill-rule="evenodd" fill-opacity="1"/>
<defs>
  <clipPath id="clip812">
    <rect x="249" y="123" width="2104" height="1301"/>
  </clipPath>
</defs>
<polyline clip-path="url(#clip812)" style="stroke:#000000; stroke-linecap:round; stroke-linejoin:round; stroke-width:2; stroke-opacity:0.1; fill:none" points="496.979,1423.18 496.979,123.472 "/>
<polyline clip-path="url(#clip812)" style="stroke:#000000; stroke-linecap:round; stroke-linejoin:round; stroke-width:2; stroke-opacity:0.1; fill:none" points="909.374,1423.18 909.374,123.472 "/>
<polyline clip-path="url(#clip812)" style="stroke:#000000; stroke-linecap:round; stroke-linejoin:round; stroke-width:2; stroke-opacity:0.1; fill:none" points="1321.77,1423.18 1321.77,123.472 "/>
<polyline clip-path="url(#clip812)" style="stroke:#000000; stroke-linecap:round; stroke-linejoin:round; stroke-width:2; stroke-opacity:0.1; fill:none" points="1734.16,1423.18 1734.16,123.472 "/>
<polyline clip-path="url(#clip812)" style="stroke:#000000; stroke-linecap:round; stroke-linejoin:round; stroke-width:2; stroke-opacity:0.1; fill:none" points="2146.56,1423.18 2146.56,123.472 "/>
<polyline clip-path="url(#clip810)" style="stroke:#000000; stroke-linecap:round; stroke-linejoin:round; stroke-width:4; stroke-opacity:1; fill:none" points="249.542,1423.18 2352.76,1423.18 "/>
<polyline clip-path="url(#clip810)" style="stroke:#000000; stroke-linecap:round; stroke-linejoin:round; stroke-width:4; stroke-opacity:1; fill:none" points="496.979,1423.18 496.979,1404.28 "/>
<polyline clip-path="url(#clip810)" style="stroke:#000000; stroke-linecap:round; stroke-linejoin:round; stroke-width:4; stroke-opacity:1; fill:none" points="909.374,1423.18 909.374,1404.28 "/>
<polyline clip-path="url(#clip810)" style="stroke:#000000; stroke-linecap:round; stroke-linejoin:round; stroke-width:4; stroke-opacity:1; fill:none" points="1321.77,1423.18 1321.77,1404.28 "/>
<polyline clip-path="url(#clip810)" style="stroke:#000000; stroke-linecap:round; stroke-linejoin:round; stroke-width:4; stroke-opacity:1; fill:none" points="1734.16,1423.18 1734.16,1404.28 "/>
<polyline clip-path="url(#clip810)" style="stroke:#000000; stroke-linecap:round; stroke-linejoin:round; stroke-width:4; stroke-opacity:1; fill:none" points="2146.56,1423.18 2146.56,1404.28 "/>
<path clip-path="url(#clip810)" d="M441.505 1481.64 L449.144 1481.64 L449.144 1455.28 L440.833 1456.95 L440.833 1452.69 L449.097 1451.02 L453.773 1451.02 L453.773 1481.64 L461.412 1481.64 L461.412 1485.58 L441.505 1485.58 L441.505 1481.64 Z" fill="#000000" fill-rule="nonzero" fill-opacity="1" /><path clip-path="url(#clip810)" d="M480.856 1454.1 Q477.245 1454.1 475.417 1457.66 Q473.611 1461.2 473.611 1468.33 Q473.611 1475.44 475.417 1479.01 Q477.245 1482.55 480.856 1482.55 Q484.491 1482.55 486.296 1479.01 Q488.125 1475.44 488.125 1468.33 Q488.125 1461.2 486.296 1457.66 Q484.491 1454.1 480.856 1454.1 M480.856 1450.39 Q486.667 1450.39 489.722 1455 Q492.801 1459.58 492.801 1468.33 Q492.801 1477.06 489.722 1481.67 Q486.667 1486.25 480.856 1486.25 Q475.046 1486.25 471.968 1481.67 Q468.912 1477.06 468.912 1468.33 Q468.912 1459.58 471.968 1455 Q475.046 1450.39 480.856 1450.39 Z" fill="#000000" fill-rule="nonzero" fill-opacity="1" /><path clip-path="url(#clip810)" d="M511.018 1454.1 Q507.407 1454.1 505.578 1457.66 Q503.773 1461.2 503.773 1468.33 Q503.773 1475.44 505.578 1479.01 Q507.407 1482.55 511.018 1482.55 Q514.652 1482.55 516.458 1479.01 Q518.287 1475.44 518.287 1468.33 Q518.287 1461.2 516.458 1457.66 Q514.652 1454.1 511.018 1454.1 M511.018 1450.39 Q516.828 1450.39 519.884 1455 Q522.963 1459.58 522.963 1468.33 Q522.963 1477.06 519.884 1481.67 Q516.828 1486.25 511.018 1486.25 Q505.208 1486.25 502.129 1481.67 Q499.074 1477.06 499.074 1468.33 Q499.074 1459.58 502.129 1455 Q505.208 1450.39 511.018 1450.39 Z" fill="#000000" fill-rule="nonzero" fill-opacity="1" /><path clip-path="url(#clip810)" d="M541.18 1454.1 Q537.569 1454.1 535.74 1457.66 Q533.935 1461.2 533.935 1468.33 Q533.935 1475.44 535.74 1479.01 Q537.569 1482.55 541.18 1482.55 Q544.814 1482.55 546.62 1479.01 Q548.449 1475.44 548.449 1468.33 Q548.449 1461.2 546.62 1457.66 Q544.814 1454.1 541.18 1454.1 M541.18 1450.39 Q546.99 1450.39 550.046 1455 Q553.124 1459.58 553.124 1468.33 Q553.124 1477.06 550.046 1481.67 Q546.99 1486.25 541.18 1486.25 Q535.37 1486.25 532.291 1481.67 Q529.236 1477.06 529.236 1468.33 Q529.236 1459.58 532.291 1455 Q535.37 1450.39 541.18 1450.39 Z" fill="#000000" fill-rule="nonzero" fill-opacity="1" /><path clip-path="url(#clip810)" d="M857.985 1481.64 L874.305 1481.64 L874.305 1485.58 L852.36 1485.58 L852.36 1481.64 Q855.022 1478.89 859.606 1474.26 Q864.212 1469.61 865.393 1468.27 Q867.638 1465.74 868.518 1464.01 Q869.42 1462.25 869.42 1460.56 Q869.42 1457.8 867.476 1456.07 Q865.555 1454.33 862.453 1454.33 Q860.254 1454.33 857.8 1455.09 Q855.369 1455.86 852.592 1457.41 L852.592 1452.69 Q855.416 1451.55 857.869 1450.97 Q860.323 1450.39 862.36 1450.39 Q867.731 1450.39 870.925 1453.08 Q874.119 1455.77 874.119 1460.26 Q874.119 1462.39 873.309 1464.31 Q872.522 1466.2 870.416 1468.8 Q869.837 1469.47 866.735 1472.69 Q863.633 1475.88 857.985 1481.64 Z" fill="#000000" fill-rule="nonzero" fill-opacity="1" /><path clip-path="url(#clip810)" d="M894.119 1454.1 Q890.508 1454.1 888.68 1457.66 Q886.874 1461.2 886.874 1468.33 Q886.874 1475.44 888.68 1479.01 Q890.508 1482.55 894.119 1482.55 Q897.754 1482.55 899.559 1479.01 Q901.388 1475.44 901.388 1468.33 Q901.388 1461.2 899.559 1457.66 Q897.754 1454.1 894.119 1454.1 M894.119 1450.39 Q899.929 1450.39 902.985 1455 Q906.064 1459.58 906.064 1468.33 Q906.064 1477.06 902.985 1481.67 Q899.929 1486.25 894.119 1486.25 Q888.309 1486.25 885.23 1481.67 Q882.175 1477.06 882.175 1468.33 Q882.175 1459.58 885.23 1455 Q888.309 1450.39 894.119 1450.39 Z" fill="#000000" fill-rule="nonzero" fill-opacity="1" /><path clip-path="url(#clip810)" d="M924.281 1454.1 Q920.67 1454.1 918.841 1457.66 Q917.036 1461.2 917.036 1468.33 Q917.036 1475.44 918.841 1479.01 Q920.67 1482.55 924.281 1482.55 Q927.915 1482.55 929.721 1479.01 Q931.55 1475.44 931.55 1468.33 Q931.55 1461.2 929.721 1457.66 Q927.915 1454.1 924.281 1454.1 M924.281 1450.39 Q930.091 1450.39 933.147 1455 Q936.226 1459.58 936.226 1468.33 Q936.226 1477.06 933.147 1481.67 Q930.091 1486.25 924.281 1486.25 Q918.471 1486.25 915.392 1481.67 Q912.337 1477.06 912.337 1468.33 Q912.337 1459.58 915.392 1455 Q918.471 1450.39 924.281 1450.39 Z" fill="#000000" fill-rule="nonzero" fill-opacity="1" /><path clip-path="url(#clip810)" d="M954.443 1454.1 Q950.832 1454.1 949.003 1457.66 Q947.198 1461.2 947.198 1468.33 Q947.198 1475.44 949.003 1479.01 Q950.832 1482.55 954.443 1482.55 Q958.077 1482.55 959.883 1479.01 Q961.712 1475.44 961.712 1468.33 Q961.712 1461.2 959.883 1457.66 Q958.077 1454.1 954.443 1454.1 M954.443 1450.39 Q960.253 1450.39 963.309 1455 Q966.387 1459.58 966.387 1468.33 Q966.387 1477.06 963.309 1481.67 Q960.253 1486.25 954.443 1486.25 Q948.633 1486.25 945.554 1481.67 Q942.499 1477.06 942.499 1468.33 Q942.499 1459.58 945.554 1455 Q948.633 1450.39 954.443 1450.39 Z" fill="#000000" fill-rule="nonzero" fill-opacity="1" /><path clip-path="url(#clip810)" d="M1280.45 1466.95 Q1283.81 1467.66 1285.68 1469.93 Q1287.58 1472.2 1287.58 1475.53 Q1287.58 1480.65 1284.06 1483.45 Q1280.54 1486.25 1274.06 1486.25 Q1271.88 1486.25 1269.57 1485.81 Q1267.28 1485.39 1264.82 1484.54 L1264.82 1480.02 Q1266.77 1481.16 1269.08 1481.74 Q1271.4 1482.32 1273.92 1482.32 Q1278.32 1482.32 1280.61 1480.58 Q1282.93 1478.84 1282.93 1475.53 Q1282.93 1472.48 1280.77 1470.77 Q1278.64 1469.03 1274.82 1469.03 L1270.8 1469.03 L1270.8 1465.19 L1275.01 1465.19 Q1278.46 1465.19 1280.29 1463.82 Q1282.12 1462.43 1282.12 1459.84 Q1282.12 1457.18 1280.22 1455.77 Q1278.34 1454.33 1274.82 1454.33 Q1272.9 1454.33 1270.7 1454.75 Q1268.51 1455.16 1265.87 1456.04 L1265.87 1451.88 Q1268.53 1451.14 1270.84 1450.77 Q1273.18 1450.39 1275.24 1450.39 Q1280.57 1450.39 1283.67 1452.83 Q1286.77 1455.23 1286.77 1459.35 Q1286.77 1462.22 1285.13 1464.21 Q1283.48 1466.18 1280.45 1466.95 Z" fill="#000000" fill-rule="nonzero" fill-opacity="1" /><path clip-path="url(#clip810)" d="M1306.44 1454.1 Q1302.83 1454.1 1301 1457.66 Q1299.2 1461.2 1299.2 1468.33 Q1299.2 1475.44 1301 1479.01 Q1302.83 1482.55 1306.44 1482.55 Q1310.08 1482.55 1311.88 1479.01 Q1313.71 1475.44 1313.71 1468.33 Q1313.71 1461.2 1311.88 1457.66 Q1310.08 1454.1 1306.44 1454.1 M1306.44 1450.39 Q1312.25 1450.39 1315.31 1455 Q1318.39 1459.58 1318.39 1468.33 Q1318.39 1477.06 1315.31 1481.67 Q1312.25 1486.25 1306.44 1486.25 Q1300.63 1486.25 1297.56 1481.67 Q1294.5 1477.06 1294.5 1468.33 Q1294.5 1459.58 1297.56 1455 Q1300.63 1450.39 1306.44 1450.39 Z" fill="#000000" fill-rule="nonzero" fill-opacity="1" /><path clip-path="url(#clip810)" d="M1336.61 1454.1 Q1333 1454.1 1331.17 1457.66 Q1329.36 1461.2 1329.36 1468.33 Q1329.36 1475.44 1331.17 1479.01 Q1333 1482.55 1336.61 1482.55 Q1340.24 1482.55 1342.05 1479.01 Q1343.88 1475.44 1343.88 1468.33 Q1343.88 1461.2 1342.05 1457.66 Q1340.24 1454.1 1336.61 1454.1 M1336.61 1450.39 Q1342.42 1450.39 1345.47 1455 Q1348.55 1459.58 1348.55 1468.33 Q1348.55 1477.06 1345.47 1481.67 Q1342.42 1486.25 1336.61 1486.25 Q1330.8 1486.25 1327.72 1481.67 Q1324.66 1477.06 1324.66 1468.33 Q1324.66 1459.58 1327.72 1455 Q1330.8 1450.39 1336.61 1450.39 Z" fill="#000000" fill-rule="nonzero" fill-opacity="1" /><path clip-path="url(#clip810)" d="M1366.77 1454.1 Q1363.16 1454.1 1361.33 1457.66 Q1359.52 1461.2 1359.52 1468.33 Q1359.52 1475.44 1361.33 1479.01 Q1363.16 1482.55 1366.77 1482.55 Q1370.4 1482.55 1372.21 1479.01 Q1374.04 1475.44 1374.04 1468.33 Q1374.04 1461.2 1372.21 1457.66 Q1370.4 1454.1 1366.77 1454.1 M1366.77 1450.39 Q1372.58 1450.39 1375.63 1455 Q1378.71 1459.58 1378.71 1468.33 Q1378.71 1477.06 1375.63 1481.67 Q1372.58 1486.25 1366.77 1486.25 Q1360.96 1486.25 1357.88 1481.67 Q1354.82 1477.06 1354.82 1468.33 Q1354.82 1459.58 1357.88 1455 Q1360.96 1450.39 1366.77 1450.39 Z" fill="#000000" fill-rule="nonzero" fill-opacity="1" /><path clip-path="url(#clip810)" d="M1692.17 1455.09 L1680.37 1473.54 L1692.17 1473.54 L1692.17 1455.09 M1690.95 1451.02 L1696.83 1451.02 L1696.83 1473.54 L1701.76 1473.54 L1701.76 1477.43 L1696.83 1477.43 L1696.83 1485.58 L1692.17 1485.58 L1692.17 1477.43 L1676.57 1477.43 L1676.57 1472.92 L1690.95 1451.02 Z" fill="#000000" fill-rule="nonzero" fill-opacity="1" /><path clip-path="url(#clip810)" d="M1719.49 1454.1 Q1715.88 1454.1 1714.05 1457.66 Q1712.24 1461.2 1712.24 1468.33 Q1712.24 1475.44 1714.05 1479.01 Q1715.88 1482.55 1719.49 1482.55 Q1723.12 1482.55 1724.93 1479.01 Q1726.76 1475.44 1726.76 1468.33 Q1726.76 1461.2 1724.93 1457.66 Q1723.12 1454.1 1719.49 1454.1 M1719.49 1450.39 Q1725.3 1450.39 1728.35 1455 Q1731.43 1459.58 1731.43 1468.33 Q1731.43 1477.06 1728.35 1481.67 Q1725.3 1486.25 1719.49 1486.25 Q1713.68 1486.25 1710.6 1481.67 Q1707.54 1477.06 1707.54 1468.33 Q1707.54 1459.58 1710.6 1455 Q1713.68 1450.39 1719.49 1450.39 Z" fill="#000000" fill-rule="nonzero" fill-opacity="1" /><path clip-path="url(#clip810)" d="M1749.65 1454.1 Q1746.04 1454.1 1744.21 1457.66 Q1742.4 1461.2 1742.4 1468.33 Q1742.4 1475.44 1744.21 1479.01 Q1746.04 1482.55 1749.65 1482.55 Q1753.28 1482.55 1755.09 1479.01 Q1756.92 1475.44 1756.92 1468.33 Q1756.92 1461.2 1755.09 1457.66 Q1753.28 1454.1 1749.65 1454.1 M1749.65 1450.39 Q1755.46 1450.39 1758.52 1455 Q1761.59 1459.58 1761.59 1468.33 Q1761.59 1477.06 1758.52 1481.67 Q1755.46 1486.25 1749.65 1486.25 Q1743.84 1486.25 1740.76 1481.67 Q1737.71 1477.06 1737.71 1468.33 Q1737.71 1459.58 1740.76 1455 Q1743.84 1450.39 1749.65 1450.39 Z" fill="#000000" fill-rule="nonzero" fill-opacity="1" /><path clip-path="url(#clip810)" d="M1779.81 1454.1 Q1776.2 1454.1 1774.37 1457.66 Q1772.57 1461.2 1772.57 1468.33 Q1772.57 1475.44 1774.37 1479.01 Q1776.2 1482.55 1779.81 1482.55 Q1783.45 1482.55 1785.25 1479.01 Q1787.08 1475.44 1787.08 1468.33 Q1787.08 1461.2 1785.25 1457.66 Q1783.45 1454.1 1779.81 1454.1 M1779.81 1450.39 Q1785.62 1450.39 1788.68 1455 Q1791.76 1459.58 1791.76 1468.33 Q1791.76 1477.06 1788.68 1481.67 Q1785.62 1486.25 1779.81 1486.25 Q1774 1486.25 1770.92 1481.67 Q1767.87 1477.06 1767.87 1468.33 Q1767.87 1459.58 1770.92 1455 Q1774 1450.39 1779.81 1450.39 Z" fill="#000000" fill-rule="nonzero" fill-opacity="1" /><path clip-path="url(#clip810)" d="M2091.1 1451.02 L2109.45 1451.02 L2109.45 1454.96 L2095.38 1454.96 L2095.38 1463.43 Q2096.4 1463.08 2097.42 1462.92 Q2098.43 1462.73 2099.45 1462.73 Q2105.24 1462.73 2108.62 1465.9 Q2112 1469.08 2112 1474.49 Q2112 1480.07 2108.53 1483.17 Q2105.05 1486.25 2098.73 1486.25 Q2096.56 1486.25 2094.29 1485.88 Q2092.04 1485.51 2089.64 1484.77 L2089.64 1480.07 Q2091.72 1481.2 2093.94 1481.76 Q2096.17 1482.32 2098.64 1482.32 Q2102.65 1482.32 2104.98 1480.21 Q2107.32 1478.1 2107.32 1474.49 Q2107.32 1470.88 2104.98 1468.77 Q2102.65 1466.67 2098.64 1466.67 Q2096.77 1466.67 2094.89 1467.08 Q2093.04 1467.5 2091.1 1468.38 L2091.1 1451.02 Z" fill="#000000" fill-rule="nonzero" fill-opacity="1" /><path clip-path="url(#clip810)" d="M2131.21 1454.1 Q2127.6 1454.1 2125.77 1457.66 Q2123.97 1461.2 2123.97 1468.33 Q2123.97 1475.44 2125.77 1479.01 Q2127.6 1482.55 2131.21 1482.55 Q2134.85 1482.55 2136.65 1479.01 Q2138.48 1475.44 2138.48 1468.33 Q2138.48 1461.2 2136.65 1457.66 Q2134.85 1454.1 2131.21 1454.1 M2131.21 1450.39 Q2137.02 1450.39 2140.08 1455 Q2143.16 1459.58 2143.16 1468.33 Q2143.16 1477.06 2140.08 1481.67 Q2137.02 1486.25 2131.21 1486.25 Q2125.4 1486.25 2122.32 1481.67 Q2119.27 1477.06 2119.27 1468.33 Q2119.27 1459.58 2122.32 1455 Q2125.4 1450.39 2131.21 1450.39 Z" fill="#000000" fill-rule="nonzero" fill-opacity="1" /><path clip-path="url(#clip810)" d="M2161.37 1454.1 Q2157.76 1454.1 2155.93 1457.66 Q2154.13 1461.2 2154.13 1468.33 Q2154.13 1475.44 2155.93 1479.01 Q2157.76 1482.55 2161.37 1482.55 Q2165.01 1482.55 2166.81 1479.01 Q2168.64 1475.44 2168.64 1468.33 Q2168.64 1461.2 2166.81 1457.66 Q2165.01 1454.1 2161.37 1454.1 M2161.37 1450.39 Q2167.18 1450.39 2170.24 1455 Q2173.32 1459.58 2173.32 1468.33 Q2173.32 1477.06 2170.24 1481.67 Q2167.18 1486.25 2161.37 1486.25 Q2155.56 1486.25 2152.48 1481.67 Q2149.43 1477.06 2149.43 1468.33 Q2149.43 1459.58 2152.48 1455 Q2155.56 1450.39 2161.37 1450.39 Z" fill="#000000" fill-rule="nonzero" fill-opacity="1" /><path clip-path="url(#clip810)" d="M2191.54 1454.1 Q2187.92 1454.1 2186.1 1457.66 Q2184.29 1461.2 2184.29 1468.33 Q2184.29 1475.44 2186.1 1479.01 Q2187.92 1482.55 2191.54 1482.55 Q2195.17 1482.55 2196.97 1479.01 Q2198.8 1475.44 2198.8 1468.33 Q2198.8 1461.2 2196.97 1457.66 Q2195.17 1454.1 2191.54 1454.1 M2191.54 1450.39 Q2197.35 1450.39 2200.4 1455 Q2203.48 1459.58 2203.48 1468.33 Q2203.48 1477.06 2200.4 1481.67 Q2197.35 1486.25 2191.54 1486.25 Q2185.72 1486.25 2182.65 1481.67 Q2179.59 1477.06 2179.59 1468.33 Q2179.59 1459.58 2182.65 1455 Q2185.72 1450.39 2191.54 1450.39 Z" fill="#000000" fill-rule="nonzero" fill-opacity="1" /><path clip-path="url(#clip810)" d="M1264.96 1526.86 L1256.24 1550.51 L1273.71 1550.51 L1264.96 1526.86 M1261.33 1520.52 L1268.62 1520.52 L1286.73 1568.04 L1280.05 1568.04 L1275.72 1555.85 L1254.3 1555.85 L1249.97 1568.04 L1243.19 1568.04 L1261.33 1520.52 Z" fill="#000000" fill-rule="nonzero" fill-opacity="1" /><path clip-path="url(#clip810)" d="M1282.02 1520.52 L1322.22 1520.52 L1322.22 1525.93 L1305.35 1525.93 L1305.35 1568.04 L1298.89 1568.04 L1298.89 1525.93 L1282.02 1525.93 L1282.02 1520.52 Z" fill="#000000" fill-rule="nonzero" fill-opacity="1" /><path clip-path="url(#clip810)" d="M1334.86 1525.81 L1334.86 1543.66 L1342.94 1543.66 Q1347.43 1543.66 1349.88 1541.34 Q1352.33 1539.02 1352.33 1534.72 Q1352.33 1530.45 1349.88 1528.13 Q1347.43 1525.81 1342.94 1525.81 L1334.86 1525.81 M1328.43 1520.52 L1342.94 1520.52 Q1350.93 1520.52 1355 1524.15 Q1359.11 1527.75 1359.11 1534.72 Q1359.11 1541.75 1355 1545.35 Q1350.93 1548.95 1342.94 1548.95 L1334.86 1548.95 L1334.86 1568.04 L1328.43 1568.04 L1328.43 1520.52 Z" fill="#000000" fill-rule="nonzero" fill-opacity="1" /><polyline clip-path="url(#clip812)" style="stroke:#000000; stroke-linecap:round; stroke-linejoin:round; stroke-width:2; stroke-opacity:0.1; fill:none" points="249.542,1423.18 2352.76,1423.18 "/>
<polyline clip-path="url(#clip812)" style="stroke:#000000; stroke-linecap:round; stroke-linejoin:round; stroke-width:2; stroke-opacity:0.1; fill:none" points="249.542,1098.25 2352.76,1098.25 "/>
<polyline clip-path="url(#clip812)" style="stroke:#000000; stroke-linecap:round; stroke-linejoin:round; stroke-width:2; stroke-opacity:0.1; fill:none" points="249.542,773.326 2352.76,773.326 "/>
<polyline clip-path="url(#clip812)" style="stroke:#000000; stroke-linecap:round; stroke-linejoin:round; stroke-width:2; stroke-opacity:0.1; fill:none" points="249.542,448.399 2352.76,448.399 "/>
<polyline clip-path="url(#clip810)" style="stroke:#000000; stroke-linecap:round; stroke-linejoin:round; stroke-width:4; stroke-opacity:1; fill:none" points="249.542,1423.18 249.542,123.472 "/>
<polyline clip-path="url(#clip810)" style="stroke:#000000; stroke-linecap:round; stroke-linejoin:round; stroke-width:4; stroke-opacity:1; fill:none" points="249.542,1423.18 268.44,1423.18 "/>
<polyline clip-path="url(#clip810)" style="stroke:#000000; stroke-linecap:round; stroke-linejoin:round; stroke-width:4; stroke-opacity:1; fill:none" points="249.542,1098.25 268.44,1098.25 "/>
<polyline clip-path="url(#clip810)" style="stroke:#000000; stroke-linecap:round; stroke-linejoin:round; stroke-width:4; stroke-opacity:1; fill:none" points="249.542,773.326 268.44,773.326 "/>
<polyline clip-path="url(#clip810)" style="stroke:#000000; stroke-linecap:round; stroke-linejoin:round; stroke-width:4; stroke-opacity:1; fill:none" points="249.542,448.399 268.44,448.399 "/>
<path clip-path="url(#clip810)" d="M126.205 1408.98 Q122.593 1408.98 120.765 1412.54 Q118.959 1416.08 118.959 1423.21 Q118.959 1430.32 120.765 1433.89 Q122.593 1437.43 126.205 1437.43 Q129.839 1437.43 131.644 1433.89 Q133.473 1430.32 133.473 1423.21 Q133.473 1416.08 131.644 1412.54 Q129.839 1408.98 126.205 1408.98 M126.205 1405.27 Q132.015 1405.27 135.07 1409.88 Q138.149 1414.46 138.149 1423.21 Q138.149 1431.94 135.07 1436.55 Q132.015 1441.13 126.205 1441.13 Q120.394 1441.13 117.316 1436.55 Q114.26 1431.94 114.26 1423.21 Q114.26 1414.46 117.316 1409.88 Q120.394 1405.27 126.205 1405.27 Z" fill="#000000" fill-rule="nonzero" fill-opacity="1" /><path clip-path="url(#clip810)" d="M146.366 1434.58 L151.251 1434.58 L151.251 1440.46 L146.366 1440.46 L146.366 1434.58 Z" fill="#000000" fill-rule="nonzero" fill-opacity="1" /><path clip-path="url(#clip810)" d="M171.436 1408.98 Q167.825 1408.98 165.996 1412.54 Q164.19 1416.08 164.19 1423.21 Q164.19 1430.32 165.996 1433.89 Q167.825 1437.43 171.436 1437.43 Q175.07 1437.43 176.876 1433.89 Q178.704 1430.32 178.704 1423.21 Q178.704 1416.08 176.876 1412.54 Q175.07 1408.98 171.436 1408.98 M171.436 1405.27 Q177.246 1405.27 180.301 1409.88 Q183.38 1414.46 183.38 1423.21 Q183.38 1431.94 180.301 1436.55 Q177.246 1441.13 171.436 1441.13 Q165.626 1441.13 162.547 1436.55 Q159.491 1431.94 159.491 1423.21 Q159.491 1414.46 162.547 1409.88 Q165.626 1405.27 171.436 1405.27 Z" fill="#000000" fill-rule="nonzero" fill-opacity="1" /><path clip-path="url(#clip810)" d="M201.598 1408.98 Q197.987 1408.98 196.158 1412.54 Q194.352 1416.08 194.352 1423.21 Q194.352 1430.32 196.158 1433.89 Q197.987 1437.43 201.598 1437.43 Q205.232 1437.43 207.037 1433.89 Q208.866 1430.32 208.866 1423.21 Q208.866 1416.08 207.037 1412.54 Q205.232 1408.98 201.598 1408.98 M201.598 1405.27 Q207.408 1405.27 210.463 1409.88 Q213.542 1414.46 213.542 1423.21 Q213.542 1431.94 210.463 1436.55 Q207.408 1441.13 201.598 1441.13 Q195.787 1441.13 192.709 1436.55 Q189.653 1431.94 189.653 1423.21 Q189.653 1414.46 192.709 1409.88 Q195.787 1405.27 201.598 1405.27 Z" fill="#000000" fill-rule="nonzero" fill-opacity="1" /><path clip-path="url(#clip810)" d="M127.2 1084.05 Q123.589 1084.05 121.76 1087.62 Q119.955 1091.16 119.955 1098.29 Q119.955 1105.39 121.76 1108.96 Q123.589 1112.5 127.2 1112.5 Q130.834 1112.5 132.64 1108.96 Q134.468 1105.39 134.468 1098.29 Q134.468 1091.16 132.64 1087.62 Q130.834 1084.05 127.2 1084.05 M127.2 1080.35 Q133.01 1080.35 136.066 1084.95 Q139.144 1089.54 139.144 1098.29 Q139.144 1107.01 136.066 1111.62 Q133.01 1116.2 127.2 1116.2 Q121.39 1116.2 118.311 1111.62 Q115.256 1107.01 115.256 1098.29 Q115.256 1089.54 118.311 1084.95 Q121.39 1080.35 127.2 1080.35 Z" fill="#000000" fill-rule="nonzero" fill-opacity="1" /><path clip-path="url(#clip810)" d="M147.362 1109.65 L152.246 1109.65 L152.246 1115.53 L147.362 1115.53 L147.362 1109.65 Z" fill="#000000" fill-rule="nonzero" fill-opacity="1" /><path clip-path="url(#clip810)" d="M172.431 1084.05 Q168.82 1084.05 166.991 1087.62 Q165.186 1091.16 165.186 1098.29 Q165.186 1105.39 166.991 1108.96 Q168.82 1112.5 172.431 1112.5 Q176.065 1112.5 177.871 1108.96 Q179.7 1105.39 179.7 1098.29 Q179.7 1091.16 177.871 1087.62 Q176.065 1084.05 172.431 1084.05 M172.431 1080.35 Q178.241 1080.35 181.297 1084.95 Q184.376 1089.54 184.376 1098.29 Q184.376 1107.01 181.297 1111.62 Q178.241 1116.2 172.431 1116.2 Q166.621 1116.2 163.542 1111.62 Q160.487 1107.01 160.487 1098.29 Q160.487 1089.54 163.542 1084.95 Q166.621 1080.35 172.431 1080.35 Z" fill="#000000" fill-rule="nonzero" fill-opacity="1" /><path clip-path="url(#clip810)" d="M192.639 1080.97 L210.996 1080.97 L210.996 1084.91 L196.922 1084.91 L196.922 1093.38 Q197.94 1093.03 198.959 1092.87 Q199.977 1092.69 200.996 1092.69 Q206.783 1092.69 210.162 1095.86 Q213.542 1099.03 213.542 1104.45 Q213.542 1110.02 210.07 1113.13 Q206.598 1116.2 200.278 1116.2 Q198.102 1116.2 195.834 1115.83 Q193.588 1115.46 191.181 1114.72 L191.181 1110.02 Q193.264 1111.16 195.487 1111.71 Q197.709 1112.27 200.186 1112.27 Q204.19 1112.27 206.528 1110.16 Q208.866 1108.06 208.866 1104.45 Q208.866 1100.83 206.528 1098.73 Q204.19 1096.62 200.186 1096.62 Q198.311 1096.62 196.436 1097.04 Q194.584 1097.45 192.639 1098.33 L192.639 1080.97 Z" fill="#000000" fill-rule="nonzero" fill-opacity="1" /><path clip-path="url(#clip810)" d="M126.205 759.125 Q122.593 759.125 120.765 762.689 Q118.959 766.231 118.959 773.361 Q118.959 780.467 120.765 784.032 Q122.593 787.574 126.205 787.574 Q129.839 787.574 131.644 784.032 Q133.473 780.467 133.473 773.361 Q133.473 766.231 131.644 762.689 Q129.839 759.125 126.205 759.125 M126.205 755.421 Q132.015 755.421 135.07 760.027 Q138.149 764.611 138.149 773.361 Q138.149 782.088 135.07 786.694 Q132.015 791.277 126.205 791.277 Q120.394 791.277 117.316 786.694 Q114.26 782.088 114.26 773.361 Q114.26 764.611 117.316 760.027 Q120.394 755.421 126.205 755.421 Z" fill="#000000" fill-rule="nonzero" fill-opacity="1" /><path clip-path="url(#clip810)" d="M146.366 784.726 L151.251 784.726 L151.251 790.606 L146.366 790.606 L146.366 784.726 Z" fill="#000000" fill-rule="nonzero" fill-opacity="1" /><path clip-path="url(#clip810)" d="M162.246 786.671 L169.885 786.671 L169.885 760.305 L161.575 761.972 L161.575 757.713 L169.839 756.046 L174.514 756.046 L174.514 786.671 L182.153 786.671 L182.153 790.606 L162.246 790.606 L162.246 786.671 Z" fill="#000000" fill-rule="nonzero" fill-opacity="1" /><path clip-path="url(#clip810)" d="M201.598 759.125 Q197.987 759.125 196.158 762.689 Q194.352 766.231 194.352 773.361 Q194.352 780.467 196.158 784.032 Q197.987 787.574 201.598 787.574 Q205.232 787.574 207.037 784.032 Q208.866 780.467 208.866 773.361 Q208.866 766.231 207.037 762.689 Q205.232 759.125 201.598 759.125 M201.598 755.421 Q207.408 755.421 210.463 760.027 Q213.542 764.611 213.542 773.361 Q213.542 782.088 210.463 786.694 Q207.408 791.277 201.598 791.277 Q195.787 791.277 192.709 786.694 Q189.653 782.088 189.653 773.361 Q189.653 764.611 192.709 760.027 Q195.787 755.421 201.598 755.421 Z" fill="#000000" fill-rule="nonzero" fill-opacity="1" /><path clip-path="url(#clip810)" d="M127.2 434.198 Q123.589 434.198 121.76 437.763 Q119.955 441.304 119.955 448.434 Q119.955 455.54 121.76 459.105 Q123.589 462.647 127.2 462.647 Q130.834 462.647 132.64 459.105 Q134.468 455.54 134.468 448.434 Q134.468 441.304 132.64 437.763 Q130.834 434.198 127.2 434.198 M127.2 430.494 Q133.01 430.494 136.066 435.101 Q139.144 439.684 139.144 448.434 Q139.144 457.161 136.066 461.767 Q133.01 466.35 127.2 466.35 Q121.39 466.35 118.311 461.767 Q115.256 457.161 115.256 448.434 Q115.256 439.684 118.311 435.101 Q121.39 430.494 127.2 430.494 Z" fill="#000000" fill-rule="nonzero" fill-opacity="1" /><path clip-path="url(#clip810)" d="M147.362 459.799 L152.246 459.799 L152.246 465.679 L147.362 465.679 L147.362 459.799 Z" fill="#000000" fill-rule="nonzero" fill-opacity="1" /><path clip-path="url(#clip810)" d="M163.241 461.744 L170.88 461.744 L170.88 435.378 L162.57 437.045 L162.57 432.786 L170.834 431.119 L175.51 431.119 L175.51 461.744 L183.149 461.744 L183.149 465.679 L163.241 465.679 L163.241 461.744 Z" fill="#000000" fill-rule="nonzero" fill-opacity="1" /><path clip-path="url(#clip810)" d="M192.639 431.119 L210.996 431.119 L210.996 435.054 L196.922 435.054 L196.922 443.526 Q197.94 443.179 198.959 443.017 Q199.977 442.832 200.996 442.832 Q206.783 442.832 210.162 446.003 Q213.542 449.175 213.542 454.591 Q213.542 460.17 210.07 463.272 Q206.598 466.35 200.278 466.35 Q198.102 466.35 195.834 465.98 Q193.588 465.61 191.181 464.869 L191.181 460.17 Q193.264 461.304 195.487 461.86 Q197.709 462.415 200.186 462.415 Q204.19 462.415 206.528 460.309 Q208.866 458.202 208.866 454.591 Q208.866 450.98 206.528 448.874 Q204.19 446.767 200.186 446.767 Q198.311 446.767 196.436 447.184 Q194.584 447.6 192.639 448.48 L192.639 431.119 Z" fill="#000000" fill-rule="nonzero" fill-opacity="1" /><path clip-path="url(#clip810)" d="M14.479 816.183 L14.479 810.295 L43.7294 810.295 L28.3562 792.821 L28.3562 785.341 L45.0344 804.247 L64.0042 784.546 L64.0042 792.184 L46.5939 810.295 L64.0042 810.295 L64.0042 816.183 L14.479 816.183 Z" fill="#000000" fill-rule="nonzero" fill-opacity="1" /><path clip-path="url(#clip810)" d="M28.3562 778.212 L28.3562 772.355 L64.0042 772.355 L64.0042 778.212 L28.3562 778.212 M14.479 778.212 L14.479 772.355 L21.895 772.355 L21.895 778.212 L14.479 778.212 Z" fill="#000000" fill-rule="nonzero" fill-opacity="1" /><path clip-path="url(#clip810)" d="M42.4881 730.469 L64.0042 730.469 L64.0042 736.325 L42.679 736.325 Q37.6183 736.325 35.1038 738.299 Q32.5894 740.272 32.5894 744.219 Q32.5894 748.961 35.6131 751.698 Q38.6368 754.436 43.8567 754.436 L64.0042 754.436 L64.0042 760.324 L28.3562 760.324 L28.3562 754.436 L33.8944 754.436 Q30.6797 752.335 29.0883 749.502 Q27.4968 746.638 27.4968 742.914 Q27.4968 736.771 31.3163 733.62 Q35.1038 730.469 42.4881 730.469 Z" fill="#000000" fill-rule="nonzero" fill-opacity="1" /><path clip-path="url(#clip810)" d="M640.649 28.9478 L640.649 35.9153 Q637.489 34.1734 634.289 33.3227 Q631.129 32.4315 627.889 32.4315 Q620.638 32.4315 616.627 37.0496 Q612.617 41.6271 612.617 49.9314 Q612.617 58.2358 616.627 62.8538 Q620.638 67.4314 627.889 67.4314 Q631.129 67.4314 634.289 66.5807 Q637.489 65.6895 640.649 63.9476 L640.649 70.8341 Q637.53 72.2924 634.168 73.0216 Q630.846 73.7508 627.079 73.7508 Q616.83 73.7508 610.794 67.3098 Q604.758 60.8689 604.758 49.9314 Q604.758 38.832 610.834 32.472 Q616.951 26.1121 627.565 26.1121 Q631.008 26.1121 634.289 26.8413 Q637.57 27.5299 640.649 28.9478 Z" fill="#000000" fill-rule="nonzero" fill-opacity="1" /><path clip-path="url(#clip810)" d="M691.326 45.1919 L691.326 72.576 L683.872 72.576 L683.872 45.4349 Q683.872 38.994 681.361 35.7938 Q678.849 32.5936 673.826 32.5936 Q667.79 32.5936 664.306 36.4419 Q660.823 40.2903 660.823 46.9338 L660.823 72.576 L653.328 72.576 L653.328 9.54393 L660.823 9.54393 L660.823 34.2544 Q663.496 30.163 667.101 28.1376 Q670.747 26.1121 675.487 26.1121 Q683.305 26.1121 687.315 30.9732 Q691.326 35.7938 691.326 45.1919 Z" fill="#000000" fill-rule="nonzero" fill-opacity="1" /><path clip-path="url(#clip810)" d="M726.812 49.7694 Q717.778 49.7694 714.294 51.8354 Q710.811 53.9013 710.811 58.8839 Q710.811 62.8538 713.403 65.2034 Q716.036 67.5124 720.533 67.5124 Q726.731 67.5124 730.458 63.1374 Q734.225 58.7219 734.225 51.4303 L734.225 49.7694 L726.812 49.7694 M741.679 46.6907 L741.679 72.576 L734.225 72.576 L734.225 65.6895 Q731.673 69.8214 727.865 71.8063 Q724.057 73.7508 718.548 73.7508 Q711.58 73.7508 707.448 69.8619 Q703.357 65.9325 703.357 59.3701 Q703.357 51.7138 708.461 47.825 Q713.606 43.9361 723.774 43.9361 L734.225 43.9361 L734.225 43.2069 Q734.225 38.0623 730.822 35.2672 Q727.46 32.4315 721.343 32.4315 Q717.454 32.4315 713.768 33.3632 Q710.082 34.295 706.679 36.1584 L706.679 29.2718 Q710.77 27.692 714.619 26.9223 Q718.467 26.1121 722.113 26.1121 Q731.956 26.1121 736.818 31.2163 Q741.679 36.3204 741.679 46.6907 Z" fill="#000000" fill-rule="nonzero" fill-opacity="1" /><path clip-path="url(#clip810)" d="M794.745 45.1919 L794.745 72.576 L787.292 72.576 L787.292 45.4349 Q787.292 38.994 784.78 35.7938 Q782.269 32.5936 777.246 32.5936 Q771.21 32.5936 767.726 36.4419 Q764.242 40.2903 764.242 46.9338 L764.242 72.576 L756.748 72.576 L756.748 27.2059 L764.242 27.2059 L764.242 34.2544 Q766.916 30.163 770.521 28.1376 Q774.167 26.1121 778.906 26.1121 Q786.725 26.1121 790.735 30.9732 Q794.745 35.7938 794.745 45.1919 Z" fill="#000000" fill-rule="nonzero" fill-opacity="1" /><path clip-path="url(#clip810)" d="M839.467 49.3643 Q839.467 41.2625 836.105 36.8065 Q832.783 32.3505 826.748 32.3505 Q820.752 32.3505 817.39 36.8065 Q814.068 41.2625 814.068 49.3643 Q814.068 57.4256 817.39 61.8816 Q820.752 66.3376 826.748 66.3376 Q832.783 66.3376 836.105 61.8816 Q839.467 57.4256 839.467 49.3643 M846.921 66.9452 Q846.921 78.5308 841.776 84.1616 Q836.632 89.8329 826.018 89.8329 Q822.089 89.8329 818.605 89.2252 Q815.121 88.6581 811.84 87.4428 L811.84 80.1917 Q815.121 81.9741 818.322 82.8248 Q821.522 83.6755 824.844 83.6755 Q832.176 83.6755 835.822 79.8271 Q839.467 76.0193 839.467 68.282 L839.467 64.5957 Q837.158 68.6061 833.553 70.5911 Q829.948 72.576 824.925 72.576 Q816.58 72.576 811.476 66.2161 Q806.372 59.8562 806.372 49.3643 Q806.372 38.832 811.476 32.472 Q816.58 26.1121 824.925 26.1121 Q829.948 26.1121 833.553 28.0971 Q837.158 30.082 839.467 34.0924 L839.467 27.2059 L846.921 27.2059 L846.921 66.9452 Z" fill="#000000" fill-rule="nonzero" fill-opacity="1" /><path clip-path="url(#clip810)" d="M862.274 27.2059 L869.728 27.2059 L869.728 72.576 L862.274 72.576 L862.274 27.2059 M862.274 9.54393 L869.728 9.54393 L869.728 18.9825 L862.274 18.9825 L862.274 9.54393 Z" fill="#000000" fill-rule="nonzero" fill-opacity="1" /><path clip-path="url(#clip810)" d="M923.038 45.1919 L923.038 72.576 L915.584 72.576 L915.584 45.4349 Q915.584 38.994 913.072 35.7938 Q910.561 32.5936 905.538 32.5936 Q899.502 32.5936 896.018 36.4419 Q892.534 40.2903 892.534 46.9338 L892.534 72.576 L885.04 72.576 L885.04 27.2059 L892.534 27.2059 L892.534 34.2544 Q895.208 30.163 898.813 28.1376 Q902.459 26.1121 907.199 26.1121 Q915.017 26.1121 919.027 30.9732 Q923.038 35.7938 923.038 45.1919 Z" fill="#000000" fill-rule="nonzero" fill-opacity="1" /><path clip-path="url(#clip810)" d="M967.76 49.3643 Q967.76 41.2625 964.397 36.8065 Q961.076 32.3505 955.04 32.3505 Q949.044 32.3505 945.682 36.8065 Q942.36 41.2625 942.36 49.3643 Q942.36 57.4256 945.682 61.8816 Q949.044 66.3376 955.04 66.3376 Q961.076 66.3376 964.397 61.8816 Q967.76 57.4256 967.76 49.3643 M975.213 66.9452 Q975.213 78.5308 970.069 84.1616 Q964.924 89.8329 954.311 89.8329 Q950.381 89.8329 946.897 89.2252 Q943.414 88.6581 940.132 87.4428 L940.132 80.1917 Q943.414 81.9741 946.614 82.8248 Q949.814 83.6755 953.136 83.6755 Q960.468 83.6755 964.114 79.8271 Q967.76 76.0193 967.76 68.282 L967.76 64.5957 Q965.451 68.6061 961.845 70.5911 Q958.24 72.576 953.217 72.576 Q944.872 72.576 939.768 66.2161 Q934.664 59.8562 934.664 49.3643 Q934.664 38.832 939.768 32.472 Q944.872 26.1121 953.217 26.1121 Q958.24 26.1121 961.845 28.0971 Q965.451 30.082 967.76 34.0924 L967.76 27.2059 L975.213 27.2059 L975.213 66.9452 Z" fill="#000000" fill-rule="nonzero" fill-opacity="1" /><path clip-path="url(#clip810)" d="M1031.4 73.7508 Q1014.59 73.7508 1014.59 49.6884 Q1014.59 40.1688 1020.87 27.2059 L1028.89 27.2059 Q1023.09 40.1688 1023.09 49.8909 Q1023.09 67.4314 1032.09 67.4314 Q1040.31 67.4314 1040.31 45.6375 L1047.2 45.6375 Q1047.2 67.4314 1055.42 67.4314 Q1064.41 67.4314 1064.41 49.8909 Q1064.41 40.1688 1058.62 27.2059 L1066.64 27.2059 Q1072.92 40.1688 1072.92 49.6884 Q1072.92 73.7508 1056.11 73.7508 Q1045.09 73.7508 1043.75 61.6386 Q1042.09 73.7508 1031.4 73.7508 Z" fill="#000000" fill-rule="nonzero" fill-opacity="1" /><path clip-path="url(#clip810)" d="M1120.88 86.3491 L1120.88 92.1419 L1077.78 92.1419 L1077.78 86.3491 L1120.88 86.3491 Z" fill="#000000" fill-rule="nonzero" fill-opacity="1" /><path clip-path="url(#clip810)" d="M1148.51 49.7694 Q1139.48 49.7694 1135.99 51.8354 Q1132.51 53.9013 1132.51 58.8839 Q1132.51 62.8538 1135.1 65.2034 Q1137.74 67.5124 1142.23 67.5124 Q1148.43 67.5124 1152.16 63.1374 Q1155.92 58.7219 1155.92 51.4303 L1155.92 49.7694 L1148.51 49.7694 M1163.38 46.6907 L1163.38 72.576 L1155.92 72.576 L1155.92 65.6895 Q1153.37 69.8214 1149.56 71.8063 Q1145.76 73.7508 1140.25 73.7508 Q1133.28 73.7508 1129.15 69.8619 Q1125.06 65.9325 1125.06 59.3701 Q1125.06 51.7138 1130.16 47.825 Q1135.3 43.9361 1145.47 43.9361 L1155.92 43.9361 L1155.92 43.2069 Q1155.92 38.0623 1152.52 35.2672 Q1149.16 32.4315 1143.04 32.4315 Q1139.15 32.4315 1135.47 33.3632 Q1131.78 34.295 1128.38 36.1584 L1128.38 29.2718 Q1132.47 27.692 1136.32 26.9223 Q1140.17 26.1121 1143.81 26.1121 Q1153.66 26.1121 1158.52 31.2163 Q1163.38 36.3204 1163.38 46.6907 Z" fill="#000000" fill-rule="nonzero" fill-opacity="1" /><path clip-path="url(#clip810)" d="M1211.3 49.9314 Q1211.3 41.7081 1207.9 37.0496 Q1204.53 32.3505 1198.62 32.3505 Q1192.71 32.3505 1189.3 37.0496 Q1185.94 41.7081 1185.94 49.9314 Q1185.94 58.1548 1189.3 62.8538 Q1192.71 67.5124 1198.62 67.5124 Q1204.53 67.5124 1207.9 62.8538 Q1211.3 58.1548 1211.3 49.9314 M1185.94 34.0924 Q1188.29 30.0415 1191.86 28.0971 Q1195.46 26.1121 1200.44 26.1121 Q1208.71 26.1121 1213.85 32.6746 Q1219.04 39.2371 1219.04 49.9314 Q1219.04 60.6258 1213.85 67.1883 Q1208.71 73.7508 1200.44 73.7508 Q1195.46 73.7508 1191.86 71.8063 Q1188.29 69.8214 1185.94 65.7705 L1185.94 72.576 L1178.45 72.576 L1178.45 9.54393 L1185.94 9.54393 L1185.94 34.0924 Z" fill="#000000" fill-rule="nonzero" fill-opacity="1" /><path clip-path="url(#clip810)" d="M1253.43 27.2059 L1260.88 27.2059 L1270.2 62.6108 L1279.48 27.2059 L1288.27 27.2059 L1297.58 62.6108 L1306.86 27.2059 L1314.31 27.2059 L1302.45 72.576 L1293.65 72.576 L1283.89 35.3887 L1274.09 72.576 L1265.3 72.576 L1253.43 27.2059 Z" fill="#000000" fill-rule="nonzero" fill-opacity="1" /><path clip-path="url(#clip810)" d="M1363.33 45.1919 L1363.33 72.576 L1355.88 72.576 L1355.88 45.4349 Q1355.88 38.994 1353.37 35.7938 Q1350.85 32.5936 1345.83 32.5936 Q1339.79 32.5936 1336.31 36.4419 Q1332.83 40.2903 1332.83 46.9338 L1332.83 72.576 L1325.33 72.576 L1325.33 9.54393 L1332.83 9.54393 L1332.83 34.2544 Q1335.5 30.163 1339.11 28.1376 Q1342.75 26.1121 1347.49 26.1121 Q1355.31 26.1121 1359.32 30.9732 Q1363.33 35.7938 1363.33 45.1919 Z" fill="#000000" fill-rule="nonzero" fill-opacity="1" /><path clip-path="url(#clip810)" d="M1417 48.0275 L1417 51.6733 L1382.73 51.6733 Q1383.22 59.3701 1387.35 63.421 Q1391.52 67.4314 1398.94 67.4314 Q1403.23 67.4314 1407.24 66.3781 Q1411.29 65.3249 1415.26 63.2184 L1415.26 70.267 Q1411.25 71.9684 1407.04 72.8596 Q1402.83 73.7508 1398.49 73.7508 Q1387.64 73.7508 1381.28 67.4314 Q1374.96 61.1119 1374.96 50.3365 Q1374.96 39.1965 1380.95 32.6746 Q1386.99 26.1121 1397.2 26.1121 Q1406.35 26.1121 1411.66 32.0264 Q1417 37.9003 1417 48.0275 M1409.55 45.84 Q1409.47 39.7232 1406.11 36.0774 Q1402.79 32.4315 1397.28 32.4315 Q1391.04 32.4315 1387.27 35.9558 Q1383.54 39.4801 1382.98 45.8805 L1409.55 45.84 Z" fill="#000000" fill-rule="nonzero" fill-opacity="1" /><path clip-path="url(#clip810)" d="M1466.95 45.1919 L1466.95 72.576 L1459.5 72.576 L1459.5 45.4349 Q1459.5 38.994 1456.99 35.7938 Q1454.48 32.5936 1449.45 32.5936 Q1443.42 32.5936 1439.93 36.4419 Q1436.45 40.2903 1436.45 46.9338 L1436.45 72.576 L1428.95 72.576 L1428.95 27.2059 L1436.45 27.2059 L1436.45 34.2544 Q1439.12 30.163 1442.73 28.1376 Q1446.37 26.1121 1451.11 26.1121 Q1458.93 26.1121 1462.94 30.9732 Q1466.95 35.7938 1466.95 45.1919 Z" fill="#000000" fill-rule="nonzero" fill-opacity="1" /><path clip-path="url(#clip810)" d="M1522.65 73.7508 Q1505.84 73.7508 1505.84 49.6884 Q1505.84 40.1688 1512.12 27.2059 L1520.14 27.2059 Q1514.35 40.1688 1514.35 49.8909 Q1514.35 67.4314 1523.34 67.4314 Q1531.56 67.4314 1531.56 45.6375 L1538.45 45.6375 Q1538.45 67.4314 1546.67 67.4314 Q1555.67 67.4314 1555.67 49.8909 Q1555.67 40.1688 1549.87 27.2059 L1557.9 27.2059 Q1564.17 40.1688 1564.17 49.6884 Q1564.17 73.7508 1547.36 73.7508 Q1536.34 73.7508 1535.01 61.6386 Q1533.35 73.7508 1522.65 73.7508 Z" fill="#000000" fill-rule="nonzero" fill-opacity="1" /><path clip-path="url(#clip810)" d="M1612.14 86.3491 L1612.14 92.1419 L1569.04 92.1419 L1569.04 86.3491 L1612.14 86.3491 Z" fill="#000000" fill-rule="nonzero" fill-opacity="1" /><path clip-path="url(#clip810)" d="M1645.44 34.1734 Q1644.18 33.4443 1642.68 33.1202 Q1641.22 32.7556 1639.44 32.7556 Q1633.12 32.7556 1629.72 36.8875 Q1626.36 40.9789 1626.36 48.6757 L1626.36 72.576 L1618.86 72.576 L1618.86 27.2059 L1626.36 27.2059 L1626.36 34.2544 Q1628.71 30.1225 1632.47 28.1376 Q1636.24 26.1121 1641.63 26.1121 Q1642.4 26.1121 1643.33 26.2337 Q1644.26 26.3147 1645.39 26.5172 L1645.44 34.1734 Z" fill="#000000" fill-rule="nonzero" fill-opacity="1" /><path clip-path="url(#clip810)" d="M1680.6 34.9026 L1732.53 34.9026 L1732.53 41.7081 L1680.6 41.7081 L1680.6 34.9026 M1680.6 51.4303 L1732.53 51.4303 L1732.53 58.3168 L1680.6 58.3168 L1680.6 51.4303 Z" fill="#000000" fill-rule="nonzero" fill-opacity="1" /><path clip-path="url(#clip810)" d="M1794.06 17.4837 Q1787.74 17.4837 1784.54 23.7221 Q1781.38 29.92 1781.38 42.3968 Q1781.38 54.833 1784.54 61.0714 Q1787.74 67.2693 1794.06 67.2693 Q1800.42 67.2693 1803.58 61.0714 Q1806.78 54.833 1806.78 42.3968 Q1806.78 29.92 1803.58 23.7221 Q1800.42 17.4837 1794.06 17.4837 M1794.06 11.0023 Q1804.23 11.0023 1809.58 19.0636 Q1814.97 27.0843 1814.97 42.3968 Q1814.97 57.6687 1809.58 65.73 Q1804.23 73.7508 1794.06 73.7508 Q1783.9 73.7508 1778.51 65.73 Q1773.16 57.6687 1773.16 42.3968 Q1773.16 27.0843 1778.51 19.0636 Q1783.9 11.0023 1794.06 11.0023 Z" fill="#000000" fill-rule="nonzero" fill-opacity="1" /><path clip-path="url(#clip810)" d="M1829.35 62.2867 L1837.89 62.2867 L1837.89 72.576 L1829.35 72.576 L1829.35 62.2867 Z" fill="#000000" fill-rule="nonzero" fill-opacity="1" /><path clip-path="url(#clip810)" d="M1873.22 17.4837 Q1866.9 17.4837 1863.7 23.7221 Q1860.54 29.92 1860.54 42.3968 Q1860.54 54.833 1863.7 61.0714 Q1866.9 67.2693 1873.22 67.2693 Q1879.58 67.2693 1882.74 61.0714 Q1885.94 54.833 1885.94 42.3968 Q1885.94 29.92 1882.74 23.7221 Q1879.58 17.4837 1873.22 17.4837 M1873.22 11.0023 Q1883.39 11.0023 1888.73 19.0636 Q1894.12 27.0843 1894.12 42.3968 Q1894.12 57.6687 1888.73 65.73 Q1883.39 73.7508 1873.22 73.7508 Q1863.05 73.7508 1857.66 65.73 Q1852.31 57.6687 1852.31 42.3968 Q1852.31 27.0843 1857.66 19.0636 Q1863.05 11.0023 1873.22 11.0023 Z" fill="#000000" fill-rule="nonzero" fill-opacity="1" /><path clip-path="url(#clip810)" d="M1926 17.4837 Q1919.68 17.4837 1916.48 23.7221 Q1913.32 29.92 1913.32 42.3968 Q1913.32 54.833 1916.48 61.0714 Q1919.68 67.2693 1926 67.2693 Q1932.36 67.2693 1935.52 61.0714 Q1938.72 54.833 1938.72 42.3968 Q1938.72 29.92 1935.52 23.7221 Q1932.36 17.4837 1926 17.4837 M1926 11.0023 Q1936.17 11.0023 1941.52 19.0636 Q1946.9 27.0843 1946.9 42.3968 Q1946.9 57.6687 1941.52 65.73 Q1936.17 73.7508 1926 73.7508 Q1915.83 73.7508 1910.45 65.73 Q1905.1 57.6687 1905.1 42.3968 Q1905.1 27.0843 1910.45 19.0636 Q1915.83 11.0023 1926 11.0023 Z" fill="#000000" fill-rule="nonzero" fill-opacity="1" /><path clip-path="url(#clip810)" d="M1962.7 65.6895 L1976.07 65.6895 L1976.07 19.5497 L1961.53 22.4663 L1961.53 15.0127 L1975.99 12.096 L1984.17 12.096 L1984.17 65.6895 L1997.54 65.6895 L1997.54 72.576 L1962.7 72.576 L1962.7 65.6895 Z" fill="#000000" fill-rule="nonzero" fill-opacity="1" /><path clip-path="url(#clip812)" d="M249.542 123.472 L270.787 123.472 L292.031 123.472 L313.276 123.472 L334.52 123.472 L355.765 123.472 L377.01 123.472 L398.254 123.472 L419.499 123.472 L440.743 123.472 L461.988 123.472 L483.232 123.472 L504.477 123.472 L525.722 123.472 L546.966 123.472 L568.211 123.472 L589.455 123.472 L610.7 123.472 L631.945 123.472 L653.189 123.472 L674.434 123.472 L695.678 123.472 L716.923 123.472 L738.167 123.472 L759.412 149.729 L780.657 162.857 L801.901 189.114 L823.146 202.242 L844.39 215.371 L865.635 228.499 L886.88 241.627 L908.124 254.756 L929.369 267.884 L950.613 281.012 L971.858 294.141 L993.102 307.269 L1014.35 307.269 L1035.59 320.398 L1056.84 333.526 L1078.08 333.526 L1099.33 346.654 L1120.57 359.783 L1141.81 359.783 L1163.06 372.911 L1184.3 372.911 L1205.55 386.039 L1226.79 386.039 L1248.04 386.039 L1269.28 399.168 L1290.53 399.168 L1311.77 412.296 L1333.02 412.296 L1354.26 412.296 L1375.51 425.424 L1396.75 425.424 L1417.99 425.424 L1439.24 438.553 L1460.48 438.553 L1481.73 438.553 L1502.97 451.681 L1524.22 451.681 L1545.46 451.681 L1566.71 451.681 L1587.95 464.81 L1609.2 464.81 L1630.44 464.81 L1651.68 464.81 L1672.93 464.81 L1694.17 477.938 L1715.42 477.938 L1736.66 477.938 L1757.91 477.938 L1779.15 477.938 L1800.4 491.066 L1821.64 491.066 L1842.89 491.066 L1864.13 491.066 L1885.38 491.066 L1906.62 491.066 L1927.86 504.195 L1949.11 504.195 L1970.35 504.195 L1991.6 504.195 L2012.84 504.195 L2034.09 504.195 L2055.33 517.323 L2076.58 517.323 L2097.82 517.323 L2119.07 517.323 L2140.31 517.323 L2161.55 517.323 L2182.8 517.323 L2204.04 517.323 L2225.29 517.323 L2246.53 530.451 L2267.78 530.451 L2289.02 530.451 L2310.27 530.451 L2331.51 530.451 L2352.76 530.451 L2352.76 1147.48 L2331.51 1147.48 L2310.27 1147.48 L2289.02 1147.48 L2267.78 1147.48 L2246.53 1147.48 L2225.29 1147.48 L2204.04 1147.48 L2182.8 1147.48 L2161.55 1134.36 L2140.31 1134.36 L2119.07 1134.36 L2097.82 1134.36 L2076.58 1134.36 L2055.33 1134.36 L2034.09 1134.36 L2012.84 1134.36 L1991.6 1134.36 L1970.35 1134.36 L1949.11 1134.36 L1927.86 1134.36 L1906.62 1134.36 L1885.38 1134.36 L1864.13 1134.36 L1842.89 1134.36 L1821.64 1134.36 L1800.4 1134.36 L1779.15 1134.36 L1757.91 1134.36 L1736.66 1134.36 L1715.42 1134.36 L1694.17 1134.36 L1672.93 1121.23 L1651.68 1121.23 L1630.44 1121.23 L1609.2 1121.23 L1587.95 1121.23 L1566.71 1121.23 L1545.46 1121.23 L1524.22 1121.23 L1502.97 1121.23 L1481.73 1121.23 L1460.48 1121.23 L1439.24 1121.23 L1417.99 1121.23 L1396.75 1121.23 L1375.51 1108.1 L1354.26 1108.1 L1333.02 1108.1 L1311.77 1108.1 L1290.53 1108.1 L1269.28 1108.1 L1248.04 1108.1 L1226.79 1108.1 L1205.55 1108.1 L1184.3 1108.1 L1163.06 1094.97 L1141.81 1094.97 L1120.57 1094.97 L1099.33 1094.97 L1078.08 1094.97 L1056.84 1094.97 L1035.59 1081.84 L1014.35 1081.84 L993.102 1081.84 L971.858 1081.84 L950.613 1081.84 L929.369 1068.71 L908.124 1068.71 L886.88 1068.71 L865.635 1068.71 L844.39 1055.59 L823.146 1055.59 L801.901 1055.59 L780.657 1042.46 L759.412 1042.46 L738.167 1042.46 L716.923 1029.33 L695.678 1029.33 L674.434 1016.2 L653.189 1016.2 L631.945 1003.07 L610.7 1003.07 L589.455 989.944 L568.211 976.816 L546.966 963.687 L525.722 950.559 L504.477 937.43 L483.232 924.302 L461.988 898.045 L440.743 884.917 L419.499 858.66 L398.254 819.275 L377.01 793.019 L355.765 753.633 L334.52 687.992 L313.276 622.35 L292.031 543.58 L270.787 425.424 L249.542 267.884  Z" fill="#1f77b4" fill-rule="evenodd" fill-opacity="0.45"/>
<polyline clip-path="url(#clip812)" style="stroke:#1f77b4; stroke-linecap:round; stroke-linejoin:round; stroke-width:4; stroke-opacity:1; fill:none" points="249.542,123.472 270.787,123.472 292.031,123.472 313.276,123.472 334.52,123.472 355.765,123.472 377.01,123.472 398.254,123.472 419.499,123.472 440.743,123.472 461.988,123.472 483.232,123.472 504.477,123.472 525.722,123.472 546.966,123.472 568.211,123.472 589.455,123.472 610.7,123.472 631.945,123.472 653.189,123.472 674.434,123.472 695.678,123.472 716.923,123.472 738.167,123.472 759.412,149.729 780.657,162.857 801.901,189.114 823.146,202.242 844.39,215.371 865.635,228.499 886.88,241.627 908.124,254.756 929.369,267.884 950.613,281.012 971.858,294.141 993.102,307.269 1014.35,307.269 1035.59,320.398 1056.84,333.526 1078.08,333.526 1099.33,346.654 1120.57,359.783 1141.81,359.783 1163.06,372.911 1184.3,372.911 1205.55,386.039 1226.79,386.039 1248.04,386.039 1269.28,399.168 1290.53,399.168 1311.77,412.296 1333.02,412.296 1354.26,412.296 1375.51,425.424 1396.75,425.424 1417.99,425.424 1439.24,438.553 1460.48,438.553 1481.73,438.553 1502.97,451.681 1524.22,451.681 1545.46,451.681 1566.71,451.681 1587.95,464.81 1609.2,464.81 1630.44,464.81 1651.68,464.81 1672.93,464.81 1694.17,477.938 1715.42,477.938 1736.66,477.938 1757.91,477.938 1779.15,477.938 1800.4,491.066 1821.64,491.066 1842.89,491.066 1864.13,491.066 1885.38,491.066 1906.62,491.066 1927.86,504.195 1949.11,504.195 1970.35,504.195 1991.6,504.195 2012.84,504.195 2034.09,504.195 2055.33,517.323 2076.58,517.323 2097.82,517.323 2119.07,517.323 2140.31,517.323 2161.55,517.323 2182.8,517.323 2204.04,517.323 2225.29,517.323 2246.53,530.451 2267.78,530.451 2289.02,530.451 2310.27,530.451 2331.51,530.451 2352.76,530.451 "/>
<path clip-path="url(#clip812)" d="M249.542 123.472 L270.787 123.472 L292.031 123.472 L313.276 123.472 L334.52 123.472 L355.765 149.729 L377.01 241.627 L398.254 320.398 L419.499 386.039 L440.743 438.553 L461.988 477.938 L483.232 517.323 L504.477 556.708 L525.722 582.965 L546.966 609.221 L568.211 635.478 L589.455 661.735 L610.7 674.863 L631.945 687.992 L653.189 701.12 L674.434 727.377 L695.678 740.505 L716.923 740.505 L738.167 753.633 L759.412 766.762 L780.657 779.89 L801.901 779.89 L823.146 793.019 L844.39 806.147 L865.635 806.147 L886.88 819.275 L908.124 819.275 L929.369 832.404 L950.613 832.404 L971.858 832.404 L993.102 845.532 L1014.35 845.532 L1035.59 845.532 L1056.84 858.66 L1078.08 858.66 L1099.33 858.66 L1120.57 871.789 L1141.81 871.789 L1163.06 871.789 L1184.3 871.789 L1205.55 884.917 L1226.79 884.917 L1248.04 884.917 L1269.28 884.917 L1290.53 898.045 L1311.77 898.045 L1333.02 898.045 L1354.26 898.045 L1375.51 898.045 L1396.75 898.045 L1417.99 911.174 L1439.24 911.174 L1460.48 911.174 L1481.73 911.174 L1502.97 911.174 L1524.22 911.174 L1545.46 911.174 L1566.71 924.302 L1587.95 924.302 L1609.2 924.302 L1630.44 924.302 L1651.68 924.302 L1672.93 924.302 L1694.17 924.302 L1715.42 924.302 L1736.66 924.302 L1757.91 937.43 L1779.15 937.43 L1800.4 937.43 L1821.64 937.43 L1842.89 937.43 L1864.13 937.43 L1885.38 937.43 L1906.62 937.43 L1927.86 937.43 L1949.11 937.43 L1970.35 937.43 L1991.6 937.43 L2012.84 937.43 L2034.09 950.559 L2055.33 950.559 L2076.58 950.559 L2097.82 950.559 L2119.07 950.559 L2140.31 950.559 L2161.55 950.559 L2182.8 950.559 L2204.04 950.559 L2225.29 950.559 L2246.53 950.559 L2267.78 950.559 L2289.02 950.559 L2310.27 950.559 L2331.51 950.559 L2352.76 950.559 L2352.76 1265.64 L2331.51 1265.64 L2310.27 1265.64 L2289.02 1265.64 L2267.78 1265.64 L2246.53 1265.64 L2225.29 1265.64 L2204.04 1265.64 L2182.8 1265.64 L2161.55 1265.64 L2140.31 1265.64 L2119.07 1265.64 L2097.82 1265.64 L2076.58 1265.64 L2055.33 1265.64 L2034.09 1265.64 L2012.84 1265.64 L1991.6 1265.64 L1970.35 1265.64 L1949.11 1265.64 L1927.86 1265.64 L1906.62 1265.64 L1885.38 1265.64 L1864.13 1265.64 L1842.89 1265.64 L1821.64 1265.64 L1800.4 1265.64 L1779.15 1265.64 L1757.91 1265.64 L1736.66 1265.64 L1715.42 1265.64 L1694.17 1265.64 L1672.93 1265.64 L1651.68 1265.64 L1630.44 1265.64 L1609.2 1265.64 L1587.95 1265.64 L1566.71 1265.64 L1545.46 1265.64 L1524.22 1265.64 L1502.97 1265.64 L1481.73 1252.51 L1460.48 1252.51 L1439.24 1252.51 L1417.99 1252.51 L1396.75 1252.51 L1375.51 1252.51 L1354.26 1252.51 L1333.02 1252.51 L1311.77 1252.51 L1290.53 1252.51 L1269.28 1252.51 L1248.04 1252.51 L1226.79 1252.51 L1205.55 1252.51 L1184.3 1252.51 L1163.06 1252.51 L1141.81 1252.51 L1120.57 1252.51 L1099.33 1239.38 L1078.08 1239.38 L1056.84 1239.38 L1035.59 1239.38 L1014.35 1239.38 L993.102 1239.38 L971.858 1239.38 L950.613 1239.38 L929.369 1239.38 L908.124 1239.38 L886.88 1226.25 L865.635 1226.25 L844.39 1226.25 L823.146 1226.25 L801.901 1226.25 L780.657 1226.25 L759.412 1213.13 L738.167 1213.13 L716.923 1213.13 L695.678 1213.13 L674.434 1200 L653.189 1200 L631.945 1200 L610.7 1200 L589.455 1186.87 L568.211 1186.87 L546.966 1173.74 L525.722 1173.74 L504.477 1160.61 L483.232 1147.48 L461.988 1147.48 L440.743 1134.36 L419.499 1121.23 L398.254 1108.1 L377.01 1081.84 L355.765 1068.71 L334.52 1029.33 L313.276 1003.07 L292.031 950.559 L270.787 898.045 L249.542 806.147  Z" fill="#ff7e0d" fill-rule="evenodd" fill-opacity="0.45"/>
<polyline clip-path="url(#clip812)" style="stroke:#ff7e0d; stroke-linecap:round; stroke-linejoin:round; stroke-width:4; stroke-opacity:1; fill:none" points="249.542,123.472 270.787,123.472 292.031,123.472 313.276,123.472 334.52,123.472 355.765,149.729 377.01,241.627 398.254,320.398 419.499,386.039 440.743,438.553 461.988,477.938 483.232,517.323 504.477,556.708 525.722,582.965 546.966,609.221 568.211,635.478 589.455,661.735 610.7,674.863 631.945,687.992 653.189,701.12 674.434,727.377 695.678,740.505 716.923,740.505 738.167,753.633 759.412,766.762 780.657,779.89 801.901,779.89 823.146,793.019 844.39,806.147 865.635,806.147 886.88,819.275 908.124,819.275 929.369,832.404 950.613,832.404 971.858,832.404 993.102,845.532 1014.35,845.532 1035.59,845.532 1056.84,858.66 1078.08,858.66 1099.33,858.66 1120.57,871.789 1141.81,871.789 1163.06,871.789 1184.3,871.789 1205.55,884.917 1226.79,884.917 1248.04,884.917 1269.28,884.917 1290.53,898.045 1311.77,898.045 1333.02,898.045 1354.26,898.045 1375.51,898.045 1396.75,898.045 1417.99,911.174 1439.24,911.174 1460.48,911.174 1481.73,911.174 1502.97,911.174 1524.22,911.174 1545.46,911.174 1566.71,924.302 1587.95,924.302 1609.2,924.302 1630.44,924.302 1651.68,924.302 1672.93,924.302 1694.17,924.302 1715.42,924.302 1736.66,924.302 1757.91,937.43 1779.15,937.43 1800.4,937.43 1821.64,937.43 1842.89,937.43 1864.13,937.43 1885.38,937.43 1906.62,937.43 1927.86,937.43 1949.11,937.43 1970.35,937.43 1991.6,937.43 2012.84,937.43 2034.09,950.559 2055.33,950.559 2076.58,950.559 2097.82,950.559 2119.07,950.559 2140.31,950.559 2161.55,950.559 2182.8,950.559 2204.04,950.559 2225.29,950.559 2246.53,950.559 2267.78,950.559 2289.02,950.559 2310.27,950.559 2331.51,950.559 2352.76,950.559 "/>
<path clip-path="url(#clip812)" d="M249.542 241.627 L270.787 425.424 L292.031 556.708 L313.276 648.607 L334.52 727.377 L355.765 779.89 L377.01 832.404 L398.254 858.66 L419.499 898.045 L440.743 924.302 L461.988 937.43 L483.232 963.687 L504.477 976.816 L525.722 989.944 L546.966 1003.07 L568.211 1016.2 L589.455 1029.33 L610.7 1042.46 L631.945 1042.46 L653.189 1055.59 L674.434 1055.59 L695.678 1068.71 L716.923 1068.71 L738.167 1081.84 L759.412 1081.84 L780.657 1081.84 L801.901 1094.97 L823.146 1094.97 L844.39 1094.97 L865.635 1108.1 L886.88 1108.1 L908.124 1108.1 L929.369 1108.1 L950.613 1121.23 L971.858 1121.23 L993.102 1121.23 L1014.35 1121.23 L1035.59 1121.23 L1056.84 1134.36 L1078.08 1134.36 L1099.33 1134.36 L1120.57 1134.36 L1141.81 1134.36 L1163.06 1134.36 L1184.3 1134.36 L1205.55 1134.36 L1226.79 1147.48 L1248.04 1147.48 L1269.28 1147.48 L1290.53 1147.48 L1311.77 1147.48 L1333.02 1147.48 L1354.26 1147.48 L1375.51 1147.48 L1396.75 1147.48 L1417.99 1147.48 L1439.24 1160.61 L1460.48 1160.61 L1481.73 1160.61 L1502.97 1160.61 L1524.22 1160.61 L1545.46 1160.61 L1566.71 1160.61 L1587.95 1160.61 L1609.2 1160.61 L1630.44 1160.61 L1651.68 1160.61 L1672.93 1160.61 L1694.17 1160.61 L1715.42 1160.61 L1736.66 1160.61 L1757.91 1160.61 L1779.15 1160.61 L1800.4 1173.74 L1821.64 1173.74 L1842.89 1173.74 L1864.13 1173.74 L1885.38 1173.74 L1906.62 1173.74 L1927.86 1173.74 L1949.11 1173.74 L1970.35 1173.74 L1991.6 1173.74 L2012.84 1173.74 L2034.09 1173.74 L2055.33 1173.74 L2076.58 1173.74 L2097.82 1173.74 L2119.07 1173.74 L2140.31 1173.74 L2161.55 1173.74 L2182.8 1173.74 L2204.04 1173.74 L2225.29 1173.74 L2246.53 1173.74 L2267.78 1173.74 L2289.02 1173.74 L2310.27 1173.74 L2331.51 1173.74 L2352.76 1173.74 L2352.76 1344.41 L2331.51 1344.41 L2310.27 1344.41 L2289.02 1344.41 L2267.78 1344.41 L2246.53 1344.41 L2225.29 1344.41 L2204.04 1344.41 L2182.8 1344.41 L2161.55 1344.41 L2140.31 1344.41 L2119.07 1344.41 L2097.82 1344.41 L2076.58 1344.41 L2055.33 1344.41 L2034.09 1344.41 L2012.84 1344.41 L1991.6 1331.28 L1970.35 1331.28 L1949.11 1331.28 L1927.86 1331.28 L1906.62 1331.28 L1885.38 1331.28 L1864.13 1331.28 L1842.89 1331.28 L1821.64 1331.28 L1800.4 1331.28 L1779.15 1331.28 L1757.91 1331.28 L1736.66 1331.28 L1715.42 1331.28 L1694.17 1331.28 L1672.93 1331.28 L1651.68 1331.28 L1630.44 1331.28 L1609.2 1331.28 L1587.95 1331.28 L1566.71 1331.28 L1545.46 1331.28 L1524.22 1331.28 L1502.97 1331.28 L1481.73 1331.28 L1460.48 1331.28 L1439.24 1331.28 L1417.99 1331.28 L1396.75 1331.28 L1375.51 1331.28 L1354.26 1331.28 L1333.02 1331.28 L1311.77 1331.28 L1290.53 1331.28 L1269.28 1331.28 L1248.04 1331.28 L1226.79 1331.28 L1205.55 1331.28 L1184.3 1331.28 L1163.06 1331.28 L1141.81 1331.28 L1120.57 1331.28 L1099.33 1331.28 L1078.08 1331.28 L1056.84 1318.15 L1035.59 1318.15 L1014.35 1318.15 L993.102 1318.15 L971.858 1318.15 L950.613 1318.15 L929.369 1318.15 L908.124 1318.15 L886.88 1318.15 L865.635 1318.15 L844.39 1318.15 L823.146 1318.15 L801.901 1318.15 L780.657 1318.15 L759.412 1305.02 L738.167 1305.02 L716.923 1305.02 L695.678 1305.02 L674.434 1305.02 L653.189 1305.02 L631.945 1305.02 L610.7 1291.9 L589.455 1291.9 L568.211 1291.9 L546.966 1291.9 L525.722 1291.9 L504.477 1278.77 L483.232 1278.77 L461.988 1265.64 L440.743 1265.64 L419.499 1252.51 L398.254 1252.51 L377.01 1239.38 L355.765 1226.25 L334.52 1213.13 L313.276 1200 L292.031 1173.74 L270.787 1134.36 L249.542 1094.97  Z" fill="#2ba02b" fill-rule="evenodd" fill-opacity="0.45"/>
<polyline clip-path="url(#clip812)" style="stroke:#2ba02b; stroke-linecap:round; stroke-linejoin:round; stroke-width:4; stroke-opacity:1; fill:none" points="249.542,241.627 270.787,425.424 292.031,556.708 313.276,648.607 334.52,727.377 355.765,779.89 377.01,832.404 398.254,858.66 419.499,898.045 440.743,924.302 461.988,937.43 483.232,963.687 504.477,976.816 525.722,989.944 546.966,1003.07 568.211,1016.2 589.455,1029.33 610.7,1042.46 631.945,1042.46 653.189,1055.59 674.434,1055.59 695.678,1068.71 716.923,1068.71 738.167,1081.84 759.412,1081.84 780.657,1081.84 801.901,1094.97 823.146,1094.97 844.39,1094.97 865.635,1108.1 886.88,1108.1 908.124,1108.1 929.369,1108.1 950.613,1121.23 971.858,1121.23 993.102,1121.23 1014.35,1121.23 1035.59,1121.23 1056.84,1134.36 1078.08,1134.36 1099.33,1134.36 1120.57,1134.36 1141.81,1134.36 1163.06,1134.36 1184.3,1134.36 1205.55,1134.36 1226.79,1147.48 1248.04,1147.48 1269.28,1147.48 1290.53,1147.48 1311.77,1147.48 1333.02,1147.48 1354.26,1147.48 1375.51,1147.48 1396.75,1147.48 1417.99,1147.48 1439.24,1160.61 1460.48,1160.61 1481.73,1160.61 1502.97,1160.61 1524.22,1160.61 1545.46,1160.61 1566.71,1160.61 1587.95,1160.61 1609.2,1160.61 1630.44,1160.61 1651.68,1160.61 1672.93,1160.61 1694.17,1160.61 1715.42,1160.61 1736.66,1160.61 1757.91,1160.61 1779.15,1160.61 1800.4,1173.74 1821.64,1173.74 1842.89,1173.74 1864.13,1173.74 1885.38,1173.74 1906.62,1173.74 1927.86,1173.74 1949.11,1173.74 1970.35,1173.74 1991.6,1173.74 2012.84,1173.74 2034.09,1173.74 2055.33,1173.74 2076.58,1173.74 2097.82,1173.74 2119.07,1173.74 2140.31,1173.74 2161.55,1173.74 2182.8,1173.74 2204.04,1173.74 2225.29,1173.74 2246.53,1173.74 2267.78,1173.74 2289.02,1173.74 2310.27,1173.74 2331.51,1173.74 2352.76,1173.74 "/>
<path clip-path="url(#clip812)" d="M249.542 832.404 L270.787 924.302 L292.031 989.944 L313.276 1029.33 L334.52 1068.71 L355.765 1094.97 L377.01 1121.23 L398.254 1134.36 L419.499 1147.48 L440.743 1160.61 L461.988 1173.74 L483.232 1186.87 L504.477 1200 L525.722 1200 L546.966 1213.13 L568.211 1213.13 L589.455 1213.13 L610.7 1226.25 L631.945 1226.25 L653.189 1226.25 L674.434 1239.38 L695.678 1239.38 L716.923 1239.38 L738.167 1239.38 L759.412 1252.51 L780.657 1252.51 L801.901 1252.51 L823.146 1252.51 L844.39 1252.51 L865.635 1252.51 L886.88 1265.64 L908.124 1265.64 L929.369 1265.64 L950.613 1265.64 L971.858 1265.64 L993.102 1265.64 L1014.35 1265.64 L1035.59 1265.64 L1056.84 1265.64 L1078.08 1265.64 L1099.33 1278.77 L1120.57 1278.77 L1141.81 1278.77 L1163.06 1278.77 L1184.3 1278.77 L1205.55 1278.77 L1226.79 1278.77 L1248.04 1278.77 L1269.28 1278.77 L1290.53 1278.77 L1311.77 1278.77 L1333.02 1278.77 L1354.26 1278.77 L1375.51 1278.77 L1396.75 1278.77 L1417.99 1278.77 L1439.24 1278.77 L1460.48 1278.77 L1481.73 1278.77 L1502.97 1291.9 L1524.22 1291.9 L1545.46 1291.9 L1566.71 1291.9 L1587.95 1291.9 L1609.2 1291.9 L1630.44 1291.9 L1651.68 1291.9 L1672.93 1291.9 L1694.17 1291.9 L1715.42 1291.9 L1736.66 1291.9 L1757.91 1291.9 L1779.15 1291.9 L1800.4 1291.9 L1821.64 1291.9 L1842.89 1291.9 L1864.13 1291.9 L1885.38 1291.9 L1906.62 1291.9 L1927.86 1291.9 L1949.11 1291.9 L1970.35 1291.9 L1991.6 1291.9 L2012.84 1291.9 L2034.09 1291.9 L2055.33 1291.9 L2076.58 1291.9 L2097.82 1291.9 L2119.07 1291.9 L2140.31 1291.9 L2161.55 1291.9 L2182.8 1291.9 L2204.04 1291.9 L2225.29 1291.9 L2246.53 1291.9 L2267.78 1291.9 L2289.02 1291.9 L2310.27 1291.9 L2331.51 1291.9 L2352.76 1291.9 L2352.76 1370.67 L2331.51 1370.67 L2310.27 1370.67 L2289.02 1370.67 L2267.78 1370.67 L2246.53 1370.67 L2225.29 1370.67 L2204.04 1370.67 L2182.8 1370.67 L2161.55 1370.67 L2140.31 1370.67 L2119.07 1370.67 L2097.82 1370.67 L2076.58 1370.67 L2055.33 1370.67 L2034.09 1370.67 L2012.84 1370.67 L1991.6 1370.67 L1970.35 1370.67 L1949.11 1370.67 L1927.86 1370.67 L1906.62 1370.67 L1885.38 1370.67 L1864.13 1370.67 L1842.89 1370.67 L1821.64 1370.67 L1800.4 1370.67 L1779.15 1370.67 L1757.91 1370.67 L1736.66 1370.67 L1715.42 1370.67 L1694.17 1370.67 L1672.93 1370.67 L1651.68 1370.67 L1630.44 1370.67 L1609.2 1370.67 L1587.95 1370.67 L1566.71 1370.67 L1545.46 1370.67 L1524.22 1370.67 L1502.97 1370.67 L1481.73 1370.67 L1460.48 1370.67 L1439.24 1370.67 L1417.99 1370.67 L1396.75 1370.67 L1375.51 1370.67 L1354.26 1370.67 L1333.02 1370.67 L1311.77 1370.67 L1290.53 1370.67 L1269.28 1370.67 L1248.04 1370.67 L1226.79 1370.67 L1205.55 1370.67 L1184.3 1370.67 L1163.06 1370.67 L1141.81 1370.67 L1120.57 1370.67 L1099.33 1370.67 L1078.08 1370.67 L1056.84 1370.67 L1035.59 1370.67 L1014.35 1370.67 L993.102 1370.67 L971.858 1370.67 L950.613 1370.67 L929.369 1370.67 L908.124 1370.67 L886.88 1370.67 L865.635 1357.54 L844.39 1357.54 L823.146 1357.54 L801.901 1357.54 L780.657 1357.54 L759.412 1357.54 L738.167 1357.54 L716.923 1357.54 L695.678 1357.54 L674.434 1357.54 L653.189 1357.54 L631.945 1357.54 L610.7 1357.54 L589.455 1357.54 L568.211 1344.41 L546.966 1344.41 L525.722 1344.41 L504.477 1344.41 L483.232 1344.41 L461.988 1344.41 L440.743 1331.28 L419.499 1331.28 L398.254 1331.28 L377.01 1318.15 L355.765 1318.15 L334.52 1305.02 L313.276 1305.02 L292.031 1291.9 L270.787 1265.64 L249.542 1252.51  Z" fill="#d52628" fill-rule="evenodd" fill-opacity="0.45"/>
<polyline clip-path="url(#clip812)" style="stroke:#d52628; stroke-linecap:round; stroke-linejoin:round; stroke-width:4; stroke-opacity:1; fill:none" points="249.542,832.404 270.787,924.302 292.031,989.944 313.276,1029.33 334.52,1068.71 355.765,1094.97 377.01,1121.23 398.254,1134.36 419.499,1147.48 440.743,1160.61 461.988,1173.74 483.232,1186.87 504.477,1200 525.722,1200 546.966,1213.13 568.211,1213.13 589.455,1213.13 610.7,1226.25 631.945,1226.25 653.189,1226.25 674.434,1239.38 695.678,1239.38 716.923,1239.38 738.167,1239.38 759.412,1252.51 780.657,1252.51 801.901,1252.51 823.146,1252.51 844.39,1252.51 865.635,1252.51 886.88,1265.64 908.124,1265.64 929.369,1265.64 950.613,1265.64 971.858,1265.64 993.102,1265.64 1014.35,1265.64 1035.59,1265.64 1056.84,1265.64 1078.08,1265.64 1099.33,1278.77 1120.57,1278.77 1141.81,1278.77 1163.06,1278.77 1184.3,1278.77 1205.55,1278.77 1226.79,1278.77 1248.04,1278.77 1269.28,1278.77 1290.53,1278.77 1311.77,1278.77 1333.02,1278.77 1354.26,1278.77 1375.51,1278.77 1396.75,1278.77 1417.99,1278.77 1439.24,1278.77 1460.48,1278.77 1481.73,1278.77 1502.97,1291.9 1524.22,1291.9 1545.46,1291.9 1566.71,1291.9 1587.95,1291.9 1609.2,1291.9 1630.44,1291.9 1651.68,1291.9 1672.93,1291.9 1694.17,1291.9 1715.42,1291.9 1736.66,1291.9 1757.91,1291.9 1779.15,1291.9 1800.4,1291.9 1821.64,1291.9 1842.89,1291.9 1864.13,1291.9 1885.38,1291.9 1906.62,1291.9 1927.86,1291.9 1949.11,1291.9 1970.35,1291.9 1991.6,1291.9 2012.84,1291.9 2034.09,1291.9 2055.33,1291.9 2076.58,1291.9 2097.82,1291.9 2119.07,1291.9 2140.31,1291.9 2161.55,1291.9 2182.8,1291.9 2204.04,1291.9 2225.29,1291.9 2246.53,1291.9 2267.78,1291.9 2289.02,1291.9 2310.27,1291.9 2331.51,1291.9 2352.76,1291.9 "/>
<path clip-path="url(#clip812)" d="M249.542 1121.23 L270.787 1173.74 L292.031 1200 L313.276 1226.25 L334.52 1239.38 L355.765 1252.51 L377.01 1265.64 L398.254 1278.77 L419.499 1278.77 L440.743 1291.9 L461.988 1291.9 L483.232 1305.02 L504.477 1305.02 L525.722 1305.02 L546.966 1318.15 L568.211 1318.15 L589.455 1318.15 L610.7 1318.15 L631.945 1318.15 L653.189 1331.28 L674.434 1331.28 L695.678 1331.28 L716.923 1331.28 L738.167 1331.28 L759.412 1331.28 L780.657 1331.28 L801.901 1331.28 L823.146 1331.28 L844.39 1331.28 L865.635 1344.41 L886.88 1344.41 L908.124 1344.41 L929.369 1344.41 L950.613 1344.41 L971.858 1344.41 L993.102 1344.41 L1014.35 1344.41 L1035.59 1344.41 L1056.84 1344.41 L1078.08 1344.41 L1099.33 1344.41 L1120.57 1344.41 L1141.81 1344.41 L1163.06 1344.41 L1184.3 1344.41 L1205.55 1344.41 L1226.79 1344.41 L1248.04 1344.41 L1269.28 1344.41 L1290.53 1344.41 L1311.77 1344.41 L1333.02 1357.54 L1354.26 1357.54 L1375.51 1357.54 L1396.75 1357.54 L1417.99 1357.54 L1439.24 1357.54 L1460.48 1357.54 L1481.73 1357.54 L1502.97 1357.54 L1524.22 1357.54 L1545.46 1357.54 L1566.71 1357.54 L1587.95 1357.54 L1609.2 1357.54 L1630.44 1357.54 L1651.68 1357.54 L1672.93 1357.54 L1694.17 1357.54 L1715.42 1357.54 L1736.66 1357.54 L1757.91 1357.54 L1779.15 1357.54 L1800.4 1357.54 L1821.64 1357.54 L1842.89 1357.54 L1864.13 1357.54 L1885.38 1357.54 L1906.62 1357.54 L1927.86 1357.54 L1949.11 1357.54 L1970.35 1357.54 L1991.6 1357.54 L2012.84 1357.54 L2034.09 1357.54 L2055.33 1357.54 L2076.58 1357.54 L2097.82 1357.54 L2119.07 1357.54 L2140.31 1357.54 L2161.55 1357.54 L2182.8 1357.54 L2204.04 1357.54 L2225.29 1357.54 L2246.53 1357.54 L2267.78 1357.54 L2289.02 1357.54 L2310.27 1357.54 L2331.51 1357.54 L2352.76 1357.54 L2352.76 1396.92 L2331.51 1396.92 L2310.27 1396.92 L2289.02 1396.92 L2267.78 1396.92 L2246.53 1396.92 L2225.29 1396.92 L2204.04 1396.92 L2182.8 1396.92 L2161.55 1396.92 L2140.31 1396.92 L2119.07 1396.92 L2097.82 1396.92 L2076.58 1396.92 L2055.33 1396.92 L2034.09 1396.92 L2012.84 1396.92 L1991.6 1396.92 L1970.35 1396.92 L1949.11 1396.92 L1927.86 1396.92 L1906.62 1396.92 L1885.38 1396.92 L1864.13 1396.92 L1842.89 1396.92 L1821.64 1396.92 L1800.4 1396.92 L1779.15 1396.92 L1757.91 1396.92 L1736.66 1396.92 L1715.42 1396.92 L1694.17 1396.92 L1672.93 1396.92 L1651.68 1396.92 L1630.44 1396.92 L1609.2 1396.92 L1587.95 1396.92 L1566.71 1396.92 L1545.46 1396.92 L1524.22 1396.92 L1502.97 1396.92 L1481.73 1396.92 L1460.48 1396.92 L1439.24 1396.92 L1417.99 1396.92 L1396.75 1396.92 L1375.51 1396.92 L1354.26 1396.92 L1333.02 1396.92 L1311.77 1396.92 L1290.53 1396.92 L1269.28 1396.92 L1248.04 1396.92 L1226.79 1396.92 L1205.55 1396.92 L1184.3 1396.92 L1163.06 1396.92 L1141.81 1396.92 L1120.57 1396.92 L1099.33 1396.92 L1078.08 1396.92 L1056.84 1396.92 L1035.59 1383.79 L1014.35 1383.79 L993.102 1383.79 L971.858 1383.79 L950.613 1383.79 L929.369 1383.79 L908.124 1383.79 L886.88 1383.79 L865.635 1383.79 L844.39 1383.79 L823.146 1383.79 L801.901 1383.79 L780.657 1383.79 L759.412 1383.79 L738.167 1383.79 L716.923 1383.79 L695.678 1383.79 L674.434 1383.79 L653.189 1383.79 L631.945 1383.79 L610.7 1383.79 L589.455 1383.79 L568.211 1383.79 L546.966 1383.79 L525.722 1383.79 L504.477 1383.79 L483.232 1383.79 L461.988 1370.67 L440.743 1370.67 L419.499 1370.67 L398.254 1370.67 L377.01 1370.67 L355.765 1357.54 L334.52 1357.54 L313.276 1357.54 L292.031 1344.41 L270.787 1344.41 L249.542 1331.28  Z" fill="#9466bd" fill-rule="evenodd" fill-opacity="0.45"/>
<polyline clip-path="url(#clip812)" style="stroke:#9466bd; stroke-linecap:round; stroke-linejoin:round; stroke-width:4; stroke-opacity:1; fill:none" points="249.542,1121.23 270.787,1173.74 292.031,1200 313.276,1226.25 334.52,1239.38 355.765,1252.51 377.01,1265.64 398.254,1278.77 419.499,1278.77 440.743,1291.9 461.988,1291.9 483.232,1305.02 504.477,1305.02 525.722,1305.02 546.966,1318.15 568.211,1318.15 589.455,1318.15 610.7,1318.15 631.945,1318.15 653.189,1331.28 674.434,1331.28 695.678,1331.28 716.923,1331.28 738.167,1331.28 759.412,1331.28 780.657,1331.28 801.901,1331.28 823.146,1331.28 844.39,1331.28 865.635,1344.41 886.88,1344.41 908.124,1344.41 929.369,1344.41 950.613,1344.41 971.858,1344.41 993.102,1344.41 1014.35,1344.41 1035.59,1344.41 1056.84,1344.41 1078.08,1344.41 1099.33,1344.41 1120.57,1344.41 1141.81,1344.41 1163.06,1344.41 1184.3,1344.41 1205.55,1344.41 1226.79,1344.41 1248.04,1344.41 1269.28,1344.41 1290.53,1344.41 1311.77,1344.41 1333.02,1357.54 1354.26,1357.54 1375.51,1357.54 1396.75,1357.54 1417.99,1357.54 1439.24,1357.54 1460.48,1357.54 1481.73,1357.54 1502.97,1357.54 1524.22,1357.54 1545.46,1357.54 1566.71,1357.54 1587.95,1357.54 1609.2,1357.54 1630.44,1357.54 1651.68,1357.54 1672.93,1357.54 1694.17,1357.54 1715.42,1357.54 1736.66,1357.54 1757.91,1357.54 1779.15,1357.54 1800.4,1357.54 1821.64,1357.54 1842.89,1357.54 1864.13,1357.54 1885.38,1357.54 1906.62,1357.54 1927.86,1357.54 1949.11,1357.54 1970.35,1357.54 1991.6,1357.54 2012.84,1357.54 2034.09,1357.54 2055.33,1357.54 2076.58,1357.54 2097.82,1357.54 2119.07,1357.54 2140.31,1357.54 2161.55,1357.54 2182.8,1357.54 2204.04,1357.54 2225.29,1357.54 2246.53,1357.54 2267.78,1357.54 2289.02,1357.54 2310.27,1357.54 2331.51,1357.54 2352.76,1357.54 "/>
<polyline clip-path="url(#clip812)" style="stroke:#000000; stroke-linecap:round; stroke-linejoin:round; stroke-width:4; stroke-opacity:1; fill:none" points="405.832,1327.34 969.658,1208.82 1492.66,1094.25 1892.28,991.558 2144.85,908.039 2258.97,849.353 2277.18,819.178 2277.24,819.073 1842.1,840.667 1382.11,882.469 1107.64,944.317 890.269,1017.35 723.86,1081.75 548.785,1153.85 404.621,1217.03 293.3,1267.49 216.452,1304.26 168.067,1327.02 144.265,1338.79 137.134,1342.36 139.315,1341.27 144.087,1338.88 146.226,1337.81 142.657,1339.6 132.646,1344.59 117.557,1352.04 100.411,1360.63 84.6855,1368.5 85.7505,1367.97 103.689,1359 124.973,1348.4 146.306,1337.77 164.586,1328.74 177.414,1322.56 183.261,1319.86 181.72,1320.57 173.812,1324.22 161.783,1330.12 147.748,1337.04 133.965,1343.94 122.117,1349.81 113.344,1354.14 107.965,1356.86 105.504,1358.09 105.011,1358.34 105.279,1358.21 105.142,1358.28 103.734,1358.98 100.667,1360.5 96.0982,1362.8 90.6461,1365.56 85.23,1368.23 84.6855,1368.5 85.2619,1368.21 90.7094,1365.53 95.8378,1362.93 99.1393,1361.25 99.1543,1361.25 94.6899,1363.52 85.0019,1368.34 84.6855,1368.5 "/>
<path clip-path="url(#clip810)" d="M1792.98 477.836 L2282.65 477.836 L2282.65 166.796 L1792.98 166.796  Z" fill="#ffffff" fill-rule="evenodd" fill-opacity="1"/>
<polyline clip-path="url(#clip810)" style="stroke:#000000; stroke-linecap:round; stroke-linejoin:round; stroke-width:4; stroke-opacity:1; fill:none" points="1792.98,477.836 2282.65,477.836 2282.65,166.796 1792.98,166.796 1792.98,477.836 "/>
<path clip-path="url(#clip810)" d="M1816.35 239.372 L1956.56 239.372 L1956.56 197.9 L1816.35 197.9 L1816.35 239.372  Z" fill="#1f77b4" fill-rule="evenodd" fill-opacity="0.45"/>
<polyline clip-path="url(#clip810)" style="stroke:#1f77b4; stroke-linecap:round; stroke-linejoin:round; stroke-width:4; stroke-opacity:1; fill:none" points="1816.35,197.9 1956.56,197.9 "/>
<path clip-path="url(#clip810)" d="M1991.87 204.434 Q1988.26 204.434 1986.43 207.999 Q1984.63 211.541 1984.63 218.67 Q1984.63 225.777 1986.43 229.342 Q1988.26 232.883 1991.87 232.883 Q1995.51 232.883 1997.31 229.342 Q1999.14 225.777 1999.14 218.67 Q1999.14 211.541 1997.31 207.999 Q1995.51 204.434 1991.87 204.434 M1991.87 200.731 Q1997.68 200.731 2000.74 205.337 Q2003.82 209.92 2003.82 218.67 Q2003.82 227.397 2000.74 232.004 Q1997.68 236.587 1991.87 236.587 Q1986.06 236.587 1982.98 232.004 Q1979.93 227.397 1979.93 218.67 Q1979.93 209.92 1982.98 205.337 Q1986.06 200.731 1991.87 200.731 Z" fill="#000000" fill-rule="nonzero" fill-opacity="1" /><path clip-path="url(#clip810)" d="M2012.04 230.036 L2016.92 230.036 L2016.92 235.916 L2012.04 235.916 L2012.04 230.036 Z" fill="#000000" fill-rule="nonzero" fill-opacity="1" /><path clip-path="url(#clip810)" d="M2037.1 204.434 Q2033.49 204.434 2031.67 207.999 Q2029.86 211.541 2029.86 218.67 Q2029.86 225.777 2031.67 229.342 Q2033.49 232.883 2037.1 232.883 Q2040.74 232.883 2042.54 229.342 Q2044.37 225.777 2044.37 218.67 Q2044.37 211.541 2042.54 207.999 Q2040.74 204.434 2037.1 204.434 M2037.1 200.731 Q2042.92 200.731 2045.97 205.337 Q2049.05 209.92 2049.05 218.67 Q2049.05 227.397 2045.97 232.004 Q2042.92 236.587 2037.1 236.587 Q2031.29 236.587 2028.22 232.004 Q2025.16 227.397 2025.16 218.67 Q2025.16 209.92 2028.22 205.337 Q2031.29 200.731 2037.1 200.731 Z" fill="#000000" fill-rule="nonzero" fill-opacity="1" /><path clip-path="url(#clip810)" d="M2067.27 204.434 Q2063.66 204.434 2061.83 207.999 Q2060.02 211.541 2060.02 218.67 Q2060.02 225.777 2061.83 229.342 Q2063.66 232.883 2067.27 232.883 Q2070.9 232.883 2072.71 229.342 Q2074.54 225.777 2074.54 218.67 Q2074.54 211.541 2072.71 207.999 Q2070.9 204.434 2067.27 204.434 M2067.27 200.731 Q2073.08 200.731 2076.13 205.337 Q2079.21 209.92 2079.21 218.67 Q2079.21 227.397 2076.13 232.004 Q2073.08 236.587 2067.27 236.587 Q2061.46 236.587 2058.38 232.004 Q2055.32 227.397 2055.32 218.67 Q2055.32 209.92 2058.38 205.337 Q2061.46 200.731 2067.27 200.731 Z" fill="#000000" fill-rule="nonzero" fill-opacity="1" /><path clip-path="url(#clip810)" d="M2098.01 216.772 Q2094.86 216.772 2093.01 218.925 Q2091.18 221.078 2091.18 224.828 Q2091.18 228.555 2093.01 230.731 Q2094.86 232.883 2098.01 232.883 Q2101.16 232.883 2102.98 230.731 Q2104.84 228.555 2104.84 224.828 Q2104.84 221.078 2102.98 218.925 Q2101.16 216.772 2098.01 216.772 M2107.29 202.12 L2107.29 206.379 Q2105.53 205.546 2103.73 205.106 Q2101.94 204.666 2100.18 204.666 Q2095.55 204.666 2093.1 207.791 Q2090.67 210.916 2090.32 217.235 Q2091.69 215.221 2093.75 214.157 Q2095.81 213.069 2098.29 213.069 Q2103.49 213.069 2106.5 216.24 Q2109.54 219.388 2109.54 224.828 Q2109.54 230.152 2106.39 233.369 Q2103.24 236.587 2098.01 236.587 Q2092.01 236.587 2088.84 232.004 Q2085.67 227.397 2085.67 218.67 Q2085.67 210.476 2089.56 205.615 Q2093.45 200.731 2100 200.731 Q2101.76 200.731 2103.54 201.078 Q2105.35 201.425 2107.29 202.12 Z" fill="#000000" fill-rule="nonzero" fill-opacity="1" /><path clip-path="url(#clip810)" d="M2131.76 217.282 Q2135.11 217.999 2136.99 220.268 Q2138.89 222.536 2138.89 225.869 Q2138.89 230.985 2135.37 233.786 Q2131.85 236.587 2125.37 236.587 Q2123.19 236.587 2120.88 236.147 Q2118.59 235.731 2116.13 234.874 L2116.13 230.36 Q2118.08 231.494 2120.39 232.073 Q2122.71 232.652 2125.23 232.652 Q2129.63 232.652 2131.92 230.916 Q2134.23 229.18 2134.23 225.869 Q2134.23 222.814 2132.08 221.101 Q2129.95 219.365 2126.13 219.365 L2122.1 219.365 L2122.1 215.522 L2126.32 215.522 Q2129.77 215.522 2131.6 214.157 Q2133.42 212.768 2133.42 210.175 Q2133.42 207.513 2131.53 206.101 Q2129.65 204.666 2126.13 204.666 Q2124.21 204.666 2122.01 205.083 Q2119.81 205.499 2117.17 206.379 L2117.17 202.212 Q2119.84 201.471 2122.15 201.101 Q2124.49 200.731 2126.55 200.731 Q2131.87 200.731 2134.97 203.161 Q2138.08 205.569 2138.08 209.689 Q2138.08 212.559 2136.43 214.55 Q2134.79 216.518 2131.76 217.282 Z" fill="#000000" fill-rule="nonzero" fill-opacity="1" /><path clip-path="url(#clip810)" d="M2157.75 204.434 Q2154.14 204.434 2152.31 207.999 Q2150.51 211.541 2150.51 218.67 Q2150.51 225.777 2152.31 229.342 Q2154.14 232.883 2157.75 232.883 Q2161.39 232.883 2163.19 229.342 Q2165.02 225.777 2165.02 218.67 Q2165.02 211.541 2163.19 207.999 Q2161.39 204.434 2157.75 204.434 M2157.75 200.731 Q2163.56 200.731 2166.62 205.337 Q2169.7 209.92 2169.7 218.67 Q2169.7 227.397 2166.62 232.004 Q2163.56 236.587 2157.75 236.587 Q2151.94 236.587 2148.86 232.004 Q2145.81 227.397 2145.81 218.67 Q2145.81 209.92 2148.86 205.337 Q2151.94 200.731 2157.75 200.731 Z" fill="#000000" fill-rule="nonzero" fill-opacity="1" /><path clip-path="url(#clip810)" d="M2178.05 235.198 L2178.05 230.939 Q2179.81 231.772 2181.62 232.212 Q2183.42 232.652 2185.16 232.652 Q2189.79 232.652 2192.22 229.55 Q2194.67 226.425 2195.02 220.082 Q2193.68 222.073 2191.62 223.138 Q2189.56 224.203 2187.06 224.203 Q2181.87 224.203 2178.84 221.078 Q2175.83 217.93 2175.83 212.49 Q2175.83 207.166 2178.98 203.948 Q2182.13 200.731 2187.36 200.731 Q2193.35 200.731 2196.5 205.337 Q2199.67 209.92 2199.67 218.67 Q2199.67 226.842 2195.78 231.726 Q2191.92 236.587 2185.37 236.587 Q2183.61 236.587 2181.8 236.24 Q2180 235.893 2178.05 235.198 M2187.36 220.545 Q2190.51 220.545 2192.34 218.393 Q2194.19 216.24 2194.19 212.49 Q2194.19 208.763 2192.34 206.61 Q2190.51 204.434 2187.36 204.434 Q2184.21 204.434 2182.36 206.61 Q2180.53 208.763 2180.53 212.49 Q2180.53 216.24 2182.36 218.393 Q2184.21 220.545 2187.36 220.545 Z" fill="#000000" fill-rule="nonzero" fill-opacity="1" /><path clip-path="url(#clip810)" d="M2208.12 201.356 L2226.48 201.356 L2226.48 205.291 L2212.4 205.291 L2212.4 213.763 Q2213.42 213.416 2214.44 213.254 Q2215.46 213.069 2216.48 213.069 Q2222.27 213.069 2225.65 216.24 Q2229.03 219.411 2229.03 224.828 Q2229.03 230.406 2225.55 233.508 Q2222.08 236.587 2215.76 236.587 Q2213.59 236.587 2211.32 236.217 Q2209.07 235.846 2206.66 235.106 L2206.66 230.406 Q2208.75 231.541 2210.97 232.096 Q2213.19 232.652 2215.67 232.652 Q2219.67 232.652 2222.01 230.545 Q2224.35 228.439 2224.35 224.828 Q2224.35 221.217 2222.01 219.11 Q2219.67 217.004 2215.67 217.004 Q2213.79 217.004 2211.92 217.42 Q2210.07 217.837 2208.12 218.717 L2208.12 201.356 Z" fill="#000000" fill-rule="nonzero" fill-opacity="1" /><path clip-path="url(#clip810)" d="M2237.06 201.356 L2259.28 201.356 L2259.28 203.346 L2246.73 235.916 L2241.85 235.916 L2253.65 205.291 L2237.06 205.291 L2237.06 201.356 Z" fill="#000000" fill-rule="nonzero" fill-opacity="1" /><path clip-path="url(#clip810)" d="M1816.35 291.212 L1956.56 291.212 L1956.56 249.74 L1816.35 249.74 L1816.35 291.212  Z" fill="#ff7e0d" fill-rule="evenodd" fill-opacity="0.45"/>
<polyline clip-path="url(#clip810)" style="stroke:#ff7e0d; stroke-linecap:round; stroke-linejoin:round; stroke-width:4; stroke-opacity:1; fill:none" points="1816.35,249.74 1956.56,249.74 "/>
<path clip-path="url(#clip810)" d="M1991.87 256.274 Q1988.26 256.274 1986.43 259.839 Q1984.63 263.381 1984.63 270.51 Q1984.63 277.617 1986.43 281.182 Q1988.26 284.723 1991.87 284.723 Q1995.51 284.723 1997.31 281.182 Q1999.14 277.617 1999.14 270.51 Q1999.14 263.381 1997.31 259.839 Q1995.51 256.274 1991.87 256.274 M1991.87 252.571 Q1997.68 252.571 2000.74 257.177 Q2003.82 261.76 2003.82 270.51 Q2003.82 279.237 2000.74 283.844 Q1997.68 288.427 1991.87 288.427 Q1986.06 288.427 1982.98 283.844 Q1979.93 279.237 1979.93 270.51 Q1979.93 261.76 1982.98 257.177 Q1986.06 252.571 1991.87 252.571 Z" fill="#000000" fill-rule="nonzero" fill-opacity="1" /><path clip-path="url(#clip810)" d="M2012.04 281.876 L2016.92 281.876 L2016.92 287.756 L2012.04 287.756 L2012.04 281.876 Z" fill="#000000" fill-rule="nonzero" fill-opacity="1" /><path clip-path="url(#clip810)" d="M2037.1 256.274 Q2033.49 256.274 2031.67 259.839 Q2029.86 263.381 2029.86 270.51 Q2029.86 277.617 2031.67 281.182 Q2033.49 284.723 2037.1 284.723 Q2040.74 284.723 2042.54 281.182 Q2044.37 277.617 2044.37 270.51 Q2044.37 263.381 2042.54 259.839 Q2040.74 256.274 2037.1 256.274 M2037.1 252.571 Q2042.92 252.571 2045.97 257.177 Q2049.05 261.76 2049.05 270.51 Q2049.05 279.237 2045.97 283.844 Q2042.92 288.427 2037.1 288.427 Q2031.29 288.427 2028.22 283.844 Q2025.16 279.237 2025.16 270.51 Q2025.16 261.76 2028.22 257.177 Q2031.29 252.571 2037.1 252.571 Z" fill="#000000" fill-rule="nonzero" fill-opacity="1" /><path clip-path="url(#clip810)" d="M2061.29 283.821 L2077.61 283.821 L2077.61 287.756 L2055.67 287.756 L2055.67 283.821 Q2058.33 281.066 2062.92 276.436 Q2067.52 271.784 2068.7 270.441 Q2070.95 267.918 2071.83 266.182 Q2072.73 264.423 2072.73 262.733 Q2072.73 259.978 2070.79 258.242 Q2068.86 256.506 2065.76 256.506 Q2063.56 256.506 2061.11 257.27 Q2058.68 258.034 2055.9 259.585 L2055.9 254.862 Q2058.73 253.728 2061.18 253.149 Q2063.63 252.571 2065.67 252.571 Q2071.04 252.571 2074.23 255.256 Q2077.43 257.941 2077.43 262.432 Q2077.43 264.561 2076.62 266.483 Q2075.83 268.381 2073.73 270.973 Q2073.15 271.645 2070.04 274.862 Q2066.94 278.057 2061.29 283.821 Z" fill="#000000" fill-rule="nonzero" fill-opacity="1" /><path clip-path="url(#clip810)" d="M2091.46 283.821 L2107.78 283.821 L2107.78 287.756 L2085.83 287.756 L2085.83 283.821 Q2088.49 281.066 2093.08 276.436 Q2097.68 271.784 2098.86 270.441 Q2101.11 267.918 2101.99 266.182 Q2102.89 264.423 2102.89 262.733 Q2102.89 259.978 2100.95 258.242 Q2099.03 256.506 2095.92 256.506 Q2093.73 256.506 2091.27 257.27 Q2088.84 258.034 2086.06 259.585 L2086.06 254.862 Q2088.89 253.728 2091.34 253.149 Q2093.79 252.571 2095.83 252.571 Q2101.2 252.571 2104.4 255.256 Q2107.59 257.941 2107.59 262.432 Q2107.59 264.561 2106.78 266.483 Q2105.99 268.381 2103.89 270.973 Q2103.31 271.645 2100.21 274.862 Q2097.1 278.057 2091.46 283.821 Z" fill="#000000" fill-rule="nonzero" fill-opacity="1" /><path clip-path="url(#clip810)" d="M2131.76 269.122 Q2135.11 269.839 2136.99 272.108 Q2138.89 274.376 2138.89 277.709 Q2138.89 282.825 2135.37 285.626 Q2131.85 288.427 2125.37 288.427 Q2123.19 288.427 2120.88 287.987 Q2118.59 287.571 2116.13 286.714 L2116.13 282.2 Q2118.08 283.334 2120.39 283.913 Q2122.71 284.492 2125.23 284.492 Q2129.63 284.492 2131.92 282.756 Q2134.23 281.02 2134.23 277.709 Q2134.23 274.654 2132.08 272.941 Q2129.95 271.205 2126.13 271.205 L2122.1 271.205 L2122.1 267.362 L2126.32 267.362 Q2129.77 267.362 2131.6 265.997 Q2133.42 264.608 2133.42 262.015 Q2133.42 259.353 2131.53 257.941 Q2129.65 256.506 2126.13 256.506 Q2124.21 256.506 2122.01 256.923 Q2119.81 257.339 2117.17 258.219 L2117.17 254.052 Q2119.84 253.311 2122.15 252.941 Q2124.49 252.571 2126.55 252.571 Q2131.87 252.571 2134.97 255.001 Q2138.08 257.409 2138.08 261.529 Q2138.08 264.399 2136.43 266.39 Q2134.79 268.358 2131.76 269.122 Z" fill="#000000" fill-rule="nonzero" fill-opacity="1" /><path clip-path="url(#clip810)" d="M2157.75 271.344 Q2154.42 271.344 2152.5 273.126 Q2150.6 274.909 2150.6 278.034 Q2150.6 281.159 2152.5 282.941 Q2154.42 284.723 2157.75 284.723 Q2161.09 284.723 2163.01 282.941 Q2164.93 281.135 2164.93 278.034 Q2164.93 274.909 2163.01 273.126 Q2161.11 271.344 2157.75 271.344 M2153.08 269.353 Q2150.07 268.612 2148.38 266.552 Q2146.71 264.492 2146.71 261.529 Q2146.71 257.386 2149.65 254.978 Q2152.61 252.571 2157.75 252.571 Q2162.91 252.571 2165.85 254.978 Q2168.79 257.386 2168.79 261.529 Q2168.79 264.492 2167.1 266.552 Q2165.44 268.612 2162.45 269.353 Q2165.83 270.14 2167.71 272.432 Q2169.6 274.723 2169.6 278.034 Q2169.6 283.057 2166.53 285.742 Q2163.47 288.427 2157.75 288.427 Q2152.03 288.427 2148.96 285.742 Q2145.9 283.057 2145.9 278.034 Q2145.9 274.723 2147.8 272.432 Q2149.7 270.14 2153.08 269.353 M2151.36 261.969 Q2151.36 264.654 2153.03 266.159 Q2154.72 267.663 2157.75 267.663 Q2160.76 267.663 2162.45 266.159 Q2164.16 264.654 2164.16 261.969 Q2164.16 259.284 2162.45 257.779 Q2160.76 256.274 2157.75 256.274 Q2154.72 256.274 2153.03 257.779 Q2151.36 259.284 2151.36 261.969 Z" fill="#000000" fill-rule="nonzero" fill-opacity="1" /><path clip-path="url(#clip810)" d="M2176.73 253.196 L2198.96 253.196 L2198.96 255.186 L2186.41 287.756 L2181.53 287.756 L2193.33 257.131 L2176.73 257.131 L2176.73 253.196 Z" fill="#000000" fill-rule="nonzero" fill-opacity="1" /><path clip-path="url(#clip810)" d="M2212.1 283.821 L2228.42 283.821 L2228.42 287.756 L2206.48 287.756 L2206.48 283.821 Q2209.14 281.066 2213.72 276.436 Q2218.33 271.784 2219.51 270.441 Q2221.76 267.918 2222.64 266.182 Q2223.54 264.423 2223.54 262.733 Q2223.54 259.978 2221.59 258.242 Q2219.67 256.506 2216.57 256.506 Q2214.37 256.506 2211.92 257.27 Q2209.49 258.034 2206.71 259.585 L2206.71 254.862 Q2209.53 253.728 2211.99 253.149 Q2214.44 252.571 2216.48 252.571 Q2221.85 252.571 2225.04 255.256 Q2228.24 257.941 2228.24 262.432 Q2228.24 264.561 2227.43 266.483 Q2226.64 268.381 2224.53 270.973 Q2223.96 271.645 2220.85 274.862 Q2217.75 278.057 2212.1 283.821 Z" fill="#000000" fill-rule="nonzero" fill-opacity="1" /><path clip-path="url(#clip810)" d="M1816.35 343.052 L1956.56 343.052 L1956.56 301.58 L1816.35 301.58 L1816.35 343.052  Z" fill="#2ba02b" fill-rule="evenodd" fill-opacity="0.45"/>
<polyline clip-path="url(#clip810)" style="stroke:#2ba02b; stroke-linecap:round; stroke-linejoin:round; stroke-width:4; stroke-opacity:1; fill:none" points="1816.35,301.58 1956.56,301.58 "/>
<path clip-path="url(#clip810)" d="M1991.87 308.114 Q1988.26 308.114 1986.43 311.679 Q1984.63 315.221 1984.63 322.35 Q1984.63 329.457 1986.43 333.022 Q1988.26 336.563 1991.87 336.563 Q1995.51 336.563 1997.31 333.022 Q1999.14 329.457 1999.14 322.35 Q1999.14 315.221 1997.31 311.679 Q1995.51 308.114 1991.87 308.114 M1991.87 304.411 Q1997.68 304.411 2000.74 309.017 Q2003.82 313.6 2003.82 322.35 Q2003.82 331.077 2000.74 335.684 Q1997.68 340.267 1991.87 340.267 Q1986.06 340.267 1982.98 335.684 Q1979.93 331.077 1979.93 322.35 Q1979.93 313.6 1982.98 309.017 Q1986.06 304.411 1991.87 304.411 Z" fill="#000000" fill-rule="nonzero" fill-opacity="1" /><path clip-path="url(#clip810)" d="M2012.04 333.716 L2016.92 333.716 L2016.92 339.596 L2012.04 339.596 L2012.04 333.716 Z" fill="#000000" fill-rule="nonzero" fill-opacity="1" /><path clip-path="url(#clip810)" d="M2037.1 308.114 Q2033.49 308.114 2031.67 311.679 Q2029.86 315.221 2029.86 322.35 Q2029.86 329.457 2031.67 333.022 Q2033.49 336.563 2037.1 336.563 Q2040.74 336.563 2042.54 333.022 Q2044.37 329.457 2044.37 322.35 Q2044.37 315.221 2042.54 311.679 Q2040.74 308.114 2037.1 308.114 M2037.1 304.411 Q2042.92 304.411 2045.97 309.017 Q2049.05 313.6 2049.05 322.35 Q2049.05 331.077 2045.97 335.684 Q2042.92 340.267 2037.1 340.267 Q2031.29 340.267 2028.22 335.684 Q2025.16 331.077 2025.16 322.35 Q2025.16 313.6 2028.22 309.017 Q2031.29 304.411 2037.1 304.411 Z" fill="#000000" fill-rule="nonzero" fill-opacity="1" /><path clip-path="url(#clip810)" d="M2056.09 305.036 L2078.31 305.036 L2078.31 307.026 L2065.76 339.596 L2060.88 339.596 L2072.68 308.971 L2056.09 308.971 L2056.09 305.036 Z" fill="#000000" fill-rule="nonzero" fill-opacity="1" /><path clip-path="url(#clip810)" d="M2087.57 338.878 L2087.57 334.619 Q2089.33 335.452 2091.13 335.892 Q2092.94 336.332 2094.67 336.332 Q2099.3 336.332 2101.73 333.23 Q2104.19 330.105 2104.54 323.762 Q2103.19 325.753 2101.13 326.818 Q2099.07 327.883 2096.57 327.883 Q2091.39 327.883 2088.35 324.758 Q2085.35 321.61 2085.35 316.17 Q2085.35 310.846 2088.49 307.628 Q2091.64 304.411 2096.87 304.411 Q2102.87 304.411 2106.02 309.017 Q2109.19 313.6 2109.19 322.35 Q2109.19 330.522 2105.3 335.406 Q2101.43 340.267 2094.88 340.267 Q2093.12 340.267 2091.32 339.92 Q2089.51 339.573 2087.57 338.878 M2096.87 324.225 Q2100.02 324.225 2101.85 322.073 Q2103.7 319.92 2103.7 316.17 Q2103.7 312.443 2101.85 310.29 Q2100.02 308.114 2096.87 308.114 Q2093.73 308.114 2091.87 310.29 Q2090.04 312.443 2090.04 316.17 Q2090.04 319.92 2091.87 322.073 Q2093.73 324.225 2096.87 324.225 Z" fill="#000000" fill-rule="nonzero" fill-opacity="1" /><path clip-path="url(#clip810)" d="M2130.44 309.11 L2118.63 327.559 L2130.44 327.559 L2130.44 309.11 M2129.21 305.036 L2135.09 305.036 L2135.09 327.559 L2140.02 327.559 L2140.02 331.448 L2135.09 331.448 L2135.09 339.596 L2130.44 339.596 L2130.44 331.448 L2114.84 331.448 L2114.84 326.934 L2129.21 305.036 Z" fill="#000000" fill-rule="nonzero" fill-opacity="1" /><path clip-path="url(#clip810)" d="M2161.92 320.962 Q2165.28 321.679 2167.15 323.948 Q2169.05 326.216 2169.05 329.549 Q2169.05 334.665 2165.53 337.466 Q2162.01 340.267 2155.53 340.267 Q2153.35 340.267 2151.04 339.827 Q2148.75 339.411 2146.29 338.554 L2146.29 334.04 Q2148.24 335.174 2150.55 335.753 Q2152.87 336.332 2155.39 336.332 Q2159.79 336.332 2162.08 334.596 Q2164.4 332.86 2164.4 329.549 Q2164.4 326.494 2162.24 324.781 Q2160.11 323.045 2156.29 323.045 L2152.27 323.045 L2152.27 319.202 L2156.48 319.202 Q2159.93 319.202 2161.76 317.837 Q2163.59 316.448 2163.59 313.855 Q2163.59 311.193 2161.69 309.781 Q2159.81 308.346 2156.29 308.346 Q2154.37 308.346 2152.17 308.763 Q2149.97 309.179 2147.34 310.059 L2147.34 305.892 Q2150 305.151 2152.31 304.781 Q2154.65 304.411 2156.71 304.411 Q2162.03 304.411 2165.14 306.841 Q2168.24 309.249 2168.24 313.369 Q2168.24 316.239 2166.6 318.23 Q2164.95 320.198 2161.92 320.962 Z" fill="#000000" fill-rule="nonzero" fill-opacity="1" /><path clip-path="url(#clip810)" d="M2181.94 335.661 L2198.26 335.661 L2198.26 339.596 L2176.32 339.596 L2176.32 335.661 Q2178.98 332.906 2183.56 328.276 Q2188.17 323.624 2189.35 322.281 Q2191.59 319.758 2192.47 318.022 Q2193.38 316.263 2193.38 314.573 Q2193.38 311.818 2191.43 310.082 Q2189.51 308.346 2186.41 308.346 Q2184.21 308.346 2181.76 309.11 Q2179.33 309.874 2176.55 311.425 L2176.55 306.702 Q2179.37 305.568 2181.83 304.989 Q2184.28 304.411 2186.32 304.411 Q2191.69 304.411 2194.88 307.096 Q2198.08 309.781 2198.08 314.272 Q2198.08 316.401 2197.27 318.323 Q2196.48 320.221 2194.37 322.813 Q2193.79 323.485 2190.69 326.702 Q2187.59 329.897 2181.94 335.661 Z" fill="#000000" fill-rule="nonzero" fill-opacity="1" /><path clip-path="url(#clip810)" d="M2218.08 323.184 Q2214.74 323.184 2212.82 324.966 Q2210.92 326.749 2210.92 329.874 Q2210.92 332.999 2212.82 334.781 Q2214.74 336.563 2218.08 336.563 Q2221.41 336.563 2223.33 334.781 Q2225.25 332.975 2225.25 329.874 Q2225.25 326.749 2223.33 324.966 Q2221.43 323.184 2218.08 323.184 M2213.4 321.193 Q2210.39 320.452 2208.7 318.392 Q2207.03 316.332 2207.03 313.369 Q2207.03 309.226 2209.97 306.818 Q2212.94 304.411 2218.08 304.411 Q2223.24 304.411 2226.18 306.818 Q2229.12 309.226 2229.12 313.369 Q2229.12 316.332 2227.43 318.392 Q2225.76 320.452 2222.78 321.193 Q2226.15 321.98 2228.03 324.272 Q2229.93 326.563 2229.93 329.874 Q2229.93 334.897 2226.85 337.582 Q2223.79 340.267 2218.08 340.267 Q2212.36 340.267 2209.28 337.582 Q2206.22 334.897 2206.22 329.874 Q2206.22 326.563 2208.12 324.272 Q2210.02 321.98 2213.4 321.193 M2211.69 313.809 Q2211.69 316.494 2213.35 317.999 Q2215.04 319.503 2218.08 319.503 Q2221.09 319.503 2222.78 317.999 Q2224.49 316.494 2224.49 313.809 Q2224.49 311.124 2222.78 309.619 Q2221.09 308.114 2218.08 308.114 Q2215.04 308.114 2213.35 309.619 Q2211.69 311.124 2211.69 313.809 Z" fill="#000000" fill-rule="nonzero" fill-opacity="1" /><path clip-path="url(#clip810)" d="M1816.35 394.892 L1956.56 394.892 L1956.56 353.42 L1816.35 353.42 L1816.35 394.892  Z" fill="#d52628" fill-rule="evenodd" fill-opacity="0.45"/>
<polyline clip-path="url(#clip810)" style="stroke:#d52628; stroke-linecap:round; stroke-linejoin:round; stroke-width:4; stroke-opacity:1; fill:none" points="1816.35,353.42 1956.56,353.42 "/>
<path clip-path="url(#clip810)" d="M1991.87 359.954 Q1988.26 359.954 1986.43 363.519 Q1984.63 367.061 1984.63 374.19 Q1984.63 381.297 1986.43 384.862 Q1988.26 388.403 1991.87 388.403 Q1995.51 388.403 1997.31 384.862 Q1999.14 381.297 1999.14 374.19 Q1999.14 367.061 1997.31 363.519 Q1995.51 359.954 1991.87 359.954 M1991.87 356.251 Q1997.68 356.251 2000.74 360.857 Q2003.82 365.44 2003.82 374.19 Q2003.82 382.917 2000.74 387.524 Q1997.68 392.107 1991.87 392.107 Q1986.06 392.107 1982.98 387.524 Q1979.93 382.917 1979.93 374.19 Q1979.93 365.44 1982.98 360.857 Q1986.06 356.251 1991.87 356.251 Z" fill="#000000" fill-rule="nonzero" fill-opacity="1" /><path clip-path="url(#clip810)" d="M2012.04 385.556 L2016.92 385.556 L2016.92 391.436 L2012.04 391.436 L2012.04 385.556 Z" fill="#000000" fill-rule="nonzero" fill-opacity="1" /><path clip-path="url(#clip810)" d="M2031.13 387.501 L2047.45 387.501 L2047.45 391.436 L2025.51 391.436 L2025.51 387.501 Q2028.17 384.746 2032.75 380.116 Q2037.36 375.464 2038.54 374.121 Q2040.79 371.598 2041.67 369.862 Q2042.57 368.103 2042.57 366.413 Q2042.57 363.658 2040.62 361.922 Q2038.7 360.186 2035.6 360.186 Q2033.4 360.186 2030.95 360.95 Q2028.52 361.714 2025.74 363.265 L2025.74 358.542 Q2028.56 357.408 2031.02 356.829 Q2033.47 356.251 2035.51 356.251 Q2040.88 356.251 2044.07 358.936 Q2047.27 361.621 2047.27 366.112 Q2047.27 368.241 2046.46 370.163 Q2045.67 372.061 2043.56 374.653 Q2042.98 375.325 2039.88 378.542 Q2036.78 381.737 2031.13 387.501 Z" fill="#000000" fill-rule="nonzero" fill-opacity="1" /><path clip-path="url(#clip810)" d="M2067.27 375.024 Q2063.93 375.024 2062.01 376.806 Q2060.11 378.589 2060.11 381.714 Q2060.11 384.839 2062.01 386.621 Q2063.93 388.403 2067.27 388.403 Q2070.6 388.403 2072.52 386.621 Q2074.44 384.815 2074.44 381.714 Q2074.44 378.589 2072.52 376.806 Q2070.62 375.024 2067.27 375.024 M2062.59 373.033 Q2059.58 372.292 2057.89 370.232 Q2056.23 368.172 2056.23 365.209 Q2056.23 361.066 2059.17 358.658 Q2062.13 356.251 2067.27 356.251 Q2072.43 356.251 2075.37 358.658 Q2078.31 361.066 2078.31 365.209 Q2078.31 368.172 2076.62 370.232 Q2074.95 372.292 2071.97 373.033 Q2075.35 373.82 2077.22 376.112 Q2079.12 378.403 2079.12 381.714 Q2079.12 386.737 2076.04 389.422 Q2072.98 392.107 2067.27 392.107 Q2061.55 392.107 2058.47 389.422 Q2055.42 386.737 2055.42 381.714 Q2055.42 378.403 2057.31 376.112 Q2059.21 373.82 2062.59 373.033 M2060.88 365.649 Q2060.88 368.334 2062.54 369.839 Q2064.23 371.343 2067.27 371.343 Q2070.28 371.343 2071.97 369.839 Q2073.68 368.334 2073.68 365.649 Q2073.68 362.964 2071.97 361.459 Q2070.28 359.954 2067.27 359.954 Q2064.23 359.954 2062.54 361.459 Q2060.88 362.964 2060.88 365.649 Z" fill="#000000" fill-rule="nonzero" fill-opacity="1" /><path clip-path="url(#clip810)" d="M2088.24 387.501 L2095.88 387.501 L2095.88 361.135 L2087.57 362.802 L2087.57 358.542 L2095.83 356.876 L2100.51 356.876 L2100.51 387.501 L2108.15 387.501 L2108.15 391.436 L2088.24 391.436 L2088.24 387.501 Z" fill="#000000" fill-rule="nonzero" fill-opacity="1" /><path clip-path="url(#clip810)" d="M2127.59 375.024 Q2124.26 375.024 2122.34 376.806 Q2120.44 378.589 2120.44 381.714 Q2120.44 384.839 2122.34 386.621 Q2124.26 388.403 2127.59 388.403 Q2130.92 388.403 2132.85 386.621 Q2134.77 384.815 2134.77 381.714 Q2134.77 378.589 2132.85 376.806 Q2130.95 375.024 2127.59 375.024 M2122.91 373.033 Q2119.91 372.292 2118.22 370.232 Q2116.55 368.172 2116.55 365.209 Q2116.55 361.066 2119.49 358.658 Q2122.45 356.251 2127.59 356.251 Q2132.75 356.251 2135.69 358.658 Q2138.63 361.066 2138.63 365.209 Q2138.63 368.172 2136.94 370.232 Q2135.28 372.292 2132.29 373.033 Q2135.67 373.82 2137.54 376.112 Q2139.44 378.403 2139.44 381.714 Q2139.44 386.737 2136.36 389.422 Q2133.31 392.107 2127.59 392.107 Q2121.87 392.107 2118.79 389.422 Q2115.74 386.737 2115.74 381.714 Q2115.74 378.403 2117.64 376.112 Q2119.54 373.82 2122.91 373.033 M2121.2 365.649 Q2121.2 368.334 2122.87 369.839 Q2124.56 371.343 2127.59 371.343 Q2130.6 371.343 2132.29 369.839 Q2134 368.334 2134 365.649 Q2134 362.964 2132.29 361.459 Q2130.6 359.954 2127.59 359.954 Q2124.56 359.954 2122.87 361.459 Q2121.2 362.964 2121.2 365.649 Z" fill="#000000" fill-rule="nonzero" fill-opacity="1" /><path clip-path="url(#clip810)" d="M2161.92 372.802 Q2165.28 373.519 2167.15 375.788 Q2169.05 378.056 2169.05 381.389 Q2169.05 386.505 2165.53 389.306 Q2162.01 392.107 2155.53 392.107 Q2153.35 392.107 2151.04 391.667 Q2148.75 391.251 2146.29 390.394 L2146.29 385.88 Q2148.24 387.014 2150.55 387.593 Q2152.87 388.172 2155.39 388.172 Q2159.79 388.172 2162.08 386.436 Q2164.4 384.7 2164.4 381.389 Q2164.4 378.334 2162.24 376.621 Q2160.11 374.885 2156.29 374.885 L2152.27 374.885 L2152.27 371.042 L2156.48 371.042 Q2159.93 371.042 2161.76 369.677 Q2163.59 368.288 2163.59 365.695 Q2163.59 363.033 2161.69 361.621 Q2159.81 360.186 2156.29 360.186 Q2154.37 360.186 2152.17 360.603 Q2149.97 361.019 2147.34 361.899 L2147.34 357.732 Q2150 356.991 2152.31 356.621 Q2154.65 356.251 2156.71 356.251 Q2162.03 356.251 2165.14 358.681 Q2168.24 361.089 2168.24 365.209 Q2168.24 368.079 2166.6 370.07 Q2164.95 372.038 2161.92 372.802 Z" fill="#000000" fill-rule="nonzero" fill-opacity="1" /><path clip-path="url(#clip810)" d="M2187.91 375.024 Q2184.58 375.024 2182.66 376.806 Q2180.76 378.589 2180.76 381.714 Q2180.76 384.839 2182.66 386.621 Q2184.58 388.403 2187.91 388.403 Q2191.25 388.403 2193.17 386.621 Q2195.09 384.815 2195.09 381.714 Q2195.09 378.589 2193.17 376.806 Q2191.27 375.024 2187.91 375.024 M2183.24 373.033 Q2180.23 372.292 2178.54 370.232 Q2176.87 368.172 2176.87 365.209 Q2176.87 361.066 2179.81 358.658 Q2182.78 356.251 2187.91 356.251 Q2193.08 356.251 2196.02 358.658 Q2198.96 361.066 2198.96 365.209 Q2198.96 368.172 2197.27 370.232 Q2195.6 372.292 2192.61 373.033 Q2195.99 373.82 2197.87 376.112 Q2199.77 378.403 2199.77 381.714 Q2199.77 386.737 2196.69 389.422 Q2193.63 392.107 2187.91 392.107 Q2182.2 392.107 2179.12 389.422 Q2176.06 386.737 2176.06 381.714 Q2176.06 378.403 2177.96 376.112 Q2179.86 373.82 2183.24 373.033 M2181.53 365.649 Q2181.53 368.334 2183.19 369.839 Q2184.88 371.343 2187.91 371.343 Q2190.92 371.343 2192.61 369.839 Q2194.33 368.334 2194.33 365.649 Q2194.33 362.964 2192.61 361.459 Q2190.92 359.954 2187.91 359.954 Q2184.88 359.954 2183.19 361.459 Q2181.53 362.964 2181.53 365.649 Z" fill="#000000" fill-rule="nonzero" fill-opacity="1" /><path clip-path="url(#clip810)" d="M1816.35 446.732 L1956.56 446.732 L1956.56 405.26 L1816.35 405.26 L1816.35 446.732  Z" fill="#9466bd" fill-rule="evenodd" fill-opacity="0.45"/>
<polyline clip-path="url(#clip810)" style="stroke:#9466bd; stroke-linecap:round; stroke-linejoin:round; stroke-width:4; stroke-opacity:1; fill:none" points="1816.35,405.26 1956.56,405.26 "/>
<path clip-path="url(#clip810)" d="M1980.6 439.341 L1988.24 439.341 L1988.24 412.975 L1979.93 414.642 L1979.93 410.382 L1988.19 408.716 L1992.87 408.716 L1992.87 439.341 L2000.51 439.341 L2000.51 443.276 L1980.6 443.276 L1980.6 439.341 Z" fill="#000000" fill-rule="nonzero" fill-opacity="1" /></svg>
