<?xml version="1.0" encoding="utf-8"?>
<svg xmlns="http://www.w3.org/2000/svg" xmlns:xlink="http://www.w3.org/1999/xlink" width="600" height="400" viewBox="0 0 2400 1600">
<defs>
  <clipPath id="clip230">
    <rect x="0" y="0" width="2400" height="1600"/>
  </clipPath>
</defs>
<path clip-path="url(#clip230)" d="M0 1600 L2400 1600 L2400 0 L0 0  Z" fill="#ffffff" fill-rule="evenodd" fill-opacity="1"/>
<defs>
  <clipPath id="clip231">
    <rect x="480" y="0" width="1681" height="1600"/>
  </clipPath>
</defs>
<path clip-path="url(#clip230)" d="M250.028 1423.18 L2352.76 1423.18 L2352.76 123.472 L250.028 123.472  Z" fill="#ffffff" fill-rule="evenodd" fill-opacity="1"/>
<defs>
  <clipPath id="clip232">
    <rect x="250" y="123" width="2104" height="1301"/>
  </clipPath>
</defs>
<polyline clip-path="url(#clip232)" style="stroke:#000000; stroke-linecap:round; stroke-linejoin:round; stroke-width:2; stroke-opacity:0.1; fill:none" points="618.547,1423.18 618.547,123.472 "/>
<polyline clip-path="url(#clip232)" style="stroke:#000000; stroke-linecap:round; stroke-linejoin:round; stroke-width:2; stroke-opacity:0.1; fill:none" points="1052.1,1423.18 1052.1,123.472 "/>
<polyline clip-path="url(#clip232)" style="stroke:#000000; stroke-linecap:round; stroke-linejoin:round; stroke-width:2; stroke-opacity:0.1; fill:none" points="1485.65,1423.18 1485.65,123.472 "/>
<polyline clip-path="url(#clip232)" style="stroke:#000000; stroke-linecap:round; stroke-linejoin:round; stroke-width:2; stroke-opacity:0.1; fill:none" points="1919.2,1423.18 1919.2,123.472 "/>
<polyline clip-path="url(#clip230)" style="stroke:#000000; stroke-linecap:round; stroke-linejoin:round; stroke-width:4; stroke-opacity:1; fill:none" points="250.028,1423.18 2352.76,1423.18 "/>
<polyline clip-path="url(#clip230)" style="stroke:#000000; stroke-linecap:round; stroke-linejoin:round; stroke-width:4; stroke-opacity:1; fill:none" points="618.547,1423.18 618.547,1404.28 "/>
<polyline clip-path="url(#clip230)" style="stroke:#000000; stroke-linecap:round; stroke-linejoin:round; stroke-width:4; stroke-opacity:1; fill:none" points="1052.1,1423.18 1052.1,1404.28 "/>
<polyline clip-path="url(#clip230)" style="stroke:#000000; stroke-linecap:round; stroke-linejoin:round; stroke-width:4; stroke-opacity:1; fill:none" points="1485.65,1423.18 1485.65,1404.28 "/>
<polyline clip-path="url(#clip230)" style="stroke:#000000; stroke-linecap:round; stroke-linejoin:round; stroke-width:4; stroke-opacity:1; fill:none" points="1919.2,1423.18 1919.2,1404.28 "/>
<path clip-path="url(#clip230)" d="M581.649 1454.1 Q578.038 1454.1 576.21 1457.66 Q574.404 1461.2 574.404 1468.33 Q574.404 1475.44 576.21 1479.01 Q578.038 1482.55 581.649 1482.55 Q585.284 1482.55 587.089 1479.01 Q588.918 1475.44 588.918 1468.33 Q588.918 1461.2 587.089 1457.66 Q585.284 1454.1 581.649 1454.1 M581.649 1450.39 Q587.46 1450.39 590.515 1455 Q593.594 1459.58 593.594 1468.33 Q593.594 1477.06 590.515 1481.67 Q587.46 1486.25 581.649 1486.25 Q575.839 1486.25 572.761 1481.67 Q569.705 1477.06 569.705 1468.33 Q569.705 1459.58 572.761 1455 Q575.839 1450.39 581.649 1450.39 Z" fill="#000000" fill-rule="nonzero" fill-opacity="1" /><path clip-path="url(#clip230)" d="M601.811 1479.7 L606.696 1479.7 L606.696 1485.58 L601.811 1485.58 L601.811 1479.7 Z" fill="#000000" fill-rule="nonzero" fill-opacity="1" /><path clip-path="url(#clip230)" d="M626.881 1454.1 Q623.27 1454.1 621.441 1457.66 Q619.635 1461.2 619.635 1468.33 Q619.635 1475.44 621.441 1479.01 Q623.27 1482.55 626.881 1482.55 Q630.515 1482.55 632.321 1479.01 Q634.149 1475.44 634.149 1468.33 Q634.149 1461.2 632.321 1457.66 Q630.515 1454.1 626.881 1454.1 M626.881 1450.39 Q632.691 1450.39 635.746 1455 Q638.825 1459.58 638.825 1468.33 Q638.825 1477.06 635.746 1481.67 Q632.691 1486.25 626.881 1486.25 Q621.071 1486.25 617.992 1481.67 Q614.936 1477.06 614.936 1468.33 Q614.936 1459.58 617.992 1455 Q621.071 1450.39 626.881 1450.39 Z" fill="#000000" fill-rule="nonzero" fill-opacity="1" /><path clip-path="url(#clip230)" d="M651.07 1481.64 L667.39 1481.64 L667.39 1485.58 L645.445 1485.58 L645.445 1481.64 Q648.107 1478.89 652.691 1474.26 Q657.297 1469.61 658.478 1468.27 Q660.723 1465.74 661.603 1464.01 Q662.506 1462.25 662.506 1460.56 Q662.506 1457.8 660.561 1456.07 Q658.64 1454.33 655.538 1454.33 Q653.339 1454.33 650.885 1455.09 Q648.455 1455.86 645.677 1457.41 L645.677 1452.69 Q648.501 1451.55 650.955 1450.97 Q653.408 1450.39 655.445 1450.39 Q660.816 1450.39 664.01 1453.08 Q667.205 1455.77 667.205 1460.26 Q667.205 1462.39 666.394 1464.31 Q665.607 1466.2 663.501 1468.8 Q662.922 1469.47 659.82 1472.69 Q656.719 1475.88 651.07 1481.64 Z" fill="#000000" fill-rule="nonzero" fill-opacity="1" /><path clip-path="url(#clip230)" d="M1014.16 1454.1 Q1010.55 1454.1 1008.72 1457.66 Q1006.91 1461.2 1006.91 1468.33 Q1006.91 1475.44 1008.72 1479.01 Q1010.55 1482.55 1014.16 1482.55 Q1017.79 1482.55 1019.6 1479.01 Q1021.43 1475.44 1021.43 1468.33 Q1021.43 1461.2 1019.6 1457.66 Q1017.79 1454.1 1014.16 1454.1 M1014.16 1450.39 Q1019.97 1450.39 1023.03 1455 Q1026.1 1459.58 1026.1 1468.33 Q1026.1 1477.06 1023.03 1481.67 Q1019.97 1486.25 1014.16 1486.25 Q1008.35 1486.25 1005.27 1481.67 Q1002.22 1477.06 1002.22 1468.33 Q1002.22 1459.58 1005.27 1455 Q1008.35 1450.39 1014.16 1450.39 Z" fill="#000000" fill-rule="nonzero" fill-opacity="1" /><path clip-path="url(#clip230)" d="M1034.32 1479.7 L1039.21 1479.7 L1039.21 1485.58 L1034.32 1485.58 L1034.32 1479.7 Z" fill="#000000" fill-rule="nonzero" fill-opacity="1" /><path clip-path="url(#clip230)" d="M1059.39 1454.1 Q1055.78 1454.1 1053.95 1457.66 Q1052.15 1461.2 1052.15 1468.33 Q1052.15 1475.44 1053.95 1479.01 Q1055.78 1482.55 1059.39 1482.55 Q1063.03 1482.55 1064.83 1479.01 Q1066.66 1475.44 1066.66 1468.33 Q1066.66 1461.2 1064.83 1457.66 Q1063.03 1454.1 1059.39 1454.1 M1059.39 1450.39 Q1065.2 1450.39 1068.26 1455 Q1071.34 1459.58 1071.34 1468.33 Q1071.34 1477.06 1068.26 1481.67 Q1065.2 1486.25 1059.39 1486.25 Q1053.58 1486.25 1050.5 1481.67 Q1047.45 1477.06 1047.45 1468.33 Q1047.45 1459.58 1050.5 1455 Q1053.58 1450.39 1059.39 1450.39 Z" fill="#000000" fill-rule="nonzero" fill-opacity="1" /><path clip-path="url(#clip230)" d="M1092.4 1455.09 L1080.59 1473.54 L1092.4 1473.54 L1092.4 1455.09 M1091.17 1451.02 L1097.05 1451.02 L1097.05 1473.54 L1101.98 1473.54 L1101.98 1477.43 L1097.05 1477.43 L1097.05 1485.58 L1092.4 1485.58 L1092.4 1477.43 L1076.8 1477.43 L1076.8 1472.92 L1091.17 1451.02 Z" fill="#000000" fill-rule="nonzero" fill-opacity="1" /><path clip-path="url(#clip230)" d="M1447.87 1454.1 Q1444.26 1454.1 1442.43 1457.66 Q1440.63 1461.2 1440.63 1468.33 Q1440.63 1475.44 1442.43 1479.01 Q1444.26 1482.55 1447.87 1482.55 Q1451.51 1482.55 1453.31 1479.01 Q1455.14 1475.44 1455.14 1468.33 Q1455.14 1461.2 1453.31 1457.66 Q1451.51 1454.1 1447.87 1454.1 M1447.87 1450.39 Q1453.68 1450.39 1456.74 1455 Q1459.82 1459.58 1459.82 1468.33 Q1459.82 1477.06 1456.74 1481.67 Q1453.68 1486.25 1447.87 1486.25 Q1442.06 1486.25 1438.99 1481.67 Q1435.93 1477.06 1435.93 1468.33 Q1435.93 1459.58 1438.99 1455 Q1442.06 1450.39 1447.87 1450.39 Z" fill="#000000" fill-rule="nonzero" fill-opacity="1" /><path clip-path="url(#clip230)" d="M1468.04 1479.7 L1472.92 1479.7 L1472.92 1485.58 L1468.04 1485.58 L1468.04 1479.7 Z" fill="#000000" fill-rule="nonzero" fill-opacity="1" /><path clip-path="url(#clip230)" d="M1493.11 1454.1 Q1489.49 1454.1 1487.67 1457.66 Q1485.86 1461.2 1485.86 1468.33 Q1485.86 1475.44 1487.67 1479.01 Q1489.49 1482.55 1493.11 1482.55 Q1496.74 1482.55 1498.55 1479.01 Q1500.37 1475.44 1500.37 1468.33 Q1500.37 1461.2 1498.55 1457.66 Q1496.74 1454.1 1493.11 1454.1 M1493.11 1450.39 Q1498.92 1450.39 1501.97 1455 Q1505.05 1459.58 1505.05 1468.33 Q1505.05 1477.06 1501.97 1481.67 Q1498.92 1486.25 1493.11 1486.25 Q1487.3 1486.25 1484.22 1481.67 Q1481.16 1477.06 1481.16 1468.33 Q1481.16 1459.58 1484.22 1455 Q1487.3 1450.39 1493.11 1450.39 Z" fill="#000000" fill-rule="nonzero" fill-opacity="1" /><path clip-path="url(#clip230)" d="M1523.85 1466.44 Q1520.7 1466.44 1518.85 1468.59 Q1517.02 1470.74 1517.02 1474.49 Q1517.02 1478.22 1518.85 1480.39 Q1520.7 1482.55 1523.85 1482.55 Q1526.99 1482.55 1528.82 1480.39 Q1530.67 1478.22 1530.67 1474.49 Q1530.67 1470.74 1528.82 1468.59 Q1526.99 1466.44 1523.85 1466.44 M1533.13 1451.78 L1533.13 1456.04 Q1531.37 1455.21 1529.56 1454.77 Q1527.78 1454.33 1526.02 1454.33 Q1521.39 1454.33 1518.94 1457.45 Q1516.51 1460.58 1516.16 1466.9 Q1517.53 1464.89 1519.59 1463.82 Q1521.65 1462.73 1524.12 1462.73 Q1529.33 1462.73 1532.34 1465.9 Q1535.37 1469.05 1535.37 1474.49 Q1535.37 1479.82 1532.23 1483.03 Q1529.08 1486.25 1523.85 1486.25 Q1517.85 1486.25 1514.68 1481.67 Q1511.51 1477.06 1511.51 1468.33 Q1511.51 1460.14 1515.4 1455.28 Q1519.29 1450.39 1525.84 1450.39 Q1527.6 1450.39 1529.38 1450.74 Q1531.18 1451.09 1533.13 1451.78 Z" fill="#000000" fill-rule="nonzero" fill-opacity="1" /><path clip-path="url(#clip230)" d="M1881.55 1454.1 Q1877.94 1454.1 1876.11 1457.66 Q1874.31 1461.2 1874.31 1468.33 Q1874.31 1475.44 1876.11 1479.01 Q1877.94 1482.55 1881.55 1482.55 Q1885.19 1482.55 1886.99 1479.01 Q1888.82 1475.44 1888.82 1468.33 Q1888.82 1461.2 1886.99 1457.66 Q1885.19 1454.1 1881.55 1454.1 M1881.55 1450.39 Q1887.36 1450.39 1890.42 1455 Q1893.5 1459.58 1893.5 1468.33 Q1893.5 1477.06 1890.42 1481.67 Q1887.36 1486.25 1881.55 1486.25 Q1875.74 1486.25 1872.66 1481.67 Q1869.61 1477.06 1869.61 1468.33 Q1869.61 1459.58 1872.66 1455 Q1875.74 1450.39 1881.55 1450.39 Z" fill="#000000" fill-rule="nonzero" fill-opacity="1" /><path clip-path="url(#clip230)" d="M1901.72 1479.7 L1906.6 1479.7 L1906.6 1485.58 L1901.72 1485.58 L1901.72 1479.7 Z" fill="#000000" fill-rule="nonzero" fill-opacity="1" /><path clip-path="url(#clip230)" d="M1926.78 1454.1 Q1923.17 1454.1 1921.34 1457.66 Q1919.54 1461.2 1919.54 1468.33 Q1919.54 1475.44 1921.34 1479.01 Q1923.17 1482.55 1926.78 1482.55 Q1930.42 1482.55 1932.22 1479.01 Q1934.05 1475.44 1934.05 1468.33 Q1934.05 1461.2 1932.22 1457.66 Q1930.42 1454.1 1926.78 1454.1 M1926.78 1450.39 Q1932.59 1450.39 1935.65 1455 Q1938.73 1459.58 1938.73 1468.33 Q1938.73 1477.06 1935.65 1481.67 Q1932.59 1486.25 1926.78 1486.25 Q1920.97 1486.25 1917.9 1481.67 Q1914.84 1477.06 1914.84 1468.33 Q1914.84 1459.58 1917.9 1455 Q1920.97 1450.39 1926.78 1450.39 Z" fill="#000000" fill-rule="nonzero" fill-opacity="1" /><path clip-path="url(#clip230)" d="M1956.95 1469.17 Q1953.61 1469.17 1951.69 1470.95 Q1949.79 1472.73 1949.79 1475.86 Q1949.79 1478.98 1951.69 1480.77 Q1953.61 1482.55 1956.95 1482.55 Q1960.28 1482.55 1962.2 1480.77 Q1964.12 1478.96 1964.12 1475.86 Q1964.12 1472.73 1962.2 1470.95 Q1960.3 1469.17 1956.95 1469.17 M1952.27 1467.18 Q1949.26 1466.44 1947.57 1464.38 Q1945.91 1462.32 1945.91 1459.35 Q1945.91 1455.21 1948.84 1452.8 Q1951.81 1450.39 1956.95 1450.39 Q1962.11 1450.39 1965.05 1452.8 Q1967.99 1455.21 1967.99 1459.35 Q1967.99 1462.32 1966.3 1464.38 Q1964.63 1466.44 1961.65 1467.18 Q1965.03 1467.96 1966.9 1470.26 Q1968.8 1472.55 1968.8 1475.86 Q1968.8 1480.88 1965.72 1483.57 Q1962.66 1486.25 1956.95 1486.25 Q1951.23 1486.25 1948.15 1483.57 Q1945.09 1480.88 1945.09 1475.86 Q1945.09 1472.55 1946.99 1470.26 Q1948.89 1467.96 1952.27 1467.18 M1950.56 1459.79 Q1950.56 1462.48 1952.22 1463.98 Q1953.91 1465.49 1956.95 1465.49 Q1959.96 1465.49 1961.65 1463.98 Q1963.36 1462.48 1963.36 1459.79 Q1963.36 1457.11 1961.65 1455.6 Q1959.96 1454.1 1956.95 1454.1 Q1953.91 1454.1 1952.22 1455.6 Q1950.56 1457.11 1950.56 1459.79 Z" fill="#000000" fill-rule="nonzero" fill-opacity="1" /><path clip-path="url(#clip230)" d="M1258.53 1518.52 L1264.42 1518.52 L1264.42 1547.77 L1281.9 1532.4 L1289.38 1532.4 L1270.47 1549.07 L1290.17 1568.04 L1282.53 1568.04 L1264.42 1550.63 L1264.42 1568.04 L1258.53 1568.04 L1258.53 1518.52 Z" fill="#000000" fill-rule="nonzero" fill-opacity="1" /><path clip-path="url(#clip230)" d="M1296.51 1532.4 L1302.36 1532.4 L1302.36 1568.04 L1296.51 1568.04 L1296.51 1532.4 M1296.51 1518.52 L1302.36 1518.52 L1302.36 1525.93 L1296.51 1525.93 L1296.51 1518.52 Z" fill="#000000" fill-rule="nonzero" fill-opacity="1" /><path clip-path="url(#clip230)" d="M1344.25 1546.53 L1344.25 1568.04 L1338.39 1568.04 L1338.39 1546.72 Q1338.39 1541.66 1336.42 1539.14 Q1334.45 1536.63 1330.5 1536.63 Q1325.76 1536.63 1323.02 1539.65 Q1320.28 1542.68 1320.28 1547.9 L1320.28 1568.04 L1314.39 1568.04 L1314.39 1532.4 L1320.28 1532.4 L1320.28 1537.93 Q1322.38 1534.72 1325.22 1533.13 Q1328.08 1531.54 1331.8 1531.54 Q1337.95 1531.54 1341.1 1535.36 Q1344.25 1539.14 1344.25 1546.53 Z" fill="#000000" fill-rule="nonzero" fill-opacity="1" /><polyline clip-path="url(#clip232)" style="stroke:#000000; stroke-linecap:round; stroke-linejoin:round; stroke-width:2; stroke-opacity:0.1; fill:none" points="250.028,1123.25 2352.76,1123.25 "/>
<polyline clip-path="url(#clip232)" style="stroke:#000000; stroke-linecap:round; stroke-linejoin:round; stroke-width:2; stroke-opacity:0.1; fill:none" points="250.028,789.989 2352.76,789.989 "/>
<polyline clip-path="url(#clip232)" style="stroke:#000000; stroke-linecap:round; stroke-linejoin:round; stroke-width:2; stroke-opacity:0.1; fill:none" points="250.028,456.731 2352.76,456.731 "/>
<polyline clip-path="url(#clip232)" style="stroke:#000000; stroke-linecap:round; stroke-linejoin:round; stroke-width:2; stroke-opacity:0.1; fill:none" points="250.028,123.472 2352.76,123.472 "/>
<polyline clip-path="url(#clip230)" style="stroke:#000000; stroke-linecap:round; stroke-linejoin:round; stroke-width:4; stroke-opacity:1; fill:none" points="250.028,1423.18 250.028,123.472 "/>
<polyline clip-path="url(#clip230)" style="stroke:#000000; stroke-linecap:round; stroke-linejoin:round; stroke-width:4; stroke-opacity:1; fill:none" points="250.028,1123.25 268.926,1123.25 "/>
<polyline clip-path="url(#clip230)" style="stroke:#000000; stroke-linecap:round; stroke-linejoin:round; stroke-width:4; stroke-opacity:1; fill:none" points="250.028,789.989 268.926,789.989 "/>
<polyline clip-path="url(#clip230)" style="stroke:#000000; stroke-linecap:round; stroke-linejoin:round; stroke-width:4; stroke-opacity:1; fill:none" points="250.028,456.731 268.926,456.731 "/>
<polyline clip-path="url(#clip230)" style="stroke:#000000; stroke-linecap:round; stroke-linejoin:round; stroke-width:4; stroke-opacity:1; fill:none" points="250.028,123.472 268.926,123.472 "/>
<path clip-path="url(#clip230)" d="M127.917 1109.05 Q124.306 1109.05 122.478 1112.61 Q120.672 1116.15 120.672 1123.28 Q120.672 1130.39 122.478 1133.95 Q124.306 1137.49 127.917 1137.49 Q131.552 1137.49 133.357 1133.95 Q135.186 1130.39 135.186 1123.28 Q135.186 1116.15 133.357 1112.61 Q131.552 1109.05 127.917 1109.05 M127.917 1105.34 Q133.728 1105.34 136.783 1109.95 Q139.862 1114.53 139.862 1123.28 Q139.862 1132.01 136.783 1136.62 Q133.728 1141.2 127.917 1141.2 Q122.107 1141.2 119.029 1136.62 Q115.973 1132.01 115.973 1123.28 Q115.973 1114.53 119.029 1109.95 Q122.107 1105.34 127.917 1105.34 Z" fill="#000000" fill-rule="nonzero" fill-opacity="1" /><path clip-path="url(#clip230)" d="M148.079 1134.65 L152.964 1134.65 L152.964 1140.53 L148.079 1140.53 L148.079 1134.65 Z" fill="#000000" fill-rule="nonzero" fill-opacity="1" /><path clip-path="url(#clip230)" d="M173.149 1109.05 Q169.538 1109.05 167.709 1112.61 Q165.903 1116.15 165.903 1123.28 Q165.903 1130.39 167.709 1133.95 Q169.538 1137.49 173.149 1137.49 Q176.783 1137.49 178.589 1133.95 Q180.417 1130.39 180.417 1123.28 Q180.417 1116.15 178.589 1112.61 Q176.783 1109.05 173.149 1109.05 M173.149 1105.34 Q178.959 1105.34 182.014 1109.95 Q185.093 1114.53 185.093 1123.28 Q185.093 1132.01 182.014 1136.62 Q178.959 1141.2 173.149 1141.2 Q167.339 1141.2 164.26 1136.62 Q161.204 1132.01 161.204 1123.28 Q161.204 1114.53 164.26 1109.95 Q167.339 1105.34 173.149 1105.34 Z" fill="#000000" fill-rule="nonzero" fill-opacity="1" /><path clip-path="url(#clip230)" d="M194.121 1136.59 L201.76 1136.59 L201.76 1110.23 L193.45 1111.89 L193.45 1107.63 L201.713 1105.97 L206.389 1105.97 L206.389 1136.59 L214.028 1136.59 L214.028 1140.53 L194.121 1140.53 L194.121 1136.59 Z" fill="#000000" fill-rule="nonzero" fill-opacity="1" /><path clip-path="url(#clip230)" d="M128.288 775.788 Q124.677 775.788 122.848 779.352 Q121.043 782.894 121.043 790.024 Q121.043 797.13 122.848 800.695 Q124.677 804.237 128.288 804.237 Q131.922 804.237 133.728 800.695 Q135.556 797.13 135.556 790.024 Q135.556 782.894 133.728 779.352 Q131.922 775.788 128.288 775.788 M128.288 772.084 Q134.098 772.084 137.154 776.69 Q140.232 781.274 140.232 790.024 Q140.232 798.75 137.154 803.357 Q134.098 807.94 128.288 807.94 Q122.478 807.94 119.399 803.357 Q116.343 798.75 116.343 790.024 Q116.343 781.274 119.399 776.69 Q122.478 772.084 128.288 772.084 Z" fill="#000000" fill-rule="nonzero" fill-opacity="1" /><path clip-path="url(#clip230)" d="M148.45 801.389 L153.334 801.389 L153.334 807.269 L148.45 807.269 L148.45 801.389 Z" fill="#000000" fill-rule="nonzero" fill-opacity="1" /><path clip-path="url(#clip230)" d="M173.519 775.788 Q169.908 775.788 168.079 779.352 Q166.274 782.894 166.274 790.024 Q166.274 797.13 168.079 800.695 Q169.908 804.237 173.519 804.237 Q177.153 804.237 178.959 800.695 Q180.788 797.13 180.788 790.024 Q180.788 782.894 178.959 779.352 Q177.153 775.788 173.519 775.788 M173.519 772.084 Q179.329 772.084 182.385 776.69 Q185.463 781.274 185.463 790.024 Q185.463 798.75 182.385 803.357 Q179.329 807.94 173.519 807.94 Q167.709 807.94 164.63 803.357 Q161.575 798.75 161.575 790.024 Q161.575 781.274 164.63 776.69 Q167.709 772.084 173.519 772.084 Z" fill="#000000" fill-rule="nonzero" fill-opacity="1" /><path clip-path="url(#clip230)" d="M197.709 803.334 L214.028 803.334 L214.028 807.269 L192.084 807.269 L192.084 803.334 Q194.746 800.579 199.329 795.95 Q203.936 791.297 205.116 789.954 Q207.362 787.431 208.241 785.695 Q209.144 783.936 209.144 782.246 Q209.144 779.491 207.199 777.755 Q205.278 776.019 202.176 776.019 Q199.977 776.019 197.524 776.783 Q195.093 777.547 192.315 779.098 L192.315 774.376 Q195.139 773.241 197.593 772.663 Q200.047 772.084 202.084 772.084 Q207.454 772.084 210.649 774.769 Q213.843 777.454 213.843 781.945 Q213.843 784.075 213.033 785.996 Q212.246 787.894 210.139 790.487 Q209.561 791.158 206.459 794.375 Q203.357 797.57 197.709 803.334 Z" fill="#000000" fill-rule="nonzero" fill-opacity="1" /><path clip-path="url(#clip230)" d="M127.339 442.529 Q123.728 442.529 121.899 446.094 Q120.093 449.636 120.093 456.765 Q120.093 463.872 121.899 467.436 Q123.728 470.978 127.339 470.978 Q130.973 470.978 132.779 467.436 Q134.607 463.872 134.607 456.765 Q134.607 449.636 132.779 446.094 Q130.973 442.529 127.339 442.529 M127.339 438.826 Q133.149 438.826 136.204 443.432 Q139.283 448.015 139.283 456.765 Q139.283 465.492 136.204 470.098 Q133.149 474.682 127.339 474.682 Q121.529 474.682 118.45 470.098 Q115.394 465.492 115.394 456.765 Q115.394 448.015 118.45 443.432 Q121.529 438.826 127.339 438.826 Z" fill="#000000" fill-rule="nonzero" fill-opacity="1" /><path clip-path="url(#clip230)" d="M147.501 468.131 L152.385 468.131 L152.385 474.011 L147.501 474.011 L147.501 468.131 Z" fill="#000000" fill-rule="nonzero" fill-opacity="1" /><path clip-path="url(#clip230)" d="M172.57 442.529 Q168.959 442.529 167.13 446.094 Q165.325 449.636 165.325 456.765 Q165.325 463.872 167.13 467.436 Q168.959 470.978 172.57 470.978 Q176.204 470.978 178.01 467.436 Q179.839 463.872 179.839 456.765 Q179.839 449.636 178.01 446.094 Q176.204 442.529 172.57 442.529 M172.57 438.826 Q178.38 438.826 181.436 443.432 Q184.514 448.015 184.514 456.765 Q184.514 465.492 181.436 470.098 Q178.38 474.682 172.57 474.682 Q166.76 474.682 163.681 470.098 Q160.626 465.492 160.626 456.765 Q160.626 448.015 163.681 443.432 Q166.76 438.826 172.57 438.826 Z" fill="#000000" fill-rule="nonzero" fill-opacity="1" /><path clip-path="url(#clip230)" d="M206.899 455.376 Q210.255 456.094 212.13 458.362 Q214.028 460.631 214.028 463.964 Q214.028 469.08 210.51 471.881 Q206.991 474.682 200.51 474.682 Q198.334 474.682 196.019 474.242 Q193.727 473.825 191.274 472.969 L191.274 468.455 Q193.218 469.589 195.533 470.168 Q197.848 470.747 200.371 470.747 Q204.769 470.747 207.061 469.011 Q209.375 467.274 209.375 463.964 Q209.375 460.909 207.223 459.196 Q205.093 457.46 201.274 457.46 L197.246 457.46 L197.246 453.617 L201.459 453.617 Q204.908 453.617 206.737 452.251 Q208.565 450.862 208.565 448.27 Q208.565 445.608 206.667 444.196 Q204.792 442.761 201.274 442.761 Q199.352 442.761 197.153 443.177 Q194.954 443.594 192.315 444.474 L192.315 440.307 Q194.977 439.566 197.292 439.196 Q199.63 438.826 201.69 438.826 Q207.014 438.826 210.116 441.256 Q213.218 443.663 213.218 447.784 Q213.218 450.654 211.574 452.645 Q209.931 454.612 206.899 455.376 Z" fill="#000000" fill-rule="nonzero" fill-opacity="1" /><path clip-path="url(#clip230)" d="M126.205 109.271 Q122.593 109.271 120.765 112.836 Q118.959 116.377 118.959 123.507 Q118.959 130.613 120.765 134.178 Q122.593 137.72 126.205 137.72 Q129.839 137.72 131.644 134.178 Q133.473 130.613 133.473 123.507 Q133.473 116.377 131.644 112.836 Q129.839 109.271 126.205 109.271 M126.205 105.567 Q132.015 105.567 135.07 110.174 Q138.149 114.757 138.149 123.507 Q138.149 132.234 135.07 136.84 Q132.015 141.423 126.205 141.423 Q120.394 141.423 117.316 136.84 Q114.26 132.234 114.26 123.507 Q114.26 114.757 117.316 110.174 Q120.394 105.567 126.205 105.567 Z" fill="#000000" fill-rule="nonzero" fill-opacity="1" /><path clip-path="url(#clip230)" d="M146.366 134.873 L151.251 134.873 L151.251 140.752 L146.366 140.752 L146.366 134.873 Z" fill="#000000" fill-rule="nonzero" fill-opacity="1" /><path clip-path="url(#clip230)" d="M171.436 109.271 Q167.825 109.271 165.996 112.836 Q164.19 116.377 164.19 123.507 Q164.19 130.613 165.996 134.178 Q167.825 137.72 171.436 137.72 Q175.07 137.72 176.876 134.178 Q178.704 130.613 178.704 123.507 Q178.704 116.377 176.876 112.836 Q175.07 109.271 171.436 109.271 M171.436 105.567 Q177.246 105.567 180.301 110.174 Q183.38 114.757 183.38 123.507 Q183.38 132.234 180.301 136.84 Q177.246 141.423 171.436 141.423 Q165.626 141.423 162.547 136.84 Q159.491 132.234 159.491 123.507 Q159.491 114.757 162.547 110.174 Q165.626 105.567 171.436 105.567 Z" fill="#000000" fill-rule="nonzero" fill-opacity="1" /><path clip-path="url(#clip230)" d="M204.445 110.266 L192.639 128.715 L204.445 128.715 L204.445 110.266 M203.218 106.192 L209.098 106.192 L209.098 128.715 L214.028 128.715 L214.028 132.604 L209.098 132.604 L209.098 140.752 L204.445 140.752 L204.445 132.604 L188.843 132.604 L188.843 128.09 L203.218 106.192 Z" fill="#000000" fill-rule="nonzero" fill-opacity="1" /><path clip-path="url(#clip230)" d="M20.049 772.435 L64.0042 755.979 L64.0042 762.186 L37.6501 772.18 L64.0042 784.466 L64.0042 790.673 L29.8203 775.045 L23.5183 777.4 Q19.5079 778.896 19.5079 782.302 L19.5079 785.357 L14.479 785.357 L14.5426 781.633 Q14.6381 774.44 20.049 772.435 Z" fill="#000000" fill-rule="nonzero" fill-opacity="1" /><path clip-path="url(#clip230)" d="M693.675 28.9478 L693.675 35.9153 Q690.516 34.1734 687.315 33.3227 Q684.156 32.4315 680.915 32.4315 Q673.664 32.4315 669.654 37.0496 Q665.643 41.6271 665.643 49.9314 Q665.643 58.2358 669.654 62.8538 Q673.664 67.4314 680.915 67.4314 Q684.156 67.4314 687.315 66.5807 Q690.516 65.6895 693.675 63.9476 L693.675 70.8341 Q690.556 72.2924 687.194 73.0216 Q683.872 73.7508 680.105 73.7508 Q669.856 73.7508 663.82 67.3098 Q657.784 60.8689 657.784 49.9314 Q657.784 38.832 663.861 32.472 Q669.978 26.1121 680.591 26.1121 Q684.034 26.1121 687.315 26.8413 Q690.597 27.5299 693.675 28.9478 Z" fill="#000000" fill-rule="nonzero" fill-opacity="1" /><path clip-path="url(#clip230)" d="M744.352 45.1919 L744.352 72.576 L736.899 72.576 L736.899 45.4349 Q736.899 38.994 734.387 35.7938 Q731.875 32.5936 726.852 32.5936 Q720.816 32.5936 717.333 36.4419 Q713.849 40.2903 713.849 46.9338 L713.849 72.576 L706.355 72.576 L706.355 9.54393 L713.849 9.54393 L713.849 34.2544 Q716.522 30.163 720.128 28.1376 Q723.774 26.1121 728.513 26.1121 Q736.331 26.1121 740.342 30.9732 Q744.352 35.7938 744.352 45.1919 Z" fill="#000000" fill-rule="nonzero" fill-opacity="1" /><path clip-path="url(#clip230)" d="M779.838 49.7694 Q770.805 49.7694 767.321 51.8354 Q763.837 53.9013 763.837 58.8839 Q763.837 62.8538 766.43 65.2034 Q769.063 67.5124 773.559 67.5124 Q779.757 67.5124 783.484 63.1374 Q787.251 58.7219 787.251 51.4303 L787.251 49.7694 L779.838 49.7694 M794.705 46.6907 L794.705 72.576 L787.251 72.576 L787.251 65.6895 Q784.699 69.8214 780.891 71.8063 Q777.083 73.7508 771.574 73.7508 Q764.607 73.7508 760.475 69.8619 Q756.383 65.9325 756.383 59.3701 Q756.383 51.7138 761.488 47.825 Q766.632 43.9361 776.8 43.9361 L787.251 43.9361 L787.251 43.2069 Q787.251 38.0623 783.849 35.2672 Q780.486 32.4315 774.369 32.4315 Q770.481 32.4315 766.794 33.3632 Q763.108 34.295 759.705 36.1584 L759.705 29.2718 Q763.797 27.692 767.645 26.9223 Q771.493 26.1121 775.139 26.1121 Q784.983 26.1121 789.844 31.2163 Q794.705 36.3204 794.705 46.6907 Z" fill="#000000" fill-rule="nonzero" fill-opacity="1" /><path clip-path="url(#clip230)" d="M847.772 45.1919 L847.772 72.576 L840.318 72.576 L840.318 45.4349 Q840.318 38.994 837.807 35.7938 Q835.295 32.5936 830.272 32.5936 Q824.236 32.5936 820.752 36.4419 Q817.268 40.2903 817.268 46.9338 L817.268 72.576 L809.774 72.576 L809.774 27.2059 L817.268 27.2059 L817.268 34.2544 Q819.942 30.163 823.547 28.1376 Q827.193 26.1121 831.933 26.1121 Q839.751 26.1121 843.761 30.9732 Q847.772 35.7938 847.772 45.1919 Z" fill="#000000" fill-rule="nonzero" fill-opacity="1" /><path clip-path="url(#clip230)" d="M892.494 49.3643 Q892.494 41.2625 889.132 36.8065 Q885.81 32.3505 879.774 32.3505 Q873.779 32.3505 870.416 36.8065 Q867.095 41.2625 867.095 49.3643 Q867.095 57.4256 870.416 61.8816 Q873.779 66.3376 879.774 66.3376 Q885.81 66.3376 889.132 61.8816 Q892.494 57.4256 892.494 49.3643 M899.947 66.9452 Q899.947 78.5308 894.803 84.1616 Q889.658 89.8329 879.045 89.8329 Q875.115 89.8329 871.632 89.2252 Q868.148 88.6581 864.867 87.4428 L864.867 80.1917 Q868.148 81.9741 871.348 82.8248 Q874.548 83.6755 877.87 83.6755 Q885.202 83.6755 888.848 79.8271 Q892.494 76.0193 892.494 68.282 L892.494 64.5957 Q890.185 68.6061 886.579 70.5911 Q882.974 72.576 877.951 72.576 Q869.606 72.576 864.502 66.2161 Q859.398 59.8562 859.398 49.3643 Q859.398 38.832 864.502 32.472 Q869.606 26.1121 877.951 26.1121 Q882.974 26.1121 886.579 28.0971 Q890.185 30.082 892.494 34.0924 L892.494 27.2059 L899.947 27.2059 L899.947 66.9452 Z" fill="#000000" fill-rule="nonzero" fill-opacity="1" /><path clip-path="url(#clip230)" d="M915.3 27.2059 L922.754 27.2059 L922.754 72.576 L915.3 72.576 L915.3 27.2059 M915.3 9.54393 L922.754 9.54393 L922.754 18.9825 L915.3 18.9825 L915.3 9.54393 Z" fill="#000000" fill-rule="nonzero" fill-opacity="1" /><path clip-path="url(#clip230)" d="M976.064 45.1919 L976.064 72.576 L968.61 72.576 L968.61 45.4349 Q968.61 38.994 966.099 35.7938 Q963.587 32.5936 958.564 32.5936 Q952.528 32.5936 949.044 36.4419 Q945.561 40.2903 945.561 46.9338 L945.561 72.576 L938.066 72.576 L938.066 27.2059 L945.561 27.2059 L945.561 34.2544 Q948.234 30.163 951.839 28.1376 Q955.485 26.1121 960.225 26.1121 Q968.043 26.1121 972.054 30.9732 Q976.064 35.7938 976.064 45.1919 Z" fill="#000000" fill-rule="nonzero" fill-opacity="1" /><path clip-path="url(#clip230)" d="M1020.79 49.3643 Q1020.79 41.2625 1017.42 36.8065 Q1014.1 32.3505 1008.07 32.3505 Q1002.07 32.3505 998.708 36.8065 Q995.387 41.2625 995.387 49.3643 Q995.387 57.4256 998.708 61.8816 Q1002.07 66.3376 1008.07 66.3376 Q1014.1 66.3376 1017.42 61.8816 Q1020.79 57.4256 1020.79 49.3643 M1028.24 66.9452 Q1028.24 78.5308 1023.09 84.1616 Q1017.95 89.8329 1007.34 89.8329 Q1003.41 89.8329 999.924 89.2252 Q996.44 88.6581 993.159 87.4428 L993.159 80.1917 Q996.44 81.9741 999.64 82.8248 Q1002.84 83.6755 1006.16 83.6755 Q1013.49 83.6755 1017.14 79.8271 Q1020.79 76.0193 1020.79 68.282 L1020.79 64.5957 Q1018.48 68.6061 1014.87 70.5911 Q1011.27 72.576 1006.24 72.576 Q997.898 72.576 992.794 66.2161 Q987.69 59.8562 987.69 49.3643 Q987.69 38.832 992.794 32.472 Q997.898 26.1121 1006.24 26.1121 Q1011.27 26.1121 1014.87 28.0971 Q1018.48 30.082 1020.79 34.0924 L1020.79 27.2059 L1028.24 27.2059 L1028.24 66.9452 Z" fill="#000000" fill-rule="nonzero" fill-opacity="1" /><path clip-path="url(#clip230)" d="M1084.43 73.7508 Q1067.61 73.7508 1067.61 49.6884 Q1067.61 40.1688 1073.89 27.2059 L1081.91 27.2059 Q1076.12 40.1688 1076.12 49.8909 Q1076.12 67.4314 1085.11 67.4314 Q1093.34 67.4314 1093.34 45.6375 L1100.22 45.6375 Q1100.22 67.4314 1108.45 67.4314 Q1117.44 67.4314 1117.44 49.8909 Q1117.44 40.1688 1111.65 27.2059 L1119.67 27.2059 Q1125.95 40.1688 1125.95 49.6884 Q1125.95 73.7508 1109.14 73.7508 Q1098.12 73.7508 1096.78 61.6386 Q1095.12 73.7508 1084.43 73.7508 Z" fill="#000000" fill-rule="nonzero" fill-opacity="1" /><path clip-path="url(#clip230)" d="M1173.91 86.3491 L1173.91 92.1419 L1130.81 92.1419 L1130.81 86.3491 L1173.91 86.3491 Z" fill="#000000" fill-rule="nonzero" fill-opacity="1" /><path clip-path="url(#clip230)" d="M1207.21 34.1734 Q1205.95 33.4443 1204.45 33.1202 Q1203 32.7556 1201.21 32.7556 Q1194.89 32.7556 1191.49 36.8875 Q1188.13 40.9789 1188.13 48.6757 L1188.13 72.576 L1180.63 72.576 L1180.63 27.2059 L1188.13 27.2059 L1188.13 34.2544 Q1190.48 30.1225 1194.25 28.1376 Q1198.01 26.1121 1203.4 26.1121 Q1204.17 26.1121 1205.1 26.2337 Q1206.03 26.3147 1207.17 26.5172 L1207.21 34.1734 Z" fill="#000000" fill-rule="nonzero" fill-opacity="1" /><path clip-path="url(#clip230)" d="M1237.06 27.2059 L1244.52 27.2059 L1253.83 62.6108 L1263.11 27.2059 L1271.9 27.2059 L1281.22 62.6108 L1290.5 27.2059 L1297.95 27.2059 L1286.08 72.576 L1277.29 72.576 L1267.53 35.3887 L1257.72 72.576 L1248.93 72.576 L1237.06 27.2059 Z" fill="#000000" fill-rule="nonzero" fill-opacity="1" /><path clip-path="url(#clip230)" d="M1346.96 45.1919 L1346.96 72.576 L1339.51 72.576 L1339.51 45.4349 Q1339.51 38.994 1337 35.7938 Q1334.49 32.5936 1329.46 32.5936 Q1323.43 32.5936 1319.95 36.4419 Q1316.46 40.2903 1316.46 46.9338 L1316.46 72.576 L1308.97 72.576 L1308.97 9.54393 L1316.46 9.54393 L1316.46 34.2544 Q1319.13 30.163 1322.74 28.1376 Q1326.39 26.1121 1331.13 26.1121 Q1338.94 26.1121 1342.95 30.9732 Q1346.96 35.7938 1346.96 45.1919 Z" fill="#000000" fill-rule="nonzero" fill-opacity="1" /><path clip-path="url(#clip230)" d="M1400.64 48.0275 L1400.64 51.6733 L1366.37 51.6733 Q1366.85 59.3701 1370.99 63.421 Q1375.16 67.4314 1382.57 67.4314 Q1386.87 67.4314 1390.88 66.3781 Q1394.93 65.3249 1398.9 63.2184 L1398.9 70.267 Q1394.89 71.9684 1390.67 72.8596 Q1386.46 73.7508 1382.13 73.7508 Q1371.27 73.7508 1364.91 67.4314 Q1358.59 61.1119 1358.59 50.3365 Q1358.59 39.1965 1364.59 32.6746 Q1370.62 26.1121 1380.83 26.1121 Q1389.99 26.1121 1395.29 32.0264 Q1400.64 37.9003 1400.64 48.0275 M1393.19 45.84 Q1393.1 39.7232 1389.74 36.0774 Q1386.42 32.4315 1380.91 32.4315 Q1374.67 32.4315 1370.91 35.9558 Q1367.18 39.4801 1366.61 45.8805 L1393.19 45.84 Z" fill="#000000" fill-rule="nonzero" fill-opacity="1" /><path clip-path="url(#clip230)" d="M1450.59 45.1919 L1450.59 72.576 L1443.13 72.576 L1443.13 45.4349 Q1443.13 38.994 1440.62 35.7938 Q1438.11 32.5936 1433.09 32.5936 Q1427.05 32.5936 1423.57 36.4419 Q1420.08 40.2903 1420.08 46.9338 L1420.08 72.576 L1412.59 72.576 L1412.59 27.2059 L1420.08 27.2059 L1420.08 34.2544 Q1422.76 30.163 1426.36 28.1376 Q1430.01 26.1121 1434.75 26.1121 Q1442.57 26.1121 1446.58 30.9732 Q1450.59 35.7938 1450.59 45.1919 Z" fill="#000000" fill-rule="nonzero" fill-opacity="1" /><path clip-path="url(#clip230)" d="M1506.29 73.7508 Q1489.48 73.7508 1489.48 49.6884 Q1489.48 40.1688 1495.75 27.2059 L1503.78 27.2059 Q1497.98 40.1688 1497.98 49.8909 Q1497.98 67.4314 1506.98 67.4314 Q1515.2 67.4314 1515.2 45.6375 L1522.09 45.6375 Q1522.09 67.4314 1530.31 67.4314 Q1539.3 67.4314 1539.3 49.8909 Q1539.3 40.1688 1533.51 27.2059 L1541.53 27.2059 Q1547.81 40.1688 1547.81 49.6884 Q1547.81 73.7508 1531 73.7508 Q1519.98 73.7508 1518.64 61.6386 Q1516.98 73.7508 1506.29 73.7508 Z" fill="#000000" fill-rule="nonzero" fill-opacity="1" /><path clip-path="url(#clip230)" d="M1595.77 86.3491 L1595.77 92.1419 L1552.67 92.1419 L1552.67 86.3491 L1595.77 86.3491 Z" fill="#000000" fill-rule="nonzero" fill-opacity="1" /><path clip-path="url(#clip230)" d="M1623.4 49.7694 Q1614.36 49.7694 1610.88 51.8354 Q1607.4 53.9013 1607.4 58.8839 Q1607.4 62.8538 1609.99 65.2034 Q1612.62 67.5124 1617.12 67.5124 Q1623.32 67.5124 1627.04 63.1374 Q1630.81 58.7219 1630.81 51.4303 L1630.81 49.7694 L1623.4 49.7694 M1638.27 46.6907 L1638.27 72.576 L1630.81 72.576 L1630.81 65.6895 Q1628.26 69.8214 1624.45 71.8063 Q1620.64 73.7508 1615.13 73.7508 Q1608.17 73.7508 1604.04 69.8619 Q1599.94 65.9325 1599.94 59.3701 Q1599.94 51.7138 1605.05 47.825 Q1610.19 43.9361 1620.36 43.9361 L1630.81 43.9361 L1630.81 43.2069 Q1630.81 38.0623 1627.41 35.2672 Q1624.05 32.4315 1617.93 32.4315 Q1614.04 32.4315 1610.35 33.3632 Q1606.67 34.295 1603.27 36.1584 L1603.27 29.2718 Q1607.36 27.692 1611.21 26.9223 Q1615.05 26.1121 1618.7 26.1121 Q1628.54 26.1121 1633.4 31.2163 Q1638.27 36.3204 1638.27 46.6907 Z" fill="#000000" fill-rule="nonzero" fill-opacity="1" /><path clip-path="url(#clip230)" d="M1686.19 49.9314 Q1686.19 41.7081 1682.78 37.0496 Q1679.42 32.3505 1673.51 32.3505 Q1667.59 32.3505 1664.19 37.0496 Q1660.83 41.7081 1660.83 49.9314 Q1660.83 58.1548 1664.19 62.8538 Q1667.59 67.5124 1673.51 67.5124 Q1679.42 67.5124 1682.78 62.8538 Q1686.19 58.1548 1686.19 49.9314 M1660.83 34.0924 Q1663.18 30.0415 1666.74 28.0971 Q1670.35 26.1121 1675.33 26.1121 Q1683.59 26.1121 1688.74 32.6746 Q1693.92 39.2371 1693.92 49.9314 Q1693.92 60.6258 1688.74 67.1883 Q1683.59 73.7508 1675.33 73.7508 Q1670.35 73.7508 1666.74 71.8063 Q1663.18 69.8214 1660.83 65.7705 L1660.83 72.576 L1653.33 72.576 L1653.33 9.54393 L1660.83 9.54393 L1660.83 34.0924 Z" fill="#000000" fill-rule="nonzero" fill-opacity="1" /><path clip-path="url(#clip230)" d="M1733.62 34.9026 L1785.56 34.9026 L1785.56 41.7081 L1733.62 41.7081 L1733.62 34.9026 M1733.62 51.4303 L1785.56 51.4303 L1785.56 58.3168 L1733.62 58.3168 L1733.62 51.4303 Z" fill="#000000" fill-rule="nonzero" fill-opacity="1" /><path clip-path="url(#clip230)" d="M1847.09 17.4837 Q1840.77 17.4837 1837.57 23.7221 Q1834.41 29.92 1834.41 42.3968 Q1834.41 54.833 1837.57 61.0714 Q1840.77 67.2693 1847.09 67.2693 Q1853.45 67.2693 1856.61 61.0714 Q1859.81 54.833 1859.81 42.3968 Q1859.81 29.92 1856.61 23.7221 Q1853.45 17.4837 1847.09 17.4837 M1847.09 11.0023 Q1857.26 11.0023 1862.6 19.0636 Q1867.99 27.0843 1867.99 42.3968 Q1867.99 57.6687 1862.6 65.73 Q1857.26 73.7508 1847.09 73.7508 Q1836.92 73.7508 1831.53 65.73 Q1826.19 57.6687 1826.19 42.3968 Q1826.19 27.0843 1831.53 19.0636 Q1836.92 11.0023 1847.09 11.0023 Z" fill="#000000" fill-rule="nonzero" fill-opacity="1" /><path clip-path="url(#clip230)" d="M1882.37 62.2867 L1890.92 62.2867 L1890.92 72.576 L1882.37 72.576 L1882.37 62.2867 Z" fill="#000000" fill-rule="nonzero" fill-opacity="1" /><path clip-path="url(#clip230)" d="M1910.16 65.6895 L1923.53 65.6895 L1923.53 19.5497 L1908.99 22.4663 L1908.99 15.0127 L1923.45 12.096 L1931.63 12.096 L1931.63 65.6895 L1945 65.6895 L1945 72.576 L1910.16 72.576 L1910.16 65.6895 Z" fill="#000000" fill-rule="nonzero" fill-opacity="1" /><path clip-path="url(#clip232)" d="M250.028 1396.92 L271.268 1396.92 L292.507 1383.79 L313.747 1383.79 L334.987 1383.79 L356.227 1370.67 L377.466 1370.67 L398.706 1370.67 L419.946 1357.54 L441.185 1357.54 L462.425 1357.54 L483.665 1344.41 L504.904 1344.41 L526.144 1344.41 L547.384 1344.41 L568.623 1344.41 L589.863 1331.28 L611.103 1331.28 L632.342 1331.28 L653.582 1331.28 L674.822 1331.28 L696.061 1318.15 L717.301 1318.15 L738.541 1318.15 L759.78 1318.15 L781.02 1318.15 L802.26 1318.15 L823.499 1305.02 L844.739 1305.02 L865.979 1305.02 L887.218 1305.02 L908.458 1305.02 L929.698 1305.02 L950.937 1305.02 L972.177 1291.9 L993.417 1291.9 L1014.66 1291.9 L1035.9 1291.9 L1057.14 1291.9 L1078.38 1291.9 L1099.62 1291.9 L1120.85 1291.9 L1142.09 1278.77 L1163.33 1278.77 L1184.57 1278.77 L1205.81 1278.77 L1227.05 1278.77 L1248.29 1278.77 L1269.53 1278.77 L1290.77 1278.77 L1312.01 1278.77 L1333.25 1265.64 L1354.49 1265.64 L1375.73 1265.64 L1396.97 1265.64 L1418.21 1265.64 L1439.45 1265.64 L1460.69 1265.64 L1481.93 1265.64 L1503.17 1265.64 L1524.41 1252.51 L1545.65 1252.51 L1566.89 1252.51 L1588.13 1252.51 L1609.37 1252.51 L1630.61 1252.51 L1651.85 1252.51 L1673.09 1252.51 L1694.33 1252.51 L1715.57 1252.51 L1736.81 1252.51 L1758.05 1239.38 L1779.28 1239.38 L1800.52 1239.38 L1821.76 1239.38 L1843 1239.38 L1864.24 1239.38 L1885.48 1239.38 L1906.72 1239.38 L1927.96 1239.38 L1949.2 1239.38 L1970.44 1239.38 L1991.68 1239.38 L2012.92 1226.25 L2034.16 1226.25 L2055.4 1226.25 L2076.64 1226.25 L2097.88 1226.25 L2119.12 1226.25 L2140.36 1226.25 L2161.6 1226.25 L2182.84 1226.25 L2204.08 1226.25 L2225.32 1226.25 L2246.56 1226.25 L2267.8 1226.25 L2289.04 1213.13 L2310.28 1213.13 L2331.52 1213.13 L2352.76 1213.13 L2352.76 1331.28 L2331.52 1331.28 L2310.28 1331.28 L2289.04 1331.28 L2267.8 1344.41 L2246.56 1344.41 L2225.32 1344.41 L2204.08 1344.41 L2182.84 1344.41 L2161.6 1344.41 L2140.36 1344.41 L2119.12 1344.41 L2097.88 1344.41 L2076.64 1344.41 L2055.4 1344.41 L2034.16 1344.41 L2012.92 1344.41 L1991.68 1344.41 L1970.44 1344.41 L1949.2 1344.41 L1927.96 1344.41 L1906.72 1344.41 L1885.48 1344.41 L1864.24 1344.41 L1843 1344.41 L1821.76 1344.41 L1800.52 1344.41 L1779.28 1357.54 L1758.05 1357.54 L1736.81 1357.54 L1715.57 1357.54 L1694.33 1357.54 L1673.09 1357.54 L1651.85 1357.54 L1630.61 1357.54 L1609.37 1357.54 L1588.13 1357.54 L1566.89 1357.54 L1545.65 1357.54 L1524.41 1357.54 L1503.17 1357.54 L1481.93 1357.54 L1460.69 1357.54 L1439.45 1357.54 L1418.21 1357.54 L1396.97 1357.54 L1375.73 1370.67 L1354.49 1370.67 L1333.25 1370.67 L1312.01 1370.67 L1290.77 1370.67 L1269.53 1370.67 L1248.29 1370.67 L1227.05 1370.67 L1205.81 1370.67 L1184.57 1370.67 L1163.33 1370.67 L1142.09 1370.67 L1120.85 1370.67 L1099.62 1370.67 L1078.38 1370.67 L1057.14 1370.67 L1035.9 1383.79 L1014.66 1383.79 L993.417 1383.79 L972.177 1383.79 L950.937 1383.79 L929.698 1383.79 L908.458 1383.79 L887.218 1383.79 L865.979 1383.79 L844.739 1383.79 L823.499 1383.79 L802.26 1383.79 L781.02 1383.79 L759.78 1383.79 L738.541 1396.92 L717.301 1396.92 L696.061 1396.92 L674.822 1396.92 L653.582 1396.92 L632.342 1396.92 L611.103 1396.92 L589.863 1396.92 L568.623 1396.92 L547.384 1396.92 L526.144 1410.05 L504.904 1410.05 L483.665 1410.05 L462.425 1410.05 L441.185 1410.05 L419.946 1410.05 L398.706 1410.05 L377.466 1410.05 L356.227 1423.18 L334.987 1423.18 L313.747 1423.18 L292.507 1423.18 L271.268 1423.18 L250.028 1423.18  Z" fill="#1f77b4" fill-rule="evenodd" fill-opacity="0.45"/>
<polyline clip-path="url(#clip232)" style="stroke:#1f77b4; stroke-linecap:round; stroke-linejoin:round; stroke-width:4; stroke-opacity:1; fill:none" points="250.028,1396.92 271.268,1396.92 292.507,1383.79 313.747,1383.79 334.987,1383.79 356.227,1370.67 377.466,1370.67 398.706,1370.67 419.946,1357.54 441.185,1357.54 462.425,1357.54 483.665,1344.41 504.904,1344.41 526.144,1344.41 547.384,1344.41 568.623,1344.41 589.863,1331.28 611.103,1331.28 632.342,1331.28 653.582,1331.28 674.822,1331.28 696.061,1318.15 717.301,1318.15 738.541,1318.15 759.78,1318.15 781.02,1318.15 802.26,1318.15 823.499,1305.02 844.739,1305.02 865.979,1305.02 887.218,1305.02 908.458,1305.02 929.698,1305.02 950.937,1305.02 972.177,1291.9 993.417,1291.9 1014.66,1291.9 1035.9,1291.9 1057.14,1291.9 1078.38,1291.9 1099.62,1291.9 1120.85,1291.9 1142.09,1278.77 1163.33,1278.77 1184.57,1278.77 1205.81,1278.77 1227.05,1278.77 1248.29,1278.77 1269.53,1278.77 1290.77,1278.77 1312.01,1278.77 1333.25,1265.64 1354.49,1265.64 1375.73,1265.64 1396.97,1265.64 1418.21,1265.64 1439.45,1265.64 1460.69,1265.64 1481.93,1265.64 1503.17,1265.64 1524.41,1252.51 1545.65,1252.51 1566.89,1252.51 1588.13,1252.51 1609.37,1252.51 1630.61,1252.51 1651.85,1252.51 1673.09,1252.51 1694.33,1252.51 1715.57,1252.51 1736.81,1252.51 1758.05,1239.38 1779.28,1239.38 1800.52,1239.38 1821.76,1239.38 1843,1239.38 1864.24,1239.38 1885.48,1239.38 1906.72,1239.38 1927.96,1239.38 1949.2,1239.38 1970.44,1239.38 1991.68,1239.38 2012.92,1226.25 2034.16,1226.25 2055.4,1226.25 2076.64,1226.25 2097.88,1226.25 2119.12,1226.25 2140.36,1226.25 2161.6,1226.25 2182.84,1226.25 2204.08,1226.25 2225.32,1226.25 2246.56,1226.25 2267.8,1226.25 2289.04,1213.13 2310.28,1213.13 2331.52,1213.13 2352.76,1213.13 "/>
<path clip-path="url(#clip232)" d="M250.028 1370.67 L271.268 1357.54 L292.507 1357.54 L313.747 1344.41 L334.987 1344.41 L356.227 1331.28 L377.466 1331.28 L398.706 1318.15 L419.946 1318.15 L441.185 1305.02 L462.425 1305.02 L483.665 1305.02 L504.904 1291.9 L526.144 1291.9 L547.384 1291.9 L568.623 1278.77 L589.863 1278.77 L611.103 1278.77 L632.342 1265.64 L653.582 1265.64 L674.822 1265.64 L696.061 1265.64 L717.301 1252.51 L738.541 1252.51 L759.78 1252.51 L781.02 1252.51 L802.26 1239.38 L823.499 1239.38 L844.739 1239.38 L865.979 1239.38 L887.218 1239.38 L908.458 1226.25 L929.698 1226.25 L950.937 1226.25 L972.177 1226.25 L993.417 1226.25 L1014.66 1213.13 L1035.9 1213.13 L1057.14 1213.13 L1078.38 1213.13 L1099.62 1213.13 L1120.85 1200 L1142.09 1200 L1163.33 1200 L1184.57 1200 L1205.81 1200 L1227.05 1200 L1248.29 1186.87 L1269.53 1186.87 L1290.77 1186.87 L1312.01 1186.87 L1333.25 1186.87 L1354.49 1186.87 L1375.73 1173.74 L1396.97 1173.74 L1418.21 1173.74 L1439.45 1173.74 L1460.69 1173.74 L1481.93 1173.74 L1503.17 1173.74 L1524.41 1160.61 L1545.65 1160.61 L1566.89 1160.61 L1588.13 1160.61 L1609.37 1160.61 L1630.61 1160.61 L1651.85 1160.61 L1673.09 1147.48 L1694.33 1147.48 L1715.57 1147.48 L1736.81 1147.48 L1758.05 1147.48 L1779.28 1147.48 L1800.52 1147.48 L1821.76 1147.48 L1843 1134.36 L1864.24 1134.36 L1885.48 1134.36 L1906.72 1134.36 L1927.96 1134.36 L1949.2 1134.36 L1970.44 1134.36 L1991.68 1134.36 L2012.92 1121.23 L2034.16 1121.23 L2055.4 1121.23 L2076.64 1121.23 L2097.88 1121.23 L2119.12 1121.23 L2140.36 1121.23 L2161.6 1121.23 L2182.84 1121.23 L2204.08 1108.1 L2225.32 1108.1 L2246.56 1108.1 L2267.8 1108.1 L2289.04 1108.1 L2310.28 1108.1 L2331.52 1108.1 L2352.76 1108.1 L2352.76 1265.64 L2331.52 1265.64 L2310.28 1265.64 L2289.04 1265.64 L2267.8 1265.64 L2246.56 1265.64 L2225.32 1265.64 L2204.08 1265.64 L2182.84 1278.77 L2161.6 1278.77 L2140.36 1278.77 L2119.12 1278.77 L2097.88 1278.77 L2076.64 1278.77 L2055.4 1278.77 L2034.16 1278.77 L2012.92 1278.77 L1991.68 1278.77 L1970.44 1278.77 L1949.2 1278.77 L1927.96 1278.77 L1906.72 1278.77 L1885.48 1291.9 L1864.24 1291.9 L1843 1291.9 L1821.76 1291.9 L1800.52 1291.9 L1779.28 1291.9 L1758.05 1291.9 L1736.81 1291.9 L1715.57 1291.9 L1694.33 1291.9 L1673.09 1291.9 L1651.85 1291.9 L1630.61 1291.9 L1609.37 1305.02 L1588.13 1305.02 L1566.89 1305.02 L1545.65 1305.02 L1524.41 1305.02 L1503.17 1305.02 L1481.93 1305.02 L1460.69 1305.02 L1439.45 1305.02 L1418.21 1305.02 L1396.97 1305.02 L1375.73 1318.15 L1354.49 1318.15 L1333.25 1318.15 L1312.01 1318.15 L1290.77 1318.15 L1269.53 1318.15 L1248.29 1318.15 L1227.05 1318.15 L1205.81 1318.15 L1184.57 1318.15 L1163.33 1318.15 L1142.09 1331.28 L1120.85 1331.28 L1099.62 1331.28 L1078.38 1331.28 L1057.14 1331.28 L1035.9 1331.28 L1014.66 1331.28 L993.417 1331.28 L972.177 1331.28 L950.937 1344.41 L929.698 1344.41 L908.458 1344.41 L887.218 1344.41 L865.979 1344.41 L844.739 1344.41 L823.499 1344.41 L802.26 1344.41 L781.02 1357.54 L759.78 1357.54 L738.541 1357.54 L717.301 1357.54 L696.061 1357.54 L674.822 1357.54 L653.582 1357.54 L632.342 1370.67 L611.103 1370.67 L589.863 1370.67 L568.623 1370.67 L547.384 1370.67 L526.144 1370.67 L504.904 1383.79 L483.665 1383.79 L462.425 1383.79 L441.185 1383.79 L419.946 1383.79 L398.706 1396.92 L377.466 1396.92 L356.227 1396.92 L334.987 1396.92 L313.747 1410.05 L292.507 1410.05 L271.268 1410.05 L250.028 1423.18  Z" fill="#ff7e0d" fill-rule="evenodd" fill-opacity="0.45"/>
<polyline clip-path="url(#clip232)" style="stroke:#ff7e0d; stroke-linecap:round; stroke-linejoin:round; stroke-width:4; stroke-opacity:1; fill:none" points="250.028,1370.67 271.268,1357.54 292.507,1357.54 313.747,1344.41 334.987,1344.41 356.227,1331.28 377.466,1331.28 398.706,1318.15 419.946,1318.15 441.185,1305.02 462.425,1305.02 483.665,1305.02 504.904,1291.9 526.144,1291.9 547.384,1291.9 568.623,1278.77 589.863,1278.77 611.103,1278.77 632.342,1265.64 653.582,1265.64 674.822,1265.64 696.061,1265.64 717.301,1252.51 738.541,1252.51 759.78,1252.51 781.02,1252.51 802.26,1239.38 823.499,1239.38 844.739,1239.38 865.979,1239.38 887.218,1239.38 908.458,1226.25 929.698,1226.25 950.937,1226.25 972.177,1226.25 993.417,1226.25 1014.66,1213.13 1035.9,1213.13 1057.14,1213.13 1078.38,1213.13 1099.62,1213.13 1120.85,1200 1142.09,1200 1163.33,1200 1184.57,1200 1205.81,1200 1227.05,1200 1248.29,1186.87 1269.53,1186.87 1290.77,1186.87 1312.01,1186.87 1333.25,1186.87 1354.49,1186.87 1375.73,1173.74 1396.97,1173.74 1418.21,1173.74 1439.45,1173.74 1460.69,1173.74 1481.93,1173.74 1503.17,1173.74 1524.41,1160.61 1545.65,1160.61 1566.89,1160.61 1588.13,1160.61 1609.37,1160.61 1630.61,1160.61 1651.85,1160.61 1673.09,1147.48 1694.33,1147.48 1715.57,1147.48 1736.81,1147.48 1758.05,1147.48 1779.28,1147.48 1800.52,1147.48 1821.76,1147.48 1843,1134.36 1864.24,1134.36 1885.48,1134.36 1906.72,1134.36 1927.96,1134.36 1949.2,1134.36 1970.44,1134.36 1991.68,1134.36 2012.92,1121.23 2034.16,1121.23 2055.4,1121.23 2076.64,1121.23 2097.88,1121.23 2119.12,1121.23 2140.36,1121.23 2161.6,1121.23 2182.84,1121.23 2204.08,1108.1 2225.32,1108.1 2246.56,1108.1 2267.8,1108.1 2289.04,1108.1 2310.28,1108.1 2331.52,1108.1 2352.76,1108.1 "/>
<path clip-path="url(#clip232)" d="M250.028 1331.28 L271.268 1318.15 L292.507 1305.02 L313.747 1291.9 L334.987 1278.77 L356.227 1265.64 L377.466 1265.64 L398.706 1252.51 L419.946 1239.38 L441.185 1239.38 L462.425 1226.25 L483.665 1226.25 L504.904 1213.13 L526.144 1213.13 L547.384 1200 L568.623 1200 L589.863 1200 L611.103 1186.87 L632.342 1186.87 L653.582 1173.74 L674.822 1173.74 L696.061 1173.74 L717.301 1160.61 L738.541 1160.61 L759.78 1147.48 L781.02 1147.48 L802.26 1147.48 L823.499 1134.36 L844.739 1134.36 L865.979 1134.36 L887.218 1134.36 L908.458 1121.23 L929.698 1121.23 L950.937 1121.23 L972.177 1108.1 L993.417 1108.1 L1014.66 1108.1 L1035.9 1108.1 L1057.14 1094.97 L1078.38 1094.97 L1099.62 1094.97 L1120.85 1094.97 L1142.09 1081.84 L1163.33 1081.84 L1184.57 1081.84 L1205.81 1081.84 L1227.05 1068.71 L1248.29 1068.71 L1269.53 1068.71 L1290.77 1068.71 L1312.01 1055.59 L1333.25 1055.59 L1354.49 1055.59 L1375.73 1055.59 L1396.97 1042.46 L1418.21 1042.46 L1439.45 1042.46 L1460.69 1042.46 L1481.93 1042.46 L1503.17 1029.33 L1524.41 1029.33 L1545.65 1029.33 L1566.89 1029.33 L1588.13 1029.33 L1609.37 1016.2 L1630.61 1016.2 L1651.85 1016.2 L1673.09 1016.2 L1694.33 1016.2 L1715.57 1003.07 L1736.81 1003.07 L1758.05 1003.07 L1779.28 1003.07 L1800.52 1003.07 L1821.76 1003.07 L1843 989.944 L1864.24 989.944 L1885.48 989.944 L1906.72 989.944 L1927.96 989.944 L1949.2 989.944 L1970.44 976.816 L1991.68 976.816 L2012.92 976.816 L2034.16 976.816 L2055.4 976.816 L2076.64 963.687 L2097.88 963.687 L2119.12 963.687 L2140.36 963.687 L2161.6 963.687 L2182.84 963.687 L2204.08 963.687 L2225.32 950.559 L2246.56 950.559 L2267.8 950.559 L2289.04 950.559 L2310.28 950.559 L2331.52 950.559 L2352.76 937.43 L2352.76 1147.48 L2331.52 1160.61 L2310.28 1160.61 L2289.04 1160.61 L2267.8 1160.61 L2246.56 1160.61 L2225.32 1160.61 L2204.08 1160.61 L2182.84 1160.61 L2161.6 1160.61 L2140.36 1173.74 L2119.12 1173.74 L2097.88 1173.74 L2076.64 1173.74 L2055.4 1173.74 L2034.16 1173.74 L2012.92 1173.74 L1991.68 1173.74 L1970.44 1173.74 L1949.2 1186.87 L1927.96 1186.87 L1906.72 1186.87 L1885.48 1186.87 L1864.24 1186.87 L1843 1186.87 L1821.76 1186.87 L1800.52 1186.87 L1779.28 1200 L1758.05 1200 L1736.81 1200 L1715.57 1200 L1694.33 1200 L1673.09 1200 L1651.85 1200 L1630.61 1200 L1609.37 1213.13 L1588.13 1213.13 L1566.89 1213.13 L1545.65 1213.13 L1524.41 1213.13 L1503.17 1213.13 L1481.93 1213.13 L1460.69 1226.25 L1439.45 1226.25 L1418.21 1226.25 L1396.97 1226.25 L1375.73 1226.25 L1354.49 1226.25 L1333.25 1226.25 L1312.01 1239.38 L1290.77 1239.38 L1269.53 1239.38 L1248.29 1239.38 L1227.05 1239.38 L1205.81 1239.38 L1184.57 1252.51 L1163.33 1252.51 L1142.09 1252.51 L1120.85 1252.51 L1099.62 1252.51 L1078.38 1252.51 L1057.14 1265.64 L1035.9 1265.64 L1014.66 1265.64 L993.417 1265.64 L972.177 1265.64 L950.937 1265.64 L929.698 1278.77 L908.458 1278.77 L887.218 1278.77 L865.979 1278.77 L844.739 1278.77 L823.499 1291.9 L802.26 1291.9 L781.02 1291.9 L759.78 1291.9 L738.541 1291.9 L717.301 1305.02 L696.061 1305.02 L674.822 1305.02 L653.582 1305.02 L632.342 1318.15 L611.103 1318.15 L589.863 1318.15 L568.623 1318.15 L547.384 1331.28 L526.144 1331.28 L504.904 1331.28 L483.665 1331.28 L462.425 1344.41 L441.185 1344.41 L419.946 1344.41 L398.706 1357.54 L377.466 1357.54 L356.227 1370.67 L334.987 1370.67 L313.747 1370.67 L292.507 1383.79 L271.268 1383.79 L250.028 1396.92  Z" fill="#2ba02b" fill-rule="evenodd" fill-opacity="0.45"/>
<polyline clip-path="url(#clip232)" style="stroke:#2ba02b; stroke-linecap:round; stroke-linejoin:round; stroke-width:4; stroke-opacity:1; fill:none" points="250.028,1331.28 271.268,1318.15 292.507,1305.02 313.747,1291.9 334.987,1278.77 356.227,1265.64 377.466,1265.64 398.706,1252.51 419.946,1239.38 441.185,1239.38 462.425,1226.25 483.665,1226.25 504.904,1213.13 526.144,1213.13 547.384,1200 568.623,1200 589.863,1200 611.103,1186.87 632.342,1186.87 653.582,1173.74 674.822,1173.74 696.061,1173.74 717.301,1160.61 738.541,1160.61 759.78,1147.48 781.02,1147.48 802.26,1147.48 823.499,1134.36 844.739,1134.36 865.979,1134.36 887.218,1134.36 908.458,1121.23 929.698,1121.23 950.937,1121.23 972.177,1108.1 993.417,1108.1 1014.66,1108.1 1035.9,1108.1 1057.14,1094.97 1078.38,1094.97 1099.62,1094.97 1120.85,1094.97 1142.09,1081.84 1163.33,1081.84 1184.57,1081.84 1205.81,1081.84 1227.05,1068.71 1248.29,1068.71 1269.53,1068.71 1290.77,1068.71 1312.01,1055.59 1333.25,1055.59 1354.49,1055.59 1375.73,1055.59 1396.97,1042.46 1418.21,1042.46 1439.45,1042.46 1460.69,1042.46 1481.93,1042.46 1503.17,1029.33 1524.41,1029.33 1545.65,1029.33 1566.89,1029.33 1588.13,1029.33 1609.37,1016.2 1630.61,1016.2 1651.85,1016.2 1673.09,1016.2 1694.33,1016.2 1715.57,1003.07 1736.81,1003.07 1758.05,1003.07 1779.28,1003.07 1800.52,1003.07 1821.76,1003.07 1843,989.944 1864.24,989.944 1885.48,989.944 1906.72,989.944 1927.96,989.944 1949.2,989.944 1970.44,976.816 1991.68,976.816 2012.92,976.816 2034.16,976.816 2055.4,976.816 2076.64,963.687 2097.88,963.687 2119.12,963.687 2140.36,963.687 2161.6,963.687 2182.84,963.687 2204.08,963.687 2225.32,950.559 2246.56,950.559 2267.8,950.559 2289.04,950.559 2310.28,950.559 2331.52,950.559 2352.76,937.43 "/>
<path clip-path="url(#clip232)" d="M250.028 1278.77 L271.268 1252.51 L292.507 1226.25 L313.747 1213.13 L334.987 1200 L356.227 1186.87 L377.466 1173.74 L398.706 1160.61 L419.946 1147.48 L441.185 1134.36 L462.425 1121.23 L483.665 1121.23 L504.904 1108.1 L526.144 1094.97 L547.384 1094.97 L568.623 1081.84 L589.863 1068.71 L611.103 1068.71 L632.342 1055.59 L653.582 1042.46 L674.822 1042.46 L696.061 1029.33 L717.301 1029.33 L738.541 1016.2 L759.78 1016.2 L781.02 1003.07 L802.26 1003.07 L823.499 989.944 L844.739 989.944 L865.979 989.944 L887.218 976.816 L908.458 976.816 L929.698 963.687 L950.937 963.687 L972.177 950.559 L993.417 950.559 L1014.66 950.559 L1035.9 937.43 L1057.14 937.43 L1078.38 924.302 L1099.62 924.302 L1120.85 924.302 L1142.09 911.174 L1163.33 911.174 L1184.57 911.174 L1205.81 898.045 L1227.05 898.045 L1248.29 898.045 L1269.53 884.917 L1290.77 884.917 L1312.01 884.917 L1333.25 871.789 L1354.49 871.789 L1375.73 871.789 L1396.97 858.66 L1418.21 858.66 L1439.45 858.66 L1460.69 845.532 L1481.93 845.532 L1503.17 845.532 L1524.41 845.532 L1545.65 832.404 L1566.89 832.404 L1588.13 832.404 L1609.37 819.275 L1630.61 819.275 L1651.85 819.275 L1673.09 819.275 L1694.33 806.147 L1715.57 806.147 L1736.81 806.147 L1758.05 806.147 L1779.28 793.019 L1800.52 793.019 L1821.76 793.019 L1843 779.89 L1864.24 779.89 L1885.48 779.89 L1906.72 779.89 L1927.96 766.762 L1949.2 766.762 L1970.44 766.762 L1991.68 766.762 L2012.92 766.762 L2034.16 753.633 L2055.4 753.633 L2076.64 753.633 L2097.88 753.633 L2119.12 740.505 L2140.36 740.505 L2161.6 740.505 L2182.84 740.505 L2204.08 727.377 L2225.32 727.377 L2246.56 727.377 L2267.8 727.377 L2289.04 727.377 L2310.28 714.248 L2331.52 714.248 L2352.76 714.248 L2352.76 976.816 L2331.52 976.816 L2310.28 976.816 L2289.04 976.816 L2267.8 989.944 L2246.56 989.944 L2225.32 989.944 L2204.08 989.944 L2182.84 989.944 L2161.6 989.944 L2140.36 1003.07 L2119.12 1003.07 L2097.88 1003.07 L2076.64 1003.07 L2055.4 1003.07 L2034.16 1016.2 L2012.92 1016.2 L1991.68 1016.2 L1970.44 1016.2 L1949.2 1016.2 L1927.96 1029.33 L1906.72 1029.33 L1885.48 1029.33 L1864.24 1029.33 L1843 1029.33 L1821.76 1029.33 L1800.52 1042.46 L1779.28 1042.46 L1758.05 1042.46 L1736.81 1042.46 L1715.57 1055.59 L1694.33 1055.59 L1673.09 1055.59 L1651.85 1055.59 L1630.61 1055.59 L1609.37 1068.71 L1588.13 1068.71 L1566.89 1068.71 L1545.65 1068.71 L1524.41 1068.71 L1503.17 1081.84 L1481.93 1081.84 L1460.69 1081.84 L1439.45 1081.84 L1418.21 1094.97 L1396.97 1094.97 L1375.73 1094.97 L1354.49 1094.97 L1333.25 1094.97 L1312.01 1108.1 L1290.77 1108.1 L1269.53 1108.1 L1248.29 1108.1 L1227.05 1121.23 L1205.81 1121.23 L1184.57 1121.23 L1163.33 1121.23 L1142.09 1134.36 L1120.85 1134.36 L1099.62 1134.36 L1078.38 1147.48 L1057.14 1147.48 L1035.9 1147.48 L1014.66 1147.48 L993.417 1160.61 L972.177 1160.61 L950.937 1160.61 L929.698 1173.74 L908.458 1173.74 L887.218 1173.74 L865.979 1173.74 L844.739 1186.87 L823.499 1186.87 L802.26 1186.87 L781.02 1200 L759.78 1200 L738.541 1200 L717.301 1213.13 L696.061 1213.13 L674.822 1226.25 L653.582 1226.25 L632.342 1226.25 L611.103 1239.38 L589.863 1239.38 L568.623 1252.51 L547.384 1252.51 L526.144 1252.51 L504.904 1265.64 L483.665 1265.64 L462.425 1278.77 L441.185 1278.77 L419.946 1291.9 L398.706 1291.9 L377.466 1305.02 L356.227 1318.15 L334.987 1318.15 L313.747 1331.28 L292.507 1344.41 L271.268 1357.54 L250.028 1370.67  Z" fill="#d52628" fill-rule="evenodd" fill-opacity="0.45"/>
<polyline clip-path="url(#clip232)" style="stroke:#d52628; stroke-linecap:round; stroke-linejoin:round; stroke-width:4; stroke-opacity:1; fill:none" points="250.028,1278.77 271.268,1252.51 292.507,1226.25 313.747,1213.13 334.987,1200 356.227,1186.87 377.466,1173.74 398.706,1160.61 419.946,1147.48 441.185,1134.36 462.425,1121.23 483.665,1121.23 504.904,1108.1 526.144,1094.97 547.384,1094.97 568.623,1081.84 589.863,1068.71 611.103,1068.71 632.342,1055.59 653.582,1042.46 674.822,1042.46 696.061,1029.33 717.301,1029.33 738.541,1016.2 759.78,1016.2 781.02,1003.07 802.26,1003.07 823.499,989.944 844.739,989.944 865.979,989.944 887.218,976.816 908.458,976.816 929.698,963.687 950.937,963.687 972.177,950.559 993.417,950.559 1014.66,950.559 1035.9,937.43 1057.14,937.43 1078.38,924.302 1099.62,924.302 1120.85,924.302 1142.09,911.174 1163.33,911.174 1184.57,911.174 1205.81,898.045 1227.05,898.045 1248.29,898.045 1269.53,884.917 1290.77,884.917 1312.01,884.917 1333.25,871.789 1354.49,871.789 1375.73,871.789 1396.97,858.66 1418.21,858.66 1439.45,858.66 1460.69,845.532 1481.93,845.532 1503.17,845.532 1524.41,845.532 1545.65,832.404 1566.89,832.404 1588.13,832.404 1609.37,819.275 1630.61,819.275 1651.85,819.275 1673.09,819.275 1694.33,806.147 1715.57,806.147 1736.81,806.147 1758.05,806.147 1779.28,793.019 1800.52,793.019 1821.76,793.019 1843,779.89 1864.24,779.89 1885.48,779.89 1906.72,779.89 1927.96,766.762 1949.2,766.762 1970.44,766.762 1991.68,766.762 2012.92,766.762 2034.16,753.633 2055.4,753.633 2076.64,753.633 2097.88,753.633 2119.12,740.505 2140.36,740.505 2161.6,740.505 2182.84,740.505 2204.08,727.377 2225.32,727.377 2246.56,727.377 2267.8,727.377 2289.04,727.377 2310.28,714.248 2331.52,714.248 2352.76,714.248 "/>
<path clip-path="url(#clip232)" d="M250.028 1186.87 L271.268 1147.48 L292.507 1121.23 L313.747 1094.97 L334.987 1081.84 L356.227 1055.59 L377.466 1042.46 L398.706 1016.2 L419.946 1003.07 L441.185 989.944 L462.425 976.816 L483.665 963.687 L504.904 950.559 L526.144 937.43 L547.384 924.302 L568.623 911.174 L589.863 898.045 L611.103 884.917 L632.342 871.789 L653.582 858.66 L674.822 858.66 L696.061 845.532 L717.301 832.404 L738.541 819.275 L759.78 819.275 L781.02 806.147 L802.26 793.019 L823.499 793.019 L844.739 779.89 L865.979 766.762 L887.218 766.762 L908.458 753.633 L929.698 740.505 L950.937 740.505 L972.177 727.377 L993.417 727.377 L1014.66 714.248 L1035.9 714.248 L1057.14 701.12 L1078.38 687.992 L1099.62 687.992 L1120.85 674.863 L1142.09 674.863 L1163.33 661.735 L1184.57 661.735 L1205.81 648.607 L1227.05 648.607 L1248.29 635.478 L1269.53 635.478 L1290.77 622.35 L1312.01 622.35 L1333.25 622.35 L1354.49 609.221 L1375.73 609.221 L1396.97 596.093 L1418.21 596.093 L1439.45 582.965 L1460.69 582.965 L1481.93 569.836 L1503.17 569.836 L1524.41 569.836 L1545.65 556.708 L1566.89 556.708 L1588.13 543.58 L1609.37 543.58 L1630.61 543.58 L1651.85 530.451 L1673.09 530.451 L1694.33 517.323 L1715.57 517.323 L1736.81 517.323 L1758.05 504.195 L1779.28 504.195 L1800.52 504.195 L1821.76 491.066 L1843 491.066 L1864.24 477.938 L1885.48 477.938 L1906.72 477.938 L1927.96 464.81 L1949.2 464.81 L1970.44 464.81 L1991.68 451.681 L2012.92 451.681 L2034.16 451.681 L2055.4 438.553 L2076.64 438.553 L2097.88 438.553 L2119.12 425.424 L2140.36 425.424 L2161.6 425.424 L2182.84 412.296 L2204.08 412.296 L2225.32 412.296 L2246.56 399.168 L2267.8 399.168 L2289.04 399.168 L2310.28 399.168 L2331.52 386.039 L2352.76 386.039 L2352.76 701.12 L2331.52 701.12 L2310.28 701.12 L2289.04 714.248 L2267.8 714.248 L2246.56 714.248 L2225.32 714.248 L2204.08 727.377 L2182.84 727.377 L2161.6 727.377 L2140.36 740.505 L2119.12 740.505 L2097.88 740.505 L2076.64 740.505 L2055.4 753.633 L2034.16 753.633 L2012.92 753.633 L1991.68 766.762 L1970.44 766.762 L1949.2 766.762 L1927.96 766.762 L1906.72 779.89 L1885.48 779.89 L1864.24 779.89 L1843 793.019 L1821.76 793.019 L1800.52 793.019 L1779.28 806.147 L1758.05 806.147 L1736.81 806.147 L1715.57 819.275 L1694.33 819.275 L1673.09 819.275 L1651.85 832.404 L1630.61 832.404 L1609.37 832.404 L1588.13 845.532 L1566.89 845.532 L1545.65 845.532 L1524.41 858.66 L1503.17 858.66 L1481.93 858.66 L1460.69 871.789 L1439.45 871.789 L1418.21 871.789 L1396.97 884.917 L1375.73 884.917 L1354.49 884.917 L1333.25 898.045 L1312.01 898.045 L1290.77 911.174 L1269.53 911.174 L1248.29 911.174 L1227.05 924.302 L1205.81 924.302 L1184.57 937.43 L1163.33 937.43 L1142.09 937.43 L1120.85 950.559 L1099.62 950.559 L1078.38 963.687 L1057.14 963.687 L1035.9 963.687 L1014.66 976.816 L993.417 976.816 L972.177 989.944 L950.937 989.944 L929.698 1003.07 L908.458 1003.07 L887.218 1016.2 L865.979 1016.2 L844.739 1029.33 L823.499 1029.33 L802.26 1042.46 L781.02 1042.46 L759.78 1055.59 L738.541 1055.59 L717.301 1068.71 L696.061 1081.84 L674.822 1081.84 L653.582 1094.97 L632.342 1094.97 L611.103 1108.1 L589.863 1121.23 L568.623 1121.23 L547.384 1134.36 L526.144 1147.48 L504.904 1147.48 L483.665 1160.61 L462.425 1173.74 L441.185 1186.87 L419.946 1200 L398.706 1200 L377.466 1213.13 L356.227 1226.25 L334.987 1239.38 L313.747 1265.64 L292.507 1278.77 L271.268 1291.9 L250.028 1318.15  Z" fill="#9466bd" fill-rule="evenodd" fill-opacity="0.45"/>
<polyline clip-path="url(#clip232)" style="stroke:#9466bd; stroke-linecap:round; stroke-linejoin:round; stroke-width:4; stroke-opacity:1; fill:none" points="250.028,1186.87 271.268,1147.48 292.507,1121.23 313.747,1094.97 334.987,1081.84 356.227,1055.59 377.466,1042.46 398.706,1016.2 419.946,1003.07 441.185,989.944 462.425,976.816 483.665,963.687 504.904,950.559 526.144,937.43 547.384,924.302 568.623,911.174 589.863,898.045 611.103,884.917 632.342,871.789 653.582,858.66 674.822,858.66 696.061,845.532 717.301,832.404 738.541,819.275 759.78,819.275 781.02,806.147 802.26,793.019 823.499,793.019 844.739,779.89 865.979,766.762 887.218,766.762 908.458,753.633 929.698,740.505 950.937,740.505 972.177,727.377 993.417,727.377 1014.66,714.248 1035.9,714.248 1057.14,701.12 1078.38,687.992 1099.62,687.992 1120.85,674.863 1142.09,674.863 1163.33,661.735 1184.57,661.735 1205.81,648.607 1227.05,648.607 1248.29,635.478 1269.53,635.478 1290.77,622.35 1312.01,622.35 1333.25,622.35 1354.49,609.221 1375.73,609.221 1396.97,596.093 1418.21,596.093 1439.45,582.965 1460.69,582.965 1481.93,569.836 1503.17,569.836 1524.41,569.836 1545.65,556.708 1566.89,556.708 1588.13,543.58 1609.37,543.58 1630.61,543.58 1651.85,530.451 1673.09,530.451 1694.33,517.323 1715.57,517.323 1736.81,517.323 1758.05,504.195 1779.28,504.195 1800.52,504.195 1821.76,491.066 1843,491.066 1864.24,477.938 1885.48,477.938 1906.72,477.938 1927.96,464.81 1949.2,464.81 1970.44,464.81 1991.68,451.681 2012.92,451.681 2034.16,451.681 2055.4,438.553 2076.64,438.553 2097.88,438.553 2119.12,425.424 2140.36,425.424 2161.6,425.424 2182.84,412.296 2204.08,412.296 2225.32,412.296 2246.56,399.168 2267.8,399.168 2289.04,399.168 2310.28,399.168 2331.52,386.039 2352.76,386.039 "/>
<polyline clip-path="url(#clip232)" style="stroke:#000000; stroke-linecap:round; stroke-linejoin:round; stroke-width:4; stroke-opacity:1; fill:none" points="504.684,1387.94 900.048,1274.47 1282.21,1165.68 1624.79,1068.91 1903.38,990.769 2099.15,936.382 2199.81,908.82 2200.15,908.724 2128.12,934.239 1988.68,981.255 1782.37,1043.94 1538.76,1115.46 1323.92,1177.97 1083.41,1247.93 872.668,1309.14 704.341,1358.21 581.693,1393.71 505.753,1416.13 466.5,1427.52 454.6,1430.96 458.235,1429.91 466.203,1427.61 469.78,1426.58 463.813,1428.3 447.137,1433.12 422.311,1440.4 393.649,1448.75 367.407,1456.46 369.174,1455.93 399.076,1447.15 434.445,1436.83 469.913,1426.54 500.033,1417.79 520.625,1411.74 529.659,1409.04 527.272,1409.75 515.088,1413.4 495.434,1419.13 472.326,1425.84 449.327,1432.49 429.753,1438.2 415.298,1442.45 406.231,1445.07 402.105,1446.27 401.281,1446.51 401.73,1446.38 401.5,1446.44 399.152,1447.13 394.071,1448.62 386.416,1450.86 377.19,1453.53 368.309,1456.19 367.407,1456.46 368.362,1456.17 377.296,1453.5 385.972,1450.98 391.566,1449.37 391.59,1449.36 384.017,1451.55 367.931,1456.3 367.407,1456.46 "/>
<path clip-path="url(#clip230)" d="M320.119 477.836 L841.293 477.836 L841.293 166.796 L320.119 166.796  Z" fill="#ffffff" fill-rule="evenodd" fill-opacity="1"/>
<polyline clip-path="url(#clip230)" style="stroke:#000000; stroke-linecap:round; stroke-linejoin:round; stroke-width:4; stroke-opacity:1; fill:none" points="320.119,477.836 841.293,477.836 841.293,166.796 320.119,166.796 320.119,477.836 "/>
<path clip-path="url(#clip230)" d="M343.483 239.372 L483.665 239.372 L483.665 197.9 L343.483 197.9 L343.483 239.372  Z" fill="#1f77b4" fill-rule="evenodd" fill-opacity="0.45"/>
<polyline clip-path="url(#clip230)" style="stroke:#1f77b4; stroke-linecap:round; stroke-linejoin:round; stroke-width:4; stroke-opacity:1; fill:none" points="343.483,197.9 483.665,197.9 "/>
<path clip-path="url(#clip230)" d="M508.487 201.356 L526.843 201.356 L526.843 205.291 L512.769 205.291 L512.769 213.763 Q513.787 213.416 514.806 213.254 Q515.824 213.069 516.843 213.069 Q522.63 213.069 526.01 216.24 Q529.389 219.411 529.389 224.828 Q529.389 230.406 525.917 233.508 Q522.445 236.587 516.125 236.587 Q513.949 236.587 511.681 236.217 Q509.436 235.846 507.028 235.106 L507.028 230.406 Q509.112 231.541 511.334 232.096 Q513.556 232.652 516.033 232.652 Q520.037 232.652 522.375 230.545 Q524.713 228.439 524.713 224.828 Q524.713 221.217 522.375 219.11 Q520.037 217.004 516.033 217.004 Q514.158 217.004 512.283 217.42 Q510.431 217.837 508.487 218.717 L508.487 201.356 Z" fill="#000000" fill-rule="nonzero" fill-opacity="1" /><path clip-path="url(#clip230)" d="M538.602 230.036 L543.486 230.036 L543.486 235.916 L538.602 235.916 L538.602 230.036 Z" fill="#000000" fill-rule="nonzero" fill-opacity="1" /><path clip-path="url(#clip230)" d="M563.671 204.434 Q560.06 204.434 558.232 207.999 Q556.426 211.541 556.426 218.67 Q556.426 225.777 558.232 229.342 Q560.06 232.883 563.671 232.883 Q567.306 232.883 569.111 229.342 Q570.94 225.777 570.94 218.67 Q570.94 211.541 569.111 207.999 Q567.306 204.434 563.671 204.434 M563.671 200.731 Q569.482 200.731 572.537 205.337 Q575.616 209.92 575.616 218.67 Q575.616 227.397 572.537 232.004 Q569.482 236.587 563.671 236.587 Q557.861 236.587 554.783 232.004 Q551.727 227.397 551.727 218.67 Q551.727 209.92 554.783 205.337 Q557.861 200.731 563.671 200.731 Z" fill="#000000" fill-rule="nonzero" fill-opacity="1" /><path clip-path="url(#clip230)" d="M584.644 231.981 L592.282 231.981 L592.282 205.615 L583.972 207.282 L583.972 203.022 L592.236 201.356 L596.912 201.356 L596.912 231.981 L604.551 231.981 L604.551 235.916 L584.644 235.916 L584.644 231.981 Z" fill="#000000" fill-rule="nonzero" fill-opacity="1" /><path clip-path="url(#clip230)" d="M614.805 231.981 L622.444 231.981 L622.444 205.615 L614.134 207.282 L614.134 203.022 L622.398 201.356 L627.074 201.356 L627.074 231.981 L634.713 231.981 L634.713 235.916 L614.805 235.916 L614.805 231.981 Z" fill="#000000" fill-rule="nonzero" fill-opacity="1" /><path clip-path="url(#clip230)" d="M654.157 219.504 Q650.824 219.504 648.902 221.286 Q647.004 223.069 647.004 226.194 Q647.004 229.319 648.902 231.101 Q650.824 232.883 654.157 232.883 Q657.49 232.883 659.412 231.101 Q661.333 229.295 661.333 226.194 Q661.333 223.069 659.412 221.286 Q657.514 219.504 654.157 219.504 M649.481 217.513 Q646.472 216.772 644.782 214.712 Q643.115 212.652 643.115 209.689 Q643.115 205.546 646.055 203.138 Q649.018 200.731 654.157 200.731 Q659.319 200.731 662.259 203.138 Q665.199 205.546 665.199 209.689 Q665.199 212.652 663.509 214.712 Q661.842 216.772 658.856 217.513 Q662.236 218.3 664.111 220.592 Q666.009 222.883 666.009 226.194 Q666.009 231.217 662.93 233.902 Q659.875 236.587 654.157 236.587 Q648.439 236.587 645.361 233.902 Q642.305 231.217 642.305 226.194 Q642.305 222.883 644.203 220.592 Q646.102 218.3 649.481 217.513 M647.768 210.129 Q647.768 212.814 649.435 214.319 Q651.125 215.823 654.157 215.823 Q657.166 215.823 658.856 214.319 Q660.569 212.814 660.569 210.129 Q660.569 207.444 658.856 205.939 Q657.166 204.434 654.157 204.434 Q651.125 204.434 649.435 205.939 Q647.768 207.444 647.768 210.129 Z" fill="#000000" fill-rule="nonzero" fill-opacity="1" /><path clip-path="url(#clip230)" d="M673.138 201.356 L695.361 201.356 L695.361 203.346 L682.814 235.916 L677.93 235.916 L689.736 205.291 L673.138 205.291 L673.138 201.356 Z" fill="#000000" fill-rule="nonzero" fill-opacity="1" /><path clip-path="url(#clip230)" d="M726.055 221.888 L726.055 223.971 L706.472 223.971 Q706.749 228.369 709.11 230.684 Q711.495 232.976 715.731 232.976 Q718.184 232.976 720.476 232.374 Q722.791 231.772 725.059 230.569 L725.059 234.596 Q722.768 235.568 720.36 236.078 Q717.953 236.587 715.476 236.587 Q709.272 236.587 705.638 232.976 Q702.027 229.365 702.027 223.207 Q702.027 216.842 705.453 213.115 Q708.902 209.365 714.735 209.365 Q719.967 209.365 722.999 212.745 Q726.055 216.101 726.055 221.888 M721.796 220.638 Q721.749 217.143 719.828 215.059 Q717.93 212.976 714.782 212.976 Q711.217 212.976 709.064 214.99 Q706.935 217.004 706.61 220.661 L721.796 220.638 Z" fill="#000000" fill-rule="nonzero" fill-opacity="1" /><path clip-path="url(#clip230)" d="M730.893 221.032 L743.37 221.032 L743.37 224.828 L730.893 224.828 L730.893 221.032 Z" fill="#000000" fill-rule="nonzero" fill-opacity="1" /><path clip-path="url(#clip230)" d="M760.754 204.434 Q757.143 204.434 755.314 207.999 Q753.508 211.541 753.508 218.67 Q753.508 225.777 755.314 229.342 Q757.143 232.883 760.754 232.883 Q764.388 232.883 766.193 229.342 Q768.022 225.777 768.022 218.67 Q768.022 211.541 766.193 207.999 Q764.388 204.434 760.754 204.434 M760.754 200.731 Q766.564 200.731 769.619 205.337 Q772.698 209.92 772.698 218.67 Q772.698 227.397 769.619 232.004 Q766.564 236.587 760.754 236.587 Q754.944 236.587 751.865 232.004 Q748.809 227.397 748.809 218.67 Q748.809 209.92 751.865 205.337 Q754.944 200.731 760.754 200.731 Z" fill="#000000" fill-rule="nonzero" fill-opacity="1" /><path clip-path="url(#clip230)" d="M779.735 201.356 L801.957 201.356 L801.957 203.346 L789.411 235.916 L784.527 235.916 L796.332 205.291 L779.735 205.291 L779.735 201.356 Z" fill="#000000" fill-rule="nonzero" fill-opacity="1" /><path clip-path="url(#clip230)" d="M343.483 291.212 L483.665 291.212 L483.665 249.74 L343.483 249.74 L343.483 291.212  Z" fill="#ff7e0d" fill-rule="evenodd" fill-opacity="0.45"/>
<polyline clip-path="url(#clip230)" style="stroke:#ff7e0d; stroke-linecap:round; stroke-linejoin:round; stroke-width:4; stroke-opacity:1; fill:none" points="343.483,249.74 483.665,249.74 "/>
<path clip-path="url(#clip230)" d="M522.653 269.122 Q526.01 269.839 527.885 272.108 Q529.783 274.376 529.783 277.709 Q529.783 282.825 526.264 285.626 Q522.746 288.427 516.264 288.427 Q514.088 288.427 511.774 287.987 Q509.482 287.571 507.028 286.714 L507.028 282.2 Q508.973 283.334 511.287 283.913 Q513.602 284.492 516.125 284.492 Q520.523 284.492 522.815 282.756 Q525.13 281.02 525.13 277.709 Q525.13 274.654 522.977 272.941 Q520.848 271.205 517.028 271.205 L513 271.205 L513 267.362 L517.213 267.362 Q520.662 267.362 522.491 265.997 Q524.32 264.608 524.32 262.015 Q524.32 259.353 522.422 257.941 Q520.547 256.506 517.028 256.506 Q515.107 256.506 512.908 256.923 Q510.709 257.339 508.07 258.219 L508.07 254.052 Q510.732 253.311 513.047 252.941 Q515.385 252.571 517.445 252.571 Q522.769 252.571 525.871 255.001 Q528.973 257.409 528.973 261.529 Q528.973 264.399 527.329 266.39 Q525.686 268.358 522.653 269.122 Z" fill="#000000" fill-rule="nonzero" fill-opacity="1" /><path clip-path="url(#clip230)" d="M538.648 281.876 L543.533 281.876 L543.533 287.756 L538.648 287.756 L538.648 281.876 Z" fill="#000000" fill-rule="nonzero" fill-opacity="1" /><path clip-path="url(#clip230)" d="M567.884 269.122 Q571.241 269.839 573.116 272.108 Q575.014 274.376 575.014 277.709 Q575.014 282.825 571.495 285.626 Q567.977 288.427 561.496 288.427 Q559.32 288.427 557.005 287.987 Q554.713 287.571 552.259 286.714 L552.259 282.2 Q554.204 283.334 556.519 283.913 Q558.833 284.492 561.357 284.492 Q565.755 284.492 568.046 282.756 Q570.361 281.02 570.361 277.709 Q570.361 274.654 568.208 272.941 Q566.079 271.205 562.259 271.205 L558.232 271.205 L558.232 267.362 L562.445 267.362 Q565.894 267.362 567.722 265.997 Q569.551 264.608 569.551 262.015 Q569.551 259.353 567.653 257.941 Q565.778 256.506 562.259 256.506 Q560.338 256.506 558.139 256.923 Q555.94 257.339 553.301 258.219 L553.301 254.052 Q555.963 253.311 558.278 252.941 Q560.616 252.571 562.676 252.571 Q568 252.571 571.102 255.001 Q574.204 257.409 574.204 261.529 Q574.204 264.399 572.56 266.39 Q570.917 268.358 567.884 269.122 Z" fill="#000000" fill-rule="nonzero" fill-opacity="1" /><path clip-path="url(#clip230)" d="M596.727 257.27 L584.921 275.719 L596.727 275.719 L596.727 257.27 M595.5 253.196 L601.38 253.196 L601.38 275.719 L606.31 275.719 L606.31 279.608 L601.38 279.608 L601.38 287.756 L596.727 287.756 L596.727 279.608 L581.125 279.608 L581.125 275.094 L595.5 253.196 Z" fill="#000000" fill-rule="nonzero" fill-opacity="1" /><path clip-path="url(#clip230)" d="M614.18 287.038 L614.18 282.779 Q615.94 283.612 617.745 284.052 Q619.551 284.492 621.287 284.492 Q625.916 284.492 628.347 281.39 Q630.801 278.265 631.148 271.922 Q629.805 273.913 627.745 274.978 Q625.685 276.043 623.185 276.043 Q618 276.043 614.967 272.918 Q611.958 269.77 611.958 264.33 Q611.958 259.006 615.106 255.788 Q618.254 252.571 623.486 252.571 Q629.481 252.571 632.629 257.177 Q635.801 261.76 635.801 270.51 Q635.801 278.682 631.912 283.566 Q628.046 288.427 621.495 288.427 Q619.736 288.427 617.93 288.08 Q616.125 287.733 614.18 287.038 M623.486 272.385 Q626.634 272.385 628.463 270.233 Q630.315 268.08 630.315 264.33 Q630.315 260.603 628.463 258.45 Q626.634 256.274 623.486 256.274 Q620.338 256.274 618.486 258.45 Q616.657 260.603 616.657 264.33 Q616.657 268.08 618.486 270.233 Q620.338 272.385 623.486 272.385 Z" fill="#000000" fill-rule="nonzero" fill-opacity="1" /><path clip-path="url(#clip230)" d="M654.782 268.612 Q651.634 268.612 649.782 270.765 Q647.953 272.918 647.953 276.668 Q647.953 280.395 649.782 282.571 Q651.634 284.723 654.782 284.723 Q657.93 284.723 659.759 282.571 Q661.611 280.395 661.611 276.668 Q661.611 272.918 659.759 270.765 Q657.93 268.612 654.782 268.612 M664.064 253.96 L664.064 258.219 Q662.305 257.386 660.5 256.946 Q658.717 256.506 656.958 256.506 Q652.328 256.506 649.875 259.631 Q647.444 262.756 647.097 269.075 Q648.463 267.061 650.523 265.997 Q652.583 264.909 655.06 264.909 Q660.268 264.909 663.277 268.08 Q666.31 271.228 666.31 276.668 Q666.31 281.992 663.162 285.209 Q660.013 288.427 654.782 288.427 Q648.787 288.427 645.615 283.844 Q642.444 279.237 642.444 270.51 Q642.444 262.316 646.333 257.455 Q650.222 252.571 656.773 252.571 Q658.532 252.571 660.314 252.918 Q662.12 253.265 664.064 253.96 Z" fill="#000000" fill-rule="nonzero" fill-opacity="1" /><path clip-path="url(#clip230)" d="M674.412 253.196 L692.768 253.196 L692.768 257.131 L678.694 257.131 L678.694 265.603 Q679.712 265.256 680.731 265.094 Q681.749 264.909 682.768 264.909 Q688.555 264.909 691.935 268.08 Q695.314 271.251 695.314 276.668 Q695.314 282.246 691.842 285.348 Q688.37 288.427 682.05 288.427 Q679.874 288.427 677.606 288.057 Q675.361 287.686 672.953 286.946 L672.953 282.246 Q675.037 283.381 677.259 283.936 Q679.481 284.492 681.958 284.492 Q685.962 284.492 688.3 282.385 Q690.638 280.279 690.638 276.668 Q690.638 273.057 688.3 270.95 Q685.962 268.844 681.958 268.844 Q680.083 268.844 678.208 269.26 Q676.356 269.677 674.412 270.557 L674.412 253.196 Z" fill="#000000" fill-rule="nonzero" fill-opacity="1" /><path clip-path="url(#clip230)" d="M726.101 273.728 L726.101 275.811 L706.518 275.811 Q706.796 280.209 709.157 282.524 Q711.541 284.816 715.777 284.816 Q718.231 284.816 720.522 284.214 Q722.837 283.612 725.106 282.409 L725.106 286.436 Q722.814 287.408 720.407 287.918 Q717.999 288.427 715.522 288.427 Q709.319 288.427 705.685 284.816 Q702.073 281.205 702.073 275.047 Q702.073 268.682 705.499 264.955 Q708.948 261.205 714.782 261.205 Q720.013 261.205 723.046 264.585 Q726.101 267.941 726.101 273.728 M721.842 272.478 Q721.796 268.983 719.874 266.899 Q717.976 264.816 714.828 264.816 Q711.263 264.816 709.11 266.83 Q706.981 268.844 706.657 272.501 L721.842 272.478 Z" fill="#000000" fill-rule="nonzero" fill-opacity="1" /><path clip-path="url(#clip230)" d="M730.939 272.872 L743.416 272.872 L743.416 276.668 L730.939 276.668 L730.939 272.872 Z" fill="#000000" fill-rule="nonzero" fill-opacity="1" /><path clip-path="url(#clip230)" d="M760.8 256.274 Q757.189 256.274 755.36 259.839 Q753.555 263.381 753.555 270.51 Q753.555 277.617 755.36 281.182 Q757.189 284.723 760.8 284.723 Q764.434 284.723 766.24 281.182 Q768.068 277.617 768.068 270.51 Q768.068 263.381 766.24 259.839 Q764.434 256.274 760.8 256.274 M760.8 252.571 Q766.61 252.571 769.666 257.177 Q772.744 261.76 772.744 270.51 Q772.744 279.237 769.666 283.844 Q766.61 288.427 760.8 288.427 Q754.99 288.427 751.911 283.844 Q748.856 279.237 748.856 270.51 Q748.856 261.76 751.911 257.177 Q754.99 252.571 760.8 252.571 Z" fill="#000000" fill-rule="nonzero" fill-opacity="1" /><path clip-path="url(#clip230)" d="M791.541 268.612 Q788.392 268.612 786.541 270.765 Q784.712 272.918 784.712 276.668 Q784.712 280.395 786.541 282.571 Q788.392 284.723 791.541 284.723 Q794.689 284.723 796.517 282.571 Q798.369 280.395 798.369 276.668 Q798.369 272.918 796.517 270.765 Q794.689 268.612 791.541 268.612 M800.823 253.96 L800.823 258.219 Q799.064 257.386 797.258 256.946 Q795.476 256.506 793.716 256.506 Q789.087 256.506 786.633 259.631 Q784.203 262.756 783.855 269.075 Q785.221 267.061 787.281 265.997 Q789.342 264.909 791.818 264.909 Q797.027 264.909 800.036 268.08 Q803.068 271.228 803.068 276.668 Q803.068 281.992 799.92 285.209 Q796.772 288.427 791.541 288.427 Q785.545 288.427 782.374 283.844 Q779.203 279.237 779.203 270.51 Q779.203 262.316 783.092 257.455 Q786.98 252.571 793.531 252.571 Q795.291 252.571 797.073 252.918 Q798.878 253.265 800.823 253.96 Z" fill="#000000" fill-rule="nonzero" fill-opacity="1" /><path clip-path="url(#clip230)" d="M343.483 343.052 L483.665 343.052 L483.665 301.58 L343.483 301.58 L343.483 343.052  Z" fill="#2ba02b" fill-rule="evenodd" fill-opacity="0.45"/>
<polyline clip-path="url(#clip230)" style="stroke:#2ba02b; stroke-linecap:round; stroke-linejoin:round; stroke-width:4; stroke-opacity:1; fill:none" points="343.483,301.58 483.665,301.58 "/>
<path clip-path="url(#clip230)" d="M512.653 335.661 L528.973 335.661 L528.973 339.596 L507.028 339.596 L507.028 335.661 Q509.69 332.906 514.274 328.276 Q518.88 323.624 520.061 322.281 Q522.306 319.758 523.186 318.022 Q524.088 316.263 524.088 314.573 Q524.088 311.818 522.144 310.082 Q520.223 308.346 517.121 308.346 Q514.922 308.346 512.468 309.11 Q510.037 309.874 507.26 311.425 L507.26 306.702 Q510.084 305.568 512.537 304.989 Q514.991 304.411 517.028 304.411 Q522.398 304.411 525.593 307.096 Q528.787 309.781 528.787 314.272 Q528.787 316.401 527.977 318.323 Q527.19 320.221 525.084 322.813 Q524.505 323.485 521.403 326.702 Q518.301 329.897 512.653 335.661 Z" fill="#000000" fill-rule="nonzero" fill-opacity="1" /><path clip-path="url(#clip230)" d="M538.787 333.716 L543.672 333.716 L543.672 339.596 L538.787 339.596 L538.787 333.716 Z" fill="#000000" fill-rule="nonzero" fill-opacity="1" /><path clip-path="url(#clip230)" d="M557.884 335.661 L574.204 335.661 L574.204 339.596 L552.259 339.596 L552.259 335.661 Q554.921 332.906 559.505 328.276 Q564.111 323.624 565.292 322.281 Q567.537 319.758 568.417 318.022 Q569.32 316.263 569.32 314.573 Q569.32 311.818 567.375 310.082 Q565.454 308.346 562.352 308.346 Q560.153 308.346 557.699 309.11 Q555.269 309.874 552.491 311.425 L552.491 306.702 Q555.315 305.568 557.769 304.989 Q560.222 304.411 562.259 304.411 Q567.63 304.411 570.824 307.096 Q574.019 309.781 574.019 314.272 Q574.019 316.401 573.208 318.323 Q572.421 320.221 570.315 322.813 Q569.736 323.485 566.634 326.702 Q563.533 329.897 557.884 335.661 Z" fill="#000000" fill-rule="nonzero" fill-opacity="1" /><path clip-path="url(#clip230)" d="M598.185 320.962 Q601.542 321.679 603.417 323.948 Q605.315 326.216 605.315 329.549 Q605.315 334.665 601.796 337.466 Q598.278 340.267 591.796 340.267 Q589.62 340.267 587.306 339.827 Q585.014 339.411 582.56 338.554 L582.56 334.04 Q584.505 335.174 586.819 335.753 Q589.134 336.332 591.657 336.332 Q596.056 336.332 598.347 334.596 Q600.662 332.86 600.662 329.549 Q600.662 326.494 598.509 324.781 Q596.38 323.045 592.56 323.045 L588.532 323.045 L588.532 319.202 L592.745 319.202 Q596.194 319.202 598.023 317.837 Q599.852 316.448 599.852 313.855 Q599.852 311.193 597.954 309.781 Q596.079 308.346 592.56 308.346 Q590.639 308.346 588.44 308.763 Q586.241 309.179 583.602 310.059 L583.602 305.892 Q586.264 305.151 588.579 304.781 Q590.917 304.411 592.977 304.411 Q598.301 304.411 601.403 306.841 Q604.505 309.249 604.505 313.369 Q604.505 316.239 602.861 318.23 Q601.218 320.198 598.185 320.962 Z" fill="#000000" fill-rule="nonzero" fill-opacity="1" /><path clip-path="url(#clip230)" d="M624.18 323.184 Q620.847 323.184 618.926 324.966 Q617.028 326.749 617.028 329.874 Q617.028 332.999 618.926 334.781 Q620.847 336.563 624.18 336.563 Q627.514 336.563 629.435 334.781 Q631.356 332.975 631.356 329.874 Q631.356 326.749 629.435 324.966 Q627.537 323.184 624.18 323.184 M619.504 321.193 Q616.495 320.452 614.805 318.392 Q613.139 316.332 613.139 313.369 Q613.139 309.226 616.079 306.818 Q619.041 304.411 624.18 304.411 Q629.342 304.411 632.282 306.818 Q635.222 309.226 635.222 313.369 Q635.222 316.332 633.532 318.392 Q631.865 320.452 628.879 321.193 Q632.259 321.98 634.134 324.272 Q636.032 326.563 636.032 329.874 Q636.032 334.897 632.953 337.582 Q629.898 340.267 624.18 340.267 Q618.463 340.267 615.384 337.582 Q612.329 334.897 612.329 329.874 Q612.329 326.563 614.227 324.272 Q616.125 321.98 619.504 321.193 M617.791 313.809 Q617.791 316.494 619.458 317.999 Q621.148 319.503 624.18 319.503 Q627.19 319.503 628.879 317.999 Q630.592 316.494 630.592 313.809 Q630.592 311.124 628.879 309.619 Q627.19 308.114 624.18 308.114 Q621.148 308.114 619.458 309.619 Q617.791 311.124 617.791 313.809 Z" fill="#000000" fill-rule="nonzero" fill-opacity="1" /><path clip-path="url(#clip230)" d="M643.162 305.036 L665.384 305.036 L665.384 307.026 L652.838 339.596 L647.953 339.596 L659.759 308.971 L643.162 308.971 L643.162 305.036 Z" fill="#000000" fill-rule="nonzero" fill-opacity="1" /><path clip-path="url(#clip230)" d="M678.532 335.661 L694.851 335.661 L694.851 339.596 L672.907 339.596 L672.907 335.661 Q675.569 332.906 680.152 328.276 Q684.759 323.624 685.939 322.281 Q688.185 319.758 689.064 318.022 Q689.967 316.263 689.967 314.573 Q689.967 311.818 688.023 310.082 Q686.101 308.346 682.999 308.346 Q680.8 308.346 678.347 309.11 Q675.916 309.874 673.138 311.425 L673.138 306.702 Q675.962 305.568 678.416 304.989 Q680.87 304.411 682.907 304.411 Q688.277 304.411 691.472 307.096 Q694.666 309.781 694.666 314.272 Q694.666 316.401 693.856 318.323 Q693.069 320.221 690.962 322.813 Q690.384 323.485 687.282 326.702 Q684.18 329.897 678.532 335.661 Z" fill="#000000" fill-rule="nonzero" fill-opacity="1" /><path clip-path="url(#clip230)" d="M726.24 325.568 L726.24 327.651 L706.657 327.651 Q706.935 332.049 709.296 334.364 Q711.68 336.656 715.916 336.656 Q718.37 336.656 720.661 336.054 Q722.976 335.452 725.245 334.249 L725.245 338.276 Q722.953 339.248 720.546 339.758 Q718.138 340.267 715.661 340.267 Q709.458 340.267 705.823 336.656 Q702.212 333.045 702.212 326.887 Q702.212 320.522 705.638 316.795 Q709.087 313.045 714.921 313.045 Q720.152 313.045 723.184 316.425 Q726.24 319.781 726.24 325.568 M721.981 324.318 Q721.934 320.823 720.013 318.739 Q718.115 316.656 714.967 316.656 Q711.402 316.656 709.249 318.67 Q707.12 320.684 706.796 324.341 L721.981 324.318 Z" fill="#000000" fill-rule="nonzero" fill-opacity="1" /><path clip-path="url(#clip230)" d="M731.078 324.712 L743.555 324.712 L743.555 328.508 L731.078 328.508 L731.078 324.712 Z" fill="#000000" fill-rule="nonzero" fill-opacity="1" /><path clip-path="url(#clip230)" d="M760.939 308.114 Q757.328 308.114 755.499 311.679 Q753.694 315.221 753.694 322.35 Q753.694 329.457 755.499 333.022 Q757.328 336.563 760.939 336.563 Q764.573 336.563 766.379 333.022 Q768.207 329.457 768.207 322.35 Q768.207 315.221 766.379 311.679 Q764.573 308.114 760.939 308.114 M760.939 304.411 Q766.749 304.411 769.805 309.017 Q772.883 313.6 772.883 322.35 Q772.883 331.077 769.805 335.684 Q766.749 340.267 760.939 340.267 Q755.129 340.267 752.05 335.684 Q748.994 331.077 748.994 322.35 Q748.994 313.6 752.05 309.017 Q755.129 304.411 760.939 304.411 Z" fill="#000000" fill-rule="nonzero" fill-opacity="1" /><path clip-path="url(#clip230)" d="M781.147 305.036 L799.503 305.036 L799.503 308.971 L785.429 308.971 L785.429 317.443 Q786.448 317.096 787.467 316.934 Q788.485 316.749 789.504 316.749 Q795.291 316.749 798.67 319.92 Q802.05 323.091 802.05 328.508 Q802.05 334.086 798.578 337.188 Q795.105 340.267 788.786 340.267 Q786.61 340.267 784.342 339.897 Q782.096 339.526 779.689 338.786 L779.689 334.086 Q781.772 335.221 783.994 335.776 Q786.217 336.332 788.693 336.332 Q792.698 336.332 795.036 334.225 Q797.374 332.119 797.374 328.508 Q797.374 324.897 795.036 322.79 Q792.698 320.684 788.693 320.684 Q786.818 320.684 784.943 321.1 Q783.092 321.517 781.147 322.397 L781.147 305.036 Z" fill="#000000" fill-rule="nonzero" fill-opacity="1" /><path clip-path="url(#clip230)" d="M343.483 394.892 L483.665 394.892 L483.665 353.42 L343.483 353.42 L343.483 394.892  Z" fill="#d52628" fill-rule="evenodd" fill-opacity="0.45"/>
<polyline clip-path="url(#clip230)" style="stroke:#d52628; stroke-linecap:round; stroke-linejoin:round; stroke-width:4; stroke-opacity:1; fill:none" points="343.483,353.42 483.665,353.42 "/>
<path clip-path="url(#clip230)" d="M518.973 359.954 Q515.361 359.954 513.533 363.519 Q511.727 367.061 511.727 374.19 Q511.727 381.297 513.533 384.862 Q515.361 388.403 518.973 388.403 Q522.607 388.403 524.412 384.862 Q526.241 381.297 526.241 374.19 Q526.241 367.061 524.412 363.519 Q522.607 359.954 518.973 359.954 M518.973 356.251 Q524.783 356.251 527.838 360.857 Q530.917 365.44 530.917 374.19 Q530.917 382.917 527.838 387.524 Q524.783 392.107 518.973 392.107 Q513.162 392.107 510.084 387.524 Q507.028 382.917 507.028 374.19 Q507.028 365.44 510.084 360.857 Q513.162 356.251 518.973 356.251 Z" fill="#000000" fill-rule="nonzero" fill-opacity="1" /><path clip-path="url(#clip230)" d="M539.135 385.556 L544.019 385.556 L544.019 391.436 L539.135 391.436 L539.135 385.556 Z" fill="#000000" fill-rule="nonzero" fill-opacity="1" /><path clip-path="url(#clip230)" d="M564.204 359.954 Q560.593 359.954 558.764 363.519 Q556.958 367.061 556.958 374.19 Q556.958 381.297 558.764 384.862 Q560.593 388.403 564.204 388.403 Q567.838 388.403 569.644 384.862 Q571.472 381.297 571.472 374.19 Q571.472 367.061 569.644 363.519 Q567.838 359.954 564.204 359.954 M564.204 356.251 Q570.014 356.251 573.07 360.857 Q576.148 365.44 576.148 374.19 Q576.148 382.917 573.07 387.524 Q570.014 392.107 564.204 392.107 Q558.394 392.107 555.315 387.524 Q552.259 382.917 552.259 374.19 Q552.259 365.44 555.315 360.857 Q558.394 356.251 564.204 356.251 Z" fill="#000000" fill-rule="nonzero" fill-opacity="1" /><path clip-path="url(#clip230)" d="M594.366 359.954 Q590.755 359.954 588.926 363.519 Q587.12 367.061 587.12 374.19 Q587.12 381.297 588.926 384.862 Q590.755 388.403 594.366 388.403 Q598 388.403 599.805 384.862 Q601.634 381.297 601.634 374.19 Q601.634 367.061 599.805 363.519 Q598 359.954 594.366 359.954 M594.366 356.251 Q600.176 356.251 603.231 360.857 Q606.31 365.44 606.31 374.19 Q606.31 382.917 603.231 387.524 Q600.176 392.107 594.366 392.107 Q588.556 392.107 585.477 387.524 Q582.421 382.917 582.421 374.19 Q582.421 365.44 585.477 360.857 Q588.556 356.251 594.366 356.251 Z" fill="#000000" fill-rule="nonzero" fill-opacity="1" /><path clip-path="url(#clip230)" d="M624.528 359.954 Q620.916 359.954 619.088 363.519 Q617.282 367.061 617.282 374.19 Q617.282 381.297 619.088 384.862 Q620.916 388.403 624.528 388.403 Q628.162 388.403 629.967 384.862 Q631.796 381.297 631.796 374.19 Q631.796 367.061 629.967 363.519 Q628.162 359.954 624.528 359.954 M624.528 356.251 Q630.338 356.251 633.393 360.857 Q636.472 365.44 636.472 374.19 Q636.472 382.917 633.393 387.524 Q630.338 392.107 624.528 392.107 Q618.717 392.107 615.639 387.524 Q612.583 382.917 612.583 374.19 Q612.583 365.44 615.639 360.857 Q618.717 356.251 624.528 356.251 Z" fill="#000000" fill-rule="nonzero" fill-opacity="1" /><path clip-path="url(#clip230)" d="M645.5 387.501 L653.139 387.501 L653.139 361.135 L644.828 362.802 L644.828 358.542 L653.092 356.876 L657.768 356.876 L657.768 387.501 L665.407 387.501 L665.407 391.436 L645.5 391.436 L645.5 387.501 Z" fill="#000000" fill-rule="nonzero" fill-opacity="1" /><path clip-path="url(#clip230)" d="M687.699 360.95 L675.893 379.399 L687.699 379.399 L687.699 360.95 M686.472 356.876 L692.351 356.876 L692.351 379.399 L697.282 379.399 L697.282 383.288 L692.351 383.288 L692.351 391.436 L687.699 391.436 L687.699 383.288 L672.097 383.288 L672.097 378.774 L686.472 356.876 Z" fill="#000000" fill-rule="nonzero" fill-opacity="1" /><path clip-path="url(#clip230)" d="M705.152 390.718 L705.152 386.459 Q706.911 387.292 708.717 387.732 Q710.522 388.172 712.259 388.172 Q716.888 388.172 719.319 385.07 Q721.772 381.945 722.12 375.602 Q720.777 377.593 718.717 378.658 Q716.657 379.723 714.157 379.723 Q708.972 379.723 705.939 376.598 Q702.93 373.45 702.93 368.01 Q702.93 362.686 706.078 359.468 Q709.226 356.251 714.458 356.251 Q720.453 356.251 723.601 360.857 Q726.772 365.44 726.772 374.19 Q726.772 382.362 722.884 387.246 Q719.018 392.107 712.467 392.107 Q710.708 392.107 708.902 391.76 Q707.097 391.413 705.152 390.718 M714.458 376.065 Q717.606 376.065 719.434 373.913 Q721.286 371.76 721.286 368.01 Q721.286 364.283 719.434 362.13 Q717.606 359.954 714.458 359.954 Q711.31 359.954 709.458 362.13 Q707.629 364.283 707.629 368.01 Q707.629 371.76 709.458 373.913 Q711.31 376.065 714.458 376.065 Z" fill="#000000" fill-rule="nonzero" fill-opacity="1" /><path clip-path="url(#clip230)" d="M745.754 372.292 Q742.606 372.292 740.754 374.445 Q738.925 376.598 738.925 380.348 Q738.925 384.075 740.754 386.251 Q742.606 388.403 745.754 388.403 Q748.902 388.403 750.731 386.251 Q752.582 384.075 752.582 380.348 Q752.582 376.598 750.731 374.445 Q748.902 372.292 745.754 372.292 M755.036 357.64 L755.036 361.899 Q753.277 361.066 751.471 360.626 Q749.689 360.186 747.93 360.186 Q743.3 360.186 740.846 363.311 Q738.416 366.436 738.069 372.755 Q739.434 370.741 741.495 369.677 Q743.555 368.589 746.032 368.589 Q751.24 368.589 754.249 371.76 Q757.281 374.908 757.281 380.348 Q757.281 385.672 754.133 388.889 Q750.985 392.107 745.754 392.107 Q739.758 392.107 736.587 387.524 Q733.416 382.917 733.416 374.19 Q733.416 365.996 737.305 361.135 Q741.194 356.251 747.745 356.251 Q749.504 356.251 751.286 356.598 Q753.092 356.945 755.036 357.64 Z" fill="#000000" fill-rule="nonzero" fill-opacity="1" /><path clip-path="url(#clip230)" d="M769.365 387.501 L785.684 387.501 L785.684 391.436 L763.74 391.436 L763.74 387.501 Q766.402 384.746 770.985 380.116 Q775.592 375.464 776.772 374.121 Q779.017 371.598 779.897 369.862 Q780.8 368.103 780.8 366.413 Q780.8 363.658 778.855 361.922 Q776.934 360.186 773.832 360.186 Q771.633 360.186 769.18 360.95 Q766.749 361.714 763.971 363.265 L763.971 358.542 Q766.795 357.408 769.249 356.829 Q771.703 356.251 773.74 356.251 Q779.11 356.251 782.305 358.936 Q785.499 361.621 785.499 366.112 Q785.499 368.241 784.689 370.163 Q783.902 372.061 781.795 374.653 Q781.217 375.325 778.115 378.542 Q775.013 381.737 769.365 387.501 Z" fill="#000000" fill-rule="nonzero" fill-opacity="1" /><path clip-path="url(#clip230)" d="M808.346 360.95 L796.541 379.399 L808.346 379.399 L808.346 360.95 M807.119 356.876 L812.999 356.876 L812.999 379.399 L817.929 379.399 L817.929 383.288 L812.999 383.288 L812.999 391.436 L808.346 391.436 L808.346 383.288 L792.744 383.288 L792.744 378.774 L807.119 356.876 Z" fill="#000000" fill-rule="nonzero" fill-opacity="1" /><path clip-path="url(#clip230)" d="M343.483 446.732 L483.665 446.732 L483.665 405.26 L343.483 405.26 L343.483 446.732  Z" fill="#9466bd" fill-rule="evenodd" fill-opacity="0.45"/>
<polyline clip-path="url(#clip230)" style="stroke:#9466bd; stroke-linecap:round; stroke-linejoin:round; stroke-width:4; stroke-opacity:1; fill:none" points="343.483,405.26 483.665,405.26 "/>
<path clip-path="url(#clip230)" d="M518.973 411.794 Q515.361 411.794 513.533 415.359 Q511.727 418.901 511.727 426.03 Q511.727 433.137 513.533 436.702 Q515.361 440.243 518.973 440.243 Q522.607 440.243 524.412 436.702 Q526.241 433.137 526.241 426.03 Q526.241 418.901 524.412 415.359 Q522.607 411.794 518.973 411.794 M518.973 408.091 Q524.783 408.091 527.838 412.697 Q530.917 417.28 530.917 426.03 Q530.917 434.757 527.838 439.364 Q524.783 443.947 518.973 443.947 Q513.162 443.947 510.084 439.364 Q507.028 434.757 507.028 426.03 Q507.028 417.28 510.084 412.697 Q513.162 408.091 518.973 408.091 Z" fill="#000000" fill-rule="nonzero" fill-opacity="1" /><path clip-path="url(#clip230)" d="M539.135 437.396 L544.019 437.396 L544.019 443.276 L539.135 443.276 L539.135 437.396 Z" fill="#000000" fill-rule="nonzero" fill-opacity="1" /><path clip-path="url(#clip230)" d="M564.204 411.794 Q560.593 411.794 558.764 415.359 Q556.958 418.901 556.958 426.03 Q556.958 433.137 558.764 436.702 Q560.593 440.243 564.204 440.243 Q567.838 440.243 569.644 436.702 Q571.472 433.137 571.472 426.03 Q571.472 418.901 569.644 415.359 Q567.838 411.794 564.204 411.794 M564.204 408.091 Q570.014 408.091 573.07 412.697 Q576.148 417.28 576.148 426.03 Q576.148 434.757 573.07 439.364 Q570.014 443.947 564.204 443.947 Q558.394 443.947 555.315 439.364 Q552.259 434.757 552.259 426.03 Q552.259 417.28 555.315 412.697 Q558.394 408.091 564.204 408.091 Z" fill="#000000" fill-rule="nonzero" fill-opacity="1" /><path clip-path="url(#clip230)" d="M594.366 411.794 Q590.755 411.794 588.926 415.359 Q587.12 418.901 587.12 426.03 Q587.12 433.137 588.926 436.702 Q590.755 440.243 594.366 440.243 Q598 440.243 599.805 436.702 Q601.634 433.137 601.634 426.03 Q601.634 418.901 599.805 415.359 Q598 411.794 594.366 411.794 M594.366 408.091 Q600.176 408.091 603.231 412.697 Q606.31 417.28 606.31 426.03 Q606.31 434.757 603.231 439.364 Q600.176 443.947 594.366 443.947 Q588.556 443.947 585.477 439.364 Q582.421 434.757 582.421 426.03 Q582.421 417.28 585.477 412.697 Q588.556 408.091 594.366 408.091 Z" fill="#000000" fill-rule="nonzero" fill-opacity="1" /><path clip-path="url(#clip230)" d="M615.338 439.341 L622.977 439.341 L622.977 412.975 L614.667 414.642 L614.667 410.382 L622.93 408.716 L627.606 408.716 L627.606 439.341 L635.245 439.341 L635.245 443.276 L615.338 443.276 L615.338 439.341 Z" fill="#000000" fill-rule="nonzero" fill-opacity="1" /></svg>
