<svg class="main-svg" xmlns="http://www.w3.org/2000/svg" xmlns:xlink="http://www.w3.org/1999/xlink" width="700" height="500" style="" viewBox="0 0 700 500"><rect x="0" y="0" width="700" height="500" style="fill: rgb(255, 255, 255); fill-opacity: 1;"/><defs id="defs-f45c9a"><g class="clips"><clipPath id="clipf45c9axyplot" class="plotclip"><rect width="506" height="387"/></clipPath><clipPath class="axesclip" id="clipf45c9ax"><rect x="57" y="0" width="506" height="500"/></clipPath><clipPath class="axesclip" id="clipf45c9ay"><rect x="0" y="60" width="700" height="387"/></clipPath><clipPath class="axesclip" id="clipf45c9axy"><rect x="57" y="60" width="506" height="387"/></clipPath></g><g class="gradients"/></defs><g class="bglayer"><rect class="bg" x="57" y="60" width="506" height="387" style="fill: rgb(229, 236, 246); fill-opacity: 1; stroke-width: 0;"/></g><g class="layer-below"><g class="imagelayer"/><g class="shapelayer"/></g><g class="cartesianlayer"><g class="subplot xy"><g class="layer-subplot"><g class="shapelayer"/><g class="imagelayer"/></g><g class="gridlayer"><g class="x"><path class="xgrid crisp" transform="translate(141.32999999999998,0)" d="M0,60v387" style="stroke: rgb(255, 255, 255); stroke-opacity: 1; stroke-width: 1px;"/><path class="xgrid crisp" transform="translate(225.67,0)" d="M0,60v387" style="stroke: rgb(255, 255, 255); stroke-opacity: 1; stroke-width: 1px;"/><path class="xgrid crisp" transform="translate(310,0)" d="M0,60v387" style="stroke: rgb(255, 255, 255); stroke-opacity: 1; stroke-width: 1px;"/><path class="xgrid crisp" transform="translate(394.33,0)" d="M0,60v387" style="stroke: rgb(255, 255, 255); stroke-opacity: 1; stroke-width: 1px;"/><path class="xgrid crisp" transform="translate(478.67,0)" d="M0,60v387" style="stroke: rgb(255, 255, 255); stroke-opacity: 1; stroke-width: 1px;"/></g><g class="y"><path class="ygrid crisp" transform="translate(0,372.83)" d="M57,0h506" style="stroke: rgb(255, 255, 255); stroke-opacity: 1; stroke-width: 1px;"/><path class="ygrid crisp" transform="translate(0,316.38)" d="M57,0h506" style="stroke: rgb(255, 255, 255); stroke-opacity: 1; stroke-width: 1px;"/><path class="ygrid crisp" transform="translate(0,259.94)" d="M57,0h506" style="stroke: rgb(255, 255, 255); stroke-opacity: 1; stroke-width: 1px;"/><path class="ygrid crisp" transform="translate(0,203.49)" d="M57,0h506" style="stroke: rgb(255, 255, 255); stroke-opacity: 1; stroke-width: 1px;"/><path class="ygrid crisp" transform="translate(0,147.04000000000002)" d="M57,0h506" style="stroke: rgb(255, 255, 255); stroke-opacity: 1; stroke-width: 1px;"/><path class="ygrid crisp" transform="translate(0,90.6)" d="M57,0h506" style="stroke: rgb(255, 255, 255); stroke-opacity: 1; stroke-width: 1px;"/></g></g><g class="zerolinelayer"><path class="xzl zl crisp" transform="translate(57,0)" d="M0,60v387" style="stroke: rgb(255, 255, 255); stroke-opacity: 1; stroke-width: 2px;"/><path class="yzl zl crisp" transform="translate(0,429.28)" d="M57,0h506" style="stroke: rgb(255, 255, 255); stroke-opacity: 1; stroke-width: 2px;"/></g><path class="xlines-below"/><path class="ylines-below"/><g class="overlines-below"/><g class="xaxislayer-below"/><g class="yaxislayer-below"/><g class="overaxes-below"/><g class="plot" transform="translate(57,60)" clip-path="url('#clipf45c9axyplot')"><g class="scatterlayer mlayer"><g class="trace scatter trace32bc58" style="stroke-miterlimit: 2; opacity: 1;"><g class="fills"/><g class="errorbars"/><g class="lines"><path class="js-line" d="M0,19.35L1.1,21.06L1.85,21.72L6.84,24.2L9.13,24.98L25.49,29.07L27.84,29.59L74.88,40.69L77.23,41.31L114.64,52.1L116.97,52.82L156.49,65.8L158.8,66.6L198.04,81.22L200.34,82.13L234.6,96.84L236.87,97.9L261.63,110.26L263.86,111.47L283.72,123.09L285.9,124.48L300.9,134.94L303,136.56L315.27,147.08L317.24,149L326.61,159.52L328.36,161.84L334.63,172.1L335.96,174.94L339.06,184.16L339.71,187.45L340.33,194.94" style="vector-effect: non-scaling-stroke; fill: none; stroke: rgb(255, 0, 0); stroke-opacity: 1; stroke-width: 3px; opacity: 1;"/></g><g class="points"/><g class="text"/></g><g class="trace scatter tracefce4df" style="stroke-miterlimit: 2; opacity: 1;"><g class="fills"/><g class="errorbars"/><g class="lines"><path class="js-line" d="M340.33,194.94L339.22,205.04L338.4,208.26L334.94,217.22L333.53,219.97L327.04,229.96L325.26,232.24L315.79,242.59L313.81,244.48L301.52,254.95L299.42,256.56L282.25,268.47L280.07,269.85L260.21,281.49L257.98,282.7L233.26,295.28L231,296.36L201.43,309.74L199.15,310.72L146.41,332.48L144.11,333.42L118.98,344.54L116.73,345.72L110.11,349.9L108.06,351.92L107.22,354.02" style="vector-effect: non-scaling-stroke; fill: none; stroke: rgb(255, 0, 0); stroke-opacity: 1; stroke-width: 3px; opacity: 1; stroke-dasharray: 9px, 9px;"/></g><g class="points"/><g class="text"/></g><g class="trace scatter trace722db6" style="stroke-miterlimit: 2; opacity: 1;"><g class="fills"/><g class="errorbars"/><g class="lines"><path class="js-line" d="M107.22,354.02L108.08,355.86L109.05,356.64L114.71,358.82L117.04,359.37L131.06,361.41L133.39,361.65L163.61,363.63L165.92,363.73L218.87,365.31L221.16,365.36L351.28,366.9L353.56,366.91L506,367.64" style="vector-effect: non-scaling-stroke; fill: none; stroke: rgb(255, 0, 0); stroke-opacity: 1; stroke-width: 3px; opacity: 1;"/></g><g class="points"/><g class="text"/></g><g class="trace scatter tracee83616" style="stroke-miterlimit: 2; opacity: 1;"><g class="fills"/><g class="errorbars"/><g class="lines"><path class="js-line" d="M0,19.35L0.6,54.67L0.84,58.02L2.27,67.97L3.08,71.18L6.79,79.92L8.39,82.46L13.95,88.9L15.97,90.73L24.49,96.86L26.69,98.18L40.2,104.88L42.49,105.86L60.96,112.7L63.28,113.47L88.96,121.14L91.3,121.79L147.66,136.14L150.01,136.72L208.68,151.93L211.02,152.59L241.33,161.94L243.65,162.74L264.4,170.58L266.69,171.54L282.52,179.11L284.75,180.33L295.66,187.2L297.78,188.76L305.87,195.97L307.75,198.08L312.71,205.45L314.01,208.34L315.7,214.77L315.95,218.21L315.95,218.5" style="vector-effect: non-scaling-stroke; fill: none; stroke: rgb(255, 140, 0); stroke-opacity: 1; stroke-width: 3px; opacity: 1;"/></g><g class="points"/><g class="text"/></g><g class="trace scatter traceeb78c1" style="stroke-miterlimit: 2; opacity: 1;"><g class="fills"/><g class="errorbars"/><g class="lines"><path class="js-line" d="M315.95,218.5L315.15,225.25L314.24,228.44L310.23,236.93L308.62,239.46L301.43,248.41L299.51,250.43L289.44,259.57L287.37,261.25L272.46,271.98L270.29,273.4L250.47,285.18L248.24,286.4L223.52,298.99L221.26,300.07L187.11,315.35L184.82,316.32L118.45,344.64L116.19,345.83L109.59,350.12L107.59,352.28L107.03,353.98" style="vector-effect: non-scaling-stroke; fill: none; stroke: rgb(255, 140, 0); stroke-opacity: 1; stroke-width: 3px; opacity: 1; stroke-dasharray: 9px, 9px;"/></g><g class="points"/><g class="text"/></g><g class="trace scatter trace46188f" style="stroke-miterlimit: 2; opacity: 1;"><g class="fills"/><g class="errorbars"/><g class="lines"><path class="js-line" d="M107.03,353.98L107.81,355.76L109.35,356.91L115.93,359.15L118.26,359.64L132.27,361.55L134.6,361.77L162.49,363.58L164.8,363.68L220.02,365.34L222.31,365.38L311.2,366.58L313.47,366.6L506,367.64" style="vector-effect: non-scaling-stroke; fill: none; stroke: rgb(255, 140, 0); stroke-opacity: 1; stroke-width: 3px; opacity: 1;"/></g><g class="points"/><g class="text"/></g><g class="trace scatter traceb3840a" style="stroke-miterlimit: 2; opacity: 1;"><g class="fills"/><g class="errorbars"/><g class="lines"><path class="js-line" d="M0,19.35L1.15,21.13L1.92,21.8L6.96,24.31L9.27,25.09L25.67,29.24L28.03,29.77L72.78,40.41L75.13,41.04L110.27,51.2L112.61,51.92L152.23,64.99L154.55,65.8L191.61,79.63L193.92,80.55L226.06,94.24L228.34,95.29L253.3,107.54L255.55,108.73L275.64,120.21L277.84,121.58L295.24,133.46L297.37,135.08L309.86,145.64L311.88,147.57L321.53,158.16L323.35,160.52L329.94,170.96L331.35,173.87L334.72,183.44L335.45,186.9L336.15,194.96" style="vector-effect: non-scaling-stroke; fill: none; stroke: rgb(255, 215, 0); stroke-opacity: 1; stroke-width: 3px; opacity: 1;"/></g><g class="points"/><g class="text"/></g><g class="trace scatter tracee5cc4c" style="stroke-miterlimit: 2; opacity: 1;"><g class="fills"/><g class="errorbars"/><g class="lines"><path class="js-line" d="M336.15,194.96L335.59,202.15L334.92,205.64L331.69,215.34L330.31,218.29L325.56,226.41L323.83,228.89L316.39,237.96L314.44,240.04L304.32,249.6L302.24,251.37L287.33,262.74L285.16,264.24L267.57,275.44L265.34,276.75L242.91,289.04L240.65,290.19L211.07,304.36L208.78,305.39L169.74,322.13L167.44,323.08L119.1,343.76L116.82,344.92L110.06,348.94L107.89,350.69L105.96,354" style="vector-effect: non-scaling-stroke; fill: none; stroke: rgb(255, 215, 0); stroke-opacity: 1; stroke-width: 3px; opacity: 1; stroke-dasharray: 9px, 9px;"/></g><g class="points"/><g class="text"/></g><g class="trace scatter trace01b0dc" style="stroke-miterlimit: 2; opacity: 1;"><g class="fills"/><g class="errorbars"/><g class="lines"><path class="js-line" d="M105.96,354L107,356.03L107.92,356.72L113.33,358.8L115.54,359.33L128.89,361.33L131.12,361.56L155.49,363.31L157.7,363.42L203.88,365.01L206.08,365.07L301.23,366.5L303.47,366.52L506,367.64" style="vector-effect: non-scaling-stroke; fill: none; stroke: rgb(255, 215, 0); stroke-opacity: 1; stroke-width: 3px; opacity: 1;"/></g><g class="points"/><g class="text"/></g><g class="trace scatter tracee37b13" style="stroke-miterlimit: 2; opacity: 1;"><g class="fills"/><g class="errorbars"/><g class="lines"><path class="js-line" d="M0,19.35L1.39,22.34L2.39,23.37L8.26,26.99L10.51,28.06L37.75,40.92L39.99,42.13L59.97,53.9L62.17,55.29L83.9,70.04L86.05,71.61L105.08,86.48L107.16,88.24L121.46,101.18L123.46,103.14L137.03,117.72L138.9,119.95L149.58,134.23L151.25,136.78L158.98,150.4L160.37,153.31L165.24,165.62L166.25,168.87L169.24,182.46L169.69,185.98L170.25,196.22" style="vector-effect: non-scaling-stroke; fill: none; stroke: rgb(0, 128, 0); stroke-opacity: 1; stroke-width: 3px; opacity: 1;"/></g><g class="points"/><g class="text"/></g><g class="trace scatter trace834e43" style="stroke-miterlimit: 2; opacity: 1;"><g class="fills"/><g class="errorbars"/><g class="lines"><path class="js-line" d="M170.25,196.22L169.64,206.92L169.18,210.44L166.16,224.02L165.16,227.27L160.34,239.63L158.96,242.56L151.35,256.35L149.71,258.94L139.24,273.59L137.42,275.9L124.17,291.17L122.23,293.25L102.36,313.1L100.34,315.04L82.42,332.93L80.52,335.14L76.92,339.97L75.36,342.83L74.32,347.08" style="vector-effect: non-scaling-stroke; fill: none; stroke: rgb(0, 128, 0); stroke-opacity: 1; stroke-width: 3px; opacity: 1; stroke-dasharray: 9px, 9px;"/></g><g class="points"/><g class="text"/></g><g class="trace scatter trace996895" style="stroke-miterlimit: 2; opacity: 1;"><g class="fills"/><g class="errorbars"/><g class="lines"><path class="js-line" d="M74.32,347.08L74.88,349.72L77.04,352.47L81.67,355.16L84,356.04L93.42,358.43L95.78,358.86L114.64,361.22L116.99,361.43L147.45,363.35L149.79,363.46L207.76,365.22L210.07,365.26L301.92,366.53L304.21,366.55L506,367.65" style="vector-effect: non-scaling-stroke; fill: none; stroke: rgb(0, 128, 0); stroke-opacity: 1; stroke-width: 3px; opacity: 1;"/></g><g class="points"/><g class="text"/></g><g class="trace scatter trace044250" style="stroke-miterlimit: 2; opacity: 1;"><g class="fills"/><g class="errorbars"/><g class="lines"><path class="js-line" d="M0,19.35L0.81,21.55L1.48,22.47L4.08,24.68L6.28,26.01L19.93,32.32L22.22,33.36L40.31,42.46L42.55,43.7L62.47,55.74L64.66,57.16L84.18,70.63L86.32,72.2L105.32,87.23L107.4,89.01L123.64,104.08L125.61,106.09L137.14,118.86L139,121.12L147.89,133.08L149.57,135.62L157.39,149.17L158.81,152.07L163.79,164.32L164.83,167.55L167.99,181.1L168.49,184.62L169.21,196.23" style="vector-effect: non-scaling-stroke; fill: none; stroke: rgb(255, 192, 203); stroke-opacity: 1; stroke-width: 3px; opacity: 1;"/></g><g class="points"/><g class="text"/></g><g class="trace scatter tracefbbe8a" style="stroke-miterlimit: 2; opacity: 1;"><g class="fills"/><g class="errorbars"/><g class="lines"><path class="js-line" d="M169.21,196.23L168.6,206.97L168.13,210.5L165.12,224.13L164.11,227.39L159.29,239.79L157.91,242.73L150.3,256.56L148.66,259.16L138.18,273.86L136.36,276.17L123.11,291.5L121.16,293.59L101.28,313.54L99.27,315.49L81.33,333.6L79.43,335.87L75.88,340.94L74.42,344.08L73.88,347.08" style="vector-effect: non-scaling-stroke; fill: none; stroke: rgb(255, 192, 203); stroke-opacity: 1; stroke-width: 3px; opacity: 1; stroke-dasharray: 9px, 9px;"/></g><g class="points"/><g class="text"/></g><g class="trace scatter trace6e4abe" style="stroke-miterlimit: 2; opacity: 1;"><g class="fills"/><g class="errorbars"/><g class="lines"><path class="js-line" d="M73.88,347.08L75.39,351.26L77.92,353.46L84.79,356.46L87.09,357.12L98.58,359.4L100.87,359.73L121.33,361.84L123.59,362.01L161.6,363.97L163.82,364.05L243.33,365.85L245.54,365.88L339.49,366.84L341.75,366.86L506,367.65" style="vector-effect: non-scaling-stroke; fill: none; stroke: rgb(255, 192, 203); stroke-opacity: 1; stroke-width: 3px; opacity: 1;"/></g><g class="points"/><g class="text"/></g><g class="trace scatter trace2e091d" style="stroke-miterlimit: 2; opacity: 1;"><g class="fills"/><g class="errorbars"/><g class="lines"><path class="js-line" d="M0,19.35L1.33,23.22L2.26,24.72L5.82,28.37L8,29.99L17,35.15L19.29,36.28L60.54,56.68L62.8,57.96L80.77,69.08L83,70.57L100.58,83.38L102.75,85.09L119.83,99.81L121.92,101.79L134.22,114.44L136.22,116.69L145.91,128.72L147.78,131.29L156.59,145.2L158.22,148.21L164.1,161.21L165.37,164.71L168.52,175.83L169.31,179.74L170.71,191.89L170.82,196.03L170.83,196.55" style="vector-effect: non-scaling-stroke; fill: none; stroke: rgb(221, 160, 221); stroke-opacity: 1; stroke-width: 3px; opacity: 1;"/></g><g class="points"/><g class="text"/></g><g class="trace scatter trace43cf52" style="stroke-miterlimit: 2; opacity: 1;"><g class="fills"/><g class="errorbars"/><g class="lines"><path class="js-line" d="M170.83,196.55L170.02,208.86L169.41,212.87L166.72,224.36L165.58,227.99L160.13,241.54L158.59,244.7L150.16,259.3L148.36,262.02L137.04,277.18L135.08,279.54L121.03,295.15L118.98,297.26L96.1,319.57L94.01,321.58L81.67,334.21L79.7,336.58L76.05,342.02L74.71,345.7L74.57,347.15" style="vector-effect: non-scaling-stroke; fill: none; stroke: rgb(221, 160, 221); stroke-opacity: 1; stroke-width: 3px; opacity: 1; stroke-dasharray: 9px, 9px;"/></g><g class="points"/><g class="text"/></g><g class="trace scatter traced077b2" style="stroke-miterlimit: 2; opacity: 1;"><g class="fills"/><g class="errorbars"/><g class="lines"><path class="js-line" d="M74.57,347.15L75.28,350.09L77.58,352.75L82.21,355.31L84.55,356.17L93.97,358.51L96.33,358.93L115.21,361.26L117.57,361.47L148.14,363.38L150.49,363.49L208.85,365.24L211.17,365.29L345.6,366.88L347.92,366.9L506,367.65" style="vector-effect: non-scaling-stroke; fill: none; stroke: rgb(221, 160, 221); stroke-opacity: 1; stroke-width: 3px; opacity: 1;"/></g><g class="points"/><g class="text"/></g><g class="trace scatter traceee1062" style="stroke-miterlimit: 2; opacity: 1;"><g class="fills"/><g class="errorbars"/><g class="lines"><path class="js-line" d="M0,19.35L0.82,21.56L1.48,22.46L4.05,24.66L6.24,25.98L19.88,32.3L22.17,33.34L40.35,42.48L42.6,43.73L62.65,55.85L64.85,57.28L86.68,72.47L88.83,74.08L107.95,89.49L110.04,91.31L124.37,104.82L126.37,106.87L138.04,119.95L139.92,122.27L148.92,134.62L150.62,137.26L158.49,151.4L159.9,154.44L164.78,167.38L165.77,170.81L168.06,181.52L168.56,185.21L169.21,196.23" style="vector-effect: non-scaling-stroke; fill: none; stroke: rgb(0, 0, 255); stroke-opacity: 1; stroke-width: 3px; opacity: 1;"/></g><g class="points"/><g class="text"/></g><g class="trace scatter trace9f17ce" style="stroke-miterlimit: 2; opacity: 1;"><g class="fills"/><g class="errorbars"/><g class="lines"><path class="js-line" d="M169.21,196.23L168.54,207.48L168.03,211.17L165.75,221.89L164.76,225.32L159.94,238.32L158.55,241.39L150.81,255.73L149.14,258.41L138.47,273.49L136.61,275.86L123.14,291.46L121.17,293.58L101,313.81L98.96,315.78L80.8,334.22L78.88,336.56L75.34,341.93L74.03,345.51L73.88,347.08" style="vector-effect: non-scaling-stroke; fill: none; stroke: rgb(0, 0, 255); stroke-opacity: 1; stroke-width: 3px; opacity: 1; stroke-dasharray: 9px, 9px;"/></g><g class="points"/><g class="text"/></g><g class="trace scatter trace511c5a" style="stroke-miterlimit: 2; opacity: 1;"><g class="fills"/><g class="errorbars"/><g class="lines"><path class="js-line" d="M73.88,347.08L74.57,350.01L76.89,352.72L81.48,355.28L83.78,356.13L93.01,358.45L95.32,358.87L113.65,361.19L115.93,361.39L145.31,363.29L147.55,363.39L203.25,365.14L205.47,365.19L335.4,366.81L337.67,366.83L506,367.65" style="vector-effect: non-scaling-stroke; fill: none; stroke: rgb(0, 0, 255); stroke-opacity: 1; stroke-width: 3px; opacity: 1;"/></g><g class="points"/><g class="text"/></g><g class="trace scatter trace372ae1" style="stroke-miterlimit: 2; opacity: 1;"><g class="fills"/><g class="errorbars"/><g class="lines"><path class="js-line" d="M0,19.35L0.85,21.64L1.54,22.58L4.18,24.82L6.41,26.16L20.11,32.57L22.4,33.63L40.57,42.91L42.81,44.18L62.83,56.49L65.04,57.94L86.82,73.39L88.97,75.03L108.02,90.73L110.1,92.59L124.35,106.4L126.34,108.5L137.9,121.9L139.75,124.28L148.6,136.99L150.26,139.7L156.46,151.23L157.86,154.29L162.74,167.32L163.73,170.78L166,181.56L166.5,185.28L167.13,196.24" style="vector-effect: non-scaling-stroke; fill: none; stroke: rgb(128, 0, 128); stroke-opacity: 1; stroke-width: 3px; opacity: 1;"/></g><g class="points"/><g class="text"/></g><g class="trace scatter trace35522d" style="stroke-miterlimit: 2; opacity: 1;"><g class="fills"/><g class="errorbars"/><g class="lines"><path class="js-line" d="M167.13,196.24L166.46,207.57L165.95,211.28L163.67,222.07L162.68,225.53L157.86,238.61L156.47,241.7L148.73,256.13L147.05,258.83L136.38,274.02L134.52,276.4L121.04,292.12L119.06,294.26L98.88,314.69L96.84,316.69L80.63,333.29L78.67,335.63L74.98,340.92L73.46,344.33L73.01,347.06" style="vector-effect: non-scaling-stroke; fill: none; stroke: rgb(128, 0, 128); stroke-opacity: 1; stroke-width: 3px; opacity: 1; stroke-dasharray: 9px, 9px;"/></g><g class="points"/><g class="text"/></g><g class="trace scatter trace78c6b3" style="stroke-miterlimit: 2; opacity: 1;"><g class="fills"/><g class="errorbars"/><g class="lines"><path class="js-line" d="M73.01,347.06L74.28,350.94L76.55,353.12L82.91,356.15L85.04,356.81L95.68,359.1L97.8,359.44L118.77,361.73L120.85,361.89L158.2,363.88L160.28,363.96L217.18,365.44L219.33,365.48L328.09,366.76L330.38,366.78L506,367.65" style="vector-effect: non-scaling-stroke; fill: none; stroke: rgb(128, 0, 128); stroke-opacity: 1; stroke-width: 3px; opacity: 1;"/></g><g class="points"/><g class="text"/></g><g class="trace scatter trace13f16b" style="stroke-miterlimit: 2; opacity: 1;"><g class="fills"/><g class="errorbars"/><g class="lines"><path class="js-line" d="M0,19.35L1.39,23.37L2.36,24.89L5.99,28.57L8.19,30.19L17.25,35.38L19.54,36.52L58.64,55.87L60.92,57.15L79,68.26L81.24,69.76L98.96,82.62L101.15,84.34L116.27,97.21L118.4,99.17L130.93,111.74L132.97,113.98L144.85,128.5L146.75,131.13L155.73,145.39L157.39,148.51L163.38,162.01L164.67,165.67L167.81,177.37L168.56,181.5L169.74,194.35L169.77,196.56" style="vector-effect: non-scaling-stroke; fill: none; stroke: rgb(173, 216, 230); stroke-opacity: 1; stroke-width: 3px; opacity: 1;"/></g><g class="points"/><g class="text"/></g><g class="trace scatter trace4c9915" style="stroke-miterlimit: 2; opacity: 1;"><g class="fills"/><g class="errorbars"/><g class="lines"><path class="js-line" d="M169.77,196.56L168.89,209.48L168.22,213.66L165.32,225.58L164.11,229.33L158.36,243.18L156.75,246.39L148.02,261.17L146.16,263.9L136.55,276.74L134.57,279.17L120.34,295.09L118.27,297.24L97.26,317.89L95.15,319.92L80.56,334.93L78.58,337.4L74.97,343.35L74.12,347.15" style="vector-effect: non-scaling-stroke; fill: none; stroke: rgb(173, 216, 230); stroke-opacity: 1; stroke-width: 3px; opacity: 1; stroke-dasharray: 9px, 9px;"/></g><g class="points"/><g class="text"/></g><g class="trace scatter trace6793cc" style="stroke-miterlimit: 2; opacity: 1;"><g class="fills"/><g class="errorbars"/><g class="lines"><path class="js-line" d="M74.12,347.15L76.05,351.78L78.55,353.74L85.45,356.61L87.76,357.26L101.65,359.83L103.96,360.13L126.95,362.24L129.24,362.39L167.93,364.19L170.2,364.26L247.09,365.91L249.35,365.94L403.21,367.23L405.54,367.24L506,367.65" style="vector-effect: non-scaling-stroke; fill: none; stroke: rgb(173, 216, 230); stroke-opacity: 1; stroke-width: 3px; opacity: 1;"/></g><g class="points"/><g class="text"/></g><g class="trace scatter trace4cf0a2" style="stroke-miterlimit: 2; opacity: 1;"><g class="fills"/><g class="errorbars"/><g class="lines"><path class="js-line" d="M0,19.35L1.04,23.08L1.94,24.52L7.42,30.05L9.49,31.89L19.59,41.87L21.54,44.04L34.65,60.31L36.46,62.76L48.64,80.73L50.31,83.42L59.83,100.23L61.33,103.15L69.67,121.45L70.93,124.64L76.63,141.13L77.63,144.54L81.79,162.13L82.45,165.74L84.72,184.17L84.97,187.91L85.28,198.95" style="vector-effect: non-scaling-stroke; fill: none; stroke: rgb(147, 112, 219); stroke-opacity: 1; stroke-width: 3px; opacity: 1;"/></g><g class="points"/><g class="text"/></g><g class="trace scatter traceea72ab" style="stroke-miterlimit: 2; opacity: 1;"><g class="fills"/><g class="errorbars"/><g class="lines"><path class="js-line" d="M85.28,198.95L84.4,217.67L84.02,221.38L81.17,239.62L80.43,243.19L76,260.64L74.99,264.04L66.99,287.15L65.75,290.37L52.34,326.16L51.48,329.75L50.7,336.55" style="vector-effect: non-scaling-stroke; fill: none; stroke: rgb(147, 112, 219); stroke-opacity: 1; stroke-width: 3px; opacity: 1; stroke-dasharray: 9px, 9px;"/></g><g class="points"/><g class="text"/></g><g class="trace scatter tracef308a6" style="stroke-miterlimit: 2; opacity: 1;"><g class="fills"/><g class="errorbars"/><g class="lines"><path class="js-line" d="M50.7,336.55L51.08,340.52L52.39,344.3L56.47,349.27L58.71,350.87L65.63,354.17L67.97,354.96L79.64,357.79L81.97,358.21L100.49,360.62L102.79,360.84L134.69,363.01L136.95,363.12L186.2,364.82L188.43,364.87L291.07,366.45L293.32,366.47L506,367.65" style="vector-effect: non-scaling-stroke; fill: none; stroke: rgb(147, 112, 219); stroke-opacity: 1; stroke-width: 3px; opacity: 1;"/></g><g class="points"/><g class="text"/></g><g class="trace scatter tracee2aef0" style="stroke-miterlimit: 2; opacity: 1;"><g class="fills"/><g class="errorbars"/><g class="lines"><path class="js-line" d="M0,19.35L0.86,23.87L1.58,25.82L4.66,30.86L6.64,33.19L17.09,43.32L19.2,45.33L31.58,58.33L33.58,60.69L43.28,73.28L45.15,75.96L55.93,93.02L57.64,96.04L65.75,111.89L67.27,115.23L74.26,132.74L75.51,136.42L79.95,151.73L80.9,155.7L83.92,172.11L84.47,176.32L85.75,193.47L85.83,197.79L85.83,199.28" style="vector-effect: non-scaling-stroke; fill: none; stroke: rgb(255, 0, 255); stroke-opacity: 1; stroke-width: 3px; opacity: 1;"/></g><g class="points"/><g class="text"/></g><g class="trace scatter trace3308fa" style="stroke-miterlimit: 2; opacity: 1;"><g class="fills"/><g class="errorbars"/><g class="lines"><path class="js-line" d="M85.83,199.28L85.08,216.52L84.66,220.79L82.17,237.49L81.36,241.57L76.4,261.23L75.25,265.03L67.58,286.95L66.21,290.49L52.69,326.22L51.74,330.23L51.03,336.66" style="vector-effect: non-scaling-stroke; fill: none; stroke: rgb(255, 0, 255); stroke-opacity: 1; stroke-width: 3px; opacity: 1; stroke-dasharray: 9px, 9px;"/></g><g class="points"/><g class="text"/></g><g class="trace scatter tracec74046" style="stroke-miterlimit: 2; opacity: 1;"><g class="fills"/><g class="errorbars"/><g class="lines"><path class="js-line" d="M51.03,336.66L51.51,341.07L53.08,345.02L57.33,349.72L59.59,351.24L66.56,354.4L68.91,355.17L80.73,357.94L83.1,358.35L102.04,360.74L104.41,360.96L135.09,363.02L137.44,363.13L191.37,364.93L193.7,364.99L300.72,366.53L303.04,366.55L419.38,367.31L421.71,367.32L506,367.65" style="vector-effect: non-scaling-stroke; fill: none; stroke: rgb(255, 0, 255); stroke-opacity: 1; stroke-width: 3px; opacity: 1;"/></g><g class="points"/><g class="text"/></g><g class="trace scatter trace5e7b89" style="stroke-miterlimit: 2; opacity: 1;"><g class="fills"/><g class="errorbars"/><g class="lines"><path class="js-line" d="M0,19.35L0.88,23.95L1.62,25.94L4.78,31.05L6.79,33.4L19.4,45.6L21.5,47.66L31.77,58.68L33.76,61.05L43.44,73.71L45.31,76.4L56.05,93.55L57.76,96.58L67.34,115.87L68.82,119.28L75.53,137.17L76.71,140.93L80.84,156.55L81.7,160.6L84.32,177.25L84.76,181.52L85.57,199.28" style="vector-effect: non-scaling-stroke; fill: none; stroke: rgb(0, 100, 0); stroke-opacity: 1; stroke-width: 3px; opacity: 1;"/></g><g class="points"/><g class="text"/></g><g class="trace scatter tracec05324" style="stroke-miterlimit: 2; opacity: 1;"><g class="fills"/><g class="errorbars"/><g class="lines"><path class="js-line" d="M85.57,199.28L84.82,216.55L84.4,220.82L81.91,237.55L81.1,241.63L76.13,261.33L74.99,265.13L67.32,287.1L65.95,290.65L52.45,326.53L51.51,330.6L50.88,336.66" style="vector-effect: non-scaling-stroke; fill: none; stroke: rgb(0, 100, 0); stroke-opacity: 1; stroke-width: 3px; opacity: 1; stroke-dasharray: 9px, 9px;"/></g><g class="points"/><g class="text"/></g><g class="trace scatter tracede62b3" style="stroke-miterlimit: 2; opacity: 1;"><g class="fills"/><g class="errorbars"/><g class="lines"><path class="js-line" d="M50.88,336.66L51.37,341.14L52.99,345.16L57.29,349.82L59.55,351.32L66.49,354.44L68.82,355.2L80.51,357.94L82.85,358.35L103.77,360.93L106.09,361.13L138.27,363.19L140.55,363.29L199.58,365.12L201.84,365.17L294.91,366.48L297.2,366.5L412.63,367.28L414.96,367.29L506,367.65" style="vector-effect: non-scaling-stroke; fill: none; stroke: rgb(0, 100, 0); stroke-opacity: 1; stroke-width: 3px; opacity: 1;"/></g><g class="points"/><g class="text"/></g></g></g><g class="overplot"/><path class="xlines-above crisp" d="M0,0" style="fill: none;"/><path class="ylines-above crisp" d="M0,0" style="fill: none;"/><g class="overlines-above"/><g class="xaxislayer-above"><g class="xtick"><text text-anchor="middle" x="0" y="460" transform="translate(57,0)" style="font-family: 'Open Sans', verdana, arial, sans-serif; font-size: 12px; fill: rgb(42, 63, 95); fill-opacity: 1; white-space: pre;">0</text></g><g class="xtick"><text text-anchor="middle" x="0" y="460" transform="translate(141.32999999999998,0)" style="font-family: 'Open Sans', verdana, arial, sans-serif; font-size: 12px; fill: rgb(42, 63, 95); fill-opacity: 1; white-space: pre;">0.5</text></g><g class="xtick"><text text-anchor="middle" x="0" y="460" transform="translate(225.67,0)" style="font-family: 'Open Sans', verdana, arial, sans-serif; font-size: 12px; fill: rgb(42, 63, 95); fill-opacity: 1; white-space: pre;">1</text></g><g class="xtick"><text text-anchor="middle" x="0" y="460" transform="translate(310,0)" style="font-family: 'Open Sans', verdana, arial, sans-serif; font-size: 12px; fill: rgb(42, 63, 95); fill-opacity: 1; white-space: pre;">1.5</text></g><g class="xtick"><text text-anchor="middle" x="0" y="460" transform="translate(394.33,0)" style="font-family: 'Open Sans', verdana, arial, sans-serif; font-size: 12px; fill: rgb(42, 63, 95); fill-opacity: 1; white-space: pre;">2</text></g><g class="xtick"><text text-anchor="middle" x="0" y="460" transform="translate(478.67,0)" style="font-family: 'Open Sans', verdana, arial, sans-serif; font-size: 12px; fill: rgb(42, 63, 95); fill-opacity: 1; white-space: pre;">2.5</text></g><g class="xtick"><text text-anchor="middle" x="0" y="460" transform="translate(563,0)" style="font-family: 'Open Sans', verdana, arial, sans-serif; font-size: 12px; fill: rgb(42, 63, 95); fill-opacity: 1; white-space: pre;">3</text></g></g><g class="yaxislayer-above"><g class="ytick"><text text-anchor="end" x="56" y="4.199999999999999" transform="translate(0,429.28)" style="font-family: 'Open Sans', verdana, arial, sans-serif; font-size: 12px; fill: rgb(42, 63, 95); fill-opacity: 1; white-space: pre;">0</text></g><g class="ytick"><text text-anchor="end" x="56" y="4.199999999999999" transform="translate(0,372.83)" style="font-family: 'Open Sans', verdana, arial, sans-serif; font-size: 12px; fill: rgb(42, 63, 95); fill-opacity: 1; white-space: pre;">0.5</text></g><g class="ytick"><text text-anchor="end" x="56" y="4.199999999999999" transform="translate(0,316.38)" style="font-family: 'Open Sans', verdana, arial, sans-serif; font-size: 12px; fill: rgb(42, 63, 95); fill-opacity: 1; white-space: pre;">1</text></g><g class="ytick"><text text-anchor="end" x="56" y="4.199999999999999" transform="translate(0,259.94)" style="font-family: 'Open Sans', verdana, arial, sans-serif; font-size: 12px; fill: rgb(42, 63, 95); fill-opacity: 1; white-space: pre;">1.5</text></g><g class="ytick"><text text-anchor="end" x="56" y="4.199999999999999" transform="translate(0,203.49)" style="font-family: 'Open Sans', verdana, arial, sans-serif; font-size: 12px; fill: rgb(42, 63, 95); fill-opacity: 1; white-space: pre;">2</text></g><g class="ytick"><text text-anchor="end" x="56" y="4.199999999999999" transform="translate(0,147.04000000000002)" style="font-family: 'Open Sans', verdana, arial, sans-serif; font-size: 12px; fill: rgb(42, 63, 95); fill-opacity: 1; white-space: pre;">2.5</text></g><g class="ytick"><text text-anchor="end" x="56" y="4.199999999999999" transform="translate(0,90.6)" style="font-family: 'Open Sans', verdana, arial, sans-serif; font-size: 12px; fill: rgb(42, 63, 95); fill-opacity: 1; white-space: pre;">3</text></g></g><g class="overaxes-above"/></g></g><g class="polarlayer"/><g class="ternarylayer"/><g class="geolayer"/><g class="funnelarealayer"/><g class="pielayer"/><g class="treemaplayer"/><g class="sunburstlayer"/><g class="glimages"/><defs id="topdefs-f45c9a"><g class="clips"/><clipPath id="legendf45c9a"><rect width="115" height="348" x="0" y="0"/></clipPath></defs><g class="layer-above"><g class="imagelayer"/><g class="shapelayer"/></g><g class="infolayer"><g class="legend" pointer-events="all" transform="translate(573.12,60)"><rect class="bg" shape-rendering="crispEdges" style="stroke: rgb(68, 68, 68); stroke-opacity: 1; fill: rgb(255, 255, 255); fill-opacity: 1; stroke-width: 0px;" width="115" height="348" x="0" y="0"/><g class="scrollbox" transform="" clip-path="url('#legendf45c9a')"><g class="groups" transform=""><g class="traces" transform="translate(0,14.5)" style="opacity: 1;"><text class="legendtext" text-anchor="start" x="40" y="4.680000000000001" style="font-family: 'Open Sans', verdana, arial, sans-serif; font-size: 12px; fill: rgb(42, 63, 95); fill-opacity: 1; white-space: pre;">Original</text><g class="layers" style="opacity: 1;"><g class="legendfill"/><g class="legendlines"><path class="js-line" d="M5,0h30" style="fill: none; stroke: rgb(255, 0, 0); stroke-opacity: 1; stroke-width: 3px;"/></g><g class="legendsymbols"><g class="legendpoints"/></g></g><rect class="legendtoggle" x="0" y="-9.5" width="109.53125" height="19" style="fill: rgb(0, 0, 0); fill-opacity: 0;"/></g></g><g class="groups" transform="translate(0,10)"><g class="traces" transform="translate(0,33.5)" style="opacity: 1;"><text class="legendtext" text-anchor="start" x="40" y="4.680000000000001" style="font-family: 'Open Sans', verdana, arial, sans-serif; font-size: 12px; fill: rgb(42, 63, 95); fill-opacity: 1; white-space: pre;">large L</text><g class="layers" style="opacity: 1;"><g class="legendfill"/><g class="legendlines"><path class="js-line" d="M5,0h30" style="fill: none; stroke: rgb(255, 140, 0); stroke-opacity: 1; stroke-width: 3px;"/></g><g class="legendsymbols"><g class="legendpoints"/></g></g><rect class="legendtoggle" x="0" y="-9.5" width="109.53125" height="19" style="fill: rgb(0, 0, 0); fill-opacity: 0;"/></g></g><g class="groups" transform="translate(0,20)"><g class="traces" transform="translate(0,52.5)" style="opacity: 1;"><text class="legendtext" text-anchor="start" x="40" y="4.680000000000001" style="font-family: 'Open Sans', verdana, arial, sans-serif; font-size: 12px; fill: rgb(42, 63, 95); fill-opacity: 1; white-space: pre;">RtcA inhib</text><g class="layers" style="opacity: 1;"><g class="legendfill"/><g class="legendlines"><path class="js-line" d="M5,0h30" style="fill: none; stroke: rgb(255, 215, 0); stroke-opacity: 1; stroke-width: 3px;"/></g><g class="legendsymbols"><g class="legendpoints"/></g></g><rect class="legendtoggle" x="0" y="-9.5" width="109.53125" height="19" style="fill: rgb(0, 0, 0); fill-opacity: 0;"/></g></g><g class="groups" transform="translate(0,30)"><g class="traces" transform="translate(0,71.5)" style="opacity: 1;"><text class="legendtext" text-anchor="start" x="40" y="4.680000000000001" style="font-family: 'Open Sans', verdana, arial, sans-serif; font-size: 12px; fill: rgb(42, 63, 95); fill-opacity: 1; white-space: pre;">RtcB inhib</text><g class="layers" style="opacity: 1;"><g class="legendfill"/><g class="legendlines"><path class="js-line" d="M5,0h30" style="fill: none; stroke: rgb(0, 128, 0); stroke-opacity: 1; stroke-width: 3px;"/></g><g class="legendsymbols"><g class="legendpoints"/></g></g><rect class="legendtoggle" x="0" y="-9.5" width="109.53125" height="19" style="fill: rgb(0, 0, 0); fill-opacity: 0;"/></g></g><g class="groups" transform="translate(0,40)"><g class="traces" transform="translate(0,90.5)" style="opacity: 1;"><text class="legendtext" text-anchor="start" x="40" y="4.680000000000001" style="font-family: 'Open Sans', verdana, arial, sans-serif; font-size: 12px; fill: rgb(42, 63, 95); fill-opacity: 1; white-space: pre;">RtcR inhib</text><g class="layers" style="opacity: 1;"><g class="legendfill"/><g class="legendlines"><path class="js-line" d="M5,0h30" style="fill: none; stroke: rgb(255, 192, 203); stroke-opacity: 1; stroke-width: 3px;"/></g><g class="legendsymbols"><g class="legendpoints"/></g></g><rect class="legendtoggle" x="0" y="-9.5" width="109.53125" height="19" style="fill: rgb(0, 0, 0); fill-opacity: 0;"/></g></g><g class="groups" transform="translate(0,50)"><g class="traces" transform="translate(0,109.5)" style="opacity: 1;"><text class="legendtext" text-anchor="start" x="40" y="4.680000000000001" style="font-family: 'Open Sans', verdana, arial, sans-serif; font-size: 12px; fill: rgb(42, 63, 95); fill-opacity: 1; white-space: pre;">Rt inhib</text><g class="layers" style="opacity: 1;"><g class="legendfill"/><g class="legendlines"><path class="js-line" d="M5,0h30" style="fill: none; stroke: rgb(221, 160, 221); stroke-opacity: 1; stroke-width: 3px;"/></g><g class="legendsymbols"><g class="legendpoints"/></g></g><rect class="legendtoggle" x="0" y="-9.5" width="109.53125" height="19" style="fill: rgb(0, 0, 0); fill-opacity: 0;"/></g></g><g class="groups" transform="translate(0,60)"><g class="traces" transform="translate(0,128.5)" style="opacity: 1;"><text class="legendtext" text-anchor="start" x="40" y="4.680000000000001" style="font-family: 'Open Sans', verdana, arial, sans-serif; font-size: 12px; fill: rgb(42, 63, 95); fill-opacity: 1; white-space: pre;">RtcAB inhib</text><g class="layers" style="opacity: 1;"><g class="legendfill"/><g class="legendlines"><path class="js-line" d="M5,0h30" style="fill: none; stroke: rgb(0, 0, 255); stroke-opacity: 1; stroke-width: 3px;"/></g><g class="legendsymbols"><g class="legendpoints"/></g></g><rect class="legendtoggle" x="0" y="-9.5" width="109.53125" height="19" style="fill: rgb(0, 0, 0); fill-opacity: 0;"/></g></g><g class="groups" transform="translate(0,70)"><g class="traces" transform="translate(0,147.5)" style="opacity: 1;"><text class="legendtext" text-anchor="start" x="40" y="4.680000000000001" style="font-family: 'Open Sans', verdana, arial, sans-serif; font-size: 12px; fill: rgb(42, 63, 95); fill-opacity: 1; white-space: pre;">RtcAR inhib</text><g class="layers" style="opacity: 1;"><g class="legendfill"/><g class="legendlines"><path class="js-line" d="M5,0h30" style="fill: none; stroke: rgb(128, 0, 128); stroke-opacity: 1; stroke-width: 3px;"/></g><g class="legendsymbols"><g class="legendpoints"/></g></g><rect class="legendtoggle" x="0" y="-9.5" width="109.53125" height="19" style="fill: rgb(0, 0, 0); fill-opacity: 0;"/></g></g><g class="groups" transform="translate(0,80)"><g class="traces" transform="translate(0,166.5)" style="opacity: 1;"><text class="legendtext" text-anchor="start" x="40" y="4.680000000000001" style="font-family: 'Open Sans', verdana, arial, sans-serif; font-size: 12px; fill: rgb(42, 63, 95); fill-opacity: 1; white-space: pre;">RtcAT inhib</text><g class="layers" style="opacity: 1;"><g class="legendfill"/><g class="legendlines"><path class="js-line" d="M5,0h30" style="fill: none; stroke: rgb(173, 216, 230); stroke-opacity: 1; stroke-width: 3px;"/></g><g class="legendsymbols"><g class="legendpoints"/></g></g><rect class="legendtoggle" x="0" y="-9.5" width="109.53125" height="19" style="fill: rgb(0, 0, 0); fill-opacity: 0;"/></g></g><g class="groups" transform="translate(0,90)"><g class="traces" transform="translate(0,185.5)" style="opacity: 1;"><text class="legendtext" text-anchor="start" x="40" y="4.680000000000001" style="font-family: 'Open Sans', verdana, arial, sans-serif; font-size: 12px; fill: rgb(42, 63, 95); fill-opacity: 1; white-space: pre;">RtcBR inhib</text><g class="layers" style="opacity: 1;"><g class="legendfill"/><g class="legendlines"><path class="js-line" d="M5,0h30" style="fill: none; stroke: rgb(147, 112, 219); stroke-opacity: 1; stroke-width: 3px;"/></g><g class="legendsymbols"><g class="legendpoints"/></g></g><rect class="legendtoggle" x="0" y="-9.5" width="109.53125" height="19" style="fill: rgb(0, 0, 0); fill-opacity: 0;"/></g></g><g class="groups" transform="translate(0,100)"><g class="traces" transform="translate(0,204.5)" style="opacity: 1;"><text class="legendtext" text-anchor="start" x="40" y="4.680000000000001" style="font-family: 'Open Sans', verdana, arial, sans-serif; font-size: 12px; fill: rgb(42, 63, 95); fill-opacity: 1; white-space: pre;">RtcBT inhib</text><g class="layers" style="opacity: 1;"><g class="legendfill"/><g class="legendlines"><path class="js-line" d="M5,0h30" style="fill: none; stroke: rgb(255, 0, 255); stroke-opacity: 1; stroke-width: 3px;"/></g><g class="legendsymbols"><g class="legendpoints"/></g></g><rect class="legendtoggle" x="0" y="-9.5" width="109.53125" height="19" style="fill: rgb(0, 0, 0); fill-opacity: 0;"/></g></g><g class="groups" transform="translate(0,110)"><g class="traces" transform="translate(0,223.5)" style="opacity: 1;"><text class="legendtext" text-anchor="start" x="40" y="4.680000000000001" style="font-family: 'Open Sans', verdana, arial, sans-serif; font-size: 12px; fill: rgb(42, 63, 95); fill-opacity: 1; white-space: pre;">RtcRT inhib</text><g class="layers" style="opacity: 1;"><g class="legendfill"/><g class="legendlines"><path class="js-line" d="M5,0h30" style="fill: none; stroke: rgb(0, 100, 0); stroke-opacity: 1; stroke-width: 3px;"/></g><g class="legendsymbols"><g class="legendpoints"/></g></g><rect class="legendtoggle" x="0" y="-9.5" width="109.53125" height="19" style="fill: rgb(0, 0, 0); fill-opacity: 0;"/></g></g></g><rect class="scrollbar" rx="20" ry="3" width="0" height="0" style="fill: rgb(128, 139, 164); fill-opacity: 1;" x="0" y="0"/></g><g class="g-gtitle"><text class="gtitle" x="35" y="30" text-anchor="start" dy="0em" style="font-family: 'Open Sans', verdana, arial, sans-serif; font-size: 17px; fill: rgb(42, 63, 95); opacity: 1; font-weight: normal; white-space: pre;">Healthy ribosomes</text></g><g class="g-xtitle"><text class="xtitle" x="310" y="487.8" text-anchor="middle" style="font-family: 'Open Sans', verdana, arial, sans-serif; font-size: 14px; fill: rgb(42, 63, 95); opacity: 1; font-weight: normal; white-space: pre;">Damage rate (min​<tspan style="font-size:70%" dy="-0.6em">-1</tspan><tspan dy="0.42em">​</tspan>)</text></g><g class="g-ytitle" transform="translate(0.8935546875,0)"><text class="ytitle" transform="rotate(-90,12.106250000000003,253.5)" x="12.106250000000003" y="253.5" text-anchor="middle" style="font-family: 'Open Sans', verdana, arial, sans-serif; font-size: 14px; fill: rgb(42, 63, 95); opacity: 1; font-weight: normal; white-space: pre;">Steady-state concentration (μM)</text></g></g></svg>