<svg class="main-svg" xmlns="http://www.w3.org/2000/svg" xmlns:xlink="http://www.w3.org/1999/xlink" width="700" height="500" style="" viewBox="0 0 700 500"><rect x="0" y="0" width="700" height="500" style="fill: rgb(255, 255, 255); fill-opacity: 1;"/><defs id="defs-798af7"><g class="clips"><clipPath id="clip798af7xyplot" class="plotclip"><rect width="586" height="385"/></clipPath><clipPath class="axesclip" id="clip798af7x"><rect x="64" y="0" width="586" height="500"/></clipPath><clipPath class="axesclip" id="clip798af7y"><rect x="0" y="60" width="700" height="385"/></clipPath><clipPath class="axesclip" id="clip798af7xy"><rect x="64" y="60" width="586" height="385"/></clipPath></g><g class="gradients"/></defs><g class="bglayer"/><g class="layer-below"><g class="imagelayer"/><g class="shapelayer"/></g><g class="cartesianlayer"><g class="subplot xy"><g class="layer-subplot"><g class="shapelayer"/><g class="imagelayer"/></g><g class="gridlayer"><g class="x"/><g class="y"/></g><g class="zerolinelayer"><path class="yzl zl crisp" transform="translate(0,422.68)" d="M64,0h586" style="stroke: rgb(255, 255, 255); stroke-opacity: 1; stroke-width: 2px;"/></g><path class="xlines-below"/><path class="ylines-below"/><g class="overlines-below"/><g class="xaxislayer-below"/><g class="yaxislayer-below"/><g class="overaxes-below"/><g class="plot" transform="translate(64,60)" clip-path="url('#clip798af7xyplot')"><g class="scatterlayer mlayer"><g class="trace scatter traceb6fe0e" style="stroke-miterlimit: 2; opacity: 1;"><g class="fills"/><g class="errorbars"/><g class="lines"><path class="js-line" d="M41.67,362.66L44.39,359.91L44.48,359.76L45.57,356.57L45.66,355.98L45.75,355.14" style="vector-effect: non-scaling-stroke; fill: none; stroke: rgb(99, 110, 250); stroke-opacity: 1; stroke-width: 2px; opacity: 1;"/></g><g class="points"/><g class="text"/></g><g class="trace scatter trace89e71d" style="stroke-miterlimit: 2; opacity: 1;"><g class="fills"/><g class="errorbars"/><g class="lines"><path class="js-line" d="M187.27,362.56L204.99,359.03L206.47,358.54L213.86,356L215.33,355.41L224.19,350.6L225.67,349.5L231.58,343.96L233.06,342.15L237.49,334.58L238.97,330.77L240.44,325.48L241.92,315.34" style="vector-effect: non-scaling-stroke; fill: none; stroke: rgb(239, 85, 59); stroke-opacity: 1; stroke-width: 2px; opacity: 1;"/></g><g class="points"/><g class="text"/></g><g class="trace scatter trace6a59d3" style="stroke-miterlimit: 2; opacity: 1;"><g class="fills"/><g class="errorbars"/><g class="lines"><path class="js-line" d="M258.57,362.5L272.57,360.81L274.91,360.49L286.57,358.37L288.91,357.79L302.91,353.9L305.24,353.02L314.57,348.99L316.91,347.75L326.24,341.36L328.58,339.3L335.58,331.31L337.91,327.69L342.58,317.78L344.91,309.98L347.24,294.58" style="vector-effect: non-scaling-stroke; fill: none; stroke: rgb(0, 204, 150); stroke-opacity: 1; stroke-width: 2px; opacity: 1;"/></g><g class="points"/><g class="text"/></g><g class="trace scatter traced67318" style="stroke-miterlimit: 2; opacity: 1;"><g class="fills"/><g class="errorbars"/><g class="lines"><path class="js-line" d="M299.09,362.46L318.91,360.29L321.74,359.72L335.89,357.27L338.72,356.6L352.87,352.67L355.7,351.79L367.02,347.02L369.85,345.56L378.34,340.29L381.17,338.3L389.66,330.09L392.49,326.46L398.15,317.14L400.98,310.58L403.81,301.35L406.64,282.72" style="vector-effect: non-scaling-stroke; fill: none; stroke: rgb(171, 99, 250); stroke-opacity: 1; stroke-width: 2px; opacity: 1;"/></g><g class="points"/><g class="text"/></g><g class="trace scatter tracea63edc" style="stroke-miterlimit: 2; opacity: 1;"><g class="fills"/><g class="errorbars"/><g class="lines"><path class="js-line" d="M324.63,362.44L343.52,360.47L346.67,360.05L362.42,357.5L365.57,356.75L378.16,353.92L381.31,352.89L390.76,349.81L393.9,348.56L403.35,344.26L406.5,342.57L415.95,336.3L419.1,333.64L425.39,327.44L428.54,323.47L434.84,313.27L437.99,306.09L441.14,295.9L444.29,275.63" style="vector-effect: non-scaling-stroke; fill: none; stroke: rgb(255, 161, 90); stroke-opacity: 1; stroke-width: 2px; opacity: 1;"/></g><g class="points"/><g class="text"/></g><g class="trace scatter trace07f9f8" style="stroke-miterlimit: 2; opacity: 1;"><g class="fills"/><g class="errorbars"/><g class="lines"><path class="js-line" d="M0,358.99L0.79,351.46L1.57,347.06L4.85,336.57L6.82,333.28L10.66,330.44L12.49,330.16L17.6,331.22L19.21,331.85L29.26,337.11L30.53,337.88L39.88,344.59L40.67,345.3L44.63,349.93L44.97,350.54L45.79,353.61" style="vector-effect: non-scaling-stroke; fill: none; stroke: rgb(0, 128, 0); stroke-opacity: 1; stroke-width: 3px; opacity: 1;"/></g><g class="points"/><g class="text"/></g><g class="trace scatter trace498db0" style="stroke-miterlimit: 2; opacity: 1;"><g class="fills"/><g class="errorbars"/><g class="lines"><path class="js-line" d="M0,342.57L1.87,313.93L3.11,301.57L7.51,269.61L10.14,255.26L15.46,232.42L18.14,223.26L23.51,208.43L26.2,202.5L31.57,193.09L34.26,189.45L39.63,183.93L42.31,181.93L47.66,179.19L50.33,178.34L58.32,177.44L60.97,177.58L68.92,178.9L71.57,179.58L84.74,184.17L87.36,185.26L105.65,193.75L108.25,195.05L136.62,210.3L139.17,211.76L166.89,228.48L169.37,230.07L193.61,246.76L195.96,248.52L211.87,261.41L214.04,263.35L224.34,273.46L226.26,275.57L233.25,284.38L234.79,286.66L239.73,296.1L240.59,298.51L242.07,305.7L242.16,307.89" style="vector-effect: non-scaling-stroke; fill: none; stroke: rgb(0, 128, 0); stroke-opacity: 1; stroke-width: 3px; opacity: 1;"/></g><g class="points"/><g class="text"/></g><g class="trace scatter trace72e989" style="stroke-miterlimit: 2; opacity: 1;"><g class="fills"/><g class="errorbars"/><g class="lines"><path class="js-line" d="M0,333.86L1.22,309.93L2.08,298.12L5.22,265.62L7.83,244.82L13.16,211.41L15.85,197.59L21.25,174.22L23.96,164.29L32.11,140.13L34.83,133.67L40.27,122.77L42.99,118.22L48.43,110.69L51.15,107.63L56.58,102.74L59.3,100.84L67.44,96.98L70.15,96.21L78.27,95.15L80.98,95.14L91.78,96.42L94.48,97.01L107.95,101.02L110.64,101.99L129.44,109.81L132.12,111.04L158.86,124.18L161.53,125.56L198.69,145.88L201.33,147.39L238.04,169.53L240.64,171.18L268.96,190.19L271.5,192L294.02,209.13L296.48,211.14L313.22,225.96L315.54,228.21L326.67,240.06L328.79,242.57L336.66,253.19L338.44,256.01L343.12,264.86L344.39,267.95L347.03,277.49L347.44,280.7L347.59,284.01" style="vector-effect: non-scaling-stroke; fill: none; stroke: rgb(0, 128, 0); stroke-opacity: 1; stroke-width: 3px; opacity: 1;"/></g><g class="points"/><g class="text"/></g><g class="trace scatter tracedca823" style="stroke-miterlimit: 2; opacity: 1;"><g class="fills"/><g class="errorbars"/><g class="lines"><path class="js-line" d="M0,328.97L1.29,302.65L2.16,289.92L5.32,254.88L7.94,232.31L13.28,195.63L15.98,180.28L24.11,142.55L26.83,132.2L35,106.35L37.73,99.24L45.91,81.65L48.64,76.9L56.83,65.45L59.56,62.47L67.74,55.63L70.46,53.96L78.63,50.5L81.36,49.78L89.52,48.72L92.24,48.68L103.1,49.71L105.81,50.22L119.37,53.84L122.08,54.73L141.01,62.09L143.71,63.26L168,74.6L170.69,75.93L205.63,94.12L208.31,95.57L248.36,118.29L251.02,119.86L285.41,141.1L288.03,142.8L316.74,162.29L319.32,164.14L342.34,181.58L344.87,183.62L364.68,200.84L367.1,203.13L381.16,217.72L383.41,220.32L391.98,231.33L393.98,234.26L399.5,243.54L401.13,246.82L405.06,257.18L405.96,260.79L407.05,270.66" style="vector-effect: non-scaling-stroke; fill: none; stroke: rgb(0, 128, 0); stroke-opacity: 1; stroke-width: 3px; opacity: 1;"/></g><g class="points"/><g class="text"/></g><g class="trace scatter tracec236b4" style="stroke-miterlimit: 2; opacity: 1;"><g class="fills"/><g class="errorbars"/><g class="lines"><path class="js-line" d="M0,325.88L1.35,297.73L2.25,284.18L5.51,247L8.14,223.58L13.49,185.25L16.19,169.09L24.32,128.99L27.04,117.86L35.23,89.72L37.96,81.85L46.15,62.07L48.89,56.61L57.09,43.12L59.82,39.49L68.02,30.82L70.75,28.59L78.94,23.57L81.67,22.38L89.85,20.06L92.58,19.64L100.75,19.26L103.48,19.38L114.36,20.89L117.08,21.47L130.67,25.33L133.38,26.25L152.37,33.68L155.08,34.85L182.15,47.47L184.86,48.81L219.93,66.97L222.63,68.42L265.58,92.55L268.25,94.11L302.9,115.16L305.55,116.84L337.21,137.78L339.83,139.6L365.82,158.6L368.39,160.59L388.73,177.3L391.23,179.5L406,193.38L408.41,195.83L420.11,208.75L422.36,211.51L430.91,223.22L432.9,226.36L438.32,236.35L439.89,239.9L443.48,251.15L444.19,255.05L444.73,262.24" style="vector-effect: non-scaling-stroke; fill: none; stroke: rgb(0, 128, 0); stroke-opacity: 1; stroke-width: 3px; opacity: 1;"/></g><g class="points"/><g class="text"/></g><g class="trace scatter trace9918ef" style="stroke-miterlimit: 2; opacity: 1;"><g class="fills"/><g class="errorbars"/><g class="lines"><path class="js-line" d="M36.75,361.75L37.44,362.07L38.53,362.21L54.91,362.55L57.44,362.57L269.83,362.67L272.46,362.67L586,362.68" style="vector-effect: non-scaling-stroke; fill: none; stroke: rgb(255, 0, 0); stroke-opacity: 1; stroke-width: 3px; opacity: 1;"/></g><g class="points"/><g class="text"/></g><g class="trace scatter trace38f517" style="stroke-miterlimit: 2; opacity: 1;"><g class="fills"/><g class="errorbars"/><g class="lines"><path class="js-line" d="M95.59,361.97L106.65,362.41L109.33,362.43L194.23,362.63L196.85,362.63L586,362.67" style="vector-effect: non-scaling-stroke; fill: none; stroke: rgb(255, 0, 0); stroke-opacity: 1; stroke-width: 3px; opacity: 1;"/></g><g class="points"/><g class="text"/></g><g class="trace scatter trace4c5196" style="stroke-miterlimit: 2; opacity: 1;"><g class="fills"/><g class="errorbars"/><g class="lines"><path class="js-line" d="M116.12,361.99L121.04,362.29L123.72,362.35L214.86,362.62L217.51,362.62L586,362.67" style="vector-effect: non-scaling-stroke; fill: none; stroke: rgb(255, 0, 0); stroke-opacity: 1; stroke-width: 3px; opacity: 1;"/></g><g class="points"/><g class="text"/></g><g class="trace scatter trace415ef5" style="stroke-miterlimit: 2; opacity: 1;"><g class="fills"/><g class="errorbars"/><g class="lines"><path class="js-line" d="M126.33,362L128.47,362.21L130.08,362.26L175.56,362.56L178.25,362.56L406.58,362.66L409.23,362.66L586,362.67" style="vector-effect: non-scaling-stroke; fill: none; stroke: rgb(255, 0, 0); stroke-opacity: 1; stroke-width: 3px; opacity: 1;"/></g><g class="points"/><g class="text"/></g><g class="trace scatter trace6c6f67" style="stroke-miterlimit: 2; opacity: 1;"><g class="fills"/><g class="errorbars"/><g class="lines"><path class="js-line" d="M132.42,362L135.9,362.25L138.2,362.3L192.24,362.57L194.94,362.57L418.36,362.66L421.01,362.66L586,362.67" style="vector-effect: non-scaling-stroke; fill: none; stroke: rgb(255, 0, 0); stroke-opacity: 1; stroke-width: 3px; opacity: 1;"/></g><g class="points"/><g class="text"/></g><g class="trace scatter trace6c58aa" style="stroke-miterlimit: 2; opacity: 1;"><g class="fills"/><g class="errorbars"/><g class="lines"><path class="js-line" d="M45.79,353.61L45.13,356.05L44.85,356.49L42.3,358.81L41.76,359.14L36.75,361.75" style="vector-effect: non-scaling-stroke; fill: none; stroke: rgb(0, 0, 0); stroke-opacity: 1; stroke-width: 3px; opacity: 1; stroke-dasharray: 9px, 9px;"/></g><g class="points"/><g class="text"/></g><g class="trace scatter trace22bc9a" style="stroke-miterlimit: 2; opacity: 1;"><g class="fills"/><g class="errorbars"/><g class="lines"><path class="js-line" d="M242.16,307.89L241.24,314.58L240.55,316.66L237.48,322.39L236.18,324.12L231.63,328.84L229.94,330.27L222.49,335.32L220.5,336.44L209.97,341.37L207.77,342.24L191.8,347.44L189.46,348.08L170.28,352.45L167.84,352.92L143.16,356.83L140.67,357.15L108.35,360.58L105.92,360.79L95.59,361.97" style="vector-effect: non-scaling-stroke; fill: none; stroke: rgb(0, 0, 0); stroke-opacity: 1; stroke-width: 3px; opacity: 1; stroke-dasharray: 9px, 9px;"/></g><g class="points"/><g class="text"/></g><g class="trace scatter trace184675" style="stroke-miterlimit: 2; opacity: 1;"><g class="fills"/><g class="errorbars"/><g class="lines"><path class="js-line" d="M347.59,284.01L347.06,290.14L346.41,293.05L343.19,300.98L341.78,303.35L336.8,309.71L334.95,311.6L326.89,318.29L324.75,319.76L313.53,326.26L311.21,327.4L296.89,333.46L294.45,334.36L274.58,340.57L272.06,341.24L249.12,346.55L246.55,347.07L218.04,351.94L215.43,352.32L178.74,356.77L176.12,357.03L134.12,360.49L131.52,360.67L116.12,361.99" style="vector-effect: non-scaling-stroke; fill: none; stroke: rgb(0, 0, 0); stroke-opacity: 1; stroke-width: 3px; opacity: 1; stroke-dasharray: 9px, 9px;"/></g><g class="points"/><g class="text"/></g><g class="trace scatter trace9799aa" style="stroke-miterlimit: 2; opacity: 1;"><g class="fills"/><g class="errorbars"/><g class="lines"><path class="js-line" d="M407.05,270.66L406.46,277.65L405.74,280.96L402.22,289.88L400.7,292.52L395.41,299.56L393.47,301.65L385.08,309L382.87,310.63L371.35,317.78L368.97,319.04L354.37,325.76L351.89,326.76L331.74,333.73L329.19,334.49L306,340.55L303.4,341.14L274.63,346.83L272,347.28L240.29,351.99L237.63,352.33L195.07,356.88L192.41,357.11L139.26,360.95L136.64,361.11L126.33,362" style="vector-effect: non-scaling-stroke; fill: none; stroke: rgb(0, 0, 0); stroke-opacity: 1; stroke-width: 3px; opacity: 1; stroke-dasharray: 9px, 9px;"/></g><g class="points"/><g class="text"/></g><g class="trace scatter trace6ecfa7" style="stroke-miterlimit: 2; opacity: 1;"><g class="fills"/><g class="errorbars"/><g class="lines"><path class="js-line" d="M444.73,262.24L444.1,269.76L443.34,273.31L441.08,279.85L439.65,282.83L434.53,290.73L432.62,293.06L424.28,301.22L422.07,303.01L412.88,309.44L410.52,310.88L398.43,317.34L395.96,318.51L378.41,325.7L375.87,326.61L355.32,333.08L352.73,333.8L329.25,339.58L326.62,340.15L297.6,345.7L294.94,346.15L257.69,351.51L255.02,351.84L212.2,356.3L209.52,356.53L158.63,360.21L155.96,360.37L132.42,362" style="vector-effect: non-scaling-stroke; fill: none; stroke: rgb(0, 0, 0); stroke-opacity: 1; stroke-width: 3px; opacity: 1; stroke-dasharray: 9px, 9px;"/></g><g class="points"/><g class="text"/></g><g class="trace scatter traceb244ed" style="stroke-miterlimit: 2; opacity: 1;"><g class="fills"/><g class="errorbars"/><g class="lines"/><g class="points"><path class="point" transform="translate(45.79,353.61)" d="M3,0A3,3 0 1,1 0,-3A3,3 0 0,1 3,0Z" style="opacity: 1; stroke-width: 0px; fill: rgb(0, 0, 0); fill-opacity: 1;"/><path class="point" transform="translate(36.75,361.75)" d="M3,0A3,3 0 1,1 0,-3A3,3 0 0,1 3,0Z" style="opacity: 1; stroke-width: 0px; fill: rgb(0, 0, 0); fill-opacity: 1;"/></g><g class="text"/></g><g class="trace scatter trace3679c2" style="stroke-miterlimit: 2; opacity: 1;"><g class="fills"/><g class="errorbars"/><g class="lines"/><g class="points"><path class="point" transform="translate(242.16,307.89)" d="M3,0A3,3 0 1,1 0,-3A3,3 0 0,1 3,0Z" style="opacity: 1; stroke-width: 0px; fill: rgb(0, 0, 0); fill-opacity: 1;"/><path class="point" transform="translate(95.59,361.97)" d="M3,0A3,3 0 1,1 0,-3A3,3 0 0,1 3,0Z" style="opacity: 1; stroke-width: 0px; fill: rgb(0, 0, 0); fill-opacity: 1;"/></g><g class="text"/></g><g class="trace scatter tracea7cf31" style="stroke-miterlimit: 2; opacity: 1;"><g class="fills"/><g class="errorbars"/><g class="lines"/><g class="points"><path class="point" transform="translate(347.59,284.01)" d="M3,0A3,3 0 1,1 0,-3A3,3 0 0,1 3,0Z" style="opacity: 1; stroke-width: 0px; fill: rgb(0, 0, 0); fill-opacity: 1;"/><path class="point" transform="translate(116.12,361.99)" d="M3,0A3,3 0 1,1 0,-3A3,3 0 0,1 3,0Z" style="opacity: 1; stroke-width: 0px; fill: rgb(0, 0, 0); fill-opacity: 1;"/></g><g class="text"/></g><g class="trace scatter tracecc0222" style="stroke-miterlimit: 2; opacity: 1;"><g class="fills"/><g class="errorbars"/><g class="lines"/><g class="points"><path class="point" transform="translate(407.05,270.66)" d="M3,0A3,3 0 1,1 0,-3A3,3 0 0,1 3,0Z" style="opacity: 1; stroke-width: 0px; fill: rgb(0, 0, 0); fill-opacity: 1;"/><path class="point" transform="translate(126.33,362)" d="M3,0A3,3 0 1,1 0,-3A3,3 0 0,1 3,0Z" style="opacity: 1; stroke-width: 0px; fill: rgb(0, 0, 0); fill-opacity: 1;"/></g><g class="text"/></g><g class="trace scatter trace1dea9b" style="stroke-miterlimit: 2; opacity: 1;"><g class="fills"/><g class="errorbars"/><g class="lines"/><g class="points"><path class="point" transform="translate(444.73,262.24)" d="M3,0A3,3 0 1,1 0,-3A3,3 0 0,1 3,0Z" style="opacity: 1; stroke-width: 0px; fill: rgb(0, 0, 0); fill-opacity: 1;"/><path class="point" transform="translate(132.42,362)" d="M3,0A3,3 0 1,1 0,-3A3,3 0 0,1 3,0Z" style="opacity: 1; stroke-width: 0px; fill: rgb(0, 0, 0); fill-opacity: 1;"/></g><g class="text"/></g></g></g><g class="overplot"/><path class="xlines-above crisp" d="M63,445.5H650" style="fill: none; stroke-width: 1px; stroke: rgb(0, 0, 0); stroke-opacity: 1;"/><path class="ylines-above crisp" d="M63.5,60V445" style="fill: none; stroke-width: 1px; stroke: rgb(0, 0, 0); stroke-opacity: 1;"/><g class="overlines-above"/><g class="xaxislayer-above"><g class="xtick"><text text-anchor="middle" x="0" y="460.4" transform="translate(64,0)" style="font-family: 'Open Sans', verdana, arial, sans-serif; font-size: 12px; fill: rgb(42, 63, 95); fill-opacity: 1; white-space: pre;">0</text></g><g class="xtick"><text text-anchor="middle" x="0" y="460.4" transform="translate(161.67000000000002,0)" style="font-family: 'Open Sans', verdana, arial, sans-serif; font-size: 12px; fill: rgb(42, 63, 95); fill-opacity: 1; white-space: pre;">0.5</text></g><g class="xtick"><text text-anchor="middle" x="0" y="460.4" transform="translate(259.33000000000004,0)" style="font-family: 'Open Sans', verdana, arial, sans-serif; font-size: 12px; fill: rgb(42, 63, 95); fill-opacity: 1; white-space: pre;">1</text></g><g class="xtick"><text text-anchor="middle" x="0" y="460.4" transform="translate(357,0)" style="font-family: 'Open Sans', verdana, arial, sans-serif; font-size: 12px; fill: rgb(42, 63, 95); fill-opacity: 1; white-space: pre;">1.5</text></g><g class="xtick"><text text-anchor="middle" x="0" y="460.4" transform="translate(454.67,0)" style="font-family: 'Open Sans', verdana, arial, sans-serif; font-size: 12px; fill: rgb(42, 63, 95); fill-opacity: 1; white-space: pre;">2</text></g><g class="xtick"><text text-anchor="middle" x="0" y="460.4" transform="translate(552.3299999999999,0)" style="font-family: 'Open Sans', verdana, arial, sans-serif; font-size: 12px; fill: rgb(42, 63, 95); fill-opacity: 1; white-space: pre;">2.5</text></g><g class="xtick"><text text-anchor="middle" x="0" y="460.4" transform="translate(650,0)" style="font-family: 'Open Sans', verdana, arial, sans-serif; font-size: 12px; fill: rgb(42, 63, 95); fill-opacity: 1; white-space: pre;">3</text></g></g><g class="yaxislayer-above"><g class="ytick"><text text-anchor="end" x="60.6" y="4.199999999999999" transform="translate(0,422.68)" style="font-family: 'Open Sans', verdana, arial, sans-serif; font-size: 12px; fill: rgb(42, 63, 95); fill-opacity: 1; white-space: pre;">0</text></g><g class="ytick"><text text-anchor="end" x="60.6" y="4.199999999999999" transform="translate(0,362.47)" style="font-family: 'Open Sans', verdana, arial, sans-serif; font-size: 12px; fill: rgb(42, 63, 95); fill-opacity: 1; white-space: pre;">0.01</text></g><g class="ytick"><text text-anchor="end" x="60.6" y="4.199999999999999" transform="translate(0,302.26)" style="font-family: 'Open Sans', verdana, arial, sans-serif; font-size: 12px; fill: rgb(42, 63, 95); fill-opacity: 1; white-space: pre;">0.02</text></g><g class="ytick"><text text-anchor="end" x="60.6" y="4.199999999999999" transform="translate(0,242.05)" style="font-family: 'Open Sans', verdana, arial, sans-serif; font-size: 12px; fill: rgb(42, 63, 95); fill-opacity: 1; white-space: pre;">0.03</text></g><g class="ytick"><text text-anchor="end" x="60.6" y="4.199999999999999" transform="translate(0,181.84)" style="font-family: 'Open Sans', verdana, arial, sans-serif; font-size: 12px; fill: rgb(42, 63, 95); fill-opacity: 1; white-space: pre;">0.04</text></g><g class="ytick"><text text-anchor="end" x="60.6" y="4.199999999999999" transform="translate(0,121.63)" style="font-family: 'Open Sans', verdana, arial, sans-serif; font-size: 12px; fill: rgb(42, 63, 95); fill-opacity: 1; white-space: pre;">0.05</text></g><g class="ytick"><text text-anchor="end" x="60.6" y="4.199999999999999" transform="translate(0,61.42)" style="font-family: 'Open Sans', verdana, arial, sans-serif; font-size: 12px; fill: rgb(42, 63, 95); fill-opacity: 1; white-space: pre;">0.06</text></g></g><g class="overaxes-above"/></g></g><g class="polarlayer"/><g class="ternarylayer"/><g class="geolayer"/><g class="funnelarealayer"/><g class="pielayer"/><g class="treemaplayer"/><g class="sunburstlayer"/><g class="glimages"/><defs id="topdefs-798af7"><g class="clips"/><clipPath id="legend798af7"><rect width="119" height="105" x="0" y="0"/></clipPath></defs><g class="layer-above"><g class="imagelayer"/><g class="shapelayer"/></g><g class="infolayer"><g class="legend" pointer-events="all" transform="translate(503.5,60)"><rect class="bg" shape-rendering="crispEdges" style="stroke: rgb(68, 68, 68); stroke-opacity: 1; fill: rgb(255, 255, 255); fill-opacity: 1; stroke-width: 0px;" width="119" height="105" x="0" y="0"/><g class="scrollbox" transform="" clip-path="url('#legend798af7')"><g class="groups" transform=""><g class="traces" transform="translate(0,14.5)" style="opacity: 1;"><text class="legendtext" text-anchor="start" x="40" y="4.680000000000001" style="font-family: 'Open Sans', verdana, arial, sans-serif; font-size: 12px; fill: rgb(42, 63, 95); fill-opacity: 1; white-space: pre;">ATP = 500.0</text><g class="layers" style="opacity: 1;"><g class="legendfill"/><g class="legendlines"><path class="js-line" d="M5,0h30" style="fill: none; stroke: rgb(99, 110, 250); stroke-opacity: 1; stroke-width: 2px;"/></g><g class="legendsymbols"><g class="legendpoints"/></g></g><rect class="legendtoggle" x="0" y="-9.5" width="113.15625" height="19" style="fill: rgb(0, 0, 0); fill-opacity: 0;"/></g><g class="traces" transform="translate(0,33.5)" style="opacity: 1;"><text class="legendtext" text-anchor="start" x="40" y="4.680000000000001" style="font-family: 'Open Sans', verdana, arial, sans-serif; font-size: 12px; fill: rgb(42, 63, 95); fill-opacity: 1; white-space: pre;">ATP = 1625.0</text><g class="layers" style="opacity: 1;"><g class="legendfill"/><g class="legendlines"><path class="js-line" d="M5,0h30" style="fill: none; stroke: rgb(239, 85, 59); stroke-opacity: 1; stroke-width: 2px;"/></g><g class="legendsymbols"><g class="legendpoints"/></g></g><rect class="legendtoggle" x="0" y="-9.5" width="113.15625" height="19" style="fill: rgb(0, 0, 0); fill-opacity: 0;"/></g><g class="traces" transform="translate(0,52.5)" style="opacity: 1;"><text class="legendtext" text-anchor="start" x="40" y="4.680000000000001" style="font-family: 'Open Sans', verdana, arial, sans-serif; font-size: 12px; fill: rgb(42, 63, 95); fill-opacity: 1; white-space: pre;">ATP = 2750.0</text><g class="layers" style="opacity: 1;"><g class="legendfill"/><g class="legendlines"><path class="js-line" d="M5,0h30" style="fill: none; stroke: rgb(0, 204, 150); stroke-opacity: 1; stroke-width: 2px;"/></g><g class="legendsymbols"><g class="legendpoints"/></g></g><rect class="legendtoggle" x="0" y="-9.5" width="113.15625" height="19" style="fill: rgb(0, 0, 0); fill-opacity: 0;"/></g><g class="traces" transform="translate(0,71.5)" style="opacity: 1;"><text class="legendtext" text-anchor="start" x="40" y="4.680000000000001" style="font-family: 'Open Sans', verdana, arial, sans-serif; font-size: 12px; fill: rgb(42, 63, 95); fill-opacity: 1; white-space: pre;">ATP = 3875.0</text><g class="layers" style="opacity: 1;"><g class="legendfill"/><g class="legendlines"><path class="js-line" d="M5,0h30" style="fill: none; stroke: rgb(171, 99, 250); stroke-opacity: 1; stroke-width: 2px;"/></g><g class="legendsymbols"><g class="legendpoints"/></g></g><rect class="legendtoggle" x="0" y="-9.5" width="113.15625" height="19" style="fill: rgb(0, 0, 0); fill-opacity: 0;"/></g><g class="traces" transform="translate(0,90.5)" style="opacity: 1;"><text class="legendtext" text-anchor="start" x="40" y="4.680000000000001" style="font-family: 'Open Sans', verdana, arial, sans-serif; font-size: 12px; fill: rgb(42, 63, 95); fill-opacity: 1; white-space: pre;">ATP = 5000.0</text><g class="layers" style="opacity: 1;"><g class="legendfill"/><g class="legendlines"><path class="js-line" d="M5,0h30" style="fill: none; stroke: rgb(255, 161, 90); stroke-opacity: 1; stroke-width: 2px;"/></g><g class="legendsymbols"><g class="legendpoints"/></g></g><rect class="legendtoggle" x="0" y="-9.5" width="113.15625" height="19" style="fill: rgb(0, 0, 0); fill-opacity: 0;"/></g></g></g><rect class="scrollbar" rx="20" ry="3" width="0" height="0" style="fill: rgb(128, 139, 164); fill-opacity: 1;" x="0" y="0"/></g><g class="g-gtitle"/><g class="g-xtitle"><text class="xtitle" x="357" y="488.20625" text-anchor="middle" style="font-family: 'Open Sans', verdana, arial, sans-serif; font-size: 14px; fill: rgb(42, 63, 95); opacity: 1; font-weight: normal; white-space: pre;">Damage rate (min​<tspan style="font-size:70%" dy="-0.6em">-1</tspan><tspan dy="0.42em">​</tspan>)</text></g><g class="g-ytitle" transform="translate(0.5654296875,0)"><text class="ytitle" transform="rotate(-90,12.434375000000003,252.5)" x="12.434375000000003" y="252.5" text-anchor="middle" style="font-family: 'Open Sans', verdana, arial, sans-serif; font-size: 14px; fill: rgb(42, 63, 95); opacity: 1; font-weight: normal; white-space: pre;">RtcB (μM)</text></g></g></svg>