<?xml version="1.0" encoding="utf-8" standalone="no"?>
<!DOCTYPE svg PUBLIC "-//W3C//DTD SVG 1.1//EN"
  "http://www.w3.org/Graphics/SVG/1.1/DTD/svg11.dtd">
<svg xmlns:xlink="http://www.w3.org/1999/xlink" width="432pt" height="288pt" viewBox="0 0 432 288" xmlns="http://www.w3.org/2000/svg" version="1.1">
 <metadata>
  <rdf:RDF xmlns:dc="http://purl.org/dc/elements/1.1/" xmlns:cc="http://creativecommons.org/ns#" xmlns:rdf="http://www.w3.org/1999/02/22-rdf-syntax-ns#">
   <cc:Work>
    <dc:type rdf:resource="http://purl.org/dc/dcmitype/StillImage"/>
    <dc:date>2023-07-17T09:26:19.230747</dc:date>
    <dc:format>image/svg+xml</dc:format>
    <dc:creator>
     <cc:Agent>
      <dc:title>Matplotlib v3.7.2, https://matplotlib.org/</dc:title>
     </cc:Agent>
    </dc:creator>
   </cc:Work>
  </rdf:RDF>
 </metadata>
 <defs>
  <style type="text/css">*{stroke-linejoin: round; stroke-linecap: butt}</style>
 </defs>
 <g id="figure_1">
  <g id="patch_1">
   <path d="M 0 288 
L 432 288 
L 432 0 
L 0 0 
z
" style="fill: #ffffff"/>
  </g>
  <g id="axes_1">
   <g id="patch_2">
    <path d="M 40.796161 256.063104 
L 353.696031 256.063104 
L 353.696031 17.474646 
L 40.796161 17.474646 
z
" style="fill: #ffffff"/>
   </g>
   <g id="matplotlib.axis_1">
    <g id="xtick_1">
     <g id="line2d_1">
      <path d="M 40.796161 256.063104 
L 40.796161 17.474646 
" clip-path="url(#pc66f5b6a63)" style="fill: none; stroke: #000000; stroke-opacity: 0.1; stroke-width: 0.5; stroke-linecap: square"/>
     </g>
     <g id="line2d_2">
      <defs>
       <path id="medb37f712b" d="M 0 0 
L 0 -3 
" style="stroke: #000000; stroke-width: 0.5"/>
      </defs>
      <g>
       <use xlink:href="#medb37f712b" x="40.796161" y="256.063104" style="stroke: #000000; stroke-width: 0.5"/>
      </g>
     </g>
     <g id="text_1">
      <!-- $10^{-2}$ -->
      <g transform="translate(31.396161 265.641854) scale(0.08 -0.08)">
       <defs>
        <path id="DejaVuSans-31" d="M 794 531 
L 1825 531 
L 1825 4091 
L 703 3866 
L 703 4441 
L 1819 4666 
L 2450 4666 
L 2450 531 
L 3481 531 
L 3481 0 
L 794 0 
L 794 531 
z
" transform="scale(0.015625)"/>
        <path id="DejaVuSans-30" d="M 2034 4250 
Q 1547 4250 1301 3770 
Q 1056 3291 1056 2328 
Q 1056 1369 1301 889 
Q 1547 409 2034 409 
Q 2525 409 2770 889 
Q 3016 1369 3016 2328 
Q 3016 3291 2770 3770 
Q 2525 4250 2034 4250 
z
M 2034 4750 
Q 2819 4750 3233 4129 
Q 3647 3509 3647 2328 
Q 3647 1150 3233 529 
Q 2819 -91 2034 -91 
Q 1250 -91 836 529 
Q 422 1150 422 2328 
Q 422 3509 836 4129 
Q 1250 4750 2034 4750 
z
" transform="scale(0.015625)"/>
        <path id="DejaVuSans-2212" d="M 678 2272 
L 4684 2272 
L 4684 1741 
L 678 1741 
L 678 2272 
z
" transform="scale(0.015625)"/>
        <path id="DejaVuSans-32" d="M 1228 531 
L 3431 531 
L 3431 0 
L 469 0 
L 469 531 
Q 828 903 1448 1529 
Q 2069 2156 2228 2338 
Q 2531 2678 2651 2914 
Q 2772 3150 2772 3378 
Q 2772 3750 2511 3984 
Q 2250 4219 1831 4219 
Q 1534 4219 1204 4116 
Q 875 4013 500 3803 
L 500 4441 
Q 881 4594 1212 4672 
Q 1544 4750 1819 4750 
Q 2544 4750 2975 4387 
Q 3406 4025 3406 3419 
Q 3406 3131 3298 2873 
Q 3191 2616 2906 2266 
Q 2828 2175 2409 1742 
Q 1991 1309 1228 531 
z
" transform="scale(0.015625)"/>
       </defs>
       <use xlink:href="#DejaVuSans-31" transform="translate(0 0.765625)"/>
       <use xlink:href="#DejaVuSans-30" transform="translate(63.623047 0.765625)"/>
       <use xlink:href="#DejaVuSans-2212" transform="translate(128.203125 39.046875) scale(0.7)"/>
       <use xlink:href="#DejaVuSans-32" transform="translate(186.855469 39.046875) scale(0.7)"/>
      </g>
     </g>
    </g>
    <g id="xtick_2">
     <g id="line2d_3">
      <path d="M 145.096117 256.063104 
L 145.096117 17.474646 
" clip-path="url(#pc66f5b6a63)" style="fill: none; stroke: #000000; stroke-opacity: 0.1; stroke-width: 0.5; stroke-linecap: square"/>
     </g>
     <g id="line2d_4">
      <g>
       <use xlink:href="#medb37f712b" x="145.096117" y="256.063104" style="stroke: #000000; stroke-width: 0.5"/>
      </g>
     </g>
     <g id="text_2">
      <!-- $10^{-1}$ -->
      <g transform="translate(135.696117 265.641854) scale(0.08 -0.08)">
       <use xlink:href="#DejaVuSans-31" transform="translate(0 0.684375)"/>
       <use xlink:href="#DejaVuSans-30" transform="translate(63.623047 0.684375)"/>
       <use xlink:href="#DejaVuSans-2212" transform="translate(128.203125 38.965625) scale(0.7)"/>
       <use xlink:href="#DejaVuSans-31" transform="translate(186.855469 38.965625) scale(0.7)"/>
      </g>
     </g>
    </g>
    <g id="xtick_3">
     <g id="line2d_5">
      <path d="M 249.396074 256.063104 
L 249.396074 17.474646 
" clip-path="url(#pc66f5b6a63)" style="fill: none; stroke: #000000; stroke-opacity: 0.1; stroke-width: 0.5; stroke-linecap: square"/>
     </g>
     <g id="line2d_6">
      <g>
       <use xlink:href="#medb37f712b" x="249.396074" y="256.063104" style="stroke: #000000; stroke-width: 0.5"/>
      </g>
     </g>
     <g id="text_3">
      <!-- $10^{0}$ -->
      <g transform="translate(242.356074 265.641854) scale(0.08 -0.08)">
       <use xlink:href="#DejaVuSans-31" transform="translate(0 0.765625)"/>
       <use xlink:href="#DejaVuSans-30" transform="translate(63.623047 0.765625)"/>
       <use xlink:href="#DejaVuSans-30" transform="translate(128.203125 39.046875) scale(0.7)"/>
      </g>
     </g>
    </g>
    <g id="xtick_4">
     <g id="line2d_7">
      <path d="M 353.696031 256.063104 
L 353.696031 17.474646 
" clip-path="url(#pc66f5b6a63)" style="fill: none; stroke: #000000; stroke-opacity: 0.1; stroke-width: 0.5; stroke-linecap: square"/>
     </g>
     <g id="line2d_8">
      <g>
       <use xlink:href="#medb37f712b" x="353.696031" y="256.063104" style="stroke: #000000; stroke-width: 0.5"/>
      </g>
     </g>
     <g id="text_4">
      <!-- $10^{1}$ -->
      <g transform="translate(346.656031 265.641854) scale(0.08 -0.08)">
       <use xlink:href="#DejaVuSans-31" transform="translate(0 0.684375)"/>
       <use xlink:href="#DejaVuSans-30" transform="translate(63.623047 0.684375)"/>
       <use xlink:href="#DejaVuSans-31" transform="translate(128.203125 38.965625) scale(0.7)"/>
      </g>
     </g>
    </g>
    <g id="text_5">
     <!-- ω_ab range -->
     <g transform="translate(165.287658 279.663886) scale(0.11 -0.11)">
      <defs>
       <path id="DejaVuSans-3c9" d="M 1719 -91 
Q 422 -91 422 1766 
Q 422 2500 906 3500 
L 1525 3500 
Q 1078 2500 1078 1750 
Q 1078 397 1772 397 
Q 2406 397 2406 2078 
L 2938 2078 
Q 2938 397 3572 397 
Q 4266 397 4266 1750 
Q 4266 2500 3819 3500 
L 4438 3500 
Q 4922 2500 4922 1766 
Q 4922 -91 3625 -91 
Q 2775 -91 2672 844 
Q 2544 -91 1719 -91 
z
" transform="scale(0.015625)"/>
       <path id="DejaVuSans-5f" d="M 3263 -1063 
L 3263 -1509 
L -63 -1509 
L -63 -1063 
L 3263 -1063 
z
" transform="scale(0.015625)"/>
       <path id="DejaVuSans-61" d="M 2194 1759 
Q 1497 1759 1228 1600 
Q 959 1441 959 1056 
Q 959 750 1161 570 
Q 1363 391 1709 391 
Q 2188 391 2477 730 
Q 2766 1069 2766 1631 
L 2766 1759 
L 2194 1759 
z
M 3341 1997 
L 3341 0 
L 2766 0 
L 2766 531 
Q 2569 213 2275 61 
Q 1981 -91 1556 -91 
Q 1019 -91 701 211 
Q 384 513 384 1019 
Q 384 1609 779 1909 
Q 1175 2209 1959 2209 
L 2766 2209 
L 2766 2266 
Q 2766 2663 2505 2880 
Q 2244 3097 1772 3097 
Q 1472 3097 1187 3025 
Q 903 2953 641 2809 
L 641 3341 
Q 956 3463 1253 3523 
Q 1550 3584 1831 3584 
Q 2591 3584 2966 3190 
Q 3341 2797 3341 1997 
z
" transform="scale(0.015625)"/>
       <path id="DejaVuSans-62" d="M 3116 1747 
Q 3116 2381 2855 2742 
Q 2594 3103 2138 3103 
Q 1681 3103 1420 2742 
Q 1159 2381 1159 1747 
Q 1159 1113 1420 752 
Q 1681 391 2138 391 
Q 2594 391 2855 752 
Q 3116 1113 3116 1747 
z
M 1159 2969 
Q 1341 3281 1617 3432 
Q 1894 3584 2278 3584 
Q 2916 3584 3314 3078 
Q 3713 2572 3713 1747 
Q 3713 922 3314 415 
Q 2916 -91 2278 -91 
Q 1894 -91 1617 61 
Q 1341 213 1159 525 
L 1159 0 
L 581 0 
L 581 4863 
L 1159 4863 
L 1159 2969 
z
" transform="scale(0.015625)"/>
       <path id="DejaVuSans-20" transform="scale(0.015625)"/>
       <path id="DejaVuSans-72" d="M 2631 2963 
Q 2534 3019 2420 3045 
Q 2306 3072 2169 3072 
Q 1681 3072 1420 2755 
Q 1159 2438 1159 1844 
L 1159 0 
L 581 0 
L 581 3500 
L 1159 3500 
L 1159 2956 
Q 1341 3275 1631 3429 
Q 1922 3584 2338 3584 
Q 2397 3584 2469 3576 
Q 2541 3569 2628 3553 
L 2631 2963 
z
" transform="scale(0.015625)"/>
       <path id="DejaVuSans-6e" d="M 3513 2113 
L 3513 0 
L 2938 0 
L 2938 2094 
Q 2938 2591 2744 2837 
Q 2550 3084 2163 3084 
Q 1697 3084 1428 2787 
Q 1159 2491 1159 1978 
L 1159 0 
L 581 0 
L 581 3500 
L 1159 3500 
L 1159 2956 
Q 1366 3272 1645 3428 
Q 1925 3584 2291 3584 
Q 2894 3584 3203 3211 
Q 3513 2838 3513 2113 
z
" transform="scale(0.015625)"/>
       <path id="DejaVuSans-67" d="M 2906 1791 
Q 2906 2416 2648 2759 
Q 2391 3103 1925 3103 
Q 1463 3103 1205 2759 
Q 947 2416 947 1791 
Q 947 1169 1205 825 
Q 1463 481 1925 481 
Q 2391 481 2648 825 
Q 2906 1169 2906 1791 
z
M 3481 434 
Q 3481 -459 3084 -895 
Q 2688 -1331 1869 -1331 
Q 1566 -1331 1297 -1286 
Q 1028 -1241 775 -1147 
L 775 -588 
Q 1028 -725 1275 -790 
Q 1522 -856 1778 -856 
Q 2344 -856 2625 -561 
Q 2906 -266 2906 331 
L 2906 616 
Q 2728 306 2450 153 
Q 2172 0 1784 0 
Q 1141 0 747 490 
Q 353 981 353 1791 
Q 353 2603 747 3093 
Q 1141 3584 1784 3584 
Q 2172 3584 2450 3431 
Q 2728 3278 2906 2969 
L 2906 3500 
L 3481 3500 
L 3481 434 
z
" transform="scale(0.015625)"/>
       <path id="DejaVuSans-65" d="M 3597 1894 
L 3597 1613 
L 953 1613 
Q 991 1019 1311 708 
Q 1631 397 2203 397 
Q 2534 397 2845 478 
Q 3156 559 3463 722 
L 3463 178 
Q 3153 47 2828 -22 
Q 2503 -91 2169 -91 
Q 1331 -91 842 396 
Q 353 884 353 1716 
Q 353 2575 817 3079 
Q 1281 3584 2069 3584 
Q 2775 3584 3186 3129 
Q 3597 2675 3597 1894 
z
M 3022 2063 
Q 3016 2534 2758 2815 
Q 2500 3097 2075 3097 
Q 1594 3097 1305 2825 
Q 1016 2553 972 2059 
L 3022 2063 
z
" transform="scale(0.015625)"/>
      </defs>
      <use xlink:href="#DejaVuSans-3c9"/>
      <use xlink:href="#DejaVuSans-5f" x="83.740234"/>
      <use xlink:href="#DejaVuSans-61" x="133.740234"/>
      <use xlink:href="#DejaVuSans-62" x="195.019531"/>
      <use xlink:href="#DejaVuSans-20" x="258.496094"/>
      <use xlink:href="#DejaVuSans-72" x="290.283203"/>
      <use xlink:href="#DejaVuSans-61" x="331.396484"/>
      <use xlink:href="#DejaVuSans-6e" x="392.675781"/>
      <use xlink:href="#DejaVuSans-67" x="456.054688"/>
      <use xlink:href="#DejaVuSans-65" x="519.53125"/>
     </g>
    </g>
   </g>
   <g id="matplotlib.axis_2">
    <g id="ytick_1">
     <g id="line2d_9">
      <path d="M 40.796161 256.063104 
L 353.696031 256.063104 
" clip-path="url(#pc66f5b6a63)" style="fill: none; stroke: #000000; stroke-opacity: 0.1; stroke-width: 0.5; stroke-linecap: square"/>
     </g>
     <g id="line2d_10">
      <defs>
       <path id="mac7800f96e" d="M 0 0 
L 3 0 
" style="stroke: #000000; stroke-width: 0.5"/>
      </defs>
      <g>
       <use xlink:href="#mac7800f96e" x="40.796161" y="256.063104" style="stroke: #000000; stroke-width: 0.5"/>
      </g>
     </g>
     <g id="text_6">
      <!-- $10^{-5}$ -->
      <g transform="translate(18.496161 259.102479) scale(0.08 -0.08)">
       <defs>
        <path id="DejaVuSans-35" d="M 691 4666 
L 3169 4666 
L 3169 4134 
L 1269 4134 
L 1269 2991 
Q 1406 3038 1543 3061 
Q 1681 3084 1819 3084 
Q 2600 3084 3056 2656 
Q 3513 2228 3513 1497 
Q 3513 744 3044 326 
Q 2575 -91 1722 -91 
Q 1428 -91 1123 -41 
Q 819 9 494 109 
L 494 744 
Q 775 591 1075 516 
Q 1375 441 1709 441 
Q 2250 441 2565 725 
Q 2881 1009 2881 1497 
Q 2881 1984 2565 2268 
Q 2250 2553 1709 2553 
Q 1456 2553 1204 2497 
Q 953 2441 691 2322 
L 691 4666 
z
" transform="scale(0.015625)"/>
       </defs>
       <use xlink:href="#DejaVuSans-31" transform="translate(0 0.684375)"/>
       <use xlink:href="#DejaVuSans-30" transform="translate(63.623047 0.684375)"/>
       <use xlink:href="#DejaVuSans-2212" transform="translate(128.203125 38.965625) scale(0.7)"/>
       <use xlink:href="#DejaVuSans-35" transform="translate(186.855469 38.965625) scale(0.7)"/>
      </g>
     </g>
    </g>
    <g id="ytick_2">
     <g id="line2d_11">
      <path d="M 40.796161 136.768875 
L 353.696031 136.768875 
" clip-path="url(#pc66f5b6a63)" style="fill: none; stroke: #000000; stroke-opacity: 0.1; stroke-width: 0.5; stroke-linecap: square"/>
     </g>
     <g id="line2d_12">
      <g>
       <use xlink:href="#mac7800f96e" x="40.796161" y="136.768875" style="stroke: #000000; stroke-width: 0.5"/>
      </g>
     </g>
     <g id="text_7">
      <!-- $10^{-4}$ -->
      <g transform="translate(18.496161 139.80825) scale(0.08 -0.08)">
       <defs>
        <path id="DejaVuSans-34" d="M 2419 4116 
L 825 1625 
L 2419 1625 
L 2419 4116 
z
M 2253 4666 
L 3047 4666 
L 3047 1625 
L 3713 1625 
L 3713 1100 
L 3047 1100 
L 3047 0 
L 2419 0 
L 2419 1100 
L 313 1100 
L 313 1709 
L 2253 4666 
z
" transform="scale(0.015625)"/>
       </defs>
       <use xlink:href="#DejaVuSans-31" transform="translate(0 0.684375)"/>
       <use xlink:href="#DejaVuSans-30" transform="translate(63.623047 0.684375)"/>
       <use xlink:href="#DejaVuSans-2212" transform="translate(128.203125 38.965625) scale(0.7)"/>
       <use xlink:href="#DejaVuSans-34" transform="translate(186.855469 38.965625) scale(0.7)"/>
      </g>
     </g>
    </g>
    <g id="ytick_3">
     <g id="line2d_13">
      <path d="M 40.796161 17.474646 
L 353.696031 17.474646 
" clip-path="url(#pc66f5b6a63)" style="fill: none; stroke: #000000; stroke-opacity: 0.1; stroke-width: 0.5; stroke-linecap: square"/>
     </g>
     <g id="line2d_14">
      <g>
       <use xlink:href="#mac7800f96e" x="40.796161" y="17.474646" style="stroke: #000000; stroke-width: 0.5"/>
      </g>
     </g>
     <g id="text_8">
      <!-- $10^{-3}$ -->
      <g transform="translate(18.496161 20.514021) scale(0.08 -0.08)">
       <defs>
        <path id="DejaVuSans-33" d="M 2597 2516 
Q 3050 2419 3304 2112 
Q 3559 1806 3559 1356 
Q 3559 666 3084 287 
Q 2609 -91 1734 -91 
Q 1441 -91 1130 -33 
Q 819 25 488 141 
L 488 750 
Q 750 597 1062 519 
Q 1375 441 1716 441 
Q 2309 441 2620 675 
Q 2931 909 2931 1356 
Q 2931 1769 2642 2001 
Q 2353 2234 1838 2234 
L 1294 2234 
L 1294 2753 
L 1863 2753 
Q 2328 2753 2575 2939 
Q 2822 3125 2822 3475 
Q 2822 3834 2567 4026 
Q 2313 4219 1838 4219 
Q 1578 4219 1281 4162 
Q 984 4106 628 3988 
L 628 4550 
Q 988 4650 1302 4700 
Q 1616 4750 1894 4750 
Q 2613 4750 3031 4423 
Q 3450 4097 3450 3541 
Q 3450 3153 3228 2886 
Q 3006 2619 2597 2516 
z
" transform="scale(0.015625)"/>
       </defs>
       <use xlink:href="#DejaVuSans-31" transform="translate(0 0.765625)"/>
       <use xlink:href="#DejaVuSans-30" transform="translate(63.623047 0.765625)"/>
       <use xlink:href="#DejaVuSans-2212" transform="translate(128.203125 39.046875) scale(0.7)"/>
       <use xlink:href="#DejaVuSans-33" transform="translate(186.855469 39.046875) scale(0.7)"/>
      </g>
     </g>
    </g>
    <g id="text_9">
     <!-- ω_r range -->
     <g transform="translate(11.902567 164.126219) rotate(-90) scale(0.11 -0.11)">
      <use xlink:href="#DejaVuSans-3c9"/>
      <use xlink:href="#DejaVuSans-5f" x="83.740234"/>
      <use xlink:href="#DejaVuSans-72" x="133.740234"/>
      <use xlink:href="#DejaVuSans-20" x="174.853516"/>
      <use xlink:href="#DejaVuSans-72" x="206.640625"/>
      <use xlink:href="#DejaVuSans-61" x="247.753906"/>
      <use xlink:href="#DejaVuSans-6e" x="309.033203"/>
      <use xlink:href="#DejaVuSans-67" x="372.412109"/>
      <use xlink:href="#DejaVuSans-65" x="435.888672"/>
     </g>
    </g>
   </g>
   <g id="PathCollection_1">
    <path d="M 353.696031 117.932944 
L 353.696031 117.932944 
L 337.227616 105.375657 
L 320.759202 105.375657 
L 320.759202 105.375657 
L 304.290788 92.818369 
L 304.290788 92.818369 
L 287.822374 80.261082 
L 271.35396 80.261082 
L 271.35396 80.261082 
L 254.885545 67.703795 
L 254.885545 67.703795 
L 238.417131 55.146508 
L 221.948717 55.146508 
L 221.948717 55.146508 
L 205.480303 42.58922 
L 205.480303 42.58922 
L 189.011889 30.031933 
L 172.543474 30.031933 
L 172.543474 30.031933 
L 156.07506 17.474646 
L 156.07506 17.474646 
" clip-path="url(#pc66f5b6a63)" style="fill: none; stroke: #0d0887"/>
   </g>
   <g id="PathCollection_2">
    <path d="M 353.696031 120.882839 
L 337.227616 118.64207 
L 336.145887 117.932944 
L 320.759202 107.177732 
L 317.062015 105.375657 
L 304.290788 95.768264 
L 287.822374 93.527495 
L 286.740645 92.818369 
L 271.35396 82.063157 
L 267.656773 80.261082 
L 254.885545 70.65369 
L 238.417131 68.412921 
L 237.335402 67.703795 
L 221.948717 56.948582 
L 218.25153 55.146508 
L 205.480303 45.539115 
L 189.011889 43.298346 
L 187.930159 42.58922 
L 172.543474 31.834008 
L 168.846287 30.031933 
L 156.07506 20.424541 
L 139.606646 18.183771 
L 138.524917 17.474646 
" clip-path="url(#pc66f5b6a63)" style="fill: none; stroke: #2e0595"/>
   </g>
   <g id="PathCollection_3">
    <path d="M 353.696031 124.01089 
L 337.227616 120.274006 
L 333.613198 117.932944 
L 320.759202 109.044754 
L 313.036024 105.375657 
L 304.290788 98.896315 
L 287.822374 95.159432 
L 284.207956 92.818369 
L 271.35396 83.930179 
L 263.630781 80.261082 
L 254.885545 73.781741 
L 238.417131 70.044857 
L 234.802713 67.703795 
L 221.948717 58.815605 
L 214.225538 55.146508 
L 205.480303 48.667166 
L 189.011889 44.930283 
L 185.39747 42.58922 
L 172.543474 33.70103 
L 164.820296 30.031933 
L 156.07506 23.552592 
L 139.606646 19.815708 
L 135.992228 17.474646 
" clip-path="url(#pc66f5b6a63)" style="fill: none; stroke: #46039f"/>
   </g>
   <g id="PathCollection_4">
    <path d="M 353.696031 127.340008 
L 337.227616 121.959024 
L 330.930468 117.932944 
L 320.759202 110.981581 
L 308.616983 105.375657 
L 304.290788 102.225433 
L 287.822374 96.84445 
L 281.525226 92.818369 
L 271.35396 85.867007 
L 259.21174 80.261082 
L 254.885545 77.110858 
L 238.417131 71.729875 
L 232.119983 67.703795 
L 221.948717 60.752432 
L 209.806498 55.146508 
L 205.480303 51.996284 
L 189.011889 46.615301 
L 182.71474 42.58922 
L 172.543474 35.637858 
L 160.401255 30.031933 
L 156.07506 26.881709 
L 139.606646 21.500726 
L 133.309498 17.474646 
" clip-path="url(#pc66f5b6a63)" style="fill: none; stroke: #5e01a6"/>
   </g>
   <g id="PathCollection_5">
    <path d="M 40.796161 253.974304 
L 51.375034 256.063104 
" clip-path="url(#pc66f5b6a63)" style="fill: none; stroke: #7401a8"/>
    <path d="M 353.696031 130.729741 
L 353.279921 130.490231 
L 337.227616 123.700693 
L 328.078794 117.932944 
L 320.759202 112.993637 
L 304.290788 105.615167 
L 303.874678 105.375657 
L 287.822374 98.586118 
L 278.673551 92.818369 
L 271.35396 87.879062 
L 254.885545 80.500592 
L 254.469435 80.261082 
L 238.417131 73.471544 
L 229.268309 67.703795 
L 221.948717 62.764488 
L 205.480303 55.386017 
L 205.064193 55.146508 
L 189.011889 48.356969 
L 179.863066 42.58922 
L 172.543474 37.649913 
L 156.07506 30.271443 
L 155.65895 30.031933 
L 139.606646 23.242395 
L 130.457823 17.474646 
" clip-path="url(#pc66f5b6a63)" style="fill: none; stroke: #7401a8"/>
   </g>
   <g id="PathCollection_6">
    <path d="M 40.796161 238.112585 
L 57.264575 243.505817 
L 57.264575 243.505817 
L 73.732989 253.296341 
L 78.444357 256.063104 
" clip-path="url(#pc66f5b6a63)" style="fill: none; stroke: #8a09a5"/>
    <path d="M 353.696031 132.936665 
L 349.352207 130.490231 
L 337.227616 125.502955 
L 325.035458 117.932944 
L 320.759202 115.087001 
L 304.290788 107.82209 
L 299.946964 105.375657 
L 287.822374 100.38838 
L 275.630216 92.818369 
L 271.35396 89.972426 
L 254.885545 82.707516 
L 250.541721 80.261082 
L 238.417131 75.273806 
L 226.224973 67.703795 
L 221.948717 64.857852 
L 205.480303 57.592941 
L 201.136479 55.146508 
L 189.011889 50.159231 
L 176.81973 42.58922 
L 172.543474 39.743277 
L 156.07506 32.478367 
L 151.731236 30.031933 
L 139.606646 25.044656 
L 127.414488 17.474646 
" clip-path="url(#pc66f5b6a63)" style="fill: none; stroke: #8a09a5"/>
   </g>
   <g id="PathCollection_7">
    <path d="M 40.796161 220.670937 
L 54.415457 230.94853 
L 57.264575 232.075839 
L 73.732989 237.265873 
L 85.857579 243.505817 
L 90.201403 245.785512 
L 103.8207 256.063104 
" clip-path="url(#pc66f5b6a63)" style="fill: none; stroke: #9d189d"/>
    <path d="M 353.696031 135.241797 
L 345.051303 130.490231 
L 337.227616 127.370178 
L 321.77283 117.932944 
L 320.759202 117.268523 
L 304.290788 110.127222 
L 295.646061 105.375657 
L 287.822374 102.255603 
L 272.367587 92.818369 
L 271.35396 92.153949 
L 254.885545 85.012648 
L 246.240818 80.261082 
L 238.417131 77.141029 
L 222.962345 67.703795 
L 221.948717 67.039374 
L 205.480303 59.898073 
L 196.835575 55.146508 
L 189.011889 52.026454 
L 173.557102 42.58922 
L 172.543474 41.924799 
L 156.07506 34.783499 
L 147.430333 30.031933 
L 139.606646 26.911879 
L 124.151859 17.474646 
" clip-path="url(#pc66f5b6a63)" style="fill: none; stroke: #9d189d"/>
   </g>
   <g id="PathCollection_8">
    <path d="M 40.796161 206.28194 
L 56.708908 218.391242 
L 57.264575 218.839227 
L 73.732989 221.139165 
L 89.505748 230.94853 
L 90.201403 231.396514 
L 106.11415 243.505817 
L 106.669817 243.953802 
L 123.138232 246.25374 
L 138.91099 256.063104 
" clip-path="url(#pc66f5b6a63)" style="fill: none; stroke: #ae2892"/>
    <path d="M 353.696031 137.654286 
L 340.298777 130.490231 
L 337.227616 129.307221 
L 320.759202 120.212639 
L 317.11905 117.932944 
L 304.290788 112.539712 
L 290.893534 105.375657 
L 287.822374 104.192646 
L 271.35396 95.098064 
L 267.713807 92.818369 
L 254.885545 87.425137 
L 241.488291 80.261082 
L 238.417131 79.078072 
L 221.948717 69.983489 
L 218.308565 67.703795 
L 205.480303 62.310563 
L 192.083049 55.146508 
L 189.011889 53.963497 
L 172.543474 44.868915 
L 168.903322 42.58922 
L 156.07506 37.195988 
L 142.677806 30.031933 
L 139.606646 28.848923 
L 123.138232 19.75434 
L 119.498079 17.474646 
" clip-path="url(#pc66f5b6a63)" style="fill: none; stroke: #ae2892"/>
   </g>
   <g id="PathCollection_9">
    <path d="M 40.796161 184.897927 
L 57.264575 192.711369 
L 58.569621 193.276668 
L 73.732989 204.895188 
L 75.676724 205.833955 
L 90.201403 210.012501 
L 106.669817 217.825943 
L 107.974864 218.391242 
L 123.138232 230.009762 
L 125.081967 230.94853 
L 139.606646 235.127076 
L 156.07506 242.940518 
L 157.380106 243.505817 
L 172.543474 255.124337 
L 174.487209 256.063104 
" clip-path="url(#pc66f5b6a63)" style="fill: none; stroke: #bf3984"/>
    <path d="M 353.696031 140.184624 
L 337.227616 132.046687 
L 334.622891 130.490231 
L 320.759202 123.635132 
L 311.384524 117.932944 
L 304.290788 115.070049 
L 287.822374 106.932112 
L 285.217648 105.375657 
L 271.35396 98.520557 
L 261.979281 92.818369 
L 254.885545 89.955475 
L 238.417131 81.817538 
L 235.812406 80.261082 
L 221.948717 73.405983 
L 212.574039 67.703795 
L 205.480303 64.8409 
L 189.011889 56.702963 
L 186.407163 55.146508 
L 172.543474 48.291408 
L 163.168796 42.58922 
L 156.07506 39.726326 
L 139.606646 31.588389 
L 137.00192 30.031933 
L 123.138232 23.176833 
L 113.763553 17.474646 
" clip-path="url(#pc66f5b6a63)" style="fill: none; stroke: #bf3984"/>
   </g>
   <g id="PathCollection_10">
    <path d="M 40.796161 160.269142 
L 51.375034 168.162093 
L 57.264575 172.826429 
L 62.862143 180.719381 
L 73.732989 184.777188 
L 90.201403 185.383717 
L 100.780276 193.276668 
L 106.669817 197.941004 
L 112.267385 205.833955 
L 123.138232 209.891762 
L 139.606646 210.498291 
L 150.185519 218.391242 
L 156.07506 223.055579 
L 161.672628 230.94853 
L 172.543474 235.006337 
L 189.011889 235.612866 
L 199.590762 243.505817 
L 205.480303 248.170153 
L 211.077871 256.063104 
" clip-path="url(#pc66f5b6a63)" style="fill: none; stroke: #cc4977"/>
    <path d="M 353.696031 142.844917 
L 337.227616 136.077886 
L 327.512029 130.490231 
L 320.759202 127.299808 
L 304.817327 117.932944 
L 304.290788 117.730343 
L 287.822374 110.963312 
L 278.106786 105.375657 
L 271.35396 102.185233 
L 255.412084 92.818369 
L 254.885545 92.615768 
L 238.417131 85.848737 
L 228.701544 80.261082 
L 221.948717 77.070659 
L 206.006842 67.703795 
L 205.480303 67.501193 
L 189.011889 60.734162 
L 179.296301 55.146508 
L 172.543474 51.956084 
L 156.601599 42.58922 
L 156.07506 42.386619 
L 139.606646 35.619588 
L 129.891058 30.031933 
L 123.138232 26.84151 
L 107.196356 17.474646 
" clip-path="url(#pc66f5b6a63)" style="fill: none; stroke: #cc4977"/>
   </g>
   <g id="PathCollection_11">
    <path d="M 353.696031 147.524473 
L 344.122801 143.047519 
L 337.227616 140.449416 
L 320.759202 131.355207 
L 319.198531 130.490231 
L 304.290788 122.409898 
L 294.717558 117.932944 
L 287.822374 115.334842 
L 271.35396 106.240632 
L 269.793289 105.375657 
L 254.885545 97.295324 
L 245.312315 92.818369 
L 238.417131 90.220267 
L 221.948717 81.126058 
L 220.388046 80.261082 
L 205.480303 72.180749 
L 195.907073 67.703795 
L 189.011889 65.105693 
L 172.543474 56.011483 
L 170.982803 55.146508 
L 156.07506 47.066175 
L 146.50183 42.58922 
L 139.606646 39.991118 
L 123.138232 30.896908 
L 121.577561 30.031933 
L 106.669817 21.9516 
L 97.096587 17.474646 
" clip-path="url(#pc66f5b6a63)" style="fill: none; stroke: #da5a6a"/>
    <path d="M 40.796161 125.957779 
L 49.774701 130.490231 
L 57.264575 134.34743 
L 68.879764 143.047519 
L 73.732989 148.94664 
L 90.201403 151.072353 
L 99.179944 155.604806 
L 106.669817 159.462004 
L 118.285007 168.162093 
L 123.138232 174.061214 
L 139.606646 176.186928 
L 148.585187 180.719381 
L 156.07506 184.576579 
L 167.690249 193.276668 
L 172.543474 199.175789 
L 189.011889 201.301503 
L 197.990429 205.833955 
L 205.480303 209.691154 
L 217.095492 218.391242 
L 221.948717 224.290363 
L 238.417131 226.416077 
L 247.395672 230.94853 
L 254.885545 234.805728 
L 266.500735 243.505817 
L 271.35396 249.404938 
L 287.822374 251.530652 
L 296.800915 256.063104 
" clip-path="url(#pc66f5b6a63)" style="fill: none; stroke: #da5a6a"/>
   </g>
   <g id="PathCollection_12">
    <path d="M 353.696031 152.838043 
L 337.227616 145.148246 
L 333.387528 143.047519 
L 320.759202 136.293317 
L 309.692915 130.490231 
L 304.290788 127.723468 
L 287.822374 120.033672 
L 283.982285 117.932944 
L 271.35396 111.178742 
L 260.287673 105.375657 
L 254.885545 102.608894 
L 238.417131 94.919097 
L 234.577043 92.818369 
L 221.948717 86.064168 
L 210.88243 80.261082 
L 205.480303 77.494319 
L 189.011889 69.804522 
L 185.1718 67.703795 
L 172.543474 60.949593 
L 161.477188 55.146508 
L 156.07506 52.379745 
L 139.606646 44.689948 
L 135.766557 42.58922 
L 123.138232 35.835019 
L 112.071945 30.031933 
L 106.669817 27.26517 
L 90.201403 19.575373 
L 86.361315 17.474646 
" clip-path="url(#pc66f5b6a63)" style="fill: none; stroke: #e56a5d"/>
    <path d="M 40.796161 99.982425 
L 51.375034 105.375657 
L 55.144713 117.932944 
L 57.264575 119.288689 
L 73.732989 121.391241 
L 90.201403 125.096999 
L 100.780276 130.490231 
L 104.549955 143.047519 
L 106.669817 144.403264 
L 123.138232 146.505815 
L 139.606646 150.211574 
L 150.185519 155.604806 
L 153.955198 168.162093 
L 156.07506 169.517838 
L 172.543474 171.62039 
L 189.011889 175.326148 
L 199.590762 180.719381 
L 203.360441 193.276668 
L 205.480303 194.632413 
L 221.948717 196.734964 
L 238.417131 200.440723 
L 248.996004 205.833955 
L 252.765683 218.391242 
L 254.885545 219.746987 
L 271.35396 221.849539 
L 287.822374 225.555298 
L 298.401247 230.94853 
L 302.170926 243.505817 
L 304.290788 244.861562 
L 320.759202 246.964114 
L 337.227616 250.669872 
L 347.80649 256.063104 
" clip-path="url(#pc66f5b6a63)" style="fill: none; stroke: #e56a5d"/>
   </g>
   <g id="PathCollection_13">
    <path d="M 353.696031 158.274396 
L 348.585941 155.604806 
L 337.227616 150.211574 
L 323.332746 143.047519 
L 320.759202 141.752168 
L 304.290788 133.159822 
L 299.180698 130.490231 
L 287.822374 125.096999 
L 273.927503 117.932944 
L 271.35396 116.637594 
L 254.885545 108.045247 
L 249.775456 105.375657 
L 238.417131 99.982425 
L 224.52226 92.818369 
L 221.948717 91.523019 
L 205.480303 82.930673 
L 200.370213 80.261082 
L 189.011889 74.86785 
L 175.117018 67.703795 
L 172.543474 66.408444 
L 156.07506 57.816098 
L 150.96497 55.146508 
L 139.606646 49.753275 
L 125.711775 42.58922 
L 123.138232 41.29387 
L 106.669817 32.701523 
L 101.559728 30.031933 
L 90.201403 24.638701 
L 76.306532 17.474646 
" clip-path="url(#pc66f5b6a63)" style="fill: none; stroke: #ee7b51"/>
    <path d="M 40.796161 68.831104 
L 51.375034 80.261082 
L 57.264575 83.009005 
L 73.732989 83.719379 
L 89.271468 92.818369 
L 90.201403 93.945679 
L 100.780276 105.375657 
L 106.669817 108.12358 
L 123.138232 108.833953 
L 138.676711 117.932944 
L 139.606646 119.060253 
L 150.185519 130.490231 
L 156.07506 133.238154 
L 172.543474 133.948528 
L 188.081953 143.047519 
L 189.011889 144.174828 
L 199.590762 155.604806 
L 205.480303 158.352729 
L 221.948717 159.063103 
L 237.487196 168.162093 
L 238.417131 169.289403 
L 248.996004 180.719381 
L 254.885545 183.467303 
L 271.35396 184.177677 
L 286.892438 193.276668 
L 287.822374 194.403977 
L 298.401247 205.833955 
L 304.290788 208.581878 
L 320.759202 209.292252 
L 336.297681 218.391242 
L 337.227616 219.518552 
L 347.80649 230.94853 
L 353.696031 233.696453 
" clip-path="url(#pc66f5b6a63)" style="fill: none; stroke: #ee7b51"/>
   </g>
   <g id="PathCollection_14">
    <path d="M 353.696031 163.847089 
L 337.227616 155.790996 
L 336.831408 155.604806 
L 320.759202 147.490476 
L 312.860253 143.047519 
L 304.290788 138.732514 
L 287.822374 130.676421 
L 287.426165 130.490231 
L 271.35396 122.375902 
L 263.45501 117.932944 
L 254.885545 113.61794 
L 238.417131 105.561846 
L 238.020923 105.375657 
L 221.948717 97.261327 
L 214.049767 92.818369 
L 205.480303 88.503365 
L 189.011889 80.447272 
L 188.61568 80.261082 
L 172.543474 72.146752 
L 164.644525 67.703795 
L 156.07506 63.388791 
L 139.606646 55.332697 
L 139.210438 55.146508 
L 123.138232 47.032178 
L 115.239282 42.58922 
L 106.669817 38.274216 
L 90.201403 30.218123 
L 89.805195 30.031933 
L 73.732989 21.917603 
L 65.834039 17.474646 
" clip-path="url(#pc66f5b6a63)" style="fill: none; stroke: #f68f44"/>
    <path d="M 40.796161 55.011352 
L 41.191638 55.146508 
L 57.264575 65.162035 
L 65.255054 67.703795 
L 73.732989 72.368131 
L 90.201403 80.125927 
L 90.59688 80.261082 
L 106.669817 90.27661 
L 114.660297 92.818369 
L 123.138232 97.482706 
L 139.606646 105.240501 
L 140.002123 105.375657 
L 156.07506 115.391184 
L 164.06554 117.932944 
L 172.543474 122.59728 
L 189.011889 130.355076 
L 189.407365 130.490231 
L 205.480303 140.505759 
L 213.470782 143.047519 
L 221.948717 147.711855 
L 238.417131 155.46965 
L 238.812608 155.604806 
L 254.885545 165.620333 
L 262.876025 168.162093 
L 271.35396 172.826429 
L 287.822374 180.584225 
L 288.217851 180.719381 
L 304.290788 190.734908 
L 312.281268 193.276668 
L 320.759202 197.941004 
L 337.227616 205.6988 
L 337.623093 205.833955 
L 353.696031 215.849483 
" clip-path="url(#pc66f5b6a63)" style="fill: none; stroke: #f68f44"/>
   </g>
   <g id="PathCollection_15">
    <path d="M 353.696031 169.810039 
L 350.846913 168.162093 
L 337.227616 161.089053 
L 324.566685 155.604806 
L 320.759202 153.827128 
L 304.290788 144.695464 
L 301.441671 143.047519 
L 287.822374 135.974479 
L 275.161443 130.490231 
L 271.35396 128.712553 
L 254.885545 119.58089 
L 252.036428 117.932944 
L 238.417131 110.859904 
L 225.7562 105.375657 
L 221.948717 103.597978 
L 205.480303 94.466315 
L 202.631185 92.818369 
L 189.011889 85.74533 
L 176.350957 80.261082 
L 172.543474 78.483404 
L 156.07506 69.35174 
L 153.225943 67.703795 
L 139.606646 60.630755 
L 126.945715 55.146508 
L 123.138232 53.368829 
L 106.669817 44.237166 
L 103.8207 42.58922 
L 90.201403 35.51618 
L 77.540472 30.031933 
L 73.732989 28.254255 
L 57.264575 19.122591 
L 54.415457 17.474646 
" clip-path="url(#pc66f5b6a63)" style="fill: none; stroke: #fba238"/>
    <path d="M 40.796161 51.489378 
L 50.741669 55.146508 
L 57.264575 59.405703 
L 73.732989 66.121861 
L 76.514538 67.703795 
L 90.201403 76.603953 
L 100.146912 80.261082 
L 106.669817 84.520278 
L 123.138232 91.236436 
L 125.91978 92.818369 
L 139.606646 101.718527 
L 149.552154 105.375657 
L 156.07506 109.634852 
L 172.543474 116.351011 
L 175.325023 117.932944 
L 189.011889 126.833102 
L 198.957397 130.490231 
L 205.480303 134.749427 
L 221.948717 141.465585 
L 224.730265 143.047519 
L 238.417131 151.947677 
L 248.36264 155.604806 
L 254.885545 159.864001 
L 271.35396 166.58016 
L 274.135508 168.162093 
L 287.822374 177.062251 
L 297.767882 180.719381 
L 304.290788 184.978576 
L 320.759202 191.694734 
L 323.540751 193.276668 
L 337.227616 202.176826 
L 347.173125 205.833955 
L 353.696031 210.093151 
" clip-path="url(#pc66f5b6a63)" style="fill: none; stroke: #fba238"/>
   </g>
   <g id="PathCollection_16">
    <path d="M 353.696031 175.793891 
L 339.644527 168.162093 
L 337.227616 166.991268 
L 320.759202 159.827327 
L 313.269329 155.604806 
L 304.290788 150.679316 
L 290.239284 143.047519 
L 287.822374 141.876693 
L 271.35396 134.712752 
L 263.864086 130.490231 
L 254.885545 125.564742 
L 240.834042 117.932944 
L 238.417131 116.762119 
L 221.948717 109.598178 
L 214.458843 105.375657 
L 205.480303 100.450167 
L 191.428799 92.818369 
L 189.011889 91.647544 
L 172.543474 84.483603 
L 165.053601 80.261082 
L 156.07506 75.335592 
L 142.023556 67.703795 
L 139.606646 66.532969 
L 123.138232 59.369029 
L 115.648358 55.146508 
L 106.669817 50.221018 
L 92.618314 42.58922 
L 90.201403 41.418395 
L 73.732989 34.254454 
L 66.243116 30.031933 
L 57.264575 25.106443 
L 43.213071 17.474646 
" clip-path="url(#pc66f5b6a63)" style="fill: none; stroke: #feb82c"/>
    <path d="M 40.796161 48.191664 
L 57.264575 54.20774 
L 58.489148 55.146508 
L 73.732989 62.982996 
L 81.797402 67.703795 
L 90.201403 73.306239 
L 106.669817 79.322315 
L 107.894391 80.261082 
L 123.138232 88.097571 
L 131.202645 92.818369 
L 139.606646 98.420814 
L 156.07506 104.436889 
L 157.299633 105.375657 
L 172.543474 113.212145 
L 180.607887 117.932944 
L 189.011889 123.535388 
L 205.480303 129.551464 
L 206.704876 130.490231 
L 221.948717 138.32672 
L 230.01313 143.047519 
L 238.417131 148.649963 
L 254.885545 154.666038 
L 256.110119 155.604806 
L 271.35396 163.441294 
L 279.418373 168.162093 
L 287.822374 173.764537 
L 304.290788 179.780613 
L 305.515361 180.719381 
L 320.759202 188.555869 
L 328.823615 193.276668 
L 337.227616 198.879112 
L 353.696031 204.895188 
" clip-path="url(#pc66f5b6a63)" style="fill: none; stroke: #feb82c"/>
   </g>
   <g id="PathCollection_17">
    <path d="M 353.696031 182.304573 
L 349.65512 180.719381 
L 337.227616 174.689821 
L 325.767901 168.162093 
L 320.759202 166.135368 
L 304.290788 157.189998 
L 300.249877 155.604806 
L 287.822374 149.575246 
L 276.362658 143.047519 
L 271.35396 141.020793 
L 254.885545 132.075424 
L 250.844634 130.490231 
L 238.417131 124.460672 
L 226.957415 117.932944 
L 221.948717 115.906219 
L 205.480303 106.960849 
L 201.439392 105.375657 
L 189.011889 99.346097 
L 177.552173 92.818369 
L 172.543474 90.791644 
L 156.07506 81.846274 
L 152.034149 80.261082 
L 139.606646 74.231523 
L 128.14693 67.703795 
L 123.138232 65.677069 
L 106.669817 56.7317 
L 102.628906 55.146508 
L 90.201403 49.116948 
L 78.741687 42.58922 
L 73.732989 40.562495 
L 57.264575 31.617125 
L 53.223664 30.031933 
L 40.796161 24.002373 
" clip-path="url(#pc66f5b6a63)" style="fill: none; stroke: #fcce25"/>
    <path d="M 40.796161 45.091353 
L 57.264575 49.412928 
L 64.584166 55.146508 
L 73.732989 60.023486 
L 86.52799 67.703795 
L 90.201403 70.205928 
L 106.669817 74.527503 
L 113.989409 80.261082 
L 123.138232 85.13806 
L 135.933232 92.818369 
L 139.606646 95.320502 
L 156.07506 99.642078 
L 163.394652 105.375657 
L 172.543474 110.252635 
L 185.338475 117.932944 
L 189.011889 120.435077 
L 205.480303 124.756652 
L 212.799894 130.490231 
L 221.948717 135.36721 
L 234.743717 143.047519 
L 238.417131 145.549651 
L 254.885545 149.871227 
L 262.205137 155.604806 
L 271.35396 160.481784 
L 284.14896 168.162093 
L 287.822374 170.664226 
L 304.290788 174.985801 
L 311.61038 180.719381 
L 320.759202 185.596359 
L 333.554203 193.276668 
L 337.227616 195.778801 
L 353.696031 200.100376 
" clip-path="url(#pc66f5b6a63)" style="fill: none; stroke: #fcce25"/>
   </g>
   <g id="PathCollection_18">
    <path d="M 353.696031 188.918101 
L 341.0351 193.276668 
L 353.696031 195.711969 
" clip-path="url(#pc66f5b6a63)" style="fill: none; stroke: #f6e626"/>
    <path d="M 320.759202 182.79681 
L 332.883792 180.719381 
L 320.759202 173.749748 
L 316.981689 180.719381 
L 320.759202 182.79681 
z
" clip-path="url(#pc66f5b6a63)" style="fill: none; stroke: #f6e626"/>
    <path d="M 304.290788 170.597394 
L 312.565777 168.162093 
L 304.290788 163.803526 
L 291.629857 168.162093 
L 304.290788 170.597394 
z
" clip-path="url(#pc66f5b6a63)" style="fill: none; stroke: #f6e626"/>
    <path d="M 271.35396 157.682236 
L 283.47855 155.604806 
L 271.35396 148.635173 
L 267.576446 155.604806 
L 271.35396 157.682236 
z
" clip-path="url(#pc66f5b6a63)" style="fill: none; stroke: #f6e626"/>
    <path d="M 254.885545 145.48282 
L 263.160534 143.047519 
L 254.885545 138.688952 
L 242.224614 143.047519 
L 254.885545 145.48282 
z
" clip-path="url(#pc66f5b6a63)" style="fill: none; stroke: #f6e626"/>
    <path d="M 221.948717 132.567661 
L 234.073307 130.490231 
L 221.948717 123.520599 
L 218.171203 130.490231 
L 221.948717 132.567661 
z
" clip-path="url(#pc66f5b6a63)" style="fill: none; stroke: #f6e626"/>
    <path d="M 205.480303 120.368245 
L 213.755292 117.932944 
L 205.480303 113.574377 
L 192.819372 117.932944 
L 205.480303 120.368245 
z
" clip-path="url(#pc66f5b6a63)" style="fill: none; stroke: #f6e626"/>
    <path d="M 172.543474 107.453086 
L 184.668064 105.375657 
L 172.543474 98.406024 
L 168.765961 105.375657 
L 172.543474 107.453086 
z
" clip-path="url(#pc66f5b6a63)" style="fill: none; stroke: #f6e626"/>
    <path d="M 156.07506 95.25367 
L 164.350049 92.818369 
L 156.07506 88.459802 
L 143.414129 92.818369 
L 156.07506 95.25367 
z
" clip-path="url(#pc66f5b6a63)" style="fill: none; stroke: #f6e626"/>
    <path d="M 123.138232 82.338512 
L 135.262822 80.261082 
L 123.138232 73.29145 
L 119.360718 80.261082 
L 123.138232 82.338512 
z
" clip-path="url(#pc66f5b6a63)" style="fill: none; stroke: #f6e626"/>
    <path d="M 106.669817 70.139096 
L 114.944806 67.703795 
L 106.669817 63.345228 
L 94.008886 67.703795 
L 106.669817 70.139096 
z
" clip-path="url(#pc66f5b6a63)" style="fill: none; stroke: #f6e626"/>
    <path d="M 73.732989 57.223937 
L 85.857579 55.146508 
L 73.732989 48.176875 
L 69.955476 55.146508 
L 73.732989 57.223937 
z
" clip-path="url(#pc66f5b6a63)" style="fill: none; stroke: #f6e626"/>
    <path d="M 57.264575 45.024521 
L 65.539564 42.58922 
L 57.264575 38.230653 
L 44.603644 42.58922 
L 57.264575 45.024521 
z
" clip-path="url(#pc66f5b6a63)" style="fill: none; stroke: #f6e626"/>
   </g>
   <g id="PathCollection_19"/>
   <g id="PathCollection_20">
    <path d="M 337.227616 118.64207 
L 353.696031 120.882839 
L 353.696031 117.932944 
L 353.696031 105.375657 
L 353.696031 92.818369 
L 353.696031 80.261082 
L 353.696031 67.703795 
L 353.696031 55.146508 
L 353.696031 42.58922 
L 353.696031 30.031933 
L 353.696031 17.474646 
L 337.227616 17.474646 
L 320.759202 17.474646 
L 304.290788 17.474646 
L 287.822374 17.474646 
L 271.35396 17.474646 
L 254.885545 17.474646 
L 238.417131 17.474646 
L 221.948717 17.474646 
L 205.480303 17.474646 
L 189.011889 17.474646 
L 172.543474 17.474646 
L 156.07506 17.474646 
L 139.606646 17.474646 
L 138.524917 17.474646 
L 139.606646 18.183771 
L 156.07506 20.424541 
L 168.846287 30.031933 
L 172.543474 31.834008 
L 187.930159 42.58922 
L 189.011889 43.298346 
L 205.480303 45.539115 
L 218.25153 55.146508 
L 221.948717 56.948582 
L 237.335402 67.703795 
L 238.417131 68.412921 
L 254.885545 70.65369 
L 267.656773 80.261082 
L 271.35396 82.063157 
L 286.740645 92.818369 
L 287.822374 93.527495 
L 304.290788 95.768264 
L 317.062015 105.375657 
L 320.759202 107.177732 
L 336.145887 117.932944 
z
" clip-path="url(#pc66f5b6a63)" style="fill: #20068f"/>
   </g>
   <g id="PathCollection_21">
    <path d="M 337.227616 120.274006 
L 353.696031 124.01089 
L 353.696031 120.882839 
L 337.227616 118.64207 
L 336.145887 117.932944 
L 320.759202 107.177732 
L 317.062015 105.375657 
L 304.290788 95.768264 
L 287.822374 93.527495 
L 286.740645 92.818369 
L 271.35396 82.063157 
L 267.656773 80.261082 
L 254.885545 70.65369 
L 238.417131 68.412921 
L 237.335402 67.703795 
L 221.948717 56.948582 
L 218.25153 55.146508 
L 205.480303 45.539115 
L 189.011889 43.298346 
L 187.930159 42.58922 
L 172.543474 31.834008 
L 168.846287 30.031933 
L 156.07506 20.424541 
L 139.606646 18.183771 
L 138.524917 17.474646 
L 135.992228 17.474646 
L 139.606646 19.815708 
L 156.07506 23.552592 
L 164.820296 30.031933 
L 172.543474 33.70103 
L 185.39747 42.58922 
L 189.011889 44.930283 
L 205.480303 48.667166 
L 214.225538 55.146508 
L 221.948717 58.815605 
L 234.802713 67.703795 
L 238.417131 70.044857 
L 254.885545 73.781741 
L 263.630781 80.261082 
L 271.35396 83.930179 
L 284.207956 92.818369 
L 287.822374 95.159432 
L 304.290788 98.896315 
L 313.036024 105.375657 
L 320.759202 109.044754 
L 333.613198 117.932944 
z
" clip-path="url(#pc66f5b6a63)" style="fill: #3a049a"/>
   </g>
   <g id="PathCollection_22">
    <path d="M 337.227616 121.959024 
L 353.696031 127.340008 
L 353.696031 124.01089 
L 337.227616 120.274006 
L 333.613198 117.932944 
L 320.759202 109.044754 
L 313.036024 105.375657 
L 304.290788 98.896315 
L 287.822374 95.159432 
L 284.207956 92.818369 
L 271.35396 83.930179 
L 263.630781 80.261082 
L 254.885545 73.781741 
L 238.417131 70.044857 
L 234.802713 67.703795 
L 221.948717 58.815605 
L 214.225538 55.146508 
L 205.480303 48.667166 
L 189.011889 44.930283 
L 185.39747 42.58922 
L 172.543474 33.70103 
L 164.820296 30.031933 
L 156.07506 23.552592 
L 139.606646 19.815708 
L 135.992228 17.474646 
L 133.309498 17.474646 
L 139.606646 21.500726 
L 156.07506 26.881709 
L 160.401255 30.031933 
L 172.543474 35.637858 
L 182.71474 42.58922 
L 189.011889 46.615301 
L 205.480303 51.996284 
L 209.806498 55.146508 
L 221.948717 60.752432 
L 232.119983 67.703795 
L 238.417131 71.729875 
L 254.885545 77.110858 
L 259.21174 80.261082 
L 271.35396 85.867007 
L 281.525226 92.818369 
L 287.822374 96.84445 
L 304.290788 102.225433 
L 308.616983 105.375657 
L 320.759202 110.981581 
L 330.930468 117.932944 
z
" clip-path="url(#pc66f5b6a63)" style="fill: #5302a3"/>
   </g>
   <g id="PathCollection_23">
    <path d="M 40.796161 253.974304 
L 40.796161 256.063104 
L 51.375034 256.063104 
z
" clip-path="url(#pc66f5b6a63)" style="fill: #6900a8"/>
    <path d="M 353.696031 130.729741 
L 353.696031 130.490231 
L 353.696031 127.340008 
L 337.227616 121.959024 
L 330.930468 117.932944 
L 320.759202 110.981581 
L 308.616983 105.375657 
L 304.290788 102.225433 
L 287.822374 96.84445 
L 281.525226 92.818369 
L 271.35396 85.867007 
L 259.21174 80.261082 
L 254.885545 77.110858 
L 238.417131 71.729875 
L 232.119983 67.703795 
L 221.948717 60.752432 
L 209.806498 55.146508 
L 205.480303 51.996284 
L 189.011889 46.615301 
L 182.71474 42.58922 
L 172.543474 35.637858 
L 160.401255 30.031933 
L 156.07506 26.881709 
L 139.606646 21.500726 
L 133.309498 17.474646 
L 130.457823 17.474646 
L 139.606646 23.242395 
L 155.65895 30.031933 
L 156.07506 30.271443 
L 172.543474 37.649913 
L 179.863066 42.58922 
L 189.011889 48.356969 
L 205.064193 55.146508 
L 205.480303 55.386017 
L 221.948717 62.764488 
L 229.268309 67.703795 
L 238.417131 73.471544 
L 254.469435 80.261082 
L 254.885545 80.500592 
L 271.35396 87.879062 
L 278.673551 92.818369 
L 287.822374 98.586118 
L 303.874678 105.375657 
L 304.290788 105.615167 
L 320.759202 112.993637 
L 328.078794 117.932944 
L 337.227616 123.700693 
L 353.279921 130.490231 
z
" clip-path="url(#pc66f5b6a63)" style="fill: #6900a8"/>
   </g>
   <g id="PathCollection_24">
    <path d="M 57.264575 256.063104 
L 73.732989 256.063104 
L 78.444357 256.063104 
L 73.732989 253.296341 
L 57.264575 243.505817 
L 57.264575 243.505817 
L 40.796161 238.112585 
L 40.796161 243.505817 
L 40.796161 253.974304 
L 51.375034 256.063104 
z
" clip-path="url(#pc66f5b6a63)" style="fill: #7e03a8"/>
    <path d="M 353.696031 132.936665 
L 353.696031 130.729741 
L 353.279921 130.490231 
L 337.227616 123.700693 
L 328.078794 117.932944 
L 320.759202 112.993637 
L 304.290788 105.615167 
L 303.874678 105.375657 
L 287.822374 98.586118 
L 278.673551 92.818369 
L 271.35396 87.879062 
L 254.885545 80.500592 
L 254.469435 80.261082 
L 238.417131 73.471544 
L 229.268309 67.703795 
L 221.948717 62.764488 
L 205.480303 55.386017 
L 205.064193 55.146508 
L 189.011889 48.356969 
L 179.863066 42.58922 
L 172.543474 37.649913 
L 156.07506 30.271443 
L 155.65895 30.031933 
L 139.606646 23.242395 
L 130.457823 17.474646 
L 127.414488 17.474646 
L 139.606646 25.044656 
L 151.731236 30.031933 
L 156.07506 32.478367 
L 172.543474 39.743277 
L 176.81973 42.58922 
L 189.011889 50.159231 
L 201.136479 55.146508 
L 205.480303 57.592941 
L 221.948717 64.857852 
L 226.224973 67.703795 
L 238.417131 75.273806 
L 250.541721 80.261082 
L 254.885545 82.707516 
L 271.35396 89.972426 
L 275.630216 92.818369 
L 287.822374 100.38838 
L 299.946964 105.375657 
L 304.290788 107.82209 
L 320.759202 115.087001 
L 325.035458 117.932944 
L 337.227616 125.502955 
L 349.352207 130.490231 
z
" clip-path="url(#pc66f5b6a63)" style="fill: #7e03a8"/>
   </g>
   <g id="PathCollection_25">
    <path d="M 73.732989 253.296341 
L 78.444357 256.063104 
L 90.201403 256.063104 
L 103.8207 256.063104 
L 90.201403 245.785512 
L 85.857579 243.505817 
L 73.732989 237.265873 
L 57.264575 232.075839 
L 54.415457 230.94853 
L 40.796161 220.670937 
L 40.796161 230.94853 
L 40.796161 238.112585 
L 57.264575 243.505817 
L 57.264575 243.505817 
z
" clip-path="url(#pc66f5b6a63)" style="fill: #9410a2"/>
    <path d="M 353.696031 135.241797 
L 353.696031 132.936665 
L 349.352207 130.490231 
L 337.227616 125.502955 
L 325.035458 117.932944 
L 320.759202 115.087001 
L 304.290788 107.82209 
L 299.946964 105.375657 
L 287.822374 100.38838 
L 275.630216 92.818369 
L 271.35396 89.972426 
L 254.885545 82.707516 
L 250.541721 80.261082 
L 238.417131 75.273806 
L 226.224973 67.703795 
L 221.948717 64.857852 
L 205.480303 57.592941 
L 201.136479 55.146508 
L 189.011889 50.159231 
L 176.81973 42.58922 
L 172.543474 39.743277 
L 156.07506 32.478367 
L 151.731236 30.031933 
L 139.606646 25.044656 
L 127.414488 17.474646 
L 124.151859 17.474646 
L 139.606646 26.911879 
L 147.430333 30.031933 
L 156.07506 34.783499 
L 172.543474 41.924799 
L 173.557102 42.58922 
L 189.011889 52.026454 
L 196.835575 55.146508 
L 205.480303 59.898073 
L 221.948717 67.039374 
L 222.962345 67.703795 
L 238.417131 77.141029 
L 246.240818 80.261082 
L 254.885545 85.012648 
L 271.35396 92.153949 
L 272.367587 92.818369 
L 287.822374 102.255603 
L 295.646061 105.375657 
L 304.290788 110.127222 
L 320.759202 117.268523 
L 321.77283 117.932944 
L 337.227616 127.370178 
L 345.051303 130.490231 
z
" clip-path="url(#pc66f5b6a63)" style="fill: #9410a2"/>
   </g>
   <g id="PathCollection_26">
    <path d="M 90.201403 245.785512 
L 103.8207 256.063104 
L 106.669817 256.063104 
L 123.138232 256.063104 
L 138.91099 256.063104 
L 123.138232 246.25374 
L 106.669817 243.953802 
L 106.11415 243.505817 
L 90.201403 231.396514 
L 89.505748 230.94853 
L 73.732989 221.139165 
L 57.264575 218.839227 
L 56.708908 218.391242 
L 40.796161 206.28194 
L 40.796161 218.391242 
L 40.796161 220.670937 
L 54.415457 230.94853 
L 57.264575 232.075839 
L 73.732989 237.265873 
L 85.857579 243.505817 
z
" clip-path="url(#pc66f5b6a63)" style="fill: #a62098"/>
    <path d="M 353.696031 137.654286 
L 353.696031 135.241797 
L 345.051303 130.490231 
L 337.227616 127.370178 
L 321.77283 117.932944 
L 320.759202 117.268523 
L 304.290788 110.127222 
L 295.646061 105.375657 
L 287.822374 102.255603 
L 272.367587 92.818369 
L 271.35396 92.153949 
L 254.885545 85.012648 
L 246.240818 80.261082 
L 238.417131 77.141029 
L 222.962345 67.703795 
L 221.948717 67.039374 
L 205.480303 59.898073 
L 196.835575 55.146508 
L 189.011889 52.026454 
L 173.557102 42.58922 
L 172.543474 41.924799 
L 156.07506 34.783499 
L 147.430333 30.031933 
L 139.606646 26.911879 
L 124.151859 17.474646 
L 123.138232 17.474646 
L 119.498079 17.474646 
L 123.138232 19.75434 
L 139.606646 28.848923 
L 142.677806 30.031933 
L 156.07506 37.195988 
L 168.903322 42.58922 
L 172.543474 44.868915 
L 189.011889 53.963497 
L 192.083049 55.146508 
L 205.480303 62.310563 
L 218.308565 67.703795 
L 221.948717 69.983489 
L 238.417131 79.078072 
L 241.488291 80.261082 
L 254.885545 87.425137 
L 267.713807 92.818369 
L 271.35396 95.098064 
L 287.822374 104.192646 
L 290.893534 105.375657 
L 304.290788 112.539712 
L 317.11905 117.932944 
L 320.759202 120.212639 
L 337.227616 129.307221 
L 340.298777 130.490231 
z
" clip-path="url(#pc66f5b6a63)" style="fill: #a62098"/>
   </g>
   <g id="PathCollection_27">
    <path d="M 106.669817 243.953802 
L 123.138232 246.25374 
L 138.91099 256.063104 
L 139.606646 256.063104 
L 156.07506 256.063104 
L 172.543474 256.063104 
L 174.487209 256.063104 
L 172.543474 255.124337 
L 157.380106 243.505817 
L 156.07506 242.940518 
L 139.606646 235.127076 
L 125.081967 230.94853 
L 123.138232 230.009762 
L 107.974864 218.391242 
L 106.669817 217.825943 
L 90.201403 210.012501 
L 75.676724 205.833955 
L 73.732989 204.895188 
L 58.569621 193.276668 
L 57.264575 192.711369 
L 40.796161 184.897927 
L 40.796161 193.276668 
L 40.796161 205.833955 
L 40.796161 206.28194 
L 56.708908 218.391242 
L 57.264575 218.839227 
L 73.732989 221.139165 
L 89.505748 230.94853 
L 90.201403 231.396514 
L 106.11415 243.505817 
z
" clip-path="url(#pc66f5b6a63)" style="fill: #b7318a"/>
    <path d="M 337.227616 132.046687 
L 353.696031 140.184624 
L 353.696031 137.654286 
L 340.298777 130.490231 
L 337.227616 129.307221 
L 320.759202 120.212639 
L 317.11905 117.932944 
L 304.290788 112.539712 
L 290.893534 105.375657 
L 287.822374 104.192646 
L 271.35396 95.098064 
L 267.713807 92.818369 
L 254.885545 87.425137 
L 241.488291 80.261082 
L 238.417131 79.078072 
L 221.948717 69.983489 
L 218.308565 67.703795 
L 205.480303 62.310563 
L 192.083049 55.146508 
L 189.011889 53.963497 
L 172.543474 44.868915 
L 168.903322 42.58922 
L 156.07506 37.195988 
L 142.677806 30.031933 
L 139.606646 28.848923 
L 123.138232 19.75434 
L 119.498079 17.474646 
L 113.763553 17.474646 
L 123.138232 23.176833 
L 137.00192 30.031933 
L 139.606646 31.588389 
L 156.07506 39.726326 
L 163.168796 42.58922 
L 172.543474 48.291408 
L 186.407163 55.146508 
L 189.011889 56.702963 
L 205.480303 64.8409 
L 212.574039 67.703795 
L 221.948717 73.405983 
L 235.812406 80.261082 
L 238.417131 81.817538 
L 254.885545 89.955475 
L 261.979281 92.818369 
L 271.35396 98.520557 
L 285.217648 105.375657 
L 287.822374 106.932112 
L 304.290788 115.070049 
L 311.384524 117.932944 
L 320.759202 123.635132 
L 334.622891 130.490231 
z
" clip-path="url(#pc66f5b6a63)" style="fill: #b7318a"/>
   </g>
   <g id="PathCollection_28">
    <path d="M 172.543474 255.124337 
L 174.487209 256.063104 
L 189.011889 256.063104 
L 205.480303 256.063104 
L 211.077871 256.063104 
L 205.480303 248.170153 
L 199.590762 243.505817 
L 189.011889 235.612866 
L 172.543474 235.006337 
L 161.672628 230.94853 
L 156.07506 223.055579 
L 150.185519 218.391242 
L 139.606646 210.498291 
L 123.138232 209.891762 
L 112.267385 205.833955 
L 106.669817 197.941004 
L 100.780276 193.276668 
L 90.201403 185.383717 
L 73.732989 184.777188 
L 62.862143 180.719381 
L 57.264575 172.826429 
L 51.375034 168.162093 
L 40.796161 160.269142 
L 40.796161 168.162093 
L 40.796161 180.719381 
L 40.796161 184.897927 
L 57.264575 192.711369 
L 58.569621 193.276668 
L 73.732989 204.895188 
L 75.676724 205.833955 
L 90.201403 210.012501 
L 106.669817 217.825943 
L 107.974864 218.391242 
L 123.138232 230.009762 
L 125.081967 230.94853 
L 139.606646 235.127076 
L 156.07506 242.940518 
L 157.380106 243.505817 
z
" clip-path="url(#pc66f5b6a63)" style="fill: #c6417d"/>
    <path d="M 337.227616 136.077886 
L 353.696031 142.844917 
L 353.696031 140.184624 
L 337.227616 132.046687 
L 334.622891 130.490231 
L 320.759202 123.635132 
L 311.384524 117.932944 
L 304.290788 115.070049 
L 287.822374 106.932112 
L 285.217648 105.375657 
L 271.35396 98.520557 
L 261.979281 92.818369 
L 254.885545 89.955475 
L 238.417131 81.817538 
L 235.812406 80.261082 
L 221.948717 73.405983 
L 212.574039 67.703795 
L 205.480303 64.8409 
L 189.011889 56.702963 
L 186.407163 55.146508 
L 172.543474 48.291408 
L 163.168796 42.58922 
L 156.07506 39.726326 
L 139.606646 31.588389 
L 137.00192 30.031933 
L 123.138232 23.176833 
L 113.763553 17.474646 
L 107.196356 17.474646 
L 123.138232 26.84151 
L 129.891058 30.031933 
L 139.606646 35.619588 
L 156.07506 42.386619 
L 156.601599 42.58922 
L 172.543474 51.956084 
L 179.296301 55.146508 
L 189.011889 60.734162 
L 205.480303 67.501193 
L 206.006842 67.703795 
L 221.948717 77.070659 
L 228.701544 80.261082 
L 238.417131 85.848737 
L 254.885545 92.615768 
L 255.412084 92.818369 
L 271.35396 102.185233 
L 278.106786 105.375657 
L 287.822374 110.963312 
L 304.290788 117.730343 
L 304.817327 117.932944 
L 320.759202 127.299808 
L 327.512029 130.490231 
z
" clip-path="url(#pc66f5b6a63)" style="fill: #c6417d"/>
   </g>
   <g id="PathCollection_29">
    <path d="M 205.480303 248.170153 
L 211.077871 256.063104 
L 221.948717 256.063104 
L 238.417131 256.063104 
L 254.885545 256.063104 
L 271.35396 256.063104 
L 287.822374 256.063104 
L 296.800915 256.063104 
L 287.822374 251.530652 
L 271.35396 249.404938 
L 266.500735 243.505817 
L 254.885545 234.805728 
L 247.395672 230.94853 
L 238.417131 226.416077 
L 221.948717 224.290363 
L 217.095492 218.391242 
L 205.480303 209.691154 
L 197.990429 205.833955 
L 189.011889 201.301503 
L 172.543474 199.175789 
L 167.690249 193.276668 
L 156.07506 184.576579 
L 148.585187 180.719381 
L 139.606646 176.186928 
L 123.138232 174.061214 
L 118.285007 168.162093 
L 106.669817 159.462004 
L 99.179944 155.604806 
L 90.201403 151.072353 
L 73.732989 148.94664 
L 68.879764 143.047519 
L 57.264575 134.34743 
L 49.774701 130.490231 
L 40.796161 125.957779 
L 40.796161 130.490231 
L 40.796161 143.047519 
L 40.796161 155.604806 
L 40.796161 160.269142 
L 51.375034 168.162093 
L 57.264575 172.826429 
L 62.862143 180.719381 
L 73.732989 184.777188 
L 90.201403 185.383717 
L 100.780276 193.276668 
L 106.669817 197.941004 
L 112.267385 205.833955 
L 123.138232 209.891762 
L 139.606646 210.498291 
L 150.185519 218.391242 
L 156.07506 223.055579 
L 161.672628 230.94853 
L 172.543474 235.006337 
L 189.011889 235.612866 
L 199.590762 243.505817 
z
" clip-path="url(#pc66f5b6a63)" style="fill: #d35171"/>
    <path d="M 353.696031 147.524473 
L 353.696031 143.047519 
L 353.696031 142.844917 
L 337.227616 136.077886 
L 327.512029 130.490231 
L 320.759202 127.299808 
L 304.817327 117.932944 
L 304.290788 117.730343 
L 287.822374 110.963312 
L 278.106786 105.375657 
L 271.35396 102.185233 
L 255.412084 92.818369 
L 254.885545 92.615768 
L 238.417131 85.848737 
L 228.701544 80.261082 
L 221.948717 77.070659 
L 206.006842 67.703795 
L 205.480303 67.501193 
L 189.011889 60.734162 
L 179.296301 55.146508 
L 172.543474 51.956084 
L 156.601599 42.58922 
L 156.07506 42.386619 
L 139.606646 35.619588 
L 129.891058 30.031933 
L 123.138232 26.84151 
L 107.196356 17.474646 
L 106.669817 17.474646 
L 97.096587 17.474646 
L 106.669817 21.9516 
L 121.577561 30.031933 
L 123.138232 30.896908 
L 139.606646 39.991118 
L 146.50183 42.58922 
L 156.07506 47.066175 
L 170.982803 55.146508 
L 172.543474 56.011483 
L 189.011889 65.105693 
L 195.907073 67.703795 
L 205.480303 72.180749 
L 220.388046 80.261082 
L 221.948717 81.126058 
L 238.417131 90.220267 
L 245.312315 92.818369 
L 254.885545 97.295324 
L 269.793289 105.375657 
L 271.35396 106.240632 
L 287.822374 115.334842 
L 294.717558 117.932944 
L 304.290788 122.409898 
L 319.198531 130.490231 
L 320.759202 131.355207 
L 337.227616 140.449416 
L 344.122801 143.047519 
z
" clip-path="url(#pc66f5b6a63)" style="fill: #d35171"/>
   </g>
   <g id="PathCollection_30">
    <path d="M 271.35396 249.404938 
L 287.822374 251.530652 
L 296.800915 256.063104 
L 304.290788 256.063104 
L 320.759202 256.063104 
L 337.227616 256.063104 
L 347.80649 256.063104 
L 337.227616 250.669872 
L 320.759202 246.964114 
L 304.290788 244.861562 
L 302.170926 243.505817 
L 298.401247 230.94853 
L 287.822374 225.555298 
L 271.35396 221.849539 
L 254.885545 219.746987 
L 252.765683 218.391242 
L 248.996004 205.833955 
L 238.417131 200.440723 
L 221.948717 196.734964 
L 205.480303 194.632413 
L 203.360441 193.276668 
L 199.590762 180.719381 
L 189.011889 175.326148 
L 172.543474 171.62039 
L 156.07506 169.517838 
L 153.955198 168.162093 
L 150.185519 155.604806 
L 139.606646 150.211574 
L 123.138232 146.505815 
L 106.669817 144.403264 
L 104.549955 143.047519 
L 100.780276 130.490231 
L 90.201403 125.096999 
L 73.732989 121.391241 
L 57.264575 119.288689 
L 55.144713 117.932944 
L 51.375034 105.375657 
L 40.796161 99.982425 
L 40.796161 105.375657 
L 40.796161 117.932944 
L 40.796161 125.957779 
L 49.774701 130.490231 
L 57.264575 134.34743 
L 68.879764 143.047519 
L 73.732989 148.94664 
L 90.201403 151.072353 
L 99.179944 155.604806 
L 106.669817 159.462004 
L 118.285007 168.162093 
L 123.138232 174.061214 
L 139.606646 176.186928 
L 148.585187 180.719381 
L 156.07506 184.576579 
L 167.690249 193.276668 
L 172.543474 199.175789 
L 189.011889 201.301503 
L 197.990429 205.833955 
L 205.480303 209.691154 
L 217.095492 218.391242 
L 221.948717 224.290363 
L 238.417131 226.416077 
L 247.395672 230.94853 
L 254.885545 234.805728 
L 266.500735 243.505817 
z
" clip-path="url(#pc66f5b6a63)" style="fill: #df6263"/>
    <path d="M 337.227616 145.148246 
L 353.696031 152.838043 
L 353.696031 147.524473 
L 344.122801 143.047519 
L 337.227616 140.449416 
L 320.759202 131.355207 
L 319.198531 130.490231 
L 304.290788 122.409898 
L 294.717558 117.932944 
L 287.822374 115.334842 
L 271.35396 106.240632 
L 269.793289 105.375657 
L 254.885545 97.295324 
L 245.312315 92.818369 
L 238.417131 90.220267 
L 221.948717 81.126058 
L 220.388046 80.261082 
L 205.480303 72.180749 
L 195.907073 67.703795 
L 189.011889 65.105693 
L 172.543474 56.011483 
L 170.982803 55.146508 
L 156.07506 47.066175 
L 146.50183 42.58922 
L 139.606646 39.991118 
L 123.138232 30.896908 
L 121.577561 30.031933 
L 106.669817 21.9516 
L 97.096587 17.474646 
L 90.201403 17.474646 
L 86.361315 17.474646 
L 90.201403 19.575373 
L 106.669817 27.26517 
L 112.071945 30.031933 
L 123.138232 35.835019 
L 135.766557 42.58922 
L 139.606646 44.689948 
L 156.07506 52.379745 
L 161.477188 55.146508 
L 172.543474 60.949593 
L 185.1718 67.703795 
L 189.011889 69.804522 
L 205.480303 77.494319 
L 210.88243 80.261082 
L 221.948717 86.064168 
L 234.577043 92.818369 
L 238.417131 94.919097 
L 254.885545 102.608894 
L 260.287673 105.375657 
L 271.35396 111.178742 
L 283.982285 117.932944 
L 287.822374 120.033672 
L 304.290788 127.723468 
L 309.692915 130.490231 
L 320.759202 136.293317 
L 333.387528 143.047519 
z
" clip-path="url(#pc66f5b6a63)" style="fill: #df6263"/>
   </g>
   <g id="PathCollection_31">
    <path d="M 304.290788 244.861562 
L 320.759202 246.964114 
L 337.227616 250.669872 
L 347.80649 256.063104 
L 353.696031 256.063104 
L 353.696031 243.505817 
L 353.696031 233.696453 
L 347.80649 230.94853 
L 337.227616 219.518552 
L 336.297681 218.391242 
L 320.759202 209.292252 
L 304.290788 208.581878 
L 298.401247 205.833955 
L 287.822374 194.403977 
L 286.892438 193.276668 
L 271.35396 184.177677 
L 254.885545 183.467303 
L 248.996004 180.719381 
L 238.417131 169.289403 
L 237.487196 168.162093 
L 221.948717 159.063103 
L 205.480303 158.352729 
L 199.590762 155.604806 
L 189.011889 144.174828 
L 188.081953 143.047519 
L 172.543474 133.948528 
L 156.07506 133.238154 
L 150.185519 130.490231 
L 139.606646 119.060253 
L 138.676711 117.932944 
L 123.138232 108.833953 
L 106.669817 108.12358 
L 100.780276 105.375657 
L 90.201403 93.945679 
L 89.271468 92.818369 
L 73.732989 83.719379 
L 57.264575 83.009005 
L 51.375034 80.261082 
L 40.796161 68.831104 
L 40.796161 80.261082 
L 40.796161 92.818369 
L 40.796161 99.982425 
L 51.375034 105.375657 
L 55.144713 117.932944 
L 57.264575 119.288689 
L 73.732989 121.391241 
L 90.201403 125.096999 
L 100.780276 130.490231 
L 104.549955 143.047519 
L 106.669817 144.403264 
L 123.138232 146.505815 
L 139.606646 150.211574 
L 150.185519 155.604806 
L 153.955198 168.162093 
L 156.07506 169.517838 
L 172.543474 171.62039 
L 189.011889 175.326148 
L 199.590762 180.719381 
L 203.360441 193.276668 
L 205.480303 194.632413 
L 221.948717 196.734964 
L 238.417131 200.440723 
L 248.996004 205.833955 
L 252.765683 218.391242 
L 254.885545 219.746987 
L 271.35396 221.849539 
L 287.822374 225.555298 
L 298.401247 230.94853 
L 302.170926 243.505817 
z
" clip-path="url(#pc66f5b6a63)" style="fill: #e97257"/>
    <path d="M 353.696031 158.274396 
L 353.696031 155.604806 
L 353.696031 152.838043 
L 337.227616 145.148246 
L 333.387528 143.047519 
L 320.759202 136.293317 
L 309.692915 130.490231 
L 304.290788 127.723468 
L 287.822374 120.033672 
L 283.982285 117.932944 
L 271.35396 111.178742 
L 260.287673 105.375657 
L 254.885545 102.608894 
L 238.417131 94.919097 
L 234.577043 92.818369 
L 221.948717 86.064168 
L 210.88243 80.261082 
L 205.480303 77.494319 
L 189.011889 69.804522 
L 185.1718 67.703795 
L 172.543474 60.949593 
L 161.477188 55.146508 
L 156.07506 52.379745 
L 139.606646 44.689948 
L 135.766557 42.58922 
L 123.138232 35.835019 
L 112.071945 30.031933 
L 106.669817 27.26517 
L 90.201403 19.575373 
L 86.361315 17.474646 
L 76.306532 17.474646 
L 90.201403 24.638701 
L 101.559728 30.031933 
L 106.669817 32.701523 
L 123.138232 41.29387 
L 125.711775 42.58922 
L 139.606646 49.753275 
L 150.96497 55.146508 
L 156.07506 57.816098 
L 172.543474 66.408444 
L 175.117018 67.703795 
L 189.011889 74.86785 
L 200.370213 80.261082 
L 205.480303 82.930673 
L 221.948717 91.523019 
L 224.52226 92.818369 
L 238.417131 99.982425 
L 249.775456 105.375657 
L 254.885545 108.045247 
L 271.35396 116.637594 
L 273.927503 117.932944 
L 287.822374 125.096999 
L 299.180698 130.490231 
L 304.290788 133.159822 
L 320.759202 141.752168 
L 323.332746 143.047519 
L 337.227616 150.211574 
L 348.585941 155.604806 
z
" clip-path="url(#pc66f5b6a63)" style="fill: #e97257"/>
   </g>
   <g id="PathCollection_32">
    <path d="M 353.696031 233.696453 
L 353.696031 230.94853 
L 353.696031 218.391242 
L 353.696031 215.849483 
L 337.623093 205.833955 
L 337.227616 205.6988 
L 320.759202 197.941004 
L 312.281268 193.276668 
L 304.290788 190.734908 
L 288.217851 180.719381 
L 287.822374 180.584225 
L 271.35396 172.826429 
L 262.876025 168.162093 
L 254.885545 165.620333 
L 238.812608 155.604806 
L 238.417131 155.46965 
L 221.948717 147.711855 
L 213.470782 143.047519 
L 205.480303 140.505759 
L 189.407365 130.490231 
L 189.011889 130.355076 
L 172.543474 122.59728 
L 164.06554 117.932944 
L 156.07506 115.391184 
L 140.002123 105.375657 
L 139.606646 105.240501 
L 123.138232 97.482706 
L 114.660297 92.818369 
L 106.669817 90.27661 
L 90.59688 80.261082 
L 90.201403 80.125927 
L 73.732989 72.368131 
L 65.255054 67.703795 
L 57.264575 65.162035 
L 41.191638 55.146508 
L 40.796161 55.011352 
L 40.796161 55.146508 
L 40.796161 67.703795 
L 40.796161 68.831104 
L 51.375034 80.261082 
L 57.264575 83.009005 
L 73.732989 83.719379 
L 89.271468 92.818369 
L 90.201403 93.945679 
L 100.780276 105.375657 
L 106.669817 108.12358 
L 123.138232 108.833953 
L 138.676711 117.932944 
L 139.606646 119.060253 
L 150.185519 130.490231 
L 156.07506 133.238154 
L 172.543474 133.948528 
L 188.081953 143.047519 
L 189.011889 144.174828 
L 199.590762 155.604806 
L 205.480303 158.352729 
L 221.948717 159.063103 
L 237.487196 168.162093 
L 238.417131 169.289403 
L 248.996004 180.719381 
L 254.885545 183.467303 
L 271.35396 184.177677 
L 286.892438 193.276668 
L 287.822374 194.403977 
L 298.401247 205.833955 
L 304.290788 208.581878 
L 320.759202 209.292252 
L 336.297681 218.391242 
L 337.227616 219.518552 
L 347.80649 230.94853 
z
" clip-path="url(#pc66f5b6a63)" style="fill: #f3854b"/>
    <path d="M 337.227616 155.790996 
L 353.696031 163.847089 
L 353.696031 158.274396 
L 348.585941 155.604806 
L 337.227616 150.211574 
L 323.332746 143.047519 
L 320.759202 141.752168 
L 304.290788 133.159822 
L 299.180698 130.490231 
L 287.822374 125.096999 
L 273.927503 117.932944 
L 271.35396 116.637594 
L 254.885545 108.045247 
L 249.775456 105.375657 
L 238.417131 99.982425 
L 224.52226 92.818369 
L 221.948717 91.523019 
L 205.480303 82.930673 
L 200.370213 80.261082 
L 189.011889 74.86785 
L 175.117018 67.703795 
L 172.543474 66.408444 
L 156.07506 57.816098 
L 150.96497 55.146508 
L 139.606646 49.753275 
L 125.711775 42.58922 
L 123.138232 41.29387 
L 106.669817 32.701523 
L 101.559728 30.031933 
L 90.201403 24.638701 
L 76.306532 17.474646 
L 73.732989 17.474646 
L 65.834039 17.474646 
L 73.732989 21.917603 
L 89.805195 30.031933 
L 90.201403 30.218123 
L 106.669817 38.274216 
L 115.239282 42.58922 
L 123.138232 47.032178 
L 139.210438 55.146508 
L 139.606646 55.332697 
L 156.07506 63.388791 
L 164.644525 67.703795 
L 172.543474 72.146752 
L 188.61568 80.261082 
L 189.011889 80.447272 
L 205.480303 88.503365 
L 214.049767 92.818369 
L 221.948717 97.261327 
L 238.020923 105.375657 
L 238.417131 105.561846 
L 254.885545 113.61794 
L 263.45501 117.932944 
L 271.35396 122.375902 
L 287.426165 130.490231 
L 287.822374 130.676421 
L 304.290788 138.732514 
L 312.860253 143.047519 
L 320.759202 147.490476 
L 336.831408 155.604806 
z
" clip-path="url(#pc66f5b6a63)" style="fill: #f3854b"/>
   </g>
   <g id="PathCollection_33">
    <path d="M 353.696031 215.849483 
L 353.696031 210.093151 
L 347.173125 205.833955 
L 337.227616 202.176826 
L 323.540751 193.276668 
L 320.759202 191.694734 
L 304.290788 184.978576 
L 297.767882 180.719381 
L 287.822374 177.062251 
L 274.135508 168.162093 
L 271.35396 166.58016 
L 254.885545 159.864001 
L 248.36264 155.604806 
L 238.417131 151.947677 
L 224.730265 143.047519 
L 221.948717 141.465585 
L 205.480303 134.749427 
L 198.957397 130.490231 
L 189.011889 126.833102 
L 175.325023 117.932944 
L 172.543474 116.351011 
L 156.07506 109.634852 
L 149.552154 105.375657 
L 139.606646 101.718527 
L 125.91978 92.818369 
L 123.138232 91.236436 
L 106.669817 84.520278 
L 100.146912 80.261082 
L 90.201403 76.603953 
L 76.514538 67.703795 
L 73.732989 66.121861 
L 57.264575 59.405703 
L 50.741669 55.146508 
L 40.796161 51.489378 
L 40.796161 55.011352 
L 41.191638 55.146508 
L 57.264575 65.162035 
L 65.255054 67.703795 
L 73.732989 72.368131 
L 90.201403 80.125927 
L 90.59688 80.261082 
L 106.669817 90.27661 
L 114.660297 92.818369 
L 123.138232 97.482706 
L 139.606646 105.240501 
L 140.002123 105.375657 
L 156.07506 115.391184 
L 164.06554 117.932944 
L 172.543474 122.59728 
L 189.011889 130.355076 
L 189.407365 130.490231 
L 205.480303 140.505759 
L 213.470782 143.047519 
L 221.948717 147.711855 
L 238.417131 155.46965 
L 238.812608 155.604806 
L 254.885545 165.620333 
L 262.876025 168.162093 
L 271.35396 172.826429 
L 287.822374 180.584225 
L 288.217851 180.719381 
L 304.290788 190.734908 
L 312.281268 193.276668 
L 320.759202 197.941004 
L 337.227616 205.6988 
L 337.623093 205.833955 
z
" clip-path="url(#pc66f5b6a63)" style="fill: #f9983e"/>
    <path d="M 353.696031 169.810039 
L 353.696031 168.162093 
L 353.696031 163.847089 
L 337.227616 155.790996 
L 336.831408 155.604806 
L 320.759202 147.490476 
L 312.860253 143.047519 
L 304.290788 138.732514 
L 287.822374 130.676421 
L 287.426165 130.490231 
L 271.35396 122.375902 
L 263.45501 117.932944 
L 254.885545 113.61794 
L 238.417131 105.561846 
L 238.020923 105.375657 
L 221.948717 97.261327 
L 214.049767 92.818369 
L 205.480303 88.503365 
L 189.011889 80.447272 
L 188.61568 80.261082 
L 172.543474 72.146752 
L 164.644525 67.703795 
L 156.07506 63.388791 
L 139.606646 55.332697 
L 139.210438 55.146508 
L 123.138232 47.032178 
L 115.239282 42.58922 
L 106.669817 38.274216 
L 90.201403 30.218123 
L 89.805195 30.031933 
L 73.732989 21.917603 
L 65.834039 17.474646 
L 57.264575 17.474646 
L 54.415457 17.474646 
L 57.264575 19.122591 
L 73.732989 28.254255 
L 77.540472 30.031933 
L 90.201403 35.51618 
L 103.8207 42.58922 
L 106.669817 44.237166 
L 123.138232 53.368829 
L 126.945715 55.146508 
L 139.606646 60.630755 
L 153.225943 67.703795 
L 156.07506 69.35174 
L 172.543474 78.483404 
L 176.350957 80.261082 
L 189.011889 85.74533 
L 202.631185 92.818369 
L 205.480303 94.466315 
L 221.948717 103.597978 
L 225.7562 105.375657 
L 238.417131 110.859904 
L 252.036428 117.932944 
L 254.885545 119.58089 
L 271.35396 128.712553 
L 275.161443 130.490231 
L 287.822374 135.974479 
L 301.441671 143.047519 
L 304.290788 144.695464 
L 320.759202 153.827128 
L 324.566685 155.604806 
L 337.227616 161.089053 
L 350.846913 168.162093 
z
" clip-path="url(#pc66f5b6a63)" style="fill: #f9983e"/>
   </g>
   <g id="PathCollection_34">
    <path d="M 353.696031 210.093151 
L 353.696031 205.833955 
L 353.696031 204.895188 
L 337.227616 198.879112 
L 328.823615 193.276668 
L 320.759202 188.555869 
L 305.515361 180.719381 
L 304.290788 179.780613 
L 287.822374 173.764537 
L 279.418373 168.162093 
L 271.35396 163.441294 
L 256.110119 155.604806 
L 254.885545 154.666038 
L 238.417131 148.649963 
L 230.01313 143.047519 
L 221.948717 138.32672 
L 206.704876 130.490231 
L 205.480303 129.551464 
L 189.011889 123.535388 
L 180.607887 117.932944 
L 172.543474 113.212145 
L 157.299633 105.375657 
L 156.07506 104.436889 
L 139.606646 98.420814 
L 131.202645 92.818369 
L 123.138232 88.097571 
L 107.894391 80.261082 
L 106.669817 79.322315 
L 90.201403 73.306239 
L 81.797402 67.703795 
L 73.732989 62.982996 
L 58.489148 55.146508 
L 57.264575 54.20774 
L 40.796161 48.191664 
L 40.796161 51.489378 
L 50.741669 55.146508 
L 57.264575 59.405703 
L 73.732989 66.121861 
L 76.514538 67.703795 
L 90.201403 76.603953 
L 100.146912 80.261082 
L 106.669817 84.520278 
L 123.138232 91.236436 
L 125.91978 92.818369 
L 139.606646 101.718527 
L 149.552154 105.375657 
L 156.07506 109.634852 
L 172.543474 116.351011 
L 175.325023 117.932944 
L 189.011889 126.833102 
L 198.957397 130.490231 
L 205.480303 134.749427 
L 221.948717 141.465585 
L 224.730265 143.047519 
L 238.417131 151.947677 
L 248.36264 155.604806 
L 254.885545 159.864001 
L 271.35396 166.58016 
L 274.135508 168.162093 
L 287.822374 177.062251 
L 297.767882 180.719381 
L 304.290788 184.978576 
L 320.759202 191.694734 
L 323.540751 193.276668 
L 337.227616 202.176826 
L 347.173125 205.833955 
z
" clip-path="url(#pc66f5b6a63)" style="fill: #fdac33"/>
    <path d="M 353.696031 175.793891 
L 353.696031 169.810039 
L 350.846913 168.162093 
L 337.227616 161.089053 
L 324.566685 155.604806 
L 320.759202 153.827128 
L 304.290788 144.695464 
L 301.441671 143.047519 
L 287.822374 135.974479 
L 275.161443 130.490231 
L 271.35396 128.712553 
L 254.885545 119.58089 
L 252.036428 117.932944 
L 238.417131 110.859904 
L 225.7562 105.375657 
L 221.948717 103.597978 
L 205.480303 94.466315 
L 202.631185 92.818369 
L 189.011889 85.74533 
L 176.350957 80.261082 
L 172.543474 78.483404 
L 156.07506 69.35174 
L 153.225943 67.703795 
L 139.606646 60.630755 
L 126.945715 55.146508 
L 123.138232 53.368829 
L 106.669817 44.237166 
L 103.8207 42.58922 
L 90.201403 35.51618 
L 77.540472 30.031933 
L 73.732989 28.254255 
L 57.264575 19.122591 
L 54.415457 17.474646 
L 43.213071 17.474646 
L 57.264575 25.106443 
L 66.243116 30.031933 
L 73.732989 34.254454 
L 90.201403 41.418395 
L 92.618314 42.58922 
L 106.669817 50.221018 
L 115.648358 55.146508 
L 123.138232 59.369029 
L 139.606646 66.532969 
L 142.023556 67.703795 
L 156.07506 75.335592 
L 165.053601 80.261082 
L 172.543474 84.483603 
L 189.011889 91.647544 
L 191.428799 92.818369 
L 205.480303 100.450167 
L 214.458843 105.375657 
L 221.948717 109.598178 
L 238.417131 116.762119 
L 240.834042 117.932944 
L 254.885545 125.564742 
L 263.864086 130.490231 
L 271.35396 134.712752 
L 287.822374 141.876693 
L 290.239284 143.047519 
L 304.290788 150.679316 
L 313.269329 155.604806 
L 320.759202 159.827327 
L 337.227616 166.991268 
L 339.644527 168.162093 
z
" clip-path="url(#pc66f5b6a63)" style="fill: #fdac33"/>
   </g>
   <g id="PathCollection_35">
    <path d="M 337.227616 198.879112 
L 353.696031 204.895188 
L 353.696031 200.100376 
L 337.227616 195.778801 
L 333.554203 193.276668 
L 320.759202 185.596359 
L 311.61038 180.719381 
L 304.290788 174.985801 
L 287.822374 170.664226 
L 284.14896 168.162093 
L 271.35396 160.481784 
L 262.205137 155.604806 
L 254.885545 149.871227 
L 238.417131 145.549651 
L 234.743717 143.047519 
L 221.948717 135.36721 
L 212.799894 130.490231 
L 205.480303 124.756652 
L 189.011889 120.435077 
L 185.338475 117.932944 
L 172.543474 110.252635 
L 163.394652 105.375657 
L 156.07506 99.642078 
L 139.606646 95.320502 
L 135.933232 92.818369 
L 123.138232 85.13806 
L 113.989409 80.261082 
L 106.669817 74.527503 
L 90.201403 70.205928 
L 86.52799 67.703795 
L 73.732989 60.023486 
L 64.584166 55.146508 
L 57.264575 49.412928 
L 40.796161 45.091353 
L 40.796161 48.191664 
L 57.264575 54.20774 
L 58.489148 55.146508 
L 73.732989 62.982996 
L 81.797402 67.703795 
L 90.201403 73.306239 
L 106.669817 79.322315 
L 107.894391 80.261082 
L 123.138232 88.097571 
L 131.202645 92.818369 
L 139.606646 98.420814 
L 156.07506 104.436889 
L 157.299633 105.375657 
L 172.543474 113.212145 
L 180.607887 117.932944 
L 189.011889 123.535388 
L 205.480303 129.551464 
L 206.704876 130.490231 
L 221.948717 138.32672 
L 230.01313 143.047519 
L 238.417131 148.649963 
L 254.885545 154.666038 
L 256.110119 155.604806 
L 271.35396 163.441294 
L 279.418373 168.162093 
L 287.822374 173.764537 
L 304.290788 179.780613 
L 305.515361 180.719381 
L 320.759202 188.555869 
L 328.823615 193.276668 
z
" clip-path="url(#pc66f5b6a63)" style="fill: #fdc328"/>
    <path d="M 353.696031 182.304573 
L 353.696031 180.719381 
L 353.696031 175.793891 
L 339.644527 168.162093 
L 337.227616 166.991268 
L 320.759202 159.827327 
L 313.269329 155.604806 
L 304.290788 150.679316 
L 290.239284 143.047519 
L 287.822374 141.876693 
L 271.35396 134.712752 
L 263.864086 130.490231 
L 254.885545 125.564742 
L 240.834042 117.932944 
L 238.417131 116.762119 
L 221.948717 109.598178 
L 214.458843 105.375657 
L 205.480303 100.450167 
L 191.428799 92.818369 
L 189.011889 91.647544 
L 172.543474 84.483603 
L 165.053601 80.261082 
L 156.07506 75.335592 
L 142.023556 67.703795 
L 139.606646 66.532969 
L 123.138232 59.369029 
L 115.648358 55.146508 
L 106.669817 50.221018 
L 92.618314 42.58922 
L 90.201403 41.418395 
L 73.732989 34.254454 
L 66.243116 30.031933 
L 57.264575 25.106443 
L 43.213071 17.474646 
L 40.796161 17.474646 
L 40.796161 24.002373 
L 53.223664 30.031933 
L 57.264575 31.617125 
L 73.732989 40.562495 
L 78.741687 42.58922 
L 90.201403 49.116948 
L 102.628906 55.146508 
L 106.669817 56.7317 
L 123.138232 65.677069 
L 128.14693 67.703795 
L 139.606646 74.231523 
L 152.034149 80.261082 
L 156.07506 81.846274 
L 172.543474 90.791644 
L 177.552173 92.818369 
L 189.011889 99.346097 
L 201.439392 105.375657 
L 205.480303 106.960849 
L 221.948717 115.906219 
L 226.957415 117.932944 
L 238.417131 124.460672 
L 250.844634 130.490231 
L 254.885545 132.075424 
L 271.35396 141.020793 
L 276.362658 143.047519 
L 287.822374 149.575246 
L 300.249877 155.604806 
L 304.290788 157.189998 
L 320.759202 166.135368 
L 325.767901 168.162093 
L 337.227616 174.689821 
L 349.65512 180.719381 
z
" clip-path="url(#pc66f5b6a63)" style="fill: #fdc328"/>
   </g>
   <g id="PathCollection_36">
    <path d="M 337.227616 195.778801 
L 353.696031 200.100376 
L 353.696031 195.711969 
L 341.0351 193.276668 
L 353.696031 188.918101 
L 353.696031 182.304573 
L 349.65512 180.719381 
L 337.227616 174.689821 
L 325.767901 168.162093 
L 320.759202 166.135368 
L 304.290788 157.189998 
L 300.249877 155.604806 
L 287.822374 149.575246 
L 276.362658 143.047519 
L 271.35396 141.020793 
L 254.885545 132.075424 
L 250.844634 130.490231 
L 238.417131 124.460672 
L 226.957415 117.932944 
L 221.948717 115.906219 
L 205.480303 106.960849 
L 201.439392 105.375657 
L 189.011889 99.346097 
L 177.552173 92.818369 
L 172.543474 90.791644 
L 156.07506 81.846274 
L 152.034149 80.261082 
L 139.606646 74.231523 
L 128.14693 67.703795 
L 123.138232 65.677069 
L 106.669817 56.7317 
L 102.628906 55.146508 
L 90.201403 49.116948 
L 78.741687 42.58922 
L 73.732989 40.562495 
L 57.264575 31.617125 
L 53.223664 30.031933 
L 40.796161 24.002373 
L 40.796161 30.031933 
L 40.796161 42.58922 
L 40.796161 45.091353 
L 57.264575 49.412928 
L 64.584166 55.146508 
L 73.732989 60.023486 
L 86.52799 67.703795 
L 90.201403 70.205928 
L 106.669817 74.527503 
L 113.989409 80.261082 
L 123.138232 85.13806 
L 135.933232 92.818369 
L 139.606646 95.320502 
L 156.07506 99.642078 
L 163.394652 105.375657 
L 172.543474 110.252635 
L 185.338475 117.932944 
L 189.011889 120.435077 
L 205.480303 124.756652 
L 212.799894 130.490231 
L 221.948717 135.36721 
L 234.743717 143.047519 
L 238.417131 145.549651 
L 254.885545 149.871227 
L 262.205137 155.604806 
L 271.35396 160.481784 
L 284.14896 168.162093 
L 287.822374 170.664226 
L 304.290788 174.985801 
L 311.61038 180.719381 
L 320.759202 185.596359 
L 333.554203 193.276668 
z
M 316.981689 180.719381 
L 320.759202 173.749748 
L 332.883792 180.719381 
L 320.759202 182.79681 
z
M 291.629857 168.162093 
L 304.290788 163.803526 
L 312.565777 168.162093 
L 304.290788 170.597394 
z
M 267.576446 155.604806 
L 271.35396 148.635173 
L 283.47855 155.604806 
L 271.35396 157.682236 
z
M 242.224614 143.047519 
L 254.885545 138.688952 
L 263.160534 143.047519 
L 254.885545 145.48282 
z
M 218.171203 130.490231 
L 221.948717 123.520599 
L 234.073307 130.490231 
L 221.948717 132.567661 
z
M 192.819372 117.932944 
L 205.480303 113.574377 
L 213.755292 117.932944 
L 205.480303 120.368245 
z
M 168.765961 105.375657 
L 172.543474 98.406024 
L 184.668064 105.375657 
L 172.543474 107.453086 
z
M 143.414129 92.818369 
L 156.07506 88.459802 
L 164.350049 92.818369 
L 156.07506 95.25367 
z
M 119.360718 80.261082 
L 123.138232 73.29145 
L 135.262822 80.261082 
L 123.138232 82.338512 
z
M 94.008886 67.703795 
L 106.669817 63.345228 
L 114.944806 67.703795 
L 106.669817 70.139096 
z
M 69.955476 55.146508 
L 73.732989 48.176875 
L 85.857579 55.146508 
L 73.732989 57.223937 
z
M 44.603644 42.58922 
L 57.264575 38.230653 
L 65.539564 42.58922 
L 57.264575 45.024521 
z
" clip-path="url(#pc66f5b6a63)" style="fill: #fada24"/>
   </g>
   <g id="PathCollection_37">
    <path d="M 353.696031 195.711969 
L 353.696031 193.276668 
L 353.696031 188.918101 
L 341.0351 193.276668 
z
" clip-path="url(#pc66f5b6a63)" style="fill: #f1f426"/>
    <path d="M 320.759202 182.79681 
L 332.883792 180.719381 
L 320.759202 173.749748 
L 316.981689 180.719381 
z
" clip-path="url(#pc66f5b6a63)" style="fill: #f1f426"/>
    <path d="M 304.290788 170.597394 
L 312.565777 168.162093 
L 304.290788 163.803526 
L 291.629857 168.162093 
z
" clip-path="url(#pc66f5b6a63)" style="fill: #f1f426"/>
    <path d="M 271.35396 157.682236 
L 283.47855 155.604806 
L 271.35396 148.635173 
L 267.576446 155.604806 
z
" clip-path="url(#pc66f5b6a63)" style="fill: #f1f426"/>
    <path d="M 254.885545 145.48282 
L 263.160534 143.047519 
L 254.885545 138.688952 
L 242.224614 143.047519 
z
" clip-path="url(#pc66f5b6a63)" style="fill: #f1f426"/>
    <path d="M 221.948717 132.567661 
L 234.073307 130.490231 
L 221.948717 123.520599 
L 218.171203 130.490231 
z
" clip-path="url(#pc66f5b6a63)" style="fill: #f1f426"/>
    <path d="M 205.480303 120.368245 
L 213.755292 117.932944 
L 205.480303 113.574377 
L 192.819372 117.932944 
z
" clip-path="url(#pc66f5b6a63)" style="fill: #f1f426"/>
    <path d="M 172.543474 107.453086 
L 184.668064 105.375657 
L 172.543474 98.406024 
L 168.765961 105.375657 
z
" clip-path="url(#pc66f5b6a63)" style="fill: #f1f426"/>
    <path d="M 156.07506 95.25367 
L 164.350049 92.818369 
L 156.07506 88.459802 
L 143.414129 92.818369 
z
" clip-path="url(#pc66f5b6a63)" style="fill: #f1f426"/>
    <path d="M 123.138232 82.338512 
L 135.262822 80.261082 
L 123.138232 73.29145 
L 119.360718 80.261082 
z
" clip-path="url(#pc66f5b6a63)" style="fill: #f1f426"/>
    <path d="M 106.669817 70.139096 
L 114.944806 67.703795 
L 106.669817 63.345228 
L 94.008886 67.703795 
z
" clip-path="url(#pc66f5b6a63)" style="fill: #f1f426"/>
    <path d="M 73.732989 57.223937 
L 85.857579 55.146508 
L 73.732989 48.176875 
L 69.955476 55.146508 
z
" clip-path="url(#pc66f5b6a63)" style="fill: #f1f426"/>
    <path d="M 57.264575 45.024521 
L 65.539564 42.58922 
L 57.264575 38.230653 
L 44.603644 42.58922 
z
" clip-path="url(#pc66f5b6a63)" style="fill: #f1f426"/>
   </g>
   <g id="patch_3">
    <path d="M 40.796161 256.063104 
L 40.796161 17.474646 
" style="fill: none; stroke: #000000; stroke-linejoin: miter; stroke-linecap: square"/>
   </g>
   <g id="patch_4">
    <path d="M 40.796161 256.063104 
L 353.696031 256.063104 
" style="fill: none; stroke: #000000; stroke-linejoin: miter; stroke-linecap: square"/>
   </g>
   <g id="text_10">
    <!-- % area of bistability region that crosses ATP/λ curve -->
    <g transform="translate(53.977111 11.474646) scale(0.11 -0.11)">
     <defs>
      <path id="DejaVuSans-25" d="M 4653 2053 
Q 4381 2053 4226 1822 
Q 4072 1591 4072 1178 
Q 4072 772 4226 539 
Q 4381 306 4653 306 
Q 4919 306 5073 539 
Q 5228 772 5228 1178 
Q 5228 1588 5073 1820 
Q 4919 2053 4653 2053 
z
M 4653 2450 
Q 5147 2450 5437 2106 
Q 5728 1763 5728 1178 
Q 5728 594 5436 251 
Q 5144 -91 4653 -91 
Q 4153 -91 3862 251 
Q 3572 594 3572 1178 
Q 3572 1766 3864 2108 
Q 4156 2450 4653 2450 
z
M 1428 4353 
Q 1159 4353 1004 4120 
Q 850 3888 850 3481 
Q 850 3069 1003 2837 
Q 1156 2606 1428 2606 
Q 1700 2606 1854 2837 
Q 2009 3069 2009 3481 
Q 2009 3884 1853 4118 
Q 1697 4353 1428 4353 
z
M 4250 4750 
L 4750 4750 
L 1831 -91 
L 1331 -91 
L 4250 4750 
z
M 1428 4750 
Q 1922 4750 2215 4408 
Q 2509 4066 2509 3481 
Q 2509 2891 2217 2550 
Q 1925 2209 1428 2209 
Q 931 2209 642 2551 
Q 353 2894 353 3481 
Q 353 4063 643 4406 
Q 934 4750 1428 4750 
z
" transform="scale(0.015625)"/>
      <path id="DejaVuSans-6f" d="M 1959 3097 
Q 1497 3097 1228 2736 
Q 959 2375 959 1747 
Q 959 1119 1226 758 
Q 1494 397 1959 397 
Q 2419 397 2687 759 
Q 2956 1122 2956 1747 
Q 2956 2369 2687 2733 
Q 2419 3097 1959 3097 
z
M 1959 3584 
Q 2709 3584 3137 3096 
Q 3566 2609 3566 1747 
Q 3566 888 3137 398 
Q 2709 -91 1959 -91 
Q 1206 -91 779 398 
Q 353 888 353 1747 
Q 353 2609 779 3096 
Q 1206 3584 1959 3584 
z
" transform="scale(0.015625)"/>
      <path id="DejaVuSans-66" d="M 2375 4863 
L 2375 4384 
L 1825 4384 
Q 1516 4384 1395 4259 
Q 1275 4134 1275 3809 
L 1275 3500 
L 2222 3500 
L 2222 3053 
L 1275 3053 
L 1275 0 
L 697 0 
L 697 3053 
L 147 3053 
L 147 3500 
L 697 3500 
L 697 3744 
Q 697 4328 969 4595 
Q 1241 4863 1831 4863 
L 2375 4863 
z
" transform="scale(0.015625)"/>
      <path id="DejaVuSans-69" d="M 603 3500 
L 1178 3500 
L 1178 0 
L 603 0 
L 603 3500 
z
M 603 4863 
L 1178 4863 
L 1178 4134 
L 603 4134 
L 603 4863 
z
" transform="scale(0.015625)"/>
      <path id="DejaVuSans-73" d="M 2834 3397 
L 2834 2853 
Q 2591 2978 2328 3040 
Q 2066 3103 1784 3103 
Q 1356 3103 1142 2972 
Q 928 2841 928 2578 
Q 928 2378 1081 2264 
Q 1234 2150 1697 2047 
L 1894 2003 
Q 2506 1872 2764 1633 
Q 3022 1394 3022 966 
Q 3022 478 2636 193 
Q 2250 -91 1575 -91 
Q 1294 -91 989 -36 
Q 684 19 347 128 
L 347 722 
Q 666 556 975 473 
Q 1284 391 1588 391 
Q 1994 391 2212 530 
Q 2431 669 2431 922 
Q 2431 1156 2273 1281 
Q 2116 1406 1581 1522 
L 1381 1569 
Q 847 1681 609 1914 
Q 372 2147 372 2553 
Q 372 3047 722 3315 
Q 1072 3584 1716 3584 
Q 2034 3584 2315 3537 
Q 2597 3491 2834 3397 
z
" transform="scale(0.015625)"/>
      <path id="DejaVuSans-74" d="M 1172 4494 
L 1172 3500 
L 2356 3500 
L 2356 3053 
L 1172 3053 
L 1172 1153 
Q 1172 725 1289 603 
Q 1406 481 1766 481 
L 2356 481 
L 2356 0 
L 1766 0 
Q 1100 0 847 248 
Q 594 497 594 1153 
L 594 3053 
L 172 3053 
L 172 3500 
L 594 3500 
L 594 4494 
L 1172 4494 
z
" transform="scale(0.015625)"/>
      <path id="DejaVuSans-6c" d="M 603 4863 
L 1178 4863 
L 1178 0 
L 603 0 
L 603 4863 
z
" transform="scale(0.015625)"/>
      <path id="DejaVuSans-79" d="M 2059 -325 
Q 1816 -950 1584 -1140 
Q 1353 -1331 966 -1331 
L 506 -1331 
L 506 -850 
L 844 -850 
Q 1081 -850 1212 -737 
Q 1344 -625 1503 -206 
L 1606 56 
L 191 3500 
L 800 3500 
L 1894 763 
L 2988 3500 
L 3597 3500 
L 2059 -325 
z
" transform="scale(0.015625)"/>
      <path id="DejaVuSans-68" d="M 3513 2113 
L 3513 0 
L 2938 0 
L 2938 2094 
Q 2938 2591 2744 2837 
Q 2550 3084 2163 3084 
Q 1697 3084 1428 2787 
Q 1159 2491 1159 1978 
L 1159 0 
L 581 0 
L 581 4863 
L 1159 4863 
L 1159 2956 
Q 1366 3272 1645 3428 
Q 1925 3584 2291 3584 
Q 2894 3584 3203 3211 
Q 3513 2838 3513 2113 
z
" transform="scale(0.015625)"/>
      <path id="DejaVuSans-63" d="M 3122 3366 
L 3122 2828 
Q 2878 2963 2633 3030 
Q 2388 3097 2138 3097 
Q 1578 3097 1268 2742 
Q 959 2388 959 1747 
Q 959 1106 1268 751 
Q 1578 397 2138 397 
Q 2388 397 2633 464 
Q 2878 531 3122 666 
L 3122 134 
Q 2881 22 2623 -34 
Q 2366 -91 2075 -91 
Q 1284 -91 818 406 
Q 353 903 353 1747 
Q 353 2603 823 3093 
Q 1294 3584 2113 3584 
Q 2378 3584 2631 3529 
Q 2884 3475 3122 3366 
z
" transform="scale(0.015625)"/>
      <path id="DejaVuSans-41" d="M 2188 4044 
L 1331 1722 
L 3047 1722 
L 2188 4044 
z
M 1831 4666 
L 2547 4666 
L 4325 0 
L 3669 0 
L 3244 1197 
L 1141 1197 
L 716 0 
L 50 0 
L 1831 4666 
z
" transform="scale(0.015625)"/>
      <path id="DejaVuSans-54" d="M -19 4666 
L 3928 4666 
L 3928 4134 
L 2272 4134 
L 2272 0 
L 1638 0 
L 1638 4134 
L -19 4134 
L -19 4666 
z
" transform="scale(0.015625)"/>
      <path id="DejaVuSans-50" d="M 1259 4147 
L 1259 2394 
L 2053 2394 
Q 2494 2394 2734 2622 
Q 2975 2850 2975 3272 
Q 2975 3691 2734 3919 
Q 2494 4147 2053 4147 
L 1259 4147 
z
M 628 4666 
L 2053 4666 
Q 2838 4666 3239 4311 
Q 3641 3956 3641 3272 
Q 3641 2581 3239 2228 
Q 2838 1875 2053 1875 
L 1259 1875 
L 1259 0 
L 628 0 
L 628 4666 
z
" transform="scale(0.015625)"/>
      <path id="DejaVuSans-2f" d="M 1625 4666 
L 2156 4666 
L 531 -594 
L 0 -594 
L 1625 4666 
z
" transform="scale(0.015625)"/>
      <path id="DejaVuSans-3bb" d="M 1981 4316 
L 3597 0 
L 2988 0 
L 2006 2588 
L 800 0 
L 191 0 
L 1725 3356 
L 1494 3975 
Q 1347 4369 1013 4369 
L 713 4369 
L 713 4863 
L 1078 4856 
Q 1784 4847 1981 4316 
z
" transform="scale(0.015625)"/>
      <path id="DejaVuSans-75" d="M 544 1381 
L 544 3500 
L 1119 3500 
L 1119 1403 
Q 1119 906 1312 657 
Q 1506 409 1894 409 
Q 2359 409 2629 706 
Q 2900 1003 2900 1516 
L 2900 3500 
L 3475 3500 
L 3475 0 
L 2900 0 
L 2900 538 
Q 2691 219 2414 64 
Q 2138 -91 1772 -91 
Q 1169 -91 856 284 
Q 544 659 544 1381 
z
M 1991 3584 
L 1991 3584 
z
" transform="scale(0.015625)"/>
      <path id="DejaVuSans-76" d="M 191 3500 
L 800 3500 
L 1894 563 
L 2988 3500 
L 3597 3500 
L 2284 0 
L 1503 0 
L 191 3500 
z
" transform="scale(0.015625)"/>
     </defs>
     <use xlink:href="#DejaVuSans-25"/>
     <use xlink:href="#DejaVuSans-20" x="95.019531"/>
     <use xlink:href="#DejaVuSans-61" x="126.806641"/>
     <use xlink:href="#DejaVuSans-72" x="188.085938"/>
     <use xlink:href="#DejaVuSans-65" x="226.949219"/>
     <use xlink:href="#DejaVuSans-61" x="288.472656"/>
     <use xlink:href="#DejaVuSans-20" x="349.751953"/>
     <use xlink:href="#DejaVuSans-6f" x="381.539062"/>
     <use xlink:href="#DejaVuSans-66" x="442.720703"/>
     <use xlink:href="#DejaVuSans-20" x="477.925781"/>
     <use xlink:href="#DejaVuSans-62" x="509.712891"/>
     <use xlink:href="#DejaVuSans-69" x="573.189453"/>
     <use xlink:href="#DejaVuSans-73" x="600.972656"/>
     <use xlink:href="#DejaVuSans-74" x="653.072266"/>
     <use xlink:href="#DejaVuSans-61" x="692.28125"/>
     <use xlink:href="#DejaVuSans-62" x="753.560547"/>
     <use xlink:href="#DejaVuSans-69" x="817.037109"/>
     <use xlink:href="#DejaVuSans-6c" x="844.820312"/>
     <use xlink:href="#DejaVuSans-69" x="872.603516"/>
     <use xlink:href="#DejaVuSans-74" x="900.386719"/>
     <use xlink:href="#DejaVuSans-79" x="939.595703"/>
     <use xlink:href="#DejaVuSans-20" x="998.775391"/>
     <use xlink:href="#DejaVuSans-72" x="1030.5625"/>
     <use xlink:href="#DejaVuSans-65" x="1069.425781"/>
     <use xlink:href="#DejaVuSans-67" x="1130.949219"/>
     <use xlink:href="#DejaVuSans-69" x="1194.425781"/>
     <use xlink:href="#DejaVuSans-6f" x="1222.208984"/>
     <use xlink:href="#DejaVuSans-6e" x="1283.390625"/>
     <use xlink:href="#DejaVuSans-20" x="1346.769531"/>
     <use xlink:href="#DejaVuSans-74" x="1378.556641"/>
     <use xlink:href="#DejaVuSans-68" x="1417.765625"/>
     <use xlink:href="#DejaVuSans-61" x="1481.144531"/>
     <use xlink:href="#DejaVuSans-74" x="1542.423828"/>
     <use xlink:href="#DejaVuSans-20" x="1581.632812"/>
     <use xlink:href="#DejaVuSans-63" x="1613.419922"/>
     <use xlink:href="#DejaVuSans-72" x="1668.400391"/>
     <use xlink:href="#DejaVuSans-6f" x="1707.263672"/>
     <use xlink:href="#DejaVuSans-73" x="1768.445312"/>
     <use xlink:href="#DejaVuSans-73" x="1820.544922"/>
     <use xlink:href="#DejaVuSans-65" x="1872.644531"/>
     <use xlink:href="#DejaVuSans-73" x="1934.167969"/>
     <use xlink:href="#DejaVuSans-20" x="1986.267578"/>
     <use xlink:href="#DejaVuSans-41" x="2018.054688"/>
     <use xlink:href="#DejaVuSans-54" x="2078.712891"/>
     <use xlink:href="#DejaVuSans-50" x="2139.796875"/>
     <use xlink:href="#DejaVuSans-2f" x="2200.099609"/>
     <use xlink:href="#DejaVuSans-3bb" x="2233.791016"/>
     <use xlink:href="#DejaVuSans-20" x="2292.970703"/>
     <use xlink:href="#DejaVuSans-63" x="2324.757812"/>
     <use xlink:href="#DejaVuSans-75" x="2379.738281"/>
     <use xlink:href="#DejaVuSans-72" x="2443.117188"/>
     <use xlink:href="#DejaVuSans-76" x="2484.230469"/>
     <use xlink:href="#DejaVuSans-65" x="2543.410156"/>
    </g>
   </g>
  </g>
  <g id="axes_2">
   <g id="patch_5">
    <path d="M 361.518527 256.063104 
L 377.163521 256.063104 
L 377.163521 17.474646 
L 361.518527 17.474646 
z
" style="fill: #ffffff"/>
   </g>
   <g id="QuadMesh_1">
    <path d="M 361.518527 256.063104 
L 377.163521 256.063104 
L 377.163521 242.80819 
L 361.518527 242.80819 
L 361.518527 256.063104 
" clip-path="url(#p4cfce359ec)" style="fill: #20068f"/>
    <path d="M 361.518527 242.80819 
L 377.163521 242.80819 
L 377.163521 229.553276 
L 361.518527 229.553276 
L 361.518527 242.80819 
" clip-path="url(#p4cfce359ec)" style="fill: #3a049a"/>
    <path d="M 361.518527 229.553276 
L 377.163521 229.553276 
L 377.163521 216.298361 
L 361.518527 216.298361 
L 361.518527 229.553276 
" clip-path="url(#p4cfce359ec)" style="fill: #5302a3"/>
    <path d="M 361.518527 216.298361 
L 377.163521 216.298361 
L 377.163521 203.043447 
L 361.518527 203.043447 
L 361.518527 216.298361 
" clip-path="url(#p4cfce359ec)" style="fill: #6900a8"/>
    <path d="M 361.518527 203.043447 
L 377.163521 203.043447 
L 377.163521 189.788532 
L 361.518527 189.788532 
L 361.518527 203.043447 
" clip-path="url(#p4cfce359ec)" style="fill: #7e03a8"/>
    <path d="M 361.518527 189.788532 
L 377.163521 189.788532 
L 377.163521 176.533618 
L 361.518527 176.533618 
L 361.518527 189.788532 
" clip-path="url(#p4cfce359ec)" style="fill: #9410a2"/>
    <path d="M 361.518527 176.533618 
L 377.163521 176.533618 
L 377.163521 163.278704 
L 361.518527 163.278704 
L 361.518527 176.533618 
" clip-path="url(#p4cfce359ec)" style="fill: #a62098"/>
    <path d="M 361.518527 163.278704 
L 377.163521 163.278704 
L 377.163521 150.023789 
L 361.518527 150.023789 
L 361.518527 163.278704 
" clip-path="url(#p4cfce359ec)" style="fill: #b7318a"/>
    <path d="M 361.518527 150.023789 
L 377.163521 150.023789 
L 377.163521 136.768875 
L 361.518527 136.768875 
L 361.518527 150.023789 
" clip-path="url(#p4cfce359ec)" style="fill: #c6417d"/>
    <path d="M 361.518527 136.768875 
L 377.163521 136.768875 
L 377.163521 123.513961 
L 361.518527 123.513961 
L 361.518527 136.768875 
" clip-path="url(#p4cfce359ec)" style="fill: #d35171"/>
    <path d="M 361.518527 123.513961 
L 377.163521 123.513961 
L 377.163521 110.259046 
L 361.518527 110.259046 
L 361.518527 123.513961 
" clip-path="url(#p4cfce359ec)" style="fill: #df6263"/>
    <path d="M 361.518527 110.259046 
L 377.163521 110.259046 
L 377.163521 97.004132 
L 361.518527 97.004132 
L 361.518527 110.259046 
" clip-path="url(#p4cfce359ec)" style="fill: #e97257"/>
    <path d="M 361.518527 97.004132 
L 377.163521 97.004132 
L 377.163521 83.749218 
L 361.518527 83.749218 
L 361.518527 97.004132 
" clip-path="url(#p4cfce359ec)" style="fill: #f3854b"/>
    <path d="M 361.518527 83.749218 
L 377.163521 83.749218 
L 377.163521 70.494303 
L 361.518527 70.494303 
L 361.518527 83.749218 
" clip-path="url(#p4cfce359ec)" style="fill: #f9983e"/>
    <path d="M 361.518527 70.494303 
L 377.163521 70.494303 
L 377.163521 57.239389 
L 361.518527 57.239389 
L 361.518527 70.494303 
" clip-path="url(#p4cfce359ec)" style="fill: #fdac33"/>
    <path d="M 361.518527 57.239389 
L 377.163521 57.239389 
L 377.163521 43.984474 
L 361.518527 43.984474 
L 361.518527 57.239389 
" clip-path="url(#p4cfce359ec)" style="fill: #fdc328"/>
    <path d="M 361.518527 43.984474 
L 377.163521 43.984474 
L 377.163521 30.72956 
L 361.518527 30.72956 
L 361.518527 43.984474 
" clip-path="url(#p4cfce359ec)" style="fill: #fada24"/>
    <path d="M 361.518527 30.72956 
L 377.163521 30.72956 
L 377.163521 17.474646 
L 361.518527 17.474646 
L 361.518527 30.72956 
" clip-path="url(#p4cfce359ec)" style="fill: #f1f426"/>
   </g>
   <g id="matplotlib.axis_3"/>
   <g id="matplotlib.axis_4">
    <g id="ytick_4">
     <g id="line2d_15">
      <defs>
       <path id="md6aaf39b84" d="M 0 0 
L -2.5 0 
" style="stroke: #000000; stroke-width: 0.5"/>
      </defs>
      <g>
       <use xlink:href="#md6aaf39b84" x="377.163521" y="256.063104" style="stroke: #000000; stroke-width: 0.5"/>
      </g>
     </g>
     <g id="text_11">
      <!-- $0$ -->
      <g transform="translate(380.663521 259.102479) scale(0.08 -0.08)">
       <use xlink:href="#DejaVuSans-30" transform="translate(0 0.78125)"/>
      </g>
     </g>
    </g>
    <g id="ytick_5">
     <g id="line2d_16">
      <g>
       <use xlink:href="#md6aaf39b84" x="377.163521" y="211.880056" style="stroke: #000000; stroke-width: 0.5"/>
      </g>
     </g>
     <g id="text_12">
      <!-- $10$ -->
      <g transform="translate(380.663521 214.919431) scale(0.08 -0.08)">
       <use xlink:href="#DejaVuSans-31" transform="translate(0 0.78125)"/>
       <use xlink:href="#DejaVuSans-30" transform="translate(63.623047 0.78125)"/>
      </g>
     </g>
    </g>
    <g id="ytick_6">
     <g id="line2d_17">
      <g>
       <use xlink:href="#md6aaf39b84" x="377.163521" y="167.697009" style="stroke: #000000; stroke-width: 0.5"/>
      </g>
     </g>
     <g id="text_13">
      <!-- $20$ -->
      <g transform="translate(380.663521 170.736384) scale(0.08 -0.08)">
       <use xlink:href="#DejaVuSans-32" transform="translate(0 0.78125)"/>
       <use xlink:href="#DejaVuSans-30" transform="translate(63.623047 0.78125)"/>
      </g>
     </g>
    </g>
    <g id="ytick_7">
     <g id="line2d_18">
      <g>
       <use xlink:href="#md6aaf39b84" x="377.163521" y="123.513961" style="stroke: #000000; stroke-width: 0.5"/>
      </g>
     </g>
     <g id="text_14">
      <!-- $30$ -->
      <g transform="translate(380.663521 126.553336) scale(0.08 -0.08)">
       <use xlink:href="#DejaVuSans-33" transform="translate(0 0.78125)"/>
       <use xlink:href="#DejaVuSans-30" transform="translate(63.623047 0.78125)"/>
      </g>
     </g>
    </g>
    <g id="ytick_8">
     <g id="line2d_19">
      <g>
       <use xlink:href="#md6aaf39b84" x="377.163521" y="79.330913" style="stroke: #000000; stroke-width: 0.5"/>
      </g>
     </g>
     <g id="text_15">
      <!-- $40$ -->
      <g transform="translate(380.663521 82.370288) scale(0.08 -0.08)">
       <use xlink:href="#DejaVuSans-34" transform="translate(0 0.78125)"/>
       <use xlink:href="#DejaVuSans-30" transform="translate(63.623047 0.78125)"/>
      </g>
     </g>
    </g>
    <g id="ytick_9">
     <g id="line2d_20">
      <g>
       <use xlink:href="#md6aaf39b84" x="377.163521" y="35.147865" style="stroke: #000000; stroke-width: 0.5"/>
      </g>
     </g>
     <g id="text_16">
      <!-- $50$ -->
      <g transform="translate(380.663521 38.18724) scale(0.08 -0.08)">
       <use xlink:href="#DejaVuSans-35" transform="translate(0 0.78125)"/>
       <use xlink:href="#DejaVuSans-30" transform="translate(63.623047 0.78125)"/>
      </g>
     </g>
    </g>
    <g id="text_17">
     <!-- % -->
     <g transform="translate(402.501958 141.519656) rotate(-90) scale(0.1 -0.1)">
      <use xlink:href="#DejaVuSans-25"/>
     </g>
    </g>
   </g>
   <g id="LineCollection_1"/>
   <g id="patch_6">
    <path d="M 361.518527 256.063104 
L 369.341024 256.063104 
L 377.163521 256.063104 
L 377.163521 17.474646 
L 369.341024 17.474646 
L 361.518527 17.474646 
L 361.518527 256.063104 
z
" style="fill: none; stroke: #000000; stroke-linejoin: miter; stroke-linecap: square"/>
   </g>
  </g>
 </g>
 <defs>
  <clipPath id="pc66f5b6a63">
   <rect x="40.796161" y="17.474646" width="312.89987" height="238.588459"/>
  </clipPath>
  <clipPath id="p4cfce359ec">
   <rect x="361.518527" y="17.474646" width="15.644994" height="238.588459"/>
  </clipPath>
 </defs>
</svg>
