<?xml version="1.0" encoding="utf-8"?>
<svg xmlns="http://www.w3.org/2000/svg" xmlns:xlink="http://www.w3.org/1999/xlink" width="600" height="400" viewBox="0 0 2400 1600">
<defs>
  <clipPath id="clip600">
    <rect x="0" y="0" width="2400" height="1600"/>
  </clipPath>
</defs>
<path clip-path="url(#clip600)" d="M0 1600 L2400 1600 L2400 0 L0 0  Z" fill="#ffffff" fill-rule="evenodd" fill-opacity="1"/>
<defs>
  <clipPath id="clip601">
    <rect x="480" y="0" width="1681" height="1600"/>
  </clipPath>
</defs>
<path clip-path="url(#clip600)" d="M250.028 1423.18 L2352.76 1423.18 L2352.76 123.472 L250.028 123.472  Z" fill="#ffffff" fill-rule="evenodd" fill-opacity="1"/>
<defs>
  <clipPath id="clip602">
    <rect x="250" y="123" width="2104" height="1301"/>
  </clipPath>
</defs>
<polyline clip-path="url(#clip602)" style="stroke:#000000; stroke-linecap:round; stroke-linejoin:round; stroke-width:2; stroke-opacity:0.1; fill:none" points="598.859,1423.18 598.859,123.472 "/>
<polyline clip-path="url(#clip602)" style="stroke:#000000; stroke-linecap:round; stroke-linejoin:round; stroke-width:2; stroke-opacity:0.1; fill:none" points="988.614,1423.18 988.614,123.472 "/>
<polyline clip-path="url(#clip602)" style="stroke:#000000; stroke-linecap:round; stroke-linejoin:round; stroke-width:2; stroke-opacity:0.1; fill:none" points="1378.37,1423.18 1378.37,123.472 "/>
<polyline clip-path="url(#clip602)" style="stroke:#000000; stroke-linecap:round; stroke-linejoin:round; stroke-width:2; stroke-opacity:0.1; fill:none" points="1768.12,1423.18 1768.12,123.472 "/>
<polyline clip-path="url(#clip602)" style="stroke:#000000; stroke-linecap:round; stroke-linejoin:round; stroke-width:2; stroke-opacity:0.1; fill:none" points="2157.88,1423.18 2157.88,123.472 "/>
<polyline clip-path="url(#clip600)" style="stroke:#000000; stroke-linecap:round; stroke-linejoin:round; stroke-width:4; stroke-opacity:1; fill:none" points="250.028,1423.18 2352.76,1423.18 "/>
<polyline clip-path="url(#clip600)" style="stroke:#000000; stroke-linecap:round; stroke-linejoin:round; stroke-width:4; stroke-opacity:1; fill:none" points="598.859,1423.18 598.859,1404.28 "/>
<polyline clip-path="url(#clip600)" style="stroke:#000000; stroke-linecap:round; stroke-linejoin:round; stroke-width:4; stroke-opacity:1; fill:none" points="988.614,1423.18 988.614,1404.28 "/>
<polyline clip-path="url(#clip600)" style="stroke:#000000; stroke-linecap:round; stroke-linejoin:round; stroke-width:4; stroke-opacity:1; fill:none" points="1378.37,1423.18 1378.37,1404.28 "/>
<polyline clip-path="url(#clip600)" style="stroke:#000000; stroke-linecap:round; stroke-linejoin:round; stroke-width:4; stroke-opacity:1; fill:none" points="1768.12,1423.18 1768.12,1404.28 "/>
<polyline clip-path="url(#clip600)" style="stroke:#000000; stroke-linecap:round; stroke-linejoin:round; stroke-width:4; stroke-opacity:1; fill:none" points="2157.88,1423.18 2157.88,1404.28 "/>
<path clip-path="url(#clip600)" d="M543.385 1481.64 L551.023 1481.64 L551.023 1455.28 L542.713 1456.95 L542.713 1452.69 L550.977 1451.02 L555.653 1451.02 L555.653 1481.64 L563.292 1481.64 L563.292 1485.58 L543.385 1485.58 L543.385 1481.64 Z" fill="#000000" fill-rule="nonzero" fill-opacity="1" /><path clip-path="url(#clip600)" d="M582.736 1454.1 Q579.125 1454.1 577.296 1457.66 Q575.491 1461.2 575.491 1468.33 Q575.491 1475.44 577.296 1479.01 Q579.125 1482.55 582.736 1482.55 Q586.37 1482.55 588.176 1479.01 Q590.005 1475.44 590.005 1468.33 Q590.005 1461.2 588.176 1457.66 Q586.37 1454.1 582.736 1454.1 M582.736 1450.39 Q588.546 1450.39 591.602 1455 Q594.681 1459.58 594.681 1468.33 Q594.681 1477.06 591.602 1481.67 Q588.546 1486.25 582.736 1486.25 Q576.926 1486.25 573.847 1481.67 Q570.792 1477.06 570.792 1468.33 Q570.792 1459.58 573.847 1455 Q576.926 1450.39 582.736 1450.39 Z" fill="#000000" fill-rule="nonzero" fill-opacity="1" /><path clip-path="url(#clip600)" d="M612.898 1454.1 Q609.287 1454.1 607.458 1457.66 Q605.653 1461.2 605.653 1468.33 Q605.653 1475.44 607.458 1479.01 Q609.287 1482.55 612.898 1482.55 Q616.532 1482.55 618.338 1479.01 Q620.167 1475.44 620.167 1468.33 Q620.167 1461.2 618.338 1457.66 Q616.532 1454.1 612.898 1454.1 M612.898 1450.39 Q618.708 1450.39 621.764 1455 Q624.842 1459.58 624.842 1468.33 Q624.842 1477.06 621.764 1481.67 Q618.708 1486.25 612.898 1486.25 Q607.088 1486.25 604.009 1481.67 Q600.954 1477.06 600.954 1468.33 Q600.954 1459.58 604.009 1455 Q607.088 1450.39 612.898 1450.39 Z" fill="#000000" fill-rule="nonzero" fill-opacity="1" /><path clip-path="url(#clip600)" d="M643.06 1454.1 Q639.449 1454.1 637.62 1457.66 Q635.815 1461.2 635.815 1468.33 Q635.815 1475.44 637.62 1479.01 Q639.449 1482.55 643.06 1482.55 Q646.694 1482.55 648.5 1479.01 Q650.328 1475.44 650.328 1468.33 Q650.328 1461.2 648.5 1457.66 Q646.694 1454.1 643.06 1454.1 M643.06 1450.39 Q648.87 1450.39 651.926 1455 Q655.004 1459.58 655.004 1468.33 Q655.004 1477.06 651.926 1481.67 Q648.87 1486.25 643.06 1486.25 Q637.25 1486.25 634.171 1481.67 Q631.116 1477.06 631.116 1468.33 Q631.116 1459.58 634.171 1455 Q637.25 1450.39 643.06 1450.39 Z" fill="#000000" fill-rule="nonzero" fill-opacity="1" /><path clip-path="url(#clip600)" d="M937.225 1481.64 L953.544 1481.64 L953.544 1485.58 L931.6 1485.58 L931.6 1481.64 Q934.262 1478.89 938.845 1474.26 Q943.452 1469.61 944.632 1468.27 Q946.878 1465.74 947.757 1464.01 Q948.66 1462.25 948.66 1460.56 Q948.66 1457.8 946.716 1456.07 Q944.794 1454.33 941.693 1454.33 Q939.494 1454.33 937.04 1455.09 Q934.609 1455.86 931.832 1457.41 L931.832 1452.69 Q934.656 1451.55 937.109 1450.97 Q939.563 1450.39 941.6 1450.39 Q946.97 1450.39 950.165 1453.08 Q953.359 1455.77 953.359 1460.26 Q953.359 1462.39 952.549 1464.31 Q951.762 1466.2 949.656 1468.8 Q949.077 1469.47 945.975 1472.69 Q942.873 1475.88 937.225 1481.64 Z" fill="#000000" fill-rule="nonzero" fill-opacity="1" /><path clip-path="url(#clip600)" d="M973.359 1454.1 Q969.748 1454.1 967.919 1457.66 Q966.114 1461.2 966.114 1468.33 Q966.114 1475.44 967.919 1479.01 Q969.748 1482.55 973.359 1482.55 Q976.993 1482.55 978.799 1479.01 Q980.628 1475.44 980.628 1468.33 Q980.628 1461.2 978.799 1457.66 Q976.993 1454.1 973.359 1454.1 M973.359 1450.39 Q979.169 1450.39 982.225 1455 Q985.304 1459.58 985.304 1468.33 Q985.304 1477.06 982.225 1481.67 Q979.169 1486.25 973.359 1486.25 Q967.549 1486.25 964.47 1481.67 Q961.415 1477.06 961.415 1468.33 Q961.415 1459.58 964.47 1455 Q967.549 1450.39 973.359 1450.39 Z" fill="#000000" fill-rule="nonzero" fill-opacity="1" /><path clip-path="url(#clip600)" d="M1003.52 1454.1 Q999.91 1454.1 998.081 1457.66 Q996.276 1461.2 996.276 1468.33 Q996.276 1475.44 998.081 1479.01 Q999.91 1482.55 1003.52 1482.55 Q1007.16 1482.55 1008.96 1479.01 Q1010.79 1475.44 1010.79 1468.33 Q1010.79 1461.2 1008.96 1457.66 Q1007.16 1454.1 1003.52 1454.1 M1003.52 1450.39 Q1009.33 1450.39 1012.39 1455 Q1015.47 1459.58 1015.47 1468.33 Q1015.47 1477.06 1012.39 1481.67 Q1009.33 1486.25 1003.52 1486.25 Q997.711 1486.25 994.632 1481.67 Q991.577 1477.06 991.577 1468.33 Q991.577 1459.58 994.632 1455 Q997.711 1450.39 1003.52 1450.39 Z" fill="#000000" fill-rule="nonzero" fill-opacity="1" /><path clip-path="url(#clip600)" d="M1033.68 1454.1 Q1030.07 1454.1 1028.24 1457.66 Q1026.44 1461.2 1026.44 1468.33 Q1026.44 1475.44 1028.24 1479.01 Q1030.07 1482.55 1033.68 1482.55 Q1037.32 1482.55 1039.12 1479.01 Q1040.95 1475.44 1040.95 1468.33 Q1040.95 1461.2 1039.12 1457.66 Q1037.32 1454.1 1033.68 1454.1 M1033.68 1450.39 Q1039.49 1450.39 1042.55 1455 Q1045.63 1459.58 1045.63 1468.33 Q1045.63 1477.06 1042.55 1481.67 Q1039.49 1486.25 1033.68 1486.25 Q1027.87 1486.25 1024.79 1481.67 Q1021.74 1477.06 1021.74 1468.33 Q1021.74 1459.58 1024.79 1455 Q1027.87 1450.39 1033.68 1450.39 Z" fill="#000000" fill-rule="nonzero" fill-opacity="1" /><path clip-path="url(#clip600)" d="M1337.05 1466.95 Q1340.41 1467.66 1342.28 1469.93 Q1344.18 1472.2 1344.18 1475.53 Q1344.18 1480.65 1340.66 1483.45 Q1337.14 1486.25 1330.66 1486.25 Q1328.48 1486.25 1326.17 1485.81 Q1323.88 1485.39 1321.42 1484.54 L1321.42 1480.02 Q1323.37 1481.16 1325.68 1481.74 Q1328 1482.32 1330.52 1482.32 Q1334.92 1482.32 1337.21 1480.58 Q1339.53 1478.84 1339.53 1475.53 Q1339.53 1472.48 1337.37 1470.77 Q1335.24 1469.03 1331.42 1469.03 L1327.4 1469.03 L1327.4 1465.19 L1331.61 1465.19 Q1335.06 1465.19 1336.89 1463.82 Q1338.72 1462.43 1338.72 1459.84 Q1338.72 1457.18 1336.82 1455.77 Q1334.94 1454.33 1331.42 1454.33 Q1329.5 1454.33 1327.3 1454.75 Q1325.11 1455.16 1322.47 1456.04 L1322.47 1451.88 Q1325.13 1451.14 1327.44 1450.77 Q1329.78 1450.39 1331.84 1450.39 Q1337.17 1450.39 1340.27 1452.83 Q1343.37 1455.23 1343.37 1459.35 Q1343.37 1462.22 1341.73 1464.21 Q1340.08 1466.18 1337.05 1466.95 Z" fill="#000000" fill-rule="nonzero" fill-opacity="1" /><path clip-path="url(#clip600)" d="M1363.04 1454.1 Q1359.43 1454.1 1357.6 1457.66 Q1355.8 1461.2 1355.8 1468.33 Q1355.8 1475.44 1357.6 1479.01 Q1359.43 1482.55 1363.04 1482.55 Q1366.68 1482.55 1368.48 1479.01 Q1370.31 1475.44 1370.31 1468.33 Q1370.31 1461.2 1368.48 1457.66 Q1366.68 1454.1 1363.04 1454.1 M1363.04 1450.39 Q1368.85 1450.39 1371.91 1455 Q1374.99 1459.58 1374.99 1468.33 Q1374.99 1477.06 1371.91 1481.67 Q1368.85 1486.25 1363.04 1486.25 Q1357.23 1486.25 1354.16 1481.67 Q1351.1 1477.06 1351.1 1468.33 Q1351.1 1459.58 1354.16 1455 Q1357.23 1450.39 1363.04 1450.39 Z" fill="#000000" fill-rule="nonzero" fill-opacity="1" /><path clip-path="url(#clip600)" d="M1393.21 1454.1 Q1389.6 1454.1 1387.77 1457.66 Q1385.96 1461.2 1385.96 1468.33 Q1385.96 1475.44 1387.77 1479.01 Q1389.6 1482.55 1393.21 1482.55 Q1396.84 1482.55 1398.65 1479.01 Q1400.47 1475.44 1400.47 1468.33 Q1400.47 1461.2 1398.65 1457.66 Q1396.84 1454.1 1393.21 1454.1 M1393.21 1450.39 Q1399.02 1450.39 1402.07 1455 Q1405.15 1459.58 1405.15 1468.33 Q1405.15 1477.06 1402.07 1481.67 Q1399.02 1486.25 1393.21 1486.25 Q1387.4 1486.25 1384.32 1481.67 Q1381.26 1477.06 1381.26 1468.33 Q1381.26 1459.58 1384.32 1455 Q1387.4 1450.39 1393.21 1450.39 Z" fill="#000000" fill-rule="nonzero" fill-opacity="1" /><path clip-path="url(#clip600)" d="M1423.37 1454.1 Q1419.76 1454.1 1417.93 1457.66 Q1416.12 1461.2 1416.12 1468.33 Q1416.12 1475.44 1417.93 1479.01 Q1419.76 1482.55 1423.37 1482.55 Q1427 1482.55 1428.81 1479.01 Q1430.64 1475.44 1430.64 1468.33 Q1430.64 1461.2 1428.81 1457.66 Q1427 1454.1 1423.37 1454.1 M1423.37 1450.39 Q1429.18 1450.39 1432.23 1455 Q1435.31 1459.58 1435.31 1468.33 Q1435.31 1477.06 1432.23 1481.67 Q1429.18 1486.25 1423.37 1486.25 Q1417.56 1486.25 1414.48 1481.67 Q1411.42 1477.06 1411.42 1468.33 Q1411.42 1459.58 1414.48 1455 Q1417.56 1450.39 1423.37 1450.39 Z" fill="#000000" fill-rule="nonzero" fill-opacity="1" /><path clip-path="url(#clip600)" d="M1726.13 1455.09 L1714.33 1473.54 L1726.13 1473.54 L1726.13 1455.09 M1724.91 1451.02 L1730.79 1451.02 L1730.79 1473.54 L1735.72 1473.54 L1735.72 1477.43 L1730.79 1477.43 L1730.79 1485.58 L1726.13 1485.58 L1726.13 1477.43 L1710.53 1477.43 L1710.53 1472.92 L1724.91 1451.02 Z" fill="#000000" fill-rule="nonzero" fill-opacity="1" /><path clip-path="url(#clip600)" d="M1753.45 1454.1 Q1749.84 1454.1 1748.01 1457.66 Q1746.2 1461.2 1746.2 1468.33 Q1746.2 1475.44 1748.01 1479.01 Q1749.84 1482.55 1753.45 1482.55 Q1757.08 1482.55 1758.89 1479.01 Q1760.72 1475.44 1760.72 1468.33 Q1760.72 1461.2 1758.89 1457.66 Q1757.08 1454.1 1753.45 1454.1 M1753.45 1450.39 Q1759.26 1450.39 1762.31 1455 Q1765.39 1459.58 1765.39 1468.33 Q1765.39 1477.06 1762.31 1481.67 Q1759.26 1486.25 1753.45 1486.25 Q1747.64 1486.25 1744.56 1481.67 Q1741.5 1477.06 1741.5 1468.33 Q1741.5 1459.58 1744.56 1455 Q1747.64 1450.39 1753.45 1450.39 Z" fill="#000000" fill-rule="nonzero" fill-opacity="1" /><path clip-path="url(#clip600)" d="M1783.61 1454.1 Q1780 1454.1 1778.17 1457.66 Q1776.36 1461.2 1776.36 1468.33 Q1776.36 1475.44 1778.17 1479.01 Q1780 1482.55 1783.61 1482.55 Q1787.24 1482.55 1789.05 1479.01 Q1790.88 1475.44 1790.88 1468.33 Q1790.88 1461.2 1789.05 1457.66 Q1787.24 1454.1 1783.61 1454.1 M1783.61 1450.39 Q1789.42 1450.39 1792.48 1455 Q1795.55 1459.58 1795.55 1468.33 Q1795.55 1477.06 1792.48 1481.67 Q1789.42 1486.25 1783.61 1486.25 Q1777.8 1486.25 1774.72 1481.67 Q1771.67 1477.06 1771.67 1468.33 Q1771.67 1459.58 1774.72 1455 Q1777.8 1450.39 1783.61 1450.39 Z" fill="#000000" fill-rule="nonzero" fill-opacity="1" /><path clip-path="url(#clip600)" d="M1813.77 1454.1 Q1810.16 1454.1 1808.33 1457.66 Q1806.53 1461.2 1806.53 1468.33 Q1806.53 1475.44 1808.33 1479.01 Q1810.16 1482.55 1813.77 1482.55 Q1817.41 1482.55 1819.21 1479.01 Q1821.04 1475.44 1821.04 1468.33 Q1821.04 1461.2 1819.21 1457.66 Q1817.41 1454.1 1813.77 1454.1 M1813.77 1450.39 Q1819.58 1450.39 1822.64 1455 Q1825.72 1459.58 1825.72 1468.33 Q1825.72 1477.06 1822.64 1481.67 Q1819.58 1486.25 1813.77 1486.25 Q1807.96 1486.25 1804.88 1481.67 Q1801.83 1477.06 1801.83 1468.33 Q1801.83 1459.58 1804.88 1455 Q1807.96 1450.39 1813.77 1450.39 Z" fill="#000000" fill-rule="nonzero" fill-opacity="1" /><path clip-path="url(#clip600)" d="M2102.42 1451.02 L2120.77 1451.02 L2120.77 1454.96 L2106.7 1454.96 L2106.7 1463.43 Q2107.72 1463.08 2108.74 1462.92 Q2109.75 1462.73 2110.77 1462.73 Q2116.56 1462.73 2119.94 1465.9 Q2123.32 1469.08 2123.32 1474.49 Q2123.32 1480.07 2119.85 1483.17 Q2116.37 1486.25 2110.05 1486.25 Q2107.88 1486.25 2105.61 1485.88 Q2103.36 1485.51 2100.96 1484.77 L2100.96 1480.07 Q2103.04 1481.2 2105.26 1481.76 Q2107.49 1482.32 2109.96 1482.32 Q2113.97 1482.32 2116.3 1480.21 Q2118.64 1478.1 2118.64 1474.49 Q2118.64 1470.88 2116.3 1468.77 Q2113.97 1466.67 2109.96 1466.67 Q2108.09 1466.67 2106.21 1467.08 Q2104.36 1467.5 2102.42 1468.38 L2102.42 1451.02 Z" fill="#000000" fill-rule="nonzero" fill-opacity="1" /><path clip-path="url(#clip600)" d="M2142.53 1454.1 Q2138.92 1454.1 2137.09 1457.66 Q2135.29 1461.2 2135.29 1468.33 Q2135.29 1475.44 2137.09 1479.01 Q2138.92 1482.55 2142.53 1482.55 Q2146.17 1482.55 2147.97 1479.01 Q2149.8 1475.44 2149.8 1468.33 Q2149.8 1461.2 2147.97 1457.66 Q2146.17 1454.1 2142.53 1454.1 M2142.53 1450.39 Q2148.34 1450.39 2151.4 1455 Q2154.48 1459.58 2154.48 1468.33 Q2154.48 1477.06 2151.4 1481.67 Q2148.34 1486.25 2142.53 1486.25 Q2136.72 1486.25 2133.64 1481.67 Q2130.59 1477.06 2130.59 1468.33 Q2130.59 1459.58 2133.64 1455 Q2136.72 1450.39 2142.53 1450.39 Z" fill="#000000" fill-rule="nonzero" fill-opacity="1" /><path clip-path="url(#clip600)" d="M2172.69 1454.1 Q2169.08 1454.1 2167.25 1457.66 Q2165.45 1461.2 2165.45 1468.33 Q2165.45 1475.44 2167.25 1479.01 Q2169.08 1482.55 2172.69 1482.55 Q2176.33 1482.55 2178.13 1479.01 Q2179.96 1475.44 2179.96 1468.33 Q2179.96 1461.2 2178.13 1457.66 Q2176.33 1454.1 2172.69 1454.1 M2172.69 1450.39 Q2178.5 1450.39 2181.56 1455 Q2184.64 1459.58 2184.64 1468.33 Q2184.64 1477.06 2181.56 1481.67 Q2178.5 1486.25 2172.69 1486.25 Q2166.88 1486.25 2163.8 1481.67 Q2160.75 1477.06 2160.75 1468.33 Q2160.75 1459.58 2163.8 1455 Q2166.88 1450.39 2172.69 1450.39 Z" fill="#000000" fill-rule="nonzero" fill-opacity="1" /><path clip-path="url(#clip600)" d="M2202.86 1454.1 Q2199.24 1454.1 2197.42 1457.66 Q2195.61 1461.2 2195.61 1468.33 Q2195.61 1475.44 2197.42 1479.01 Q2199.24 1482.55 2202.86 1482.55 Q2206.49 1482.55 2208.29 1479.01 Q2210.12 1475.44 2210.12 1468.33 Q2210.12 1461.2 2208.29 1457.66 Q2206.49 1454.1 2202.86 1454.1 M2202.86 1450.39 Q2208.67 1450.39 2211.72 1455 Q2214.8 1459.58 2214.8 1468.33 Q2214.8 1477.06 2211.72 1481.67 Q2208.67 1486.25 2202.86 1486.25 Q2197.04 1486.25 2193.97 1481.67 Q2190.91 1477.06 2190.91 1468.33 Q2190.91 1459.58 2193.97 1455 Q2197.04 1450.39 2202.86 1450.39 Z" fill="#000000" fill-rule="nonzero" fill-opacity="1" /><path clip-path="url(#clip600)" d="M1265.2 1526.86 L1256.48 1550.51 L1273.96 1550.51 L1265.2 1526.86 M1261.57 1520.52 L1268.86 1520.52 L1286.97 1568.04 L1280.29 1568.04 L1275.96 1555.85 L1254.54 1555.85 L1250.21 1568.04 L1243.43 1568.04 L1261.57 1520.52 Z" fill="#000000" fill-rule="nonzero" fill-opacity="1" /><path clip-path="url(#clip600)" d="M1282.26 1520.52 L1322.46 1520.52 L1322.46 1525.93 L1305.59 1525.93 L1305.59 1568.04 L1299.13 1568.04 L1299.13 1525.93 L1282.26 1525.93 L1282.26 1520.52 Z" fill="#000000" fill-rule="nonzero" fill-opacity="1" /><path clip-path="url(#clip600)" d="M1335.1 1525.81 L1335.1 1543.66 L1343.18 1543.66 Q1347.67 1543.66 1350.12 1541.34 Q1352.57 1539.02 1352.57 1534.72 Q1352.57 1530.45 1350.12 1528.13 Q1347.67 1525.81 1343.18 1525.81 L1335.1 1525.81 M1328.67 1520.52 L1343.18 1520.52 Q1351.17 1520.52 1355.25 1524.15 Q1359.35 1527.75 1359.35 1534.72 Q1359.35 1541.75 1355.25 1545.35 Q1351.17 1548.95 1343.18 1548.95 L1335.1 1548.95 L1335.1 1568.04 L1328.67 1568.04 L1328.67 1520.52 Z" fill="#000000" fill-rule="nonzero" fill-opacity="1" /><polyline clip-path="url(#clip602)" style="stroke:#000000; stroke-linecap:round; stroke-linejoin:round; stroke-width:2; stroke-opacity:0.1; fill:none" points="250.028,1123.25 2352.76,1123.25 "/>
<polyline clip-path="url(#clip602)" style="stroke:#000000; stroke-linecap:round; stroke-linejoin:round; stroke-width:2; stroke-opacity:0.1; fill:none" points="250.028,789.989 2352.76,789.989 "/>
<polyline clip-path="url(#clip602)" style="stroke:#000000; stroke-linecap:round; stroke-linejoin:round; stroke-width:2; stroke-opacity:0.1; fill:none" points="250.028,456.731 2352.76,456.731 "/>
<polyline clip-path="url(#clip602)" style="stroke:#000000; stroke-linecap:round; stroke-linejoin:round; stroke-width:2; stroke-opacity:0.1; fill:none" points="250.028,123.472 2352.76,123.472 "/>
<polyline clip-path="url(#clip600)" style="stroke:#000000; stroke-linecap:round; stroke-linejoin:round; stroke-width:4; stroke-opacity:1; fill:none" points="250.028,1423.18 250.028,123.472 "/>
<polyline clip-path="url(#clip600)" style="stroke:#000000; stroke-linecap:round; stroke-linejoin:round; stroke-width:4; stroke-opacity:1; fill:none" points="250.028,1123.25 268.926,1123.25 "/>
<polyline clip-path="url(#clip600)" style="stroke:#000000; stroke-linecap:round; stroke-linejoin:round; stroke-width:4; stroke-opacity:1; fill:none" points="250.028,789.989 268.926,789.989 "/>
<polyline clip-path="url(#clip600)" style="stroke:#000000; stroke-linecap:round; stroke-linejoin:round; stroke-width:4; stroke-opacity:1; fill:none" points="250.028,456.731 268.926,456.731 "/>
<polyline clip-path="url(#clip600)" style="stroke:#000000; stroke-linecap:round; stroke-linejoin:round; stroke-width:4; stroke-opacity:1; fill:none" points="250.028,123.472 268.926,123.472 "/>
<path clip-path="url(#clip600)" d="M127.917 1109.05 Q124.306 1109.05 122.478 1112.61 Q120.672 1116.15 120.672 1123.28 Q120.672 1130.39 122.478 1133.95 Q124.306 1137.49 127.917 1137.49 Q131.552 1137.49 133.357 1133.95 Q135.186 1130.39 135.186 1123.28 Q135.186 1116.15 133.357 1112.61 Q131.552 1109.05 127.917 1109.05 M127.917 1105.34 Q133.728 1105.34 136.783 1109.95 Q139.862 1114.53 139.862 1123.28 Q139.862 1132.01 136.783 1136.62 Q133.728 1141.2 127.917 1141.2 Q122.107 1141.2 119.029 1136.62 Q115.973 1132.01 115.973 1123.28 Q115.973 1114.53 119.029 1109.95 Q122.107 1105.34 127.917 1105.34 Z" fill="#000000" fill-rule="nonzero" fill-opacity="1" /><path clip-path="url(#clip600)" d="M148.079 1134.65 L152.964 1134.65 L152.964 1140.53 L148.079 1140.53 L148.079 1134.65 Z" fill="#000000" fill-rule="nonzero" fill-opacity="1" /><path clip-path="url(#clip600)" d="M173.149 1109.05 Q169.538 1109.05 167.709 1112.61 Q165.903 1116.15 165.903 1123.28 Q165.903 1130.39 167.709 1133.95 Q169.538 1137.49 173.149 1137.49 Q176.783 1137.49 178.589 1133.95 Q180.417 1130.39 180.417 1123.28 Q180.417 1116.15 178.589 1112.61 Q176.783 1109.05 173.149 1109.05 M173.149 1105.34 Q178.959 1105.34 182.014 1109.95 Q185.093 1114.53 185.093 1123.28 Q185.093 1132.01 182.014 1136.62 Q178.959 1141.2 173.149 1141.2 Q167.339 1141.2 164.26 1136.62 Q161.204 1132.01 161.204 1123.28 Q161.204 1114.53 164.26 1109.95 Q167.339 1105.34 173.149 1105.34 Z" fill="#000000" fill-rule="nonzero" fill-opacity="1" /><path clip-path="url(#clip600)" d="M194.121 1136.59 L201.76 1136.59 L201.76 1110.23 L193.45 1111.89 L193.45 1107.63 L201.713 1105.97 L206.389 1105.97 L206.389 1136.59 L214.028 1136.59 L214.028 1140.53 L194.121 1140.53 L194.121 1136.59 Z" fill="#000000" fill-rule="nonzero" fill-opacity="1" /><path clip-path="url(#clip600)" d="M128.288 775.788 Q124.677 775.788 122.848 779.352 Q121.043 782.894 121.043 790.024 Q121.043 797.13 122.848 800.695 Q124.677 804.237 128.288 804.237 Q131.922 804.237 133.728 800.695 Q135.556 797.13 135.556 790.024 Q135.556 782.894 133.728 779.352 Q131.922 775.788 128.288 775.788 M128.288 772.084 Q134.098 772.084 137.154 776.69 Q140.232 781.274 140.232 790.024 Q140.232 798.75 137.154 803.357 Q134.098 807.94 128.288 807.94 Q122.478 807.94 119.399 803.357 Q116.343 798.75 116.343 790.024 Q116.343 781.274 119.399 776.69 Q122.478 772.084 128.288 772.084 Z" fill="#000000" fill-rule="nonzero" fill-opacity="1" /><path clip-path="url(#clip600)" d="M148.45 801.389 L153.334 801.389 L153.334 807.269 L148.45 807.269 L148.45 801.389 Z" fill="#000000" fill-rule="nonzero" fill-opacity="1" /><path clip-path="url(#clip600)" d="M173.519 775.788 Q169.908 775.788 168.079 779.352 Q166.274 782.894 166.274 790.024 Q166.274 797.13 168.079 800.695 Q169.908 804.237 173.519 804.237 Q177.153 804.237 178.959 800.695 Q180.788 797.13 180.788 790.024 Q180.788 782.894 178.959 779.352 Q177.153 775.788 173.519 775.788 M173.519 772.084 Q179.329 772.084 182.385 776.69 Q185.463 781.274 185.463 790.024 Q185.463 798.75 182.385 803.357 Q179.329 807.94 173.519 807.94 Q167.709 807.94 164.63 803.357 Q161.575 798.75 161.575 790.024 Q161.575 781.274 164.63 776.69 Q167.709 772.084 173.519 772.084 Z" fill="#000000" fill-rule="nonzero" fill-opacity="1" /><path clip-path="url(#clip600)" d="M197.709 803.334 L214.028 803.334 L214.028 807.269 L192.084 807.269 L192.084 803.334 Q194.746 800.579 199.329 795.95 Q203.936 791.297 205.116 789.954 Q207.362 787.431 208.241 785.695 Q209.144 783.936 209.144 782.246 Q209.144 779.491 207.199 777.755 Q205.278 776.019 202.176 776.019 Q199.977 776.019 197.524 776.783 Q195.093 777.547 192.315 779.098 L192.315 774.376 Q195.139 773.241 197.593 772.663 Q200.047 772.084 202.084 772.084 Q207.454 772.084 210.649 774.769 Q213.843 777.454 213.843 781.945 Q213.843 784.075 213.033 785.996 Q212.246 787.894 210.139 790.487 Q209.561 791.158 206.459 794.375 Q203.357 797.57 197.709 803.334 Z" fill="#000000" fill-rule="nonzero" fill-opacity="1" /><path clip-path="url(#clip600)" d="M127.339 442.529 Q123.728 442.529 121.899 446.094 Q120.093 449.636 120.093 456.765 Q120.093 463.872 121.899 467.436 Q123.728 470.978 127.339 470.978 Q130.973 470.978 132.779 467.436 Q134.607 463.872 134.607 456.765 Q134.607 449.636 132.779 446.094 Q130.973 442.529 127.339 442.529 M127.339 438.826 Q133.149 438.826 136.204 443.432 Q139.283 448.015 139.283 456.765 Q139.283 465.492 136.204 470.098 Q133.149 474.682 127.339 474.682 Q121.529 474.682 118.45 470.098 Q115.394 465.492 115.394 456.765 Q115.394 448.015 118.45 443.432 Q121.529 438.826 127.339 438.826 Z" fill="#000000" fill-rule="nonzero" fill-opacity="1" /><path clip-path="url(#clip600)" d="M147.501 468.131 L152.385 468.131 L152.385 474.011 L147.501 474.011 L147.501 468.131 Z" fill="#000000" fill-rule="nonzero" fill-opacity="1" /><path clip-path="url(#clip600)" d="M172.57 442.529 Q168.959 442.529 167.13 446.094 Q165.325 449.636 165.325 456.765 Q165.325 463.872 167.13 467.436 Q168.959 470.978 172.57 470.978 Q176.204 470.978 178.01 467.436 Q179.839 463.872 179.839 456.765 Q179.839 449.636 178.01 446.094 Q176.204 442.529 172.57 442.529 M172.57 438.826 Q178.38 438.826 181.436 443.432 Q184.514 448.015 184.514 456.765 Q184.514 465.492 181.436 470.098 Q178.38 474.682 172.57 474.682 Q166.76 474.682 163.681 470.098 Q160.626 465.492 160.626 456.765 Q160.626 448.015 163.681 443.432 Q166.76 438.826 172.57 438.826 Z" fill="#000000" fill-rule="nonzero" fill-opacity="1" /><path clip-path="url(#clip600)" d="M206.899 455.376 Q210.255 456.094 212.13 458.362 Q214.028 460.631 214.028 463.964 Q214.028 469.08 210.51 471.881 Q206.991 474.682 200.51 474.682 Q198.334 474.682 196.019 474.242 Q193.727 473.825 191.274 472.969 L191.274 468.455 Q193.218 469.589 195.533 470.168 Q197.848 470.747 200.371 470.747 Q204.769 470.747 207.061 469.011 Q209.375 467.274 209.375 463.964 Q209.375 460.909 207.223 459.196 Q205.093 457.46 201.274 457.46 L197.246 457.46 L197.246 453.617 L201.459 453.617 Q204.908 453.617 206.737 452.251 Q208.565 450.862 208.565 448.27 Q208.565 445.608 206.667 444.196 Q204.792 442.761 201.274 442.761 Q199.352 442.761 197.153 443.177 Q194.954 443.594 192.315 444.474 L192.315 440.307 Q194.977 439.566 197.292 439.196 Q199.63 438.826 201.69 438.826 Q207.014 438.826 210.116 441.256 Q213.218 443.663 213.218 447.784 Q213.218 450.654 211.574 452.645 Q209.931 454.612 206.899 455.376 Z" fill="#000000" fill-rule="nonzero" fill-opacity="1" /><path clip-path="url(#clip600)" d="M126.205 109.271 Q122.593 109.271 120.765 112.836 Q118.959 116.377 118.959 123.507 Q118.959 130.613 120.765 134.178 Q122.593 137.72 126.205 137.72 Q129.839 137.72 131.644 134.178 Q133.473 130.613 133.473 123.507 Q133.473 116.377 131.644 112.836 Q129.839 109.271 126.205 109.271 M126.205 105.567 Q132.015 105.567 135.07 110.174 Q138.149 114.757 138.149 123.507 Q138.149 132.234 135.07 136.84 Q132.015 141.423 126.205 141.423 Q120.394 141.423 117.316 136.84 Q114.26 132.234 114.26 123.507 Q114.26 114.757 117.316 110.174 Q120.394 105.567 126.205 105.567 Z" fill="#000000" fill-rule="nonzero" fill-opacity="1" /><path clip-path="url(#clip600)" d="M146.366 134.873 L151.251 134.873 L151.251 140.752 L146.366 140.752 L146.366 134.873 Z" fill="#000000" fill-rule="nonzero" fill-opacity="1" /><path clip-path="url(#clip600)" d="M171.436 109.271 Q167.825 109.271 165.996 112.836 Q164.19 116.377 164.19 123.507 Q164.19 130.613 165.996 134.178 Q167.825 137.72 171.436 137.72 Q175.07 137.72 176.876 134.178 Q178.704 130.613 178.704 123.507 Q178.704 116.377 176.876 112.836 Q175.07 109.271 171.436 109.271 M171.436 105.567 Q177.246 105.567 180.301 110.174 Q183.38 114.757 183.38 123.507 Q183.38 132.234 180.301 136.84 Q177.246 141.423 171.436 141.423 Q165.626 141.423 162.547 136.84 Q159.491 132.234 159.491 123.507 Q159.491 114.757 162.547 110.174 Q165.626 105.567 171.436 105.567 Z" fill="#000000" fill-rule="nonzero" fill-opacity="1" /><path clip-path="url(#clip600)" d="M204.445 110.266 L192.639 128.715 L204.445 128.715 L204.445 110.266 M203.218 106.192 L209.098 106.192 L209.098 128.715 L214.028 128.715 L214.028 132.604 L209.098 132.604 L209.098 140.752 L204.445 140.752 L204.445 132.604 L188.843 132.604 L188.843 128.09 L203.218 106.192 Z" fill="#000000" fill-rule="nonzero" fill-opacity="1" /><path clip-path="url(#clip600)" d="M20.049 772.435 L64.0042 755.979 L64.0042 762.186 L37.6501 772.18 L64.0042 784.466 L64.0042 790.673 L29.8203 775.045 L23.5183 777.4 Q19.5079 778.896 19.5079 782.302 L19.5079 785.357 L14.479 785.357 L14.5426 781.633 Q14.6381 774.44 20.049 772.435 Z" fill="#000000" fill-rule="nonzero" fill-opacity="1" /><path clip-path="url(#clip600)" d="M733.253 28.9478 L733.253 35.9153 Q730.093 34.1734 726.893 33.3227 Q723.733 32.4315 720.492 32.4315 Q713.241 32.4315 709.231 37.0496 Q705.22 41.6271 705.22 49.9314 Q705.22 58.2358 709.231 62.8538 Q713.241 67.4314 720.492 67.4314 Q723.733 67.4314 726.893 66.5807 Q730.093 65.6895 733.253 63.9476 L733.253 70.8341 Q730.134 72.2924 726.771 73.0216 Q723.45 73.7508 719.682 73.7508 Q709.433 73.7508 703.398 67.3098 Q697.362 60.8689 697.362 49.9314 Q697.362 38.832 703.438 32.472 Q709.555 26.1121 720.168 26.1121 Q723.612 26.1121 726.893 26.8413 Q730.174 27.5299 733.253 28.9478 Z" fill="#000000" fill-rule="nonzero" fill-opacity="1" /><path clip-path="url(#clip600)" d="M783.93 45.1919 L783.93 72.576 L776.476 72.576 L776.476 45.4349 Q776.476 38.994 773.964 35.7938 Q771.453 32.5936 766.43 32.5936 Q760.394 32.5936 756.91 36.4419 Q753.426 40.2903 753.426 46.9338 L753.426 72.576 L745.932 72.576 L745.932 9.54393 L753.426 9.54393 L753.426 34.2544 Q756.1 30.163 759.705 28.1376 Q763.351 26.1121 768.09 26.1121 Q775.909 26.1121 779.919 30.9732 Q783.93 35.7938 783.93 45.1919 Z" fill="#000000" fill-rule="nonzero" fill-opacity="1" /><path clip-path="url(#clip600)" d="M819.415 49.7694 Q810.382 49.7694 806.898 51.8354 Q803.414 53.9013 803.414 58.8839 Q803.414 62.8538 806.007 65.2034 Q808.64 67.5124 813.137 67.5124 Q819.334 67.5124 823.061 63.1374 Q826.829 58.7219 826.829 51.4303 L826.829 49.7694 L819.415 49.7694 M834.282 46.6907 L834.282 72.576 L826.829 72.576 L826.829 65.6895 Q824.277 69.8214 820.469 71.8063 Q816.661 73.7508 811.152 73.7508 Q804.184 73.7508 800.052 69.8619 Q795.961 65.9325 795.961 59.3701 Q795.961 51.7138 801.065 47.825 Q806.209 43.9361 816.377 43.9361 L826.829 43.9361 L826.829 43.2069 Q826.829 38.0623 823.426 35.2672 Q820.064 32.4315 813.947 32.4315 Q810.058 32.4315 806.372 33.3632 Q802.685 34.295 799.282 36.1584 L799.282 29.2718 Q803.374 27.692 807.222 26.9223 Q811.071 26.1121 814.716 26.1121 Q824.56 26.1121 829.421 31.2163 Q834.282 36.3204 834.282 46.6907 Z" fill="#000000" fill-rule="nonzero" fill-opacity="1" /><path clip-path="url(#clip600)" d="M887.349 45.1919 L887.349 72.576 L879.895 72.576 L879.895 45.4349 Q879.895 38.994 877.384 35.7938 Q874.872 32.5936 869.849 32.5936 Q863.813 32.5936 860.33 36.4419 Q856.846 40.2903 856.846 46.9338 L856.846 72.576 L849.352 72.576 L849.352 27.2059 L856.846 27.2059 L856.846 34.2544 Q859.519 30.163 863.125 28.1376 Q866.771 26.1121 871.51 26.1121 Q879.328 26.1121 883.339 30.9732 Q887.349 35.7938 887.349 45.1919 Z" fill="#000000" fill-rule="nonzero" fill-opacity="1" /><path clip-path="url(#clip600)" d="M932.071 49.3643 Q932.071 41.2625 928.709 36.8065 Q925.387 32.3505 919.351 32.3505 Q913.356 32.3505 909.994 36.8065 Q906.672 41.2625 906.672 49.3643 Q906.672 57.4256 909.994 61.8816 Q913.356 66.3376 919.351 66.3376 Q925.387 66.3376 928.709 61.8816 Q932.071 57.4256 932.071 49.3643 M939.525 66.9452 Q939.525 78.5308 934.38 84.1616 Q929.235 89.8329 918.622 89.8329 Q914.693 89.8329 911.209 89.2252 Q907.725 88.6581 904.444 87.4428 L904.444 80.1917 Q907.725 81.9741 910.925 82.8248 Q914.126 83.6755 917.447 83.6755 Q924.779 83.6755 928.425 79.8271 Q932.071 76.0193 932.071 68.282 L932.071 64.5957 Q929.762 68.6061 926.157 70.5911 Q922.551 72.576 917.528 72.576 Q909.183 72.576 904.079 66.2161 Q898.975 59.8562 898.975 49.3643 Q898.975 38.832 904.079 32.472 Q909.183 26.1121 917.528 26.1121 Q922.551 26.1121 926.157 28.0971 Q929.762 30.082 932.071 34.0924 L932.071 27.2059 L939.525 27.2059 L939.525 66.9452 Z" fill="#000000" fill-rule="nonzero" fill-opacity="1" /><path clip-path="url(#clip600)" d="M954.878 27.2059 L962.331 27.2059 L962.331 72.576 L954.878 72.576 L954.878 27.2059 M954.878 9.54393 L962.331 9.54393 L962.331 18.9825 L954.878 18.9825 L954.878 9.54393 Z" fill="#000000" fill-rule="nonzero" fill-opacity="1" /><path clip-path="url(#clip600)" d="M1015.64 45.1919 L1015.64 72.576 L1008.19 72.576 L1008.19 45.4349 Q1008.19 38.994 1005.68 35.7938 Q1003.16 32.5936 998.141 32.5936 Q992.105 32.5936 988.622 36.4419 Q985.138 40.2903 985.138 46.9338 L985.138 72.576 L977.644 72.576 L977.644 27.2059 L985.138 27.2059 L985.138 34.2544 Q987.812 30.163 991.417 28.1376 Q995.063 26.1121 999.802 26.1121 Q1007.62 26.1121 1011.63 30.9732 Q1015.64 35.7938 1015.64 45.1919 Z" fill="#000000" fill-rule="nonzero" fill-opacity="1" /><path clip-path="url(#clip600)" d="M1060.36 49.3643 Q1060.36 41.2625 1057 36.8065 Q1053.68 32.3505 1047.64 32.3505 Q1041.65 32.3505 1038.29 36.8065 Q1034.96 41.2625 1034.96 49.3643 Q1034.96 57.4256 1038.29 61.8816 Q1041.65 66.3376 1047.64 66.3376 Q1053.68 66.3376 1057 61.8816 Q1060.36 57.4256 1060.36 49.3643 M1067.82 66.9452 Q1067.82 78.5308 1062.67 84.1616 Q1057.53 89.8329 1046.91 89.8329 Q1042.98 89.8329 1039.5 89.2252 Q1036.02 88.6581 1032.74 87.4428 L1032.74 80.1917 Q1036.02 81.9741 1039.22 82.8248 Q1042.42 83.6755 1045.74 83.6755 Q1053.07 83.6755 1056.72 79.8271 Q1060.36 76.0193 1060.36 68.282 L1060.36 64.5957 Q1058.05 68.6061 1054.45 70.5911 Q1050.84 72.576 1045.82 72.576 Q1037.48 72.576 1032.37 66.2161 Q1027.27 59.8562 1027.27 49.3643 Q1027.27 38.832 1032.37 32.472 Q1037.48 26.1121 1045.82 26.1121 Q1050.84 26.1121 1054.45 28.0971 Q1058.05 30.082 1060.36 34.0924 L1060.36 27.2059 L1067.82 27.2059 L1067.82 66.9452 Z" fill="#000000" fill-rule="nonzero" fill-opacity="1" /><path clip-path="url(#clip600)" d="M1124 73.7508 Q1107.19 73.7508 1107.19 49.6884 Q1107.19 40.1688 1113.47 27.2059 L1121.49 27.2059 Q1115.7 40.1688 1115.7 49.8909 Q1115.7 67.4314 1124.69 67.4314 Q1132.91 67.4314 1132.91 45.6375 L1139.8 45.6375 Q1139.8 67.4314 1148.02 67.4314 Q1157.02 67.4314 1157.02 49.8909 Q1157.02 40.1688 1151.23 27.2059 L1159.25 27.2059 Q1165.52 40.1688 1165.52 49.6884 Q1165.52 73.7508 1148.71 73.7508 Q1137.69 73.7508 1136.36 61.6386 Q1134.7 73.7508 1124 73.7508 Z" fill="#000000" fill-rule="nonzero" fill-opacity="1" /><path clip-path="url(#clip600)" d="M1213.49 86.3491 L1213.49 92.1419 L1170.39 92.1419 L1170.39 86.3491 L1213.49 86.3491 Z" fill="#000000" fill-rule="nonzero" fill-opacity="1" /><path clip-path="url(#clip600)" d="M1246.79 34.1734 Q1245.53 33.4443 1244.03 33.1202 Q1242.57 32.7556 1240.79 32.7556 Q1234.47 32.7556 1231.07 36.8875 Q1227.71 40.9789 1227.71 48.6757 L1227.71 72.576 L1220.21 72.576 L1220.21 27.2059 L1227.71 27.2059 L1227.71 34.2544 Q1230.06 30.1225 1233.82 28.1376 Q1237.59 26.1121 1242.98 26.1121 Q1243.75 26.1121 1244.68 26.2337 Q1245.61 26.3147 1246.75 26.5172 L1246.79 34.1734 Z" fill="#000000" fill-rule="nonzero" fill-opacity="1" /><path clip-path="url(#clip600)" d="M1276.64 27.2059 L1284.09 27.2059 L1293.41 62.6108 L1302.69 27.2059 L1311.48 27.2059 L1320.8 62.6108 L1330.07 27.2059 L1337.53 27.2059 L1325.66 72.576 L1316.87 72.576 L1307.1 35.3887 L1297.3 72.576 L1288.51 72.576 L1276.64 27.2059 Z" fill="#000000" fill-rule="nonzero" fill-opacity="1" /><path clip-path="url(#clip600)" d="M1386.54 45.1919 L1386.54 72.576 L1379.09 72.576 L1379.09 45.4349 Q1379.09 38.994 1376.58 35.7938 Q1374.07 32.5936 1369.04 32.5936 Q1363.01 32.5936 1359.52 36.4419 Q1356.04 40.2903 1356.04 46.9338 L1356.04 72.576 L1348.54 72.576 L1348.54 9.54393 L1356.04 9.54393 L1356.04 34.2544 Q1358.71 30.163 1362.32 28.1376 Q1365.96 26.1121 1370.7 26.1121 Q1378.52 26.1121 1382.53 30.9732 Q1386.54 35.7938 1386.54 45.1919 Z" fill="#000000" fill-rule="nonzero" fill-opacity="1" /><path clip-path="url(#clip600)" d="M1440.22 48.0275 L1440.22 51.6733 L1405.95 51.6733 Q1406.43 59.3701 1410.56 63.421 Q1414.74 67.4314 1422.15 67.4314 Q1426.44 67.4314 1430.45 66.3781 Q1434.5 65.3249 1438.47 63.2184 L1438.47 70.267 Q1434.46 71.9684 1430.25 72.8596 Q1426.04 73.7508 1421.7 73.7508 Q1410.85 73.7508 1404.49 67.4314 Q1398.17 61.1119 1398.17 50.3365 Q1398.17 39.1965 1404.16 32.6746 Q1410.2 26.1121 1420.41 26.1121 Q1429.56 26.1121 1434.87 32.0264 Q1440.22 37.9003 1440.22 48.0275 M1432.76 45.84 Q1432.68 39.7232 1429.32 36.0774 Q1426 32.4315 1420.49 32.4315 Q1414.25 32.4315 1410.48 35.9558 Q1406.76 39.4801 1406.19 45.8805 L1432.76 45.84 Z" fill="#000000" fill-rule="nonzero" fill-opacity="1" /><path clip-path="url(#clip600)" d="M1490.16 45.1919 L1490.16 72.576 L1482.71 72.576 L1482.71 45.4349 Q1482.71 38.994 1480.2 35.7938 Q1477.69 32.5936 1472.66 32.5936 Q1466.63 32.5936 1463.14 36.4419 Q1459.66 40.2903 1459.66 46.9338 L1459.66 72.576 L1452.17 72.576 L1452.17 27.2059 L1459.66 27.2059 L1459.66 34.2544 Q1462.33 30.163 1465.94 28.1376 Q1469.59 26.1121 1474.33 26.1121 Q1482.14 26.1121 1486.15 30.9732 Q1490.16 35.7938 1490.16 45.1919 Z" fill="#000000" fill-rule="nonzero" fill-opacity="1" /><path clip-path="url(#clip600)" d="M1545.86 73.7508 Q1529.05 73.7508 1529.05 49.6884 Q1529.05 40.1688 1535.33 27.2059 L1543.35 27.2059 Q1537.56 40.1688 1537.56 49.8909 Q1537.56 67.4314 1546.55 67.4314 Q1554.78 67.4314 1554.78 45.6375 L1561.66 45.6375 Q1561.66 67.4314 1569.89 67.4314 Q1578.88 67.4314 1578.88 49.8909 Q1578.88 40.1688 1573.09 27.2059 L1581.11 27.2059 Q1587.39 40.1688 1587.39 49.6884 Q1587.39 73.7508 1570.57 73.7508 Q1559.56 73.7508 1558.22 61.6386 Q1556.56 73.7508 1545.86 73.7508 Z" fill="#000000" fill-rule="nonzero" fill-opacity="1" /><path clip-path="url(#clip600)" d="M1635.35 86.3491 L1635.35 92.1419 L1592.25 92.1419 L1592.25 86.3491 L1635.35 86.3491 Z" fill="#000000" fill-rule="nonzero" fill-opacity="1" /><path clip-path="url(#clip600)" d="M1662.98 49.7694 Q1653.94 49.7694 1650.46 51.8354 Q1646.97 53.9013 1646.97 58.8839 Q1646.97 62.8538 1649.57 65.2034 Q1652.2 67.5124 1656.7 67.5124 Q1662.89 67.5124 1666.62 63.1374 Q1670.39 58.7219 1670.39 51.4303 L1670.39 49.7694 L1662.98 49.7694 M1677.84 46.6907 L1677.84 72.576 L1670.39 72.576 L1670.39 65.6895 Q1667.84 69.8214 1664.03 71.8063 Q1660.22 73.7508 1654.71 73.7508 Q1647.74 73.7508 1643.61 69.8619 Q1639.52 65.9325 1639.52 59.3701 Q1639.52 51.7138 1644.63 47.825 Q1649.77 43.9361 1659.94 43.9361 L1670.39 43.9361 L1670.39 43.2069 Q1670.39 38.0623 1666.99 35.2672 Q1663.62 32.4315 1657.51 32.4315 Q1653.62 32.4315 1649.93 33.3632 Q1646.25 34.295 1642.84 36.1584 L1642.84 29.2718 Q1646.93 27.692 1650.78 26.9223 Q1654.63 26.1121 1658.28 26.1121 Q1668.12 26.1121 1672.98 31.2163 Q1677.84 36.3204 1677.84 46.6907 Z" fill="#000000" fill-rule="nonzero" fill-opacity="1" /><path clip-path="url(#clip600)" d="M1725.76 49.9314 Q1725.76 41.7081 1722.36 37.0496 Q1719 32.3505 1713.09 32.3505 Q1707.17 32.3505 1703.77 37.0496 Q1700.41 41.7081 1700.41 49.9314 Q1700.41 58.1548 1703.77 62.8538 Q1707.17 67.5124 1713.09 67.5124 Q1719 67.5124 1722.36 62.8538 Q1725.76 58.1548 1725.76 49.9314 M1700.41 34.0924 Q1702.76 30.0415 1706.32 28.0971 Q1709.93 26.1121 1714.91 26.1121 Q1723.17 26.1121 1728.32 32.6746 Q1733.5 39.2371 1733.5 49.9314 Q1733.5 60.6258 1728.32 67.1883 Q1723.17 73.7508 1714.91 73.7508 Q1709.93 73.7508 1706.32 71.8063 Q1702.76 69.8214 1700.41 65.7705 L1700.41 72.576 L1692.91 72.576 L1692.91 9.54393 L1700.41 9.54393 L1700.41 34.0924 Z" fill="#000000" fill-rule="nonzero" fill-opacity="1" /><path clip-path="url(#clip600)" d="M1773.2 34.9026 L1825.13 34.9026 L1825.13 41.7081 L1773.2 41.7081 L1773.2 34.9026 M1773.2 51.4303 L1825.13 51.4303 L1825.13 58.3168 L1773.2 58.3168 L1773.2 51.4303 Z" fill="#000000" fill-rule="nonzero" fill-opacity="1" /><path clip-path="url(#clip600)" d="M1870.58 65.6895 L1883.95 65.6895 L1883.95 19.5497 L1869.41 22.4663 L1869.41 15.0127 L1883.87 12.096 L1892.05 12.096 L1892.05 65.6895 L1905.42 65.6895 L1905.42 72.576 L1870.58 72.576 L1870.58 65.6895 Z" fill="#000000" fill-rule="nonzero" fill-opacity="1" /><path clip-path="url(#clip602)" d="M250.028 1423.18 L271.268 1410.05 L292.507 1396.92 L313.747 1396.92 L334.987 1383.79 L356.227 1370.67 L377.466 1370.67 L398.706 1357.54 L419.946 1357.54 L441.185 1357.54 L462.425 1357.54 L483.665 1344.41 L504.904 1344.41 L526.144 1344.41 L547.384 1344.41 L568.623 1344.41 L589.863 1331.28 L611.103 1331.28 L632.342 1331.28 L653.582 1331.28 L674.822 1331.28 L696.061 1331.28 L717.301 1331.28 L738.541 1331.28 L759.78 1331.28 L781.02 1318.15 L802.26 1318.15 L823.499 1318.15 L844.739 1318.15 L865.979 1318.15 L887.218 1318.15 L908.458 1318.15 L929.698 1318.15 L950.937 1318.15 L972.177 1318.15 L993.417 1318.15 L1014.66 1318.15 L1035.9 1318.15 L1057.14 1318.15 L1078.38 1318.15 L1099.62 1318.15 L1120.85 1318.15 L1142.09 1318.15 L1163.33 1318.15 L1184.57 1318.15 L1205.81 1318.15 L1227.05 1318.15 L1248.29 1305.02 L1269.53 1305.02 L1290.77 1305.02 L1312.01 1305.02 L1333.25 1305.02 L1354.49 1305.02 L1375.73 1305.02 L1396.97 1305.02 L1418.21 1305.02 L1439.45 1305.02 L1460.69 1305.02 L1481.93 1305.02 L1503.17 1305.02 L1524.41 1305.02 L1545.65 1305.02 L1566.89 1305.02 L1588.13 1305.02 L1609.37 1305.02 L1630.61 1305.02 L1651.85 1305.02 L1673.09 1305.02 L1694.33 1305.02 L1715.57 1305.02 L1736.81 1305.02 L1758.05 1305.02 L1779.28 1305.02 L1800.52 1305.02 L1821.76 1305.02 L1843 1305.02 L1864.24 1305.02 L1885.48 1305.02 L1906.72 1305.02 L1927.96 1305.02 L1949.2 1305.02 L1970.44 1305.02 L1991.68 1305.02 L2012.92 1305.02 L2034.16 1305.02 L2055.4 1305.02 L2076.64 1305.02 L2097.88 1305.02 L2119.12 1305.02 L2140.36 1305.02 L2161.6 1305.02 L2182.84 1305.02 L2204.08 1305.02 L2225.32 1305.02 L2246.56 1305.02 L2267.8 1305.02 L2289.04 1305.02 L2310.28 1305.02 L2331.52 1305.02 L2352.76 1305.02 L2352.76 1383.79 L2331.52 1383.79 L2310.28 1383.79 L2289.04 1383.79 L2267.8 1383.79 L2246.56 1383.79 L2225.32 1383.79 L2204.08 1383.79 L2182.84 1383.79 L2161.6 1383.79 L2140.36 1383.79 L2119.12 1383.79 L2097.88 1383.79 L2076.64 1383.79 L2055.4 1383.79 L2034.16 1383.79 L2012.92 1383.79 L1991.68 1383.79 L1970.44 1383.79 L1949.2 1383.79 L1927.96 1383.79 L1906.72 1383.79 L1885.48 1383.79 L1864.24 1383.79 L1843 1383.79 L1821.76 1383.79 L1800.52 1383.79 L1779.28 1383.79 L1758.05 1383.79 L1736.81 1383.79 L1715.57 1383.79 L1694.33 1383.79 L1673.09 1383.79 L1651.85 1383.79 L1630.61 1383.79 L1609.37 1383.79 L1588.13 1383.79 L1566.89 1383.79 L1545.65 1383.79 L1524.41 1383.79 L1503.17 1383.79 L1481.93 1383.79 L1460.69 1383.79 L1439.45 1383.79 L1418.21 1383.79 L1396.97 1383.79 L1375.73 1383.79 L1354.49 1383.79 L1333.25 1383.79 L1312.01 1383.79 L1290.77 1383.79 L1269.53 1383.79 L1248.29 1383.79 L1227.05 1383.79 L1205.81 1383.79 L1184.57 1383.79 L1163.33 1383.79 L1142.09 1383.79 L1120.85 1383.79 L1099.62 1383.79 L1078.38 1383.79 L1057.14 1383.79 L1035.9 1383.79 L1014.66 1383.79 L993.417 1383.79 L972.177 1396.92 L950.937 1396.92 L929.698 1396.92 L908.458 1396.92 L887.218 1396.92 L865.979 1396.92 L844.739 1396.92 L823.499 1396.92 L802.26 1396.92 L781.02 1396.92 L759.78 1396.92 L738.541 1396.92 L717.301 1396.92 L696.061 1396.92 L674.822 1396.92 L653.582 1396.92 L632.342 1396.92 L611.103 1396.92 L589.863 1396.92 L568.623 1396.92 L547.384 1396.92 L526.144 1410.05 L504.904 1410.05 L483.665 1410.05 L462.425 1410.05 L441.185 1410.05 L419.946 1410.05 L398.706 1410.05 L377.466 1423.18 L356.227 1423.18 L334.987 1423.18 L313.747 1423.18 L292.507 1423.18 L271.268 1423.18 L250.028 1423.18  Z" fill="#1f77b4" fill-rule="evenodd" fill-opacity="0.45"/>
<polyline clip-path="url(#clip602)" style="stroke:#1f77b4; stroke-linecap:round; stroke-linejoin:round; stroke-width:4; stroke-opacity:1; fill:none" points="250.028,1423.18 271.268,1410.05 292.507,1396.92 313.747,1396.92 334.987,1383.79 356.227,1370.67 377.466,1370.67 398.706,1357.54 419.946,1357.54 441.185,1357.54 462.425,1357.54 483.665,1344.41 504.904,1344.41 526.144,1344.41 547.384,1344.41 568.623,1344.41 589.863,1331.28 611.103,1331.28 632.342,1331.28 653.582,1331.28 674.822,1331.28 696.061,1331.28 717.301,1331.28 738.541,1331.28 759.78,1331.28 781.02,1318.15 802.26,1318.15 823.499,1318.15 844.739,1318.15 865.979,1318.15 887.218,1318.15 908.458,1318.15 929.698,1318.15 950.937,1318.15 972.177,1318.15 993.417,1318.15 1014.66,1318.15 1035.9,1318.15 1057.14,1318.15 1078.38,1318.15 1099.62,1318.15 1120.85,1318.15 1142.09,1318.15 1163.33,1318.15 1184.57,1318.15 1205.81,1318.15 1227.05,1318.15 1248.29,1305.02 1269.53,1305.02 1290.77,1305.02 1312.01,1305.02 1333.25,1305.02 1354.49,1305.02 1375.73,1305.02 1396.97,1305.02 1418.21,1305.02 1439.45,1305.02 1460.69,1305.02 1481.93,1305.02 1503.17,1305.02 1524.41,1305.02 1545.65,1305.02 1566.89,1305.02 1588.13,1305.02 1609.37,1305.02 1630.61,1305.02 1651.85,1305.02 1673.09,1305.02 1694.33,1305.02 1715.57,1305.02 1736.81,1305.02 1758.05,1305.02 1779.28,1305.02 1800.52,1305.02 1821.76,1305.02 1843,1305.02 1864.24,1305.02 1885.48,1305.02 1906.72,1305.02 1927.96,1305.02 1949.2,1305.02 1970.44,1305.02 1991.68,1305.02 2012.92,1305.02 2034.16,1305.02 2055.4,1305.02 2076.64,1305.02 2097.88,1305.02 2119.12,1305.02 2140.36,1305.02 2161.6,1305.02 2182.84,1305.02 2204.08,1305.02 2225.32,1305.02 2246.56,1305.02 2267.8,1305.02 2289.04,1305.02 2310.28,1305.02 2331.52,1305.02 2352.76,1305.02 "/>
<path clip-path="url(#clip602)" d="M250.028 1396.92 L271.268 1370.67 L292.507 1357.54 L313.747 1331.28 L334.987 1318.15 L356.227 1305.02 L377.466 1291.9 L398.706 1291.9 L419.946 1278.77 L441.185 1265.64 L462.425 1265.64 L483.665 1252.51 L504.904 1252.51 L526.144 1252.51 L547.384 1239.38 L568.623 1239.38 L589.863 1239.38 L611.103 1239.38 L632.342 1226.25 L653.582 1226.25 L674.822 1226.25 L696.061 1226.25 L717.301 1226.25 L738.541 1226.25 L759.78 1213.13 L781.02 1213.13 L802.26 1213.13 L823.499 1213.13 L844.739 1213.13 L865.979 1213.13 L887.218 1213.13 L908.458 1213.13 L929.698 1213.13 L950.937 1200 L972.177 1200 L993.417 1200 L1014.66 1200 L1035.9 1200 L1057.14 1200 L1078.38 1200 L1099.62 1200 L1120.85 1200 L1142.09 1200 L1163.33 1200 L1184.57 1200 L1205.81 1200 L1227.05 1200 L1248.29 1200 L1269.53 1200 L1290.77 1200 L1312.01 1186.87 L1333.25 1186.87 L1354.49 1186.87 L1375.73 1186.87 L1396.97 1186.87 L1418.21 1186.87 L1439.45 1186.87 L1460.69 1186.87 L1481.93 1186.87 L1503.17 1186.87 L1524.41 1186.87 L1545.65 1186.87 L1566.89 1186.87 L1588.13 1186.87 L1609.37 1186.87 L1630.61 1186.87 L1651.85 1186.87 L1673.09 1186.87 L1694.33 1186.87 L1715.57 1186.87 L1736.81 1186.87 L1758.05 1186.87 L1779.28 1186.87 L1800.52 1186.87 L1821.76 1186.87 L1843 1186.87 L1864.24 1186.87 L1885.48 1186.87 L1906.72 1186.87 L1927.96 1186.87 L1949.2 1186.87 L1970.44 1186.87 L1991.68 1186.87 L2012.92 1186.87 L2034.16 1186.87 L2055.4 1186.87 L2076.64 1186.87 L2097.88 1186.87 L2119.12 1186.87 L2140.36 1186.87 L2161.6 1186.87 L2182.84 1186.87 L2204.08 1186.87 L2225.32 1173.74 L2246.56 1173.74 L2267.8 1173.74 L2289.04 1173.74 L2310.28 1173.74 L2331.52 1173.74 L2352.76 1173.74 L2352.76 1305.02 L2331.52 1305.02 L2310.28 1305.02 L2289.04 1305.02 L2267.8 1305.02 L2246.56 1305.02 L2225.32 1305.02 L2204.08 1305.02 L2182.84 1305.02 L2161.6 1305.02 L2140.36 1305.02 L2119.12 1305.02 L2097.88 1318.15 L2076.64 1318.15 L2055.4 1318.15 L2034.16 1318.15 L2012.92 1318.15 L1991.68 1318.15 L1970.44 1318.15 L1949.2 1318.15 L1927.96 1318.15 L1906.72 1318.15 L1885.48 1318.15 L1864.24 1318.15 L1843 1318.15 L1821.76 1318.15 L1800.52 1318.15 L1779.28 1318.15 L1758.05 1318.15 L1736.81 1318.15 L1715.57 1318.15 L1694.33 1318.15 L1673.09 1318.15 L1651.85 1318.15 L1630.61 1318.15 L1609.37 1318.15 L1588.13 1318.15 L1566.89 1318.15 L1545.65 1318.15 L1524.41 1318.15 L1503.17 1318.15 L1481.93 1318.15 L1460.69 1318.15 L1439.45 1318.15 L1418.21 1318.15 L1396.97 1318.15 L1375.73 1318.15 L1354.49 1318.15 L1333.25 1318.15 L1312.01 1318.15 L1290.77 1318.15 L1269.53 1318.15 L1248.29 1318.15 L1227.05 1318.15 L1205.81 1318.15 L1184.57 1318.15 L1163.33 1318.15 L1142.09 1318.15 L1120.85 1318.15 L1099.62 1318.15 L1078.38 1318.15 L1057.14 1318.15 L1035.9 1331.28 L1014.66 1331.28 L993.417 1331.28 L972.177 1331.28 L950.937 1331.28 L929.698 1331.28 L908.458 1331.28 L887.218 1331.28 L865.979 1331.28 L844.739 1331.28 L823.499 1331.28 L802.26 1331.28 L781.02 1331.28 L759.78 1331.28 L738.541 1331.28 L717.301 1344.41 L696.061 1344.41 L674.822 1344.41 L653.582 1344.41 L632.342 1344.41 L611.103 1344.41 L589.863 1344.41 L568.623 1344.41 L547.384 1357.54 L526.144 1357.54 L504.904 1357.54 L483.665 1357.54 L462.425 1357.54 L441.185 1370.67 L419.946 1370.67 L398.706 1370.67 L377.466 1383.79 L356.227 1383.79 L334.987 1396.92 L313.747 1396.92 L292.507 1410.05 L271.268 1423.18 L250.028 1423.18  Z" fill="#ff7e0d" fill-rule="evenodd" fill-opacity="0.45"/>
<polyline clip-path="url(#clip602)" style="stroke:#ff7e0d; stroke-linecap:round; stroke-linejoin:round; stroke-width:4; stroke-opacity:1; fill:none" points="250.028,1396.92 271.268,1370.67 292.507,1357.54 313.747,1331.28 334.987,1318.15 356.227,1305.02 377.466,1291.9 398.706,1291.9 419.946,1278.77 441.185,1265.64 462.425,1265.64 483.665,1252.51 504.904,1252.51 526.144,1252.51 547.384,1239.38 568.623,1239.38 589.863,1239.38 611.103,1239.38 632.342,1226.25 653.582,1226.25 674.822,1226.25 696.061,1226.25 717.301,1226.25 738.541,1226.25 759.78,1213.13 781.02,1213.13 802.26,1213.13 823.499,1213.13 844.739,1213.13 865.979,1213.13 887.218,1213.13 908.458,1213.13 929.698,1213.13 950.937,1200 972.177,1200 993.417,1200 1014.66,1200 1035.9,1200 1057.14,1200 1078.38,1200 1099.62,1200 1120.85,1200 1142.09,1200 1163.33,1200 1184.57,1200 1205.81,1200 1227.05,1200 1248.29,1200 1269.53,1200 1290.77,1200 1312.01,1186.87 1333.25,1186.87 1354.49,1186.87 1375.73,1186.87 1396.97,1186.87 1418.21,1186.87 1439.45,1186.87 1460.69,1186.87 1481.93,1186.87 1503.17,1186.87 1524.41,1186.87 1545.65,1186.87 1566.89,1186.87 1588.13,1186.87 1609.37,1186.87 1630.61,1186.87 1651.85,1186.87 1673.09,1186.87 1694.33,1186.87 1715.57,1186.87 1736.81,1186.87 1758.05,1186.87 1779.28,1186.87 1800.52,1186.87 1821.76,1186.87 1843,1186.87 1864.24,1186.87 1885.48,1186.87 1906.72,1186.87 1927.96,1186.87 1949.2,1186.87 1970.44,1186.87 1991.68,1186.87 2012.92,1186.87 2034.16,1186.87 2055.4,1186.87 2076.64,1186.87 2097.88,1186.87 2119.12,1186.87 2140.36,1186.87 2161.6,1186.87 2182.84,1186.87 2204.08,1186.87 2225.32,1173.74 2246.56,1173.74 2267.8,1173.74 2289.04,1173.74 2310.28,1173.74 2331.52,1173.74 2352.76,1173.74 "/>
<path clip-path="url(#clip602)" d="M250.028 1357.54 L271.268 1305.02 L292.507 1265.64 L313.747 1239.38 L334.987 1213.13 L356.227 1186.87 L377.466 1160.61 L398.706 1147.48 L419.946 1134.36 L441.185 1121.23 L462.425 1108.1 L483.665 1108.1 L504.904 1094.97 L526.144 1081.84 L547.384 1081.84 L568.623 1068.71 L589.863 1068.71 L611.103 1055.59 L632.342 1055.59 L653.582 1055.59 L674.822 1042.46 L696.061 1042.46 L717.301 1042.46 L738.541 1042.46 L759.78 1029.33 L781.02 1029.33 L802.26 1029.33 L823.499 1029.33 L844.739 1016.2 L865.979 1016.2 L887.218 1016.2 L908.458 1016.2 L929.698 1016.2 L950.937 1016.2 L972.177 1003.07 L993.417 1003.07 L1014.66 1003.07 L1035.9 1003.07 L1057.14 1003.07 L1078.38 1003.07 L1099.62 1003.07 L1120.85 1003.07 L1142.09 1003.07 L1163.33 989.944 L1184.57 989.944 L1205.81 989.944 L1227.05 989.944 L1248.29 989.944 L1269.53 989.944 L1290.77 989.944 L1312.01 989.944 L1333.25 989.944 L1354.49 989.944 L1375.73 989.944 L1396.97 989.944 L1418.21 989.944 L1439.45 989.944 L1460.69 976.816 L1481.93 976.816 L1503.17 976.816 L1524.41 976.816 L1545.65 976.816 L1566.89 976.816 L1588.13 976.816 L1609.37 976.816 L1630.61 976.816 L1651.85 976.816 L1673.09 976.816 L1694.33 976.816 L1715.57 976.816 L1736.81 976.816 L1758.05 976.816 L1779.28 976.816 L1800.52 976.816 L1821.76 976.816 L1843 976.816 L1864.24 976.816 L1885.48 976.816 L1906.72 976.816 L1927.96 976.816 L1949.2 976.816 L1970.44 963.687 L1991.68 963.687 L2012.92 963.687 L2034.16 963.687 L2055.4 963.687 L2076.64 963.687 L2097.88 963.687 L2119.12 963.687 L2140.36 963.687 L2161.6 963.687 L2182.84 963.687 L2204.08 963.687 L2225.32 963.687 L2246.56 963.687 L2267.8 963.687 L2289.04 963.687 L2310.28 963.687 L2331.52 963.687 L2352.76 963.687 L2352.76 1160.61 L2331.52 1160.61 L2310.28 1160.61 L2289.04 1160.61 L2267.8 1160.61 L2246.56 1160.61 L2225.32 1160.61 L2204.08 1160.61 L2182.84 1160.61 L2161.6 1173.74 L2140.36 1173.74 L2119.12 1173.74 L2097.88 1173.74 L2076.64 1173.74 L2055.4 1173.74 L2034.16 1173.74 L2012.92 1173.74 L1991.68 1173.74 L1970.44 1173.74 L1949.2 1173.74 L1927.96 1173.74 L1906.72 1173.74 L1885.48 1173.74 L1864.24 1173.74 L1843 1173.74 L1821.76 1173.74 L1800.52 1173.74 L1779.28 1173.74 L1758.05 1173.74 L1736.81 1173.74 L1715.57 1173.74 L1694.33 1173.74 L1673.09 1173.74 L1651.85 1173.74 L1630.61 1173.74 L1609.37 1173.74 L1588.13 1173.74 L1566.89 1173.74 L1545.65 1173.74 L1524.41 1173.74 L1503.17 1173.74 L1481.93 1173.74 L1460.69 1173.74 L1439.45 1173.74 L1418.21 1173.74 L1396.97 1186.87 L1375.73 1186.87 L1354.49 1186.87 L1333.25 1186.87 L1312.01 1186.87 L1290.77 1186.87 L1269.53 1186.87 L1248.29 1186.87 L1227.05 1186.87 L1205.81 1186.87 L1184.57 1186.87 L1163.33 1186.87 L1142.09 1186.87 L1120.85 1186.87 L1099.62 1186.87 L1078.38 1186.87 L1057.14 1186.87 L1035.9 1200 L1014.66 1200 L993.417 1200 L972.177 1200 L950.937 1200 L929.698 1200 L908.458 1200 L887.218 1200 L865.979 1200 L844.739 1213.13 L823.499 1213.13 L802.26 1213.13 L781.02 1213.13 L759.78 1213.13 L738.541 1213.13 L717.301 1226.25 L696.061 1226.25 L674.822 1226.25 L653.582 1226.25 L632.342 1226.25 L611.103 1239.38 L589.863 1239.38 L568.623 1239.38 L547.384 1252.51 L526.144 1252.51 L504.904 1252.51 L483.665 1265.64 L462.425 1265.64 L441.185 1278.77 L419.946 1291.9 L398.706 1291.9 L377.466 1305.02 L356.227 1318.15 L334.987 1331.28 L313.747 1344.41 L292.507 1370.67 L271.268 1383.79 L250.028 1410.05  Z" fill="#2ba02b" fill-rule="evenodd" fill-opacity="0.45"/>
<polyline clip-path="url(#clip602)" style="stroke:#2ba02b; stroke-linecap:round; stroke-linejoin:round; stroke-width:4; stroke-opacity:1; fill:none" points="250.028,1357.54 271.268,1305.02 292.507,1265.64 313.747,1239.38 334.987,1213.13 356.227,1186.87 377.466,1160.61 398.706,1147.48 419.946,1134.36 441.185,1121.23 462.425,1108.1 483.665,1108.1 504.904,1094.97 526.144,1081.84 547.384,1081.84 568.623,1068.71 589.863,1068.71 611.103,1055.59 632.342,1055.59 653.582,1055.59 674.822,1042.46 696.061,1042.46 717.301,1042.46 738.541,1042.46 759.78,1029.33 781.02,1029.33 802.26,1029.33 823.499,1029.33 844.739,1016.2 865.979,1016.2 887.218,1016.2 908.458,1016.2 929.698,1016.2 950.937,1016.2 972.177,1003.07 993.417,1003.07 1014.66,1003.07 1035.9,1003.07 1057.14,1003.07 1078.38,1003.07 1099.62,1003.07 1120.85,1003.07 1142.09,1003.07 1163.33,989.944 1184.57,989.944 1205.81,989.944 1227.05,989.944 1248.29,989.944 1269.53,989.944 1290.77,989.944 1312.01,989.944 1333.25,989.944 1354.49,989.944 1375.73,989.944 1396.97,989.944 1418.21,989.944 1439.45,989.944 1460.69,976.816 1481.93,976.816 1503.17,976.816 1524.41,976.816 1545.65,976.816 1566.89,976.816 1588.13,976.816 1609.37,976.816 1630.61,976.816 1651.85,976.816 1673.09,976.816 1694.33,976.816 1715.57,976.816 1736.81,976.816 1758.05,976.816 1779.28,976.816 1800.52,976.816 1821.76,976.816 1843,976.816 1864.24,976.816 1885.48,976.816 1906.72,976.816 1927.96,976.816 1949.2,976.816 1970.44,963.687 1991.68,963.687 2012.92,963.687 2034.16,963.687 2055.4,963.687 2076.64,963.687 2097.88,963.687 2119.12,963.687 2140.36,963.687 2161.6,963.687 2182.84,963.687 2204.08,963.687 2225.32,963.687 2246.56,963.687 2267.8,963.687 2289.04,963.687 2310.28,963.687 2331.52,963.687 2352.76,963.687 "/>
<path clip-path="url(#clip602)" d="M250.028 1265.64 L271.268 1186.87 L292.507 1121.23 L313.747 1055.59 L334.987 1016.2 L356.227 976.816 L377.466 937.43 L398.706 911.174 L419.946 884.917 L441.185 871.789 L462.425 845.532 L483.665 832.404 L504.904 819.275 L526.144 806.147 L547.384 793.019 L568.623 779.89 L589.863 766.762 L611.103 766.762 L632.342 753.633 L653.582 740.505 L674.822 740.505 L696.061 727.377 L717.301 727.377 L738.541 714.248 L759.78 714.248 L781.02 701.12 L802.26 701.12 L823.499 701.12 L844.739 687.992 L865.979 687.992 L887.218 687.992 L908.458 674.863 L929.698 674.863 L950.937 674.863 L972.177 674.863 L993.417 661.735 L1014.66 661.735 L1035.9 661.735 L1057.14 661.735 L1078.38 661.735 L1099.62 648.607 L1120.85 648.607 L1142.09 648.607 L1163.33 648.607 L1184.57 648.607 L1205.81 648.607 L1227.05 648.607 L1248.29 635.478 L1269.53 635.478 L1290.77 635.478 L1312.01 635.478 L1333.25 635.478 L1354.49 635.478 L1375.73 635.478 L1396.97 635.478 L1418.21 622.35 L1439.45 622.35 L1460.69 622.35 L1481.93 622.35 L1503.17 622.35 L1524.41 622.35 L1545.65 622.35 L1566.89 622.35 L1588.13 622.35 L1609.37 622.35 L1630.61 622.35 L1651.85 622.35 L1673.09 609.221 L1694.33 609.221 L1715.57 609.221 L1736.81 609.221 L1758.05 609.221 L1779.28 609.221 L1800.52 609.221 L1821.76 609.221 L1843 609.221 L1864.24 609.221 L1885.48 609.221 L1906.72 609.221 L1927.96 609.221 L1949.2 609.221 L1970.44 609.221 L1991.68 609.221 L2012.92 596.093 L2034.16 596.093 L2055.4 596.093 L2076.64 596.093 L2097.88 596.093 L2119.12 596.093 L2140.36 596.093 L2161.6 596.093 L2182.84 596.093 L2204.08 596.093 L2225.32 596.093 L2246.56 596.093 L2267.8 596.093 L2289.04 596.093 L2310.28 596.093 L2331.52 596.093 L2352.76 596.093 L2352.76 871.789 L2331.52 871.789 L2310.28 871.789 L2289.04 871.789 L2267.8 871.789 L2246.56 871.789 L2225.32 871.789 L2204.08 871.789 L2182.84 884.917 L2161.6 884.917 L2140.36 884.917 L2119.12 884.917 L2097.88 884.917 L2076.64 884.917 L2055.4 884.917 L2034.16 884.917 L2012.92 884.917 L1991.68 884.917 L1970.44 884.917 L1949.2 884.917 L1927.96 884.917 L1906.72 884.917 L1885.48 884.917 L1864.24 884.917 L1843 884.917 L1821.76 884.917 L1800.52 884.917 L1779.28 884.917 L1758.05 884.917 L1736.81 884.917 L1715.57 884.917 L1694.33 898.045 L1673.09 898.045 L1651.85 898.045 L1630.61 898.045 L1609.37 898.045 L1588.13 898.045 L1566.89 898.045 L1545.65 898.045 L1524.41 898.045 L1503.17 898.045 L1481.93 898.045 L1460.69 898.045 L1439.45 898.045 L1418.21 898.045 L1396.97 911.174 L1375.73 911.174 L1354.49 911.174 L1333.25 911.174 L1312.01 911.174 L1290.77 911.174 L1269.53 911.174 L1248.29 911.174 L1227.05 911.174 L1205.81 911.174 L1184.57 924.302 L1163.33 924.302 L1142.09 924.302 L1120.85 924.302 L1099.62 924.302 L1078.38 924.302 L1057.14 924.302 L1035.9 937.43 L1014.66 937.43 L993.417 937.43 L972.177 937.43 L950.937 937.43 L929.698 950.559 L908.458 950.559 L887.218 950.559 L865.979 950.559 L844.739 963.687 L823.499 963.687 L802.26 963.687 L781.02 963.687 L759.78 976.816 L738.541 976.816 L717.301 976.816 L696.061 989.944 L674.822 989.944 L653.582 1003.07 L632.342 1003.07 L611.103 1016.2 L589.863 1016.2 L568.623 1029.33 L547.384 1042.46 L526.144 1042.46 L504.904 1055.59 L483.665 1068.71 L462.425 1081.84 L441.185 1094.97 L419.946 1108.1 L398.706 1134.36 L377.466 1147.48 L356.227 1173.74 L334.987 1200 L313.747 1239.38 L292.507 1278.77 L271.268 1318.15 L250.028 1370.67  Z" fill="#d52628" fill-rule="evenodd" fill-opacity="0.45"/>
<polyline clip-path="url(#clip602)" style="stroke:#d52628; stroke-linecap:round; stroke-linejoin:round; stroke-width:4; stroke-opacity:1; fill:none" points="250.028,1265.64 271.268,1186.87 292.507,1121.23 313.747,1055.59 334.987,1016.2 356.227,976.816 377.466,937.43 398.706,911.174 419.946,884.917 441.185,871.789 462.425,845.532 483.665,832.404 504.904,819.275 526.144,806.147 547.384,793.019 568.623,779.89 589.863,766.762 611.103,766.762 632.342,753.633 653.582,740.505 674.822,740.505 696.061,727.377 717.301,727.377 738.541,714.248 759.78,714.248 781.02,701.12 802.26,701.12 823.499,701.12 844.739,687.992 865.979,687.992 887.218,687.992 908.458,674.863 929.698,674.863 950.937,674.863 972.177,674.863 993.417,661.735 1014.66,661.735 1035.9,661.735 1057.14,661.735 1078.38,661.735 1099.62,648.607 1120.85,648.607 1142.09,648.607 1163.33,648.607 1184.57,648.607 1205.81,648.607 1227.05,648.607 1248.29,635.478 1269.53,635.478 1290.77,635.478 1312.01,635.478 1333.25,635.478 1354.49,635.478 1375.73,635.478 1396.97,635.478 1418.21,622.35 1439.45,622.35 1460.69,622.35 1481.93,622.35 1503.17,622.35 1524.41,622.35 1545.65,622.35 1566.89,622.35 1588.13,622.35 1609.37,622.35 1630.61,622.35 1651.85,622.35 1673.09,609.221 1694.33,609.221 1715.57,609.221 1736.81,609.221 1758.05,609.221 1779.28,609.221 1800.52,609.221 1821.76,609.221 1843,609.221 1864.24,609.221 1885.48,609.221 1906.72,609.221 1927.96,609.221 1949.2,609.221 1970.44,609.221 1991.68,609.221 2012.92,596.093 2034.16,596.093 2055.4,596.093 2076.64,596.093 2097.88,596.093 2119.12,596.093 2140.36,596.093 2161.6,596.093 2182.84,596.093 2204.08,596.093 2225.32,596.093 2246.56,596.093 2267.8,596.093 2289.04,596.093 2310.28,596.093 2331.52,596.093 2352.76,596.093 "/>
<path clip-path="url(#clip602)" d="M250.028 1121.23 L271.268 976.816 L292.507 858.66 L313.747 766.762 L334.987 674.863 L356.227 609.221 L377.466 556.708 L398.706 504.195 L419.946 464.81 L441.185 425.424 L462.425 399.168 L483.665 372.911 L504.904 346.654 L526.144 320.398 L547.384 294.141 L568.623 281.012 L589.863 267.884 L611.103 241.627 L632.342 228.499 L653.582 215.371 L674.822 202.242 L696.061 189.114 L717.301 189.114 L738.541 175.986 L759.78 162.857 L781.02 149.729 L802.26 149.729 L823.499 136.6 L844.739 136.6 L865.979 123.472 L887.218 123.472 L908.458 123.472 L929.698 123.472 L950.937 123.472 L972.177 123.472 L993.417 123.472 L1014.66 123.472 L1035.9 123.472 L1057.14 123.472 L1078.38 123.472 L1099.62 123.472 L1120.85 123.472 L1142.09 123.472 L1163.33 123.472 L1184.57 123.472 L1205.81 123.472 L1227.05 123.472 L1248.29 123.472 L1269.53 123.472 L1290.77 123.472 L1312.01 123.472 L1333.25 123.472 L1354.49 123.472 L1375.73 123.472 L1396.97 123.472 L1418.21 123.472 L1439.45 123.472 L1460.69 123.472 L1481.93 123.472 L1503.17 123.472 L1524.41 123.472 L1545.65 123.472 L1566.89 123.472 L1588.13 123.472 L1609.37 123.472 L1630.61 123.472 L1651.85 123.472 L1673.09 123.472 L1694.33 123.472 L1715.57 123.472 L1736.81 123.472 L1758.05 123.472 L1779.28 123.472 L1800.52 123.472 L1821.76 123.472 L1843 123.472 L1864.24 123.472 L1885.48 123.472 L1906.72 123.472 L1927.96 123.472 L1949.2 123.472 L1970.44 123.472 L1991.68 123.472 L2012.92 123.472 L2034.16 123.472 L2055.4 123.472 L2076.64 123.472 L2097.88 123.472 L2119.12 123.472 L2140.36 123.472 L2161.6 123.472 L2182.84 123.472 L2204.08 123.472 L2225.32 123.472 L2246.56 123.472 L2267.8 123.472 L2289.04 123.472 L2310.28 123.472 L2331.52 123.472 L2352.76 123.472 L2352.76 307.269 L2331.52 307.269 L2310.28 307.269 L2289.04 307.269 L2267.8 307.269 L2246.56 307.269 L2225.32 307.269 L2204.08 307.269 L2182.84 307.269 L2161.6 320.398 L2140.36 320.398 L2119.12 320.398 L2097.88 320.398 L2076.64 320.398 L2055.4 320.398 L2034.16 320.398 L2012.92 320.398 L1991.68 320.398 L1970.44 320.398 L1949.2 320.398 L1927.96 320.398 L1906.72 320.398 L1885.48 333.526 L1864.24 333.526 L1843 333.526 L1821.76 333.526 L1800.52 333.526 L1779.28 333.526 L1758.05 333.526 L1736.81 333.526 L1715.57 333.526 L1694.33 333.526 L1673.09 346.654 L1651.85 346.654 L1630.61 346.654 L1609.37 346.654 L1588.13 346.654 L1566.89 346.654 L1545.65 346.654 L1524.41 346.654 L1503.17 359.783 L1481.93 359.783 L1460.69 359.783 L1439.45 359.783 L1418.21 359.783 L1396.97 359.783 L1375.73 372.911 L1354.49 372.911 L1333.25 372.911 L1312.01 372.911 L1290.77 372.911 L1269.53 386.039 L1248.29 386.039 L1227.05 386.039 L1205.81 386.039 L1184.57 386.039 L1163.33 399.168 L1142.09 399.168 L1120.85 399.168 L1099.62 399.168 L1078.38 412.296 L1057.14 412.296 L1035.9 412.296 L1014.66 425.424 L993.417 425.424 L972.177 425.424 L950.937 438.553 L929.698 438.553 L908.458 451.681 L887.218 451.681 L865.979 464.81 L844.739 464.81 L823.499 477.938 L802.26 477.938 L781.02 491.066 L759.78 491.066 L738.541 504.195 L717.301 517.323 L696.061 530.451 L674.822 530.451 L653.582 543.58 L632.342 556.708 L611.103 569.836 L589.863 582.965 L568.623 609.221 L547.384 622.35 L526.144 635.478 L504.904 661.735 L483.665 687.992 L462.425 714.248 L441.185 740.505 L419.946 766.762 L398.706 806.147 L377.466 845.532 L356.227 898.045 L334.987 950.559 L313.747 1016.2 L292.507 1094.97 L271.268 1173.74 L250.028 1278.77  Z" fill="#9466bd" fill-rule="evenodd" fill-opacity="0.45"/>
<polyline clip-path="url(#clip602)" style="stroke:#9466bd; stroke-linecap:round; stroke-linejoin:round; stroke-width:4; stroke-opacity:1; fill:none" points="250.028,1121.23 271.268,976.816 292.507,858.66 313.747,766.762 334.987,674.863 356.227,609.221 377.466,556.708 398.706,504.195 419.946,464.81 441.185,425.424 462.425,399.168 483.665,372.911 504.904,346.654 526.144,320.398 547.384,294.141 568.623,281.012 589.863,267.884 611.103,241.627 632.342,228.499 653.582,215.371 674.822,202.242 696.061,189.114 717.301,189.114 738.541,175.986 759.78,162.857 781.02,149.729 802.26,149.729 823.499,136.6 844.739,136.6 865.979,123.472 887.218,123.472 908.458,123.472 929.698,123.472 950.937,123.472 972.177,123.472 993.417,123.472 1014.66,123.472 1035.9,123.472 1057.14,123.472 1078.38,123.472 1099.62,123.472 1120.85,123.472 1142.09,123.472 1163.33,123.472 1184.57,123.472 1205.81,123.472 1227.05,123.472 1248.29,123.472 1269.53,123.472 1290.77,123.472 1312.01,123.472 1333.25,123.472 1354.49,123.472 1375.73,123.472 1396.97,123.472 1418.21,123.472 1439.45,123.472 1460.69,123.472 1481.93,123.472 1503.17,123.472 1524.41,123.472 1545.65,123.472 1566.89,123.472 1588.13,123.472 1609.37,123.472 1630.61,123.472 1651.85,123.472 1673.09,123.472 1694.33,123.472 1715.57,123.472 1736.81,123.472 1758.05,123.472 1779.28,123.472 1800.52,123.472 1821.76,123.472 1843,123.472 1864.24,123.472 1885.48,123.472 1906.72,123.472 1927.96,123.472 1949.2,123.472 1970.44,123.472 1991.68,123.472 2012.92,123.472 2034.16,123.472 2055.4,123.472 2076.64,123.472 2097.88,123.472 2119.12,123.472 2140.36,123.472 2161.6,123.472 2182.84,123.472 2204.08,123.472 2225.32,123.472 2246.56,123.472 2267.8,123.472 2289.04,123.472 2310.28,123.472 2331.52,123.472 2352.76,123.472 "/>
<polyline clip-path="url(#clip602)" style="stroke:#000000; stroke-linecap:round; stroke-linejoin:round; stroke-width:4; stroke-opacity:1; fill:none" points="512.716,1387.94 1045.59,1274.47 1539.88,1165.68 1917.56,1068.91 2156.26,990.769 2264.12,936.382 2281.33,908.82 2281.39,908.724 1870.13,934.239 1435.4,981.255 1175.99,1043.94 970.557,1115.46 813.284,1177.97 647.821,1247.93 511.571,1309.14 406.361,1358.21 333.732,1393.71 288.004,1416.13 265.508,1427.52 258.769,1430.96 260.83,1429.91 265.34,1427.61 267.362,1426.58 263.988,1428.3 254.528,1433.12 240.267,1440.4 224.062,1448.75 209.2,1456.46 210.206,1455.93 227.16,1447.15 247.275,1436.83 267.437,1426.54 284.714,1417.79 296.838,1411.74 302.363,1409.04 300.907,1409.75 293.434,1413.4 282.065,1419.13 268.8,1425.84 255.773,1432.49 244.577,1438.2 236.285,1442.45 231.201,1445.07 228.875,1446.27 228.41,1446.51 228.663,1446.38 228.533,1446.44 227.203,1447.13 224.304,1448.62 219.986,1450.86 214.833,1453.53 209.714,1456.19 209.2,1456.46 209.744,1456.17 214.893,1453.5 219.74,1450.98 222.86,1449.37 222.874,1449.36 218.655,1451.55 209.499,1456.3 209.2,1456.46 "/>
<path clip-path="url(#clip600)" d="M320.119 477.836 L839.58 477.836 L839.58 166.796 L320.119 166.796  Z" fill="#ffffff" fill-rule="evenodd" fill-opacity="1"/>
<polyline clip-path="url(#clip600)" style="stroke:#000000; stroke-linecap:round; stroke-linejoin:round; stroke-width:4; stroke-opacity:1; fill:none" points="320.119,477.836 839.58,477.836 839.58,166.796 320.119,166.796 320.119,477.836 "/>
<path clip-path="url(#clip600)" d="M343.483 239.372 L483.665 239.372 L483.665 197.9 L343.483 197.9 L343.483 239.372  Z" fill="#1f77b4" fill-rule="evenodd" fill-opacity="0.45"/>
<polyline clip-path="url(#clip600)" style="stroke:#1f77b4; stroke-linecap:round; stroke-linejoin:round; stroke-width:4; stroke-opacity:1; fill:none" points="343.483,197.9 483.665,197.9 "/>
<path clip-path="url(#clip600)" d="M507.699 231.981 L515.338 231.981 L515.338 205.615 L507.028 207.282 L507.028 203.022 L515.292 201.356 L519.968 201.356 L519.968 231.981 L527.607 231.981 L527.607 235.916 L507.699 235.916 L507.699 231.981 Z" fill="#000000" fill-rule="nonzero" fill-opacity="1" /><path clip-path="url(#clip600)" d="M558.625 221.888 L558.625 223.971 L539.042 223.971 Q539.32 228.369 541.681 230.684 Q544.065 232.976 548.301 232.976 Q550.755 232.976 553.046 232.374 Q555.361 231.772 557.63 230.569 L557.63 234.596 Q555.338 235.568 552.931 236.078 Q550.523 236.587 548.047 236.587 Q541.843 236.587 538.209 232.976 Q534.597 229.365 534.597 223.207 Q534.597 216.842 538.023 213.115 Q541.472 209.365 547.306 209.365 Q552.537 209.365 555.57 212.745 Q558.625 216.101 558.625 221.888 M554.366 220.638 Q554.32 217.143 552.398 215.059 Q550.5 212.976 547.352 212.976 Q543.787 212.976 541.634 214.99 Q539.505 217.004 539.181 220.661 L554.366 220.638 Z" fill="#000000" fill-rule="nonzero" fill-opacity="1" /><path clip-path="url(#clip600)" d="M563.463 221.032 L575.94 221.032 L575.94 224.828 L563.463 224.828 L563.463 221.032 Z" fill="#000000" fill-rule="nonzero" fill-opacity="1" /><path clip-path="url(#clip600)" d="M593.324 204.434 Q589.713 204.434 587.884 207.999 Q586.079 211.541 586.079 218.67 Q586.079 225.777 587.884 229.342 Q589.713 232.883 593.324 232.883 Q596.958 232.883 598.764 229.342 Q600.593 225.777 600.593 218.67 Q600.593 211.541 598.764 207.999 Q596.958 204.434 593.324 204.434 M593.324 200.731 Q599.134 200.731 602.19 205.337 Q605.268 209.92 605.268 218.67 Q605.268 227.397 602.19 232.004 Q599.134 236.587 593.324 236.587 Q587.514 236.587 584.435 232.004 Q581.38 227.397 581.38 218.67 Q581.38 209.92 584.435 205.337 Q587.514 200.731 593.324 200.731 Z" fill="#000000" fill-rule="nonzero" fill-opacity="1" /><path clip-path="url(#clip600)" d="M612.305 201.356 L634.528 201.356 L634.528 203.346 L621.981 235.916 L617.097 235.916 L628.903 205.291 L612.305 205.291 L612.305 201.356 Z" fill="#000000" fill-rule="nonzero" fill-opacity="1" /><path clip-path="url(#clip600)" d="M343.483 291.212 L483.665 291.212 L483.665 249.74 L343.483 249.74 L343.483 291.212  Z" fill="#ff7e0d" fill-rule="evenodd" fill-opacity="0.45"/>
<polyline clip-path="url(#clip600)" style="stroke:#ff7e0d; stroke-linecap:round; stroke-linejoin:round; stroke-width:4; stroke-opacity:1; fill:none" points="343.483,249.74 483.665,249.74 "/>
<path clip-path="url(#clip600)" d="M507.699 283.821 L515.338 283.821 L515.338 257.455 L507.028 259.122 L507.028 254.862 L515.292 253.196 L519.968 253.196 L519.968 283.821 L527.607 283.821 L527.607 287.756 L507.699 287.756 L507.699 283.821 Z" fill="#000000" fill-rule="nonzero" fill-opacity="1" /><path clip-path="url(#clip600)" d="M537.051 281.876 L541.935 281.876 L541.935 287.756 L537.051 287.756 L537.051 281.876 Z" fill="#000000" fill-rule="nonzero" fill-opacity="1" /><path clip-path="url(#clip600)" d="M550.94 253.196 L573.162 253.196 L573.162 255.186 L560.616 287.756 L555.732 287.756 L567.537 257.131 L550.94 257.131 L550.94 253.196 Z" fill="#000000" fill-rule="nonzero" fill-opacity="1" /><path clip-path="url(#clip600)" d="M581.102 253.196 L603.324 253.196 L603.324 255.186 L590.778 287.756 L585.894 287.756 L597.699 257.131 L581.102 257.131 L581.102 253.196 Z" fill="#000000" fill-rule="nonzero" fill-opacity="1" /><path clip-path="url(#clip600)" d="M622.444 271.344 Q619.111 271.344 617.19 273.126 Q615.292 274.909 615.292 278.034 Q615.292 281.159 617.19 282.941 Q619.111 284.723 622.444 284.723 Q625.778 284.723 627.699 282.941 Q629.62 281.135 629.62 278.034 Q629.62 274.909 627.699 273.126 Q625.801 271.344 622.444 271.344 M617.768 269.353 Q614.759 268.612 613.069 266.552 Q611.403 264.492 611.403 261.529 Q611.403 257.386 614.342 254.978 Q617.305 252.571 622.444 252.571 Q627.606 252.571 630.546 254.978 Q633.486 257.386 633.486 261.529 Q633.486 264.492 631.796 266.552 Q630.129 268.612 627.143 269.353 Q630.523 270.14 632.398 272.432 Q634.296 274.723 634.296 278.034 Q634.296 283.057 631.217 285.742 Q628.162 288.427 622.444 288.427 Q616.727 288.427 613.648 285.742 Q610.592 283.057 610.592 278.034 Q610.592 274.723 612.491 272.432 Q614.389 270.14 617.768 269.353 M616.055 261.969 Q616.055 264.654 617.722 266.159 Q619.412 267.663 622.444 267.663 Q625.453 267.663 627.143 266.159 Q628.856 264.654 628.856 261.969 Q628.856 259.284 627.143 257.779 Q625.453 256.274 622.444 256.274 Q619.412 256.274 617.722 257.779 Q616.055 259.284 616.055 261.969 Z" fill="#000000" fill-rule="nonzero" fill-opacity="1" /><path clip-path="url(#clip600)" d="M646.634 283.821 L662.953 283.821 L662.953 287.756 L641.009 287.756 L641.009 283.821 Q643.671 281.066 648.254 276.436 Q652.861 271.784 654.041 270.441 Q656.287 267.918 657.166 266.182 Q658.069 264.423 658.069 262.733 Q658.069 259.978 656.125 258.242 Q654.203 256.506 651.102 256.506 Q648.902 256.506 646.449 257.27 Q644.018 258.034 641.24 259.585 L641.24 254.862 Q644.065 253.728 646.518 253.149 Q648.972 252.571 651.009 252.571 Q656.379 252.571 659.574 255.256 Q662.768 257.941 662.768 262.432 Q662.768 264.561 661.958 266.483 Q661.171 268.381 659.064 270.973 Q658.486 271.645 655.384 274.862 Q652.282 278.057 646.634 283.821 Z" fill="#000000" fill-rule="nonzero" fill-opacity="1" /><path clip-path="url(#clip600)" d="M682.768 271.344 Q679.435 271.344 677.513 273.126 Q675.615 274.909 675.615 278.034 Q675.615 281.159 677.513 282.941 Q679.435 284.723 682.768 284.723 Q686.101 284.723 688.023 282.941 Q689.944 281.135 689.944 278.034 Q689.944 274.909 688.023 273.126 Q686.124 271.344 682.768 271.344 M678.092 269.353 Q675.083 268.612 673.393 266.552 Q671.726 264.492 671.726 261.529 Q671.726 257.386 674.666 254.978 Q677.629 252.571 682.768 252.571 Q687.93 252.571 690.87 254.978 Q693.81 257.386 693.81 261.529 Q693.81 264.492 692.12 266.552 Q690.453 268.612 687.467 269.353 Q690.847 270.14 692.722 272.432 Q694.62 274.723 694.62 278.034 Q694.62 283.057 691.541 285.742 Q688.486 288.427 682.768 288.427 Q677.05 288.427 673.972 285.742 Q670.916 283.057 670.916 278.034 Q670.916 274.723 672.814 272.432 Q674.712 270.14 678.092 269.353 M676.379 261.969 Q676.379 264.654 678.046 266.159 Q679.736 267.663 682.768 267.663 Q685.777 267.663 687.467 266.159 Q689.18 264.654 689.18 261.969 Q689.18 259.284 687.467 257.779 Q685.777 256.274 682.768 256.274 Q679.736 256.274 678.046 257.779 Q676.379 259.284 676.379 261.969 Z" fill="#000000" fill-rule="nonzero" fill-opacity="1" /><path clip-path="url(#clip600)" d="M724.504 273.728 L724.504 275.811 L704.921 275.811 Q705.198 280.209 707.56 282.524 Q709.944 284.816 714.18 284.816 Q716.634 284.816 718.925 284.214 Q721.24 283.612 723.509 282.409 L723.509 286.436 Q721.217 287.408 718.809 287.918 Q716.402 288.427 713.925 288.427 Q707.722 288.427 704.087 284.816 Q700.476 281.205 700.476 275.047 Q700.476 268.682 703.902 264.955 Q707.351 261.205 713.185 261.205 Q718.416 261.205 721.448 264.585 Q724.504 267.941 724.504 273.728 M720.245 272.478 Q720.198 268.983 718.277 266.899 Q716.379 264.816 713.231 264.816 Q709.666 264.816 707.513 266.83 Q705.384 268.844 705.06 272.501 L720.245 272.478 Z" fill="#000000" fill-rule="nonzero" fill-opacity="1" /><path clip-path="url(#clip600)" d="M729.342 272.872 L741.819 272.872 L741.819 276.668 L729.342 276.668 L729.342 272.872 Z" fill="#000000" fill-rule="nonzero" fill-opacity="1" /><path clip-path="url(#clip600)" d="M759.203 256.274 Q755.592 256.274 753.763 259.839 Q751.957 263.381 751.957 270.51 Q751.957 277.617 753.763 281.182 Q755.592 284.723 759.203 284.723 Q762.837 284.723 764.643 281.182 Q766.471 277.617 766.471 270.51 Q766.471 263.381 764.643 259.839 Q762.837 256.274 759.203 256.274 M759.203 252.571 Q765.013 252.571 768.068 257.177 Q771.147 261.76 771.147 270.51 Q771.147 279.237 768.068 283.844 Q765.013 288.427 759.203 288.427 Q753.393 288.427 750.314 283.844 Q747.258 279.237 747.258 270.51 Q747.258 261.76 750.314 257.177 Q753.393 252.571 759.203 252.571 Z" fill="#000000" fill-rule="nonzero" fill-opacity="1" /><path clip-path="url(#clip600)" d="M789.943 268.612 Q786.795 268.612 784.943 270.765 Q783.115 272.918 783.115 276.668 Q783.115 280.395 784.943 282.571 Q786.795 284.723 789.943 284.723 Q793.091 284.723 794.92 282.571 Q796.772 280.395 796.772 276.668 Q796.772 272.918 794.92 270.765 Q793.091 268.612 789.943 268.612 M799.226 253.96 L799.226 258.219 Q797.466 257.386 795.661 256.946 Q793.879 256.506 792.119 256.506 Q787.49 256.506 785.036 259.631 Q782.605 262.756 782.258 269.075 Q783.624 267.061 785.684 265.997 Q787.744 264.909 790.221 264.909 Q795.429 264.909 798.439 268.08 Q801.471 271.228 801.471 276.668 Q801.471 281.992 798.323 285.209 Q795.175 288.427 789.943 288.427 Q783.948 288.427 780.777 283.844 Q777.605 279.237 777.605 270.51 Q777.605 262.316 781.494 257.455 Q785.383 252.571 791.934 252.571 Q793.693 252.571 795.476 252.918 Q797.281 253.265 799.226 253.96 Z" fill="#000000" fill-rule="nonzero" fill-opacity="1" /><path clip-path="url(#clip600)" d="M343.483 343.052 L483.665 343.052 L483.665 301.58 L343.483 301.58 L343.483 343.052  Z" fill="#2ba02b" fill-rule="evenodd" fill-opacity="0.45"/>
<polyline clip-path="url(#clip600)" style="stroke:#2ba02b; stroke-linecap:round; stroke-linejoin:round; stroke-width:4; stroke-opacity:1; fill:none" points="343.483,301.58 483.665,301.58 "/>
<path clip-path="url(#clip600)" d="M522.653 320.962 Q526.01 321.679 527.885 323.948 Q529.783 326.216 529.783 329.549 Q529.783 334.665 526.264 337.466 Q522.746 340.267 516.264 340.267 Q514.088 340.267 511.774 339.827 Q509.482 339.411 507.028 338.554 L507.028 334.04 Q508.973 335.174 511.287 335.753 Q513.602 336.332 516.125 336.332 Q520.523 336.332 522.815 334.596 Q525.13 332.86 525.13 329.549 Q525.13 326.494 522.977 324.781 Q520.848 323.045 517.028 323.045 L513 323.045 L513 319.202 L517.213 319.202 Q520.662 319.202 522.491 317.837 Q524.32 316.448 524.32 313.855 Q524.32 311.193 522.422 309.781 Q520.547 308.346 517.028 308.346 Q515.107 308.346 512.908 308.763 Q510.709 309.179 508.07 310.059 L508.07 305.892 Q510.732 305.151 513.047 304.781 Q515.385 304.411 517.445 304.411 Q522.769 304.411 525.871 306.841 Q528.973 309.249 528.973 313.369 Q528.973 316.239 527.329 318.23 Q525.686 320.198 522.653 320.962 Z" fill="#000000" fill-rule="nonzero" fill-opacity="1" /><path clip-path="url(#clip600)" d="M538.648 333.716 L543.533 333.716 L543.533 339.596 L538.648 339.596 L538.648 333.716 Z" fill="#000000" fill-rule="nonzero" fill-opacity="1" /><path clip-path="url(#clip600)" d="M554.528 335.661 L562.167 335.661 L562.167 309.295 L553.857 310.962 L553.857 306.702 L562.12 305.036 L566.796 305.036 L566.796 335.661 L574.435 335.661 L574.435 339.596 L554.528 339.596 L554.528 335.661 Z" fill="#000000" fill-rule="nonzero" fill-opacity="1" /><path clip-path="url(#clip600)" d="M594.458 320.452 Q591.31 320.452 589.458 322.605 Q587.63 324.758 587.63 328.508 Q587.63 332.235 589.458 334.411 Q591.31 336.563 594.458 336.563 Q597.606 336.563 599.435 334.411 Q601.287 332.235 601.287 328.508 Q601.287 324.758 599.435 322.605 Q597.606 320.452 594.458 320.452 M603.741 305.8 L603.741 310.059 Q601.981 309.226 600.176 308.786 Q598.393 308.346 596.634 308.346 Q592.005 308.346 589.551 311.471 Q587.12 314.596 586.773 320.915 Q588.139 318.901 590.199 317.837 Q592.259 316.749 594.736 316.749 Q599.944 316.749 602.954 319.92 Q605.986 323.068 605.986 328.508 Q605.986 333.832 602.838 337.049 Q599.69 340.267 594.458 340.267 Q588.463 340.267 585.292 335.684 Q582.12 331.077 582.12 322.35 Q582.12 314.156 586.009 309.295 Q589.898 304.411 596.449 304.411 Q598.208 304.411 599.991 304.758 Q601.796 305.105 603.741 305.8 Z" fill="#000000" fill-rule="nonzero" fill-opacity="1" /><path clip-path="url(#clip600)" d="M618.069 335.661 L634.389 335.661 L634.389 339.596 L612.444 339.596 L612.444 335.661 Q615.106 332.906 619.69 328.276 Q624.296 323.624 625.477 322.281 Q627.722 319.758 628.602 318.022 Q629.504 316.263 629.504 314.573 Q629.504 311.818 627.56 310.082 Q625.639 308.346 622.537 308.346 Q620.338 308.346 617.884 309.11 Q615.454 309.874 612.676 311.425 L612.676 306.702 Q615.5 305.568 617.954 304.989 Q620.407 304.411 622.444 304.411 Q627.815 304.411 631.009 307.096 Q634.203 309.781 634.203 314.272 Q634.203 316.401 633.393 318.323 Q632.606 320.221 630.5 322.813 Q629.921 323.485 626.819 326.702 Q623.717 329.897 618.069 335.661 Z" fill="#000000" fill-rule="nonzero" fill-opacity="1" /><path clip-path="url(#clip600)" d="M648.231 335.661 L664.551 335.661 L664.551 339.596 L642.606 339.596 L642.606 335.661 Q645.268 332.906 649.852 328.276 Q654.458 323.624 655.639 322.281 Q657.884 319.758 658.763 318.022 Q659.666 316.263 659.666 314.573 Q659.666 311.818 657.722 310.082 Q655.801 308.346 652.699 308.346 Q650.5 308.346 648.046 309.11 Q645.615 309.874 642.838 311.425 L642.838 306.702 Q645.662 305.568 648.115 304.989 Q650.569 304.411 652.606 304.411 Q657.976 304.411 661.171 307.096 Q664.365 309.781 664.365 314.272 Q664.365 316.401 663.555 318.323 Q662.768 320.221 660.662 322.813 Q660.083 323.485 656.981 326.702 Q653.879 329.897 648.231 335.661 Z" fill="#000000" fill-rule="nonzero" fill-opacity="1" /><path clip-path="url(#clip600)" d="M684.365 323.184 Q681.032 323.184 679.111 324.966 Q677.212 326.749 677.212 329.874 Q677.212 332.999 679.111 334.781 Q681.032 336.563 684.365 336.563 Q687.699 336.563 689.62 334.781 Q691.541 332.975 691.541 329.874 Q691.541 326.749 689.62 324.966 Q687.722 323.184 684.365 323.184 M679.689 321.193 Q676.68 320.452 674.99 318.392 Q673.324 316.332 673.324 313.369 Q673.324 309.226 676.263 306.818 Q679.226 304.411 684.365 304.411 Q689.527 304.411 692.467 306.818 Q695.407 309.226 695.407 313.369 Q695.407 316.332 693.717 318.392 Q692.05 320.452 689.064 321.193 Q692.444 321.98 694.319 324.272 Q696.217 326.563 696.217 329.874 Q696.217 334.897 693.138 337.582 Q690.083 340.267 684.365 340.267 Q678.648 340.267 675.569 337.582 Q672.513 334.897 672.513 329.874 Q672.513 326.563 674.412 324.272 Q676.31 321.98 679.689 321.193 M677.976 313.809 Q677.976 316.494 679.643 317.999 Q681.333 319.503 684.365 319.503 Q687.374 319.503 689.064 317.999 Q690.777 316.494 690.777 313.809 Q690.777 311.124 689.064 309.619 Q687.374 308.114 684.365 308.114 Q681.333 308.114 679.643 309.619 Q677.976 311.124 677.976 313.809 Z" fill="#000000" fill-rule="nonzero" fill-opacity="1" /><path clip-path="url(#clip600)" d="M726.101 325.568 L726.101 327.651 L706.518 327.651 Q706.796 332.049 709.157 334.364 Q711.541 336.656 715.777 336.656 Q718.231 336.656 720.522 336.054 Q722.837 335.452 725.106 334.249 L725.106 338.276 Q722.814 339.248 720.407 339.758 Q717.999 340.267 715.522 340.267 Q709.319 340.267 705.685 336.656 Q702.073 333.045 702.073 326.887 Q702.073 320.522 705.499 316.795 Q708.948 313.045 714.782 313.045 Q720.013 313.045 723.046 316.425 Q726.101 319.781 726.101 325.568 M721.842 324.318 Q721.796 320.823 719.874 318.739 Q717.976 316.656 714.828 316.656 Q711.263 316.656 709.11 318.67 Q706.981 320.684 706.657 324.341 L721.842 324.318 Z" fill="#000000" fill-rule="nonzero" fill-opacity="1" /><path clip-path="url(#clip600)" d="M730.939 324.712 L743.416 324.712 L743.416 328.508 L730.939 328.508 L730.939 324.712 Z" fill="#000000" fill-rule="nonzero" fill-opacity="1" /><path clip-path="url(#clip600)" d="M760.8 308.114 Q757.189 308.114 755.36 311.679 Q753.555 315.221 753.555 322.35 Q753.555 329.457 755.36 333.022 Q757.189 336.563 760.8 336.563 Q764.434 336.563 766.24 333.022 Q768.068 329.457 768.068 322.35 Q768.068 315.221 766.24 311.679 Q764.434 308.114 760.8 308.114 M760.8 304.411 Q766.61 304.411 769.666 309.017 Q772.744 313.6 772.744 322.35 Q772.744 331.077 769.666 335.684 Q766.61 340.267 760.8 340.267 Q754.99 340.267 751.911 335.684 Q748.856 331.077 748.856 322.35 Q748.856 313.6 751.911 309.017 Q754.99 304.411 760.8 304.411 Z" fill="#000000" fill-rule="nonzero" fill-opacity="1" /><path clip-path="url(#clip600)" d="M781.008 305.036 L799.365 305.036 L799.365 308.971 L785.291 308.971 L785.291 317.443 Q786.309 317.096 787.328 316.934 Q788.346 316.749 789.365 316.749 Q795.152 316.749 798.531 319.92 Q801.911 323.091 801.911 328.508 Q801.911 334.086 798.439 337.188 Q794.966 340.267 788.647 340.267 Q786.471 340.267 784.203 339.897 Q781.957 339.526 779.55 338.786 L779.55 334.086 Q781.633 335.221 783.855 335.776 Q786.078 336.332 788.554 336.332 Q792.559 336.332 794.897 334.225 Q797.235 332.119 797.235 328.508 Q797.235 324.897 794.897 322.79 Q792.559 320.684 788.554 320.684 Q786.679 320.684 784.804 321.1 Q782.953 321.517 781.008 322.397 L781.008 305.036 Z" fill="#000000" fill-rule="nonzero" fill-opacity="1" /><path clip-path="url(#clip600)" d="M343.483 394.892 L483.665 394.892 L483.665 353.42 L343.483 353.42 L343.483 394.892  Z" fill="#d52628" fill-rule="evenodd" fill-opacity="0.45"/>
<polyline clip-path="url(#clip600)" style="stroke:#d52628; stroke-linecap:round; stroke-linejoin:round; stroke-width:4; stroke-opacity:1; fill:none" points="343.483,353.42 483.665,353.42 "/>
<path clip-path="url(#clip600)" d="M518.973 359.954 Q515.361 359.954 513.533 363.519 Q511.727 367.061 511.727 374.19 Q511.727 381.297 513.533 384.862 Q515.361 388.403 518.973 388.403 Q522.607 388.403 524.412 384.862 Q526.241 381.297 526.241 374.19 Q526.241 367.061 524.412 363.519 Q522.607 359.954 518.973 359.954 M518.973 356.251 Q524.783 356.251 527.838 360.857 Q530.917 365.44 530.917 374.19 Q530.917 382.917 527.838 387.524 Q524.783 392.107 518.973 392.107 Q513.162 392.107 510.084 387.524 Q507.028 382.917 507.028 374.19 Q507.028 365.44 510.084 360.857 Q513.162 356.251 518.973 356.251 Z" fill="#000000" fill-rule="nonzero" fill-opacity="1" /><path clip-path="url(#clip600)" d="M539.135 385.556 L544.019 385.556 L544.019 391.436 L539.135 391.436 L539.135 385.556 Z" fill="#000000" fill-rule="nonzero" fill-opacity="1" /><path clip-path="url(#clip600)" d="M564.204 359.954 Q560.593 359.954 558.764 363.519 Q556.958 367.061 556.958 374.19 Q556.958 381.297 558.764 384.862 Q560.593 388.403 564.204 388.403 Q567.838 388.403 569.644 384.862 Q571.472 381.297 571.472 374.19 Q571.472 367.061 569.644 363.519 Q567.838 359.954 564.204 359.954 M564.204 356.251 Q570.014 356.251 573.07 360.857 Q576.148 365.44 576.148 374.19 Q576.148 382.917 573.07 387.524 Q570.014 392.107 564.204 392.107 Q558.394 392.107 555.315 387.524 Q552.259 382.917 552.259 374.19 Q552.259 365.44 555.315 360.857 Q558.394 356.251 564.204 356.251 Z" fill="#000000" fill-rule="nonzero" fill-opacity="1" /><path clip-path="url(#clip600)" d="M594.366 359.954 Q590.755 359.954 588.926 363.519 Q587.12 367.061 587.12 374.19 Q587.12 381.297 588.926 384.862 Q590.755 388.403 594.366 388.403 Q598 388.403 599.805 384.862 Q601.634 381.297 601.634 374.19 Q601.634 367.061 599.805 363.519 Q598 359.954 594.366 359.954 M594.366 356.251 Q600.176 356.251 603.231 360.857 Q606.31 365.44 606.31 374.19 Q606.31 382.917 603.231 387.524 Q600.176 392.107 594.366 392.107 Q588.556 392.107 585.477 387.524 Q582.421 382.917 582.421 374.19 Q582.421 365.44 585.477 360.857 Q588.556 356.251 594.366 356.251 Z" fill="#000000" fill-rule="nonzero" fill-opacity="1" /><path clip-path="url(#clip600)" d="M624.528 359.954 Q620.916 359.954 619.088 363.519 Q617.282 367.061 617.282 374.19 Q617.282 381.297 619.088 384.862 Q620.916 388.403 624.528 388.403 Q628.162 388.403 629.967 384.862 Q631.796 381.297 631.796 374.19 Q631.796 367.061 629.967 363.519 Q628.162 359.954 624.528 359.954 M624.528 356.251 Q630.338 356.251 633.393 360.857 Q636.472 365.44 636.472 374.19 Q636.472 382.917 633.393 387.524 Q630.338 392.107 624.528 392.107 Q618.717 392.107 615.639 387.524 Q612.583 382.917 612.583 374.19 Q612.583 365.44 615.639 360.857 Q618.717 356.251 624.528 356.251 Z" fill="#000000" fill-rule="nonzero" fill-opacity="1" /><path clip-path="url(#clip600)" d="M644.736 356.876 L663.092 356.876 L663.092 360.811 L649.018 360.811 L649.018 369.283 Q650.037 368.936 651.055 368.774 Q652.074 368.589 653.092 368.589 Q658.879 368.589 662.259 371.76 Q665.638 374.931 665.638 380.348 Q665.638 385.926 662.166 389.028 Q658.694 392.107 652.375 392.107 Q650.199 392.107 647.93 391.737 Q645.685 391.366 643.277 390.626 L643.277 385.926 Q645.361 387.061 647.583 387.616 Q649.805 388.172 652.282 388.172 Q656.287 388.172 658.625 386.065 Q660.963 383.959 660.963 380.348 Q660.963 376.737 658.625 374.63 Q656.287 372.524 652.282 372.524 Q650.407 372.524 648.532 372.94 Q646.68 373.357 644.736 374.237 L644.736 356.876 Z" fill="#000000" fill-rule="nonzero" fill-opacity="1" /><path clip-path="url(#clip600)" d="M685.43 372.292 Q682.282 372.292 680.43 374.445 Q678.601 376.598 678.601 380.348 Q678.601 384.075 680.43 386.251 Q682.282 388.403 685.43 388.403 Q688.578 388.403 690.407 386.251 Q692.259 384.075 692.259 380.348 Q692.259 376.598 690.407 374.445 Q688.578 372.292 685.43 372.292 M694.712 357.64 L694.712 361.899 Q692.953 361.066 691.148 360.626 Q689.365 360.186 687.606 360.186 Q682.976 360.186 680.523 363.311 Q678.092 366.436 677.745 372.755 Q679.111 370.741 681.171 369.677 Q683.231 368.589 685.708 368.589 Q690.916 368.589 693.925 371.76 Q696.958 374.908 696.958 380.348 Q696.958 385.672 693.81 388.889 Q690.661 392.107 685.43 392.107 Q679.435 392.107 676.263 387.524 Q673.092 382.917 673.092 374.19 Q673.092 365.996 676.981 361.135 Q680.87 356.251 687.421 356.251 Q689.18 356.251 690.962 356.598 Q692.768 356.945 694.712 357.64 Z" fill="#000000" fill-rule="nonzero" fill-opacity="1" /><path clip-path="url(#clip600)" d="M709.041 387.501 L725.36 387.501 L725.36 391.436 L703.416 391.436 L703.416 387.501 Q706.078 384.746 710.661 380.116 Q715.268 375.464 716.448 374.121 Q718.694 371.598 719.573 369.862 Q720.476 368.103 720.476 366.413 Q720.476 363.658 718.532 361.922 Q716.61 360.186 713.509 360.186 Q711.31 360.186 708.856 360.95 Q706.425 361.714 703.648 363.265 L703.648 358.542 Q706.472 357.408 708.925 356.829 Q711.379 356.251 713.416 356.251 Q718.786 356.251 721.981 358.936 Q725.175 361.621 725.175 366.112 Q725.175 368.241 724.365 370.163 Q723.578 372.061 721.471 374.653 Q720.893 375.325 717.791 378.542 Q714.689 381.737 709.041 387.501 Z" fill="#000000" fill-rule="nonzero" fill-opacity="1" /><path clip-path="url(#clip600)" d="M749.342 372.802 Q752.698 373.519 754.573 375.788 Q756.471 378.056 756.471 381.389 Q756.471 386.505 752.953 389.306 Q749.434 392.107 742.953 392.107 Q740.777 392.107 738.462 391.667 Q736.17 391.251 733.717 390.394 L733.717 385.88 Q735.661 387.014 737.976 387.593 Q740.291 388.172 742.814 388.172 Q747.212 388.172 749.504 386.436 Q751.819 384.7 751.819 381.389 Q751.819 378.334 749.666 376.621 Q747.536 374.885 743.717 374.885 L739.689 374.885 L739.689 371.042 L743.902 371.042 Q747.351 371.042 749.18 369.677 Q751.008 368.288 751.008 365.695 Q751.008 363.033 749.11 361.621 Q747.235 360.186 743.717 360.186 Q741.795 360.186 739.596 360.603 Q737.397 361.019 734.758 361.899 L734.758 357.732 Q737.42 356.991 739.735 356.621 Q742.073 356.251 744.133 356.251 Q749.457 356.251 752.559 358.681 Q755.661 361.089 755.661 365.209 Q755.661 368.079 754.018 370.07 Q752.374 372.038 749.342 372.802 Z" fill="#000000" fill-rule="nonzero" fill-opacity="1" /><path clip-path="url(#clip600)" d="M778.184 360.95 L766.379 379.399 L778.184 379.399 L778.184 360.95 M776.957 356.876 L782.837 356.876 L782.837 379.399 L787.767 379.399 L787.767 383.288 L782.837 383.288 L782.837 391.436 L778.184 391.436 L778.184 383.288 L762.582 383.288 L762.582 378.774 L776.957 356.876 Z" fill="#000000" fill-rule="nonzero" fill-opacity="1" /><path clip-path="url(#clip600)" d="M796.309 387.501 L803.948 387.501 L803.948 361.135 L795.638 362.802 L795.638 358.542 L803.902 356.876 L808.578 356.876 L808.578 387.501 L816.216 387.501 L816.216 391.436 L796.309 391.436 L796.309 387.501 Z" fill="#000000" fill-rule="nonzero" fill-opacity="1" /><path clip-path="url(#clip600)" d="M343.483 446.732 L483.665 446.732 L483.665 405.26 L343.483 405.26 L343.483 446.732  Z" fill="#9466bd" fill-rule="evenodd" fill-opacity="0.45"/>
<polyline clip-path="url(#clip600)" style="stroke:#9466bd; stroke-linecap:round; stroke-linejoin:round; stroke-width:4; stroke-opacity:1; fill:none" points="343.483,405.26 483.665,405.26 "/>
<path clip-path="url(#clip600)" d="M518.973 411.794 Q515.361 411.794 513.533 415.359 Q511.727 418.901 511.727 426.03 Q511.727 433.137 513.533 436.702 Q515.361 440.243 518.973 440.243 Q522.607 440.243 524.412 436.702 Q526.241 433.137 526.241 426.03 Q526.241 418.901 524.412 415.359 Q522.607 411.794 518.973 411.794 M518.973 408.091 Q524.783 408.091 527.838 412.697 Q530.917 417.28 530.917 426.03 Q530.917 434.757 527.838 439.364 Q524.783 443.947 518.973 443.947 Q513.162 443.947 510.084 439.364 Q507.028 434.757 507.028 426.03 Q507.028 417.28 510.084 412.697 Q513.162 408.091 518.973 408.091 Z" fill="#000000" fill-rule="nonzero" fill-opacity="1" /><path clip-path="url(#clip600)" d="M539.135 437.396 L544.019 437.396 L544.019 443.276 L539.135 443.276 L539.135 437.396 Z" fill="#000000" fill-rule="nonzero" fill-opacity="1" /><path clip-path="url(#clip600)" d="M564.204 411.794 Q560.593 411.794 558.764 415.359 Q556.958 418.901 556.958 426.03 Q556.958 433.137 558.764 436.702 Q560.593 440.243 564.204 440.243 Q567.838 440.243 569.644 436.702 Q571.472 433.137 571.472 426.03 Q571.472 418.901 569.644 415.359 Q567.838 411.794 564.204 411.794 M564.204 408.091 Q570.014 408.091 573.07 412.697 Q576.148 417.28 576.148 426.03 Q576.148 434.757 573.07 439.364 Q570.014 443.947 564.204 443.947 Q558.394 443.947 555.315 439.364 Q552.259 434.757 552.259 426.03 Q552.259 417.28 555.315 412.697 Q558.394 408.091 564.204 408.091 Z" fill="#000000" fill-rule="nonzero" fill-opacity="1" /><path clip-path="url(#clip600)" d="M585.176 439.341 L592.815 439.341 L592.815 412.975 L584.505 414.642 L584.505 410.382 L592.768 408.716 L597.444 408.716 L597.444 439.341 L605.083 439.341 L605.083 443.276 L585.176 443.276 L585.176 439.341 Z" fill="#000000" fill-rule="nonzero" fill-opacity="1" /></svg>
