<?xml version="1.0" encoding="utf-8"?>
<svg xmlns="http://www.w3.org/2000/svg" xmlns:xlink="http://www.w3.org/1999/xlink" width="600" height="400" viewBox="0 0 2400 1600">
<defs>
  <clipPath id="clip720">
    <rect x="0" y="0" width="2400" height="1600"/>
  </clipPath>
</defs>
<path clip-path="url(#clip720)" d="M0 1600 L2400 1600 L2400 0 L0 0  Z" fill="#ffffff" fill-rule="evenodd" fill-opacity="1"/>
<defs>
  <clipPath id="clip721">
    <rect x="480" y="0" width="1681" height="1600"/>
  </clipPath>
</defs>
<path clip-path="url(#clip720)" d="M250.028 1423.18 L2352.76 1423.18 L2352.76 123.472 L250.028 123.472  Z" fill="#ffffff" fill-rule="evenodd" fill-opacity="1"/>
<defs>
  <clipPath id="clip722">
    <rect x="250" y="123" width="2104" height="1301"/>
  </clipPath>
</defs>
<polyline clip-path="url(#clip722)" style="stroke:#000000; stroke-linecap:round; stroke-linejoin:round; stroke-width:2; stroke-opacity:0.1; fill:none" points="598.859,1423.18 598.859,123.472 "/>
<polyline clip-path="url(#clip722)" style="stroke:#000000; stroke-linecap:round; stroke-linejoin:round; stroke-width:2; stroke-opacity:0.1; fill:none" points="988.614,1423.18 988.614,123.472 "/>
<polyline clip-path="url(#clip722)" style="stroke:#000000; stroke-linecap:round; stroke-linejoin:round; stroke-width:2; stroke-opacity:0.1; fill:none" points="1378.37,1423.18 1378.37,123.472 "/>
<polyline clip-path="url(#clip722)" style="stroke:#000000; stroke-linecap:round; stroke-linejoin:round; stroke-width:2; stroke-opacity:0.1; fill:none" points="1768.12,1423.18 1768.12,123.472 "/>
<polyline clip-path="url(#clip722)" style="stroke:#000000; stroke-linecap:round; stroke-linejoin:round; stroke-width:2; stroke-opacity:0.1; fill:none" points="2157.88,1423.18 2157.88,123.472 "/>
<polyline clip-path="url(#clip720)" style="stroke:#000000; stroke-linecap:round; stroke-linejoin:round; stroke-width:4; stroke-opacity:1; fill:none" points="250.028,1423.18 2352.76,1423.18 "/>
<polyline clip-path="url(#clip720)" style="stroke:#000000; stroke-linecap:round; stroke-linejoin:round; stroke-width:4; stroke-opacity:1; fill:none" points="598.859,1423.18 598.859,1404.28 "/>
<polyline clip-path="url(#clip720)" style="stroke:#000000; stroke-linecap:round; stroke-linejoin:round; stroke-width:4; stroke-opacity:1; fill:none" points="988.614,1423.18 988.614,1404.28 "/>
<polyline clip-path="url(#clip720)" style="stroke:#000000; stroke-linecap:round; stroke-linejoin:round; stroke-width:4; stroke-opacity:1; fill:none" points="1378.37,1423.18 1378.37,1404.28 "/>
<polyline clip-path="url(#clip720)" style="stroke:#000000; stroke-linecap:round; stroke-linejoin:round; stroke-width:4; stroke-opacity:1; fill:none" points="1768.12,1423.18 1768.12,1404.28 "/>
<polyline clip-path="url(#clip720)" style="stroke:#000000; stroke-linecap:round; stroke-linejoin:round; stroke-width:4; stroke-opacity:1; fill:none" points="2157.88,1423.18 2157.88,1404.28 "/>
<path clip-path="url(#clip720)" d="M543.385 1481.64 L551.023 1481.64 L551.023 1455.28 L542.713 1456.95 L542.713 1452.69 L550.977 1451.02 L555.653 1451.02 L555.653 1481.64 L563.292 1481.64 L563.292 1485.58 L543.385 1485.58 L543.385 1481.64 Z" fill="#000000" fill-rule="nonzero" fill-opacity="1" /><path clip-path="url(#clip720)" d="M582.736 1454.1 Q579.125 1454.1 577.296 1457.66 Q575.491 1461.2 575.491 1468.33 Q575.491 1475.44 577.296 1479.01 Q579.125 1482.55 582.736 1482.55 Q586.37 1482.55 588.176 1479.01 Q590.005 1475.44 590.005 1468.33 Q590.005 1461.2 588.176 1457.66 Q586.37 1454.1 582.736 1454.1 M582.736 1450.39 Q588.546 1450.39 591.602 1455 Q594.681 1459.58 594.681 1468.33 Q594.681 1477.06 591.602 1481.67 Q588.546 1486.25 582.736 1486.25 Q576.926 1486.25 573.847 1481.67 Q570.792 1477.06 570.792 1468.33 Q570.792 1459.58 573.847 1455 Q576.926 1450.39 582.736 1450.39 Z" fill="#000000" fill-rule="nonzero" fill-opacity="1" /><path clip-path="url(#clip720)" d="M612.898 1454.1 Q609.287 1454.1 607.458 1457.66 Q605.653 1461.2 605.653 1468.33 Q605.653 1475.44 607.458 1479.01 Q609.287 1482.55 612.898 1482.55 Q616.532 1482.55 618.338 1479.01 Q620.167 1475.44 620.167 1468.33 Q620.167 1461.2 618.338 1457.66 Q616.532 1454.1 612.898 1454.1 M612.898 1450.39 Q618.708 1450.39 621.764 1455 Q624.842 1459.58 624.842 1468.33 Q624.842 1477.06 621.764 1481.67 Q618.708 1486.25 612.898 1486.25 Q607.088 1486.25 604.009 1481.67 Q600.954 1477.06 600.954 1468.33 Q600.954 1459.58 604.009 1455 Q607.088 1450.39 612.898 1450.39 Z" fill="#000000" fill-rule="nonzero" fill-opacity="1" /><path clip-path="url(#clip720)" d="M643.06 1454.1 Q639.449 1454.1 637.62 1457.66 Q635.815 1461.2 635.815 1468.33 Q635.815 1475.44 637.62 1479.01 Q639.449 1482.55 643.06 1482.55 Q646.694 1482.55 648.5 1479.01 Q650.328 1475.44 650.328 1468.33 Q650.328 1461.2 648.5 1457.66 Q646.694 1454.1 643.06 1454.1 M643.06 1450.39 Q648.87 1450.39 651.926 1455 Q655.004 1459.58 655.004 1468.33 Q655.004 1477.06 651.926 1481.67 Q648.87 1486.25 643.06 1486.25 Q637.25 1486.25 634.171 1481.67 Q631.116 1477.06 631.116 1468.33 Q631.116 1459.58 634.171 1455 Q637.25 1450.39 643.06 1450.39 Z" fill="#000000" fill-rule="nonzero" fill-opacity="1" /><path clip-path="url(#clip720)" d="M937.225 1481.64 L953.544 1481.64 L953.544 1485.58 L931.6 1485.58 L931.6 1481.64 Q934.262 1478.89 938.845 1474.26 Q943.452 1469.61 944.632 1468.27 Q946.878 1465.74 947.757 1464.01 Q948.66 1462.25 948.66 1460.56 Q948.66 1457.8 946.716 1456.07 Q944.794 1454.33 941.693 1454.33 Q939.494 1454.33 937.04 1455.09 Q934.609 1455.86 931.832 1457.41 L931.832 1452.69 Q934.656 1451.55 937.109 1450.97 Q939.563 1450.39 941.6 1450.39 Q946.97 1450.39 950.165 1453.08 Q953.359 1455.77 953.359 1460.26 Q953.359 1462.39 952.549 1464.31 Q951.762 1466.2 949.656 1468.8 Q949.077 1469.47 945.975 1472.69 Q942.873 1475.88 937.225 1481.64 Z" fill="#000000" fill-rule="nonzero" fill-opacity="1" /><path clip-path="url(#clip720)" d="M973.359 1454.1 Q969.748 1454.1 967.919 1457.66 Q966.114 1461.2 966.114 1468.33 Q966.114 1475.44 967.919 1479.01 Q969.748 1482.55 973.359 1482.55 Q976.993 1482.55 978.799 1479.01 Q980.628 1475.44 980.628 1468.33 Q980.628 1461.2 978.799 1457.66 Q976.993 1454.1 973.359 1454.1 M973.359 1450.39 Q979.169 1450.39 982.225 1455 Q985.304 1459.58 985.304 1468.33 Q985.304 1477.06 982.225 1481.67 Q979.169 1486.25 973.359 1486.25 Q967.549 1486.25 964.47 1481.67 Q961.415 1477.06 961.415 1468.33 Q961.415 1459.58 964.47 1455 Q967.549 1450.39 973.359 1450.39 Z" fill="#000000" fill-rule="nonzero" fill-opacity="1" /><path clip-path="url(#clip720)" d="M1003.52 1454.1 Q999.91 1454.1 998.081 1457.66 Q996.276 1461.2 996.276 1468.33 Q996.276 1475.44 998.081 1479.01 Q999.91 1482.55 1003.52 1482.55 Q1007.16 1482.55 1008.96 1479.01 Q1010.79 1475.44 1010.79 1468.33 Q1010.79 1461.2 1008.96 1457.66 Q1007.16 1454.1 1003.52 1454.1 M1003.52 1450.39 Q1009.33 1450.39 1012.39 1455 Q1015.47 1459.58 1015.47 1468.33 Q1015.47 1477.06 1012.39 1481.67 Q1009.33 1486.25 1003.52 1486.25 Q997.711 1486.25 994.632 1481.67 Q991.577 1477.06 991.577 1468.33 Q991.577 1459.58 994.632 1455 Q997.711 1450.39 1003.52 1450.39 Z" fill="#000000" fill-rule="nonzero" fill-opacity="1" /><path clip-path="url(#clip720)" d="M1033.68 1454.1 Q1030.07 1454.1 1028.24 1457.66 Q1026.44 1461.2 1026.44 1468.33 Q1026.44 1475.44 1028.24 1479.01 Q1030.07 1482.55 1033.68 1482.55 Q1037.32 1482.55 1039.12 1479.01 Q1040.95 1475.44 1040.95 1468.33 Q1040.95 1461.2 1039.12 1457.66 Q1037.32 1454.1 1033.68 1454.1 M1033.68 1450.39 Q1039.49 1450.39 1042.55 1455 Q1045.63 1459.58 1045.63 1468.33 Q1045.63 1477.06 1042.55 1481.67 Q1039.49 1486.25 1033.68 1486.25 Q1027.87 1486.25 1024.79 1481.67 Q1021.74 1477.06 1021.74 1468.33 Q1021.74 1459.58 1024.79 1455 Q1027.87 1450.39 1033.68 1450.39 Z" fill="#000000" fill-rule="nonzero" fill-opacity="1" /><path clip-path="url(#clip720)" d="M1337.05 1466.95 Q1340.41 1467.66 1342.28 1469.93 Q1344.18 1472.2 1344.18 1475.53 Q1344.18 1480.65 1340.66 1483.45 Q1337.14 1486.25 1330.66 1486.25 Q1328.48 1486.25 1326.17 1485.81 Q1323.88 1485.39 1321.42 1484.54 L1321.42 1480.02 Q1323.37 1481.16 1325.68 1481.74 Q1328 1482.32 1330.52 1482.32 Q1334.92 1482.32 1337.21 1480.58 Q1339.53 1478.84 1339.53 1475.53 Q1339.53 1472.48 1337.37 1470.77 Q1335.24 1469.03 1331.42 1469.03 L1327.4 1469.03 L1327.4 1465.19 L1331.61 1465.19 Q1335.06 1465.19 1336.89 1463.82 Q1338.72 1462.43 1338.72 1459.84 Q1338.72 1457.18 1336.82 1455.77 Q1334.94 1454.33 1331.42 1454.33 Q1329.5 1454.33 1327.3 1454.75 Q1325.11 1455.16 1322.47 1456.04 L1322.47 1451.88 Q1325.13 1451.14 1327.44 1450.77 Q1329.78 1450.39 1331.84 1450.39 Q1337.17 1450.39 1340.27 1452.83 Q1343.37 1455.23 1343.37 1459.35 Q1343.37 1462.22 1341.73 1464.21 Q1340.08 1466.18 1337.05 1466.95 Z" fill="#000000" fill-rule="nonzero" fill-opacity="1" /><path clip-path="url(#clip720)" d="M1363.04 1454.1 Q1359.43 1454.1 1357.6 1457.66 Q1355.8 1461.2 1355.8 1468.33 Q1355.8 1475.44 1357.6 1479.01 Q1359.43 1482.55 1363.04 1482.55 Q1366.68 1482.55 1368.48 1479.01 Q1370.31 1475.44 1370.31 1468.33 Q1370.31 1461.2 1368.48 1457.66 Q1366.68 1454.1 1363.04 1454.1 M1363.04 1450.39 Q1368.85 1450.39 1371.91 1455 Q1374.99 1459.58 1374.99 1468.33 Q1374.99 1477.06 1371.91 1481.67 Q1368.85 1486.25 1363.04 1486.25 Q1357.23 1486.25 1354.16 1481.67 Q1351.1 1477.06 1351.1 1468.33 Q1351.1 1459.58 1354.16 1455 Q1357.23 1450.39 1363.04 1450.39 Z" fill="#000000" fill-rule="nonzero" fill-opacity="1" /><path clip-path="url(#clip720)" d="M1393.21 1454.1 Q1389.6 1454.1 1387.77 1457.66 Q1385.96 1461.2 1385.96 1468.33 Q1385.96 1475.44 1387.77 1479.01 Q1389.6 1482.55 1393.21 1482.55 Q1396.84 1482.55 1398.65 1479.01 Q1400.47 1475.44 1400.47 1468.33 Q1400.47 1461.2 1398.65 1457.66 Q1396.84 1454.1 1393.21 1454.1 M1393.21 1450.39 Q1399.02 1450.39 1402.07 1455 Q1405.15 1459.58 1405.15 1468.33 Q1405.15 1477.06 1402.07 1481.67 Q1399.02 1486.25 1393.21 1486.25 Q1387.4 1486.25 1384.32 1481.67 Q1381.26 1477.06 1381.26 1468.33 Q1381.26 1459.58 1384.32 1455 Q1387.4 1450.39 1393.21 1450.39 Z" fill="#000000" fill-rule="nonzero" fill-opacity="1" /><path clip-path="url(#clip720)" d="M1423.37 1454.1 Q1419.76 1454.1 1417.93 1457.66 Q1416.12 1461.2 1416.12 1468.33 Q1416.12 1475.44 1417.93 1479.01 Q1419.76 1482.55 1423.37 1482.55 Q1427 1482.55 1428.81 1479.01 Q1430.64 1475.44 1430.64 1468.33 Q1430.64 1461.2 1428.81 1457.66 Q1427 1454.1 1423.37 1454.1 M1423.37 1450.39 Q1429.18 1450.39 1432.23 1455 Q1435.31 1459.58 1435.31 1468.33 Q1435.31 1477.06 1432.23 1481.67 Q1429.18 1486.25 1423.37 1486.25 Q1417.56 1486.25 1414.48 1481.67 Q1411.42 1477.06 1411.42 1468.33 Q1411.42 1459.58 1414.48 1455 Q1417.56 1450.39 1423.37 1450.39 Z" fill="#000000" fill-rule="nonzero" fill-opacity="1" /><path clip-path="url(#clip720)" d="M1726.13 1455.09 L1714.33 1473.54 L1726.13 1473.54 L1726.13 1455.09 M1724.91 1451.02 L1730.79 1451.02 L1730.79 1473.54 L1735.72 1473.54 L1735.72 1477.43 L1730.79 1477.43 L1730.79 1485.58 L1726.13 1485.58 L1726.13 1477.43 L1710.53 1477.43 L1710.53 1472.92 L1724.91 1451.02 Z" fill="#000000" fill-rule="nonzero" fill-opacity="1" /><path clip-path="url(#clip720)" d="M1753.45 1454.1 Q1749.84 1454.1 1748.01 1457.66 Q1746.2 1461.2 1746.2 1468.33 Q1746.2 1475.44 1748.01 1479.01 Q1749.84 1482.55 1753.45 1482.55 Q1757.08 1482.55 1758.89 1479.01 Q1760.72 1475.44 1760.72 1468.33 Q1760.72 1461.2 1758.89 1457.66 Q1757.08 1454.1 1753.45 1454.1 M1753.45 1450.39 Q1759.26 1450.39 1762.31 1455 Q1765.39 1459.58 1765.39 1468.33 Q1765.39 1477.06 1762.31 1481.67 Q1759.26 1486.25 1753.45 1486.25 Q1747.64 1486.25 1744.56 1481.67 Q1741.5 1477.06 1741.5 1468.33 Q1741.5 1459.58 1744.56 1455 Q1747.64 1450.39 1753.45 1450.39 Z" fill="#000000" fill-rule="nonzero" fill-opacity="1" /><path clip-path="url(#clip720)" d="M1783.61 1454.1 Q1780 1454.1 1778.17 1457.66 Q1776.36 1461.2 1776.36 1468.33 Q1776.36 1475.44 1778.17 1479.01 Q1780 1482.55 1783.61 1482.55 Q1787.24 1482.55 1789.05 1479.01 Q1790.88 1475.44 1790.88 1468.33 Q1790.88 1461.2 1789.05 1457.66 Q1787.24 1454.1 1783.61 1454.1 M1783.61 1450.39 Q1789.42 1450.39 1792.48 1455 Q1795.55 1459.58 1795.55 1468.33 Q1795.55 1477.06 1792.48 1481.67 Q1789.42 1486.25 1783.61 1486.25 Q1777.8 1486.25 1774.72 1481.67 Q1771.67 1477.06 1771.67 1468.33 Q1771.67 1459.58 1774.72 1455 Q1777.8 1450.39 1783.61 1450.39 Z" fill="#000000" fill-rule="nonzero" fill-opacity="1" /><path clip-path="url(#clip720)" d="M1813.77 1454.1 Q1810.16 1454.1 1808.33 1457.66 Q1806.53 1461.2 1806.53 1468.33 Q1806.53 1475.44 1808.33 1479.01 Q1810.16 1482.55 1813.77 1482.55 Q1817.41 1482.55 1819.21 1479.01 Q1821.04 1475.44 1821.04 1468.33 Q1821.04 1461.2 1819.21 1457.66 Q1817.41 1454.1 1813.77 1454.1 M1813.77 1450.39 Q1819.58 1450.39 1822.64 1455 Q1825.72 1459.58 1825.72 1468.33 Q1825.72 1477.06 1822.64 1481.67 Q1819.58 1486.25 1813.77 1486.25 Q1807.96 1486.25 1804.88 1481.67 Q1801.83 1477.06 1801.83 1468.33 Q1801.83 1459.58 1804.88 1455 Q1807.96 1450.39 1813.77 1450.39 Z" fill="#000000" fill-rule="nonzero" fill-opacity="1" /><path clip-path="url(#clip720)" d="M2102.42 1451.02 L2120.77 1451.02 L2120.77 1454.96 L2106.7 1454.96 L2106.7 1463.43 Q2107.72 1463.08 2108.74 1462.92 Q2109.75 1462.73 2110.77 1462.73 Q2116.56 1462.73 2119.94 1465.9 Q2123.32 1469.08 2123.32 1474.49 Q2123.32 1480.07 2119.85 1483.17 Q2116.37 1486.25 2110.05 1486.25 Q2107.88 1486.25 2105.61 1485.88 Q2103.36 1485.51 2100.96 1484.77 L2100.96 1480.07 Q2103.04 1481.2 2105.26 1481.76 Q2107.49 1482.32 2109.96 1482.32 Q2113.97 1482.32 2116.3 1480.21 Q2118.64 1478.1 2118.64 1474.49 Q2118.64 1470.88 2116.3 1468.77 Q2113.97 1466.67 2109.96 1466.67 Q2108.09 1466.67 2106.21 1467.08 Q2104.36 1467.5 2102.42 1468.38 L2102.42 1451.02 Z" fill="#000000" fill-rule="nonzero" fill-opacity="1" /><path clip-path="url(#clip720)" d="M2142.53 1454.1 Q2138.92 1454.1 2137.09 1457.66 Q2135.29 1461.2 2135.29 1468.33 Q2135.29 1475.44 2137.09 1479.01 Q2138.92 1482.55 2142.53 1482.55 Q2146.17 1482.55 2147.97 1479.01 Q2149.8 1475.44 2149.8 1468.33 Q2149.8 1461.2 2147.97 1457.66 Q2146.17 1454.1 2142.53 1454.1 M2142.53 1450.39 Q2148.34 1450.39 2151.4 1455 Q2154.48 1459.58 2154.48 1468.33 Q2154.48 1477.06 2151.4 1481.67 Q2148.34 1486.25 2142.53 1486.25 Q2136.72 1486.25 2133.64 1481.67 Q2130.59 1477.06 2130.59 1468.33 Q2130.59 1459.58 2133.64 1455 Q2136.72 1450.39 2142.53 1450.39 Z" fill="#000000" fill-rule="nonzero" fill-opacity="1" /><path clip-path="url(#clip720)" d="M2172.69 1454.1 Q2169.08 1454.1 2167.25 1457.66 Q2165.45 1461.2 2165.45 1468.33 Q2165.45 1475.44 2167.25 1479.01 Q2169.08 1482.55 2172.69 1482.55 Q2176.33 1482.55 2178.13 1479.01 Q2179.96 1475.44 2179.96 1468.33 Q2179.96 1461.2 2178.13 1457.66 Q2176.33 1454.1 2172.69 1454.1 M2172.69 1450.39 Q2178.5 1450.39 2181.56 1455 Q2184.64 1459.58 2184.64 1468.33 Q2184.64 1477.06 2181.56 1481.67 Q2178.5 1486.25 2172.69 1486.25 Q2166.88 1486.25 2163.8 1481.67 Q2160.75 1477.06 2160.75 1468.33 Q2160.75 1459.58 2163.8 1455 Q2166.88 1450.39 2172.69 1450.39 Z" fill="#000000" fill-rule="nonzero" fill-opacity="1" /><path clip-path="url(#clip720)" d="M2202.86 1454.1 Q2199.24 1454.1 2197.42 1457.66 Q2195.61 1461.2 2195.61 1468.33 Q2195.61 1475.44 2197.42 1479.01 Q2199.24 1482.55 2202.86 1482.55 Q2206.49 1482.55 2208.29 1479.01 Q2210.12 1475.44 2210.12 1468.33 Q2210.12 1461.2 2208.29 1457.66 Q2206.49 1454.1 2202.86 1454.1 M2202.86 1450.39 Q2208.67 1450.39 2211.72 1455 Q2214.8 1459.58 2214.8 1468.33 Q2214.8 1477.06 2211.72 1481.67 Q2208.67 1486.25 2202.86 1486.25 Q2197.04 1486.25 2193.97 1481.67 Q2190.91 1477.06 2190.91 1468.33 Q2190.91 1459.58 2193.97 1455 Q2197.04 1450.39 2202.86 1450.39 Z" fill="#000000" fill-rule="nonzero" fill-opacity="1" /><path clip-path="url(#clip720)" d="M1265.2 1526.86 L1256.48 1550.51 L1273.96 1550.51 L1265.2 1526.86 M1261.57 1520.52 L1268.86 1520.52 L1286.97 1568.04 L1280.29 1568.04 L1275.96 1555.85 L1254.54 1555.85 L1250.21 1568.04 L1243.43 1568.04 L1261.57 1520.52 Z" fill="#000000" fill-rule="nonzero" fill-opacity="1" /><path clip-path="url(#clip720)" d="M1282.26 1520.52 L1322.46 1520.52 L1322.46 1525.93 L1305.59 1525.93 L1305.59 1568.04 L1299.13 1568.04 L1299.13 1525.93 L1282.26 1525.93 L1282.26 1520.52 Z" fill="#000000" fill-rule="nonzero" fill-opacity="1" /><path clip-path="url(#clip720)" d="M1335.1 1525.81 L1335.1 1543.66 L1343.18 1543.66 Q1347.67 1543.66 1350.12 1541.34 Q1352.57 1539.02 1352.57 1534.72 Q1352.57 1530.45 1350.12 1528.13 Q1347.67 1525.81 1343.18 1525.81 L1335.1 1525.81 M1328.67 1520.52 L1343.18 1520.52 Q1351.17 1520.52 1355.25 1524.15 Q1359.35 1527.75 1359.35 1534.72 Q1359.35 1541.75 1355.25 1545.35 Q1351.17 1548.95 1343.18 1548.95 L1335.1 1548.95 L1335.1 1568.04 L1328.67 1568.04 L1328.67 1520.52 Z" fill="#000000" fill-rule="nonzero" fill-opacity="1" /><polyline clip-path="url(#clip722)" style="stroke:#000000; stroke-linecap:round; stroke-linejoin:round; stroke-width:2; stroke-opacity:0.1; fill:none" points="250.028,1123.25 2352.76,1123.25 "/>
<polyline clip-path="url(#clip722)" style="stroke:#000000; stroke-linecap:round; stroke-linejoin:round; stroke-width:2; stroke-opacity:0.1; fill:none" points="250.028,789.989 2352.76,789.989 "/>
<polyline clip-path="url(#clip722)" style="stroke:#000000; stroke-linecap:round; stroke-linejoin:round; stroke-width:2; stroke-opacity:0.1; fill:none" points="250.028,456.731 2352.76,456.731 "/>
<polyline clip-path="url(#clip722)" style="stroke:#000000; stroke-linecap:round; stroke-linejoin:round; stroke-width:2; stroke-opacity:0.1; fill:none" points="250.028,123.472 2352.76,123.472 "/>
<polyline clip-path="url(#clip720)" style="stroke:#000000; stroke-linecap:round; stroke-linejoin:round; stroke-width:4; stroke-opacity:1; fill:none" points="250.028,1423.18 250.028,123.472 "/>
<polyline clip-path="url(#clip720)" style="stroke:#000000; stroke-linecap:round; stroke-linejoin:round; stroke-width:4; stroke-opacity:1; fill:none" points="250.028,1123.25 268.926,1123.25 "/>
<polyline clip-path="url(#clip720)" style="stroke:#000000; stroke-linecap:round; stroke-linejoin:round; stroke-width:4; stroke-opacity:1; fill:none" points="250.028,789.989 268.926,789.989 "/>
<polyline clip-path="url(#clip720)" style="stroke:#000000; stroke-linecap:round; stroke-linejoin:round; stroke-width:4; stroke-opacity:1; fill:none" points="250.028,456.731 268.926,456.731 "/>
<polyline clip-path="url(#clip720)" style="stroke:#000000; stroke-linecap:round; stroke-linejoin:round; stroke-width:4; stroke-opacity:1; fill:none" points="250.028,123.472 268.926,123.472 "/>
<path clip-path="url(#clip720)" d="M127.917 1109.05 Q124.306 1109.05 122.478 1112.61 Q120.672 1116.15 120.672 1123.28 Q120.672 1130.39 122.478 1133.95 Q124.306 1137.49 127.917 1137.49 Q131.552 1137.49 133.357 1133.95 Q135.186 1130.39 135.186 1123.28 Q135.186 1116.15 133.357 1112.61 Q131.552 1109.05 127.917 1109.05 M127.917 1105.34 Q133.728 1105.34 136.783 1109.95 Q139.862 1114.53 139.862 1123.28 Q139.862 1132.01 136.783 1136.62 Q133.728 1141.2 127.917 1141.2 Q122.107 1141.2 119.029 1136.62 Q115.973 1132.01 115.973 1123.28 Q115.973 1114.53 119.029 1109.95 Q122.107 1105.34 127.917 1105.34 Z" fill="#000000" fill-rule="nonzero" fill-opacity="1" /><path clip-path="url(#clip720)" d="M148.079 1134.65 L152.964 1134.65 L152.964 1140.53 L148.079 1140.53 L148.079 1134.65 Z" fill="#000000" fill-rule="nonzero" fill-opacity="1" /><path clip-path="url(#clip720)" d="M173.149 1109.05 Q169.538 1109.05 167.709 1112.61 Q165.903 1116.15 165.903 1123.28 Q165.903 1130.39 167.709 1133.95 Q169.538 1137.49 173.149 1137.49 Q176.783 1137.49 178.589 1133.95 Q180.417 1130.39 180.417 1123.28 Q180.417 1116.15 178.589 1112.61 Q176.783 1109.05 173.149 1109.05 M173.149 1105.34 Q178.959 1105.34 182.014 1109.95 Q185.093 1114.53 185.093 1123.28 Q185.093 1132.01 182.014 1136.62 Q178.959 1141.2 173.149 1141.2 Q167.339 1141.2 164.26 1136.62 Q161.204 1132.01 161.204 1123.28 Q161.204 1114.53 164.26 1109.95 Q167.339 1105.34 173.149 1105.34 Z" fill="#000000" fill-rule="nonzero" fill-opacity="1" /><path clip-path="url(#clip720)" d="M194.121 1136.59 L201.76 1136.59 L201.76 1110.23 L193.45 1111.89 L193.45 1107.63 L201.713 1105.97 L206.389 1105.97 L206.389 1136.59 L214.028 1136.59 L214.028 1140.53 L194.121 1140.53 L194.121 1136.59 Z" fill="#000000" fill-rule="nonzero" fill-opacity="1" /><path clip-path="url(#clip720)" d="M128.288 775.788 Q124.677 775.788 122.848 779.352 Q121.043 782.894 121.043 790.024 Q121.043 797.13 122.848 800.695 Q124.677 804.237 128.288 804.237 Q131.922 804.237 133.728 800.695 Q135.556 797.13 135.556 790.024 Q135.556 782.894 133.728 779.352 Q131.922 775.788 128.288 775.788 M128.288 772.084 Q134.098 772.084 137.154 776.69 Q140.232 781.274 140.232 790.024 Q140.232 798.75 137.154 803.357 Q134.098 807.94 128.288 807.94 Q122.478 807.94 119.399 803.357 Q116.343 798.75 116.343 790.024 Q116.343 781.274 119.399 776.69 Q122.478 772.084 128.288 772.084 Z" fill="#000000" fill-rule="nonzero" fill-opacity="1" /><path clip-path="url(#clip720)" d="M148.45 801.389 L153.334 801.389 L153.334 807.269 L148.45 807.269 L148.45 801.389 Z" fill="#000000" fill-rule="nonzero" fill-opacity="1" /><path clip-path="url(#clip720)" d="M173.519 775.788 Q169.908 775.788 168.079 779.352 Q166.274 782.894 166.274 790.024 Q166.274 797.13 168.079 800.695 Q169.908 804.237 173.519 804.237 Q177.153 804.237 178.959 800.695 Q180.788 797.13 180.788 790.024 Q180.788 782.894 178.959 779.352 Q177.153 775.788 173.519 775.788 M173.519 772.084 Q179.329 772.084 182.385 776.69 Q185.463 781.274 185.463 790.024 Q185.463 798.75 182.385 803.357 Q179.329 807.94 173.519 807.94 Q167.709 807.94 164.63 803.357 Q161.575 798.75 161.575 790.024 Q161.575 781.274 164.63 776.69 Q167.709 772.084 173.519 772.084 Z" fill="#000000" fill-rule="nonzero" fill-opacity="1" /><path clip-path="url(#clip720)" d="M197.709 803.334 L214.028 803.334 L214.028 807.269 L192.084 807.269 L192.084 803.334 Q194.746 800.579 199.329 795.95 Q203.936 791.297 205.116 789.954 Q207.362 787.431 208.241 785.695 Q209.144 783.936 209.144 782.246 Q209.144 779.491 207.199 777.755 Q205.278 776.019 202.176 776.019 Q199.977 776.019 197.524 776.783 Q195.093 777.547 192.315 779.098 L192.315 774.376 Q195.139 773.241 197.593 772.663 Q200.047 772.084 202.084 772.084 Q207.454 772.084 210.649 774.769 Q213.843 777.454 213.843 781.945 Q213.843 784.075 213.033 785.996 Q212.246 787.894 210.139 790.487 Q209.561 791.158 206.459 794.375 Q203.357 797.57 197.709 803.334 Z" fill="#000000" fill-rule="nonzero" fill-opacity="1" /><path clip-path="url(#clip720)" d="M127.339 442.529 Q123.728 442.529 121.899 446.094 Q120.093 449.636 120.093 456.765 Q120.093 463.872 121.899 467.436 Q123.728 470.978 127.339 470.978 Q130.973 470.978 132.779 467.436 Q134.607 463.872 134.607 456.765 Q134.607 449.636 132.779 446.094 Q130.973 442.529 127.339 442.529 M127.339 438.826 Q133.149 438.826 136.204 443.432 Q139.283 448.015 139.283 456.765 Q139.283 465.492 136.204 470.098 Q133.149 474.682 127.339 474.682 Q121.529 474.682 118.45 470.098 Q115.394 465.492 115.394 456.765 Q115.394 448.015 118.45 443.432 Q121.529 438.826 127.339 438.826 Z" fill="#000000" fill-rule="nonzero" fill-opacity="1" /><path clip-path="url(#clip720)" d="M147.501 468.131 L152.385 468.131 L152.385 474.011 L147.501 474.011 L147.501 468.131 Z" fill="#000000" fill-rule="nonzero" fill-opacity="1" /><path clip-path="url(#clip720)" d="M172.57 442.529 Q168.959 442.529 167.13 446.094 Q165.325 449.636 165.325 456.765 Q165.325 463.872 167.13 467.436 Q168.959 470.978 172.57 470.978 Q176.204 470.978 178.01 467.436 Q179.839 463.872 179.839 456.765 Q179.839 449.636 178.01 446.094 Q176.204 442.529 172.57 442.529 M172.57 438.826 Q178.38 438.826 181.436 443.432 Q184.514 448.015 184.514 456.765 Q184.514 465.492 181.436 470.098 Q178.38 474.682 172.57 474.682 Q166.76 474.682 163.681 470.098 Q160.626 465.492 160.626 456.765 Q160.626 448.015 163.681 443.432 Q166.76 438.826 172.57 438.826 Z" fill="#000000" fill-rule="nonzero" fill-opacity="1" /><path clip-path="url(#clip720)" d="M206.899 455.376 Q210.255 456.094 212.13 458.362 Q214.028 460.631 214.028 463.964 Q214.028 469.08 210.51 471.881 Q206.991 474.682 200.51 474.682 Q198.334 474.682 196.019 474.242 Q193.727 473.825 191.274 472.969 L191.274 468.455 Q193.218 469.589 195.533 470.168 Q197.848 470.747 200.371 470.747 Q204.769 470.747 207.061 469.011 Q209.375 467.274 209.375 463.964 Q209.375 460.909 207.223 459.196 Q205.093 457.46 201.274 457.46 L197.246 457.46 L197.246 453.617 L201.459 453.617 Q204.908 453.617 206.737 452.251 Q208.565 450.862 208.565 448.27 Q208.565 445.608 206.667 444.196 Q204.792 442.761 201.274 442.761 Q199.352 442.761 197.153 443.177 Q194.954 443.594 192.315 444.474 L192.315 440.307 Q194.977 439.566 197.292 439.196 Q199.63 438.826 201.69 438.826 Q207.014 438.826 210.116 441.256 Q213.218 443.663 213.218 447.784 Q213.218 450.654 211.574 452.645 Q209.931 454.612 206.899 455.376 Z" fill="#000000" fill-rule="nonzero" fill-opacity="1" /><path clip-path="url(#clip720)" d="M126.205 109.271 Q122.593 109.271 120.765 112.836 Q118.959 116.377 118.959 123.507 Q118.959 130.613 120.765 134.178 Q122.593 137.72 126.205 137.72 Q129.839 137.72 131.644 134.178 Q133.473 130.613 133.473 123.507 Q133.473 116.377 131.644 112.836 Q129.839 109.271 126.205 109.271 M126.205 105.567 Q132.015 105.567 135.07 110.174 Q138.149 114.757 138.149 123.507 Q138.149 132.234 135.07 136.84 Q132.015 141.423 126.205 141.423 Q120.394 141.423 117.316 136.84 Q114.26 132.234 114.26 123.507 Q114.26 114.757 117.316 110.174 Q120.394 105.567 126.205 105.567 Z" fill="#000000" fill-rule="nonzero" fill-opacity="1" /><path clip-path="url(#clip720)" d="M146.366 134.873 L151.251 134.873 L151.251 140.752 L146.366 140.752 L146.366 134.873 Z" fill="#000000" fill-rule="nonzero" fill-opacity="1" /><path clip-path="url(#clip720)" d="M171.436 109.271 Q167.825 109.271 165.996 112.836 Q164.19 116.377 164.19 123.507 Q164.19 130.613 165.996 134.178 Q167.825 137.72 171.436 137.72 Q175.07 137.72 176.876 134.178 Q178.704 130.613 178.704 123.507 Q178.704 116.377 176.876 112.836 Q175.07 109.271 171.436 109.271 M171.436 105.567 Q177.246 105.567 180.301 110.174 Q183.38 114.757 183.38 123.507 Q183.38 132.234 180.301 136.84 Q177.246 141.423 171.436 141.423 Q165.626 141.423 162.547 136.84 Q159.491 132.234 159.491 123.507 Q159.491 114.757 162.547 110.174 Q165.626 105.567 171.436 105.567 Z" fill="#000000" fill-rule="nonzero" fill-opacity="1" /><path clip-path="url(#clip720)" d="M204.445 110.266 L192.639 128.715 L204.445 128.715 L204.445 110.266 M203.218 106.192 L209.098 106.192 L209.098 128.715 L214.028 128.715 L214.028 132.604 L209.098 132.604 L209.098 140.752 L204.445 140.752 L204.445 132.604 L188.843 132.604 L188.843 128.09 L203.218 106.192 Z" fill="#000000" fill-rule="nonzero" fill-opacity="1" /><path clip-path="url(#clip720)" d="M20.049 772.435 L64.0042 755.979 L64.0042 762.186 L37.6501 772.18 L64.0042 784.466 L64.0042 790.673 L29.8203 775.045 L23.5183 777.4 Q19.5079 778.896 19.5079 782.302 L19.5079 785.357 L14.479 785.357 L14.5426 781.633 Q14.6381 774.44 20.049 772.435 Z" fill="#000000" fill-rule="nonzero" fill-opacity="1" /><path clip-path="url(#clip720)" d="M614.5 28.9478 L614.5 35.9153 Q611.341 34.1734 608.141 33.3227 Q604.981 32.4315 601.74 32.4315 Q594.489 32.4315 590.479 37.0496 Q586.468 41.6271 586.468 49.9314 Q586.468 58.2358 590.479 62.8538 Q594.489 67.4314 601.74 67.4314 Q604.981 67.4314 608.141 66.5807 Q611.341 65.6895 614.5 63.9476 L614.5 70.8341 Q611.381 72.2924 608.019 73.0216 Q604.697 73.7508 600.93 73.7508 Q590.681 73.7508 584.645 67.3098 Q578.609 60.8689 578.609 49.9314 Q578.609 38.832 584.686 32.472 Q590.803 26.1121 601.416 26.1121 Q604.859 26.1121 608.141 26.8413 Q611.422 27.5299 614.5 28.9478 Z" fill="#000000" fill-rule="nonzero" fill-opacity="1" /><path clip-path="url(#clip720)" d="M665.177 45.1919 L665.177 72.576 L657.724 72.576 L657.724 45.4349 Q657.724 38.994 655.212 35.7938 Q652.7 32.5936 647.677 32.5936 Q641.642 32.5936 638.158 36.4419 Q634.674 40.2903 634.674 46.9338 L634.674 72.576 L627.18 72.576 L627.18 9.54393 L634.674 9.54393 L634.674 34.2544 Q637.348 30.163 640.953 28.1376 Q644.599 26.1121 649.338 26.1121 Q657.156 26.1121 661.167 30.9732 Q665.177 35.7938 665.177 45.1919 Z" fill="#000000" fill-rule="nonzero" fill-opacity="1" /><path clip-path="url(#clip720)" d="M700.663 49.7694 Q691.63 49.7694 688.146 51.8354 Q684.662 53.9013 684.662 58.8839 Q684.662 62.8538 687.255 65.2034 Q689.888 67.5124 694.384 67.5124 Q700.582 67.5124 704.309 63.1374 Q708.076 58.7219 708.076 51.4303 L708.076 49.7694 L700.663 49.7694 M715.53 46.6907 L715.53 72.576 L708.076 72.576 L708.076 65.6895 Q705.524 69.8214 701.716 71.8063 Q697.909 73.7508 692.399 73.7508 Q685.432 73.7508 681.3 69.8619 Q677.208 65.9325 677.208 59.3701 Q677.208 51.7138 682.313 47.825 Q687.457 43.9361 697.625 43.9361 L708.076 43.9361 L708.076 43.2069 Q708.076 38.0623 704.674 35.2672 Q701.311 32.4315 695.194 32.4315 Q691.306 32.4315 687.619 33.3632 Q683.933 34.295 680.53 36.1584 L680.53 29.2718 Q684.622 27.692 688.47 26.9223 Q692.318 26.1121 695.964 26.1121 Q705.808 26.1121 710.669 31.2163 Q715.53 36.3204 715.53 46.6907 Z" fill="#000000" fill-rule="nonzero" fill-opacity="1" /><path clip-path="url(#clip720)" d="M768.597 45.1919 L768.597 72.576 L761.143 72.576 L761.143 45.4349 Q761.143 38.994 758.632 35.7938 Q756.12 32.5936 751.097 32.5936 Q745.061 32.5936 741.577 36.4419 Q738.094 40.2903 738.094 46.9338 L738.094 72.576 L730.599 72.576 L730.599 27.2059 L738.094 27.2059 L738.094 34.2544 Q740.767 30.163 744.372 28.1376 Q748.018 26.1121 752.758 26.1121 Q760.576 26.1121 764.586 30.9732 Q768.597 35.7938 768.597 45.1919 Z" fill="#000000" fill-rule="nonzero" fill-opacity="1" /><path clip-path="url(#clip720)" d="M813.319 49.3643 Q813.319 41.2625 809.957 36.8065 Q806.635 32.3505 800.599 32.3505 Q794.604 32.3505 791.241 36.8065 Q787.92 41.2625 787.92 49.3643 Q787.92 57.4256 791.241 61.8816 Q794.604 66.3376 800.599 66.3376 Q806.635 66.3376 809.957 61.8816 Q813.319 57.4256 813.319 49.3643 M820.772 66.9452 Q820.772 78.5308 815.628 84.1616 Q810.483 89.8329 799.87 89.8329 Q795.94 89.8329 792.457 89.2252 Q788.973 88.6581 785.692 87.4428 L785.692 80.1917 Q788.973 81.9741 792.173 82.8248 Q795.373 83.6755 798.695 83.6755 Q806.027 83.6755 809.673 79.8271 Q813.319 76.0193 813.319 68.282 L813.319 64.5957 Q811.01 68.6061 807.405 70.5911 Q803.799 72.576 798.776 72.576 Q790.431 72.576 785.327 66.2161 Q780.223 59.8562 780.223 49.3643 Q780.223 38.832 785.327 32.472 Q790.431 26.1121 798.776 26.1121 Q803.799 26.1121 807.405 28.0971 Q811.01 30.082 813.319 34.0924 L813.319 27.2059 L820.772 27.2059 L820.772 66.9452 Z" fill="#000000" fill-rule="nonzero" fill-opacity="1" /><path clip-path="url(#clip720)" d="M836.125 27.2059 L843.579 27.2059 L843.579 72.576 L836.125 72.576 L836.125 27.2059 M836.125 9.54393 L843.579 9.54393 L843.579 18.9825 L836.125 18.9825 L836.125 9.54393 Z" fill="#000000" fill-rule="nonzero" fill-opacity="1" /><path clip-path="url(#clip720)" d="M896.889 45.1919 L896.889 72.576 L889.435 72.576 L889.435 45.4349 Q889.435 38.994 886.924 35.7938 Q884.412 32.5936 879.389 32.5936 Q873.353 32.5936 869.869 36.4419 Q866.386 40.2903 866.386 46.9338 L866.386 72.576 L858.892 72.576 L858.892 27.2059 L866.386 27.2059 L866.386 34.2544 Q869.059 30.163 872.665 28.1376 Q876.31 26.1121 881.05 26.1121 Q888.868 26.1121 892.879 30.9732 Q896.889 35.7938 896.889 45.1919 Z" fill="#000000" fill-rule="nonzero" fill-opacity="1" /><path clip-path="url(#clip720)" d="M941.611 49.3643 Q941.611 41.2625 938.249 36.8065 Q934.927 32.3505 928.891 32.3505 Q922.896 32.3505 919.534 36.8065 Q916.212 41.2625 916.212 49.3643 Q916.212 57.4256 919.534 61.8816 Q922.896 66.3376 928.891 66.3376 Q934.927 66.3376 938.249 61.8816 Q941.611 57.4256 941.611 49.3643 M949.065 66.9452 Q949.065 78.5308 943.92 84.1616 Q938.775 89.8329 928.162 89.8329 Q924.233 89.8329 920.749 89.2252 Q917.265 88.6581 913.984 87.4428 L913.984 80.1917 Q917.265 81.9741 920.465 82.8248 Q923.665 83.6755 926.987 83.6755 Q934.319 83.6755 937.965 79.8271 Q941.611 76.0193 941.611 68.282 L941.611 64.5957 Q939.302 68.6061 935.697 70.5911 Q932.091 72.576 927.068 72.576 Q918.723 72.576 913.619 66.2161 Q908.515 59.8562 908.515 49.3643 Q908.515 38.832 913.619 32.472 Q918.723 26.1121 927.068 26.1121 Q932.091 26.1121 935.697 28.0971 Q939.302 30.082 941.611 34.0924 L941.611 27.2059 L949.065 27.2059 L949.065 66.9452 Z" fill="#000000" fill-rule="nonzero" fill-opacity="1" /><path clip-path="url(#clip720)" d="M1005.25 73.7508 Q988.439 73.7508 988.439 49.6884 Q988.439 40.1688 994.718 27.2059 L1002.74 27.2059 Q996.946 40.1688 996.946 49.8909 Q996.946 67.4314 1005.94 67.4314 Q1014.16 67.4314 1014.16 45.6375 L1021.05 45.6375 Q1021.05 67.4314 1029.27 67.4314 Q1038.27 67.4314 1038.27 49.8909 Q1038.27 40.1688 1032.47 27.2059 L1040.49 27.2059 Q1046.77 40.1688 1046.77 49.6884 Q1046.77 73.7508 1029.96 73.7508 Q1018.94 73.7508 1017.61 61.6386 Q1015.95 73.7508 1005.25 73.7508 Z" fill="#000000" fill-rule="nonzero" fill-opacity="1" /><path clip-path="url(#clip720)" d="M1094.74 86.3491 L1094.74 92.1419 L1051.63 92.1419 L1051.63 86.3491 L1094.74 86.3491 Z" fill="#000000" fill-rule="nonzero" fill-opacity="1" /><path clip-path="url(#clip720)" d="M1122.36 49.7694 Q1113.33 49.7694 1109.85 51.8354 Q1106.36 53.9013 1106.36 58.8839 Q1106.36 62.8538 1108.95 65.2034 Q1111.59 67.5124 1116.08 67.5124 Q1122.28 67.5124 1126.01 63.1374 Q1129.78 58.7219 1129.78 51.4303 L1129.78 49.7694 L1122.36 49.7694 M1137.23 46.6907 L1137.23 72.576 L1129.78 72.576 L1129.78 65.6895 Q1127.22 69.8214 1123.42 71.8063 Q1119.61 73.7508 1114.1 73.7508 Q1107.13 73.7508 1103 69.8619 Q1098.91 65.9325 1098.91 59.3701 Q1098.91 51.7138 1104.01 47.825 Q1109.16 43.9361 1119.32 43.9361 L1129.78 43.9361 L1129.78 43.2069 Q1129.78 38.0623 1126.37 35.2672 Q1123.01 32.4315 1116.89 32.4315 Q1113 32.4315 1109.32 33.3632 Q1105.63 34.295 1102.23 36.1584 L1102.23 29.2718 Q1106.32 27.692 1110.17 26.9223 Q1114.02 26.1121 1117.66 26.1121 Q1127.51 26.1121 1132.37 31.2163 Q1137.23 36.3204 1137.23 46.6907 Z" fill="#000000" fill-rule="nonzero" fill-opacity="1" /><path clip-path="url(#clip720)" d="M1185.15 49.9314 Q1185.15 41.7081 1181.75 37.0496 Q1178.39 32.3505 1172.47 32.3505 Q1166.56 32.3505 1163.15 37.0496 Q1159.79 41.7081 1159.79 49.9314 Q1159.79 58.1548 1163.15 62.8538 Q1166.56 67.5124 1172.47 67.5124 Q1178.39 67.5124 1181.75 62.8538 Q1185.15 58.1548 1185.15 49.9314 M1159.79 34.0924 Q1162.14 30.0415 1165.71 28.0971 Q1169.31 26.1121 1174.29 26.1121 Q1182.56 26.1121 1187.7 32.6746 Q1192.89 39.2371 1192.89 49.9314 Q1192.89 60.6258 1187.7 67.1883 Q1182.56 73.7508 1174.29 73.7508 Q1169.31 73.7508 1165.71 71.8063 Q1162.14 69.8214 1159.79 65.7705 L1159.79 72.576 L1152.3 72.576 L1152.3 9.54393 L1159.79 9.54393 L1159.79 34.0924 Z" fill="#000000" fill-rule="nonzero" fill-opacity="1" /><path clip-path="url(#clip720)" d="M1227.28 27.2059 L1234.73 27.2059 L1244.05 62.6108 L1253.33 27.2059 L1262.12 27.2059 L1271.44 62.6108 L1280.71 27.2059 L1288.17 27.2059 L1276.3 72.576 L1267.51 72.576 L1257.74 35.3887 L1247.94 72.576 L1239.15 72.576 L1227.28 27.2059 Z" fill="#000000" fill-rule="nonzero" fill-opacity="1" /><path clip-path="url(#clip720)" d="M1337.18 45.1919 L1337.18 72.576 L1329.73 72.576 L1329.73 45.4349 Q1329.73 38.994 1327.22 35.7938 Q1324.7 32.5936 1319.68 32.5936 Q1313.65 32.5936 1310.16 36.4419 Q1306.68 40.2903 1306.68 46.9338 L1306.68 72.576 L1299.18 72.576 L1299.18 9.54393 L1306.68 9.54393 L1306.68 34.2544 Q1309.35 30.163 1312.96 28.1376 Q1316.6 26.1121 1321.34 26.1121 Q1329.16 26.1121 1333.17 30.9732 Q1337.18 35.7938 1337.18 45.1919 Z" fill="#000000" fill-rule="nonzero" fill-opacity="1" /><path clip-path="url(#clip720)" d="M1390.86 48.0275 L1390.86 51.6733 L1356.59 51.6733 Q1357.07 59.3701 1361.2 63.421 Q1365.38 67.4314 1372.79 67.4314 Q1377.08 67.4314 1381.09 66.3781 Q1385.14 65.3249 1389.11 63.2184 L1389.11 70.267 Q1385.1 71.9684 1380.89 72.8596 Q1376.68 73.7508 1372.34 73.7508 Q1361.49 73.7508 1355.13 67.4314 Q1348.81 61.1119 1348.81 50.3365 Q1348.81 39.1965 1354.8 32.6746 Q1360.84 26.1121 1371.05 26.1121 Q1380.2 26.1121 1385.51 32.0264 Q1390.86 37.9003 1390.86 48.0275 M1383.4 45.84 Q1383.32 39.7232 1379.96 36.0774 Q1376.64 32.4315 1371.13 32.4315 Q1364.89 32.4315 1361.12 35.9558 Q1357.4 39.4801 1356.83 45.8805 L1383.4 45.84 Z" fill="#000000" fill-rule="nonzero" fill-opacity="1" /><path clip-path="url(#clip720)" d="M1440.8 45.1919 L1440.8 72.576 L1433.35 72.576 L1433.35 45.4349 Q1433.35 38.994 1430.84 35.7938 Q1428.33 32.5936 1423.3 32.5936 Q1417.27 32.5936 1413.78 36.4419 Q1410.3 40.2903 1410.3 46.9338 L1410.3 72.576 L1402.81 72.576 L1402.81 27.2059 L1410.3 27.2059 L1410.3 34.2544 Q1412.97 30.163 1416.58 28.1376 Q1420.23 26.1121 1424.96 26.1121 Q1432.78 26.1121 1436.79 30.9732 Q1440.8 35.7938 1440.8 45.1919 Z" fill="#000000" fill-rule="nonzero" fill-opacity="1" /><path clip-path="url(#clip720)" d="M1496.5 73.7508 Q1479.69 73.7508 1479.69 49.6884 Q1479.69 40.1688 1485.97 27.2059 L1493.99 27.2059 Q1488.2 40.1688 1488.2 49.8909 Q1488.2 67.4314 1497.19 67.4314 Q1505.42 67.4314 1505.42 45.6375 L1512.3 45.6375 Q1512.3 67.4314 1520.53 67.4314 Q1529.52 67.4314 1529.52 49.8909 Q1529.52 40.1688 1523.73 27.2059 L1531.75 27.2059 Q1538.03 40.1688 1538.03 49.6884 Q1538.03 73.7508 1521.21 73.7508 Q1510.2 73.7508 1508.86 61.6386 Q1507.2 73.7508 1496.5 73.7508 Z" fill="#000000" fill-rule="nonzero" fill-opacity="1" /><path clip-path="url(#clip720)" d="M1585.99 86.3491 L1585.99 92.1419 L1542.89 92.1419 L1542.89 86.3491 L1585.99 86.3491 Z" fill="#000000" fill-rule="nonzero" fill-opacity="1" /><path clip-path="url(#clip720)" d="M1619.29 34.1734 Q1618.03 33.4443 1616.53 33.1202 Q1615.07 32.7556 1613.29 32.7556 Q1606.97 32.7556 1603.57 36.8875 Q1600.21 40.9789 1600.21 48.6757 L1600.21 72.576 L1592.71 72.576 L1592.71 27.2059 L1600.21 27.2059 L1600.21 34.2544 Q1602.56 30.1225 1606.32 28.1376 Q1610.09 26.1121 1615.48 26.1121 Q1616.25 26.1121 1617.18 26.2337 Q1618.11 26.3147 1619.25 26.5172 L1619.29 34.1734 Z" fill="#000000" fill-rule="nonzero" fill-opacity="1" /><path clip-path="url(#clip720)" d="M1654.45 34.9026 L1706.38 34.9026 L1706.38 41.7081 L1654.45 41.7081 L1654.45 34.9026 M1654.45 51.4303 L1706.38 51.4303 L1706.38 58.3168 L1654.45 58.3168 L1654.45 51.4303 Z" fill="#000000" fill-rule="nonzero" fill-opacity="1" /><path clip-path="url(#clip720)" d="M1767.91 17.4837 Q1761.59 17.4837 1758.39 23.7221 Q1755.24 29.92 1755.24 42.3968 Q1755.24 54.833 1758.39 61.0714 Q1761.59 67.2693 1767.91 67.2693 Q1774.27 67.2693 1777.43 61.0714 Q1780.63 54.833 1780.63 42.3968 Q1780.63 29.92 1777.43 23.7221 Q1774.27 17.4837 1767.91 17.4837 M1767.91 11.0023 Q1778.08 11.0023 1783.43 19.0636 Q1788.82 27.0843 1788.82 42.3968 Q1788.82 57.6687 1783.43 65.73 Q1778.08 73.7508 1767.91 73.7508 Q1757.75 73.7508 1752.36 65.73 Q1747.01 57.6687 1747.01 42.3968 Q1747.01 27.0843 1752.36 19.0636 Q1757.75 11.0023 1767.91 11.0023 Z" fill="#000000" fill-rule="nonzero" fill-opacity="1" /><path clip-path="url(#clip720)" d="M1803.2 62.2867 L1811.75 62.2867 L1811.75 72.576 L1803.2 72.576 L1803.2 62.2867 Z" fill="#000000" fill-rule="nonzero" fill-opacity="1" /><path clip-path="url(#clip720)" d="M1847.07 17.4837 Q1840.75 17.4837 1837.55 23.7221 Q1834.39 29.92 1834.39 42.3968 Q1834.39 54.833 1837.55 61.0714 Q1840.75 67.2693 1847.07 67.2693 Q1853.43 67.2693 1856.59 61.0714 Q1859.79 54.833 1859.79 42.3968 Q1859.79 29.92 1856.59 23.7221 Q1853.43 17.4837 1847.07 17.4837 M1847.07 11.0023 Q1857.24 11.0023 1862.58 19.0636 Q1867.97 27.0843 1867.97 42.3968 Q1867.97 57.6687 1862.58 65.73 Q1857.24 73.7508 1847.07 73.7508 Q1836.9 73.7508 1831.51 65.73 Q1826.17 57.6687 1826.17 42.3968 Q1826.17 27.0843 1831.51 19.0636 Q1836.9 11.0023 1847.07 11.0023 Z" fill="#000000" fill-rule="nonzero" fill-opacity="1" /><path clip-path="url(#clip720)" d="M1899.85 17.4837 Q1893.53 17.4837 1890.33 23.7221 Q1887.17 29.92 1887.17 42.3968 Q1887.17 54.833 1890.33 61.0714 Q1893.53 67.2693 1899.85 67.2693 Q1906.21 67.2693 1909.37 61.0714 Q1912.57 54.833 1912.57 42.3968 Q1912.57 29.92 1909.37 23.7221 Q1906.21 17.4837 1899.85 17.4837 M1899.85 11.0023 Q1910.02 11.0023 1915.37 19.0636 Q1920.76 27.0843 1920.76 42.3968 Q1920.76 57.6687 1915.37 65.73 Q1910.02 73.7508 1899.85 73.7508 Q1889.68 73.7508 1884.3 65.73 Q1878.95 57.6687 1878.95 42.3968 Q1878.95 27.0843 1884.3 19.0636 Q1889.68 11.0023 1899.85 11.0023 Z" fill="#000000" fill-rule="nonzero" fill-opacity="1" /><path clip-path="url(#clip720)" d="M1952.64 17.4837 Q1946.32 17.4837 1943.12 23.7221 Q1939.96 29.92 1939.96 42.3968 Q1939.96 54.833 1943.12 61.0714 Q1946.32 67.2693 1952.64 67.2693 Q1959 67.2693 1962.16 61.0714 Q1965.36 54.833 1965.36 42.3968 Q1965.36 29.92 1962.16 23.7221 Q1959 17.4837 1952.64 17.4837 M1952.64 11.0023 Q1962.8 11.0023 1968.15 19.0636 Q1973.54 27.0843 1973.54 42.3968 Q1973.54 57.6687 1968.15 65.73 Q1962.8 73.7508 1952.64 73.7508 Q1942.47 73.7508 1937.08 65.73 Q1931.73 57.6687 1931.73 42.3968 Q1931.73 27.0843 1937.08 19.0636 Q1942.47 11.0023 1952.64 11.0023 Z" fill="#000000" fill-rule="nonzero" fill-opacity="1" /><path clip-path="url(#clip720)" d="M1989.34 65.6895 L2002.7 65.6895 L2002.7 19.5497 L1988.16 22.4663 L1988.16 15.0127 L2002.62 12.096 L2010.81 12.096 L2010.81 65.6895 L2024.17 65.6895 L2024.17 72.576 L1989.34 72.576 L1989.34 65.6895 Z" fill="#000000" fill-rule="nonzero" fill-opacity="1" /><path clip-path="url(#clip722)" d="M250.028 1423.18 L271.268 1410.05 L292.507 1396.92 L313.747 1396.92 L334.987 1383.79 L356.227 1370.67 L377.466 1370.67 L398.706 1357.54 L419.946 1357.54 L441.185 1357.54 L462.425 1357.54 L483.665 1344.41 L504.904 1344.41 L526.144 1344.41 L547.384 1344.41 L568.623 1344.41 L589.863 1331.28 L611.103 1331.28 L632.342 1331.28 L653.582 1331.28 L674.822 1331.28 L696.061 1331.28 L717.301 1331.28 L738.541 1331.28 L759.78 1331.28 L781.02 1318.15 L802.26 1318.15 L823.499 1318.15 L844.739 1318.15 L865.979 1318.15 L887.218 1318.15 L908.458 1318.15 L929.698 1318.15 L950.937 1318.15 L972.177 1318.15 L993.417 1318.15 L1014.66 1318.15 L1035.9 1318.15 L1057.14 1318.15 L1078.38 1318.15 L1099.62 1318.15 L1120.85 1318.15 L1142.09 1318.15 L1163.33 1318.15 L1184.57 1318.15 L1205.81 1318.15 L1227.05 1318.15 L1248.29 1305.02 L1269.53 1305.02 L1290.77 1305.02 L1312.01 1305.02 L1333.25 1305.02 L1354.49 1305.02 L1375.73 1305.02 L1396.97 1305.02 L1418.21 1305.02 L1439.45 1305.02 L1460.69 1305.02 L1481.93 1305.02 L1503.17 1305.02 L1524.41 1305.02 L1545.65 1305.02 L1566.89 1305.02 L1588.13 1305.02 L1609.37 1305.02 L1630.61 1305.02 L1651.85 1305.02 L1673.09 1305.02 L1694.33 1305.02 L1715.57 1305.02 L1736.81 1305.02 L1758.05 1305.02 L1779.28 1305.02 L1800.52 1305.02 L1821.76 1305.02 L1843 1305.02 L1864.24 1305.02 L1885.48 1305.02 L1906.72 1305.02 L1927.96 1305.02 L1949.2 1305.02 L1970.44 1305.02 L1991.68 1305.02 L2012.92 1305.02 L2034.16 1305.02 L2055.4 1305.02 L2076.64 1305.02 L2097.88 1305.02 L2119.12 1305.02 L2140.36 1305.02 L2161.6 1305.02 L2182.84 1305.02 L2204.08 1305.02 L2225.32 1305.02 L2246.56 1305.02 L2267.8 1305.02 L2289.04 1305.02 L2310.28 1305.02 L2331.52 1305.02 L2352.76 1305.02 L2352.76 1383.79 L2331.52 1383.79 L2310.28 1383.79 L2289.04 1383.79 L2267.8 1383.79 L2246.56 1383.79 L2225.32 1383.79 L2204.08 1383.79 L2182.84 1383.79 L2161.6 1383.79 L2140.36 1383.79 L2119.12 1383.79 L2097.88 1383.79 L2076.64 1383.79 L2055.4 1383.79 L2034.16 1383.79 L2012.92 1383.79 L1991.68 1383.79 L1970.44 1383.79 L1949.2 1383.79 L1927.96 1383.79 L1906.72 1383.79 L1885.48 1383.79 L1864.24 1383.79 L1843 1383.79 L1821.76 1383.79 L1800.52 1383.79 L1779.28 1383.79 L1758.05 1383.79 L1736.81 1383.79 L1715.57 1383.79 L1694.33 1383.79 L1673.09 1383.79 L1651.85 1383.79 L1630.61 1383.79 L1609.37 1383.79 L1588.13 1383.79 L1566.89 1383.79 L1545.65 1383.79 L1524.41 1383.79 L1503.17 1383.79 L1481.93 1383.79 L1460.69 1383.79 L1439.45 1383.79 L1418.21 1383.79 L1396.97 1383.79 L1375.73 1383.79 L1354.49 1383.79 L1333.25 1383.79 L1312.01 1383.79 L1290.77 1383.79 L1269.53 1383.79 L1248.29 1383.79 L1227.05 1383.79 L1205.81 1383.79 L1184.57 1383.79 L1163.33 1383.79 L1142.09 1383.79 L1120.85 1383.79 L1099.62 1383.79 L1078.38 1383.79 L1057.14 1383.79 L1035.9 1383.79 L1014.66 1383.79 L993.417 1383.79 L972.177 1396.92 L950.937 1396.92 L929.698 1396.92 L908.458 1396.92 L887.218 1396.92 L865.979 1396.92 L844.739 1396.92 L823.499 1396.92 L802.26 1396.92 L781.02 1396.92 L759.78 1396.92 L738.541 1396.92 L717.301 1396.92 L696.061 1396.92 L674.822 1396.92 L653.582 1396.92 L632.342 1396.92 L611.103 1396.92 L589.863 1396.92 L568.623 1396.92 L547.384 1396.92 L526.144 1410.05 L504.904 1410.05 L483.665 1410.05 L462.425 1410.05 L441.185 1410.05 L419.946 1410.05 L398.706 1410.05 L377.466 1423.18 L356.227 1423.18 L334.987 1423.18 L313.747 1423.18 L292.507 1423.18 L271.268 1423.18 L250.028 1423.18  Z" fill="#1f77b4" fill-rule="evenodd" fill-opacity="0.45"/>
<polyline clip-path="url(#clip722)" style="stroke:#1f77b4; stroke-linecap:round; stroke-linejoin:round; stroke-width:4; stroke-opacity:1; fill:none" points="250.028,1423.18 271.268,1410.05 292.507,1396.92 313.747,1396.92 334.987,1383.79 356.227,1370.67 377.466,1370.67 398.706,1357.54 419.946,1357.54 441.185,1357.54 462.425,1357.54 483.665,1344.41 504.904,1344.41 526.144,1344.41 547.384,1344.41 568.623,1344.41 589.863,1331.28 611.103,1331.28 632.342,1331.28 653.582,1331.28 674.822,1331.28 696.061,1331.28 717.301,1331.28 738.541,1331.28 759.78,1331.28 781.02,1318.15 802.26,1318.15 823.499,1318.15 844.739,1318.15 865.979,1318.15 887.218,1318.15 908.458,1318.15 929.698,1318.15 950.937,1318.15 972.177,1318.15 993.417,1318.15 1014.66,1318.15 1035.9,1318.15 1057.14,1318.15 1078.38,1318.15 1099.62,1318.15 1120.85,1318.15 1142.09,1318.15 1163.33,1318.15 1184.57,1318.15 1205.81,1318.15 1227.05,1318.15 1248.29,1305.02 1269.53,1305.02 1290.77,1305.02 1312.01,1305.02 1333.25,1305.02 1354.49,1305.02 1375.73,1305.02 1396.97,1305.02 1418.21,1305.02 1439.45,1305.02 1460.69,1305.02 1481.93,1305.02 1503.17,1305.02 1524.41,1305.02 1545.65,1305.02 1566.89,1305.02 1588.13,1305.02 1609.37,1305.02 1630.61,1305.02 1651.85,1305.02 1673.09,1305.02 1694.33,1305.02 1715.57,1305.02 1736.81,1305.02 1758.05,1305.02 1779.28,1305.02 1800.52,1305.02 1821.76,1305.02 1843,1305.02 1864.24,1305.02 1885.48,1305.02 1906.72,1305.02 1927.96,1305.02 1949.2,1305.02 1970.44,1305.02 1991.68,1305.02 2012.92,1305.02 2034.16,1305.02 2055.4,1305.02 2076.64,1305.02 2097.88,1305.02 2119.12,1305.02 2140.36,1305.02 2161.6,1305.02 2182.84,1305.02 2204.08,1305.02 2225.32,1305.02 2246.56,1305.02 2267.8,1305.02 2289.04,1305.02 2310.28,1305.02 2331.52,1305.02 2352.76,1305.02 "/>
<path clip-path="url(#clip722)" d="M250.028 1410.05 L271.268 1383.79 L292.507 1370.67 L313.747 1344.41 L334.987 1331.28 L356.227 1318.15 L377.466 1318.15 L398.706 1305.02 L419.946 1291.9 L441.185 1291.9 L462.425 1291.9 L483.665 1278.77 L504.904 1278.77 L526.144 1278.77 L547.384 1265.64 L568.623 1265.64 L589.863 1265.64 L611.103 1265.64 L632.342 1252.51 L653.582 1252.51 L674.822 1252.51 L696.061 1252.51 L717.301 1252.51 L738.541 1252.51 L759.78 1239.38 L781.02 1239.38 L802.26 1239.38 L823.499 1239.38 L844.739 1239.38 L865.979 1239.38 L887.218 1239.38 L908.458 1239.38 L929.698 1239.38 L950.937 1239.38 L972.177 1226.25 L993.417 1226.25 L1014.66 1226.25 L1035.9 1226.25 L1057.14 1226.25 L1078.38 1226.25 L1099.62 1226.25 L1120.85 1226.25 L1142.09 1226.25 L1163.33 1226.25 L1184.57 1226.25 L1205.81 1226.25 L1227.05 1226.25 L1248.29 1226.25 L1269.53 1226.25 L1290.77 1226.25 L1312.01 1226.25 L1333.25 1226.25 L1354.49 1226.25 L1375.73 1226.25 L1396.97 1226.25 L1418.21 1226.25 L1439.45 1213.13 L1460.69 1213.13 L1481.93 1213.13 L1503.17 1213.13 L1524.41 1213.13 L1545.65 1213.13 L1566.89 1213.13 L1588.13 1213.13 L1609.37 1213.13 L1630.61 1213.13 L1651.85 1213.13 L1673.09 1213.13 L1694.33 1213.13 L1715.57 1213.13 L1736.81 1213.13 L1758.05 1213.13 L1779.28 1213.13 L1800.52 1213.13 L1821.76 1213.13 L1843 1213.13 L1864.24 1213.13 L1885.48 1213.13 L1906.72 1213.13 L1927.96 1213.13 L1949.2 1213.13 L1970.44 1213.13 L1991.68 1213.13 L2012.92 1213.13 L2034.16 1213.13 L2055.4 1213.13 L2076.64 1213.13 L2097.88 1213.13 L2119.12 1213.13 L2140.36 1213.13 L2161.6 1213.13 L2182.84 1213.13 L2204.08 1213.13 L2225.32 1213.13 L2246.56 1213.13 L2267.8 1213.13 L2289.04 1213.13 L2310.28 1213.13 L2331.52 1213.13 L2352.76 1213.13 L2352.76 1331.28 L2331.52 1331.28 L2310.28 1331.28 L2289.04 1331.28 L2267.8 1331.28 L2246.56 1331.28 L2225.32 1331.28 L2204.08 1331.28 L2182.84 1331.28 L2161.6 1331.28 L2140.36 1331.28 L2119.12 1331.28 L2097.88 1331.28 L2076.64 1331.28 L2055.4 1331.28 L2034.16 1331.28 L2012.92 1331.28 L1991.68 1331.28 L1970.44 1331.28 L1949.2 1331.28 L1927.96 1331.28 L1906.72 1331.28 L1885.48 1331.28 L1864.24 1331.28 L1843 1331.28 L1821.76 1331.28 L1800.52 1331.28 L1779.28 1331.28 L1758.05 1331.28 L1736.81 1331.28 L1715.57 1331.28 L1694.33 1331.28 L1673.09 1331.28 L1651.85 1331.28 L1630.61 1331.28 L1609.37 1331.28 L1588.13 1331.28 L1566.89 1331.28 L1545.65 1331.28 L1524.41 1331.28 L1503.17 1331.28 L1481.93 1331.28 L1460.69 1331.28 L1439.45 1331.28 L1418.21 1331.28 L1396.97 1331.28 L1375.73 1331.28 L1354.49 1331.28 L1333.25 1331.28 L1312.01 1331.28 L1290.77 1331.28 L1269.53 1331.28 L1248.29 1344.41 L1227.05 1344.41 L1205.81 1344.41 L1184.57 1344.41 L1163.33 1344.41 L1142.09 1344.41 L1120.85 1344.41 L1099.62 1344.41 L1078.38 1344.41 L1057.14 1344.41 L1035.9 1344.41 L1014.66 1344.41 L993.417 1344.41 L972.177 1344.41 L950.937 1344.41 L929.698 1344.41 L908.458 1344.41 L887.218 1344.41 L865.979 1344.41 L844.739 1344.41 L823.499 1344.41 L802.26 1344.41 L781.02 1344.41 L759.78 1357.54 L738.541 1357.54 L717.301 1357.54 L696.061 1357.54 L674.822 1357.54 L653.582 1357.54 L632.342 1357.54 L611.103 1357.54 L589.863 1357.54 L568.623 1357.54 L547.384 1370.67 L526.144 1370.67 L504.904 1370.67 L483.665 1370.67 L462.425 1370.67 L441.185 1383.79 L419.946 1383.79 L398.706 1383.79 L377.466 1396.92 L356.227 1396.92 L334.987 1396.92 L313.747 1410.05 L292.507 1423.18 L271.268 1423.18 L250.028 1423.18  Z" fill="#ff7e0d" fill-rule="evenodd" fill-opacity="0.45"/>
<polyline clip-path="url(#clip722)" style="stroke:#ff7e0d; stroke-linecap:round; stroke-linejoin:round; stroke-width:4; stroke-opacity:1; fill:none" points="250.028,1410.05 271.268,1383.79 292.507,1370.67 313.747,1344.41 334.987,1331.28 356.227,1318.15 377.466,1318.15 398.706,1305.02 419.946,1291.9 441.185,1291.9 462.425,1291.9 483.665,1278.77 504.904,1278.77 526.144,1278.77 547.384,1265.64 568.623,1265.64 589.863,1265.64 611.103,1265.64 632.342,1252.51 653.582,1252.51 674.822,1252.51 696.061,1252.51 717.301,1252.51 738.541,1252.51 759.78,1239.38 781.02,1239.38 802.26,1239.38 823.499,1239.38 844.739,1239.38 865.979,1239.38 887.218,1239.38 908.458,1239.38 929.698,1239.38 950.937,1239.38 972.177,1226.25 993.417,1226.25 1014.66,1226.25 1035.9,1226.25 1057.14,1226.25 1078.38,1226.25 1099.62,1226.25 1120.85,1226.25 1142.09,1226.25 1163.33,1226.25 1184.57,1226.25 1205.81,1226.25 1227.05,1226.25 1248.29,1226.25 1269.53,1226.25 1290.77,1226.25 1312.01,1226.25 1333.25,1226.25 1354.49,1226.25 1375.73,1226.25 1396.97,1226.25 1418.21,1226.25 1439.45,1213.13 1460.69,1213.13 1481.93,1213.13 1503.17,1213.13 1524.41,1213.13 1545.65,1213.13 1566.89,1213.13 1588.13,1213.13 1609.37,1213.13 1630.61,1213.13 1651.85,1213.13 1673.09,1213.13 1694.33,1213.13 1715.57,1213.13 1736.81,1213.13 1758.05,1213.13 1779.28,1213.13 1800.52,1213.13 1821.76,1213.13 1843,1213.13 1864.24,1213.13 1885.48,1213.13 1906.72,1213.13 1927.96,1213.13 1949.2,1213.13 1970.44,1213.13 1991.68,1213.13 2012.92,1213.13 2034.16,1213.13 2055.4,1213.13 2076.64,1213.13 2097.88,1213.13 2119.12,1213.13 2140.36,1213.13 2161.6,1213.13 2182.84,1213.13 2204.08,1213.13 2225.32,1213.13 2246.56,1213.13 2267.8,1213.13 2289.04,1213.13 2310.28,1213.13 2331.52,1213.13 2352.76,1213.13 "/>
<path clip-path="url(#clip722)" d="M250.028 1383.79 L271.268 1344.41 L292.507 1305.02 L313.747 1278.77 L334.987 1265.64 L356.227 1239.38 L377.466 1226.25 L398.706 1213.13 L419.946 1200 L441.185 1186.87 L462.425 1186.87 L483.665 1173.74 L504.904 1173.74 L526.144 1160.61 L547.384 1160.61 L568.623 1147.48 L589.863 1147.48 L611.103 1147.48 L632.342 1134.36 L653.582 1134.36 L674.822 1134.36 L696.061 1134.36 L717.301 1121.23 L738.541 1121.23 L759.78 1121.23 L781.02 1121.23 L802.26 1121.23 L823.499 1108.1 L844.739 1108.1 L865.979 1108.1 L887.218 1108.1 L908.458 1108.1 L929.698 1108.1 L950.937 1108.1 L972.177 1094.97 L993.417 1094.97 L1014.66 1094.97 L1035.9 1094.97 L1057.14 1094.97 L1078.38 1094.97 L1099.62 1094.97 L1120.85 1094.97 L1142.09 1094.97 L1163.33 1094.97 L1184.57 1094.97 L1205.81 1081.84 L1227.05 1081.84 L1248.29 1081.84 L1269.53 1081.84 L1290.77 1081.84 L1312.01 1081.84 L1333.25 1081.84 L1354.49 1081.84 L1375.73 1081.84 L1396.97 1081.84 L1418.21 1081.84 L1439.45 1081.84 L1460.69 1081.84 L1481.93 1081.84 L1503.17 1081.84 L1524.41 1081.84 L1545.65 1081.84 L1566.89 1081.84 L1588.13 1081.84 L1609.37 1081.84 L1630.61 1081.84 L1651.85 1068.71 L1673.09 1068.71 L1694.33 1068.71 L1715.57 1068.71 L1736.81 1068.71 L1758.05 1068.71 L1779.28 1068.71 L1800.52 1068.71 L1821.76 1068.71 L1843 1068.71 L1864.24 1068.71 L1885.48 1068.71 L1906.72 1068.71 L1927.96 1068.71 L1949.2 1068.71 L1970.44 1068.71 L1991.68 1068.71 L2012.92 1068.71 L2034.16 1068.71 L2055.4 1068.71 L2076.64 1068.71 L2097.88 1068.71 L2119.12 1068.71 L2140.36 1068.71 L2161.6 1068.71 L2182.84 1068.71 L2204.08 1068.71 L2225.32 1068.71 L2246.56 1068.71 L2267.8 1068.71 L2289.04 1068.71 L2310.28 1068.71 L2331.52 1068.71 L2352.76 1068.71 L2352.76 1239.38 L2331.52 1239.38 L2310.28 1239.38 L2289.04 1239.38 L2267.8 1239.38 L2246.56 1239.38 L2225.32 1239.38 L2204.08 1239.38 L2182.84 1239.38 L2161.6 1239.38 L2140.36 1239.38 L2119.12 1239.38 L2097.88 1239.38 L2076.64 1239.38 L2055.4 1239.38 L2034.16 1239.38 L2012.92 1239.38 L1991.68 1239.38 L1970.44 1239.38 L1949.2 1239.38 L1927.96 1239.38 L1906.72 1239.38 L1885.48 1239.38 L1864.24 1239.38 L1843 1239.38 L1821.76 1239.38 L1800.52 1239.38 L1779.28 1239.38 L1758.05 1239.38 L1736.81 1239.38 L1715.57 1239.38 L1694.33 1239.38 L1673.09 1239.38 L1651.85 1239.38 L1630.61 1239.38 L1609.37 1239.38 L1588.13 1239.38 L1566.89 1239.38 L1545.65 1239.38 L1524.41 1239.38 L1503.17 1239.38 L1481.93 1239.38 L1460.69 1252.51 L1439.45 1252.51 L1418.21 1252.51 L1396.97 1252.51 L1375.73 1252.51 L1354.49 1252.51 L1333.25 1252.51 L1312.01 1252.51 L1290.77 1252.51 L1269.53 1252.51 L1248.29 1252.51 L1227.05 1252.51 L1205.81 1252.51 L1184.57 1252.51 L1163.33 1252.51 L1142.09 1252.51 L1120.85 1252.51 L1099.62 1252.51 L1078.38 1252.51 L1057.14 1252.51 L1035.9 1252.51 L1014.66 1252.51 L993.417 1265.64 L972.177 1265.64 L950.937 1265.64 L929.698 1265.64 L908.458 1265.64 L887.218 1265.64 L865.979 1265.64 L844.739 1265.64 L823.499 1265.64 L802.26 1265.64 L781.02 1265.64 L759.78 1278.77 L738.541 1278.77 L717.301 1278.77 L696.061 1278.77 L674.822 1278.77 L653.582 1278.77 L632.342 1291.9 L611.103 1291.9 L589.863 1291.9 L568.623 1291.9 L547.384 1291.9 L526.144 1305.02 L504.904 1305.02 L483.665 1305.02 L462.425 1318.15 L441.185 1318.15 L419.946 1331.28 L398.706 1331.28 L377.466 1344.41 L356.227 1357.54 L334.987 1357.54 L313.747 1370.67 L292.507 1383.79 L271.268 1410.05 L250.028 1423.18  Z" fill="#2ba02b" fill-rule="evenodd" fill-opacity="0.45"/>
<polyline clip-path="url(#clip722)" style="stroke:#2ba02b; stroke-linecap:round; stroke-linejoin:round; stroke-width:4; stroke-opacity:1; fill:none" points="250.028,1383.79 271.268,1344.41 292.507,1305.02 313.747,1278.77 334.987,1265.64 356.227,1239.38 377.466,1226.25 398.706,1213.13 419.946,1200 441.185,1186.87 462.425,1186.87 483.665,1173.74 504.904,1173.74 526.144,1160.61 547.384,1160.61 568.623,1147.48 589.863,1147.48 611.103,1147.48 632.342,1134.36 653.582,1134.36 674.822,1134.36 696.061,1134.36 717.301,1121.23 738.541,1121.23 759.78,1121.23 781.02,1121.23 802.26,1121.23 823.499,1108.1 844.739,1108.1 865.979,1108.1 887.218,1108.1 908.458,1108.1 929.698,1108.1 950.937,1108.1 972.177,1094.97 993.417,1094.97 1014.66,1094.97 1035.9,1094.97 1057.14,1094.97 1078.38,1094.97 1099.62,1094.97 1120.85,1094.97 1142.09,1094.97 1163.33,1094.97 1184.57,1094.97 1205.81,1081.84 1227.05,1081.84 1248.29,1081.84 1269.53,1081.84 1290.77,1081.84 1312.01,1081.84 1333.25,1081.84 1354.49,1081.84 1375.73,1081.84 1396.97,1081.84 1418.21,1081.84 1439.45,1081.84 1460.69,1081.84 1481.93,1081.84 1503.17,1081.84 1524.41,1081.84 1545.65,1081.84 1566.89,1081.84 1588.13,1081.84 1609.37,1081.84 1630.61,1081.84 1651.85,1068.71 1673.09,1068.71 1694.33,1068.71 1715.57,1068.71 1736.81,1068.71 1758.05,1068.71 1779.28,1068.71 1800.52,1068.71 1821.76,1068.71 1843,1068.71 1864.24,1068.71 1885.48,1068.71 1906.72,1068.71 1927.96,1068.71 1949.2,1068.71 1970.44,1068.71 1991.68,1068.71 2012.92,1068.71 2034.16,1068.71 2055.4,1068.71 2076.64,1068.71 2097.88,1068.71 2119.12,1068.71 2140.36,1068.71 2161.6,1068.71 2182.84,1068.71 2204.08,1068.71 2225.32,1068.71 2246.56,1068.71 2267.8,1068.71 2289.04,1068.71 2310.28,1068.71 2331.52,1068.71 2352.76,1068.71 "/>
<path clip-path="url(#clip722)" d="M250.028 1331.28 L271.268 1265.64 L292.507 1213.13 L313.747 1173.74 L334.987 1147.48 L356.227 1121.23 L377.466 1094.97 L398.706 1068.71 L419.946 1055.59 L441.185 1042.46 L462.425 1029.33 L483.665 1016.2 L504.904 1003.07 L526.144 989.944 L547.384 976.816 L568.623 976.816 L589.863 963.687 L611.103 963.687 L632.342 950.559 L653.582 950.559 L674.822 937.43 L696.061 937.43 L717.301 937.43 L738.541 924.302 L759.78 924.302 L781.02 924.302 L802.26 911.174 L823.499 911.174 L844.739 911.174 L865.979 911.174 L887.218 911.174 L908.458 898.045 L929.698 898.045 L950.937 898.045 L972.177 898.045 L993.417 898.045 L1014.66 884.917 L1035.9 884.917 L1057.14 884.917 L1078.38 884.917 L1099.62 884.917 L1120.85 884.917 L1142.09 884.917 L1163.33 884.917 L1184.57 871.789 L1205.81 871.789 L1227.05 871.789 L1248.29 871.789 L1269.53 871.789 L1290.77 871.789 L1312.01 871.789 L1333.25 871.789 L1354.49 871.789 L1375.73 871.789 L1396.97 871.789 L1418.21 858.66 L1439.45 858.66 L1460.69 858.66 L1481.93 858.66 L1503.17 858.66 L1524.41 858.66 L1545.65 858.66 L1566.89 858.66 L1588.13 858.66 L1609.37 858.66 L1630.61 858.66 L1651.85 858.66 L1673.09 858.66 L1694.33 858.66 L1715.57 858.66 L1736.81 858.66 L1758.05 858.66 L1779.28 845.532 L1800.52 845.532 L1821.76 845.532 L1843 845.532 L1864.24 845.532 L1885.48 845.532 L1906.72 845.532 L1927.96 845.532 L1949.2 845.532 L1970.44 845.532 L1991.68 845.532 L2012.92 845.532 L2034.16 845.532 L2055.4 845.532 L2076.64 845.532 L2097.88 845.532 L2119.12 845.532 L2140.36 845.532 L2161.6 845.532 L2182.84 845.532 L2204.08 845.532 L2225.32 845.532 L2246.56 845.532 L2267.8 845.532 L2289.04 845.532 L2310.28 845.532 L2331.52 845.532 L2352.76 845.532 L2352.76 1068.71 L2331.52 1068.71 L2310.28 1068.71 L2289.04 1068.71 L2267.8 1068.71 L2246.56 1068.71 L2225.32 1068.71 L2204.08 1068.71 L2182.84 1068.71 L2161.6 1068.71 L2140.36 1068.71 L2119.12 1081.84 L2097.88 1081.84 L2076.64 1081.84 L2055.4 1081.84 L2034.16 1081.84 L2012.92 1081.84 L1991.68 1081.84 L1970.44 1081.84 L1949.2 1081.84 L1927.96 1081.84 L1906.72 1081.84 L1885.48 1081.84 L1864.24 1081.84 L1843 1081.84 L1821.76 1081.84 L1800.52 1081.84 L1779.28 1081.84 L1758.05 1081.84 L1736.81 1081.84 L1715.57 1081.84 L1694.33 1081.84 L1673.09 1081.84 L1651.85 1081.84 L1630.61 1081.84 L1609.37 1081.84 L1588.13 1081.84 L1566.89 1081.84 L1545.65 1081.84 L1524.41 1081.84 L1503.17 1094.97 L1481.93 1094.97 L1460.69 1094.97 L1439.45 1094.97 L1418.21 1094.97 L1396.97 1094.97 L1375.73 1094.97 L1354.49 1094.97 L1333.25 1094.97 L1312.01 1094.97 L1290.77 1094.97 L1269.53 1094.97 L1248.29 1094.97 L1227.05 1094.97 L1205.81 1094.97 L1184.57 1108.1 L1163.33 1108.1 L1142.09 1108.1 L1120.85 1108.1 L1099.62 1108.1 L1078.38 1108.1 L1057.14 1108.1 L1035.9 1108.1 L1014.66 1108.1 L993.417 1108.1 L972.177 1121.23 L950.937 1121.23 L929.698 1121.23 L908.458 1121.23 L887.218 1121.23 L865.979 1121.23 L844.739 1121.23 L823.499 1134.36 L802.26 1134.36 L781.02 1134.36 L759.78 1134.36 L738.541 1134.36 L717.301 1147.48 L696.061 1147.48 L674.822 1147.48 L653.582 1160.61 L632.342 1160.61 L611.103 1160.61 L589.863 1173.74 L568.623 1173.74 L547.384 1186.87 L526.144 1186.87 L504.904 1200 L483.665 1200 L462.425 1213.13 L441.185 1226.25 L419.946 1226.25 L398.706 1239.38 L377.466 1252.51 L356.227 1278.77 L334.987 1291.9 L313.747 1318.15 L292.507 1344.41 L271.268 1370.67 L250.028 1396.92  Z" fill="#d52628" fill-rule="evenodd" fill-opacity="0.45"/>
<polyline clip-path="url(#clip722)" style="stroke:#d52628; stroke-linecap:round; stroke-linejoin:round; stroke-width:4; stroke-opacity:1; fill:none" points="250.028,1331.28 271.268,1265.64 292.507,1213.13 313.747,1173.74 334.987,1147.48 356.227,1121.23 377.466,1094.97 398.706,1068.71 419.946,1055.59 441.185,1042.46 462.425,1029.33 483.665,1016.2 504.904,1003.07 526.144,989.944 547.384,976.816 568.623,976.816 589.863,963.687 611.103,963.687 632.342,950.559 653.582,950.559 674.822,937.43 696.061,937.43 717.301,937.43 738.541,924.302 759.78,924.302 781.02,924.302 802.26,911.174 823.499,911.174 844.739,911.174 865.979,911.174 887.218,911.174 908.458,898.045 929.698,898.045 950.937,898.045 972.177,898.045 993.417,898.045 1014.66,884.917 1035.9,884.917 1057.14,884.917 1078.38,884.917 1099.62,884.917 1120.85,884.917 1142.09,884.917 1163.33,884.917 1184.57,871.789 1205.81,871.789 1227.05,871.789 1248.29,871.789 1269.53,871.789 1290.77,871.789 1312.01,871.789 1333.25,871.789 1354.49,871.789 1375.73,871.789 1396.97,871.789 1418.21,858.66 1439.45,858.66 1460.69,858.66 1481.93,858.66 1503.17,858.66 1524.41,858.66 1545.65,858.66 1566.89,858.66 1588.13,858.66 1609.37,858.66 1630.61,858.66 1651.85,858.66 1673.09,858.66 1694.33,858.66 1715.57,858.66 1736.81,858.66 1758.05,858.66 1779.28,845.532 1800.52,845.532 1821.76,845.532 1843,845.532 1864.24,845.532 1885.48,845.532 1906.72,845.532 1927.96,845.532 1949.2,845.532 1970.44,845.532 1991.68,845.532 2012.92,845.532 2034.16,845.532 2055.4,845.532 2076.64,845.532 2097.88,845.532 2119.12,845.532 2140.36,845.532 2161.6,845.532 2182.84,845.532 2204.08,845.532 2225.32,845.532 2246.56,845.532 2267.8,845.532 2289.04,845.532 2310.28,845.532 2331.52,845.532 2352.76,845.532 "/>
<path clip-path="url(#clip722)" d="M250.028 1252.51 L271.268 1147.48 L292.507 1081.84 L313.747 1016.2 L334.987 963.687 L356.227 924.302 L377.466 884.917 L398.706 845.532 L419.946 819.275 L441.185 793.019 L462.425 779.89 L483.665 753.633 L504.904 740.505 L526.144 727.377 L547.384 714.248 L568.623 701.12 L589.863 687.992 L611.103 674.863 L632.342 674.863 L653.582 661.735 L674.822 648.607 L696.061 648.607 L717.301 635.478 L738.541 635.478 L759.78 622.35 L781.02 622.35 L802.26 609.221 L823.499 609.221 L844.739 609.221 L865.979 596.093 L887.218 596.093 L908.458 596.093 L929.698 582.965 L950.937 582.965 L972.177 582.965 L993.417 569.836 L1014.66 569.836 L1035.9 569.836 L1057.14 569.836 L1078.38 569.836 L1099.62 556.708 L1120.85 556.708 L1142.09 556.708 L1163.33 556.708 L1184.57 556.708 L1205.81 543.58 L1227.05 543.58 L1248.29 543.58 L1269.53 543.58 L1290.77 543.58 L1312.01 543.58 L1333.25 543.58 L1354.49 530.451 L1375.73 530.451 L1396.97 530.451 L1418.21 530.451 L1439.45 530.451 L1460.69 530.451 L1481.93 530.451 L1503.17 530.451 L1524.41 530.451 L1545.65 517.323 L1566.89 517.323 L1588.13 517.323 L1609.37 517.323 L1630.61 517.323 L1651.85 517.323 L1673.09 517.323 L1694.33 517.323 L1715.57 517.323 L1736.81 517.323 L1758.05 517.323 L1779.28 517.323 L1800.52 517.323 L1821.76 504.195 L1843 504.195 L1864.24 504.195 L1885.48 504.195 L1906.72 504.195 L1927.96 504.195 L1949.2 504.195 L1970.44 504.195 L1991.68 504.195 L2012.92 504.195 L2034.16 504.195 L2055.4 504.195 L2076.64 504.195 L2097.88 504.195 L2119.12 504.195 L2140.36 504.195 L2161.6 504.195 L2182.84 504.195 L2204.08 491.066 L2225.32 491.066 L2246.56 491.066 L2267.8 491.066 L2289.04 491.066 L2310.28 491.066 L2331.52 491.066 L2352.76 491.066 L2352.76 793.019 L2331.52 793.019 L2310.28 793.019 L2289.04 793.019 L2267.8 793.019 L2246.56 793.019 L2225.32 793.019 L2204.08 793.019 L2182.84 793.019 L2161.6 793.019 L2140.36 793.019 L2119.12 793.019 L2097.88 793.019 L2076.64 793.019 L2055.4 793.019 L2034.16 793.019 L2012.92 793.019 L1991.68 793.019 L1970.44 793.019 L1949.2 806.147 L1927.96 806.147 L1906.72 806.147 L1885.48 806.147 L1864.24 806.147 L1843 806.147 L1821.76 806.147 L1800.52 806.147 L1779.28 806.147 L1758.05 806.147 L1736.81 806.147 L1715.57 806.147 L1694.33 806.147 L1673.09 806.147 L1651.85 806.147 L1630.61 806.147 L1609.37 806.147 L1588.13 819.275 L1566.89 819.275 L1545.65 819.275 L1524.41 819.275 L1503.17 819.275 L1481.93 819.275 L1460.69 819.275 L1439.45 819.275 L1418.21 819.275 L1396.97 819.275 L1375.73 819.275 L1354.49 832.404 L1333.25 832.404 L1312.01 832.404 L1290.77 832.404 L1269.53 832.404 L1248.29 832.404 L1227.05 832.404 L1205.81 832.404 L1184.57 845.532 L1163.33 845.532 L1142.09 845.532 L1120.85 845.532 L1099.62 845.532 L1078.38 845.532 L1057.14 858.66 L1035.9 858.66 L1014.66 858.66 L993.417 858.66 L972.177 858.66 L950.937 871.789 L929.698 871.789 L908.458 871.789 L887.218 871.789 L865.979 884.917 L844.739 884.917 L823.499 884.917 L802.26 898.045 L781.02 898.045 L759.78 898.045 L738.541 911.174 L717.301 911.174 L696.061 924.302 L674.822 924.302 L653.582 937.43 L632.342 937.43 L611.103 950.559 L589.863 950.559 L568.623 963.687 L547.384 976.816 L526.144 989.944 L504.904 1003.07 L483.665 1016.2 L462.425 1029.33 L441.185 1042.46 L419.946 1068.71 L398.706 1081.84 L377.466 1108.1 L356.227 1134.36 L334.987 1173.74 L313.747 1200 L292.507 1252.51 L271.268 1305.02 L250.028 1357.54  Z" fill="#9466bd" fill-rule="evenodd" fill-opacity="0.45"/>
<polyline clip-path="url(#clip722)" style="stroke:#9466bd; stroke-linecap:round; stroke-linejoin:round; stroke-width:4; stroke-opacity:1; fill:none" points="250.028,1252.51 271.268,1147.48 292.507,1081.84 313.747,1016.2 334.987,963.687 356.227,924.302 377.466,884.917 398.706,845.532 419.946,819.275 441.185,793.019 462.425,779.89 483.665,753.633 504.904,740.505 526.144,727.377 547.384,714.248 568.623,701.12 589.863,687.992 611.103,674.863 632.342,674.863 653.582,661.735 674.822,648.607 696.061,648.607 717.301,635.478 738.541,635.478 759.78,622.35 781.02,622.35 802.26,609.221 823.499,609.221 844.739,609.221 865.979,596.093 887.218,596.093 908.458,596.093 929.698,582.965 950.937,582.965 972.177,582.965 993.417,569.836 1014.66,569.836 1035.9,569.836 1057.14,569.836 1078.38,569.836 1099.62,556.708 1120.85,556.708 1142.09,556.708 1163.33,556.708 1184.57,556.708 1205.81,543.58 1227.05,543.58 1248.29,543.58 1269.53,543.58 1290.77,543.58 1312.01,543.58 1333.25,543.58 1354.49,530.451 1375.73,530.451 1396.97,530.451 1418.21,530.451 1439.45,530.451 1460.69,530.451 1481.93,530.451 1503.17,530.451 1524.41,530.451 1545.65,517.323 1566.89,517.323 1588.13,517.323 1609.37,517.323 1630.61,517.323 1651.85,517.323 1673.09,517.323 1694.33,517.323 1715.57,517.323 1736.81,517.323 1758.05,517.323 1779.28,517.323 1800.52,517.323 1821.76,504.195 1843,504.195 1864.24,504.195 1885.48,504.195 1906.72,504.195 1927.96,504.195 1949.2,504.195 1970.44,504.195 1991.68,504.195 2012.92,504.195 2034.16,504.195 2055.4,504.195 2076.64,504.195 2097.88,504.195 2119.12,504.195 2140.36,504.195 2161.6,504.195 2182.84,504.195 2204.08,491.066 2225.32,491.066 2246.56,491.066 2267.8,491.066 2289.04,491.066 2310.28,491.066 2331.52,491.066 2352.76,491.066 "/>
<polyline clip-path="url(#clip722)" style="stroke:#000000; stroke-linecap:round; stroke-linejoin:round; stroke-width:4; stroke-opacity:1; fill:none" points="512.716,1387.94 1045.59,1274.47 1539.88,1165.68 1917.56,1068.91 2156.26,990.769 2264.12,936.382 2281.33,908.82 2281.39,908.724 1870.13,934.239 1435.4,981.255 1175.99,1043.94 970.557,1115.46 813.284,1177.97 647.821,1247.93 511.571,1309.14 406.361,1358.21 333.732,1393.71 288.004,1416.13 265.508,1427.52 258.769,1430.96 260.83,1429.91 265.34,1427.61 267.362,1426.58 263.988,1428.3 254.528,1433.12 240.267,1440.4 224.062,1448.75 209.2,1456.46 210.206,1455.93 227.16,1447.15 247.275,1436.83 267.437,1426.54 284.714,1417.79 296.838,1411.74 302.363,1409.04 300.907,1409.75 293.434,1413.4 282.065,1419.13 268.8,1425.84 255.773,1432.49 244.577,1438.2 236.285,1442.45 231.201,1445.07 228.875,1446.27 228.41,1446.51 228.663,1446.38 228.533,1446.44 227.203,1447.13 224.304,1448.62 219.986,1450.86 214.833,1453.53 209.714,1456.19 209.2,1456.46 209.744,1456.17 214.893,1453.5 219.74,1450.98 222.86,1449.37 222.874,1449.36 218.655,1451.55 209.499,1456.3 209.2,1456.46 "/>
<path clip-path="url(#clip720)" d="M1944.18 477.836 L2282.66 477.836 L2282.66 166.796 L1944.18 166.796  Z" fill="#ffffff" fill-rule="evenodd" fill-opacity="1"/>
<polyline clip-path="url(#clip720)" style="stroke:#000000; stroke-linecap:round; stroke-linejoin:round; stroke-width:4; stroke-opacity:1; fill:none" points="1944.18,477.836 2282.66,477.836 2282.66,166.796 1944.18,166.796 1944.18,477.836 "/>
<path clip-path="url(#clip720)" d="M1967.54 239.372 L2107.72 239.372 L2107.72 197.9 L1967.54 197.9 L1967.54 239.372  Z" fill="#1f77b4" fill-rule="evenodd" fill-opacity="0.45"/>
<polyline clip-path="url(#clip720)" style="stroke:#1f77b4; stroke-linecap:round; stroke-linejoin:round; stroke-width:4; stroke-opacity:1; fill:none" points="1967.54,197.9 2107.72,197.9 "/>
<path clip-path="url(#clip720)" d="M2143.03 204.434 Q2139.42 204.434 2137.59 207.999 Q2135.78 211.541 2135.78 218.67 Q2135.78 225.777 2137.59 229.342 Q2139.42 232.883 2143.03 232.883 Q2146.66 232.883 2148.47 229.342 Q2150.3 225.777 2150.3 218.67 Q2150.3 211.541 2148.47 207.999 Q2146.66 204.434 2143.03 204.434 M2143.03 200.731 Q2148.84 200.731 2151.89 205.337 Q2154.97 209.92 2154.97 218.67 Q2154.97 227.397 2151.89 232.004 Q2148.84 236.587 2143.03 236.587 Q2137.22 236.587 2134.14 232.004 Q2131.08 227.397 2131.08 218.67 Q2131.08 209.92 2134.14 205.337 Q2137.22 200.731 2143.03 200.731 Z" fill="#000000" fill-rule="nonzero" fill-opacity="1" /><path clip-path="url(#clip720)" d="M2163.19 230.036 L2168.07 230.036 L2168.07 235.916 L2163.19 235.916 L2163.19 230.036 Z" fill="#000000" fill-rule="nonzero" fill-opacity="1" /><path clip-path="url(#clip720)" d="M2188.26 204.434 Q2184.65 204.434 2182.82 207.999 Q2181.01 211.541 2181.01 218.67 Q2181.01 225.777 2182.82 229.342 Q2184.65 232.883 2188.26 232.883 Q2191.89 232.883 2193.7 229.342 Q2195.53 225.777 2195.53 218.67 Q2195.53 211.541 2193.7 207.999 Q2191.89 204.434 2188.26 204.434 M2188.26 200.731 Q2194.07 200.731 2197.13 205.337 Q2200.2 209.92 2200.2 218.67 Q2200.2 227.397 2197.13 232.004 Q2194.07 236.587 2188.26 236.587 Q2182.45 236.587 2179.37 232.004 Q2176.32 227.397 2176.32 218.67 Q2176.32 209.92 2179.37 205.337 Q2182.45 200.731 2188.26 200.731 Z" fill="#000000" fill-rule="nonzero" fill-opacity="1" /><path clip-path="url(#clip720)" d="M2218.42 204.434 Q2214.81 204.434 2212.98 207.999 Q2211.18 211.541 2211.18 218.67 Q2211.18 225.777 2212.98 229.342 Q2214.81 232.883 2218.42 232.883 Q2222.06 232.883 2223.86 229.342 Q2225.69 225.777 2225.69 218.67 Q2225.69 211.541 2223.86 207.999 Q2222.06 204.434 2218.42 204.434 M2218.42 200.731 Q2224.23 200.731 2227.29 205.337 Q2230.37 209.92 2230.37 218.67 Q2230.37 227.397 2227.29 232.004 Q2224.23 236.587 2218.42 236.587 Q2212.61 236.587 2209.53 232.004 Q2206.48 227.397 2206.48 218.67 Q2206.48 209.92 2209.53 205.337 Q2212.61 200.731 2218.42 200.731 Z" fill="#000000" fill-rule="nonzero" fill-opacity="1" /><path clip-path="url(#clip720)" d="M2239.39 231.981 L2247.03 231.981 L2247.03 205.615 L2238.72 207.282 L2238.72 203.022 L2246.99 201.356 L2251.66 201.356 L2251.66 231.981 L2259.3 231.981 L2259.3 235.916 L2239.39 235.916 L2239.39 231.981 Z" fill="#000000" fill-rule="nonzero" fill-opacity="1" /><path clip-path="url(#clip720)" d="M1967.54 291.212 L2107.72 291.212 L2107.72 249.74 L1967.54 249.74 L1967.54 291.212  Z" fill="#ff7e0d" fill-rule="evenodd" fill-opacity="0.45"/>
<polyline clip-path="url(#clip720)" style="stroke:#ff7e0d; stroke-linecap:round; stroke-linejoin:round; stroke-width:4; stroke-opacity:1; fill:none" points="1967.54,249.74 2107.72,249.74 "/>
<path clip-path="url(#clip720)" d="M2143.03 256.274 Q2139.42 256.274 2137.59 259.839 Q2135.78 263.381 2135.78 270.51 Q2135.78 277.617 2137.59 281.182 Q2139.42 284.723 2143.03 284.723 Q2146.66 284.723 2148.47 281.182 Q2150.3 277.617 2150.3 270.51 Q2150.3 263.381 2148.47 259.839 Q2146.66 256.274 2143.03 256.274 M2143.03 252.571 Q2148.84 252.571 2151.89 257.177 Q2154.97 261.76 2154.97 270.51 Q2154.97 279.237 2151.89 283.844 Q2148.84 288.427 2143.03 288.427 Q2137.22 288.427 2134.14 283.844 Q2131.08 279.237 2131.08 270.51 Q2131.08 261.76 2134.14 257.177 Q2137.22 252.571 2143.03 252.571 Z" fill="#000000" fill-rule="nonzero" fill-opacity="1" /><path clip-path="url(#clip720)" d="M2163.19 281.876 L2168.07 281.876 L2168.07 287.756 L2163.19 287.756 L2163.19 281.876 Z" fill="#000000" fill-rule="nonzero" fill-opacity="1" /><path clip-path="url(#clip720)" d="M2188.26 256.274 Q2184.65 256.274 2182.82 259.839 Q2181.01 263.381 2181.01 270.51 Q2181.01 277.617 2182.82 281.182 Q2184.65 284.723 2188.26 284.723 Q2191.89 284.723 2193.7 281.182 Q2195.53 277.617 2195.53 270.51 Q2195.53 263.381 2193.7 259.839 Q2191.89 256.274 2188.26 256.274 M2188.26 252.571 Q2194.07 252.571 2197.13 257.177 Q2200.2 261.76 2200.2 270.51 Q2200.2 279.237 2197.13 283.844 Q2194.07 288.427 2188.26 288.427 Q2182.45 288.427 2179.37 283.844 Q2176.32 279.237 2176.32 270.51 Q2176.32 261.76 2179.37 257.177 Q2182.45 252.571 2188.26 252.571 Z" fill="#000000" fill-rule="nonzero" fill-opacity="1" /><path clip-path="url(#clip720)" d="M2209.23 283.821 L2216.87 283.821 L2216.87 257.455 L2208.56 259.122 L2208.56 254.862 L2216.82 253.196 L2221.5 253.196 L2221.5 283.821 L2229.14 283.821 L2229.14 287.756 L2209.23 287.756 L2209.23 283.821 Z" fill="#000000" fill-rule="nonzero" fill-opacity="1" /><path clip-path="url(#clip720)" d="M1967.54 343.052 L2107.72 343.052 L2107.72 301.58 L1967.54 301.58 L1967.54 343.052  Z" fill="#2ba02b" fill-rule="evenodd" fill-opacity="0.45"/>
<polyline clip-path="url(#clip720)" style="stroke:#2ba02b; stroke-linecap:round; stroke-linejoin:round; stroke-width:4; stroke-opacity:1; fill:none" points="1967.54,301.58 2107.72,301.58 "/>
<path clip-path="url(#clip720)" d="M2143.03 308.114 Q2139.42 308.114 2137.59 311.679 Q2135.78 315.221 2135.78 322.35 Q2135.78 329.457 2137.59 333.022 Q2139.42 336.563 2143.03 336.563 Q2146.66 336.563 2148.47 333.022 Q2150.3 329.457 2150.3 322.35 Q2150.3 315.221 2148.47 311.679 Q2146.66 308.114 2143.03 308.114 M2143.03 304.411 Q2148.84 304.411 2151.89 309.017 Q2154.97 313.6 2154.97 322.35 Q2154.97 331.077 2151.89 335.684 Q2148.84 340.267 2143.03 340.267 Q2137.22 340.267 2134.14 335.684 Q2131.08 331.077 2131.08 322.35 Q2131.08 313.6 2134.14 309.017 Q2137.22 304.411 2143.03 304.411 Z" fill="#000000" fill-rule="nonzero" fill-opacity="1" /><path clip-path="url(#clip720)" d="M2163.19 333.716 L2168.07 333.716 L2168.07 339.596 L2163.19 339.596 L2163.19 333.716 Z" fill="#000000" fill-rule="nonzero" fill-opacity="1" /><path clip-path="url(#clip720)" d="M2179.07 335.661 L2186.71 335.661 L2186.71 309.295 L2178.4 310.962 L2178.4 306.702 L2186.66 305.036 L2191.34 305.036 L2191.34 335.661 L2198.98 335.661 L2198.98 339.596 L2179.07 339.596 L2179.07 335.661 Z" fill="#000000" fill-rule="nonzero" fill-opacity="1" /><path clip-path="url(#clip720)" d="M1967.54 394.892 L2107.72 394.892 L2107.72 353.42 L1967.54 353.42 L1967.54 394.892  Z" fill="#d52628" fill-rule="evenodd" fill-opacity="0.45"/>
<polyline clip-path="url(#clip720)" style="stroke:#d52628; stroke-linecap:round; stroke-linejoin:round; stroke-width:4; stroke-opacity:1; fill:none" points="1967.54,353.42 2107.72,353.42 "/>
<path clip-path="url(#clip720)" d="M2131.76 387.501 L2139.39 387.501 L2139.39 361.135 L2131.08 362.802 L2131.08 358.542 L2139.35 356.876 L2144.02 356.876 L2144.02 387.501 L2151.66 387.501 L2151.66 391.436 L2131.76 391.436 L2131.76 387.501 Z" fill="#000000" fill-rule="nonzero" fill-opacity="1" /><path clip-path="url(#clip720)" d="M1967.54 446.732 L2107.72 446.732 L2107.72 405.26 L1967.54 405.26 L1967.54 446.732  Z" fill="#9466bd" fill-rule="evenodd" fill-opacity="0.45"/>
<polyline clip-path="url(#clip720)" style="stroke:#9466bd; stroke-linecap:round; stroke-linejoin:round; stroke-width:4; stroke-opacity:1; fill:none" points="1967.54,405.26 2107.72,405.26 "/>
<path clip-path="url(#clip720)" d="M2131.76 439.341 L2139.39 439.341 L2139.39 412.975 L2131.08 414.642 L2131.08 410.382 L2139.35 408.716 L2144.02 408.716 L2144.02 439.341 L2151.66 439.341 L2151.66 443.276 L2131.76 443.276 L2131.76 439.341 Z" fill="#000000" fill-rule="nonzero" fill-opacity="1" /><path clip-path="url(#clip720)" d="M2171.11 411.794 Q2167.5 411.794 2165.67 415.359 Q2163.86 418.901 2163.86 426.03 Q2163.86 433.137 2165.67 436.702 Q2167.5 440.243 2171.11 440.243 Q2174.74 440.243 2176.55 436.702 Q2178.38 433.137 2178.38 426.03 Q2178.38 418.901 2176.55 415.359 Q2174.74 411.794 2171.11 411.794 M2171.11 408.091 Q2176.92 408.091 2179.97 412.697 Q2183.05 417.28 2183.05 426.03 Q2183.05 434.757 2179.97 439.364 Q2176.92 443.947 2171.11 443.947 Q2165.3 443.947 2162.22 439.364 Q2159.16 434.757 2159.16 426.03 Q2159.16 417.28 2162.22 412.697 Q2165.3 408.091 2171.11 408.091 Z" fill="#000000" fill-rule="nonzero" fill-opacity="1" /></svg>
