<?xml version="1.0" encoding="utf-8"?>
<svg xmlns="http://www.w3.org/2000/svg" xmlns:xlink="http://www.w3.org/1999/xlink" width="600" height="400" viewBox="0 0 2400 1600">
<defs>
  <clipPath id="clip870">
    <rect x="0" y="0" width="2400" height="1600"/>
  </clipPath>
</defs>
<path clip-path="url(#clip870)" d="M0 1600 L2400 1600 L2400 0 L0 0  Z" fill="#ffffff" fill-rule="evenodd" fill-opacity="1"/>
<defs>
  <clipPath id="clip871">
    <rect x="480" y="0" width="1681" height="1600"/>
  </clipPath>
</defs>
<path clip-path="url(#clip870)" d="M367.565 1362.7 L2352.76 1362.7 L2352.76 123.472 L367.565 123.472  Z" fill="#ffffff" fill-rule="evenodd" fill-opacity="1"/>
<defs>
  <clipPath id="clip872">
    <rect x="367" y="123" width="1986" height="1240"/>
  </clipPath>
</defs>
<polyline clip-path="url(#clip872)" style="stroke:#000000; stroke-linecap:round; stroke-linejoin:round; stroke-width:2; stroke-opacity:0.1; fill:none" points="601.117,1362.7 601.117,123.472 "/>
<polyline clip-path="url(#clip872)" style="stroke:#000000; stroke-linecap:round; stroke-linejoin:round; stroke-width:2; stroke-opacity:0.1; fill:none" points="990.37,1362.7 990.37,123.472 "/>
<polyline clip-path="url(#clip872)" style="stroke:#000000; stroke-linecap:round; stroke-linejoin:round; stroke-width:2; stroke-opacity:0.1; fill:none" points="1379.62,1362.7 1379.62,123.472 "/>
<polyline clip-path="url(#clip872)" style="stroke:#000000; stroke-linecap:round; stroke-linejoin:round; stroke-width:2; stroke-opacity:0.1; fill:none" points="1768.88,1362.7 1768.88,123.472 "/>
<polyline clip-path="url(#clip872)" style="stroke:#000000; stroke-linecap:round; stroke-linejoin:round; stroke-width:2; stroke-opacity:0.1; fill:none" points="2158.13,1362.7 2158.13,123.472 "/>
<polyline clip-path="url(#clip870)" style="stroke:#000000; stroke-linecap:round; stroke-linejoin:round; stroke-width:4; stroke-opacity:1; fill:none" points="367.565,1362.7 2352.76,1362.7 "/>
<polyline clip-path="url(#clip870)" style="stroke:#000000; stroke-linecap:round; stroke-linejoin:round; stroke-width:4; stroke-opacity:1; fill:none" points="601.117,1362.7 601.117,1343.8 "/>
<polyline clip-path="url(#clip870)" style="stroke:#000000; stroke-linecap:round; stroke-linejoin:round; stroke-width:4; stroke-opacity:1; fill:none" points="990.37,1362.7 990.37,1343.8 "/>
<polyline clip-path="url(#clip870)" style="stroke:#000000; stroke-linecap:round; stroke-linejoin:round; stroke-width:4; stroke-opacity:1; fill:none" points="1379.62,1362.7 1379.62,1343.8 "/>
<polyline clip-path="url(#clip870)" style="stroke:#000000; stroke-linecap:round; stroke-linejoin:round; stroke-width:4; stroke-opacity:1; fill:none" points="1768.88,1362.7 1768.88,1343.8 "/>
<polyline clip-path="url(#clip870)" style="stroke:#000000; stroke-linecap:round; stroke-linejoin:round; stroke-width:4; stroke-opacity:1; fill:none" points="2158.13,1362.7 2158.13,1343.8 "/>
<path clip-path="url(#clip870)" d="M497.103 1455.52 L511.426 1455.52 L511.426 1406.09 L495.844 1409.21 L495.844 1401.22 L511.339 1398.1 L520.106 1398.1 L520.106 1455.52 L534.429 1455.52 L534.429 1462.9 L497.103 1462.9 L497.103 1455.52 Z" fill="#000000" fill-rule="nonzero" fill-opacity="1" /><path clip-path="url(#clip870)" d="M570.887 1403.87 Q564.116 1403.87 560.688 1410.56 Q557.302 1417.2 557.302 1430.56 Q557.302 1443.89 560.688 1450.57 Q564.116 1457.21 570.887 1457.21 Q577.701 1457.21 581.087 1450.57 Q584.516 1443.89 584.516 1430.56 Q584.516 1417.2 581.087 1410.56 Q577.701 1403.87 570.887 1403.87 M570.887 1396.93 Q581.781 1396.93 587.51 1405.57 Q593.283 1414.16 593.283 1430.56 Q593.283 1446.93 587.51 1455.56 Q581.781 1464.16 570.887 1464.16 Q559.993 1464.16 554.221 1455.56 Q548.491 1446.93 548.491 1430.56 Q548.491 1414.16 554.221 1405.57 Q559.993 1396.93 570.887 1396.93 Z" fill="#000000" fill-rule="nonzero" fill-opacity="1" /><path clip-path="url(#clip870)" d="M627.441 1403.87 Q620.67 1403.87 617.241 1410.56 Q613.856 1417.2 613.856 1430.56 Q613.856 1443.89 617.241 1450.57 Q620.67 1457.21 627.441 1457.21 Q634.255 1457.21 637.64 1450.57 Q641.069 1443.89 641.069 1430.56 Q641.069 1417.2 637.64 1410.56 Q634.255 1403.87 627.441 1403.87 M627.441 1396.93 Q638.335 1396.93 644.064 1405.57 Q649.836 1414.16 649.836 1430.56 Q649.836 1446.93 644.064 1455.56 Q638.335 1464.16 627.441 1464.16 Q616.547 1464.16 610.774 1455.56 Q605.045 1446.93 605.045 1430.56 Q605.045 1414.16 610.774 1405.57 Q616.547 1396.93 627.441 1396.93 Z" fill="#000000" fill-rule="nonzero" fill-opacity="1" /><path clip-path="url(#clip870)" d="M683.994 1403.87 Q677.223 1403.87 673.795 1410.56 Q670.409 1417.2 670.409 1430.56 Q670.409 1443.89 673.795 1450.57 Q677.223 1457.21 683.994 1457.21 Q690.808 1457.21 694.194 1450.57 Q697.623 1443.89 697.623 1430.56 Q697.623 1417.2 694.194 1410.56 Q690.808 1403.87 683.994 1403.87 M683.994 1396.93 Q694.888 1396.93 700.617 1405.57 Q706.39 1414.16 706.39 1430.56 Q706.39 1446.93 700.617 1455.56 Q694.888 1464.16 683.994 1464.16 Q673.1 1464.16 667.328 1455.56 Q661.598 1446.93 661.598 1430.56 Q661.598 1414.16 667.328 1405.57 Q673.1 1396.93 683.994 1396.93 Z" fill="#000000" fill-rule="nonzero" fill-opacity="1" /><path clip-path="url(#clip870)" d="M894.016 1455.52 L924.615 1455.52 L924.615 1462.9 L883.47 1462.9 L883.47 1455.52 Q888.461 1450.36 897.055 1441.68 Q905.692 1432.95 907.905 1430.43 Q912.115 1425.7 913.765 1422.45 Q915.457 1419.15 915.457 1415.98 Q915.457 1410.82 911.811 1407.56 Q908.209 1404.31 902.393 1404.31 Q898.27 1404.31 893.669 1405.74 Q889.112 1407.17 883.904 1410.08 L883.904 1401.22 Q889.199 1399.1 893.799 1398.01 Q898.4 1396.93 902.22 1396.93 Q912.289 1396.93 918.278 1401.96 Q924.268 1407 924.268 1415.42 Q924.268 1419.41 922.749 1423.01 Q921.273 1426.57 917.324 1431.43 Q916.239 1432.69 910.423 1438.72 Q904.607 1444.71 894.016 1455.52 Z" fill="#000000" fill-rule="nonzero" fill-opacity="1" /><path clip-path="url(#clip870)" d="M961.768 1403.87 Q954.997 1403.87 951.568 1410.56 Q948.183 1417.2 948.183 1430.56 Q948.183 1443.89 951.568 1450.57 Q954.997 1457.21 961.768 1457.21 Q968.582 1457.21 971.967 1450.57 Q975.396 1443.89 975.396 1430.56 Q975.396 1417.2 971.967 1410.56 Q968.582 1403.87 961.768 1403.87 M961.768 1396.93 Q972.662 1396.93 978.391 1405.57 Q984.164 1414.16 984.164 1430.56 Q984.164 1446.93 978.391 1455.56 Q972.662 1464.16 961.768 1464.16 Q950.874 1464.16 945.101 1455.56 Q939.372 1446.93 939.372 1430.56 Q939.372 1414.16 945.101 1405.57 Q950.874 1396.93 961.768 1396.93 Z" fill="#000000" fill-rule="nonzero" fill-opacity="1" /><path clip-path="url(#clip870)" d="M1018.32 1403.87 Q1011.55 1403.87 1008.12 1410.56 Q1004.74 1417.2 1004.74 1430.56 Q1004.74 1443.89 1008.12 1450.57 Q1011.55 1457.21 1018.32 1457.21 Q1025.14 1457.21 1028.52 1450.57 Q1031.95 1443.89 1031.95 1430.56 Q1031.95 1417.2 1028.52 1410.56 Q1025.14 1403.87 1018.32 1403.87 M1018.32 1396.93 Q1029.22 1396.93 1034.94 1405.57 Q1040.72 1414.16 1040.72 1430.56 Q1040.72 1446.93 1034.94 1455.56 Q1029.22 1464.16 1018.32 1464.16 Q1007.43 1464.16 1001.65 1455.56 Q995.926 1446.93 995.926 1430.56 Q995.926 1414.16 1001.65 1405.57 Q1007.43 1396.93 1018.32 1396.93 Z" fill="#000000" fill-rule="nonzero" fill-opacity="1" /><path clip-path="url(#clip870)" d="M1074.87 1403.87 Q1068.1 1403.87 1064.68 1410.56 Q1061.29 1417.2 1061.29 1430.56 Q1061.29 1443.89 1064.68 1450.57 Q1068.1 1457.21 1074.87 1457.21 Q1081.69 1457.21 1085.07 1450.57 Q1088.5 1443.89 1088.5 1430.56 Q1088.5 1417.2 1085.07 1410.56 Q1081.69 1403.87 1074.87 1403.87 M1074.87 1396.93 Q1085.77 1396.93 1091.5 1405.57 Q1097.27 1414.16 1097.27 1430.56 Q1097.27 1446.93 1091.5 1455.56 Q1085.77 1464.16 1074.87 1464.16 Q1063.98 1464.16 1058.21 1455.56 Q1052.48 1446.93 1052.48 1430.56 Q1052.48 1414.16 1058.21 1405.57 Q1063.98 1396.93 1074.87 1396.93 Z" fill="#000000" fill-rule="nonzero" fill-opacity="1" /><path clip-path="url(#clip870)" d="M1302.15 1427.96 Q1308.44 1429.31 1311.96 1433.56 Q1315.52 1437.81 1315.52 1444.06 Q1315.52 1453.66 1308.92 1458.91 Q1302.32 1464.16 1290.17 1464.16 Q1286.09 1464.16 1281.75 1463.33 Q1277.45 1462.55 1272.85 1460.95 L1272.85 1452.48 Q1276.5 1454.61 1280.84 1455.7 Q1285.18 1456.78 1289.91 1456.78 Q1298.16 1456.78 1302.45 1453.52 Q1306.79 1450.27 1306.79 1444.06 Q1306.79 1438.33 1302.76 1435.12 Q1298.76 1431.87 1291.6 1431.87 L1284.05 1431.87 L1284.05 1424.66 L1291.95 1424.66 Q1298.42 1424.66 1301.85 1422.1 Q1305.27 1419.5 1305.27 1414.64 Q1305.27 1409.64 1301.72 1407 Q1298.2 1404.31 1291.6 1404.31 Q1288 1404.31 1283.88 1405.09 Q1279.75 1405.87 1274.81 1407.52 L1274.81 1399.71 Q1279.8 1398.32 1284.14 1397.62 Q1288.52 1396.93 1292.38 1396.93 Q1302.37 1396.93 1308.18 1401.49 Q1314 1406 1314 1413.72 Q1314 1419.11 1310.92 1422.84 Q1307.84 1426.53 1302.15 1427.96 Z" fill="#000000" fill-rule="nonzero" fill-opacity="1" /><path clip-path="url(#clip870)" d="M1350.89 1403.87 Q1344.12 1403.87 1340.69 1410.56 Q1337.31 1417.2 1337.31 1430.56 Q1337.31 1443.89 1340.69 1450.57 Q1344.12 1457.21 1350.89 1457.21 Q1357.7 1457.21 1361.09 1450.57 Q1364.52 1443.89 1364.52 1430.56 Q1364.52 1417.2 1361.09 1410.56 Q1357.7 1403.87 1350.89 1403.87 M1350.89 1396.93 Q1361.78 1396.93 1367.51 1405.57 Q1373.29 1414.16 1373.29 1430.56 Q1373.29 1446.93 1367.51 1455.56 Q1361.78 1464.16 1350.89 1464.16 Q1340 1464.16 1334.22 1455.56 Q1328.49 1446.93 1328.49 1430.56 Q1328.49 1414.16 1334.22 1405.57 Q1340 1396.93 1350.89 1396.93 Z" fill="#000000" fill-rule="nonzero" fill-opacity="1" /><path clip-path="url(#clip870)" d="M1407.44 1403.87 Q1400.67 1403.87 1397.24 1410.56 Q1393.86 1417.2 1393.86 1430.56 Q1393.86 1443.89 1397.24 1450.57 Q1400.67 1457.21 1407.44 1457.21 Q1414.26 1457.21 1417.64 1450.57 Q1421.07 1443.89 1421.07 1430.56 Q1421.07 1417.2 1417.64 1410.56 Q1414.26 1403.87 1407.44 1403.87 M1407.44 1396.93 Q1418.34 1396.93 1424.07 1405.57 Q1429.84 1414.16 1429.84 1430.56 Q1429.84 1446.93 1424.07 1455.56 Q1418.34 1464.16 1407.44 1464.16 Q1396.55 1464.16 1390.78 1455.56 Q1385.05 1446.93 1385.05 1430.56 Q1385.05 1414.16 1390.78 1405.57 Q1396.55 1396.93 1407.44 1396.93 Z" fill="#000000" fill-rule="nonzero" fill-opacity="1" /><path clip-path="url(#clip870)" d="M1464 1403.87 Q1457.23 1403.87 1453.8 1410.56 Q1450.41 1417.2 1450.41 1430.56 Q1450.41 1443.89 1453.8 1450.57 Q1457.23 1457.21 1464 1457.21 Q1470.81 1457.21 1474.2 1450.57 Q1477.63 1443.89 1477.63 1430.56 Q1477.63 1417.2 1474.2 1410.56 Q1470.81 1403.87 1464 1403.87 M1464 1396.93 Q1474.89 1396.93 1480.62 1405.57 Q1486.39 1414.16 1486.39 1430.56 Q1486.39 1446.93 1480.62 1455.56 Q1474.89 1464.16 1464 1464.16 Q1453.1 1464.16 1447.33 1455.56 Q1441.6 1446.93 1441.6 1430.56 Q1441.6 1414.16 1447.33 1405.57 Q1453.1 1396.93 1464 1396.93 Z" fill="#000000" fill-rule="nonzero" fill-opacity="1" /><path clip-path="url(#clip870)" d="M1690.14 1405.74 L1668.01 1440.33 L1690.14 1440.33 L1690.14 1405.74 M1687.84 1398.1 L1698.87 1398.1 L1698.87 1440.33 L1708.11 1440.33 L1708.11 1447.62 L1698.87 1447.62 L1698.87 1462.9 L1690.14 1462.9 L1690.14 1447.62 L1660.89 1447.62 L1660.89 1439.16 L1687.84 1398.1 Z" fill="#000000" fill-rule="nonzero" fill-opacity="1" /><path clip-path="url(#clip870)" d="M1741.36 1403.87 Q1734.59 1403.87 1731.16 1410.56 Q1727.77 1417.2 1727.77 1430.56 Q1727.77 1443.89 1731.16 1450.57 Q1734.59 1457.21 1741.36 1457.21 Q1748.17 1457.21 1751.56 1450.57 Q1754.99 1443.89 1754.99 1430.56 Q1754.99 1417.2 1751.56 1410.56 Q1748.17 1403.87 1741.36 1403.87 M1741.36 1396.93 Q1752.25 1396.93 1757.98 1405.57 Q1763.75 1414.16 1763.75 1430.56 Q1763.75 1446.93 1757.98 1455.56 Q1752.25 1464.16 1741.36 1464.16 Q1730.47 1464.16 1724.69 1455.56 Q1718.96 1446.93 1718.96 1430.56 Q1718.96 1414.16 1724.69 1405.57 Q1730.47 1396.93 1741.36 1396.93 Z" fill="#000000" fill-rule="nonzero" fill-opacity="1" /><path clip-path="url(#clip870)" d="M1797.91 1403.87 Q1791.14 1403.87 1787.71 1410.56 Q1784.33 1417.2 1784.33 1430.56 Q1784.33 1443.89 1787.71 1450.57 Q1791.14 1457.21 1797.91 1457.21 Q1804.73 1457.21 1808.11 1450.57 Q1811.54 1443.89 1811.54 1430.56 Q1811.54 1417.2 1808.11 1410.56 Q1804.73 1403.87 1797.91 1403.87 M1797.91 1396.93 Q1808.81 1396.93 1814.54 1405.57 Q1820.31 1414.16 1820.31 1430.56 Q1820.31 1446.93 1814.54 1455.56 Q1808.81 1464.16 1797.91 1464.16 Q1787.02 1464.16 1781.25 1455.56 Q1775.52 1446.93 1775.52 1430.56 Q1775.52 1414.16 1781.25 1405.57 Q1787.02 1396.93 1797.91 1396.93 Z" fill="#000000" fill-rule="nonzero" fill-opacity="1" /><path clip-path="url(#clip870)" d="M1854.47 1403.87 Q1847.7 1403.87 1844.27 1410.56 Q1840.88 1417.2 1840.88 1430.56 Q1840.88 1443.89 1844.27 1450.57 Q1847.7 1457.21 1854.47 1457.21 Q1861.28 1457.21 1864.67 1450.57 Q1868.09 1443.89 1868.09 1430.56 Q1868.09 1417.2 1864.67 1410.56 Q1861.28 1403.87 1854.47 1403.87 M1854.47 1396.93 Q1865.36 1396.93 1871.09 1405.57 Q1876.86 1414.16 1876.86 1430.56 Q1876.86 1446.93 1871.09 1455.56 Q1865.36 1464.16 1854.47 1464.16 Q1843.57 1464.16 1837.8 1455.56 Q1832.07 1446.93 1832.07 1430.56 Q1832.07 1414.16 1837.8 1405.57 Q1843.57 1396.93 1854.47 1396.93 Z" fill="#000000" fill-rule="nonzero" fill-opacity="1" /><path clip-path="url(#clip870)" d="M2054.14 1398.1 L2088.56 1398.1 L2088.56 1405.48 L2062.17 1405.48 L2062.17 1421.36 Q2064.08 1420.71 2065.99 1420.41 Q2067.9 1420.06 2069.81 1420.06 Q2080.66 1420.06 2086.99 1426.01 Q2093.33 1431.95 2093.33 1442.11 Q2093.33 1452.57 2086.82 1458.39 Q2080.31 1464.16 2068.46 1464.16 Q2064.38 1464.16 2060.13 1463.46 Q2055.92 1462.77 2051.4 1461.38 L2051.4 1452.57 Q2055.31 1454.7 2059.48 1455.74 Q2063.64 1456.78 2068.29 1456.78 Q2075.79 1456.78 2080.18 1452.83 Q2084.56 1448.88 2084.56 1442.11 Q2084.56 1435.34 2080.18 1431.39 Q2075.79 1427.44 2068.29 1427.44 Q2064.77 1427.44 2061.25 1428.22 Q2057.78 1429 2054.14 1430.65 L2054.14 1398.1 Z" fill="#000000" fill-rule="nonzero" fill-opacity="1" /><path clip-path="url(#clip870)" d="M2129.35 1403.87 Q2122.58 1403.87 2119.15 1410.56 Q2115.77 1417.2 2115.77 1430.56 Q2115.77 1443.89 2119.15 1450.57 Q2122.58 1457.21 2129.35 1457.21 Q2136.17 1457.21 2139.55 1450.57 Q2142.98 1443.89 2142.98 1430.56 Q2142.98 1417.2 2139.55 1410.56 Q2136.17 1403.87 2129.35 1403.87 M2129.35 1396.93 Q2140.25 1396.93 2145.98 1405.57 Q2151.75 1414.16 2151.75 1430.56 Q2151.75 1446.93 2145.98 1455.56 Q2140.25 1464.16 2129.35 1464.16 Q2118.46 1464.16 2112.69 1455.56 Q2106.96 1446.93 2106.96 1430.56 Q2106.96 1414.16 2112.69 1405.57 Q2118.46 1396.93 2129.35 1396.93 Z" fill="#000000" fill-rule="nonzero" fill-opacity="1" /><path clip-path="url(#clip870)" d="M2185.91 1403.87 Q2179.14 1403.87 2175.71 1410.56 Q2172.32 1417.2 2172.32 1430.56 Q2172.32 1443.89 2175.71 1450.57 Q2179.14 1457.21 2185.91 1457.21 Q2192.72 1457.21 2196.11 1450.57 Q2199.54 1443.89 2199.54 1430.56 Q2199.54 1417.2 2196.11 1410.56 Q2192.72 1403.87 2185.91 1403.87 M2185.91 1396.93 Q2196.8 1396.93 2202.53 1405.57 Q2208.3 1414.16 2208.3 1430.56 Q2208.3 1446.93 2202.53 1455.56 Q2196.8 1464.16 2185.91 1464.16 Q2175.01 1464.16 2169.24 1455.56 Q2163.51 1446.93 2163.51 1430.56 Q2163.51 1414.16 2169.24 1405.57 Q2175.01 1396.93 2185.91 1396.93 Z" fill="#000000" fill-rule="nonzero" fill-opacity="1" /><path clip-path="url(#clip870)" d="M2242.46 1403.87 Q2235.69 1403.87 2232.26 1410.56 Q2228.88 1417.2 2228.88 1430.56 Q2228.88 1443.89 2232.26 1450.57 Q2235.69 1457.21 2242.46 1457.21 Q2249.27 1457.21 2252.66 1450.57 Q2256.09 1443.89 2256.09 1430.56 Q2256.09 1417.2 2252.66 1410.56 Q2249.27 1403.87 2242.46 1403.87 M2242.46 1396.93 Q2253.35 1396.93 2259.08 1405.57 Q2264.86 1414.16 2264.86 1430.56 Q2264.86 1446.93 2259.08 1455.56 Q2253.35 1464.16 2242.46 1464.16 Q2231.57 1464.16 2225.79 1455.56 Q2220.06 1446.93 2220.06 1430.56 Q2220.06 1414.16 2225.79 1405.57 Q2231.57 1396.93 2242.46 1396.93 Z" fill="#000000" fill-rule="nonzero" fill-opacity="1" /><path clip-path="url(#clip870)" d="M1300.94 1521.82 L1286.67 1560.51 L1315.26 1560.51 L1300.94 1521.82 M1295 1511.45 L1306.93 1511.45 L1336.57 1589.21 L1325.63 1589.21 L1318.55 1569.26 L1283.49 1569.26 L1276.41 1589.21 L1265.32 1589.21 L1295 1511.45 Z" fill="#000000" fill-rule="nonzero" fill-opacity="1" /><path clip-path="url(#clip870)" d="M1328.86 1511.45 L1394.64 1511.45 L1394.64 1520.31 L1367.04 1520.31 L1367.04 1589.21 L1356.46 1589.21 L1356.46 1520.31 L1328.86 1520.31 L1328.86 1511.45 Z" fill="#000000" fill-rule="nonzero" fill-opacity="1" /><path clip-path="url(#clip870)" d="M1415.32 1520.1 L1415.32 1549.32 L1428.55 1549.32 Q1435.89 1549.32 1439.9 1545.51 Q1443.91 1541.71 1443.91 1534.68 Q1443.91 1527.7 1439.9 1523.9 Q1435.89 1520.1 1428.55 1520.1 L1415.32 1520.1 M1404.8 1511.45 L1428.55 1511.45 Q1441.62 1511.45 1448.29 1517.39 Q1455 1523.27 1455 1534.68 Q1455 1546.19 1448.29 1552.08 Q1441.62 1557.96 1428.55 1557.96 L1415.32 1557.96 L1415.32 1589.21 L1404.8 1589.21 L1404.8 1511.45 Z" fill="#000000" fill-rule="nonzero" fill-opacity="1" /><polyline clip-path="url(#clip872)" style="stroke:#000000; stroke-linecap:round; stroke-linejoin:round; stroke-width:2; stroke-opacity:0.1; fill:none" points="367.565,1076.72 2352.76,1076.72 "/>
<polyline clip-path="url(#clip872)" style="stroke:#000000; stroke-linecap:round; stroke-linejoin:round; stroke-width:2; stroke-opacity:0.1; fill:none" points="367.565,758.974 2352.76,758.974 "/>
<polyline clip-path="url(#clip872)" style="stroke:#000000; stroke-linecap:round; stroke-linejoin:round; stroke-width:2; stroke-opacity:0.1; fill:none" points="367.565,441.223 2352.76,441.223 "/>
<polyline clip-path="url(#clip872)" style="stroke:#000000; stroke-linecap:round; stroke-linejoin:round; stroke-width:2; stroke-opacity:0.1; fill:none" points="367.565,123.472 2352.76,123.472 "/>
<polyline clip-path="url(#clip870)" style="stroke:#000000; stroke-linecap:round; stroke-linejoin:round; stroke-width:4; stroke-opacity:1; fill:none" points="367.565,1362.7 367.565,123.472 "/>
<polyline clip-path="url(#clip870)" style="stroke:#000000; stroke-linecap:round; stroke-linejoin:round; stroke-width:4; stroke-opacity:1; fill:none" points="367.565,1076.72 386.463,1076.72 "/>
<polyline clip-path="url(#clip870)" style="stroke:#000000; stroke-linecap:round; stroke-linejoin:round; stroke-width:4; stroke-opacity:1; fill:none" points="367.565,758.974 386.463,758.974 "/>
<polyline clip-path="url(#clip870)" style="stroke:#000000; stroke-linecap:round; stroke-linejoin:round; stroke-width:4; stroke-opacity:1; fill:none" points="367.565,441.223 386.463,441.223 "/>
<polyline clip-path="url(#clip870)" style="stroke:#000000; stroke-linecap:round; stroke-linejoin:round; stroke-width:4; stroke-opacity:1; fill:none" points="367.565,123.472 386.463,123.472 "/>
<path clip-path="url(#clip870)" d="M170.108 1050.1 Q163.337 1050.1 159.908 1056.78 Q156.523 1063.42 156.523 1076.79 Q156.523 1090.11 159.908 1096.8 Q163.337 1103.44 170.108 1103.44 Q176.922 1103.44 180.307 1096.8 Q183.736 1090.11 183.736 1076.79 Q183.736 1063.42 180.307 1056.78 Q176.922 1050.1 170.108 1050.1 M170.108 1043.15 Q181.002 1043.15 186.731 1051.79 Q192.503 1060.38 192.503 1076.79 Q192.503 1093.15 186.731 1101.79 Q181.002 1110.38 170.108 1110.38 Q159.214 1110.38 153.441 1101.79 Q147.712 1093.15 147.712 1076.79 Q147.712 1060.38 153.441 1051.79 Q159.214 1043.15 170.108 1043.15 Z" fill="#000000" fill-rule="nonzero" fill-opacity="1" /><path clip-path="url(#clip870)" d="M207.911 1098.1 L217.069 1098.1 L217.069 1109.12 L207.911 1109.12 L207.911 1098.1 Z" fill="#000000" fill-rule="nonzero" fill-opacity="1" /><path clip-path="url(#clip870)" d="M254.916 1050.1 Q248.145 1050.1 244.717 1056.78 Q241.331 1063.42 241.331 1076.79 Q241.331 1090.11 244.717 1096.8 Q248.145 1103.44 254.916 1103.44 Q261.73 1103.44 265.116 1096.8 Q268.545 1090.11 268.545 1076.79 Q268.545 1063.42 265.116 1056.78 Q261.73 1050.1 254.916 1050.1 M254.916 1043.15 Q265.81 1043.15 271.539 1051.79 Q277.312 1060.38 277.312 1076.79 Q277.312 1093.15 271.539 1101.79 Q265.81 1110.38 254.916 1110.38 Q244.022 1110.38 238.25 1101.79 Q232.521 1093.15 232.521 1076.79 Q232.521 1060.38 238.25 1051.79 Q244.022 1043.15 254.916 1043.15 Z" fill="#000000" fill-rule="nonzero" fill-opacity="1" /><path clip-path="url(#clip870)" d="M294.239 1101.75 L308.562 1101.75 L308.562 1052.31 L292.98 1055.44 L292.98 1047.45 L308.475 1044.32 L317.242 1044.32 L317.242 1101.75 L331.565 1101.75 L331.565 1109.12 L294.239 1109.12 L294.239 1101.75 Z" fill="#000000" fill-rule="nonzero" fill-opacity="1" /><path clip-path="url(#clip870)" d="M170.802 732.346 Q164.031 732.346 160.603 739.03 Q157.217 745.671 157.217 759.039 Q157.217 772.363 160.603 779.047 Q164.031 785.688 170.802 785.688 Q177.616 785.688 181.002 779.047 Q184.43 772.363 184.43 759.039 Q184.43 745.671 181.002 739.03 Q177.616 732.346 170.802 732.346 M170.802 725.402 Q181.696 725.402 187.425 734.039 Q193.198 742.632 193.198 759.039 Q193.198 775.401 187.425 784.038 Q181.696 792.632 170.802 792.632 Q159.908 792.632 154.136 784.038 Q148.406 775.401 148.406 759.039 Q148.406 742.632 154.136 734.039 Q159.908 725.402 170.802 725.402 Z" fill="#000000" fill-rule="nonzero" fill-opacity="1" /><path clip-path="url(#clip870)" d="M208.606 780.349 L217.764 780.349 L217.764 791.374 L208.606 791.374 L208.606 780.349 Z" fill="#000000" fill-rule="nonzero" fill-opacity="1" /><path clip-path="url(#clip870)" d="M255.611 732.346 Q248.84 732.346 245.411 739.03 Q242.026 745.671 242.026 759.039 Q242.026 772.363 245.411 779.047 Q248.84 785.688 255.611 785.688 Q262.425 785.688 265.81 779.047 Q269.239 772.363 269.239 759.039 Q269.239 745.671 265.81 739.03 Q262.425 732.346 255.611 732.346 M255.611 725.402 Q266.505 725.402 272.234 734.039 Q278.006 742.632 278.006 759.039 Q278.006 775.401 272.234 784.038 Q266.505 792.632 255.611 792.632 Q244.717 792.632 238.944 784.038 Q233.215 775.401 233.215 759.039 Q233.215 742.632 238.944 734.039 Q244.717 725.402 255.611 725.402 Z" fill="#000000" fill-rule="nonzero" fill-opacity="1" /><path clip-path="url(#clip870)" d="M300.966 783.995 L331.565 783.995 L331.565 791.374 L290.42 791.374 L290.42 783.995 Q295.411 778.83 304.005 770.15 Q312.642 761.426 314.855 758.908 Q319.065 754.178 320.714 750.922 Q322.407 747.624 322.407 744.455 Q322.407 739.29 318.761 736.035 Q315.159 732.78 309.343 732.78 Q305.22 732.78 300.619 734.212 Q296.062 735.645 290.854 738.553 L290.854 729.699 Q296.149 727.572 300.749 726.487 Q305.35 725.402 309.169 725.402 Q319.239 725.402 325.228 730.436 Q331.218 735.471 331.218 743.891 Q331.218 747.884 329.699 751.487 Q328.223 755.046 324.273 759.907 Q323.188 761.165 317.372 767.198 Q311.557 773.188 300.966 783.995 Z" fill="#000000" fill-rule="nonzero" fill-opacity="1" /><path clip-path="url(#clip870)" d="M169.023 414.595 Q162.252 414.595 158.823 421.279 Q155.438 427.92 155.438 441.288 Q155.438 454.613 158.823 461.296 Q162.252 467.937 169.023 467.937 Q175.837 467.937 179.222 461.296 Q182.651 454.613 182.651 441.288 Q182.651 427.92 179.222 421.279 Q175.837 414.595 169.023 414.595 M169.023 407.651 Q179.917 407.651 185.646 416.288 Q191.418 424.882 191.418 441.288 Q191.418 457.651 185.646 466.288 Q179.917 474.881 169.023 474.881 Q158.129 474.881 152.356 466.288 Q146.627 457.651 146.627 441.288 Q146.627 424.882 152.356 416.288 Q158.129 407.651 169.023 407.651 Z" fill="#000000" fill-rule="nonzero" fill-opacity="1" /><path clip-path="url(#clip870)" d="M206.826 462.599 L215.984 462.599 L215.984 473.623 L206.826 473.623 L206.826 462.599 Z" fill="#000000" fill-rule="nonzero" fill-opacity="1" /><path clip-path="url(#clip870)" d="M253.831 414.595 Q247.06 414.595 243.632 421.279 Q240.246 427.92 240.246 441.288 Q240.246 454.613 243.632 461.296 Q247.06 467.937 253.831 467.937 Q260.645 467.937 264.031 461.296 Q267.46 454.613 267.46 441.288 Q267.46 427.92 264.031 421.279 Q260.645 414.595 253.831 414.595 M253.831 407.651 Q264.725 407.651 270.454 416.288 Q276.227 424.882 276.227 441.288 Q276.227 457.651 270.454 466.288 Q264.725 474.881 253.831 474.881 Q242.937 474.881 237.165 466.288 Q231.435 457.651 231.435 441.288 Q231.435 424.882 237.165 416.288 Q242.937 407.651 253.831 407.651 Z" fill="#000000" fill-rule="nonzero" fill-opacity="1" /><path clip-path="url(#clip870)" d="M318.197 438.684 Q324.491 440.029 328.006 444.283 Q331.565 448.536 331.565 454.786 Q331.565 464.378 324.968 469.63 Q318.371 474.881 306.218 474.881 Q302.138 474.881 297.798 474.057 Q293.501 473.276 288.9 471.67 L288.9 463.206 Q292.546 465.333 296.886 466.418 Q301.227 467.503 305.958 467.503 Q314.204 467.503 318.501 464.248 Q322.841 460.993 322.841 454.786 Q322.841 449.057 318.805 445.845 Q314.812 442.59 307.65 442.59 L300.098 442.59 L300.098 435.385 L307.998 435.385 Q314.465 435.385 317.893 432.824 Q321.322 430.22 321.322 425.359 Q321.322 420.368 317.763 417.72 Q314.248 415.029 307.65 415.029 Q304.048 415.029 299.925 415.811 Q295.801 416.592 290.854 418.241 L290.854 410.429 Q295.845 409.04 300.185 408.345 Q304.569 407.651 308.432 407.651 Q318.414 407.651 324.23 412.208 Q330.046 416.722 330.046 424.448 Q330.046 429.83 326.964 433.562 Q323.883 437.251 318.197 438.684 Z" fill="#000000" fill-rule="nonzero" fill-opacity="1" /><path clip-path="url(#clip870)" d="M166.896 96.8447 Q160.125 96.8447 156.696 103.529 Q153.311 110.169 153.311 123.537 Q153.311 136.862 156.696 143.546 Q160.125 150.186 166.896 150.186 Q173.71 150.186 177.095 143.546 Q180.524 136.862 180.524 123.537 Q180.524 110.169 177.095 103.529 Q173.71 96.8447 166.896 96.8447 M166.896 89.9003 Q177.79 89.9003 183.519 98.5374 Q189.292 107.131 189.292 123.537 Q189.292 139.9 183.519 148.537 Q177.79 157.131 166.896 157.131 Q156.002 157.131 150.229 148.537 Q144.5 139.9 144.5 123.537 Q144.5 107.131 150.229 98.5374 Q156.002 89.9003 166.896 89.9003 Z" fill="#000000" fill-rule="nonzero" fill-opacity="1" /><path clip-path="url(#clip870)" d="M204.699 144.848 L213.857 144.848 L213.857 155.872 L204.699 155.872 L204.699 144.848 Z" fill="#000000" fill-rule="nonzero" fill-opacity="1" /><path clip-path="url(#clip870)" d="M251.704 96.8447 Q244.934 96.8447 241.505 103.529 Q238.119 110.169 238.119 123.537 Q238.119 136.862 241.505 143.546 Q244.934 150.186 251.704 150.186 Q258.519 150.186 261.904 143.546 Q265.333 136.862 265.333 123.537 Q265.333 110.169 261.904 103.529 Q258.519 96.8447 251.704 96.8447 M251.704 89.9003 Q262.598 89.9003 268.328 98.5374 Q274.1 107.131 274.1 123.537 Q274.1 139.9 268.328 148.537 Q262.598 157.131 251.704 157.131 Q240.81 157.131 235.038 148.537 Q229.309 139.9 229.309 123.537 Q229.309 107.131 235.038 98.5374 Q240.81 89.9003 251.704 89.9003 Z" fill="#000000" fill-rule="nonzero" fill-opacity="1" /><path clip-path="url(#clip870)" d="M313.596 98.711 L291.461 133.303 L313.596 133.303 L313.596 98.711 M311.296 91.0721 L322.32 91.0721 L322.32 133.303 L331.565 133.303 L331.565 140.594 L322.32 140.594 L322.32 155.872 L313.596 155.872 L313.596 140.594 L284.343 140.594 L284.343 132.131 L311.296 91.0721 Z" fill="#000000" fill-rule="nonzero" fill-opacity="1" /><path clip-path="url(#clip870)" d="M13.2455 741.628 L85.1722 714.701 L85.1722 724.857 L42.0474 741.211 L85.1722 761.315 L85.1722 771.471 L29.235 745.898 L18.9225 749.753 Q12.36 752.201 12.36 757.773 L12.36 762.773 L4.13093 762.773 L4.23509 756.68 Q4.39134 744.909 13.2455 741.628 Z" fill="#000000" fill-rule="nonzero" fill-opacity="1" /><path clip-path="url(#clip870)" d="M698.445 28.9478 L698.445 35.9153 Q695.286 34.1734 692.085 33.3227 Q688.926 32.4315 685.685 32.4315 Q678.434 32.4315 674.423 37.0496 Q670.413 41.6271 670.413 49.9314 Q670.413 58.2358 674.423 62.8538 Q678.434 67.4314 685.685 67.4314 Q688.926 67.4314 692.085 66.5807 Q695.286 65.6895 698.445 63.9476 L698.445 70.8341 Q695.326 72.2924 691.964 73.0216 Q688.642 73.7508 684.875 73.7508 Q674.626 73.7508 668.59 67.3098 Q662.554 60.8689 662.554 49.9314 Q662.554 38.832 668.631 32.472 Q674.748 26.1121 685.361 26.1121 Q688.804 26.1121 692.085 26.8413 Q695.367 27.5299 698.445 28.9478 Z" fill="#000000" fill-rule="nonzero" fill-opacity="1" /><path clip-path="url(#clip870)" d="M749.122 45.1919 L749.122 72.576 L741.668 72.576 L741.668 45.4349 Q741.668 38.994 739.157 35.7938 Q736.645 32.5936 731.622 32.5936 Q725.586 32.5936 722.103 36.4419 Q718.619 40.2903 718.619 46.9338 L718.619 72.576 L711.125 72.576 L711.125 9.54393 L718.619 9.54393 L718.619 34.2544 Q721.292 30.163 724.898 28.1376 Q728.544 26.1121 733.283 26.1121 Q741.101 26.1121 745.112 30.9732 Q749.122 35.7938 749.122 45.1919 Z" fill="#000000" fill-rule="nonzero" fill-opacity="1" /><path clip-path="url(#clip870)" d="M784.608 49.7694 Q775.575 49.7694 772.091 51.8354 Q768.607 53.9013 768.607 58.8839 Q768.607 62.8538 771.2 65.2034 Q773.833 67.5124 778.329 67.5124 Q784.527 67.5124 788.254 63.1374 Q792.021 58.7219 792.021 51.4303 L792.021 49.7694 L784.608 49.7694 M799.475 46.6907 L799.475 72.576 L792.021 72.576 L792.021 65.6895 Q789.469 69.8214 785.661 71.8063 Q781.853 73.7508 776.344 73.7508 Q769.377 73.7508 765.245 69.8619 Q761.153 65.9325 761.153 59.3701 Q761.153 51.7138 766.257 47.825 Q771.402 43.9361 781.57 43.9361 L792.021 43.9361 L792.021 43.2069 Q792.021 38.0623 788.618 35.2672 Q785.256 32.4315 779.139 32.4315 Q775.25 32.4315 771.564 33.3632 Q767.878 34.295 764.475 36.1584 L764.475 29.2718 Q768.566 27.692 772.415 26.9223 Q776.263 26.1121 779.909 26.1121 Q789.753 26.1121 794.614 31.2163 Q799.475 36.3204 799.475 46.6907 Z" fill="#000000" fill-rule="nonzero" fill-opacity="1" /><path clip-path="url(#clip870)" d="M852.542 45.1919 L852.542 72.576 L845.088 72.576 L845.088 45.4349 Q845.088 38.994 842.576 35.7938 Q840.065 32.5936 835.042 32.5936 Q829.006 32.5936 825.522 36.4419 Q822.038 40.2903 822.038 46.9338 L822.038 72.576 L814.544 72.576 L814.544 27.2059 L822.038 27.2059 L822.038 34.2544 Q824.712 30.163 828.317 28.1376 Q831.963 26.1121 836.703 26.1121 Q844.521 26.1121 848.531 30.9732 Q852.542 35.7938 852.542 45.1919 Z" fill="#000000" fill-rule="nonzero" fill-opacity="1" /><path clip-path="url(#clip870)" d="M897.264 49.3643 Q897.264 41.2625 893.901 36.8065 Q890.58 32.3505 884.544 32.3505 Q878.549 32.3505 875.186 36.8065 Q871.865 41.2625 871.865 49.3643 Q871.865 57.4256 875.186 61.8816 Q878.549 66.3376 884.544 66.3376 Q890.58 66.3376 893.901 61.8816 Q897.264 57.4256 897.264 49.3643 M904.717 66.9452 Q904.717 78.5308 899.573 84.1616 Q894.428 89.8329 883.815 89.8329 Q879.885 89.8329 876.402 89.2252 Q872.918 88.6581 869.637 87.4428 L869.637 80.1917 Q872.918 81.9741 876.118 82.8248 Q879.318 83.6755 882.64 83.6755 Q889.972 83.6755 893.618 79.8271 Q897.264 76.0193 897.264 68.282 L897.264 64.5957 Q894.955 68.6061 891.349 70.5911 Q887.744 72.576 882.721 72.576 Q874.376 72.576 869.272 66.2161 Q864.168 59.8562 864.168 49.3643 Q864.168 38.832 869.272 32.472 Q874.376 26.1121 882.721 26.1121 Q887.744 26.1121 891.349 28.0971 Q894.955 30.082 897.264 34.0924 L897.264 27.2059 L904.717 27.2059 L904.717 66.9452 Z" fill="#000000" fill-rule="nonzero" fill-opacity="1" /><path clip-path="url(#clip870)" d="M920.07 27.2059 L927.524 27.2059 L927.524 72.576 L920.07 72.576 L920.07 27.2059 M920.07 9.54393 L927.524 9.54393 L927.524 18.9825 L920.07 18.9825 L920.07 9.54393 Z" fill="#000000" fill-rule="nonzero" fill-opacity="1" /><path clip-path="url(#clip870)" d="M980.834 45.1919 L980.834 72.576 L973.38 72.576 L973.38 45.4349 Q973.38 38.994 970.869 35.7938 Q968.357 32.5936 963.334 32.5936 Q957.298 32.5936 953.814 36.4419 Q950.331 40.2903 950.331 46.9338 L950.331 72.576 L942.836 72.576 L942.836 27.2059 L950.331 27.2059 L950.331 34.2544 Q953.004 30.163 956.609 28.1376 Q960.255 26.1121 964.995 26.1121 Q972.813 26.1121 976.823 30.9732 Q980.834 35.7938 980.834 45.1919 Z" fill="#000000" fill-rule="nonzero" fill-opacity="1" /><path clip-path="url(#clip870)" d="M1025.56 49.3643 Q1025.56 41.2625 1022.19 36.8065 Q1018.87 32.3505 1012.84 32.3505 Q1006.84 32.3505 1003.48 36.8065 Q1000.16 41.2625 1000.16 49.3643 Q1000.16 57.4256 1003.48 61.8816 Q1006.84 66.3376 1012.84 66.3376 Q1018.87 66.3376 1022.19 61.8816 Q1025.56 57.4256 1025.56 49.3643 M1033.01 66.9452 Q1033.01 78.5308 1027.86 84.1616 Q1022.72 89.8329 1012.11 89.8329 Q1008.18 89.8329 1004.69 89.2252 Q1001.21 88.6581 997.929 87.4428 L997.929 80.1917 Q1001.21 81.9741 1004.41 82.8248 Q1007.61 83.6755 1010.93 83.6755 Q1018.26 83.6755 1021.91 79.8271 Q1025.56 76.0193 1025.56 68.282 L1025.56 64.5957 Q1023.25 68.6061 1019.64 70.5911 Q1016.04 72.576 1011.01 72.576 Q1002.67 72.576 997.564 66.2161 Q992.46 59.8562 992.46 49.3643 Q992.46 38.832 997.564 32.472 Q1002.67 26.1121 1011.01 26.1121 Q1016.04 26.1121 1019.64 28.0971 Q1023.25 30.082 1025.56 34.0924 L1025.56 27.2059 L1033.01 27.2059 L1033.01 66.9452 Z" fill="#000000" fill-rule="nonzero" fill-opacity="1" /><path clip-path="url(#clip870)" d="M1089.2 73.7508 Q1072.38 73.7508 1072.38 49.6884 Q1072.38 40.1688 1078.66 27.2059 L1086.68 27.2059 Q1080.89 40.1688 1080.89 49.8909 Q1080.89 67.4314 1089.88 67.4314 Q1098.11 67.4314 1098.11 45.6375 L1104.99 45.6375 Q1104.99 67.4314 1113.22 67.4314 Q1122.21 67.4314 1122.21 49.8909 Q1122.21 40.1688 1116.42 27.2059 L1124.44 27.2059 Q1130.72 40.1688 1130.72 49.6884 Q1130.72 73.7508 1113.91 73.7508 Q1102.89 73.7508 1101.55 61.6386 Q1099.89 73.7508 1089.2 73.7508 Z" fill="#000000" fill-rule="nonzero" fill-opacity="1" /><path clip-path="url(#clip870)" d="M1178.68 86.3491 L1178.68 92.1419 L1135.58 92.1419 L1135.58 86.3491 L1178.68 86.3491 Z" fill="#000000" fill-rule="nonzero" fill-opacity="1" /><path clip-path="url(#clip870)" d="M1211.98 34.1734 Q1210.72 33.4443 1209.22 33.1202 Q1207.77 32.7556 1205.98 32.7556 Q1199.66 32.7556 1196.26 36.8875 Q1192.9 40.9789 1192.9 48.6757 L1192.9 72.576 L1185.4 72.576 L1185.4 27.2059 L1192.9 27.2059 L1192.9 34.2544 Q1195.25 30.1225 1199.02 28.1376 Q1202.78 26.1121 1208.17 26.1121 Q1208.94 26.1121 1209.87 26.2337 Q1210.8 26.3147 1211.94 26.5172 L1211.98 34.1734 Z" fill="#000000" fill-rule="nonzero" fill-opacity="1" /><path clip-path="url(#clip870)" d="M1241.83 27.2059 L1249.29 27.2059 L1258.6 62.6108 L1267.88 27.2059 L1276.67 27.2059 L1285.99 62.6108 L1295.27 27.2059 L1302.72 27.2059 L1290.85 72.576 L1282.06 72.576 L1272.3 35.3887 L1262.49 72.576 L1253.7 72.576 L1241.83 27.2059 Z" fill="#000000" fill-rule="nonzero" fill-opacity="1" /><path clip-path="url(#clip870)" d="M1351.73 45.1919 L1351.73 72.576 L1344.28 72.576 L1344.28 45.4349 Q1344.28 38.994 1341.77 35.7938 Q1339.26 32.5936 1334.23 32.5936 Q1328.2 32.5936 1324.72 36.4419 Q1321.23 40.2903 1321.23 46.9338 L1321.23 72.576 L1313.74 72.576 L1313.74 9.54393 L1321.23 9.54393 L1321.23 34.2544 Q1323.9 30.163 1327.51 28.1376 Q1331.16 26.1121 1335.9 26.1121 Q1343.71 26.1121 1347.72 30.9732 Q1351.73 35.7938 1351.73 45.1919 Z" fill="#000000" fill-rule="nonzero" fill-opacity="1" /><path clip-path="url(#clip870)" d="M1405.41 48.0275 L1405.41 51.6733 L1371.14 51.6733 Q1371.62 59.3701 1375.76 63.421 Q1379.93 67.4314 1387.34 67.4314 Q1391.64 67.4314 1395.65 66.3781 Q1399.7 65.3249 1403.67 63.2184 L1403.67 70.267 Q1399.66 71.9684 1395.44 72.8596 Q1391.23 73.7508 1386.9 73.7508 Q1376.04 73.7508 1369.68 67.4314 Q1363.36 61.1119 1363.36 50.3365 Q1363.36 39.1965 1369.36 32.6746 Q1375.39 26.1121 1385.6 26.1121 Q1394.76 26.1121 1400.06 32.0264 Q1405.41 37.9003 1405.41 48.0275 M1397.96 45.84 Q1397.87 39.7232 1394.51 36.0774 Q1391.19 32.4315 1385.68 32.4315 Q1379.44 32.4315 1375.68 35.9558 Q1371.95 39.4801 1371.38 45.8805 L1397.96 45.84 Z" fill="#000000" fill-rule="nonzero" fill-opacity="1" /><path clip-path="url(#clip870)" d="M1455.36 45.1919 L1455.36 72.576 L1447.9 72.576 L1447.9 45.4349 Q1447.9 38.994 1445.39 35.7938 Q1442.88 32.5936 1437.86 32.5936 Q1431.82 32.5936 1428.34 36.4419 Q1424.85 40.2903 1424.85 46.9338 L1424.85 72.576 L1417.36 72.576 L1417.36 27.2059 L1424.85 27.2059 L1424.85 34.2544 Q1427.53 30.163 1431.13 28.1376 Q1434.78 26.1121 1439.52 26.1121 Q1447.34 26.1121 1451.35 30.9732 Q1455.36 35.7938 1455.36 45.1919 Z" fill="#000000" fill-rule="nonzero" fill-opacity="1" /><path clip-path="url(#clip870)" d="M1511.06 73.7508 Q1494.25 73.7508 1494.25 49.6884 Q1494.25 40.1688 1500.52 27.2059 L1508.55 27.2059 Q1502.75 40.1688 1502.75 49.8909 Q1502.75 67.4314 1511.75 67.4314 Q1519.97 67.4314 1519.97 45.6375 L1526.86 45.6375 Q1526.86 67.4314 1535.08 67.4314 Q1544.07 67.4314 1544.07 49.8909 Q1544.07 40.1688 1538.28 27.2059 L1546.3 27.2059 Q1552.58 40.1688 1552.58 49.6884 Q1552.58 73.7508 1535.77 73.7508 Q1524.75 73.7508 1523.41 61.6386 Q1521.75 73.7508 1511.06 73.7508 Z" fill="#000000" fill-rule="nonzero" fill-opacity="1" /><path clip-path="url(#clip870)" d="M1600.54 86.3491 L1600.54 92.1419 L1557.44 92.1419 L1557.44 86.3491 L1600.54 86.3491 Z" fill="#000000" fill-rule="nonzero" fill-opacity="1" /><path clip-path="url(#clip870)" d="M1628.17 49.7694 Q1619.13 49.7694 1615.65 51.8354 Q1612.17 53.9013 1612.17 58.8839 Q1612.17 62.8538 1614.76 65.2034 Q1617.39 67.5124 1621.89 67.5124 Q1628.09 67.5124 1631.81 63.1374 Q1635.58 58.7219 1635.58 51.4303 L1635.58 49.7694 L1628.17 49.7694 M1643.04 46.6907 L1643.04 72.576 L1635.58 72.576 L1635.58 65.6895 Q1633.03 69.8214 1629.22 71.8063 Q1625.41 73.7508 1619.9 73.7508 Q1612.94 73.7508 1608.81 69.8619 Q1604.71 65.9325 1604.71 59.3701 Q1604.71 51.7138 1609.82 47.825 Q1614.96 43.9361 1625.13 43.9361 L1635.58 43.9361 L1635.58 43.2069 Q1635.58 38.0623 1632.18 35.2672 Q1628.82 32.4315 1622.7 32.4315 Q1618.81 32.4315 1615.12 33.3632 Q1611.44 34.295 1608.04 36.1584 L1608.04 29.2718 Q1612.13 27.692 1615.98 26.9223 Q1619.82 26.1121 1623.47 26.1121 Q1633.31 26.1121 1638.17 31.2163 Q1643.04 36.3204 1643.04 46.6907 Z" fill="#000000" fill-rule="nonzero" fill-opacity="1" /><path clip-path="url(#clip870)" d="M1690.96 49.9314 Q1690.96 41.7081 1687.55 37.0496 Q1684.19 32.3505 1678.28 32.3505 Q1672.36 32.3505 1668.96 37.0496 Q1665.6 41.7081 1665.6 49.9314 Q1665.6 58.1548 1668.96 62.8538 Q1672.36 67.5124 1678.28 67.5124 Q1684.19 67.5124 1687.55 62.8538 Q1690.96 58.1548 1690.96 49.9314 M1665.6 34.0924 Q1667.95 30.0415 1671.51 28.0971 Q1675.12 26.1121 1680.1 26.1121 Q1688.36 26.1121 1693.51 32.6746 Q1698.69 39.2371 1698.69 49.9314 Q1698.69 60.6258 1693.51 67.1883 Q1688.36 73.7508 1680.1 73.7508 Q1675.12 73.7508 1671.51 71.8063 Q1667.95 69.8214 1665.6 65.7705 L1665.6 72.576 L1658.1 72.576 L1658.1 9.54393 L1665.6 9.54393 L1665.6 34.0924 Z" fill="#000000" fill-rule="nonzero" fill-opacity="1" /><path clip-path="url(#clip870)" d="M1738.39 34.9026 L1790.33 34.9026 L1790.33 41.7081 L1738.39 41.7081 L1738.39 34.9026 M1738.39 51.4303 L1790.33 51.4303 L1790.33 58.3168 L1738.39 58.3168 L1738.39 51.4303 Z" fill="#000000" fill-rule="nonzero" fill-opacity="1" /><path clip-path="url(#clip870)" d="M1851.86 17.4837 Q1845.54 17.4837 1842.34 23.7221 Q1839.18 29.92 1839.18 42.3968 Q1839.18 54.833 1842.34 61.0714 Q1845.54 67.2693 1851.86 67.2693 Q1858.22 67.2693 1861.38 61.0714 Q1864.58 54.833 1864.58 42.3968 Q1864.58 29.92 1861.38 23.7221 Q1858.22 17.4837 1851.86 17.4837 M1851.86 11.0023 Q1862.03 11.0023 1867.37 19.0636 Q1872.76 27.0843 1872.76 42.3968 Q1872.76 57.6687 1867.37 65.73 Q1862.03 73.7508 1851.86 73.7508 Q1841.69 73.7508 1836.3 65.73 Q1830.96 57.6687 1830.96 42.3968 Q1830.96 27.0843 1836.3 19.0636 Q1841.69 11.0023 1851.86 11.0023 Z" fill="#000000" fill-rule="nonzero" fill-opacity="1" /><path clip-path="url(#clip870)" d="M1887.14 62.2867 L1895.69 62.2867 L1895.69 72.576 L1887.14 72.576 L1887.14 62.2867 Z" fill="#000000" fill-rule="nonzero" fill-opacity="1" /><path clip-path="url(#clip870)" d="M1931.01 17.4837 Q1924.69 17.4837 1921.49 23.7221 Q1918.33 29.92 1918.33 42.3968 Q1918.33 54.833 1921.49 61.0714 Q1924.69 67.2693 1931.01 67.2693 Q1937.37 67.2693 1940.53 61.0714 Q1943.73 54.833 1943.73 42.3968 Q1943.73 29.92 1940.53 23.7221 Q1937.37 17.4837 1931.01 17.4837 M1931.01 11.0023 Q1941.18 11.0023 1946.53 19.0636 Q1951.92 27.0843 1951.92 42.3968 Q1951.92 57.6687 1946.53 65.73 Q1941.18 73.7508 1931.01 73.7508 Q1920.85 73.7508 1915.46 65.73 Q1910.11 57.6687 1910.11 42.3968 Q1910.11 27.0843 1915.46 19.0636 Q1920.85 11.0023 1931.01 11.0023 Z" fill="#000000" fill-rule="nonzero" fill-opacity="1" /><path clip-path="url(#clip870)" d="M1966.38 12.096 L1998.5 12.096 L1998.5 18.9825 L1973.87 18.9825 L1973.87 33.8088 Q1975.65 33.2012 1977.44 32.9176 Q1979.22 32.5936 1981 32.5936 Q1991.13 32.5936 1997.04 38.1433 Q2002.96 43.6931 2002.96 53.1722 Q2002.96 62.9348 1996.88 68.3631 Q1990.81 73.7508 1979.75 73.7508 Q1975.94 73.7508 1971.97 73.1026 Q1968.04 72.4545 1963.83 71.1582 L1963.83 62.9348 Q1967.47 64.9198 1971.36 65.892 Q1975.25 66.8642 1979.58 66.8642 Q1986.59 66.8642 1990.68 63.1779 Q1994.78 59.4916 1994.78 53.1722 Q1994.78 46.8528 1990.68 43.1664 Q1986.59 39.4801 1979.58 39.4801 Q1976.3 39.4801 1973.02 40.2093 Q1969.78 40.9384 1966.38 42.4778 L1966.38 12.096 Z" fill="#000000" fill-rule="nonzero" fill-opacity="1" /><path clip-path="url(#clip870)" d="M2037.59 39.075 Q2032.08 39.075 2028.84 42.8424 Q2025.64 46.6097 2025.64 53.1722 Q2025.64 59.6941 2028.84 63.502 Q2032.08 67.2693 2037.59 67.2693 Q2043.1 67.2693 2046.3 63.502 Q2049.54 59.6941 2049.54 53.1722 Q2049.54 46.6097 2046.3 42.8424 Q2043.1 39.075 2037.59 39.075 M2053.84 13.4328 L2053.84 20.8865 Q2050.76 19.4281 2047.6 18.6585 Q2044.48 17.8888 2041.4 17.8888 Q2033.3 17.8888 2029.01 23.3575 Q2024.75 28.8262 2024.14 39.8852 Q2026.53 36.3609 2030.14 34.4975 Q2033.74 32.5936 2038.08 32.5936 Q2047.19 32.5936 2052.46 38.1433 Q2057.77 43.6525 2057.77 53.1722 Q2057.77 62.4892 2052.26 68.12 Q2046.75 73.7508 2037.59 73.7508 Q2027.1 73.7508 2021.55 65.73 Q2016 57.6687 2016 42.3968 Q2016 28.0566 2022.81 19.5497 Q2029.61 11.0023 2041.08 11.0023 Q2044.16 11.0023 2047.27 11.6099 Q2050.43 12.2175 2053.84 13.4328 Z" fill="#000000" fill-rule="nonzero" fill-opacity="1" /><path clip-path="url(#clip872)" d="M367.565 1275.08 L387.618 1275.08 L407.67 1262.56 L427.722 1262.56 L447.775 1250.04 L467.827 1250.04 L487.88 1250.04 L507.932 1237.53 L527.985 1237.53 L548.037 1237.53 L568.089 1237.53 L588.142 1225.01 L608.194 1225.01 L628.247 1225.01 L648.299 1225.01 L668.352 1225.01 L688.404 1225.01 L708.456 1225.01 L728.509 1212.49 L748.561 1212.49 L768.614 1212.49 L788.666 1212.49 L808.719 1212.49 L828.771 1212.49 L848.823 1212.49 L868.876 1212.49 L888.928 1212.49 L908.981 1212.49 L929.033 1212.49 L949.086 1199.97 L969.138 1199.97 L989.191 1199.97 L1009.24 1199.97 L1029.3 1199.97 L1049.35 1199.97 L1069.4 1199.97 L1089.45 1199.97 L1109.51 1199.97 L1129.56 1199.97 L1149.61 1199.97 L1169.66 1199.97 L1189.71 1199.97 L1209.77 1199.97 L1229.82 1199.97 L1249.87 1199.97 L1269.92 1199.97 L1289.98 1199.97 L1310.03 1199.97 L1330.08 1199.97 L1350.13 1199.97 L1370.19 1199.97 L1390.24 1199.97 L1410.29 1199.97 L1430.34 1187.46 L1450.4 1187.46 L1470.45 1187.46 L1490.5 1187.46 L1510.55 1187.46 L1530.61 1187.46 L1550.66 1187.46 L1570.71 1187.46 L1590.76 1187.46 L1610.82 1187.46 L1630.87 1187.46 L1650.92 1187.46 L1670.97 1187.46 L1691.03 1187.46 L1711.08 1187.46 L1731.13 1187.46 L1751.18 1187.46 L1771.24 1187.46 L1791.29 1187.46 L1811.34 1187.46 L1831.39 1187.46 L1851.45 1187.46 L1871.5 1187.46 L1891.55 1187.46 L1911.6 1187.46 L1931.65 1187.46 L1951.71 1187.46 L1971.76 1187.46 L1991.81 1187.46 L2011.86 1187.46 L2031.92 1187.46 L2051.97 1187.46 L2072.02 1187.46 L2092.07 1187.46 L2112.13 1187.46 L2132.18 1187.46 L2152.23 1187.46 L2172.28 1187.46 L2192.34 1187.46 L2212.39 1187.46 L2232.44 1187.46 L2252.49 1187.46 L2272.55 1187.46 L2292.6 1187.46 L2312.65 1187.46 L2332.7 1187.46 L2352.76 1187.46 L2352.76 1287.6 L2332.7 1287.6 L2312.65 1287.6 L2292.6 1287.6 L2272.55 1287.6 L2252.49 1287.6 L2232.44 1287.6 L2212.39 1287.6 L2192.34 1287.6 L2172.28 1287.6 L2152.23 1287.6 L2132.18 1287.6 L2112.13 1287.6 L2092.07 1287.6 L2072.02 1287.6 L2051.97 1287.6 L2031.92 1287.6 L2011.86 1287.6 L1991.81 1287.6 L1971.76 1287.6 L1951.71 1287.6 L1931.65 1287.6 L1911.6 1287.6 L1891.55 1287.6 L1871.5 1287.6 L1851.45 1287.6 L1831.39 1287.6 L1811.34 1287.6 L1791.29 1287.6 L1771.24 1287.6 L1751.18 1287.6 L1731.13 1287.6 L1711.08 1287.6 L1691.03 1287.6 L1670.97 1287.6 L1650.92 1287.6 L1630.87 1287.6 L1610.82 1287.6 L1590.76 1287.6 L1570.71 1287.6 L1550.66 1287.6 L1530.61 1287.6 L1510.55 1287.6 L1490.5 1287.6 L1470.45 1287.6 L1450.4 1287.6 L1430.34 1287.6 L1410.29 1300.11 L1390.24 1300.11 L1370.19 1300.11 L1350.13 1300.11 L1330.08 1300.11 L1310.03 1300.11 L1289.98 1300.11 L1269.92 1300.11 L1249.87 1300.11 L1229.82 1300.11 L1209.77 1300.11 L1189.71 1300.11 L1169.66 1300.11 L1149.61 1300.11 L1129.56 1300.11 L1109.51 1300.11 L1089.45 1300.11 L1069.4 1300.11 L1049.35 1300.11 L1029.3 1300.11 L1009.24 1300.11 L989.191 1300.11 L969.138 1300.11 L949.086 1300.11 L929.033 1300.11 L908.981 1300.11 L888.928 1300.11 L868.876 1300.11 L848.823 1300.11 L828.771 1300.11 L808.719 1300.11 L788.666 1300.11 L768.614 1312.63 L748.561 1312.63 L728.509 1312.63 L708.456 1312.63 L688.404 1312.63 L668.352 1312.63 L648.299 1312.63 L628.247 1312.63 L608.194 1312.63 L588.142 1312.63 L568.089 1312.63 L548.037 1312.63 L527.985 1325.15 L507.932 1325.15 L487.88 1325.15 L467.827 1325.15 L447.775 1325.15 L427.722 1337.66 L407.67 1337.66 L387.618 1337.66 L367.565 1337.66  Z" fill="#1f77b4" fill-rule="evenodd" fill-opacity="0.45"/>
<polyline clip-path="url(#clip872)" style="stroke:#1f77b4; stroke-linecap:round; stroke-linejoin:round; stroke-width:4; stroke-opacity:1; fill:none" points="367.565,1275.08 387.618,1275.08 407.67,1262.56 427.722,1262.56 447.775,1250.04 467.827,1250.04 487.88,1250.04 507.932,1237.53 527.985,1237.53 548.037,1237.53 568.089,1237.53 588.142,1225.01 608.194,1225.01 628.247,1225.01 648.299,1225.01 668.352,1225.01 688.404,1225.01 708.456,1225.01 728.509,1212.49 748.561,1212.49 768.614,1212.49 788.666,1212.49 808.719,1212.49 828.771,1212.49 848.823,1212.49 868.876,1212.49 888.928,1212.49 908.981,1212.49 929.033,1212.49 949.086,1199.97 969.138,1199.97 989.191,1199.97 1009.24,1199.97 1029.3,1199.97 1049.35,1199.97 1069.4,1199.97 1089.45,1199.97 1109.51,1199.97 1129.56,1199.97 1149.61,1199.97 1169.66,1199.97 1189.71,1199.97 1209.77,1199.97 1229.82,1199.97 1249.87,1199.97 1269.92,1199.97 1289.98,1199.97 1310.03,1199.97 1330.08,1199.97 1350.13,1199.97 1370.19,1199.97 1390.24,1199.97 1410.29,1199.97 1430.34,1187.46 1450.4,1187.46 1470.45,1187.46 1490.5,1187.46 1510.55,1187.46 1530.61,1187.46 1550.66,1187.46 1570.71,1187.46 1590.76,1187.46 1610.82,1187.46 1630.87,1187.46 1650.92,1187.46 1670.97,1187.46 1691.03,1187.46 1711.08,1187.46 1731.13,1187.46 1751.18,1187.46 1771.24,1187.46 1791.29,1187.46 1811.34,1187.46 1831.39,1187.46 1851.45,1187.46 1871.5,1187.46 1891.55,1187.46 1911.6,1187.46 1931.65,1187.46 1951.71,1187.46 1971.76,1187.46 1991.81,1187.46 2011.86,1187.46 2031.92,1187.46 2051.97,1187.46 2072.02,1187.46 2092.07,1187.46 2112.13,1187.46 2132.18,1187.46 2152.23,1187.46 2172.28,1187.46 2192.34,1187.46 2212.39,1187.46 2232.44,1187.46 2252.49,1187.46 2272.55,1187.46 2292.6,1187.46 2312.65,1187.46 2332.7,1187.46 2352.76,1187.46 "/>
<path clip-path="url(#clip872)" d="M367.565 1212.49 L387.618 1199.97 L407.67 1187.46 L427.722 1174.94 L447.775 1174.94 L467.827 1162.42 L487.88 1149.9 L507.932 1149.9 L527.985 1149.9 L548.037 1137.39 L568.089 1137.39 L588.142 1137.39 L608.194 1124.87 L628.247 1124.87 L648.299 1124.87 L668.352 1124.87 L688.404 1112.35 L708.456 1112.35 L728.509 1112.35 L748.561 1112.35 L768.614 1112.35 L788.666 1099.83 L808.719 1099.83 L828.771 1099.83 L848.823 1099.83 L868.876 1099.83 L888.928 1099.83 L908.981 1099.83 L929.033 1099.83 L949.086 1099.83 L969.138 1087.32 L989.191 1087.32 L1009.24 1087.32 L1029.3 1087.32 L1049.35 1087.32 L1069.4 1087.32 L1089.45 1087.32 L1109.51 1087.32 L1129.56 1087.32 L1149.61 1087.32 L1169.66 1087.32 L1189.71 1087.32 L1209.77 1087.32 L1229.82 1074.8 L1249.87 1074.8 L1269.92 1074.8 L1289.98 1074.8 L1310.03 1074.8 L1330.08 1074.8 L1350.13 1074.8 L1370.19 1074.8 L1390.24 1074.8 L1410.29 1074.8 L1430.34 1074.8 L1450.4 1074.8 L1470.45 1074.8 L1490.5 1074.8 L1510.55 1074.8 L1530.61 1074.8 L1550.66 1074.8 L1570.71 1074.8 L1590.76 1074.8 L1610.82 1074.8 L1630.87 1074.8 L1650.92 1074.8 L1670.97 1074.8 L1691.03 1074.8 L1711.08 1074.8 L1731.13 1074.8 L1751.18 1062.28 L1771.24 1062.28 L1791.29 1062.28 L1811.34 1062.28 L1831.39 1062.28 L1851.45 1062.28 L1871.5 1062.28 L1891.55 1062.28 L1911.6 1062.28 L1931.65 1062.28 L1951.71 1062.28 L1971.76 1062.28 L1991.81 1062.28 L2011.86 1062.28 L2031.92 1062.28 L2051.97 1062.28 L2072.02 1062.28 L2092.07 1062.28 L2112.13 1062.28 L2132.18 1062.28 L2152.23 1062.28 L2172.28 1062.28 L2192.34 1062.28 L2212.39 1062.28 L2232.44 1062.28 L2252.49 1062.28 L2272.55 1062.28 L2292.6 1062.28 L2312.65 1062.28 L2332.7 1062.28 L2352.76 1062.28 L2352.76 1212.49 L2332.7 1212.49 L2312.65 1212.49 L2292.6 1212.49 L2272.55 1212.49 L2252.49 1212.49 L2232.44 1212.49 L2212.39 1212.49 L2192.34 1212.49 L2172.28 1212.49 L2152.23 1212.49 L2132.18 1212.49 L2112.13 1212.49 L2092.07 1212.49 L2072.02 1212.49 L2051.97 1212.49 L2031.92 1212.49 L2011.86 1212.49 L1991.81 1212.49 L1971.76 1212.49 L1951.71 1212.49 L1931.65 1212.49 L1911.6 1212.49 L1891.55 1212.49 L1871.5 1212.49 L1851.45 1212.49 L1831.39 1212.49 L1811.34 1212.49 L1791.29 1212.49 L1771.24 1212.49 L1751.18 1212.49 L1731.13 1212.49 L1711.08 1212.49 L1691.03 1212.49 L1670.97 1212.49 L1650.92 1212.49 L1630.87 1212.49 L1610.82 1212.49 L1590.76 1212.49 L1570.71 1212.49 L1550.66 1212.49 L1530.61 1212.49 L1510.55 1225.01 L1490.5 1225.01 L1470.45 1225.01 L1450.4 1225.01 L1430.34 1225.01 L1410.29 1225.01 L1390.24 1225.01 L1370.19 1225.01 L1350.13 1225.01 L1330.08 1225.01 L1310.03 1225.01 L1289.98 1225.01 L1269.92 1225.01 L1249.87 1225.01 L1229.82 1225.01 L1209.77 1225.01 L1189.71 1225.01 L1169.66 1225.01 L1149.61 1225.01 L1129.56 1225.01 L1109.51 1225.01 L1089.45 1225.01 L1069.4 1225.01 L1049.35 1225.01 L1029.3 1225.01 L1009.24 1225.01 L989.191 1237.53 L969.138 1237.53 L949.086 1237.53 L929.033 1237.53 L908.981 1237.53 L888.928 1237.53 L868.876 1237.53 L848.823 1237.53 L828.771 1237.53 L808.719 1237.53 L788.666 1237.53 L768.614 1237.53 L748.561 1237.53 L728.509 1250.04 L708.456 1250.04 L688.404 1250.04 L668.352 1250.04 L648.299 1250.04 L628.247 1250.04 L608.194 1250.04 L588.142 1262.56 L568.089 1262.56 L548.037 1262.56 L527.985 1262.56 L507.932 1275.08 L487.88 1275.08 L467.827 1275.08 L447.775 1287.6 L427.722 1287.6 L407.67 1287.6 L387.618 1300.11 L367.565 1300.11  Z" fill="#ff7e0d" fill-rule="evenodd" fill-opacity="0.45"/>
<polyline clip-path="url(#clip872)" style="stroke:#ff7e0d; stroke-linecap:round; stroke-linejoin:round; stroke-width:4; stroke-opacity:1; fill:none" points="367.565,1212.49 387.618,1199.97 407.67,1187.46 427.722,1174.94 447.775,1174.94 467.827,1162.42 487.88,1149.9 507.932,1149.9 527.985,1149.9 548.037,1137.39 568.089,1137.39 588.142,1137.39 608.194,1124.87 628.247,1124.87 648.299,1124.87 668.352,1124.87 688.404,1112.35 708.456,1112.35 728.509,1112.35 748.561,1112.35 768.614,1112.35 788.666,1099.83 808.719,1099.83 828.771,1099.83 848.823,1099.83 868.876,1099.83 888.928,1099.83 908.981,1099.83 929.033,1099.83 949.086,1099.83 969.138,1087.32 989.191,1087.32 1009.24,1087.32 1029.3,1087.32 1049.35,1087.32 1069.4,1087.32 1089.45,1087.32 1109.51,1087.32 1129.56,1087.32 1149.61,1087.32 1169.66,1087.32 1189.71,1087.32 1209.77,1087.32 1229.82,1074.8 1249.87,1074.8 1269.92,1074.8 1289.98,1074.8 1310.03,1074.8 1330.08,1074.8 1350.13,1074.8 1370.19,1074.8 1390.24,1074.8 1410.29,1074.8 1430.34,1074.8 1450.4,1074.8 1470.45,1074.8 1490.5,1074.8 1510.55,1074.8 1530.61,1074.8 1550.66,1074.8 1570.71,1074.8 1590.76,1074.8 1610.82,1074.8 1630.87,1074.8 1650.92,1074.8 1670.97,1074.8 1691.03,1074.8 1711.08,1074.8 1731.13,1074.8 1751.18,1062.28 1771.24,1062.28 1791.29,1062.28 1811.34,1062.28 1831.39,1062.28 1851.45,1062.28 1871.5,1062.28 1891.55,1062.28 1911.6,1062.28 1931.65,1062.28 1951.71,1062.28 1971.76,1062.28 1991.81,1062.28 2011.86,1062.28 2031.92,1062.28 2051.97,1062.28 2072.02,1062.28 2092.07,1062.28 2112.13,1062.28 2132.18,1062.28 2152.23,1062.28 2172.28,1062.28 2192.34,1062.28 2212.39,1062.28 2232.44,1062.28 2252.49,1062.28 2272.55,1062.28 2292.6,1062.28 2312.65,1062.28 2332.7,1062.28 2352.76,1062.28 "/>
<path clip-path="url(#clip872)" d="M367.565 1099.83 L387.618 1074.8 L407.67 1062.28 L427.722 1049.76 L447.775 1037.25 L467.827 1024.73 L487.88 1012.21 L507.932 1012.21 L527.985 999.694 L548.037 987.176 L568.089 987.176 L588.142 974.659 L608.194 974.659 L628.247 962.141 L648.299 962.141 L668.352 962.141 L688.404 949.624 L708.456 949.624 L728.509 949.624 L748.561 949.624 L768.614 937.106 L788.666 937.106 L808.719 937.106 L828.771 937.106 L848.823 924.589 L868.876 924.589 L888.928 924.589 L908.981 924.589 L929.033 924.589 L949.086 924.589 L969.138 912.072 L989.191 912.072 L1009.24 912.072 L1029.3 912.072 L1049.35 912.072 L1069.4 912.072 L1089.45 912.072 L1109.51 912.072 L1129.56 899.554 L1149.61 899.554 L1169.66 899.554 L1189.71 899.554 L1209.77 899.554 L1229.82 899.554 L1249.87 899.554 L1269.92 899.554 L1289.98 899.554 L1310.03 899.554 L1330.08 899.554 L1350.13 899.554 L1370.19 887.037 L1390.24 887.037 L1410.29 887.037 L1430.34 887.037 L1450.4 887.037 L1470.45 887.037 L1490.5 887.037 L1510.55 887.037 L1530.61 887.037 L1550.66 887.037 L1570.71 887.037 L1590.76 887.037 L1610.82 887.037 L1630.87 887.037 L1650.92 887.037 L1670.97 887.037 L1691.03 887.037 L1711.08 887.037 L1731.13 874.519 L1751.18 874.519 L1771.24 874.519 L1791.29 874.519 L1811.34 874.519 L1831.39 874.519 L1851.45 874.519 L1871.5 874.519 L1891.55 874.519 L1911.6 874.519 L1931.65 874.519 L1951.71 874.519 L1971.76 874.519 L1991.81 874.519 L2011.86 874.519 L2031.92 874.519 L2051.97 874.519 L2072.02 874.519 L2092.07 874.519 L2112.13 874.519 L2132.18 874.519 L2152.23 874.519 L2172.28 874.519 L2192.34 874.519 L2212.39 874.519 L2232.44 874.519 L2252.49 874.519 L2272.55 874.519 L2292.6 874.519 L2312.65 874.519 L2332.7 874.519 L2352.76 874.519 L2352.76 1074.8 L2332.7 1074.8 L2312.65 1074.8 L2292.6 1074.8 L2272.55 1074.8 L2252.49 1074.8 L2232.44 1074.8 L2212.39 1074.8 L2192.34 1074.8 L2172.28 1074.8 L2152.23 1074.8 L2132.18 1074.8 L2112.13 1074.8 L2092.07 1074.8 L2072.02 1074.8 L2051.97 1074.8 L2031.92 1074.8 L2011.86 1074.8 L1991.81 1074.8 L1971.76 1074.8 L1951.71 1074.8 L1931.65 1074.8 L1911.6 1087.32 L1891.55 1087.32 L1871.5 1087.32 L1851.45 1087.32 L1831.39 1087.32 L1811.34 1087.32 L1791.29 1087.32 L1771.24 1087.32 L1751.18 1087.32 L1731.13 1087.32 L1711.08 1087.32 L1691.03 1087.32 L1670.97 1087.32 L1650.92 1087.32 L1630.87 1087.32 L1610.82 1087.32 L1590.76 1087.32 L1570.71 1087.32 L1550.66 1087.32 L1530.61 1087.32 L1510.55 1087.32 L1490.5 1087.32 L1470.45 1087.32 L1450.4 1087.32 L1430.34 1087.32 L1410.29 1087.32 L1390.24 1087.32 L1370.19 1087.32 L1350.13 1099.83 L1330.08 1099.83 L1310.03 1099.83 L1289.98 1099.83 L1269.92 1099.83 L1249.87 1099.83 L1229.82 1099.83 L1209.77 1099.83 L1189.71 1099.83 L1169.66 1099.83 L1149.61 1099.83 L1129.56 1099.83 L1109.51 1099.83 L1089.45 1099.83 L1069.4 1099.83 L1049.35 1112.35 L1029.3 1112.35 L1009.24 1112.35 L989.191 1112.35 L969.138 1112.35 L949.086 1112.35 L929.033 1112.35 L908.981 1112.35 L888.928 1112.35 L868.876 1124.87 L848.823 1124.87 L828.771 1124.87 L808.719 1124.87 L788.666 1124.87 L768.614 1124.87 L748.561 1137.39 L728.509 1137.39 L708.456 1137.39 L688.404 1137.39 L668.352 1137.39 L648.299 1149.9 L628.247 1149.9 L608.194 1149.9 L588.142 1162.42 L568.089 1162.42 L548.037 1162.42 L527.985 1174.94 L507.932 1174.94 L487.88 1187.46 L467.827 1187.46 L447.775 1199.97 L427.722 1199.97 L407.67 1212.49 L387.618 1225.01 L367.565 1237.53  Z" fill="#2ba02b" fill-rule="evenodd" fill-opacity="0.45"/>
<polyline clip-path="url(#clip872)" style="stroke:#2ba02b; stroke-linecap:round; stroke-linejoin:round; stroke-width:4; stroke-opacity:1; fill:none" points="367.565,1099.83 387.618,1074.8 407.67,1062.28 427.722,1049.76 447.775,1037.25 467.827,1024.73 487.88,1012.21 507.932,1012.21 527.985,999.694 548.037,987.176 568.089,987.176 588.142,974.659 608.194,974.659 628.247,962.141 648.299,962.141 668.352,962.141 688.404,949.624 708.456,949.624 728.509,949.624 748.561,949.624 768.614,937.106 788.666,937.106 808.719,937.106 828.771,937.106 848.823,924.589 868.876,924.589 888.928,924.589 908.981,924.589 929.033,924.589 949.086,924.589 969.138,912.072 989.191,912.072 1009.24,912.072 1029.3,912.072 1049.35,912.072 1069.4,912.072 1089.45,912.072 1109.51,912.072 1129.56,899.554 1149.61,899.554 1169.66,899.554 1189.71,899.554 1209.77,899.554 1229.82,899.554 1249.87,899.554 1269.92,899.554 1289.98,899.554 1310.03,899.554 1330.08,899.554 1350.13,899.554 1370.19,887.037 1390.24,887.037 1410.29,887.037 1430.34,887.037 1450.4,887.037 1470.45,887.037 1490.5,887.037 1510.55,887.037 1530.61,887.037 1550.66,887.037 1570.71,887.037 1590.76,887.037 1610.82,887.037 1630.87,887.037 1650.92,887.037 1670.97,887.037 1691.03,887.037 1711.08,887.037 1731.13,874.519 1751.18,874.519 1771.24,874.519 1791.29,874.519 1811.34,874.519 1831.39,874.519 1851.45,874.519 1871.5,874.519 1891.55,874.519 1911.6,874.519 1931.65,874.519 1951.71,874.519 1971.76,874.519 1991.81,874.519 2011.86,874.519 2031.92,874.519 2051.97,874.519 2072.02,874.519 2092.07,874.519 2112.13,874.519 2132.18,874.519 2152.23,874.519 2172.28,874.519 2192.34,874.519 2212.39,874.519 2232.44,874.519 2252.49,874.519 2272.55,874.519 2292.6,874.519 2312.65,874.519 2332.7,874.519 2352.76,874.519 "/>
<path clip-path="url(#clip872)" d="M367.565 924.589 L387.618 899.554 L407.67 874.519 L427.722 849.484 L447.775 824.449 L467.827 811.932 L487.88 799.415 L507.932 786.897 L527.985 774.38 L548.037 761.862 L568.089 749.345 L588.142 736.827 L608.194 736.827 L628.247 724.31 L648.299 711.792 L668.352 711.792 L688.404 699.275 L708.456 699.275 L728.509 686.757 L748.561 686.757 L768.614 686.757 L788.666 674.24 L808.719 674.24 L828.771 674.24 L848.823 661.723 L868.876 661.723 L888.928 661.723 L908.981 649.205 L929.033 649.205 L949.086 649.205 L969.138 649.205 L989.191 649.205 L1009.24 636.688 L1029.3 636.688 L1049.35 636.688 L1069.4 636.688 L1089.45 636.688 L1109.51 624.17 L1129.56 624.17 L1149.61 624.17 L1169.66 624.17 L1189.71 624.17 L1209.77 624.17 L1229.82 624.17 L1249.87 611.653 L1269.92 611.653 L1289.98 611.653 L1310.03 611.653 L1330.08 611.653 L1350.13 611.653 L1370.19 611.653 L1390.24 611.653 L1410.29 611.653 L1430.34 599.135 L1450.4 599.135 L1470.45 599.135 L1490.5 599.135 L1510.55 599.135 L1530.61 599.135 L1550.66 599.135 L1570.71 599.135 L1590.76 599.135 L1610.82 599.135 L1630.87 599.135 L1650.92 599.135 L1670.97 586.618 L1691.03 586.618 L1711.08 586.618 L1731.13 586.618 L1751.18 586.618 L1771.24 586.618 L1791.29 586.618 L1811.34 586.618 L1831.39 586.618 L1851.45 586.618 L1871.5 586.618 L1891.55 586.618 L1911.6 586.618 L1931.65 586.618 L1951.71 586.618 L1971.76 586.618 L1991.81 586.618 L2011.86 574.1 L2031.92 574.1 L2051.97 574.1 L2072.02 574.1 L2092.07 574.1 L2112.13 574.1 L2132.18 574.1 L2152.23 574.1 L2172.28 574.1 L2192.34 574.1 L2212.39 574.1 L2232.44 574.1 L2252.49 574.1 L2272.55 574.1 L2292.6 574.1 L2312.65 574.1 L2332.7 574.1 L2352.76 574.1 L2352.76 836.967 L2332.7 836.967 L2312.65 836.967 L2292.6 836.967 L2272.55 836.967 L2252.49 836.967 L2232.44 836.967 L2212.39 836.967 L2192.34 849.484 L2172.28 849.484 L2152.23 849.484 L2132.18 849.484 L2112.13 849.484 L2092.07 849.484 L2072.02 849.484 L2051.97 849.484 L2031.92 849.484 L2011.86 849.484 L1991.81 849.484 L1971.76 849.484 L1951.71 849.484 L1931.65 849.484 L1911.6 849.484 L1891.55 849.484 L1871.5 849.484 L1851.45 849.484 L1831.39 849.484 L1811.34 849.484 L1791.29 849.484 L1771.24 849.484 L1751.18 849.484 L1731.13 849.484 L1711.08 862.002 L1691.03 862.002 L1670.97 862.002 L1650.92 862.002 L1630.87 862.002 L1610.82 862.002 L1590.76 862.002 L1570.71 862.002 L1550.66 862.002 L1530.61 862.002 L1510.55 862.002 L1490.5 862.002 L1470.45 862.002 L1450.4 862.002 L1430.34 862.002 L1410.29 874.519 L1390.24 874.519 L1370.19 874.519 L1350.13 874.519 L1330.08 874.519 L1310.03 874.519 L1289.98 874.519 L1269.92 874.519 L1249.87 874.519 L1229.82 874.519 L1209.77 874.519 L1189.71 887.037 L1169.66 887.037 L1149.61 887.037 L1129.56 887.037 L1109.51 887.037 L1089.45 887.037 L1069.4 887.037 L1049.35 899.554 L1029.3 899.554 L1009.24 899.554 L989.191 899.554 L969.138 899.554 L949.086 899.554 L929.033 912.072 L908.981 912.072 L888.928 912.072 L868.876 912.072 L848.823 924.589 L828.771 924.589 L808.719 924.589 L788.666 924.589 L768.614 937.106 L748.561 937.106 L728.509 937.106 L708.456 949.624 L688.404 949.624 L668.352 949.624 L648.299 962.141 L628.247 962.141 L608.194 974.659 L588.142 974.659 L568.089 987.176 L548.037 999.694 L527.985 999.694 L507.932 1012.21 L487.88 1024.73 L467.827 1037.25 L447.775 1049.76 L427.722 1062.28 L407.67 1074.8 L387.618 1099.83 L367.565 1124.87  Z" fill="#d52628" fill-rule="evenodd" fill-opacity="0.45"/>
<polyline clip-path="url(#clip872)" style="stroke:#d52628; stroke-linecap:round; stroke-linejoin:round; stroke-width:4; stroke-opacity:1; fill:none" points="367.565,924.589 387.618,899.554 407.67,874.519 427.722,849.484 447.775,824.449 467.827,811.932 487.88,799.415 507.932,786.897 527.985,774.38 548.037,761.862 568.089,749.345 588.142,736.827 608.194,736.827 628.247,724.31 648.299,711.792 668.352,711.792 688.404,699.275 708.456,699.275 728.509,686.757 748.561,686.757 768.614,686.757 788.666,674.24 808.719,674.24 828.771,674.24 848.823,661.723 868.876,661.723 888.928,661.723 908.981,649.205 929.033,649.205 949.086,649.205 969.138,649.205 989.191,649.205 1009.24,636.688 1029.3,636.688 1049.35,636.688 1069.4,636.688 1089.45,636.688 1109.51,624.17 1129.56,624.17 1149.61,624.17 1169.66,624.17 1189.71,624.17 1209.77,624.17 1229.82,624.17 1249.87,611.653 1269.92,611.653 1289.98,611.653 1310.03,611.653 1330.08,611.653 1350.13,611.653 1370.19,611.653 1390.24,611.653 1410.29,611.653 1430.34,599.135 1450.4,599.135 1470.45,599.135 1490.5,599.135 1510.55,599.135 1530.61,599.135 1550.66,599.135 1570.71,599.135 1590.76,599.135 1610.82,599.135 1630.87,599.135 1650.92,599.135 1670.97,586.618 1691.03,586.618 1711.08,586.618 1731.13,586.618 1751.18,586.618 1771.24,586.618 1791.29,586.618 1811.34,586.618 1831.39,586.618 1851.45,586.618 1871.5,586.618 1891.55,586.618 1911.6,586.618 1931.65,586.618 1951.71,586.618 1971.76,586.618 1991.81,586.618 2011.86,574.1 2031.92,574.1 2051.97,574.1 2072.02,574.1 2092.07,574.1 2112.13,574.1 2132.18,574.1 2152.23,574.1 2172.28,574.1 2192.34,574.1 2212.39,574.1 2232.44,574.1 2252.49,574.1 2272.55,574.1 2292.6,574.1 2312.65,574.1 2332.7,574.1 2352.76,574.1 "/>
<path clip-path="url(#clip872)" d="M367.565 649.205 L387.618 611.653 L407.67 574.1 L427.722 536.548 L447.775 511.513 L467.827 486.478 L487.88 461.443 L507.932 448.926 L527.985 423.891 L548.037 411.374 L568.089 386.339 L588.142 373.821 L608.194 361.304 L628.247 348.786 L648.299 336.269 L668.352 336.269 L688.404 323.751 L708.456 311.234 L728.509 298.716 L748.561 298.716 L768.614 286.199 L788.666 286.199 L808.719 273.682 L828.771 273.682 L848.823 261.164 L868.876 261.164 L888.928 248.647 L908.981 248.647 L929.033 236.129 L949.086 236.129 L969.138 236.129 L989.191 223.612 L1009.24 223.612 L1029.3 223.612 L1049.35 211.094 L1069.4 211.094 L1089.45 211.094 L1109.51 211.094 L1129.56 198.577 L1149.61 198.577 L1169.66 198.577 L1189.71 198.577 L1209.77 198.577 L1229.82 186.059 L1249.87 186.059 L1269.92 186.059 L1289.98 186.059 L1310.03 186.059 L1330.08 173.542 L1350.13 173.542 L1370.19 173.542 L1390.24 173.542 L1410.29 173.542 L1430.34 173.542 L1450.4 161.024 L1470.45 161.024 L1490.5 161.024 L1510.55 161.024 L1530.61 161.024 L1550.66 161.024 L1570.71 161.024 L1590.76 161.024 L1610.82 148.507 L1630.87 148.507 L1650.92 148.507 L1670.97 148.507 L1691.03 148.507 L1711.08 148.507 L1731.13 148.507 L1751.18 148.507 L1771.24 148.507 L1791.29 148.507 L1811.34 135.99 L1831.39 135.99 L1851.45 135.99 L1871.5 135.99 L1891.55 135.99 L1911.6 135.99 L1931.65 135.99 L1951.71 135.99 L1971.76 135.99 L1991.81 135.99 L2011.86 135.99 L2031.92 135.99 L2051.97 135.99 L2072.02 123.472 L2092.07 123.472 L2112.13 123.472 L2132.18 123.472 L2152.23 123.472 L2172.28 123.472 L2192.34 123.472 L2212.39 123.472 L2232.44 123.472 L2252.49 123.472 L2272.55 123.472 L2292.6 123.472 L2312.65 123.472 L2332.7 123.472 L2352.76 123.472 L2352.76 436.408 L2332.7 436.408 L2312.65 436.408 L2292.6 436.408 L2272.55 436.408 L2252.49 436.408 L2232.44 436.408 L2212.39 436.408 L2192.34 436.408 L2172.28 448.926 L2152.23 448.926 L2132.18 448.926 L2112.13 448.926 L2092.07 448.926 L2072.02 448.926 L2051.97 448.926 L2031.92 448.926 L2011.86 448.926 L1991.81 448.926 L1971.76 448.926 L1951.71 448.926 L1931.65 448.926 L1911.6 448.926 L1891.55 448.926 L1871.5 448.926 L1851.45 461.443 L1831.39 461.443 L1811.34 461.443 L1791.29 461.443 L1771.24 461.443 L1751.18 461.443 L1731.13 461.443 L1711.08 461.443 L1691.03 461.443 L1670.97 461.443 L1650.92 461.443 L1630.87 473.961 L1610.82 473.961 L1590.76 473.961 L1570.71 473.961 L1550.66 473.961 L1530.61 473.961 L1510.55 473.961 L1490.5 473.961 L1470.45 473.961 L1450.4 486.478 L1430.34 486.478 L1410.29 486.478 L1390.24 486.478 L1370.19 486.478 L1350.13 486.478 L1330.08 486.478 L1310.03 498.996 L1289.98 498.996 L1269.92 498.996 L1249.87 498.996 L1229.82 498.996 L1209.77 498.996 L1189.71 511.513 L1169.66 511.513 L1149.61 511.513 L1129.56 511.513 L1109.51 524.031 L1089.45 524.031 L1069.4 524.031 L1049.35 524.031 L1029.3 536.548 L1009.24 536.548 L989.191 536.548 L969.138 536.548 L949.086 549.065 L929.033 549.065 L908.981 549.065 L888.928 561.583 L868.876 561.583 L848.823 574.1 L828.771 574.1 L808.719 586.618 L788.666 586.618 L768.614 599.135 L748.561 599.135 L728.509 611.653 L708.456 611.653 L688.404 624.17 L668.352 636.688 L648.299 636.688 L628.247 649.205 L608.194 661.723 L588.142 674.24 L568.089 686.757 L548.037 699.275 L527.985 711.792 L507.932 736.827 L487.88 749.345 L467.827 774.38 L447.775 786.897 L427.722 811.932 L407.67 849.484 L387.618 874.519 L367.565 912.072  Z" fill="#9466bd" fill-rule="evenodd" fill-opacity="0.45"/>
<polyline clip-path="url(#clip872)" style="stroke:#9466bd; stroke-linecap:round; stroke-linejoin:round; stroke-width:4; stroke-opacity:1; fill:none" points="367.565,649.205 387.618,611.653 407.67,574.1 427.722,536.548 447.775,511.513 467.827,486.478 487.88,461.443 507.932,448.926 527.985,423.891 548.037,411.374 568.089,386.339 588.142,373.821 608.194,361.304 628.247,348.786 648.299,336.269 668.352,336.269 688.404,323.751 708.456,311.234 728.509,298.716 748.561,298.716 768.614,286.199 788.666,286.199 808.719,273.682 828.771,273.682 848.823,261.164 868.876,261.164 888.928,248.647 908.981,248.647 929.033,236.129 949.086,236.129 969.138,236.129 989.191,223.612 1009.24,223.612 1029.3,223.612 1049.35,211.094 1069.4,211.094 1089.45,211.094 1109.51,211.094 1129.56,198.577 1149.61,198.577 1169.66,198.577 1189.71,198.577 1209.77,198.577 1229.82,186.059 1249.87,186.059 1269.92,186.059 1289.98,186.059 1310.03,186.059 1330.08,173.542 1350.13,173.542 1370.19,173.542 1390.24,173.542 1410.29,173.542 1430.34,173.542 1450.4,161.024 1470.45,161.024 1490.5,161.024 1510.55,161.024 1530.61,161.024 1550.66,161.024 1570.71,161.024 1590.76,161.024 1610.82,148.507 1630.87,148.507 1650.92,148.507 1670.97,148.507 1691.03,148.507 1711.08,148.507 1731.13,148.507 1751.18,148.507 1771.24,148.507 1791.29,148.507 1811.34,135.99 1831.39,135.99 1851.45,135.99 1871.5,135.99 1891.55,135.99 1911.6,135.99 1931.65,135.99 1951.71,135.99 1971.76,135.99 1991.81,135.99 2011.86,135.99 2031.92,135.99 2051.97,135.99 2072.02,123.472 2092.07,123.472 2112.13,123.472 2132.18,123.472 2152.23,123.472 2172.28,123.472 2192.34,123.472 2212.39,123.472 2232.44,123.472 2252.49,123.472 2272.55,123.472 2292.6,123.472 2312.65,123.472 2332.7,123.472 2352.76,123.472 "/>
<path clip-path="url(#clip870)" d="M433.738 475.82 L790.636 475.82 L790.636 164.78 L433.738 164.78  Z" fill="#ffffff" fill-rule="evenodd" fill-opacity="1"/>
<polyline clip-path="url(#clip870)" style="stroke:#000000; stroke-linecap:round; stroke-linejoin:round; stroke-width:4; stroke-opacity:1; fill:none" points="433.738,475.82 790.636,475.82 790.636,164.78 433.738,164.78 433.738,475.82 "/>
<path clip-path="url(#clip870)" d="M455.796 237.356 L588.142 237.356 L588.142 195.884 L455.796 195.884 L455.796 237.356  Z" fill="#1f77b4" fill-rule="evenodd" fill-opacity="0.45"/>
<polyline clip-path="url(#clip870)" style="stroke:#1f77b4; stroke-linecap:round; stroke-linejoin:round; stroke-width:4; stroke-opacity:1; fill:none" points="455.796,195.884 588.142,195.884 "/>
<path clip-path="url(#clip870)" d="M610.871 229.965 L618.51 229.965 L618.51 203.599 L610.2 205.266 L610.2 201.006 L618.463 199.34 L623.139 199.34 L623.139 229.965 L630.778 229.965 L630.778 233.9 L610.871 233.9 L610.871 229.965 Z" fill="#000000" fill-rule="nonzero" fill-opacity="1" /><path clip-path="url(#clip870)" d="M661.797 219.872 L661.797 221.955 L642.213 221.955 Q642.491 226.353 644.852 228.668 Q647.236 230.96 651.472 230.96 Q653.926 230.96 656.218 230.358 Q658.533 229.756 660.801 228.553 L660.801 232.58 Q658.509 233.552 656.102 234.062 Q653.695 234.571 651.218 234.571 Q645.014 234.571 641.38 230.96 Q637.769 227.349 637.769 221.191 Q637.769 214.826 641.195 211.099 Q644.644 207.349 650.477 207.349 Q655.709 207.349 658.741 210.729 Q661.797 214.085 661.797 219.872 M657.537 218.622 Q657.491 215.127 655.57 213.043 Q653.672 210.96 650.523 210.96 Q646.959 210.96 644.806 212.974 Q642.676 214.988 642.352 218.645 L657.537 218.622 Z" fill="#000000" fill-rule="nonzero" fill-opacity="1" /><path clip-path="url(#clip870)" d="M666.634 219.016 L679.111 219.016 L679.111 222.812 L666.634 222.812 L666.634 219.016 Z" fill="#000000" fill-rule="nonzero" fill-opacity="1" /><path clip-path="url(#clip870)" d="M696.495 202.418 Q692.884 202.418 691.056 205.983 Q689.25 209.525 689.25 216.654 Q689.25 223.761 691.056 227.326 Q692.884 230.867 696.495 230.867 Q700.13 230.867 701.935 227.326 Q703.764 223.761 703.764 216.654 Q703.764 209.525 701.935 205.983 Q700.13 202.418 696.495 202.418 M696.495 198.715 Q702.306 198.715 705.361 203.321 Q708.44 207.904 708.44 216.654 Q708.44 225.381 705.361 229.988 Q702.306 234.571 696.495 234.571 Q690.685 234.571 687.607 229.988 Q684.551 225.381 684.551 216.654 Q684.551 207.904 687.607 203.321 Q690.685 198.715 696.495 198.715 Z" fill="#000000" fill-rule="nonzero" fill-opacity="1" /><path clip-path="url(#clip870)" d="M716.704 199.34 L735.06 199.34 L735.06 203.275 L720.986 203.275 L720.986 211.747 Q722.005 211.4 723.023 211.238 Q724.042 211.053 725.06 211.053 Q730.847 211.053 734.227 214.224 Q737.606 217.395 737.606 222.812 Q737.606 228.39 734.134 231.492 Q730.662 234.571 724.342 234.571 Q722.167 234.571 719.898 234.201 Q717.653 233.83 715.245 233.09 L715.245 228.39 Q717.329 229.525 719.551 230.08 Q721.773 230.636 724.25 230.636 Q728.254 230.636 730.592 228.529 Q732.93 226.423 732.93 222.812 Q732.93 219.201 730.592 217.094 Q728.254 214.988 724.25 214.988 Q722.375 214.988 720.5 215.404 Q718.648 215.821 716.704 216.701 L716.704 199.34 Z" fill="#000000" fill-rule="nonzero" fill-opacity="1" /><path clip-path="url(#clip870)" d="M455.796 289.196 L588.142 289.196 L588.142 247.724 L455.796 247.724 L455.796 289.196  Z" fill="#ff7e0d" fill-rule="evenodd" fill-opacity="0.45"/>
<polyline clip-path="url(#clip870)" style="stroke:#ff7e0d; stroke-linecap:round; stroke-linejoin:round; stroke-width:4; stroke-opacity:1; fill:none" points="455.796,247.724 588.142,247.724 "/>
<path clip-path="url(#clip870)" d="M622.144 254.258 Q618.533 254.258 616.704 257.823 Q614.899 261.365 614.899 268.494 Q614.899 275.601 616.704 279.166 Q618.533 282.707 622.144 282.707 Q625.778 282.707 627.584 279.166 Q629.412 275.601 629.412 268.494 Q629.412 261.365 627.584 257.823 Q625.778 254.258 622.144 254.258 M622.144 250.555 Q627.954 250.555 631.01 255.161 Q634.088 259.744 634.088 268.494 Q634.088 277.221 631.01 281.828 Q627.954 286.411 622.144 286.411 Q616.334 286.411 613.255 281.828 Q610.2 277.221 610.2 268.494 Q610.2 259.744 613.255 255.161 Q616.334 250.555 622.144 250.555 Z" fill="#000000" fill-rule="nonzero" fill-opacity="1" /><path clip-path="url(#clip870)" d="M642.306 279.86 L647.19 279.86 L647.19 285.74 L642.306 285.74 L642.306 279.86 Z" fill="#000000" fill-rule="nonzero" fill-opacity="1" /><path clip-path="url(#clip870)" d="M667.375 254.258 Q663.764 254.258 661.935 257.823 Q660.13 261.365 660.13 268.494 Q660.13 275.601 661.935 279.166 Q663.764 282.707 667.375 282.707 Q671.009 282.707 672.815 279.166 Q674.644 275.601 674.644 268.494 Q674.644 261.365 672.815 257.823 Q671.009 254.258 667.375 254.258 M667.375 250.555 Q673.185 250.555 676.241 255.161 Q679.32 259.744 679.32 268.494 Q679.32 277.221 676.241 281.828 Q673.185 286.411 667.375 286.411 Q661.565 286.411 658.486 281.828 Q655.431 277.221 655.431 268.494 Q655.431 259.744 658.486 255.161 Q661.565 250.555 667.375 250.555 Z" fill="#000000" fill-rule="nonzero" fill-opacity="1" /><path clip-path="url(#clip870)" d="M697.537 254.258 Q693.926 254.258 692.097 257.823 Q690.292 261.365 690.292 268.494 Q690.292 275.601 692.097 279.166 Q693.926 282.707 697.537 282.707 Q701.171 282.707 702.977 279.166 Q704.806 275.601 704.806 268.494 Q704.806 261.365 702.977 257.823 Q701.171 254.258 697.537 254.258 M697.537 250.555 Q703.347 250.555 706.403 255.161 Q709.481 259.744 709.481 268.494 Q709.481 277.221 706.403 281.828 Q703.347 286.411 697.537 286.411 Q691.727 286.411 688.648 281.828 Q685.593 277.221 685.593 268.494 Q685.593 259.744 688.648 255.161 Q691.727 250.555 697.537 250.555 Z" fill="#000000" fill-rule="nonzero" fill-opacity="1" /><path clip-path="url(#clip870)" d="M727.699 254.258 Q724.088 254.258 722.259 257.823 Q720.454 261.365 720.454 268.494 Q720.454 275.601 722.259 279.166 Q724.088 282.707 727.699 282.707 Q731.333 282.707 733.139 279.166 Q734.967 275.601 734.967 268.494 Q734.967 261.365 733.139 257.823 Q731.333 254.258 727.699 254.258 M727.699 250.555 Q733.509 250.555 736.565 255.161 Q739.643 259.744 739.643 268.494 Q739.643 277.221 736.565 281.828 Q733.509 286.411 727.699 286.411 Q721.889 286.411 718.81 281.828 Q715.755 277.221 715.755 268.494 Q715.755 259.744 718.81 255.161 Q721.889 250.555 727.699 250.555 Z" fill="#000000" fill-rule="nonzero" fill-opacity="1" /><path clip-path="url(#clip870)" d="M748.671 281.805 L756.31 281.805 L756.31 255.439 L748 257.106 L748 252.846 L756.264 251.18 L760.939 251.18 L760.939 281.805 L768.578 281.805 L768.578 285.74 L748.671 285.74 L748.671 281.805 Z" fill="#000000" fill-rule="nonzero" fill-opacity="1" /><path clip-path="url(#clip870)" d="M455.796 341.036 L588.142 341.036 L588.142 299.564 L455.796 299.564 L455.796 341.036  Z" fill="#2ba02b" fill-rule="evenodd" fill-opacity="0.45"/>
<polyline clip-path="url(#clip870)" style="stroke:#2ba02b; stroke-linecap:round; stroke-linejoin:round; stroke-width:4; stroke-opacity:1; fill:none" points="455.796,299.564 588.142,299.564 "/>
<path clip-path="url(#clip870)" d="M622.144 306.098 Q618.533 306.098 616.704 309.663 Q614.899 313.205 614.899 320.334 Q614.899 327.441 616.704 331.006 Q618.533 334.547 622.144 334.547 Q625.778 334.547 627.584 331.006 Q629.412 327.441 629.412 320.334 Q629.412 313.205 627.584 309.663 Q625.778 306.098 622.144 306.098 M622.144 302.395 Q627.954 302.395 631.01 307.001 Q634.088 311.584 634.088 320.334 Q634.088 329.061 631.01 333.668 Q627.954 338.251 622.144 338.251 Q616.334 338.251 613.255 333.668 Q610.2 329.061 610.2 320.334 Q610.2 311.584 613.255 307.001 Q616.334 302.395 622.144 302.395 Z" fill="#000000" fill-rule="nonzero" fill-opacity="1" /><path clip-path="url(#clip870)" d="M642.306 331.7 L647.19 331.7 L647.19 337.58 L642.306 337.58 L642.306 331.7 Z" fill="#000000" fill-rule="nonzero" fill-opacity="1" /><path clip-path="url(#clip870)" d="M667.375 306.098 Q663.764 306.098 661.935 309.663 Q660.13 313.205 660.13 320.334 Q660.13 327.441 661.935 331.006 Q663.764 334.547 667.375 334.547 Q671.009 334.547 672.815 331.006 Q674.644 327.441 674.644 320.334 Q674.644 313.205 672.815 309.663 Q671.009 306.098 667.375 306.098 M667.375 302.395 Q673.185 302.395 676.241 307.001 Q679.32 311.584 679.32 320.334 Q679.32 329.061 676.241 333.668 Q673.185 338.251 667.375 338.251 Q661.565 338.251 658.486 333.668 Q655.431 329.061 655.431 320.334 Q655.431 311.584 658.486 307.001 Q661.565 302.395 667.375 302.395 Z" fill="#000000" fill-rule="nonzero" fill-opacity="1" /><path clip-path="url(#clip870)" d="M697.537 306.098 Q693.926 306.098 692.097 309.663 Q690.292 313.205 690.292 320.334 Q690.292 327.441 692.097 331.006 Q693.926 334.547 697.537 334.547 Q701.171 334.547 702.977 331.006 Q704.806 327.441 704.806 320.334 Q704.806 313.205 702.977 309.663 Q701.171 306.098 697.537 306.098 M697.537 302.395 Q703.347 302.395 706.403 307.001 Q709.481 311.584 709.481 320.334 Q709.481 329.061 706.403 333.668 Q703.347 338.251 697.537 338.251 Q691.727 338.251 688.648 333.668 Q685.593 329.061 685.593 320.334 Q685.593 311.584 688.648 307.001 Q691.727 302.395 697.537 302.395 Z" fill="#000000" fill-rule="nonzero" fill-opacity="1" /><path clip-path="url(#clip870)" d="M718.509 333.645 L726.148 333.645 L726.148 307.279 L717.838 308.946 L717.838 304.686 L726.102 303.02 L730.778 303.02 L730.778 333.645 L738.416 333.645 L738.416 337.58 L718.509 337.58 L718.509 333.645 Z" fill="#000000" fill-rule="nonzero" fill-opacity="1" /><path clip-path="url(#clip870)" d="M455.796 392.876 L588.142 392.876 L588.142 351.404 L455.796 351.404 L455.796 392.876  Z" fill="#d52628" fill-rule="evenodd" fill-opacity="0.45"/>
<polyline clip-path="url(#clip870)" style="stroke:#d52628; stroke-linecap:round; stroke-linejoin:round; stroke-width:4; stroke-opacity:1; fill:none" points="455.796,351.404 588.142,351.404 "/>
<path clip-path="url(#clip870)" d="M622.144 357.938 Q618.533 357.938 616.704 361.503 Q614.899 365.045 614.899 372.174 Q614.899 379.281 616.704 382.846 Q618.533 386.387 622.144 386.387 Q625.778 386.387 627.584 382.846 Q629.412 379.281 629.412 372.174 Q629.412 365.045 627.584 361.503 Q625.778 357.938 622.144 357.938 M622.144 354.235 Q627.954 354.235 631.01 358.841 Q634.088 363.424 634.088 372.174 Q634.088 380.901 631.01 385.508 Q627.954 390.091 622.144 390.091 Q616.334 390.091 613.255 385.508 Q610.2 380.901 610.2 372.174 Q610.2 363.424 613.255 358.841 Q616.334 354.235 622.144 354.235 Z" fill="#000000" fill-rule="nonzero" fill-opacity="1" /><path clip-path="url(#clip870)" d="M642.306 383.54 L647.19 383.54 L647.19 389.42 L642.306 389.42 L642.306 383.54 Z" fill="#000000" fill-rule="nonzero" fill-opacity="1" /><path clip-path="url(#clip870)" d="M667.375 357.938 Q663.764 357.938 661.935 361.503 Q660.13 365.045 660.13 372.174 Q660.13 379.281 661.935 382.846 Q663.764 386.387 667.375 386.387 Q671.009 386.387 672.815 382.846 Q674.644 379.281 674.644 372.174 Q674.644 365.045 672.815 361.503 Q671.009 357.938 667.375 357.938 M667.375 354.235 Q673.185 354.235 676.241 358.841 Q679.32 363.424 679.32 372.174 Q679.32 380.901 676.241 385.508 Q673.185 390.091 667.375 390.091 Q661.565 390.091 658.486 385.508 Q655.431 380.901 655.431 372.174 Q655.431 363.424 658.486 358.841 Q661.565 354.235 667.375 354.235 Z" fill="#000000" fill-rule="nonzero" fill-opacity="1" /><path clip-path="url(#clip870)" d="M688.347 385.485 L695.986 385.485 L695.986 359.119 L687.676 360.786 L687.676 356.526 L695.94 354.86 L700.616 354.86 L700.616 385.485 L708.255 385.485 L708.255 389.42 L688.347 389.42 L688.347 385.485 Z" fill="#000000" fill-rule="nonzero" fill-opacity="1" /><path clip-path="url(#clip870)" d="M455.796 444.716 L588.142 444.716 L588.142 403.244 L455.796 403.244 L455.796 444.716  Z" fill="#9466bd" fill-rule="evenodd" fill-opacity="0.45"/>
<polyline clip-path="url(#clip870)" style="stroke:#9466bd; stroke-linecap:round; stroke-linejoin:round; stroke-width:4; stroke-opacity:1; fill:none" points="455.796,403.244 588.142,403.244 "/>
<path clip-path="url(#clip870)" d="M622.144 409.778 Q618.533 409.778 616.704 413.343 Q614.899 416.885 614.899 424.014 Q614.899 431.121 616.704 434.686 Q618.533 438.227 622.144 438.227 Q625.778 438.227 627.584 434.686 Q629.412 431.121 629.412 424.014 Q629.412 416.885 627.584 413.343 Q625.778 409.778 622.144 409.778 M622.144 406.075 Q627.954 406.075 631.01 410.681 Q634.088 415.264 634.088 424.014 Q634.088 432.741 631.01 437.348 Q627.954 441.931 622.144 441.931 Q616.334 441.931 613.255 437.348 Q610.2 432.741 610.2 424.014 Q610.2 415.264 613.255 410.681 Q616.334 406.075 622.144 406.075 Z" fill="#000000" fill-rule="nonzero" fill-opacity="1" /><path clip-path="url(#clip870)" d="M642.306 435.38 L647.19 435.38 L647.19 441.26 L642.306 441.26 L642.306 435.38 Z" fill="#000000" fill-rule="nonzero" fill-opacity="1" /><path clip-path="url(#clip870)" d="M658.185 437.325 L665.824 437.325 L665.824 410.959 L657.514 412.626 L657.514 408.366 L665.778 406.7 L670.454 406.7 L670.454 437.325 L678.093 437.325 L678.093 441.26 L658.185 441.26 L658.185 437.325 Z" fill="#000000" fill-rule="nonzero" fill-opacity="1" /></svg>
