<svg class="main-svg" xmlns="http://www.w3.org/2000/svg" xmlns:xlink="http://www.w3.org/1999/xlink" width="700" height="500" style="" viewBox="0 0 700 500"><rect x="0" y="0" width="700" height="500" style="fill: rgb(255, 255, 255); fill-opacity: 1;"/><defs id="defs-a80e69"><g class="clips"><clipPath id="clipa80e69xyplot" class="plotclip"><rect width="487" height="360"/></clipPath><clipPath class="axesclip" id="clipa80e69x"><rect x="102" y="0" width="487" height="500"/></clipPath><clipPath class="axesclip" id="clipa80e69y"><rect x="0" y="60" width="700" height="360"/></clipPath><clipPath class="axesclip" id="clipa80e69xy"><rect x="102" y="60" width="487" height="360"/></clipPath></g><g class="gradients"/></defs><g class="bglayer"/><g class="layer-below"><g class="imagelayer"/><g class="shapelayer"/></g><g class="cartesianlayer"><g class="subplot xy"><g class="layer-subplot"><g class="shapelayer"/><g class="imagelayer"/></g><g class="gridlayer"><g class="x"/><g class="y"/></g><g class="zerolinelayer"><path class="yzl zl crisp" transform="translate(0,398.85)" d="M102,0h487" style="stroke: rgb(255, 255, 255); stroke-opacity: 1; stroke-width: 2px;"/></g><path class="xlines-below"/><path class="ylines-below"/><g class="overlines-below"/><g class="xaxislayer-below"/><g class="yaxislayer-below"/><g class="overaxes-below"/><g class="plot" transform="translate(102,60)" clip-path="url('#clipa80e69xyplot')"><g class="scatterlayer mlayer"><g class="trace scatter trace3660eb" style="stroke-miterlimit: 2; opacity: 1;"><g class="fills"/><g class="errorbars"/><g class="lines"><path class="js-line" d="M0,310.3L2.85,263.1L4.4,246.56L11.02,195.66L13.26,182.51L22.27,141.53L24.53,133.53L33.59,108.3L35.86,103.42L44.93,88.49L47.19,85.75L56.25,77.93L58.51,76.65L67.56,73.6L69.81,73.28L81.1,73.57L83.35,73.94L96.86,77.58L99.1,78.38L119.31,86.95L121.55,88.01L157.3,106.74L159.53,107.99L203.85,134.31L206.05,135.69L245.34,162.08L247.5,163.64L275.17,185.16L277.25,186.93L297.6,205.94L299.57,208L312.62,223.58L314.35,226.01L322.07,239.14L323.34,241.99L326.96,254.05L327.37,257.17L327.55,260.9" style="vector-effect: non-scaling-stroke; fill: none; stroke: rgb(0, 83, 86); stroke-opacity: 1; stroke-width: 5px; opacity: 1;"/></g><g class="points"/><g class="text"/></g><g class="trace scatter trace682422" style="stroke-miterlimit: 2; opacity: 1;"><g class="fills"/><g class="errorbars"/><g class="lines"><path class="js-line" d="M327.55,260.9L326.48,269.67L325.69,272.35L321.01,281.68L319.55,283.68L311.3,292.22L309.5,293.68L298.15,301.21L296.18,302.3L277.91,310.53L275.83,311.3L252.58,318.52L250.44,319.08L217.97,326L215.78,326.38L174.05,332.22L171.84,332.46L118.88,336.98L116.7,337.13L103.2,338.25" style="vector-effect: non-scaling-stroke; fill: none; stroke: rgb(0, 0, 0); stroke-opacity: 1; stroke-width: 5px; opacity: 1; stroke-dasharray: 15px, 15px;"/></g><g class="points"/><g class="text"/></g><g class="trace scatter tracec069ca" style="stroke-miterlimit: 2; opacity: 1;"><g class="fills"/><g class="errorbars"/><g class="lines"><path class="js-line" d="M103.2,338.25L112.65,338.6L114.9,338.62L276.59,338.83L278.79,338.83L487,338.84" style="vector-effect: non-scaling-stroke; fill: none; stroke: rgb(240, 78, 83); stroke-opacity: 1; stroke-width: 5px; opacity: 1;"/></g><g class="points"/><g class="text"/></g><g class="trace scatter trace981847" style="stroke-miterlimit: 2; opacity: 1;"><g class="fills"/><g class="errorbars"/><g class="lines"/><g class="points"><path class="point" transform="translate(327.55,260.9)" d="M3,0A3,3 0 1,1 0,-3A3,3 0 0,1 3,0Z" style="opacity: 1; stroke-width: 0px; fill: rgb(0, 0, 0); fill-opacity: 1;"/><path class="point" transform="translate(103.2,338.25)" d="M3,0A3,3 0 1,1 0,-3A3,3 0 0,1 3,0Z" style="opacity: 1; stroke-width: 0px; fill: rgb(0, 0, 0); fill-opacity: 1;"/></g><g class="text"/></g><g class="trace scatter tracecc85a3" style="stroke-miterlimit: 2; opacity: 1;"><g class="fills"/><g class="errorbars"/><g class="lines"><path class="js-line" d="M0,306.94L6.58,307.39L8.79,307.46L238.85,314.6L241.02,314.7L312.62,319.52L314.35,319.72L327.37,322.58L327.54,322.89" style="vector-effect: non-scaling-stroke; fill: none; stroke: rgb(0, 83, 86); stroke-opacity: 1; stroke-width: 5px; opacity: 1;"/></g><g class="points"/><g class="text"/></g><g class="trace scatter trace8b27d7" style="stroke-miterlimit: 2; opacity: 1;"><g class="fills"/><g class="errorbars"/><g class="lines"><path class="js-line" d="M327.55,322.95L326.48,323.87L325.69,324.17L314.76,326.15L313.05,326.35L275.83,329.4L273.75,329.53L185.07,333.78L182.86,333.86L103.2,337.46" style="vector-effect: non-scaling-stroke; fill: none; stroke: rgb(0, 0, 0); stroke-opacity: 1; stroke-width: 5px; opacity: 1; stroke-dasharray: 15px, 15px;"/></g><g class="points"/><g class="text"/></g><g class="trace scatter trace37066c" style="stroke-miterlimit: 2; opacity: 1;"><g class="fills"/><g class="errorbars"/><g class="lines"><path class="js-line" d="M103.2,337.46L110.41,337.89L112.65,337.94L190.77,338.44L192.98,338.45L487,338.7" style="vector-effect: non-scaling-stroke; fill: none; stroke: rgb(240, 78, 83); stroke-opacity: 1; stroke-width: 5px; opacity: 1;"/></g><g class="points"/><g class="text"/></g><g class="trace scatter trace256db1" style="stroke-miterlimit: 2; opacity: 1;"><g class="fills"/><g class="errorbars"/><g class="lines"/><g class="points"><path class="point" transform="translate(327.55,322.95)" d="M3,0A3,3 0 1,1 0,-3A3,3 0 0,1 3,0Z" style="opacity: 1; stroke-width: 0px; fill: rgb(0, 0, 0); fill-opacity: 1;"/><path class="point" transform="translate(103.2,337.46)" d="M3,0A3,3 0 1,1 0,-3A3,3 0 0,1 3,0Z" style="opacity: 1; stroke-width: 0px; fill: rgb(0, 0, 0); fill-opacity: 1;"/></g><g class="text"/></g><g class="trace scatter trace8f32f4" style="stroke-miterlimit: 2; opacity: 1;"><g class="fills"/><g class="errorbars"/><g class="lines"><path class="js-line" d="M0,304.39L2.85,247.42L4.4,227.45L11.02,166L13.26,150.13L22.27,100.66L24.53,91.01L33.59,60.55L35.86,54.66L44.93,36.64L47.19,33.33L53.99,25.74L56.25,23.89L63.04,20.05L65.3,19.25L74.33,18L76.59,18.09L87.85,20.24L90.11,20.95L105.84,27.58L108.09,28.7L132.74,42.78L134.98,44.16L172.87,69.37L175.09,70.93L214.84,100.41L217.03,102.13L249.66,129.26L251.81,131.17L277.25,155.47L279.34,157.63L297.6,178.41L299.57,180.9L312.62,199.71L314.35,202.64L322.07,218.49L323.34,221.93L326.96,236.49L327.37,240.25L327.55,244.76" style="vector-effect: non-scaling-stroke; fill: none; stroke: rgb(0, 83, 86); stroke-opacity: 1; stroke-width: 5px; opacity: 1;"/></g><g class="points"/><g class="text"/></g><g class="trace scatter tracee90f1f" style="stroke-miterlimit: 2; opacity: 1;"><g class="fills"/><g class="errorbars"/><g class="lines"><path class="js-line" d="M327.55,244.76L326.48,255.35L325.69,258.58L321.01,269.84L319.55,272.26L311.3,282.56L309.5,284.33L298.15,293.42L296.18,294.73L279.98,303.7L277.91,304.66L256.85,312.92L254.72,313.62L226.68,321.39L224.5,321.9L189.47,328.58L187.27,328.93L145.33,334.22L143.12,334.44L103.2,338.13" style="vector-effect: non-scaling-stroke; fill: none; stroke: rgb(0, 0, 0); stroke-opacity: 1; stroke-width: 5px; opacity: 1; stroke-dasharray: 15px, 15px;"/></g><g class="points"/><g class="text"/></g><g class="trace scatter tracecfa83c" style="stroke-miterlimit: 2; opacity: 1;"><g class="fills"/><g class="errorbars"/><g class="lines"><path class="js-line" d="M103.2,338.13L110.41,338.51L112.65,338.54L226.07,338.81L228.27,338.81L487,338.84" style="vector-effect: non-scaling-stroke; fill: none; stroke: rgb(240, 78, 83); stroke-opacity: 1; stroke-width: 5px; opacity: 1;"/></g><g class="points"/><g class="text"/></g><g class="trace scatter trace670bbc" style="stroke-miterlimit: 2; opacity: 1;"><g class="fills"/><g class="errorbars"/><g class="lines"/><g class="points"><path class="point" transform="translate(327.55,244.76)" d="M3,0A3,3 0 1,1 0,-3A3,3 0 0,1 3,0Z" style="opacity: 1; stroke-width: 0px; fill: rgb(0, 0, 0); fill-opacity: 1;"/><path class="point" transform="translate(103.2,338.13)" d="M3,0A3,3 0 1,1 0,-3A3,3 0 0,1 3,0Z" style="opacity: 1; stroke-width: 0px; fill: rgb(0, 0, 0); fill-opacity: 1;"/></g><g class="text"/></g></g></g><g class="overplot"/><path class="xlines-above crisp" d="M99,421.5H589" style="fill: none; stroke-width: 3px; stroke: rgb(0, 0, 0); stroke-opacity: 1;"/><path class="ylines-above crisp" d="M100.5,60V420" style="fill: none; stroke-width: 3px; stroke: rgb(0, 0, 0); stroke-opacity: 1;"/><g class="overlines-above"/><g class="xaxislayer-above"><g class="xtick"><text text-anchor="middle" x="0" y="449.4" transform="translate(102,0)" style="font-family: sans-serif; font-size: 22px; fill: rgb(0, 0, 0); fill-opacity: 1; white-space: pre;">0</text></g><g class="xtick"><text text-anchor="middle" x="0" y="449.4" transform="translate(183.17000000000002,0)" style="font-family: sans-serif; font-size: 22px; fill: rgb(0, 0, 0); fill-opacity: 1; white-space: pre;">0.5</text></g><g class="xtick"><text text-anchor="middle" x="0" y="449.4" transform="translate(264.33000000000004,0)" style="font-family: sans-serif; font-size: 22px; fill: rgb(0, 0, 0); fill-opacity: 1; white-space: pre;">1</text></g><g class="xtick"><text text-anchor="middle" x="0" y="449.4" transform="translate(345.5,0)" style="font-family: sans-serif; font-size: 22px; fill: rgb(0, 0, 0); fill-opacity: 1; white-space: pre;">1.5</text></g><g class="xtick"><text text-anchor="middle" x="0" y="449.4" transform="translate(426.67,0)" style="font-family: sans-serif; font-size: 22px; fill: rgb(0, 0, 0); fill-opacity: 1; white-space: pre;">2</text></g><g class="xtick"><text text-anchor="middle" x="0" y="449.4" transform="translate(507.83,0)" style="font-family: sans-serif; font-size: 22px; fill: rgb(0, 0, 0); fill-opacity: 1; white-space: pre;">2.5</text></g><g class="xtick"><text text-anchor="middle" x="0" y="449.4" transform="translate(589,0)" style="font-family: sans-serif; font-size: 22px; fill: rgb(0, 0, 0); fill-opacity: 1; white-space: pre;">3</text></g></g><g class="yaxislayer-above"><g class="ytick"><text text-anchor="end" x="94.6" y="7.699999999999999" transform="translate(0,398.85)" style="font-family: sans-serif; font-size: 22px; fill: rgb(0, 0, 0); fill-opacity: 1; white-space: pre;">0</text></g><g class="ytick"><text text-anchor="end" x="94.6" y="7.699999999999999" transform="translate(0,346.19)" style="font-family: sans-serif; font-size: 22px; fill: rgb(0, 0, 0); fill-opacity: 1; white-space: pre;">0.01</text></g><g class="ytick"><text text-anchor="end" x="94.6" y="7.699999999999999" transform="translate(0,293.53)" style="font-family: sans-serif; font-size: 22px; fill: rgb(0, 0, 0); fill-opacity: 1; white-space: pre;">0.02</text></g><g class="ytick"><text text-anchor="end" x="94.6" y="7.699999999999999" transform="translate(0,240.87)" style="font-family: sans-serif; font-size: 22px; fill: rgb(0, 0, 0); fill-opacity: 1; white-space: pre;">0.03</text></g><g class="ytick"><text text-anchor="end" x="94.6" y="7.699999999999999" transform="translate(0,188.21)" style="font-family: sans-serif; font-size: 22px; fill: rgb(0, 0, 0); fill-opacity: 1; white-space: pre;">0.04</text></g><g class="ytick"><text text-anchor="end" x="94.6" y="7.699999999999999" transform="translate(0,135.55)" style="font-family: sans-serif; font-size: 22px; fill: rgb(0, 0, 0); fill-opacity: 1; white-space: pre;">0.05</text></g><g class="ytick"><text text-anchor="end" x="94.6" y="7.699999999999999" transform="translate(0,82.89)" style="font-family: sans-serif; font-size: 22px; fill: rgb(0, 0, 0); fill-opacity: 1; white-space: pre;">0.06</text></g></g><g class="overaxes-above"/></g></g><g class="polarlayer"/><g class="ternarylayer"/><g class="geolayer"/><g class="funnelarealayer"/><g class="pielayer"/><g class="treemaplayer"/><g class="sunburstlayer"/><g class="glimages"/><defs id="topdefs-a80e69"><g class="clips"/><clipPath id="legenda80e69"><rect width="89" height="105" x="0" y="0"/></clipPath></defs><g class="layer-above"><g class="imagelayer"/><g class="shapelayer"/></g><g class="infolayer"><g class="legend" pointer-events="all" transform="translate(598.74,60)"><rect class="bg" shape-rendering="crispEdges" style="stroke: rgb(68, 68, 68); stroke-opacity: 1; fill: rgb(255, 255, 255); fill-opacity: 1; stroke-width: 0px;" width="89" height="105" x="0" y="0"/><g class="scrollbox" transform="" clip-path="url('#legenda80e69')"><g class="groups" transform=""><g class="traces" transform="translate(0,20.8)" style="opacity: 1;"><text class="legendtext" text-anchor="start" x="40" y="8.58" style="font-family: sans-serif; font-size: 22px; fill: rgb(0, 0, 0); fill-opacity: 1; white-space: pre;">rtcb</text><g class="layers" style="opacity: 1;"><g class="legendfill"/><g class="legendlines"><path class="js-line" d="M5,0h30" style="fill: none; stroke: rgb(0, 83, 86); stroke-opacity: 1; stroke-width: 5px;"/></g><g class="legendsymbols"><g class="legendpoints"/></g></g><rect class="legendtoggle" x="0" y="-15.8" width="83.734375" height="31.6" style="fill: rgb(0, 0, 0); fill-opacity: 0;"/></g><g class="traces" transform="translate(0,52.400000000000006)" style="opacity: 1;"><text class="legendtext" text-anchor="start" x="40" y="8.58" style="font-family: sans-serif; font-size: 22px; fill: rgb(0, 0, 0); fill-opacity: 1; white-space: pre;">rtcr</text><g class="layers" style="opacity: 1;"><g class="legendfill"/><g class="legendlines"><path class="js-line" d="M5,0h30" style="fill: none; stroke: rgb(0, 83, 86); stroke-opacity: 1; stroke-width: 5px;"/></g><g class="legendsymbols"><g class="legendpoints"/></g></g><rect class="legendtoggle" x="0" y="-15.8" width="83.734375" height="31.6" style="fill: rgb(0, 0, 0); fill-opacity: 0;"/></g><g class="traces" transform="translate(0,84)" style="opacity: 1;"><text class="legendtext" text-anchor="start" x="40" y="8.58" style="font-family: sans-serif; font-size: 22px; fill: rgb(0, 0, 0); fill-opacity: 1; white-space: pre;">rtca</text><g class="layers" style="opacity: 1;"><g class="legendfill"/><g class="legendlines"><path class="js-line" d="M5,0h30" style="fill: none; stroke: rgb(0, 83, 86); stroke-opacity: 1; stroke-width: 5px;"/></g><g class="legendsymbols"><g class="legendpoints"/></g></g><rect class="legendtoggle" x="0" y="-15.8" width="83.734375" height="31.6" style="fill: rgb(0, 0, 0); fill-opacity: 0;"/></g></g></g><rect class="scrollbar" rx="20" ry="3" width="0" height="0" style="fill: rgb(128, 139, 164); fill-opacity: 1;" x="0" y="0"/></g><g class="g-gtitle"/><g class="g-xtitle"><text class="xtitle" x="345.5" y="487.60625" text-anchor="middle" style="font-family: sans-serif; font-size: 26px; fill: rgb(0, 0, 0); opacity: 1; font-weight: normal; white-space: pre;">Damage rate (min​<tspan style="font-size:70%" dy="-0.6em">-1</tspan><tspan dy="0.42em">​</tspan>)</text></g><g class="g-ytitle" transform="translate(11.5908203125,0)"><text class="ytitle" transform="rotate(-90,12.409374999999997,240)" x="12.409374999999997" y="240" text-anchor="middle" style="font-family: sans-serif; font-size: 26px; fill: rgb(0, 0, 0); opacity: 1; font-weight: normal; white-space: pre;">Rtc protein (μM)</text></g></g></svg>