<svg class="main-svg" xmlns="http://www.w3.org/2000/svg" xmlns:xlink="http://www.w3.org/1999/xlink" width="700" height="500" style="" viewBox="0 0 700 500"><rect x="0" y="0" width="700" height="500" style="fill: rgb(255, 255, 255); fill-opacity: 1;"/><defs id="defs-7e048f"><g class="clips"><clipPath id="clip7e048fxyplot" class="plotclip"><rect width="567" height="364"/></clipPath><clipPath class="axesclip" id="clip7e048fx"><rect x="83" y="0" width="567" height="500"/></clipPath><clipPath class="axesclip" id="clip7e048fy"><rect x="0" y="60" width="700" height="364"/></clipPath><clipPath class="axesclip" id="clip7e048fxy"><rect x="83" y="60" width="567" height="364"/></clipPath></g><g class="gradients"/></defs><g class="bglayer"/><g class="layer-below"><g class="imagelayer"/><g class="shapelayer"/></g><g class="cartesianlayer"><g class="subplot xy"><g class="layer-subplot"><g class="shapelayer"/><g class="imagelayer"/></g><g class="gridlayer"><g class="x"/><g class="y"/></g><g class="zerolinelayer"><path class="yzl zl crisp" transform="translate(0,407.33)" d="M83,0h567" style="stroke: rgb(255, 255, 255); stroke-opacity: 1; stroke-width: 2px;"/></g><path class="xlines-below"/><path class="ylines-below"/><g class="overlines-below"/><g class="xaxislayer-below"/><g class="yaxislayer-below"/><g class="overaxes-below"/><g class="plot" transform="translate(83,60)" clip-path="url('#clip7e048fxyplot')"><g class="scatterlayer mlayer"><g class="trace scatter tracefebf50" style="stroke-miterlimit: 2; opacity: 1;"><g class="fills"/><g class="errorbars"/><g class="lines"><path class="js-line" d="M0,18.2L2.07,20.43L3.32,21.12L12.83,24.14L15.44,24.74L128.46,49L131.07,49.68L190.91,66.52L193.5,67.31L245.02,84.41L247.58,85.33L288.16,101.48L290.67,102.59L320.37,117.08L322.8,118.41L344.19,131.59L346.49,133.21L361.91,145.89L363.97,147.93L373.36,159.31L374.97,161.87L379.93,173.21L380.67,176.31L381.35,183.36" style="vector-effect: non-scaling-stroke; fill: none; stroke: rgb(0, 83, 86); stroke-opacity: 1; stroke-width: 5px; opacity: 1;"/></g><g class="points"/><g class="text"/></g><g class="trace scatter trace654c58" style="stroke-miterlimit: 2; opacity: 1;"><g class="fills"/><g class="errorbars"/><g class="lines"><path class="js-line" d="M381.35,183.36L380.11,192.86L379.19,195.88L373.74,206.9L372.05,209.39L362.43,220.51L360.35,222.51L344.84,235.04L342.53,236.66L321.14,249.85L318.72,251.19L289.08,265.9L286.58,267.03L246.14,283.72L243.59,284.7L182.07,306.57L179.49,307.44L130.8,325.17L128.29,326.35L121.09,331.01L120.2,332.54L120.15,332.98" style="vector-effect: non-scaling-stroke; fill: none; stroke: rgb(0, 0, 0); stroke-opacity: 1; stroke-width: 5px; opacity: 1; stroke-dasharray: 15px, 15px;"/></g><g class="points"/><g class="text"/></g><g class="trace scatter trace46704f" style="stroke-miterlimit: 2; opacity: 1;"><g class="fills"/><g class="errorbars"/><g class="lines"><path class="js-line" d="M120.15,332.98L121.11,334.72L122.2,335.44L128.54,337.49L131.15,338.01L152.08,340.36L154.7,340.55L206.63,342.76L209.21,342.83L316.92,344.52L319.48,344.54L519.77,345.65L522.36,345.66L567,345.79" style="vector-effect: non-scaling-stroke; fill: none; stroke: rgb(240, 78, 83); stroke-opacity: 1; stroke-width: 5px; opacity: 1;"/></g><g class="points"/><g class="text"/></g><g class="trace scatter tracefbe8fe" style="stroke-miterlimit: 2; opacity: 1;"><g class="fills"/><g class="errorbars"/><g class="lines"/><g class="points"><path class="point" transform="translate(381.35,183.36)" d="M3,0A3,3 0 1,1 0,-3A3,3 0 0,1 3,0Z" style="opacity: 1; stroke-width: 0px; fill: rgb(0, 0, 0); fill-opacity: 1;"/><path class="point" transform="translate(120.15,332.98)" d="M3,0A3,3 0 1,1 0,-3A3,3 0 0,1 3,0Z" style="opacity: 1; stroke-width: 0px; fill: rgb(0, 0, 0); fill-opacity: 1;"/></g><g class="text"/></g><g class="trace scatter tracef6e0b3" style="stroke-miterlimit: 2; opacity: 1;"><g class="fills"/><g class="errorbars"/><g class="lines"><path class="js-line" d="M0,18.2L2.11,20.62L3.36,21.37L12.91,24.61L15.52,25.25L120.73,49.41L123.34,50.13L178.02,66.64L180.62,67.49L229.6,84.99L232.16,85.99L270.22,102.39L272.73,103.59L299.96,118.04L302.4,119.49L321.41,132.24L323.71,134.01L336.97,145.78L339.04,147.98L348.42,160.39L349.99,163.22L353.71,172.5L354.51,175.85L355.25,183.44" style="vector-effect: non-scaling-stroke; fill: none; stroke: rgb(0, 83, 86); stroke-opacity: 1; stroke-width: 5px; opacity: 1;"/></g><g class="points"/><g class="text"/></g><g class="trace scatter tracec18588" style="stroke-miterlimit: 2; opacity: 1;"><g class="fills"/><g class="errorbars"/><g class="lines"><path class="js-line" d="M355.25,183.44L353.89,193.76L352.89,197.02L347.07,208.73L345.29,211.35L335.31,222.96L333.17,225.04L317.32,238.03L314.98,239.71L293.3,253.35L290.85,254.74L260.95,269.96L258.43,271.13L217.73,288.47L215.17,289.48L142.98,316.51L140.4,317.5L119.92,326.35L117.48,327.73L113.28,331.13L112.62,332.82" style="vector-effect: non-scaling-stroke; fill: none; stroke: rgb(0, 0, 0); stroke-opacity: 1; stroke-width: 5px; opacity: 1; stroke-dasharray: 15px, 15px;"/></g><g class="points"/><g class="text"/></g><g class="trace scatter tracefd16ad" style="stroke-miterlimit: 2; opacity: 1;"><g class="fills"/><g class="errorbars"/><g class="lines"><path class="js-line" d="M112.62,332.82L114.28,335.13L115.69,335.86L124.26,338.1L126.11,338.4L149.64,340.72L151.67,340.85L209.94,343.03L212.22,343.08L316.28,344.57L318.82,344.59L567,345.8" style="vector-effect: non-scaling-stroke; fill: none; stroke: rgb(240, 78, 83); stroke-opacity: 1; stroke-width: 5px; opacity: 1;"/></g><g class="points"/><g class="text"/></g><g class="trace scatter traceca0fb8" style="stroke-miterlimit: 2; opacity: 1;"><g class="fills"/><g class="errorbars"/><g class="lines"/><g class="points"><path class="point" transform="translate(355.25,183.44)" d="M3,0A3,3 0 1,1 0,-3A3,3 0 0,1 3,0Z" style="opacity: 1; stroke-width: 0px; fill: rgb(0, 0, 0); fill-opacity: 1;"/><path class="point" transform="translate(112.62,332.82)" d="M3,0A3,3 0 1,1 0,-3A3,3 0 0,1 3,0Z" style="opacity: 1; stroke-width: 0px; fill: rgb(0, 0, 0); fill-opacity: 1;"/></g><g class="text"/></g><g class="trace scatter trace727eac" style="stroke-miterlimit: 2; opacity: 1;"><g class="fills"/><g class="errorbars"/><g class="lines"><path class="js-line" d="M0,18.2L2.14,20.52L3.41,21.23L12.98,24.31L15.59,24.92L123.53,48.47L126.15,49.16L183.54,65.53L186.13,66.33L237.82,83.72L240.39,84.67L278.63,100.03L281.16,101.15L311.1,115.81L313.55,117.15L335.21,130.51L337.55,132.16L353.27,145.09L355.38,147.18L365.05,158.94L366.72,161.61L370.85,170.4L371.84,173.59L373.13,183.38" style="vector-effect: non-scaling-stroke; fill: none; stroke: rgb(0, 83, 86); stroke-opacity: 1; stroke-width: 5px; opacity: 1;"/></g><g class="points"/><g class="text"/></g><g class="trace scatter traceb15a40" style="stroke-miterlimit: 2; opacity: 1;"><g class="fills"/><g class="errorbars"/><g class="lines"><path class="js-line" d="M373.13,183.38L371.76,193.48L370.76,196.66L364.92,208.1L363.14,210.65L353.15,221.98L351,224.01L335.14,236.69L332.79,238.32L311.11,251.62L308.66,252.98L278.75,267.8L276.23,268.95L235.54,285.8L232.98,286.78L171.16,309.02L168.58,309.92L127.36,325.5L124.82,326.75L119.89,329.79L117.79,332.34L117.69,332.95" style="vector-effect: non-scaling-stroke; fill: none; stroke: rgb(0, 0, 0); stroke-opacity: 1; stroke-width: 5px; opacity: 1; stroke-dasharray: 15px, 15px;"/></g><g class="points"/><g class="text"/></g><g class="trace scatter traced400fa" style="stroke-miterlimit: 2; opacity: 1;"><g class="fills"/><g class="errorbars"/><g class="lines"><path class="js-line" d="M117.69,332.95L118.77,334.81L120.1,335.63L129.04,338.09L131.4,338.47L155.2,340.77L157.58,340.92L214.71,343.05L217.1,343.1L326.7,344.63L329.19,344.66L567,345.8" style="vector-effect: non-scaling-stroke; fill: none; stroke: rgb(240, 78, 83); stroke-opacity: 1; stroke-width: 5px; opacity: 1;"/></g><g class="points"/><g class="text"/></g><g class="trace scatter traceb27918" style="stroke-miterlimit: 2; opacity: 1;"><g class="fills"/><g class="errorbars"/><g class="lines"/><g class="points"><path class="point" transform="translate(373.13,183.38)" d="M3,0A3,3 0 1,1 0,-3A3,3 0 0,1 3,0Z" style="opacity: 1; stroke-width: 0px; fill: rgb(0, 0, 0); fill-opacity: 1;"/><path class="point" transform="translate(117.69,332.95)" d="M3,0A3,3 0 1,1 0,-3A3,3 0 0,1 3,0Z" style="opacity: 1; stroke-width: 0px; fill: rgb(0, 0, 0); fill-opacity: 1;"/></g><g class="text"/></g><g class="trace scatter trace724556" style="stroke-miterlimit: 2; opacity: 1;"><g class="fills"/><g class="errorbars"/><g class="lines"><path class="js-line" d="M0,18.2L2.13,20.55L3.4,21.27L12.96,24.4L15.57,25.01L65.68,35.02L68.32,35.58L118.24,47.56L120.86,48.25L175.65,63.9L178.25,64.71L229.96,82.08L232.53,83.02L270.81,98.34L273.34,99.45L303.34,114L305.81,115.34L327.56,128.52L329.91,130.14L345.82,142.79L347.97,144.83L357.98,156.2L359.75,158.77L365.56,170.3L366.54,173.51L367.84,183.4" style="vector-effect: non-scaling-stroke; fill: none; stroke: rgb(0, 83, 86); stroke-opacity: 1; stroke-width: 5px; opacity: 1;"/></g><g class="points"/><g class="text"/></g><g class="trace scatter trace23de8d" style="stroke-miterlimit: 2; opacity: 1;"><g class="fills"/><g class="errorbars"/><g class="lines"><path class="js-line" d="M367.84,183.4L366.47,193.56L365.47,196.77L359.64,208.29L357.86,210.86L347.87,222.27L345.72,224.31L329.86,237.08L327.52,238.73L305.83,252.13L303.38,253.49L273.48,268.43L270.95,269.58L232.82,285.57L230.26,286.57L171.04,308.22L168.45,309.13L124.64,325.98L122.12,327.3L116.43,331.87L116.15,332.92" style="vector-effect: non-scaling-stroke; fill: none; stroke: rgb(0, 0, 0); stroke-opacity: 1; stroke-width: 5px; opacity: 1; stroke-dasharray: 15px, 15px;"/></g><g class="points"/><g class="text"/></g><g class="trace scatter trace83d696" style="stroke-miterlimit: 2; opacity: 1;"><g class="fills"/><g class="errorbars"/><g class="lines"><path class="js-line" d="M116.15,332.92L119.05,335.84L121.06,336.59L134,339.04L136.21,339.3L167.57,341.54L169.83,341.64L241.39,343.61L243.76,343.65L407.98,345.19L410.57,345.21L567,345.8" style="vector-effect: non-scaling-stroke; fill: none; stroke: rgb(240, 78, 83); stroke-opacity: 1; stroke-width: 5px; opacity: 1;"/></g><g class="points"/><g class="text"/></g><g class="trace scatter trace2e289c" style="stroke-miterlimit: 2; opacity: 1;"><g class="fills"/><g class="errorbars"/><g class="lines"/><g class="points"><path class="point" transform="translate(367.84,183.4)" d="M3,0A3,3 0 1,1 0,-3A3,3 0 0,1 3,0Z" style="opacity: 1; stroke-width: 0px; fill: rgb(0, 0, 0); fill-opacity: 1;"/><path class="point" transform="translate(116.15,332.92)" d="M3,0A3,3 0 1,1 0,-3A3,3 0 0,1 3,0Z" style="opacity: 1; stroke-width: 0px; fill: rgb(0, 0, 0); fill-opacity: 1;"/></g><g class="text"/></g><g class="trace scatter trace67f486" style="stroke-miterlimit: 2;"><g class="fills"><g><path class="js-fill" d="M381.35,347.33L0,347.33L0,18.2L0,18.2L0,18.2L0.13,18.47L0.34,18.82L0.68,19.27L1.23,19.81L2.07,20.43L3.32,21.12L5.13,21.9L7.66,22.76L10.24,23.49L12.83,24.14L15.44,24.74L18.05,25.3L20.67,25.83L23.3,26.35L25.93,26.85L28.56,27.35L31.2,27.83L33.83,28.32L36.47,28.8L39.11,29.29L41.75,29.77L44.39,30.26L47.03,30.76L49.67,31.25L52.31,31.75L54.94,32.26L57.58,32.77L60.22,33.29L62.86,33.82L65.49,34.35L68.12,34.89L70.76,35.44L73.39,35.99L76.02,36.55L78.65,37.12L81.28,37.69L83.91,38.27L86.54,38.86L89.17,39.45L91.79,40.05L94.42,40.65L97.04,41.26L99.66,41.88L102.29,42.5L104.91,43.13L107.53,43.76L110.15,44.4L112.77,45.04L115.38,45.69L118,46.34L120.62,47L123.23,47.66L125.85,48.33L128.46,49L131.07,49.68L133.68,50.36L136.29,51.05L138.9,51.74L141.51,52.43L144.12,53.13L146.73,53.84L149.34,54.54L151.94,55.26L154.55,55.98L157.15,56.7L159.75,57.42L162.35,58.16L164.96,58.89L167.56,59.63L170.16,60.38L172.75,61.13L175.35,61.89L177.95,62.65L180.54,63.41L183.14,64.18L185.73,64.96L188.32,65.74L190.91,66.52L193.5,67.31L196.09,68.11L198.68,68.91L201.27,69.72L203.85,70.53L206.44,71.35L209.02,72.18L211.6,73.01L214.18,73.84L216.76,74.69L219.34,75.54L221.91,76.39L224.49,77.25L227.06,78.12L229.63,79L232.2,79.88L234.77,80.77L237.33,81.67L239.9,82.57L242.46,83.49L245.02,84.41L247.58,85.33L250.13,86.27L252.69,87.22L255.24,88.17L257.79,89.13L260.33,90.11L262.88,91.09L265.42,92.08L267.96,93.08L270.5,94.09L273.03,95.11L275.56,96.15L278.09,97.19L280.61,98.24L283.13,99.31L285.65,100.39L288.16,101.48L290.67,102.59L293.17,103.71L295.67,104.84L298.17,105.99L300.66,107.15L303.14,108.33L305.62,109.53L308.1,110.74L310.56,111.97L313.03,113.22L315.48,114.49L317.93,115.77L320.37,117.08L322.8,118.41L325.22,119.77L327.63,121.14L330.04,122.55L332.43,123.98L334.81,125.44L337.18,126.92L339.53,128.44L341.87,130L344.19,131.59L346.49,133.21L348.77,134.88L351.04,136.59L353.27,138.34L355.48,140.14L357.66,142L359.81,143.91L361.91,145.89L363.97,147.93L365.99,150.04L367.94,152.23L369.83,154.5L371.64,156.86L373.36,159.31L374.97,161.87L376.46,164.54L377.8,167.32L378.97,170.21L379.93,173.21L380.67,176.31L381.15,179.47L381.35,182.69L381.35,183.36" style="fill: rgb(255, 102, 146); fill-opacity: 0.5; stroke-width: 0;"/></g></g><g class="errorbars"/><g class="lines"/><g class="points"/><g class="text"/></g><g class="trace scatter tracec3164d" style="stroke-miterlimit: 2;"><g class="fills"><g><path class="js-fill" d="M373.13,347.33L0,347.33L0,18.2L0,18.2L0,18.2L0.13,18.48L0.35,18.86L0.71,19.33L1.28,19.88L2.14,20.52L3.41,21.23L5.24,22.03L7.79,22.91L10.38,23.65L12.98,24.31L15.59,24.92L18.22,25.49L20.85,26.04L23.48,26.57L26.11,27.08L28.75,27.59L31.39,28.09L34.03,28.59L36.67,29.08L39.31,29.58L41.95,30.08L44.6,30.58L47.24,31.08L49.88,31.59L52.52,32.11L55.16,32.63L57.8,33.16L60.44,33.69L63.08,34.23L65.72,34.78L68.36,35.33L70.99,35.89L73.63,36.46L76.26,37.03L78.9,37.62L81.53,38.21L84.16,38.8L86.79,39.4L89.42,40.01L92.05,40.63L94.68,41.25L97.31,41.88L99.93,42.51L102.56,43.15L105.18,43.8L107.81,44.45L110.43,45.1L113.05,45.77L115.67,46.43L118.29,47.11L120.91,47.78L123.53,48.47L126.15,49.16L128.77,49.85L131.38,50.55L134,51.25L136.61,51.96L139.23,52.67L141.84,53.39L144.45,54.11L147.07,54.83L149.68,55.57L152.29,56.3L154.9,57.04L157.5,57.79L160.11,58.54L162.72,59.3L165.32,60.06L167.93,60.82L170.53,61.6L173.13,62.37L175.74,63.15L178.34,63.94L180.94,64.73L183.54,65.53L186.13,66.33L188.73,67.14L191.33,67.96L193.92,68.78L196.51,69.6L199.11,70.44L201.7,71.27L204.29,72.12L206.87,72.97L209.46,73.83L212.05,74.69L214.63,75.56L217.21,76.44L219.8,77.32L222.38,78.21L224.95,79.11L227.53,80.02L230.11,80.93L232.68,81.85L235.25,82.78L237.82,83.72L240.39,84.67L242.96,85.62L245.52,86.58L248.08,87.56L250.64,88.54L253.2,89.53L255.76,90.53L258.31,91.54L260.86,92.56L263.41,93.59L265.95,94.64L268.49,95.69L271.03,96.76L273.57,97.84L276.1,98.93L278.63,100.03L281.16,101.15L283.68,102.28L286.19,103.43L288.71,104.59L291.22,105.76L293.72,106.95L296.22,108.16L298.72,109.39L301.21,110.63L303.69,111.9L306.17,113.18L308.64,114.48L311.1,115.81L313.55,117.15L316,118.53L318.44,119.92L320.87,121.34L323.29,122.79L325.7,124.27L328.1,125.78L330.48,127.32L332.85,128.9L335.21,130.51L337.55,132.16L339.87,133.86L342.17,135.6L344.45,137.38L346.7,139.22L348.92,141.12L351.11,143.07L353.27,145.09L355.38,147.18L357.45,149.35L359.46,151.6L361.4,153.95L363.27,156.39L365.05,158.94L366.72,161.61L368.26,164.41L369.65,167.34L370.85,170.4L371.84,173.59L372.56,176.89L373,180.28L373.13,183.38" style="fill: rgb(182, 232, 128); fill-opacity: 0.5; stroke-width: 0;"/></g></g><g class="errorbars"/><g class="lines"/><g class="points"/><g class="text"/></g><g class="trace scatter tracefc68d3" style="stroke-miterlimit: 2;"><g class="fills"><g><path class="js-fill" d="M367.84,347.33L0,347.33L0,18.2L0,18.2L0,18.2L0.13,18.49L0.35,18.87L0.71,19.34L1.27,19.9L2.13,20.55L3.4,21.27L5.22,22.08L7.77,22.97L10.36,23.72L12.96,24.4L15.57,25.01L18.19,25.6L20.82,26.15L23.45,26.69L26.09,27.21L28.72,27.72L31.36,28.23L34,28.74L36.64,29.24L39.28,29.74L41.92,30.25L44.57,30.76L47.21,31.27L49.85,31.79L52.49,32.31L55.13,32.84L57.77,33.38L60.41,33.92L63.05,34.47L65.68,35.02L68.32,35.58L70.96,36.15L73.59,36.73L76.22,37.32L78.86,37.91L81.49,38.51L84.12,39.11L86.75,39.72L89.38,40.34L92.01,40.97L94.64,41.6L97.26,42.24L99.89,42.88L102.51,43.53L105.14,44.19L107.76,44.85L110.38,45.52L113,46.19L115.62,46.87L118.24,47.56L120.86,48.25L123.48,48.94L126.09,49.64L128.71,50.35L131.32,51.06L133.94,51.77L136.55,52.49L139.16,53.22L141.78,53.95L144.39,54.68L147,55.42L149.61,56.17L152.22,56.92L154.82,57.67L157.43,58.44L160.03,59.2L162.64,59.97L165.24,60.75L167.85,61.53L170.45,62.32L173.05,63.11L175.65,63.9L178.25,64.71L180.85,65.52L183.44,66.33L186.04,67.15L188.63,67.98L191.23,68.81L193.82,69.65L196.41,70.49L199,71.34L201.59,72.2L204.17,73.06L206.76,73.93L209.34,74.8L211.93,75.69L214.51,76.58L217.09,77.48L219.67,78.38L222.24,79.29L224.82,80.21L227.39,81.14L229.96,82.08L232.53,83.02L235.1,83.97L237.67,84.93L240.23,85.9L242.79,86.88L245.35,87.87L247.91,88.87L250.47,89.88L253.02,90.9L255.57,91.93L258.12,92.97L260.66,94.02L263.2,95.08L265.74,96.15L268.28,97.24L270.81,98.34L273.34,99.45L275.86,100.57L278.39,101.71L280.9,102.87L283.42,104.04L285.93,105.22L288.43,106.42L290.93,107.64L293.42,108.87L295.91,110.13L298.4,111.4L300.87,112.69L303.34,114L305.81,115.34L308.26,116.69L310.71,118.07L313.15,119.48L315.58,120.91L318,122.37L320.41,123.86L322.8,125.38L325.19,126.93L327.56,128.52L329.91,130.14L332.25,131.81L334.57,133.51L336.87,135.27L339.15,137.06L341.4,138.92L343.63,140.82L345.82,142.79L347.97,144.83L350.09,146.93L352.15,149.11L354.16,151.38L356.11,153.74L357.98,156.2L359.75,158.77L361.43,161.46L362.97,164.27L364.36,167.22L365.56,170.3L366.54,173.51L367.27,176.83L367.71,180.24L367.84,183.4" style="fill: rgb(255, 151, 255); fill-opacity: 0.5; stroke-width: 0;"/></g></g><g class="errorbars"/><g class="lines"/><g class="points"/><g class="text"/></g><g class="trace scatter tracef36d7f" style="stroke-miterlimit: 2;"><g class="fills"><g><path class="js-fill" d="M355.25,347.33L0,347.33L0,18.2L0,18.2L0,18.2L0.13,18.49L0.35,18.88L0.7,19.37L1.25,19.95L2.11,20.62L3.36,21.37L5.18,22.2L7.73,23.13L10.31,23.91L12.91,24.61L15.52,25.25L18.14,25.85L20.76,26.43L23.39,26.98L26.03,27.53L28.66,28.06L31.3,28.59L33.94,29.11L36.58,29.63L39.21,30.15L41.85,30.68L44.5,31.21L47.14,31.74L49.77,32.28L52.41,32.82L55.05,33.37L57.69,33.92L60.33,34.49L62.97,35.06L65.6,35.63L68.24,36.22L70.87,36.81L73.5,37.41L76.13,38.02L78.77,38.63L81.4,39.26L84.02,39.89L86.65,40.52L89.28,41.17L91.91,41.82L94.53,42.48L97.15,43.14L99.78,43.81L102.4,44.49L105.02,45.18L107.64,45.87L110.26,46.56L112.88,47.26L115.49,47.97L118.11,48.69L120.73,49.41L123.34,50.13L125.95,50.86L128.57,51.6L131.18,52.34L133.79,53.09L136.4,53.84L139.01,54.6L141.62,55.36L144.22,56.13L146.83,56.91L149.44,57.69L152.04,58.47L154.64,59.26L157.24,60.06L159.85,60.86L162.45,61.67L165.05,62.48L167.64,63.3L170.24,64.13L172.84,64.96L175.43,65.8L178.02,66.64L180.62,67.49L183.21,68.35L185.8,69.21L188.39,70.08L190.97,70.95L193.56,71.84L196.14,72.73L198.73,73.62L201.31,74.53L203.89,75.44L206.47,76.36L209.04,77.28L211.62,78.21L214.19,79.16L216.76,80.11L219.34,81.06L221.9,82.03L224.47,83.01L227.03,83.99L229.6,84.99L232.16,85.99L234.71,87L237.27,88.03L239.82,89.06L242.37,90.1L244.92,91.16L247.46,92.22L250.01,93.3L252.55,94.39L255.08,95.49L257.61,96.61L260.14,97.74L262.67,98.88L265.19,100.03L267.71,101.2L270.22,102.39L272.73,103.59L275.24,104.81L277.74,106.04L280.23,107.29L282.72,108.56L285.21,109.85L287.68,111.16L290.15,112.49L292.62,113.84L295.08,115.22L297.52,116.61L299.96,118.04L302.4,119.49L304.82,120.97L307.23,122.47L309.63,124.01L312.01,125.58L314.39,127.19L316.74,128.83L319.09,130.51L321.41,132.24L323.71,134.01L326,135.83L328.25,137.7L330.48,139.62L332.68,141.61L334.84,143.66L336.97,145.78L339.04,147.98L341.07,150.26L343.03,152.64L344.92,155.11L346.72,157.69L348.42,160.39L349.99,163.22L351.42,166.18L352.67,169.27L353.71,172.5L354.51,175.85L355.03,179.29L355.25,182.79L355.25,183.44" style="fill: rgb(254, 203, 82); fill-opacity: 0.5; stroke-width: 0;"/></g></g><g class="errorbars"/><g class="lines"/><g class="points"/><g class="text"/></g></g></g><g class="overplot"/><path class="xlines-above crisp" d="M80,425.5H650" style="fill: none; stroke-width: 3px; stroke: rgb(0, 0, 0); stroke-opacity: 1;"/><path class="ylines-above crisp" d="M81.5,60V424" style="fill: none; stroke-width: 3px; stroke: rgb(0, 0, 0); stroke-opacity: 1;"/><g class="overlines-above"/><g class="xaxislayer-above"><g class="xtick"><text text-anchor="middle" x="0" y="451" transform="translate(83,0)" style="font-family: sans-serif; font-size: 20px; fill: rgb(0, 0, 0); fill-opacity: 1; white-space: pre;">0</text></g><g class="xtick"><text text-anchor="middle" x="0" y="451" transform="translate(177.5,0)" style="font-family: sans-serif; font-size: 20px; fill: rgb(0, 0, 0); fill-opacity: 1; white-space: pre;">0.5</text></g><g class="xtick"><text text-anchor="middle" x="0" y="451" transform="translate(272,0)" style="font-family: sans-serif; font-size: 20px; fill: rgb(0, 0, 0); fill-opacity: 1; white-space: pre;">1</text></g><g class="xtick"><text text-anchor="middle" x="0" y="451" transform="translate(366.5,0)" style="font-family: sans-serif; font-size: 20px; fill: rgb(0, 0, 0); fill-opacity: 1; white-space: pre;">1.5</text></g><g class="xtick"><text text-anchor="middle" x="0" y="451" transform="translate(461,0)" style="font-family: sans-serif; font-size: 20px; fill: rgb(0, 0, 0); fill-opacity: 1; white-space: pre;">2</text></g><g class="xtick"><text text-anchor="middle" x="0" y="451" transform="translate(555.5,0)" style="font-family: sans-serif; font-size: 20px; fill: rgb(0, 0, 0); fill-opacity: 1; white-space: pre;">2.5</text></g><g class="xtick"><text text-anchor="middle" x="0" y="451" transform="translate(650,0)" style="font-family: sans-serif; font-size: 20px; fill: rgb(0, 0, 0); fill-opacity: 1; white-space: pre;">3</text></g></g><g class="yaxislayer-above"><g class="ytick"><text text-anchor="end" x="76" y="7" transform="translate(0,407.33)" style="font-family: sans-serif; font-size: 20px; fill: rgb(0, 0, 0); fill-opacity: 1; white-space: pre;">0</text></g><g class="ytick"><text text-anchor="end" x="76" y="7" transform="translate(0,354.24)" style="font-family: sans-serif; font-size: 20px; fill: rgb(0, 0, 0); fill-opacity: 1; white-space: pre;">0.5</text></g><g class="ytick"><text text-anchor="end" x="76" y="7" transform="translate(0,301.15)" style="font-family: sans-serif; font-size: 20px; fill: rgb(0, 0, 0); fill-opacity: 1; white-space: pre;">1</text></g><g class="ytick"><text text-anchor="end" x="76" y="7" transform="translate(0,248.06)" style="font-family: sans-serif; font-size: 20px; fill: rgb(0, 0, 0); fill-opacity: 1; white-space: pre;">1.5</text></g><g class="ytick"><text text-anchor="end" x="76" y="7" transform="translate(0,194.96)" style="font-family: sans-serif; font-size: 20px; fill: rgb(0, 0, 0); fill-opacity: 1; white-space: pre;">2</text></g><g class="ytick"><text text-anchor="end" x="76" y="7" transform="translate(0,141.87)" style="font-family: sans-serif; font-size: 20px; fill: rgb(0, 0, 0); fill-opacity: 1; white-space: pre;">2.5</text></g><g class="ytick"><text text-anchor="end" x="76" y="7" transform="translate(0,88.78)" style="font-family: sans-serif; font-size: 20px; fill: rgb(0, 0, 0); fill-opacity: 1; white-space: pre;">3</text></g></g><g class="overaxes-above"/></g></g><g class="polarlayer"/><g class="ternarylayer"/><g class="geolayer"/><g class="funnelarealayer"/><g class="pielayer"/><g class="treemaplayer"/><g class="sunburstlayer"/><g class="glimages"/><defs id="topdefs-7e048f"><g class="clips"/></defs><g class="layer-above"><g class="imagelayer"/><g class="shapelayer"/></g><g class="infolayer"><g class="g-gtitle"/><g class="g-xtitle"><text class="xtitle" x="366.5" y="487.8" text-anchor="middle" style="font-family: sans-serif; font-size: 24px; fill: rgb(0, 0, 0); opacity: 1; font-weight: normal; white-space: pre;">Damage rate (min​<tspan style="font-size:70%" dy="-0.6em">-1</tspan><tspan dy="0.42em">​</tspan>)</text></g><g class="g-ytitle" transform="translate(9.6123046875,0)"><text class="ytitle" transform="rotate(-90,12.387500000000003,242)" x="12.387500000000003" y="242" text-anchor="middle" style="font-family: sans-serif; font-size: 24px; fill: rgb(0, 0, 0); opacity: 1; font-weight: normal; white-space: pre;">Rh (μM)</text></g></g></svg>