<svg class="main-svg" xmlns="http://www.w3.org/2000/svg" xmlns:xlink="http://www.w3.org/1999/xlink" width="700" height="500" style="" viewBox="0 0 700 500"><rect x="0" y="0" width="700" height="500" style="fill: rgb(255, 255, 255); fill-opacity: 1;"/><defs id="defs-7246fd"><g class="clips"><clipPath id="clip7246fdxyplot" class="plotclip"><rect width="567" height="364"/></clipPath><clipPath class="axesclip" id="clip7246fdx"><rect x="83" y="0" width="567" height="500"/></clipPath><clipPath class="axesclip" id="clip7246fdy"><rect x="0" y="60" width="700" height="364"/></clipPath><clipPath class="axesclip" id="clip7246fdxy"><rect x="83" y="60" width="567" height="364"/></clipPath></g><g class="gradients"/></defs><g class="bglayer"/><g class="layer-below"><g class="imagelayer"/><g class="shapelayer"/></g><g class="cartesianlayer"><g class="subplot xy"><g class="layer-subplot"><g class="shapelayer"/><g class="imagelayer"/></g><g class="gridlayer"><g class="x"/><g class="y"/></g><g class="zerolinelayer"><path class="yzl zl crisp" transform="translate(0,407.33)" d="M83,0h567" style="stroke: rgb(255, 255, 255); stroke-opacity: 1; stroke-width: 2px;"/></g><path class="xlines-below"/><path class="ylines-below"/><g class="overlines-below"/><g class="xaxislayer-below"/><g class="yaxislayer-below"/><g class="overaxes-below"/><g class="plot" transform="translate(83,60)" clip-path="url('#clip7246fdxyplot')"><g class="scatterlayer mlayer"><g class="trace scatter trace2fb2d5" style="stroke-miterlimit: 2; opacity: 1;"><g class="fills"/><g class="errorbars"/><g class="lines"><path class="js-line" d="M0,18.2L2.07,20.43L3.32,21.12L12.83,24.14L15.44,24.74L128.46,49L131.07,49.68L190.91,66.52L193.5,67.31L245.02,84.41L247.58,85.33L288.16,101.48L290.67,102.59L320.37,117.08L322.8,118.41L344.19,131.59L346.49,133.21L361.91,145.89L363.97,147.93L373.36,159.31L374.97,161.87L379.93,173.21L380.67,176.31L381.35,183.36" style="vector-effect: non-scaling-stroke; fill: none; stroke: rgb(0, 83, 86); stroke-opacity: 1; stroke-width: 5px; opacity: 1;"/></g><g class="points"/><g class="text"/></g><g class="trace scatter tracef095e4" style="stroke-miterlimit: 2; opacity: 1;"><g class="fills"/><g class="errorbars"/><g class="lines"><path class="js-line" d="M381.35,183.36L380.11,192.86L379.19,195.88L373.74,206.9L372.05,209.39L362.43,220.51L360.35,222.51L344.84,235.04L342.53,236.66L321.14,249.85L318.72,251.19L289.08,265.9L286.58,267.03L246.14,283.72L243.59,284.7L182.07,306.56L179.49,307.44L130.8,325.17L128.29,326.35L121.09,331.01L120.2,332.54L120.15,332.98" style="vector-effect: non-scaling-stroke; fill: none; stroke: rgb(0, 0, 0); stroke-opacity: 1; stroke-width: 5px; opacity: 1; stroke-dasharray: 15px, 15px;"/></g><g class="points"/><g class="text"/></g><g class="trace scatter tracefdaa52" style="stroke-miterlimit: 2; opacity: 1;"><g class="fills"/><g class="errorbars"/><g class="lines"><path class="js-line" d="M120.15,332.98L121.11,334.71L122.2,335.44L128.54,337.49L131.15,338.01L152.08,340.36L154.7,340.55L206.63,342.76L209.21,342.83L316.92,344.52L319.48,344.54L519.77,345.65L522.36,345.66L567,345.79" style="vector-effect: non-scaling-stroke; fill: none; stroke: rgb(240, 78, 83); stroke-opacity: 1; stroke-width: 5px; opacity: 1;"/></g><g class="points"/><g class="text"/></g><g class="trace scatter traceb6d562" style="stroke-miterlimit: 2; opacity: 1;"><g class="fills"/><g class="errorbars"/><g class="lines"/><g class="points"><path class="point" transform="translate(381.35,183.36)" d="M3,0A3,3 0 1,1 0,-3A3,3 0 0,1 3,0Z" style="opacity: 1; stroke-width: 0px; fill: rgb(0, 0, 0); fill-opacity: 1;"/><path class="point" transform="translate(120.15,332.98)" d="M3,0A3,3 0 1,1 0,-3A3,3 0 0,1 3,0Z" style="opacity: 1; stroke-width: 0px; fill: rgb(0, 0, 0); fill-opacity: 1;"/></g><g class="text"/></g><g class="trace scatter traceb31318" style="stroke-miterlimit: 2; opacity: 1;"><g class="fills"/><g class="errorbars"/><g class="lines"><path class="js-line" d="M0,18.2L1.2,22.9L2.26,24.71L17.71,47.38L19.25,50.12L31.97,75.76L33.26,78.71L43.52,106.03L44.5,109.16L51.13,134.69L51.79,137.95L55.68,164.36L55.98,167.7L56.97,191.1" style="vector-effect: non-scaling-stroke; fill: none; stroke: rgb(0, 83, 86); stroke-opacity: 1; stroke-width: 5px; opacity: 1;"/></g><g class="points"/><g class="text"/></g><g class="trace scatter traceaf9fec" style="stroke-miterlimit: 2; opacity: 1;"><g class="fills"/><g class="errorbars"/><g class="lines"><path class="js-line" d="M56.97,191.1L55.73,217.93L55.41,221.27L51.14,251.03L50.53,254.31L42.09,303.65L42.07,305.14" style="vector-effect: non-scaling-stroke; fill: none; stroke: rgb(0, 0, 0); stroke-opacity: 1; stroke-width: 5px; opacity: 1; stroke-dasharray: 15px, 15px;"/></g><g class="points"/><g class="text"/></g><g class="trace scatter tracef45260" style="stroke-miterlimit: 2; opacity: 1;"><g class="fills"/><g class="errorbars"/><g class="lines"><path class="js-line" d="M42.07,305.14L43.42,315.22L44.66,318.33L48.34,323.52L50.57,325.53L57.96,329.86L60.54,330.92L73.66,334.6L76.31,335.13L100.18,338.38L102.83,338.63L145.07,341.29L147.7,341.4L241.42,343.73L244,343.77L419.01,345.26L421.59,345.27L567,345.8" style="vector-effect: non-scaling-stroke; fill: none; stroke: rgb(240, 78, 83); stroke-opacity: 1; stroke-width: 5px; opacity: 1;"/></g><g class="points"/><g class="text"/></g><g class="trace scatter traceb06943" style="stroke-miterlimit: 2; opacity: 1;"><g class="fills"/><g class="errorbars"/><g class="lines"/><g class="points"><path class="point" transform="translate(56.97,191.1)" d="M3,0A3,3 0 1,1 0,-3A3,3 0 0,1 3,0Z" style="opacity: 1; stroke-width: 0px; fill: rgb(0, 0, 0); fill-opacity: 1;"/><path class="point" transform="translate(42.07,305.14)" d="M3,0A3,3 0 1,1 0,-3A3,3 0 0,1 3,0Z" style="opacity: 1; stroke-width: 0px; fill: rgb(0, 0, 0); fill-opacity: 1;"/></g><g class="text"/></g><g class="trace scatter trace2b89b6" style="stroke-miterlimit: 2; opacity: 1;"><g class="fills"/><g class="errorbars"/><g class="lines"><path class="js-line" d="M0,18.2L1.26,21.2L2.26,22.29L8.51,26.39L10.94,27.66L35.23,41.5L37.6,43.07L60.68,60.03L62.93,61.84L84.79,81.18L86.9,83.24L105,103.15L106.9,105.53L119.23,123.21L120.84,125.9L129.35,142.99L130.56,146L135.38,161.67L136.07,164.92L138.04,181.55L138.12,184.91L138.12,185.52" style="vector-effect: non-scaling-stroke; fill: none; stroke: rgb(0, 83, 86); stroke-opacity: 1; stroke-width: 5px; opacity: 1;"/></g><g class="points"/><g class="text"/></g><g class="trace scatter trace2cfe99" style="stroke-miterlimit: 2; opacity: 1;"><g class="fills"/><g class="errorbars"/><g class="lines"><path class="js-line" d="M138.12,185.52L136.79,202.24L136.21,205.53L132,221.49L130.92,224.57L123.11,242.19L121.62,244.99L110.15,263.59L108.39,266.13L89.8,290.35L87.89,292.71L73.26,312.49L71.76,315.33L69.86,322.35" style="vector-effect: non-scaling-stroke; fill: none; stroke: rgb(0, 0, 0); stroke-opacity: 1; stroke-width: 5px; opacity: 1; stroke-dasharray: 15px, 15px;"/></g><g class="points"/><g class="text"/></g><g class="trace scatter traced10163" style="stroke-miterlimit: 2; opacity: 1;"><g class="fills"/><g class="errorbars"/><g class="lines"><path class="js-line" d="M69.86,322.35L70.62,325.9L72.83,328.85L80.43,333.04L83.04,333.91L98.89,337.18L101.53,337.55L133.25,340.38L135.88,340.53L198.66,342.86L201.26,342.92L332.77,344.71L335.33,344.73L567,345.8" style="vector-effect: non-scaling-stroke; fill: none; stroke: rgb(240, 78, 83); stroke-opacity: 1; stroke-width: 5px; opacity: 1;"/></g><g class="points"/><g class="text"/></g><g class="trace scatter trace3eed51" style="stroke-miterlimit: 2; opacity: 1;"><g class="fills"/><g class="errorbars"/><g class="lines"/><g class="points"><path class="point" transform="translate(138.12,185.52)" d="M3,0A3,3 0 1,1 0,-3A3,3 0 0,1 3,0Z" style="opacity: 1; stroke-width: 0px; fill: rgb(0, 0, 0); fill-opacity: 1;"/><path class="point" transform="translate(69.86,322.35)" d="M3,0A3,3 0 1,1 0,-3A3,3 0 0,1 3,0Z" style="opacity: 1; stroke-width: 0px; fill: rgb(0, 0, 0); fill-opacity: 1;"/></g><g class="text"/></g><g class="trace scatter traceee5c73" style="stroke-miterlimit: 2; opacity: 1;"><g class="fills"/><g class="errorbars"/><g class="lines"><path class="js-line" d="M0,18.2L1,21.38L1.86,22.64L7.64,27.63L9.92,29.29L25.5,42.23L27.63,44.26L45.93,63.88L47.88,66.19L64.42,88.13L66.14,90.7L78.77,112.38L80.19,115.23L88.84,136.08L89.88,139.18L94.8,158.36L95.39,161.64L97.44,181.63L97.52,185L97.53,187.03" style="vector-effect: non-scaling-stroke; fill: none; stroke: rgb(0, 83, 86); stroke-opacity: 1; stroke-width: 5px; opacity: 1;"/></g><g class="points"/><g class="text"/></g><g class="trace scatter trace92e888" style="stroke-miterlimit: 2; opacity: 1;"><g class="fills"/><g class="errorbars"/><g class="lines"><path class="js-line" d="M97.53,187.03L96.22,207.12L95.75,210.43L91.63,229.92L90.75,233.1L83.24,254.66L82.01,257.64L68.46,286.67L67.06,289.54L59.36,307.33L58.43,310.53L57.55,316.86" style="vector-effect: non-scaling-stroke; fill: none; stroke: rgb(0, 0, 0); stroke-opacity: 1; stroke-width: 5px; opacity: 1; stroke-dasharray: 15px, 15px;"/></g><g class="points"/><g class="text"/></g><g class="trace scatter trace6b04d0" style="stroke-miterlimit: 2; opacity: 1;"><g class="fills"/><g class="errorbars"/><g class="lines"><path class="js-line" d="M57.55,316.86L59.2,323.63L61.19,326.29L68.51,331.09L71.09,332.13L84.24,335.58L86.89,336.06L113.39,339.21L116.03,339.42L166.01,341.99L168.63,342.08L277.46,344.19L280.03,344.22L506.86,345.62L509.46,345.63L567,345.8" style="vector-effect: non-scaling-stroke; fill: none; stroke: rgb(240, 78, 83); stroke-opacity: 1; stroke-width: 5px; opacity: 1;"/></g><g class="points"/><g class="text"/></g><g class="trace scatter trace8e9e04" style="stroke-miterlimit: 2; opacity: 1;"><g class="fills"/><g class="errorbars"/><g class="lines"/><g class="points"><path class="point" transform="translate(97.53,187.03)" d="M3,0A3,3 0 1,1 0,-3A3,3 0 0,1 3,0Z" style="opacity: 1; stroke-width: 0px; fill: rgb(0, 0, 0); fill-opacity: 1;"/><path class="point" transform="translate(57.55,316.86)" d="M3,0A3,3 0 1,1 0,-3A3,3 0 0,1 3,0Z" style="opacity: 1; stroke-width: 0px; fill: rgb(0, 0, 0); fill-opacity: 1;"/></g><g class="text"/></g><g class="trace scatter trace546fb0" style="stroke-miterlimit: 2;"><g class="fills"><g><path class="js-fill" d="M381.35,347.33L0,347.33L0,18.2L0,18.2L0,18.2L0.13,18.47L0.34,18.82L0.68,19.27L1.23,19.81L2.07,20.43L3.32,21.12L5.13,21.9L7.66,22.76L10.24,23.49L12.83,24.14L15.44,24.74L18.05,25.3L20.67,25.83L23.3,26.35L25.93,26.85L28.56,27.35L31.2,27.83L33.83,28.32L36.47,28.8L39.11,29.29L41.75,29.77L44.39,30.26L47.03,30.76L49.67,31.25L52.31,31.75L54.94,32.26L57.58,32.77L60.22,33.29L62.86,33.82L65.49,34.35L68.12,34.89L70.76,35.44L73.39,35.99L76.02,36.55L78.65,37.12L81.28,37.69L83.91,38.27L86.54,38.86L89.17,39.45L91.79,40.05L94.42,40.65L97.04,41.26L99.66,41.88L102.29,42.5L104.91,43.13L107.53,43.76L110.15,44.4L112.77,45.04L115.38,45.69L118,46.34L120.62,47L123.23,47.66L125.85,48.33L128.46,49L131.07,49.68L133.68,50.36L136.29,51.05L138.9,51.74L141.51,52.43L144.12,53.13L146.73,53.84L149.34,54.54L151.94,55.26L154.55,55.98L157.15,56.7L159.75,57.42L162.35,58.16L164.96,58.89L167.56,59.63L170.16,60.38L172.75,61.13L175.35,61.89L177.95,62.65L180.54,63.41L183.14,64.18L185.73,64.96L188.32,65.74L190.91,66.52L193.5,67.31L196.09,68.11L198.68,68.91L201.27,69.72L203.85,70.53L206.44,71.35L209.02,72.18L211.6,73.01L214.18,73.84L216.76,74.69L219.34,75.54L221.91,76.39L224.49,77.25L227.06,78.12L229.63,79L232.2,79.88L234.77,80.77L237.33,81.67L239.9,82.57L242.46,83.49L245.02,84.41L247.58,85.33L250.13,86.27L252.69,87.22L255.24,88.17L257.79,89.13L260.33,90.11L262.88,91.09L265.42,92.08L267.96,93.08L270.5,94.09L273.03,95.11L275.56,96.14L278.09,97.19L280.61,98.24L283.13,99.31L285.65,100.39L288.16,101.48L290.67,102.59L293.17,103.71L295.67,104.84L298.17,105.99L300.66,107.15L303.14,108.33L305.62,109.53L308.1,110.74L310.56,111.97L313.03,113.22L315.48,114.48L317.93,115.77L320.37,117.08L322.8,118.41L325.22,119.77L327.63,121.14L330.04,122.55L332.43,123.98L334.81,125.44L337.18,126.92L339.53,128.44L341.87,130L344.19,131.59L346.49,133.21L348.77,134.88L351.04,136.59L353.27,138.34L355.48,140.14L357.66,142L359.81,143.91L361.91,145.89L363.97,147.93L365.99,150.04L367.94,152.22L369.83,154.5L371.64,156.86L373.36,159.31L374.97,161.87L376.46,164.54L377.8,167.32L378.97,170.21L379.93,173.21L380.67,176.31L381.15,179.47L381.35,182.69L381.35,183.36" style="fill: rgb(255, 102, 146); fill-opacity: 0.5; stroke-width: 0;"/></g></g><g class="errorbars"/><g class="lines"/><g class="points"/><g class="text"/></g><g class="trace scatter traced7034a" style="stroke-miterlimit: 2;"><g class="fills"><g><path class="js-fill" d="M138.12,347.33L0,347.33L0,18.2L0,18.2L0,18.2L0.06,18.51L0.16,18.95L0.34,19.52L0.67,20.27L1.26,21.2L2.26,22.29L3.82,23.57L6.12,25.05L8.51,26.39L10.94,27.66L13.4,28.92L15.86,30.19L18.32,31.48L20.77,32.8L23.21,34.16L25.64,35.55L28.06,36.99L30.47,38.46L32.86,39.97L35.23,41.5L37.6,43.07L39.95,44.66L42.3,46.28L44.63,47.93L46.95,49.59L49.26,51.28L51.57,52.99L53.86,54.72L56.14,56.47L58.41,58.24L60.68,60.03L62.93,61.84L65.17,63.67L67.4,65.53L69.62,67.4L71.82,69.3L74.02,71.22L76.2,73.17L78.37,75.13L80.52,77.12L82.66,79.14L84.79,81.18L86.9,83.24L88.99,85.34L91.06,87.46L93.12,89.61L95.15,91.79L97.17,94L99.16,96.24L101.13,98.51L103.08,100.81L105,103.15L106.9,105.53L108.76,107.94L110.6,110.38L112.4,112.87L114.16,115.39L115.89,117.96L117.58,120.56L119.23,123.21L120.84,125.9L122.4,128.64L123.9,131.42L125.36,134.24L126.75,137.11L128.09,140.03L129.35,142.99L130.56,146L131.68,149.05L132.73,152.14L133.7,155.28L134.58,158.46L135.38,161.67L136.07,164.92L136.68,168.2L137.18,171.51L137.57,174.84L137.86,178.19L138.04,181.55L138.12,184.91L138.12,185.52" style="fill: rgb(182, 232, 128); fill-opacity: 0.5; stroke-width: 0;"/></g></g><g class="errorbars"/><g class="lines"/><g class="points"/><g class="text"/></g><g class="trace scatter trace588292" style="stroke-miterlimit: 2;"><g class="fills"><g><path class="js-fill" d="M97.53,347.33L0,347.33L0,18.2L0,18.2L0,18.2L0.04,18.51L0.11,18.96L0.25,19.56L0.51,20.36L1,21.38L1.86,22.64L3.29,24.15L5.41,25.94L7.64,27.63L9.92,29.29L12.21,30.98L14.49,32.72L16.74,34.52L18.98,36.37L21.18,38.28L23.35,40.23L25.5,42.23L27.63,44.26L29.74,46.33L31.83,48.43L33.9,50.56L35.95,52.72L37.98,54.9L39.99,57.11L41.99,59.34L43.97,61.6L45.93,63.88L47.88,66.19L49.8,68.52L51.7,70.88L53.59,73.26L55.45,75.67L57.29,78.11L59.11,80.57L60.91,83.06L62.68,85.58L64.42,88.13L66.14,90.7L67.83,93.31L69.49,95.94L71.12,98.6L72.72,101.3L74.29,104.02L75.82,106.78L77.31,109.56L78.77,112.38L80.19,115.23L81.56,118.12L82.9,121.03L84.18,123.98L85.42,126.96L86.62,129.96L87.76,133.01L88.84,136.08L89.88,139.18L90.85,142.31L91.77,145.47L92.62,148.65L93.41,151.87L94.14,155.1L94.8,158.36L95.39,161.64L95.91,164.94L96.37,168.25L96.74,171.58L97.05,174.92L97.28,178.28L97.44,181.63L97.52,185L97.53,187.03" style="fill: rgb(255, 151, 255); fill-opacity: 0.5; stroke-width: 0;"/></g></g><g class="errorbars"/><g class="lines"/><g class="points"/><g class="text"/></g><g class="trace scatter tracebe189b" style="stroke-miterlimit: 2;"><g class="fills"><g><path class="js-fill" d="M56.97,347.33L0,347.33L0,18.2L0,18.2L0,18.2L0.02,18.52L0.07,18.96L0.15,19.58L0.31,20.41L0.62,21.49L1.2,22.9L2.26,24.71L3.94,27.02L5.76,29.35L7.6,31.74L9.41,34.21L11.17,36.74L12.87,39.34L14.52,41.98L16.13,44.66L17.71,47.38L19.25,50.12L20.77,52.88L22.26,55.67L23.72,58.48L25.16,61.31L26.58,64.17L27.96,67.04L29.33,69.92L30.66,72.83L31.97,75.76L33.26,78.71L34.51,81.67L35.74,84.65L36.94,87.66L38.11,90.67L39.26,93.71L40.37,96.77L41.45,99.84L42.5,102.93L43.52,106.03L44.5,109.16L45.45,112.3L46.37,115.45L47.25,118.62L48.1,121.81L48.91,125.01L49.69,128.22L50.42,131.45L51.13,134.69L51.79,137.95L52.41,141.22L53,144.49L53.55,147.78L54.05,151.08L54.52,154.39L54.95,157.71L55.33,161.03L55.68,164.36L55.98,167.7L56.25,171.04L56.47,174.39L56.65,177.75L56.79,181.1L56.89,184.46L56.95,187.82L56.97,191.1" style="fill: rgb(254, 203, 82); fill-opacity: 0.5; stroke-width: 0;"/></g></g><g class="errorbars"/><g class="lines"/><g class="points"/><g class="text"/></g></g></g><g class="overplot"/><path class="xlines-above crisp" d="M80,425.5H650" style="fill: none; stroke-width: 3px; stroke: rgb(0, 0, 0); stroke-opacity: 1;"/><path class="ylines-above crisp" d="M81.5,60V424" style="fill: none; stroke-width: 3px; stroke: rgb(0, 0, 0); stroke-opacity: 1;"/><g class="overlines-above"/><g class="xaxislayer-above"><g class="xtick"><text text-anchor="middle" x="0" y="451" transform="translate(83,0)" style="font-family: sans-serif; font-size: 20px; fill: rgb(0, 0, 0); fill-opacity: 1; white-space: pre;">0</text></g><g class="xtick"><text text-anchor="middle" x="0" y="451" transform="translate(177.5,0)" style="font-family: sans-serif; font-size: 20px; fill: rgb(0, 0, 0); fill-opacity: 1; white-space: pre;">0.5</text></g><g class="xtick"><text text-anchor="middle" x="0" y="451" transform="translate(272,0)" style="font-family: sans-serif; font-size: 20px; fill: rgb(0, 0, 0); fill-opacity: 1; white-space: pre;">1</text></g><g class="xtick"><text text-anchor="middle" x="0" y="451" transform="translate(366.5,0)" style="font-family: sans-serif; font-size: 20px; fill: rgb(0, 0, 0); fill-opacity: 1; white-space: pre;">1.5</text></g><g class="xtick"><text text-anchor="middle" x="0" y="451" transform="translate(461,0)" style="font-family: sans-serif; font-size: 20px; fill: rgb(0, 0, 0); fill-opacity: 1; white-space: pre;">2</text></g><g class="xtick"><text text-anchor="middle" x="0" y="451" transform="translate(555.5,0)" style="font-family: sans-serif; font-size: 20px; fill: rgb(0, 0, 0); fill-opacity: 1; white-space: pre;">2.5</text></g><g class="xtick"><text text-anchor="middle" x="0" y="451" transform="translate(650,0)" style="font-family: sans-serif; font-size: 20px; fill: rgb(0, 0, 0); fill-opacity: 1; white-space: pre;">3</text></g></g><g class="yaxislayer-above"><g class="ytick"><text text-anchor="end" x="76" y="7" transform="translate(0,407.33)" style="font-family: sans-serif; font-size: 20px; fill: rgb(0, 0, 0); fill-opacity: 1; white-space: pre;">0</text></g><g class="ytick"><text text-anchor="end" x="76" y="7" transform="translate(0,354.24)" style="font-family: sans-serif; font-size: 20px; fill: rgb(0, 0, 0); fill-opacity: 1; white-space: pre;">0.5</text></g><g class="ytick"><text text-anchor="end" x="76" y="7" transform="translate(0,301.15)" style="font-family: sans-serif; font-size: 20px; fill: rgb(0, 0, 0); fill-opacity: 1; white-space: pre;">1</text></g><g class="ytick"><text text-anchor="end" x="76" y="7" transform="translate(0,248.05)" style="font-family: sans-serif; font-size: 20px; fill: rgb(0, 0, 0); fill-opacity: 1; white-space: pre;">1.5</text></g><g class="ytick"><text text-anchor="end" x="76" y="7" transform="translate(0,194.96)" style="font-family: sans-serif; font-size: 20px; fill: rgb(0, 0, 0); fill-opacity: 1; white-space: pre;">2</text></g><g class="ytick"><text text-anchor="end" x="76" y="7" transform="translate(0,141.87)" style="font-family: sans-serif; font-size: 20px; fill: rgb(0, 0, 0); fill-opacity: 1; white-space: pre;">2.5</text></g><g class="ytick"><text text-anchor="end" x="76" y="7" transform="translate(0,88.78)" style="font-family: sans-serif; font-size: 20px; fill: rgb(0, 0, 0); fill-opacity: 1; white-space: pre;">3</text></g></g><g class="overaxes-above"/></g></g><g class="polarlayer"/><g class="ternarylayer"/><g class="geolayer"/><g class="funnelarealayer"/><g class="pielayer"/><g class="treemaplayer"/><g class="sunburstlayer"/><g class="glimages"/><defs id="topdefs-7246fd"><g class="clips"/></defs><g class="layer-above"><g class="imagelayer"/><g class="shapelayer"/></g><g class="infolayer"><g class="g-gtitle"/><g class="g-xtitle"><text class="xtitle" x="366.5" y="487.8" text-anchor="middle" style="font-family: sans-serif; font-size: 24px; fill: rgb(0, 0, 0); opacity: 1; font-weight: normal; white-space: pre;">Damage rate (min​<tspan style="font-size:70%" dy="-0.6em">-1</tspan><tspan dy="0.42em">​</tspan>)</text></g><g class="g-ytitle" transform="translate(9.6123046875,0)"><text class="ytitle" transform="rotate(-90,12.387500000000003,242)" x="12.387500000000003" y="242" text-anchor="middle" style="font-family: sans-serif; font-size: 24px; fill: rgb(0, 0, 0); opacity: 1; font-weight: normal; white-space: pre;">Rh (μM)</text></g></g></svg>