<svg class="main-svg" xmlns="http://www.w3.org/2000/svg" xmlns:xlink="http://www.w3.org/1999/xlink" width="700" height="500" style="" viewBox="0 0 700 500"><rect x="0" y="0" width="700" height="500" style="fill: rgb(255, 255, 255); fill-opacity: 1;"/><defs id="defs-b7da02"><g class="clips"><clipPath id="clipb7da02xyplot" class="plotclip"><rect width="555" height="364"/></clipPath><clipPath class="axesclip" id="clipb7da02x"><rect x="95" y="0" width="555" height="500"/></clipPath><clipPath class="axesclip" id="clipb7da02y"><rect x="0" y="60" width="700" height="364"/></clipPath><clipPath class="axesclip" id="clipb7da02xy"><rect x="95" y="60" width="555" height="364"/></clipPath></g><g class="gradients"/></defs><g class="bglayer"/><g class="layer-below"><g class="imagelayer"/><g class="shapelayer"/></g><g class="cartesianlayer"><g class="subplot xy"><g class="layer-subplot"><g class="shapelayer"/><g class="imagelayer"/></g><g class="gridlayer"><g class="x"/><g class="y"/></g><g class="zerolinelayer"><path class="yzl zl crisp" transform="translate(0,402.78)" d="M95,0h555" style="stroke: rgb(255, 255, 255); stroke-opacity: 1; stroke-width: 2px;"/></g><path class="xlines-below"/><path class="ylines-below"/><g class="overlines-below"/><g class="xaxislayer-below"/><g class="yaxislayer-below"/><g class="overaxes-below"/><g class="plot" transform="translate(95,60)" clip-path="url('#clipb7da02xyplot')"><g class="scatterlayer mlayer"><g class="trace scatter trace0628ae" style="stroke-miterlimit: 2; opacity: 1;"><g class="fills"/><g class="errorbars"/><g class="lines"><path class="js-line" d="M0,307.92L2.03,266.94L3.25,250.28L10.02,185.93L12.56,167.93L20.24,124.39L22.81,112.56L30.54,83.19L33.12,75.14L40.87,55.29L43.45,49.93L51.2,37.06L53.78,33.71L61.52,26.03L64.1,24.16L71.84,20.27L74.41,19.47L84.71,18.2L87.28,18.29L100.12,20.47L102.69,21.19L120.62,27.89L123.18,29.03L148.73,41.87L151.27,43.26L191.94,67.04L194.48,68.6L239.83,98.11L242.34,99.84L282.06,128.83L284.52,130.75L313.59,155.11L315.97,157.27L336.9,178.01L339.16,180.48L354.25,199.13L356.27,202.02L365.46,217.64L367.04,221.02L371.89,235.45L372.61,239.23L373.28,247.6" style="vector-effect: non-scaling-stroke; fill: none; stroke: rgb(0, 83, 86); stroke-opacity: 1; stroke-width: 5px; opacity: 1;"/></g><g class="points"/><g class="text"/></g><g class="trace scatter trace52e888" style="stroke-miterlimit: 2; opacity: 1;"><g class="fills"/><g class="errorbars"/><g class="lines"><path class="js-line" d="M373.28,247.6L372.07,258.31L371.17,261.58L365.83,272.97L364.17,275.42L354.76,285.84L352.72,287.62L339.78,296.82L337.54,298.14L319.07,307.22L316.72,308.2L292.72,316.55L290.28,317.26L260.81,324.6L258.33,325.12L220.94,331.68L218.43,332.04L173.18,337.39L170.66,337.63L117.61,342.05" style="vector-effect: non-scaling-stroke; fill: none; stroke: rgb(0, 0, 0); stroke-opacity: 1; stroke-width: 5px; opacity: 1; stroke-dasharray: 15px, 15px;"/></g><g class="points"/><g class="text"/></g><g class="trace scatter trace3195fc" style="stroke-miterlimit: 2; opacity: 1;"><g class="fills"/><g class="errorbars"/><g class="lines"><path class="js-line" d="M117.61,342.05L125.82,342.44L128.38,342.47L257.63,342.74L260.14,342.74L555,342.77" style="vector-effect: non-scaling-stroke; fill: none; stroke: rgb(240, 78, 83); stroke-opacity: 1; stroke-width: 5px; opacity: 1;"/></g><g class="points"/><g class="text"/></g><g class="trace scatter trace973029" style="stroke-miterlimit: 2; opacity: 1;"><g class="fills"/><g class="errorbars"/><g class="lines"/><g class="points"><path class="point" transform="translate(373.28,247.6)" d="M3,0A3,3 0 1,1 0,-3A3,3 0 0,1 3,0Z" style="opacity: 1; stroke-width: 0px; fill: rgb(0, 0, 0); fill-opacity: 1;"/><path class="point" transform="translate(117.61,342.05)" d="M3,0A3,3 0 1,1 0,-3A3,3 0 0,1 3,0Z" style="opacity: 1; stroke-width: 0px; fill: rgb(0, 0, 0); fill-opacity: 1;"/></g><g class="text"/></g><g class="trace scatter trace68c034" style="stroke-miterlimit: 2; opacity: 1;"><g class="fills"/><g class="errorbars"/><g class="lines"><path class="js-line" d="M0,337.84L1.18,322.73L2.21,315.58L5.64,302.56L7.44,299.31L10.93,296.87L12.59,296.76L18.85,298.78L20.33,299.51L36.16,308.98L37.31,309.76L49.36,319.41L50.04,320.11L55.06,327.2L55.27,327.78L55.76,330.54" style="vector-effect: non-scaling-stroke; fill: none; stroke: rgb(0, 83, 86); stroke-opacity: 1; stroke-width: 5px; opacity: 1;"/></g><g class="points"/><g class="text"/></g><g class="trace scatter traceb162ec" style="stroke-miterlimit: 2; opacity: 1;"><g class="fills"/><g class="errorbars"/><g class="lines"><path class="js-line" d="M55.76,330.54L54.55,334.38L54.24,334.81L50.05,338.13L49.46,338.44L41.18,341.89" style="vector-effect: non-scaling-stroke; fill: none; stroke: rgb(0, 0, 0); stroke-opacity: 1; stroke-width: 5px; opacity: 1; stroke-dasharray: 15px, 15px;"/></g><g class="points"/><g class="text"/></g><g class="trace scatter tracea7f2f7" style="stroke-miterlimit: 2; opacity: 1;"><g class="fills"/><g class="errorbars"/><g class="lines"><path class="js-line" d="M41.18,341.89L43.72,342.36L45.35,342.43L87.67,342.73L90.27,342.73L555,342.78" style="vector-effect: non-scaling-stroke; fill: none; stroke: rgb(240, 78, 83); stroke-opacity: 1; stroke-width: 5px; opacity: 1;"/></g><g class="points"/><g class="text"/></g><g class="trace scatter trace75cd9d" style="stroke-miterlimit: 2; opacity: 1;"><g class="fills"/><g class="errorbars"/><g class="lines"/><g class="points"><path class="point" transform="translate(55.76,330.54)" d="M3,0A3,3 0 1,1 0,-3A3,3 0 0,1 3,0Z" style="opacity: 1; stroke-width: 0px; fill: rgb(0, 0, 0); fill-opacity: 1;"/><path class="point" transform="translate(41.18,341.89)" d="M3,0A3,3 0 1,1 0,-3A3,3 0 0,1 3,0Z" style="opacity: 1; stroke-width: 0px; fill: rgb(0, 0, 0); fill-opacity: 1;"/></g><g class="text"/></g><g class="trace scatter trace799df0" style="stroke-miterlimit: 2; opacity: 1;"><g class="fills"/><g class="errorbars"/><g class="lines"><path class="js-line" d="M0,330.41L2.21,298.68L3.74,285.93L8.33,260.22L10.71,251.21L15.52,238.73L17.93,234.67L22.72,229.71L25.1,228.43L32.16,227.6L34.49,227.98L45.96,232.21L48.22,233.31L70.3,245.76L72.45,247.08L98.99,265.01L100.9,266.45L118.28,281.19L119.81,282.7L129.92,294.92L130.87,296.45L134.66,305.41L134.94,306.84L135.2,309.89" style="vector-effect: non-scaling-stroke; fill: none; stroke: rgb(0, 83, 86); stroke-opacity: 1; stroke-width: 5px; opacity: 1;"/></g><g class="points"/><g class="text"/></g><g class="trace scatter trace91c251" style="stroke-miterlimit: 2; opacity: 1;"><g class="fills"/><g class="errorbars"/><g class="lines"><path class="js-line" d="M135.2,309.89L133.89,316.34L133.33,317.52L129.21,322.89L128.15,323.85L120.5,328.89L119.05,329.62L106.09,334.5L104.35,335L84.16,339.35L82.3,339.65L68.38,342" style="vector-effect: non-scaling-stroke; fill: none; stroke: rgb(0, 0, 0); stroke-opacity: 1; stroke-width: 5px; opacity: 1; stroke-dasharray: 15px, 15px;"/></g><g class="points"/><g class="text"/></g><g class="trace scatter tracebfea02" style="stroke-miterlimit: 2; opacity: 1;"><g class="fills"/><g class="errorbars"/><g class="lines"><path class="js-line" d="M68.38,342L73.71,342.43L76.19,342.48L171.51,342.75L174.06,342.75L555,342.78" style="vector-effect: non-scaling-stroke; fill: none; stroke: rgb(240, 78, 83); stroke-opacity: 1; stroke-width: 5px; opacity: 1;"/></g><g class="points"/><g class="text"/></g><g class="trace scatter trace2d4764" style="stroke-miterlimit: 2; opacity: 1;"><g class="fills"/><g class="errorbars"/><g class="lines"/><g class="points"><path class="point" transform="translate(135.2,309.89)" d="M3,0A3,3 0 1,1 0,-3A3,3 0 0,1 3,0Z" style="opacity: 1; stroke-width: 0px; fill: rgb(0, 0, 0); fill-opacity: 1;"/><path class="point" transform="translate(68.38,342)" d="M3,0A3,3 0 1,1 0,-3A3,3 0 0,1 3,0Z" style="opacity: 1; stroke-width: 0px; fill: rgb(0, 0, 0); fill-opacity: 1;"/></g><g class="text"/></g><g class="trace scatter traceeb531b" style="stroke-miterlimit: 2; opacity: 1;"><g class="fills"/><g class="errorbars"/><g class="lines"><path class="js-line" d="M0,334.13L1.82,309.51L3.22,298.93L7.48,278.85L9.71,272.54L14.18,265.19L16.39,263.41L20.73,262.15L22.86,262.26L31.15,264.95L33.18,265.9L52.46,276.84L54.28,277.99L75.68,293.13L77.1,294.3L87.97,304.72L88.93,305.86L94.33,314.61L94.7,315.65L95.47,320.21" style="vector-effect: non-scaling-stroke; fill: none; stroke: rgb(0, 83, 86); stroke-opacity: 1; stroke-width: 5px; opacity: 1;"/></g><g class="points"/><g class="text"/></g><g class="trace scatter trace6ccde7" style="stroke-miterlimit: 2; opacity: 1;"><g class="fills"/><g class="errorbars"/><g class="lines"><path class="js-line" d="M95.47,320.21L94.18,325.51L93.73,326.32L89.7,330.67L88.83,331.32L80.28,335.71L79.04,336.17L64.28,340.13L62.93,340.4L56.33,341.96" style="vector-effect: non-scaling-stroke; fill: none; stroke: rgb(0, 0, 0); stroke-opacity: 1; stroke-width: 5px; opacity: 1; stroke-dasharray: 15px, 15px;"/></g><g class="points"/><g class="text"/></g><g class="trace scatter trace23433b" style="stroke-miterlimit: 2; opacity: 1;"><g class="fills"/><g class="errorbars"/><g class="lines"><path class="js-line" d="M56.33,341.96L59.9,342.39L62.17,342.46L134.24,342.74L136.81,342.74L555,342.78" style="vector-effect: non-scaling-stroke; fill: none; stroke: rgb(240, 78, 83); stroke-opacity: 1; stroke-width: 5px; opacity: 1;"/></g><g class="points"/><g class="text"/></g><g class="trace scatter trace37eba5" style="stroke-miterlimit: 2; opacity: 1;"><g class="fills"/><g class="errorbars"/><g class="lines"/><g class="points"><path class="point" transform="translate(95.47,320.21)" d="M3,0A3,3 0 1,1 0,-3A3,3 0 0,1 3,0Z" style="opacity: 1; stroke-width: 0px; fill: rgb(0, 0, 0); fill-opacity: 1;"/><path class="point" transform="translate(56.33,341.96)" d="M3,0A3,3 0 1,1 0,-3A3,3 0 0,1 3,0Z" style="opacity: 1; stroke-width: 0px; fill: rgb(0, 0, 0); fill-opacity: 1;"/></g><g class="text"/></g><g class="trace scatter trace1177e4" style="stroke-miterlimit: 2; opacity: 1;"><g class="fills"/><g class="errorbars"/><g class="lines"><path class="js-line" d="M273.3,342.56L288.49,340.5L291.03,340.11L303.69,337.72L306.22,337.01L321.42,332.28L323.96,331.37L334.09,326.46L336.62,324.96L344.22,319.52L346.75,317.32L354.35,308.85L356.88,305.11L361.95,295.49L364.48,288.7L367.02,279.15L369.55,260.11" style="vector-effect: non-scaling-stroke; fill: none; stroke: rgb(159, 159, 159); stroke-opacity: 1; stroke-width: 3px; opacity: 1; stroke-dasharray: 3px, 3px;"/></g><g class="points"/><g class="text"/></g></g></g><g class="overplot"/><path class="xlines-above crisp" d="M92,425.5H650" style="fill: none; stroke-width: 3px; stroke: rgb(0, 0, 0); stroke-opacity: 1;"/><path class="ylines-above crisp" d="M93.5,60V424" style="fill: none; stroke-width: 3px; stroke: rgb(0, 0, 0); stroke-opacity: 1;"/><g class="overlines-above"/><g class="xaxislayer-above"><g class="xtick"><text text-anchor="middle" x="0" y="451" transform="translate(95,0)" style="font-family: sans-serif; font-size: 20px; fill: rgb(0, 0, 0); fill-opacity: 1; white-space: pre;">0</text></g><g class="xtick"><text text-anchor="middle" x="0" y="451" transform="translate(187.5,0)" style="font-family: sans-serif; font-size: 20px; fill: rgb(0, 0, 0); fill-opacity: 1; white-space: pre;">0.5</text></g><g class="xtick"><text text-anchor="middle" x="0" y="451" transform="translate(280,0)" style="font-family: sans-serif; font-size: 20px; fill: rgb(0, 0, 0); fill-opacity: 1; white-space: pre;">1</text></g><g class="xtick"><text text-anchor="middle" x="0" y="451" transform="translate(372.5,0)" style="font-family: sans-serif; font-size: 20px; fill: rgb(0, 0, 0); fill-opacity: 1; white-space: pre;">1.5</text></g><g class="xtick"><text text-anchor="middle" x="0" y="451" transform="translate(465,0)" style="font-family: sans-serif; font-size: 20px; fill: rgb(0, 0, 0); fill-opacity: 1; white-space: pre;">2</text></g><g class="xtick"><text text-anchor="middle" x="0" y="451" transform="translate(557.5,0)" style="font-family: sans-serif; font-size: 20px; fill: rgb(0, 0, 0); fill-opacity: 1; white-space: pre;">2.5</text></g><g class="xtick"><text text-anchor="middle" x="0" y="451" transform="translate(650,0)" style="font-family: sans-serif; font-size: 20px; fill: rgb(0, 0, 0); fill-opacity: 1; white-space: pre;">3</text></g></g><g class="yaxislayer-above"><g class="ytick"><text text-anchor="end" x="88" y="7" transform="translate(0,402.78)" style="font-family: sans-serif; font-size: 20px; fill: rgb(0, 0, 0); fill-opacity: 1; white-space: pre;">0</text></g><g class="ytick"><text text-anchor="end" x="88" y="7" transform="translate(0,338.47)" style="font-family: sans-serif; font-size: 20px; fill: rgb(0, 0, 0); fill-opacity: 1; white-space: pre;">0.01</text></g><g class="ytick"><text text-anchor="end" x="88" y="7" transform="translate(0,274.16999999999996)" style="font-family: sans-serif; font-size: 20px; fill: rgb(0, 0, 0); fill-opacity: 1; white-space: pre;">0.02</text></g><g class="ytick"><text text-anchor="end" x="88" y="7" transform="translate(0,209.87)" style="font-family: sans-serif; font-size: 20px; fill: rgb(0, 0, 0); fill-opacity: 1; white-space: pre;">0.03</text></g><g class="ytick"><text text-anchor="end" x="88" y="7" transform="translate(0,145.56)" style="font-family: sans-serif; font-size: 20px; fill: rgb(0, 0, 0); fill-opacity: 1; white-space: pre;">0.04</text></g><g class="ytick"><text text-anchor="end" x="88" y="7" transform="translate(0,81.26)" style="font-family: sans-serif; font-size: 20px; fill: rgb(0, 0, 0); fill-opacity: 1; white-space: pre;">0.05</text></g></g><g class="overaxes-above"/></g></g><g class="polarlayer"/><g class="ternarylayer"/><g class="geolayer"/><g class="funnelarealayer"/><g class="pielayer"/><g class="treemaplayer"/><g class="sunburstlayer"/><g class="glimages"/><defs id="topdefs-b7da02"><g class="clips"/></defs><g class="layer-above"><g class="imagelayer"/><g class="shapelayer"/></g><g class="infolayer"><g class="g-gtitle"/><g class="g-xtitle"><text class="xtitle" x="372.5" y="487.8" text-anchor="middle" style="font-family: sans-serif; font-size: 24px; fill: rgb(0, 0, 0); opacity: 1; font-weight: normal; white-space: pre;">Damage rate (min​<tspan style="font-size:70%" dy="-0.6em">-1</tspan><tspan dy="0.42em">​</tspan>)</text></g><g class="g-ytitle" transform="translate(10.3310546875,0)"><text class="ytitle" transform="rotate(-90,11.668750000000003,242)" x="11.668750000000003" y="242" text-anchor="middle" style="font-family: sans-serif; font-size: 24px; fill: rgb(0, 0, 0); opacity: 1; font-weight: normal; white-space: pre;">RtcB (μM)</text></g></g></svg>