<svg class="main-svg" xmlns="http://www.w3.org/2000/svg" xmlns:xlink="http://www.w3.org/1999/xlink" width="700" height="500" style="" viewBox="0 0 700 500"><rect x="0" y="0" width="700" height="500" style="fill: rgb(255, 255, 255); fill-opacity: 1;"/><defs id="defs-1453c8"><g class="clips"><clipPath id="clip1453c8xyplot" class="plotclip"><rect width="564" height="355"/></clipPath><clipPath class="axesclip" id="clip1453c8x"><rect x="86" y="0" width="564" height="500"/></clipPath><clipPath class="axesclip" id="clip1453c8y"><rect x="0" y="60" width="700" height="355"/></clipPath><clipPath class="axesclip" id="clip1453c8xy"><rect x="86" y="60" width="564" height="355"/></clipPath></g><g class="gradients"/></defs><g class="bglayer"/><g class="layer-below"><g class="imagelayer"/><g class="shapelayer"/></g><g class="cartesianlayer"><g class="subplot xy"><g class="layer-subplot"><g class="shapelayer"/><g class="imagelayer"/></g><g class="gridlayer"><g class="x"/><g class="y"/></g><g class="zerolinelayer"><path class="yzl zl crisp" transform="translate(0,400.23)" d="M86,0h564" style="stroke: rgb(255, 255, 255); stroke-opacity: 1; stroke-width: 2px;"/></g><path class="xlines-below"/><path class="ylines-below"/><g class="overlines-below"/><g class="xaxislayer-below"/><g class="yaxislayer-below"/><g class="overaxes-below"/><g class="plot" transform="translate(86,60)" clip-path="url('#clip1453c8xyplot')"><g class="scatterlayer mlayer"><g class="trace scatter trace7c1c2d" style="stroke-miterlimit: 2; opacity: 1;"><g class="fills"/><g class="errorbars"/><g class="lines"><path class="js-line" d="M0,17.75L3.23,18.7L3.75,18.78L97.94,32.17L109.56,34.09L196.27,50.26L207.53,52.67L268.06,67.42L276.98,69.92L323.55,85.17L330.17,87.75L358.58,100.73L363.35,103.34L382.8,116.49L385.85,119.13L395.36,129.71L397.09,132.36L401.57,142.98L402.1,145.64L402.49,150.61" style="vector-effect: non-scaling-stroke; fill: none; stroke: rgb(150, 150, 150); stroke-opacity: 1; stroke-width: 6.5px; opacity: 1;"/></g><g class="points"/><g class="text"/></g><g class="trace scatter trace833823" style="stroke-miterlimit: 2; opacity: 1;"><g class="fills"/><g class="errorbars"/><g class="lines"><path class="js-line" d="M402.49,150.61L400.78,161.24L399.84,163.9L394.14,174.51L392.26,177.16L380.23,190.39L377.33,193.04L356.81,208.85L352.9,211.48L322.05,229.83L317.19,232.44L269.16,255.89L263.43,258.49L159.1,305.5L154.72,308.19L148.09,313.69L146.52,316.52L146.4,317.52" style="vector-effect: non-scaling-stroke; fill: none; stroke: rgb(150, 150, 150); stroke-opacity: 1; stroke-width: 6.5px; opacity: 1; stroke-dasharray: 19.5px, 19.5px;"/></g><g class="points"/><g class="text"/></g><g class="trace scatter trace2658c1" style="stroke-miterlimit: 2; opacity: 1;"><g class="fills"/><g class="errorbars"/><g class="lines"><path class="js-line" d="M146.4,317.52L147.8,320.46L153.24,323.5L165.21,326.49L182.42,328.82L243.63,332.63L256.94,333.11L388.38,335.76L397.96,335.87L564,337.21" style="vector-effect: non-scaling-stroke; fill: none; stroke: rgb(150, 150, 150); stroke-opacity: 1; stroke-width: 6.5px; opacity: 1;"/></g><g class="points"/><g class="text"/></g><g class="trace scatter trace96851f" style="stroke-miterlimit: 2; opacity: 1;"><g class="fills"/><g class="errorbars"/><g class="lines"><path class="js-line" d="M0,17.75L2.47,19.18L2.97,19.34L23.89,27.32L26.33,28.37L56.8,42.9L61.23,45.28L87.95,61.72L91.84,64.5L111.79,81.23L114.58,84.02L128.46,100.8L130.31,103.6L138.98,120.42L140.04,123.22L144.25,140.05L144.62,142.85L145.23,153.51" style="vector-effect: non-scaling-stroke; fill: none; stroke: rgb(40, 114, 109); stroke-opacity: 1; stroke-width: 6.5px; opacity: 1;"/></g><g class="points"/><g class="text"/></g><g class="trace scatter traceca929f" style="stroke-miterlimit: 2; opacity: 1;"><g class="fills"/><g class="errorbars"/><g class="lines"><path class="js-line" d="M145.23,153.51L143.32,173.14L142.75,175.94L137,195.57L135.95,198.37L124.2,223.59L122.68,226.39L98.98,265.67L97.27,268.48L86.78,288.31L85.71,291.17L83.85,300.85" style="vector-effect: non-scaling-stroke; fill: none; stroke: rgb(40, 114, 109); stroke-opacity: 1; stroke-width: 6.5px; opacity: 1; stroke-dasharray: 19.5px, 19.5px;"/></g><g class="points"/><g class="text"/></g><g class="trace scatter tracecea947" style="stroke-miterlimit: 2; opacity: 1;"><g class="fills"/><g class="errorbars"/><g class="lines"><path class="js-line" d="M83.85,300.85L84.92,306.79L86.57,309.83L93.9,316.12L100.99,319.35L122.86,324.75L133.88,326.39L178.72,330.39L186.42,330.84L271.05,333.94L276.93,334.07L436.92,336.37L443.52,336.42L564,337.24" style="vector-effect: non-scaling-stroke; fill: none; stroke: rgb(40, 114, 109); stroke-opacity: 1; stroke-width: 6.5px; opacity: 1;"/></g><g class="points"/><g class="text"/></g><g class="trace scatter trace680239" style="stroke-miterlimit: 2; opacity: 1;"><g class="fills"/><g class="errorbars"/><g class="lines"><path class="js-line" d="M0,17.75L1.97,19.29L2.39,19.47L18.58,28.44L20.3,29.5L44.68,46.63L47.91,49.24L65.9,66L68.47,68.79L81.6,85.59L83.42,88.4L92.41,105.22L93.61,108.02L99.75,127.66L100.34,130.47L102.6,150.11L102.68,152.91L102.71,155.54" style="vector-effect: non-scaling-stroke; fill: none; stroke: rgb(70, 198, 190); stroke-opacity: 1; stroke-width: 6.5px; opacity: 1;"/></g><g class="points"/><g class="text"/></g><g class="trace scatter trace7c6fe2" style="stroke-miterlimit: 2; opacity: 1;"><g class="fills"/><g class="errorbars"/><g class="lines"><path class="js-line" d="M102.71,155.54L101.06,177.99L100.63,180.79L95.05,206.04L94.26,208.85L81.82,245.35L80.77,248.16L70.46,279.25L69.83,282.1L68.7,292.25" style="vector-effect: non-scaling-stroke; fill: none; stroke: rgb(70, 198, 190); stroke-opacity: 1; stroke-width: 6.5px; opacity: 1; stroke-dasharray: 19.5px, 19.5px;"/></g><g class="points"/><g class="text"/></g><g class="trace scatter trace8a9a7a" style="stroke-miterlimit: 2; opacity: 1;"><g class="fills"/><g class="errorbars"/><g class="lines"><path class="js-line" d="M68.7,292.25L70.04,301.08L71.33,304.09L76.16,310.28L80.37,313.48L94.86,319.81L104.52,322.35L137.93,327.44L145.03,328.15L204.06,331.86L209.28,332.08L317.59,334.92L322.64,335L526.01,337.03L535.35,337.09L564,337.25" style="vector-effect: non-scaling-stroke; fill: none; stroke: rgb(70, 198, 190); stroke-opacity: 1; stroke-width: 6.5px; opacity: 1;"/></g><g class="points"/><g class="text"/></g><g class="trace scatter traceea4b4c" style="stroke-miterlimit: 2; opacity: 1;"><g class="fills"/><g class="errorbars"/><g class="lines"><path class="js-line" d="M0,17.75L1.94,19.91L2.28,20.17L14.94,33.14L16.15,34.54L30.66,53.76L32.46,56.56L43.16,76.21L44.43,79.01L52.55,101.47L53.33,104.28L58.36,129.54L58.71,132.35L60.36,160.42L60.36,161.39" style="vector-effect: non-scaling-stroke; fill: none; stroke: rgb(142, 248, 241); stroke-opacity: 1; stroke-width: 6.5px; opacity: 1;"/></g><g class="points"/><g class="text"/></g><g class="trace scatter trace279dfa" style="stroke-miterlimit: 2; opacity: 1;"><g class="fills"/><g class="errorbars"/><g class="lines"><path class="js-line" d="M60.36,161.39L58.86,192.27L58.6,195.08L51.68,248.54L51.33,251.37L49.71,273.8" style="vector-effect: non-scaling-stroke; fill: none; stroke: rgb(142, 248, 241); stroke-opacity: 1; stroke-width: 6.5px; opacity: 1; stroke-dasharray: 19.5px, 19.5px;"/></g><g class="points"/><g class="text"/></g><g class="trace scatter tracea3b97b" style="stroke-miterlimit: 2; opacity: 1;"><g class="fills"/><g class="errorbars"/><g class="lines"><path class="js-line" d="M49.71,273.8L51.05,288.29L51.79,291.24L55.77,300.31L57.99,303.43L64.87,309.86L70.06,313.11L83.63,318.69L90.48,320.62L118.89,325.79L123.78,326.4L173.99,330.54L177.79,330.75L269.84,334.02L274.06,334.11L437.87,336.4L446.65,336.47L564,337.25" style="vector-effect: non-scaling-stroke; fill: none; stroke: rgb(142, 248, 241); stroke-opacity: 1; stroke-width: 6.5px; opacity: 1;"/></g><g class="points"/><g class="text"/></g><g class="trace scatter tracecc6249" style="stroke-miterlimit: 2;"><g class="fills"><g><path class="js-fill" d="M402.49,340.23L0,340.23L0,17.75L0,17.75L0,17.75L0.01,17.77L0.02,17.78L0.04,17.8L0.05,17.82L0.07,17.84L0.09,17.86L0.12,17.88L0.15,17.9L0.18,17.92L0.21,17.95L0.25,17.97L0.3,18L0.35,18.03L0.41,18.06L0.48,18.09L0.56,18.12L0.66,18.16L0.76,18.2L0.88,18.23L1.02,18.27L1.18,18.32L1.36,18.36L1.57,18.41L1.81,18.46L2.09,18.51L2.42,18.57L2.79,18.64L3.23,18.7L3.75,18.78L4.36,18.86L5.09,18.96L5.96,19.06L7.03,19.19L8.35,19.34L10.04,19.52L12.28,19.77L15.47,20.13L20.36,20.71L27.28,21.6L34.59,22.59L42.05,23.63L49.9,24.77L58.27,26L67.23,27.35L76.8,28.82L87.03,30.42L97.94,32.17L109.56,34.09L121.92,36.18L135.01,38.46L147.92,40.78L160.5,43.13L172.75,45.49L184.68,47.86L196.27,50.26L207.53,52.67L218.46,55.09L229.05,57.53L239.31,59.98L249.23,62.45L258.81,64.93L268.06,67.42L276.98,69.92L285.56,72.44L293.82,74.97L301.74,77.5L309.33,80.05L316.6,82.61L323.55,85.17L330.17,87.75L336.48,90.33L342.47,92.92L348.15,95.52L353.52,98.12L358.58,100.73L363.35,103.34L367.82,105.96L371.99,108.59L375.88,111.22L379.48,113.85L382.8,116.49L385.85,119.13L388.62,121.77L391.13,124.41L393.38,127.06L395.36,129.71L397.09,132.36L398.58,135.02L399.81,137.67L400.81,140.33L401.57,142.98L402.1,145.64L402.41,148.3L402.49,150.61" style="fill: rgb(150, 150, 150); fill-opacity: 0.3; stroke-width: 0;"/></g></g><g class="errorbars"/><g class="lines"/><g class="points"/><g class="text"/></g><g class="trace scatter trace778753" style="stroke-miterlimit: 2;"><g class="fills"><g><path class="js-fill" d="M145.23,340.23L0,340.23L0,17.75L0,17.75L0,17.75L0.01,17.79L0.02,17.82L0.04,17.86L0.06,17.9L0.08,17.95L0.1,17.99L0.13,18.04L0.17,18.08L0.21,18.13L0.27,18.19L0.33,18.24L0.4,18.3L0.48,18.36L0.58,18.42L0.7,18.49L0.84,18.56L1.01,18.64L1.2,18.72L1.44,18.82L1.72,18.92L2.06,19.04L2.47,19.18L2.97,19.34L3.6,19.53L4.4,19.78L5.38,20.09L6.56,20.48L7.88,20.93L9.27,21.43L10.72,21.97L12.26,22.56L13.89,23.2L15.63,23.89L17.49,24.65L19.48,25.47L21.61,26.36L23.89,27.32L26.33,28.37L28.94,29.5L31.72,30.74L34.7,32.08L37.86,33.53L41.23,35.11L44.8,36.82L48.58,38.68L52.58,40.7L56.8,42.9L61.23,45.28L65.88,47.87L70.66,50.63L75.25,53.4L79.66,56.17L83.89,58.95L87.95,61.72L91.84,64.5L95.56,67.29L99.12,70.07L102.51,72.86L105.76,75.64L108.85,78.43L111.79,81.23L114.58,84.02L117.23,86.81L119.75,89.61L122.12,92.4L124.36,95.2L126.47,98L128.46,100.8L130.31,103.6L132.05,106.4L133.66,109.2L135.16,112.01L136.55,114.81L137.82,117.61L138.98,120.42L140.04,123.22L140.99,126.02L141.84,128.83L142.58,131.63L143.23,134.44L143.79,137.24L144.25,140.05L144.62,142.85L144.9,145.66L145.09,148.47L145.2,151.27L145.23,153.51" style="fill: rgb(40, 114, 109); fill-opacity: 0.3; stroke-width: 0;"/></g></g><g class="errorbars"/><g class="lines"/><g class="points"/><g class="text"/></g><g class="trace scatter trace7e74ef" style="stroke-miterlimit: 2;"><g class="fills"><g><path class="js-fill" d="M102.71,340.23L0,340.23L0,17.75L0,17.75L0,17.75L0.01,17.79L0.02,17.84L0.03,17.89L0.05,17.94L0.07,17.99L0.1,18.04L0.13,18.1L0.17,18.16L0.21,18.22L0.27,18.28L0.33,18.35L0.41,18.42L0.51,18.5L0.62,18.58L0.75,18.67L0.92,18.76L1.11,18.87L1.34,18.99L1.63,19.13L1.97,19.29L2.39,19.47L2.9,19.7L3.5,19.96L4.19,20.28L4.94,20.64L5.74,21.04L6.57,21.47L7.46,21.94L8.39,22.45L9.39,23L10.45,23.6L11.58,24.25L12.8,24.96L14.1,25.73L15.49,26.56L16.99,27.46L18.58,28.44L20.3,29.5L22.12,30.66L24.08,31.91L26.16,33.27L28.37,34.74L30.73,36.34L33.22,38.08L35.86,39.96L38.65,42L41.59,44.22L44.68,46.63L47.91,49.24L51.23,52.03L54.41,54.82L57.47,57.61L60.4,60.41L63.21,63.2L65.9,66L68.47,68.79L70.93,71.59L73.28,74.39L75.51,77.19L77.64,79.99L79.67,82.79L81.6,85.59L83.42,88.4L85.15,91.2L86.78,94L88.32,96.8L89.78,99.61L91.14,102.41L92.41,105.22L93.61,108.02L94.72,110.83L95.75,113.63L96.7,116.44L97.57,119.24L98.37,122.05L99.1,124.85L99.75,127.66L100.34,130.47L100.85,133.27L101.3,136.08L101.69,138.88L102.01,141.69L102.26,144.5L102.46,147.3L102.6,150.11L102.68,152.91L102.71,155.54" style="fill: rgb(70, 198, 190); fill-opacity: 0.3; stroke-width: 0;"/></g></g><g class="errorbars"/><g class="lines"/><g class="points"/><g class="text"/></g><g class="trace scatter traced22579" style="stroke-miterlimit: 2;"><g class="fills"><g><path class="js-fill" d="M60.36,340.23L0,340.23L0,17.75L0,17.75L0,17.75L0.01,17.8L0.01,17.85L0.03,17.91L0.04,17.97L0.06,18.04L0.08,18.11L0.11,18.18L0.14,18.25L0.19,18.33L0.24,18.42L0.3,18.51L0.38,18.61L0.48,18.72L0.6,18.83L0.74,18.96L0.92,19.11L1.12,19.27L1.36,19.46L1.63,19.67L1.94,19.91L2.28,20.17L2.63,20.47L3.01,20.79L3.41,21.14L3.83,21.52L4.28,21.93L4.75,22.38L5.25,22.86L5.79,23.39L6.37,23.96L6.98,24.58L7.64,25.25L8.35,25.98L9.11,26.77L9.93,27.63L10.8,28.56L11.73,29.57L12.73,30.67L13.8,31.86L14.94,33.14L16.15,34.54L17.44,36.06L18.81,37.7L20.26,39.49L21.8,41.42L23.41,43.52L25.12,45.8L26.91,48.27L28.78,50.95L30.66,53.76L32.46,56.56L34.2,59.37L35.86,62.17L37.45,64.98L38.98,67.79L40.43,70.59L41.83,73.4L43.16,76.21L44.43,79.01L45.64,81.82L46.79,84.63L47.88,87.43L48.92,90.24L49.91,93.05L50.84,95.86L51.72,98.66L52.55,101.47L53.33,104.28L54.07,107.08L54.76,109.89L55.4,112.7L56,115.51L56.55,118.31L57.06,121.12L57.53,123.93L57.96,126.74L58.36,129.54L58.71,132.35L59.03,135.16L59.31,137.96L59.55,140.77L59.76,143.58L59.94,146.39L60.09,149.19L60.2,152L60.28,154.81L60.34,157.61L60.36,160.42L60.36,161.39" style="fill: rgb(142, 248, 241); fill-opacity: 0.3; stroke-width: 0;"/></g></g><g class="errorbars"/><g class="lines"/><g class="points"/><g class="text"/></g></g></g><g class="overplot"/><path class="xlines-above crisp" d="M83,416.5H650" style="fill: none; stroke-width: 3px; stroke: rgb(0, 0, 0); stroke-opacity: 1;"/><path class="ylines-above crisp" d="M84.5,60V415" style="fill: none; stroke-width: 3px; stroke: rgb(0, 0, 0); stroke-opacity: 1;"/><g class="overlines-above"/><g class="xaxislayer-above"><g class="xtick"><text text-anchor="middle" x="0" y="446.8" transform="translate(86,0)" style="font-family: sans-serif; font-size: 24px; fill: rgb(0, 0, 0); fill-opacity: 1; white-space: pre;">0</text></g><g class="xtick"><text text-anchor="middle" x="0" y="446.8" transform="translate(161.2,0)" style="font-family: sans-serif; font-size: 24px; fill: rgb(0, 0, 0); fill-opacity: 1; white-space: pre;">0.2</text></g><g class="xtick"><text text-anchor="middle" x="0" y="446.8" transform="translate(236.4,0)" style="font-family: sans-serif; font-size: 24px; fill: rgb(0, 0, 0); fill-opacity: 1; white-space: pre;">0.4</text></g><g class="xtick"><text text-anchor="middle" x="0" y="446.8" transform="translate(311.6,0)" style="font-family: sans-serif; font-size: 24px; fill: rgb(0, 0, 0); fill-opacity: 1; white-space: pre;">0.6</text></g><g class="xtick"><text text-anchor="middle" x="0" y="446.8" transform="translate(386.8,0)" style="font-family: sans-serif; font-size: 24px; fill: rgb(0, 0, 0); fill-opacity: 1; white-space: pre;">0.8</text></g><g class="xtick"><text text-anchor="middle" x="0" y="446.8" transform="translate(462,0)" style="font-family: sans-serif; font-size: 24px; fill: rgb(0, 0, 0); fill-opacity: 1; white-space: pre;">1</text></g><g class="xtick"><text text-anchor="middle" x="0" y="446.8" transform="translate(537.2,0)" style="font-family: sans-serif; font-size: 24px; fill: rgb(0, 0, 0); fill-opacity: 1; white-space: pre;">1.2</text></g><g class="xtick"><text text-anchor="middle" x="0" y="446.8" transform="translate(612.4,0)" style="font-family: sans-serif; font-size: 24px; fill: rgb(0, 0, 0); fill-opacity: 1; white-space: pre;">1.4</text></g></g><g class="yaxislayer-above"><g class="ytick"><text text-anchor="end" x="78.2" y="8.399999999999999" transform="translate(0,400.23)" style="font-family: sans-serif; font-size: 24px; fill: rgb(0, 0, 0); fill-opacity: 1; white-space: pre;">0</text></g><g class="ytick"><text text-anchor="end" x="78.2" y="8.399999999999999" transform="translate(0,311.86)" style="font-family: sans-serif; font-size: 24px; fill: rgb(0, 0, 0); fill-opacity: 1; white-space: pre;">5</text></g><g class="ytick"><text text-anchor="end" x="78.2" y="8.399999999999999" transform="translate(0,223.48)" style="font-family: sans-serif; font-size: 24px; fill: rgb(0, 0, 0); fill-opacity: 1; white-space: pre;">10</text></g><g class="ytick"><text text-anchor="end" x="78.2" y="8.399999999999999" transform="translate(0,135.1)" style="font-family: sans-serif; font-size: 24px; fill: rgb(0, 0, 0); fill-opacity: 1; white-space: pre;">15</text></g></g><g class="overaxes-above"/></g></g><g class="polarlayer"/><g class="ternarylayer"/><g class="geolayer"/><g class="funnelarealayer"/><g class="pielayer"/><g class="treemaplayer"/><g class="sunburstlayer"/><g class="glimages"/><defs id="topdefs-1453c8"><g class="clips"/></defs><g class="layer-above"><g class="imagelayer"/><g class="shapelayer"/></g><g class="infolayer"><g class="g-gtitle"/><g class="g-xtitle"><text class="xtitle" x="368" y="488.1125" text-anchor="middle" style="font-family: sans-serif; font-size: 29px; fill: rgb(0, 0, 0); opacity: 1; font-weight: normal; white-space: pre;">Damage rate (min​<tspan style="font-size:70%" dy="-0.6em">-1</tspan><tspan dy="0.42em">​</tspan>)</text></g><g class="g-ytitle" transform="translate(14.6435546875,0)"><text class="ytitle" transform="rotate(-90,12.356250000000003,237.5)" x="12.356250000000003" y="237.5" text-anchor="middle" style="font-family: sans-serif; font-size: 29px; fill: rgb(0, 0, 0); opacity: 1; font-weight: normal; white-space: pre;">Rh (μM)</text></g></g></svg>