<svg class="main-svg" xmlns="http://www.w3.org/2000/svg" xmlns:xlink="http://www.w3.org/1999/xlink" width="700" height="500" style="" viewBox="0 0 700 500"><rect x="0" y="0" width="700" height="500" style="fill: rgb(255, 255, 255); fill-opacity: 1;"/><defs id="defs-08be27"><g class="clips"><clipPath id="clip08be27xyplot" class="plotclip"><rect width="567" height="364"/></clipPath><clipPath class="axesclip" id="clip08be27x"><rect x="83" y="0" width="567" height="500"/></clipPath><clipPath class="axesclip" id="clip08be27y"><rect x="0" y="60" width="700" height="364"/></clipPath><clipPath class="axesclip" id="clip08be27xy"><rect x="83" y="60" width="567" height="364"/></clipPath></g><g class="gradients"/></defs><g class="bglayer"/><g class="layer-below"><g class="imagelayer"/><g class="shapelayer"/></g><g class="cartesianlayer"><g class="subplot xy"><g class="layer-subplot"><g class="shapelayer"/><g class="imagelayer"/></g><g class="gridlayer"><g class="x"/><g class="y"/></g><g class="zerolinelayer"><path class="yzl zl crisp" transform="translate(0,407.33)" d="M83,0h567" style="stroke: rgb(255, 255, 255); stroke-opacity: 1; stroke-width: 2px;"/></g><path class="xlines-below"/><path class="ylines-below"/><g class="overlines-below"/><g class="xaxislayer-below"/><g class="yaxislayer-below"/><g class="overaxes-below"/><g class="plot" transform="translate(83,60)" clip-path="url('#clip08be27xyplot')"><g class="scatterlayer mlayer"><g class="trace scatter trace46fb61" style="stroke-miterlimit: 2; opacity: 1;"><g class="fills"/><g class="errorbars"/><g class="lines"><path class="js-line" d="M0,18.2L2.07,20.43L3.32,21.12L12.83,24.14L15.44,24.74L128.46,49L131.07,49.68L190.91,66.52L193.5,67.31L245.02,84.41L247.58,85.33L288.16,101.48L290.67,102.59L320.37,117.08L322.8,118.41L344.19,131.59L346.49,133.21L361.91,145.89L363.97,147.93L373.36,159.31L374.97,161.87L379.93,173.21L380.67,176.3L381.35,183.36" style="vector-effect: non-scaling-stroke; fill: none; stroke: rgb(0, 83, 86); stroke-opacity: 1; stroke-width: 5px; opacity: 1;"/></g><g class="points"/><g class="text"/></g><g class="trace scatter trace5d0137" style="stroke-miterlimit: 2; opacity: 1;"><g class="fills"/><g class="errorbars"/><g class="lines"><path class="js-line" d="M381.35,183.36L380.11,192.86L379.19,195.88L373.74,206.9L372.05,209.39L362.43,220.51L360.35,222.51L344.84,235.04L342.53,236.66L321.14,249.85L318.72,251.19L289.08,265.9L286.58,267.03L246.14,283.72L243.59,284.69L187.21,304.81L184.64,305.69L130.8,325.17L128.29,326.35L121.09,331.01L120.2,332.54L120.15,332.98" style="vector-effect: non-scaling-stroke; fill: none; stroke: rgb(0, 0, 0); stroke-opacity: 1; stroke-width: 5px; opacity: 1; stroke-dasharray: 15px, 15px;"/></g><g class="points"/><g class="text"/></g><g class="trace scatter traceccfa60" style="stroke-miterlimit: 2; opacity: 1;"><g class="fills"/><g class="errorbars"/><g class="lines"><path class="js-line" d="M120.15,332.98L121.11,334.71L122.2,335.44L128.54,337.49L131.15,338.01L152.08,340.36L154.7,340.55L206.63,342.76L209.21,342.83L316.92,344.52L319.48,344.54L567,345.79" style="vector-effect: non-scaling-stroke; fill: none; stroke: rgb(240, 78, 83); stroke-opacity: 1; stroke-width: 5px; opacity: 1;"/></g><g class="points"/><g class="text"/></g><g class="trace scatter traced4cd3d" style="stroke-miterlimit: 2; opacity: 1;"><g class="fills"/><g class="errorbars"/><g class="lines"/><g class="points"><path class="point" transform="translate(381.35,183.36)" d="M3,0A3,3 0 1,1 0,-3A3,3 0 0,1 3,0Z" style="opacity: 1; stroke-width: 0px; fill: rgb(0, 0, 0); fill-opacity: 1;"/><path class="point" transform="translate(120.15,332.98)" d="M3,0A3,3 0 1,1 0,-3A3,3 0 0,1 3,0Z" style="opacity: 1; stroke-width: 0px; fill: rgb(0, 0, 0); fill-opacity: 1;"/></g><g class="text"/></g><g class="trace scatter tracea59bfe" style="stroke-miterlimit: 2; opacity: 1;"><g class="fills"/><g class="errorbars"/><g class="lines"><path class="js-line" d="M0,18.2L1.5,23.53L2.8,25.57L16.75,46.03L18.3,48.78L31.09,74.52L32.38,77.48L41.68,101.81L42.71,104.93L49.68,130.48L50.39,133.73L54.67,160.21L55.02,163.56L56.38,191.12" style="vector-effect: non-scaling-stroke; fill: none; stroke: rgb(0, 83, 86); stroke-opacity: 1; stroke-width: 5px; opacity: 1;"/></g><g class="points"/><g class="text"/></g><g class="trace scatter trace4882b2" style="stroke-miterlimit: 2; opacity: 1;"><g class="fills"/><g class="errorbars"/><g class="lines"><path class="js-line" d="M56.38,191.12L55.14,218.12L54.81,221.49L50.53,251.49L49.92,254.8L41.74,301.72L41.64,305.12" style="vector-effect: non-scaling-stroke; fill: none; stroke: rgb(0, 0, 0); stroke-opacity: 1; stroke-width: 5px; opacity: 1; stroke-dasharray: 15px, 15px;"/></g><g class="points"/><g class="text"/></g><g class="trace scatter tracefcc912" style="stroke-miterlimit: 2; opacity: 1;"><g class="fills"/><g class="errorbars"/><g class="lines"><path class="js-line" d="M41.64,305.12L43.23,315.98L44.73,319.32L48.87,324.51L51.19,326.38L60.7,331.19L63.06,332.01L79.15,335.77L81.39,336.14L109.74,339.29L111.89,339.45L161.19,341.94L163.37,342.01L245.5,343.81L247.9,343.84L481.1,345.53L483.74,345.54L567,345.8" style="vector-effect: non-scaling-stroke; fill: none; stroke: rgb(240, 78, 83); stroke-opacity: 1; stroke-width: 5px; opacity: 1;"/></g><g class="points"/><g class="text"/></g><g class="trace scatter trace45a24b" style="stroke-miterlimit: 2; opacity: 1;"><g class="fills"/><g class="errorbars"/><g class="lines"/><g class="points"><path class="point" transform="translate(56.38,191.12)" d="M3,0A3,3 0 1,1 0,-3A3,3 0 0,1 3,0Z" style="opacity: 1; stroke-width: 0px; fill: rgb(0, 0, 0); fill-opacity: 1;"/><path class="point" transform="translate(41.64,305.12)" d="M3,0A3,3 0 1,1 0,-3A3,3 0 0,1 3,0Z" style="opacity: 1; stroke-width: 0px; fill: rgb(0, 0, 0); fill-opacity: 1;"/></g><g class="text"/></g><g class="trace scatter trace991ce3" style="stroke-miterlimit: 2; opacity: 1;"><g class="fills"/><g class="errorbars"/><g class="lines"><path class="js-line" d="M0,18.2L1.39,21.38L2.47,22.53L11.43,27.99L13.9,29.27L33.35,40.47L35.72,42.03L58.85,58.95L61.1,60.77L83.01,80.1L85.13,82.17L103.3,102.07L105.2,104.44L117.63,122.11L119.25,124.8L127.87,141.87L129.1,144.88L134.05,160.55L134.78,163.81L136.92,180.47L137.03,183.85L137.04,185.53" style="vector-effect: non-scaling-stroke; fill: none; stroke: rgb(0, 83, 86); stroke-opacity: 1; stroke-width: 5px; opacity: 1;"/></g><g class="points"/><g class="text"/></g><g class="trace scatter trace780901" style="stroke-miterlimit: 2; opacity: 1;"><g class="fills"/><g class="errorbars"/><g class="lines"><path class="js-line" d="M137.04,185.53L135.71,202.32L135.13,205.63L130.92,221.65L129.83,224.75L122.02,242.45L120.53,245.26L109.04,263.96L107.28,266.51L86.76,293.28L84.85,295.67L72.15,313.47L70.7,316.48L69.33,322.34" style="vector-effect: non-scaling-stroke; fill: none; stroke: rgb(0, 0, 0); stroke-opacity: 1; stroke-width: 5px; opacity: 1; stroke-dasharray: 15px, 15px;"/></g><g class="points"/><g class="text"/></g><g class="trace scatter trace8eb5d0" style="stroke-miterlimit: 2; opacity: 1;"><g class="fills"/><g class="errorbars"/><g class="lines"><path class="js-line" d="M69.33,322.34L70.22,326.18L72.67,329.2L80.22,333.18L82.76,334.01L97.99,337.15L100.51,337.5L130.35,340.25L132.8,340.4L188.53,342.63L190.94,342.69L315.07,344.57L317.56,344.59L567,345.8" style="vector-effect: non-scaling-stroke; fill: none; stroke: rgb(240, 78, 83); stroke-opacity: 1; stroke-width: 5px; opacity: 1;"/></g><g class="points"/><g class="text"/></g><g class="trace scatter trace340415" style="stroke-miterlimit: 2; opacity: 1;"><g class="fills"/><g class="errorbars"/><g class="lines"/><g class="points"><path class="point" transform="translate(137.04,185.53)" d="M3,0A3,3 0 1,1 0,-3A3,3 0 0,1 3,0Z" style="opacity: 1; stroke-width: 0px; fill: rgb(0, 0, 0); fill-opacity: 1;"/><path class="point" transform="translate(69.33,322.34)" d="M3,0A3,3 0 1,1 0,-3A3,3 0 0,1 3,0Z" style="opacity: 1; stroke-width: 0px; fill: rgb(0, 0, 0); fill-opacity: 1;"/></g><g class="text"/></g><g class="trace scatter trace04ba2e" style="stroke-miterlimit: 2; opacity: 1;"><g class="fills"/><g class="errorbars"/><g class="lines"><path class="js-line" d="M0,18.2L1.13,21.64L2.12,23L10.54,29.86L12.84,31.58L28.19,45.08L30.29,47.18L48.33,67.28L50.24,69.64L66.44,92.1L68.11,94.74L78.88,114.06L80.27,116.95L88.69,138.06L89.68,141.19L94.34,160.58L94.88,163.89L96.62,184.03L96.65,187.04" style="vector-effect: non-scaling-stroke; fill: none; stroke: rgb(0, 83, 86); stroke-opacity: 1; stroke-width: 5px; opacity: 1;"/></g><g class="points"/><g class="text"/></g><g class="trace scatter traceadd558" style="stroke-miterlimit: 2; opacity: 1;"><g class="fills"/><g class="errorbars"/><g class="lines"><path class="js-line" d="M96.65,187.04L95.33,207.24L94.86,210.57L90.74,230.17L89.85,233.36L82.33,255.05L81.1,258.06L67.52,287.34L66.11,290.25L58.46,308.51L57.6,311.89L57.04,316.85" style="vector-effect: non-scaling-stroke; fill: none; stroke: rgb(0, 0, 0); stroke-opacity: 1; stroke-width: 5px; opacity: 1; stroke-dasharray: 15px, 15px;"/></g><g class="points"/><g class="text"/></g><g class="trace scatter trace3939a9" style="stroke-miterlimit: 2; opacity: 1;"><g class="fills"/><g class="errorbars"/><g class="lines"><path class="js-line" d="M57.04,316.85L59,324.18L61.21,326.84L68.54,331.36L71.04,332.33L85.94,336.02L88.39,336.43L114.86,339.4L117.23,339.58L163.86,341.95L166.17,342.03L257.85,343.96L260.26,343.99L483.51,345.54L486.13,345.55L567,345.8" style="vector-effect: non-scaling-stroke; fill: none; stroke: rgb(240, 78, 83); stroke-opacity: 1; stroke-width: 5px; opacity: 1;"/></g><g class="points"/><g class="text"/></g><g class="trace scatter tracece6377" style="stroke-miterlimit: 2; opacity: 1;"><g class="fills"/><g class="errorbars"/><g class="lines"/><g class="points"><path class="point" transform="translate(96.65,187.04)" d="M3,0A3,3 0 1,1 0,-3A3,3 0 0,1 3,0Z" style="opacity: 1; stroke-width: 0px; fill: rgb(0, 0, 0); fill-opacity: 1;"/><path class="point" transform="translate(57.04,316.85)" d="M3,0A3,3 0 1,1 0,-3A3,3 0 0,1 3,0Z" style="opacity: 1; stroke-width: 0px; fill: rgb(0, 0, 0); fill-opacity: 1;"/></g><g class="text"/></g><g class="trace scatter tracead6f83" style="stroke-miterlimit: 2;"><g class="fills"><g><path class="js-fill" d="M381.35,347.33L0,347.33L0,18.2L0,18.2L0,18.2L0.13,18.47L0.34,18.82L0.68,19.27L1.23,19.81L2.07,20.43L3.32,21.12L5.13,21.9L7.66,22.76L10.24,23.49L12.83,24.14L15.44,24.74L18.05,25.3L20.67,25.83L23.3,26.35L25.93,26.85L28.56,27.35L31.2,27.83L33.83,28.32L36.47,28.8L39.11,29.29L41.75,29.77L44.39,30.26L47.03,30.76L49.67,31.25L52.31,31.75L54.94,32.26L57.58,32.77L60.22,33.29L62.86,33.82L65.49,34.35L68.12,34.89L70.76,35.44L73.39,35.99L76.02,36.55L78.65,37.12L81.28,37.69L83.91,38.27L86.54,38.86L89.17,39.45L91.79,40.05L94.42,40.65L97.04,41.26L99.66,41.88L102.29,42.5L104.91,43.13L107.53,43.76L110.15,44.4L112.77,45.04L115.38,45.69L118,46.34L120.62,47L123.23,47.66L125.85,48.33L128.46,49L131.07,49.68L133.68,50.36L136.29,51.05L138.9,51.74L141.51,52.43L144.12,53.13L146.73,53.84L149.34,54.54L151.94,55.26L154.55,55.98L157.15,56.7L159.75,57.42L162.35,58.16L164.96,58.89L167.56,59.63L170.16,60.38L172.75,61.13L175.35,61.89L177.95,62.65L180.54,63.41L183.14,64.18L185.73,64.96L188.32,65.74L190.91,66.52L193.5,67.31L196.09,68.11L198.68,68.91L201.27,69.72L203.85,70.53L206.44,71.35L209.02,72.18L211.6,73.01L214.18,73.84L216.76,74.69L219.34,75.54L221.91,76.39L224.49,77.25L227.06,78.12L229.63,79L232.2,79.88L234.77,80.77L237.33,81.67L239.9,82.57L242.46,83.49L245.02,84.41L247.58,85.33L250.13,86.27L252.69,87.22L255.24,88.17L257.79,89.13L260.33,90.11L262.88,91.09L265.42,92.08L267.96,93.08L270.5,94.09L273.03,95.11L275.56,96.14L278.09,97.19L280.61,98.24L283.13,99.31L285.65,100.39L288.16,101.48L290.67,102.59L293.17,103.71L295.67,104.84L298.17,105.99L300.66,107.15L303.14,108.33L305.62,109.53L308.1,110.74L310.56,111.97L313.03,113.22L315.48,114.48L317.93,115.77L320.37,117.08L322.8,118.41L325.22,119.77L327.63,121.14L330.04,122.55L332.43,123.98L334.81,125.44L337.18,126.92L339.53,128.44L341.87,130L344.19,131.59L346.49,133.21L348.77,134.88L351.04,136.59L353.27,138.34L355.48,140.14L357.66,142L359.81,143.91L361.91,145.89L363.97,147.93L365.99,150.04L367.94,152.22L369.83,154.5L371.64,156.86L373.36,159.31L374.97,161.87L376.46,164.54L377.8,167.32L378.97,170.21L379.93,173.21L380.67,176.3L381.15,179.47L381.35,182.68L381.35,183.36" style="fill: rgb(255, 102, 146); fill-opacity: 0.5; stroke-width: 0;"/></g></g><g class="errorbars"/><g class="lines"/><g class="points"/><g class="text"/></g><g class="trace scatter tracef48933" style="stroke-miterlimit: 2;"><g class="fills"><g><path class="js-fill" d="M137.04,347.33L0,347.33L0,18.2L0,18.2L0,18.2L0.06,18.53L0.17,18.99L0.36,19.6L0.73,20.4L1.39,21.38L2.47,22.53L4.13,23.83L6.52,25.34L8.96,26.7L11.43,27.99L13.9,29.27L16.37,30.55L18.83,31.86L21.29,33.2L23.73,34.58L26.15,36L28.57,37.45L30.96,38.95L33.35,40.47L35.72,42.03L38.08,43.61L40.43,45.23L42.77,46.86L45.1,48.52L47.41,50.21L49.72,51.92L52.02,53.64L54.3,55.39L56.58,57.16L58.85,58.95L61.1,60.77L63.35,62.6L65.58,64.45L67.81,66.33L70.02,68.23L72.22,70.15L74.4,72.09L76.58,74.06L78.74,76.05L80.88,78.06L83.01,80.1L85.13,82.17L87.22,84.26L89.31,86.38L91.37,88.53L93.41,90.71L95.43,92.92L97.44,95.16L99.41,97.43L101.37,99.73L103.3,102.07L105.2,104.44L107.08,106.85L108.92,109.3L110.74,111.78L112.51,114.3L114.26,116.86L115.96,119.47L117.63,122.11L119.25,124.8L120.82,127.53L122.34,130.31L123.81,133.13L125.23,136L126.58,138.91L127.87,141.87L129.1,144.88L130.25,147.93L131.33,151.02L132.32,154.16L133.23,157.34L134.05,160.55L134.78,163.81L135.42,167.09L135.95,170.41L136.38,173.74L136.7,177.1L136.92,180.47L137.03,183.85L137.04,185.53" style="fill: rgb(182, 232, 128); fill-opacity: 0.5; stroke-width: 0;"/></g></g><g class="errorbars"/><g class="lines"/><g class="points"/><g class="text"/></g><g class="trace scatter tracece61b5" style="stroke-miterlimit: 2;"><g class="fills"><g><path class="js-fill" d="M96.65,347.33L0,347.33L0,18.2L0,18.2L0,18.2L0.04,18.53L0.12,19L0.27,19.66L0.57,20.53L1.13,21.64L2.12,23L3.7,24.59L5.94,26.43L8.24,28.16L10.54,29.86L12.84,31.58L15.12,33.36L17.36,35.19L19.58,37.07L21.77,39.01L23.94,40.99L26.08,43.02L28.19,45.08L30.29,47.18L32.37,49.3L34.43,51.46L36.47,53.64L38.49,55.85L40.49,58.09L42.48,60.35L44.45,62.63L46.4,64.94L48.33,67.28L50.24,69.64L52.13,72.03L54,74.44L55.85,76.88L57.68,79.35L59.48,81.84L61.26,84.36L63.01,86.91L64.74,89.49L66.44,92.1L68.11,94.74L69.75,97.41L71.36,100.1L72.94,102.83L74.48,105.59L75.99,108.39L77.45,111.21L78.88,114.06L80.27,116.95L81.62,119.87L82.92,122.82L84.18,125.81L85.38,128.82L86.54,131.87L87.64,134.95L88.69,138.06L89.68,141.19L90.62,144.36L91.49,147.56L92.3,150.78L93.05,154.02L93.73,157.29L94.34,160.58L94.88,163.89L95.36,167.22L95.75,170.56L96.08,173.92L96.33,177.28L96.51,180.66L96.62,184.03L96.65,187.04" style="fill: rgb(255, 151, 255); fill-opacity: 0.5; stroke-width: 0;"/></g></g><g class="errorbars"/><g class="lines"/><g class="points"/><g class="text"/></g><g class="trace scatter trace5e9916" style="stroke-miterlimit: 2;"><g class="fills"><g><path class="js-fill" d="M56.38,347.33L0,347.33L0,18.2L0,18.2L0,18.2L0.03,18.54L0.07,19.01L0.17,19.69L0.36,20.63L0.75,21.89L1.5,23.53L2.8,25.57L4.64,28.03L6.51,30.44L8.35,32.9L10.13,35.42L11.86,38L13.53,40.64L15.16,43.32L16.75,46.03L18.3,48.78L19.83,51.55L21.33,54.35L22.8,57.17L24.25,60.01L25.67,62.88L27.06,65.76L28.43,68.66L29.77,71.58L31.09,74.52L32.38,77.48L33.65,80.46L34.88,83.45L36.09,86.47L37.27,89.5L38.42,92.55L39.54,95.62L40.63,98.71L41.68,101.81L42.71,104.93L43.7,108.07L44.66,111.22L45.58,114.39L46.47,117.58L47.33,120.78L48.15,124L48.93,127.23L49.68,130.48L50.39,133.73L51.06,137.01L51.7,140.29L52.29,143.58L52.84,146.89L53.36,150.21L53.84,153.53L54.27,156.87L54.67,160.21L55.02,163.56L55.33,166.92L55.6,170.28L55.84,173.65L56.03,177.02L56.17,180.4L56.28,183.78L56.35,187.16L56.38,190.54L56.38,191.12" style="fill: rgb(254, 203, 82); fill-opacity: 0.5; stroke-width: 0;"/></g></g><g class="errorbars"/><g class="lines"/><g class="points"/><g class="text"/></g></g></g><g class="overplot"/><path class="xlines-above crisp" d="M80,425.5H650" style="fill: none; stroke-width: 3px; stroke: rgb(0, 0, 0); stroke-opacity: 1;"/><path class="ylines-above crisp" d="M81.5,60V424" style="fill: none; stroke-width: 3px; stroke: rgb(0, 0, 0); stroke-opacity: 1;"/><g class="overlines-above"/><g class="xaxislayer-above"><g class="xtick"><text text-anchor="middle" x="0" y="451" transform="translate(83,0)" style="font-family: sans-serif; font-size: 20px; fill: rgb(0, 0, 0); fill-opacity: 1; white-space: pre;">0</text></g><g class="xtick"><text text-anchor="middle" x="0" y="451" transform="translate(177.5,0)" style="font-family: sans-serif; font-size: 20px; fill: rgb(0, 0, 0); fill-opacity: 1; white-space: pre;">0.5</text></g><g class="xtick"><text text-anchor="middle" x="0" y="451" transform="translate(272,0)" style="font-family: sans-serif; font-size: 20px; fill: rgb(0, 0, 0); fill-opacity: 1; white-space: pre;">1</text></g><g class="xtick"><text text-anchor="middle" x="0" y="451" transform="translate(366.5,0)" style="font-family: sans-serif; font-size: 20px; fill: rgb(0, 0, 0); fill-opacity: 1; white-space: pre;">1.5</text></g><g class="xtick"><text text-anchor="middle" x="0" y="451" transform="translate(461,0)" style="font-family: sans-serif; font-size: 20px; fill: rgb(0, 0, 0); fill-opacity: 1; white-space: pre;">2</text></g><g class="xtick"><text text-anchor="middle" x="0" y="451" transform="translate(555.5,0)" style="font-family: sans-serif; font-size: 20px; fill: rgb(0, 0, 0); fill-opacity: 1; white-space: pre;">2.5</text></g><g class="xtick"><text text-anchor="middle" x="0" y="451" transform="translate(650,0)" style="font-family: sans-serif; font-size: 20px; fill: rgb(0, 0, 0); fill-opacity: 1; white-space: pre;">3</text></g></g><g class="yaxislayer-above"><g class="ytick"><text text-anchor="end" x="76" y="7" transform="translate(0,407.33)" style="font-family: sans-serif; font-size: 20px; fill: rgb(0, 0, 0); fill-opacity: 1; white-space: pre;">0</text></g><g class="ytick"><text text-anchor="end" x="76" y="7" transform="translate(0,354.24)" style="font-family: sans-serif; font-size: 20px; fill: rgb(0, 0, 0); fill-opacity: 1; white-space: pre;">0.5</text></g><g class="ytick"><text text-anchor="end" x="76" y="7" transform="translate(0,301.15)" style="font-family: sans-serif; font-size: 20px; fill: rgb(0, 0, 0); fill-opacity: 1; white-space: pre;">1</text></g><g class="ytick"><text text-anchor="end" x="76" y="7" transform="translate(0,248.05)" style="font-family: sans-serif; font-size: 20px; fill: rgb(0, 0, 0); fill-opacity: 1; white-space: pre;">1.5</text></g><g class="ytick"><text text-anchor="end" x="76" y="7" transform="translate(0,194.96)" style="font-family: sans-serif; font-size: 20px; fill: rgb(0, 0, 0); fill-opacity: 1; white-space: pre;">2</text></g><g class="ytick"><text text-anchor="end" x="76" y="7" transform="translate(0,141.87)" style="font-family: sans-serif; font-size: 20px; fill: rgb(0, 0, 0); fill-opacity: 1; white-space: pre;">2.5</text></g><g class="ytick"><text text-anchor="end" x="76" y="7" transform="translate(0,88.78)" style="font-family: sans-serif; font-size: 20px; fill: rgb(0, 0, 0); fill-opacity: 1; white-space: pre;">3</text></g></g><g class="overaxes-above"/></g></g><g class="polarlayer"/><g class="ternarylayer"/><g class="geolayer"/><g class="funnelarealayer"/><g class="pielayer"/><g class="treemaplayer"/><g class="sunburstlayer"/><g class="glimages"/><defs id="topdefs-08be27"><g class="clips"/></defs><g class="layer-above"><g class="imagelayer"/><g class="shapelayer"/></g><g class="infolayer"><g class="g-gtitle"/><g class="g-xtitle"><text class="xtitle" x="366.5" y="487.8" text-anchor="middle" style="font-family: sans-serif; font-size: 24px; fill: rgb(0, 0, 0); opacity: 1; font-weight: normal; white-space: pre;">Damage rate (min​<tspan style="font-size:70%" dy="-0.6em">-1</tspan><tspan dy="0.42em">​</tspan>)</text></g><g class="g-ytitle" transform="translate(9.6123046875,0)"><text class="ytitle" transform="rotate(-90,12.387500000000003,242)" x="12.387500000000003" y="242" text-anchor="middle" style="font-family: sans-serif; font-size: 24px; fill: rgb(0, 0, 0); opacity: 1; font-weight: normal; white-space: pre;">Rh (μM)</text></g></g></svg>