<svg class="main-svg" xmlns="http://www.w3.org/2000/svg" xmlns:xlink="http://www.w3.org/1999/xlink" width="700" height="500" style="" viewBox="0 0 700 500"><rect x="0" y="0" width="700" height="500" style="fill: rgb(255, 255, 255); fill-opacity: 1;"/><defs id="defs-bf9909"><g class="clips"><clipPath id="clipbf9909xyplot" class="plotclip"><rect width="526" height="355"/></clipPath><clipPath class="axesclip" id="clipbf9909x"><rect x="124" y="0" width="526" height="500"/></clipPath><clipPath class="axesclip" id="clipbf9909y"><rect x="0" y="60" width="700" height="355"/></clipPath><clipPath class="axesclip" id="clipbf9909xy"><rect x="124" y="60" width="526" height="355"/></clipPath></g><g class="gradients"/></defs><g class="bglayer"/><g class="layer-below"><g class="imagelayer"/><g class="shapelayer"/></g><g class="cartesianlayer"><g class="subplot xy"><g class="layer-subplot"><g class="shapelayer"/><g class="imagelayer"/></g><g class="gridlayer"><g class="x"/><g class="y"/></g><g class="zerolinelayer"/><path class="xlines-below"/><path class="ylines-below"/><g class="overlines-below"/><g class="xaxislayer-below"/><g class="yaxislayer-below"/><g class="overaxes-below"/><g class="plot" transform="translate(124,60)" clip-path="url('#clipbf9909xyplot')"><g class="scatterlayer mlayer"><g class="trace scatter tracec42fd6" style="stroke-miterlimit: 2;"><g class="fills"><g><path class="js-fill" d="M0,308.38L5.31,304.8L10.63,304.8L15.94,301.21L21.25,301.21L26.57,297.63L31.88,297.63L37.19,294.04L42.51,294.04L47.82,294.04L53.13,290.45L74.38,290.45L79.7,286.87L106.26,286.87L111.58,283.28L159.39,283.28L164.71,279.7L249.72,279.7L255.03,276.11L446.3,276.11L451.62,272.53L526,272.53L526,326.31L451.62,326.31L446.3,329.9L159.39,329.9L154.08,333.48L74.38,333.48L69.07,337.07L31.88,337.07L26.57,340.66L10.63,340.66L5.31,344.24L0,344.24Z" style="fill: rgb(244, 229, 255); fill-opacity: 0.5; stroke-width: 0;"/></g></g><g class="errorbars"/><g class="lines"><path class="js-line" d="M0,344.24L5.31,344.24L10.63,340.66L26.57,340.66L31.88,337.07L69.07,337.07L74.38,333.48L154.08,333.48L159.39,329.9L446.3,329.9L451.62,326.31L526,326.31" style="vector-effect: non-scaling-stroke; fill: none; stroke: rgb(244, 229, 255); stroke-opacity: 1; stroke-width: 2px; opacity: 1;"/></g><g class="points"/><g class="text"/></g><g class="trace scatter trace7d5477" style="stroke-miterlimit: 2;"><g class="fills"/><g class="errorbars"/><g class="lines"><path class="js-line" d="M0,308.38L5.31,304.8L10.63,304.8L15.94,301.21L21.25,301.21L26.57,297.63L31.88,297.63L37.19,294.04L42.51,294.04L47.82,294.04L53.13,290.45L74.38,290.45L79.7,286.87L106.26,286.87L111.58,283.28L159.39,283.28L164.71,279.7L249.72,279.7L255.03,276.11L446.3,276.11L451.62,272.53L526,272.53" style="vector-effect: non-scaling-stroke; fill: none; stroke: rgb(244, 229, 255); stroke-opacity: 1; stroke-width: 2px; opacity: 1;"/></g><g class="points"/><g class="text"/></g><g class="trace scatter traced2659d" style="stroke-miterlimit: 2;"><g class="fills"><g><path class="js-fill" d="M0,272.53L15.94,261.77L21.25,261.77L31.88,254.6L37.19,254.6L42.51,251.01L47.82,251.01L53.13,247.42L58.44,247.42L63.76,247.42L69.07,243.84L79.7,243.84L85.01,240.25L100.95,240.25L106.26,236.67L132.83,236.67L138.14,233.08L170.02,233.08L175.33,229.49L228.46,229.49L233.78,225.91L313.47,225.91L318.79,222.32L472.87,222.32L478.18,218.74L526,218.74L526,297.63L281.6,297.63L276.28,301.21L170.02,301.21L164.71,304.8L111.58,304.8L106.26,308.38L74.38,308.38L69.07,311.97L53.13,311.97L47.82,315.56L31.88,315.56L26.57,319.14L21.25,319.14L15.94,319.14L10.63,322.73L5.31,322.73L0,326.31Z" style="fill: rgb(230, 197, 255); fill-opacity: 0.5; stroke-width: 0;"/></g></g><g class="errorbars"/><g class="lines"><path class="js-line" d="M0,326.31L5.31,322.73L10.63,322.73L15.94,319.14L21.25,319.14L26.57,319.14L31.88,315.56L47.82,315.56L53.13,311.97L69.07,311.97L74.38,308.38L106.26,308.38L111.58,304.8L164.71,304.8L170.02,301.21L276.28,301.21L281.6,297.63L526,297.63" style="vector-effect: non-scaling-stroke; fill: none; stroke: rgb(230, 197, 255); stroke-opacity: 1; stroke-width: 2px; opacity: 1;"/></g><g class="points"/><g class="text"/></g><g class="trace scatter tracee18fb6" style="stroke-miterlimit: 2;"><g class="fills"/><g class="errorbars"/><g class="lines"><path class="js-line" d="M0,272.53L15.94,261.77L21.25,261.77L31.88,254.6L37.19,254.6L42.51,251.01L47.82,251.01L53.13,247.42L58.44,247.42L63.76,247.42L69.07,243.84L79.7,243.84L85.01,240.25L100.95,240.25L106.26,236.67L132.83,236.67L138.14,233.08L170.02,233.08L175.33,229.49L228.46,229.49L233.78,225.91L313.47,225.91L318.79,222.32L472.87,222.32L478.18,218.74L526,218.74" style="vector-effect: non-scaling-stroke; fill: none; stroke: rgb(230, 197, 255); stroke-opacity: 1; stroke-width: 2px; opacity: 1;"/></g><g class="points"/><g class="text"/></g><g class="trace scatter tracecdb3a8" style="stroke-miterlimit: 2;"><g class="fills"><g><path class="js-fill" d="M0,218.74L5.31,215.15L10.63,207.98L47.82,182.88L53.13,182.88L58.44,179.29L63.76,179.29L69.07,175.71L74.38,175.71L79.7,172.12L85.01,172.12L90.32,168.54L95.64,168.54L100.95,168.54L106.26,164.95L116.89,164.95L122.2,161.36L132.83,161.36L138.14,157.78L159.39,157.78L164.71,154.19L191.27,154.19L196.59,150.61L228.46,150.61L233.78,147.02L281.6,147.02L286.91,143.43L355.98,143.43L361.29,139.85L472.87,139.85L478.18,136.26L526,136.26L526,240.25L371.92,240.25L366.61,243.84L270.97,243.84L265.66,247.42L201.9,247.42L196.59,251.01L159.39,251.01L154.08,254.6L127.52,254.6L122.2,258.18L100.95,258.18L95.64,261.77L79.7,261.77L74.38,265.35L69.07,265.35L63.76,265.35L58.44,268.94L53.13,268.94L47.82,272.53L42.51,272.53L37.19,276.11L31.88,276.11L26.57,279.7L21.25,279.7L0,294.04Z" style="fill: rgb(215, 161, 255); fill-opacity: 0.5; stroke-width: 0;"/></g></g><g class="errorbars"/><g class="lines"><path class="js-line" d="M0,294.04L21.25,279.7L26.57,279.7L31.88,276.11L37.19,276.11L42.51,272.53L47.82,272.53L53.13,268.94L58.44,268.94L63.76,265.35L69.07,265.35L74.38,265.35L79.7,261.77L95.64,261.77L100.95,258.18L122.2,258.18L127.52,254.6L154.08,254.6L159.39,251.01L196.59,251.01L201.9,247.42L265.66,247.42L270.97,243.84L366.61,243.84L371.92,240.25L526,240.25" style="vector-effect: non-scaling-stroke; fill: none; stroke: rgb(215, 161, 255); stroke-opacity: 1; stroke-width: 2px; opacity: 1;"/></g><g class="points"/><g class="text"/></g><g class="trace scatter trace88949d" style="stroke-miterlimit: 2;"><g class="fills"/><g class="errorbars"/><g class="lines"><path class="js-line" d="M0,218.74L5.31,215.15L10.63,207.98L47.82,182.88L53.13,182.88L58.44,179.29L63.76,179.29L69.07,175.71L74.38,175.71L79.7,172.12L85.01,172.12L90.32,168.54L95.64,168.54L100.95,168.54L106.26,164.95L116.89,164.95L122.2,161.36L132.83,161.36L138.14,157.78L159.39,157.78L164.71,154.19L191.27,154.19L196.59,150.61L228.46,150.61L233.78,147.02L281.6,147.02L286.91,143.43L355.98,143.43L361.29,139.85L472.87,139.85L478.18,136.26L526,136.26" style="vector-effect: non-scaling-stroke; fill: none; stroke: rgb(215, 161, 255); stroke-opacity: 1; stroke-width: 2px; opacity: 1;"/></g><g class="points"/><g class="text"/></g><g class="trace scatter trace17982d" style="stroke-miterlimit: 2;"><g class="fills"><g><path class="js-fill" d="M0,136.26L26.57,100.4L31.88,96.82L37.19,89.65L42.51,86.06L69.07,68.13L74.38,68.13L85.01,60.96L90.32,60.96L95.64,57.37L100.95,57.37L106.26,53.79L111.58,53.79L116.89,50.2L122.2,50.2L127.52,46.62L132.83,46.62L138.14,46.62L143.45,43.03L148.77,43.03L154.08,39.44L170.02,39.44L175.33,35.86L191.27,35.86L196.59,32.27L212.53,32.27L217.84,28.69L244.4,28.69L249.72,25.1L281.6,25.1L286.91,21.52L324.1,21.52L329.41,17.93L382.55,17.93L387.86,14.34L462.24,14.34L467.56,10.76L526,10.76L526,139.85L446.3,139.85L440.99,143.43L355.98,143.43L350.67,147.02L297.54,147.02L292.22,150.61L249.72,150.61L244.4,154.19L212.53,154.19L207.21,157.78L185.96,157.78L180.65,161.36L159.39,161.36L154.08,164.95L138.14,164.95L132.83,168.54L122.2,168.54L116.89,172.12L111.58,172.12L106.26,172.12L100.95,175.71L95.64,175.71L90.32,179.29L85.01,179.29L79.7,182.88L74.38,182.88L63.76,190.05L58.44,190.05L42.51,200.81L37.19,200.81L31.88,204.39L26.57,211.57L15.94,218.74L10.63,222.32L0,236.67Z" style="fill: rgb(192, 106, 255); fill-opacity: 0.5; stroke-width: 0;"/></g></g><g class="errorbars"/><g class="lines"><path class="js-line" d="M0,236.67L10.63,222.32L15.94,218.74L26.57,211.57L31.88,204.39L37.19,200.81L42.51,200.81L58.44,190.05L63.76,190.05L74.38,182.88L79.7,182.88L85.01,179.29L90.32,179.29L95.64,175.71L100.95,175.71L106.26,172.12L111.58,172.12L116.89,172.12L122.2,168.54L132.83,168.54L138.14,164.95L154.08,164.95L159.39,161.36L180.65,161.36L185.96,157.78L207.21,157.78L212.53,154.19L244.4,154.19L249.72,150.61L292.22,150.61L297.54,147.02L350.67,147.02L355.98,143.43L440.99,143.43L446.3,139.85L526,139.85" style="vector-effect: non-scaling-stroke; fill: none; stroke: rgb(192, 106, 255); stroke-opacity: 1; stroke-width: 2px; opacity: 1;"/></g><g class="points"/><g class="text"/></g><g class="trace scatter trace9b4c52" style="stroke-miterlimit: 2;"><g class="fills"/><g class="errorbars"/><g class="lines"><path class="js-line" d="M0,136.26L26.57,100.4L31.88,96.82L37.19,89.65L42.51,86.06L69.07,68.13L74.38,68.13L85.01,60.96L90.32,60.96L95.64,57.37L100.95,57.37L106.26,53.79L111.58,53.79L116.89,50.2L122.2,50.2L127.52,46.62L132.83,46.62L138.14,46.62L143.45,43.03L148.77,43.03L154.08,39.44L170.02,39.44L175.33,35.86L191.27,35.86L196.59,32.27L212.53,32.27L217.84,28.69L244.4,28.69L249.72,25.1L281.6,25.1L286.91,21.52L324.1,21.52L329.41,17.93L382.55,17.93L387.86,14.34L462.24,14.34L467.56,10.76L526,10.76" style="vector-effect: non-scaling-stroke; fill: none; stroke: rgb(192, 106, 255); stroke-opacity: 1; stroke-width: 2px; opacity: 1;"/></g><g class="points"/><g class="text"/></g><g class="trace scatter trace211fe7" style="stroke-miterlimit: 2;"><g class="fills"><g><path class="js-fill" d="M0,10.76L5.31,0L10.63,0L207.21,0L207.21,0L196.59,0L191.27,3.59L180.65,3.59L175.33,7.17L170.02,7.17L164.71,7.17L159.39,10.76L154.08,10.76L148.77,14.34L143.45,14.34L138.14,17.93L132.83,17.93L127.52,21.52L122.2,21.52L116.89,25.1L111.58,25.1L100.95,32.27L95.64,32.27L58.44,57.37L53.13,60.96L47.82,68.13L42.51,71.72L37.19,78.89L31.88,82.47L26.57,89.65L21.25,96.82L15.94,107.58L10.63,114.75L0,136.26Z" style="fill: rgb(167, 48, 255); fill-opacity: 0.5; stroke-width: 0;"/></g></g><g class="errorbars"/><g class="lines"><path class="js-line" d="M0,136.26L10.63,114.75L15.94,107.58L21.25,96.82L26.57,89.65L31.88,82.47L37.19,78.89L42.51,71.72L47.82,68.13L53.13,60.96L58.44,57.37L95.64,32.27L100.95,32.27L111.58,25.1L116.89,25.1L122.2,21.52L127.52,21.52L132.83,17.93L138.14,17.93L143.45,14.34L148.77,14.34L154.08,10.76L159.39,10.76L164.71,7.17L170.02,7.17L175.33,7.17L180.65,3.59L191.27,3.59L196.59,0L207.21,0" style="vector-effect: non-scaling-stroke; fill: none; stroke: rgb(167, 48, 255); stroke-opacity: 1; stroke-width: 2px; opacity: 1;"/></g><g class="points"/><g class="text"/></g><g class="trace scatter trace5b6701" style="stroke-miterlimit: 2;"><g class="fills"/><g class="errorbars"/><g class="lines"><path class="js-line" d="M0,10.76L5.31,0L10.63,0L207.21,0" style="vector-effect: non-scaling-stroke; fill: none; stroke: rgb(167, 48, 255); stroke-opacity: 1; stroke-width: 2px; opacity: 1;"/></g><g class="points"/><g class="text"/></g></g></g><g class="overplot"/><path class="xlines-above crisp" d="M121,416.5H650" style="fill: none; stroke-width: 3px; stroke: rgb(0, 0, 0); stroke-opacity: 1;"/><path class="ylines-above crisp" d="M122.5,60V415" style="fill: none; stroke-width: 3px; stroke: rgb(0, 0, 0); stroke-opacity: 1;"/><g class="overlines-above"/><g class="xaxislayer-above"><g class="xtick"><text text-anchor="middle" x="0" y="446.8" transform="translate(176.6,0)" style="font-family: sans-serif; font-size: 24px; fill: rgb(0, 0, 0); fill-opacity: 1; white-space: pre;">1000</text></g><g class="xtick"><text text-anchor="middle" x="0" y="446.8" transform="translate(281.8,0)" style="font-family: sans-serif; font-size: 24px; fill: rgb(0, 0, 0); fill-opacity: 1; white-space: pre;">2000</text></g><g class="xtick"><text text-anchor="middle" x="0" y="446.8" transform="translate(387,0)" style="font-family: sans-serif; font-size: 24px; fill: rgb(0, 0, 0); fill-opacity: 1; white-space: pre;">3000</text></g><g class="xtick"><text text-anchor="middle" x="0" y="446.8" transform="translate(492.2,0)" style="font-family: sans-serif; font-size: 24px; fill: rgb(0, 0, 0); fill-opacity: 1; white-space: pre;">4000</text></g><g class="xtick"><text text-anchor="middle" x="0" y="446.8" transform="translate(597.4,0)" style="font-family: sans-serif; font-size: 24px; fill: rgb(0, 0, 0); fill-opacity: 1; white-space: pre;">5000</text></g></g><g class="yaxislayer-above"><g class="ytick"><text text-anchor="end" x="116.2" y="8.399999999999999" transform="translate(0,378.59)" style="font-family: sans-serif; font-size: 24px; fill: rgb(0, 0, 0); fill-opacity: 1; white-space: pre;">0.005</text></g><g class="ytick"><text text-anchor="end" x="116.2" y="8.399999999999999" transform="translate(0,333.08)" style="font-family: sans-serif; font-size: 24px; fill: rgb(0, 0, 0); fill-opacity: 1; white-space: pre;">0.01</text></g><g class="ytick"><text text-anchor="end" x="116.2" y="8.399999999999999" transform="translate(0,287.56)" style="font-family: sans-serif; font-size: 24px; fill: rgb(0, 0, 0); fill-opacity: 1; white-space: pre;">0.015</text></g><g class="ytick"><text text-anchor="end" x="116.2" y="8.399999999999999" transform="translate(0,242.05)" style="font-family: sans-serif; font-size: 24px; fill: rgb(0, 0, 0); fill-opacity: 1; white-space: pre;">0.02</text></g><g class="ytick"><text text-anchor="end" x="116.2" y="8.399999999999999" transform="translate(0,196.54)" style="font-family: sans-serif; font-size: 24px; fill: rgb(0, 0, 0); fill-opacity: 1; white-space: pre;">0.025</text></g><g class="ytick"><text text-anchor="end" x="116.2" y="8.399999999999999" transform="translate(0,151.03)" style="font-family: sans-serif; font-size: 24px; fill: rgb(0, 0, 0); fill-opacity: 1; white-space: pre;">0.03</text></g><g class="ytick"><text text-anchor="end" x="116.2" y="8.399999999999999" transform="translate(0,105.50999999999999)" style="font-family: sans-serif; font-size: 24px; fill: rgb(0, 0, 0); fill-opacity: 1; white-space: pre;">0.035</text></g><g class="ytick"><text text-anchor="end" x="116.2" y="8.399999999999999" transform="translate(0,60)" style="font-family: sans-serif; font-size: 24px; fill: rgb(0, 0, 0); fill-opacity: 1; white-space: pre;">0.04</text></g></g><g class="overaxes-above"/></g></g><g class="polarlayer"/><g class="ternarylayer"/><g class="geolayer"/><g class="funnelarealayer"/><g class="pielayer"/><g class="treemaplayer"/><g class="sunburstlayer"/><g class="glimages"/><defs id="topdefs-bf9909"><g class="clips"/></defs><g class="layer-above"><g class="imagelayer"/><g class="shapelayer"/></g><g class="infolayer"><g class="g-gtitle"/><g class="g-xtitle"><text class="xtitle" x="387" y="488.1125" text-anchor="middle" style="font-family: sans-serif; font-size: 29px; fill: rgb(0, 0, 0); opacity: 1; font-weight: normal; white-space: pre;">ATP (μM)</text></g><g class="g-ytitle" transform="translate(19.0029296875,0)"><text class="ytitle" transform="rotate(-90,12.184375000000003,237.5)" x="12.184375000000003" y="237.5" text-anchor="middle" style="font-family: sans-serif; font-size: 29px; fill: rgb(0, 0, 0); opacity: 1; font-weight: normal; white-space: pre;">λ (min​<tspan style="font-size:70%" dy="-0.6em">-1</tspan><tspan dy="0.42em">​</tspan>)</text></g></g></svg>