<svg class="main-svg" xmlns="http://www.w3.org/2000/svg" xmlns:xlink="http://www.w3.org/1999/xlink" width="700" height="500" style="" viewBox="0 0 700 500"><rect x="0" y="0" width="700" height="500" style="fill: rgb(255, 255, 255); fill-opacity: 1;"/><defs id="defs-3feb90"><g class="clips"><clipPath id="clip3feb90xyplot" class="plotclip"><rect width="526" height="355"/></clipPath><clipPath class="axesclip" id="clip3feb90x"><rect x="124" y="0" width="526" height="500"/></clipPath><clipPath class="axesclip" id="clip3feb90y"><rect x="0" y="60" width="700" height="355"/></clipPath><clipPath class="axesclip" id="clip3feb90xy"><rect x="124" y="60" width="526" height="355"/></clipPath></g><g class="gradients"/></defs><g class="bglayer"/><g class="layer-below"><g class="imagelayer"/><g class="shapelayer"/></g><g class="cartesianlayer"><g class="subplot xy"><g class="layer-subplot"><g class="shapelayer"/><g class="imagelayer"/></g><g class="gridlayer"><g class="x"/><g class="y"/></g><g class="zerolinelayer"/><path class="xlines-below"/><path class="ylines-below"/><g class="overlines-below"/><g class="xaxislayer-below"/><g class="yaxislayer-below"/><g class="overaxes-below"/><g class="plot" transform="translate(124,60)" clip-path="url('#clip3feb90xyplot')"><g class="scatterlayer mlayer"><g class="trace scatter traceaa474d" style="stroke-miterlimit: 2;"><g class="fills"><g><path class="js-fill" d="M53.13,337.25L58.44,337.25L63.76,334.03L74.38,334.03L79.7,330.81L95.64,330.81L100.95,327.58L122.2,327.58L127.52,324.36L154.08,324.36L159.39,321.14L201.9,321.14L207.21,317.92L270.97,317.92L276.28,314.7L382.55,314.7L387.86,311.47L526,311.47L526,337.25L53.13,337.25Z" style="fill: rgb(244, 229, 255); fill-opacity: 0.5; stroke-width: 0;"/></g></g><g class="errorbars"/><g class="lines"><path class="js-line" d="M53.13,337.25L526,337.25" style="vector-effect: non-scaling-stroke; fill: none; stroke: rgb(244, 229, 255); stroke-opacity: 1; stroke-width: 2px; opacity: 1;"/></g><g class="points"/><g class="text"/></g><g class="trace scatter trace9c0e56" style="stroke-miterlimit: 2;"><g class="fills"/><g class="errorbars"/><g class="lines"><path class="js-line" d="M53.13,337.25L58.44,337.25L63.76,334.03L74.38,334.03L79.7,330.81L95.64,330.81L100.95,327.58L122.2,327.58L127.52,324.36L154.08,324.36L159.39,321.14L201.9,321.14L207.21,317.92L270.97,317.92L276.28,314.7L382.55,314.7L387.86,311.47L526,311.47" style="vector-effect: non-scaling-stroke; fill: none; stroke: rgb(244, 229, 255); stroke-opacity: 1; stroke-width: 2px; opacity: 1;"/></g><g class="points"/><g class="text"/></g><g class="trace scatter traceecd0d9" style="stroke-miterlimit: 2;"><g class="fills"><g><path class="js-fill" d="M0,314.7L10.63,301.81L15.94,298.59L42.51,282.48L47.82,282.48L58.44,276.03L63.76,276.03L69.07,272.81L74.38,272.81L79.7,269.59L85.01,269.59L90.32,266.37L95.64,266.37L100.95,266.37L106.26,263.15L116.89,263.15L122.2,259.92L132.83,259.92L138.14,256.7L159.39,256.7L164.71,253.48L191.27,253.48L196.59,250.26L228.46,250.26L233.78,247.04L281.6,247.04L286.91,243.81L350.67,243.81L355.98,240.59L456.93,240.59L462.24,237.37L526,237.37L526,337.25L0,337.25Z" style="fill: rgb(230, 197, 255); fill-opacity: 0.5; stroke-width: 0;"/></g></g><g class="errorbars"/><g class="lines"><path class="js-line" d="M0,337.25L526,337.25" style="vector-effect: non-scaling-stroke; fill: none; stroke: rgb(230, 197, 255); stroke-opacity: 1; stroke-width: 2px; opacity: 1;"/></g><g class="points"/><g class="text"/></g><g class="trace scatter trace9734d2" style="stroke-miterlimit: 2;"><g class="fills"/><g class="errorbars"/><g class="lines"><path class="js-line" d="M0,314.7L10.63,301.81L15.94,298.59L42.51,282.48L47.82,282.48L58.44,276.03L63.76,276.03L69.07,272.81L74.38,272.81L79.7,269.59L85.01,269.59L90.32,266.37L95.64,266.37L100.95,266.37L106.26,263.15L116.89,263.15L122.2,259.92L132.83,259.92L138.14,256.7L159.39,256.7L164.71,253.48L191.27,253.48L196.59,250.26L228.46,250.26L233.78,247.04L281.6,247.04L286.91,243.81L350.67,243.81L355.98,240.59L456.93,240.59L462.24,237.37L526,237.37" style="vector-effect: non-scaling-stroke; fill: none; stroke: rgb(230, 197, 255); stroke-opacity: 1; stroke-width: 2px; opacity: 1;"/></g><g class="points"/><g class="text"/></g><g class="trace scatter trace608eec" style="stroke-miterlimit: 2;"><g class="fills"><g><path class="js-fill" d="M0,240.59L26.57,208.37L31.88,205.15L37.19,201.93L42.51,195.48L63.76,182.6L69.07,182.6L85.01,172.93L90.32,172.93L95.64,169.71L100.95,169.71L106.26,166.49L111.58,166.49L116.89,163.27L122.2,163.27L127.52,160.04L132.83,160.04L138.14,160.04L143.45,156.82L154.08,156.82L159.39,153.6L170.02,153.6L175.33,150.38L191.27,150.38L196.59,147.16L212.53,147.16L217.84,143.93L244.4,143.93L249.72,140.71L281.6,140.71L286.91,137.49L324.1,137.49L329.41,134.27L382.55,134.27L387.86,131.05L456.93,131.05L462.24,127.82L526,127.82L526,259.92L462.24,259.92L456.93,263.15L361.29,263.15L355.98,266.37L297.54,266.37L292.22,269.59L244.4,269.59L239.09,272.81L207.21,272.81L201.9,276.03L175.33,276.03L170.02,279.26L154.08,279.26L148.77,282.48L132.83,282.48L127.52,285.7L116.89,285.7L111.58,288.92L106.26,288.92L100.95,288.92L95.64,292.14L90.32,292.14L85.01,295.36L79.7,295.36L74.38,298.59L69.07,298.59L63.76,301.81L58.44,301.81L47.82,308.25L42.51,308.25L15.94,324.36L10.63,330.81L0,337.25Z" style="fill: rgb(215, 161, 255); fill-opacity: 0.5; stroke-width: 0;"/></g></g><g class="errorbars"/><g class="lines"><path class="js-line" d="M0,337.25L10.63,330.81L15.94,324.36L42.51,308.25L47.82,308.25L58.44,301.81L63.76,301.81L69.07,298.59L74.38,298.59L79.7,295.36L85.01,295.36L90.32,292.14L95.64,292.14L100.95,288.92L106.26,288.92L111.58,288.92L116.89,285.7L127.52,285.7L132.83,282.48L148.77,282.48L154.08,279.26L170.02,279.26L175.33,276.03L201.9,276.03L207.21,272.81L239.09,272.81L244.4,269.59L292.22,269.59L297.54,266.37L355.98,266.37L361.29,263.15L456.93,263.15L462.24,259.92L526,259.92" style="vector-effect: non-scaling-stroke; fill: none; stroke: rgb(215, 161, 255); stroke-opacity: 1; stroke-width: 2px; opacity: 1;"/></g><g class="points"/><g class="text"/></g><g class="trace scatter trace2a2128" style="stroke-miterlimit: 2;"><g class="fills"/><g class="errorbars"/><g class="lines"><path class="js-line" d="M0,240.59L26.57,208.37L31.88,205.15L37.19,201.93L42.51,195.48L63.76,182.6L69.07,182.6L85.01,172.93L90.32,172.93L95.64,169.71L100.95,169.71L106.26,166.49L111.58,166.49L116.89,163.27L122.2,163.27L127.52,160.04L132.83,160.04L138.14,160.04L143.45,156.82L154.08,156.82L159.39,153.6L170.02,153.6L175.33,150.38L191.27,150.38L196.59,147.16L212.53,147.16L217.84,143.93L244.4,143.93L249.72,140.71L281.6,140.71L286.91,137.49L324.1,137.49L329.41,134.27L382.55,134.27L387.86,131.05L456.93,131.05L462.24,127.82L526,127.82" style="vector-effect: non-scaling-stroke; fill: none; stroke: rgb(215, 161, 255); stroke-opacity: 1; stroke-width: 2px; opacity: 1;"/></g><g class="points"/><g class="text"/></g><g class="trace scatter tracee85a73" style="stroke-miterlimit: 2;"><g class="fills"><g><path class="js-fill" d="M0,134.27L5.31,121.38L10.63,111.71L21.25,92.38L26.57,85.94L47.82,60.16L53.13,56.94L58.44,50.5L63.76,47.28L111.58,18.28L116.89,18.28L526,18.28L526,124.6L472.87,124.6L467.56,127.82L409.11,127.82L403.8,131.05L361.29,131.05L355.98,134.27L318.79,134.27L313.47,137.49L281.6,137.49L276.28,140.71L255.03,140.71L249.72,143.93L228.46,143.93L223.15,147.16L207.21,147.16L201.9,150.38L191.27,150.38L185.96,153.6L175.33,153.6L170.02,156.82L159.39,156.82L154.08,160.04L148.77,160.04L143.45,160.04L138.14,163.27L132.83,163.27L127.52,166.49L122.2,166.49L116.89,169.71L111.58,169.71L100.95,176.15L95.64,176.15L79.7,185.82L74.38,185.82L58.44,195.48L53.13,201.93L47.82,205.15L42.51,208.37L37.19,214.82L31.88,218.04L10.63,243.81L5.31,253.48L0,259.92Z" style="fill: rgb(192, 106, 255); fill-opacity: 0.5; stroke-width: 0;"/></g></g><g class="errorbars"/><g class="lines"><path class="js-line" d="M0,259.92L5.31,253.48L10.63,243.81L31.88,218.04L37.19,214.82L42.51,208.37L47.82,205.15L53.13,201.93L58.44,195.48L74.38,185.82L79.7,185.82L95.64,176.15L100.95,176.15L111.58,169.71L116.89,169.71L122.2,166.49L127.52,166.49L132.83,163.27L138.14,163.27L143.45,160.04L148.77,160.04L154.08,160.04L159.39,156.82L170.02,156.82L175.33,153.6L185.96,153.6L191.27,150.38L201.9,150.38L207.21,147.16L223.15,147.16L228.46,143.93L249.72,143.93L255.03,140.71L276.28,140.71L281.6,137.49L313.47,137.49L318.79,134.27L355.98,134.27L361.29,131.05L403.8,131.05L409.11,127.82L467.56,127.82L472.87,124.6L526,124.6" style="vector-effect: non-scaling-stroke; fill: none; stroke: rgb(192, 106, 255); stroke-opacity: 1; stroke-width: 2px; opacity: 1;"/></g><g class="points"/><g class="text"/></g><g class="trace scatter trace4b603f" style="stroke-miterlimit: 2;"><g class="fills"/><g class="errorbars"/><g class="lines"><path class="js-line" d="M0,134.27L5.31,121.38L10.63,111.71L21.25,92.38L26.57,85.94L47.82,60.16L53.13,56.94L58.44,50.5L63.76,47.28L111.58,18.28L116.89,18.28L526,18.28" style="vector-effect: non-scaling-stroke; fill: none; stroke: rgb(192, 106, 255); stroke-opacity: 1; stroke-width: 2px; opacity: 1;"/></g><g class="points"/><g class="text"/></g><g class="trace scatter tracee21735" style="stroke-miterlimit: 2;"><g class="fills"><g><path class="js-fill" d="M0,18.28L58.44,18.28L58.44,21.5L42.51,40.83L37.19,47.28L21.25,76.27L15.94,85.94L10.63,98.83L5.31,114.94L0,127.82Z" style="fill: rgb(167, 48, 255); fill-opacity: 0.5; stroke-width: 0;"/></g></g><g class="errorbars"/><g class="lines"><path class="js-line" d="M0,127.82L5.31,114.94L10.63,98.83L15.94,85.94L21.25,76.27L37.19,47.28L42.51,40.83L58.44,21.5" style="vector-effect: non-scaling-stroke; fill: none; stroke: rgb(167, 48, 255); stroke-opacity: 1; stroke-width: 2px; opacity: 1;"/></g><g class="points"><path class="point" transform="translate(0,127.82)" d="M3,0A3,3 0 1,1 0,-3A3,3 0 0,1 3,0Z" style="opacity: 1; stroke-width: 0px; fill: rgb(167, 48, 255); fill-opacity: 1;"/><path class="point" transform="translate(5.31,114.94)" d="M3,0A3,3 0 1,1 0,-3A3,3 0 0,1 3,0Z" style="opacity: 1; stroke-width: 0px; fill: rgb(167, 48, 255); fill-opacity: 1;"/><path class="point" transform="translate(10.63,98.83)" d="M3,0A3,3 0 1,1 0,-3A3,3 0 0,1 3,0Z" style="opacity: 1; stroke-width: 0px; fill: rgb(167, 48, 255); fill-opacity: 1;"/><path class="point" transform="translate(15.94,85.94)" d="M3,0A3,3 0 1,1 0,-3A3,3 0 0,1 3,0Z" style="opacity: 1; stroke-width: 0px; fill: rgb(167, 48, 255); fill-opacity: 1;"/><path class="point" transform="translate(21.25,76.27)" d="M3,0A3,3 0 1,1 0,-3A3,3 0 0,1 3,0Z" style="opacity: 1; stroke-width: 0px; fill: rgb(167, 48, 255); fill-opacity: 1;"/><path class="point" transform="translate(26.57,66.61)" d="M3,0A3,3 0 1,1 0,-3A3,3 0 0,1 3,0Z" style="opacity: 1; stroke-width: 0px; fill: rgb(167, 48, 255); fill-opacity: 1;"/><path class="point" transform="translate(31.88,56.94)" d="M3,0A3,3 0 1,1 0,-3A3,3 0 0,1 3,0Z" style="opacity: 1; stroke-width: 0px; fill: rgb(167, 48, 255); fill-opacity: 1;"/><path class="point" transform="translate(37.19,47.28)" d="M3,0A3,3 0 1,1 0,-3A3,3 0 0,1 3,0Z" style="opacity: 1; stroke-width: 0px; fill: rgb(167, 48, 255); fill-opacity: 1;"/><path class="point" transform="translate(42.51,40.83)" d="M3,0A3,3 0 1,1 0,-3A3,3 0 0,1 3,0Z" style="opacity: 1; stroke-width: 0px; fill: rgb(167, 48, 255); fill-opacity: 1;"/><path class="point" transform="translate(47.82,34.39)" d="M3,0A3,3 0 1,1 0,-3A3,3 0 0,1 3,0Z" style="opacity: 1; stroke-width: 0px; fill: rgb(167, 48, 255); fill-opacity: 1;"/><path class="point" transform="translate(53.13,27.94)" d="M3,0A3,3 0 1,1 0,-3A3,3 0 0,1 3,0Z" style="opacity: 1; stroke-width: 0px; fill: rgb(167, 48, 255); fill-opacity: 1;"/><path class="point" transform="translate(58.44,21.5)" d="M3,0A3,3 0 1,1 0,-3A3,3 0 0,1 3,0Z" style="opacity: 1; stroke-width: 0px; fill: rgb(167, 48, 255); fill-opacity: 1;"/></g><g class="text"/></g><g class="trace scatter trace36e367" style="stroke-miterlimit: 2;"><g class="fills"/><g class="errorbars"/><g class="lines"><path class="js-line" d="M0,18.28L58.44,18.28" style="vector-effect: non-scaling-stroke; fill: none; stroke: rgb(167, 48, 255); stroke-opacity: 1; stroke-width: 2px; opacity: 1;"/></g><g class="points"/><g class="text"/></g></g></g><g class="overplot"/><path class="xlines-above crisp" d="M121,416.5H650" style="fill: none; stroke-width: 3px; stroke: rgb(0, 0, 0); stroke-opacity: 1;"/><path class="ylines-above crisp" d="M122.5,60V415" style="fill: none; stroke-width: 3px; stroke: rgb(0, 0, 0); stroke-opacity: 1;"/><g class="overlines-above"/><g class="xaxislayer-above"><g class="xtick"><text text-anchor="middle" x="0" y="446.8" transform="translate(176.6,0)" style="font-family: sans-serif; font-size: 24px; fill: rgb(0, 0, 0); fill-opacity: 1; white-space: pre;">1000</text></g><g class="xtick"><text text-anchor="middle" x="0" y="446.8" transform="translate(281.8,0)" style="font-family: sans-serif; font-size: 24px; fill: rgb(0, 0, 0); fill-opacity: 1; white-space: pre;">2000</text></g><g class="xtick"><text text-anchor="middle" x="0" y="446.8" transform="translate(387,0)" style="font-family: sans-serif; font-size: 24px; fill: rgb(0, 0, 0); fill-opacity: 1; white-space: pre;">3000</text></g><g class="xtick"><text text-anchor="middle" x="0" y="446.8" transform="translate(492.2,0)" style="font-family: sans-serif; font-size: 24px; fill: rgb(0, 0, 0); fill-opacity: 1; white-space: pre;">4000</text></g><g class="xtick"><text text-anchor="middle" x="0" y="446.8" transform="translate(597.4,0)" style="font-family: sans-serif; font-size: 24px; fill: rgb(0, 0, 0); fill-opacity: 1; white-space: pre;">5000</text></g></g><g class="yaxislayer-above"><g class="ytick"><text text-anchor="end" x="116.2" y="8.399999999999999" transform="translate(0,397.25)" style="font-family: sans-serif; font-size: 24px; fill: rgb(0, 0, 0); fill-opacity: 1; white-space: pre;">0.01</text></g><g class="ytick"><text text-anchor="end" x="116.2" y="8.399999999999999" transform="translate(0,344.09)" style="font-family: sans-serif; font-size: 24px; fill: rgb(0, 0, 0); fill-opacity: 1; white-space: pre;">0.015</text></g><g class="ytick"><text text-anchor="end" x="116.2" y="8.399999999999999" transform="translate(0,290.93)" style="font-family: sans-serif; font-size: 24px; fill: rgb(0, 0, 0); fill-opacity: 1; white-space: pre;">0.02</text></g><g class="ytick"><text text-anchor="end" x="116.2" y="8.399999999999999" transform="translate(0,237.76)" style="font-family: sans-serif; font-size: 24px; fill: rgb(0, 0, 0); fill-opacity: 1; white-space: pre;">0.025</text></g><g class="ytick"><text text-anchor="end" x="116.2" y="8.399999999999999" transform="translate(0,184.6)" style="font-family: sans-serif; font-size: 24px; fill: rgb(0, 0, 0); fill-opacity: 1; white-space: pre;">0.03</text></g><g class="ytick"><text text-anchor="end" x="116.2" y="8.399999999999999" transform="translate(0,131.44)" style="font-family: sans-serif; font-size: 24px; fill: rgb(0, 0, 0); fill-opacity: 1; white-space: pre;">0.035</text></g><g class="ytick"><text text-anchor="end" x="116.2" y="8.399999999999999" transform="translate(0,78.28)" style="font-family: sans-serif; font-size: 24px; fill: rgb(0, 0, 0); fill-opacity: 1; white-space: pre;">0.04</text></g></g><g class="overaxes-above"/></g></g><g class="polarlayer"/><g class="ternarylayer"/><g class="geolayer"/><g class="funnelarealayer"/><g class="pielayer"/><g class="treemaplayer"/><g class="sunburstlayer"/><g class="glimages"/><defs id="topdefs-3feb90"><g class="clips"/></defs><g class="layer-above"><g class="imagelayer"/><g class="shapelayer"/></g><g class="infolayer"><g class="g-gtitle"/><g class="g-xtitle"><text class="xtitle" x="387" y="488.1125" text-anchor="middle" style="font-family: sans-serif; font-size: 29px; fill: rgb(0, 0, 0); opacity: 1; font-weight: normal; white-space: pre;">ATP (μM)</text></g><g class="g-ytitle" transform="translate(19.0029296875,0)"><text class="ytitle" transform="rotate(-90,12.184375000000003,237.5)" x="12.184375000000003" y="237.5" text-anchor="middle" style="font-family: sans-serif; font-size: 29px; fill: rgb(0, 0, 0); opacity: 1; font-weight: normal; white-space: pre;">λ (min​<tspan style="font-size:70%" dy="-0.6em">-1</tspan><tspan dy="0.42em">​</tspan>)</text></g></g></svg>