<svg class="main-svg" xmlns="http://www.w3.org/2000/svg" xmlns:xlink="http://www.w3.org/1999/xlink" width="700" height="500" style="" viewBox="0 0 700 500"><rect x="0" y="0" width="700" height="500" style="fill: rgb(255, 255, 255); fill-opacity: 1;"/><defs id="defs-d881b0"><g class="clips"><clipPath id="clipd881b0xyplot" class="plotclip"><rect width="498" height="385"/></clipPath><clipPath class="axesclip" id="clipd881b0x"><rect x="70" y="0" width="498" height="500"/></clipPath><clipPath class="axesclip" id="clipd881b0y"><rect x="0" y="60" width="700" height="385"/></clipPath><clipPath class="axesclip" id="clipd881b0xy"><rect x="70" y="60" width="498" height="385"/></clipPath></g><g class="gradients"/></defs><g class="bglayer"/><g class="layer-below"><g class="imagelayer"/><g class="shapelayer"/></g><g class="cartesianlayer"><g class="subplot xy"><g class="layer-subplot"><g class="shapelayer"/><g class="imagelayer"/></g><g class="gridlayer"><g class="x"/><g class="y"/></g><g class="zerolinelayer"/><path class="xlines-below"/><path class="ylines-below"/><g class="overlines-below"/><g class="xaxislayer-below"/><g class="yaxislayer-below"/><g class="overaxes-below"/><g class="plot" transform="translate(70,60)" clip-path="url('#clipd881b0xyplot')"><g class="scatterlayer mlayer"><g class="trace scatter tracee8ede3" style="stroke-miterlimit: 2; opacity: 1;"><g class="fills"/><g class="errorbars"/><g class="lines"><path class="js-line" d="M0.09,231.34L2.09,197.8L4.09,189.45L8.09,180.16L10.09,177.34L18.09,168.7L20.09,167.15L28.09,162.08L30.08,161.02L38.08,157L40.08,156.05L54.08,150.48L56.08,149.72L94.07,138.52L96.07,138.03L124.07,131.32L126.07,130.88L228.05,110.07L230.05,109.67L324.03,90.61L326.03,90.18L378.02,78.26L380.02,77.76L392.02,74.7" style="vector-effect: non-scaling-stroke; fill: none; stroke: rgb(128, 0, 128); stroke-opacity: 1; stroke-width: 2px; opacity: 1;"/></g><g class="points"/><g class="text"/></g><g class="trace scatter trace551942" style="stroke-miterlimit: 2; opacity: 1;"><g class="fills"/><g class="errorbars"/><g class="lines"><path class="js-line" d="M0.09,327.75L2.09,323.56L4.09,326.33L8.09,317.19L10.09,314.12L12.09,315.51L14.09,312.87L20.09,307.14L22.09,305.7L30.08,301.32L32.08,300.47L38.08,298.31L40.08,296.46L44.08,295.47L46.08,293.99L48.08,293.6L50.08,292.33L52.08,292.02L54.08,290.9L58.08,288.92L60.08,288.75L76.08,282.37L78.08,281.9L86.07,279.08L88.07,278.38L122.07,268.11L124.07,267.5L170.06,255.06L172.06,254.54L280.04,228.24L282.04,227.76L362.02,207.8L364.02,207.26L402.02,196.24L404.02,195.6L428.01,187.18" style="vector-effect: non-scaling-stroke; fill: none; stroke: rgb(221, 160, 221); stroke-opacity: 1; stroke-width: 2px; opacity: 1;"/></g><g class="points"/><g class="text"/></g><g class="trace scatter tracee221ae" style="stroke-miterlimit: 2; opacity: 1;"><g class="fills"/><g class="errorbars"/><g class="lines"><path class="js-line" d="M0.09,249.22L2.09,242.11L4.09,243.54L6.09,244.62L8.09,238.22L10.09,239.02L12.09,234.07L16.09,235.34L18.09,231.27L20.09,231.8L22.09,228.39L26.09,229.33L28.09,226.37L32.08,227.19L34.08,224.59L36.08,224.96L38.08,222.65L42.08,223.34L44.08,221.25L46.08,221.58L48.08,219.68L50.08,219.99L52.08,218.25L56.08,218.83L58.08,217.23L60.08,217.5L62.08,216.01L64.08,216.28L66.08,214.89L68.08,215.14L70.08,213.85L74.08,214.33L76.08,213.11L78.08,213.34L80.08,212.2L82.08,212.42L84.07,211.33L86.07,211.55L88.07,210.52L90.07,210.73L92.07,209.75L94.07,208.82L96.07,209.02L98.07,208.14L100.07,208.33L102.07,207.48L104.07,207.67L106.07,206.86L108.07,207.04L112.07,205.52L114.07,205.69L116.07,204.98L118.07,205.15L122.07,203.79L124.07,203.95L126.07,203.31L128.07,203.47L132.07,202.24L134.07,202.4L142.06,200.85L144.06,200.32L148.06,199.95L150.06,199.45L154.06,199.1L156.06,198.62L160.06,198.29L162.06,197.84L172.06,196.27L174.06,196.39L192.06,193.54L194.06,193.65L216.05,190.63L218.05,190.35L248.05,186.9L250.04,186.67L256.04,185.71L258.04,185.49L388.02,171.18L390.02,170.91L474,159.82L476,159.44L492,155.65L494,154.99L498,152.58" style="vector-effect: non-scaling-stroke; fill: none; stroke: rgb(0, 128, 0); stroke-opacity: 1; stroke-width: 2px; opacity: 1;"/></g><g class="points"/><g class="text"/></g><g class="trace scatter trace5fdfe4" style="stroke-miterlimit: 2; opacity: 1;"><g class="fills"/><g class="errorbars"/><g class="lines"><path class="js-line" d="M0.09,238.93L2.09,204.88L4.09,198.05L8.09,189.74L10.09,187.04L16.09,180.71L18.09,179.56L24.09,175.62L26.09,174.36L50.08,164.92L52.08,164.5L70.08,159.61L72.08,159.15L108.07,151.92L110.07,151.66L138.07,147.17L140.06,146.9L164.06,143.57L166.06,143.3L216.05,137.27L218.05,137.04L304.04,128.3L306.03,128.11L414.02,118.06L416.01,117.87L464.01,112.83L466.01,112.59L490,108.99L492,108.56L498,106.58" style="vector-effect: non-scaling-stroke; fill: none; stroke: rgb(255, 215, 0); stroke-opacity: 1; stroke-width: 2px; opacity: 1;"/></g><g class="points"/><g class="text"/></g><g class="trace scatter trace0649b3" style="stroke-miterlimit: 2; opacity: 1;"><g class="fills"/><g class="errorbars"/><g class="lines"><path class="js-line" d="M0.09,133.37L2.09,95.64L4.09,88.08L8.09,80.5L10.09,78.2L16.09,73.38L18.09,72.12L28.09,67.86L30.08,67.25L46.08,63.18L48.08,62.84L80.08,58.11L82.08,57.97L104.07,55.59L106.07,55.47L126.07,53.65L128.07,53.54L148.06,51.85L150.06,51.74L172.06,50.06L174.06,49.86L202.05,47.73L204.05,47.54L228.05,45.76L230.05,45.59L396.02,31.12L398.02,30.88L452.01,25L454.01,24.77L498,19.25" style="vector-effect: non-scaling-stroke; fill: none; stroke: rgb(255, 140, 0); stroke-opacity: 1; stroke-width: 2px; opacity: 1;"/></g><g class="points"/><g class="text"/></g><g class="trace scatter traceec8611" style="stroke-miterlimit: 2; opacity: 1;"><g class="fills"/><g class="errorbars"/><g class="lines"><path class="js-line" d="M0.09,170.35L2.09,170.33L4.09,160.01L6.09,159.99L8.09,152.66L14.09,152.59L16.09,146.9L22.09,146.82L24.09,142.16L30.08,142.08L32.08,138.14L38.08,138.06L40.08,134.64L48.08,134.53L50.08,131.51L56.08,131.43L58.08,128.72L64.08,128.63L66.08,126.18L72.08,126.09L74.08,123.85L80.08,123.76L82.08,121.69L86.07,121.63L88.07,119.72L94.07,119.62L96.07,117.83L100.07,117.77L102.07,116.09L108.07,115.99L110.07,114.42L114.07,114.35L116.07,112.86L120.07,112.79L122.07,111.38L126.07,111.31L128.07,109.97L132.07,109.89L134.07,108.62L138.07,108.54L140.06,107.32L144.06,107.25L146.06,106.08L150.06,106L152.06,104.88L154.06,104.84L156.06,103.76L160.06,103.68L162.06,102.64L164.06,102.6L166.06,101.6L170.06,101.52L172.06,100.55L174.06,100.51L176.06,99.57L180.06,99.49L182.06,98.58L184.06,98.54L186.06,97.66L188.06,97.61L190.06,96.76L192.06,96.72L194.06,95.89L202.05,94.94L204.05,94.16L210.05,93.3L212.05,92.55L218.05,91.72L220.05,91.01L226.05,89.58L228.05,89.53L234.05,88.16L236.05,88.11L244.05,86.17L246.05,86.11L254.04,84.28L256.04,84.22L266.04,81.92L268.04,81.85L278.04,79.68L280.04,79.62L294.04,76.59L296.04,76.52L318.03,71.94L320.03,71.86L364.02,63.13L366.02,62.75L372.02,61.39L374.02,61.02L400.02,55.66L402.02,55.09L418.01,51.63L420.01,51.08L432.01,48.34L434.01,47.79L446.01,44.82L448.01,44.26L478,35.3L480,34.58L490,30.27L492,29.22L496,26.36L498,24.26" style="vector-effect: non-scaling-stroke; fill: none; stroke: rgb(255, 0, 0); stroke-opacity: 1; stroke-width: 2px; opacity: 1;"/></g><g class="points"/><g class="text"/></g><g class="trace scatter trace283828" style="stroke-miterlimit: 2; opacity: 1;"><g class="fills"/><g class="errorbars"/><g class="lines"><path class="js-line" d="M306,365.75L308,365.75L310,348.15L312,348.15L314,337.86L316,337.86L318,330.55L320,324.89L322,324.89L326,316.35L328,316.35L332,309.97L334,309.97L340,302.66L342,300.63L346,297L348,297L352,293.82L354,291L376,276.98L378,276.22L384,272.74L386,271.47L404,261.38L406,260.56L422,251.79L424,250.95L462,229.64L464,228.36L480,217.17L482,215.55L490,207.87L492,205.5L496,199.18L498,193.27" style="vector-effect: non-scaling-stroke; fill: none; stroke: rgb(221, 160, 221); stroke-opacity: 1; stroke-width: 2px; opacity: 1; stroke-dasharray: 3px, 3px;"/></g><g class="points"/><g class="text"/></g><g class="trace scatter trace5d0a36" style="stroke-miterlimit: 2; opacity: 1;"><g class="fills"/><g class="errorbars"/><g class="lines"><path class="js-line" d="M474,298.44L476,266.12L478,251.48L482,234.45L484,228.38L490,213.69L492,209.27L496,199.9L498,192.98" style="vector-effect: non-scaling-stroke; fill: none; stroke: rgb(0, 128, 0); stroke-opacity: 1; stroke-width: 2px; opacity: 1; stroke-dasharray: 3px, 3px;"/></g><g class="points"/><g class="text"/></g><g class="trace scatter trace51a1e6" style="stroke-miterlimit: 2; opacity: 1;"><g class="fills"/><g class="errorbars"/><g class="lines"><path class="js-line" d="M476,312.64L478,266.12L480,249.82L484,231.82L486,225.35L494,205.26L496,200.13L498,192.98" style="vector-effect: non-scaling-stroke; fill: none; stroke: rgb(255, 215, 0); stroke-opacity: 1; stroke-width: 2px; opacity: 1; stroke-dasharray: 3px, 3px;"/></g><g class="points"/><g class="text"/></g><g class="trace scatter trace72f44d" style="stroke-miterlimit: 2; opacity: 1;"><g class="fills"/><g class="errorbars"/><g class="lines"><path class="js-line" d="M486,286.13L488,231.9L490,214.01L494,192.15L496,182.84L498,171.59" style="vector-effect: non-scaling-stroke; fill: none; stroke: rgb(255, 0, 0); stroke-opacity: 1; stroke-width: 2px; opacity: 1; stroke-dasharray: 3px, 3px;"/></g><g class="points"/><g class="text"/></g></g></g><g class="overplot"/><path class="xlines-above crisp" d="M69,445.5H569" style="fill: none; stroke-width: 1px; stroke: rgb(0, 0, 0); stroke-opacity: 1;"/><path class="ylines-above crisp" d="M69.5,60V445M568.5,60V445" style="fill: none; stroke-width: 1px; stroke: rgb(0, 0, 0); stroke-opacity: 1;"/><g class="overlines-above"/><g class="xaxislayer-above"><g class="xtick"><text text-anchor="middle" x="0" y="460.4" transform="translate(129.2,0)" style="font-family: 'Open Sans', verdana, arial, sans-serif; font-size: 12px; fill: rgb(42, 63, 95); fill-opacity: 1; white-space: pre;">0.8</text></g><g class="xtick"><text text-anchor="middle" x="0" y="460.4" transform="translate(201.28,0)" style="font-family: 'Open Sans', verdana, arial, sans-serif; font-size: 12px; fill: rgb(42, 63, 95); fill-opacity: 1; white-space: pre;">1</text></g><g class="xtick"><text text-anchor="middle" x="0" y="460.4" transform="translate(273.36,0)" style="font-family: 'Open Sans', verdana, arial, sans-serif; font-size: 12px; fill: rgb(42, 63, 95); fill-opacity: 1; white-space: pre;">1.2</text></g><g class="xtick"><text text-anchor="middle" x="0" y="460.4" transform="translate(345.45,0)" style="font-family: 'Open Sans', verdana, arial, sans-serif; font-size: 12px; fill: rgb(42, 63, 95); fill-opacity: 1; white-space: pre;">1.4</text></g><g class="xtick"><text text-anchor="middle" x="0" y="460.4" transform="translate(417.53,0)" style="font-family: 'Open Sans', verdana, arial, sans-serif; font-size: 12px; fill: rgb(42, 63, 95); fill-opacity: 1; white-space: pre;">1.6</text></g><g class="xtick"><text text-anchor="middle" x="0" y="460.4" transform="translate(489.61,0)" style="font-family: 'Open Sans', verdana, arial, sans-serif; font-size: 12px; fill: rgb(42, 63, 95); fill-opacity: 1; white-space: pre;">1.8</text></g><g class="xtick"><text text-anchor="middle" x="0" y="460.4" transform="translate(561.69,0)" style="font-family: 'Open Sans', verdana, arial, sans-serif; font-size: 12px; fill: rgb(42, 63, 95); fill-opacity: 1; white-space: pre;">2</text></g></g><g class="yaxislayer-above"><g class="ytick"><text text-anchor="end" x="66.6" y="3.15" transform="translate(0,443.38)" style="font-family: 'Open Sans', verdana, arial, sans-serif; font-size: 9px; fill: rgb(42, 63, 95); fill-opacity: 1; white-space: pre;">5</text></g><g class="ytick"><text text-anchor="end" x="66.6" y="4.199999999999999" transform="translate(0,425.78)" style="font-family: 'Open Sans', verdana, arial, sans-serif; font-size: 12px; fill: rgb(42, 63, 95); fill-opacity: 1; white-space: pre;">0.001</text></g><g class="ytick"><text text-anchor="end" x="66.6" y="3.15" transform="translate(0,408.18)" style="font-family: 'Open Sans', verdana, arial, sans-serif; font-size: 9px; fill: rgb(42, 63, 95); fill-opacity: 1; white-space: pre;">2</text></g><g class="ytick"><text text-anchor="end" x="66.6" y="3.15" transform="translate(0,384.92)" style="font-family: 'Open Sans', verdana, arial, sans-serif; font-size: 9px; fill: rgb(42, 63, 95); fill-opacity: 1; white-space: pre;">5</text></g><g class="ytick"><text text-anchor="end" x="66.6" y="4.199999999999999" transform="translate(0,367.32)" style="font-family: 'Open Sans', verdana, arial, sans-serif; font-size: 12px; fill: rgb(42, 63, 95); fill-opacity: 1; white-space: pre;">0.01</text></g><g class="ytick"><text text-anchor="end" x="66.6" y="3.15" transform="translate(0,349.72)" style="font-family: 'Open Sans', verdana, arial, sans-serif; font-size: 9px; fill: rgb(42, 63, 95); fill-opacity: 1; white-space: pre;">2</text></g><g class="ytick"><text text-anchor="end" x="66.6" y="3.15" transform="translate(0,326.46)" style="font-family: 'Open Sans', verdana, arial, sans-serif; font-size: 9px; fill: rgb(42, 63, 95); fill-opacity: 1; white-space: pre;">5</text></g><g class="ytick"><text text-anchor="end" x="66.6" y="4.199999999999999" transform="translate(0,308.86)" style="font-family: 'Open Sans', verdana, arial, sans-serif; font-size: 12px; fill: rgb(42, 63, 95); fill-opacity: 1; white-space: pre;">0.1</text></g><g class="ytick"><text text-anchor="end" x="66.6" y="3.15" transform="translate(0,291.26)" style="font-family: 'Open Sans', verdana, arial, sans-serif; font-size: 9px; fill: rgb(42, 63, 95); fill-opacity: 1; white-space: pre;">2</text></g><g class="ytick"><text text-anchor="end" x="66.6" y="3.15" transform="translate(0,268)" style="font-family: 'Open Sans', verdana, arial, sans-serif; font-size: 9px; fill: rgb(42, 63, 95); fill-opacity: 1; white-space: pre;">5</text></g><g class="ytick"><text text-anchor="end" x="66.6" y="4.199999999999999" transform="translate(0,250.4)" style="font-family: 'Open Sans', verdana, arial, sans-serif; font-size: 12px; fill: rgb(42, 63, 95); fill-opacity: 1; white-space: pre;">1</text></g><g class="ytick"><text text-anchor="end" x="66.6" y="3.15" transform="translate(0,232.8)" style="font-family: 'Open Sans', verdana, arial, sans-serif; font-size: 9px; fill: rgb(42, 63, 95); fill-opacity: 1; white-space: pre;">2</text></g><g class="ytick"><text text-anchor="end" x="66.6" y="3.15" transform="translate(0,209.54)" style="font-family: 'Open Sans', verdana, arial, sans-serif; font-size: 9px; fill: rgb(42, 63, 95); fill-opacity: 1; white-space: pre;">5</text></g><g class="ytick"><text text-anchor="end" x="66.6" y="4.199999999999999" transform="translate(0,191.94)" style="font-family: 'Open Sans', verdana, arial, sans-serif; font-size: 12px; fill: rgb(42, 63, 95); fill-opacity: 1; white-space: pre;">10</text></g><g class="ytick"><text text-anchor="end" x="66.6" y="3.15" transform="translate(0,174.35)" style="font-family: 'Open Sans', verdana, arial, sans-serif; font-size: 9px; fill: rgb(42, 63, 95); fill-opacity: 1; white-space: pre;">2</text></g><g class="ytick"><text text-anchor="end" x="66.6" y="3.15" transform="translate(0,151.07999999999998)" style="font-family: 'Open Sans', verdana, arial, sans-serif; font-size: 9px; fill: rgb(42, 63, 95); fill-opacity: 1; white-space: pre;">5</text></g><g class="ytick"><text text-anchor="end" x="66.6" y="4.199999999999999" transform="translate(0,133.48000000000002)" style="font-family: 'Open Sans', verdana, arial, sans-serif; font-size: 12px; fill: rgb(42, 63, 95); fill-opacity: 1; white-space: pre;">100</text></g><g class="ytick"><text text-anchor="end" x="66.6" y="3.15" transform="translate(0,115.89)" style="font-family: 'Open Sans', verdana, arial, sans-serif; font-size: 9px; fill: rgb(42, 63, 95); fill-opacity: 1; white-space: pre;">2</text></g><g class="ytick"><text text-anchor="end" x="66.6" y="3.15" transform="translate(0,92.62)" style="font-family: 'Open Sans', verdana, arial, sans-serif; font-size: 9px; fill: rgb(42, 63, 95); fill-opacity: 1; white-space: pre;">5</text></g><g class="ytick"><text text-anchor="end" x="66.6" y="4.199999999999999" transform="translate(0,75.03)" style="font-family: 'Open Sans', verdana, arial, sans-serif; font-size: 12px; fill: rgb(42, 63, 95); fill-opacity: 1; white-space: pre;">1000</text></g></g><g class="overaxes-above"/></g></g><g class="polarlayer"/><g class="ternarylayer"/><g class="geolayer"/><g class="funnelarealayer"/><g class="pielayer"/><g class="treemaplayer"/><g class="sunburstlayer"/><g class="glimages"/><defs id="topdefs-d881b0"><g class="clips"/><clipPath id="legendd881b0"><rect width="110" height="250" x="0" y="0"/></clipPath></defs><g class="layer-above"><g class="imagelayer"/><g class="shapelayer"/></g><g class="infolayer"><g class="legend" pointer-events="all" transform="translate(577.96,60)"><rect class="bg" shape-rendering="crispEdges" width="110" height="250" x="0" y="0" style="stroke: rgb(68, 68, 68); stroke-opacity: 1; fill: rgb(255, 255, 255); fill-opacity: 1; stroke-width: 0px;"/><g class="scrollbox" transform="" clip-path="url('#legendd881b0')"><g class="groups" transform=""><g class="traces" transform="translate(0,14.5)" style="opacity: 1;"><text class="legendtext" text-anchor="start" x="40" y="4.680000000000001" style="font-family: 'Open Sans', verdana, arial, sans-serif; font-size: 12px; fill: rgb(42, 63, 95); fill-opacity: 1; white-space: pre;">RtcB mRNA</text><g class="layers" style="opacity: 1;"><g class="legendfill"/><g class="legendlines"><path class="js-line" d="M5,0h30" style="fill: none; stroke: rgb(128, 0, 128); stroke-opacity: 1; stroke-width: 2px;"/></g><g class="legendsymbols"><g class="legendpoints"/></g></g><rect class="legendtoggle" x="0" y="-9.5" width="104.671875" height="19" style="fill: rgb(0, 0, 0); fill-opacity: 0;"/></g></g><g class="groups" transform="translate(0,10)"><g class="traces" transform="translate(0,33.5)" style="opacity: 1;"><text class="legendtext" text-anchor="start" x="40" y="4.680000000000001" style="font-family: 'Open Sans', verdana, arial, sans-serif; font-size: 12px; fill: rgb(42, 63, 95); fill-opacity: 1; white-space: pre;">RtcB</text><g class="layers" style="opacity: 1;"><g class="legendfill"/><g class="legendlines"><path class="js-line" d="M5,0h30" style="fill: none; stroke: rgb(221, 160, 221); stroke-opacity: 1; stroke-width: 2px;"/></g><g class="legendsymbols"><g class="legendpoints"/></g></g><rect class="legendtoggle" x="0" y="-9.5" width="104.671875" height="19" style="fill: rgb(0, 0, 0); fill-opacity: 0;"/></g><g class="traces" transform="translate(0,52.5)" style="opacity: 1;"><text class="legendtext" text-anchor="start" x="40" y="4.680000000000001" style="font-family: 'Open Sans', verdana, arial, sans-serif; font-size: 12px; fill: rgb(42, 63, 95); fill-opacity: 1; white-space: pre;">RtcB</text><g class="layers" style="opacity: 1;"><g class="legendfill"/><g class="legendlines"><path class="js-line" d="M5,0h30" style="fill: none; stroke: rgb(221, 160, 221); stroke-opacity: 1; stroke-dasharray: 3px, 3px; stroke-width: 2px;"/></g><g class="legendsymbols"><g class="legendpoints"/></g></g><rect class="legendtoggle" x="0" y="-9.5" width="104.671875" height="19" style="fill: rgb(0, 0, 0); fill-opacity: 0;"/></g></g><g class="groups" transform="translate(0,20)"><g class="traces" transform="translate(0,71.5)" style="opacity: 1;"><text class="legendtext" text-anchor="start" x="40" y="4.680000000000001" style="font-family: 'Open Sans', verdana, arial, sans-serif; font-size: 12px; fill: rgb(42, 63, 95); fill-opacity: 1; white-space: pre;">RtcR</text><g class="layers" style="opacity: 1;"><g class="legendfill"/><g class="legendlines"><path class="js-line" d="M5,0h30" style="fill: none; stroke: rgb(0, 128, 0); stroke-opacity: 1; stroke-width: 2px;"/></g><g class="legendsymbols"><g class="legendpoints"/></g></g><rect class="legendtoggle" x="0" y="-9.5" width="104.671875" height="19" style="fill: rgb(0, 0, 0); fill-opacity: 0;"/></g><g class="traces" transform="translate(0,90.5)" style="opacity: 1;"><text class="legendtext" text-anchor="start" x="40" y="4.680000000000001" style="font-family: 'Open Sans', verdana, arial, sans-serif; font-size: 12px; fill: rgb(42, 63, 95); fill-opacity: 1; white-space: pre;">RtcR</text><g class="layers" style="opacity: 1;"><g class="legendfill"/><g class="legendlines"><path class="js-line" d="M5,0h30" style="fill: none; stroke: rgb(0, 128, 0); stroke-opacity: 1; stroke-dasharray: 3px, 3px; stroke-width: 2px;"/></g><g class="legendsymbols"><g class="legendpoints"/></g></g><rect class="legendtoggle" x="0" y="-9.5" width="104.671875" height="19" style="fill: rgb(0, 0, 0); fill-opacity: 0;"/></g></g><g class="groups" transform="translate(0,30)"><g class="traces" transform="translate(0,109.5)" style="opacity: 1;"><text class="legendtext" text-anchor="start" x="40" y="4.680000000000001" style="font-family: 'Open Sans', verdana, arial, sans-serif; font-size: 12px; fill: rgb(42, 63, 95); fill-opacity: 1; white-space: pre;">Rh</text><g class="layers" style="opacity: 1;"><g class="legendfill"/><g class="legendlines"><path class="js-line" d="M5,0h30" style="fill: none; stroke: rgb(255, 215, 0); stroke-opacity: 1; stroke-width: 2px;"/></g><g class="legendsymbols"><g class="legendpoints"/></g></g><rect class="legendtoggle" x="0" y="-9.5" width="104.671875" height="19" style="fill: rgb(0, 0, 0); fill-opacity: 0;"/></g><g class="traces" transform="translate(0,128.5)" style="opacity: 1;"><text class="legendtext" text-anchor="start" x="40" y="4.680000000000001" style="font-family: 'Open Sans', verdana, arial, sans-serif; font-size: 12px; fill: rgb(42, 63, 95); fill-opacity: 1; white-space: pre;">Rh</text><g class="layers" style="opacity: 1;"><g class="legendfill"/><g class="legendlines"><path class="js-line" d="M5,0h30" style="fill: none; stroke: rgb(255, 215, 0); stroke-opacity: 1; stroke-dasharray: 3px, 3px; stroke-width: 2px;"/></g><g class="legendsymbols"><g class="legendpoints"/></g></g><rect class="legendtoggle" x="0" y="-9.5" width="104.671875" height="19" style="fill: rgb(0, 0, 0); fill-opacity: 0;"/></g></g><g class="groups" transform="translate(0,40)"><g class="traces" transform="translate(0,147.5)" style="opacity: 1;"><text class="legendtext" text-anchor="start" x="40" y="4.680000000000001" style="font-family: 'Open Sans', verdana, arial, sans-serif; font-size: 12px; fill: rgb(42, 63, 95); fill-opacity: 1; white-space: pre;">Rd</text><g class="layers" style="opacity: 1;"><g class="legendfill"/><g class="legendlines"><path class="js-line" d="M5,0h30" style="fill: none; stroke: rgb(255, 140, 0); stroke-opacity: 1; stroke-width: 2px;"/></g><g class="legendsymbols"><g class="legendpoints"/></g></g><rect class="legendtoggle" x="0" y="-9.5" width="104.671875" height="19" style="fill: rgb(0, 0, 0); fill-opacity: 0;"/></g></g><g class="groups" transform="translate(0,50)"><g class="traces" transform="translate(0,166.5)" style="opacity: 1;"><text class="legendtext" text-anchor="start" x="40" y="4.680000000000001" style="font-family: 'Open Sans', verdana, arial, sans-serif; font-size: 12px; fill: rgb(42, 63, 95); fill-opacity: 1; white-space: pre;">Rt</text><g class="layers" style="opacity: 1;"><g class="legendfill"/><g class="legendlines"><path class="js-line" d="M5,0h30" style="fill: none; stroke: rgb(255, 0, 0); stroke-opacity: 1; stroke-width: 2px;"/></g><g class="legendsymbols"><g class="legendpoints"/></g></g><rect class="legendtoggle" x="0" y="-9.5" width="104.671875" height="19" style="fill: rgb(0, 0, 0); fill-opacity: 0;"/></g><g class="traces" transform="translate(0,185.5)" style="opacity: 1;"><text class="legendtext" text-anchor="start" x="40" y="4.680000000000001" style="font-family: 'Open Sans', verdana, arial, sans-serif; font-size: 12px; fill: rgb(42, 63, 95); fill-opacity: 1; white-space: pre;">Rt</text><g class="layers" style="opacity: 1;"><g class="legendfill"/><g class="legendlines"><path class="js-line" d="M5,0h30" style="fill: none; stroke: rgb(255, 0, 0); stroke-opacity: 1; stroke-dasharray: 3px, 3px; stroke-width: 2px;"/></g><g class="legendsymbols"><g class="legendpoints"/></g></g><rect class="legendtoggle" x="0" y="-9.5" width="104.671875" height="19" style="fill: rgb(0, 0, 0); fill-opacity: 0;"/></g></g></g><rect class="scrollbar" rx="20" ry="3" width="0" height="0" x="0" y="0" style="fill: rgb(128, 139, 164); fill-opacity: 1;"/></g><g class="g-gtitle"><text class="gtitle" x="35" y="30" text-anchor="start" dy="0em" style="font-family: 'Open Sans', verdana, arial, sans-serif; font-size: 17px; fill: rgb(42, 63, 95); opacity: 1; font-weight: normal; white-space: pre;">switching from off→on (solid) and on→off (dotted)</text></g><g class="g-xtitle"><text class="xtitle" x="319" y="488.20625" text-anchor="middle" style="font-family: 'Open Sans', verdana, arial, sans-serif; font-size: 14px; fill: rgb(42, 63, 95); opacity: 1; font-weight: normal; white-space: pre;">Damage rate (min​<tspan style="font-size:70%" dy="-0.6em">-1</tspan><tspan dy="0.42em">​</tspan>)</text></g><g class="g-ytitle" transform="translate(1.2373046875,0)"><text class="ytitle" transform="rotate(-90,11.762500000000003,252.5)" x="11.762500000000003" y="252.5" text-anchor="middle" style="font-family: 'Open Sans', verdana, arial, sans-serif; font-size: 14px; fill: rgb(42, 63, 95); opacity: 1; font-weight: normal; white-space: pre;">Normalised difference from ssval</text></g></g></svg>