<svg class="main-svg" xmlns="http://www.w3.org/2000/svg" xmlns:xlink="http://www.w3.org/1999/xlink" width="700" height="500" style="" viewBox="0 0 700 500"><rect x="0" y="0" width="700" height="500" style="fill: rgb(255, 255, 255); fill-opacity: 1;"/><defs id="defs-add7e0"><g class="clips"><clipPath id="clipadd7e0xyplot" class="plotclip"><rect width="500" height="385"/></clipPath><clipPath id="clipadd7e0xy2plot" class="plotclip"><rect width="500" height="385"/></clipPath><clipPath class="axesclip" id="clipadd7e0x"><rect x="67" y="0" width="500" height="500"/></clipPath><clipPath class="axesclip" id="clipadd7e0y"><rect x="0" y="60" width="700" height="385"/></clipPath><clipPath class="axesclip" id="clipadd7e0xy"><rect x="67" y="60" width="500" height="385"/></clipPath><clipPath class="axesclip" id="clipadd7e0y2"><rect x="0" y="60" width="700" height="385"/></clipPath><clipPath class="axesclip" id="clipadd7e0xy2"><rect x="67" y="60" width="500" height="385"/></clipPath></g><g class="gradients"/></defs><g class="bglayer"/><g class="layer-below"><g class="imagelayer"/><g class="shapelayer"/></g><g class="cartesianlayer"><g class="subplot xy"><g class="layer-subplot"><g class="shapelayer"/><g class="imagelayer"/></g><g class="gridlayer"><g class="x"/><g class="y"/><g class="y2"/></g><g class="zerolinelayer"/><path class="xlines-below"/><path class="ylines-below"/><g class="overlines-below"><path class="xy2-x"/><path class="xy2-y"/></g><g class="xaxislayer-below"/><g class="yaxislayer-below"/><g class="overaxes-below"><g class="xy2-x"/><g class="xy2-y"/></g><g class="plot" transform="translate(67,60)" clip-path="url('#clipadd7e0xyplot')"><g class="scatterlayer mlayer"><g class="trace scatter trace23bbe6" style="stroke-miterlimit: 2; opacity: 1;"><g class="fills"/><g class="errorbars"/><g class="lines"><path class="js-line" d="M0,323.09L1.89,249.41L2.83,239.22L6.61,219.69L7.56,216.23L12.28,202.46L13.22,200.76L18.89,189.73L19.83,188.09L24.55,181.15L25.5,179.83L32.11,171.95L33.05,170.91L44.39,159.61L45.33,158.66L68.94,140.55L69.88,139.85L101.99,120.78L102.94,120.22L134.1,104.73L135.05,104.31L155.82,94.94L156.77,94.54L180.38,84.54L181.32,84.15L270.1,49.33L271.04,48.98L346.59,19.28" style="vector-effect: non-scaling-stroke; fill: none; stroke: rgb(128, 0, 128); stroke-opacity: 1; stroke-width: 2px; opacity: 1;"/></g><g class="points"/><g class="text"/></g><g class="trace scatter trace692b27" style="stroke-miterlimit: 2; opacity: 1;"><g class="fills"/><g class="errorbars"/><g class="lines"><path class="js-line" d="M0,365.75L0.94,365.75L1.89,338.83L2.83,338.83L3.78,323.09L4.72,323.09L5.67,311.91L6.61,311.91L7.56,303.25L8.5,303.25L9.44,296.17L10.39,296.17L11.33,290.18L12.28,290.18L13.22,285L14.17,285L15.11,280.42L16.05,280.42L17,276.33L17.94,276.33L18.89,272.63L19.83,272.63L20.78,269.25L21.72,269.25L22.67,266.14L23.61,263.26L24.55,263.26L25.5,260.58L26.44,260.58L28.33,255.72L29.28,255.72L32.11,249.41L33.05,249.41L35.89,243.99L36.83,243.99L42.5,234.98L43.44,234.98L54.77,220.6L55.72,219.69L65.16,210.13L66.11,208.74L69.88,205.48L70.83,204.24L72.72,202.46L73.66,201.32L76.5,199.13L77.44,198.08L83.11,192.77L84.05,192.32L96.33,181.82L97.27,181.15L101.05,177.94L101.99,177.32L107.66,173.02L108.6,172.22L118.99,164.52L119.94,163.87L158.66,138.04L159.6,137.49L170.93,130.54L171.88,130L182.27,123.87L183.21,123.34L197.38,115.25L198.32,114.7L230.43,97.3L231.38,96.8L284.26,70.05L285.21,69.6L386.26,19.25" style="vector-effect: non-scaling-stroke; fill: none; stroke: rgb(221, 160, 221); stroke-opacity: 1; stroke-width: 2px; opacity: 1;"/></g><g class="points"/><g class="text"/></g><g class="trace scatter tracef1fc5a" style="stroke-miterlimit: 2; opacity: 1;"><g class="fills"/><g class="errorbars"/><g class="lines"><path class="js-line" d="M0,323.09L1.89,249.41L2.83,240.75L5.67,224.49L6.61,220.6L10.39,208.74L11.33,206.11L20.78,188.5L21.72,187.3L26.44,180.81L27.39,179.83L32.11,174.4L33.05,173.57L39.66,167L40.61,166.08L49.11,159.03L50.05,158.28L62.33,149.66L63.27,149.07L69.88,144.9L70.83,144.38L78.38,139.96L79.33,139.5L90.66,133.47L91.61,133.08L107.66,125.51L108.6,125.12L118.99,120.64L119.94,120.29L135.05,114.34L135.99,113.98L170.93,101.84L171.88,101.54L207.77,90.87L208.71,90.61L254.04,78.81L254.98,78.57L329.59,61.92L330.54,61.74L384.37,51.04L385.31,50.87L467.47,34.09L468.42,33.79L471.25,32.5" style="vector-effect: non-scaling-stroke; fill: none; stroke: rgb(144, 238, 144); stroke-opacity: 1; stroke-width: 2px; opacity: 1;"/></g><g class="points"/><g class="text"/></g><g class="trace scatter tracee8fbd5" style="stroke-miterlimit: 2; opacity: 1;"><g class="fills"/><g class="errorbars"/><g class="lines"><path class="js-line" d="M0,365.75L0.94,365.75L1.89,338.83L3.78,338.83L4.72,323.09L7.56,323.09L8.5,311.91L11.33,311.91L12.28,303.25L15.11,303.25L16.05,296.17L18.89,296.17L19.83,290.18L22.67,290.18L23.61,285L27.39,285L28.33,280.42L31.16,280.42L32.11,276.33L34.94,276.33L35.89,272.63L38.72,272.63L39.66,269.25L42.5,269.25L43.44,266.14L46.28,266.14L47.22,263.26L49.11,263.26L50.05,260.58L52.89,260.58L53.83,258.08L56.66,258.08L57.61,255.72L59.5,255.72L60.44,253.5L63.27,253.5L64.22,251.4L66.11,251.4L67.05,249.41L69.88,249.41L70.83,247.52L72.72,247.52L73.66,245.71L75.55,245.71L76.5,243.99L79.33,243.99L80.27,242.33L82.16,242.33L83.11,240.75L84.99,240.75L85.94,239.22L87.83,239.22L88.77,237.76L90.66,237.76L91.61,236.35L93.49,236.35L94.44,234.98L96.33,234.98L97.27,233.67L99.16,233.67L100.11,232.39L101.05,232.39L101.99,231.16L103.88,231.16L104.83,229.97L106.72,229.97L107.66,228.81L109.55,228.81L110.49,227.68L111.44,227.68L112.38,226.59L114.27,226.59L115.22,225.52L117.1,225.52L118.05,224.49L118.99,224.49L119.94,223.48L121.83,223.48L122.77,222.49L123.71,222.49L124.66,221.54L126.55,221.54L127.49,220.6L128.44,220.6L129.38,219.69L131.27,219.69L132.21,218.79L133.16,218.79L134.1,217.92L135.99,217.92L136.94,217.07L137.88,217.07L138.83,216.23L139.77,216.23L140.71,215.41L142.6,215.41L143.55,214.61L144.49,214.61L145.44,213.83L146.38,213.83L147.32,213.06L151.1,212.31L152.05,211.57L154.88,210.84L155.82,210.13L158.66,209.43L159.6,208.74L163.38,208.07L164.32,207.4L167.16,206.75L168.1,206.11L170.93,205.48L171.88,204.85L174.71,204.24L175.66,203.64L178.49,203.05L179.43,202.46L182.27,201.89L183.21,201.32L186.04,200.76L186.99,200.21L188.88,199.67L189.82,199.13L192.66,198.6L193.6,198.08L196.43,197.57L197.38,197.06L199.27,196.56L200.21,196.07L203.04,195.58L203.99,195.09L206.82,194.62L207.77,194.15L210.6,193.22L211.54,193.22L215.32,191.88L216.27,191.88L220.04,190.57L220.99,190.57L224.76,189.31L225.71,189.31L230.43,187.7L231.38,187.7L235.15,186.53L236.1,186.53L240.82,185.02L241.76,185.02L249.32,182.86L250.26,182.86L257.82,180.81L258.76,180.81L268.21,178.25L269.15,178.25L279.54,175.55L280.48,175.55L291.82,172.75L292.76,172.75L307.87,169.15L308.82,169.15L325.81,165.4L326.76,165.18L356.98,158.85L357.92,158.66L461.81,137.17L462.75,136.84L469.36,134.76L470.31,134.36L471.25,133.66" style="vector-effect: non-scaling-stroke; fill: none; stroke: rgb(0, 128, 0); stroke-opacity: 1; stroke-width: 2px; opacity: 1;"/></g><g class="points"/><g class="text"/></g><g class="trace scatter trace8061ba" style="stroke-miterlimit: 2; opacity: 1;"><g class="fills"/><g class="errorbars"/><g class="lines"><path class="js-line" d="M0,323.09L1.89,260.58L2.83,253.5L6.61,233.67L7.56,229.97L15.11,212.31L16.05,210.84L26.44,196.07L27.39,195.09L41.55,181.48L42.5,180.81L46.28,177.63L47.22,177.02L76.5,158.66L77.44,158.28L86.88,153.4L87.83,153.08L100.11,147.35L101.05,147.07L121.83,138.6L122.77,138.26L131.27,135.07L132.21,134.76L190.77,116.5L191.71,116.24L243.65,103.26L244.6,103.03L286.15,94.07L287.09,93.86L405.14,72.89L406.09,72.75L471.25,63" style="vector-effect: non-scaling-stroke; fill: none; stroke: rgb(255, 215, 0); stroke-opacity: 1; stroke-width: 2px; opacity: 1;"/></g><g class="points"/><g class="text"/></g><g class="trace scatter trace7c6271" style="stroke-miterlimit: 2; opacity: 1;"><g class="fills"/><g class="errorbars"/><g class="lines"><path class="js-line" d="M0,280.42L1.89,214.61L2.83,208.07L5.67,196.07L6.61,193.68L10.39,186.14L11.33,184.65L15.11,179.83L16.05,178.87L21.72,174.4L22.67,173.57L34,167.46L34.94,167.23L42.5,164.3L43.44,163.87L53.83,160.98L54.77,160.58L94.44,152.59L95.38,152.59L128.44,147.63L129.38,147.63L172.82,141.98L173.77,141.86L320.15,122.66L321.09,122.52L415.53,107.09L416.48,106.89L442.92,101.93L443.86,101.71L471.25,96.16" style="vector-effect: non-scaling-stroke; fill: none; stroke: rgb(255, 140, 0); stroke-opacity: 1; stroke-width: 2px; opacity: 1;"/></g><g class="points"/><g class="text"/></g><g class="trace scatter tracec0d7a4" style="stroke-miterlimit: 2; opacity: 1;"><g class="fills"/><g class="errorbars"/><g class="lines"><path class="js-line" d="M0,365.75L0.94,365.75L1.89,338.83L4.72,338.83L5.67,323.09L9.44,323.09L10.39,311.91L15.11,311.91L16.05,303.25L20.78,303.25L21.72,296.17L27.39,296.17L28.33,290.18L34,290.18L34.94,285L40.61,285L41.55,280.42L47.22,280.42L48.16,276.33L52.89,276.33L53.83,272.63L59.5,272.63L60.44,269.25L65.16,269.25L66.11,266.14L70.83,266.14L71.77,263.26L76.5,263.26L77.44,260.58L82.16,260.58L83.11,258.08L87.83,258.08L88.77,255.72L93.49,255.72L94.44,253.5L98.22,253.5L99.16,251.4L102.94,251.4L103.88,249.41L108.6,249.41L109.55,247.52L113.33,247.52L114.27,245.71L118.05,245.71L118.99,243.99L121.83,243.99L122.77,242.33L126.55,242.33L127.49,240.75L131.27,240.75L132.21,239.22L135.05,239.22L135.99,237.76L139.77,237.76L140.71,236.35L143.55,236.35L144.49,234.98L147.32,234.98L148.27,233.67L151.1,233.67L152.05,232.39L155.82,232.39L156.77,231.16L159.6,231.16L160.55,229.97L162.43,229.97L163.38,228.81L166.21,228.81L167.16,227.68L169.99,227.68L170.93,226.59L173.77,226.59L174.71,225.52L176.6,225.52L177.55,224.49L180.38,224.49L181.32,223.48L183.21,223.48L184.16,222.49L186.99,222.49L187.93,221.54L189.82,221.54L190.77,220.6L193.6,220.6L194.54,219.69L196.43,219.69L197.38,218.79L199.27,218.79L200.21,217.92L202.1,217.92L203.04,217.07L204.93,217.07L205.88,216.23L207.77,216.23L208.71,215.41L210.6,215.41L211.54,214.61L213.43,214.61L214.38,213.83L216.27,213.83L217.21,213.06L221.93,212.31L222.88,211.57L227.6,210.84L228.54,210.13L232.32,209.43L233.26,208.74L237.04,208.07L237.99,207.4L241.76,206.75L242.71,206.11L246.49,205.48L247.43,204.85L251.21,204.24L252.15,203.64L255.93,203.05L256.87,202.46L260.65,201.89L261.6,201.32L264.43,200.76L265.37,200.21L269.15,199.67L270.1,199.13L272.93,198.6L273.87,198.08L276.71,197.57L277.65,197.06L280.48,196.56L281.43,196.07L284.26,195.58L285.21,195.09L288.04,194.62L288.98,194.15L291.82,193.68L292.76,193.22L295.59,192.77L296.54,192.32L299.37,191.88L300.32,191.44L302.2,191L303.15,190.57L305.98,190.15L306.93,189.73L309.76,189.31L310.7,188.9L316.37,187.3L317.31,187.3L322.98,185.76L323.93,185.76L330.54,183.92L331.48,183.92L339.04,181.82L339.98,181.82L348.48,179.51L349.42,179.51L358.87,177.02L359.81,177.02L373.03,173.57L373.98,173.57L387.2,170.4L388.14,170.14L416.48,163.44L417.42,163.23L465.58,151.8L466.53,151.48L471.25,150.41" style="vector-effect: non-scaling-stroke; fill: none; stroke: rgb(255, 0, 0); stroke-opacity: 1; stroke-width: 2px; opacity: 1;"/></g><g class="points"/><g class="text"/></g></g></g><g class="overplot"><g class="xy2" transform="translate(67,60)" clip-path="url('#clipadd7e0xy2plot')"><g class="scatterlayer mlayer"><g class="trace scatter trace390379" style="stroke-miterlimit: 2; opacity: 1;"><g class="fills"/><g class="errorbars"/><g class="lines"/><g class="points"/><g class="text"/></g><g class="trace scatter traceb88f8f" style="stroke-miterlimit: 2; opacity: 1;"><g class="fills"/><g class="errorbars"/><g class="lines"><path class="js-line" d="M288.98,19.25L302.2,19.84L303.15,20.04L313.54,20.63L314.48,20.83L322.98,21.43L323.93,21.63L330.54,22.22L331.48,22.42L338.09,23.03L339.04,23.23L344.7,23.83L345.65,24.03L356.98,25.85L357.92,25.85L386.26,32.48L387.2,32.9L393.81,35.02L394.75,35.45L412.7,43.97L413.64,44.41L425.92,53.57L426.86,54.51L435.36,63.67L436.31,64.91L442.92,74.84L443.86,76.68L449.53,88.91L450.47,91.46L455.2,106.21L456.14,109.92L459.92,127.89L460.86,133.45L463.69,154.61L464.64,163.84L467.47,203.81L468.42,225.06L470.31,303.3L471.25,365.75" style="vector-effect: non-scaling-stroke; fill: none; stroke: rgb(221, 160, 221); stroke-opacity: 1; stroke-width: 2px; opacity: 1; stroke-dasharray: 9px, 9px;"/></g><g class="points"/><g class="text"/></g><g class="trace scatter trace273307" style="stroke-miterlimit: 2; opacity: 1;"><g class="fills"/><g class="errorbars"/><g class="lines"/><g class="points"/><g class="text"/></g><g class="trace scatter trace8f5624" style="stroke-miterlimit: 2; opacity: 1;"><g class="fills"/><g class="errorbars"/><g class="lines"/><g class="points"><path class="point" transform="translate(471.25,357.87)" d="M3,0A3,3 0 1,1 0,-3A3,3 0 0,1 3,0Z" style="opacity: 1; stroke-width: 0px; fill: rgb(0, 128, 0); fill-opacity: 1;"/></g><g class="text"/></g><g class="trace scatter trace6acc38" style="stroke-miterlimit: 2; opacity: 1;"><g class="fills"/><g class="errorbars"/><g class="lines"/><g class="points"><path class="point" transform="translate(471.25,357.87)" d="M3,0A3,3 0 1,1 0,-3A3,3 0 0,1 3,0Z" style="opacity: 1; stroke-width: 0px; fill: rgb(255, 215, 0); fill-opacity: 1;"/></g><g class="text"/></g><g class="trace scatter trace9abd0b" style="stroke-miterlimit: 2; opacity: 1;"><g class="fills"/><g class="errorbars"/><g class="lines"/><g class="points"/><g class="text"/></g><g class="trace scatter trace8f9d7b" style="stroke-miterlimit: 2; opacity: 1;"><g class="fills"/><g class="errorbars"/><g class="lines"/><g class="points"><path class="point" transform="translate(471.25,338.95)" d="M3,0A3,3 0 1,1 0,-3A3,3 0 0,1 3,0Z" style="opacity: 1; stroke-width: 0px; fill: rgb(255, 0, 0); fill-opacity: 1;"/></g><g class="text"/></g></g></g></g><path class="xlines-above crisp" d="M66,445.5H568" style="fill: none; stroke-width: 1px; stroke: rgb(0, 0, 0); stroke-opacity: 1;"/><path class="ylines-above crisp" d="M66.5,60V445M567.5,60V445" style="fill: none; stroke-width: 1px; stroke: rgb(0, 0, 0); stroke-opacity: 1;"/><g class="overlines-above"><path class="xy2-x crisp" d="M0,0" style="fill: none;"/><path class="xy2-y crisp" d="M0,0" style="fill: none;"/></g><g class="xaxislayer-above"><g class="xtick"><text text-anchor="middle" x="0" y="460.4" transform="translate(191.20999999999998,0)" style="font-family: 'Open Sans', verdana, arial, sans-serif; font-size: 12px; fill: rgb(42, 63, 95); fill-opacity: 1; white-space: pre;">1</text></g><g class="xtick"><text text-anchor="middle" x="0" y="460.4" transform="translate(361.83,0)" style="font-family: 'Open Sans', verdana, arial, sans-serif; font-size: 12px; fill: rgb(42, 63, 95); fill-opacity: 1; white-space: pre;">1.5</text></g><g class="xtick"><text text-anchor="middle" x="0" y="460.4" transform="translate(532.45,0)" style="font-family: 'Open Sans', verdana, arial, sans-serif; font-size: 12px; fill: rgb(42, 63, 95); fill-opacity: 1; white-space: pre;">2</text></g></g><g class="yaxislayer-above"><g class="ytick"><text text-anchor="end" x="63.6" y="3.15" transform="translate(0,444.01)" style="font-family: 'Open Sans', verdana, arial, sans-serif; font-size: 9px; fill: rgb(42, 63, 95); fill-opacity: 1; white-space: pre;">5</text></g><g class="ytick"><text text-anchor="end" x="63.6" y="4.199999999999999" transform="translate(0,417.09)" style="font-family: 'Open Sans', verdana, arial, sans-serif; font-size: 12px; fill: rgb(42, 63, 95); fill-opacity: 1; white-space: pre;">100</text></g><g class="ytick"><text text-anchor="end" x="63.6" y="3.15" transform="translate(0,390.17)" style="font-family: 'Open Sans', verdana, arial, sans-serif; font-size: 9px; fill: rgb(42, 63, 95); fill-opacity: 1; white-space: pre;">2</text></g><g class="ytick"><text text-anchor="end" x="63.6" y="3.15" transform="translate(0,354.59)" style="font-family: 'Open Sans', verdana, arial, sans-serif; font-size: 9px; fill: rgb(42, 63, 95); fill-opacity: 1; white-space: pre;">5</text></g><g class="ytick"><text text-anchor="end" x="63.6" y="4.199999999999999" transform="translate(0,327.67)" style="font-family: 'Open Sans', verdana, arial, sans-serif; font-size: 12px; fill: rgb(42, 63, 95); fill-opacity: 1; white-space: pre;">1000</text></g><g class="ytick"><text text-anchor="end" x="63.6" y="3.15" transform="translate(0,300.75)" style="font-family: 'Open Sans', verdana, arial, sans-serif; font-size: 9px; fill: rgb(42, 63, 95); fill-opacity: 1; white-space: pre;">2</text></g><g class="ytick"><text text-anchor="end" x="63.6" y="3.15" transform="translate(0,265.16999999999996)" style="font-family: 'Open Sans', verdana, arial, sans-serif; font-size: 9px; fill: rgb(42, 63, 95); fill-opacity: 1; white-space: pre;">5</text></g><g class="ytick"><text text-anchor="end" x="63.6" y="4.199999999999999" transform="translate(0,238.25)" style="font-family: 'Open Sans', verdana, arial, sans-serif; font-size: 12px; fill: rgb(42, 63, 95); fill-opacity: 1; white-space: pre;">10k</text></g><g class="ytick"><text text-anchor="end" x="63.6" y="3.15" transform="translate(0,211.33)" style="font-family: 'Open Sans', verdana, arial, sans-serif; font-size: 9px; fill: rgb(42, 63, 95); fill-opacity: 1; white-space: pre;">2</text></g><g class="ytick"><text text-anchor="end" x="63.6" y="3.15" transform="translate(0,175.75)" style="font-family: 'Open Sans', verdana, arial, sans-serif; font-size: 9px; fill: rgb(42, 63, 95); fill-opacity: 1; white-space: pre;">5</text></g><g class="ytick"><text text-anchor="end" x="63.6" y="4.199999999999999" transform="translate(0,148.82999999999998)" style="font-family: 'Open Sans', verdana, arial, sans-serif; font-size: 12px; fill: rgb(42, 63, 95); fill-opacity: 1; white-space: pre;">100k</text></g><g class="ytick"><text text-anchor="end" x="63.6" y="3.15" transform="translate(0,121.91)" style="font-family: 'Open Sans', verdana, arial, sans-serif; font-size: 9px; fill: rgb(42, 63, 95); fill-opacity: 1; white-space: pre;">2</text></g><g class="ytick"><text text-anchor="end" x="63.6" y="3.15" transform="translate(0,86.33)" style="font-family: 'Open Sans', verdana, arial, sans-serif; font-size: 9px; fill: rgb(42, 63, 95); fill-opacity: 1; white-space: pre;">5</text></g></g><g class="overaxes-above"><g class="xy2-x"/><g class="xy2-y"><g class="y2tick"><text text-anchor="start" x="568" y="4.199999999999999" transform="translate(0,395.18)" style="font-family: 'Open Sans', verdana, arial, sans-serif; font-size: 12px; fill: rgb(42, 63, 95); fill-opacity: 1; white-space: pre;">20</text></g><g class="y2tick"><text text-anchor="start" x="568" y="4.199999999999999" transform="translate(0,315.53999999999996)" style="font-family: 'Open Sans', verdana, arial, sans-serif; font-size: 12px; fill: rgb(42, 63, 95); fill-opacity: 1; white-space: pre;">30</text></g><g class="y2tick"><text text-anchor="start" x="568" y="4.199999999999999" transform="translate(0,259.03)" style="font-family: 'Open Sans', verdana, arial, sans-serif; font-size: 12px; fill: rgb(42, 63, 95); fill-opacity: 1; white-space: pre;">40</text></g><g class="y2tick"><text text-anchor="start" x="568" y="4.199999999999999" transform="translate(0,215.2)" style="font-family: 'Open Sans', verdana, arial, sans-serif; font-size: 12px; fill: rgb(42, 63, 95); fill-opacity: 1; white-space: pre;">50</text></g><g class="y2tick"><text text-anchor="start" x="568" y="4.199999999999999" transform="translate(0,179.39)" style="font-family: 'Open Sans', verdana, arial, sans-serif; font-size: 12px; fill: rgb(42, 63, 95); fill-opacity: 1; white-space: pre;">60</text></g><g class="y2tick"><text text-anchor="start" x="568" y="4.199999999999999" transform="translate(0,149.11)" style="font-family: 'Open Sans', verdana, arial, sans-serif; font-size: 12px; fill: rgb(42, 63, 95); fill-opacity: 1; white-space: pre;">70</text></g><g class="y2tick"><text text-anchor="start" x="568" y="4.199999999999999" transform="translate(0,122.88)" style="font-family: 'Open Sans', verdana, arial, sans-serif; font-size: 12px; fill: rgb(42, 63, 95); fill-opacity: 1; white-space: pre;">80</text></g><g class="y2tick"><text text-anchor="start" x="568" y="4.199999999999999" transform="translate(0,99.75)" style="font-family: 'Open Sans', verdana, arial, sans-serif; font-size: 12px; fill: rgb(42, 63, 95); fill-opacity: 1; white-space: pre;">90</text></g><g class="y2tick"><text text-anchor="start" x="568" y="4.199999999999999" transform="translate(0,79.05)" style="font-family: 'Open Sans', verdana, arial, sans-serif; font-size: 12px; fill: rgb(42, 63, 95); fill-opacity: 1; white-space: pre;">100</text></g><g class="y2tick"><text text-anchor="start" x="568" y="4.199999999999999" transform="translate(0,60.33)" style="font-family: 'Open Sans', verdana, arial, sans-serif; font-size: 12px; fill: rgb(42, 63, 95); fill-opacity: 1; white-space: pre;">110</text></g></g></g></g><g class="subplot xy2"/></g><g class="polarlayer"/><g class="ternarylayer"/><g class="geolayer"/><g class="funnelarealayer"/><g class="pielayer"/><g class="treemaplayer"/><g class="sunburstlayer"/><g class="glimages"/><defs id="topdefs-add7e0"><g class="clips"/><clipPath id="legendadd7e0"><rect width="111" height="162" x="0" y="0"/></clipPath></defs><g class="layer-above"><g class="imagelayer"/><g class="shapelayer"/></g><g class="infolayer"><g class="legend" pointer-events="all" transform="translate(577,60)"><rect class="bg" shape-rendering="crispEdges" width="111" height="162" x="0" y="0" style="stroke: rgb(68, 68, 68); stroke-opacity: 1; fill: rgb(255, 255, 255); fill-opacity: 1; stroke-width: 0px;"/><g class="scrollbox" transform="" clip-path="url('#legendadd7e0')"><g class="groups"><g class="traces" transform="translate(0,14.5)" style="opacity: 1;"><text class="legendtext" text-anchor="start" x="40" y="4.680000000000001" style="font-family: 'Open Sans', verdana, arial, sans-serif; font-size: 12px; fill: rgb(42, 63, 95); fill-opacity: 1; white-space: pre;">RtcB mRNA</text><g class="layers" style="opacity: 1;"><g class="legendfill"/><g class="legendlines"><path class="js-line" d="M5,0h30" style="fill: none; stroke: rgb(128, 0, 128); stroke-opacity: 1; stroke-width: 2px;"/></g><g class="legendsymbols"><g class="legendpoints"/></g></g><rect class="legendtoggle" x="0" y="-9.5" width="105.34375" height="19" style="fill: rgb(0, 0, 0); fill-opacity: 0;"/></g><g class="traces" transform="translate(0,33.5)" style="opacity: 1;"><text class="legendtext" text-anchor="start" x="40" y="4.680000000000001" style="font-family: 'Open Sans', verdana, arial, sans-serif; font-size: 12px; fill: rgb(42, 63, 95); fill-opacity: 1; white-space: pre;">RtcB</text><g class="layers" style="opacity: 1;"><g class="legendfill"/><g class="legendlines"><path class="js-line" d="M5,0h30" style="fill: none; stroke: rgb(221, 160, 221); stroke-opacity: 1; stroke-width: 2px;"/></g><g class="legendsymbols"><g class="legendpoints"/></g></g><rect class="legendtoggle" x="0" y="-9.5" width="105.34375" height="19" style="fill: rgb(0, 0, 0); fill-opacity: 0;"/></g><g class="traces" transform="translate(0,52.5)" style="opacity: 1;"><text class="legendtext" text-anchor="start" x="40" y="4.680000000000001" style="font-family: 'Open Sans', verdana, arial, sans-serif; font-size: 12px; fill: rgb(42, 63, 95); fill-opacity: 1; white-space: pre;">RtcR mRNA</text><g class="layers" style="opacity: 1;"><g class="legendfill"/><g class="legendlines"><path class="js-line" d="M5,0h30" style="fill: none; stroke: rgb(144, 238, 144); stroke-opacity: 1; stroke-width: 2px;"/></g><g class="legendsymbols"><g class="legendpoints"/></g></g><rect class="legendtoggle" x="0" y="-9.5" width="105.34375" height="19" style="fill: rgb(0, 0, 0); fill-opacity: 0;"/></g><g class="traces" transform="translate(0,71.5)" style="opacity: 1;"><text class="legendtext" text-anchor="start" x="40" y="4.680000000000001" style="font-family: 'Open Sans', verdana, arial, sans-serif; font-size: 12px; fill: rgb(42, 63, 95); fill-opacity: 1; white-space: pre;">RtcR</text><g class="layers" style="opacity: 1;"><g class="legendfill"/><g class="legendlines"><path class="js-line" d="M5,0h30" style="fill: none; stroke: rgb(0, 128, 0); stroke-opacity: 1; stroke-width: 2px;"/></g><g class="legendsymbols"><g class="legendpoints"/></g></g><rect class="legendtoggle" x="0" y="-9.5" width="105.34375" height="19" style="fill: rgb(0, 0, 0); fill-opacity: 0;"/></g><g class="traces" transform="translate(0,90.5)" style="opacity: 1;"><text class="legendtext" text-anchor="start" x="40" y="4.680000000000001" style="font-family: 'Open Sans', verdana, arial, sans-serif; font-size: 12px; fill: rgb(42, 63, 95); fill-opacity: 1; white-space: pre;">Rh</text><g class="layers" style="opacity: 1;"><g class="legendfill"/><g class="legendlines"><path class="js-line" d="M5,0h30" style="fill: none; stroke: rgb(255, 215, 0); stroke-opacity: 1; stroke-width: 2px;"/></g><g class="legendsymbols"><g class="legendpoints"/></g></g><rect class="legendtoggle" x="0" y="-9.5" width="105.34375" height="19" style="fill: rgb(0, 0, 0); fill-opacity: 0;"/></g><g class="traces" transform="translate(0,109.5)" style="opacity: 1;"><text class="legendtext" text-anchor="start" x="40" y="4.680000000000001" style="font-family: 'Open Sans', verdana, arial, sans-serif; font-size: 12px; fill: rgb(42, 63, 95); fill-opacity: 1; white-space: pre;">Rd</text><g class="layers" style="opacity: 1;"><g class="legendfill"/><g class="legendlines"><path class="js-line" d="M5,0h30" style="fill: none; stroke: rgb(255, 140, 0); stroke-opacity: 1; stroke-width: 2px;"/></g><g class="legendsymbols"><g class="legendpoints"/></g></g><rect class="legendtoggle" x="0" y="-9.5" width="105.34375" height="19" style="fill: rgb(0, 0, 0); fill-opacity: 0;"/></g><g class="traces" transform="translate(0,128.5)" style="opacity: 1;"><text class="legendtext" text-anchor="start" x="40" y="4.680000000000001" style="font-family: 'Open Sans', verdana, arial, sans-serif; font-size: 12px; fill: rgb(42, 63, 95); fill-opacity: 1; white-space: pre;">Rt</text><g class="layers" style="opacity: 1;"><g class="legendfill"/><g class="legendlines"><path class="js-line" d="M5,0h30" style="fill: none; stroke: rgb(255, 0, 0); stroke-opacity: 1; stroke-width: 2px;"/></g><g class="legendsymbols"><g class="legendpoints"/></g></g><rect class="legendtoggle" x="0" y="-9.5" width="105.34375" height="19" style="fill: rgb(0, 0, 0); fill-opacity: 0;"/></g><g class="traces" transform="translate(0,147.5)" style="opacity: 1;"><text class="legendtext" text-anchor="start" x="40" y="4.680000000000001" style="font-family: 'Open Sans', verdana, arial, sans-serif; font-size: 12px; fill: rgb(42, 63, 95); fill-opacity: 1; white-space: pre;">on → off</text><g class="layers" style="opacity: 1;"><g class="legendfill"/><g class="legendlines"><path class="js-line" d="M5,0h30" style="fill: none; stroke: rgb(221, 160, 221); stroke-opacity: 1; stroke-dasharray: 9px, 9px; stroke-width: 2px;"/></g><g class="legendsymbols"><g class="legendpoints"/></g></g><rect class="legendtoggle" x="0" y="-9.5" width="105.34375" height="19" style="fill: rgb(0, 0, 0); fill-opacity: 0;"/></g></g></g><rect class="scrollbar" rx="20" ry="3" width="0" height="0" x="0" y="0" style="fill: rgb(128, 139, 164); fill-opacity: 1;"/></g><g class="g-gtitle"/><g class="g-xtitle"><text class="xtitle" x="317" y="488.20625" text-anchor="middle" style="font-family: 'Open Sans', verdana, arial, sans-serif; font-size: 14px; fill: rgb(42, 63, 95); opacity: 1; font-weight: normal; white-space: pre;">Damage rate (min​<tspan style="font-size:70%" dy="-0.6em">-1</tspan><tspan dy="0.42em">​</tspan>)</text></g><g class="g-ytitle" transform="translate(0.9091796875,0)"><text class="ytitle" transform="rotate(-90,12.090625000000003,252.5)" x="12.090625000000003" y="252.5" text-anchor="middle" style="font-family: 'Open Sans', verdana, arial, sans-serif; font-size: 14px; fill: rgb(42, 63, 95); opacity: 1; font-weight: normal; white-space: pre;">% increase from ssval - off to on</text></g><g class="g-y2title"><text class="y2title" transform="rotate(-90,613.159375,252.5)" x="613.159375" y="252.5" text-anchor="middle" style="font-family: 'Open Sans', verdana, arial, sans-serif; font-size: 14px; fill: rgb(42, 63, 95); opacity: 1; font-weight: normal; white-space: pre;">% decrease from ssval - on to off</text></g></g></svg>