<svg class="main-svg" xmlns="http://www.w3.org/2000/svg" xmlns:xlink="http://www.w3.org/1999/xlink" width="700" height="500" style="" viewBox="0 0 700 500"><rect x="0" y="0" width="700" height="500" style="fill: rgb(255, 255, 255); fill-opacity: 1;"/><defs id="defs-ca7c2b"><g class="clips"><clipPath id="clipca7c2bxyplot" class="plotclip"><rect width="420" height="284"/></clipPath><clipPath class="axesclip" id="clipca7c2bx"><rect x="180" y="0" width="420" height="500"/></clipPath><clipPath class="axesclip" id="clipca7c2by"><rect x="0" y="100" width="700" height="284"/></clipPath><clipPath class="axesclip" id="clipca7c2bxy"><rect x="180" y="100" width="420" height="284"/></clipPath></g><g class="gradients"/></defs><g class="bglayer"/><g class="layer-below"><g class="imagelayer"/><g class="shapelayer"/></g><g class="cartesianlayer"><g class="subplot xy"><g class="layer-subplot"><g class="shapelayer"/><g class="imagelayer"/></g><g class="gridlayer"><g class="x"/><g class="y"/></g><g class="zerolinelayer"/><path class="xlines-below"/><path class="ylines-below"/><g class="overlines-below"/><g class="xaxislayer-below"/><g class="yaxislayer-below"/><g class="overaxes-below"/><g class="plot" transform="translate(180,100)" clip-path="url('#clipca7c2bxyplot')"><g class="scatterlayer mlayer"><g class="trace scatter trace732429" style="stroke-miterlimit: 2; opacity: 1;"><g class="fills"/><g class="errorbars"/><g class="lines"><path class="js-line" d="M0,272.48L2.23,160.27L2.26,160.11L5.18,157.83L5.21,157.83L17.11,161.38L17.12,161.39L40.09,174.5L40.13,174.53L78.97,201.06L79.1,201.16L105.6,224.35L105.77,224.54L117.95,240.59L118.1,240.87L121.99,252.77L122.02,253.16L122.06,254.45" style="vector-effect: non-scaling-stroke; fill: none; stroke: rgb(221, 160, 221); stroke-opacity: 1; stroke-width: 9px; opacity: 1;"/></g><g class="points"/><g class="text"/></g><g class="trace scatter tracec7ee47" style="stroke-miterlimit: 2; opacity: 1;"><g class="fills"/><g class="errorbars"/><g class="lines"><path class="js-line" d="M122.06,254.45L119.73,263.36L119.53,263.69L112.27,271.34L112,271.53L97.19,279.23L96.9,279.36L93.39,281.58" style="vector-effect: non-scaling-stroke; fill: none; stroke: rgb(221, 160, 221); stroke-opacity: 1; stroke-width: 9px; opacity: 1; stroke-dasharray: 27px, 27px;"/></g><g class="points"/><g class="text"/></g><g class="trace scatter tracecd5d68" style="stroke-miterlimit: 2; opacity: 1;"><g class="fills"/><g class="errorbars"/><g class="lines"><path class="js-line" d="M93.39,281.58L97.25,282.69L97.54,282.72L134.97,283.64L135.26,283.64L420,283.97" style="vector-effect: non-scaling-stroke; fill: none; stroke: rgb(221, 160, 221); stroke-opacity: 1; stroke-width: 9px; opacity: 1;"/></g><g class="points"/><g class="text"/></g><g class="trace scatter trace3640ef" style="stroke-miterlimit: 2; opacity: 1;"><g class="fills"/><g class="errorbars"/><g class="lines"><path class="js-line" d="M0,263.66L2.23,79.83L2.3,78.52L5.39,61.25L5.44,61.23L11.22,61.35L11.24,61.36L26.03,65.93L26.04,65.94L48.59,78.05L48.63,78.07L111.64,118.15L111.79,118.25L156.22,151.57L156.44,151.75L186.19,179.45L186.42,179.7L203.31,201.3L203.53,201.66L211.37,218.81L211.51,219.36L212.92,229.54" style="vector-effect: non-scaling-stroke; fill: none; stroke: rgb(186, 85, 211); stroke-opacity: 1; stroke-width: 9px; opacity: 1;"/></g><g class="points"/><g class="text"/></g><g class="trace scatter trace53c7e5" style="stroke-miterlimit: 2; opacity: 1;"><g class="fills"/><g class="errorbars"/><g class="lines"><path class="js-line" d="M212.92,229.54L210.55,241.44L210.33,241.95L203.41,252.11L203.13,252.39L191.17,261.63L190.88,261.81L171.01,270.9L170.71,271.01L137.02,281.47" style="vector-effect: non-scaling-stroke; fill: none; stroke: rgb(186, 85, 211); stroke-opacity: 1; stroke-width: 9px; opacity: 1; stroke-dasharray: 27px, 27px;"/></g><g class="points"/><g class="text"/></g><g class="trace scatter tracea19083" style="stroke-miterlimit: 2; opacity: 1;"><g class="fills"/><g class="errorbars"/><g class="lines"><path class="js-line" d="M137.02,281.47L141.11,282.49L141.41,282.52L179.27,283.48L179.57,283.49L420,283.93" style="vector-effect: non-scaling-stroke; fill: none; stroke: rgb(186, 85, 211); stroke-opacity: 1; stroke-width: 9px; opacity: 1;"/></g><g class="points"/><g class="text"/></g><g class="trace scatter trace3464aa" style="stroke-miterlimit: 2; opacity: 1;"><g class="fills"/><g class="errorbars"/><g class="lines"><path class="js-line" d="M0,261.15L2.21,60.34L2.28,58.52L5.51,34.04L5.56,34L10.42,33.61L10.45,33.61L26.69,38.03L26.7,38.04L50.09,50.26L50.13,50.29L108.02,86.15L108.15,86.24L156.36,120.25L156.57,120.4L198.63,156.02L198.87,156.25L223.07,183.56L223.31,183.89L234.55,203.37L234.75,203.86L238.58,218.67L238.65,219.4L238.76,222.4" style="vector-effect: non-scaling-stroke; fill: none; stroke: rgb(128, 0, 128); stroke-opacity: 1; stroke-width: 9px; opacity: 1;"/></g><g class="points"/><g class="text"/></g><g class="trace scatter trace1f3d27" style="stroke-miterlimit: 2; opacity: 1;"><g class="fills"/><g class="errorbars"/><g class="lines"><path class="js-line" d="M238.76,222.4L236.69,234.3L236.48,234.87L229.83,245.81L229.56,246.13L217.3,256.56L217.01,256.75L197.41,266.61L197.12,266.73L167.32,275.97L167.03,276.04L148.04,281.45" style="vector-effect: non-scaling-stroke; fill: none; stroke: rgb(128, 0, 128); stroke-opacity: 1; stroke-width: 9px; opacity: 1; stroke-dasharray: 27px, 27px;"/></g><g class="points"/><g class="text"/></g><g class="trace scatter trace7628b0" style="stroke-miterlimit: 2; opacity: 1;"><g class="fills"/><g class="errorbars"/><g class="lines"><path class="js-line" d="M148.04,281.45L152.55,282.48L152.85,282.5L190.44,283.45L190.73,283.45L420,283.92" style="vector-effect: non-scaling-stroke; fill: none; stroke: rgb(128, 0, 128); stroke-opacity: 1; stroke-width: 9px; opacity: 1;"/></g><g class="points"/><g class="text"/></g><g class="trace scatter trace965d90" style="stroke-miterlimit: 2; opacity: 1;"><g class="fills"/><g class="errorbars"/><g class="lines"><path class="js-line" d="M0,259.03L2.23,43.6L2.3,41.41L5.56,11.12L5.62,11.05L9.72,10.13L9.76,10.13L25.34,13.68L25.36,13.69L43.74,22.48L43.76,22.5L84.2,46.27L84.28,46.32L142.46,84.42L142.63,84.54L193.36,122.97L193.6,123.17L227.68,154.97L227.93,155.24L247.33,179.47L247.57,179.84L257.47,199.19L257.67,199.75L260.69,215.53L260.7,216.36" style="vector-effect: non-scaling-stroke; fill: none; stroke: rgb(128, 0, 128); stroke-opacity: 1; stroke-width: 9px; opacity: 1;"/></g><g class="points"/><g class="text"/></g><g class="trace scatter trace6e3401" style="stroke-miterlimit: 2; opacity: 1;"><g class="fills"/><g class="errorbars"/><g class="lines"><path class="js-line" d="M260.7,216.39L258.31,229.74L258.08,230.32L251.02,241.85L250.74,242.17L238.43,252.87L238.14,253.07L219.4,263.01L219.1,263.14L188.11,273.35L187.81,273.42L157.05,281.42" style="vector-effect: non-scaling-stroke; fill: none; stroke: rgb(128, 0, 128); stroke-opacity: 1; stroke-width: 9px; opacity: 1; stroke-dasharray: 27px, 27px;"/></g><g class="points"/><g class="text"/></g><g class="trace scatter trace1bcccd" style="stroke-miterlimit: 2; opacity: 1;"><g class="fills"/><g class="errorbars"/><g class="lines"><path class="js-line" d="M157.05,281.42L161.89,282.47L162.19,282.49L199.79,283.42L200.08,283.42L359.33,283.87L359.63,283.87L420,283.91L420,283.91" style="vector-effect: non-scaling-stroke; fill: none; stroke: rgb(128, 0, 128); stroke-opacity: 1; stroke-width: 9px; opacity: 1;"/></g><g class="points"/><g class="text"/></g></g></g><g class="overplot"/><path class="xlines-above crisp" d="M174.5,386.75H600" style="fill: none; stroke-width: 5.5px; stroke: rgb(0, 0, 0); stroke-opacity: 1;"/><path class="ylines-above crisp" d="M177.25,100V384" style="fill: none; stroke-width: 5.5px; stroke: rgb(0, 0, 0); stroke-opacity: 1;"/><g class="overlines-above"/><g class="xaxislayer-above"><g class="xtick"><text text-anchor="middle" x="0" y="435.1" transform="translate(180,0)" style="font-family: sans-serif; font-size: 38px; fill: rgb(0, 0, 0); fill-opacity: 1; white-space: pre;">0</text></g><g class="xtick"><text text-anchor="middle" x="0" y="435.1" transform="translate(320,0)" style="font-family: sans-serif; font-size: 38px; fill: rgb(0, 0, 0); fill-opacity: 1; white-space: pre;">10</text></g><g class="xtick"><text text-anchor="middle" x="0" y="435.1" transform="translate(460,0)" style="font-family: sans-serif; font-size: 38px; fill: rgb(0, 0, 0); fill-opacity: 1; white-space: pre;">20</text></g><g class="xtick"><text text-anchor="middle" x="0" y="435.1" transform="translate(600,0)" style="font-family: sans-serif; font-size: 38px; fill: rgb(0, 0, 0); fill-opacity: 1; white-space: pre;">30</text></g></g><g class="yaxislayer-above"><g class="ytick"><text text-anchor="end" x="166.9" y="13.299999999999999" transform="translate(0,384)" style="font-family: sans-serif; font-size: 38px; fill: rgb(0, 0, 0); fill-opacity: 1; white-space: pre;">0</text></g><g class="ytick"><text text-anchor="end" x="166.9" y="13.299999999999999" transform="translate(0,260.52)" style="font-family: sans-serif; font-size: 38px; fill: rgb(0, 0, 0); fill-opacity: 1; white-space: pre;">1</text></g><g class="ytick"><text text-anchor="end" x="166.9" y="13.299999999999999" transform="translate(0,137.04)" style="font-family: sans-serif; font-size: 38px; fill: rgb(0, 0, 0); fill-opacity: 1; white-space: pre;">2</text></g></g><g class="overaxes-above"/></g></g><g class="polarlayer"/><g class="ternarylayer"/><g class="geolayer"/><g class="funnelarealayer"/><g class="pielayer"/><g class="treemaplayer"/><g class="sunburstlayer"/><g class="glimages"/><defs id="topdefs-ca7c2b"><g class="clips"/></defs><g class="layer-above"><g class="imagelayer"/><g class="shapelayer"/></g><g class="infolayer"><g class="g-gtitle"/><g class="g-xtitle" transform="translate(0,0.5343750000000114)"><text class="xtitle" x="390" y="487.809375" text-anchor="middle" style="font-family: sans-serif; font-size: 41px; fill: rgb(0, 0, 0); opacity: 1; font-weight: normal; white-space: pre;">Damage rate (min​<tspan style="font-size:70%" dy="-0.6em">-1</tspan><tspan dy="0.42em">​</tspan>)</text></g><g class="g-ytitle"><text class="ytitle" transform="rotate(-90,99.01875,242)" x="99.01875" y="242" text-anchor="middle" style="font-family: sans-serif; font-size: 41px; fill: rgb(0, 0, 0); opacity: 1; font-weight: normal; white-space: pre;">RtcB (μM)</text></g></g></svg>