<?xml version="1.0" encoding="utf-8"?>
<svg xmlns="http://www.w3.org/2000/svg" xmlns:xlink="http://www.w3.org/1999/xlink" width="600" height="400" viewBox="0 0 2400 1600">
<defs>
  <clipPath id="clip950">
    <rect x="0" y="0" width="2400" height="1600"/>
  </clipPath>
</defs>
<path clip-path="url(#clip950)" d="M0 1600 L2400 1600 L2400 0 L0 0  Z" fill="#ffffff" fill-rule="evenodd" fill-opacity="1"/>
<defs>
  <clipPath id="clip951">
    <rect x="480" y="0" width="1681" height="1600"/>
  </clipPath>
</defs>
<path clip-path="url(#clip950)" d="M367.565 1362.7 L2352.76 1362.7 L2352.76 123.472 L367.565 123.472  Z" fill="#ffffff" fill-rule="evenodd" fill-opacity="1"/>
<defs>
  <clipPath id="clip952">
    <rect x="367" y="123" width="1986" height="1240"/>
  </clipPath>
</defs>
<polyline clip-path="url(#clip952)" style="stroke:#000000; stroke-linecap:round; stroke-linejoin:round; stroke-width:2; stroke-opacity:0.1; fill:none" points="601.117,1362.7 601.117,123.472 "/>
<polyline clip-path="url(#clip952)" style="stroke:#000000; stroke-linecap:round; stroke-linejoin:round; stroke-width:2; stroke-opacity:0.1; fill:none" points="990.37,1362.7 990.37,123.472 "/>
<polyline clip-path="url(#clip952)" style="stroke:#000000; stroke-linecap:round; stroke-linejoin:round; stroke-width:2; stroke-opacity:0.1; fill:none" points="1379.62,1362.7 1379.62,123.472 "/>
<polyline clip-path="url(#clip952)" style="stroke:#000000; stroke-linecap:round; stroke-linejoin:round; stroke-width:2; stroke-opacity:0.1; fill:none" points="1768.88,1362.7 1768.88,123.472 "/>
<polyline clip-path="url(#clip952)" style="stroke:#000000; stroke-linecap:round; stroke-linejoin:round; stroke-width:2; stroke-opacity:0.1; fill:none" points="2158.13,1362.7 2158.13,123.472 "/>
<polyline clip-path="url(#clip950)" style="stroke:#000000; stroke-linecap:round; stroke-linejoin:round; stroke-width:4; stroke-opacity:1; fill:none" points="367.565,1362.7 2352.76,1362.7 "/>
<polyline clip-path="url(#clip950)" style="stroke:#000000; stroke-linecap:round; stroke-linejoin:round; stroke-width:4; stroke-opacity:1; fill:none" points="601.117,1362.7 601.117,1343.8 "/>
<polyline clip-path="url(#clip950)" style="stroke:#000000; stroke-linecap:round; stroke-linejoin:round; stroke-width:4; stroke-opacity:1; fill:none" points="990.37,1362.7 990.37,1343.8 "/>
<polyline clip-path="url(#clip950)" style="stroke:#000000; stroke-linecap:round; stroke-linejoin:round; stroke-width:4; stroke-opacity:1; fill:none" points="1379.62,1362.7 1379.62,1343.8 "/>
<polyline clip-path="url(#clip950)" style="stroke:#000000; stroke-linecap:round; stroke-linejoin:round; stroke-width:4; stroke-opacity:1; fill:none" points="1768.88,1362.7 1768.88,1343.8 "/>
<polyline clip-path="url(#clip950)" style="stroke:#000000; stroke-linecap:round; stroke-linejoin:round; stroke-width:4; stroke-opacity:1; fill:none" points="2158.13,1362.7 2158.13,1343.8 "/>
<path clip-path="url(#clip950)" d="M497.103 1455.52 L511.426 1455.52 L511.426 1406.09 L495.844 1409.21 L495.844 1401.22 L511.339 1398.1 L520.106 1398.1 L520.106 1455.52 L534.429 1455.52 L534.429 1462.9 L497.103 1462.9 L497.103 1455.52 Z" fill="#000000" fill-rule="nonzero" fill-opacity="1" /><path clip-path="url(#clip950)" d="M570.887 1403.87 Q564.116 1403.87 560.688 1410.56 Q557.302 1417.2 557.302 1430.56 Q557.302 1443.89 560.688 1450.57 Q564.116 1457.21 570.887 1457.21 Q577.701 1457.21 581.087 1450.57 Q584.516 1443.89 584.516 1430.56 Q584.516 1417.2 581.087 1410.56 Q577.701 1403.87 570.887 1403.87 M570.887 1396.93 Q581.781 1396.93 587.51 1405.57 Q593.283 1414.16 593.283 1430.56 Q593.283 1446.93 587.51 1455.56 Q581.781 1464.16 570.887 1464.16 Q559.993 1464.16 554.221 1455.56 Q548.491 1446.93 548.491 1430.56 Q548.491 1414.16 554.221 1405.57 Q559.993 1396.93 570.887 1396.93 Z" fill="#000000" fill-rule="nonzero" fill-opacity="1" /><path clip-path="url(#clip950)" d="M627.441 1403.87 Q620.67 1403.87 617.241 1410.56 Q613.856 1417.2 613.856 1430.56 Q613.856 1443.89 617.241 1450.57 Q620.67 1457.21 627.441 1457.21 Q634.255 1457.21 637.64 1450.57 Q641.069 1443.89 641.069 1430.56 Q641.069 1417.2 637.64 1410.56 Q634.255 1403.87 627.441 1403.87 M627.441 1396.93 Q638.335 1396.93 644.064 1405.57 Q649.836 1414.16 649.836 1430.56 Q649.836 1446.93 644.064 1455.56 Q638.335 1464.16 627.441 1464.16 Q616.547 1464.16 610.774 1455.56 Q605.045 1446.93 605.045 1430.56 Q605.045 1414.16 610.774 1405.57 Q616.547 1396.93 627.441 1396.93 Z" fill="#000000" fill-rule="nonzero" fill-opacity="1" /><path clip-path="url(#clip950)" d="M683.994 1403.87 Q677.223 1403.87 673.795 1410.56 Q670.409 1417.2 670.409 1430.56 Q670.409 1443.89 673.795 1450.57 Q677.223 1457.21 683.994 1457.21 Q690.808 1457.21 694.194 1450.57 Q697.623 1443.89 697.623 1430.56 Q697.623 1417.2 694.194 1410.56 Q690.808 1403.87 683.994 1403.87 M683.994 1396.93 Q694.888 1396.93 700.617 1405.57 Q706.39 1414.16 706.39 1430.56 Q706.39 1446.93 700.617 1455.56 Q694.888 1464.16 683.994 1464.16 Q673.1 1464.16 667.328 1455.56 Q661.598 1446.93 661.598 1430.56 Q661.598 1414.16 667.328 1405.57 Q673.1 1396.93 683.994 1396.93 Z" fill="#000000" fill-rule="nonzero" fill-opacity="1" /><path clip-path="url(#clip950)" d="M894.016 1455.52 L924.615 1455.52 L924.615 1462.9 L883.47 1462.9 L883.47 1455.52 Q888.461 1450.36 897.055 1441.68 Q905.692 1432.95 907.905 1430.43 Q912.115 1425.7 913.765 1422.45 Q915.457 1419.15 915.457 1415.98 Q915.457 1410.82 911.811 1407.56 Q908.209 1404.31 902.393 1404.31 Q898.27 1404.31 893.669 1405.74 Q889.112 1407.17 883.904 1410.08 L883.904 1401.22 Q889.199 1399.1 893.799 1398.01 Q898.4 1396.93 902.22 1396.93 Q912.289 1396.93 918.278 1401.96 Q924.268 1407 924.268 1415.42 Q924.268 1419.41 922.749 1423.01 Q921.273 1426.57 917.324 1431.43 Q916.239 1432.69 910.423 1438.72 Q904.607 1444.71 894.016 1455.52 Z" fill="#000000" fill-rule="nonzero" fill-opacity="1" /><path clip-path="url(#clip950)" d="M961.768 1403.87 Q954.997 1403.87 951.568 1410.56 Q948.183 1417.2 948.183 1430.56 Q948.183 1443.89 951.568 1450.57 Q954.997 1457.21 961.768 1457.21 Q968.582 1457.21 971.967 1450.57 Q975.396 1443.89 975.396 1430.56 Q975.396 1417.2 971.967 1410.56 Q968.582 1403.87 961.768 1403.87 M961.768 1396.93 Q972.662 1396.93 978.391 1405.57 Q984.164 1414.16 984.164 1430.56 Q984.164 1446.93 978.391 1455.56 Q972.662 1464.16 961.768 1464.16 Q950.874 1464.16 945.101 1455.56 Q939.372 1446.93 939.372 1430.56 Q939.372 1414.16 945.101 1405.57 Q950.874 1396.93 961.768 1396.93 Z" fill="#000000" fill-rule="nonzero" fill-opacity="1" /><path clip-path="url(#clip950)" d="M1018.32 1403.87 Q1011.55 1403.87 1008.12 1410.56 Q1004.74 1417.2 1004.74 1430.56 Q1004.74 1443.89 1008.12 1450.57 Q1011.55 1457.21 1018.32 1457.21 Q1025.14 1457.21 1028.52 1450.57 Q1031.95 1443.89 1031.95 1430.56 Q1031.95 1417.2 1028.52 1410.56 Q1025.14 1403.87 1018.32 1403.87 M1018.32 1396.93 Q1029.22 1396.93 1034.94 1405.57 Q1040.72 1414.16 1040.72 1430.56 Q1040.72 1446.93 1034.94 1455.56 Q1029.22 1464.16 1018.32 1464.16 Q1007.43 1464.16 1001.65 1455.56 Q995.926 1446.93 995.926 1430.56 Q995.926 1414.16 1001.65 1405.57 Q1007.43 1396.93 1018.32 1396.93 Z" fill="#000000" fill-rule="nonzero" fill-opacity="1" /><path clip-path="url(#clip950)" d="M1074.87 1403.87 Q1068.1 1403.87 1064.68 1410.56 Q1061.29 1417.2 1061.29 1430.56 Q1061.29 1443.89 1064.68 1450.57 Q1068.1 1457.21 1074.87 1457.21 Q1081.69 1457.21 1085.07 1450.57 Q1088.5 1443.89 1088.5 1430.56 Q1088.5 1417.2 1085.07 1410.56 Q1081.69 1403.87 1074.87 1403.87 M1074.87 1396.93 Q1085.77 1396.93 1091.5 1405.57 Q1097.27 1414.16 1097.27 1430.56 Q1097.27 1446.93 1091.5 1455.56 Q1085.77 1464.16 1074.87 1464.16 Q1063.98 1464.16 1058.21 1455.56 Q1052.48 1446.93 1052.48 1430.56 Q1052.48 1414.16 1058.21 1405.57 Q1063.98 1396.93 1074.87 1396.93 Z" fill="#000000" fill-rule="nonzero" fill-opacity="1" /><path clip-path="url(#clip950)" d="M1302.15 1427.96 Q1308.44 1429.31 1311.96 1433.56 Q1315.52 1437.81 1315.52 1444.06 Q1315.52 1453.66 1308.92 1458.91 Q1302.32 1464.16 1290.17 1464.16 Q1286.09 1464.16 1281.75 1463.33 Q1277.45 1462.55 1272.85 1460.95 L1272.85 1452.48 Q1276.5 1454.61 1280.84 1455.7 Q1285.18 1456.78 1289.91 1456.78 Q1298.16 1456.78 1302.45 1453.52 Q1306.79 1450.27 1306.79 1444.06 Q1306.79 1438.33 1302.76 1435.12 Q1298.76 1431.87 1291.6 1431.87 L1284.05 1431.87 L1284.05 1424.66 L1291.95 1424.66 Q1298.42 1424.66 1301.85 1422.1 Q1305.27 1419.5 1305.27 1414.64 Q1305.27 1409.64 1301.72 1407 Q1298.2 1404.31 1291.6 1404.31 Q1288 1404.31 1283.88 1405.09 Q1279.75 1405.87 1274.81 1407.52 L1274.81 1399.71 Q1279.8 1398.32 1284.14 1397.62 Q1288.52 1396.93 1292.38 1396.93 Q1302.37 1396.93 1308.18 1401.49 Q1314 1406 1314 1413.72 Q1314 1419.11 1310.92 1422.84 Q1307.84 1426.53 1302.15 1427.96 Z" fill="#000000" fill-rule="nonzero" fill-opacity="1" /><path clip-path="url(#clip950)" d="M1350.89 1403.87 Q1344.12 1403.87 1340.69 1410.56 Q1337.31 1417.2 1337.31 1430.56 Q1337.31 1443.89 1340.69 1450.57 Q1344.12 1457.21 1350.89 1457.21 Q1357.7 1457.21 1361.09 1450.57 Q1364.52 1443.89 1364.52 1430.56 Q1364.52 1417.2 1361.09 1410.56 Q1357.7 1403.87 1350.89 1403.87 M1350.89 1396.93 Q1361.78 1396.93 1367.51 1405.57 Q1373.29 1414.16 1373.29 1430.56 Q1373.29 1446.93 1367.51 1455.56 Q1361.78 1464.16 1350.89 1464.16 Q1340 1464.16 1334.22 1455.56 Q1328.49 1446.93 1328.49 1430.56 Q1328.49 1414.16 1334.22 1405.57 Q1340 1396.93 1350.89 1396.93 Z" fill="#000000" fill-rule="nonzero" fill-opacity="1" /><path clip-path="url(#clip950)" d="M1407.44 1403.87 Q1400.67 1403.87 1397.24 1410.56 Q1393.86 1417.2 1393.86 1430.56 Q1393.86 1443.89 1397.24 1450.57 Q1400.67 1457.21 1407.44 1457.21 Q1414.26 1457.21 1417.64 1450.57 Q1421.07 1443.89 1421.07 1430.56 Q1421.07 1417.2 1417.64 1410.56 Q1414.26 1403.87 1407.44 1403.87 M1407.44 1396.93 Q1418.34 1396.93 1424.07 1405.57 Q1429.84 1414.16 1429.84 1430.56 Q1429.84 1446.93 1424.07 1455.56 Q1418.34 1464.16 1407.44 1464.16 Q1396.55 1464.16 1390.78 1455.56 Q1385.05 1446.93 1385.05 1430.56 Q1385.05 1414.16 1390.78 1405.57 Q1396.55 1396.93 1407.44 1396.93 Z" fill="#000000" fill-rule="nonzero" fill-opacity="1" /><path clip-path="url(#clip950)" d="M1464 1403.87 Q1457.23 1403.87 1453.8 1410.56 Q1450.41 1417.2 1450.41 1430.56 Q1450.41 1443.89 1453.8 1450.57 Q1457.23 1457.21 1464 1457.21 Q1470.81 1457.21 1474.2 1450.57 Q1477.63 1443.89 1477.63 1430.56 Q1477.63 1417.2 1474.2 1410.56 Q1470.81 1403.87 1464 1403.87 M1464 1396.93 Q1474.89 1396.93 1480.62 1405.57 Q1486.39 1414.16 1486.39 1430.56 Q1486.39 1446.93 1480.62 1455.56 Q1474.89 1464.16 1464 1464.16 Q1453.1 1464.16 1447.33 1455.56 Q1441.6 1446.93 1441.6 1430.56 Q1441.6 1414.16 1447.33 1405.57 Q1453.1 1396.93 1464 1396.93 Z" fill="#000000" fill-rule="nonzero" fill-opacity="1" /><path clip-path="url(#clip950)" d="M1690.14 1405.74 L1668.01 1440.33 L1690.14 1440.33 L1690.14 1405.74 M1687.84 1398.1 L1698.87 1398.1 L1698.87 1440.33 L1708.11 1440.33 L1708.11 1447.62 L1698.87 1447.62 L1698.87 1462.9 L1690.14 1462.9 L1690.14 1447.62 L1660.89 1447.62 L1660.89 1439.16 L1687.84 1398.1 Z" fill="#000000" fill-rule="nonzero" fill-opacity="1" /><path clip-path="url(#clip950)" d="M1741.36 1403.87 Q1734.59 1403.87 1731.16 1410.56 Q1727.77 1417.2 1727.77 1430.56 Q1727.77 1443.89 1731.16 1450.57 Q1734.59 1457.21 1741.36 1457.21 Q1748.17 1457.21 1751.56 1450.57 Q1754.99 1443.89 1754.99 1430.56 Q1754.99 1417.2 1751.56 1410.56 Q1748.17 1403.87 1741.36 1403.87 M1741.36 1396.93 Q1752.25 1396.93 1757.98 1405.57 Q1763.75 1414.16 1763.75 1430.56 Q1763.75 1446.93 1757.98 1455.56 Q1752.25 1464.16 1741.36 1464.16 Q1730.47 1464.16 1724.69 1455.56 Q1718.96 1446.93 1718.96 1430.56 Q1718.96 1414.16 1724.69 1405.57 Q1730.47 1396.93 1741.36 1396.93 Z" fill="#000000" fill-rule="nonzero" fill-opacity="1" /><path clip-path="url(#clip950)" d="M1797.91 1403.87 Q1791.14 1403.87 1787.71 1410.56 Q1784.33 1417.2 1784.33 1430.56 Q1784.33 1443.89 1787.71 1450.57 Q1791.14 1457.21 1797.91 1457.21 Q1804.73 1457.21 1808.11 1450.57 Q1811.54 1443.89 1811.54 1430.56 Q1811.54 1417.2 1808.11 1410.56 Q1804.73 1403.87 1797.91 1403.87 M1797.91 1396.93 Q1808.81 1396.93 1814.54 1405.57 Q1820.31 1414.16 1820.31 1430.56 Q1820.31 1446.93 1814.54 1455.56 Q1808.81 1464.16 1797.91 1464.16 Q1787.02 1464.16 1781.25 1455.56 Q1775.52 1446.93 1775.52 1430.56 Q1775.52 1414.16 1781.25 1405.57 Q1787.02 1396.93 1797.91 1396.93 Z" fill="#000000" fill-rule="nonzero" fill-opacity="1" /><path clip-path="url(#clip950)" d="M1854.47 1403.87 Q1847.7 1403.87 1844.27 1410.56 Q1840.88 1417.2 1840.88 1430.56 Q1840.88 1443.89 1844.27 1450.57 Q1847.7 1457.21 1854.47 1457.21 Q1861.28 1457.21 1864.67 1450.57 Q1868.09 1443.89 1868.09 1430.56 Q1868.09 1417.2 1864.67 1410.56 Q1861.28 1403.87 1854.47 1403.87 M1854.47 1396.93 Q1865.36 1396.93 1871.09 1405.57 Q1876.86 1414.16 1876.86 1430.56 Q1876.86 1446.93 1871.09 1455.56 Q1865.36 1464.16 1854.47 1464.16 Q1843.57 1464.16 1837.8 1455.56 Q1832.07 1446.93 1832.07 1430.56 Q1832.07 1414.16 1837.8 1405.57 Q1843.57 1396.93 1854.47 1396.93 Z" fill="#000000" fill-rule="nonzero" fill-opacity="1" /><path clip-path="url(#clip950)" d="M2054.14 1398.1 L2088.56 1398.1 L2088.56 1405.48 L2062.17 1405.48 L2062.17 1421.36 Q2064.08 1420.71 2065.99 1420.41 Q2067.9 1420.06 2069.81 1420.06 Q2080.66 1420.06 2086.99 1426.01 Q2093.33 1431.95 2093.33 1442.11 Q2093.33 1452.57 2086.82 1458.39 Q2080.31 1464.16 2068.46 1464.16 Q2064.38 1464.16 2060.13 1463.46 Q2055.92 1462.77 2051.4 1461.38 L2051.4 1452.57 Q2055.31 1454.7 2059.48 1455.74 Q2063.64 1456.78 2068.29 1456.78 Q2075.79 1456.78 2080.18 1452.83 Q2084.56 1448.88 2084.56 1442.11 Q2084.56 1435.34 2080.18 1431.39 Q2075.79 1427.44 2068.29 1427.44 Q2064.77 1427.44 2061.25 1428.22 Q2057.78 1429 2054.14 1430.65 L2054.14 1398.1 Z" fill="#000000" fill-rule="nonzero" fill-opacity="1" /><path clip-path="url(#clip950)" d="M2129.35 1403.87 Q2122.58 1403.87 2119.15 1410.56 Q2115.77 1417.2 2115.77 1430.56 Q2115.77 1443.89 2119.15 1450.57 Q2122.58 1457.21 2129.35 1457.21 Q2136.17 1457.21 2139.55 1450.57 Q2142.98 1443.89 2142.98 1430.56 Q2142.98 1417.2 2139.55 1410.56 Q2136.17 1403.87 2129.35 1403.87 M2129.35 1396.93 Q2140.25 1396.93 2145.98 1405.57 Q2151.75 1414.16 2151.75 1430.56 Q2151.75 1446.93 2145.98 1455.56 Q2140.25 1464.16 2129.35 1464.16 Q2118.46 1464.16 2112.69 1455.56 Q2106.96 1446.93 2106.96 1430.56 Q2106.96 1414.16 2112.69 1405.57 Q2118.46 1396.93 2129.35 1396.93 Z" fill="#000000" fill-rule="nonzero" fill-opacity="1" /><path clip-path="url(#clip950)" d="M2185.91 1403.87 Q2179.14 1403.87 2175.71 1410.56 Q2172.32 1417.2 2172.32 1430.56 Q2172.32 1443.89 2175.71 1450.57 Q2179.14 1457.21 2185.91 1457.21 Q2192.72 1457.21 2196.11 1450.57 Q2199.54 1443.89 2199.54 1430.56 Q2199.54 1417.2 2196.11 1410.56 Q2192.72 1403.87 2185.91 1403.87 M2185.91 1396.93 Q2196.8 1396.93 2202.53 1405.57 Q2208.3 1414.16 2208.3 1430.56 Q2208.3 1446.93 2202.53 1455.56 Q2196.8 1464.16 2185.91 1464.16 Q2175.01 1464.16 2169.24 1455.56 Q2163.51 1446.93 2163.51 1430.56 Q2163.51 1414.16 2169.24 1405.57 Q2175.01 1396.93 2185.91 1396.93 Z" fill="#000000" fill-rule="nonzero" fill-opacity="1" /><path clip-path="url(#clip950)" d="M2242.46 1403.87 Q2235.69 1403.87 2232.26 1410.56 Q2228.88 1417.2 2228.88 1430.56 Q2228.88 1443.89 2232.26 1450.57 Q2235.69 1457.21 2242.46 1457.21 Q2249.27 1457.21 2252.66 1450.57 Q2256.09 1443.89 2256.09 1430.56 Q2256.09 1417.2 2252.66 1410.56 Q2249.27 1403.87 2242.46 1403.87 M2242.46 1396.93 Q2253.35 1396.93 2259.08 1405.57 Q2264.86 1414.16 2264.86 1430.56 Q2264.86 1446.93 2259.08 1455.56 Q2253.35 1464.16 2242.46 1464.16 Q2231.57 1464.16 2225.79 1455.56 Q2220.06 1446.93 2220.06 1430.56 Q2220.06 1414.16 2225.79 1405.57 Q2231.57 1396.93 2242.46 1396.93 Z" fill="#000000" fill-rule="nonzero" fill-opacity="1" /><path clip-path="url(#clip950)" d="M1300.94 1521.82 L1286.67 1560.51 L1315.26 1560.51 L1300.94 1521.82 M1295 1511.45 L1306.93 1511.45 L1336.57 1589.21 L1325.63 1589.21 L1318.55 1569.26 L1283.49 1569.26 L1276.41 1589.21 L1265.32 1589.21 L1295 1511.45 Z" fill="#000000" fill-rule="nonzero" fill-opacity="1" /><path clip-path="url(#clip950)" d="M1328.86 1511.45 L1394.64 1511.45 L1394.64 1520.31 L1367.04 1520.31 L1367.04 1589.21 L1356.46 1589.21 L1356.46 1520.31 L1328.86 1520.31 L1328.86 1511.45 Z" fill="#000000" fill-rule="nonzero" fill-opacity="1" /><path clip-path="url(#clip950)" d="M1415.32 1520.1 L1415.32 1549.32 L1428.55 1549.32 Q1435.89 1549.32 1439.9 1545.51 Q1443.91 1541.71 1443.91 1534.68 Q1443.91 1527.7 1439.9 1523.9 Q1435.89 1520.1 1428.55 1520.1 L1415.32 1520.1 M1404.8 1511.45 L1428.55 1511.45 Q1441.62 1511.45 1448.29 1517.39 Q1455 1523.27 1455 1534.68 Q1455 1546.19 1448.29 1552.08 Q1441.62 1557.96 1428.55 1557.96 L1415.32 1557.96 L1415.32 1589.21 L1404.8 1589.21 L1404.8 1511.45 Z" fill="#000000" fill-rule="nonzero" fill-opacity="1" /><polyline clip-path="url(#clip952)" style="stroke:#000000; stroke-linecap:round; stroke-linejoin:round; stroke-width:2; stroke-opacity:0.1; fill:none" points="367.565,1076.72 2352.76,1076.72 "/>
<polyline clip-path="url(#clip952)" style="stroke:#000000; stroke-linecap:round; stroke-linejoin:round; stroke-width:2; stroke-opacity:0.1; fill:none" points="367.565,758.974 2352.76,758.974 "/>
<polyline clip-path="url(#clip952)" style="stroke:#000000; stroke-linecap:round; stroke-linejoin:round; stroke-width:2; stroke-opacity:0.1; fill:none" points="367.565,441.223 2352.76,441.223 "/>
<polyline clip-path="url(#clip952)" style="stroke:#000000; stroke-linecap:round; stroke-linejoin:round; stroke-width:2; stroke-opacity:0.1; fill:none" points="367.565,123.472 2352.76,123.472 "/>
<polyline clip-path="url(#clip950)" style="stroke:#000000; stroke-linecap:round; stroke-linejoin:round; stroke-width:4; stroke-opacity:1; fill:none" points="367.565,1362.7 367.565,123.472 "/>
<polyline clip-path="url(#clip950)" style="stroke:#000000; stroke-linecap:round; stroke-linejoin:round; stroke-width:4; stroke-opacity:1; fill:none" points="367.565,1076.72 386.463,1076.72 "/>
<polyline clip-path="url(#clip950)" style="stroke:#000000; stroke-linecap:round; stroke-linejoin:round; stroke-width:4; stroke-opacity:1; fill:none" points="367.565,758.974 386.463,758.974 "/>
<polyline clip-path="url(#clip950)" style="stroke:#000000; stroke-linecap:round; stroke-linejoin:round; stroke-width:4; stroke-opacity:1; fill:none" points="367.565,441.223 386.463,441.223 "/>
<polyline clip-path="url(#clip950)" style="stroke:#000000; stroke-linecap:round; stroke-linejoin:round; stroke-width:4; stroke-opacity:1; fill:none" points="367.565,123.472 386.463,123.472 "/>
<path clip-path="url(#clip950)" d="M170.108 1050.1 Q163.337 1050.1 159.908 1056.78 Q156.523 1063.42 156.523 1076.79 Q156.523 1090.11 159.908 1096.8 Q163.337 1103.44 170.108 1103.44 Q176.922 1103.44 180.307 1096.8 Q183.736 1090.11 183.736 1076.79 Q183.736 1063.42 180.307 1056.78 Q176.922 1050.1 170.108 1050.1 M170.108 1043.15 Q181.002 1043.15 186.731 1051.79 Q192.503 1060.38 192.503 1076.79 Q192.503 1093.15 186.731 1101.79 Q181.002 1110.38 170.108 1110.38 Q159.214 1110.38 153.441 1101.79 Q147.712 1093.15 147.712 1076.79 Q147.712 1060.38 153.441 1051.79 Q159.214 1043.15 170.108 1043.15 Z" fill="#000000" fill-rule="nonzero" fill-opacity="1" /><path clip-path="url(#clip950)" d="M207.911 1098.1 L217.069 1098.1 L217.069 1109.12 L207.911 1109.12 L207.911 1098.1 Z" fill="#000000" fill-rule="nonzero" fill-opacity="1" /><path clip-path="url(#clip950)" d="M254.916 1050.1 Q248.145 1050.1 244.717 1056.78 Q241.331 1063.42 241.331 1076.79 Q241.331 1090.11 244.717 1096.8 Q248.145 1103.44 254.916 1103.44 Q261.73 1103.44 265.116 1096.8 Q268.545 1090.11 268.545 1076.79 Q268.545 1063.42 265.116 1056.78 Q261.73 1050.1 254.916 1050.1 M254.916 1043.15 Q265.81 1043.15 271.539 1051.79 Q277.312 1060.38 277.312 1076.79 Q277.312 1093.15 271.539 1101.79 Q265.81 1110.38 254.916 1110.38 Q244.022 1110.38 238.25 1101.79 Q232.521 1093.15 232.521 1076.79 Q232.521 1060.38 238.25 1051.79 Q244.022 1043.15 254.916 1043.15 Z" fill="#000000" fill-rule="nonzero" fill-opacity="1" /><path clip-path="url(#clip950)" d="M294.239 1101.75 L308.562 1101.75 L308.562 1052.31 L292.98 1055.44 L292.98 1047.45 L308.475 1044.32 L317.242 1044.32 L317.242 1101.75 L331.565 1101.75 L331.565 1109.12 L294.239 1109.12 L294.239 1101.75 Z" fill="#000000" fill-rule="nonzero" fill-opacity="1" /><path clip-path="url(#clip950)" d="M170.802 732.346 Q164.031 732.346 160.603 739.03 Q157.217 745.671 157.217 759.039 Q157.217 772.363 160.603 779.047 Q164.031 785.688 170.802 785.688 Q177.616 785.688 181.002 779.047 Q184.43 772.363 184.43 759.039 Q184.43 745.671 181.002 739.03 Q177.616 732.346 170.802 732.346 M170.802 725.402 Q181.696 725.402 187.425 734.039 Q193.198 742.632 193.198 759.039 Q193.198 775.401 187.425 784.038 Q181.696 792.632 170.802 792.632 Q159.908 792.632 154.136 784.038 Q148.406 775.401 148.406 759.039 Q148.406 742.632 154.136 734.039 Q159.908 725.402 170.802 725.402 Z" fill="#000000" fill-rule="nonzero" fill-opacity="1" /><path clip-path="url(#clip950)" d="M208.606 780.349 L217.764 780.349 L217.764 791.374 L208.606 791.374 L208.606 780.349 Z" fill="#000000" fill-rule="nonzero" fill-opacity="1" /><path clip-path="url(#clip950)" d="M255.611 732.346 Q248.84 732.346 245.411 739.03 Q242.026 745.671 242.026 759.039 Q242.026 772.363 245.411 779.047 Q248.84 785.688 255.611 785.688 Q262.425 785.688 265.81 779.047 Q269.239 772.363 269.239 759.039 Q269.239 745.671 265.81 739.03 Q262.425 732.346 255.611 732.346 M255.611 725.402 Q266.505 725.402 272.234 734.039 Q278.006 742.632 278.006 759.039 Q278.006 775.401 272.234 784.038 Q266.505 792.632 255.611 792.632 Q244.717 792.632 238.944 784.038 Q233.215 775.401 233.215 759.039 Q233.215 742.632 238.944 734.039 Q244.717 725.402 255.611 725.402 Z" fill="#000000" fill-rule="nonzero" fill-opacity="1" /><path clip-path="url(#clip950)" d="M300.966 783.995 L331.565 783.995 L331.565 791.374 L290.42 791.374 L290.42 783.995 Q295.411 778.83 304.005 770.15 Q312.642 761.426 314.855 758.908 Q319.065 754.178 320.714 750.922 Q322.407 747.624 322.407 744.455 Q322.407 739.29 318.761 736.035 Q315.159 732.78 309.343 732.78 Q305.22 732.78 300.619 734.212 Q296.062 735.645 290.854 738.553 L290.854 729.699 Q296.149 727.572 300.749 726.487 Q305.35 725.402 309.169 725.402 Q319.239 725.402 325.228 730.436 Q331.218 735.471 331.218 743.891 Q331.218 747.884 329.699 751.487 Q328.223 755.046 324.273 759.907 Q323.188 761.165 317.372 767.198 Q311.557 773.188 300.966 783.995 Z" fill="#000000" fill-rule="nonzero" fill-opacity="1" /><path clip-path="url(#clip950)" d="M169.023 414.595 Q162.252 414.595 158.823 421.279 Q155.438 427.92 155.438 441.288 Q155.438 454.613 158.823 461.296 Q162.252 467.937 169.023 467.937 Q175.837 467.937 179.222 461.296 Q182.651 454.613 182.651 441.288 Q182.651 427.92 179.222 421.279 Q175.837 414.595 169.023 414.595 M169.023 407.651 Q179.917 407.651 185.646 416.288 Q191.418 424.882 191.418 441.288 Q191.418 457.651 185.646 466.288 Q179.917 474.881 169.023 474.881 Q158.129 474.881 152.356 466.288 Q146.627 457.651 146.627 441.288 Q146.627 424.882 152.356 416.288 Q158.129 407.651 169.023 407.651 Z" fill="#000000" fill-rule="nonzero" fill-opacity="1" /><path clip-path="url(#clip950)" d="M206.826 462.599 L215.984 462.599 L215.984 473.623 L206.826 473.623 L206.826 462.599 Z" fill="#000000" fill-rule="nonzero" fill-opacity="1" /><path clip-path="url(#clip950)" d="M253.831 414.595 Q247.06 414.595 243.632 421.279 Q240.246 427.92 240.246 441.288 Q240.246 454.613 243.632 461.296 Q247.06 467.937 253.831 467.937 Q260.645 467.937 264.031 461.296 Q267.46 454.613 267.46 441.288 Q267.46 427.92 264.031 421.279 Q260.645 414.595 253.831 414.595 M253.831 407.651 Q264.725 407.651 270.454 416.288 Q276.227 424.882 276.227 441.288 Q276.227 457.651 270.454 466.288 Q264.725 474.881 253.831 474.881 Q242.937 474.881 237.165 466.288 Q231.435 457.651 231.435 441.288 Q231.435 424.882 237.165 416.288 Q242.937 407.651 253.831 407.651 Z" fill="#000000" fill-rule="nonzero" fill-opacity="1" /><path clip-path="url(#clip950)" d="M318.197 438.684 Q324.491 440.029 328.006 444.283 Q331.565 448.536 331.565 454.786 Q331.565 464.378 324.968 469.63 Q318.371 474.881 306.218 474.881 Q302.138 474.881 297.798 474.057 Q293.501 473.276 288.9 471.67 L288.9 463.206 Q292.546 465.333 296.886 466.418 Q301.227 467.503 305.958 467.503 Q314.204 467.503 318.501 464.248 Q322.841 460.993 322.841 454.786 Q322.841 449.057 318.805 445.845 Q314.812 442.59 307.65 442.59 L300.098 442.59 L300.098 435.385 L307.998 435.385 Q314.465 435.385 317.893 432.824 Q321.322 430.22 321.322 425.359 Q321.322 420.368 317.763 417.72 Q314.248 415.029 307.65 415.029 Q304.048 415.029 299.925 415.811 Q295.801 416.592 290.854 418.241 L290.854 410.429 Q295.845 409.04 300.185 408.345 Q304.569 407.651 308.432 407.651 Q318.414 407.651 324.23 412.208 Q330.046 416.722 330.046 424.448 Q330.046 429.83 326.964 433.562 Q323.883 437.251 318.197 438.684 Z" fill="#000000" fill-rule="nonzero" fill-opacity="1" /><path clip-path="url(#clip950)" d="M166.896 96.8447 Q160.125 96.8447 156.696 103.529 Q153.311 110.169 153.311 123.537 Q153.311 136.862 156.696 143.546 Q160.125 150.186 166.896 150.186 Q173.71 150.186 177.095 143.546 Q180.524 136.862 180.524 123.537 Q180.524 110.169 177.095 103.529 Q173.71 96.8447 166.896 96.8447 M166.896 89.9003 Q177.79 89.9003 183.519 98.5374 Q189.292 107.131 189.292 123.537 Q189.292 139.9 183.519 148.537 Q177.79 157.131 166.896 157.131 Q156.002 157.131 150.229 148.537 Q144.5 139.9 144.5 123.537 Q144.5 107.131 150.229 98.5374 Q156.002 89.9003 166.896 89.9003 Z" fill="#000000" fill-rule="nonzero" fill-opacity="1" /><path clip-path="url(#clip950)" d="M204.699 144.848 L213.857 144.848 L213.857 155.872 L204.699 155.872 L204.699 144.848 Z" fill="#000000" fill-rule="nonzero" fill-opacity="1" /><path clip-path="url(#clip950)" d="M251.704 96.8447 Q244.934 96.8447 241.505 103.529 Q238.119 110.169 238.119 123.537 Q238.119 136.862 241.505 143.546 Q244.934 150.186 251.704 150.186 Q258.519 150.186 261.904 143.546 Q265.333 136.862 265.333 123.537 Q265.333 110.169 261.904 103.529 Q258.519 96.8447 251.704 96.8447 M251.704 89.9003 Q262.598 89.9003 268.328 98.5374 Q274.1 107.131 274.1 123.537 Q274.1 139.9 268.328 148.537 Q262.598 157.131 251.704 157.131 Q240.81 157.131 235.038 148.537 Q229.309 139.9 229.309 123.537 Q229.309 107.131 235.038 98.5374 Q240.81 89.9003 251.704 89.9003 Z" fill="#000000" fill-rule="nonzero" fill-opacity="1" /><path clip-path="url(#clip950)" d="M313.596 98.711 L291.461 133.303 L313.596 133.303 L313.596 98.711 M311.296 91.0721 L322.32 91.0721 L322.32 133.303 L331.565 133.303 L331.565 140.594 L322.32 140.594 L322.32 155.872 L313.596 155.872 L313.596 140.594 L284.343 140.594 L284.343 132.131 L311.296 91.0721 Z" fill="#000000" fill-rule="nonzero" fill-opacity="1" /><path clip-path="url(#clip950)" d="M13.2455 741.628 L85.1722 714.701 L85.1722 724.857 L42.0474 741.211 L85.1722 761.315 L85.1722 771.471 L29.235 745.898 L18.9225 749.753 Q12.36 752.201 12.36 757.773 L12.36 762.773 L4.13093 762.773 L4.23509 756.68 Q4.39134 744.909 13.2455 741.628 Z" fill="#000000" fill-rule="nonzero" fill-opacity="1" /><path clip-path="url(#clip950)" d="M726.052 28.9478 L726.052 35.9153 Q722.893 34.1734 719.692 33.3227 Q716.533 32.4315 713.292 32.4315 Q706.041 32.4315 702.03 37.0496 Q698.02 41.6271 698.02 49.9314 Q698.02 58.2358 702.03 62.8538 Q706.041 67.4314 713.292 67.4314 Q716.533 67.4314 719.692 66.5807 Q722.893 65.6895 726.052 63.9476 L726.052 70.8341 Q722.933 72.2924 719.571 73.0216 Q716.249 73.7508 712.482 73.7508 Q702.233 73.7508 696.197 67.3098 Q690.161 60.8689 690.161 49.9314 Q690.161 38.832 696.238 32.472 Q702.354 26.1121 712.968 26.1121 Q716.411 26.1121 719.692 26.8413 Q722.974 27.5299 726.052 28.9478 Z" fill="#000000" fill-rule="nonzero" fill-opacity="1" /><path clip-path="url(#clip950)" d="M776.729 45.1919 L776.729 72.576 L769.275 72.576 L769.275 45.4349 Q769.275 38.994 766.764 35.7938 Q764.252 32.5936 759.229 32.5936 Q753.193 32.5936 749.71 36.4419 Q746.226 40.2903 746.226 46.9338 L746.226 72.576 L738.732 72.576 L738.732 9.54393 L746.226 9.54393 L746.226 34.2544 Q748.899 30.163 752.505 28.1376 Q756.15 26.1121 760.89 26.1121 Q768.708 26.1121 772.719 30.9732 Q776.729 35.7938 776.729 45.1919 Z" fill="#000000" fill-rule="nonzero" fill-opacity="1" /><path clip-path="url(#clip950)" d="M812.215 49.7694 Q803.181 49.7694 799.698 51.8354 Q796.214 53.9013 796.214 58.8839 Q796.214 62.8538 798.806 65.2034 Q801.44 67.5124 805.936 67.5124 Q812.134 67.5124 815.861 63.1374 Q819.628 58.7219 819.628 51.4303 L819.628 49.7694 L812.215 49.7694 M827.082 46.6907 L827.082 72.576 L819.628 72.576 L819.628 65.6895 Q817.076 69.8214 813.268 71.8063 Q809.46 73.7508 803.951 73.7508 Q796.984 73.7508 792.852 69.8619 Q788.76 65.9325 788.76 59.3701 Q788.76 51.7138 793.864 47.825 Q799.009 43.9361 809.177 43.9361 L819.628 43.9361 L819.628 43.2069 Q819.628 38.0623 816.225 35.2672 Q812.863 32.4315 806.746 32.4315 Q802.857 32.4315 799.171 33.3632 Q795.485 34.295 792.082 36.1584 L792.082 29.2718 Q796.173 27.692 800.022 26.9223 Q803.87 26.1121 807.516 26.1121 Q817.36 26.1121 822.221 31.2163 Q827.082 36.3204 827.082 46.6907 Z" fill="#000000" fill-rule="nonzero" fill-opacity="1" /><path clip-path="url(#clip950)" d="M880.149 45.1919 L880.149 72.576 L872.695 72.576 L872.695 45.4349 Q872.695 38.994 870.183 35.7938 Q867.672 32.5936 862.649 32.5936 Q856.613 32.5936 853.129 36.4419 Q849.645 40.2903 849.645 46.9338 L849.645 72.576 L842.151 72.576 L842.151 27.2059 L849.645 27.2059 L849.645 34.2544 Q852.319 30.163 855.924 28.1376 Q859.57 26.1121 864.31 26.1121 Q872.128 26.1121 876.138 30.9732 Q880.149 35.7938 880.149 45.1919 Z" fill="#000000" fill-rule="nonzero" fill-opacity="1" /><path clip-path="url(#clip950)" d="M924.871 49.3643 Q924.871 41.2625 921.508 36.8065 Q918.187 32.3505 912.151 32.3505 Q906.155 32.3505 902.793 36.8065 Q899.471 41.2625 899.471 49.3643 Q899.471 57.4256 902.793 61.8816 Q906.155 66.3376 912.151 66.3376 Q918.187 66.3376 921.508 61.8816 Q924.871 57.4256 924.871 49.3643 M932.324 66.9452 Q932.324 78.5308 927.18 84.1616 Q922.035 89.8329 911.422 89.8329 Q907.492 89.8329 904.008 89.2252 Q900.525 88.6581 897.243 87.4428 L897.243 80.1917 Q900.525 81.9741 903.725 82.8248 Q906.925 83.6755 910.247 83.6755 Q917.579 83.6755 921.225 79.8271 Q924.871 76.0193 924.871 68.282 L924.871 64.5957 Q922.562 68.6061 918.956 70.5911 Q915.351 72.576 910.328 72.576 Q901.983 72.576 896.879 66.2161 Q891.775 59.8562 891.775 49.3643 Q891.775 38.832 896.879 32.472 Q901.983 26.1121 910.328 26.1121 Q915.351 26.1121 918.956 28.0971 Q922.562 30.082 924.871 34.0924 L924.871 27.2059 L932.324 27.2059 L932.324 66.9452 Z" fill="#000000" fill-rule="nonzero" fill-opacity="1" /><path clip-path="url(#clip950)" d="M947.677 27.2059 L955.131 27.2059 L955.131 72.576 L947.677 72.576 L947.677 27.2059 M947.677 9.54393 L955.131 9.54393 L955.131 18.9825 L947.677 18.9825 L947.677 9.54393 Z" fill="#000000" fill-rule="nonzero" fill-opacity="1" /><path clip-path="url(#clip950)" d="M1008.44 45.1919 L1008.44 72.576 L1000.99 72.576 L1000.99 45.4349 Q1000.99 38.994 998.476 35.7938 Q995.964 32.5936 990.941 32.5936 Q984.905 32.5936 981.421 36.4419 Q977.937 40.2903 977.937 46.9338 L977.937 72.576 L970.443 72.576 L970.443 27.2059 L977.937 27.2059 L977.937 34.2544 Q980.611 30.163 984.216 28.1376 Q987.862 26.1121 992.602 26.1121 Q1000.42 26.1121 1004.43 30.9732 Q1008.44 35.7938 1008.44 45.1919 Z" fill="#000000" fill-rule="nonzero" fill-opacity="1" /><path clip-path="url(#clip950)" d="M1053.16 49.3643 Q1053.16 41.2625 1049.8 36.8065 Q1046.48 32.3505 1040.44 32.3505 Q1034.45 32.3505 1031.09 36.8065 Q1027.76 41.2625 1027.76 49.3643 Q1027.76 57.4256 1031.09 61.8816 Q1034.45 66.3376 1040.44 66.3376 Q1046.48 66.3376 1049.8 61.8816 Q1053.16 57.4256 1053.16 49.3643 M1060.62 66.9452 Q1060.62 78.5308 1055.47 84.1616 Q1050.33 89.8329 1039.71 89.8329 Q1035.78 89.8329 1032.3 89.2252 Q1028.82 88.6581 1025.54 87.4428 L1025.54 80.1917 Q1028.82 81.9741 1032.02 82.8248 Q1035.22 83.6755 1038.54 83.6755 Q1045.87 83.6755 1049.52 79.8271 Q1053.16 76.0193 1053.16 68.282 L1053.16 64.5957 Q1050.85 68.6061 1047.25 70.5911 Q1043.64 72.576 1038.62 72.576 Q1030.28 72.576 1025.17 66.2161 Q1020.07 59.8562 1020.07 49.3643 Q1020.07 38.832 1025.17 32.472 Q1030.28 26.1121 1038.62 26.1121 Q1043.64 26.1121 1047.25 28.0971 Q1050.85 30.082 1053.16 34.0924 L1053.16 27.2059 L1060.62 27.2059 L1060.62 66.9452 Z" fill="#000000" fill-rule="nonzero" fill-opacity="1" /><path clip-path="url(#clip950)" d="M1116.8 73.7508 Q1099.99 73.7508 1099.99 49.6884 Q1099.99 40.1688 1106.27 27.2059 L1114.29 27.2059 Q1108.5 40.1688 1108.5 49.8909 Q1108.5 67.4314 1117.49 67.4314 Q1125.71 67.4314 1125.71 45.6375 L1132.6 45.6375 Q1132.6 67.4314 1140.82 67.4314 Q1149.82 67.4314 1149.82 49.8909 Q1149.82 40.1688 1144.02 27.2059 L1152.05 27.2059 Q1158.32 40.1688 1158.32 49.6884 Q1158.32 73.7508 1141.51 73.7508 Q1130.49 73.7508 1129.16 61.6386 Q1127.5 73.7508 1116.8 73.7508 Z" fill="#000000" fill-rule="nonzero" fill-opacity="1" /><path clip-path="url(#clip950)" d="M1206.29 86.3491 L1206.29 92.1419 L1163.19 92.1419 L1163.19 86.3491 L1206.29 86.3491 Z" fill="#000000" fill-rule="nonzero" fill-opacity="1" /><path clip-path="url(#clip950)" d="M1233.91 49.7694 Q1224.88 49.7694 1221.4 51.8354 Q1217.91 53.9013 1217.91 58.8839 Q1217.91 62.8538 1220.51 65.2034 Q1223.14 67.5124 1227.64 67.5124 Q1233.83 67.5124 1237.56 63.1374 Q1241.33 58.7219 1241.33 51.4303 L1241.33 49.7694 L1233.91 49.7694 M1248.78 46.6907 L1248.78 72.576 L1241.33 72.576 L1241.33 65.6895 Q1238.78 69.8214 1234.97 71.8063 Q1231.16 73.7508 1225.65 73.7508 Q1218.68 73.7508 1214.55 69.8619 Q1210.46 65.9325 1210.46 59.3701 Q1210.46 51.7138 1215.56 47.825 Q1220.71 43.9361 1230.88 43.9361 L1241.33 43.9361 L1241.33 43.2069 Q1241.33 38.0623 1237.92 35.2672 Q1234.56 32.4315 1228.45 32.4315 Q1224.56 32.4315 1220.87 33.3632 Q1217.18 34.295 1213.78 36.1584 L1213.78 29.2718 Q1217.87 27.692 1221.72 26.9223 Q1225.57 26.1121 1229.22 26.1121 Q1239.06 26.1121 1243.92 31.2163 Q1248.78 36.3204 1248.78 46.6907 Z" fill="#000000" fill-rule="nonzero" fill-opacity="1" /><path clip-path="url(#clip950)" d="M1296.7 49.9314 Q1296.7 41.7081 1293.3 37.0496 Q1289.94 32.3505 1284.02 32.3505 Q1278.11 32.3505 1274.71 37.0496 Q1271.34 41.7081 1271.34 49.9314 Q1271.34 58.1548 1274.71 62.8538 Q1278.11 67.5124 1284.02 67.5124 Q1289.94 67.5124 1293.3 62.8538 Q1296.7 58.1548 1296.7 49.9314 M1271.34 34.0924 Q1273.69 30.0415 1277.26 28.0971 Q1280.86 26.1121 1285.85 26.1121 Q1294.11 26.1121 1299.26 32.6746 Q1304.44 39.2371 1304.44 49.9314 Q1304.44 60.6258 1299.26 67.1883 Q1294.11 73.7508 1285.85 73.7508 Q1280.86 73.7508 1277.26 71.8063 Q1273.69 69.8214 1271.34 65.7705 L1271.34 72.576 L1263.85 72.576 L1263.85 9.54393 L1271.34 9.54393 L1271.34 34.0924 Z" fill="#000000" fill-rule="nonzero" fill-opacity="1" /><path clip-path="url(#clip950)" d="M1338.83 27.2059 L1346.29 27.2059 L1355.6 62.6108 L1364.88 27.2059 L1373.67 27.2059 L1382.99 62.6108 L1392.26 27.2059 L1399.72 27.2059 L1387.85 72.576 L1379.06 72.576 L1369.3 35.3887 L1359.49 72.576 L1350.7 72.576 L1338.83 27.2059 Z" fill="#000000" fill-rule="nonzero" fill-opacity="1" /><path clip-path="url(#clip950)" d="M1448.73 45.1919 L1448.73 72.576 L1441.28 72.576 L1441.28 45.4349 Q1441.28 38.994 1438.77 35.7938 Q1436.26 32.5936 1431.23 32.5936 Q1425.2 32.5936 1421.71 36.4419 Q1418.23 40.2903 1418.23 46.9338 L1418.23 72.576 L1410.74 72.576 L1410.74 9.54393 L1418.23 9.54393 L1418.23 34.2544 Q1420.9 30.163 1424.51 28.1376 Q1428.15 26.1121 1432.89 26.1121 Q1440.71 26.1121 1444.72 30.9732 Q1448.73 35.7938 1448.73 45.1919 Z" fill="#000000" fill-rule="nonzero" fill-opacity="1" /><path clip-path="url(#clip950)" d="M1502.41 48.0275 L1502.41 51.6733 L1468.14 51.6733 Q1468.62 59.3701 1472.76 63.421 Q1476.93 67.4314 1484.34 67.4314 Q1488.63 67.4314 1492.65 66.3781 Q1496.7 65.3249 1500.67 63.2184 L1500.67 70.267 Q1496.66 71.9684 1492.44 72.8596 Q1488.23 73.7508 1483.9 73.7508 Q1473.04 73.7508 1466.68 67.4314 Q1460.36 61.1119 1460.36 50.3365 Q1460.36 39.1965 1466.35 32.6746 Q1472.39 26.1121 1482.6 26.1121 Q1491.75 26.1121 1497.06 32.0264 Q1502.41 37.9003 1502.41 48.0275 M1494.95 45.84 Q1494.87 39.7232 1491.51 36.0774 Q1488.19 32.4315 1482.68 32.4315 Q1476.44 32.4315 1472.67 35.9558 Q1468.95 39.4801 1468.38 45.8805 L1494.95 45.84 Z" fill="#000000" fill-rule="nonzero" fill-opacity="1" /><path clip-path="url(#clip950)" d="M1552.36 45.1919 L1552.36 72.576 L1544.9 72.576 L1544.9 45.4349 Q1544.9 38.994 1542.39 35.7938 Q1539.88 32.5936 1534.86 32.5936 Q1528.82 32.5936 1525.34 36.4419 Q1521.85 40.2903 1521.85 46.9338 L1521.85 72.576 L1514.36 72.576 L1514.36 27.2059 L1521.85 27.2059 L1521.85 34.2544 Q1524.53 30.163 1528.13 28.1376 Q1531.78 26.1121 1536.52 26.1121 Q1544.33 26.1121 1548.35 30.9732 Q1552.36 35.7938 1552.36 45.1919 Z" fill="#000000" fill-rule="nonzero" fill-opacity="1" /><path clip-path="url(#clip950)" d="M1608.06 73.7508 Q1591.24 73.7508 1591.24 49.6884 Q1591.24 40.1688 1597.52 27.2059 L1605.54 27.2059 Q1599.75 40.1688 1599.75 49.8909 Q1599.75 67.4314 1608.74 67.4314 Q1616.97 67.4314 1616.97 45.6375 L1623.85 45.6375 Q1623.85 67.4314 1632.08 67.4314 Q1641.07 67.4314 1641.07 49.8909 Q1641.07 40.1688 1635.28 27.2059 L1643.3 27.2059 Q1649.58 40.1688 1649.58 49.6884 Q1649.58 73.7508 1632.77 73.7508 Q1621.75 73.7508 1620.41 61.6386 Q1618.75 73.7508 1608.06 73.7508 Z" fill="#000000" fill-rule="nonzero" fill-opacity="1" /><path clip-path="url(#clip950)" d="M1697.54 86.3491 L1697.54 92.1419 L1654.44 92.1419 L1654.44 86.3491 L1697.54 86.3491 Z" fill="#000000" fill-rule="nonzero" fill-opacity="1" /><path clip-path="url(#clip950)" d="M1730.84 34.1734 Q1729.58 33.4443 1728.08 33.1202 Q1726.63 32.7556 1724.84 32.7556 Q1718.52 32.7556 1715.12 36.8875 Q1711.76 40.9789 1711.76 48.6757 L1711.76 72.576 L1704.26 72.576 L1704.26 27.2059 L1711.76 27.2059 L1711.76 34.2544 Q1714.11 30.1225 1717.88 28.1376 Q1721.64 26.1121 1727.03 26.1121 Q1727.8 26.1121 1728.73 26.2337 Q1729.66 26.3147 1730.8 26.5172 L1730.84 34.1734 Z" fill="#000000" fill-rule="nonzero" fill-opacity="1" /><path clip-path="url(#clip950)" d="M1766 34.9026 L1817.93 34.9026 L1817.93 41.7081 L1766 41.7081 L1766 34.9026 M1766 51.4303 L1817.93 51.4303 L1817.93 58.3168 L1766 58.3168 L1766 51.4303 Z" fill="#000000" fill-rule="nonzero" fill-opacity="1" /><path clip-path="url(#clip950)" d="M1879.47 17.4837 Q1873.15 17.4837 1869.95 23.7221 Q1866.79 29.92 1866.79 42.3968 Q1866.79 54.833 1869.95 61.0714 Q1873.15 67.2693 1879.47 67.2693 Q1885.83 67.2693 1888.99 61.0714 Q1892.19 54.833 1892.19 42.3968 Q1892.19 29.92 1888.99 23.7221 Q1885.83 17.4837 1879.47 17.4837 M1879.47 11.0023 Q1889.63 11.0023 1894.98 19.0636 Q1900.37 27.0843 1900.37 42.3968 Q1900.37 57.6687 1894.98 65.73 Q1889.63 73.7508 1879.47 73.7508 Q1869.3 73.7508 1863.91 65.73 Q1858.56 57.6687 1858.56 42.3968 Q1858.56 27.0843 1863.91 19.0636 Q1869.3 11.0023 1879.47 11.0023 Z" fill="#000000" fill-rule="nonzero" fill-opacity="1" /><path clip-path="url(#clip950)" d="M1914.75 62.2867 L1923.3 62.2867 L1923.3 72.576 L1914.75 72.576 L1914.75 62.2867 Z" fill="#000000" fill-rule="nonzero" fill-opacity="1" /><path clip-path="url(#clip950)" d="M1958.62 17.4837 Q1952.3 17.4837 1949.1 23.7221 Q1945.94 29.92 1945.94 42.3968 Q1945.94 54.833 1949.1 61.0714 Q1952.3 67.2693 1958.62 67.2693 Q1964.98 67.2693 1968.14 61.0714 Q1971.34 54.833 1971.34 42.3968 Q1971.34 29.92 1968.14 23.7221 Q1964.98 17.4837 1958.62 17.4837 M1958.62 11.0023 Q1968.79 11.0023 1974.14 19.0636 Q1979.52 27.0843 1979.52 42.3968 Q1979.52 57.6687 1974.14 65.73 Q1968.79 73.7508 1958.62 73.7508 Q1948.45 73.7508 1943.07 65.73 Q1937.72 57.6687 1937.72 42.3968 Q1937.72 27.0843 1943.07 19.0636 Q1948.45 11.0023 1958.62 11.0023 Z" fill="#000000" fill-rule="nonzero" fill-opacity="1" /><path clip-path="url(#clip950)" d="M1995.32 65.6895 L2008.69 65.6895 L2008.69 19.5497 L1994.15 22.4663 L1994.15 15.0127 L2008.61 12.096 L2016.79 12.096 L2016.79 65.6895 L2030.16 65.6895 L2030.16 72.576 L1995.32 72.576 L1995.32 65.6895 Z" fill="#000000" fill-rule="nonzero" fill-opacity="1" /><path clip-path="url(#clip952)" d="M367.565 1262.56 L387.618 1250.04 L407.67 1250.04 L427.722 1237.53 L447.775 1237.53 L467.827 1225.01 L487.88 1225.01 L507.932 1225.01 L527.985 1225.01 L548.037 1212.49 L568.089 1212.49 L588.142 1212.49 L608.194 1212.49 L628.247 1199.97 L648.299 1199.97 L668.352 1199.97 L688.404 1199.97 L708.456 1199.97 L728.509 1199.97 L748.561 1199.97 L768.614 1187.46 L788.666 1187.46 L808.719 1187.46 L828.771 1187.46 L848.823 1187.46 L868.876 1187.46 L888.928 1187.46 L908.981 1187.46 L929.033 1187.46 L949.086 1187.46 L969.138 1187.46 L989.191 1174.94 L1009.24 1174.94 L1029.3 1174.94 L1049.35 1174.94 L1069.4 1174.94 L1089.45 1174.94 L1109.51 1174.94 L1129.56 1174.94 L1149.61 1174.94 L1169.66 1174.94 L1189.71 1174.94 L1209.77 1174.94 L1229.82 1174.94 L1249.87 1174.94 L1269.92 1174.94 L1289.98 1174.94 L1310.03 1174.94 L1330.08 1174.94 L1350.13 1174.94 L1370.19 1174.94 L1390.24 1174.94 L1410.29 1174.94 L1430.34 1174.94 L1450.4 1162.42 L1470.45 1162.42 L1490.5 1162.42 L1510.55 1162.42 L1530.61 1162.42 L1550.66 1162.42 L1570.71 1162.42 L1590.76 1162.42 L1610.82 1162.42 L1630.87 1162.42 L1650.92 1162.42 L1670.97 1162.42 L1691.03 1162.42 L1711.08 1162.42 L1731.13 1162.42 L1751.18 1162.42 L1771.24 1162.42 L1791.29 1162.42 L1811.34 1162.42 L1831.39 1162.42 L1851.45 1162.42 L1871.5 1162.42 L1891.55 1162.42 L1911.6 1162.42 L1931.65 1162.42 L1951.71 1162.42 L1971.76 1162.42 L1991.81 1162.42 L2011.86 1162.42 L2031.92 1162.42 L2051.97 1162.42 L2072.02 1162.42 L2092.07 1162.42 L2112.13 1162.42 L2132.18 1162.42 L2152.23 1162.42 L2172.28 1162.42 L2192.34 1162.42 L2212.39 1162.42 L2232.44 1162.42 L2252.49 1162.42 L2272.55 1162.42 L2292.6 1162.42 L2312.65 1162.42 L2332.7 1162.42 L2352.76 1162.42 L2352.76 1275.08 L2332.7 1275.08 L2312.65 1275.08 L2292.6 1275.08 L2272.55 1275.08 L2252.49 1275.08 L2232.44 1275.08 L2212.39 1275.08 L2192.34 1275.08 L2172.28 1275.08 L2152.23 1275.08 L2132.18 1275.08 L2112.13 1275.08 L2092.07 1275.08 L2072.02 1275.08 L2051.97 1275.08 L2031.92 1275.08 L2011.86 1275.08 L1991.81 1275.08 L1971.76 1275.08 L1951.71 1275.08 L1931.65 1275.08 L1911.6 1275.08 L1891.55 1275.08 L1871.5 1275.08 L1851.45 1275.08 L1831.39 1275.08 L1811.34 1275.08 L1791.29 1275.08 L1771.24 1275.08 L1751.18 1275.08 L1731.13 1275.08 L1711.08 1275.08 L1691.03 1275.08 L1670.97 1275.08 L1650.92 1275.08 L1630.87 1275.08 L1610.82 1275.08 L1590.76 1275.08 L1570.71 1275.08 L1550.66 1275.08 L1530.61 1275.08 L1510.55 1275.08 L1490.5 1275.08 L1470.45 1275.08 L1450.4 1275.08 L1430.34 1275.08 L1410.29 1275.08 L1390.24 1275.08 L1370.19 1275.08 L1350.13 1275.08 L1330.08 1275.08 L1310.03 1275.08 L1289.98 1275.08 L1269.92 1275.08 L1249.87 1287.6 L1229.82 1287.6 L1209.77 1287.6 L1189.71 1287.6 L1169.66 1287.6 L1149.61 1287.6 L1129.56 1287.6 L1109.51 1287.6 L1089.45 1287.6 L1069.4 1287.6 L1049.35 1287.6 L1029.3 1287.6 L1009.24 1287.6 L989.191 1287.6 L969.138 1287.6 L949.086 1287.6 L929.033 1287.6 L908.981 1287.6 L888.928 1287.6 L868.876 1287.6 L848.823 1287.6 L828.771 1287.6 L808.719 1287.6 L788.666 1287.6 L768.614 1287.6 L748.561 1300.11 L728.509 1300.11 L708.456 1300.11 L688.404 1300.11 L668.352 1300.11 L648.299 1300.11 L628.247 1300.11 L608.194 1300.11 L588.142 1300.11 L568.089 1300.11 L548.037 1312.63 L527.985 1312.63 L507.932 1312.63 L487.88 1312.63 L467.827 1312.63 L447.775 1325.15 L427.722 1325.15 L407.67 1325.15 L387.618 1325.15 L367.565 1337.66  Z" fill="#1f77b4" fill-rule="evenodd" fill-opacity="0.45"/>
<polyline clip-path="url(#clip952)" style="stroke:#1f77b4; stroke-linecap:round; stroke-linejoin:round; stroke-width:4; stroke-opacity:1; fill:none" points="367.565,1262.56 387.618,1250.04 407.67,1250.04 427.722,1237.53 447.775,1237.53 467.827,1225.01 487.88,1225.01 507.932,1225.01 527.985,1225.01 548.037,1212.49 568.089,1212.49 588.142,1212.49 608.194,1212.49 628.247,1199.97 648.299,1199.97 668.352,1199.97 688.404,1199.97 708.456,1199.97 728.509,1199.97 748.561,1199.97 768.614,1187.46 788.666,1187.46 808.719,1187.46 828.771,1187.46 848.823,1187.46 868.876,1187.46 888.928,1187.46 908.981,1187.46 929.033,1187.46 949.086,1187.46 969.138,1187.46 989.191,1174.94 1009.24,1174.94 1029.3,1174.94 1049.35,1174.94 1069.4,1174.94 1089.45,1174.94 1109.51,1174.94 1129.56,1174.94 1149.61,1174.94 1169.66,1174.94 1189.71,1174.94 1209.77,1174.94 1229.82,1174.94 1249.87,1174.94 1269.92,1174.94 1289.98,1174.94 1310.03,1174.94 1330.08,1174.94 1350.13,1174.94 1370.19,1174.94 1390.24,1174.94 1410.29,1174.94 1430.34,1174.94 1450.4,1162.42 1470.45,1162.42 1490.5,1162.42 1510.55,1162.42 1530.61,1162.42 1550.66,1162.42 1570.71,1162.42 1590.76,1162.42 1610.82,1162.42 1630.87,1162.42 1650.92,1162.42 1670.97,1162.42 1691.03,1162.42 1711.08,1162.42 1731.13,1162.42 1751.18,1162.42 1771.24,1162.42 1791.29,1162.42 1811.34,1162.42 1831.39,1162.42 1851.45,1162.42 1871.5,1162.42 1891.55,1162.42 1911.6,1162.42 1931.65,1162.42 1951.71,1162.42 1971.76,1162.42 1991.81,1162.42 2011.86,1162.42 2031.92,1162.42 2051.97,1162.42 2072.02,1162.42 2092.07,1162.42 2112.13,1162.42 2132.18,1162.42 2152.23,1162.42 2172.28,1162.42 2192.34,1162.42 2212.39,1162.42 2232.44,1162.42 2252.49,1162.42 2272.55,1162.42 2292.6,1162.42 2312.65,1162.42 2332.7,1162.42 2352.76,1162.42 "/>
<path clip-path="url(#clip952)" d="M367.565 1187.46 L387.618 1174.94 L407.67 1162.42 L427.722 1149.9 L447.775 1137.39 L467.827 1137.39 L487.88 1124.87 L507.932 1124.87 L527.985 1112.35 L548.037 1112.35 L568.089 1099.83 L588.142 1099.83 L608.194 1099.83 L628.247 1087.32 L648.299 1087.32 L668.352 1087.32 L688.404 1087.32 L708.456 1074.8 L728.509 1074.8 L748.561 1074.8 L768.614 1074.8 L788.666 1074.8 L808.719 1062.28 L828.771 1062.28 L848.823 1062.28 L868.876 1062.28 L888.928 1062.28 L908.981 1062.28 L929.033 1062.28 L949.086 1062.28 L969.138 1049.76 L989.191 1049.76 L1009.24 1049.76 L1029.3 1049.76 L1049.35 1049.76 L1069.4 1049.76 L1089.45 1049.76 L1109.51 1049.76 L1129.56 1049.76 L1149.61 1049.76 L1169.66 1049.76 L1189.71 1049.76 L1209.77 1037.25 L1229.82 1037.25 L1249.87 1037.25 L1269.92 1037.25 L1289.98 1037.25 L1310.03 1037.25 L1330.08 1037.25 L1350.13 1037.25 L1370.19 1037.25 L1390.24 1037.25 L1410.29 1037.25 L1430.34 1037.25 L1450.4 1037.25 L1470.45 1037.25 L1490.5 1037.25 L1510.55 1037.25 L1530.61 1037.25 L1550.66 1037.25 L1570.71 1037.25 L1590.76 1037.25 L1610.82 1037.25 L1630.87 1037.25 L1650.92 1024.73 L1670.97 1024.73 L1691.03 1024.73 L1711.08 1024.73 L1731.13 1024.73 L1751.18 1024.73 L1771.24 1024.73 L1791.29 1024.73 L1811.34 1024.73 L1831.39 1024.73 L1851.45 1024.73 L1871.5 1024.73 L1891.55 1024.73 L1911.6 1024.73 L1931.65 1024.73 L1951.71 1024.73 L1971.76 1024.73 L1991.81 1024.73 L2011.86 1024.73 L2031.92 1024.73 L2051.97 1024.73 L2072.02 1024.73 L2092.07 1024.73 L2112.13 1024.73 L2132.18 1024.73 L2152.23 1024.73 L2172.28 1024.73 L2192.34 1024.73 L2212.39 1024.73 L2232.44 1024.73 L2252.49 1024.73 L2272.55 1024.73 L2292.6 1024.73 L2312.65 1024.73 L2332.7 1024.73 L2352.76 1024.73 L2352.76 1187.46 L2332.7 1187.46 L2312.65 1187.46 L2292.6 1187.46 L2272.55 1187.46 L2252.49 1187.46 L2232.44 1187.46 L2212.39 1187.46 L2192.34 1187.46 L2172.28 1187.46 L2152.23 1187.46 L2132.18 1187.46 L2112.13 1187.46 L2092.07 1187.46 L2072.02 1187.46 L2051.97 1187.46 L2031.92 1187.46 L2011.86 1187.46 L1991.81 1187.46 L1971.76 1187.46 L1951.71 1187.46 L1931.65 1187.46 L1911.6 1187.46 L1891.55 1187.46 L1871.5 1187.46 L1851.45 1187.46 L1831.39 1187.46 L1811.34 1187.46 L1791.29 1187.46 L1771.24 1187.46 L1751.18 1187.46 L1731.13 1187.46 L1711.08 1187.46 L1691.03 1187.46 L1670.97 1187.46 L1650.92 1187.46 L1630.87 1187.46 L1610.82 1187.46 L1590.76 1187.46 L1570.71 1187.46 L1550.66 1187.46 L1530.61 1187.46 L1510.55 1187.46 L1490.5 1187.46 L1470.45 1187.46 L1450.4 1199.97 L1430.34 1199.97 L1410.29 1199.97 L1390.24 1199.97 L1370.19 1199.97 L1350.13 1199.97 L1330.08 1199.97 L1310.03 1199.97 L1289.98 1199.97 L1269.92 1199.97 L1249.87 1199.97 L1229.82 1199.97 L1209.77 1199.97 L1189.71 1199.97 L1169.66 1199.97 L1149.61 1199.97 L1129.56 1199.97 L1109.51 1199.97 L1089.45 1199.97 L1069.4 1199.97 L1049.35 1199.97 L1029.3 1199.97 L1009.24 1212.49 L989.191 1212.49 L969.138 1212.49 L949.086 1212.49 L929.033 1212.49 L908.981 1212.49 L888.928 1212.49 L868.876 1212.49 L848.823 1212.49 L828.771 1212.49 L808.719 1212.49 L788.666 1212.49 L768.614 1225.01 L748.561 1225.01 L728.509 1225.01 L708.456 1225.01 L688.404 1225.01 L668.352 1225.01 L648.299 1225.01 L628.247 1237.53 L608.194 1237.53 L588.142 1237.53 L568.089 1237.53 L548.037 1250.04 L527.985 1250.04 L507.932 1250.04 L487.88 1250.04 L467.827 1262.56 L447.775 1262.56 L427.722 1275.08 L407.67 1275.08 L387.618 1287.6 L367.565 1287.6  Z" fill="#ff7e0d" fill-rule="evenodd" fill-opacity="0.45"/>
<polyline clip-path="url(#clip952)" style="stroke:#ff7e0d; stroke-linecap:round; stroke-linejoin:round; stroke-width:4; stroke-opacity:1; fill:none" points="367.565,1187.46 387.618,1174.94 407.67,1162.42 427.722,1149.9 447.775,1137.39 467.827,1137.39 487.88,1124.87 507.932,1124.87 527.985,1112.35 548.037,1112.35 568.089,1099.83 588.142,1099.83 608.194,1099.83 628.247,1087.32 648.299,1087.32 668.352,1087.32 688.404,1087.32 708.456,1074.8 728.509,1074.8 748.561,1074.8 768.614,1074.8 788.666,1074.8 808.719,1062.28 828.771,1062.28 848.823,1062.28 868.876,1062.28 888.928,1062.28 908.981,1062.28 929.033,1062.28 949.086,1062.28 969.138,1049.76 989.191,1049.76 1009.24,1049.76 1029.3,1049.76 1049.35,1049.76 1069.4,1049.76 1089.45,1049.76 1109.51,1049.76 1129.56,1049.76 1149.61,1049.76 1169.66,1049.76 1189.71,1049.76 1209.77,1037.25 1229.82,1037.25 1249.87,1037.25 1269.92,1037.25 1289.98,1037.25 1310.03,1037.25 1330.08,1037.25 1350.13,1037.25 1370.19,1037.25 1390.24,1037.25 1410.29,1037.25 1430.34,1037.25 1450.4,1037.25 1470.45,1037.25 1490.5,1037.25 1510.55,1037.25 1530.61,1037.25 1550.66,1037.25 1570.71,1037.25 1590.76,1037.25 1610.82,1037.25 1630.87,1037.25 1650.92,1024.73 1670.97,1024.73 1691.03,1024.73 1711.08,1024.73 1731.13,1024.73 1751.18,1024.73 1771.24,1024.73 1791.29,1024.73 1811.34,1024.73 1831.39,1024.73 1851.45,1024.73 1871.5,1024.73 1891.55,1024.73 1911.6,1024.73 1931.65,1024.73 1951.71,1024.73 1971.76,1024.73 1991.81,1024.73 2011.86,1024.73 2031.92,1024.73 2051.97,1024.73 2072.02,1024.73 2092.07,1024.73 2112.13,1024.73 2132.18,1024.73 2152.23,1024.73 2172.28,1024.73 2192.34,1024.73 2212.39,1024.73 2232.44,1024.73 2252.49,1024.73 2272.55,1024.73 2292.6,1024.73 2312.65,1024.73 2332.7,1024.73 2352.76,1024.73 "/>
<path clip-path="url(#clip952)" d="M367.565 1062.28 L387.618 1037.25 L407.67 1024.73 L427.722 1012.21 L447.775 987.176 L467.827 974.659 L487.88 974.659 L507.932 962.141 L527.985 949.624 L548.037 937.106 L568.089 937.106 L588.142 924.589 L608.194 924.589 L628.247 912.072 L648.299 912.072 L668.352 912.072 L688.404 899.554 L708.456 899.554 L728.509 899.554 L748.561 887.037 L768.614 887.037 L788.666 887.037 L808.719 874.519 L828.771 874.519 L848.823 874.519 L868.876 874.519 L888.928 874.519 L908.981 862.002 L929.033 862.002 L949.086 862.002 L969.138 862.002 L989.191 862.002 L1009.24 862.002 L1029.3 849.484 L1049.35 849.484 L1069.4 849.484 L1089.45 849.484 L1109.51 849.484 L1129.56 849.484 L1149.61 849.484 L1169.66 849.484 L1189.71 836.967 L1209.77 836.967 L1229.82 836.967 L1249.87 836.967 L1269.92 836.967 L1289.98 836.967 L1310.03 836.967 L1330.08 836.967 L1350.13 836.967 L1370.19 836.967 L1390.24 836.967 L1410.29 824.449 L1430.34 824.449 L1450.4 824.449 L1470.45 824.449 L1490.5 824.449 L1510.55 824.449 L1530.61 824.449 L1550.66 824.449 L1570.71 824.449 L1590.76 824.449 L1610.82 824.449 L1630.87 824.449 L1650.92 824.449 L1670.97 824.449 L1691.03 824.449 L1711.08 824.449 L1731.13 824.449 L1751.18 824.449 L1771.24 811.932 L1791.29 811.932 L1811.34 811.932 L1831.39 811.932 L1851.45 811.932 L1871.5 811.932 L1891.55 811.932 L1911.6 811.932 L1931.65 811.932 L1951.71 811.932 L1971.76 811.932 L1991.81 811.932 L2011.86 811.932 L2031.92 811.932 L2051.97 811.932 L2072.02 811.932 L2092.07 811.932 L2112.13 811.932 L2132.18 811.932 L2152.23 811.932 L2172.28 811.932 L2192.34 811.932 L2212.39 811.932 L2232.44 811.932 L2252.49 811.932 L2272.55 811.932 L2292.6 811.932 L2312.65 811.932 L2332.7 811.932 L2352.76 811.932 L2352.76 1024.73 L2332.7 1024.73 L2312.65 1024.73 L2292.6 1024.73 L2272.55 1024.73 L2252.49 1024.73 L2232.44 1024.73 L2212.39 1024.73 L2192.34 1024.73 L2172.28 1024.73 L2152.23 1024.73 L2132.18 1037.25 L2112.13 1037.25 L2092.07 1037.25 L2072.02 1037.25 L2051.97 1037.25 L2031.92 1037.25 L2011.86 1037.25 L1991.81 1037.25 L1971.76 1037.25 L1951.71 1037.25 L1931.65 1037.25 L1911.6 1037.25 L1891.55 1037.25 L1871.5 1037.25 L1851.45 1037.25 L1831.39 1037.25 L1811.34 1037.25 L1791.29 1037.25 L1771.24 1037.25 L1751.18 1037.25 L1731.13 1037.25 L1711.08 1037.25 L1691.03 1037.25 L1670.97 1037.25 L1650.92 1037.25 L1630.87 1037.25 L1610.82 1037.25 L1590.76 1037.25 L1570.71 1037.25 L1550.66 1037.25 L1530.61 1037.25 L1510.55 1049.76 L1490.5 1049.76 L1470.45 1049.76 L1450.4 1049.76 L1430.34 1049.76 L1410.29 1049.76 L1390.24 1049.76 L1370.19 1049.76 L1350.13 1049.76 L1330.08 1049.76 L1310.03 1049.76 L1289.98 1049.76 L1269.92 1049.76 L1249.87 1049.76 L1229.82 1049.76 L1209.77 1049.76 L1189.71 1062.28 L1169.66 1062.28 L1149.61 1062.28 L1129.56 1062.28 L1109.51 1062.28 L1089.45 1062.28 L1069.4 1062.28 L1049.35 1062.28 L1029.3 1062.28 L1009.24 1062.28 L989.191 1062.28 L969.138 1074.8 L949.086 1074.8 L929.033 1074.8 L908.981 1074.8 L888.928 1074.8 L868.876 1074.8 L848.823 1074.8 L828.771 1087.32 L808.719 1087.32 L788.666 1087.32 L768.614 1087.32 L748.561 1087.32 L728.509 1099.83 L708.456 1099.83 L688.404 1099.83 L668.352 1099.83 L648.299 1112.35 L628.247 1112.35 L608.194 1112.35 L588.142 1124.87 L568.089 1124.87 L548.037 1137.39 L527.985 1137.39 L507.932 1149.9 L487.88 1149.9 L467.827 1162.42 L447.775 1162.42 L427.722 1174.94 L407.67 1187.46 L387.618 1199.97 L367.565 1212.49  Z" fill="#2ba02b" fill-rule="evenodd" fill-opacity="0.45"/>
<polyline clip-path="url(#clip952)" style="stroke:#2ba02b; stroke-linecap:round; stroke-linejoin:round; stroke-width:4; stroke-opacity:1; fill:none" points="367.565,1062.28 387.618,1037.25 407.67,1024.73 427.722,1012.21 447.775,987.176 467.827,974.659 487.88,974.659 507.932,962.141 527.985,949.624 548.037,937.106 568.089,937.106 588.142,924.589 608.194,924.589 628.247,912.072 648.299,912.072 668.352,912.072 688.404,899.554 708.456,899.554 728.509,899.554 748.561,887.037 768.614,887.037 788.666,887.037 808.719,874.519 828.771,874.519 848.823,874.519 868.876,874.519 888.928,874.519 908.981,862.002 929.033,862.002 949.086,862.002 969.138,862.002 989.191,862.002 1009.24,862.002 1029.3,849.484 1049.35,849.484 1069.4,849.484 1089.45,849.484 1109.51,849.484 1129.56,849.484 1149.61,849.484 1169.66,849.484 1189.71,836.967 1209.77,836.967 1229.82,836.967 1249.87,836.967 1269.92,836.967 1289.98,836.967 1310.03,836.967 1330.08,836.967 1350.13,836.967 1370.19,836.967 1390.24,836.967 1410.29,824.449 1430.34,824.449 1450.4,824.449 1470.45,824.449 1490.5,824.449 1510.55,824.449 1530.61,824.449 1550.66,824.449 1570.71,824.449 1590.76,824.449 1610.82,824.449 1630.87,824.449 1650.92,824.449 1670.97,824.449 1691.03,824.449 1711.08,824.449 1731.13,824.449 1751.18,824.449 1771.24,811.932 1791.29,811.932 1811.34,811.932 1831.39,811.932 1851.45,811.932 1871.5,811.932 1891.55,811.932 1911.6,811.932 1931.65,811.932 1951.71,811.932 1971.76,811.932 1991.81,811.932 2011.86,811.932 2031.92,811.932 2051.97,811.932 2072.02,811.932 2092.07,811.932 2112.13,811.932 2132.18,811.932 2152.23,811.932 2172.28,811.932 2192.34,811.932 2212.39,811.932 2232.44,811.932 2252.49,811.932 2272.55,811.932 2292.6,811.932 2312.65,811.932 2332.7,811.932 2352.76,811.932 "/>
<path clip-path="url(#clip952)" d="M367.565 862.002 L387.618 836.967 L407.67 811.932 L427.722 786.897 L447.775 761.862 L467.827 749.345 L487.88 724.31 L507.932 711.792 L527.985 699.275 L548.037 686.757 L568.089 674.24 L588.142 661.723 L608.194 649.205 L628.247 649.205 L648.299 636.688 L668.352 624.17 L688.404 624.17 L708.456 611.653 L728.509 611.653 L748.561 599.135 L768.614 599.135 L788.666 599.135 L808.719 586.618 L828.771 586.618 L848.823 574.1 L868.876 574.1 L888.928 574.1 L908.981 574.1 L929.033 561.583 L949.086 561.583 L969.138 561.583 L989.191 549.065 L1009.24 549.065 L1029.3 549.065 L1049.35 549.065 L1069.4 549.065 L1089.45 536.548 L1109.51 536.548 L1129.56 536.548 L1149.61 536.548 L1169.66 536.548 L1189.71 536.548 L1209.77 524.031 L1229.82 524.031 L1249.87 524.031 L1269.92 524.031 L1289.98 524.031 L1310.03 524.031 L1330.08 524.031 L1350.13 511.513 L1370.19 511.513 L1390.24 511.513 L1410.29 511.513 L1430.34 511.513 L1450.4 511.513 L1470.45 511.513 L1490.5 511.513 L1510.55 511.513 L1530.61 511.513 L1550.66 498.996 L1570.71 498.996 L1590.76 498.996 L1610.82 498.996 L1630.87 498.996 L1650.92 498.996 L1670.97 498.996 L1691.03 498.996 L1711.08 498.996 L1731.13 498.996 L1751.18 498.996 L1771.24 498.996 L1791.29 498.996 L1811.34 486.478 L1831.39 486.478 L1851.45 486.478 L1871.5 486.478 L1891.55 486.478 L1911.6 486.478 L1931.65 486.478 L1951.71 486.478 L1971.76 486.478 L1991.81 486.478 L2011.86 486.478 L2031.92 486.478 L2051.97 486.478 L2072.02 486.478 L2092.07 486.478 L2112.13 486.478 L2132.18 486.478 L2152.23 486.478 L2172.28 486.478 L2192.34 486.478 L2212.39 473.961 L2232.44 473.961 L2252.49 473.961 L2272.55 473.961 L2292.6 473.961 L2312.65 473.961 L2332.7 473.961 L2352.76 473.961 L2352.76 761.862 L2332.7 761.862 L2312.65 761.862 L2292.6 761.862 L2272.55 761.862 L2252.49 761.862 L2232.44 761.862 L2212.39 761.862 L2192.34 761.862 L2172.28 761.862 L2152.23 761.862 L2132.18 761.862 L2112.13 761.862 L2092.07 761.862 L2072.02 761.862 L2051.97 761.862 L2031.92 761.862 L2011.86 761.862 L1991.81 761.862 L1971.76 761.862 L1951.71 774.38 L1931.65 774.38 L1911.6 774.38 L1891.55 774.38 L1871.5 774.38 L1851.45 774.38 L1831.39 774.38 L1811.34 774.38 L1791.29 774.38 L1771.24 774.38 L1751.18 774.38 L1731.13 774.38 L1711.08 774.38 L1691.03 774.38 L1670.97 774.38 L1650.92 774.38 L1630.87 774.38 L1610.82 774.38 L1590.76 786.897 L1570.71 786.897 L1550.66 786.897 L1530.61 786.897 L1510.55 786.897 L1490.5 786.897 L1470.45 786.897 L1450.4 786.897 L1430.34 786.897 L1410.29 786.897 L1390.24 786.897 L1370.19 786.897 L1350.13 799.415 L1330.08 799.415 L1310.03 799.415 L1289.98 799.415 L1269.92 799.415 L1249.87 799.415 L1229.82 799.415 L1209.77 799.415 L1189.71 811.932 L1169.66 811.932 L1149.61 811.932 L1129.56 811.932 L1109.51 811.932 L1089.45 811.932 L1069.4 811.932 L1049.35 824.449 L1029.3 824.449 L1009.24 824.449 L989.191 824.449 L969.138 824.449 L949.086 836.967 L929.033 836.967 L908.981 836.967 L888.928 836.967 L868.876 849.484 L848.823 849.484 L828.771 849.484 L808.719 849.484 L788.666 862.002 L768.614 862.002 L748.561 874.519 L728.509 874.519 L708.456 874.519 L688.404 887.037 L668.352 887.037 L648.299 899.554 L628.247 899.554 L608.194 912.072 L588.142 912.072 L568.089 924.589 L548.037 937.106 L527.985 949.624 L507.932 962.141 L487.88 974.659 L467.827 987.176 L447.775 999.694 L427.722 1012.21 L407.67 1037.25 L387.618 1049.76 L367.565 1074.8  Z" fill="#d52628" fill-rule="evenodd" fill-opacity="0.45"/>
<polyline clip-path="url(#clip952)" style="stroke:#d52628; stroke-linecap:round; stroke-linejoin:round; stroke-width:4; stroke-opacity:1; fill:none" points="367.565,862.002 387.618,836.967 407.67,811.932 427.722,786.897 447.775,761.862 467.827,749.345 487.88,724.31 507.932,711.792 527.985,699.275 548.037,686.757 568.089,674.24 588.142,661.723 608.194,649.205 628.247,649.205 648.299,636.688 668.352,624.17 688.404,624.17 708.456,611.653 728.509,611.653 748.561,599.135 768.614,599.135 788.666,599.135 808.719,586.618 828.771,586.618 848.823,574.1 868.876,574.1 888.928,574.1 908.981,574.1 929.033,561.583 949.086,561.583 969.138,561.583 989.191,549.065 1009.24,549.065 1029.3,549.065 1049.35,549.065 1069.4,549.065 1089.45,536.548 1109.51,536.548 1129.56,536.548 1149.61,536.548 1169.66,536.548 1189.71,536.548 1209.77,524.031 1229.82,524.031 1249.87,524.031 1269.92,524.031 1289.98,524.031 1310.03,524.031 1330.08,524.031 1350.13,511.513 1370.19,511.513 1390.24,511.513 1410.29,511.513 1430.34,511.513 1450.4,511.513 1470.45,511.513 1490.5,511.513 1510.55,511.513 1530.61,511.513 1550.66,498.996 1570.71,498.996 1590.76,498.996 1610.82,498.996 1630.87,498.996 1650.92,498.996 1670.97,498.996 1691.03,498.996 1711.08,498.996 1731.13,498.996 1751.18,498.996 1771.24,498.996 1791.29,498.996 1811.34,486.478 1831.39,486.478 1851.45,486.478 1871.5,486.478 1891.55,486.478 1911.6,486.478 1931.65,486.478 1951.71,486.478 1971.76,486.478 1991.81,486.478 2011.86,486.478 2031.92,486.478 2051.97,486.478 2072.02,486.478 2092.07,486.478 2112.13,486.478 2132.18,486.478 2152.23,486.478 2172.28,486.478 2192.34,486.478 2212.39,473.961 2232.44,473.961 2252.49,473.961 2272.55,473.961 2292.6,473.961 2312.65,473.961 2332.7,473.961 2352.76,473.961 "/>
<path clip-path="url(#clip952)" d="M367.565 574.1 L387.618 524.031 L407.67 473.961 L427.722 436.408 L447.775 411.374 L467.827 386.339 L487.88 361.304 L507.932 336.269 L527.985 311.234 L548.037 298.716 L568.089 273.682 L588.142 261.164 L608.194 248.647 L628.247 236.129 L648.299 223.612 L668.352 211.094 L688.404 198.577 L708.456 186.059 L728.509 173.542 L748.561 173.542 L768.614 161.024 L788.666 148.507 L808.719 148.507 L828.771 135.99 L848.823 135.99 L868.876 123.472 L888.928 123.472 L908.981 123.472 L929.033 123.472 L949.086 123.472 L969.138 123.472 L989.191 123.472 L1009.24 123.472 L1029.3 123.472 L1049.35 123.472 L1069.4 123.472 L1089.45 123.472 L1109.51 123.472 L1129.56 123.472 L1149.61 123.472 L1169.66 123.472 L1189.71 123.472 L1209.77 123.472 L1229.82 123.472 L1249.87 123.472 L1269.92 123.472 L1289.98 123.472 L1310.03 123.472 L1330.08 123.472 L1350.13 123.472 L1370.19 123.472 L1390.24 123.472 L1410.29 123.472 L1430.34 123.472 L1450.4 123.472 L1470.45 123.472 L1490.5 123.472 L1510.55 123.472 L1530.61 123.472 L1550.66 123.472 L1570.71 123.472 L1590.76 123.472 L1610.82 123.472 L1630.87 123.472 L1650.92 123.472 L1670.97 123.472 L1691.03 123.472 L1711.08 123.472 L1731.13 123.472 L1751.18 123.472 L1771.24 123.472 L1791.29 123.472 L1811.34 123.472 L1831.39 123.472 L1851.45 123.472 L1871.5 123.472 L1891.55 123.472 L1911.6 123.472 L1931.65 123.472 L1951.71 123.472 L1971.76 123.472 L1991.81 123.472 L2011.86 123.472 L2031.92 123.472 L2051.97 123.472 L2072.02 123.472 L2092.07 123.472 L2112.13 123.472 L2132.18 123.472 L2152.23 123.472 L2172.28 123.472 L2192.34 123.472 L2212.39 123.472 L2232.44 123.472 L2252.49 123.472 L2272.55 123.472 L2292.6 123.472 L2312.65 123.472 L2332.7 123.472 L2352.76 123.472 L2352.76 298.716 L2332.7 298.716 L2312.65 298.716 L2292.6 298.716 L2272.55 298.716 L2252.49 298.716 L2232.44 298.716 L2212.39 298.716 L2192.34 298.716 L2172.28 311.234 L2152.23 311.234 L2132.18 311.234 L2112.13 311.234 L2092.07 311.234 L2072.02 311.234 L2051.97 311.234 L2031.92 311.234 L2011.86 311.234 L1991.81 311.234 L1971.76 311.234 L1951.71 311.234 L1931.65 311.234 L1911.6 311.234 L1891.55 323.751 L1871.5 323.751 L1851.45 323.751 L1831.39 323.751 L1811.34 323.751 L1791.29 323.751 L1771.24 323.751 L1751.18 323.751 L1731.13 323.751 L1711.08 323.751 L1691.03 323.751 L1670.97 336.269 L1650.92 336.269 L1630.87 336.269 L1610.82 336.269 L1590.76 336.269 L1570.71 336.269 L1550.66 336.269 L1530.61 336.269 L1510.55 348.786 L1490.5 348.786 L1470.45 348.786 L1450.4 348.786 L1430.34 348.786 L1410.29 348.786 L1390.24 348.786 L1370.19 361.304 L1350.13 361.304 L1330.08 361.304 L1310.03 361.304 L1289.98 361.304 L1269.92 373.821 L1249.87 373.821 L1229.82 373.821 L1209.77 373.821 L1189.71 373.821 L1169.66 386.339 L1149.61 386.339 L1129.56 386.339 L1109.51 386.339 L1089.45 398.856 L1069.4 398.856 L1049.35 398.856 L1029.3 411.374 L1009.24 411.374 L989.191 411.374 L969.138 423.891 L949.086 423.891 L929.033 423.891 L908.981 436.408 L888.928 436.408 L868.876 448.926 L848.823 448.926 L828.771 461.443 L808.719 461.443 L788.666 473.961 L768.614 473.961 L748.561 486.478 L728.509 486.478 L708.456 498.996 L688.404 511.513 L668.352 524.031 L648.299 536.548 L628.247 536.548 L608.194 549.065 L588.142 574.1 L568.089 586.618 L548.037 599.135 L527.985 611.653 L507.932 636.688 L487.88 649.205 L467.827 674.24 L447.775 699.275 L427.722 736.827 L407.67 761.862 L387.618 799.415 L367.565 836.967  Z" fill="#9466bd" fill-rule="evenodd" fill-opacity="0.45"/>
<polyline clip-path="url(#clip952)" style="stroke:#9466bd; stroke-linecap:round; stroke-linejoin:round; stroke-width:4; stroke-opacity:1; fill:none" points="367.565,574.1 387.618,524.031 407.67,473.961 427.722,436.408 447.775,411.374 467.827,386.339 487.88,361.304 507.932,336.269 527.985,311.234 548.037,298.716 568.089,273.682 588.142,261.164 608.194,248.647 628.247,236.129 648.299,223.612 668.352,211.094 688.404,198.577 708.456,186.059 728.509,173.542 748.561,173.542 768.614,161.024 788.666,148.507 808.719,148.507 828.771,135.99 848.823,135.99 868.876,123.472 888.928,123.472 908.981,123.472 929.033,123.472 949.086,123.472 969.138,123.472 989.191,123.472 1009.24,123.472 1029.3,123.472 1049.35,123.472 1069.4,123.472 1089.45,123.472 1109.51,123.472 1129.56,123.472 1149.61,123.472 1169.66,123.472 1189.71,123.472 1209.77,123.472 1229.82,123.472 1249.87,123.472 1269.92,123.472 1289.98,123.472 1310.03,123.472 1330.08,123.472 1350.13,123.472 1370.19,123.472 1390.24,123.472 1410.29,123.472 1430.34,123.472 1450.4,123.472 1470.45,123.472 1490.5,123.472 1510.55,123.472 1530.61,123.472 1550.66,123.472 1570.71,123.472 1590.76,123.472 1610.82,123.472 1630.87,123.472 1650.92,123.472 1670.97,123.472 1691.03,123.472 1711.08,123.472 1731.13,123.472 1751.18,123.472 1771.24,123.472 1791.29,123.472 1811.34,123.472 1831.39,123.472 1851.45,123.472 1871.5,123.472 1891.55,123.472 1911.6,123.472 1931.65,123.472 1951.71,123.472 1971.76,123.472 1991.81,123.472 2011.86,123.472 2031.92,123.472 2051.97,123.472 2072.02,123.472 2092.07,123.472 2112.13,123.472 2132.18,123.472 2152.23,123.472 2172.28,123.472 2192.34,123.472 2212.39,123.472 2232.44,123.472 2252.49,123.472 2272.55,123.472 2292.6,123.472 2312.65,123.472 2332.7,123.472 2352.76,123.472 "/>
<path clip-path="url(#clip950)" d="M433.738 475.82 L790.636 475.82 L790.636 164.78 L433.738 164.78  Z" fill="#ffffff" fill-rule="evenodd" fill-opacity="1"/>
<polyline clip-path="url(#clip950)" style="stroke:#000000; stroke-linecap:round; stroke-linejoin:round; stroke-width:4; stroke-opacity:1; fill:none" points="433.738,475.82 790.636,475.82 790.636,164.78 433.738,164.78 433.738,475.82 "/>
<path clip-path="url(#clip950)" d="M455.796 237.356 L588.142 237.356 L588.142 195.884 L455.796 195.884 L455.796 237.356  Z" fill="#1f77b4" fill-rule="evenodd" fill-opacity="0.45"/>
<polyline clip-path="url(#clip950)" style="stroke:#1f77b4; stroke-linecap:round; stroke-linejoin:round; stroke-width:4; stroke-opacity:1; fill:none" points="455.796,195.884 588.142,195.884 "/>
<path clip-path="url(#clip950)" d="M622.144 202.418 Q618.533 202.418 616.704 205.983 Q614.899 209.525 614.899 216.654 Q614.899 223.761 616.704 227.326 Q618.533 230.867 622.144 230.867 Q625.778 230.867 627.584 227.326 Q629.412 223.761 629.412 216.654 Q629.412 209.525 627.584 205.983 Q625.778 202.418 622.144 202.418 M622.144 198.715 Q627.954 198.715 631.01 203.321 Q634.088 207.904 634.088 216.654 Q634.088 225.381 631.01 229.988 Q627.954 234.571 622.144 234.571 Q616.334 234.571 613.255 229.988 Q610.2 225.381 610.2 216.654 Q610.2 207.904 613.255 203.321 Q616.334 198.715 622.144 198.715 Z" fill="#000000" fill-rule="nonzero" fill-opacity="1" /><path clip-path="url(#clip950)" d="M642.306 228.02 L647.19 228.02 L647.19 233.9 L642.306 233.9 L642.306 228.02 Z" fill="#000000" fill-rule="nonzero" fill-opacity="1" /><path clip-path="url(#clip950)" d="M667.375 202.418 Q663.764 202.418 661.935 205.983 Q660.13 209.525 660.13 216.654 Q660.13 223.761 661.935 227.326 Q663.764 230.867 667.375 230.867 Q671.009 230.867 672.815 227.326 Q674.644 223.761 674.644 216.654 Q674.644 209.525 672.815 205.983 Q671.009 202.418 667.375 202.418 M667.375 198.715 Q673.185 198.715 676.241 203.321 Q679.32 207.904 679.32 216.654 Q679.32 225.381 676.241 229.988 Q673.185 234.571 667.375 234.571 Q661.565 234.571 658.486 229.988 Q655.431 225.381 655.431 216.654 Q655.431 207.904 658.486 203.321 Q661.565 198.715 667.375 198.715 Z" fill="#000000" fill-rule="nonzero" fill-opacity="1" /><path clip-path="url(#clip950)" d="M697.537 202.418 Q693.926 202.418 692.097 205.983 Q690.292 209.525 690.292 216.654 Q690.292 223.761 692.097 227.326 Q693.926 230.867 697.537 230.867 Q701.171 230.867 702.977 227.326 Q704.806 223.761 704.806 216.654 Q704.806 209.525 702.977 205.983 Q701.171 202.418 697.537 202.418 M697.537 198.715 Q703.347 198.715 706.403 203.321 Q709.481 207.904 709.481 216.654 Q709.481 225.381 706.403 229.988 Q703.347 234.571 697.537 234.571 Q691.727 234.571 688.648 229.988 Q685.593 225.381 685.593 216.654 Q685.593 207.904 688.648 203.321 Q691.727 198.715 697.537 198.715 Z" fill="#000000" fill-rule="nonzero" fill-opacity="1" /><path clip-path="url(#clip950)" d="M727.699 202.418 Q724.088 202.418 722.259 205.983 Q720.454 209.525 720.454 216.654 Q720.454 223.761 722.259 227.326 Q724.088 230.867 727.699 230.867 Q731.333 230.867 733.139 227.326 Q734.967 223.761 734.967 216.654 Q734.967 209.525 733.139 205.983 Q731.333 202.418 727.699 202.418 M727.699 198.715 Q733.509 198.715 736.565 203.321 Q739.643 207.904 739.643 216.654 Q739.643 225.381 736.565 229.988 Q733.509 234.571 727.699 234.571 Q721.889 234.571 718.81 229.988 Q715.755 225.381 715.755 216.654 Q715.755 207.904 718.81 203.321 Q721.889 198.715 727.699 198.715 Z" fill="#000000" fill-rule="nonzero" fill-opacity="1" /><path clip-path="url(#clip950)" d="M748.671 229.965 L756.31 229.965 L756.31 203.599 L748 205.266 L748 201.006 L756.264 199.34 L760.939 199.34 L760.939 229.965 L768.578 229.965 L768.578 233.9 L748.671 233.9 L748.671 229.965 Z" fill="#000000" fill-rule="nonzero" fill-opacity="1" /><path clip-path="url(#clip950)" d="M455.796 289.196 L588.142 289.196 L588.142 247.724 L455.796 247.724 L455.796 289.196  Z" fill="#ff7e0d" fill-rule="evenodd" fill-opacity="0.45"/>
<polyline clip-path="url(#clip950)" style="stroke:#ff7e0d; stroke-linecap:round; stroke-linejoin:round; stroke-width:4; stroke-opacity:1; fill:none" points="455.796,247.724 588.142,247.724 "/>
<path clip-path="url(#clip950)" d="M622.144 254.258 Q618.533 254.258 616.704 257.823 Q614.899 261.365 614.899 268.494 Q614.899 275.601 616.704 279.166 Q618.533 282.707 622.144 282.707 Q625.778 282.707 627.584 279.166 Q629.412 275.601 629.412 268.494 Q629.412 261.365 627.584 257.823 Q625.778 254.258 622.144 254.258 M622.144 250.555 Q627.954 250.555 631.01 255.161 Q634.088 259.744 634.088 268.494 Q634.088 277.221 631.01 281.828 Q627.954 286.411 622.144 286.411 Q616.334 286.411 613.255 281.828 Q610.2 277.221 610.2 268.494 Q610.2 259.744 613.255 255.161 Q616.334 250.555 622.144 250.555 Z" fill="#000000" fill-rule="nonzero" fill-opacity="1" /><path clip-path="url(#clip950)" d="M642.306 279.86 L647.19 279.86 L647.19 285.74 L642.306 285.74 L642.306 279.86 Z" fill="#000000" fill-rule="nonzero" fill-opacity="1" /><path clip-path="url(#clip950)" d="M667.375 254.258 Q663.764 254.258 661.935 257.823 Q660.13 261.365 660.13 268.494 Q660.13 275.601 661.935 279.166 Q663.764 282.707 667.375 282.707 Q671.009 282.707 672.815 279.166 Q674.644 275.601 674.644 268.494 Q674.644 261.365 672.815 257.823 Q671.009 254.258 667.375 254.258 M667.375 250.555 Q673.185 250.555 676.241 255.161 Q679.32 259.744 679.32 268.494 Q679.32 277.221 676.241 281.828 Q673.185 286.411 667.375 286.411 Q661.565 286.411 658.486 281.828 Q655.431 277.221 655.431 268.494 Q655.431 259.744 658.486 255.161 Q661.565 250.555 667.375 250.555 Z" fill="#000000" fill-rule="nonzero" fill-opacity="1" /><path clip-path="url(#clip950)" d="M697.537 254.258 Q693.926 254.258 692.097 257.823 Q690.292 261.365 690.292 268.494 Q690.292 275.601 692.097 279.166 Q693.926 282.707 697.537 282.707 Q701.171 282.707 702.977 279.166 Q704.806 275.601 704.806 268.494 Q704.806 261.365 702.977 257.823 Q701.171 254.258 697.537 254.258 M697.537 250.555 Q703.347 250.555 706.403 255.161 Q709.481 259.744 709.481 268.494 Q709.481 277.221 706.403 281.828 Q703.347 286.411 697.537 286.411 Q691.727 286.411 688.648 281.828 Q685.593 277.221 685.593 268.494 Q685.593 259.744 688.648 255.161 Q691.727 250.555 697.537 250.555 Z" fill="#000000" fill-rule="nonzero" fill-opacity="1" /><path clip-path="url(#clip950)" d="M718.509 281.805 L726.148 281.805 L726.148 255.439 L717.838 257.106 L717.838 252.846 L726.102 251.18 L730.778 251.18 L730.778 281.805 L738.416 281.805 L738.416 285.74 L718.509 285.74 L718.509 281.805 Z" fill="#000000" fill-rule="nonzero" fill-opacity="1" /><path clip-path="url(#clip950)" d="M455.796 341.036 L588.142 341.036 L588.142 299.564 L455.796 299.564 L455.796 341.036  Z" fill="#2ba02b" fill-rule="evenodd" fill-opacity="0.45"/>
<polyline clip-path="url(#clip950)" style="stroke:#2ba02b; stroke-linecap:round; stroke-linejoin:round; stroke-width:4; stroke-opacity:1; fill:none" points="455.796,299.564 588.142,299.564 "/>
<path clip-path="url(#clip950)" d="M622.144 306.098 Q618.533 306.098 616.704 309.663 Q614.899 313.205 614.899 320.334 Q614.899 327.441 616.704 331.006 Q618.533 334.547 622.144 334.547 Q625.778 334.547 627.584 331.006 Q629.412 327.441 629.412 320.334 Q629.412 313.205 627.584 309.663 Q625.778 306.098 622.144 306.098 M622.144 302.395 Q627.954 302.395 631.01 307.001 Q634.088 311.584 634.088 320.334 Q634.088 329.061 631.01 333.668 Q627.954 338.251 622.144 338.251 Q616.334 338.251 613.255 333.668 Q610.2 329.061 610.2 320.334 Q610.2 311.584 613.255 307.001 Q616.334 302.395 622.144 302.395 Z" fill="#000000" fill-rule="nonzero" fill-opacity="1" /><path clip-path="url(#clip950)" d="M642.306 331.7 L647.19 331.7 L647.19 337.58 L642.306 337.58 L642.306 331.7 Z" fill="#000000" fill-rule="nonzero" fill-opacity="1" /><path clip-path="url(#clip950)" d="M667.375 306.098 Q663.764 306.098 661.935 309.663 Q660.13 313.205 660.13 320.334 Q660.13 327.441 661.935 331.006 Q663.764 334.547 667.375 334.547 Q671.009 334.547 672.815 331.006 Q674.644 327.441 674.644 320.334 Q674.644 313.205 672.815 309.663 Q671.009 306.098 667.375 306.098 M667.375 302.395 Q673.185 302.395 676.241 307.001 Q679.32 311.584 679.32 320.334 Q679.32 329.061 676.241 333.668 Q673.185 338.251 667.375 338.251 Q661.565 338.251 658.486 333.668 Q655.431 329.061 655.431 320.334 Q655.431 311.584 658.486 307.001 Q661.565 302.395 667.375 302.395 Z" fill="#000000" fill-rule="nonzero" fill-opacity="1" /><path clip-path="url(#clip950)" d="M688.347 333.645 L695.986 333.645 L695.986 307.279 L687.676 308.946 L687.676 304.686 L695.94 303.02 L700.616 303.02 L700.616 333.645 L708.255 333.645 L708.255 337.58 L688.347 337.58 L688.347 333.645 Z" fill="#000000" fill-rule="nonzero" fill-opacity="1" /><path clip-path="url(#clip950)" d="M455.796 392.876 L588.142 392.876 L588.142 351.404 L455.796 351.404 L455.796 392.876  Z" fill="#d52628" fill-rule="evenodd" fill-opacity="0.45"/>
<polyline clip-path="url(#clip950)" style="stroke:#d52628; stroke-linecap:round; stroke-linejoin:round; stroke-width:4; stroke-opacity:1; fill:none" points="455.796,351.404 588.142,351.404 "/>
<path clip-path="url(#clip950)" d="M622.144 357.938 Q618.533 357.938 616.704 361.503 Q614.899 365.045 614.899 372.174 Q614.899 379.281 616.704 382.846 Q618.533 386.387 622.144 386.387 Q625.778 386.387 627.584 382.846 Q629.412 379.281 629.412 372.174 Q629.412 365.045 627.584 361.503 Q625.778 357.938 622.144 357.938 M622.144 354.235 Q627.954 354.235 631.01 358.841 Q634.088 363.424 634.088 372.174 Q634.088 380.901 631.01 385.508 Q627.954 390.091 622.144 390.091 Q616.334 390.091 613.255 385.508 Q610.2 380.901 610.2 372.174 Q610.2 363.424 613.255 358.841 Q616.334 354.235 622.144 354.235 Z" fill="#000000" fill-rule="nonzero" fill-opacity="1" /><path clip-path="url(#clip950)" d="M642.306 383.54 L647.19 383.54 L647.19 389.42 L642.306 389.42 L642.306 383.54 Z" fill="#000000" fill-rule="nonzero" fill-opacity="1" /><path clip-path="url(#clip950)" d="M658.185 385.485 L665.824 385.485 L665.824 359.119 L657.514 360.786 L657.514 356.526 L665.778 354.86 L670.454 354.86 L670.454 385.485 L678.093 385.485 L678.093 389.42 L658.185 389.42 L658.185 385.485 Z" fill="#000000" fill-rule="nonzero" fill-opacity="1" /><path clip-path="url(#clip950)" d="M455.796 444.716 L588.142 444.716 L588.142 403.244 L455.796 403.244 L455.796 444.716  Z" fill="#9466bd" fill-rule="evenodd" fill-opacity="0.45"/>
<polyline clip-path="url(#clip950)" style="stroke:#9466bd; stroke-linecap:round; stroke-linejoin:round; stroke-width:4; stroke-opacity:1; fill:none" points="455.796,403.244 588.142,403.244 "/>
<path clip-path="url(#clip950)" d="M610.871 437.325 L618.51 437.325 L618.51 410.959 L610.2 412.626 L610.2 408.366 L618.463 406.7 L623.139 406.7 L623.139 437.325 L630.778 437.325 L630.778 441.26 L610.871 441.26 L610.871 437.325 Z" fill="#000000" fill-rule="nonzero" fill-opacity="1" /></svg>
