<svg class="main-svg" xmlns="http://www.w3.org/2000/svg" xmlns:xlink="http://www.w3.org/1999/xlink" width="700" height="500" style="" viewBox="0 0 700 500"><rect x="0" y="0" width="700" height="500" style="fill: rgb(255, 255, 255); fill-opacity: 1;"/><defs id="defs-b7193b"><g class="clips"><clipPath id="clipb7193bxyplot" class="plotclip"><rect width="420" height="292"/></clipPath><clipPath class="axesclip" id="clipb7193bx"><rect x="180" y="0" width="420" height="500"/></clipPath><clipPath class="axesclip" id="clipb7193by"><rect x="0" y="100" width="700" height="292"/></clipPath><clipPath class="axesclip" id="clipb7193bxy"><rect x="180" y="100" width="420" height="292"/></clipPath></g><g class="gradients"/></defs><g class="bglayer"/><g class="layer-below"><g class="imagelayer"/><g class="shapelayer"/></g><g class="cartesianlayer"><g class="subplot xy"><g class="layer-subplot"><g class="shapelayer"/><g class="imagelayer"/></g><g class="gridlayer"><g class="x"/><g class="y"/></g><g class="zerolinelayer"/><path class="xlines-below"/><path class="ylines-below"/><g class="overlines-below"/><g class="xaxislayer-below"/><g class="yaxislayer-below"/><g class="overaxes-below"/><g class="plot" transform="translate(180,100)" clip-path="url('#clipb7193bxyplot')"><g class="scatterlayer mlayer"><g class="trace scatter tracef5ac2e" style="stroke-miterlimit: 2; opacity: 1;"><g class="fills"/><g class="errorbars"/><g class="lines"><path class="js-line" d="M0,292L4.44,290.75L5.23,290.63L64.81,279.94L72.94,278.27L146.16,261.03L154.55,258.73L206.26,242.25L212.65,239.85L250.57,222.75L255.03,220.27L277.02,205.28L279.91,202.76L292.94,187.58L294.42,185.04L299.04,172.32L299.44,169.78L299.73,165.01" style="vector-effect: non-scaling-stroke; fill: none; stroke: rgb(233, 97, 0); stroke-opacity: 1; stroke-width: 9px; opacity: 1;"/></g><g class="points"/><g class="text"/></g><g class="trace scatter traced94bcc" style="stroke-miterlimit: 2; opacity: 1;"><g class="fills"/><g class="errorbars"/><g class="lines"><path class="js-line" d="M299.73,165.01L297.76,152.27L296.91,149.72L288.9,134.46L287.11,131.92L271.23,114.18L268.52,111.65L243.37,91.5L239.83,88.99L200.44,63.99L196.17,61.5L112.42,12.09L110.28,9.69L109.02,6.54" style="vector-effect: non-scaling-stroke; fill: none; stroke: rgb(233, 97, 0); stroke-opacity: 1; stroke-width: 9px; opacity: 1; stroke-dasharray: 27px, 27px;"/></g><g class="points"/><g class="text"/></g><g class="trace scatter traced88e70" style="stroke-miterlimit: 2; opacity: 1;"><g class="fills"/><g class="errorbars"/><g class="lines"><path class="js-line" d="M109.02,6.54L110.06,4.37L114.12,2.5L135.84,1.72L148.41,2.88L191.34,10.21L200.84,12.33L259.56,28.29L267.17,30.66L344.19,57.37L350.81,59.83L420,86.12" style="vector-effect: non-scaling-stroke; fill: none; stroke: rgb(233, 97, 0); stroke-opacity: 1; stroke-width: 9px; opacity: 1;"/></g><g class="points"/><g class="text"/></g><g class="trace scatter trace1d7c26" style="stroke-miterlimit: 2; opacity: 1;"><g class="fills"/><g class="errorbars"/><g class="lines"><path class="js-line" d="M0,292L119.52,291.68L128.65,291.65L299.73,290.73" style="vector-effect: non-scaling-stroke; fill: none; stroke: rgb(172, 6, 6); stroke-opacity: 1; stroke-width: 9px; opacity: 1;"/></g><g class="points"/><g class="text"/></g><g class="trace scatter trace96b9e1" style="stroke-miterlimit: 2; opacity: 1;"><g class="fills"/><g class="errorbars"/><g class="lines"><path class="js-line" d="M299.73,290.73L268.52,290.38L265.71,290.37L109.02,288.13" style="vector-effect: non-scaling-stroke; fill: none; stroke: rgb(172, 6, 6); stroke-opacity: 1; stroke-width: 9px; opacity: 1; stroke-dasharray: 27px, 27px;"/></g><g class="points"/><g class="text"/></g><g class="trace scatter traceb5b67d" style="stroke-miterlimit: 2; opacity: 1;"><g class="fills"/><g class="errorbars"/><g class="lines"><path class="js-line" d="M109.02,288.13L114.12,286.51L123.03,284.8L200.84,268.31L209.99,265.97L281.98,244.82L289.22,242.46L396.48,204.66L402.96,202.3L420,196.11" style="vector-effect: non-scaling-stroke; fill: none; stroke: rgb(172, 6, 6); stroke-opacity: 1; stroke-width: 9px; opacity: 1;"/></g><g class="points"/><g class="text"/></g></g></g><g class="overplot"/><path class="xlines-above crisp" d="M174.5,394.75H600" style="fill: none; stroke-width: 5.5px; stroke: rgb(0, 0, 0); stroke-opacity: 1;"/><path class="ylines-above crisp" d="M177.25,100V392" style="fill: none; stroke-width: 5.5px; stroke: rgb(0, 0, 0); stroke-opacity: 1;"/><g class="overlines-above"/><g class="xaxislayer-above"><g class="xtick"><text text-anchor="middle" x="0" y="435.9" transform="translate(180,0)" style="font-family: sans-serif; font-size: 32px; fill: rgb(0, 0, 0); fill-opacity: 1; white-space: pre;">0</text></g><g class="xtick"><text text-anchor="middle" x="0" y="435.9" transform="translate(320,0)" style="font-family: sans-serif; font-size: 32px; fill: rgb(0, 0, 0); fill-opacity: 1; white-space: pre;">0.5</text></g><g class="xtick"><text text-anchor="middle" x="0" y="435.9" transform="translate(460,0)" style="font-family: sans-serif; font-size: 32px; fill: rgb(0, 0, 0); fill-opacity: 1; white-space: pre;">1</text></g><g class="xtick"><text text-anchor="middle" x="0" y="435.9" transform="translate(600,0)" style="font-family: sans-serif; font-size: 32px; fill: rgb(0, 0, 0); fill-opacity: 1; white-space: pre;">1.5</text></g></g><g class="yaxislayer-above"><g class="ytick"><text text-anchor="end" x="168.1" y="11.2" transform="translate(0,392)" style="font-family: sans-serif; font-size: 32px; fill: rgb(0, 0, 0); fill-opacity: 1; white-space: pre;">0</text></g><g class="ytick"><text text-anchor="end" x="168.1" y="11.2" transform="translate(0,306.62)" style="font-family: sans-serif; font-size: 32px; fill: rgb(0, 0, 0); fill-opacity: 1; white-space: pre;">5</text></g><g class="ytick"><text text-anchor="end" x="168.1" y="11.2" transform="translate(0,221.24)" style="font-family: sans-serif; font-size: 32px; fill: rgb(0, 0, 0); fill-opacity: 1; white-space: pre;">10</text></g><g class="ytick"><text text-anchor="end" x="168.1" y="11.2" transform="translate(0,135.86)" style="font-family: sans-serif; font-size: 32px; fill: rgb(0, 0, 0); fill-opacity: 1; white-space: pre;">15</text></g></g><g class="overaxes-above"/></g></g><g class="polarlayer"/><g class="ternarylayer"/><g class="geolayer"/><g class="funnelarealayer"/><g class="pielayer"/><g class="treemaplayer"/><g class="sunburstlayer"/><g class="glimages"/><defs id="topdefs-b7193b"><g class="clips"/></defs><g class="layer-above"><g class="imagelayer"/><g class="shapelayer"/></g><g class="infolayer"><g class="g-gtitle"/><g class="g-xtitle" transform="translate(0,0.5343750000000114)"><text class="xtitle" x="390" y="487.60625" text-anchor="middle" style="font-family: sans-serif; font-size: 41px; fill: rgb(0, 0, 0); opacity: 1; font-weight: normal; white-space: pre;">Damage rate (min​<tspan style="font-size:70%" dy="-0.6em">-1</tspan><tspan dy="0.42em">​</tspan>)</text></g><g class="g-ytitle"><text class="ytitle" transform="rotate(-90,83.675,246)" x="83.675" y="246" text-anchor="middle" style="font-family: sans-serif; font-size: 41px; fill: rgb(0, 0, 0); opacity: 1; font-weight: normal; white-space: pre;">Ribosomes (μM)</text></g></g></svg>