<svg class="main-svg" xmlns="http://www.w3.org/2000/svg" xmlns:xlink="http://www.w3.org/1999/xlink" width="700" height="500" style="" viewBox="0 0 700 500"><rect x="0" y="0" width="700" height="500" style="fill: rgb(255, 255, 255); fill-opacity: 1;"/><defs id="defs-afee51"><g class="clips"><clipPath id="clipafee51xyplot" class="plotclip"><rect width="483" height="355"/></clipPath><clipPath id="clipafee51xy2plot" class="plotclip"><rect width="483" height="355"/></clipPath><clipPath class="axesclip" id="clipafee51x"><rect x="93" y="0" width="483" height="500"/></clipPath><clipPath class="axesclip" id="clipafee51y"><rect x="0" y="60" width="700" height="355"/></clipPath><clipPath class="axesclip" id="clipafee51xy"><rect x="93" y="60" width="483" height="355"/></clipPath><clipPath class="axesclip" id="clipafee51y2"><rect x="0" y="60" width="700" height="355"/></clipPath><clipPath class="axesclip" id="clipafee51xy2"><rect x="93" y="60" width="483" height="355"/></clipPath></g><g class="gradients"/></defs><g class="bglayer"/><g class="layer-below"><g class="imagelayer"/><g class="shapelayer"/></g><g class="cartesianlayer"><g class="subplot xy"><g class="layer-subplot"><g class="shapelayer"/><g class="imagelayer"/></g><g class="gridlayer"><g class="x"/><g class="y"/><g class="y2"/></g><g class="zerolinelayer"><path class="yzl zl crisp" transform="translate(0,397.27)" d="M93,0h483" style="stroke: rgb(255, 255, 255); stroke-opacity: 1; stroke-width: 2px;"/><path class="y2zl zl crisp" transform="translate(0,400.28)" d="M93,0h483" style="stroke: rgb(255, 255, 255); stroke-opacity: 1; stroke-width: 2px;"/></g><path class="xlines-below"/><path class="ylines-below"/><g class="overlines-below"><path class="xy2-x"/><path class="xy2-y"/></g><g class="xaxislayer-below"/><g class="yaxislayer-below"/><g class="overaxes-below"><g class="xy2-x"/><g class="xy2-y"/></g><g class="plot" transform="translate(93,60)" clip-path="url('#clipafee51xyplot')"><g class="scatterlayer mlayer"><g class="trace scatter tracea126ea" style="stroke-miterlimit: 2; opacity: 1;"><g class="fills"/><g class="errorbars"/><g class="lines"><path class="js-line" d="M0,312.22L2.39,221.13L2.77,212.42L7.15,143L8.6,128.3L13.25,97.15L17.44,83.1L23.36,74.82L29.62,72.57L42.73,74.06L49.9,75.83L104.41,92.25L115.62,95.92L177.73,118.1L187.08,121.78L237.2,143.62L244.55,147.21L277.08,164.85L282.75,168.32L307.08,185.24L311.17,188.54L327.83,204.59L330.44,207.7L340.06,222.75L341.33,225.66L344.36,236.92L344.62,239.64L344.69,241.98" style="vector-effect: non-scaling-stroke; fill: none; stroke: rgb(182, 147, 204); stroke-opacity: 1; stroke-width: 6.5px; opacity: 1;"/></g><g class="points"/><g class="text"/></g><g class="trace scatter trace59f423" style="stroke-miterlimit: 2; opacity: 1;"><g class="fills"/><g class="errorbars"/><g class="lines"><path class="js-line" d="M344.69,241.98L343.23,252.36L342.42,254.86L335.92,266.79L334.15,269.07L323.14,279.85L320.53,281.89L302.22,293.34L298.76,295.11L275.8,304.97L271.64,306.48L240.15,316.02L235.36,317.24L195.18,325.67L190,326.56L125.37,335.91" style="vector-effect: non-scaling-stroke; fill: none; stroke: rgb(182, 147, 204); stroke-opacity: 1; stroke-width: 6.5px; opacity: 1; stroke-dasharray: 19.5px, 19.5px;"/></g><g class="points"/><g class="text"/></g><g class="trace scatter trace8ae189" style="stroke-miterlimit: 2; opacity: 1;"><g class="fills"/><g class="errorbars"/><g class="lines"><path class="js-line" d="M125.37,335.91L131.23,336.53L141.48,336.77L332.6,337.22L340.8,337.22L483,337.25" style="vector-effect: non-scaling-stroke; fill: none; stroke: rgb(182, 147, 204); stroke-opacity: 1; stroke-width: 6.5px; opacity: 1;"/></g><g class="points"/><g class="text"/></g><g class="trace scatter trace0ced7a" style="stroke-miterlimit: 2; opacity: 1;"><g class="fills"/><g class="errorbars"/><g class="lines"><path class="js-line" d="M0,307.03L2.39,197.08L2.77,186.56L7.15,102.77L8.6,85.02L13.25,47.43L17.44,30.46L23.36,20.46L29.62,17.75L42.73,19.54L49.9,21.68L104.41,41.51L115.62,45.93L177.73,72.71L187.08,77.15L229.57,99.16L237.2,103.51L271.13,124.94L277.08,129.15L302.75,149.74L307.08,153.76L324.98,173.31L327.83,177.11L336.88,191.89L338.58,195.49L343.25,209.43L343.9,212.8L344.69,222.24" style="vector-effect: non-scaling-stroke; fill: none; stroke: rgb(228, 128, 128); stroke-opacity: 1; stroke-width: 6.5px; opacity: 1;"/></g><g class="points"/><g class="text"/></g><g class="trace scatter trace870117" style="stroke-miterlimit: 2; opacity: 1;"><g class="fills"/><g class="errorbars"/><g class="lines"><path class="js-line" d="M344.69,222.24L343.23,234.78L342.42,237.79L337.54,249.41L335.92,252.2L325.62,265.45L323.14,267.96L308.8,279.82L305.57,282.05L283.85,294.49L279.88,296.41L249.53,308.55L244.88,310.11L210.56,319.78L205.46,320.98L159.22,329.92L154.28,330.7L125.37,335.62" style="vector-effect: non-scaling-stroke; fill: none; stroke: rgb(228, 128, 128); stroke-opacity: 1; stroke-width: 6.5px; opacity: 1; stroke-dasharray: 19.5px, 19.5px;"/></g><g class="points"/><g class="text"/></g><g class="trace scatter trace95b48a" style="stroke-miterlimit: 2; opacity: 1;"><g class="fills"/><g class="errorbars"/><g class="lines"><path class="js-line" d="M125.37,335.62L131.23,336.38L141.48,336.67L307.24,337.2L315.83,337.2L483,337.24" style="vector-effect: non-scaling-stroke; fill: none; stroke: rgb(228, 128, 128); stroke-opacity: 1; stroke-width: 6.5px; opacity: 1;"/></g><g class="points"/><g class="text"/></g></g></g><g class="overplot"><g class="xy2" transform="translate(93,60)" clip-path="url('#clipafee51xy2plot')"><g class="scatterlayer mlayer"><g class="trace scatter trace0c31b3" style="stroke-miterlimit: 2; opacity: 1;"><g class="fills"/><g class="errorbars"/><g class="lines"><path class="js-line" d="M0,17.75L3.21,18.78L3.73,18.86L93.83,34.09L104.41,36.18L177.73,52.67L187.08,55.09L237.2,69.93L244.55,72.45L282.75,87.76L288.15,90.34L311.17,103.35L314.99,105.97L330.44,119.14L332.81,121.78L340.06,132.38L341.33,135.03L344.36,145.66L344.62,148.32L344.69,150.63" style="vector-effect: non-scaling-stroke; fill: none; stroke: rgb(76, 167, 162); stroke-opacity: 1; stroke-width: 6.5px; opacity: 1;"/></g><g class="points"/><g class="text"/></g><g class="trace scatter trace25bb26" style="stroke-miterlimit: 2; opacity: 1;"><g class="fills"/><g class="errorbars"/><g class="lines"><path class="js-line" d="M344.69,150.63L343.23,161.26L342.42,163.92L335.92,177.18L334.15,179.83L323.14,193.06L320.53,195.7L302.22,211.5L298.76,214.13L271.64,232.47L267.38,235.08L225.6,258.52L220.63,261.12L136.25,305.54L132.5,308.23L126.83,313.73L125.48,316.56L125.37,317.56" style="vector-effect: non-scaling-stroke; fill: none; stroke: rgb(76, 167, 162); stroke-opacity: 1; stroke-width: 6.5px; opacity: 1; stroke-dasharray: 19.5px, 19.5px;"/></g><g class="points"/><g class="text"/></g><g class="trace scatter trace3990f8" style="stroke-miterlimit: 2; opacity: 1;"><g class="fills"/><g class="errorbars"/><g class="lines"><path class="js-line" d="M125.37,317.56L126.57,320.5L131.23,323.54L141.48,326.53L156.22,328.86L208.64,332.67L220.04,333.15L332.6,335.8L340.8,335.92L483,337.25" style="vector-effect: non-scaling-stroke; fill: none; stroke: rgb(76, 167, 162); stroke-opacity: 1; stroke-width: 6.5px; opacity: 1;"/></g><g class="points"/><g class="text"/></g></g></g></g><path class="xlines-above crisp" d="M90,416.5H579" style="fill: none; stroke-width: 3px; stroke: rgb(0, 0, 0); stroke-opacity: 1;"/><path class="ylines-above crisp" d="M91.5,60V415" style="fill: none; stroke-width: 3px; stroke: rgb(0, 0, 0); stroke-opacity: 1;"/><g class="overlines-above"><path class="xy2-x crisp" d="M0,0" style="fill: none;"/><path class="xy2-y crisp" d="M577.5,60V415" style="fill: none; stroke-width: 3px; stroke: rgb(0, 0, 0); stroke-opacity: 1;"/></g><g class="xaxislayer-above"><g class="xtick"><text text-anchor="middle" x="0" y="446.8" transform="translate(93,0)" style="font-family: sans-serif; font-size: 24px; fill: rgb(0, 0, 0); fill-opacity: 1; white-space: pre;">0</text></g><g class="xtick"><text text-anchor="middle" x="0" y="446.8" transform="translate(254,0)" style="font-family: sans-serif; font-size: 24px; fill: rgb(0, 0, 0); fill-opacity: 1; white-space: pre;">0.5</text></g><g class="xtick"><text text-anchor="middle" x="0" y="446.8" transform="translate(415,0)" style="font-family: sans-serif; font-size: 24px; fill: rgb(0, 0, 0); fill-opacity: 1; white-space: pre;">1</text></g><g class="xtick"><text text-anchor="middle" x="0" y="446.8" transform="translate(576,0)" style="font-family: sans-serif; font-size: 24px; fill: rgb(0, 0, 0); fill-opacity: 1; white-space: pre;">1.5</text></g></g><g class="yaxislayer-above"><g class="ytick"><text text-anchor="end" x="85.2" y="8.399999999999999" transform="translate(0,397.27)" style="font-family: sans-serif; font-size: 24px; fill: rgb(0, 0, 0); fill-opacity: 1; white-space: pre;">0</text></g><g class="ytick"><text text-anchor="end" x="85.2" y="8.399999999999999" transform="translate(0,360.87)" style="font-family: sans-serif; font-size: 24px; fill: rgb(0, 0, 0); fill-opacity: 1; white-space: pre;">0.1</text></g><g class="ytick"><text text-anchor="end" x="85.2" y="8.399999999999999" transform="translate(0,324.46)" style="font-family: sans-serif; font-size: 24px; fill: rgb(0, 0, 0); fill-opacity: 1; white-space: pre;">0.2</text></g><g class="ytick"><text text-anchor="end" x="85.2" y="8.399999999999999" transform="translate(0,288.05)" style="font-family: sans-serif; font-size: 24px; fill: rgb(0, 0, 0); fill-opacity: 1; white-space: pre;">0.3</text></g><g class="ytick"><text text-anchor="end" x="85.2" y="8.399999999999999" transform="translate(0,251.64)" style="font-family: sans-serif; font-size: 24px; fill: rgb(0, 0, 0); fill-opacity: 1; white-space: pre;">0.4</text></g><g class="ytick"><text text-anchor="end" x="85.2" y="8.399999999999999" transform="translate(0,215.23)" style="font-family: sans-serif; font-size: 24px; fill: rgb(0, 0, 0); fill-opacity: 1; white-space: pre;">0.5</text></g><g class="ytick"><text text-anchor="end" x="85.2" y="8.399999999999999" transform="translate(0,178.82999999999998)" style="font-family: sans-serif; font-size: 24px; fill: rgb(0, 0, 0); fill-opacity: 1; white-space: pre;">0.6</text></g><g class="ytick"><text text-anchor="end" x="85.2" y="8.399999999999999" transform="translate(0,142.42000000000002)" style="font-family: sans-serif; font-size: 24px; fill: rgb(0, 0, 0); fill-opacity: 1; white-space: pre;">0.7</text></g><g class="ytick"><text text-anchor="end" x="85.2" y="8.399999999999999" transform="translate(0,106.00999999999999)" style="font-family: sans-serif; font-size: 24px; fill: rgb(0, 0, 0); fill-opacity: 1; white-space: pre;">0.8</text></g><g class="ytick"><text text-anchor="end" x="85.2" y="8.399999999999999" transform="translate(0,69.6)" style="font-family: sans-serif; font-size: 24px; fill: rgb(0, 0, 0); fill-opacity: 1; white-space: pre;">0.9</text></g></g><g class="overaxes-above"><g class="xy2-x"/><g class="xy2-y"><g class="y2tick"><text text-anchor="start" x="583.8" y="8.399999999999999" transform="translate(0,400.28)" style="font-family: sans-serif; font-size: 24px; fill: rgb(0, 0, 0); fill-opacity: 1; white-space: pre;">0</text></g><g class="y2tick"><text text-anchor="start" x="583.8" y="8.399999999999999" transform="translate(0,349.15)" style="font-family: sans-serif; font-size: 24px; fill: rgb(0, 0, 0); fill-opacity: 1; white-space: pre;">0.0002</text></g><g class="y2tick"><text text-anchor="start" x="583.8" y="8.399999999999999" transform="translate(0,298.03)" style="font-family: sans-serif; font-size: 24px; fill: rgb(0, 0, 0); fill-opacity: 1; white-space: pre;">0.0004</text></g><g class="y2tick"><text text-anchor="start" x="583.8" y="8.399999999999999" transform="translate(0,246.9)" style="font-family: sans-serif; font-size: 24px; fill: rgb(0, 0, 0); fill-opacity: 1; white-space: pre;">0.0006</text></g><g class="y2tick"><text text-anchor="start" x="583.8" y="8.399999999999999" transform="translate(0,195.78)" style="font-family: sans-serif; font-size: 24px; fill: rgb(0, 0, 0); fill-opacity: 1; white-space: pre;">0.0008</text></g><g class="y2tick"><text text-anchor="start" x="583.8" y="8.399999999999999" transform="translate(0,144.65)" style="font-family: sans-serif; font-size: 24px; fill: rgb(0, 0, 0); fill-opacity: 1; white-space: pre;">0.001</text></g><g class="y2tick"><text text-anchor="start" x="583.8" y="8.399999999999999" transform="translate(0,93.53)" style="font-family: sans-serif; font-size: 24px; fill: rgb(0, 0, 0); fill-opacity: 1; white-space: pre;">0.0012</text></g></g></g></g><g class="subplot xy2"/></g><g class="polarlayer"/><g class="ternarylayer"/><g class="geolayer"/><g class="funnelarealayer"/><g class="pielayer"/><g class="treemaplayer"/><g class="sunburstlayer"/><g class="glimages"/><defs id="topdefs-afee51"><g class="clips"/><clipPath id="legendafee51"><rect width="102" height="133" x="0" y="0"/></clipPath></defs><g class="layer-above"><g class="imagelayer"/><g class="shapelayer"/></g><g class="infolayer"><g class="legend" pointer-events="all" transform="translate(585.6600000000001,60)"><rect class="bg" shape-rendering="crispEdges" style="stroke: rgb(68, 68, 68); stroke-opacity: 1; fill: rgb(255, 255, 255); fill-opacity: 1; stroke-width: 0px;" width="102" height="133" x="0" y="0"/><g class="scrollbox" transform="" clip-path="url('#legendafee51')"><g class="groups" transform=""><g class="traces" transform="translate(0,22.1)" style="opacity: 1;"><text class="legendtext" text-anchor="start" x="40" y="9.360000000000001" style="font-family: sans-serif; font-size: 24px; fill: rgb(0, 0, 0); fill-opacity: 1; white-space: pre;">RtcB</text><g class="layers" style="opacity: 1;"><g class="legendfill"/><g class="legendlines"><path class="js-line" d="M5,0h30" style="fill: none; stroke: rgb(182, 147, 204); stroke-opacity: 1; stroke-width: 6.5px;"/></g><g class="legendsymbols"><g class="legendpoints"/></g></g><rect class="legendtoggle" x="0" y="-17.1" width="96.28125" height="34.2" style="fill: rgb(0, 0, 0); fill-opacity: 0;"/></g></g><g class="groups" transform="translate(0,10)"><g class="traces" transform="translate(0,56.300000000000004)" style="opacity: 1;"><text class="legendtext" text-anchor="start" x="40" y="9.360000000000001" style="font-family: sans-serif; font-size: 24px; fill: rgb(0, 0, 0); fill-opacity: 1; white-space: pre;">RtcR</text><g class="layers" style="opacity: 1;"><g class="legendfill"/><g class="legendlines"><path class="js-line" d="M5,0h30" style="fill: none; stroke: rgb(76, 167, 162); stroke-opacity: 1; stroke-width: 6.5px;"/></g><g class="legendsymbols"><g class="legendpoints"/></g></g><rect class="legendtoggle" x="0" y="-17.1" width="96.28125" height="34.2" style="fill: rgb(0, 0, 0); fill-opacity: 0;"/></g></g><g class="groups" transform="translate(0,20)"><g class="traces" transform="translate(0,90.5)" style="opacity: 1;"><text class="legendtext" text-anchor="start" x="40" y="9.360000000000001" style="font-family: sans-serif; font-size: 24px; fill: rgb(0, 0, 0); fill-opacity: 1; white-space: pre;">RtcA</text><g class="layers" style="opacity: 1;"><g class="legendfill"/><g class="legendlines"><path class="js-line" d="M5,0h30" style="fill: none; stroke: rgb(228, 128, 128); stroke-opacity: 1; stroke-width: 6.5px;"/></g><g class="legendsymbols"><g class="legendpoints"/></g></g><rect class="legendtoggle" x="0" y="-17.1" width="96.28125" height="34.2" style="fill: rgb(0, 0, 0); fill-opacity: 0;"/></g></g></g><rect class="scrollbar" rx="20" ry="3" width="0" height="0" style="fill: rgb(128, 139, 164); fill-opacity: 1;" x="0" y="0"/></g><g class="g-gtitle"/><g class="g-xtitle"><text class="xtitle" x="334.5" y="488.1125" text-anchor="middle" style="font-family: sans-serif; font-size: 29px; fill: rgb(0, 0, 0); opacity: 1; font-weight: normal; white-space: pre;">Damage rate (min​<tspan style="font-size:70%" dy="-0.6em">-1</tspan><tspan dy="0.42em">​</tspan>)</text></g><g class="g-ytitle" transform="translate(15.2685546875,0)"><text class="ytitle" transform="rotate(-90,11.731250000000003,237.5)" x="11.731250000000003" y="237.5" text-anchor="middle" style="font-family: sans-serif; font-size: 29px; fill: rgb(0, 0, 0); opacity: 1; font-weight: normal; white-space: pre;">Rtc protein (μM)</text></g><g class="g-y2title"/></g></svg>