<svg class="main-svg" xmlns="http://www.w3.org/2000/svg" xmlns:xlink="http://www.w3.org/1999/xlink" width="700" height="500" style="" viewBox="0 0 700 500"><rect x="0" y="0" width="700" height="500" style="fill: rgb(255, 255, 255); fill-opacity: 1;"/><defs id="defs-4084d8"><g class="clips"><clipPath id="clip4084d8xyplot" class="plotclip"><rect width="557" height="355"/></clipPath><clipPath class="axesclip" id="clip4084d8x"><rect x="93" y="0" width="557" height="500"/></clipPath><clipPath class="axesclip" id="clip4084d8y"><rect x="0" y="60" width="700" height="355"/></clipPath><clipPath class="axesclip" id="clip4084d8xy"><rect x="93" y="60" width="557" height="355"/></clipPath></g><g class="gradients"/></defs><g class="bglayer"/><g class="layer-below"><g class="imagelayer"/><g class="shapelayer"/></g><g class="cartesianlayer"><g class="subplot xy"><g class="layer-subplot"><g class="shapelayer"/><g class="imagelayer"/></g><g class="gridlayer"><g class="x"/><g class="y"/></g><g class="zerolinelayer"><path class="yzl zl crisp" transform="translate(0,397.27)" d="M93,0h557" style="stroke: rgb(255, 255, 255); stroke-opacity: 1; stroke-width: 2px;"/></g><path class="xlines-below"/><path class="ylines-below"/><g class="overlines-below"/><g class="xaxislayer-below"/><g class="yaxislayer-below"/><g class="overaxes-below"/><g class="plot" transform="translate(93,60)" clip-path="url('#clip4084d8xyplot')"><g class="scatterlayer mlayer"><g class="trace scatter traced61270" style="stroke-miterlimit: 2; opacity: 1;"><g class="fills"/><g class="errorbars"/><g class="lines"><path class="js-line" d="M0,312.22L2.39,229.16L2.76,221.13L6.94,156.82L8.25,143L12.13,112.85L15.28,97.15L20.11,83.1L26.94,74.82L34.16,72.57L41.53,72.8L66.39,77.94L75.85,80.31L158.51,103.32L170.61,107.03L236.34,129.11L246.13,132.76L297.99,154.33L305.49,157.86L338.22,175.17L343.82,178.55L367.38,195.06L371.22,198.27L386.28,213.83L388.49,216.84L394.85,228.53L395.84,231.36L397.5,241.98" style="vector-effect: non-scaling-stroke; fill: none; stroke: rgb(182, 147, 204); stroke-opacity: 1; stroke-width: 6.5px; opacity: 1;"/></g><g class="points"/><g class="text"/></g><g class="trace scatter trace7148a7" style="stroke-miterlimit: 2; opacity: 1;"><g class="fills"/><g class="errorbars"/><g class="lines"><path class="js-line" d="M397.5,241.98L395.81,252.36L394.88,254.86L389.25,264.48L387.39,266.79L375.51,277.77L372.65,279.85L356.11,289.67L352.39,291.52L327.34,301.83L322.76,303.42L287.76,313.48L282.39,314.77L236.94,323.78L231.02,324.74L172.37,332.44L167.01,333.02L144.58,335.91" style="vector-effect: non-scaling-stroke; fill: none; stroke: rgb(182, 147, 204); stroke-opacity: 1; stroke-width: 6.5px; opacity: 1; stroke-dasharray: 19.5px, 19.5px;"/></g><g class="points"/><g class="text"/></g><g class="trace scatter trace6c774f" style="stroke-miterlimit: 2; opacity: 1;"><g class="fills"/><g class="errorbars"/><g class="lines"><path class="js-line" d="M144.58,335.91L151.34,336.53L163.16,336.77L373.96,337.22L383.56,337.22L557,337.25" style="vector-effect: non-scaling-stroke; fill: none; stroke: rgb(182, 147, 204); stroke-opacity: 1; stroke-width: 6.5px; opacity: 1;"/></g><g class="points"/><g class="text"/></g><g class="trace scatter trace9313ea" style="stroke-miterlimit: 2; opacity: 1;"><g class="fills"/><g class="errorbars"/><g class="lines"><path class="js-line" d="M0,307.03L2.39,206.77L2.76,197.08L6.94,119.45L8.25,102.77L12.13,66.37L15.28,47.43L20.11,30.46L26.94,20.46L34.16,17.75L41.53,18.03L66.39,24.23L75.85,27.09L146.08,50.4L158.51,54.87L226.21,81.58L236.34,86L282.02,107.85L290.17,112.16L326.07,133.33L332.3,137.48L358.84,157.74L363.25,161.69L378.05,177.11L381.06,180.87L390.45,195.49L392.17,199.04L396.59,212.8L397.11,216.13L397.5,222.24" style="vector-effect: non-scaling-stroke; fill: none; stroke: rgb(228, 128, 128); stroke-opacity: 1; stroke-width: 6.5px; opacity: 1;"/></g><g class="points"/><g class="text"/></g><g class="trace scatter tracee3e591" style="stroke-miterlimit: 2; opacity: 1;"><g class="fills"/><g class="errorbars"/><g class="lines"><path class="js-line" d="M397.5,222.24L395.81,234.78L394.88,237.79L389.25,249.41L387.39,252.2L375.51,265.45L372.65,267.96L356.11,279.82L352.39,282.05L327.34,294.49L322.76,296.41L293.04,306.95L287.76,308.55L248.65,318.53L242.82,319.78L189.41,329.1L183.61,329.92L144.58,335.62" style="vector-effect: non-scaling-stroke; fill: none; stroke: rgb(228, 128, 128); stroke-opacity: 1; stroke-width: 6.5px; opacity: 1; stroke-dasharray: 19.5px, 19.5px;"/></g><g class="points"/><g class="text"/></g><g class="trace scatter trace998e0b" style="stroke-miterlimit: 2; opacity: 1;"><g class="fills"/><g class="errorbars"/><g class="lines"><path class="js-line" d="M144.58,335.62L151.34,336.38L163.16,336.67L354.31,337.2L364.22,337.2L557,337.24" style="vector-effect: non-scaling-stroke; fill: none; stroke: rgb(228, 128, 128); stroke-opacity: 1; stroke-width: 6.5px; opacity: 1;"/></g><g class="points"/><g class="text"/></g></g></g><g class="overplot"/><path class="xlines-above crisp" d="M90,416.5H650" style="fill: none; stroke-width: 3px; stroke: rgb(0, 0, 0); stroke-opacity: 1;"/><path class="ylines-above crisp" d="M91.5,60V415" style="fill: none; stroke-width: 3px; stroke: rgb(0, 0, 0); stroke-opacity: 1;"/><g class="overlines-above"/><g class="xaxislayer-above"><g class="xtick"><text text-anchor="middle" x="0" y="446.8" transform="translate(93,0)" style="font-family: sans-serif; font-size: 24px; fill: rgb(0, 0, 0); fill-opacity: 1; white-space: pre;">0</text></g><g class="xtick"><text text-anchor="middle" x="0" y="446.8" transform="translate(167.26999999999998,0)" style="font-family: sans-serif; font-size: 24px; fill: rgb(0, 0, 0); fill-opacity: 1; white-space: pre;">0.2</text></g><g class="xtick"><text text-anchor="middle" x="0" y="446.8" transform="translate(241.53,0)" style="font-family: sans-serif; font-size: 24px; fill: rgb(0, 0, 0); fill-opacity: 1; white-space: pre;">0.4</text></g><g class="xtick"><text text-anchor="middle" x="0" y="446.8" transform="translate(315.8,0)" style="font-family: sans-serif; font-size: 24px; fill: rgb(0, 0, 0); fill-opacity: 1; white-space: pre;">0.6</text></g><g class="xtick"><text text-anchor="middle" x="0" y="446.8" transform="translate(390.07,0)" style="font-family: sans-serif; font-size: 24px; fill: rgb(0, 0, 0); fill-opacity: 1; white-space: pre;">0.8</text></g><g class="xtick"><text text-anchor="middle" x="0" y="446.8" transform="translate(464.33,0)" style="font-family: sans-serif; font-size: 24px; fill: rgb(0, 0, 0); fill-opacity: 1; white-space: pre;">1</text></g><g class="xtick"><text text-anchor="middle" x="0" y="446.8" transform="translate(538.6,0)" style="font-family: sans-serif; font-size: 24px; fill: rgb(0, 0, 0); fill-opacity: 1; white-space: pre;">1.2</text></g><g class="xtick"><text text-anchor="middle" x="0" y="446.8" transform="translate(612.87,0)" style="font-family: sans-serif; font-size: 24px; fill: rgb(0, 0, 0); fill-opacity: 1; white-space: pre;">1.4</text></g></g><g class="yaxislayer-above"><g class="ytick"><text text-anchor="end" x="85.2" y="8.399999999999999" transform="translate(0,397.27)" style="font-family: sans-serif; font-size: 24px; fill: rgb(0, 0, 0); fill-opacity: 1; white-space: pre;">0</text></g><g class="ytick"><text text-anchor="end" x="85.2" y="8.399999999999999" transform="translate(0,360.87)" style="font-family: sans-serif; font-size: 24px; fill: rgb(0, 0, 0); fill-opacity: 1; white-space: pre;">0.1</text></g><g class="ytick"><text text-anchor="end" x="85.2" y="8.399999999999999" transform="translate(0,324.46)" style="font-family: sans-serif; font-size: 24px; fill: rgb(0, 0, 0); fill-opacity: 1; white-space: pre;">0.2</text></g><g class="ytick"><text text-anchor="end" x="85.2" y="8.399999999999999" transform="translate(0,288.05)" style="font-family: sans-serif; font-size: 24px; fill: rgb(0, 0, 0); fill-opacity: 1; white-space: pre;">0.3</text></g><g class="ytick"><text text-anchor="end" x="85.2" y="8.399999999999999" transform="translate(0,251.64)" style="font-family: sans-serif; font-size: 24px; fill: rgb(0, 0, 0); fill-opacity: 1; white-space: pre;">0.4</text></g><g class="ytick"><text text-anchor="end" x="85.2" y="8.399999999999999" transform="translate(0,215.23)" style="font-family: sans-serif; font-size: 24px; fill: rgb(0, 0, 0); fill-opacity: 1; white-space: pre;">0.5</text></g><g class="ytick"><text text-anchor="end" x="85.2" y="8.399999999999999" transform="translate(0,178.82999999999998)" style="font-family: sans-serif; font-size: 24px; fill: rgb(0, 0, 0); fill-opacity: 1; white-space: pre;">0.6</text></g><g class="ytick"><text text-anchor="end" x="85.2" y="8.399999999999999" transform="translate(0,142.42000000000002)" style="font-family: sans-serif; font-size: 24px; fill: rgb(0, 0, 0); fill-opacity: 1; white-space: pre;">0.7</text></g><g class="ytick"><text text-anchor="end" x="85.2" y="8.399999999999999" transform="translate(0,106.00999999999999)" style="font-family: sans-serif; font-size: 24px; fill: rgb(0, 0, 0); fill-opacity: 1; white-space: pre;">0.8</text></g><g class="ytick"><text text-anchor="end" x="85.2" y="8.399999999999999" transform="translate(0,69.6)" style="font-family: sans-serif; font-size: 24px; fill: rgb(0, 0, 0); fill-opacity: 1; white-space: pre;">0.9</text></g></g><g class="overaxes-above"/></g></g><g class="polarlayer"/><g class="ternarylayer"/><g class="geolayer"/><g class="funnelarealayer"/><g class="pielayer"/><g class="treemaplayer"/><g class="sunburstlayer"/><g class="glimages"/><defs id="topdefs-4084d8"><g class="clips"/></defs><g class="layer-above"><g class="imagelayer"/><g class="shapelayer"/></g><g class="infolayer"><g class="g-gtitle"/><g class="g-xtitle"><text class="xtitle" x="371.5" y="488.1125" text-anchor="middle" style="font-family: sans-serif; font-size: 29px; fill: rgb(0, 0, 0); opacity: 1; font-weight: normal; white-space: pre;">Damage rate (min​<tspan style="font-size:70%" dy="-0.6em">-1</tspan><tspan dy="0.42em">​</tspan>)</text></g><g class="g-ytitle" transform="translate(15.2685546875,0)"><text class="ytitle" transform="rotate(-90,11.731250000000003,237.5)" x="11.731250000000003" y="237.5" text-anchor="middle" style="font-family: sans-serif; font-size: 29px; fill: rgb(0, 0, 0); opacity: 1; font-weight: normal; white-space: pre;">Rtc protein (μM)</text></g></g></svg>