<svg class="main-svg" xmlns="http://www.w3.org/2000/svg" xmlns:xlink="http://www.w3.org/1999/xlink" width="700" height="500" style="" viewBox="0 0 700 500"><rect x="0" y="0" width="700" height="500" style="fill: rgb(255, 255, 255); fill-opacity: 1;"/><defs id="defs-7e0b30"><g class="clips"><clipPath id="clip7e0b30xyplot" class="plotclip"><rect width="564" height="355"/></clipPath><clipPath class="axesclip" id="clip7e0b30x"><rect x="86" y="0" width="564" height="500"/></clipPath><clipPath class="axesclip" id="clip7e0b30y"><rect x="0" y="60" width="700" height="355"/></clipPath><clipPath class="axesclip" id="clip7e0b30xy"><rect x="86" y="60" width="564" height="355"/></clipPath></g><g class="gradients"/></defs><g class="bglayer"/><g class="layer-below"><g class="imagelayer"/><g class="shapelayer"/></g><g class="cartesianlayer"><g class="subplot xy"><g class="layer-subplot"><g class="shapelayer"/><g class="imagelayer"/></g><g class="gridlayer"><g class="x"/><g class="y"/></g><g class="zerolinelayer"><path class="yzl zl crisp" transform="translate(0,400.25)" d="M86,0h564" style="stroke: rgb(255, 255, 255); stroke-opacity: 1; stroke-width: 2px;"/></g><path class="xlines-below"/><path class="ylines-below"/><g class="overlines-below"/><g class="xaxislayer-below"/><g class="yaxislayer-below"/><g class="overaxes-below"/><g class="plot" transform="translate(86,60)" clip-path="url('#clip7e0b30xyplot')"><g class="scatterlayer mlayer"><g class="trace scatter trace5c1c33" style="stroke-miterlimit: 2; opacity: 1;"><g class="fills"/><g class="errorbars"/><g class="lines"><path class="js-line" d="M0,17.75L3.23,18.7L3.75,18.78L97.94,32.17L109.56,34.09L196.27,50.26L207.53,52.67L268.06,67.42L276.98,69.93L323.55,85.18L330.17,87.75L358.58,100.73L363.35,103.35L382.8,116.49L385.85,119.13L395.36,129.72L397.09,132.37L401.57,142.99L402.1,145.65L402.49,150.62" style="vector-effect: non-scaling-stroke; fill: none; stroke: rgb(150, 150, 150); stroke-opacity: 1; stroke-width: 6.5px; opacity: 1;"/></g><g class="points"/><g class="text"/></g><g class="trace scatter traced7ce2f" style="stroke-miterlimit: 2; opacity: 1;"><g class="fills"/><g class="errorbars"/><g class="lines"><path class="js-line" d="M402.49,150.62L400.78,161.25L399.84,163.9L394.14,174.52L392.26,177.17L380.23,190.4L377.33,193.04L356.81,208.86L352.9,211.49L322.05,229.84L317.19,232.45L269.16,255.9L263.43,258.5L159.1,305.51L154.72,308.21L148.09,313.7L146.52,316.54L146.4,317.54" style="vector-effect: non-scaling-stroke; fill: none; stroke: rgb(150, 150, 150); stroke-opacity: 1; stroke-width: 6.5px; opacity: 1; stroke-dasharray: 19.5px, 19.5px;"/></g><g class="points"/><g class="text"/></g><g class="trace scatter tracee692a4" style="stroke-miterlimit: 2; opacity: 1;"><g class="fills"/><g class="errorbars"/><g class="lines"><path class="js-line" d="M146.4,317.54L147.8,320.47L153.24,323.52L165.21,326.51L182.42,328.83L243.63,332.64L256.94,333.12L388.38,335.77L397.96,335.89L564,337.22" style="vector-effect: non-scaling-stroke; fill: none; stroke: rgb(150, 150, 150); stroke-opacity: 1; stroke-width: 6.5px; opacity: 1;"/></g><g class="points"/><g class="text"/></g><g class="trace scatter trace3e070d" style="stroke-miterlimit: 2; opacity: 1;"><g class="fills"/><g class="errorbars"/><g class="lines"><path class="js-line" d="M0,17.75L3.35,18.75L3.9,18.83L110.6,34.72L122.29,36.76L197.47,51.45L209,54.01L270.66,69.68L279.68,72.35L319.41,85.85L326.29,88.58L355.59,102.37L360.45,105.15L376.67,116.32L379.94,119.12L390.08,130.37L391.9,133.18L396.45,144.46L396.94,147.29L397.2,151.41" style="vector-effect: non-scaling-stroke; fill: none; stroke: rgb(161, 64, 63); stroke-opacity: 1; stroke-width: 6.5px; opacity: 1;"/></g><g class="points"/><g class="text"/></g><g class="trace scatter traceaf0756" style="stroke-miterlimit: 2; opacity: 1;"><g class="fills"/><g class="errorbars"/><g class="lines"><path class="js-line" d="M397.2,151.41L395.31,162.69L394.27,165.51L387.96,176.77L385.87,179.58L372.59,193.6L369.4,196.4L346.85,213.15L342.56,215.93L308.83,235.34L303.52,238.1L251.45,262.91L245.28,265.66L159.2,304.8L154.3,307.77L146.87,313.94L145.4,317.21" style="vector-effect: non-scaling-stroke; fill: none; stroke: rgb(161, 64, 63); stroke-opacity: 1; stroke-width: 6.5px; opacity: 1; stroke-dasharray: 19.5px, 19.5px;"/></g><g class="points"/><g class="text"/></g><g class="trace scatter tracec98f21" style="stroke-miterlimit: 2; opacity: 1;"><g class="fills"/><g class="errorbars"/><g class="lines"><path class="js-line" d="M145.39,317.5L147.11,320.77L152.89,323.76L168.39,327.22L176,328.25L217.53,331.53L223.89,331.85L316.3,334.69L321.84,334.8L533.62,337.06L541.96,337.11L564,337.24" style="vector-effect: non-scaling-stroke; fill: none; stroke: rgb(161, 64, 63); stroke-opacity: 1; stroke-width: 6.5px; opacity: 1;"/></g><g class="points"/><g class="text"/></g><g class="trace scatter tracec9bfb2" style="stroke-miterlimit: 2; opacity: 1;"><g class="fills"/><g class="errorbars"/><g class="lines"><path class="js-line" d="M0,17.75L3.18,18.74L3.69,18.82L120.81,36.84L133.23,39.1L207.15,54.27L218.25,56.87L277.35,72.75L285.95,75.44L323.63,89.09L330.12,91.85L357.5,105.76L361.99,108.56L376.79,119.8L379.73,122.62L388.58,133.93L390.09,136.77L393.47,148.1L393.68,150.94L393.69,151.95" style="vector-effect: non-scaling-stroke; fill: none; stroke: rgb(226, 90, 88); stroke-opacity: 1; stroke-width: 6.5px; opacity: 1;"/></g><g class="points"/><g class="text"/></g><g class="trace scatter trace3e93f9" style="stroke-miterlimit: 2; opacity: 1;"><g class="fills"/><g class="errorbars"/><g class="lines"><path class="js-line" d="M393.69,151.95L391.79,163.29L390.75,166.12L384.43,177.42L382.34,180.25L369.05,194.33L365.85,197.14L343.28,213.95L338.99,216.74L305.22,236.23L299.91,239L247.77,263.93L241.58,266.7L160.94,303.39L155.71,306.4L147.28,312.68L144.99,315.99L144.7,317.52" style="vector-effect: non-scaling-stroke; fill: none; stroke: rgb(226, 90, 88); stroke-opacity: 1; stroke-width: 6.5px; opacity: 1; stroke-dasharray: 19.5px, 19.5px;"/></g><g class="points"/><g class="text"/></g><g class="trace scatter tracea00f5d" style="stroke-miterlimit: 2; opacity: 1;"><g class="fills"/><g class="errorbars"/><g class="lines"><path class="js-line" d="M144.7,317.52L146.17,320.55L150.25,323.02L166.14,326.99L171.54,327.79L212.14,331.29L216.94,331.55L300.41,334.39L305.13,334.49L489.63,336.77L497.87,336.83L564,337.24" style="vector-effect: non-scaling-stroke; fill: none; stroke: rgb(226, 90, 88); stroke-opacity: 1; stroke-width: 6.5px; opacity: 1;"/></g><g class="points"/><g class="text"/></g><g class="trace scatter tracefc8422" style="stroke-miterlimit: 2; opacity: 1;"><g class="fills"/><g class="errorbars"/><g class="lines"><path class="js-line" d="M0,17.75L3.42,18.82L3.98,18.91L116.23,36.85L128.4,39.15L201.29,54.6L212.24,57.24L270.58,73.4L279.06,76.13L316.24,89.99L322.64,92.79L349.63,106.89L354.05,109.73L368.61,121.12L371.49,123.98L380.13,135.43L381.59,138.29L384.81,149.76L384.98,152.63L384.98,153.17" style="vector-effect: non-scaling-stroke; fill: none; stroke: rgb(255, 156, 155); stroke-opacity: 1; stroke-width: 6.5px; opacity: 1;"/></g><g class="points"/><g class="text"/></g><g class="trace scatter traced277db" style="stroke-miterlimit: 2; opacity: 1;"><g class="fills"/><g class="errorbars"/><g class="lines"><path class="js-line" d="M384.98,153.17L383.09,164.63L382.05,167.49L375.74,178.92L373.65,181.77L360.36,196L357.17,198.84L334.57,215.82L330.27,218.64L296.45,238.33L291.13,241.14L238.84,266.37L232.64,269.19L157.74,304.04L152.47,307.21L144.55,313.72L143,316.75L142.93,317.48" style="vector-effect: non-scaling-stroke; fill: none; stroke: rgb(255, 156, 155); stroke-opacity: 1; stroke-width: 6.5px; opacity: 1; stroke-dasharray: 19.5px, 19.5px;"/></g><g class="points"/><g class="text"/></g><g class="trace scatter traceee3582" style="stroke-miterlimit: 2; opacity: 1;"><g class="fills"/><g class="errorbars"/><g class="lines"><path class="js-line" d="M142.93,317.48L145.51,321.45L147.94,322.8L159.83,326.22L163,326.8L195.36,330.35L198.63,330.58L261.15,333.44L264.99,333.55L391.69,335.89L398.81,335.97L564,337.25" style="vector-effect: non-scaling-stroke; fill: none; stroke: rgb(255, 156, 155); stroke-opacity: 1; stroke-width: 6.5px; opacity: 1;"/></g><g class="points"/><g class="text"/></g><g class="trace scatter tracef02e59" style="stroke-miterlimit: 2;"><g class="fills"><g><path class="js-fill" d="M402.49,340.25L0,340.25L0,17.75L0,17.75L0,17.75L0.01,17.77L0.02,17.78L0.04,17.8L0.05,17.82L0.07,17.84L0.09,17.86L0.12,17.88L0.15,17.9L0.18,17.92L0.21,17.95L0.25,17.97L0.3,18L0.35,18.03L0.41,18.06L0.48,18.09L0.56,18.12L0.66,18.16L0.76,18.2L0.88,18.23L1.02,18.27L1.18,18.32L1.36,18.36L1.57,18.41L1.81,18.46L2.09,18.51L2.42,18.57L2.79,18.64L3.23,18.7L3.75,18.78L4.36,18.86L5.09,18.96L5.96,19.06L7.03,19.19L8.35,19.34L10.04,19.52L12.28,19.77L15.47,20.13L20.36,20.71L27.28,21.6L34.59,22.59L42.05,23.63L49.9,24.77L58.27,26L67.23,27.35L76.8,28.82L87.03,30.42L97.94,32.17L109.56,34.09L121.92,36.18L135.01,38.46L147.92,40.79L160.5,43.13L172.75,45.49L184.68,47.87L196.27,50.26L207.53,52.67L218.46,55.09L229.05,57.53L239.31,59.98L249.23,62.45L258.81,64.93L268.06,67.42L276.98,69.93L285.56,72.44L293.82,74.97L301.74,77.51L309.33,80.05L316.6,82.61L323.55,85.18L330.17,87.75L336.48,90.33L342.47,92.92L348.15,95.52L353.52,98.12L358.58,100.73L363.35,103.35L367.82,105.97L371.99,108.59L375.88,111.22L379.48,113.85L382.8,116.49L385.85,119.13L388.62,121.77L391.13,124.42L393.38,127.07L395.36,129.72L397.09,132.37L398.58,135.02L399.81,137.68L400.81,140.33L401.57,142.99L402.1,145.65L402.41,148.3L402.49,150.62" style="fill: rgb(150, 150, 150); fill-opacity: 0.3; stroke-width: 0;"/></g></g><g class="errorbars"/><g class="lines"/><g class="points"/><g class="text"/></g><g class="trace scatter tracec2f1e7" style="stroke-miterlimit: 2;"><g class="fills"><g><path class="js-fill" d="M397.2,340.25L0,340.25L0,17.75L0,17.75L0,17.75L0.01,17.77L0.03,17.79L0.05,17.81L0.07,17.83L0.09,17.86L0.12,17.88L0.15,17.91L0.18,17.93L0.23,17.96L0.27,17.99L0.33,18.02L0.39,18.06L0.46,18.09L0.54,18.13L0.64,18.16L0.74,18.2L0.87,18.24L1.01,18.29L1.18,18.33L1.37,18.38L1.59,18.43L1.84,18.49L2.14,18.54L2.48,18.61L2.88,18.68L3.35,18.75L3.9,18.83L4.55,18.92L5.32,19.02L6.26,19.14L7.41,19.27L8.84,19.44L10.66,19.64L13.1,19.92L16.54,20.33L21.41,20.93L27.38,21.72L33.64,22.58L40.14,23.52L47.02,24.53L54.36,25.64L62.23,26.84L70.66,28.15L79.68,29.59L89.32,31.15L99.62,32.86L110.6,34.72L122.29,36.76L134.69,38.99L147.83,41.42L160.76,43.9L173.35,46.4L185.59,48.92L197.47,51.45L209,54.01L220.17,56.58L230.99,59.17L241.45,61.78L251.54,64.4L261.28,67.03L270.66,69.68L279.68,72.35L288.33,75.02L296.64,77.71L304.58,80.42L312.17,83.13L319.41,85.85L326.29,88.58L332.83,91.32L339.03,94.07L344.89,96.83L350.4,99.6L355.59,102.37L360.45,105.15L364.98,107.94L369.19,110.73L373.08,113.52L376.67,116.32L379.94,119.12L382.92,121.93L385.59,124.74L387.98,127.55L390.08,130.37L391.9,133.18L393.44,136L394.71,138.82L395.71,141.64L396.45,144.46L396.94,147.29L397.18,150.11L397.2,151.41" style="fill: rgb(161, 64, 63); fill-opacity: 0.3; stroke-width: 0;"/></g></g><g class="errorbars"/><g class="lines"/><g class="points"/><g class="text"/></g><g class="trace scatter trace0efc1e" style="stroke-miterlimit: 2;"><g class="fills"><g><path class="js-fill" d="M393.69,340.25L0,340.25L0,17.75L0,17.75L0,17.75L0.01,17.77L0.03,17.79L0.05,17.81L0.06,17.83L0.09,17.86L0.11,17.88L0.14,17.91L0.18,17.93L0.22,17.96L0.26,17.99L0.31,18.02L0.37,18.05L0.44,18.09L0.52,18.12L0.61,18.16L0.71,18.2L0.83,18.24L0.97,18.28L1.12,18.33L1.31,18.38L1.51,18.43L1.76,18.48L2.03,18.54L2.36,18.6L2.74,18.67L3.18,18.74L3.69,18.82L4.3,18.91L5.03,19.01L5.91,19.12L6.97,19.25L8.29,19.4L9.96,19.6L12.17,19.85L15.23,20.21L19.69,20.76L25.61,21.54L31.96,22.43L38.52,23.38L45.42,24.41L52.79,25.54L60.67,26.76L69.12,28.1L78.15,29.55L87.81,31.14L98.12,32.88L109.12,34.77L120.81,36.84L133.23,39.1L146.37,41.58L159.22,44.08L171.73,46.6L183.89,49.14L195.7,51.7L207.15,54.27L218.25,56.87L229,59.48L239.39,62.1L249.42,64.74L259.09,67.4L268.4,70.07L277.35,72.75L285.95,75.44L294.19,78.15L302.08,80.87L309.61,83.6L316.79,86.34L323.63,89.09L330.12,91.85L336.27,94.62L342.07,97.39L347.54,100.17L352.69,102.96L357.5,105.76L361.99,108.56L366.16,111.36L370.01,114.17L373.55,116.99L376.79,119.8L379.73,122.62L382.37,125.45L384.73,128.28L386.79,131.1L388.58,133.93L390.09,136.77L391.33,139.6L392.3,142.43L393.01,145.27L393.47,148.1L393.68,150.94L393.69,151.95" style="fill: rgb(226, 90, 88); fill-opacity: 0.3; stroke-width: 0;"/></g></g><g class="errorbars"/><g class="lines"/><g class="points"/><g class="text"/></g><g class="trace scatter trace015b2f" style="stroke-miterlimit: 2;"><g class="fills"><g><path class="js-fill" d="M384.98,340.25L0,340.25L0,17.75L0,17.75L0,17.75L0.01,17.77L0.03,17.79L0.04,17.81L0.06,17.83L0.08,17.86L0.11,17.88L0.14,17.91L0.17,17.93L0.21,17.96L0.25,17.99L0.3,18.02L0.35,18.05L0.42,18.09L0.49,18.12L0.57,18.16L0.67,18.2L0.78,18.24L0.91,18.29L1.05,18.33L1.22,18.38L1.42,18.43L1.64,18.49L1.9,18.55L2.2,18.61L2.54,18.67L2.95,18.75L3.42,18.82L3.98,18.91L4.65,19.01L5.44,19.12L6.4,19.24L7.57,19.39L9.04,19.57L10.93,19.8L13.48,20.11L17.16,20.57L22.48,21.28L28.87,22.18L35.45,23.17L42.3,24.22L49.54,25.36L57.28,26.61L65.55,27.97L74.41,29.45L83.88,31.06L93.99,32.83L104.77,34.75L116.23,36.85L128.4,39.15L141.29,41.65L153.98,44.21L166.32,46.78L178.32,49.37L189.98,51.97L201.29,54.6L212.24,57.24L222.85,59.9L233.1,62.57L243,65.25L252.55,67.95L261.74,70.67L270.58,73.4L279.06,76.13L287.19,78.88L294.98,81.65L302.41,84.42L309.5,87.2L316.24,89.99L322.64,92.79L328.7,95.6L334.43,98.41L339.82,101.23L344.89,104.06L349.63,106.89L354.05,109.73L358.15,112.57L361.94,115.42L365.43,118.27L368.61,121.12L371.49,123.98L374.08,126.84L376.38,129.7L378.39,132.56L380.13,135.43L381.59,138.29L382.79,141.16L383.72,144.03L384.39,146.89L384.81,149.76L384.98,152.63L384.98,153.17" style="fill: rgb(255, 156, 155); fill-opacity: 0.3; stroke-width: 0;"/></g></g><g class="errorbars"/><g class="lines"/><g class="points"/><g class="text"/></g></g></g><g class="overplot"/><path class="xlines-above crisp" d="M83,416.5H650" style="fill: none; stroke-width: 3px; stroke: rgb(0, 0, 0); stroke-opacity: 1;"/><path class="ylines-above crisp" d="M84.5,60V415" style="fill: none; stroke-width: 3px; stroke: rgb(0, 0, 0); stroke-opacity: 1;"/><g class="overlines-above"/><g class="xaxislayer-above"><g class="xtick"><text text-anchor="middle" x="0" y="446.8" transform="translate(86,0)" style="font-family: sans-serif; font-size: 24px; fill: rgb(0, 0, 0); fill-opacity: 1; white-space: pre;">0</text></g><g class="xtick"><text text-anchor="middle" x="0" y="446.8" transform="translate(161.2,0)" style="font-family: sans-serif; font-size: 24px; fill: rgb(0, 0, 0); fill-opacity: 1; white-space: pre;">0.2</text></g><g class="xtick"><text text-anchor="middle" x="0" y="446.8" transform="translate(236.4,0)" style="font-family: sans-serif; font-size: 24px; fill: rgb(0, 0, 0); fill-opacity: 1; white-space: pre;">0.4</text></g><g class="xtick"><text text-anchor="middle" x="0" y="446.8" transform="translate(311.6,0)" style="font-family: sans-serif; font-size: 24px; fill: rgb(0, 0, 0); fill-opacity: 1; white-space: pre;">0.6</text></g><g class="xtick"><text text-anchor="middle" x="0" y="446.8" transform="translate(386.8,0)" style="font-family: sans-serif; font-size: 24px; fill: rgb(0, 0, 0); fill-opacity: 1; white-space: pre;">0.8</text></g><g class="xtick"><text text-anchor="middle" x="0" y="446.8" transform="translate(462,0)" style="font-family: sans-serif; font-size: 24px; fill: rgb(0, 0, 0); fill-opacity: 1; white-space: pre;">1</text></g><g class="xtick"><text text-anchor="middle" x="0" y="446.8" transform="translate(537.2,0)" style="font-family: sans-serif; font-size: 24px; fill: rgb(0, 0, 0); fill-opacity: 1; white-space: pre;">1.2</text></g><g class="xtick"><text text-anchor="middle" x="0" y="446.8" transform="translate(612.4,0)" style="font-family: sans-serif; font-size: 24px; fill: rgb(0, 0, 0); fill-opacity: 1; white-space: pre;">1.4</text></g></g><g class="yaxislayer-above"><g class="ytick"><text text-anchor="end" x="78.2" y="8.399999999999999" transform="translate(0,400.25)" style="font-family: sans-serif; font-size: 24px; fill: rgb(0, 0, 0); fill-opacity: 1; white-space: pre;">0</text></g><g class="ytick"><text text-anchor="end" x="78.2" y="8.399999999999999" transform="translate(0,311.87)" style="font-family: sans-serif; font-size: 24px; fill: rgb(0, 0, 0); fill-opacity: 1; white-space: pre;">5</text></g><g class="ytick"><text text-anchor="end" x="78.2" y="8.399999999999999" transform="translate(0,223.49)" style="font-family: sans-serif; font-size: 24px; fill: rgb(0, 0, 0); fill-opacity: 1; white-space: pre;">10</text></g><g class="ytick"><text text-anchor="end" x="78.2" y="8.399999999999999" transform="translate(0,135.11)" style="font-family: sans-serif; font-size: 24px; fill: rgb(0, 0, 0); fill-opacity: 1; white-space: pre;">15</text></g></g><g class="overaxes-above"/></g></g><g class="polarlayer"/><g class="ternarylayer"/><g class="geolayer"/><g class="funnelarealayer"/><g class="pielayer"/><g class="treemaplayer"/><g class="sunburstlayer"/><g class="glimages"/><defs id="topdefs-7e0b30"><g class="clips"/></defs><g class="layer-above"><g class="imagelayer"/><g class="shapelayer"/></g><g class="infolayer"><g class="g-gtitle"/><g class="g-xtitle"><text class="xtitle" x="368" y="488.1125" text-anchor="middle" style="font-family: sans-serif; font-size: 29px; fill: rgb(0, 0, 0); opacity: 1; font-weight: normal; white-space: pre;">Damage rate (min​<tspan style="font-size:70%" dy="-0.6em">-1</tspan><tspan dy="0.42em">​</tspan>)</text></g><g class="g-ytitle" transform="translate(14.6435546875,0)"><text class="ytitle" transform="rotate(-90,12.356250000000003,237.5)" x="12.356250000000003" y="237.5" text-anchor="middle" style="font-family: sans-serif; font-size: 29px; fill: rgb(0, 0, 0); opacity: 1; font-weight: normal; white-space: pre;">Rh (μM)</text></g></g></svg>