<svg class="main-svg" xmlns="http://www.w3.org/2000/svg" xmlns:xlink="http://www.w3.org/1999/xlink" width="700" height="500" style="" viewBox="0 0 700 500"><rect x="0" y="0" width="700" height="500" style="fill: rgb(255, 255, 255); fill-opacity: 1;"/><defs id="defs-cf3d25"><g class="clips"><clipPath id="clipcf3d25xyplot" class="plotclip"><rect width="564" height="355"/></clipPath><clipPath class="axesclip" id="clipcf3d25x"><rect x="86" y="0" width="564" height="500"/></clipPath><clipPath class="axesclip" id="clipcf3d25y"><rect x="0" y="60" width="700" height="355"/></clipPath><clipPath class="axesclip" id="clipcf3d25xy"><rect x="86" y="60" width="564" height="355"/></clipPath></g><g class="gradients"/></defs><g class="bglayer"/><g class="layer-below"><g class="imagelayer"/><g class="shapelayer"/></g><g class="cartesianlayer"><g class="subplot xy"><g class="layer-subplot"><g class="shapelayer"/><g class="imagelayer"/></g><g class="gridlayer"><g class="x"/><g class="y"/></g><g class="zerolinelayer"><path class="yzl zl crisp" transform="translate(0,400.24)" d="M86,0h564" style="stroke: rgb(255, 255, 255); stroke-opacity: 1; stroke-width: 2px;"/></g><path class="xlines-below"/><path class="ylines-below"/><g class="overlines-below"/><g class="xaxislayer-below"/><g class="yaxislayer-below"/><g class="overaxes-below"/><g class="plot" transform="translate(86,60)" clip-path="url('#clipcf3d25xyplot')"><g class="scatterlayer mlayer"><g class="trace scatter trace340ec4" style="stroke-miterlimit: 2; opacity: 1;"><g class="fills"/><g class="errorbars"/><g class="lines"><path class="js-line" d="M0,17.75L3.23,18.7L3.75,18.78L97.94,32.17L109.56,34.09L196.27,50.26L207.53,52.67L268.06,67.42L276.98,69.92L323.55,85.17L330.17,87.75L358.58,100.73L363.35,103.34L382.8,116.49L385.85,119.13L395.36,129.71L397.09,132.37L401.57,142.99L402.1,145.64L402.49,150.61" style="vector-effect: non-scaling-stroke; fill: none; stroke: rgb(150, 150, 150); stroke-opacity: 1; stroke-width: 6.5px; opacity: 1;"/></g><g class="points"/><g class="text"/></g><g class="trace scatter trace501185" style="stroke-miterlimit: 2; opacity: 1;"><g class="fills"/><g class="errorbars"/><g class="lines"><path class="js-line" d="M402.49,150.61L400.78,161.24L399.84,163.9L394.14,174.51L392.26,177.16L380.23,190.4L377.33,193.04L356.81,208.85L352.9,211.48L322.05,229.83L317.19,232.44L274.83,253.29L269.16,255.89L154.72,308.2L150.97,310.92L146.4,317.53" style="vector-effect: non-scaling-stroke; fill: none; stroke: rgb(150, 150, 150); stroke-opacity: 1; stroke-width: 6.5px; opacity: 1; stroke-dasharray: 19.5px, 19.5px;"/></g><g class="points"/><g class="text"/></g><g class="trace scatter trace585241" style="stroke-miterlimit: 2; opacity: 1;"><g class="fills"/><g class="errorbars"/><g class="lines"><path class="js-line" d="M146.4,317.53L147.8,320.46L153.24,323.51L165.21,326.5L182.42,328.82L243.63,332.63L256.94,333.11L388.38,335.76L397.96,335.88L564,337.21" style="vector-effect: non-scaling-stroke; fill: none; stroke: rgb(150, 150, 150); stroke-opacity: 1; stroke-width: 6.5px; opacity: 1;"/></g><g class="points"/><g class="text"/></g><g class="trace scatter trace17cc20" style="stroke-miterlimit: 2; opacity: 1;"><g class="fills"/><g class="errorbars"/><g class="lines"><path class="js-line" d="M0,17.75L2.42,19.14L2.87,19.29L25.04,27.71L28.6,29.24L60.03,44.35L65.05,47.1L91.3,63.63L95.07,66.39L114.36,83.03L117.06,85.81L130.38,102.52L132.15,105.3L140.36,122.05L141.34,124.84L145.17,141.61L145.48,144.4L145.9,153.18" style="vector-effect: non-scaling-stroke; fill: none; stroke: rgb(126, 92, 148); stroke-opacity: 1; stroke-width: 6.5px; opacity: 1;"/></g><g class="points"/><g class="text"/></g><g class="trace scatter trace9c471a" style="stroke-miterlimit: 2; opacity: 1;"><g class="fills"/><g class="errorbars"/><g class="lines"><path class="js-line" d="M145.9,153.18L144,172.75L143.43,175.54L137.7,195.11L136.64,197.9L126.39,220.25L124.91,223.04L106.7,253.77L104.95,256.57L87.4,287.38L86.28,290.2L84.06,300.87" style="vector-effect: non-scaling-stroke; fill: none; stroke: rgb(126, 92, 148); stroke-opacity: 1; stroke-width: 6.5px; opacity: 1; stroke-dasharray: 19.5px, 19.5px;"/></g><g class="points"/><g class="text"/></g><g class="trace scatter traceb182db" style="stroke-miterlimit: 2; opacity: 1;"><g class="fills"/><g class="errorbars"/><g class="lines"><path class="js-line" d="M84.06,300.87L85.06,306.59L86.53,309.47L92.76,315.3L98.48,318.26L119.88,324.17L137.47,326.81L193.93,331.22L210.41,331.99L328.79,335.06L339.98,335.24L564,337.24" style="vector-effect: non-scaling-stroke; fill: none; stroke: rgb(126, 92, 148); stroke-opacity: 1; stroke-width: 6.5px; opacity: 1;"/></g><g class="points"/><g class="text"/></g><g class="trace scatter traced2ba4f" style="stroke-miterlimit: 2; opacity: 1;"><g class="fills"/><g class="errorbars"/><g class="lines"><path class="js-line" d="M0,17.75L1.94,19.25L2.33,19.42L17.58,27.71L20.14,29.27L46.1,47.41L49.5,50.18L67.24,66.82L69.77,69.6L82.69,86.3L84.48,89.08L93.31,105.81L94.47,108.6L100.46,128.14L101.03,130.94L103.17,150.49L103.24,153.28L103.25,155.21" style="vector-effect: non-scaling-stroke; fill: none; stroke: rgb(196, 143, 231); stroke-opacity: 1; stroke-width: 6.5px; opacity: 1;"/></g><g class="points"/><g class="text"/></g><g class="trace scatter trace103c2b" style="stroke-miterlimit: 2; opacity: 1;"><g class="fills"/><g class="errorbars"/><g class="lines"><path class="js-line" d="M103.25,155.21L101.6,177.56L101.18,180.36L95.61,205.51L94.81,208.3L83.42,241.85L82.38,244.64L70.27,281.05L69.72,283.86L68.91,292.28" style="vector-effect: non-scaling-stroke; fill: none; stroke: rgb(196, 143, 231); stroke-opacity: 1; stroke-width: 6.5px; opacity: 1; stroke-dasharray: 19.5px, 19.5px;"/></g><g class="points"/><g class="text"/></g><g class="trace scatter trace15f9a4" style="stroke-miterlimit: 2; opacity: 1;"><g class="fills"/><g class="errorbars"/><g class="lines"><path class="js-line" d="M68.91,292.28L70.14,300.77L71.3,303.62L75.41,309.35L78.78,312.24L90.04,318.08L99.34,321.02L130.17,326.52L150.2,328.58L220.35,332.49L235.32,333L378.87,335.78L389.14,335.9L564,337.25" style="vector-effect: non-scaling-stroke; fill: none; stroke: rgb(196, 143, 231); stroke-opacity: 1; stroke-width: 6.5px; opacity: 1;"/></g><g class="points"/><g class="text"/></g><g class="trace scatter traceefb92f" style="stroke-miterlimit: 2; opacity: 1;"><g class="fills"/><g class="errorbars"/><g class="lines"><path class="js-line" d="M0,17.75L1.89,19.84L2.44,20.28L14.64,32.61L16.41,34.63L30.39,52.87L32.22,55.65L44.34,77.93L45.57,80.72L53.41,103.03L54.16,105.82L58.94,130.94L59.27,133.73L60.72,160.91" style="vector-effect: non-scaling-stroke; fill: none; stroke: rgb(228, 187, 255); stroke-opacity: 1; stroke-width: 6.5px; opacity: 1;"/></g><g class="points"/><g class="text"/></g><g class="trace scatter trace142dad" style="stroke-miterlimit: 2; opacity: 1;"><g class="fills"/><g class="errorbars"/><g class="lines"><path class="js-line" d="M60.72,160.91L58.96,194.44L58.68,197.23L49.89,273.88" style="vector-effect: non-scaling-stroke; fill: none; stroke: rgb(228, 187, 255); stroke-opacity: 1; stroke-width: 6.5px; opacity: 1; stroke-dasharray: 19.5px, 19.5px;"/></g><g class="points"/><g class="text"/></g><g class="trace scatter trace8703f7" style="stroke-miterlimit: 2; opacity: 1;"><g class="fills"/><g class="errorbars"/><g class="lines"><path class="js-line" d="M49.89,273.88L51.15,287.92L51.82,290.74L55.29,299.22L57.13,302.05L66.15,310.62L71.01,313.5L85.9,319.3L97.47,322.18L132.33,327.31L152.61,329.1L222.06,332.65L236.94,333.13L390.38,335.93L400.5,336.04L564,337.25" style="vector-effect: non-scaling-stroke; fill: none; stroke: rgb(228, 187, 255); stroke-opacity: 1; stroke-width: 6.5px; opacity: 1;"/></g><g class="points"/><g class="text"/></g><g class="trace scatter trace796946" style="stroke-miterlimit: 2;"><g class="fills"><g><path class="js-fill" d="M402.49,340.24L0,340.24L0,17.75L0,17.75L0,17.75L0.01,17.77L0.02,17.78L0.04,17.8L0.05,17.82L0.07,17.84L0.09,17.86L0.12,17.88L0.15,17.9L0.18,17.92L0.21,17.95L0.25,17.97L0.3,18L0.35,18.03L0.41,18.06L0.48,18.09L0.56,18.12L0.66,18.16L0.76,18.2L0.88,18.23L1.02,18.27L1.18,18.32L1.36,18.36L1.57,18.41L1.81,18.46L2.09,18.51L2.42,18.57L2.79,18.64L3.23,18.7L3.75,18.78L4.36,18.86L5.09,18.96L5.96,19.06L7.03,19.19L8.35,19.34L10.04,19.52L12.28,19.77L15.47,20.13L20.36,20.71L27.28,21.6L34.59,22.59L42.05,23.63L49.9,24.77L58.27,26L67.23,27.35L76.8,28.82L87.03,30.42L97.94,32.17L109.56,34.09L121.92,36.18L135.01,38.46L147.92,40.79L160.5,43.13L172.75,45.49L184.68,47.86L196.27,50.26L207.53,52.67L218.46,55.09L229.05,57.53L239.31,59.98L249.23,62.45L258.81,64.93L268.06,67.42L276.98,69.92L285.56,72.44L293.82,74.97L301.74,77.5L309.33,80.05L316.6,82.61L323.55,85.17L330.17,87.75L336.48,90.33L342.47,92.92L348.15,95.52L353.52,98.12L358.58,100.73L363.35,103.34L367.82,105.96L371.99,108.59L375.88,111.22L379.48,113.85L382.8,116.49L385.85,119.13L388.62,121.77L391.13,124.42L393.38,127.06L395.36,129.71L397.09,132.37L398.58,135.02L399.81,137.67L400.81,140.33L401.57,142.99L402.1,145.64L402.41,148.3L402.49,150.61" style="fill: rgb(150, 150, 150); fill-opacity: 0.3; stroke-width: 0;"/></g></g><g class="errorbars"/><g class="lines"/><g class="points"/><g class="text"/></g><g class="trace scatter trace3871ff" style="stroke-miterlimit: 2;"><g class="fills"><g><path class="js-fill" d="M145.9,340.24L0,340.24L0,17.75L0,17.75L0,17.75L0,17.77L0.01,17.79L0.02,17.81L0.02,17.83L0.03,17.85L0.04,17.87L0.05,17.89L0.06,17.92L0.08,17.95L0.09,17.97L0.11,18L0.13,18.03L0.16,18.06L0.18,18.1L0.21,18.13L0.25,18.17L0.29,18.21L0.34,18.25L0.39,18.29L0.46,18.33L0.53,18.38L0.61,18.43L0.71,18.49L0.82,18.54L0.95,18.61L1.1,18.67L1.28,18.75L1.49,18.83L1.75,18.92L2.05,19.02L2.42,19.14L2.87,19.29L3.45,19.47L4.23,19.71L5.33,20.05L7.1,20.63L9.85,21.6L12.71,22.69L15.56,23.8L18.53,25L21.68,26.3L25.04,27.71L28.6,29.24L32.39,30.9L36.41,32.71L40.66,34.67L45.15,36.8L49.87,39.11L54.83,41.62L60.03,44.35L65.05,47.1L69.87,49.84L74.52,52.59L78.98,55.35L83.26,58.1L87.36,60.86L91.3,63.63L95.07,66.39L98.67,69.16L102.12,71.93L105.41,74.7L108.54,77.48L111.52,80.25L114.36,83.03L117.06,85.81L119.61,88.59L122.03,91.37L124.31,94.16L126.46,96.94L128.48,99.73L130.38,102.52L132.15,105.3L133.81,108.09L135.34,110.88L136.76,113.67L138.07,116.46L139.27,119.26L140.36,122.05L141.34,124.84L142.23,127.63L143.01,130.43L143.69,133.22L144.28,136.02L144.77,138.81L145.17,141.61L145.48,144.4L145.7,147.2L145.84,149.99L145.89,152.79L145.9,153.18" style="fill: rgb(126, 92, 148); fill-opacity: 0.3; stroke-width: 0;"/></g></g><g class="errorbars"/><g class="lines"/><g class="points"/><g class="text"/></g><g class="trace scatter trace639371" style="stroke-miterlimit: 2;"><g class="fills"><g><path class="js-fill" d="M103.25,340.24L0,340.24L0,17.75L0,17.75L0,17.75L0,17.77L0.01,17.79L0.01,17.8L0.02,17.82L0.02,17.85L0.03,17.87L0.04,17.89L0.04,17.92L0.05,17.94L0.06,17.97L0.08,18L0.09,18.03L0.11,18.06L0.13,18.09L0.15,18.13L0.17,18.16L0.2,18.2L0.23,18.24L0.27,18.28L0.31,18.32L0.36,18.37L0.42,18.42L0.48,18.47L0.56,18.53L0.65,18.59L0.75,18.66L0.87,18.73L1.02,18.81L1.18,18.9L1.39,19L1.63,19.11L1.94,19.25L2.33,19.42L2.84,19.65L3.56,19.96L4.7,20.49L6.6,21.44L8.72,22.57L10.77,23.72L12.91,24.94L15.18,26.27L17.58,27.71L20.14,29.27L22.85,30.97L25.72,32.81L28.76,34.8L31.97,36.97L35.34,39.32L38.87,41.88L42.55,44.64L46.1,47.41L49.5,50.18L52.77,52.95L55.92,55.72L58.93,58.49L61.82,61.27L64.59,64.04L67.24,66.82L69.77,69.6L72.19,72.38L74.5,75.16L76.7,77.94L78.8,80.73L80.79,83.51L82.69,86.3L84.48,89.08L86.18,91.87L87.78,94.66L89.3,97.44L90.72,100.23L92.06,103.02L93.31,105.81L94.47,108.6L95.56,111.39L96.57,114.18L97.49,116.97L98.35,119.77L99.12,122.56L99.83,125.35L100.46,128.14L101.03,130.94L101.53,133.73L101.96,136.52L102.32,139.32L102.63,142.11L102.87,144.9L103.05,147.7L103.17,150.49L103.24,153.28L103.25,155.21" style="fill: rgb(196, 143, 231); fill-opacity: 0.3; stroke-width: 0;"/></g></g><g class="errorbars"/><g class="lines"/><g class="points"/><g class="text"/></g><g class="trace scatter trace17f2ae" style="stroke-miterlimit: 2;"><g class="fills"><g><path class="js-fill" d="M60.72,340.24L0,340.24L0,17.75L0,17.75L0,17.75L0,17.77L0,17.78L0.01,17.8L0.01,17.82L0.01,17.84L0.02,17.87L0.02,17.89L0.03,17.91L0.03,17.94L0.04,17.96L0.04,17.99L0.05,18.02L0.06,18.05L0.07,18.08L0.08,18.12L0.1,18.15L0.11,18.19L0.13,18.23L0.15,18.27L0.18,18.31L0.2,18.36L0.23,18.4L0.27,18.46L0.31,18.51L0.36,18.57L0.42,18.63L0.48,18.7L0.56,18.78L0.65,18.86L0.76,18.96L0.89,19.07L1.06,19.2L1.26,19.36L1.52,19.56L1.89,19.84L2.44,20.28L3.4,21.09L4.7,22.27L5.92,23.44L7.17,24.68L8.49,26.02L9.9,27.47L11.39,29.05L12.97,30.76L14.64,32.61L16.41,34.63L18.28,36.81L20.24,39.18L22.3,41.75L24.44,44.53L26.5,47.31L28.48,50.09L30.39,52.87L32.22,55.65L33.97,58.43L35.65,61.22L37.27,64L38.81,66.79L40.29,69.57L41.71,72.36L43.06,75.14L44.34,77.93L45.57,80.72L46.74,83.5L47.86,86.29L48.91,89.08L49.92,91.87L50.87,94.66L51.76,97.45L52.61,100.24L53.41,103.03L54.16,105.82L54.86,108.61L55.52,111.4L56.14,114.19L56.71,116.98L57.23,119.77L57.72,122.56L58.16,125.35L58.57,128.14L58.94,130.94L59.27,133.73L59.56,136.52L59.82,139.31L60.04,142.1L60.23,144.9L60.39,147.69L60.52,150.48L60.61,153.27L60.68,156.07L60.71,158.86L60.72,160.91" style="fill: rgb(228, 187, 255); fill-opacity: 0.3; stroke-width: 0;"/></g></g><g class="errorbars"/><g class="lines"/><g class="points"/><g class="text"/></g></g></g><g class="overplot"/><path class="xlines-above crisp" d="M83,416.5H650" style="fill: none; stroke-width: 3px; stroke: rgb(0, 0, 0); stroke-opacity: 1;"/><path class="ylines-above crisp" d="M84.5,60V415" style="fill: none; stroke-width: 3px; stroke: rgb(0, 0, 0); stroke-opacity: 1;"/><g class="overlines-above"/><g class="xaxislayer-above"><g class="xtick"><text text-anchor="middle" x="0" y="446.8" transform="translate(86,0)" style="font-family: sans-serif; font-size: 24px; fill: rgb(0, 0, 0); fill-opacity: 1; white-space: pre;">0</text></g><g class="xtick"><text text-anchor="middle" x="0" y="446.8" transform="translate(161.2,0)" style="font-family: sans-serif; font-size: 24px; fill: rgb(0, 0, 0); fill-opacity: 1; white-space: pre;">0.2</text></g><g class="xtick"><text text-anchor="middle" x="0" y="446.8" transform="translate(236.4,0)" style="font-family: sans-serif; font-size: 24px; fill: rgb(0, 0, 0); fill-opacity: 1; white-space: pre;">0.4</text></g><g class="xtick"><text text-anchor="middle" x="0" y="446.8" transform="translate(311.6,0)" style="font-family: sans-serif; font-size: 24px; fill: rgb(0, 0, 0); fill-opacity: 1; white-space: pre;">0.6</text></g><g class="xtick"><text text-anchor="middle" x="0" y="446.8" transform="translate(386.8,0)" style="font-family: sans-serif; font-size: 24px; fill: rgb(0, 0, 0); fill-opacity: 1; white-space: pre;">0.8</text></g><g class="xtick"><text text-anchor="middle" x="0" y="446.8" transform="translate(462,0)" style="font-family: sans-serif; font-size: 24px; fill: rgb(0, 0, 0); fill-opacity: 1; white-space: pre;">1</text></g><g class="xtick"><text text-anchor="middle" x="0" y="446.8" transform="translate(537.2,0)" style="font-family: sans-serif; font-size: 24px; fill: rgb(0, 0, 0); fill-opacity: 1; white-space: pre;">1.2</text></g><g class="xtick"><text text-anchor="middle" x="0" y="446.8" transform="translate(612.4,0)" style="font-family: sans-serif; font-size: 24px; fill: rgb(0, 0, 0); fill-opacity: 1; white-space: pre;">1.4</text></g></g><g class="yaxislayer-above"><g class="ytick"><text text-anchor="end" x="78.2" y="8.399999999999999" transform="translate(0,400.24)" style="font-family: sans-serif; font-size: 24px; fill: rgb(0, 0, 0); fill-opacity: 1; white-space: pre;">0</text></g><g class="ytick"><text text-anchor="end" x="78.2" y="8.399999999999999" transform="translate(0,311.86)" style="font-family: sans-serif; font-size: 24px; fill: rgb(0, 0, 0); fill-opacity: 1; white-space: pre;">5</text></g><g class="ytick"><text text-anchor="end" x="78.2" y="8.399999999999999" transform="translate(0,223.48)" style="font-family: sans-serif; font-size: 24px; fill: rgb(0, 0, 0); fill-opacity: 1; white-space: pre;">10</text></g><g class="ytick"><text text-anchor="end" x="78.2" y="8.399999999999999" transform="translate(0,135.1)" style="font-family: sans-serif; font-size: 24px; fill: rgb(0, 0, 0); fill-opacity: 1; white-space: pre;">15</text></g></g><g class="overaxes-above"/></g></g><g class="polarlayer"/><g class="ternarylayer"/><g class="geolayer"/><g class="funnelarealayer"/><g class="pielayer"/><g class="treemaplayer"/><g class="sunburstlayer"/><g class="glimages"/><defs id="topdefs-cf3d25"><g class="clips"/></defs><g class="layer-above"><g class="imagelayer"/><g class="shapelayer"/></g><g class="infolayer"><g class="g-gtitle"/><g class="g-xtitle"><text class="xtitle" x="368" y="488.1125" text-anchor="middle" style="font-family: sans-serif; font-size: 29px; fill: rgb(0, 0, 0); opacity: 1; font-weight: normal; white-space: pre;">Damage rate (min​<tspan style="font-size:70%" dy="-0.6em">-1</tspan><tspan dy="0.42em">​</tspan>)</text></g><g class="g-ytitle" transform="translate(14.6435546875,0)"><text class="ytitle" transform="rotate(-90,12.356250000000003,237.5)" x="12.356250000000003" y="237.5" text-anchor="middle" style="font-family: sans-serif; font-size: 29px; fill: rgb(0, 0, 0); opacity: 1; font-weight: normal; white-space: pre;">Rh (μM)</text></g></g></svg>