<svg class="main-svg" xmlns="http://www.w3.org/2000/svg" xmlns:xlink="http://www.w3.org/1999/xlink" width="700" height="500" style="" viewBox="0 0 700 500"><rect x="0" y="0" width="700" height="500" style="fill: rgb(255, 255, 255); fill-opacity: 1;"/><defs id="defs-c1ceba"><g class="clips"><clipPath id="clipc1cebaxyplot" class="plotclip"><rect width="564" height="355"/></clipPath><clipPath class="axesclip" id="clipc1cebax"><rect x="86" y="0" width="564" height="500"/></clipPath><clipPath class="axesclip" id="clipc1cebay"><rect x="0" y="60" width="700" height="355"/></clipPath><clipPath class="axesclip" id="clipc1cebaxy"><rect x="86" y="60" width="564" height="355"/></clipPath></g><g class="gradients"/></defs><g class="bglayer"/><g class="layer-below"><g class="imagelayer"/><g class="shapelayer"/></g><g class="cartesianlayer"><g class="subplot xy"><g class="layer-subplot"><g class="shapelayer"/><g class="imagelayer"/></g><g class="gridlayer"><g class="x"/><g class="y"/></g><g class="zerolinelayer"><path class="yzl zl crisp" transform="translate(0,400.24)" d="M86,0h564" style="stroke: rgb(255, 255, 255); stroke-opacity: 1; stroke-width: 2px;"/></g><path class="xlines-below"/><path class="ylines-below"/><g class="overlines-below"/><g class="xaxislayer-below"/><g class="yaxislayer-below"/><g class="overaxes-below"/><g class="plot" transform="translate(86,60)" clip-path="url('#clipc1cebaxyplot')"><g class="scatterlayer mlayer"><g class="trace scatter tracec5bf48" style="stroke-miterlimit: 2; opacity: 1;"><g class="fills"/><g class="errorbars"/><g class="lines"><path class="js-line" d="M0,17.75L3.23,18.7L3.75,18.78L97.94,32.17L109.56,34.09L196.27,50.26L207.53,52.67L268.06,67.42L276.98,69.92L323.55,85.17L330.17,87.75L358.58,100.73L363.35,103.34L382.8,116.49L385.85,119.13L395.36,129.71L397.09,132.37L401.57,142.99L402.1,145.64L402.49,150.61" style="vector-effect: non-scaling-stroke; fill: none; stroke: rgb(150, 150, 150); stroke-opacity: 1; stroke-width: 6.5px; opacity: 1;"/></g><g class="points"/><g class="text"/></g><g class="trace scatter trace896715" style="stroke-miterlimit: 2; opacity: 1;"><g class="fills"/><g class="errorbars"/><g class="lines"><path class="js-line" d="M402.49,150.61L400.78,161.24L399.84,163.9L394.14,174.51L392.26,177.16L380.23,190.4L377.33,193.04L356.81,208.85L352.9,211.48L322.05,229.83L317.19,232.44L274.83,253.29L269.16,255.89L154.72,308.2L150.97,310.92L146.4,317.53" style="vector-effect: non-scaling-stroke; fill: none; stroke: rgb(150, 150, 150); stroke-opacity: 1; stroke-width: 6.5px; opacity: 1; stroke-dasharray: 19.5px, 19.5px;"/></g><g class="points"/><g class="text"/></g><g class="trace scatter traced52bcf" style="stroke-miterlimit: 2; opacity: 1;"><g class="fills"/><g class="errorbars"/><g class="lines"><path class="js-line" d="M146.4,317.53L147.8,320.46L153.24,323.51L165.21,326.5L182.42,328.82L243.63,332.63L256.94,333.11L388.38,335.76L397.96,335.88L564,337.21" style="vector-effect: non-scaling-stroke; fill: none; stroke: rgb(150, 150, 150); stroke-opacity: 1; stroke-width: 6.5px; opacity: 1;"/></g><g class="points"/><g class="text"/></g><g class="trace scatter trace9a695a" style="stroke-miterlimit: 2; opacity: 1;"><g class="fills"/><g class="errorbars"/><g class="lines"><path class="js-line" d="M0,17.75L2.42,19.14L2.87,19.29L25.04,27.71L28.6,29.24L60.03,44.35L65.05,47.1L91.3,63.63L95.07,66.39L114.36,83.03L117.06,85.81L130.38,102.52L132.15,105.3L140.36,122.05L141.34,124.84L145.17,141.61L145.48,144.4L145.9,153.18" style="vector-effect: non-scaling-stroke; fill: none; stroke: rgb(126, 92, 148); stroke-opacity: 1; stroke-width: 6.5px; opacity: 1;"/></g><g class="points"/><g class="text"/></g><g class="trace scatter trace0d95ed" style="stroke-miterlimit: 2; opacity: 1;"><g class="fills"/><g class="errorbars"/><g class="lines"><path class="js-line" d="M145.9,153.18L144,172.75L143.43,175.54L137.7,195.11L136.64,197.9L126.39,220.25L124.91,223.04L106.7,253.77L104.95,256.57L87.4,287.38L86.28,290.2L84.06,300.87" style="vector-effect: non-scaling-stroke; fill: none; stroke: rgb(126, 92, 148); stroke-opacity: 1; stroke-width: 6.5px; opacity: 1; stroke-dasharray: 19.5px, 19.5px;"/></g><g class="points"/><g class="text"/></g><g class="trace scatter trace585e34" style="stroke-miterlimit: 2; opacity: 1;"><g class="fills"/><g class="errorbars"/><g class="lines"><path class="js-line" d="M84.06,300.87L85.06,306.59L86.53,309.47L92.76,315.3L98.48,318.26L119.88,324.17L137.47,326.81L193.93,331.22L210.41,331.99L328.79,335.06L339.98,335.24L564,337.24" style="vector-effect: non-scaling-stroke; fill: none; stroke: rgb(126, 92, 148); stroke-opacity: 1; stroke-width: 6.5px; opacity: 1;"/></g><g class="points"/><g class="text"/></g><g class="trace scatter tracea7e9a7" style="stroke-miterlimit: 2; opacity: 1;"><g class="fills"/><g class="errorbars"/><g class="lines"><path class="js-line" d="M0,17.75L1.94,19.25L2.33,19.42L17.58,27.71L20.14,29.27L46.1,47.41L49.5,50.18L67.24,66.82L69.77,69.6L82.69,86.3L84.48,89.08L93.31,105.81L94.47,108.6L100.46,128.14L101.03,130.94L103.17,150.49L103.24,153.28L103.25,155.21" style="vector-effect: non-scaling-stroke; fill: none; stroke: rgb(196, 143, 231); stroke-opacity: 1; stroke-width: 6.5px; opacity: 1;"/></g><g class="points"/><g class="text"/></g><g class="trace scatter tracea59ad5" style="stroke-miterlimit: 2; opacity: 1;"><g class="fills"/><g class="errorbars"/><g class="lines"><path class="js-line" d="M103.25,155.21L101.6,177.56L101.18,180.36L95.61,205.51L94.81,208.3L83.42,241.85L82.38,244.64L70.27,281.05L69.72,283.86L68.91,292.28" style="vector-effect: non-scaling-stroke; fill: none; stroke: rgb(196, 143, 231); stroke-opacity: 1; stroke-width: 6.5px; opacity: 1; stroke-dasharray: 19.5px, 19.5px;"/></g><g class="points"/><g class="text"/></g><g class="trace scatter trace96fbd7" style="stroke-miterlimit: 2; opacity: 1;"><g class="fills"/><g class="errorbars"/><g class="lines"><path class="js-line" d="M68.91,292.28L70.14,300.77L71.3,303.62L75.41,309.35L78.78,312.24L90.04,318.08L99.34,321.02L130.17,326.52L150.2,328.58L220.35,332.49L235.32,333L378.87,335.78L389.14,335.9L564,337.25" style="vector-effect: non-scaling-stroke; fill: none; stroke: rgb(196, 143, 231); stroke-opacity: 1; stroke-width: 6.5px; opacity: 1;"/></g><g class="points"/><g class="text"/></g><g class="trace scatter trace2ba5a3" style="stroke-miterlimit: 2; opacity: 1;"><g class="fills"/><g class="errorbars"/><g class="lines"><path class="js-line" d="M0,17.75L1.89,19.84L2.44,20.28L14.64,32.61L16.41,34.63L30.39,52.87L32.22,55.65L44.34,77.93L45.57,80.72L53.41,103.03L54.16,105.82L58.94,130.94L59.27,133.73L60.72,160.91" style="vector-effect: non-scaling-stroke; fill: none; stroke: rgb(228, 187, 255); stroke-opacity: 1; stroke-width: 6.5px; opacity: 1;"/></g><g class="points"/><g class="text"/></g><g class="trace scatter tracea0bb20" style="stroke-miterlimit: 2; opacity: 1;"><g class="fills"/><g class="errorbars"/><g class="lines"><path class="js-line" d="M60.72,160.91L58.96,194.44L58.68,197.23L49.89,273.88" style="vector-effect: non-scaling-stroke; fill: none; stroke: rgb(228, 187, 255); stroke-opacity: 1; stroke-width: 6.5px; opacity: 1; stroke-dasharray: 19.5px, 19.5px;"/></g><g class="points"/><g class="text"/></g><g class="trace scatter trace55f9b0" style="stroke-miterlimit: 2; opacity: 1;"><g class="fills"/><g class="errorbars"/><g class="lines"><path class="js-line" d="M49.89,273.88L51.15,287.92L51.82,290.74L55.29,299.22L57.13,302.05L66.15,310.62L71.01,313.5L85.9,319.3L97.47,322.18L132.33,327.31L152.61,329.1L222.06,332.65L236.94,333.13L390.38,335.93L400.5,336.04L564,337.25" style="vector-effect: non-scaling-stroke; fill: none; stroke: rgb(228, 187, 255); stroke-opacity: 1; stroke-width: 6.5px; opacity: 1;"/></g><g class="points"/><g class="text"/></g></g></g><g class="overplot"/><path class="xlines-above crisp" d="M83,416.5H650" style="fill: none; stroke-width: 3px; stroke: rgb(0, 0, 0); stroke-opacity: 1;"/><path class="ylines-above crisp" d="M84.5,60V415" style="fill: none; stroke-width: 3px; stroke: rgb(0, 0, 0); stroke-opacity: 1;"/><g class="overlines-above"/><g class="xaxislayer-above"><g class="xtick"><text text-anchor="middle" x="0" y="446.8" transform="translate(86,0)" style="font-family: sans-serif; font-size: 24px; fill: rgb(0, 0, 0); fill-opacity: 1; white-space: pre;">0</text></g><g class="xtick"><text text-anchor="middle" x="0" y="446.8" transform="translate(161.2,0)" style="font-family: sans-serif; font-size: 24px; fill: rgb(0, 0, 0); fill-opacity: 1; white-space: pre;">0.2</text></g><g class="xtick"><text text-anchor="middle" x="0" y="446.8" transform="translate(236.4,0)" style="font-family: sans-serif; font-size: 24px; fill: rgb(0, 0, 0); fill-opacity: 1; white-space: pre;">0.4</text></g><g class="xtick"><text text-anchor="middle" x="0" y="446.8" transform="translate(311.6,0)" style="font-family: sans-serif; font-size: 24px; fill: rgb(0, 0, 0); fill-opacity: 1; white-space: pre;">0.6</text></g><g class="xtick"><text text-anchor="middle" x="0" y="446.8" transform="translate(386.8,0)" style="font-family: sans-serif; font-size: 24px; fill: rgb(0, 0, 0); fill-opacity: 1; white-space: pre;">0.8</text></g><g class="xtick"><text text-anchor="middle" x="0" y="446.8" transform="translate(462,0)" style="font-family: sans-serif; font-size: 24px; fill: rgb(0, 0, 0); fill-opacity: 1; white-space: pre;">1</text></g><g class="xtick"><text text-anchor="middle" x="0" y="446.8" transform="translate(537.2,0)" style="font-family: sans-serif; font-size: 24px; fill: rgb(0, 0, 0); fill-opacity: 1; white-space: pre;">1.2</text></g><g class="xtick"><text text-anchor="middle" x="0" y="446.8" transform="translate(612.4,0)" style="font-family: sans-serif; font-size: 24px; fill: rgb(0, 0, 0); fill-opacity: 1; white-space: pre;">1.4</text></g></g><g class="yaxislayer-above"><g class="ytick"><text text-anchor="end" x="78.2" y="8.399999999999999" transform="translate(0,400.24)" style="font-family: sans-serif; font-size: 24px; fill: rgb(0, 0, 0); fill-opacity: 1; white-space: pre;">0</text></g><g class="ytick"><text text-anchor="end" x="78.2" y="8.399999999999999" transform="translate(0,311.86)" style="font-family: sans-serif; font-size: 24px; fill: rgb(0, 0, 0); fill-opacity: 1; white-space: pre;">5</text></g><g class="ytick"><text text-anchor="end" x="78.2" y="8.399999999999999" transform="translate(0,223.48)" style="font-family: sans-serif; font-size: 24px; fill: rgb(0, 0, 0); fill-opacity: 1; white-space: pre;">10</text></g><g class="ytick"><text text-anchor="end" x="78.2" y="8.399999999999999" transform="translate(0,135.1)" style="font-family: sans-serif; font-size: 24px; fill: rgb(0, 0, 0); fill-opacity: 1; white-space: pre;">15</text></g></g><g class="overaxes-above"/></g></g><g class="polarlayer"/><g class="ternarylayer"/><g class="geolayer"/><g class="funnelarealayer"/><g class="pielayer"/><g class="treemaplayer"/><g class="sunburstlayer"/><g class="glimages"/><defs id="topdefs-c1ceba"><g class="clips"/></defs><g class="layer-above"><g class="imagelayer"/><g class="shapelayer"/></g><g class="infolayer"><g class="g-gtitle"/><g class="g-xtitle"><text class="xtitle" x="368" y="488.1125" text-anchor="middle" style="font-family: sans-serif; font-size: 29px; fill: rgb(0, 0, 0); opacity: 1; font-weight: normal; white-space: pre;">Damage rate (min​<tspan style="font-size:70%" dy="-0.6em">-1</tspan><tspan dy="0.42em">​</tspan>)</text></g><g class="g-ytitle" transform="translate(14.6435546875,0)"><text class="ytitle" transform="rotate(-90,12.356250000000003,237.5)" x="12.356250000000003" y="237.5" text-anchor="middle" style="font-family: sans-serif; font-size: 29px; fill: rgb(0, 0, 0); opacity: 1; font-weight: normal; white-space: pre;">Rh (μM)</text></g></g></svg>