<svg class="main-svg" xmlns="http://www.w3.org/2000/svg" xmlns:xlink="http://www.w3.org/1999/xlink" width="700" height="500" style="" viewBox="0 0 700 500"><rect x="0" y="0" width="700" height="500" style="fill: rgb(255, 255, 255); fill-opacity: 1;"/><defs id="defs-105dff"><g class="clips"><clipPath id="clip105dffxyplot" class="plotclip"><rect width="558" height="349"/></clipPath><clipPath class="axesclip" id="clip105dffx"><rect x="92" y="0" width="558" height="500"/></clipPath><clipPath class="axesclip" id="clip105dffy"><rect x="0" y="66" width="700" height="349"/></clipPath><clipPath class="axesclip" id="clip105dffxy"><rect x="92" y="66" width="558" height="349"/></clipPath></g><g class="gradients"/></defs><g class="bglayer"/><g class="layer-below"><g class="imagelayer"/><g class="shapelayer"/></g><g class="cartesianlayer"><g class="subplot xy"><g class="layer-subplot"><g class="shapelayer"/><g class="imagelayer"/></g><g class="gridlayer"><g class="x"/><g class="y"/></g><g class="zerolinelayer"><path class="yzl zl crisp" transform="translate(0,400.39)" d="M92,0h558" style="stroke: rgb(255, 255, 255); stroke-opacity: 1; stroke-width: 2px;"/></g><path class="xlines-below"/><path class="ylines-below"/><g class="overlines-below"/><g class="xaxislayer-below"/><g class="yaxislayer-below"/><g class="overaxes-below"/><g class="plot" transform="translate(92,66)" clip-path="url('#clip105dffxyplot')"><g class="scatterlayer mlayer"><g class="trace scatter trace916492" style="stroke-miterlimit: 2; opacity: 1;"><g class="fills"/><g class="errorbars"/><g class="lines"><path class="js-line" d="M0,17.45L3.2,18.39L3.71,18.46L108.4,33.51L120.62,35.56L205.32,51.77L216.13,54.15L274.03,68.73L282.53,71.2L326.66,86.25L332.9,88.78L359.48,101.57L363.9,104.15L381.75,117.08L384.49,119.68L392.87,130.1L394.34,132.7L397.83,143.14L398.13,145.76L398.21,148.03" style="vector-effect: non-scaling-stroke; fill: none; stroke: rgb(17, 119, 51); stroke-opacity: 1; stroke-width: 6.5px; opacity: 1;"/></g><g class="points"/><g class="text"/></g><g class="trace scatter trace4a8720" style="stroke-miterlimit: 2; opacity: 1;"><g class="fills"/><g class="errorbars"/><g class="lines"><path class="js-line" d="M398.21,148.03L396.52,158.48L395.59,161.09L389.95,171.52L388.08,174.12L376.18,187.13L373.32,189.72L353.02,205.27L349.15,207.85L318.63,225.89L313.82,228.45L266.3,251.5L260.63,254.05L157.41,300.26L153.07,302.91L146.52,308.31L144.96,311.09L144.84,312.07" style="vector-effect: non-scaling-stroke; fill: none; stroke: rgb(0, 0, 0); stroke-opacity: 1; stroke-width: 6.5px; opacity: 1; stroke-dasharray: 19.5px, 19.5px;"/></g><g class="points"/><g class="text"/></g><g class="trace scatter tracea69d10" style="stroke-miterlimit: 2; opacity: 1;"><g class="fills"/><g class="errorbars"/><g class="lines"><path class="js-line" d="M144.84,312.07L146.22,314.96L151.61,317.95L163.45,320.89L180.48,323.18L241.04,326.92L254.21,327.39L384.25,330L393.72,330.11L558,331.42" style="vector-effect: non-scaling-stroke; fill: none; stroke: rgb(136, 34, 85); stroke-opacity: 1; stroke-width: 6.5px; opacity: 1;"/></g><g class="points"/><g class="text"/></g><g class="trace scatter tracef9a0e8" style="stroke-miterlimit: 2; opacity: 1;"><g class="fills"/><g class="errorbars"/><g class="lines"><path class="js-line" d="M376.7,331.55L384.21,285.18L386.71,266.37L391.72,215.49L394.23,158.37" style="vector-effect: non-scaling-stroke; fill: none; stroke: rgb(94, 94, 94); stroke-opacity: 1; stroke-width: 3px; opacity: 1; stroke-dasharray: 3px, 3px;"/></g><g class="points"/><g class="text"/></g></g></g><g class="overplot"/><path class="xlines-above crisp" d="M89,416.5H650" style="fill: none; stroke-width: 3px; stroke: rgb(0, 0, 0); stroke-opacity: 1;"/><path class="ylines-above crisp" d="M90.5,66V415" style="fill: none; stroke-width: 3px; stroke: rgb(0, 0, 0); stroke-opacity: 1;"/><g class="overlines-above"/><g class="xaxislayer-above"><g class="xtick"><text text-anchor="middle" x="0" y="446.8" transform="translate(92,0)" style="font-family: sans-serif; font-size: 24px; fill: rgb(0, 0, 0); fill-opacity: 1; white-space: pre;">0</text></g><g class="xtick"><text text-anchor="middle" x="0" y="446.8" transform="translate(166.4,0)" style="font-family: sans-serif; font-size: 24px; fill: rgb(0, 0, 0); fill-opacity: 1; white-space: pre;">0.2</text></g><g class="xtick"><text text-anchor="middle" x="0" y="446.8" transform="translate(240.8,0)" style="font-family: sans-serif; font-size: 24px; fill: rgb(0, 0, 0); fill-opacity: 1; white-space: pre;">0.4</text></g><g class="xtick"><text text-anchor="middle" x="0" y="446.8" transform="translate(315.2,0)" style="font-family: sans-serif; font-size: 24px; fill: rgb(0, 0, 0); fill-opacity: 1; white-space: pre;">0.6</text></g><g class="xtick"><text text-anchor="middle" x="0" y="446.8" transform="translate(389.6,0)" style="font-family: sans-serif; font-size: 24px; fill: rgb(0, 0, 0); fill-opacity: 1; white-space: pre;">0.8</text></g><g class="xtick"><text text-anchor="middle" x="0" y="446.8" transform="translate(464,0)" style="font-family: sans-serif; font-size: 24px; fill: rgb(0, 0, 0); fill-opacity: 1; white-space: pre;">1</text></g><g class="xtick"><text text-anchor="middle" x="0" y="446.8" transform="translate(538.4,0)" style="font-family: sans-serif; font-size: 24px; fill: rgb(0, 0, 0); fill-opacity: 1; white-space: pre;">1.2</text></g><g class="xtick"><text text-anchor="middle" x="0" y="446.8" transform="translate(612.8,0)" style="font-family: sans-serif; font-size: 24px; fill: rgb(0, 0, 0); fill-opacity: 1; white-space: pre;">1.4</text></g></g><g class="yaxislayer-above"><g class="ytick"><text text-anchor="end" x="84.2" y="8.399999999999999" transform="translate(0,400.39) rotate(77,84.2,-3.6000000000000014)" style="font-family: sans-serif; font-size: 24px; fill: rgb(0, 0, 0); fill-opacity: 1; white-space: pre;">0</text></g><g class="ytick"><text text-anchor="end" x="84.2" y="8.399999999999999" transform="translate(0,350.15) rotate(77,84.2,-3.6000000000000014)" style="font-family: sans-serif; font-size: 24px; fill: rgb(0, 0, 0); fill-opacity: 1; white-space: pre;">0.0002</text></g><g class="ytick"><text text-anchor="end" x="84.2" y="8.399999999999999" transform="translate(0,299.90999999999997) rotate(77,84.2,-3.6000000000000014)" style="font-family: sans-serif; font-size: 24px; fill: rgb(0, 0, 0); fill-opacity: 1; white-space: pre;">0.0004</text></g><g class="ytick"><text text-anchor="end" x="84.2" y="8.399999999999999" transform="translate(0,249.67) rotate(77,84.2,-3.6000000000000014)" style="font-family: sans-serif; font-size: 24px; fill: rgb(0, 0, 0); fill-opacity: 1; white-space: pre;">0.0006</text></g><g class="ytick"><text text-anchor="end" x="84.2" y="8.399999999999999" transform="translate(0,199.43) rotate(77,84.2,-3.6000000000000014)" style="font-family: sans-serif; font-size: 24px; fill: rgb(0, 0, 0); fill-opacity: 1; white-space: pre;">0.0008</text></g><g class="ytick"><text text-anchor="end" x="84.2" y="8.399999999999999" transform="translate(0,149.19) rotate(77,84.2,-3.6000000000000014)" style="font-family: sans-serif; font-size: 24px; fill: rgb(0, 0, 0); fill-opacity: 1; white-space: pre;">0.001</text></g><g class="ytick"><text text-anchor="end" x="84.2" y="8.399999999999999" transform="translate(0,98.95) rotate(77,84.2,-3.6000000000000014)" style="font-family: sans-serif; font-size: 24px; fill: rgb(0, 0, 0); fill-opacity: 1; white-space: pre;">0.0012</text></g></g><g class="overaxes-above"/></g></g><g class="polarlayer"/><g class="ternarylayer"/><g class="geolayer"/><g class="funnelarealayer"/><g class="pielayer"/><g class="treemaplayer"/><g class="sunburstlayer"/><g class="glimages"/><defs id="topdefs-105dff"><g class="clips"/></defs><g class="layer-above"><g class="imagelayer"/><g class="shapelayer"/></g><g class="infolayer"><g class="g-gtitle"/><g class="g-xtitle"><text class="xtitle" x="371" y="488.1125" text-anchor="middle" style="font-family: sans-serif; font-size: 29px; fill: rgb(0, 0, 0); opacity: 1; font-weight: normal; white-space: pre;">Damage rate (min​<tspan style="font-size:70%" dy="-0.6em">-1</tspan><tspan dy="0.42em">​</tspan>)</text></g><g class="g-ytitle" transform="translate(14.5361328125,0)"><text class="ytitle" transform="rotate(-90,12.463671875000003,240.5)" x="12.463671875000003" y="240.5" text-anchor="middle" style="font-family: sans-serif; font-size: 29px; fill: rgb(0, 0, 0); opacity: 1; font-weight: normal; white-space: pre;">RtcR (μM)</text></g></g></svg>