<svg class="main-svg" xmlns="http://www.w3.org/2000/svg" xmlns:xlink="http://www.w3.org/1999/xlink" width="700" height="500" style="" viewBox="0 0 700 500"><rect x="0" y="0" width="700" height="500" style="fill: rgb(255, 255, 255); fill-opacity: 1;"/><defs id="defs-784ad0"><g class="clips"><clipPath id="clip784ad0xyplot" class="plotclip"><rect width="526" height="355"/></clipPath><clipPath class="axesclip" id="clip784ad0x"><rect x="124" y="0" width="526" height="500"/></clipPath><clipPath class="axesclip" id="clip784ad0y"><rect x="0" y="60" width="700" height="355"/></clipPath><clipPath class="axesclip" id="clip784ad0xy"><rect x="124" y="60" width="526" height="355"/></clipPath></g><g class="gradients"/></defs><g class="bglayer"/><g class="layer-below"><g class="imagelayer"/><g class="shapelayer"/></g><g class="cartesianlayer"><g class="subplot xy"><g class="layer-subplot"><g class="shapelayer"/><g class="imagelayer"/></g><g class="gridlayer"><g class="x"/><g class="y"/></g><g class="zerolinelayer"/><path class="xlines-below"/><path class="ylines-below"/><g class="overlines-below"/><g class="xaxislayer-below"/><g class="yaxislayer-below"/><g class="overaxes-below"/><g class="plot" transform="translate(124,60)" clip-path="url('#clip784ad0xyplot')"><g class="scatterlayer mlayer"><g class="trace scatter trace1d71f9" style="stroke-miterlimit: 2;"><g class="fills"><g><path class="js-fill" d="M53.13,355L58.44,355L63.76,351.41L74.38,351.41L79.7,347.83L95.64,347.83L100.95,344.24L122.2,344.24L127.52,340.66L154.08,340.66L159.39,337.07L201.9,337.07L207.21,333.48L270.97,333.48L276.28,329.9L382.55,329.9L387.86,326.31L526,326.31L526,355L53.13,355Z" style="fill: rgb(244, 229, 255); fill-opacity: 0.5; stroke-width: 0;"/></g></g><g class="errorbars"/><g class="lines"><path class="js-line" d="M53.13,355L526,355" style="vector-effect: non-scaling-stroke; fill: none; stroke: rgb(244, 229, 255); stroke-opacity: 1; stroke-width: 2px; opacity: 1;"/></g><g class="points"/><g class="text"/></g><g class="trace scatter tracec35902" style="stroke-miterlimit: 2;"><g class="fills"/><g class="errorbars"/><g class="lines"><path class="js-line" d="M53.13,355L58.44,355L63.76,351.41L74.38,351.41L79.7,347.83L95.64,347.83L100.95,344.24L122.2,344.24L127.52,340.66L154.08,340.66L159.39,337.07L201.9,337.07L207.21,333.48L270.97,333.48L276.28,329.9L382.55,329.9L387.86,326.31L526,326.31" style="vector-effect: non-scaling-stroke; fill: none; stroke: rgb(244, 229, 255); stroke-opacity: 1; stroke-width: 2px; opacity: 1;"/></g><g class="points"/><g class="text"/></g><g class="trace scatter trace125cd4" style="stroke-miterlimit: 2;"><g class="fills"><g><path class="js-fill" d="M0,304.8L5.31,297.63L10.63,294.04L15.94,286.87L21.25,283.28L26.57,279.7L31.88,272.53L42.51,265.35L47.82,265.35L63.76,254.6L69.07,254.6L74.38,251.01L79.7,251.01L85.01,247.42L90.32,247.42L95.64,243.84L100.95,243.84L106.26,243.84L111.58,240.25L116.89,240.25L122.2,236.67L138.14,236.67L143.45,233.08L159.39,233.08L164.71,229.49L180.65,229.49L185.96,225.91L212.53,225.91L217.84,222.32L255.03,222.32L260.34,218.74L302.85,218.74L308.16,215.15L377.23,215.15L382.55,211.57L478.18,211.57L483.49,207.98L526,207.98L526,333.48L446.3,333.48L440.99,337.07L324.1,337.07L318.79,340.66L244.4,340.66L239.09,344.24L191.27,344.24L185.96,347.83L154.08,347.83L148.77,351.41L127.52,351.41L122.2,355L0,355Z" style="fill: rgb(230, 197, 255); fill-opacity: 0.5; stroke-width: 0;"/></g></g><g class="errorbars"/><g class="lines"><path class="js-line" d="M0,355L122.2,355L127.52,351.41L148.77,351.41L154.08,347.83L185.96,347.83L191.27,344.24L239.09,344.24L244.4,340.66L318.79,340.66L324.1,337.07L440.99,337.07L446.3,333.48L526,333.48" style="vector-effect: non-scaling-stroke; fill: none; stroke: rgb(230, 197, 255); stroke-opacity: 1; stroke-width: 2px; opacity: 1;"/></g><g class="points"/><g class="text"/></g><g class="trace scatter trace897165" style="stroke-miterlimit: 2;"><g class="fills"/><g class="errorbars"/><g class="lines"><path class="js-line" d="M0,304.8L5.31,297.63L10.63,294.04L15.94,286.87L21.25,283.28L26.57,279.7L31.88,272.53L42.51,265.35L47.82,265.35L63.76,254.6L69.07,254.6L74.38,251.01L79.7,251.01L85.01,247.42L90.32,247.42L95.64,243.84L100.95,243.84L106.26,243.84L111.58,240.25L116.89,240.25L122.2,236.67L138.14,236.67L143.45,233.08L159.39,233.08L164.71,229.49L180.65,229.49L185.96,225.91L212.53,225.91L217.84,222.32L255.03,222.32L260.34,218.74L302.85,218.74L308.16,215.15L377.23,215.15L382.55,211.57L478.18,211.57L483.49,207.98L526,207.98" style="vector-effect: non-scaling-stroke; fill: none; stroke: rgb(230, 197, 255); stroke-opacity: 1; stroke-width: 2px; opacity: 1;"/></g><g class="points"/><g class="text"/></g><g class="trace scatter trace855594" style="stroke-miterlimit: 2;"><g class="fills"><g><path class="js-fill" d="M0,175.71L5.31,161.36L10.63,150.61L21.25,136.26L26.57,125.51L31.88,121.92L37.19,114.75L42.51,107.58L47.82,103.99L53.13,96.82L58.44,93.23L90.32,71.72L95.64,71.72L106.26,64.55L111.58,64.55L122.2,57.37L127.52,57.37L132.83,53.79L138.14,53.79L143.45,50.2L148.77,50.2L154.08,46.62L159.39,46.62L164.71,46.62L170.02,43.03L180.65,43.03L185.96,39.44L196.59,39.44L201.9,35.86L212.53,35.86L217.84,32.27L239.09,32.27L244.4,28.69L260.34,28.69L265.66,25.1L292.22,25.1L297.54,21.52L329.41,21.52L334.73,17.93L371.92,17.93L377.23,14.34L425.05,14.34L430.36,10.76L494.12,10.76L499.43,7.17L526,7.17L526,175.71L510.06,175.71L504.75,179.29L425.05,179.29L419.74,182.88L361.29,182.88L355.98,186.46L313.47,186.46L308.16,190.05L276.28,190.05L270.97,193.64L239.09,193.64L233.78,197.22L212.53,197.22L207.21,200.81L191.27,200.81L185.96,204.39L170.02,204.39L164.71,207.98L154.08,207.98L148.77,211.57L143.45,211.57L138.14,211.57L132.83,215.15L127.52,215.15L122.2,218.74L116.89,218.74L111.58,222.32L106.26,222.32L100.95,225.91L95.64,225.91L90.32,229.49L85.01,229.49L69.07,240.25L63.76,240.25L42.51,254.6L37.19,261.77L31.88,265.35L26.57,268.94L0,304.8Z" style="fill: rgb(215, 161, 255); fill-opacity: 0.5; stroke-width: 0;"/></g></g><g class="errorbars"/><g class="lines"><path class="js-line" d="M0,304.8L26.57,268.94L31.88,265.35L37.19,261.77L42.51,254.6L63.76,240.25L69.07,240.25L85.01,229.49L90.32,229.49L95.64,225.91L100.95,225.91L106.26,222.32L111.58,222.32L116.89,218.74L122.2,218.74L127.52,215.15L132.83,215.15L138.14,211.57L143.45,211.57L148.77,211.57L154.08,207.98L164.71,207.98L170.02,204.39L185.96,204.39L191.27,200.81L207.21,200.81L212.53,197.22L233.78,197.22L239.09,193.64L270.97,193.64L276.28,190.05L308.16,190.05L313.47,186.46L355.98,186.46L361.29,182.88L419.74,182.88L425.05,179.29L504.75,179.29L510.06,175.71L526,175.71" style="vector-effect: non-scaling-stroke; fill: none; stroke: rgb(215, 161, 255); stroke-opacity: 1; stroke-width: 2px; opacity: 1;"/></g><g class="points"/><g class="text"/></g><g class="trace scatter trace017186" style="stroke-miterlimit: 2;"><g class="fills"/><g class="errorbars"/><g class="lines"><path class="js-line" d="M0,175.71L5.31,161.36L10.63,150.61L21.25,136.26L26.57,125.51L31.88,121.92L37.19,114.75L42.51,107.58L47.82,103.99L53.13,96.82L58.44,93.23L90.32,71.72L95.64,71.72L106.26,64.55L111.58,64.55L122.2,57.37L127.52,57.37L132.83,53.79L138.14,53.79L143.45,50.2L148.77,50.2L154.08,46.62L159.39,46.62L164.71,46.62L170.02,43.03L180.65,43.03L185.96,39.44L196.59,39.44L201.9,35.86L212.53,35.86L217.84,32.27L239.09,32.27L244.4,28.69L260.34,28.69L265.66,25.1L292.22,25.1L297.54,21.52L329.41,21.52L334.73,17.93L371.92,17.93L377.23,14.34L425.05,14.34L430.36,10.76L494.12,10.76L499.43,7.17L526,7.17" style="vector-effect: non-scaling-stroke; fill: none; stroke: rgb(215, 161, 255); stroke-opacity: 1; stroke-width: 2px; opacity: 1;"/></g><g class="points"/><g class="text"/></g><g class="trace scatter trace38802c" style="stroke-miterlimit: 2;"><g class="fills"><g><path class="js-fill" d="M0,0L58.44,0L58.44,3.59L42.51,25.1L37.19,32.27L21.25,64.55L15.94,75.3L10.63,89.65L5.31,107.58L0,121.92Z" style="fill: rgb(192, 106, 255); fill-opacity: 0.5; stroke-width: 0;"/></g></g><g class="errorbars"/><g class="lines"><path class="js-line" d="M0,121.92L5.31,107.58L10.63,89.65L15.94,75.3L21.25,64.55L37.19,32.27L42.51,25.1L58.44,3.59" style="vector-effect: non-scaling-stroke; fill: none; stroke: rgb(192, 106, 255); stroke-opacity: 1; stroke-width: 2px; opacity: 1;"/></g><g class="points"><path class="point" transform="translate(0,121.92)" d="M3,0A3,3 0 1,1 0,-3A3,3 0 0,1 3,0Z" style="opacity: 1; stroke-width: 0px; fill: rgb(192, 106, 255); fill-opacity: 1;"/><path class="point" transform="translate(5.31,107.58)" d="M3,0A3,3 0 1,1 0,-3A3,3 0 0,1 3,0Z" style="opacity: 1; stroke-width: 0px; fill: rgb(192, 106, 255); fill-opacity: 1;"/><path class="point" transform="translate(10.63,89.65)" d="M3,0A3,3 0 1,1 0,-3A3,3 0 0,1 3,0Z" style="opacity: 1; stroke-width: 0px; fill: rgb(192, 106, 255); fill-opacity: 1;"/><path class="point" transform="translate(15.94,75.3)" d="M3,0A3,3 0 1,1 0,-3A3,3 0 0,1 3,0Z" style="opacity: 1; stroke-width: 0px; fill: rgb(192, 106, 255); fill-opacity: 1;"/><path class="point" transform="translate(21.25,64.55)" d="M3,0A3,3 0 1,1 0,-3A3,3 0 0,1 3,0Z" style="opacity: 1; stroke-width: 0px; fill: rgb(192, 106, 255); fill-opacity: 1;"/><path class="point" transform="translate(26.57,53.79)" d="M3,0A3,3 0 1,1 0,-3A3,3 0 0,1 3,0Z" style="opacity: 1; stroke-width: 0px; fill: rgb(192, 106, 255); fill-opacity: 1;"/><path class="point" transform="translate(31.88,43.03)" d="M3,0A3,3 0 1,1 0,-3A3,3 0 0,1 3,0Z" style="opacity: 1; stroke-width: 0px; fill: rgb(192, 106, 255); fill-opacity: 1;"/><path class="point" transform="translate(37.19,32.27)" d="M3,0A3,3 0 1,1 0,-3A3,3 0 0,1 3,0Z" style="opacity: 1; stroke-width: 0px; fill: rgb(192, 106, 255); fill-opacity: 1;"/><path class="point" transform="translate(42.51,25.1)" d="M3,0A3,3 0 1,1 0,-3A3,3 0 0,1 3,0Z" style="opacity: 1; stroke-width: 0px; fill: rgb(192, 106, 255); fill-opacity: 1;"/><path class="point" transform="translate(47.82,17.93)" d="M3,0A3,3 0 1,1 0,-3A3,3 0 0,1 3,0Z" style="opacity: 1; stroke-width: 0px; fill: rgb(192, 106, 255); fill-opacity: 1;"/><path class="point" transform="translate(53.13,10.76)" d="M3,0A3,3 0 1,1 0,-3A3,3 0 0,1 3,0Z" style="opacity: 1; stroke-width: 0px; fill: rgb(192, 106, 255); fill-opacity: 1;"/><path class="point" transform="translate(58.44,3.59)" d="M3,0A3,3 0 1,1 0,-3A3,3 0 0,1 3,0Z" style="opacity: 1; stroke-width: 0px; fill: rgb(192, 106, 255); fill-opacity: 1;"/></g><g class="text"/></g><g class="trace scatter trace934915" style="stroke-miterlimit: 2;"><g class="fills"/><g class="errorbars"/><g class="lines"><path class="js-line" d="M0,0L58.44,0" style="vector-effect: non-scaling-stroke; fill: none; stroke: rgb(192, 106, 255); stroke-opacity: 1; stroke-width: 2px; opacity: 1;"/></g><g class="points"/><g class="text"/></g></g></g><g class="overplot"/><path class="xlines-above crisp" d="M121,416.5H650" style="fill: none; stroke-width: 3px; stroke: rgb(0, 0, 0); stroke-opacity: 1;"/><path class="ylines-above crisp" d="M122.5,60V415" style="fill: none; stroke-width: 3px; stroke: rgb(0, 0, 0); stroke-opacity: 1;"/><g class="overlines-above"/><g class="xaxislayer-above"><g class="xtick"><text text-anchor="middle" x="0" y="446.8" transform="translate(176.6,0)" style="font-family: sans-serif; font-size: 24px; fill: rgb(0, 0, 0); fill-opacity: 1; white-space: pre;">1000</text></g><g class="xtick"><text text-anchor="middle" x="0" y="446.8" transform="translate(281.8,0)" style="font-family: sans-serif; font-size: 24px; fill: rgb(0, 0, 0); fill-opacity: 1; white-space: pre;">2000</text></g><g class="xtick"><text text-anchor="middle" x="0" y="446.8" transform="translate(387,0)" style="font-family: sans-serif; font-size: 24px; fill: rgb(0, 0, 0); fill-opacity: 1; white-space: pre;">3000</text></g><g class="xtick"><text text-anchor="middle" x="0" y="446.8" transform="translate(492.2,0)" style="font-family: sans-serif; font-size: 24px; fill: rgb(0, 0, 0); fill-opacity: 1; white-space: pre;">4000</text></g><g class="xtick"><text text-anchor="middle" x="0" y="446.8" transform="translate(597.4,0)" style="font-family: sans-serif; font-size: 24px; fill: rgb(0, 0, 0); fill-opacity: 1; white-space: pre;">5000</text></g></g><g class="yaxislayer-above"><g class="ytick"><text text-anchor="end" x="116.2" y="8.399999999999999" transform="translate(0,415)" style="font-family: sans-serif; font-size: 24px; fill: rgb(0, 0, 0); fill-opacity: 1; white-space: pre;">0.01</text></g><g class="ytick"><text text-anchor="end" x="116.2" y="8.399999999999999" transform="translate(0,355.83)" style="font-family: sans-serif; font-size: 24px; fill: rgb(0, 0, 0); fill-opacity: 1; white-space: pre;">0.015</text></g><g class="ytick"><text text-anchor="end" x="116.2" y="8.399999999999999" transform="translate(0,296.66999999999996)" style="font-family: sans-serif; font-size: 24px; fill: rgb(0, 0, 0); fill-opacity: 1; white-space: pre;">0.02</text></g><g class="ytick"><text text-anchor="end" x="116.2" y="8.399999999999999" transform="translate(0,237.5)" style="font-family: sans-serif; font-size: 24px; fill: rgb(0, 0, 0); fill-opacity: 1; white-space: pre;">0.025</text></g><g class="ytick"><text text-anchor="end" x="116.2" y="8.399999999999999" transform="translate(0,178.32999999999998)" style="font-family: sans-serif; font-size: 24px; fill: rgb(0, 0, 0); fill-opacity: 1; white-space: pre;">0.03</text></g><g class="ytick"><text text-anchor="end" x="116.2" y="8.399999999999999" transform="translate(0,119.17)" style="font-family: sans-serif; font-size: 24px; fill: rgb(0, 0, 0); fill-opacity: 1; white-space: pre;">0.035</text></g><g class="ytick"><text text-anchor="end" x="116.2" y="8.399999999999999" transform="translate(0,60)" style="font-family: sans-serif; font-size: 24px; fill: rgb(0, 0, 0); fill-opacity: 1; white-space: pre;">0.04</text></g></g><g class="overaxes-above"/></g></g><g class="polarlayer"/><g class="ternarylayer"/><g class="geolayer"/><g class="funnelarealayer"/><g class="pielayer"/><g class="treemaplayer"/><g class="sunburstlayer"/><g class="glimages"/><defs id="topdefs-784ad0"><g class="clips"/></defs><g class="layer-above"><g class="imagelayer"/><g class="shapelayer"/></g><g class="infolayer"><g class="g-gtitle"/><g class="g-xtitle"><text class="xtitle" x="387" y="488.1125" text-anchor="middle" style="font-family: sans-serif; font-size: 29px; fill: rgb(0, 0, 0); opacity: 1; font-weight: normal; white-space: pre;">ATP (μM)</text></g><g class="g-ytitle" transform="translate(19.0029296875,0)"><text class="ytitle" transform="rotate(-90,12.184375000000003,237.5)" x="12.184375000000003" y="237.5" text-anchor="middle" style="font-family: sans-serif; font-size: 29px; fill: rgb(0, 0, 0); opacity: 1; font-weight: normal; white-space: pre;">λ (min​<tspan style="font-size:70%" dy="-0.6em">-1</tspan><tspan dy="0.42em">​</tspan>)</text></g></g></svg>