<svg class="main-svg" xmlns="http://www.w3.org/2000/svg" xmlns:xlink="http://www.w3.org/1999/xlink" width="700" height="500" style="" viewBox="0 0 700 500"><rect x="0" y="0" width="700" height="500" style="fill: rgb(255, 255, 255); fill-opacity: 1;"/><defs id="defs-8ea80b"><g class="clips"><clipPath id="clip8ea80bxyplot" class="plotclip"><rect width="420" height="284"/></clipPath><clipPath class="axesclip" id="clip8ea80bx"><rect x="180" y="0" width="420" height="500"/></clipPath><clipPath class="axesclip" id="clip8ea80by"><rect x="0" y="100" width="700" height="284"/></clipPath><clipPath class="axesclip" id="clip8ea80bxy"><rect x="180" y="100" width="420" height="284"/></clipPath></g><g class="gradients"/></defs><g class="bglayer"/><g class="layer-below"><g class="imagelayer"/><g class="shapelayer"/></g><g class="cartesianlayer"><g class="subplot xy"><g class="layer-subplot"><g class="shapelayer"/><g class="imagelayer"/></g><g class="gridlayer"><g class="x"/><g class="y"/></g><g class="zerolinelayer"/><path class="xlines-below"/><path class="ylines-below"/><g class="overlines-below"/><g class="xaxislayer-below"/><g class="yaxislayer-below"/><g class="overaxes-below"/><g class="plot" transform="translate(180,100)" clip-path="url('#clip8ea80bxyplot')"><g class="scatterlayer mlayer"><g class="trace scatter trace79e91a" style="stroke-miterlimit: 2; opacity: 1;"><g class="fills"/><g class="errorbars"/><g class="lines"><path class="js-line" d="M0,281.39L2.5,256.68L2.8,256.53L9.29,257.98L10.06,258.22L31.29,267.22L31.83,267.58L37.25,273.96L37.3,274.24L37.33,274.78" style="vector-effect: non-scaling-stroke; fill: none; stroke: rgb(221, 160, 221); stroke-opacity: 1; stroke-width: 9px; opacity: 1;"/></g><g class="points"/><g class="text"/></g><g class="trace scatter trace232d85" style="stroke-miterlimit: 2; opacity: 1;"><g class="fills"/><g class="errorbars"/><g class="lines"><path class="js-line" d="M37.33,274.78L34.95,278.98L34.7,279.17L27.16,283.19" style="vector-effect: non-scaling-stroke; fill: none; stroke: rgb(221, 160, 221); stroke-opacity: 1; stroke-width: 9px; opacity: 1; stroke-dasharray: 27px, 27px;"/></g><g class="points"/><g class="text"/></g><g class="trace scatter tracece3398" style="stroke-miterlimit: 2; opacity: 1;"><g class="fills"/><g class="errorbars"/><g class="lines"><path class="js-line" d="M27.16,283.19L32.79,283.78L35.14,283.82L222.19,284L226.18,284L420,284" style="vector-effect: non-scaling-stroke; fill: none; stroke: rgb(221, 160, 221); stroke-opacity: 1; stroke-width: 9px; opacity: 1;"/></g><g class="points"/><g class="text"/></g><g class="trace scatter trace5d344f" style="stroke-miterlimit: 2; opacity: 1;"><g class="fills"/><g class="errorbars"/><g class="lines"><path class="js-line" d="M0,277.48L2.4,228.34L2.95,224.36L6.7,215.42L7.83,215.17L18.13,217.46L20.03,218.03L57.96,231.74L60.14,232.73L80.95,244.81L82.02,245.68L89.86,255.34L90.14,256.08L90.74,259.62" style="vector-effect: non-scaling-stroke; fill: none; stroke: rgb(186, 85, 211); stroke-opacity: 1; stroke-width: 9px; opacity: 1;"/></g><g class="points"/><g class="text"/></g><g class="trace scatter trace77f8f1" style="stroke-miterlimit: 2; opacity: 1;"><g class="fills"/><g class="errorbars"/><g class="lines"><path class="js-line" d="M90.74,259.62L88.52,266.03L88.08,266.62L80.02,272.89L79.15,273.35L62.35,279.38L61.18,279.68L45.17,283.26" style="vector-effect: non-scaling-stroke; fill: none; stroke: rgb(186, 85, 211); stroke-opacity: 1; stroke-width: 9px; opacity: 1; stroke-dasharray: 27px, 27px;"/></g><g class="points"/><g class="text"/></g><g class="trace scatter traceeef107" style="stroke-miterlimit: 2; opacity: 1;"><g class="fills"/><g class="errorbars"/><g class="lines"><path class="js-line" d="M45.17,283.26L53.39,283.78L58.82,283.84L404.61,284L411.81,284L420,284" style="vector-effect: non-scaling-stroke; fill: none; stroke: rgb(186, 85, 211); stroke-opacity: 1; stroke-width: 9px; opacity: 1;"/></g><g class="points"/><g class="text"/></g><g class="trace scatter trace9a08f3" style="stroke-miterlimit: 2; opacity: 1;"><g class="fills"/><g class="errorbars"/><g class="lines"><path class="js-line" d="M0,257.94L1.98,176.07L2.27,168.63L7.45,81.97L8.91,67.05L13.71,34.73L18.44,19.05L26.79,9.67L35.74,8.73L63.51,15.27L72.86,18.01L152.97,44.11L161.37,47.12L223.99,72.01L231.18,75.21L276.82,97.93L282.62,101.21L317.5,124.21L321.63,127.48L341.74,146.8L344.3,149.96L353.77,165.34L355,168.33L358.02,182.76L358.04,184.1L355.67,197.49L354.65,200.05L347.04,212.21L345.04,214.51L330.11,227.45L327.16,229.46L303.33,242.38L299.5,244.06L265.71,256.14L261.12,257.48L216.96,267.95L211.77,268.94L152.47,277.69L146.99,278.3L94,283.3L104.74,283.73L114.45,283.81L420,283.99" style="vector-effect: non-scaling-stroke; fill: none; stroke: rgb(193, 193, 193); stroke-opacity: 1; stroke-width: 9px; opacity: 1;"/></g><g class="points"/><g class="text"/></g><g class="trace scatter traceb24ba9" style="stroke-miterlimit: 2; opacity: 1;"><g class="fills"/><g class="errorbars"/><g class="lines"><path class="js-line" d="M0,270.97L1.95,208.85L2.27,203.1L6.91,159.13L9.1,151.82L15.46,146.35L18.79,146.47L43.76,153.21L48.95,154.83L102.34,173.85L106.92,175.75L141.46,192.52L144.56,194.34L166.21,210.04L167.95,211.71L177.42,224.45L178.09,225.96L179.84,234.44" style="vector-effect: non-scaling-stroke; fill: none; stroke: rgb(128, 0, 128); stroke-opacity: 1; stroke-width: 9px; opacity: 1;"/></g><g class="points"/><g class="text"/></g><g class="trace scatter tracea0c1eb" style="stroke-miterlimit: 2; opacity: 1;"><g class="fills"/><g class="errorbars"/><g class="lines"><path class="js-line" d="M179.84,234.44L177.55,243.68L176.87,244.93L168.59,254.14L167.23,255.2L152.09,263.86L150.12,264.72L125.3,272.95L122.8,273.58L85.69,280.48L83.07,280.83L65.41,283.29" style="vector-effect: non-scaling-stroke; fill: none; stroke: rgb(128, 0, 128); stroke-opacity: 1; stroke-width: 9px; opacity: 1; stroke-dasharray: 27px, 27px;"/></g><g class="points"/><g class="text"/></g><g class="trace scatter trace164816" style="stroke-miterlimit: 2; opacity: 1;"><g class="fills"/><g class="errorbars"/><g class="lines"><path class="js-line" d="M65.41,283.29L73.82,283.74L81.51,283.82L420,284" style="vector-effect: non-scaling-stroke; fill: none; stroke: rgb(128, 0, 128); stroke-opacity: 1; stroke-width: 9px; opacity: 1;"/></g><g class="points"/><g class="text"/></g></g></g><g class="overplot"/><path class="xlines-above crisp" d="M174.5,386.75H600" style="fill: none; stroke-width: 5.5px; stroke: rgb(0, 0, 0); stroke-opacity: 1;"/><path class="ylines-above crisp" d="M177.25,100V384" style="fill: none; stroke-width: 5.5px; stroke: rgb(0, 0, 0); stroke-opacity: 1;"/><g class="overlines-above"/><g class="xaxislayer-above"><g class="xtick"><text text-anchor="middle" x="0" y="435.1" transform="translate(180,0)" style="font-family: sans-serif; font-size: 38px; fill: rgb(0, 0, 0); fill-opacity: 1; white-space: pre;">0</text></g><g class="xtick"><text text-anchor="middle" x="0" y="435.1" transform="translate(264,0)" style="font-family: sans-serif; font-size: 38px; fill: rgb(0, 0, 0); fill-opacity: 1; white-space: pre;">0.5</text></g><g class="xtick"><text text-anchor="middle" x="0" y="435.1" transform="translate(348,0)" style="font-family: sans-serif; font-size: 38px; fill: rgb(0, 0, 0); fill-opacity: 1; white-space: pre;">1</text></g><g class="xtick"><text text-anchor="middle" x="0" y="435.1" transform="translate(432,0)" style="font-family: sans-serif; font-size: 38px; fill: rgb(0, 0, 0); fill-opacity: 1; white-space: pre;">1.5</text></g><g class="xtick"><text text-anchor="middle" x="0" y="435.1" transform="translate(516,0)" style="font-family: sans-serif; font-size: 38px; fill: rgb(0, 0, 0); fill-opacity: 1; white-space: pre;">2</text></g><g class="xtick"><text text-anchor="middle" x="0" y="435.1" transform="translate(600,0)" style="font-family: sans-serif; font-size: 38px; fill: rgb(0, 0, 0); fill-opacity: 1; white-space: pre;">2.5</text></g></g><g class="yaxislayer-above"><g class="ytick"><text text-anchor="end" x="166.9" y="13.299999999999999" transform="translate(0,384)" style="font-family: sans-serif; font-size: 38px; fill: rgb(0, 0, 0); fill-opacity: 1; white-space: pre;">0</text></g><g class="ytick"><text text-anchor="end" x="166.9" y="13.299999999999999" transform="translate(0,289.33000000000004)" style="font-family: sans-serif; font-size: 38px; fill: rgb(0, 0, 0); fill-opacity: 1; white-space: pre;">0.5</text></g><g class="ytick"><text text-anchor="end" x="166.9" y="13.299999999999999" transform="translate(0,194.67000000000002)" style="font-family: sans-serif; font-size: 38px; fill: rgb(0, 0, 0); fill-opacity: 1; white-space: pre;">1</text></g><g class="ytick"><text text-anchor="end" x="166.9" y="13.299999999999999" transform="translate(0,100)" style="font-family: sans-serif; font-size: 38px; fill: rgb(0, 0, 0); fill-opacity: 1; white-space: pre;">1.5</text></g></g><g class="overaxes-above"/></g></g><g class="polarlayer"/><g class="ternarylayer"/><g class="geolayer"/><g class="funnelarealayer"/><g class="pielayer"/><g class="treemaplayer"/><g class="sunburstlayer"/><g class="glimages"/><defs id="topdefs-8ea80b"><g class="clips"/></defs><g class="layer-above"><g class="imagelayer"/><g class="shapelayer"/></g><g class="infolayer"><g class="g-gtitle"/><g class="g-xtitle" transform="translate(0,0.5343750000000114)"><text class="xtitle" x="390" y="487.809375" text-anchor="middle" style="font-family: sans-serif; font-size: 41px; fill: rgb(0, 0, 0); opacity: 1; font-weight: normal; white-space: pre;">Damage rate (min​<tspan style="font-size:70%" dy="-0.6em">-1</tspan><tspan dy="0.42em">​</tspan>)</text></g><g class="g-ytitle"><text class="ytitle" transform="rotate(-90,62.753125,242)" x="62.753125" y="242" text-anchor="middle" style="font-family: sans-serif; font-size: 41px; fill: rgb(0, 0, 0); opacity: 1; font-weight: normal; white-space: pre;">RtcB (μM)</text></g></g></svg>