<svg class="main-svg" xmlns="http://www.w3.org/2000/svg" xmlns:xlink="http://www.w3.org/1999/xlink" width="700" height="500" style="" viewBox="0 0 700 500"><rect x="0" y="0" width="700" height="500" style="fill: rgb(255, 255, 255); fill-opacity: 1;"/><defs id="defs-67d75b"><g class="clips"><clipPath id="clip67d75bxyplot" class="plotclip"><rect width="600" height="109.20000000000002"/></clipPath><clipPath id="clip67d75bx2y2plot" class="plotclip"><rect width="600" height="109.19999999999996"/></clipPath><clipPath id="clip67d75bx3y3plot" class="plotclip"><rect width="600" height="109.19999999999999"/></clipPath><clipPath class="axesclip" id="clip67d75bx"><rect x="50" y="0" width="600" height="500"/></clipPath><clipPath class="axesclip" id="clip67d75by"><rect x="0" y="60" width="700" height="109.20000000000002"/></clipPath><clipPath class="axesclip" id="clip67d75bxy"><rect x="50" y="60" width="600" height="109.20000000000002"/></clipPath><clipPath class="axesclip" id="clip67d75by2"><rect x="0" y="200.40000000000003" width="700" height="109.19999999999996"/></clipPath><clipPath class="axesclip" id="clip67d75bxy2"><rect x="50" y="200.40000000000003" width="600" height="109.19999999999996"/></clipPath><clipPath class="axesclip" id="clip67d75by3"><rect x="0" y="340.8" width="700" height="109.19999999999999"/></clipPath><clipPath class="axesclip" id="clip67d75bxy3"><rect x="50" y="340.8" width="600" height="109.19999999999999"/></clipPath><clipPath class="axesclip" id="clip67d75bx2"><rect x="50" y="0" width="600" height="500"/></clipPath><clipPath class="axesclip" id="clip67d75bx2y"><rect x="50" y="60" width="600" height="109.20000000000002"/></clipPath><clipPath class="axesclip" id="clip67d75bx2y2"><rect x="50" y="200.40000000000003" width="600" height="109.19999999999996"/></clipPath><clipPath class="axesclip" id="clip67d75bx2y3"><rect x="50" y="340.8" width="600" height="109.19999999999999"/></clipPath><clipPath class="axesclip" id="clip67d75bx3"><rect x="50" y="0" width="600" height="500"/></clipPath><clipPath class="axesclip" id="clip67d75bx3y"><rect x="50" y="60" width="600" height="109.20000000000002"/></clipPath><clipPath class="axesclip" id="clip67d75bx3y2"><rect x="50" y="200.40000000000003" width="600" height="109.19999999999996"/></clipPath><clipPath class="axesclip" id="clip67d75bx3y3"><rect x="50" y="340.8" width="600" height="109.19999999999999"/></clipPath></g><g class="gradients"/></defs><g class="bglayer"><rect class="bg" x="50" y="60" width="600" height="109.20000000000002" style="fill: rgb(229, 236, 246); fill-opacity: 1; stroke-width: 0;"/><rect class="bg" x="50" y="200.40000000000003" width="600" height="109.19999999999996" style="fill: rgb(229, 236, 246); fill-opacity: 1; stroke-width: 0;"/><rect class="bg" x="50" y="340.8" width="600" height="109.19999999999999" style="fill: rgb(229, 236, 246); fill-opacity: 1; stroke-width: 0;"/></g><g class="layer-below"><g class="imagelayer"/><g class="shapelayer"/></g><g class="cartesianlayer"><g class="subplot xy"><g class="layer-subplot"><g class="shapelayer"/><g class="imagelayer"/></g><g class="gridlayer"><g class="x"><path class="xgrid crisp" transform="translate(130,0)" d="M0,60v109.20000000000002" style="stroke: rgb(255, 255, 255); stroke-opacity: 1; stroke-width: 1px;"/><path class="xgrid crisp" transform="translate(210,0)" d="M0,60v109.20000000000002" style="stroke: rgb(255, 255, 255); stroke-opacity: 1; stroke-width: 1px;"/><path class="xgrid crisp" transform="translate(290,0)" d="M0,60v109.20000000000002" style="stroke: rgb(255, 255, 255); stroke-opacity: 1; stroke-width: 1px;"/><path class="xgrid crisp" transform="translate(370,0)" d="M0,60v109.20000000000002" style="stroke: rgb(255, 255, 255); stroke-opacity: 1; stroke-width: 1px;"/><path class="xgrid crisp" transform="translate(450,0)" d="M0,60v109.20000000000002" style="stroke: rgb(255, 255, 255); stroke-opacity: 1; stroke-width: 1px;"/><path class="xgrid crisp" transform="translate(530,0)" d="M0,60v109.20000000000002" style="stroke: rgb(255, 255, 255); stroke-opacity: 1; stroke-width: 1px;"/><path class="xgrid crisp" transform="translate(610,0)" d="M0,60v109.20000000000002" style="stroke: rgb(255, 255, 255); stroke-opacity: 1; stroke-width: 1px;"/></g><g class="y"><path class="ygrid crisp" transform="translate(0,133.85)" d="M50,0h600" style="stroke: rgb(255, 255, 255); stroke-opacity: 1; stroke-width: 1px;"/><path class="ygrid crisp" transform="translate(0,103.95)" d="M50,0h600" style="stroke: rgb(255, 255, 255); stroke-opacity: 1; stroke-width: 1px;"/><path class="ygrid crisp" transform="translate(0,74.05)" d="M50,0h600" style="stroke: rgb(255, 255, 255); stroke-opacity: 1; stroke-width: 1px;"/></g></g><g class="zerolinelayer"><path class="xzl zl crisp" transform="translate(50,0)" d="M0,60v109.20000000000002" style="stroke: rgb(255, 255, 255); stroke-opacity: 1; stroke-width: 2px;"/><path class="yzl zl crisp" transform="translate(0,163.75)" d="M50,0h600" style="stroke: rgb(255, 255, 255); stroke-opacity: 1; stroke-width: 2px;"/></g><path class="xlines-below"/><path class="ylines-below"/><g class="overlines-below"/><g class="xaxislayer-below"/><g class="yaxislayer-below"/><g class="overaxes-below"/><g class="plot" transform="translate(50,60)" clip-path="url('#clip67d75bxyplot')"><g class="scatterlayer mlayer"><g class="trace scatter tracec4435f" style="stroke-miterlimit: 2; opacity: 1;"><g class="fills"/><g class="errorbars"/><g class="lines"><path class="js-line" d="M0,91.45L16,51.57L24,34.2L32,20.18L40,10.42L48,5.48L56,5.46L64,10.04L72,18.47L80,29.72L88,42.55L102.8,66.32L110.8,77.31L118.8,86.11L126.8,92.48L134.8,96.5L142.8,98.55L150.8,99.17L158.8,98.98L174.8,98.38L182.8,98.69L198.8,100.86L206.8,102.36L214.8,103.74L222.8,103.74L246.8,103.65L254.8,102.07L278.8,96.8L286.8,95.72L302.8,95.36L310.8,96.02L350.8,101.23L358.8,101.7L422.8,103.21L430.8,103.69L470.8,103.69L478.8,103.21L502.8,102.47L510.8,102.86L522.8,103.74L2522.8,103.74L12600,103.74" style="vector-effect: non-scaling-stroke; fill: none; stroke: rgb(99, 110, 250); stroke-opacity: 1; stroke-width: 2px; opacity: 1;"/></g><g class="points"/><g class="text"/></g><g class="trace scatter tracee3b732" style="stroke-miterlimit: 2; opacity: 1;"><g class="fills"/><g class="errorbars"/><g class="lines"><path class="js-line" d="M0,91.45L16,51.57L24,34.2L32,20.18L40,10.42L48,5.48L56,5.46L64,10.04L72,18.47L80,29.72L88,42.55L102.8,66.32L110.8,77.31L118.8,86.11L126.8,92.48L134.8,96.5L142.8,98.55L150.8,99.17L158.8,98.98L174.8,98.38L182.8,98.69L198.8,100.86L206.8,102.36L214.8,103.74L222.8,103.74L246.8,103.65L254.8,102.07L278.8,96.8L286.8,95.72L302.8,95.36L310.8,96.02L350.8,101.23L358.8,101.7L422.8,103.21L430.8,103.69L470.8,103.69L478.8,103.21L502.8,102.47L510.8,102.86L522.8,103.74L2522.8,103.74L12600,103.74" style="vector-effect: non-scaling-stroke; fill: none; stroke: rgb(239, 85, 59); stroke-opacity: 1; stroke-width: 2px; opacity: 1;"/></g><g class="points"/><g class="text"/></g></g></g><g class="overplot"/><path class="xlines-above crisp" d="M0,0" style="fill: none;"/><path class="ylines-above crisp" d="M0,0" style="fill: none;"/><g class="overlines-above"/><g class="xaxislayer-above"/><g class="yaxislayer-above"><g class="ytick"><text text-anchor="end" x="49" y="4.199999999999999" transform="translate(0,163.75)" style="font-family: 'Open Sans', verdana, arial, sans-serif; font-size: 12px; fill: rgb(42, 63, 95); fill-opacity: 1; white-space: pre;">0</text></g><g class="ytick"><text text-anchor="end" x="49" y="4.199999999999999" transform="translate(0,133.85)" style="font-family: 'Open Sans', verdana, arial, sans-serif; font-size: 12px; fill: rgb(42, 63, 95); fill-opacity: 1; white-space: pre;">0.005</text></g><g class="ytick"><text text-anchor="end" x="49" y="4.199999999999999" transform="translate(0,103.95)" style="font-family: 'Open Sans', verdana, arial, sans-serif; font-size: 12px; fill: rgb(42, 63, 95); fill-opacity: 1; white-space: pre;">0.01</text></g><g class="ytick"><text text-anchor="end" x="49" y="4.199999999999999" transform="translate(0,74.05)" style="font-family: 'Open Sans', verdana, arial, sans-serif; font-size: 12px; fill: rgb(42, 63, 95); fill-opacity: 1; white-space: pre;">0.015</text></g></g><g class="overaxes-above"/></g><g class="subplot x2y2"><g class="layer-subplot"><g class="shapelayer"/><g class="imagelayer"/></g><g class="gridlayer"><g class="x2"><path class="x2grid crisp" transform="translate(130,0)" d="M0,200.40000000000003v109.19999999999996" style="stroke: rgb(255, 255, 255); stroke-opacity: 1; stroke-width: 1px;"/><path class="x2grid crisp" transform="translate(210,0)" d="M0,200.40000000000003v109.19999999999996" style="stroke: rgb(255, 255, 255); stroke-opacity: 1; stroke-width: 1px;"/><path class="x2grid crisp" transform="translate(290,0)" d="M0,200.40000000000003v109.19999999999996" style="stroke: rgb(255, 255, 255); stroke-opacity: 1; stroke-width: 1px;"/><path class="x2grid crisp" transform="translate(370,0)" d="M0,200.40000000000003v109.19999999999996" style="stroke: rgb(255, 255, 255); stroke-opacity: 1; stroke-width: 1px;"/><path class="x2grid crisp" transform="translate(450,0)" d="M0,200.40000000000003v109.19999999999996" style="stroke: rgb(255, 255, 255); stroke-opacity: 1; stroke-width: 1px;"/><path class="x2grid crisp" transform="translate(530,0)" d="M0,200.40000000000003v109.19999999999996" style="stroke: rgb(255, 255, 255); stroke-opacity: 1; stroke-width: 1px;"/><path class="x2grid crisp" transform="translate(610,0)" d="M0,200.40000000000003v109.19999999999996" style="stroke: rgb(255, 255, 255); stroke-opacity: 1; stroke-width: 1px;"/></g><g class="y2"><path class="y2grid crisp" transform="translate(0,267.17)" d="M50,0h600" style="stroke: rgb(255, 255, 255); stroke-opacity: 1; stroke-width: 1px;"/><path class="y2grid crisp" transform="translate(0,230.19000000000003)" d="M50,0h600" style="stroke: rgb(255, 255, 255); stroke-opacity: 1; stroke-width: 1px;"/></g></g><g class="zerolinelayer"><path class="x2zl zl crisp" transform="translate(50,0)" d="M0,200.40000000000003v109.19999999999996" style="stroke: rgb(255, 255, 255); stroke-opacity: 1; stroke-width: 2px;"/><path class="y2zl zl crisp" transform="translate(0,304.14000000000004)" d="M50,0h600" style="stroke: rgb(255, 255, 255); stroke-opacity: 1; stroke-width: 2px;"/></g><path class="xlines-below"/><path class="ylines-below"/><g class="overlines-below"/><g class="xaxislayer-below"/><g class="yaxislayer-below"/><g class="overaxes-below"/><g class="plot" transform="translate(50,200.40000000000003)" clip-path="url('#clip67d75bx2y2plot')"><g class="scatterlayer mlayer"><g class="trace scatter trace3000e4" style="stroke-miterlimit: 2; opacity: 1;"><g class="fills"/><g class="errorbars"/><g class="lines"><path class="js-line" d="M0,89.35L16,40.6L24,22.7L32,11.38L40,6.2L56,5.46L64,14.35L72,25.27L80,45.41L94.8,67.63L102.8,75.09L110.8,82.94L118.8,89.4L126.8,94.38L134.8,97.83L142.8,100L150.8,101.07L166.8,101.29L174.8,101.08L190.8,101.14L198.8,101.59L230.8,103.74L238.8,103.74L254.8,103.69L262.8,102.89L294.8,99.58L302.8,99.32L326.8,100.28L334.8,100.91L366.8,102.7L374.8,102.81L430.8,103.47L438.8,103.72L494.8,103.24L502.8,103.09L12600,103.09001965804731L12600,103.74" style="vector-effect: non-scaling-stroke; fill: none; stroke: rgb(0, 204, 150); stroke-opacity: 1; stroke-width: 2px; opacity: 1;"/></g><g class="points"/><g class="text"/></g></g></g><g class="overplot"/><path class="xlines-above crisp" d="M0,0" style="fill: none;"/><path class="ylines-above crisp" d="M0,0" style="fill: none;"/><g class="overlines-above"/><g class="xaxislayer-above"/><g class="yaxislayer-above"><g class="y2tick"><text text-anchor="end" x="49" y="4.199999999999999" transform="translate(0,304.14000000000004)" style="font-family: 'Open Sans', verdana, arial, sans-serif; font-size: 12px; fill: rgb(42, 63, 95); fill-opacity: 1; white-space: pre;">0</text></g><g class="y2tick"><text text-anchor="end" x="49" y="4.199999999999999" transform="translate(0,267.17)" style="font-family: 'Open Sans', verdana, arial, sans-serif; font-size: 12px; fill: rgb(42, 63, 95); fill-opacity: 1; white-space: pre;">2000</text></g><g class="y2tick"><text text-anchor="end" x="49" y="4.199999999999999" transform="translate(0,230.19000000000003)" style="font-family: 'Open Sans', verdana, arial, sans-serif; font-size: 12px; fill: rgb(42, 63, 95); fill-opacity: 1; white-space: pre;">4000</text></g></g><g class="overaxes-above"/></g><g class="subplot x3y3"><g class="layer-subplot"><g class="shapelayer"/><g class="imagelayer"/></g><g class="gridlayer"><g class="x3"><path class="x3grid crisp" transform="translate(130,0)" d="M0,340.8v109.19999999999999" style="stroke: rgb(255, 255, 255); stroke-opacity: 1; stroke-width: 1px;"/><path class="x3grid crisp" transform="translate(210,0)" d="M0,340.8v109.19999999999999" style="stroke: rgb(255, 255, 255); stroke-opacity: 1; stroke-width: 1px;"/><path class="x3grid crisp" transform="translate(290,0)" d="M0,340.8v109.19999999999999" style="stroke: rgb(255, 255, 255); stroke-opacity: 1; stroke-width: 1px;"/><path class="x3grid crisp" transform="translate(370,0)" d="M0,340.8v109.19999999999999" style="stroke: rgb(255, 255, 255); stroke-opacity: 1; stroke-width: 1px;"/><path class="x3grid crisp" transform="translate(450,0)" d="M0,340.8v109.19999999999999" style="stroke: rgb(255, 255, 255); stroke-opacity: 1; stroke-width: 1px;"/><path class="x3grid crisp" transform="translate(530,0)" d="M0,340.8v109.19999999999999" style="stroke: rgb(255, 255, 255); stroke-opacity: 1; stroke-width: 1px;"/><path class="x3grid crisp" transform="translate(610,0)" d="M0,340.8v109.19999999999999" style="stroke: rgb(255, 255, 255); stroke-opacity: 1; stroke-width: 1px;"/></g><g class="y3"><path class="y3grid crisp" transform="translate(0,422.39)" d="M50,0h600" style="stroke: rgb(255, 255, 255); stroke-opacity: 1; stroke-width: 1px;"/><path class="y3grid crisp" transform="translate(0,400.22)" d="M50,0h600" style="stroke: rgb(255, 255, 255); stroke-opacity: 1; stroke-width: 1px;"/><path class="y3grid crisp" transform="translate(0,378.06)" d="M50,0h600" style="stroke: rgb(255, 255, 255); stroke-opacity: 1; stroke-width: 1px;"/><path class="y3grid crisp" transform="translate(0,355.89)" d="M50,0h600" style="stroke: rgb(255, 255, 255); stroke-opacity: 1; stroke-width: 1px;"/></g></g><g class="zerolinelayer"><path class="x3zl zl crisp" transform="translate(50,0)" d="M0,340.8v109.19999999999999" style="stroke: rgb(255, 255, 255); stroke-opacity: 1; stroke-width: 2px;"/><path class="y3zl zl crisp" transform="translate(0,444.55)" d="M50,0h600" style="stroke: rgb(255, 255, 255); stroke-opacity: 1; stroke-width: 2px;"/></g><path class="xlines-below"/><path class="ylines-below"/><g class="overlines-below"/><g class="xaxislayer-below"/><g class="yaxislayer-below"/><g class="overaxes-below"/><g class="plot" transform="translate(50,340.8)" clip-path="url('#clip67d75bx3y3plot')"><g class="scatterlayer mlayer"><g class="trace scatter trace24bcf1" style="stroke-miterlimit: 2; opacity: 1;"><g class="fills"/><g class="errorbars"/><g class="lines"><path class="js-line" d="M0,91.45L16,51.57L24,34.2L32,20.18L40,10.42L48,5.48L56,5.46L64,10.04L72,18.47L80,29.72L88,42.55L102.8,66.32L110.8,77.31L118.8,86.11L126.8,92.48L134.8,96.5L142.8,98.55L150.8,99.17L158.8,98.98L174.8,98.38L182.8,98.69L198.8,100.86L206.8,102.36L214.8,103.74L222.8,103.74L246.8,103.65L254.8,102.07L278.8,96.8L286.8,95.72L302.8,95.36L310.8,96.02L350.8,101.23L358.8,101.7L422.8,103.21L430.8,103.69L470.8,103.69L478.8,103.21L502.8,102.47L510.8,102.86L522.8,103.74L2522.8,103.74L12600,103.74" style="vector-effect: non-scaling-stroke; fill: none; stroke: rgb(171, 99, 250); stroke-opacity: 1; stroke-width: 2px; opacity: 1;"/></g><g class="points"/><g class="text"/></g></g></g><g class="overplot"/><path class="xlines-above crisp" d="M0,0" style="fill: none;"/><path class="ylines-above crisp" d="M0,0" style="fill: none;"/><g class="overlines-above"/><g class="xaxislayer-above"><g class="x3tick"><text text-anchor="middle" x="0" y="463" transform="translate(50,0)" style="font-family: 'Open Sans', verdana, arial, sans-serif; font-size: 12px; fill: rgb(42, 63, 95); fill-opacity: 1; white-space: pre;">0</text></g><g class="x3tick"><text text-anchor="middle" x="0" y="463" transform="translate(130,0)" style="font-family: 'Open Sans', verdana, arial, sans-serif; font-size: 12px; fill: rgb(42, 63, 95); fill-opacity: 1; white-space: pre;">200</text></g><g class="x3tick"><text text-anchor="middle" x="0" y="463" transform="translate(210,0)" style="font-family: 'Open Sans', verdana, arial, sans-serif; font-size: 12px; fill: rgb(42, 63, 95); fill-opacity: 1; white-space: pre;">400</text></g><g class="x3tick"><text text-anchor="middle" x="0" y="463" transform="translate(290,0)" style="font-family: 'Open Sans', verdana, arial, sans-serif; font-size: 12px; fill: rgb(42, 63, 95); fill-opacity: 1; white-space: pre;">600</text></g><g class="x3tick"><text text-anchor="middle" x="0" y="463" transform="translate(370,0)" style="font-family: 'Open Sans', verdana, arial, sans-serif; font-size: 12px; fill: rgb(42, 63, 95); fill-opacity: 1; white-space: pre;">800</text></g><g class="x3tick"><text text-anchor="middle" x="0" y="463" transform="translate(450,0)" style="font-family: 'Open Sans', verdana, arial, sans-serif; font-size: 12px; fill: rgb(42, 63, 95); fill-opacity: 1; white-space: pre;">1000</text></g><g class="x3tick"><text text-anchor="middle" x="0" y="463" transform="translate(530,0)" style="font-family: 'Open Sans', verdana, arial, sans-serif; font-size: 12px; fill: rgb(42, 63, 95); fill-opacity: 1; white-space: pre;">1200</text></g><g class="x3tick"><text text-anchor="middle" x="0" y="463" transform="translate(610,0)" style="font-family: 'Open Sans', verdana, arial, sans-serif; font-size: 12px; fill: rgb(42, 63, 95); fill-opacity: 1; white-space: pre;">1400</text></g></g><g class="yaxislayer-above"><g class="y3tick"><text text-anchor="end" x="49" y="4.199999999999999" transform="translate(0,444.55)" style="font-family: 'Open Sans', verdana, arial, sans-serif; font-size: 12px; fill: rgb(42, 63, 95); fill-opacity: 1; white-space: pre;">0</text></g><g class="y3tick"><text text-anchor="end" x="49" y="4.199999999999999" transform="translate(0,422.39)" style="font-family: 'Open Sans', verdana, arial, sans-serif; font-size: 12px; fill: rgb(42, 63, 95); fill-opacity: 1; white-space: pre;">0.02</text></g><g class="y3tick"><text text-anchor="end" x="49" y="4.199999999999999" transform="translate(0,400.22)" style="font-family: 'Open Sans', verdana, arial, sans-serif; font-size: 12px; fill: rgb(42, 63, 95); fill-opacity: 1; white-space: pre;">0.04</text></g><g class="y3tick"><text text-anchor="end" x="49" y="4.199999999999999" transform="translate(0,378.06)" style="font-family: 'Open Sans', verdana, arial, sans-serif; font-size: 12px; fill: rgb(42, 63, 95); fill-opacity: 1; white-space: pre;">0.06</text></g><g class="y3tick"><text text-anchor="end" x="49" y="4.199999999999999" transform="translate(0,355.89)" style="font-family: 'Open Sans', verdana, arial, sans-serif; font-size: 12px; fill: rgb(42, 63, 95); fill-opacity: 1; white-space: pre;">0.08</text></g></g><g class="overaxes-above"/></g></g><g class="polarlayer"/><g class="ternarylayer"/><g class="geolayer"/><g class="funnelarealayer"/><g class="pielayer"/><g class="treemaplayer"/><g class="sunburstlayer"/><g class="glimages"/><defs id="topdefs-67d75b"><g class="clips"/></defs><g class="layer-above"><g class="imagelayer"/><g class="shapelayer"/></g><g class="infolayer"><g class="g-gtitle"/><g class="g-xtitle"/><g class="g-x2title"/><g class="g-x3title"/><g class="g-ytitle"/><g class="g-y2title"/><g class="g-y3title"/><g class="annotation" data-index="0" style="opacity: 1;"><g class="annotation-text-g" transform="rotate(0,350,48.5)"><g class="cursor-pointer" transform="translate(344,37)"><rect class="bg" x="0.5" y="0.5" width="12" height="22" style="stroke-width: 1px; stroke: rgb(0, 0, 0); stroke-opacity: 0; fill: rgb(0, 0, 0); fill-opacity: 0;"/><text class="annotation-text" text-anchor="middle" x="6.734375" y="17" style="font-family: 'Open Sans', verdana, arial, sans-serif; font-size: 16px; fill: rgb(42, 63, 95); fill-opacity: 1; white-space: pre;">λ</text></g></g></g><g class="annotation" data-index="1" style="opacity: 1;"><g class="annotation-text-g" transform="rotate(0,350,188.90000000000003)"><g class="cursor-pointer" transform="translate(334,177)"><rect class="bg" x="0.5" y="0.5" width="32" height="22" style="stroke-width: 1px; stroke: rgb(0, 0, 0); stroke-opacity: 0; fill: rgb(0, 0, 0); fill-opacity: 0;"/><text class="annotation-text" text-anchor="middle" x="16.5625" y="17" style="font-family: 'Open Sans', verdana, arial, sans-serif; font-size: 16px; fill: rgb(42, 63, 95); fill-opacity: 1; white-space: pre;">ATP</text></g></g></g><g class="annotation" data-index="2" style="opacity: 1;"><g class="annotation-text-g" transform="rotate(0,350,329.3)"><g class="cursor-pointer" transform="translate(336,318)"><rect class="bg" x="0.5" y="0.5" width="27" height="22" style="stroke-width: 1px; stroke: rgb(0, 0, 0); stroke-opacity: 0; fill: rgb(0, 0, 0); fill-opacity: 0;"/><text class="annotation-text" text-anchor="middle" x="13.9375" y="17" style="font-family: 'Open Sans', verdana, arial, sans-serif; font-size: 16px; fill: rgb(42, 63, 95); fill-opacity: 1; white-space: pre;">kin</text></g></g></g></g></svg>