<svg class="main-svg" xmlns="http://www.w3.org/2000/svg" xmlns:xlink="http://www.w3.org/1999/xlink" width="700" height="500" style="" viewBox="0 0 700 500"><rect x="0" y="0" width="700" height="500" style="fill: rgb(255, 255, 255); fill-opacity: 1;"/><defs id="defs-e6e5c3"><g class="clips"><clipPath id="clipe6e5c3xyplot" class="plotclip"><rect width="476" height="355"/></clipPath><clipPath class="axesclip" id="clipe6e5c3x"><rect x="101" y="0" width="476" height="500"/></clipPath><clipPath class="axesclip" id="clipe6e5c3y"><rect x="0" y="60" width="700" height="355"/></clipPath><clipPath class="axesclip" id="clipe6e5c3xy"><rect x="101" y="60" width="476" height="355"/></clipPath></g><g class="gradients"/></defs><g class="bglayer"/><g class="layer-below"><g class="imagelayer"/><g class="shapelayer"/></g><g class="cartesianlayer"><g class="subplot xy"><g class="layer-subplot"><g class="shapelayer"/><g class="imagelayer"/></g><g class="gridlayer"><g class="x"/><g class="y"/></g><g class="zerolinelayer"><path class="yzl zl crisp" transform="translate(0,397.25)" d="M101,0h476" style="stroke: rgb(255, 255, 255); stroke-opacity: 1; stroke-width: 2px;"/></g><path class="xlines-below"/><path class="ylines-below"/><g class="overlines-below"/><g class="xaxislayer-below"/><g class="yaxislayer-below"/><g class="overaxes-below"/><g class="plot" transform="translate(101,60)" clip-path="url('#clipe6e5c3xyplot')"><g class="scatterlayer mlayer"><g class="trace scatter trace5851b7" style="stroke-miterlimit: 2; opacity: 1;"><g class="fills"/><g class="errorbars"/><g class="lines"><path class="js-line" d="M0,17.75L1.94,20.12L3,20.9L10.57,28.69L11.32,29.67L20.34,44.47L20.83,45.46L30.14,68.21L30.49,69.2L66.86,175.02L67.31,176L81.18,202.62L81.78,203.6L96.15,224.22L96.94,225.19L112.21,241.77L113.24,242.74L130.82,257.19L132.15,258.15L153.6,271.36L155.35,272.29L181.33,284.11L183.61,284.99L217.11,296.06L220.01,296.87L261.8,306.78L265.31,307.49L326.07,317.9L330.07,318.5L386.11,328.3L386.84,329.09" style="vector-effect: non-scaling-stroke; fill: none; stroke: rgb(255, 211, 12); stroke-opacity: 1; stroke-width: 6.5px; opacity: 1;"/></g><g class="points"/><g class="text"/></g><g class="trace scatter trace0cfc1c" style="stroke-miterlimit: 2; opacity: 1;"><g class="fills"/><g class="errorbars"/><g class="lines"><path class="js-line" d="M386.84,329.09L381.52,330.89L377.15,331.44L338.45,333.65L333.48,333.82L243.64,336.27L243.64,336.27" style="vector-effect: non-scaling-stroke; fill: none; stroke: rgb(255, 211, 12); stroke-opacity: 1; stroke-width: 6.5px; opacity: 1; stroke-dasharray: 19.5px, 19.5px;"/></g><g class="points"/><g class="text"/></g><g class="trace scatter trace9d5c30" style="stroke-miterlimit: 2; opacity: 1;"><g class="fills"/><g class="errorbars"/><g class="lines"><path class="js-line" d="M243.64,336.27L254.96,336.56L259.49,336.6L476,337.01" style="vector-effect: non-scaling-stroke; fill: none; stroke: rgb(255, 211, 12); stroke-opacity: 1; stroke-width: 6.5px; opacity: 1;"/></g><g class="points"/><g class="text"/></g><g class="trace scatter trace93ea4f" style="stroke-miterlimit: 2; opacity: 1;"><g class="fills"/><g class="errorbars"/><g class="lines"><path class="js-line" d="M0,337.25L1.94,334.92L3,334.14L10.57,326.43L11.32,325.46L20.34,310.75L20.83,309.77L30.14,287.09L30.49,286.11L66.86,180.41L67.31,179.42L81.18,152.82L81.78,151.84L96.15,131.23L96.94,130.25L112.21,113.68L113.24,112.71L130.82,98.26L132.15,97.31L153.6,84.1L155.35,83.17L181.33,71.35L183.61,70.47L217.11,59.41L220.01,58.6L261.8,48.69L265.31,47.98L322.08,38.18L326.07,37.57L386.11,27.18L386.84,26.39" style="vector-effect: non-scaling-stroke; fill: none; stroke: rgb(233, 97, 0); stroke-opacity: 1; stroke-width: 6.5px; opacity: 1;"/></g><g class="points"/><g class="text"/></g><g class="trace scatter trace67a27d" style="stroke-miterlimit: 2; opacity: 1;"><g class="fills"/><g class="errorbars"/><g class="lines"><path class="js-line" d="M386.84,26.39L381.52,24.59L377.15,24.04L338.45,21.86L333.48,21.69L243.64,19.57L243.64,19.57" style="vector-effect: non-scaling-stroke; fill: none; stroke: rgb(233, 97, 0); stroke-opacity: 1; stroke-width: 6.5px; opacity: 1; stroke-dasharray: 19.5px, 19.5px;"/></g><g class="points"/><g class="text"/></g><g class="trace scatter tracea4494f" style="stroke-miterlimit: 2; opacity: 1;"><g class="fills"/><g class="errorbars"/><g class="lines"><path class="js-line" d="M243.64,19.57L294.71,20.14L299.74,20.22L476,24.24" style="vector-effect: non-scaling-stroke; fill: none; stroke: rgb(233, 97, 0); stroke-opacity: 1; stroke-width: 6.5px; opacity: 1;"/></g><g class="points"/><g class="text"/></g><g class="trace scatter trace47020b" style="stroke-miterlimit: 2; opacity: 1;"><g class="fills"/><g class="errorbars"/><g class="lines"><path class="js-line" d="M0,337.25L73.5,336.82L74.02,336.82L386.84,336.77" style="vector-effect: non-scaling-stroke; fill: none; stroke: rgb(172, 6, 6); stroke-opacity: 1; stroke-width: 6.5px; opacity: 1;"/></g><g class="points"/><g class="text"/></g><g class="trace scatter tracea298b4" style="stroke-miterlimit: 2; opacity: 1;"><g class="fills"/><g class="errorbars"/><g class="lines"><path class="js-line" d="M386.84,336.77L243.64,336.41L243.64,336.41" style="vector-effect: non-scaling-stroke; fill: none; stroke: rgb(172, 6, 6); stroke-opacity: 1; stroke-width: 6.5px; opacity: 1; stroke-dasharray: 19.5px, 19.5px;"/></g><g class="points"/><g class="text"/></g><g class="trace scatter tracefad558" style="stroke-miterlimit: 2; opacity: 1;"><g class="fills"/><g class="errorbars"/><g class="lines"><path class="js-line" d="M243.64,336.41L259.49,335.98L264.52,335.88L476,331.01" style="vector-effect: non-scaling-stroke; fill: none; stroke: rgb(172, 6, 6); stroke-opacity: 1; stroke-width: 6.5px; opacity: 1;"/></g><g class="points"/><g class="text"/></g></g></g><g class="overplot"/><path class="xlines-above crisp" d="M98,416.5H577" style="fill: none; stroke-width: 3px; stroke: rgb(0, 0, 0); stroke-opacity: 1;"/><path class="ylines-above crisp" d="M99.5,60V415" style="fill: none; stroke-width: 3px; stroke: rgb(0, 0, 0); stroke-opacity: 1;"/><g class="overlines-above"/><g class="xaxislayer-above"><g class="xtick"><text text-anchor="middle" x="0" y="446.8" transform="translate(101,0)" style="font-family: sans-serif; font-size: 24px; fill: rgb(0, 0, 0); fill-opacity: 1; white-space: pre;">0</text></g><g class="xtick"><text text-anchor="middle" x="0" y="446.8" transform="translate(220,0)" style="font-family: sans-serif; font-size: 24px; fill: rgb(0, 0, 0); fill-opacity: 1; white-space: pre;">5</text></g><g class="xtick"><text text-anchor="middle" x="0" y="446.8" transform="translate(339,0)" style="font-family: sans-serif; font-size: 24px; fill: rgb(0, 0, 0); fill-opacity: 1; white-space: pre;">10</text></g><g class="xtick"><text text-anchor="middle" x="0" y="446.8" transform="translate(458,0)" style="font-family: sans-serif; font-size: 24px; fill: rgb(0, 0, 0); fill-opacity: 1; white-space: pre;">15</text></g><g class="xtick"><text text-anchor="middle" x="0" y="446.8" transform="translate(577,0)" style="font-family: sans-serif; font-size: 24px; fill: rgb(0, 0, 0); fill-opacity: 1; white-space: pre;">20</text></g></g><g class="yaxislayer-above"><g class="ytick"><text text-anchor="end" x="93.2" y="8.399999999999999" transform="translate(0,397.25)" style="font-family: sans-serif; font-size: 24px; fill: rgb(0, 0, 0); fill-opacity: 1; white-space: pre;">0</text></g><g class="ytick"><text text-anchor="end" x="93.2" y="8.399999999999999" transform="translate(0,353.22)" style="font-family: sans-serif; font-size: 24px; fill: rgb(0, 0, 0); fill-opacity: 1; white-space: pre;">20</text></g><g class="ytick"><text text-anchor="end" x="93.2" y="8.399999999999999" transform="translate(0,309.19)" style="font-family: sans-serif; font-size: 24px; fill: rgb(0, 0, 0); fill-opacity: 1; white-space: pre;">40</text></g><g class="ytick"><text text-anchor="end" x="93.2" y="8.399999999999999" transform="translate(0,265.15999999999997)" style="font-family: sans-serif; font-size: 24px; fill: rgb(0, 0, 0); fill-opacity: 1; white-space: pre;">60</text></g><g class="ytick"><text text-anchor="end" x="93.2" y="8.399999999999999" transform="translate(0,221.13)" style="font-family: sans-serif; font-size: 24px; fill: rgb(0, 0, 0); fill-opacity: 1; white-space: pre;">80</text></g><g class="ytick"><text text-anchor="end" x="93.2" y="8.399999999999999" transform="translate(0,177.1)" style="font-family: sans-serif; font-size: 24px; fill: rgb(0, 0, 0); fill-opacity: 1; white-space: pre;">100</text></g><g class="ytick"><text text-anchor="end" x="93.2" y="8.399999999999999" transform="translate(0,133.07)" style="font-family: sans-serif; font-size: 24px; fill: rgb(0, 0, 0); fill-opacity: 1; white-space: pre;">120</text></g><g class="ytick"><text text-anchor="end" x="93.2" y="8.399999999999999" transform="translate(0,89.03999999999999)" style="font-family: sans-serif; font-size: 24px; fill: rgb(0, 0, 0); fill-opacity: 1; white-space: pre;">140</text></g></g><g class="overaxes-above"/></g></g><g class="polarlayer"/><g class="ternarylayer"/><g class="geolayer"/><g class="funnelarealayer"/><g class="pielayer"/><g class="treemaplayer"/><g class="sunburstlayer"/><g class="glimages"/><defs id="topdefs-e6e5c3"><g class="clips"/><clipPath id="legende6e5c3"><rect width="101" height="133" x="0" y="0"/></clipPath></defs><g class="layer-above"><g class="imagelayer"/><g class="shapelayer"/></g><g class="infolayer"><g class="legend" pointer-events="all" transform="translate(586.52,60)"><rect class="bg" shape-rendering="crispEdges" style="stroke: rgb(68, 68, 68); stroke-opacity: 1; fill: rgb(255, 255, 255); fill-opacity: 1; stroke-width: 0px;" width="101" height="133" x="0" y="0"/><g class="scrollbox" transform="" clip-path="url('#legende6e5c3')"><g class="groups" transform=""><g class="traces" transform="translate(0,22.1)" style="opacity: 1;"><text class="legendtext" text-anchor="start" x="40" y="9.360000000000001" style="font-family: sans-serif; font-size: 24px; fill: rgb(0, 0, 0); fill-opacity: 1; white-space: pre;">RtcB</text><g class="layers" style="opacity: 1;"><g class="legendfill"/><g class="legendlines"><path class="js-line" d="M5,0h30" style="fill: none; stroke: rgb(255, 211, 12); stroke-opacity: 1; stroke-width: 6.5px;"/></g><g class="legendsymbols"><g class="legendpoints"/></g></g><rect class="legendtoggle" x="0" y="-17.1" width="95.75" height="34.2" style="fill: rgb(0, 0, 0); fill-opacity: 0;"/></g></g><g class="groups" transform="translate(0,10)"><g class="traces" transform="translate(0,56.300000000000004)" style="opacity: 1;"><text class="legendtext" text-anchor="start" x="40" y="9.360000000000001" style="font-family: sans-serif; font-size: 24px; fill: rgb(0, 0, 0); fill-opacity: 1; white-space: pre;">rt</text><g class="layers" style="opacity: 1;"><g class="legendfill"/><g class="legendlines"><path class="js-line" d="M5,0h30" style="fill: none; stroke: rgb(233, 97, 0); stroke-opacity: 1; stroke-width: 6.5px;"/></g><g class="legendsymbols"><g class="legendpoints"/></g></g><rect class="legendtoggle" x="0" y="-17.1" width="95.75" height="34.2" style="fill: rgb(0, 0, 0); fill-opacity: 0;"/></g></g><g class="groups" transform="translate(0,20)"><g class="traces" transform="translate(0,90.5)" style="opacity: 1;"><text class="legendtext" text-anchor="start" x="40" y="9.360000000000001" style="font-family: sans-serif; font-size: 24px; fill: rgb(0, 0, 0); fill-opacity: 1; white-space: pre;">rd</text><g class="layers" style="opacity: 1;"><g class="legendfill"/><g class="legendlines"><path class="js-line" d="M5,0h30" style="fill: none; stroke: rgb(172, 6, 6); stroke-opacity: 1; stroke-width: 6.5px;"/></g><g class="legendsymbols"><g class="legendpoints"/></g></g><rect class="legendtoggle" x="0" y="-17.1" width="95.75" height="34.2" style="fill: rgb(0, 0, 0); fill-opacity: 0;"/></g></g></g><rect class="scrollbar" rx="20" ry="3" width="0" height="0" style="fill: rgb(128, 139, 164); fill-opacity: 1;" x="0" y="0"/></g><g class="g-gtitle"/><g class="g-xtitle"><text class="xtitle" x="339" y="488.1125" text-anchor="middle" style="font-family: sans-serif; font-size: 29px; fill: rgb(0, 0, 0); opacity: 1; font-weight: normal; white-space: pre;">Damage rate (min​<tspan style="font-size:70%" dy="-0.6em">-1</tspan><tspan dy="0.42em">​</tspan>)</text></g><g class="g-ytitle" transform="translate(14.9091796875,0)"><text class="ytitle" transform="rotate(-90,12.090625000000003,237.5)" x="12.090625000000003" y="237.5" text-anchor="middle" style="font-family: sans-serif; font-size: 29px; fill: rgb(0, 0, 0); opacity: 1; font-weight: normal; white-space: pre;">Ribosomes (μM)</text></g></g></svg>