<svg class="main-svg" xmlns="http://www.w3.org/2000/svg" xmlns:xlink="http://www.w3.org/1999/xlink" width="700" height="500" style="" viewBox="0 0 700 500"><rect x="0" y="0" width="700" height="500" style="fill: rgb(255, 255, 255); fill-opacity: 1;"/><defs id="defs-069d1b"><g class="clips"><clipPath id="clip069d1bxyplot" class="plotclip"><rect width="549" height="355"/></clipPath><clipPath class="axesclip" id="clip069d1bx"><rect x="101" y="0" width="549" height="500"/></clipPath><clipPath class="axesclip" id="clip069d1by"><rect x="0" y="60" width="700" height="355"/></clipPath><clipPath class="axesclip" id="clip069d1bxy"><rect x="101" y="60" width="549" height="355"/></clipPath></g><g class="gradients"/></defs><g class="bglayer"/><g class="layer-below"><g class="imagelayer"/><g class="shapelayer"/></g><g class="cartesianlayer"><g class="subplot xy"><g class="layer-subplot"><g class="shapelayer"/><g class="imagelayer"/></g><g class="gridlayer"><g class="x"/><g class="y"/></g><g class="zerolinelayer"><path class="yzl zl crisp" transform="translate(0,397.49)" d="M101,0h549" style="stroke: rgb(255, 255, 255); stroke-opacity: 1; stroke-width: 2px;"/></g><path class="xlines-below"/><path class="ylines-below"/><g class="overlines-below"/><g class="xaxislayer-below"/><g class="yaxislayer-below"/><g class="overaxes-below"/><g class="plot" transform="translate(101,60)" clip-path="url('#clip069d1bxyplot')"><g class="scatterlayer mlayer"><g class="trace scatter trace848c98" style="stroke-miterlimit: 2; opacity: 1;"><g class="fills"/><g class="errorbars"/><g class="lines"><path class="js-line" d="M0,17.75L1.29,19.49L2.24,20.12L11.29,27.71L12.19,28.7L22.29,42.51L22.88,43.5L33.12,64.29L33.54,65.28L48.63,105.88L48.98,106.87L68.13,156.36L68.57,157.34L83.05,186L83.62,186.98L97.88,208.66L98.62,209.65L115.56,229.27L116.54,230.24L135.53,246.79L136.82,247.75L157.21,261.19L158.87,262.14L183.33,274.34L185.46,275.26L217.15,286.96L219.91,287.83L260.59,298.68L264.09,299.48L318.43,309.8L322.66,310.48L408.5,322.32L413.11,322.92L445.33,328.54L446.16,329.33" style="vector-effect: non-scaling-stroke; fill: none; stroke: rgb(150, 150, 150); stroke-opacity: 1; stroke-width: 6.5px; opacity: 1;"/></g><g class="points"/><g class="text"/></g><g class="trace scatter trace14ea65" style="stroke-miterlimit: 2; opacity: 1;"><g class="fills"/><g class="errorbars"/><g class="lines"><path class="js-line" d="M446.16,329.33L440.03,331.13L434.99,331.68L390.35,333.89L384.62,334.06L281.01,336.51L281.01,336.51" style="vector-effect: non-scaling-stroke; fill: none; stroke: rgb(150, 150, 150); stroke-opacity: 1; stroke-width: 6.5px; opacity: 1; stroke-dasharray: 19.5px, 19.5px;"/></g><g class="points"/><g class="text"/></g><g class="trace scatter traced75f2e" style="stroke-miterlimit: 2; opacity: 1;"><g class="fills"/><g class="errorbars"/><g class="lines"><path class="js-line" d="M281.01,336.51L290.31,336.76L294.07,336.8L549,337.25" style="vector-effect: non-scaling-stroke; fill: none; stroke: rgb(150, 150, 150); stroke-opacity: 1; stroke-width: 6.5px; opacity: 1;"/></g><g class="points"/><g class="text"/></g><g class="trace scatter traceef0adc" style="stroke-miterlimit: 2; opacity: 1;"><g class="fills"/><g class="errorbars"/><g class="lines"><path class="js-line" d="M0,17.75L1.69,19.78L2.93,20.59L11.25,27.77L12.2,28.81L22.09,42.37L22.72,43.41L32.6,63.26L33.05,64.3L47.53,102.95L47.9,104L68.47,157.21L68.94,158.25L83.22,186.37L83.83,187.41L99.04,210.24L99.83,211.28L117.16,230.9L118.21,231.92L137.5,248.28L138.88,249.3L161.04,263.38L162.85,264.37L187.44,276.11L189.75,277.07L221.26,288.26L224.21,289.16L263.97,299.46L267.65,300.27L320.01,310.06L324.36,310.76L412.16,322.81L416.83,323.43L445.33,328.57L446.08,329.43" style="vector-effect: non-scaling-stroke; fill: none; stroke: rgb(161, 64, 63); stroke-opacity: 1; stroke-width: 6.5px; opacity: 1;"/></g><g class="points"/><g class="text"/></g><g class="trace scatter tracee6c5df" style="stroke-miterlimit: 2; opacity: 1;"><g class="fills"/><g class="errorbars"/><g class="lines"><path class="js-line" d="M446.08,329.43L439,331.26L433.81,331.78L388.86,333.93L383.12,334.1L280.97,336.51" style="vector-effect: non-scaling-stroke; fill: none; stroke: rgb(161, 64, 63); stroke-opacity: 1; stroke-width: 6.5px; opacity: 1; stroke-dasharray: 19.5px, 19.5px;"/></g><g class="points"/><g class="text"/></g><g class="trace scatter trace79772c" style="stroke-miterlimit: 2; opacity: 1;"><g class="fills"/><g class="errorbars"/><g class="lines"><path class="js-line" d="M280.97,336.51L290.76,336.77L294.83,336.81L549,337.25" style="vector-effect: non-scaling-stroke; fill: none; stroke: rgb(161, 64, 63); stroke-opacity: 1; stroke-width: 6.5px; opacity: 1;"/></g><g class="points"/><g class="text"/></g><g class="trace scatter trace6b2a5b" style="stroke-miterlimit: 2; opacity: 1;"><g class="fills"/><g class="errorbars"/><g class="lines"><path class="js-line" d="M0,17.75L1.67,19.79L2.9,20.59L11.21,27.79L12.16,28.84L22.05,42.42L22.68,43.46L33.02,64.38L33.46,65.42L47.53,103.05L47.9,104.09L67.57,155.24L68.03,156.28L83.88,187.52L84.49,188.56L99.9,211.4L100.71,212.44L117.26,231.02L118.32,232.05L137.64,248.41L139.03,249.42L161.23,263.5L163.04,264.49L187.7,276.23L190.02,277.19L221.59,288.37L224.55,289.27L264.4,299.56L268.07,300.37L320.52,310.15L324.87,310.84L408.01,322.27L412.71,322.88L445.52,328.7L446.06,329.32" style="vector-effect: non-scaling-stroke; fill: none; stroke: rgb(226, 90, 88); stroke-opacity: 1; stroke-width: 6.5px; opacity: 1;"/></g><g class="points"/><g class="text"/></g><g class="trace scatter trace8adb60" style="stroke-miterlimit: 2; opacity: 1;"><g class="fills"/><g class="errorbars"/><g class="lines"><path class="js-line" d="M446.06,329.32L439.51,331.19L434.35,331.73L389.44,333.91L383.69,334.09L280.94,336.51" style="vector-effect: non-scaling-stroke; fill: none; stroke: rgb(226, 90, 88); stroke-opacity: 1; stroke-width: 6.5px; opacity: 1; stroke-dasharray: 19.5px, 19.5px;"/></g><g class="points"/><g class="text"/></g><g class="trace scatter tracee3aed2" style="stroke-miterlimit: 2; opacity: 1;"><g class="fills"/><g class="errorbars"/><g class="lines"><path class="js-line" d="M280.94,336.51L289.98,336.76L293.93,336.8L549,337.25" style="vector-effect: non-scaling-stroke; fill: none; stroke: rgb(226, 90, 88); stroke-opacity: 1; stroke-width: 6.5px; opacity: 1;"/></g><g class="points"/><g class="text"/></g><g class="trace scatter tracea90787" style="stroke-miterlimit: 2; opacity: 1;"><g class="fills"/><g class="errorbars"/><g class="lines"><path class="js-line" d="M0,17.75L1.59,19.77L2.76,20.56L11.06,27.79L12.01,28.84L21.92,42.49L22.55,43.54L32.49,63.47L32.94,64.51L47.88,104.29L48.25,105.34L68.54,157.56L69,158.6L84.58,188.81L85.2,189.86L100.85,212.69L101.67,213.73L118.53,232.31L119.6,233.33L137.94,248.67L139.33,249.68L161.64,263.76L163.46,264.75L190.57,277.44L192.95,278.39L225.28,289.51L228.31,290.4L268.99,300.59L272.74,301.39L325.97,311.03L330.38,311.71L445.94,329.36" style="vector-effect: non-scaling-stroke; fill: none; stroke: rgb(255, 156, 155); stroke-opacity: 1; stroke-width: 6.5px; opacity: 1;"/></g><g class="points"/><g class="text"/></g><g class="trace scatter trace4bd744" style="stroke-miterlimit: 2; opacity: 1;"><g class="fills"/><g class="errorbars"/><g class="lines"><path class="js-line" d="M445.94,329.36L439.19,331.21L434.01,331.75L383.32,334.09L377.56,334.26L280.87,336.51" style="vector-effect: non-scaling-stroke; fill: none; stroke: rgb(255, 156, 155); stroke-opacity: 1; stroke-width: 6.5px; opacity: 1; stroke-dasharray: 19.5px, 19.5px;"/></g><g class="points"/><g class="text"/></g><g class="trace scatter tracea7b7ff" style="stroke-miterlimit: 2; opacity: 1;"><g class="fills"/><g class="errorbars"/><g class="lines"><path class="js-line" d="M280.87,336.51L296.81,336.83L302.18,336.86L549,337.25" style="vector-effect: non-scaling-stroke; fill: none; stroke: rgb(255, 156, 155); stroke-opacity: 1; stroke-width: 6.5px; opacity: 1;"/></g><g class="points"/><g class="text"/></g><g class="trace scatter tracefe56e8" style="stroke-miterlimit: 2;"><g class="fills"><g><path class="js-fill" d="M446.16,337.49L0,337.49L0,17.75L0,17.75L0,17.76L0.01,17.79L0.01,17.84L0.03,17.95L0.09,18.14L0.24,18.47L0.73,19.04L2.24,20.12L4.82,21.83L7.26,23.79L9.37,25.75L11.29,27.71L13.06,29.68L14.72,31.65L16.27,33.62L17.73,35.6L19.12,37.57L20.43,39.55L21.68,41.53L22.88,43.5L24.02,45.48L25.12,47.46L26.18,49.44L27.2,51.42L28.18,53.4L29.14,55.38L30.06,57.36L30.96,59.34L31.84,61.32L32.7,63.3L33.54,65.28L34.36,67.26L35.17,69.24L35.96,71.22L36.74,73.2L37.5,75.18L38.26,77.16L39.01,79.14L39.75,81.12L40.48,83.1L41.21,85.08L41.93,87.06L42.64,89.05L43.35,91.03L44.06,93.01L44.77,94.99L45.47,96.97L46.17,98.95L46.87,100.93L47.57,102.91L48.27,104.89L48.98,106.87L49.68,108.85L50.38,110.83L51.09,112.81L51.8,114.79L52.51,116.77L53.23,118.75L53.95,120.73L54.68,122.71L55.41,124.69L56.14,126.67L56.89,128.65L57.63,130.63L58.39,132.61L59.15,134.59L59.92,136.57L60.7,138.55L61.48,140.53L62.28,142.51L63.08,144.49L63.89,146.46L64.72,148.44L65.55,150.42L66.4,152.4L67.26,154.38L68.13,156.36L69.01,158.33L69.91,160.31L70.82,162.29L71.74,164.27L72.68,166.24L73.64,168.22L74.61,170.2L75.6,172.17L76.6,174.15L77.63,176.12L78.67,178.1L79.73,180.07L80.82,182.05L81.92,184.02L83.05,186L84.19,187.97L85.37,189.94L86.56,191.92L87.79,193.89L89.04,195.86L90.31,197.83L91.62,199.8L92.95,201.77L94.32,203.74L95.72,205.71L97.15,207.68L98.62,209.65L100.12,211.61L101.66,213.58L103.25,215.54L104.87,217.51L106.53,219.47L108.24,221.43L110,223.39L111.8,225.35L113.66,227.31L115.56,229.27L117.53,231.22L119.55,233.17L121.63,235.13L123.77,237.08L125.98,239.02L128.26,240.97L130.61,242.91L133.03,244.85L135.53,246.79L138.12,248.72L140.79,250.65L143.55,252.58L146.41,254.5L149.36,256.42L152.42,258.33L155.59,260.24L158.87,262.14L162.26,264.04L165.79,265.93L169.44,267.81L173.23,269.69L177.15,271.55L181.23,273.41L185.46,275.26L189.85,277.09L194.41,278.92L199.14,280.73L204.05,282.53L209.14,284.31L214.43,286.08L219.91,287.83L225.59,289.56L231.48,291.27L237.58,292.96L243.89,294.63L250.41,296.27L257.14,297.89L264.09,299.48L271.25,301.04L278.62,302.57L286.2,304.08L293.98,305.55L301.95,307L310.1,308.41L318.43,309.8L326.93,311.15L335.58,312.48L344.38,313.77L353.3,315.05L362.34,316.29L371.48,317.52L380.69,318.73L389.95,319.93L399.24,321.12L408.5,322.32L417.68,323.53L426.66,324.79L435.2,326.13L442.66,327.65L446.16,329.33" style="fill: rgb(150, 150, 150); fill-opacity: 0.3; stroke-width: 0;"/></g></g><g class="errorbars"/><g class="lines"/><g class="points"/><g class="text"/></g><g class="trace scatter trace7f7b33" style="stroke-miterlimit: 2;"><g class="fills"><g><path class="js-fill" d="M446.06,337.49L0,337.49L0,17.75L0,17.75L0,17.76L0.01,17.79L0.02,17.85L0.04,17.97L0.1,18.19L0.3,18.57L0.92,19.24L2.9,20.59L5.71,22.6L8.11,24.67L10.22,26.75L12.16,28.84L13.95,30.92L15.62,33.01L17.2,35.1L18.68,37.19L20.08,39.28L21.41,41.37L22.68,43.46L23.89,45.55L25.05,47.64L26.17,49.74L27.24,51.83L28.28,53.92L29.28,56.01L30.26,58.1L31.2,60.19L32.12,62.29L33.02,64.38L33.9,66.47L34.76,68.56L35.6,70.65L36.43,72.74L37.25,74.83L38.05,76.92L38.84,79.01L39.63,81.1L40.4,83.2L41.17,85.29L41.93,87.38L42.69,89.47L43.44,91.56L44.19,93.65L44.93,95.74L45.68,97.83L46.42,99.92L47.16,102L47.9,104.09L48.64,106.18L49.38,108.27L50.13,110.36L50.88,112.45L51.63,114.54L52.38,116.63L53.14,118.72L53.9,120.8L54.66,122.89L55.44,124.98L56.22,127.07L57,129.16L57.79,131.24L58.59,133.33L59.4,135.42L60.21,137.51L61.04,139.59L61.87,141.68L62.72,143.77L63.57,145.85L64.44,147.94L65.32,150.02L66.21,152.11L67.11,154.2L68.03,156.28L68.96,158.37L69.91,160.45L70.87,162.54L71.85,164.62L72.84,166.7L73.85,168.79L74.88,170.87L75.93,172.95L77,175.04L78.09,177.12L79.2,179.2L80.33,181.28L81.49,183.36L82.67,185.44L83.88,187.52L85.11,189.6L86.36,191.68L87.65,193.76L88.97,195.84L90.31,197.92L91.69,199.99L93.1,202.07L94.55,204.14L96.03,206.22L97.55,208.29L99.11,210.36L100.71,212.44L102.35,214.51L104.04,216.57L105.77,218.64L107.55,220.71L109.38,222.77L111.27,224.84L113.21,226.9L115.21,228.96L117.26,231.02L119.39,233.07L121.57,235.13L123.83,237.18L126.16,239.23L128.57,241.27L131.05,243.31L133.62,245.35L136.28,247.39L139.03,249.42L141.87,251.45L144.81,253.47L147.87,255.49L151.03,257.5L154.3,259.51L157.7,261.51L161.23,263.5L164.89,265.49L168.69,267.46L172.64,269.43L176.74,271.39L180.99,273.33L185.42,275.27L190.02,277.19L194.79,279.09L199.76,280.98L204.91,282.86L210.26,284.72L215.82,286.55L221.59,288.37L227.57,290.16L233.77,291.93L240.19,293.68L246.83,295.39L253.69,297.08L260.77,298.74L268.07,300.37L275.59,301.97L283.32,303.53L291.25,305.06L299.39,306.56L307.71,308.02L316.21,309.45L324.87,310.84L333.7,312.21L342.66,313.54L351.76,314.84L360.97,316.12L370.28,317.37L379.67,318.61L389.1,319.83L398.57,321.05L408.01,322.27L417.38,323.51L426.56,324.79L435.3,326.17L442.93,327.75L446.06,329.32" style="fill: rgb(255, 156, 155); fill-opacity: 0.3; stroke-width: 0;"/></g></g><g class="errorbars"/><g class="lines"/><g class="points"/><g class="text"/></g><g class="trace scatter trace535acd" style="stroke-miterlimit: 2;"><g class="fills"><g><path class="js-fill" d="M445.94,337.49L0,337.49L0,17.75L0,17.75L0,17.76L0.01,17.79L0.01,17.85L0.04,17.97L0.1,18.19L0.29,18.57L0.88,19.23L2.76,20.56L5.55,22.56L7.95,24.65L10.07,26.74L12.01,28.84L13.8,30.94L15.48,33.04L17.05,35.14L18.54,37.24L19.94,39.34L21.28,41.44L22.55,43.54L23.77,45.64L24.93,47.74L26.05,49.83L27.13,51.93L28.17,54.03L29.18,56.13L30.16,58.22L31.11,60.32L32.03,62.42L32.94,64.51L33.82,66.61L34.68,68.71L35.53,70.8L36.36,72.9L37.18,74.99L37.99,77.09L38.78,79.18L39.57,81.27L40.35,83.37L41.12,85.46L41.88,87.55L42.64,89.65L43.4,91.74L44.15,93.83L44.9,95.93L45.64,98.02L46.39,100.11L47.13,102.2L47.88,104.29L48.62,106.38L49.37,108.48L50.11,110.57L50.86,112.66L51.61,114.75L52.37,116.84L53.13,118.93L53.89,121.02L54.66,123.11L55.44,125.2L56.22,127.29L57.01,129.38L57.8,131.47L58.6,133.55L59.41,135.64L60.23,137.73L61.06,139.82L61.89,141.91L62.74,144L63.6,146.08L64.47,148.17L65.35,150.26L66.24,152.35L67.15,154.43L68.07,156.52L69,158.6L69.95,160.69L70.92,162.78L71.9,164.86L72.9,166.95L73.91,169.03L74.94,171.11L76,173.2L77.07,175.28L78.16,177.37L79.28,179.45L80.41,181.53L81.57,183.61L82.75,185.69L83.96,187.77L85.2,189.86L86.46,191.93L87.75,194.01L89.07,196.09L90.42,198.17L91.8,200.25L93.22,202.32L94.67,204.4L96.16,206.47L97.68,208.55L99.25,210.62L100.85,212.69L102.5,214.76L104.19,216.83L105.93,218.9L107.72,220.97L109.56,223.03L111.45,225.1L113.4,227.16L115.41,229.22L117.47,231.28L119.6,233.33L121.8,235.39L124.07,237.44L126.41,239.49L128.82,241.53L131.32,243.58L133.9,245.62L136.57,247.65L139.33,249.68L142.19,251.71L145.15,253.73L148.21,255.75L151.39,257.76L154.68,259.77L158.1,261.77L161.64,263.76L165.32,265.74L169.14,267.72L173.1,269.69L177.22,271.64L181.5,273.59L185.95,275.52L190.57,277.44L195.37,279.34L200.36,281.23L205.54,283.11L210.92,284.96L216.51,286.8L222.3,288.61L228.31,290.4L234.54,292.17L240.99,293.91L247.66,295.62L254.55,297.31L261.66,298.96L268.99,300.59L276.54,302.18L284.3,303.74L292.26,305.26L300.42,306.76L308.76,308.21L317.28,309.64L325.97,311.03L334.82,312.39L343.8,313.72L352.92,315.02L362.14,316.29L371.46,317.54L380.86,318.78L390.3,320L399.76,321.22L409.2,322.44L418.55,323.68L427.69,324.97L436.34,326.37L443.67,328L445.94,329.36" style="fill: rgb(226, 90, 88); fill-opacity: 0.3; stroke-width: 0;"/></g></g><g class="errorbars"/><g class="lines"/><g class="points"/><g class="text"/></g><g class="trace scatter trace410b9b" style="stroke-miterlimit: 2;"><g class="fills"><g><path class="js-fill" d="M446.08,337.49L0,337.49L0,17.75L0,17.75L0,17.76L0.01,17.79L0.02,17.85L0.04,17.97L0.1,18.19L0.3,18.57L0.93,19.24L2.93,20.59L5.75,22.59L8.15,24.66L10.27,26.74L12.2,28.81L13.99,30.89L15.67,32.98L17.24,35.06L18.72,37.15L20.12,39.24L21.45,41.32L22.72,43.41L23.93,45.5L25.09,47.59L26.2,49.68L27.28,51.77L28.31,53.85L29.31,55.94L30.28,58.03L31.23,60.12L32.15,62.21L33.05,64.3L33.92,66.39L34.78,68.48L35.62,70.57L36.45,72.66L37.26,74.75L38.07,76.84L38.86,78.93L39.64,81.02L40.41,83.11L41.18,85.2L41.94,87.29L42.7,89.38L43.45,91.46L44.2,93.55L44.94,95.64L45.68,97.73L46.42,99.82L47.16,101.91L47.9,104L48.64,106.08L49.39,108.17L50.13,110.26L50.87,112.35L51.62,114.44L52.38,116.53L53.13,118.61L53.89,120.7L54.66,122.79L55.43,124.88L56.21,126.96L56.99,129.05L57.78,131.14L58.58,133.22L59.39,135.31L60.2,137.4L61.02,139.48L61.86,141.57L62.7,143.66L63.56,145.74L64.42,147.83L65.3,149.91L66.19,152L67.09,154.08L68.01,156.17L68.94,158.25L69.88,160.34L70.84,162.42L71.82,164.51L72.81,166.59L73.82,168.67L74.85,170.76L75.9,172.84L76.97,174.92L78.05,177L79.16,179.08L80.29,181.17L81.45,183.25L82.63,185.33L83.83,187.41L85.06,189.49L86.31,191.57L87.6,193.64L88.91,195.72L90.26,197.8L91.63,199.87L93.04,201.95L94.49,204.02L95.97,206.1L97.48,208.17L99.04,210.24L100.64,212.31L102.27,214.38L103.96,216.45L105.69,218.52L107.47,220.59L109.3,222.65L111.18,224.72L113.11,226.78L115.11,228.84L117.16,230.9L119.28,232.95L121.46,235L123.72,237.06L126.04,239.1L128.44,241.15L130.92,243.19L133.49,245.23L136.14,247.27L138.88,249.3L141.72,251.33L144.66,253.35L147.7,255.37L150.86,257.38L154.13,259.39L157.52,261.39L161.04,263.38L164.69,265.37L168.48,267.34L172.42,269.31L176.51,271.27L180.75,273.21L185.17,275.15L189.75,277.07L194.52,278.98L199.47,280.87L204.62,282.74L209.96,284.6L215.5,286.44L221.26,288.26L227.22,290.05L233.41,291.82L239.81,293.57L246.44,295.29L253.29,296.98L260.36,298.64L267.65,300.27L275.15,301.87L282.87,303.43L290.79,304.97L298.91,306.46L307.21,307.93L315.7,309.36L324.36,310.76L333.17,312.12L342.13,313.46L351.22,314.76L360.43,316.04L369.73,317.3L379.11,318.53L388.55,319.76L398.01,320.97L407.46,322.19L416.83,323.43L426.02,324.71L434.81,326.07L442.55,327.64L446.08,329.43" style="fill: rgb(161, 64, 63); fill-opacity: 0.3; stroke-width: 0;"/></g></g><g class="errorbars"/><g class="lines"/><g class="points"/><g class="text"/></g></g></g><g class="overplot"/><path class="xlines-above crisp" d="M98,416.5H650" style="fill: none; stroke-width: 3px; stroke: rgb(0, 0, 0); stroke-opacity: 1;"/><path class="ylines-above crisp" d="M99.5,60V415" style="fill: none; stroke-width: 3px; stroke: rgb(0, 0, 0); stroke-opacity: 1;"/><g class="overlines-above"/><g class="xaxislayer-above"><g class="xtick"><text text-anchor="middle" x="0" y="446.8" transform="translate(101,0)" style="font-family: sans-serif; font-size: 24px; fill: rgb(0, 0, 0); fill-opacity: 1; white-space: pre;">0</text></g><g class="xtick"><text text-anchor="middle" x="0" y="446.8" transform="translate(238.25,0)" style="font-family: sans-serif; font-size: 24px; fill: rgb(0, 0, 0); fill-opacity: 1; white-space: pre;">5</text></g><g class="xtick"><text text-anchor="middle" x="0" y="446.8" transform="translate(375.5,0)" style="font-family: sans-serif; font-size: 24px; fill: rgb(0, 0, 0); fill-opacity: 1; white-space: pre;">10</text></g><g class="xtick"><text text-anchor="middle" x="0" y="446.8" transform="translate(512.75,0)" style="font-family: sans-serif; font-size: 24px; fill: rgb(0, 0, 0); fill-opacity: 1; white-space: pre;">15</text></g><g class="xtick"><text text-anchor="middle" x="0" y="446.8" transform="translate(650,0)" style="font-family: sans-serif; font-size: 24px; fill: rgb(0, 0, 0); fill-opacity: 1; white-space: pre;">20</text></g></g><g class="yaxislayer-above"><g class="ytick"><text text-anchor="end" x="93.2" y="8.399999999999999" transform="translate(0,397.49)" style="font-family: sans-serif; font-size: 24px; fill: rgb(0, 0, 0); fill-opacity: 1; white-space: pre;">0</text></g><g class="ytick"><text text-anchor="end" x="93.2" y="8.399999999999999" transform="translate(0,353.43)" style="font-family: sans-serif; font-size: 24px; fill: rgb(0, 0, 0); fill-opacity: 1; white-space: pre;">20</text></g><g class="ytick"><text text-anchor="end" x="93.2" y="8.399999999999999" transform="translate(0,309.37)" style="font-family: sans-serif; font-size: 24px; fill: rgb(0, 0, 0); fill-opacity: 1; white-space: pre;">40</text></g><g class="ytick"><text text-anchor="end" x="93.2" y="8.399999999999999" transform="translate(0,265.3)" style="font-family: sans-serif; font-size: 24px; fill: rgb(0, 0, 0); fill-opacity: 1; white-space: pre;">60</text></g><g class="ytick"><text text-anchor="end" x="93.2" y="8.399999999999999" transform="translate(0,221.24)" style="font-family: sans-serif; font-size: 24px; fill: rgb(0, 0, 0); fill-opacity: 1; white-space: pre;">80</text></g><g class="ytick"><text text-anchor="end" x="93.2" y="8.399999999999999" transform="translate(0,177.18)" style="font-family: sans-serif; font-size: 24px; fill: rgb(0, 0, 0); fill-opacity: 1; white-space: pre;">100</text></g><g class="ytick"><text text-anchor="end" x="93.2" y="8.399999999999999" transform="translate(0,133.11)" style="font-family: sans-serif; font-size: 24px; fill: rgb(0, 0, 0); fill-opacity: 1; white-space: pre;">120</text></g><g class="ytick"><text text-anchor="end" x="93.2" y="8.399999999999999" transform="translate(0,89.05)" style="font-family: sans-serif; font-size: 24px; fill: rgb(0, 0, 0); fill-opacity: 1; white-space: pre;">140</text></g></g><g class="overaxes-above"/></g></g><g class="polarlayer"/><g class="ternarylayer"/><g class="geolayer"/><g class="funnelarealayer"/><g class="pielayer"/><g class="treemaplayer"/><g class="sunburstlayer"/><g class="glimages"/><defs id="topdefs-069d1b"><g class="clips"/></defs><g class="layer-above"><g class="imagelayer"/><g class="shapelayer"/></g><g class="infolayer"><g class="g-gtitle"/><g class="g-xtitle"><text class="xtitle" x="375.5" y="488.1125" text-anchor="middle" style="font-family: sans-serif; font-size: 29px; fill: rgb(0, 0, 0); opacity: 1; font-weight: normal; white-space: pre;">Damage rate (min​<tspan style="font-size:70%" dy="-0.6em">-1</tspan><tspan dy="0.42em">​</tspan>)</text></g><g class="g-ytitle" transform="translate(14.9091796875,0)"><text class="ytitle" transform="rotate(-90,12.090625000000003,237.5)" x="12.090625000000003" y="237.5" text-anchor="middle" style="font-family: sans-serif; font-size: 29px; fill: rgb(0, 0, 0); opacity: 1; font-weight: normal; white-space: pre;">Healthy tRNA (μM)</text></g></g></svg>