<svg class="main-svg" xmlns="http://www.w3.org/2000/svg" xmlns:xlink="http://www.w3.org/1999/xlink" width="700" height="500" style="" viewBox="0 0 700 500"><rect x="0" y="0" width="700" height="500" style="fill: rgb(255, 255, 255); fill-opacity: 1;"/><defs id="defs-f2bba6"><g class="clips"><clipPath id="clipf2bba6xyplot" class="plotclip"><rect width="539" height="355"/></clipPath><clipPath class="axesclip" id="clipf2bba6x"><rect x="93" y="0" width="539" height="500"/></clipPath><clipPath class="axesclip" id="clipf2bba6y"><rect x="0" y="60" width="700" height="355"/></clipPath><clipPath class="axesclip" id="clipf2bba6xy"><rect x="93" y="60" width="539" height="355"/></clipPath></g><g class="gradients"/></defs><g class="bglayer"/><g class="layer-below"><g class="imagelayer"/><g class="shapelayer"/></g><g class="cartesianlayer"><g class="subplot xy"><g class="layer-subplot"><g class="shapelayer"/><g class="imagelayer"/></g><g class="gridlayer"><g class="x"/><g class="y"/></g><g class="zerolinelayer"><path class="yzl zl crisp" transform="translate(0,397.5)" d="M93,0h539" style="stroke: rgb(255, 255, 255); stroke-opacity: 1; stroke-width: 2px;"/></g><path class="xlines-below"/><path class="ylines-below"/><g class="overlines-below"/><g class="xaxislayer-below"/><g class="yaxislayer-below"/><g class="overaxes-below"/><g class="plot" transform="translate(93,60)" clip-path="url('#clipf2bba6xyplot')"><g class="scatterlayer mlayer"><g class="trace scatter trace4c0029" style="stroke-miterlimit: 2; opacity: 1;"><g class="fills"/><g class="errorbars"/><g class="lines"><path class="js-line" d="M0,308.34L1.27,160.93L2.2,109.51L5.98,29.44L7.13,23.64L10.16,18.58L11.08,18.17L18.1,17.91L18.77,17.96L39.74,21.17L40.1,21.25L66.89,29.57L67.32,29.72L127.07,53.65L128.23,54.14L210.52,90.72L213.19,91.97L280.99,125.46L284.78,127.46L338.11,157.49L342.47,160.16L378.3,183.99L382.85,187.35L405.58,206.02L410.07,210.25L423.16,224.55L427.27,230.08L434.6,243.2L437.21,251.48L438.04,259.16" style="vector-effect: non-scaling-stroke; fill: none; stroke: rgb(17, 119, 51); stroke-opacity: 1; stroke-width: 6.5px; opacity: 1;"/></g><g class="points"/><g class="text"/></g><g class="trace scatter trace86efd6" style="stroke-miterlimit: 2; opacity: 1;"><g class="fills"/><g class="errorbars"/><g class="lines"><path class="js-line" d="M438.04,259.16L436.35,269.38L432.01,277.98L421.87,288.82L416.52,292.83L400.03,302.1L394.45,304.58L366.33,314.4L360.67,315.99L320.97,325.02L315.28,326.09L275.89,334.09" style="vector-effect: non-scaling-stroke; fill: none; stroke: rgb(0, 0, 0); stroke-opacity: 1; stroke-width: 6.5px; opacity: 1; stroke-dasharray: 19.5px, 19.5px;"/></g><g class="points"/><g class="text"/></g><g class="trace scatter trace85bce8" style="stroke-miterlimit: 2; opacity: 1;"><g class="fills"/><g class="errorbars"/><g class="lines"><path class="js-line" d="M275.89,334.09L279.07,335.03L280.44,335.18L310.93,336.29L316.63,336.38L487.15,337.18L492.81,337.19L539,337.25" style="vector-effect: non-scaling-stroke; fill: none; stroke: rgb(136, 34, 85); stroke-opacity: 1; stroke-width: 6.5px; opacity: 1;"/></g><g class="points"/><g class="text"/></g><g class="trace scatter trace8702b1" style="stroke-miterlimit: 2; opacity: 1;"><g class="fills"/><g class="errorbars"/><g class="lines"/><g class="points"/><g class="text"/></g></g></g><g class="overplot"/><path class="xlines-above crisp" d="M90,416.5H632" style="fill: none; stroke-width: 3px; stroke: rgb(0, 0, 0); stroke-opacity: 1;"/><path class="ylines-above crisp" d="M91.5,60V415" style="fill: none; stroke-width: 3px; stroke: rgb(0, 0, 0); stroke-opacity: 1;"/><g class="overlines-above"/><g class="xaxislayer-above"><g class="xtick"><text text-anchor="middle" x="0" y="446.8" transform="translate(93,0)" style="font-family: sans-serif; font-size: 24px; fill: rgb(0, 0, 0); fill-opacity: 1; white-space: pre;">0</text></g><g class="xtick"><text text-anchor="middle" x="0" y="446.8" transform="translate(227.75,0)" style="font-family: sans-serif; font-size: 24px; fill: rgb(0, 0, 0); fill-opacity: 1; white-space: pre;">5</text></g><g class="xtick"><text text-anchor="middle" x="0" y="446.8" transform="translate(362.5,0)" style="font-family: sans-serif; font-size: 24px; fill: rgb(0, 0, 0); fill-opacity: 1; white-space: pre;">10</text></g><g class="xtick"><text text-anchor="middle" x="0" y="446.8" transform="translate(497.25,0)" style="font-family: sans-serif; font-size: 24px; fill: rgb(0, 0, 0); fill-opacity: 1; white-space: pre;">15</text></g><g class="xtick"><text text-anchor="middle" x="0" y="446.8" transform="translate(632,0)" style="font-family: sans-serif; font-size: 24px; fill: rgb(0, 0, 0); fill-opacity: 1; white-space: pre;">20</text></g></g><g class="yaxislayer-above"><g class="ytick"><text text-anchor="end" x="85.2" y="8.399999999999999" transform="translate(0,397.5)" style="font-family: sans-serif; font-size: 24px; fill: rgb(0, 0, 0); fill-opacity: 1; white-space: pre;">0</text></g><g class="ytick"><text text-anchor="end" x="85.2" y="8.399999999999999" transform="translate(0,328.97)" style="font-family: sans-serif; font-size: 24px; fill: rgb(0, 0, 0); fill-opacity: 1; white-space: pre;">0.5</text></g><g class="ytick"><text text-anchor="end" x="85.2" y="8.399999999999999" transform="translate(0,260.44)" style="font-family: sans-serif; font-size: 24px; fill: rgb(0, 0, 0); fill-opacity: 1; white-space: pre;">1</text></g><g class="ytick"><text text-anchor="end" x="85.2" y="8.399999999999999" transform="translate(0,191.92)" style="font-family: sans-serif; font-size: 24px; fill: rgb(0, 0, 0); fill-opacity: 1; white-space: pre;">1.5</text></g><g class="ytick"><text text-anchor="end" x="85.2" y="8.399999999999999" transform="translate(0,123.39)" style="font-family: sans-serif; font-size: 24px; fill: rgb(0, 0, 0); fill-opacity: 1; white-space: pre;">2</text></g></g><g class="overaxes-above"/></g></g><g class="polarlayer"/><g class="ternarylayer"/><g class="geolayer"/><g class="funnelarealayer"/><g class="pielayer"/><g class="treemaplayer"/><g class="sunburstlayer"/><g class="glimages"/><defs id="topdefs-f2bba6"><g class="clips"/><clipPath id="legendf2bba6"><rect width="45" height="45" x="0" y="0"/></clipPath></defs><g class="layer-above"><g class="imagelayer"/><g class="shapelayer"/></g><g class="infolayer"><g class="legend" pointer-events="all" transform="translate(642.78,60)"><rect class="bg" shape-rendering="crispEdges" width="45" height="45" x="0" y="0" style="stroke: rgb(68, 68, 68); stroke-opacity: 1; fill: rgb(255, 255, 255); fill-opacity: 1; stroke-width: 0px;"/><g class="scrollbox" transform="" clip-path="url('#legendf2bba6')"><g class="groups" transform=""><g class="traces" transform="translate(0,22.1)" style="opacity: 1;"><text class="legendtext" text-anchor="start" x="40" y="9.360000000000001" style="font-family: sans-serif; font-size: 24px; fill: rgb(0, 0, 0); fill-opacity: 1; white-space: pre;"></text><g class="layers" style="opacity: 1;"><g class="legendfill"/><g class="legendlines"><path class="js-line" d="M5,0h30" style="fill: none; stroke: rgb(17, 119, 51); stroke-opacity: 1; stroke-width: 6.5px;"/></g><g class="legendsymbols"><g class="legendpoints"/></g></g><rect class="legendtoggle" x="0" y="-17.1" width="40" height="34.2" style="fill: rgb(0, 0, 0); fill-opacity: 0;"/></g></g></g><rect class="scrollbar" rx="20" ry="3" width="0" height="0" x="0" y="0" style="fill: rgb(128, 139, 164); fill-opacity: 1;"/></g><g class="g-gtitle"/><g class="g-xtitle"><text class="xtitle" x="362.5" y="488.1125" text-anchor="middle" style="font-family: sans-serif; font-size: 29px; fill: rgb(0, 0, 0); opacity: 1; font-weight: normal; white-space: pre;">Damage rate (min​<tspan style="font-size:70%" dy="-0.6em">-1</tspan><tspan dy="0.42em">​</tspan>)</text></g><g class="g-ytitle" transform="translate(15.2685546875,0)"><text class="ytitle" transform="rotate(-90,11.731250000000003,237.5)" x="11.731250000000003" y="237.5" text-anchor="middle" style="font-family: sans-serif; font-size: 29px; fill: rgb(0, 0, 0); opacity: 1; font-weight: normal; white-space: pre;">RtcA (μM)</text></g></g></svg>