<svg class="main-svg" xmlns="http://www.w3.org/2000/svg" xmlns:xlink="http://www.w3.org/1999/xlink" width="700" height="500" style="" viewBox="0 0 700 500"><rect x="0" y="0" width="700" height="500" style="fill: rgb(255, 255, 255); fill-opacity: 1;"/><defs id="defs-ea2f26"><g class="clips"><clipPath id="clipea2f26xyplot" class="plotclip"><rect width="557" height="355"/></clipPath><clipPath class="axesclip" id="clipea2f26x"><rect x="93" y="0" width="557" height="500"/></clipPath><clipPath class="axesclip" id="clipea2f26y"><rect x="0" y="60" width="700" height="355"/></clipPath><clipPath class="axesclip" id="clipea2f26xy"><rect x="93" y="60" width="557" height="355"/></clipPath></g><g class="gradients"/></defs><g class="bglayer"/><g class="layer-below"><g class="imagelayer"/><g class="shapelayer"/></g><g class="cartesianlayer"><g class="subplot xy"><g class="layer-subplot"><g class="shapelayer"/><g class="imagelayer"/></g><g class="gridlayer"><g class="x"/><g class="y"/></g><g class="zerolinelayer"><path class="yzl zl crisp" transform="translate(0,397.31)" d="M93,0h557" style="stroke: rgb(255, 255, 255); stroke-opacity: 1; stroke-width: 2px;"/></g><path class="xlines-below"/><path class="ylines-below"/><g class="overlines-below"/><g class="xaxislayer-below"/><g class="yaxislayer-below"/><g class="overaxes-below"/><g class="plot" transform="translate(93,60)" clip-path="url('#clipea2f26xyplot')"><g class="scatterlayer mlayer"><g class="trace scatter trace14c5fb" style="stroke-miterlimit: 2; opacity: 1;"><g class="fills"/><g class="errorbars"/><g class="lines"><path class="js-line" d="M0,308.17L1.31,160.85L2.27,109.45L6.18,29.44L7.36,23.64L10.5,18.58L11.45,18.17L18.7,17.91L19.39,17.96L41.07,21.17L41.44,21.25L63.59,27.66L64,27.8L97.11,39.98L97.84,40.26L192.62,79.58L194.91,80.59L267.94,114.27L271.55,116.03L331.69,147.29L336.06,149.74L376.89,174.39L381.56,177.47L409.76,198.01L414.46,201.87L432.88,219.34L437.29,224.43L445.55,236.09L449.11,243.07L452.66,259.03" style="vector-effect: non-scaling-stroke; fill: none; stroke: rgb(150, 150, 150); stroke-opacity: 1; stroke-width: 6.5px; opacity: 1;"/></g><g class="points"/><g class="text"/></g><g class="trace scatter trace8dbc07" style="stroke-miterlimit: 2; opacity: 1;"><g class="fills"/><g class="errorbars"/><g class="lines"><path class="js-line" d="M452.66,259.03L450.92,269.24L446.44,277.83L435.96,288.66L430.43,292.67L413.39,301.93L407.63,304.42L378.56,314.23L372.72,315.82L331.69,324.84L325.81,325.92L285.1,333.9" style="vector-effect: non-scaling-stroke; fill: none; stroke: rgb(150, 150, 150); stroke-opacity: 1; stroke-width: 6.5px; opacity: 1; stroke-dasharray: 19.5px, 19.5px;"/></g><g class="points"/><g class="text"/></g><g class="trace scatter trace5f5021" style="stroke-miterlimit: 2; opacity: 1;"><g class="fills"/><g class="errorbars"/><g class="lines"><path class="js-line" d="M285.1,333.9L288.39,334.84L289.81,334.99L321.31,336.11L327.2,336.2L503.41,337L509.27,337.01L557,337.07" style="vector-effect: non-scaling-stroke; fill: none; stroke: rgb(150, 150, 150); stroke-opacity: 1; stroke-width: 6.5px; opacity: 1;"/></g><g class="points"/><g class="text"/></g><g class="trace scatter trace4a3a82" style="stroke-miterlimit: 2; opacity: 1;"><g class="fills"/><g class="errorbars"/><g class="lines"><path class="js-line" d="M0,322.05L0.95,258.64L1.71,232.3L4.44,186.07L5.83,177.39L9.37,170.84L10.42,170.39L18.25,169.99L18.99,170.02L50.1,172.92L50.48,172.97L104.61,183.11L105.47,183.29L207.6,205.79L210.28,206.42L303.26,229.79L307.45,230.94L370.39,249.79L375.12,251.38L413.39,265.93L418.16,268.06L436.76,277.89L441.15,280.84L449,287.89L451.81,292.44L452.58,296.84" style="vector-effect: non-scaling-stroke; fill: none; stroke: rgb(161, 64, 63); stroke-opacity: 1; stroke-width: 6.5px; opacity: 1;"/></g><g class="points"/><g class="text"/></g><g class="trace scatter trace4878fa" style="stroke-miterlimit: 2; opacity: 1;"><g class="fills"/><g class="errorbars"/><g class="lines"><path class="js-line" d="M452.58,296.84L450.27,302.46L445.4,306.86L434.67,312.33L429.08,314.37L406.15,320.38L400.35,321.55L359.44,327.77L353.57,328.46L285.07,335.53" style="vector-effect: non-scaling-stroke; fill: none; stroke: rgb(161, 64, 63); stroke-opacity: 1; stroke-width: 6.5px; opacity: 1; stroke-dasharray: 19.5px, 19.5px;"/></g><g class="points"/><g class="text"/></g><g class="trace scatter tracee18b38" style="stroke-miterlimit: 2; opacity: 1;"><g class="fills"/><g class="errorbars"/><g class="lines"><path class="js-line" d="M285.07,335.53L289.9,336.1L292.03,336.19L357.28,336.89L363.09,336.91L557,337.18" style="vector-effect: non-scaling-stroke; fill: none; stroke: rgb(161, 64, 63); stroke-opacity: 1; stroke-width: 6.5px; opacity: 1;"/></g><g class="points"/><g class="text"/></g><g class="trace scatter trace6df4ef" style="stroke-miterlimit: 2; opacity: 1;"><g class="fills"/><g class="errorbars"/><g class="lines"><path class="js-line" d="M0,325.73L0.94,277.93L1.69,258.03L4.4,222.79L5.79,216.06L9.33,210.98L10.37,210.62L20.37,210.38L21.06,210.4L60.26,213.77L60.68,213.82L118.97,222.54L120.04,222.71L268.25,248.71L271.98,249.43L356.89,267.57L361.55,268.7L409.17,281.77L413.96,283.33L437.29,292.48L441.65,294.75L449.38,300.2L452.02,303.75L452.56,306.16" style="vector-effect: non-scaling-stroke; fill: none; stroke: rgb(226, 90, 88); stroke-opacity: 1; stroke-width: 6.5px; opacity: 1;"/></g><g class="points"/><g class="text"/></g><g class="trace scatter trace1a3245" style="stroke-miterlimit: 2; opacity: 1;"><g class="fills"/><g class="errorbars"/><g class="lines"><path class="js-line" d="M452.56,306.16L450.68,310.39L445.91,313.9L429.65,319.74L423.99,321.1L389.28,326.85L383.44,327.56L324.78,332.85L318.9,333.26L285.04,335.96" style="vector-effect: non-scaling-stroke; fill: none; stroke: rgb(226, 90, 88); stroke-opacity: 1; stroke-width: 6.5px; opacity: 1; stroke-dasharray: 19.5px, 19.5px;"/></g><g class="points"/><g class="text"/></g><g class="trace scatter trace0a51cd" style="stroke-miterlimit: 2; opacity: 1;"><g class="fills"/><g class="errorbars"/><g class="lines"><path class="js-line" d="M285.04,335.96L291.32,336.44L294.2,336.52L401.19,337.09L406.85,337.1L557,337.21" style="vector-effect: non-scaling-stroke; fill: none; stroke: rgb(226, 90, 88); stroke-opacity: 1; stroke-width: 6.5px; opacity: 1;"/></g><g class="points"/><g class="text"/></g><g class="trace scatter tracea25efe" style="stroke-miterlimit: 2; opacity: 1;"><g class="fills"/><g class="errorbars"/><g class="lines"><path class="js-line" d="M0,330.08L1.61,288.97L2.8,275.69L6.9,259.95L8.07,258.99L14,258.03L14.87,258.03L52.75,259.64L53.13,259.67L96.8,263.52L97.56,263.59L300.63,286.06L304.79,286.59L391.19,299.32L395.99,300.18L433.92,308.39L438.4,309.71L450.14,314.72L452.3,317.09L452.44,317.98" style="vector-effect: non-scaling-stroke; fill: none; stroke: rgb(255, 156, 155); stroke-opacity: 1; stroke-width: 6.5px; opacity: 1;"/></g><g class="points"/><g class="text"/></g><g class="trace scatter trace0901b7" style="stroke-miterlimit: 2; opacity: 1;"><g class="fills"/><g class="errorbars"/><g class="lines"><path class="js-line" d="M452.44,317.98L450.41,320.62L445.59,322.77L429.3,326.38L423.63,327.23L383.06,331.25L377.21,331.66L284.97,336.47" style="vector-effect: non-scaling-stroke; fill: none; stroke: rgb(255, 156, 155); stroke-opacity: 1; stroke-width: 6.5px; opacity: 1; stroke-dasharray: 19.5px, 19.5px;"/></g><g class="points"/><g class="text"/></g><g class="trace scatter trace9a5ad5" style="stroke-miterlimit: 2; opacity: 1;"><g class="fills"/><g class="errorbars"/><g class="lines"><path class="js-line" d="M284.97,336.47L295.71,336.84L301.13,336.89L515.71,337.24L519.91,337.24L557,337.25" style="vector-effect: non-scaling-stroke; fill: none; stroke: rgb(255, 156, 155); stroke-opacity: 1; stroke-width: 6.5px; opacity: 1;"/></g><g class="points"/><g class="text"/></g></g></g><g class="overplot"/><path class="xlines-above crisp" d="M90,416.5H650" style="fill: none; stroke-width: 3px; stroke: rgb(0, 0, 0); stroke-opacity: 1;"/><path class="ylines-above crisp" d="M91.5,60V415" style="fill: none; stroke-width: 3px; stroke: rgb(0, 0, 0); stroke-opacity: 1;"/><g class="overlines-above"/><g class="xaxislayer-above"><g class="xtick"><text text-anchor="middle" x="0" y="446.8" transform="translate(93,0)" style="font-family: sans-serif; font-size: 24px; fill: rgb(0, 0, 0); fill-opacity: 1; white-space: pre;">0</text></g><g class="xtick"><text text-anchor="middle" x="0" y="446.8" transform="translate(232.25,0)" style="font-family: sans-serif; font-size: 24px; fill: rgb(0, 0, 0); fill-opacity: 1; white-space: pre;">5</text></g><g class="xtick"><text text-anchor="middle" x="0" y="446.8" transform="translate(371.5,0)" style="font-family: sans-serif; font-size: 24px; fill: rgb(0, 0, 0); fill-opacity: 1; white-space: pre;">10</text></g><g class="xtick"><text text-anchor="middle" x="0" y="446.8" transform="translate(510.75,0)" style="font-family: sans-serif; font-size: 24px; fill: rgb(0, 0, 0); fill-opacity: 1; white-space: pre;">15</text></g><g class="xtick"><text text-anchor="middle" x="0" y="446.8" transform="translate(650,0)" style="font-family: sans-serif; font-size: 24px; fill: rgb(0, 0, 0); fill-opacity: 1; white-space: pre;">20</text></g></g><g class="yaxislayer-above"><g class="ytick"><text text-anchor="end" x="85.2" y="8.399999999999999" transform="translate(0,397.31)" style="font-family: sans-serif; font-size: 24px; fill: rgb(0, 0, 0); fill-opacity: 1; white-space: pre;">0</text></g><g class="ytick"><text text-anchor="end" x="85.2" y="8.399999999999999" transform="translate(0,328.82)" style="font-family: sans-serif; font-size: 24px; fill: rgb(0, 0, 0); fill-opacity: 1; white-space: pre;">0.5</text></g><g class="ytick"><text text-anchor="end" x="85.2" y="8.399999999999999" transform="translate(0,260.34000000000003)" style="font-family: sans-serif; font-size: 24px; fill: rgb(0, 0, 0); fill-opacity: 1; white-space: pre;">1</text></g><g class="ytick"><text text-anchor="end" x="85.2" y="8.399999999999999" transform="translate(0,191.85)" style="font-family: sans-serif; font-size: 24px; fill: rgb(0, 0, 0); fill-opacity: 1; white-space: pre;">1.5</text></g><g class="ytick"><text text-anchor="end" x="85.2" y="8.399999999999999" transform="translate(0,123.36)" style="font-family: sans-serif; font-size: 24px; fill: rgb(0, 0, 0); fill-opacity: 1; white-space: pre;">2</text></g></g><g class="overaxes-above"/></g></g><g class="polarlayer"/><g class="ternarylayer"/><g class="geolayer"/><g class="funnelarealayer"/><g class="pielayer"/><g class="treemaplayer"/><g class="sunburstlayer"/><g class="glimages"/><defs id="topdefs-ea2f26"><g class="clips"/></defs><g class="layer-above"><g class="imagelayer"/><g class="shapelayer"/></g><g class="infolayer"><g class="g-gtitle"/><g class="g-xtitle"><text class="xtitle" x="371.5" y="488.1125" text-anchor="middle" style="font-family: sans-serif; font-size: 29px; fill: rgb(0, 0, 0); opacity: 1; font-weight: normal; white-space: pre;">Damage rate (min​<tspan style="font-size:70%" dy="-0.6em">-1</tspan><tspan dy="0.42em">​</tspan>)</text></g><g class="g-ytitle" transform="translate(15.2685546875,0)"><text class="ytitle" transform="rotate(-90,11.731250000000003,237.5)" x="11.731250000000003" y="237.5" text-anchor="middle" style="font-family: sans-serif; font-size: 29px; fill: rgb(0, 0, 0); opacity: 1; font-weight: normal; white-space: pre;">RtcA (μM)</text></g></g></svg>